<?xml version="1.0" encoding="UTF-8" standalone="no"?>
<!DOCTYPE svg PUBLIC "-//W3C//DTD SVG 1.1//EN"
 "http://www.w3.org/Graphics/SVG/1.1/DTD/svg11.dtd">
<!-- Generated by graphviz version 2.43.0 (0)
 -->
<!-- Title: ABLBoundaryPlane.H Pages: 1 -->
<svg width="1925pt" height="151pt"
 viewBox="0.00 0.00 1925.00 151.00" xmlns="http://www.w3.org/2000/svg" xmlns:xlink="http://www.w3.org/1999/xlink">
<g id="graph0" class="graph" transform="scale(1 1) rotate(0) translate(4 147)">
<title>ABLBoundaryPlane.H</title>
<polygon fill="white" stroke="transparent" points="-4,4 -4,-147 1921,-147 1921,4 -4,4"/>
<!-- Node1 -->
<g id="node1" class="node">
<title>Node1</title>
<g id="a_node1"><a xlink:title=" ">
<polygon fill="#bfbfbf" stroke="black" points="1254.5,-123.5 1254.5,-142.5 1373.5,-142.5 1373.5,-123.5 1254.5,-123.5"/>
<text text-anchor="middle" x="1314" y="-130.5" font-family="Helvetica,sans-Serif" font-size="10.00">ABLBoundaryPlane.H</text>
</a>
</g>
</g>
<!-- Node2 -->
<g id="node2" class="node">
<title>Node2</title>
<g id="a_node2"><a xlink:href="_a_b_l_8cpp.html" target="_top" xlink:title=" ">
<polygon fill="white" stroke="black" points="0,-6 0,-25 56,-25 56,-6 0,-6"/>
<text text-anchor="middle" x="28" y="-13" font-family="Helvetica,sans-Serif" font-size="10.00">ABL.cpp</text>
</a>
</g>
</g>
<!-- Node1&#45;&gt;Node2 -->
<g id="edge1" class="edge">
<title>Node1&#45;&gt;Node2</title>
<path fill="none" stroke="midnightblue" d="M1243.95,-129.03C1015.27,-118.92 292.28,-83.52 65,-31 58.95,-29.6 52.58,-27.39 46.86,-25.12"/>
<polygon fill="midnightblue" stroke="midnightblue" points="1243.99,-132.54 1254.14,-129.48 1244.3,-125.54 1243.99,-132.54"/>
</g>
<!-- Node3 -->
<g id="node3" class="node">
<title>Node3</title>
<g id="a_node3"><a xlink:href="_a_b_l_8_h.html" target="_top" xlink:title=" ">
<polygon fill="white" stroke="black" points="943,-67.5 943,-86.5 989,-86.5 989,-67.5 943,-67.5"/>
<text text-anchor="middle" x="966" y="-74.5" font-family="Helvetica,sans-Serif" font-size="10.00">ABL.H</text>
</a>
</g>
</g>
<!-- Node1&#45;&gt;Node3 -->
<g id="edge2" class="edge">
<title>Node1&#45;&gt;Node3</title>
<path fill="none" stroke="midnightblue" d="M1248.56,-121.84C1169.76,-109.62 1041.51,-89.72 989.26,-81.61"/>
<polygon fill="midnightblue" stroke="midnightblue" points="1248.44,-125.37 1258.86,-123.44 1249.51,-118.45 1248.44,-125.37"/>
</g>
<!-- Node17 -->
<g id="node17" class="node">
<title>Node17</title>
<g id="a_node17"><a xlink:href="_a_b_l_boundary_plane_8cpp.html" target="_top" xlink:title=" ">
<polygon fill="white" stroke="black" points="1671.5,-6 1671.5,-25 1800.5,-25 1800.5,-6 1671.5,-6"/>
<text text-anchor="middle" x="1736" y="-13" font-family="Helvetica,sans-Serif" font-size="10.00">ABLBoundaryPlane.cpp</text>
</a>
</g>
</g>
<!-- Node1&#45;&gt;Node17 -->
<g id="edge17" class="edge">
<title>Node1&#45;&gt;Node17</title>
<path fill="none" stroke="midnightblue" d="M1355.1,-120.75C1439.26,-97.72 1629.62,-45.61 1704.71,-25.06"/>
<polygon fill="midnightblue" stroke="midnightblue" points="1354.1,-117.4 1345.37,-123.41 1355.94,-124.15 1354.1,-117.4"/>
</g>
<!-- Node18 -->
<g id="node18" class="node">
<title>Node18</title>
<g id="a_node18"><a xlink:href="_a_b_l_fill_inflow_8_h.html" target="_top" xlink:title=" ">
<polygon fill="white" stroke="black" points="1691.5,-67.5 1691.5,-86.5 1780.5,-86.5 1780.5,-67.5 1691.5,-67.5"/>
<text text-anchor="middle" x="1736" y="-74.5" font-family="Helvetica,sans-Serif" font-size="10.00">ABLFillInflow.H</text>
</a>
</g>
</g>
<!-- Node1&#45;&gt;Node18 -->
<g id="edge18" class="edge">
<title>Node1&#45;&gt;Node18</title>
<path fill="none" stroke="midnightblue" d="M1383.64,-123.09C1470.85,-111.93 1617.74,-93.13 1691.26,-83.73"/>
<polygon fill="midnightblue" stroke="midnightblue" points="1383.04,-119.64 1373.57,-124.38 1383.93,-126.58 1383.04,-119.64"/>
</g>
<!-- Node3&#45;&gt;Node2 -->
<g id="edge14" class="edge">
<title>Node3&#45;&gt;Node2</title>
<path fill="none" stroke="midnightblue" d="M932.42,-75.77C789.98,-74.57 235.31,-67.6 65,-31 58.79,-29.67 52.27,-27.42 46.46,-25.09"/>
<polygon fill="midnightblue" stroke="midnightblue" points="932.67,-79.27 942.69,-75.85 932.72,-72.27 932.67,-79.27"/>
</g>
<!-- Node4 -->
<g id="node4" class="node">
<title>Node4</title>
<g id="a_node4"><a xlink:href="_c_f_d_sim_8cpp.html" target="_top" xlink:title=" ">
<polygon fill="white" stroke="black" points="74,-6 74,-25 150,-25 150,-6 74,-6"/>
<text text-anchor="middle" x="112" y="-13" font-family="Helvetica,sans-Serif" font-size="10.00">CFDSim.cpp</text>
</a>
</g>
</g>
<!-- Node3&#45;&gt;Node4 -->
<g id="edge3" class="edge">
<title>Node3&#45;&gt;Node4</title>
<path fill="none" stroke="midnightblue" d="M932.62,-75.22C800.16,-71.97 311.31,-58.32 159,-31 151.27,-29.61 143.02,-27.35 135.63,-25.02"/>
<polygon fill="midnightblue" stroke="midnightblue" points="932.85,-78.73 942.93,-75.47 933.02,-71.73 932.85,-78.73"/>
</g>
<!-- Node5 -->
<g id="node5" class="node">
<title>Node5</title>
<g id="a_node5"><a xlink:href="_a_b_l_forcing_8cpp.html" target="_top" xlink:title=" ">
<polygon fill="white" stroke="black" points="168.5,-6 168.5,-25 259.5,-25 259.5,-6 168.5,-6"/>
<text text-anchor="middle" x="214" y="-13" font-family="Helvetica,sans-Serif" font-size="10.00">ABLForcing.cpp</text>
</a>
</g>
</g>
<!-- Node3&#45;&gt;Node5 -->
<g id="edge4" class="edge">
<title>Node3&#45;&gt;Node5</title>
<path fill="none" stroke="midnightblue" d="M932.8,-76.12C832.17,-76.01 521.9,-72.1 269,-31 260.13,-29.56 250.62,-27.31 242.04,-25.01"/>
<polygon fill="midnightblue" stroke="midnightblue" points="932.96,-79.62 942.96,-76.12 932.96,-72.62 932.96,-79.62"/>
</g>
<!-- Node6 -->
<g id="node6" class="node">
<title>Node6</title>
<g id="a_node6"><a xlink:href="_a_b_l_mean_boussinesq_8cpp.html" target="_top" xlink:title=" ">
<polygon fill="white" stroke="black" points="278,-6 278,-25 416,-25 416,-6 278,-6"/>
<text text-anchor="middle" x="347" y="-13" font-family="Helvetica,sans-Serif" font-size="10.00">ABLMeanBoussinesq.cpp</text>
</a>
</g>
</g>
<!-- Node3&#45;&gt;Node6 -->
<g id="edge5" class="edge">
<title>Node3&#45;&gt;Node6</title>
<path fill="none" stroke="midnightblue" d="M932.92,-74.41C848.18,-70.09 616.48,-56.69 425,-31 413.12,-29.41 400.31,-27.22 388.57,-25.03"/>
<polygon fill="midnightblue" stroke="midnightblue" points="932.81,-77.91 942.97,-74.92 933.16,-70.92 932.81,-77.91"/>
</g>
<!-- Node7 -->
<g id="node7" class="node">
<title>Node7</title>
<g id="a_node7"><a xlink:href="_a_b_l_meso_forcing_mom_8cpp.html" target="_top" xlink:title=" ">
<polygon fill="white" stroke="black" points="434,-6 434,-25 576,-25 576,-6 434,-6"/>
<text text-anchor="middle" x="505" y="-13" font-family="Helvetica,sans-Serif" font-size="10.00">ABLMesoForcingMom.cpp</text>
</a>
</g>
</g>
<!-- Node3&#45;&gt;Node7 -->
<g id="edge6" class="edge">
<title>Node3&#45;&gt;Node7</title>
<path fill="none" stroke="midnightblue" d="M932.46,-72.74C866,-66.13 712.92,-50.13 585,-31 573.41,-29.27 560.93,-27.13 549.35,-25.04"/>
<polygon fill="midnightblue" stroke="midnightblue" points="932.44,-76.26 942.74,-73.76 933.13,-69.29 932.44,-76.26"/>
</g>
<!-- Node8 -->
<g id="node8" class="node">
<title>Node8</title>
<g id="a_node8"><a xlink:href="_hurricane_forcing_8cpp.html" target="_top" xlink:title=" ">
<polygon fill="white" stroke="black" points="594.5,-6 594.5,-25 713.5,-25 713.5,-6 594.5,-6"/>
<text text-anchor="middle" x="654" y="-13" font-family="Helvetica,sans-Serif" font-size="10.00">HurricaneForcing.cpp</text>
</a>
</g>
</g>
<!-- Node3&#45;&gt;Node8 -->
<g id="edge7" class="edge">
<title>Node3&#45;&gt;Node8</title>
<path fill="none" stroke="midnightblue" d="M932.82,-70.18C885.83,-61.87 797.22,-45.95 722,-31 712.65,-29.14 702.59,-27.05 693.16,-25.04"/>
<polygon fill="midnightblue" stroke="midnightblue" points="932.29,-73.64 942.75,-71.93 933.51,-66.75 932.29,-73.64"/>
</g>
<!-- Node9 -->
<g id="node9" class="node">
<title>Node9</title>
<g id="a_node9"><a xlink:href="_a_b_l_meso_forcing_temp_8cpp.html" target="_top" xlink:title=" ">
<polygon fill="white" stroke="black" points="731.5,-6 731.5,-25 874.5,-25 874.5,-6 731.5,-6"/>
<text text-anchor="middle" x="803" y="-13" font-family="Helvetica,sans-Serif" font-size="10.00">ABLMesoForcingTemp.cpp</text>
</a>
</g>
</g>
<!-- Node3&#45;&gt;Node9 -->
<g id="edge8" class="edge">
<title>Node3&#45;&gt;Node9</title>
<path fill="none" stroke="midnightblue" d="M933.31,-64.07C901.66,-52.52 854.48,-35.29 826.42,-25.05"/>
<polygon fill="midnightblue" stroke="midnightblue" points="932.4,-67.46 942.99,-67.6 934.8,-60.88 932.4,-67.46"/>
</g>
<!-- Node10 -->
<g id="node10" class="node">
<title>Node10</title>
<g id="a_node10"><a xlink:href="_hurricane_temp_forcing_8cpp.html" target="_top" xlink:title=" ">
<polygon fill="white" stroke="black" points="893,-6 893,-25 1039,-25 1039,-6 893,-6"/>
<text text-anchor="middle" x="966" y="-13" font-family="Helvetica,sans-Serif" font-size="10.00">HurricaneTempForcing.cpp</text>
</a>
</g>
</g>
<!-- Node3&#45;&gt;Node10 -->
<g id="edge9" class="edge">
<title>Node3&#45;&gt;Node10</title>
<path fill="none" stroke="midnightblue" d="M966,-57.32C966,-46.5 966,-33.4 966,-25.01"/>
<polygon fill="midnightblue" stroke="midnightblue" points="962.5,-57.48 966,-67.48 969.5,-57.48 962.5,-57.48"/>
</g>
<!-- Node11 -->
<g id="node11" class="node">
<title>Node11</title>
<g id="a_node11"><a xlink:href="helics_8cpp.html" target="_top" xlink:title=" ">
<polygon fill="white" stroke="black" points="1057.5,-6 1057.5,-25 1122.5,-25 1122.5,-6 1057.5,-6"/>
<text text-anchor="middle" x="1090" y="-13" font-family="Helvetica,sans-Serif" font-size="10.00">helics.cpp</text>
</a>
</g>
</g>
<!-- Node3&#45;&gt;Node11 -->
<g id="edge10" class="edge">
<title>Node3&#45;&gt;Node11</title>
<path fill="none" stroke="midnightblue" d="M993.05,-63.02C1017.1,-51.48 1051.56,-34.94 1072.27,-25.01"/>
<polygon fill="midnightblue" stroke="midnightblue" points="991.27,-59.99 983.77,-67.48 994.3,-66.3 991.27,-59.99"/>
</g>
<!-- Node12 -->
<g id="node12" class="node">
<title>Node12</title>
<g id="a_node12"><a xlink:href="incflo_8cpp.html" target="_top" xlink:title=" ">
<polygon fill="white" stroke="black" points="1140.5,-6 1140.5,-25 1203.5,-25 1203.5,-6 1140.5,-6"/>
<text text-anchor="middle" x="1172" y="-13" font-family="Helvetica,sans-Serif" font-size="10.00">incflo.cpp</text>
</a>
</g>
</g>
<!-- Node3&#45;&gt;Node12 -->
<g id="edge11" class="edge">
<title>Node3&#45;&gt;Node12</title>
<path fill="none" stroke="midnightblue" d="M998.82,-67.81C1032.27,-59.28 1085.54,-45.22 1131,-31 1136.76,-29.2 1142.93,-27.11 1148.68,-25.08"/>
<polygon fill="midnightblue" stroke="midnightblue" points="997.94,-64.42 989.11,-70.27 999.66,-71.21 997.94,-64.42"/>
</g>
<!-- Node13 -->
<g id="node13" class="node">
<title>Node13</title>
<g id="a_node13"><a xlink:href="incflo__apply__nodal__projection_8cpp.html" target="_top" xlink:title=" ">
<polygon fill="white" stroke="black" points="1221.5,-0.5 1221.5,-30.5 1328.5,-30.5 1328.5,-0.5 1221.5,-0.5"/>
<text text-anchor="start" x="1229.5" y="-18.5" font-family="Helvetica,sans-Serif" font-size="10.00">incflo_apply_nodal</text>
<text text-anchor="middle" x="1275" y="-7.5" font-family="Helvetica,sans-Serif" font-size="10.00">_projection.cpp</text>
</a>
</g>
</g>
<!-- Node3&#45;&gt;Node13 -->
<g id="edge12" class="edge">
<title>Node3&#45;&gt;Node13</title>
<path fill="none" stroke="midnightblue" d="M999.12,-70.43C1046.45,-62.36 1136.1,-46.67 1212,-31 1215.08,-30.36 1218.24,-29.69 1221.42,-29.01"/>
<polygon fill="midnightblue" stroke="midnightblue" points="998.4,-67 989.13,-72.13 999.58,-73.9 998.4,-67"/>
</g>
<!-- Node14 -->
<g id="node14" class="node">
<title>Node14</title>
<g id="a_node14"><a xlink:href="init_8cpp.html" target="_top" xlink:title=" ">
<polygon fill="white" stroke="black" points="1346.5,-6 1346.5,-25 1399.5,-25 1399.5,-6 1346.5,-6"/>
<text text-anchor="middle" x="1373" y="-13" font-family="Helvetica,sans-Serif" font-size="10.00">init.cpp</text>
</a>
</g>
</g>
<!-- Node3&#45;&gt;Node14 -->
<g id="edge13" class="edge">
<title>Node3&#45;&gt;Node14</title>
<path fill="none" stroke="midnightblue" d="M999.58,-74.87C1065.34,-72 1215.28,-62.31 1337,-31 1342.74,-29.52 1348.79,-27.35 1354.26,-25.13"/>
<polygon fill="midnightblue" stroke="midnightblue" points="999.25,-71.38 989.4,-75.28 999.54,-78.37 999.25,-71.38"/>
</g>
<!-- Node15 -->
<g id="node15" class="node">
<title>Node15</title>
<g id="a_node15"><a xlink:href="_a_b_l_anelastic_8cpp.html" target="_top" xlink:title=" ">
<polygon fill="white" stroke="black" points="1417.5,-6 1417.5,-25 1518.5,-25 1518.5,-6 1417.5,-6"/>
<text text-anchor="middle" x="1468" y="-13" font-family="Helvetica,sans-Serif" font-size="10.00">ABLAnelastic.cpp</text>
</a>
</g>
</g>
<!-- Node3&#45;&gt;Node15 -->
<g id="edge15" class="edge">
<title>Node3&#45;&gt;Node15</title>
<path fill="none" stroke="midnightblue" d="M999.25,-74.16C1073.17,-69.73 1256.55,-56.89 1408,-31 1417.19,-29.43 1427.06,-27.25 1436.09,-25.06"/>
<polygon fill="midnightblue" stroke="midnightblue" points="998.93,-70.67 989.16,-74.75 999.34,-77.66 998.93,-70.67"/>
</g>
<!-- Node16 -->
<g id="node16" class="node">
<title>Node16</title>
<g id="a_node16"><a xlink:href="_a_b_l_wall_function_8cpp.html" target="_top" xlink:title=" ">
<polygon fill="white" stroke="black" points="1536.5,-6 1536.5,-25 1653.5,-25 1653.5,-6 1536.5,-6"/>
<text text-anchor="middle" x="1595" y="-13" font-family="Helvetica,sans-Serif" font-size="10.00">ABLWallFunction.cpp</text>
</a>
</g>
</g>
<!-- Node3&#45;&gt;Node16 -->
<g id="edge16" class="edge">
<title>Node3&#45;&gt;Node16</title>
<path fill="none" stroke="midnightblue" d="M999.16,-74.85C1086.15,-71.49 1327.92,-60.08 1527,-31 1537.51,-29.46 1548.83,-27.27 1559.16,-25.05"/>
<polygon fill="midnightblue" stroke="midnightblue" points="998.96,-71.35 989.1,-75.22 999.22,-78.35 998.96,-71.35"/>
</g>
<!-- Node18&#45;&gt;Node17 -->
<g id="edge19" class="edge">
<title>Node18&#45;&gt;Node17</title>
<path fill="none" stroke="midnightblue" d="M1736,-57.32C1736,-46.5 1736,-33.4 1736,-25.01"/>
<polygon fill="midnightblue" stroke="midnightblue" points="1732.5,-57.48 1736,-67.48 1739.5,-57.48 1732.5,-57.48"/>
</g>
<!-- Node19 -->
<g id="node19" class="node">
<title>Node19</title>
<g id="a_node19"><a xlink:href="_a_b_l_fill_inflow_8cpp.html" target="_top" xlink:title=" ">
<polygon fill="white" stroke="black" points="1819,-6 1819,-25 1917,-25 1917,-6 1819,-6"/>
<text text-anchor="middle" x="1868" y="-13" font-family="Helvetica,sans-Serif" font-size="10.00">ABLFillInflow.cpp</text>
</a>
</g>
</g>
<!-- Node18&#45;&gt;Node19 -->
<g id="edge20" class="edge">
<title>Node18&#45;&gt;Node19</title>
<path fill="none" stroke="midnightblue" d="M1764.11,-63.33C1789.74,-51.78 1826.89,-35.03 1849.12,-25.01"/>
<polygon fill="midnightblue" stroke="midnightblue" points="1762.59,-60.17 1754.91,-67.48 1765.47,-66.56 1762.59,-60.17"/>
</g>
</g>
</svg>
