<?xml version="1.0" encoding="UTF-8" standalone="no"?>
<!DOCTYPE svg PUBLIC "-//W3C//DTD SVG 1.1//EN"
 "http://www.w3.org/Graphics/SVG/1.1/DTD/svg11.dtd">
<!-- Generated by graphviz version 2.43.0 (0)
 -->
<!-- Title: ABLStatsBase.H Pages: 1 -->
<!--zoomable 207 -->
<svg id="main" version="1.1" xmlns="http://www.w3.org/2000/svg" xmlns:xlink="http://www.w3.org/1999/xlink" xml:space="preserve" onload="init(evt)">
<style type="text/css"><![CDATA[
.edge:hover path { stroke: red; }
.edge:hover polygon { stroke: red; fill: red; }
]]></style>
<script type="text/javascript"><![CDATA[
var edges = document.getElementsByTagName('g');
if (edges && edges.length) {
  for (var i=0;i<edges.length;i++) {
    if (edges[i].id.substr(0,4)=='edge') {
      edges[i].setAttribute('class','edge');
    }
  }
}
]]></script>
        <defs>
                <circle id="rim" cx="0" cy="0" r="7"/>
                <circle id="rim2" cx="0" cy="0" r="3.5"/>
                <g id="zoomPlus">
                        <use xlink:href="#rim" fill="#404040">
                                <set attributeName="fill" to="#808080" begin="zoomplus.mouseover" end="zoomplus.mouseout"/>
                        </use>
                        <path d="M-4,0h8M0,-4v8" fill="none" stroke="white" stroke-width="1.5" pointer-events="none"/>
                </g>
                <g id="zoomMin">
                        <use xlink:href="#rim" fill="#404040">
                                <set attributeName="fill" to="#808080" begin="zoomminus.mouseover" end="zoomminus.mouseout"/>
                        </use>
                        <path d="M-4,0h8" fill="none" stroke="white" stroke-width="1.5" pointer-events="none"/>
                </g>
                <g id="dirArrow">
                        <path fill="none" stroke="white" stroke-width="1.5" d="M0,-3.0v7 M-2.5,-0.5L0,-3.0L2.5,-0.5"/>
                </g>
               <g id="resetDef">
                       <use xlink:href="#rim2" fill="#404040">
                               <set attributeName="fill" to="#808080" begin="reset.mouseover" end="reset.mouseout"/>
                       </use>
               </g>
        </defs>

<script type="text/javascript">
var viewWidth = 1785;
var viewHeight = 207;
var sectionId = 'dynsection-1';
</script>
<script xlink:href="svgpan.js"/>
<svg id="graph" class="graph">
<g id="viewport">
<title>ABLStatsBase.H</title>
<polygon fill="white" stroke="transparent" points="-4,4 -4,-203 1781,-203 1781,4 -4,4"/>
<!-- Node1 -->
<g id="node1" class="node">
<title>Node1</title>
<g id="a_node1"><a xlink:title=" ">
<polygon fill="#bfbfbf" stroke="black" points="1006.5,-179.5 1006.5,-198.5 1101.5,-198.5 1101.5,-179.5 1006.5,-179.5"/>
<text text-anchor="middle" x="1054" y="-186.5" font-family="Helvetica,sans-Serif" font-size="10.00">ABLStatsBase.H</text>
</a>
</g>
</g>
<!-- Node2 -->
<g id="node2" class="node">
<title>Node2</title>
<g id="a_node2"><a xlink:href="_a_b_l_8_h.html" target="_top" xlink:title=" ">
<polygon fill="white" stroke="black" points="993,-123.5 993,-142.5 1039,-142.5 1039,-123.5 993,-123.5"/>
<text text-anchor="middle" x="1016" y="-130.5" font-family="Helvetica,sans-Serif" font-size="10.00">ABL.H</text>
</a>
</g>
</g>
<!-- Node1&#45;&gt;Node2 -->
<g id="edge1" class="edge">
<title>Node1&#45;&gt;Node2</title>
<path fill="none" stroke="midnightblue" d="M1041.94,-170.86C1035.36,-161.5 1027.49,-150.33 1022.16,-142.75"/>
<polygon fill="midnightblue" stroke="midnightblue" points="1039.11,-172.92 1047.73,-179.08 1044.83,-168.89 1039.11,-172.92"/>
</g>
<!-- Node19 -->
<g id="node19" class="node">
<title>Node19</title>
<g id="a_node19"><a xlink:href="_a_b_l_stats_8_h.html" target="_top" xlink:title=" ">
<polygon fill="white" stroke="black" points="1379.5,-123.5 1379.5,-142.5 1450.5,-142.5 1450.5,-123.5 1379.5,-123.5"/>
<text text-anchor="middle" x="1415" y="-130.5" font-family="Helvetica,sans-Serif" font-size="10.00">ABLStats.H</text>
</a>
</g>
</g>
<!-- Node1&#45;&gt;Node19 -->
<g id="edge18" class="edge">
<title>Node1&#45;&gt;Node19</title>
<path fill="none" stroke="midnightblue" d="M1111.83,-179.35C1187.24,-168.07 1316.84,-148.68 1379.3,-139.34"/>
<polygon fill="midnightblue" stroke="midnightblue" points="1110.94,-175.94 1101.57,-180.88 1111.97,-182.87 1110.94,-175.94"/>
</g>
<!-- Node3 -->
<g id="node3" class="node">
<title>Node3</title>
<g id="a_node3"><a xlink:href="_c_f_d_sim_8cpp.html" target="_top" xlink:title=" ">
<polygon fill="white" stroke="black" points="0,-67.5 0,-86.5 76,-86.5 76,-67.5 0,-67.5"/>
<text text-anchor="middle" x="38" y="-74.5" font-family="Helvetica,sans-Serif" font-size="10.00">CFDSim.cpp</text>
</a>
</g>
</g>
<!-- Node2&#45;&gt;Node3 -->
<g id="edge2" class="edge">
<title>Node2&#45;&gt;Node3</title>
<path fill="none" stroke="midnightblue" d="M982.77,-132.08C861.9,-132.02 434.38,-128.68 85,-87 82.11,-86.66 79.14,-86.24 76.15,-85.77"/>
<polygon fill="midnightblue" stroke="midnightblue" points="982.87,-135.58 992.87,-132.08 982.87,-128.58 982.87,-135.58"/>
</g>
<!-- Node4 -->
<g id="node4" class="node">
<title>Node4</title>
<g id="a_node4"><a xlink:href="_a_b_l_forcing_8cpp.html" target="_top" xlink:title=" ">
<polygon fill="white" stroke="black" points="94.5,-67.5 94.5,-86.5 185.5,-86.5 185.5,-67.5 94.5,-67.5"/>
<text text-anchor="middle" x="140" y="-74.5" font-family="Helvetica,sans-Serif" font-size="10.00">ABLForcing.cpp</text>
</a>
</g>
</g>
<!-- Node2&#45;&gt;Node4 -->
<g id="edge3" class="edge">
<title>Node2&#45;&gt;Node4</title>
<path fill="none" stroke="midnightblue" d="M982.43,-131.45C870.44,-129.35 499.54,-120.17 195,-87 191.92,-86.66 188.75,-86.27 185.57,-85.84"/>
<polygon fill="midnightblue" stroke="midnightblue" points="982.68,-134.96 992.74,-131.64 982.81,-127.96 982.68,-134.96"/>
</g>
<!-- Node5 -->
<g id="node5" class="node">
<title>Node5</title>
<g id="a_node5"><a xlink:href="_a_b_l_mean_boussinesq_8cpp.html" target="_top" xlink:title=" ">
<polygon fill="white" stroke="black" points="204,-67.5 204,-86.5 342,-86.5 342,-67.5 204,-67.5"/>
<text text-anchor="middle" x="273" y="-74.5" font-family="Helvetica,sans-Serif" font-size="10.00">ABLMeanBoussinesq.cpp</text>
</a>
</g>
</g>
<!-- Node2&#45;&gt;Node5 -->
<g id="edge4" class="edge">
<title>Node2&#45;&gt;Node5</title>
<path fill="none" stroke="midnightblue" d="M982.91,-130.32C885.8,-125.26 593.13,-109.15 351,-87 348.15,-86.74 345.24,-86.46 342.3,-86.17"/>
<polygon fill="midnightblue" stroke="midnightblue" points="982.83,-133.82 993,-130.84 983.19,-126.83 982.83,-133.82"/>
</g>
<!-- Node6 -->
<g id="node6" class="node">
<title>Node6</title>
<g id="a_node6"><a xlink:href="_a_b_l_meso_forcing_mom_8cpp.html" target="_top" xlink:title=" ">
<polygon fill="white" stroke="black" points="360,-67.5 360,-86.5 502,-86.5 502,-67.5 360,-67.5"/>
<text text-anchor="middle" x="431" y="-74.5" font-family="Helvetica,sans-Serif" font-size="10.00">ABLMesoForcingMom.cpp</text>
</a>
</g>
</g>
<!-- Node2&#45;&gt;Node6 -->
<g id="edge5" class="edge">
<title>Node2&#45;&gt;Node6</title>
<path fill="none" stroke="midnightblue" d="M982.76,-129.31C901.93,-122.7 688.69,-104.91 511,-87 508.08,-86.71 505.1,-86.4 502.09,-86.08"/>
<polygon fill="midnightblue" stroke="midnightblue" points="982.58,-132.8 992.83,-130.13 983.15,-125.83 982.58,-132.8"/>
</g>
<!-- Node7 -->
<g id="node7" class="node">
<title>Node7</title>
<g id="a_node7"><a xlink:href="_hurricane_forcing_8cpp.html" target="_top" xlink:title=" ">
<polygon fill="white" stroke="black" points="520.5,-67.5 520.5,-86.5 639.5,-86.5 639.5,-67.5 520.5,-67.5"/>
<text text-anchor="middle" x="580" y="-74.5" font-family="Helvetica,sans-Serif" font-size="10.00">HurricaneForcing.cpp</text>
</a>
</g>
</g>
<!-- Node2&#45;&gt;Node7 -->
<g id="edge6" class="edge">
<title>Node2&#45;&gt;Node7</title>
<path fill="none" stroke="midnightblue" d="M982.74,-128.04C918.18,-120.34 771.38,-102.71 648,-87 645.28,-86.65 642.51,-86.3 639.7,-85.94"/>
<polygon fill="midnightblue" stroke="midnightblue" points="982.4,-131.53 992.74,-129.24 983.22,-124.58 982.4,-131.53"/>
</g>
<!-- Node8 -->
<g id="node8" class="node">
<title>Node8</title>
<g id="a_node8"><a xlink:href="_a_b_l_meso_forcing_temp_8cpp.html" target="_top" xlink:title=" ">
<polygon fill="white" stroke="black" points="657.5,-67.5 657.5,-86.5 800.5,-86.5 800.5,-67.5 657.5,-67.5"/>
<text text-anchor="middle" x="729" y="-74.5" font-family="Helvetica,sans-Serif" font-size="10.00">ABLMesoForcingTemp.cpp</text>
</a>
</g>
</g>
<!-- Node2&#45;&gt;Node8 -->
<g id="edge7" class="edge">
<title>Node2&#45;&gt;Node8</title>
<path fill="none" stroke="midnightblue" d="M983.1,-125.81C931.77,-116.15 832.51,-97.48 774.4,-86.54"/>
<polygon fill="midnightblue" stroke="midnightblue" points="982.52,-129.26 993,-127.67 983.82,-122.38 982.52,-129.26"/>
</g>
<!-- Node9 -->
<g id="node9" class="node">
<title>Node9</title>
<g id="a_node9"><a xlink:href="_hurricane_temp_forcing_8cpp.html" target="_top" xlink:title=" ">
<polygon fill="white" stroke="black" points="819,-67.5 819,-86.5 965,-86.5 965,-67.5 819,-67.5"/>
<text text-anchor="middle" x="892" y="-74.5" font-family="Helvetica,sans-Serif" font-size="10.00">HurricaneTempForcing.cpp</text>
</a>
</g>
</g>
<!-- Node2&#45;&gt;Node9 -->
<g id="edge8" class="edge">
<title>Node2&#45;&gt;Node9</title>
<path fill="none" stroke="midnightblue" d="M986.99,-119.37C963.77,-109.26 931.84,-95.35 911.56,-86.52"/>
<polygon fill="midnightblue" stroke="midnightblue" points="985.79,-122.66 996.35,-123.44 988.58,-116.24 985.79,-122.66"/>
</g>
<!-- Node10 -->
<g id="node10" class="node">
<title>Node10</title>
<g id="a_node10"><a xlink:href="helics_8cpp.html" target="_top" xlink:title=" ">
<polygon fill="white" stroke="black" points="983.5,-67.5 983.5,-86.5 1048.5,-86.5 1048.5,-67.5 983.5,-67.5"/>
<text text-anchor="middle" x="1016" y="-74.5" font-family="Helvetica,sans-Serif" font-size="10.00">helics.cpp</text>
</a>
</g>
</g>
<!-- Node2&#45;&gt;Node10 -->
<g id="edge9" class="edge">
<title>Node2&#45;&gt;Node10</title>
<path fill="none" stroke="midnightblue" d="M1016,-112.8C1016,-103.91 1016,-93.78 1016,-86.75"/>
<polygon fill="midnightblue" stroke="midnightblue" points="1012.5,-113.08 1016,-123.08 1019.5,-113.08 1012.5,-113.08"/>
</g>
<!-- Node11 -->
<g id="node11" class="node">
<title>Node11</title>
<g id="a_node11"><a xlink:href="incflo_8cpp.html" target="_top" xlink:title=" ">
<polygon fill="white" stroke="black" points="1066.5,-67.5 1066.5,-86.5 1129.5,-86.5 1129.5,-67.5 1066.5,-67.5"/>
<text text-anchor="middle" x="1098" y="-74.5" font-family="Helvetica,sans-Serif" font-size="10.00">incflo.cpp</text>
</a>
</g>
</g>
<!-- Node2&#45;&gt;Node11 -->
<g id="edge10" class="edge">
<title>Node2&#45;&gt;Node11</title>
<path fill="none" stroke="midnightblue" d="M1037.83,-117.62C1052.81,-107.76 1072.2,-94.99 1084.86,-86.65"/>
<polygon fill="midnightblue" stroke="midnightblue" points="1035.6,-114.9 1029.17,-123.32 1039.45,-120.75 1035.6,-114.9"/>
</g>
<!-- Node12 -->
<g id="node12" class="node">
<title>Node12</title>
<g id="a_node12"><a xlink:href="nodal__projection__ops_8_h.html" target="_top" xlink:title=" ">
<polygon fill="white" stroke="black" points="1147.5,-67.5 1147.5,-86.5 1278.5,-86.5 1278.5,-67.5 1147.5,-67.5"/>
<text text-anchor="middle" x="1213" y="-74.5" font-family="Helvetica,sans-Serif" font-size="10.00">nodal_projection_ops.H</text>
</a>
</g>
</g>
<!-- Node2&#45;&gt;Node12 -->
<g id="edge11" class="edge">
<title>Node2&#45;&gt;Node12</title>
<path fill="none" stroke="midnightblue" d="M1049.19,-122.9C1086.23,-112.75 1145.71,-96.45 1181.89,-86.53"/>
<polygon fill="midnightblue" stroke="midnightblue" points="1048.09,-119.57 1039.37,-125.59 1049.94,-126.33 1048.09,-119.57"/>
</g>
<!-- Node15 -->
<g id="node15" class="node">
<title>Node15</title>
<g id="a_node15"><a xlink:href="init_8cpp.html" target="_top" xlink:title=" ">
<polygon fill="white" stroke="black" points="1296.5,-67.5 1296.5,-86.5 1349.5,-86.5 1349.5,-67.5 1296.5,-67.5"/>
<text text-anchor="middle" x="1323" y="-74.5" font-family="Helvetica,sans-Serif" font-size="10.00">init.cpp</text>
</a>
</g>
</g>
<!-- Node2&#45;&gt;Node15 -->
<g id="edge14" class="edge">
<title>Node2&#45;&gt;Node15</title>
<path fill="none" stroke="midnightblue" d="M1049.49,-127.32C1100.84,-119.96 1201.99,-104.65 1287,-87 1290.03,-86.37 1293.19,-85.66 1296.32,-84.92"/>
<polygon fill="midnightblue" stroke="midnightblue" points="1048.72,-123.9 1039.32,-128.77 1049.71,-130.83 1048.72,-123.9"/>
</g>
<!-- Node16 -->
<g id="node16" class="node">
<title>Node16</title>
<g id="a_node16"><a xlink:href="_a_b_l_8cpp.html" target="_top" xlink:title=" ">
<polygon fill="white" stroke="black" points="1368,-67.5 1368,-86.5 1424,-86.5 1424,-67.5 1368,-67.5"/>
<text text-anchor="middle" x="1396" y="-74.5" font-family="Helvetica,sans-Serif" font-size="10.00">ABL.cpp</text>
</a>
</g>
</g>
<!-- Node2&#45;&gt;Node16 -->
<g id="edge15" class="edge">
<title>Node2&#45;&gt;Node16</title>
<path fill="none" stroke="midnightblue" d="M1049.62,-128.72C1111.12,-122.48 1245.76,-107.62 1358,-87 1361.2,-86.41 1364.54,-85.73 1367.85,-85"/>
<polygon fill="midnightblue" stroke="midnightblue" points="1048.95,-125.27 1039.35,-129.76 1049.65,-132.24 1048.95,-125.27"/>
</g>
<!-- Node17 -->
<g id="node17" class="node">
<title>Node17</title>
<g id="a_node17"><a xlink:href="_a_b_l_anelastic_8cpp.html" target="_top" xlink:title=" ">
<polygon fill="white" stroke="black" points="1442.5,-67.5 1442.5,-86.5 1543.5,-86.5 1543.5,-67.5 1442.5,-67.5"/>
<text text-anchor="middle" x="1493" y="-74.5" font-family="Helvetica,sans-Serif" font-size="10.00">ABLAnelastic.cpp</text>
</a>
</g>
</g>
<!-- Node2&#45;&gt;Node17 -->
<g id="edge16" class="edge">
<title>Node2&#45;&gt;Node17</title>
<path fill="none" stroke="midnightblue" d="M1049.17,-128.89C1119.85,-122.16 1290.46,-105.37 1433,-87 1436.03,-86.61 1439.14,-86.19 1442.28,-85.76"/>
<polygon fill="midnightblue" stroke="midnightblue" points="1048.72,-125.42 1039.09,-129.85 1049.38,-132.39 1048.72,-125.42"/>
</g>
<!-- Node18 -->
<g id="node18" class="node">
<title>Node18</title>
<g id="a_node18"><a xlink:href="_a_b_l_wall_function_8cpp.html" target="_top" xlink:title=" ">
<polygon fill="white" stroke="black" points="1561.5,-67.5 1561.5,-86.5 1678.5,-86.5 1678.5,-67.5 1561.5,-67.5"/>
<text text-anchor="middle" x="1620" y="-74.5" font-family="Helvetica,sans-Serif" font-size="10.00">ABLWallFunction.cpp</text>
</a>
</g>
</g>
<!-- Node2&#45;&gt;Node18 -->
<g id="edge17" class="edge">
<title>Node2&#45;&gt;Node18</title>
<path fill="none" stroke="midnightblue" d="M1049.25,-129.76C1133.5,-123.98 1362.11,-107.53 1552,-87 1555.08,-86.67 1558.23,-86.31 1561.42,-85.93"/>
<polygon fill="midnightblue" stroke="midnightblue" points="1048.76,-126.29 1039.02,-130.46 1049.24,-133.27 1048.76,-126.29"/>
</g>
<!-- Node13 -->
<g id="node13" class="node">
<title>Node13</title>
<g id="a_node13"><a xlink:href="_overset_ops_8cpp.html" target="_top" xlink:title=" ">
<polygon fill="white" stroke="black" points="1107,-6 1107,-25 1201,-25 1201,-6 1107,-6"/>
<text text-anchor="middle" x="1154" y="-13" font-family="Helvetica,sans-Serif" font-size="10.00">OversetOps.cpp</text>
</a>
</g>
</g>
<!-- Node12&#45;&gt;Node13 -->
<g id="edge12" class="edge">
<title>Node12&#45;&gt;Node13</title>
<path fill="none" stroke="midnightblue" d="M1197.46,-60.32C1186.25,-49.02 1171.54,-34.19 1162.44,-25.01"/>
<polygon fill="midnightblue" stroke="midnightblue" points="1195.02,-62.84 1204.55,-67.48 1199.99,-57.91 1195.02,-62.84"/>
</g>
<!-- Node14 -->
<g id="node14" class="node">
<title>Node14</title>
<g id="a_node14"><a xlink:href="incflo__apply__nodal__projection_8cpp.html" target="_top" xlink:title=" ">
<polygon fill="white" stroke="black" points="1219.5,-0.5 1219.5,-30.5 1326.5,-30.5 1326.5,-0.5 1219.5,-0.5"/>
<text text-anchor="start" x="1227.5" y="-18.5" font-family="Helvetica,sans-Serif" font-size="10.00">incflo_apply_nodal</text>
<text text-anchor="middle" x="1273" y="-7.5" font-family="Helvetica,sans-Serif" font-size="10.00">_projection.cpp</text>
</a>
</g>
</g>
<!-- Node12&#45;&gt;Node14 -->
<g id="edge13" class="edge">
<title>Node12&#45;&gt;Node14</title>
<path fill="none" stroke="midnightblue" d="M1228.76,-60.37C1238.1,-51.11 1249.82,-39.48 1258.86,-30.52"/>
<polygon fill="midnightblue" stroke="midnightblue" points="1226.23,-57.95 1221.6,-67.48 1231.16,-62.92 1226.23,-57.95"/>
</g>
<!-- Node20 -->
<g id="node20" class="node">
<title>Node20</title>
<g id="a_node20"><a xlink:href="_a_b_l_stats_8cpp.html" target="_top" xlink:title=" ">
<polygon fill="white" stroke="black" points="1697,-67.5 1697,-86.5 1777,-86.5 1777,-67.5 1697,-67.5"/>
<text text-anchor="middle" x="1737" y="-74.5" font-family="Helvetica,sans-Serif" font-size="10.00">ABLStats.cpp</text>
</a>
</g>
</g>
<!-- Node19&#45;&gt;Node20 -->
<g id="edge19" class="edge">
<title>Node19&#45;&gt;Node20</title>
<path fill="none" stroke="midnightblue" d="M1460.63,-124.65C1514.69,-115.9 1607.46,-100.74 1687,-87 1690.22,-86.44 1693.55,-85.86 1696.89,-85.27"/>
<polygon fill="midnightblue" stroke="midnightblue" points="1459.98,-121.21 1450.67,-126.26 1461.1,-128.12 1459.98,-121.21"/>
</g>
</g>
</svg>
        <g id="navigator" transform="translate(0 0)" fill="#404254">
                <rect fill="#f2f5e9" fill-opacity="0.5" stroke="#606060" stroke-width=".5" x="0" y="0" width="60" height="60"/>
                <use id="zoomplus" xlink:href="#zoomPlus" x="17" y="9" onmousedown="handleZoom(evt,'in')"/>
                <use id="zoomminus" xlink:href="#zoomMin" x="42" y="9" onmousedown="handleZoom(evt,'out')"/>
                <use id="reset" xlink:href="#resetDef" x="30" y="36" onmousedown="handleReset()"/>
                <g id="arrowUp" xlink:href="#dirArrow" transform="translate(30 24)" onmousedown="handlePan(0,-1)">
                  <use xlink:href="#rim" fill="#404040">
                        <set attributeName="fill" to="#808080" begin="arrowUp.mouseover" end="arrowUp.mouseout"/>
                  </use>
                  <path fill="none" stroke="white" stroke-width="1.5" d="M0,-3.0v7 M-2.5,-0.5L0,-3.0L2.5,-0.5"/>
                </g>
                <g id="arrowRight" xlink:href="#dirArrow" transform="rotate(90) translate(36 -43)" onmousedown="handlePan(1,0)">
                  <use xlink:href="#rim" fill="#404040">
                        <set attributeName="fill" to="#808080" begin="arrowRight.mouseover" end="arrowRight.mouseout"/>
                  </use>
                  <path fill="none" stroke="white" stroke-width="1.5" d="M0,-3.0v7 M-2.5,-0.5L0,-3.0L2.5,-0.5"/>
                </g>
                <g id="arrowDown" xlink:href="#dirArrow" transform="rotate(180) translate(-30 -48)" onmousedown="handlePan(0,1)">
                  <use xlink:href="#rim" fill="#404040">
                        <set attributeName="fill" to="#808080" begin="arrowDown.mouseover" end="arrowDown.mouseout"/>
                  </use>
                  <path fill="none" stroke="white" stroke-width="1.5" d="M0,-3.0v7 M-2.5,-0.5L0,-3.0L2.5,-0.5"/>
                </g>
                <g id="arrowLeft" xlink:href="#dirArrow" transform="rotate(270) translate(-36 17)" onmousedown="handlePan(-1,0)">
                  <use xlink:href="#rim" fill="#404040">
                        <set attributeName="fill" to="#808080" begin="arrowLeft.mouseover" end="arrowLeft.mouseout"/>
                  </use>
                  <path fill="none" stroke="white" stroke-width="1.5" d="M0,-3.0v7 M-2.5,-0.5L0,-3.0L2.5,-0.5"/>
                </g>
        </g>
        <svg viewBox="0 0 15 15" width="100%" height="30px" preserveAspectRatio="xMaxYMin meet">
         <g id="arrow_out" transform="scale(0.3 0.3)">
          <a xlink:href="_a_b_l_stats_base_8_h__dep__incl_org.svg" target="_base">
           <rect id="button" ry="5" rx="5" y="6" x="6" height="38" width="38"
                fill="#f2f5e9" fill-opacity="0.5" stroke="#606060" stroke-width="1.0"/>
           <path id="arrow"
             d="M 11.500037,31.436501 C 11.940474,20.09759 22.043105,11.32322 32.158766,21.979434 L 37.068811,17.246167 C 37.068811,17.246167 37.088388,32 37.088388,32 L 22.160133,31.978069 C 22.160133,31.978069 26.997745,27.140456 26.997745,27.140456 C 18.528582,18.264221 13.291696,25.230495 11.500037,31.436501 z"
             style="fill:#404040;"/>
          </a>
         </g>
        </svg>
</svg>
