<?xml version="1.0" encoding="UTF-8" standalone="no"?>
<!DOCTYPE svg PUBLIC "-//W3C//DTD SVG 1.1//EN"
 "http://www.w3.org/Graphics/SVG/1.1/DTD/svg11.dtd">
<!-- Generated by graphviz version 2.43.0 (0)
 -->
<!-- Title: ABLBoundaryPlane.H Pages: 1 -->
<svg width="1007pt" height="151pt"
 viewBox="0.00 0.00 1006.50 151.00" xmlns="http://www.w3.org/2000/svg" xmlns:xlink="http://www.w3.org/1999/xlink">
<g id="graph0" class="graph" transform="scale(1 1) rotate(0) translate(4 147)">
<title>ABLBoundaryPlane.H</title>
<polygon fill="white" stroke="transparent" points="-4,4 -4,-147 1002.5,-147 1002.5,4 -4,4"/>
<!-- Node1 -->
<g id="node1" class="node">
<title>Node1</title>
<g id="a_node1"><a xlink:title=" ">
<polygon fill="#bfbfbf" stroke="black" points="666,-123.5 666,-142.5 785,-142.5 785,-123.5 666,-123.5"/>
<text text-anchor="middle" x="725.5" y="-130.5" font-family="Helvetica,sans-Serif" font-size="10.00">ABLBoundaryPlane.H</text>
</a>
</g>
</g>
<!-- Node2 -->
<g id="node2" class="node">
<title>Node2</title>
<g id="a_node2"><a xlink:href="_a_b_l_8_h.html" target="_top" xlink:title=" ">
<polygon fill="white" stroke="black" points="426.5,-67.5 426.5,-86.5 472.5,-86.5 472.5,-67.5 426.5,-67.5"/>
<text text-anchor="middle" x="449.5" y="-74.5" font-family="Helvetica,sans-Serif" font-size="10.00">ABL.H</text>
</a>
</g>
</g>
<!-- Node1&#45;&gt;Node2 -->
<g id="edge1" class="edge">
<title>Node1&#45;&gt;Node2</title>
<path fill="none" stroke="midnightblue" d="M671.66,-121.47C611.31,-109.66 516.23,-91.06 472.68,-82.54"/>
<polygon fill="midnightblue" stroke="midnightblue" points="671.28,-124.96 681.77,-123.44 672.63,-118.09 671.28,-124.96"/>
</g>
<!-- Node8 -->
<g id="node8" class="node">
<title>Node8</title>
<g id="a_node8"><a xlink:href="_a_b_l_8cpp.html" target="_top" xlink:title=" ">
<polygon fill="white" stroke="black" points="678.5,-6 678.5,-25 734.5,-25 734.5,-6 678.5,-6"/>
<text text-anchor="middle" x="706.5" y="-13" font-family="Helvetica,sans-Serif" font-size="10.00">ABL.cpp</text>
</a>
</g>
</g>
<!-- Node1&#45;&gt;Node8 -->
<g id="edge9" class="edge">
<title>Node1&#45;&gt;Node8</title>
<path fill="none" stroke="midnightblue" d="M722.4,-113.16C718.24,-87.87 711.01,-43.94 707.94,-25.28"/>
<polygon fill="midnightblue" stroke="midnightblue" points="719,-114.02 724.07,-123.32 725.9,-112.88 719,-114.02"/>
</g>
<!-- Node10 -->
<g id="node10" class="node">
<title>Node10</title>
<g id="a_node10"><a xlink:href="_a_b_l_boundary_plane_8cpp.html" target="_top" xlink:title=" ">
<polygon fill="white" stroke="black" points="753,-6 753,-25 882,-25 882,-6 753,-6"/>
<text text-anchor="middle" x="817.5" y="-13" font-family="Helvetica,sans-Serif" font-size="10.00">ABLBoundaryPlane.cpp</text>
</a>
</g>
</g>
<!-- Node1&#45;&gt;Node10 -->
<g id="edge10" class="edge">
<title>Node1&#45;&gt;Node10</title>
<path fill="none" stroke="midnightblue" d="M734.65,-113.9C741.88,-100.37 752.7,-81.74 764.5,-67 777.52,-50.73 795.61,-34.58 806.93,-25.07"/>
<polygon fill="midnightblue" stroke="midnightblue" points="731.37,-112.62 729.86,-123.11 737.58,-115.85 731.37,-112.62"/>
</g>
<!-- Node11 -->
<g id="node11" class="node">
<title>Node11</title>
<g id="a_node11"><a xlink:href="_a_b_l_fill_inflow_8_h.html" target="_top" xlink:title=" ">
<polygon fill="white" stroke="black" points="773,-67.5 773,-86.5 862,-86.5 862,-67.5 773,-67.5"/>
<text text-anchor="middle" x="817.5" y="-74.5" font-family="Helvetica,sans-Serif" font-size="10.00">ABLFillInflow.H</text>
</a>
</g>
</g>
<!-- Node1&#45;&gt;Node11 -->
<g id="edge11" class="edge">
<title>Node1&#45;&gt;Node11</title>
<path fill="none" stroke="midnightblue" d="M749.05,-118.18C765.98,-108.24 788.28,-95.15 802.76,-86.65"/>
<polygon fill="midnightblue" stroke="midnightblue" points="747.13,-115.24 740.28,-123.32 750.68,-121.28 747.13,-115.24"/>
</g>
<!-- Node3 -->
<g id="node3" class="node">
<title>Node3</title>
<g id="a_node3"><a xlink:href="_a_b_l_forcing_8cpp.html" target="_top" xlink:title=" ">
<polygon fill="white" stroke="black" points="0,-6 0,-25 91,-25 91,-6 0,-6"/>
<text text-anchor="middle" x="45.5" y="-13" font-family="Helvetica,sans-Serif" font-size="10.00">ABLForcing.cpp</text>
</a>
</g>
</g>
<!-- Node2&#45;&gt;Node3 -->
<g id="edge2" class="edge">
<title>Node2&#45;&gt;Node3</title>
<path fill="none" stroke="midnightblue" d="M416.45,-73.18C354.22,-67.55 215.56,-53.49 100.5,-31 92.17,-29.37 83.22,-27.2 75.02,-25.04"/>
<polygon fill="midnightblue" stroke="midnightblue" points="416.2,-76.67 426.47,-74.07 416.82,-69.7 416.2,-76.67"/>
</g>
<!-- Node4 -->
<g id="node4" class="node">
<title>Node4</title>
<g id="a_node4"><a xlink:href="_a_b_l_mean_boussinesq_8cpp.html" target="_top" xlink:title=" ">
<polygon fill="white" stroke="black" points="109.5,-6 109.5,-25 247.5,-25 247.5,-6 109.5,-6"/>
<text text-anchor="middle" x="178.5" y="-13" font-family="Helvetica,sans-Serif" font-size="10.00">ABLMeanBoussinesq.cpp</text>
</a>
</g>
</g>
<!-- Node2&#45;&gt;Node4 -->
<g id="edge3" class="edge">
<title>Node2&#45;&gt;Node4</title>
<path fill="none" stroke="midnightblue" d="M416.39,-68.73C366.17,-57.7 270.94,-36.8 217.46,-25.05"/>
<polygon fill="midnightblue" stroke="midnightblue" points="415.88,-72.2 426.39,-70.93 417.38,-65.36 415.88,-72.2"/>
</g>
<!-- Node5 -->
<g id="node5" class="node">
<title>Node5</title>
<g id="a_node5"><a xlink:href="incflo_8cpp.html" target="_top" xlink:title=" ">
<polygon fill="white" stroke="black" points="266,-6 266,-25 329,-25 329,-6 266,-6"/>
<text text-anchor="middle" x="297.5" y="-13" font-family="Helvetica,sans-Serif" font-size="10.00">incflo.cpp</text>
</a>
</g>
</g>
<!-- Node2&#45;&gt;Node5 -->
<g id="edge4" class="edge">
<title>Node2&#45;&gt;Node5</title>
<path fill="none" stroke="midnightblue" d="M418.29,-63.78C388.75,-52.22 345.18,-35.16 319.24,-25.01"/>
<polygon fill="midnightblue" stroke="midnightblue" points="417.13,-67.09 427.72,-67.48 419.69,-60.57 417.13,-67.09"/>
</g>
<!-- Node6 -->
<g id="node6" class="node">
<title>Node6</title>
<g id="a_node6"><a xlink:href="incflo__apply__nodal__projection_8cpp.html" target="_top" xlink:title=" ">
<polygon fill="white" stroke="black" points="347,-0.5 347,-30.5 454,-30.5 454,-0.5 347,-0.5"/>
<text text-anchor="start" x="355" y="-18.5" font-family="Helvetica,sans-Serif" font-size="10.00">incflo_apply_nodal</text>
<text text-anchor="middle" x="400.5" y="-7.5" font-family="Helvetica,sans-Serif" font-size="10.00">_projection.cpp</text>
</a>
</g>
</g>
<!-- Node2&#45;&gt;Node6 -->
<g id="edge5" class="edge">
<title>Node2&#45;&gt;Node6</title>
<path fill="none" stroke="midnightblue" d="M435.94,-59.53C428.43,-50.42 419.21,-39.21 412.05,-30.52"/>
<polygon fill="midnightblue" stroke="midnightblue" points="433.42,-61.98 442.48,-67.48 438.82,-57.53 433.42,-61.98"/>
</g>
<!-- Node7 -->
<g id="node7" class="node">
<title>Node7</title>
<g id="a_node7"><a xlink:href="init_8cpp.html" target="_top" xlink:title=" ">
<polygon fill="white" stroke="black" points="472,-6 472,-25 525,-25 525,-6 472,-6"/>
<text text-anchor="middle" x="498.5" y="-13" font-family="Helvetica,sans-Serif" font-size="10.00">init.cpp</text>
</a>
</g>
</g>
<!-- Node2&#45;&gt;Node7 -->
<g id="edge6" class="edge">
<title>Node2&#45;&gt;Node7</title>
<path fill="none" stroke="midnightblue" d="M462.95,-59.67C472.19,-48.45 484.07,-34.02 491.49,-25.01"/>
<polygon fill="midnightblue" stroke="midnightblue" points="460.18,-57.53 456.52,-67.48 465.58,-61.98 460.18,-57.53"/>
</g>
<!-- Node2&#45;&gt;Node8 -->
<g id="edge7" class="edge">
<title>Node2&#45;&gt;Node8</title>
<path fill="none" stroke="midnightblue" d="M482.79,-70.88C526.08,-63.84 603.78,-49.86 668.5,-31 674.19,-29.34 680.24,-27.21 685.8,-25.09"/>
<polygon fill="midnightblue" stroke="midnightblue" points="482.14,-67.45 472.82,-72.48 483.25,-74.36 482.14,-67.45"/>
</g>
<!-- Node9 -->
<g id="node9" class="node">
<title>Node9</title>
<g id="a_node9"><a xlink:href="_a_b_l_wall_function_8cpp.html" target="_top" xlink:title=" ">
<polygon fill="white" stroke="black" points="543,-6 543,-25 660,-25 660,-6 543,-6"/>
<text text-anchor="middle" x="601.5" y="-13" font-family="Helvetica,sans-Serif" font-size="10.00">ABLWallFunction.cpp</text>
</a>
</g>
</g>
<!-- Node2&#45;&gt;Node9 -->
<g id="edge8" class="edge">
<title>Node2&#45;&gt;Node9</title>
<path fill="none" stroke="midnightblue" d="M480.71,-63.78C510.25,-52.22 553.82,-35.16 579.76,-25.01"/>
<polygon fill="midnightblue" stroke="midnightblue" points="479.31,-60.57 471.28,-67.48 481.87,-67.09 479.31,-60.57"/>
</g>
<!-- Node11&#45;&gt;Node10 -->
<g id="edge12" class="edge">
<title>Node11&#45;&gt;Node10</title>
<path fill="none" stroke="midnightblue" d="M817.5,-57.32C817.5,-46.5 817.5,-33.4 817.5,-25.01"/>
<polygon fill="midnightblue" stroke="midnightblue" points="814,-57.48 817.5,-67.48 821,-57.48 814,-57.48"/>
</g>
<!-- Node12 -->
<g id="node12" class="node">
<title>Node12</title>
<g id="a_node12"><a xlink:href="_a_b_l_fill_inflow_8cpp.html" target="_top" xlink:title=" ">
<polygon fill="white" stroke="black" points="900.5,-6 900.5,-25 998.5,-25 998.5,-6 900.5,-6"/>
<text text-anchor="middle" x="949.5" y="-13" font-family="Helvetica,sans-Serif" font-size="10.00">ABLFillInflow.cpp</text>
</a>
</g>
</g>
<!-- Node11&#45;&gt;Node12 -->
<g id="edge13" class="edge">
<title>Node11&#45;&gt;Node12</title>
<path fill="none" stroke="midnightblue" d="M845.61,-63.33C871.24,-51.78 908.39,-35.03 930.62,-25.01"/>
<polygon fill="midnightblue" stroke="midnightblue" points="844.09,-60.17 836.41,-67.48 846.97,-66.56 844.09,-60.17"/>
</g>
</g>
</svg>
