<?xml version="1.0" encoding="UTF-8" standalone="no"?>
<!DOCTYPE svg PUBLIC "-//W3C//DTD SVG 1.1//EN"
 "http://www.w3.org/Graphics/SVG/1.1/DTD/svg11.dtd">
<!-- Generated by graphviz version 2.43.0 (0)
 -->
<!-- Title: ABLMeanBoussinesq.H Pages: 1 -->
<svg width="2792pt" height="408pt"
 viewBox="0.00 0.00 2791.95 408.00" xmlns="http://www.w3.org/2000/svg" xmlns:xlink="http://www.w3.org/1999/xlink">
<g id="graph0" class="graph" transform="scale(1 1) rotate(0) translate(4 404)">
<title>ABLMeanBoussinesq.H</title>
<polygon fill="white" stroke="transparent" points="-4,4 -4,-404 2787.95,-404 2787.95,4 -4,4"/>
<!-- Node1 -->
<g id="node1" class="node">
<title>Node1</title>
<g id="a_node1"><a xlink:title=" ">
<polygon fill="#bfbfbf" stroke="black" points="581.95,-380.5 581.95,-399.5 709.95,-399.5 709.95,-380.5 581.95,-380.5"/>
<text text-anchor="middle" x="645.95" y="-387.5" font-family="Helvetica,sans-Serif" font-size="10.00">ABLMeanBoussinesq.H</text>
</a>
</g>
</g>
<!-- Node2 -->
<g id="node2" class="node">
<title>Node2</title>
<g id="a_node2"><a xlink:href="_field_repo_8_h.html" target="_top" xlink:title=" ">
<polygon fill="white" stroke="black" points="571.45,-185 571.45,-204 720.45,-204 720.45,-185 571.45,-185"/>
<text text-anchor="middle" x="645.95" y="-192" font-family="Helvetica,sans-Serif" font-size="10.00">amr&#45;wind/core/FieldRepo.H</text>
</a>
</g>
</g>
<!-- Node1&#45;&gt;Node2 -->
<g id="edge1" class="edge">
<title>Node1&#45;&gt;Node2</title>
<path fill="none" stroke="midnightblue" d="M645.95,-380.44C645.95,-351.29 645.95,-255.47 645.95,-214.43"/>
<polygon fill="midnightblue" stroke="midnightblue" points="649.45,-214.41 645.95,-204.41 642.45,-214.41 649.45,-214.41"/>
</g>
<!-- Node22 -->
<g id="node22" class="node">
<title>Node22</title>
<g id="a_node22"><a xlink:href="_momentum_source_8_h.html" target="_top" xlink:title=" ">
<polygon fill="white" stroke="black" points="299.45,-246.5 299.45,-276.5 454.45,-276.5 454.45,-246.5 299.45,-246.5"/>
<text text-anchor="start" x="307.45" y="-264.5" font-family="Helvetica,sans-Serif" font-size="10.00">amr&#45;wind/equation_systems</text>
<text text-anchor="middle" x="376.95" y="-253.5" font-family="Helvetica,sans-Serif" font-size="10.00">/icns/MomentumSource.H</text>
</a>
</g>
</g>
<!-- Node1&#45;&gt;Node22 -->
<g id="edge38" class="edge">
<title>Node1&#45;&gt;Node22</title>
<path fill="none" stroke="midnightblue" d="M627.46,-380.31C584.17,-359.95 475.45,-308.82 416.48,-281.09"/>
<polygon fill="midnightblue" stroke="midnightblue" points="417.65,-277.77 407.11,-276.68 414.67,-284.1 417.65,-277.77"/>
</g>
<!-- Node27 -->
<g id="node27" class="node">
<title>Node27</title>
<g id="a_node27"><a xlink:href="_field_plane_averaging_8_h.html" target="_top" xlink:title=" ">
<polygon fill="white" stroke="black" points="1184.45,-313.5 1184.45,-343.5 1313.45,-343.5 1313.45,-313.5 1184.45,-313.5"/>
<text text-anchor="start" x="1192.45" y="-331.5" font-family="Helvetica,sans-Serif" font-size="10.00">amr&#45;wind/utilities</text>
<text text-anchor="middle" x="1248.95" y="-320.5" font-family="Helvetica,sans-Serif" font-size="10.00">/FieldPlaneAveraging.H</text>
</a>
</g>
</g>
<!-- Node1&#45;&gt;Node27 -->
<g id="edge49" class="edge">
<title>Node1&#45;&gt;Node27</title>
<path fill="none" stroke="midnightblue" d="M710.2,-382.66C822.69,-371.56 1054.7,-348.67 1174.2,-336.88"/>
<polygon fill="midnightblue" stroke="midnightblue" points="1174.75,-340.34 1184.36,-335.87 1174.06,-333.37 1174.75,-340.34"/>
</g>
<!-- Node3 -->
<g id="node3" class="node">
<title>Node3</title>
<g id="a_node3"><a xlink:title=" ">
<polygon fill="white" stroke="#bfbfbf" points="990.95,-0.5 990.95,-19.5 1034.95,-19.5 1034.95,-0.5 990.95,-0.5"/>
<text text-anchor="middle" x="1012.95" y="-7.5" font-family="Helvetica,sans-Serif" font-size="10.00">string</text>
</a>
</g>
</g>
<!-- Node2&#45;&gt;Node3 -->
<g id="edge2" class="edge">
<title>Node2&#45;&gt;Node3</title>
<path fill="none" stroke="midnightblue" d="M693.69,-184.97C759.32,-171.3 878.52,-139.35 959.95,-76 977.3,-62.51 992.61,-42.33 1002.26,-28.04"/>
<polygon fill="midnightblue" stroke="midnightblue" points="1005.22,-29.92 1007.75,-19.63 999.36,-26.09 1005.22,-29.92"/>
</g>
<!-- Node4 -->
<g id="node4" class="node">
<title>Node4</title>
<g id="a_node4"><a xlink:title=" ">
<polygon fill="white" stroke="#bfbfbf" points="1455.45,-56.5 1455.45,-75.5 1548.45,-75.5 1548.45,-56.5 1455.45,-56.5"/>
<text text-anchor="middle" x="1501.95" y="-63.5" font-family="Helvetica,sans-Serif" font-size="10.00">unordered_map</text>
</a>
</g>
</g>
<!-- Node2&#45;&gt;Node4 -->
<g id="edge3" class="edge">
<title>Node2&#45;&gt;Node4</title>
<path fill="none" stroke="midnightblue" d="M720.48,-188.96C890.01,-178.5 1292.06,-152.83 1319.95,-143 1342.86,-134.92 1343.19,-122.79 1364.95,-112 1394.42,-97.39 1429.72,-85.93 1457.11,-78.22"/>
<polygon fill="midnightblue" stroke="midnightblue" points="1458.1,-81.58 1466.81,-75.56 1456.24,-74.83 1458.1,-81.58"/>
</g>
<!-- Node5 -->
<g id="node5" class="node">
<title>Node5</title>
<g id="a_node5"><a xlink:href="_field_desc_types_8_h.html" target="_top" xlink:title=" ">
<polygon fill="white" stroke="black" points="290.95,-0.5 290.95,-19.5 466.95,-19.5 466.95,-0.5 290.95,-0.5"/>
<text text-anchor="middle" x="378.95" y="-7.5" font-family="Helvetica,sans-Serif" font-size="10.00">amr&#45;wind/core/FieldDescTypes.H</text>
</a>
</g>
</g>
<!-- Node2&#45;&gt;Node5 -->
<g id="edge4" class="edge">
<title>Node2&#45;&gt;Node5</title>
<path fill="none" stroke="midnightblue" d="M571.29,-192.92C483.85,-190.48 346.72,-180.56 313.95,-143 288.53,-113.86 294.88,-90.19 312.95,-56 320.38,-41.95 334.37,-31.47 347.57,-24.17"/>
<polygon fill="midnightblue" stroke="midnightblue" points="349.17,-27.28 356.49,-19.62 345.99,-21.04 349.17,-27.28"/>
</g>
<!-- Node6 -->
<g id="node6" class="node">
<title>Node6</title>
<g id="a_node6"><a xlink:href="_field_utils_8_h.html" target="_top" xlink:title=" ">
<polygon fill="white" stroke="black" points="12.95,-118 12.95,-137 158.95,-137 158.95,-118 12.95,-118"/>
<text text-anchor="middle" x="85.95" y="-125" font-family="Helvetica,sans-Serif" font-size="10.00">amr&#45;wind/core/FieldUtils.H</text>
</a>
</g>
</g>
<!-- Node2&#45;&gt;Node6 -->
<g id="edge5" class="edge">
<title>Node2&#45;&gt;Node6</title>
<path fill="none" stroke="midnightblue" d="M571.24,-186.89C477.87,-178.32 313.28,-162.17 172.95,-143 163.61,-141.72 153.72,-140.22 144.1,-138.68"/>
<polygon fill="midnightblue" stroke="midnightblue" points="144.63,-135.22 134.19,-137.06 143.5,-142.13 144.63,-135.22"/>
</g>
<!-- Node7 -->
<g id="node7" class="node">
<title>Node7</title>
<g id="a_node7"><a xlink:title=" ">
<polygon fill="white" stroke="#bfbfbf" points="672.45,-0.5 672.45,-19.5 781.45,-19.5 781.45,-0.5 672.45,-0.5"/>
<text text-anchor="middle" x="726.95" y="-7.5" font-family="Helvetica,sans-Serif" font-size="10.00">AMReX_MultiFab.H</text>
</a>
</g>
</g>
<!-- Node2&#45;&gt;Node7 -->
<g id="edge36" class="edge">
<title>Node2&#45;&gt;Node7</title>
<path fill="none" stroke="midnightblue" d="M632.77,-184.77C600.69,-162.48 523.7,-101.94 558.95,-56 571.8,-39.26 620.71,-27.38 662.47,-20.05"/>
<polygon fill="midnightblue" stroke="midnightblue" points="663.08,-23.5 672.35,-18.37 661.91,-16.59 663.08,-23.5"/>
</g>
<!-- Node9 -->
<g id="node9" class="node">
<title>Node9</title>
<g id="a_node9"><a xlink:href="_field_8_h.html" target="_top" xlink:title=" ">
<polygon fill="white" stroke="black" points="1186.95,-118 1186.95,-137 1310.95,-137 1310.95,-118 1186.95,-118"/>
<text text-anchor="middle" x="1248.95" y="-125" font-family="Helvetica,sans-Serif" font-size="10.00">amr&#45;wind/core/Field.H</text>
</a>
</g>
</g>
<!-- Node2&#45;&gt;Node9 -->
<g id="edge9" class="edge">
<title>Node2&#45;&gt;Node9</title>
<path fill="none" stroke="midnightblue" d="M720.5,-185.46C837.19,-172.89 1061.53,-148.7 1176.76,-136.28"/>
<polygon fill="midnightblue" stroke="midnightblue" points="1177.32,-139.74 1186.89,-135.19 1176.57,-132.78 1177.32,-139.74"/>
</g>
<!-- Node17 -->
<g id="node17" class="node">
<title>Node17</title>
<g id="a_node17"><a xlink:href="_int_field_8_h.html" target="_top" xlink:title=" ">
<polygon fill="white" stroke="black" points="323.45,-118 323.45,-137 460.45,-137 460.45,-118 323.45,-118"/>
<text text-anchor="middle" x="391.95" y="-125" font-family="Helvetica,sans-Serif" font-size="10.00">amr&#45;wind/core/IntField.H</text>
</a>
</g>
</g>
<!-- Node2&#45;&gt;Node17 -->
<g id="edge24" class="edge">
<title>Node2&#45;&gt;Node17</title>
<path fill="none" stroke="midnightblue" d="M612.48,-184.94C566.99,-173.29 485.56,-152.45 435.39,-139.62"/>
<polygon fill="midnightblue" stroke="midnightblue" points="436.05,-136.17 425.49,-137.08 434.31,-142.95 436.05,-136.17"/>
</g>
<!-- Node18 -->
<g id="node18" class="node">
<title>Node18</title>
<g id="a_node18"><a xlink:title=" ">
<polygon fill="white" stroke="#bfbfbf" points="360.95,-56.5 360.95,-75.5 472.95,-75.5 472.95,-56.5 360.95,-56.5"/>
<text text-anchor="middle" x="416.95" y="-63.5" font-family="Helvetica,sans-Serif" font-size="10.00">AMReX_iMultiFab.H</text>
</a>
</g>
</g>
<!-- Node2&#45;&gt;Node18 -->
<g id="edge37" class="edge">
<title>Node2&#45;&gt;Node18</title>
<path fill="none" stroke="midnightblue" d="M615.73,-184.95C587.98,-176.42 546.25,-161.9 512.95,-143 496.73,-133.79 457.65,-101.51 434.67,-82.1"/>
<polygon fill="midnightblue" stroke="midnightblue" points="436.89,-79.4 427,-75.6 432.36,-84.74 436.89,-79.4"/>
</g>
<!-- Node19 -->
<g id="node19" class="node">
<title>Node19</title>
<g id="a_node19"><a xlink:href="_scratch_field_8_h.html" target="_top" xlink:title=" ">
<polygon fill="white" stroke="black" points="646.95,-118 646.95,-137 806.95,-137 806.95,-118 646.95,-118"/>
<text text-anchor="middle" x="726.95" y="-125" font-family="Helvetica,sans-Serif" font-size="10.00">amr&#45;wind/core/ScratchField.H</text>
</a>
</g>
</g>
<!-- Node2&#45;&gt;Node19 -->
<g id="edge28" class="edge">
<title>Node2&#45;&gt;Node19</title>
<path fill="none" stroke="midnightblue" d="M656.88,-184.73C669.99,-174.21 692.21,-156.38 708.11,-143.62"/>
<polygon fill="midnightblue" stroke="midnightblue" points="710.59,-146.12 716.2,-137.13 706.21,-140.66 710.59,-146.12"/>
</g>
<!-- Node21 -->
<g id="node21" class="node">
<title>Node21</title>
<g id="a_node21"><a xlink:title=" ">
<polygon fill="white" stroke="#bfbfbf" points="1373.95,-118 1373.95,-137 1483.95,-137 1483.95,-118 1373.95,-118"/>
<text text-anchor="middle" x="1428.95" y="-125" font-family="Helvetica,sans-Serif" font-size="10.00">AMReX_AmrCore.H</text>
</a>
</g>
</g>
<!-- Node2&#45;&gt;Node21 -->
<g id="edge35" class="edge">
<title>Node2&#45;&gt;Node21</title>
<path fill="none" stroke="midnightblue" d="M720.61,-189.45C877.41,-180.73 1236.48,-159.64 1357.95,-143 1365.75,-141.93 1373.98,-140.52 1381.96,-138.99"/>
<polygon fill="midnightblue" stroke="midnightblue" points="1382.77,-142.4 1391.89,-137.02 1381.4,-135.54 1382.77,-142.4"/>
</g>
<!-- Node6&#45;&gt;Node5 -->
<g id="edge6" class="edge">
<title>Node6&#45;&gt;Node5</title>
<path fill="none" stroke="midnightblue" d="M67.53,-117.97C41.64,-104.86 -0.24,-78.88 19.95,-56 37.03,-36.65 180.15,-23.6 280.44,-16.73"/>
<polygon fill="midnightblue" stroke="midnightblue" points="280.87,-20.21 290.61,-16.05 280.4,-13.23 280.87,-20.21"/>
</g>
<!-- Node6&#45;&gt;Node7 -->
<g id="edge7" class="edge">
<title>Node6&#45;&gt;Node7</title>
<path fill="none" stroke="midnightblue" d="M104.85,-117.88C139.15,-102.66 214.26,-71.18 280.95,-56 414.35,-25.65 574.84,-15.76 662.32,-12.55"/>
<polygon fill="midnightblue" stroke="midnightblue" points="662.49,-16.04 672.36,-12.19 662.25,-9.05 662.49,-16.04"/>
</g>
<!-- Node8 -->
<g id="node8" class="node">
<title>Node8</title>
<g id="a_node8"><a xlink:title=" ">
<polygon fill="white" stroke="#bfbfbf" points="28.95,-56.5 28.95,-75.5 152.95,-75.5 152.95,-56.5 28.95,-56.5"/>
<text text-anchor="middle" x="90.95" y="-63.5" font-family="Helvetica,sans-Serif" font-size="10.00">AMReX_Interpolater.H</text>
</a>
</g>
</g>
<!-- Node6&#45;&gt;Node8 -->
<g id="edge8" class="edge">
<title>Node6&#45;&gt;Node8</title>
<path fill="none" stroke="midnightblue" d="M86.67,-117.98C87.37,-109.58 88.47,-96.48 89.38,-85.66"/>
<polygon fill="midnightblue" stroke="midnightblue" points="92.89,-85.77 90.24,-75.51 85.91,-85.18 92.89,-85.77"/>
</g>
<!-- Node9&#45;&gt;Node3 -->
<g id="edge10" class="edge">
<title>Node9&#45;&gt;Node3</title>
<path fill="none" stroke="midnightblue" d="M1295.87,-117.92C1337.77,-109.19 1394.53,-94.35 1407.95,-76 1413.2,-68.83 1413.87,-62.63 1407.95,-56 1383.91,-29.06 1135.28,-16.1 1045.26,-12.26"/>
<polygon fill="midnightblue" stroke="midnightblue" points="1045.23,-8.76 1035.1,-11.84 1044.94,-15.75 1045.23,-8.76"/>
</g>
<!-- Node9&#45;&gt;Node4 -->
<g id="edge12" class="edge">
<title>Node9&#45;&gt;Node4</title>
<path fill="none" stroke="midnightblue" d="M1285.2,-117.98C1330.1,-107.42 1406.66,-89.41 1455.74,-77.87"/>
<polygon fill="midnightblue" stroke="midnightblue" points="1456.84,-81.21 1465.77,-75.51 1455.23,-74.39 1456.84,-81.21"/>
</g>
<!-- Node9&#45;&gt;Node5 -->
<g id="edge18" class="edge">
<title>Node9&#45;&gt;Node5</title>
<path fill="none" stroke="midnightblue" d="M1234.67,-117.94C1217.95,-107.9 1189.43,-90.77 1164.95,-76 1150.27,-67.14 1148.32,-61.11 1131.95,-56 1071.11,-37.03 667.38,-20.89 477.43,-14.24"/>
<polygon fill="midnightblue" stroke="midnightblue" points="477.28,-10.74 467.16,-13.89 477.03,-17.73 477.28,-10.74"/>
</g>
<!-- Node9&#45;&gt;Node7 -->
<g id="edge14" class="edge">
<title>Node9&#45;&gt;Node7</title>
<path fill="none" stroke="midnightblue" d="M1241.72,-117.67C1228.4,-102.1 1198.27,-70.1 1164.95,-56 1131.46,-41.83 905.71,-23.86 792.06,-15.57"/>
<polygon fill="midnightblue" stroke="midnightblue" points="791.98,-12.05 781.75,-14.82 791.47,-19.04 791.98,-12.05"/>
</g>
<!-- Node10 -->
<g id="node10" class="node">
<title>Node10</title>
<g id="a_node10"><a xlink:title=" ">
<polygon fill="white" stroke="#bfbfbf" points="1790.95,-56.5 1790.95,-75.5 1848.95,-75.5 1848.95,-56.5 1790.95,-56.5"/>
<text text-anchor="middle" x="1819.95" y="-63.5" font-family="Helvetica,sans-Serif" font-size="10.00">memory</text>
</a>
</g>
</g>
<!-- Node9&#45;&gt;Node10 -->
<g id="edge11" class="edge">
<title>Node9&#45;&gt;Node10</title>
<path fill="none" stroke="midnightblue" d="M1311.21,-118.27C1328.59,-116.1 1347.49,-113.84 1364.95,-112 1546.69,-92.8 1596.54,-105.07 1780.57,-76.01"/>
<polygon fill="midnightblue" stroke="midnightblue" points="1781.26,-79.44 1790.58,-74.41 1780.15,-72.53 1781.26,-79.44"/>
</g>
<!-- Node11 -->
<g id="node11" class="node">
<title>Node11</title>
<g id="a_node11"><a xlink:title=" ">
<polygon fill="white" stroke="#bfbfbf" points="1216.95,-56.5 1216.95,-75.5 1280.95,-75.5 1280.95,-56.5 1216.95,-56.5"/>
<text text-anchor="middle" x="1248.95" y="-63.5" font-family="Helvetica,sans-Serif" font-size="10.00">algorithm</text>
</a>
</g>
</g>
<!-- Node9&#45;&gt;Node11 -->
<g id="edge13" class="edge">
<title>Node9&#45;&gt;Node11</title>
<path fill="none" stroke="midnightblue" d="M1248.95,-117.98C1248.95,-109.58 1248.95,-96.48 1248.95,-85.66"/>
<polygon fill="midnightblue" stroke="midnightblue" points="1252.45,-85.51 1248.95,-75.51 1245.45,-85.51 1252.45,-85.51"/>
</g>
<!-- Node12 -->
<g id="node12" class="node">
<title>Node12</title>
<g id="a_node12"><a xlink:title=" ">
<polygon fill="white" stroke="#bfbfbf" points="1299.45,-56.5 1299.45,-75.5 1398.45,-75.5 1398.45,-56.5 1299.45,-56.5"/>
<text text-anchor="middle" x="1348.95" y="-63.5" font-family="Helvetica,sans-Serif" font-size="10.00">AMReX_BCRec.H</text>
</a>
</g>
</g>
<!-- Node9&#45;&gt;Node12 -->
<g id="edge15" class="edge">
<title>Node9&#45;&gt;Node12</title>
<path fill="none" stroke="midnightblue" d="M1263.28,-117.98C1279.62,-108.25 1306.55,-92.23 1325.86,-80.74"/>
<polygon fill="midnightblue" stroke="midnightblue" points="1327.85,-83.63 1334.65,-75.51 1324.27,-77.61 1327.85,-83.63"/>
</g>
<!-- Node13 -->
<g id="node13" class="node">
<title>Node13</title>
<g id="a_node13"><a xlink:title=" ">
<polygon fill="white" stroke="#bfbfbf" points="1035.45,-56.5 1035.45,-75.5 1122.45,-75.5 1122.45,-56.5 1035.45,-56.5"/>
<text text-anchor="middle" x="1078.95" y="-63.5" font-family="Helvetica,sans-Serif" font-size="10.00">AMReX_Gpu.H</text>
</a>
</g>
</g>
<!-- Node9&#45;&gt;Node13 -->
<g id="edge16" class="edge">
<title>Node9&#45;&gt;Node13</title>
<path fill="none" stroke="midnightblue" d="M1224.59,-117.98C1195.31,-107.72 1145.98,-90.46 1112.95,-78.9"/>
<polygon fill="midnightblue" stroke="midnightblue" points="1113.86,-75.51 1103.26,-75.51 1111.55,-82.12 1113.86,-75.51"/>
</g>
<!-- Node14 -->
<g id="node14" class="node">
<title>Node14</title>
<g id="a_node14"><a xlink:href="incflo__enums_8_h.html" target="_top" xlink:title=" ">
<polygon fill="white" stroke="black" points="2023.45,-56.5 2023.45,-75.5 2164.45,-75.5 2164.45,-56.5 2023.45,-56.5"/>
<text text-anchor="middle" x="2093.95" y="-63.5" font-family="Helvetica,sans-Serif" font-size="10.00">amr&#45;wind/incflo_enums.H</text>
</a>
</g>
</g>
<!-- Node9&#45;&gt;Node14 -->
<g id="edge17" class="edge">
<title>Node9&#45;&gt;Node14</title>
<path fill="none" stroke="midnightblue" d="M1311.18,-117.99C1328.56,-115.81 1347.47,-113.63 1364.95,-112 1428.04,-106.12 1836.98,-81.99 2013.28,-71.69"/>
<polygon fill="midnightblue" stroke="midnightblue" points="2013.5,-75.19 2023.28,-71.11 2013.09,-68.2 2013.5,-75.19"/>
</g>
<!-- Node15 -->
<g id="node15" class="node">
<title>Node15</title>
<g id="a_node15"><a xlink:href="_view_field_8_h.html" target="_top" xlink:title=" ">
<polygon fill="white" stroke="black" points="754.95,-56.5 754.95,-75.5 902.95,-75.5 902.95,-56.5 754.95,-56.5"/>
<text text-anchor="middle" x="828.95" y="-63.5" font-family="Helvetica,sans-Serif" font-size="10.00">amr&#45;wind/core/ViewField.H</text>
</a>
</g>
</g>
<!-- Node9&#45;&gt;Node15 -->
<g id="edge19" class="edge">
<title>Node9&#45;&gt;Node15</title>
<path fill="none" stroke="midnightblue" d="M1188.78,-117.98C1112.21,-107.13 980.2,-88.43 899.13,-76.94"/>
<polygon fill="midnightblue" stroke="midnightblue" points="899.41,-73.45 889.02,-75.51 898.43,-80.38 899.41,-73.45"/>
</g>
<!-- Node15&#45;&gt;Node3 -->
<g id="edge20" class="edge">
<title>Node15&#45;&gt;Node3</title>
<path fill="none" stroke="midnightblue" d="M858.11,-56.44C891.68,-46.59 946.64,-30.46 981.25,-20.3"/>
<polygon fill="midnightblue" stroke="midnightblue" points="982.25,-23.66 990.86,-17.48 980.28,-16.94 982.25,-23.66"/>
</g>
<!-- Node15&#45;&gt;Node5 -->
<g id="edge21" class="edge">
<title>Node15&#45;&gt;Node5</title>
<path fill="none" stroke="midnightblue" d="M757.65,-56.44C676.68,-46.73 544.84,-30.91 460.03,-20.73"/>
<polygon fill="midnightblue" stroke="midnightblue" points="460.27,-17.23 449.92,-19.52 459.43,-24.18 460.27,-17.23"/>
</g>
<!-- Node15&#45;&gt;Node7 -->
<g id="edge22" class="edge">
<title>Node15&#45;&gt;Node7</title>
<path fill="none" stroke="midnightblue" d="M812.56,-56.32C796.28,-47.7 771.08,-34.36 752.24,-24.39"/>
<polygon fill="midnightblue" stroke="midnightblue" points="753.77,-21.24 743.3,-19.65 750.5,-27.43 753.77,-21.24"/>
</g>
<!-- Node16 -->
<g id="node16" class="node">
<title>Node16</title>
<g id="a_node16"><a xlink:title=" ">
<polygon fill="white" stroke="#bfbfbf" points="874.95,-0.5 874.95,-19.5 972.95,-19.5 972.95,-0.5 874.95,-0.5"/>
<text text-anchor="middle" x="923.95" y="-7.5" font-family="Helvetica,sans-Serif" font-size="10.00">AMReX_Vector.H</text>
</a>
</g>
</g>
<!-- Node15&#45;&gt;Node16 -->
<g id="edge23" class="edge">
<title>Node15&#45;&gt;Node16</title>
<path fill="none" stroke="midnightblue" d="M844.22,-56.32C859.17,-47.82 882.21,-34.73 899.68,-24.8"/>
<polygon fill="midnightblue" stroke="midnightblue" points="901.76,-27.64 908.73,-19.65 898.3,-21.55 901.76,-27.64"/>
</g>
<!-- Node17&#45;&gt;Node3 -->
<g id="edge25" class="edge">
<title>Node17&#45;&gt;Node3</title>
<path fill="none" stroke="midnightblue" d="M380.58,-117.84C363.24,-103.62 333.98,-75.03 351.95,-56 398.36,-6.87 876.4,-30.01 980.64,-19.44"/>
<polygon fill="midnightblue" stroke="midnightblue" points="981.29,-22.88 990.74,-18.1 980.37,-15.94 981.29,-22.88"/>
</g>
<!-- Node17&#45;&gt;Node5 -->
<g id="edge26" class="edge">
<title>Node17&#45;&gt;Node5</title>
<path fill="none" stroke="midnightblue" d="M369.59,-117.91C352.28,-109.92 329.54,-96.2 318.95,-76 308.21,-55.5 330.9,-36.61 351.39,-24.54"/>
<polygon fill="midnightblue" stroke="midnightblue" points="353.18,-27.55 360.23,-19.65 349.79,-21.43 353.18,-27.55"/>
</g>
<!-- Node17&#45;&gt;Node18 -->
<g id="edge27" class="edge">
<title>Node17&#45;&gt;Node18</title>
<path fill="none" stroke="midnightblue" d="M395.53,-117.98C399.14,-109.4 404.8,-95.93 409.4,-84.98"/>
<polygon fill="midnightblue" stroke="midnightblue" points="412.73,-86.08 413.38,-75.51 406.28,-83.37 412.73,-86.08"/>
</g>
<!-- Node19&#45;&gt;Node3 -->
<g id="edge29" class="edge">
<title>Node19&#45;&gt;Node3</title>
<path fill="none" stroke="midnightblue" d="M790.5,-117.95C832.02,-110.66 886.58,-97.79 930.95,-76 956.78,-63.32 982.04,-41.45 997.54,-26.61"/>
<polygon fill="midnightblue" stroke="midnightblue" points="1000.02,-29.08 1004.71,-19.58 995.12,-24.08 1000.02,-29.08"/>
</g>
<!-- Node19&#45;&gt;Node5 -->
<g id="edge30" class="edge">
<title>Node19&#45;&gt;Node5</title>
<path fill="none" stroke="midnightblue" d="M696.75,-117.96C663,-108.29 606.81,-91.82 558.95,-76 506.62,-58.7 446.52,-36.52 410.7,-23.06"/>
<polygon fill="midnightblue" stroke="midnightblue" points="411.86,-19.75 401.26,-19.5 409.39,-26.3 411.86,-19.75"/>
</g>
<!-- Node19&#45;&gt;Node7 -->
<g id="edge32" class="edge">
<title>Node19&#45;&gt;Node7</title>
<path fill="none" stroke="midnightblue" d="M726.95,-117.82C726.95,-99.26 726.95,-55.34 726.95,-29.97"/>
<polygon fill="midnightblue" stroke="midnightblue" points="730.45,-29.78 726.95,-19.78 723.45,-29.78 730.45,-29.78"/>
</g>
<!-- Node19&#45;&gt;Node15 -->
<g id="edge31" class="edge">
<title>Node19&#45;&gt;Node15</title>
<path fill="none" stroke="midnightblue" d="M741.57,-117.98C758.3,-108.21 785.96,-92.08 805.67,-80.58"/>
<polygon fill="midnightblue" stroke="midnightblue" points="807.49,-83.57 814.36,-75.51 803.96,-77.52 807.49,-83.57"/>
</g>
<!-- Node19&#45;&gt;Node16 -->
<g id="edge33" class="edge">
<title>Node19&#45;&gt;Node16</title>
<path fill="none" stroke="midnightblue" d="M807.09,-123.51C843.98,-117.91 885.36,-104.92 911.95,-76 923.23,-63.74 925.57,-44.48 925.49,-30.1"/>
<polygon fill="midnightblue" stroke="midnightblue" points="928.98,-29.68 925.03,-19.84 921.98,-29.99 928.98,-29.68"/>
</g>
<!-- Node20 -->
<g id="node20" class="node">
<title>Node20</title>
<g id="a_node20"><a xlink:title=" ">
<polygon fill="white" stroke="#bfbfbf" points="567.45,-56.5 567.45,-75.5 698.45,-75.5 698.45,-56.5 567.45,-56.5"/>
<text text-anchor="middle" x="632.95" y="-63.5" font-family="Helvetica,sans-Serif" font-size="10.00">AMReX_PhysBCFunct.H</text>
</a>
</g>
</g>
<!-- Node19&#45;&gt;Node20 -->
<g id="edge34" class="edge">
<title>Node19&#45;&gt;Node20</title>
<path fill="none" stroke="midnightblue" d="M713.48,-117.98C698.27,-108.34 673.26,-92.52 655.15,-81.05"/>
<polygon fill="midnightblue" stroke="midnightblue" points="656.72,-77.9 646.39,-75.51 652.97,-83.81 656.72,-77.9"/>
</g>
<!-- Node22&#45;&gt;Node2 -->
<g id="edge47" class="edge">
<title>Node22&#45;&gt;Node2</title>
<path fill="none" stroke="midnightblue" d="M434.99,-246.48C484.67,-234.47 555.2,-217.43 600.77,-206.42"/>
<polygon fill="midnightblue" stroke="midnightblue" points="601.76,-209.78 610.66,-204.03 600.11,-202.98 601.76,-209.78"/>
</g>
<!-- Node22&#45;&gt;Node5 -->
<g id="edge45" class="edge">
<title>Node22&#45;&gt;Node5</title>
<path fill="none" stroke="midnightblue" d="M325.85,-246.41C290.85,-236.6 243.44,-223 201.95,-210 113.3,-182.23 58.1,-218.49 3.95,-143 -4.08,-131.8 3.1,-125.75 3.95,-112 5.51,-86.97 -6.81,-73.71 10.95,-56 29.81,-37.2 178.07,-23.9 280.55,-16.85"/>
<polygon fill="midnightblue" stroke="midnightblue" points="280.89,-20.33 290.63,-16.16 280.41,-13.35 280.89,-20.33"/>
</g>
<!-- Node22&#45;&gt;Node6 -->
<g id="edge46" class="edge">
<title>Node22&#45;&gt;Node6</title>
<path fill="none" stroke="midnightblue" d="M346.09,-246.5C289.23,-220.71 168.79,-166.08 114.07,-141.25"/>
<polygon fill="midnightblue" stroke="midnightblue" points="115.5,-138.06 104.95,-137.12 112.61,-144.44 115.5,-138.06"/>
</g>
<!-- Node22&#45;&gt;Node7 -->
<g id="edge48" class="edge">
<title>Node22&#45;&gt;Node7</title>
<path fill="none" stroke="midnightblue" d="M366.27,-246.27C351.12,-225.08 324.1,-183.41 313.95,-143 304.02,-103.47 309.42,-79.18 342.95,-56 393.23,-21.25 566.3,-13.17 662.02,-11.4"/>
<polygon fill="midnightblue" stroke="midnightblue" points="662.22,-14.89 672.16,-11.23 662.11,-7.9 662.22,-14.89"/>
</g>
<!-- Node23 -->
<g id="node23" class="node">
<title>Node23</title>
<g id="a_node23"><a xlink:href="_factory_8_h.html" target="_top" xlink:title=" ">
<polygon fill="white" stroke="black" points="1676.95,-118 1676.95,-137 1810.95,-137 1810.95,-118 1676.95,-118"/>
<text text-anchor="middle" x="1743.95" y="-125" font-family="Helvetica,sans-Serif" font-size="10.00">amr&#45;wind/core/Factory.H</text>
</a>
</g>
</g>
<!-- Node22&#45;&gt;Node23 -->
<g id="edge39" class="edge">
<title>Node22&#45;&gt;Node23</title>
<path fill="none" stroke="midnightblue" d="M454.67,-250.57C587.67,-233.85 867.57,-199.87 1104.95,-179 1354.72,-157.05 1419.21,-174.56 1667.95,-143 1676.48,-141.92 1685.49,-140.47 1694.21,-138.91"/>
<polygon fill="midnightblue" stroke="midnightblue" points="1695.07,-142.31 1704.26,-137.04 1693.79,-135.43 1695.07,-142.31"/>
</g>
<!-- Node23&#45;&gt;Node4 -->
<g id="edge41" class="edge">
<title>Node23&#45;&gt;Node4</title>
<path fill="none" stroke="midnightblue" d="M1709.28,-117.98C1666.42,-107.44 1593.41,-89.49 1546.45,-77.94"/>
<polygon fill="midnightblue" stroke="midnightblue" points="1547.11,-74.5 1536.56,-75.51 1545.44,-81.3 1547.11,-74.5"/>
</g>
<!-- Node23&#45;&gt;Node10 -->
<g id="edge40" class="edge">
<title>Node23&#45;&gt;Node10</title>
<path fill="none" stroke="midnightblue" d="M1754.84,-117.98C1766.92,-108.52 1786.62,-93.1 1801.19,-81.69"/>
<polygon fill="midnightblue" stroke="midnightblue" points="1803.37,-84.43 1809.08,-75.51 1799.05,-78.92 1803.37,-84.43"/>
</g>
<!-- Node24 -->
<g id="node24" class="node">
<title>Node24</title>
<g id="a_node24"><a xlink:title=" ">
<polygon fill="white" stroke="#bfbfbf" points="1604.95,-56.5 1604.95,-75.5 1664.95,-75.5 1664.95,-56.5 1604.95,-56.5"/>
<text text-anchor="middle" x="1634.95" y="-63.5" font-family="Helvetica,sans-Serif" font-size="10.00">iostream</text>
</a>
</g>
</g>
<!-- Node23&#45;&gt;Node24 -->
<g id="edge42" class="edge">
<title>Node23&#45;&gt;Node24</title>
<path fill="none" stroke="midnightblue" d="M1728.33,-117.98C1710.37,-108.17 1680.63,-91.93 1659.55,-80.42"/>
<polygon fill="midnightblue" stroke="midnightblue" points="1660.99,-77.23 1650.54,-75.51 1657.64,-83.37 1660.99,-77.23"/>
</g>
<!-- Node25 -->
<g id="node25" class="node">
<title>Node25</title>
<g id="a_node25"><a xlink:title=" ">
<polygon fill="white" stroke="#bfbfbf" points="1682.95,-56.5 1682.95,-75.5 1772.95,-75.5 1772.95,-56.5 1682.95,-56.5"/>
<text text-anchor="middle" x="1727.95" y="-63.5" font-family="Helvetica,sans-Serif" font-size="10.00">AMReX_Print.H</text>
</a>
</g>
</g>
<!-- Node23&#45;&gt;Node25 -->
<g id="edge43" class="edge">
<title>Node23&#45;&gt;Node25</title>
<path fill="none" stroke="midnightblue" d="M1741.66,-117.98C1739.38,-109.49 1735.8,-96.2 1732.88,-85.32"/>
<polygon fill="midnightblue" stroke="midnightblue" points="1736.22,-84.26 1730.24,-75.51 1729.46,-86.07 1736.22,-84.26"/>
</g>
<!-- Node26 -->
<g id="node26" class="node">
<title>Node26</title>
<g id="a_node26"><a xlink:title=" ">
<polygon fill="white" stroke="#bfbfbf" points="1866.95,-56.5 1866.95,-75.5 1928.95,-75.5 1928.95,-56.5 1866.95,-56.5"/>
<text text-anchor="middle" x="1897.95" y="-63.5" font-family="Helvetica,sans-Serif" font-size="10.00">AMReX.H</text>
</a>
</g>
</g>
<!-- Node23&#45;&gt;Node26 -->
<g id="edge44" class="edge">
<title>Node23&#45;&gt;Node26</title>
<path fill="none" stroke="midnightblue" d="M1766.02,-117.98C1792.32,-107.81 1836.46,-90.76 1866.38,-79.2"/>
<polygon fill="midnightblue" stroke="midnightblue" points="1867.86,-82.38 1875.93,-75.51 1865.34,-75.85 1867.86,-82.38"/>
</g>
<!-- Node27&#45;&gt;Node9 -->
<g id="edge77" class="edge">
<title>Node27&#45;&gt;Node9</title>
<path fill="none" stroke="midnightblue" d="M1248.95,-313.19C1248.95,-277.99 1248.95,-187.17 1248.95,-147.51"/>
<polygon fill="midnightblue" stroke="midnightblue" points="1252.45,-147.36 1248.95,-137.36 1245.45,-147.36 1252.45,-147.36"/>
</g>
<!-- Node28 -->
<g id="node28" class="node">
<title>Node28</title>
<g id="a_node28"><a xlink:href="_direction_selector_8_h.html" target="_top" xlink:title=" ">
<polygon fill="white" stroke="black" points="1100.45,-246.5 1100.45,-276.5 1213.45,-276.5 1213.45,-246.5 1100.45,-246.5"/>
<text text-anchor="start" x="1108.45" y="-264.5" font-family="Helvetica,sans-Serif" font-size="10.00">amr&#45;wind/utilities</text>
<text text-anchor="middle" x="1156.95" y="-253.5" font-family="Helvetica,sans-Serif" font-size="10.00">/DirectionSelector.H</text>
</a>
</g>
</g>
<!-- Node27&#45;&gt;Node28 -->
<g id="edge50" class="edge">
<title>Node27&#45;&gt;Node28</title>
<path fill="none" stroke="midnightblue" d="M1228.99,-313.4C1216.21,-304.37 1199.43,-292.51 1185.29,-282.52"/>
<polygon fill="midnightblue" stroke="midnightblue" points="1187.06,-279.49 1176.88,-276.58 1183.02,-285.21 1187.06,-279.49"/>
</g>
<!-- Node30 -->
<g id="node30" class="node">
<title>Node30</title>
<g id="a_node30"><a xlink:href="_c_f_d_sim_8_h.html" target="_top" xlink:title=" ">
<polygon fill="white" stroke="black" points="1493.95,-252 1493.95,-271 1609.95,-271 1609.95,-252 1493.95,-252"/>
<text text-anchor="middle" x="1551.95" y="-259" font-family="Helvetica,sans-Serif" font-size="10.00">amr&#45;wind/CFDSim.H</text>
</a>
</g>
</g>
<!-- Node27&#45;&gt;Node30 -->
<g id="edge53" class="edge">
<title>Node27&#45;&gt;Node30</title>
<path fill="none" stroke="midnightblue" d="M1313.58,-313.64C1369.96,-301.54 1450.58,-284.25 1502.09,-273.2"/>
<polygon fill="midnightblue" stroke="midnightblue" points="1502.95,-276.59 1511.99,-271.07 1501.48,-269.75 1502.95,-276.59"/>
</g>
<!-- Node31 -->
<g id="node31" class="node">
<title>Node31</title>
<g id="a_node31"><a xlink:href="_sim_time_8_h.html" target="_top" xlink:title=" ">
<polygon fill="white" stroke="black" points="2400.95,-185 2400.95,-204 2544.95,-204 2544.95,-185 2400.95,-185"/>
<text text-anchor="middle" x="2472.95" y="-192" font-family="Helvetica,sans-Serif" font-size="10.00">amr&#45;wind/core/SimTime.H</text>
</a>
</g>
</g>
<!-- Node27&#45;&gt;Node31 -->
<g id="edge78" class="edge">
<title>Node27&#45;&gt;Node31</title>
<path fill="none" stroke="midnightblue" d="M1313.46,-320.54C1519.48,-298.33 2161.43,-229.09 2390.61,-204.38"/>
<polygon fill="midnightblue" stroke="midnightblue" points="2391.32,-207.82 2400.88,-203.27 2390.57,-200.86 2391.32,-207.82"/>
</g>
<!-- Node28&#45;&gt;Node13 -->
<g id="edge52" class="edge">
<title>Node28&#45;&gt;Node13</title>
<path fill="none" stroke="midnightblue" d="M1137.16,-246.33C1125.94,-237.23 1112.65,-224.44 1104.95,-210 1083.35,-169.49 1079.32,-114.34 1078.8,-85.81"/>
<polygon fill="midnightblue" stroke="midnightblue" points="1082.3,-85.63 1078.74,-75.65 1075.3,-85.66 1082.3,-85.63"/>
</g>
<!-- Node29 -->
<g id="node29" class="node">
<title>Node29</title>
<g id="a_node29"><a xlink:title=" ">
<polygon fill="white" stroke="#bfbfbf" points="1113.95,-185 1113.95,-204 1199.95,-204 1199.95,-185 1113.95,-185"/>
<text text-anchor="middle" x="1156.95" y="-192" font-family="Helvetica,sans-Serif" font-size="10.00">AMReX_Box.H</text>
</a>
</g>
</g>
<!-- Node28&#45;&gt;Node29 -->
<g id="edge51" class="edge">
<title>Node28&#45;&gt;Node29</title>
<path fill="none" stroke="midnightblue" d="M1156.95,-246.4C1156.95,-237.06 1156.95,-224.71 1156.95,-214.52"/>
<polygon fill="midnightblue" stroke="midnightblue" points="1160.45,-214.19 1156.95,-204.19 1153.45,-214.19 1160.45,-214.19"/>
</g>
<!-- Node30&#45;&gt;Node2 -->
<g id="edge59" class="edge">
<title>Node30&#45;&gt;Node2</title>
<path fill="none" stroke="midnightblue" d="M1493.9,-256.34C1338.56,-245.19 912.87,-214.65 730.6,-201.57"/>
<polygon fill="midnightblue" stroke="midnightblue" points="730.75,-198.07 720.52,-200.85 730.25,-205.06 730.75,-198.07"/>
</g>
<!-- Node30&#45;&gt;Node21 -->
<g id="edge54" class="edge">
<title>Node30&#45;&gt;Node21</title>
<path fill="none" stroke="midnightblue" d="M1543.88,-251.84C1523.55,-230.02 1469.98,-172.53 1443.79,-144.42"/>
<polygon fill="midnightblue" stroke="midnightblue" points="1446.27,-141.95 1436.89,-137.02 1441.15,-146.72 1446.27,-141.95"/>
</g>
<!-- Node30&#45;&gt;Node31 -->
<g id="edge55" class="edge">
<title>Node30&#45;&gt;Node31</title>
<path fill="none" stroke="midnightblue" d="M1610.26,-256.38C1768.7,-245.2 2207.48,-214.24 2390.8,-201.3"/>
<polygon fill="midnightblue" stroke="midnightblue" points="2391.19,-204.78 2400.92,-200.58 2390.7,-197.8 2391.19,-204.78"/>
</g>
<!-- Node35 -->
<g id="node35" class="node">
<title>Node35</title>
<g id="a_node35"><a xlink:href="_p_d_e_base_8_h.html" target="_top" xlink:title=" ">
<polygon fill="white" stroke="black" points="1917.45,-179.5 1917.45,-209.5 2072.45,-209.5 2072.45,-179.5 1917.45,-179.5"/>
<text text-anchor="start" x="1925.45" y="-197.5" font-family="Helvetica,sans-Serif" font-size="10.00">amr&#45;wind/equation_systems</text>
<text text-anchor="middle" x="1994.95" y="-186.5" font-family="Helvetica,sans-Serif" font-size="10.00">/PDEBase.H</text>
</a>
</g>
</g>
<!-- Node30&#45;&gt;Node35 -->
<g id="edge60" class="edge">
<title>Node30&#45;&gt;Node35</title>
<path fill="none" stroke="midnightblue" d="M1610.32,-251.94C1686.22,-240.8 1819.47,-221.25 1907.47,-208.34"/>
<polygon fill="midnightblue" stroke="midnightblue" points="1908.06,-211.79 1917.44,-206.87 1907.04,-204.86 1908.06,-211.79"/>
</g>
<!-- Node39 -->
<g id="node39" class="node">
<title>Node39</title>
<g id="a_node39"><a xlink:href="_physics_8_h.html" target="_top" xlink:title=" ">
<polygon fill="white" stroke="black" points="1532.45,-185 1532.45,-204 1669.45,-204 1669.45,-185 1532.45,-185"/>
<text text-anchor="middle" x="1600.95" y="-192" font-family="Helvetica,sans-Serif" font-size="10.00">amr&#45;wind/core/Physics.H</text>
</a>
</g>
</g>
<!-- Node30&#45;&gt;Node39 -->
<g id="edge72" class="edge">
<title>Node30&#45;&gt;Node39</title>
<path fill="none" stroke="midnightblue" d="M1558.56,-251.73C1566.13,-241.7 1578.7,-225.01 1588.2,-212.42"/>
<polygon fill="midnightblue" stroke="midnightblue" points="1591.22,-214.22 1594.45,-204.13 1585.63,-210.01 1591.22,-214.22"/>
</g>
<!-- Node32 -->
<g id="node32" class="node">
<title>Node32</title>
<g id="a_node32"><a xlink:title=" ">
<polygon fill="white" stroke="#bfbfbf" points="2691.95,-118 2691.95,-137 2783.95,-137 2783.95,-118 2691.95,-118"/>
<text text-anchor="middle" x="2737.95" y="-125" font-family="Helvetica,sans-Serif" font-size="10.00">AMReX_REAL.H</text>
</a>
</g>
</g>
<!-- Node31&#45;&gt;Node32 -->
<g id="edge56" class="edge">
<title>Node31&#45;&gt;Node32</title>
<path fill="none" stroke="midnightblue" d="M2509.43,-184.98C2551.36,-175.13 2622.23,-158.3 2682.95,-143 2687.27,-141.91 2691.77,-140.76 2696.26,-139.59"/>
<polygon fill="midnightblue" stroke="midnightblue" points="2697.2,-142.97 2705.99,-137.05 2695.43,-136.19 2697.2,-142.97"/>
</g>
<!-- Node33 -->
<g id="node33" class="node">
<title>Node33</title>
<g id="a_node33"><a xlink:title=" ">
<polygon fill="white" stroke="#bfbfbf" points="2405.95,-118 2405.95,-137 2539.95,-137 2539.95,-118 2405.95,-118"/>
<text text-anchor="middle" x="2472.95" y="-125" font-family="Helvetica,sans-Serif" font-size="10.00">AMReX_GpuQualifiers.H</text>
</a>
</g>
</g>
<!-- Node31&#45;&gt;Node33 -->
<g id="edge57" class="edge">
<title>Node31&#45;&gt;Node33</title>
<path fill="none" stroke="midnightblue" d="M2472.95,-184.73C2472.95,-175.18 2472.95,-159.62 2472.95,-147.28"/>
<polygon fill="midnightblue" stroke="midnightblue" points="2476.45,-147.13 2472.95,-137.13 2469.45,-147.13 2476.45,-147.13"/>
</g>
<!-- Node34 -->
<g id="node34" class="node">
<title>Node34</title>
<g id="a_node34"><a xlink:title=" ">
<polygon fill="white" stroke="#bfbfbf" points="2557.95,-118 2557.95,-137 2673.95,-137 2673.95,-118 2557.95,-118"/>
<text text-anchor="middle" x="2615.95" y="-125" font-family="Helvetica,sans-Serif" font-size="10.00">AMReX_Extension.H</text>
</a>
</g>
</g>
<!-- Node31&#45;&gt;Node34 -->
<g id="edge58" class="edge">
<title>Node31&#45;&gt;Node34</title>
<path fill="none" stroke="midnightblue" d="M2491.94,-184.87C2516.41,-173.75 2559.15,-154.32 2587.51,-141.43"/>
<polygon fill="midnightblue" stroke="midnightblue" points="2589.23,-144.49 2596.88,-137.17 2586.33,-138.12 2589.23,-144.49"/>
</g>
<!-- Node35&#45;&gt;Node3 -->
<g id="edge61" class="edge">
<title>Node35&#45;&gt;Node3</title>
<path fill="none" stroke="midnightblue" d="M2046.91,-179.48C2120.95,-157.16 2242.38,-110.47 2189.95,-56 2149.15,-13.61 1230.29,-11.07 1045.25,-10.99"/>
<polygon fill="midnightblue" stroke="midnightblue" points="1045.08,-7.49 1035.07,-10.99 1045.07,-14.49 1045.08,-7.49"/>
</g>
<!-- Node35&#45;&gt;Node5 -->
<g id="edge70" class="edge">
<title>Node35&#45;&gt;Node5</title>
<path fill="none" stroke="midnightblue" d="M1994.41,-179.31C1992.38,-149.4 1982.82,-80.59 1937.95,-56 1875.86,-21.97 734.73,-22.12 663.95,-20 601.88,-18.14 532.21,-15.94 477.29,-14.19"/>
<polygon fill="midnightblue" stroke="midnightblue" points="477.32,-10.69 467.21,-13.86 477.09,-17.68 477.32,-10.69"/>
</g>
<!-- Node35&#45;&gt;Node14 -->
<g id="edge71" class="edge">
<title>Node35&#45;&gt;Node14</title>
<path fill="none" stroke="midnightblue" d="M2005.92,-179.48C2024.3,-156 2061.21,-108.84 2080.89,-83.69"/>
<polygon fill="midnightblue" stroke="midnightblue" points="2083.67,-85.82 2087.07,-75.79 2078.15,-81.51 2083.67,-85.82"/>
</g>
<!-- Node35&#45;&gt;Node23 -->
<g id="edge62" class="edge">
<title>Node35&#45;&gt;Node23</title>
<path fill="none" stroke="midnightblue" d="M1940.8,-179.48C1894.63,-167.52 1829.19,-150.57 1786.65,-139.56"/>
<polygon fill="midnightblue" stroke="midnightblue" points="1787.44,-136.15 1776.89,-137.03 1785.69,-142.92 1787.44,-136.15"/>
</g>
<!-- Node36 -->
<g id="node36" class="node">
<title>Node36</title>
<g id="a_node36"><a xlink:href="_coll_mgr_8_h.html" target="_top" xlink:title=" ">
<polygon fill="white" stroke="black" points="1829.45,-118 1829.45,-137 1966.45,-137 1966.45,-118 1829.45,-118"/>
<text text-anchor="middle" x="1897.95" y="-125" font-family="Helvetica,sans-Serif" font-size="10.00">amr&#45;wind/core/CollMgr.H</text>
</a>
</g>
</g>
<!-- Node35&#45;&gt;Node36 -->
<g id="edge63" class="edge">
<title>Node35&#45;&gt;Node36</title>
<path fill="none" stroke="midnightblue" d="M1973.9,-179.4C1957.64,-168.5 1935.23,-153.48 1918.97,-142.58"/>
<polygon fill="midnightblue" stroke="midnightblue" points="1920.9,-139.67 1910.65,-137.01 1917.01,-145.48 1920.9,-139.67"/>
</g>
<!-- Node37 -->
<g id="node37" class="node">
<title>Node37</title>
<g id="a_node37"><a xlink:href="_p_d_e_fields_8_h.html" target="_top" xlink:title=" ">
<polygon fill="white" stroke="black" points="2232.45,-112.5 2232.45,-142.5 2387.45,-142.5 2387.45,-112.5 2232.45,-112.5"/>
<text text-anchor="start" x="2240.45" y="-130.5" font-family="Helvetica,sans-Serif" font-size="10.00">amr&#45;wind/equation_systems</text>
<text text-anchor="middle" x="2309.95" y="-119.5" font-family="Helvetica,sans-Serif" font-size="10.00">/PDEFields.H</text>
</a>
</g>
</g>
<!-- Node35&#45;&gt;Node37 -->
<g id="edge68" class="edge">
<title>Node35&#45;&gt;Node37</title>
<path fill="none" stroke="midnightblue" d="M2062.91,-179.48C2112.61,-169.22 2180.12,-155.29 2232.01,-144.58"/>
<polygon fill="midnightblue" stroke="midnightblue" points="2232.75,-148 2241.84,-142.55 2231.34,-141.15 2232.75,-148"/>
</g>
<!-- Node36&#45;&gt;Node3 -->
<g id="edge64" class="edge">
<title>Node36&#45;&gt;Node3</title>
<path fill="none" stroke="midnightblue" d="M1966.7,-123.68C2039.7,-119.07 2148.06,-107.06 2173.95,-76 2179.64,-69.17 2180.11,-62.41 2173.95,-56 2133.74,-14.2 1228.3,-11.19 1045.1,-11"/>
<polygon fill="midnightblue" stroke="midnightblue" points="1045.03,-7.5 1035.02,-11 1045.02,-14.5 1045.03,-7.5"/>
</g>
<!-- Node36&#45;&gt;Node4 -->
<g id="edge66" class="edge">
<title>Node36&#45;&gt;Node4</title>
<path fill="none" stroke="midnightblue" d="M1853.87,-117.96C1842.81,-115.91 1830.96,-113.8 1819.95,-112 1728.86,-97.1 1622.61,-82.65 1558.89,-74.3"/>
<polygon fill="midnightblue" stroke="midnightblue" points="1559.03,-70.79 1548.66,-72.97 1558.12,-77.73 1559.03,-70.79"/>
</g>
<!-- Node36&#45;&gt;Node10 -->
<g id="edge65" class="edge">
<title>Node36&#45;&gt;Node10</title>
<path fill="none" stroke="midnightblue" d="M1886.78,-117.98C1874.38,-108.52 1854.16,-93.1 1839.21,-81.69"/>
<polygon fill="midnightblue" stroke="midnightblue" points="1841.18,-78.79 1831.11,-75.51 1836.93,-84.36 1841.18,-78.79"/>
</g>
<!-- Node36&#45;&gt;Node16 -->
<g id="edge67" class="edge">
<title>Node36&#45;&gt;Node16</title>
<path fill="none" stroke="midnightblue" d="M1909.36,-117.8C1926.77,-103.53 1956.11,-74.85 1937.95,-56 1902.45,-19.14 1098,-24.6 983.36,-19.67"/>
<polygon fill="midnightblue" stroke="midnightblue" points="983.46,-16.17 973.26,-19.05 983.03,-23.16 983.46,-16.17"/>
</g>
<!-- Node38 -->
<g id="node38" class="node">
<title>Node38</title>
<g id="a_node38"><a xlink:title=" ">
<polygon fill="white" stroke="#bfbfbf" points="2285.95,-56.5 2285.95,-75.5 2333.95,-75.5 2333.95,-56.5 2285.95,-56.5"/>
<text text-anchor="middle" x="2309.95" y="-63.5" font-family="Helvetica,sans-Serif" font-size="10.00">iosfwd</text>
</a>
</g>
</g>
<!-- Node37&#45;&gt;Node38 -->
<g id="edge69" class="edge">
<title>Node37&#45;&gt;Node38</title>
<path fill="none" stroke="midnightblue" d="M2309.95,-112.4C2309.95,-104.47 2309.95,-94.46 2309.95,-85.86"/>
<polygon fill="midnightblue" stroke="midnightblue" points="2313.45,-85.66 2309.95,-75.66 2306.45,-85.66 2313.45,-85.66"/>
</g>
<!-- Node39&#45;&gt;Node7 -->
<g id="edge75" class="edge">
<title>Node39&#45;&gt;Node7</title>
<path fill="none" stroke="midnightblue" d="M1581.62,-184.84C1565.83,-176.59 1544.6,-162.53 1534.95,-143 1528.85,-130.65 1531.09,-125.22 1534.95,-112 1542.5,-86.17 1576.48,-75.51 1557.95,-56 1531.45,-28.08 904.38,-22.24 865.95,-20 841.77,-18.59 815.23,-16.9 791.88,-15.37"/>
<polygon fill="midnightblue" stroke="midnightblue" points="791.95,-11.87 781.74,-14.71 791.49,-18.86 791.95,-11.87"/>
</g>
<!-- Node39&#45;&gt;Node23 -->
<g id="edge73" class="edge">
<title>Node39&#45;&gt;Node23</title>
<path fill="none" stroke="midnightblue" d="M1619.94,-184.87C1644.41,-173.75 1687.15,-154.32 1715.51,-141.43"/>
<polygon fill="midnightblue" stroke="midnightblue" points="1717.23,-144.49 1724.88,-137.17 1714.33,-138.12 1717.23,-144.49"/>
</g>
<!-- Node39&#45;&gt;Node36 -->
<g id="edge74" class="edge">
<title>Node39&#45;&gt;Node36</title>
<path fill="none" stroke="midnightblue" d="M1640.08,-184.94C1693.73,-173.2 1790.09,-152.11 1848.62,-139.3"/>
<polygon fill="midnightblue" stroke="midnightblue" points="1849.71,-142.64 1858.73,-137.08 1848.21,-135.8 1849.71,-142.64"/>
</g>
<!-- Node40 -->
<g id="node40" class="node">
<title>Node40</title>
<g id="a_node40"><a xlink:title=" ">
<polygon fill="white" stroke="#bfbfbf" points="1543.45,-118 1543.45,-137 1658.45,-137 1658.45,-118 1543.45,-118"/>
<text text-anchor="middle" x="1600.95" y="-125" font-family="Helvetica,sans-Serif" font-size="10.00">AMReX_Geometry.H</text>
</a>
</g>
</g>
<!-- Node39&#45;&gt;Node40 -->
<g id="edge76" class="edge">
<title>Node39&#45;&gt;Node40</title>
<path fill="none" stroke="midnightblue" d="M1600.95,-184.73C1600.95,-175.18 1600.95,-159.62 1600.95,-147.28"/>
<polygon fill="midnightblue" stroke="midnightblue" points="1604.45,-147.13 1600.95,-137.13 1597.45,-147.13 1604.45,-147.13"/>
</g>
</g>
</svg>
