<?xml version="1.0" encoding="UTF-8" standalone="no"?>
<!DOCTYPE svg PUBLIC "-//W3C//DTD SVG 1.1//EN"
 "http://www.w3.org/Graphics/SVG/1.1/DTD/svg11.dtd">
<!-- Generated by graphviz version 2.43.0 (0)
 -->
<!-- Title: ABLWallFunction.H Pages: 1 -->
<svg width="2550pt" height="408pt"
 viewBox="0.00 0.00 2550.11 408.00" xmlns="http://www.w3.org/2000/svg" xmlns:xlink="http://www.w3.org/1999/xlink">
<g id="graph0" class="graph" transform="scale(1 1) rotate(0) translate(4 404)">
<title>ABLWallFunction.H</title>
<polygon fill="white" stroke="transparent" points="-4,4 -4,-404 2546.11,-404 2546.11,4 -4,4"/>
<!-- Node1 -->
<g id="node1" class="node">
<title>Node1</title>
<g id="a_node1"><a xlink:title=" ">
<polygon fill="#bfbfbf" stroke="black" points="1918.11,-380.5 1918.11,-399.5 2025.11,-399.5 2025.11,-380.5 1918.11,-380.5"/>
<text text-anchor="middle" x="1971.61" y="-387.5" font-family="Helvetica,sans-Serif" font-size="10.00">ABLWallFunction.H</text>
</a>
</g>
</g>
<!-- Node2 -->
<g id="node2" class="node">
<title>Node2</title>
<g id="a_node2"><a xlink:href="_c_f_d_sim_8_h.html" target="_top" xlink:title=" ">
<polygon fill="white" stroke="black" points="1288.61,-252 1288.61,-271 1404.61,-271 1404.61,-252 1288.61,-252"/>
<text text-anchor="middle" x="1346.61" y="-259" font-family="Helvetica,sans-Serif" font-size="10.00">amr&#45;wind/CFDSim.H</text>
</a>
</g>
</g>
<!-- Node1&#45;&gt;Node2 -->
<g id="edge1" class="edge">
<title>Node1&#45;&gt;Node2</title>
<path fill="none" stroke="midnightblue" d="M1929.14,-380.4C1818.22,-357.95 1520.01,-297.6 1398.86,-273.07"/>
<polygon fill="midnightblue" stroke="midnightblue" points="1399.22,-269.58 1388.72,-271.02 1397.83,-276.44 1399.22,-269.58"/>
</g>
<!-- Node37 -->
<g id="node37" class="node">
<title>Node37</title>
<g id="a_node37"><a xlink:href="_field_plane_averaging_8_h.html" target="_top" xlink:title=" ">
<polygon fill="white" stroke="black" points="1798.11,-313.5 1798.11,-343.5 1927.11,-343.5 1927.11,-313.5 1798.11,-313.5"/>
<text text-anchor="start" x="1806.11" y="-331.5" font-family="Helvetica,sans-Serif" font-size="10.00">amr&#45;wind/utilities</text>
<text text-anchor="middle" x="1862.61" y="-320.5" font-family="Helvetica,sans-Serif" font-size="10.00">/FieldPlaneAveraging.H</text>
</a>
</g>
</g>
<!-- Node1&#45;&gt;Node37 -->
<g id="edge66" class="edge">
<title>Node1&#45;&gt;Node37</title>
<path fill="none" stroke="midnightblue" d="M1955.99,-380.48C1940.75,-372.15 1917.03,-359.21 1897.31,-348.45"/>
<polygon fill="midnightblue" stroke="midnightblue" points="1898.75,-345.24 1888.3,-343.52 1895.4,-351.39 1898.75,-345.24"/>
</g>
<!-- Node40 -->
<g id="node40" class="node">
<title>Node40</title>
<g id="a_node40"><a xlink:href="_field_b_c_ops_8_h.html" target="_top" xlink:title=" ">
<polygon fill="white" stroke="black" points="2191.61,-185 2191.61,-204 2347.61,-204 2347.61,-185 2191.61,-185"/>
<text text-anchor="middle" x="2269.61" y="-192" font-family="Helvetica,sans-Serif" font-size="10.00">amr&#45;wind/core/FieldBCOps.H</text>
</a>
</g>
</g>
<!-- Node1&#45;&gt;Node40 -->
<g id="edge73" class="edge">
<title>Node1&#45;&gt;Node40</title>
<path fill="none" stroke="midnightblue" d="M1984.8,-380.44C2031.52,-350.1 2189.48,-247.53 2247.77,-209.68"/>
<polygon fill="midnightblue" stroke="midnightblue" points="2249.75,-212.57 2256.23,-204.18 2245.94,-206.7 2249.75,-212.57"/>
</g>
<!-- Node42 -->
<g id="node42" class="node">
<title>Node42</title>
<g id="a_node42"><a xlink:href="_m_o_data_8_h.html" target="_top" xlink:title=" ">
<polygon fill="white" stroke="black" points="2222.61,-313.5 2222.61,-343.5 2350.61,-343.5 2350.61,-313.5 2222.61,-313.5"/>
<text text-anchor="start" x="2230.61" y="-331.5" font-family="Helvetica,sans-Serif" font-size="10.00">amr&#45;wind/wind_energy</text>
<text text-anchor="middle" x="2286.61" y="-320.5" font-family="Helvetica,sans-Serif" font-size="10.00">/MOData.H</text>
</a>
</g>
</g>
<!-- Node1&#45;&gt;Node42 -->
<g id="edge80" class="edge">
<title>Node1&#45;&gt;Node42</title>
<path fill="none" stroke="midnightblue" d="M2016.74,-380.48C2067.82,-370.83 2151.81,-354.96 2212.54,-343.49"/>
<polygon fill="midnightblue" stroke="midnightblue" points="2213.28,-346.91 2222.46,-341.62 2211.98,-340.03 2213.28,-346.91"/>
</g>
<!-- Node3 -->
<g id="node3" class="node">
<title>Node3</title>
<g id="a_node3"><a xlink:title=" ">
<polygon fill="white" stroke="#bfbfbf" points="780.61,-118 780.61,-137 890.61,-137 890.61,-118 780.61,-118"/>
<text text-anchor="middle" x="835.61" y="-125" font-family="Helvetica,sans-Serif" font-size="10.00">AMReX_AmrCore.H</text>
</a>
</g>
</g>
<!-- Node2&#45;&gt;Node3 -->
<g id="edge2" class="edge">
<title>Node2&#45;&gt;Node3</title>
<path fill="none" stroke="midnightblue" d="M1313.47,-251.94C1224.1,-228.85 978.1,-165.31 878.41,-139.56"/>
<polygon fill="midnightblue" stroke="midnightblue" points="879.23,-136.15 868.67,-137.04 877.47,-142.93 879.23,-136.15"/>
</g>
<!-- Node4 -->
<g id="node4" class="node">
<title>Node4</title>
<g id="a_node4"><a xlink:href="_sim_time_8_h.html" target="_top" xlink:title=" ">
<polygon fill="white" stroke="black" points="1790.61,-185 1790.61,-204 1934.61,-204 1934.61,-185 1790.61,-185"/>
<text text-anchor="middle" x="1862.61" y="-192" font-family="Helvetica,sans-Serif" font-size="10.00">amr&#45;wind/core/SimTime.H</text>
</a>
</g>
</g>
<!-- Node2&#45;&gt;Node4 -->
<g id="edge3" class="edge">
<title>Node2&#45;&gt;Node4</title>
<path fill="none" stroke="midnightblue" d="M1404.8,-253.17C1497.9,-241.44 1680.45,-218.45 1784.71,-205.31"/>
<polygon fill="midnightblue" stroke="midnightblue" points="1785.37,-208.76 1794.85,-204.03 1784.5,-201.81 1785.37,-208.76"/>
</g>
<!-- Node8 -->
<g id="node8" class="node">
<title>Node8</title>
<g id="a_node8"><a xlink:href="_field_repo_8_h.html" target="_top" xlink:title=" ">
<polygon fill="white" stroke="black" points="1272.11,-185 1272.11,-204 1421.11,-204 1421.11,-185 1272.11,-185"/>
<text text-anchor="middle" x="1346.61" y="-192" font-family="Helvetica,sans-Serif" font-size="10.00">amr&#45;wind/core/FieldRepo.H</text>
</a>
</g>
</g>
<!-- Node2&#45;&gt;Node8 -->
<g id="edge7" class="edge">
<title>Node2&#45;&gt;Node8</title>
<path fill="none" stroke="midnightblue" d="M1346.61,-251.73C1346.61,-242.18 1346.61,-226.62 1346.61,-214.28"/>
<polygon fill="midnightblue" stroke="midnightblue" points="1350.11,-214.13 1346.61,-204.13 1343.11,-214.13 1350.11,-214.13"/>
</g>
<!-- Node27 -->
<g id="node27" class="node">
<title>Node27</title>
<g id="a_node27"><a xlink:href="_p_d_e_base_8_h.html" target="_top" xlink:title=" ">
<polygon fill="white" stroke="black" points="344.11,-179.5 344.11,-209.5 499.11,-209.5 499.11,-179.5 344.11,-179.5"/>
<text text-anchor="start" x="352.11" y="-197.5" font-family="Helvetica,sans-Serif" font-size="10.00">amr&#45;wind/equation_systems</text>
<text text-anchor="middle" x="421.61" y="-186.5" font-family="Helvetica,sans-Serif" font-size="10.00">/PDEBase.H</text>
</a>
</g>
</g>
<!-- Node2&#45;&gt;Node27 -->
<g id="edge44" class="edge">
<title>Node2&#45;&gt;Node27</title>
<path fill="none" stroke="midnightblue" d="M1288.4,-256.41C1131.07,-245.35 696.69,-214.83 509.41,-201.67"/>
<polygon fill="midnightblue" stroke="midnightblue" points="509.55,-198.17 499.33,-200.96 509.06,-205.15 509.55,-198.17"/>
</g>
<!-- Node35 -->
<g id="node35" class="node">
<title>Node35</title>
<g id="a_node35"><a xlink:href="_physics_8_h.html" target="_top" xlink:title=" ">
<polygon fill="white" stroke="black" points="646.11,-185 646.11,-204 783.11,-204 783.11,-185 646.11,-185"/>
<text text-anchor="middle" x="714.61" y="-192" font-family="Helvetica,sans-Serif" font-size="10.00">amr&#45;wind/core/Physics.H</text>
</a>
</g>
</g>
<!-- Node2&#45;&gt;Node35 -->
<g id="edge61" class="edge">
<title>Node2&#45;&gt;Node35</title>
<path fill="none" stroke="midnightblue" d="M1288.57,-254.53C1174.78,-242.83 922.28,-216.86 793.48,-203.61"/>
<polygon fill="midnightblue" stroke="midnightblue" points="793.6,-200.11 783.3,-202.56 792.89,-207.07 793.6,-200.11"/>
</g>
<!-- Node5 -->
<g id="node5" class="node">
<title>Node5</title>
<g id="a_node5"><a xlink:title=" ">
<polygon fill="white" stroke="#bfbfbf" points="2058.61,-118 2058.61,-137 2150.61,-137 2150.61,-118 2058.61,-118"/>
<text text-anchor="middle" x="2104.61" y="-125" font-family="Helvetica,sans-Serif" font-size="10.00">AMReX_REAL.H</text>
</a>
</g>
</g>
<!-- Node4&#45;&gt;Node5 -->
<g id="edge4" class="edge">
<title>Node4&#45;&gt;Node5</title>
<path fill="none" stroke="midnightblue" d="M1894.49,-184.94C1937.75,-173.32 2015.1,-152.54 2062.92,-139.7"/>
<polygon fill="midnightblue" stroke="midnightblue" points="2063.9,-143.06 2072.65,-137.08 2062.09,-136.3 2063.9,-143.06"/>
</g>
<!-- Node6 -->
<g id="node6" class="node">
<title>Node6</title>
<g id="a_node6"><a xlink:title=" ">
<polygon fill="white" stroke="#bfbfbf" points="1906.61,-118 1906.61,-137 2040.61,-137 2040.61,-118 1906.61,-118"/>
<text text-anchor="middle" x="1973.61" y="-125" font-family="Helvetica,sans-Serif" font-size="10.00">AMReX_GpuQualifiers.H</text>
</a>
</g>
</g>
<!-- Node4&#45;&gt;Node6 -->
<g id="edge5" class="edge">
<title>Node4&#45;&gt;Node6</title>
<path fill="none" stroke="midnightblue" d="M1877.58,-184.73C1896.22,-173.82 1928.27,-155.05 1950.18,-142.22"/>
<polygon fill="midnightblue" stroke="midnightblue" points="1952.02,-145.2 1958.88,-137.13 1948.48,-139.16 1952.02,-145.2"/>
</g>
<!-- Node7 -->
<g id="node7" class="node">
<title>Node7</title>
<g id="a_node7"><a xlink:title=" ">
<polygon fill="white" stroke="#bfbfbf" points="1772.61,-118 1772.61,-137 1888.61,-137 1888.61,-118 1772.61,-118"/>
<text text-anchor="middle" x="1830.61" y="-125" font-family="Helvetica,sans-Serif" font-size="10.00">AMReX_Extension.H</text>
</a>
</g>
</g>
<!-- Node4&#45;&gt;Node7 -->
<g id="edge6" class="edge">
<title>Node4&#45;&gt;Node7</title>
<path fill="none" stroke="midnightblue" d="M1858.29,-184.73C1853.45,-174.89 1845.46,-158.66 1839.3,-146.16"/>
<polygon fill="midnightblue" stroke="midnightblue" points="1842.41,-144.55 1834.86,-137.13 1836.13,-147.64 1842.41,-144.55"/>
</g>
<!-- Node8&#45;&gt;Node3 -->
<g id="edge41" class="edge">
<title>Node8&#45;&gt;Node3</title>
<path fill="none" stroke="midnightblue" d="M1272.02,-187.12C1183.92,-179.09 1033.08,-163.79 904.61,-143 897.71,-141.88 890.45,-140.54 883.34,-139.13"/>
<polygon fill="midnightblue" stroke="midnightblue" points="883.59,-135.61 873.09,-137.04 882.19,-142.47 883.59,-135.61"/>
</g>
<!-- Node9 -->
<g id="node9" class="node">
<title>Node9</title>
<g id="a_node9"><a xlink:title=" ">
<polygon fill="white" stroke="#bfbfbf" points="748.61,-0.5 748.61,-19.5 792.61,-19.5 792.61,-0.5 748.61,-0.5"/>
<text text-anchor="middle" x="770.61" y="-7.5" font-family="Helvetica,sans-Serif" font-size="10.00">string</text>
</a>
</g>
</g>
<!-- Node8&#45;&gt;Node9 -->
<g id="edge8" class="edge">
<title>Node8&#45;&gt;Node9</title>
<path fill="none" stroke="midnightblue" d="M1272.09,-187.85C1179.62,-180.06 1027.74,-164.51 975.61,-143 954.49,-134.29 954.91,-122.48 934.61,-112 887.4,-87.62 864.14,-106.46 820.61,-76 802.98,-63.67 788.74,-43.24 780.03,-28.58"/>
<polygon fill="midnightblue" stroke="midnightblue" points="782.88,-26.5 774.91,-19.52 776.78,-29.95 782.88,-26.5"/>
</g>
<!-- Node10 -->
<g id="node10" class="node">
<title>Node10</title>
<g id="a_node10"><a xlink:title=" ">
<polygon fill="white" stroke="#bfbfbf" points="618.11,-56.5 618.11,-75.5 711.11,-75.5 711.11,-56.5 618.11,-56.5"/>
<text text-anchor="middle" x="664.61" y="-63.5" font-family="Helvetica,sans-Serif" font-size="10.00">unordered_map</text>
</a>
</g>
</g>
<!-- Node8&#45;&gt;Node10 -->
<g id="edge9" class="edge">
<title>Node8&#45;&gt;Node10</title>
<path fill="none" stroke="midnightblue" d="M1271.99,-188.61C1172.15,-181.31 1000.91,-165.92 942.61,-143 920.68,-134.38 921.24,-121.32 899.61,-112 883.43,-105.03 785.46,-87.53 721.23,-76.52"/>
<polygon fill="midnightblue" stroke="midnightblue" points="721.68,-73.05 711.23,-74.81 720.5,-79.95 721.68,-73.05"/>
</g>
<!-- Node11 -->
<g id="node11" class="node">
<title>Node11</title>
<g id="a_node11"><a xlink:href="_field_desc_types_8_h.html" target="_top" xlink:title=" ">
<polygon fill="white" stroke="black" points="1529.61,-0.5 1529.61,-19.5 1705.61,-19.5 1705.61,-0.5 1529.61,-0.5"/>
<text text-anchor="middle" x="1617.61" y="-7.5" font-family="Helvetica,sans-Serif" font-size="10.00">amr&#45;wind/core/FieldDescTypes.H</text>
</a>
</g>
</g>
<!-- Node8&#45;&gt;Node11 -->
<g id="edge10" class="edge">
<title>Node8&#45;&gt;Node11</title>
<path fill="none" stroke="midnightblue" d="M1421.32,-187.99C1514.96,-180.3 1669.62,-164.81 1722.61,-143 1743.73,-134.31 1742.31,-120.27 1763.61,-112 1843.29,-81.04 2089.06,-139.21 2146.61,-76 2152.59,-69.43 2152.62,-62.55 2146.61,-56 2118.14,-25.01 1861.1,-15.33 1716.07,-12.33"/>
<polygon fill="midnightblue" stroke="midnightblue" points="1715.9,-8.83 1705.83,-12.13 1715.76,-15.83 1715.9,-8.83"/>
</g>
<!-- Node12 -->
<g id="node12" class="node">
<title>Node12</title>
<g id="a_node12"><a xlink:href="_field_utils_8_h.html" target="_top" xlink:title=" ">
<polygon fill="white" stroke="black" points="1991.61,-56.5 1991.61,-75.5 2137.61,-75.5 2137.61,-56.5 1991.61,-56.5"/>
<text text-anchor="middle" x="2064.61" y="-63.5" font-family="Helvetica,sans-Serif" font-size="10.00">amr&#45;wind/core/FieldUtils.H</text>
</a>
</g>
</g>
<!-- Node8&#45;&gt;Node12 -->
<g id="edge11" class="edge">
<title>Node8&#45;&gt;Node12</title>
<path fill="none" stroke="midnightblue" d="M1421.44,-192.53C1492.37,-189.31 1600.69,-178.3 1687.61,-143 1709.44,-134.13 1708.72,-120.72 1730.61,-112 1742.31,-107.34 1889.43,-88.58 1984.47,-76.8"/>
<polygon fill="midnightblue" stroke="midnightblue" points="1985.15,-80.25 1994.65,-75.55 1984.29,-73.3 1985.15,-80.25"/>
</g>
<!-- Node13 -->
<g id="node13" class="node">
<title>Node13</title>
<g id="a_node13"><a xlink:title=" ">
<polygon fill="white" stroke="#bfbfbf" points="1269.11,-0.5 1269.11,-19.5 1378.11,-19.5 1378.11,-0.5 1269.11,-0.5"/>
<text text-anchor="middle" x="1323.61" y="-7.5" font-family="Helvetica,sans-Serif" font-size="10.00">AMReX_MultiFab.H</text>
</a>
</g>
</g>
<!-- Node8&#45;&gt;Node13 -->
<g id="edge42" class="edge">
<title>Node8&#45;&gt;Node13</title>
<path fill="none" stroke="midnightblue" d="M1384.05,-185C1408.37,-177.67 1439.07,-164.73 1458.61,-143 1485.27,-113.34 1504.61,-87.85 1480.61,-56 1469.13,-40.77 1426.39,-29.13 1388.39,-21.5"/>
<polygon fill="midnightblue" stroke="midnightblue" points="1388.83,-18.02 1378.35,-19.55 1387.5,-24.89 1388.83,-18.02"/>
</g>
<!-- Node15 -->
<g id="node15" class="node">
<title>Node15</title>
<g id="a_node15"><a xlink:href="_field_8_h.html" target="_top" xlink:title=" ">
<polygon fill="white" stroke="black" points="1554.61,-118 1554.61,-137 1678.61,-137 1678.61,-118 1554.61,-118"/>
<text text-anchor="middle" x="1616.61" y="-125" font-family="Helvetica,sans-Serif" font-size="10.00">amr&#45;wind/core/Field.H</text>
</a>
</g>
</g>
<!-- Node8&#45;&gt;Node15 -->
<g id="edge15" class="edge">
<title>Node8&#45;&gt;Node15</title>
<path fill="none" stroke="midnightblue" d="M1382.18,-184.94C1430.75,-173.24 1517.83,-152.28 1571.1,-139.46"/>
<polygon fill="midnightblue" stroke="midnightblue" points="1572.05,-142.83 1580.95,-137.08 1570.41,-136.02 1572.05,-142.83"/>
</g>
<!-- Node23 -->
<g id="node23" class="node">
<title>Node23</title>
<g id="a_node23"><a xlink:href="_int_field_8_h.html" target="_top" xlink:title=" ">
<polygon fill="white" stroke="black" points="1163.11,-118 1163.11,-137 1300.11,-137 1300.11,-118 1163.11,-118"/>
<text text-anchor="middle" x="1231.61" y="-125" font-family="Helvetica,sans-Serif" font-size="10.00">amr&#45;wind/core/IntField.H</text>
</a>
</g>
</g>
<!-- Node8&#45;&gt;Node23 -->
<g id="edge30" class="edge">
<title>Node8&#45;&gt;Node23</title>
<path fill="none" stroke="midnightblue" d="M1331.1,-184.73C1311.7,-173.77 1278.28,-154.88 1255.58,-142.05"/>
<polygon fill="midnightblue" stroke="midnightblue" points="1257.3,-139 1246.87,-137.13 1253.86,-145.09 1257.3,-139"/>
</g>
<!-- Node24 -->
<g id="node24" class="node">
<title>Node24</title>
<g id="a_node24"><a xlink:title=" ">
<polygon fill="white" stroke="#bfbfbf" points="1359.61,-56.5 1359.61,-75.5 1471.61,-75.5 1471.61,-56.5 1359.61,-56.5"/>
<text text-anchor="middle" x="1415.61" y="-63.5" font-family="Helvetica,sans-Serif" font-size="10.00">AMReX_iMultiFab.H</text>
</a>
</g>
</g>
<!-- Node8&#45;&gt;Node24 -->
<g id="edge43" class="edge">
<title>Node8&#45;&gt;Node24</title>
<path fill="none" stroke="midnightblue" d="M1381.87,-184.9C1403.49,-177.62 1429.47,-164.76 1442.61,-143 1453.97,-124.19 1441.25,-99.88 1429.71,-83.88"/>
<polygon fill="midnightblue" stroke="midnightblue" points="1432.46,-81.72 1423.58,-75.94 1426.92,-85.99 1432.46,-81.72"/>
</g>
<!-- Node25 -->
<g id="node25" class="node">
<title>Node25</title>
<g id="a_node25"><a xlink:href="_scratch_field_8_h.html" target="_top" xlink:title=" ">
<polygon fill="white" stroke="black" points="984.61,-118 984.61,-137 1144.61,-137 1144.61,-118 984.61,-118"/>
<text text-anchor="middle" x="1064.61" y="-125" font-family="Helvetica,sans-Serif" font-size="10.00">amr&#45;wind/core/ScratchField.H</text>
</a>
</g>
</g>
<!-- Node8&#45;&gt;Node25 -->
<g id="edge34" class="edge">
<title>Node8&#45;&gt;Node25</title>
<path fill="none" stroke="midnightblue" d="M1309.45,-184.94C1258.62,-173.22 1167.4,-152.19 1111.8,-139.38"/>
<polygon fill="midnightblue" stroke="midnightblue" points="1112.38,-135.92 1101.85,-137.08 1110.81,-142.74 1112.38,-135.92"/>
</g>
<!-- Node12&#45;&gt;Node11 -->
<g id="edge12" class="edge">
<title>Node12&#45;&gt;Node11</title>
<path fill="none" stroke="midnightblue" d="M1993.78,-56.44C1913.35,-46.73 1782.39,-30.91 1698.14,-20.73"/>
<polygon fill="midnightblue" stroke="midnightblue" points="1698.45,-17.24 1688.11,-19.52 1697.61,-24.19 1698.45,-17.24"/>
</g>
<!-- Node12&#45;&gt;Node13 -->
<g id="edge13" class="edge">
<title>Node12&#45;&gt;Node13</title>
<path fill="none" stroke="midnightblue" d="M1991.31,-56.8C1988.37,-56.52 1985.46,-56.25 1982.61,-56 1765.29,-36.66 1507,-21.21 1388.67,-14.55"/>
<polygon fill="midnightblue" stroke="midnightblue" points="1388.53,-11.04 1378.35,-13.97 1388.13,-18.03 1388.53,-11.04"/>
</g>
<!-- Node14 -->
<g id="node14" class="node">
<title>Node14</title>
<g id="a_node14"><a xlink:title=" ">
<polygon fill="white" stroke="#bfbfbf" points="2002.61,-0.5 2002.61,-19.5 2126.61,-19.5 2126.61,-0.5 2002.61,-0.5"/>
<text text-anchor="middle" x="2064.61" y="-7.5" font-family="Helvetica,sans-Serif" font-size="10.00">AMReX_Interpolater.H</text>
</a>
</g>
</g>
<!-- Node12&#45;&gt;Node14 -->
<g id="edge14" class="edge">
<title>Node12&#45;&gt;Node14</title>
<path fill="none" stroke="midnightblue" d="M2064.61,-56.08C2064.61,-49.01 2064.61,-38.86 2064.61,-29.99"/>
<polygon fill="midnightblue" stroke="midnightblue" points="2068.11,-29.75 2064.61,-19.75 2061.11,-29.75 2068.11,-29.75"/>
</g>
<!-- Node15&#45;&gt;Node9 -->
<g id="edge16" class="edge">
<title>Node15&#45;&gt;Node9</title>
<path fill="none" stroke="midnightblue" d="M1604.6,-118C1581.74,-102.36 1529.88,-69.4 1480.61,-56 1192.28,22.44 1101.6,-68.38 803.07,-19.82"/>
<polygon fill="midnightblue" stroke="midnightblue" points="803.26,-16.3 792.82,-18.11 802.11,-23.21 803.26,-16.3"/>
</g>
<!-- Node15&#45;&gt;Node10 -->
<g id="edge18" class="edge">
<title>Node15&#45;&gt;Node10</title>
<path fill="none" stroke="midnightblue" d="M1554.22,-120.92C1521.08,-118.05 1479.65,-114.61 1442.61,-112 1172.58,-92.94 849.4,-76.19 721.1,-69.78"/>
<polygon fill="midnightblue" stroke="midnightblue" points="721.27,-66.28 711.11,-69.28 720.93,-73.27 721.27,-66.28"/>
</g>
<!-- Node15&#45;&gt;Node11 -->
<g id="edge24" class="edge">
<title>Node15&#45;&gt;Node11</title>
<path fill="none" stroke="midnightblue" d="M1659.96,-117.96C1730.13,-104.08 1861,-77.98 1862.61,-76 1868.23,-69.11 1868.3,-62.83 1862.61,-56 1843.77,-33.38 1775.69,-22.1 1716.07,-16.48"/>
<polygon fill="midnightblue" stroke="midnightblue" points="1716.09,-12.97 1705.82,-15.57 1715.46,-19.94 1716.09,-12.97"/>
</g>
<!-- Node15&#45;&gt;Node13 -->
<g id="edge20" class="edge">
<title>Node15&#45;&gt;Node13</title>
<path fill="none" stroke="midnightblue" d="M1643.99,-117.9C1678.29,-105.77 1729.89,-82.18 1706.61,-56 1685.86,-32.67 1491.99,-19.45 1388.32,-13.99"/>
<polygon fill="midnightblue" stroke="midnightblue" points="1388.44,-10.49 1378.27,-13.47 1388.07,-17.48 1388.44,-10.49"/>
</g>
<!-- Node16 -->
<g id="node16" class="node">
<title>Node16</title>
<g id="a_node16"><a xlink:title=" ">
<polygon fill="white" stroke="#bfbfbf" points="465.61,-56.5 465.61,-75.5 523.61,-75.5 523.61,-56.5 465.61,-56.5"/>
<text text-anchor="middle" x="494.61" y="-63.5" font-family="Helvetica,sans-Serif" font-size="10.00">memory</text>
</a>
</g>
</g>
<!-- Node15&#45;&gt;Node16 -->
<g id="edge17" class="edge">
<title>Node15&#45;&gt;Node16</title>
<path fill="none" stroke="midnightblue" d="M1554.24,-120.7C1521.1,-117.76 1479.67,-114.34 1442.61,-112 1072.78,-88.61 979.5,-98.46 609.61,-76 584.41,-74.47 556.15,-72.27 533.95,-70.42"/>
<polygon fill="midnightblue" stroke="midnightblue" points="534.15,-66.93 523.89,-69.58 533.57,-73.9 534.15,-66.93"/>
</g>
<!-- Node17 -->
<g id="node17" class="node">
<title>Node17</title>
<g id="a_node17"><a xlink:title=" ">
<polygon fill="white" stroke="#bfbfbf" points="1909.61,-56.5 1909.61,-75.5 1973.61,-75.5 1973.61,-56.5 1909.61,-56.5"/>
<text text-anchor="middle" x="1941.61" y="-63.5" font-family="Helvetica,sans-Serif" font-size="10.00">algorithm</text>
</a>
</g>
</g>
<!-- Node15&#45;&gt;Node17 -->
<g id="edge19" class="edge">
<title>Node15&#45;&gt;Node17</title>
<path fill="none" stroke="midnightblue" d="M1660.8,-117.97C1671.22,-115.98 1682.3,-113.9 1692.61,-112 1782.72,-95.41 1805.53,-92.8 1895.61,-76 1896.87,-75.77 1898.15,-75.52 1899.44,-75.28"/>
<polygon fill="midnightblue" stroke="midnightblue" points="1900.29,-78.68 1909.45,-73.37 1898.97,-71.81 1900.29,-78.68"/>
</g>
<!-- Node18 -->
<g id="node18" class="node">
<title>Node18</title>
<g id="a_node18"><a xlink:title=" ">
<polygon fill="white" stroke="#bfbfbf" points="1754.11,-56.5 1754.11,-75.5 1853.11,-75.5 1853.11,-56.5 1754.11,-56.5"/>
<text text-anchor="middle" x="1803.61" y="-63.5" font-family="Helvetica,sans-Serif" font-size="10.00">AMReX_BCRec.H</text>
</a>
</g>
</g>
<!-- Node15&#45;&gt;Node18 -->
<g id="edge21" class="edge">
<title>Node15&#45;&gt;Node18</title>
<path fill="none" stroke="midnightblue" d="M1643.4,-117.98C1675.89,-107.64 1730.82,-90.16 1767.15,-78.6"/>
<polygon fill="midnightblue" stroke="midnightblue" points="1768.4,-81.88 1776.87,-75.51 1766.28,-75.21 1768.4,-81.88"/>
</g>
<!-- Node19 -->
<g id="node19" class="node">
<title>Node19</title>
<g id="a_node19"><a xlink:title=" ">
<polygon fill="white" stroke="#bfbfbf" points="2194.11,-56.5 2194.11,-75.5 2281.11,-75.5 2281.11,-56.5 2194.11,-56.5"/>
<text text-anchor="middle" x="2237.61" y="-63.5" font-family="Helvetica,sans-Serif" font-size="10.00">AMReX_Gpu.H</text>
</a>
</g>
</g>
<!-- Node15&#45;&gt;Node19 -->
<g id="edge22" class="edge">
<title>Node15&#45;&gt;Node19</title>
<path fill="none" stroke="midnightblue" d="M1678.83,-120.3C1705.01,-117.71 1735.78,-114.68 1763.61,-112 1933.79,-95.61 1976.43,-92.41 2146.61,-76 2158.71,-74.83 2171.71,-73.56 2183.99,-72.35"/>
<polygon fill="midnightblue" stroke="midnightblue" points="2184.5,-75.81 2194.1,-71.35 2183.81,-68.85 2184.5,-75.81"/>
</g>
<!-- Node20 -->
<g id="node20" class="node">
<title>Node20</title>
<g id="a_node20"><a xlink:href="incflo__enums_8_h.html" target="_top" xlink:title=" ">
<polygon fill="white" stroke="black" points="882.11,-56.5 882.11,-75.5 1023.11,-75.5 1023.11,-56.5 882.11,-56.5"/>
<text text-anchor="middle" x="952.61" y="-63.5" font-family="Helvetica,sans-Serif" font-size="10.00">amr&#45;wind/incflo_enums.H</text>
</a>
</g>
</g>
<!-- Node15&#45;&gt;Node20 -->
<g id="edge23" class="edge">
<title>Node15&#45;&gt;Node20</title>
<path fill="none" stroke="midnightblue" d="M1554.44,-120.93C1433.7,-110.11 1167.61,-86.27 1033.39,-74.24"/>
<polygon fill="midnightblue" stroke="midnightblue" points="1033.45,-70.73 1023.18,-73.32 1032.83,-77.7 1033.45,-70.73"/>
</g>
<!-- Node21 -->
<g id="node21" class="node">
<title>Node21</title>
<g id="a_node21"><a xlink:href="_view_field_8_h.html" target="_top" xlink:title=" ">
<polygon fill="white" stroke="black" points="1117.61,-56.5 1117.61,-75.5 1265.61,-75.5 1265.61,-56.5 1117.61,-56.5"/>
<text text-anchor="middle" x="1191.61" y="-63.5" font-family="Helvetica,sans-Serif" font-size="10.00">amr&#45;wind/core/ViewField.H</text>
</a>
</g>
</g>
<!-- Node15&#45;&gt;Node21 -->
<g id="edge25" class="edge">
<title>Node15&#45;&gt;Node21</title>
<path fill="none" stroke="midnightblue" d="M1555.72,-117.98C1478.16,-107.12 1344.38,-88.39 1262.37,-76.91"/>
<polygon fill="midnightblue" stroke="midnightblue" points="1262.78,-73.43 1252.39,-75.51 1261.81,-80.36 1262.78,-73.43"/>
</g>
<!-- Node21&#45;&gt;Node9 -->
<g id="edge26" class="edge">
<title>Node21&#45;&gt;Node9</title>
<path fill="none" stroke="midnightblue" d="M1117.28,-57.1C1019.92,-46.66 856.11,-28.73 802.74,-19.76"/>
<polygon fill="midnightblue" stroke="midnightblue" points="803.32,-16.31 792.85,-17.94 802.05,-23.2 803.32,-16.31"/>
</g>
<!-- Node21&#45;&gt;Node11 -->
<g id="edge27" class="edge">
<title>Node21&#45;&gt;Node11</title>
<path fill="none" stroke="midnightblue" d="M1259.11,-56.44C1335.61,-46.75 1460.06,-30.97 1540.37,-20.79"/>
<polygon fill="midnightblue" stroke="midnightblue" points="1540.94,-24.25 1550.42,-19.52 1540.06,-17.3 1540.94,-24.25"/>
</g>
<!-- Node21&#45;&gt;Node13 -->
<g id="edge28" class="edge">
<title>Node21&#45;&gt;Node13</title>
<path fill="none" stroke="midnightblue" d="M1212.52,-56.44C1234.34,-47.52 1268.76,-33.44 1293.5,-23.32"/>
<polygon fill="midnightblue" stroke="midnightblue" points="1294.86,-26.54 1302.79,-19.52 1292.21,-20.06 1294.86,-26.54"/>
</g>
<!-- Node22 -->
<g id="node22" class="node">
<title>Node22</title>
<g id="a_node22"><a xlink:title=" ">
<polygon fill="white" stroke="#bfbfbf" points="810.61,-0.5 810.61,-19.5 908.61,-19.5 908.61,-0.5 810.61,-0.5"/>
<text text-anchor="middle" x="859.61" y="-7.5" font-family="Helvetica,sans-Serif" font-size="10.00">AMReX_Vector.H</text>
</a>
</g>
</g>
<!-- Node21&#45;&gt;Node22 -->
<g id="edge29" class="edge">
<title>Node21&#45;&gt;Node22</title>
<path fill="none" stroke="midnightblue" d="M1139,-56.44C1079.08,-46.7 981.38,-30.81 918.83,-20.63"/>
<polygon fill="midnightblue" stroke="midnightblue" points="919.15,-17.14 908.72,-18.99 918.03,-24.05 919.15,-17.14"/>
</g>
<!-- Node23&#45;&gt;Node9 -->
<g id="edge31" class="edge">
<title>Node23&#45;&gt;Node9</title>
<path fill="none" stroke="midnightblue" d="M1211.37,-117.91C1175.83,-103.15 1099.59,-72.93 1032.61,-56 934.92,-31.31 904.85,-41.84 802.66,-19.98"/>
<polygon fill="midnightblue" stroke="midnightblue" points="803.39,-16.55 792.87,-17.83 801.89,-23.39 803.39,-16.55"/>
</g>
<!-- Node23&#45;&gt;Node11 -->
<g id="edge32" class="edge">
<title>Node23&#45;&gt;Node11</title>
<path fill="none" stroke="midnightblue" d="M1244.91,-117.77C1271.09,-100.74 1328.62,-64.05 1350.61,-56 1404.62,-36.23 1467.98,-25.08 1519.43,-18.82"/>
<polygon fill="midnightblue" stroke="midnightblue" points="1520.03,-22.28 1529.55,-17.64 1519.21,-15.33 1520.03,-22.28"/>
</g>
<!-- Node23&#45;&gt;Node24 -->
<g id="edge33" class="edge">
<title>Node23&#45;&gt;Node24</title>
<path fill="none" stroke="midnightblue" d="M1257.97,-117.98C1289.94,-107.64 1343.98,-90.16 1379.73,-78.6"/>
<polygon fill="midnightblue" stroke="midnightblue" points="1380.86,-81.92 1389.29,-75.51 1378.7,-75.26 1380.86,-81.92"/>
</g>
<!-- Node25&#45;&gt;Node9 -->
<g id="edge35" class="edge">
<title>Node25&#45;&gt;Node9</title>
<path fill="none" stroke="midnightblue" d="M1002.98,-117.95C960.89,-110.56 904.62,-97.57 858.61,-76 831.37,-63.23 804.15,-41.38 787.35,-26.57"/>
<polygon fill="midnightblue" stroke="midnightblue" points="789.34,-23.66 779.57,-19.56 784.66,-28.86 789.34,-23.66"/>
</g>
<!-- Node25&#45;&gt;Node11 -->
<g id="edge36" class="edge">
<title>Node25&#45;&gt;Node11</title>
<path fill="none" stroke="midnightblue" d="M1120.46,-117.92C1163.64,-110.15 1224.33,-96.69 1274.61,-76 1290.47,-69.47 1291.47,-61.79 1307.61,-56 1375.86,-31.51 1457.1,-20.32 1519.29,-15.23"/>
<polygon fill="midnightblue" stroke="midnightblue" points="1519.8,-18.7 1529.5,-14.43 1519.26,-11.72 1519.8,-18.7"/>
</g>
<!-- Node25&#45;&gt;Node13 -->
<g id="edge38" class="edge">
<title>Node25&#45;&gt;Node13</title>
<path fill="none" stroke="midnightblue" d="M1067.39,-117.99C1072.78,-102.93 1086.13,-71.69 1108.61,-56 1152.65,-25.25 1213.31,-14.71 1258.97,-11.46"/>
<polygon fill="midnightblue" stroke="midnightblue" points="1259.29,-14.94 1269.06,-10.84 1258.86,-7.96 1259.29,-14.94"/>
</g>
<!-- Node25&#45;&gt;Node21 -->
<g id="edge37" class="edge">
<title>Node25&#45;&gt;Node21</title>
<path fill="none" stroke="midnightblue" d="M1082.8,-117.98C1104.12,-107.99 1139.64,-91.35 1164.27,-79.81"/>
<polygon fill="midnightblue" stroke="midnightblue" points="1165.88,-82.92 1173.45,-75.51 1162.91,-76.58 1165.88,-82.92"/>
</g>
<!-- Node25&#45;&gt;Node22 -->
<g id="edge39" class="edge">
<title>Node25&#45;&gt;Node22</title>
<path fill="none" stroke="midnightblue" d="M1006.49,-117.94C957.26,-109.5 891.85,-95.1 873.61,-76 862.04,-63.88 859.09,-44.6 858.7,-30.18"/>
<polygon fill="midnightblue" stroke="midnightblue" points="862.21,-29.93 858.83,-19.89 855.21,-29.84 862.21,-29.93"/>
</g>
<!-- Node26 -->
<g id="node26" class="node">
<title>Node26</title>
<g id="a_node26"><a xlink:title=" ">
<polygon fill="white" stroke="#bfbfbf" points="1566.11,-56.5 1566.11,-75.5 1697.11,-75.5 1697.11,-56.5 1566.11,-56.5"/>
<text text-anchor="middle" x="1631.61" y="-63.5" font-family="Helvetica,sans-Serif" font-size="10.00">AMReX_PhysBCFunct.H</text>
</a>
</g>
</g>
<!-- Node25&#45;&gt;Node26 -->
<g id="edge40" class="edge">
<title>Node25&#45;&gt;Node26</title>
<path fill="none" stroke="midnightblue" d="M1114.04,-117.94C1127.2,-115.82 1141.42,-113.68 1154.61,-112 1295.92,-93.97 1461.64,-79.92 1555.86,-72.6"/>
<polygon fill="midnightblue" stroke="midnightblue" points="1556.17,-76.09 1565.87,-71.83 1555.63,-69.11 1556.17,-76.09"/>
</g>
<!-- Node27&#45;&gt;Node9 -->
<g id="edge45" class="edge">
<title>Node27&#45;&gt;Node9</title>
<path fill="none" stroke="midnightblue" d="M343.87,-189.55C229.66,-182.93 27.62,-167.85 5.61,-143 -3.53,-132.69 0.45,-124.78 5.61,-112 18.55,-79.94 28.23,-70.52 59.61,-56 121.7,-27.27 607.67,-14.58 738.35,-11.67"/>
<polygon fill="midnightblue" stroke="midnightblue" points="738.59,-15.17 748.51,-11.45 738.43,-8.17 738.59,-15.17"/>
</g>
<!-- Node27&#45;&gt;Node11 -->
<g id="edge59" class="edge">
<title>Node27&#45;&gt;Node11</title>
<path fill="none" stroke="midnightblue" d="M353.49,-179.41C266.28,-158.56 132.92,-115.45 190.61,-56 213.77,-32.13 1354.36,-21.15 1387.61,-20 1430.78,-18.51 1478.49,-16.67 1519.22,-15.05"/>
<polygon fill="midnightblue" stroke="midnightblue" points="1519.57,-18.53 1529.42,-14.64 1519.29,-11.54 1519.57,-18.53"/>
</g>
<!-- Node27&#45;&gt;Node20 -->
<g id="edge60" class="edge">
<title>Node27&#45;&gt;Node20</title>
<path fill="none" stroke="midnightblue" d="M495.21,-179.48C543.09,-170.01 606.78,-156.77 662.61,-143 711.51,-130.94 722.94,-124.97 771.61,-112 817.51,-99.77 870.25,-86.78 906.91,-77.92"/>
<polygon fill="midnightblue" stroke="midnightblue" points="907.9,-81.28 916.8,-75.53 906.26,-74.47 907.9,-81.28"/>
</g>
<!-- Node28 -->
<g id="node28" class="node">
<title>Node28</title>
<g id="a_node28"><a xlink:href="_factory_8_h.html" target="_top" xlink:title=" ">
<polygon fill="white" stroke="black" points="354.61,-118 354.61,-137 488.61,-137 488.61,-118 354.61,-118"/>
<text text-anchor="middle" x="421.61" y="-125" font-family="Helvetica,sans-Serif" font-size="10.00">amr&#45;wind/core/Factory.H</text>
</a>
</g>
</g>
<!-- Node27&#45;&gt;Node28 -->
<g id="edge46" class="edge">
<title>Node27&#45;&gt;Node28</title>
<path fill="none" stroke="midnightblue" d="M421.61,-179.4C421.61,-170.06 421.61,-157.71 421.61,-147.52"/>
<polygon fill="midnightblue" stroke="midnightblue" points="425.11,-147.19 421.61,-137.19 418.11,-147.19 425.11,-147.19"/>
</g>
<!-- Node32 -->
<g id="node32" class="node">
<title>Node32</title>
<g id="a_node32"><a xlink:href="_coll_mgr_8_h.html" target="_top" xlink:title=" ">
<polygon fill="white" stroke="black" points="516.11,-118 516.11,-137 653.11,-137 653.11,-118 516.11,-118"/>
<text text-anchor="middle" x="584.61" y="-125" font-family="Helvetica,sans-Serif" font-size="10.00">amr&#45;wind/core/CollMgr.H</text>
</a>
</g>
</g>
<!-- Node27&#45;&gt;Node32 -->
<g id="edge52" class="edge">
<title>Node27&#45;&gt;Node32</title>
<path fill="none" stroke="midnightblue" d="M456.98,-179.4C485.83,-167.89 526.19,-151.8 553.75,-140.81"/>
<polygon fill="midnightblue" stroke="midnightblue" points="555.28,-143.96 563.28,-137.01 552.69,-137.46 555.28,-143.96"/>
</g>
<!-- Node33 -->
<g id="node33" class="node">
<title>Node33</title>
<g id="a_node33"><a xlink:href="_p_d_e_fields_8_h.html" target="_top" xlink:title=" ">
<polygon fill="white" stroke="black" points="15.11,-112.5 15.11,-142.5 170.11,-142.5 170.11,-112.5 15.11,-112.5"/>
<text text-anchor="start" x="23.11" y="-130.5" font-family="Helvetica,sans-Serif" font-size="10.00">amr&#45;wind/equation_systems</text>
<text text-anchor="middle" x="92.61" y="-119.5" font-family="Helvetica,sans-Serif" font-size="10.00">/PDEFields.H</text>
</a>
</g>
</g>
<!-- Node27&#45;&gt;Node33 -->
<g id="edge57" class="edge">
<title>Node27&#45;&gt;Node33</title>
<path fill="none" stroke="midnightblue" d="M350.63,-179.48C298.61,-169.2 227.91,-155.23 173.68,-144.52"/>
<polygon fill="midnightblue" stroke="midnightblue" points="174.24,-141.06 163.75,-142.55 172.88,-147.93 174.24,-141.06"/>
</g>
<!-- Node28&#45;&gt;Node10 -->
<g id="edge48" class="edge">
<title>Node28&#45;&gt;Node10</title>
<path fill="none" stroke="midnightblue" d="M456.42,-117.98C499.46,-107.44 572.77,-89.49 619.92,-77.94"/>
<polygon fill="midnightblue" stroke="midnightblue" points="620.98,-81.29 629.86,-75.51 619.31,-74.49 620.98,-81.29"/>
</g>
<!-- Node28&#45;&gt;Node16 -->
<g id="edge47" class="edge">
<title>Node28&#45;&gt;Node16</title>
<path fill="none" stroke="midnightblue" d="M432.07,-117.98C443.56,-108.61 462.24,-93.38 476.2,-82.01"/>
<polygon fill="midnightblue" stroke="midnightblue" points="478.63,-84.54 484.17,-75.51 474.21,-79.11 478.63,-84.54"/>
</g>
<!-- Node29 -->
<g id="node29" class="node">
<title>Node29</title>
<g id="a_node29"><a xlink:title=" ">
<polygon fill="white" stroke="#bfbfbf" points="199.61,-56.5 199.61,-75.5 259.61,-75.5 259.61,-56.5 199.61,-56.5"/>
<text text-anchor="middle" x="229.61" y="-63.5" font-family="Helvetica,sans-Serif" font-size="10.00">iostream</text>
</a>
</g>
</g>
<!-- Node28&#45;&gt;Node29 -->
<g id="edge49" class="edge">
<title>Node28&#45;&gt;Node29</title>
<path fill="none" stroke="midnightblue" d="M394.1,-117.98C360.74,-107.64 304.35,-90.16 267.05,-78.6"/>
<polygon fill="midnightblue" stroke="midnightblue" points="267.65,-75.13 257.07,-75.51 265.58,-81.81 267.65,-75.13"/>
</g>
<!-- Node30 -->
<g id="node30" class="node">
<title>Node30</title>
<g id="a_node30"><a xlink:title=" ">
<polygon fill="white" stroke="#bfbfbf" points="277.61,-56.5 277.61,-75.5 367.61,-75.5 367.61,-56.5 277.61,-56.5"/>
<text text-anchor="middle" x="322.61" y="-63.5" font-family="Helvetica,sans-Serif" font-size="10.00">AMReX_Print.H</text>
</a>
</g>
</g>
<!-- Node28&#45;&gt;Node30 -->
<g id="edge50" class="edge">
<title>Node28&#45;&gt;Node30</title>
<path fill="none" stroke="midnightblue" d="M407.42,-117.98C391.25,-108.25 364.58,-92.23 345.47,-80.74"/>
<polygon fill="midnightblue" stroke="midnightblue" points="347.14,-77.66 336.77,-75.51 343.53,-83.66 347.14,-77.66"/>
</g>
<!-- Node31 -->
<g id="node31" class="node">
<title>Node31</title>
<g id="a_node31"><a xlink:title=" ">
<polygon fill="white" stroke="#bfbfbf" points="385.61,-56.5 385.61,-75.5 447.61,-75.5 447.61,-56.5 385.61,-56.5"/>
<text text-anchor="middle" x="416.61" y="-63.5" font-family="Helvetica,sans-Serif" font-size="10.00">AMReX.H</text>
</a>
</g>
</g>
<!-- Node28&#45;&gt;Node31 -->
<g id="edge51" class="edge">
<title>Node28&#45;&gt;Node31</title>
<path fill="none" stroke="midnightblue" d="M420.89,-117.98C420.19,-109.58 419.09,-96.48 418.18,-85.66"/>
<polygon fill="midnightblue" stroke="midnightblue" points="421.65,-85.18 417.32,-75.51 414.67,-85.77 421.65,-85.18"/>
</g>
<!-- Node32&#45;&gt;Node9 -->
<g id="edge53" class="edge">
<title>Node32&#45;&gt;Node9</title>
<path fill="none" stroke="midnightblue" d="M579.75,-117.6C572.55,-103.04 561.32,-73.96 575.61,-56 595.6,-30.87 688.39,-18.57 738.43,-13.67"/>
<polygon fill="midnightblue" stroke="midnightblue" points="738.78,-17.15 748.41,-12.74 738.13,-10.18 738.78,-17.15"/>
</g>
<!-- Node32&#45;&gt;Node10 -->
<g id="edge55" class="edge">
<title>Node32&#45;&gt;Node10</title>
<path fill="none" stroke="midnightblue" d="M596.07,-117.98C608.78,-108.52 629.52,-93.1 644.86,-81.69"/>
<polygon fill="midnightblue" stroke="midnightblue" points="647.23,-84.29 653.17,-75.51 643.06,-78.67 647.23,-84.29"/>
</g>
<!-- Node32&#45;&gt;Node16 -->
<g id="edge54" class="edge">
<title>Node32&#45;&gt;Node16</title>
<path fill="none" stroke="midnightblue" d="M571.71,-117.98C557.14,-108.34 533.21,-92.52 515.86,-81.05"/>
<polygon fill="midnightblue" stroke="midnightblue" points="517.75,-78.1 507.48,-75.51 513.89,-83.94 517.75,-78.1"/>
</g>
<!-- Node32&#45;&gt;Node22 -->
<g id="edge56" class="edge">
<title>Node32&#45;&gt;Node22</title>
<path fill="none" stroke="midnightblue" d="M585.02,-117.57C586.24,-102.42 591,-71.8 609.61,-56 613.27,-52.89 727.84,-33.15 800.59,-20.87"/>
<polygon fill="midnightblue" stroke="midnightblue" points="801.29,-24.31 810.57,-19.19 800.12,-17.4 801.29,-24.31"/>
</g>
<!-- Node34 -->
<g id="node34" class="node">
<title>Node34</title>
<g id="a_node34"><a xlink:title=" ">
<polygon fill="white" stroke="#bfbfbf" points="68.61,-56.5 68.61,-75.5 116.61,-75.5 116.61,-56.5 68.61,-56.5"/>
<text text-anchor="middle" x="92.61" y="-63.5" font-family="Helvetica,sans-Serif" font-size="10.00">iosfwd</text>
</a>
</g>
</g>
<!-- Node33&#45;&gt;Node34 -->
<g id="edge58" class="edge">
<title>Node33&#45;&gt;Node34</title>
<path fill="none" stroke="midnightblue" d="M92.61,-112.4C92.61,-104.47 92.61,-94.46 92.61,-85.86"/>
<polygon fill="midnightblue" stroke="midnightblue" points="96.11,-85.66 92.61,-75.66 89.11,-85.66 96.11,-85.66"/>
</g>
<!-- Node35&#45;&gt;Node13 -->
<g id="edge64" class="edge">
<title>Node35&#45;&gt;Node13</title>
<path fill="none" stroke="midnightblue" d="M718.89,-184.92C727.21,-168.91 746.93,-134.14 771.61,-112 810.1,-77.46 824.22,-71.33 873.61,-56 943.8,-34.22 1151.99,-20.23 1258.8,-14.28"/>
<polygon fill="midnightblue" stroke="midnightblue" points="1259.02,-17.78 1268.81,-13.73 1258.63,-10.79 1259.02,-17.78"/>
</g>
<!-- Node35&#45;&gt;Node28 -->
<g id="edge62" class="edge">
<title>Node35&#45;&gt;Node28</title>
<path fill="none" stroke="midnightblue" d="M676,-184.94C623.08,-173.2 528.01,-152.11 470.28,-139.3"/>
<polygon fill="midnightblue" stroke="midnightblue" points="470.82,-135.83 460.3,-137.08 469.3,-142.67 470.82,-135.83"/>
</g>
<!-- Node35&#45;&gt;Node32 -->
<g id="edge63" class="edge">
<title>Node35&#45;&gt;Node32</title>
<path fill="none" stroke="midnightblue" d="M697.35,-184.87C675.3,-173.84 636.92,-154.66 611.14,-141.77"/>
<polygon fill="midnightblue" stroke="midnightblue" points="612.45,-138.51 601.94,-137.17 609.32,-144.77 612.45,-138.51"/>
</g>
<!-- Node36 -->
<g id="node36" class="node">
<title>Node36</title>
<g id="a_node36"><a xlink:title=" ">
<polygon fill="white" stroke="#bfbfbf" points="1318.11,-118 1318.11,-137 1433.11,-137 1433.11,-118 1318.11,-118"/>
<text text-anchor="middle" x="1375.61" y="-125" font-family="Helvetica,sans-Serif" font-size="10.00">AMReX_Geometry.H</text>
</a>
</g>
</g>
<!-- Node35&#45;&gt;Node36 -->
<g id="edge65" class="edge">
<title>Node35&#45;&gt;Node36</title>
<path fill="none" stroke="midnightblue" d="M783.22,-190.61C894.31,-185.28 1120.24,-171.71 1309.61,-143 1316.47,-141.96 1323.68,-140.63 1330.71,-139.19"/>
<polygon fill="midnightblue" stroke="midnightblue" points="1331.78,-142.54 1340.83,-137.04 1330.32,-135.7 1331.78,-142.54"/>
</g>
<!-- Node37&#45;&gt;Node2 -->
<g id="edge70" class="edge">
<title>Node37&#45;&gt;Node2</title>
<path fill="none" stroke="midnightblue" d="M1798.04,-319.37C1700.13,-307.03 1514.95,-283.71 1414.88,-271.1"/>
<polygon fill="midnightblue" stroke="midnightblue" points="1415.24,-267.62 1404.88,-269.84 1414.37,-274.56 1415.24,-267.62"/>
</g>
<!-- Node37&#45;&gt;Node4 -->
<g id="edge72" class="edge">
<title>Node37&#45;&gt;Node4</title>
<path fill="none" stroke="midnightblue" d="M1862.61,-313.37C1862.61,-289.5 1862.61,-241.18 1862.61,-214.41"/>
<polygon fill="midnightblue" stroke="midnightblue" points="1866.11,-214.1 1862.61,-204.1 1859.11,-214.1 1866.11,-214.1"/>
</g>
<!-- Node37&#45;&gt;Node15 -->
<g id="edge71" class="edge">
<title>Node37&#45;&gt;Node15</title>
<path fill="none" stroke="midnightblue" d="M1844.92,-313.19C1799.9,-276.77 1681.29,-180.83 1635.25,-143.58"/>
<polygon fill="midnightblue" stroke="midnightblue" points="1637.27,-140.71 1627.3,-137.14 1632.87,-146.16 1637.27,-140.71"/>
</g>
<!-- Node38 -->
<g id="node38" class="node">
<title>Node38</title>
<g id="a_node38"><a xlink:href="_direction_selector_8_h.html" target="_top" xlink:title=" ">
<polygon fill="white" stroke="black" points="1955.11,-246.5 1955.11,-276.5 2068.11,-276.5 2068.11,-246.5 1955.11,-246.5"/>
<text text-anchor="start" x="1963.11" y="-264.5" font-family="Helvetica,sans-Serif" font-size="10.00">amr&#45;wind/utilities</text>
<text text-anchor="middle" x="2011.61" y="-253.5" font-family="Helvetica,sans-Serif" font-size="10.00">/DirectionSelector.H</text>
</a>
</g>
</g>
<!-- Node37&#45;&gt;Node38 -->
<g id="edge67" class="edge">
<title>Node37&#45;&gt;Node38</title>
<path fill="none" stroke="midnightblue" d="M1894.94,-313.4C1916.91,-303.81 1946.16,-291.05 1969.89,-280.7"/>
<polygon fill="midnightblue" stroke="midnightblue" points="1971.57,-283.78 1979.34,-276.58 1968.78,-277.37 1971.57,-283.78"/>
</g>
<!-- Node38&#45;&gt;Node19 -->
<g id="edge69" class="edge">
<title>Node38&#45;&gt;Node19</title>
<path fill="none" stroke="midnightblue" d="M2030.8,-246.26C2059.51,-224.72 2115.03,-182.23 2159.61,-143 2182.09,-123.21 2206.61,-98.82 2222.04,-83.09"/>
<polygon fill="midnightblue" stroke="midnightblue" points="2224.75,-85.33 2229.22,-75.73 2219.74,-80.44 2224.75,-85.33"/>
</g>
<!-- Node39 -->
<g id="node39" class="node">
<title>Node39</title>
<g id="a_node39"><a xlink:title=" ">
<polygon fill="white" stroke="#bfbfbf" points="1968.61,-185 1968.61,-204 2054.61,-204 2054.61,-185 1968.61,-185"/>
<text text-anchor="middle" x="2011.61" y="-192" font-family="Helvetica,sans-Serif" font-size="10.00">AMReX_Box.H</text>
</a>
</g>
</g>
<!-- Node38&#45;&gt;Node39 -->
<g id="edge68" class="edge">
<title>Node38&#45;&gt;Node39</title>
<path fill="none" stroke="midnightblue" d="M2011.61,-246.4C2011.61,-237.06 2011.61,-224.71 2011.61,-214.52"/>
<polygon fill="midnightblue" stroke="midnightblue" points="2015.11,-214.19 2011.61,-204.19 2008.11,-214.19 2015.11,-214.19"/>
</g>
<!-- Node40&#45;&gt;Node11 -->
<g id="edge74" class="edge">
<title>Node40&#45;&gt;Node11</title>
<path fill="none" stroke="midnightblue" d="M2275.17,-184.68C2289.61,-160.53 2324.92,-92.68 2290.61,-56 2271.3,-35.36 1898.21,-20.25 1716.04,-14.08"/>
<polygon fill="midnightblue" stroke="midnightblue" points="1716.02,-10.57 1705.91,-13.74 1715.79,-17.57 1716.02,-10.57"/>
</g>
<!-- Node40&#45;&gt;Node15 -->
<g id="edge75" class="edge">
<title>Node40&#45;&gt;Node15</title>
<path fill="none" stroke="midnightblue" d="M2191.49,-185.72C2063.9,-173.02 1812.63,-148.01 1688.91,-135.7"/>
<polygon fill="midnightblue" stroke="midnightblue" points="1689.08,-132.2 1678.78,-134.69 1688.39,-139.16 1689.08,-132.2"/>
</g>
<!-- Node40&#45;&gt;Node19 -->
<g id="edge76" class="edge">
<title>Node40&#45;&gt;Node19</title>
<path fill="none" stroke="midnightblue" d="M2267.41,-184.81C2262.27,-164.49 2249.38,-113.55 2242.36,-85.78"/>
<polygon fill="midnightblue" stroke="midnightblue" points="2245.67,-84.59 2239.82,-75.76 2238.88,-86.31 2245.67,-84.59"/>
</g>
<!-- Node40&#45;&gt;Node26 -->
<g id="edge79" class="edge">
<title>Node40&#45;&gt;Node26</title>
<path fill="none" stroke="midnightblue" d="M2261.49,-184.88C2244.52,-167.49 2203.19,-128.47 2159.61,-112 2154.38,-110.02 1852.06,-85.05 1707.3,-73.19"/>
<polygon fill="midnightblue" stroke="midnightblue" points="1707.41,-69.68 1697.16,-72.36 1706.84,-76.66 1707.41,-69.68"/>
</g>
<!-- Node40&#45;&gt;Node36 -->
<g id="edge78" class="edge">
<title>Node40&#45;&gt;Node36</title>
<path fill="none" stroke="midnightblue" d="M2191.35,-187.98C2152.88,-185.26 2105.81,-181.95 2063.61,-179 1833.39,-162.9 1775.7,-160.81 1545.61,-143 1512.04,-140.4 1474.78,-137.25 1443.71,-134.55"/>
<polygon fill="midnightblue" stroke="midnightblue" points="1443.69,-131.04 1433.42,-133.66 1443.08,-138.01 1443.69,-131.04"/>
</g>
<!-- Node41 -->
<g id="node41" class="node">
<title>Node41</title>
<g id="a_node41"><a xlink:title=" ">
<polygon fill="white" stroke="#bfbfbf" points="2321.11,-118 2321.11,-137 2438.11,-137 2438.11,-118 2321.11,-118"/>
<text text-anchor="middle" x="2379.61" y="-125" font-family="Helvetica,sans-Serif" font-size="10.00">AMReX_FArrayBox.H</text>
</a>
</g>
</g>
<!-- Node40&#45;&gt;Node41 -->
<g id="edge77" class="edge">
<title>Node40&#45;&gt;Node41</title>
<path fill="none" stroke="midnightblue" d="M2284.44,-184.73C2302.92,-173.82 2334.68,-155.05 2356.39,-142.22"/>
<polygon fill="midnightblue" stroke="midnightblue" points="2358.18,-145.23 2365.01,-137.13 2354.62,-139.2 2358.18,-145.23"/>
</g>
<!-- Node43 -->
<g id="node43" class="node">
<title>Node43</title>
<g id="a_node43"><a xlink:href="trig__ops_8_h.html" target="_top" xlink:title=" ">
<polygon fill="white" stroke="black" points="2398.11,-179.5 2398.11,-209.5 2501.11,-209.5 2501.11,-179.5 2398.11,-179.5"/>
<text text-anchor="start" x="2406.11" y="-197.5" font-family="Helvetica,sans-Serif" font-size="10.00">amr&#45;wind/utilities</text>
<text text-anchor="middle" x="2449.61" y="-186.5" font-family="Helvetica,sans-Serif" font-size="10.00">/trig_ops.H</text>
</a>
</g>
</g>
<!-- Node42&#45;&gt;Node43 -->
<g id="edge81" class="edge">
<title>Node42&#45;&gt;Node43</title>
<path fill="none" stroke="midnightblue" d="M2304.05,-313.37C2332.97,-289.95 2390.97,-242.99 2424.36,-215.94"/>
<polygon fill="midnightblue" stroke="midnightblue" points="2426.72,-218.54 2432.29,-209.52 2422.32,-213.1 2426.72,-218.54"/>
</g>
<!-- Node43&#45;&gt;Node5 -->
<g id="edge83" class="edge">
<title>Node43&#45;&gt;Node5</title>
<path fill="none" stroke="midnightblue" d="M2397.96,-183.77C2333.99,-171.72 2225.47,-151.27 2159.87,-138.91"/>
<polygon fill="midnightblue" stroke="midnightblue" points="2160.2,-135.41 2149.73,-137 2158.91,-142.29 2160.2,-135.41"/>
</g>
<!-- Node43&#45;&gt;Node19 -->
<g id="edge84" class="edge">
<title>Node43&#45;&gt;Node19</title>
<path fill="none" stroke="midnightblue" d="M2454.04,-179.3C2458.65,-161.44 2463.23,-130.85 2447.61,-112 2428.01,-88.35 2346.67,-76.51 2291.16,-71.06"/>
<polygon fill="midnightblue" stroke="midnightblue" points="2291.41,-67.57 2281.12,-70.12 2290.75,-74.54 2291.41,-67.57"/>
</g>
<!-- Node44 -->
<g id="node44" class="node">
<title>Node44</title>
<g id="a_node44"><a xlink:title=" ">
<polygon fill="white" stroke="#bfbfbf" points="2495.11,-118 2495.11,-137 2542.11,-137 2542.11,-118 2495.11,-118"/>
<text text-anchor="middle" x="2518.61" y="-125" font-family="Helvetica,sans-Serif" font-size="10.00">cmath</text>
</a>
</g>
</g>
<!-- Node43&#45;&gt;Node44 -->
<g id="edge82" class="edge">
<title>Node43&#45;&gt;Node44</title>
<path fill="none" stroke="midnightblue" d="M2464.58,-179.4C2475.55,-169.06 2490.45,-155.02 2501.83,-144.31"/>
<polygon fill="midnightblue" stroke="midnightblue" points="2504.5,-146.6 2509.38,-137.19 2499.7,-141.5 2504.5,-146.6"/>
</g>
</g>
</svg>
