<?xml version="1.0" encoding="UTF-8" standalone="no"?>
<!DOCTYPE svg PUBLIC "-//W3C//DTD SVG 1.1//EN"
 "http://www.w3.org/Graphics/SVG/1.1/DTD/svg11.dtd">
<!-- Generated by graphviz version 2.43.0 (0)
 -->
<!-- Title: AdvOp_Godunov.H Pages: 1 -->
<svg width="841pt" height="140pt"
 viewBox="0.00 0.00 840.50 140.00" xmlns="http://www.w3.org/2000/svg" xmlns:xlink="http://www.w3.org/1999/xlink">
<g id="graph0" class="graph" transform="scale(1 1) rotate(0) translate(4 136)">
<title>AdvOp_Godunov.H</title>
<polygon fill="white" stroke="transparent" points="-4,4 -4,-136 836.5,-136 836.5,4 -4,4"/>
<!-- Node1 -->
<g id="node1" class="node">
<title>Node1</title>
<g id="a_node1"><a xlink:title=" ">
<polygon fill="#bfbfbf" stroke="black" points="389,-112.5 389,-131.5 496,-131.5 496,-112.5 389,-112.5"/>
<text text-anchor="middle" x="442.5" y="-119.5" font-family="Helvetica,sans-Serif" font-size="10.00">AdvOp_Godunov.H</text>
</a>
</g>
</g>
<!-- Node2 -->
<g id="node2" class="node">
<title>Node2</title>
<g id="a_node2"><a xlink:href="density_8cpp.html" target="_top" xlink:title=" ">
<polygon fill="white" stroke="black" points="0,-56.5 0,-75.5 71,-75.5 71,-56.5 0,-56.5"/>
<text text-anchor="middle" x="35.5" y="-63.5" font-family="Helvetica,sans-Serif" font-size="10.00">density.cpp</text>
</a>
</g>
</g>
<!-- Node1&#45;&gt;Node2 -->
<g id="edge1" class="edge">
<title>Node1&#45;&gt;Node2</title>
<path fill="none" stroke="midnightblue" d="M378.44,-114.59C305.74,-106.97 183.73,-93.09 79.5,-76 76.88,-75.57 74.19,-75.1 71.48,-74.6"/>
<polygon fill="midnightblue" stroke="midnightblue" points="378.49,-118.12 388.8,-115.67 379.22,-111.16 378.49,-118.12"/>
</g>
<!-- Node3 -->
<g id="node3" class="node">
<title>Node3</title>
<g id="a_node3"><a xlink:href="icns__advection_8_h.html" target="_top" xlink:title=" ">
<polygon fill="white" stroke="black" points="176.5,-56.5 176.5,-75.5 276.5,-75.5 276.5,-56.5 176.5,-56.5"/>
<text text-anchor="middle" x="226.5" y="-63.5" font-family="Helvetica,sans-Serif" font-size="10.00">icns_advection.H</text>
</a>
</g>
</g>
<!-- Node1&#45;&gt;Node3 -->
<g id="edge2" class="edge">
<title>Node1&#45;&gt;Node3</title>
<path fill="none" stroke="midnightblue" d="M398.34,-109.96C357.54,-99.76 297.79,-84.82 260.57,-75.52"/>
<polygon fill="midnightblue" stroke="midnightblue" points="397.72,-113.41 408.27,-112.44 399.42,-106.62 397.72,-113.41"/>
</g>
<!-- Node6 -->
<g id="node6" class="node">
<title>Node6</title>
<g id="a_node6"><a xlink:href="icns__ops_8_h.html" target="_top" xlink:title=" ">
<polygon fill="white" stroke="black" points="89,-56.5 89,-75.5 158,-75.5 158,-56.5 89,-56.5"/>
<text text-anchor="middle" x="123.5" y="-63.5" font-family="Helvetica,sans-Serif" font-size="10.00">icns_ops.H</text>
</a>
</g>
</g>
<!-- Node1&#45;&gt;Node6 -->
<g id="edge5" class="edge">
<title>Node1&#45;&gt;Node6</title>
<path fill="none" stroke="midnightblue" d="M378.81,-111.31C322.99,-102.64 239.73,-89.29 167.5,-76 164.43,-75.44 161.25,-74.83 158.06,-74.2"/>
<polygon fill="midnightblue" stroke="midnightblue" points="378.48,-114.8 388.9,-112.87 379.55,-107.88 378.48,-114.8"/>
</g>
<!-- Node7 -->
<g id="node7" class="node">
<title>Node7</title>
<g id="a_node7"><a xlink:href="levelset_8cpp.html" target="_top" xlink:title=" ">
<polygon fill="white" stroke="black" points="294.5,-56.5 294.5,-75.5 370.5,-75.5 370.5,-56.5 294.5,-56.5"/>
<text text-anchor="middle" x="332.5" y="-63.5" font-family="Helvetica,sans-Serif" font-size="10.00">levelset.cpp</text>
</a>
</g>
</g>
<!-- Node1&#45;&gt;Node7 -->
<g id="edge7" class="edge">
<title>Node1&#45;&gt;Node7</title>
<path fill="none" stroke="midnightblue" d="M415.74,-107.86C395.34,-97.85 367.83,-84.35 350.13,-75.65"/>
<polygon fill="midnightblue" stroke="midnightblue" points="414.31,-111.06 424.83,-112.32 417.39,-104.78 414.31,-111.06"/>
</g>
<!-- Node8 -->
<g id="node8" class="node">
<title>Node8</title>
<g id="a_node8"><a xlink:href="passive__scalar_8cpp.html" target="_top" xlink:title=" ">
<polygon fill="white" stroke="black" points="388.5,-56.5 388.5,-75.5 496.5,-75.5 496.5,-56.5 388.5,-56.5"/>
<text text-anchor="middle" x="442.5" y="-63.5" font-family="Helvetica,sans-Serif" font-size="10.00">passive_scalar.cpp</text>
</a>
</g>
</g>
<!-- Node1&#45;&gt;Node8 -->
<g id="edge8" class="edge">
<title>Node1&#45;&gt;Node8</title>
<path fill="none" stroke="midnightblue" d="M442.5,-101.8C442.5,-92.91 442.5,-82.78 442.5,-75.75"/>
<polygon fill="midnightblue" stroke="midnightblue" points="439,-102.08 442.5,-112.08 446,-102.08 439,-102.08"/>
</g>
<!-- Node9 -->
<g id="node9" class="node">
<title>Node9</title>
<g id="a_node9"><a xlink:href="_s_d_r_8cpp.html" target="_top" xlink:title=" ">
<polygon fill="white" stroke="black" points="515,-56.5 515,-75.5 572,-75.5 572,-56.5 515,-56.5"/>
<text text-anchor="middle" x="543.5" y="-63.5" font-family="Helvetica,sans-Serif" font-size="10.00">SDR.cpp</text>
</a>
</g>
</g>
<!-- Node1&#45;&gt;Node9 -->
<g id="edge9" class="edge">
<title>Node1&#45;&gt;Node9</title>
<path fill="none" stroke="midnightblue" d="M467.58,-107.59C486.26,-97.61 511.2,-84.27 527.31,-75.65"/>
<polygon fill="midnightblue" stroke="midnightblue" points="465.9,-104.52 458.73,-112.32 469.2,-110.7 465.9,-104.52"/>
</g>
<!-- Node10 -->
<g id="node10" class="node">
<title>Node10</title>
<g id="a_node10"><a xlink:href="temperature_8cpp.html" target="_top" xlink:title=" ">
<polygon fill="white" stroke="black" points="590.5,-56.5 590.5,-75.5 688.5,-75.5 688.5,-56.5 590.5,-56.5"/>
<text text-anchor="middle" x="639.5" y="-63.5" font-family="Helvetica,sans-Serif" font-size="10.00">temperature.cpp</text>
</a>
</g>
</g>
<!-- Node1&#45;&gt;Node10 -->
<g id="edge10" class="edge">
<title>Node1&#45;&gt;Node10</title>
<path fill="none" stroke="midnightblue" d="M483.73,-109.7C520.91,-99.51 574.77,-84.74 608.43,-75.52"/>
<polygon fill="midnightblue" stroke="midnightblue" points="482.43,-106.42 473.72,-112.44 484.28,-113.18 482.43,-106.42"/>
</g>
<!-- Node11 -->
<g id="node11" class="node">
<title>Node11</title>
<g id="a_node11"><a xlink:href="_t_k_e_8cpp.html" target="_top" xlink:title=" ">
<polygon fill="white" stroke="black" points="706.5,-56.5 706.5,-75.5 762.5,-75.5 762.5,-56.5 706.5,-56.5"/>
<text text-anchor="middle" x="734.5" y="-63.5" font-family="Helvetica,sans-Serif" font-size="10.00">TKE.cpp</text>
</a>
</g>
</g>
<!-- Node1&#45;&gt;Node11 -->
<g id="edge11" class="edge">
<title>Node1&#45;&gt;Node11</title>
<path fill="none" stroke="midnightblue" d="M506.45,-110.88C558.15,-102.42 632.74,-89.58 697.5,-76 700.35,-75.4 703.31,-74.75 706.26,-74.07"/>
<polygon fill="midnightblue" stroke="midnightblue" points="505.73,-107.45 496.42,-112.51 506.85,-114.36 505.73,-107.45"/>
</g>
<!-- Node12 -->
<g id="node12" class="node">
<title>Node12</title>
<g id="a_node12"><a xlink:href="vof_8cpp.html" target="_top" xlink:title=" ">
<polygon fill="white" stroke="black" points="780.5,-56.5 780.5,-75.5 832.5,-75.5 832.5,-56.5 780.5,-56.5"/>
<text text-anchor="middle" x="806.5" y="-63.5" font-family="Helvetica,sans-Serif" font-size="10.00">vof.cpp</text>
</a>
</g>
</g>
<!-- Node1&#45;&gt;Node12 -->
<g id="edge12" class="edge">
<title>Node1&#45;&gt;Node12</title>
<path fill="none" stroke="midnightblue" d="M506.42,-114.48C572.97,-107.17 680.08,-93.94 771.5,-76 774.33,-75.44 777.28,-74.8 780.2,-74.11"/>
<polygon fill="midnightblue" stroke="midnightblue" points="505.66,-111.04 496.09,-115.6 506.41,-118 505.66,-111.04"/>
</g>
<!-- Node4 -->
<g id="node4" class="node">
<title>Node4</title>
<g id="a_node4"><a xlink:href="icns_8cpp.html" target="_top" xlink:title=" ">
<polygon fill="white" stroke="black" points="96.5,-0.5 96.5,-19.5 152.5,-19.5 152.5,-0.5 96.5,-0.5"/>
<text text-anchor="middle" x="124.5" y="-7.5" font-family="Helvetica,sans-Serif" font-size="10.00">icns.cpp</text>
</a>
</g>
</g>
<!-- Node3&#45;&gt;Node4 -->
<g id="edge3" class="edge">
<title>Node3&#45;&gt;Node4</title>
<path fill="none" stroke="midnightblue" d="M201.17,-51.59C182.31,-41.61 157.12,-28.27 140.85,-19.65"/>
<polygon fill="midnightblue" stroke="midnightblue" points="199.64,-54.74 210.11,-56.32 202.91,-48.55 199.64,-54.74"/>
</g>
<!-- Node5 -->
<g id="node5" class="node">
<title>Node5</title>
<g id="a_node5"><a xlink:href="icns__advection_8cpp.html" target="_top" xlink:title=" ">
<polygon fill="white" stroke="black" points="171.5,-0.5 171.5,-19.5 281.5,-19.5 281.5,-0.5 171.5,-0.5"/>
<text text-anchor="middle" x="226.5" y="-7.5" font-family="Helvetica,sans-Serif" font-size="10.00">icns_advection.cpp</text>
</a>
</g>
</g>
<!-- Node3&#45;&gt;Node5 -->
<g id="edge4" class="edge">
<title>Node3&#45;&gt;Node5</title>
<path fill="none" stroke="midnightblue" d="M226.5,-45.8C226.5,-36.91 226.5,-26.78 226.5,-19.75"/>
<polygon fill="midnightblue" stroke="midnightblue" points="223,-46.08 226.5,-56.08 230,-46.08 223,-46.08"/>
</g>
<!-- Node6&#45;&gt;Node4 -->
<g id="edge6" class="edge">
<title>Node6&#45;&gt;Node4</title>
<path fill="none" stroke="midnightblue" d="M123.86,-45.8C124.02,-36.91 124.21,-26.78 124.34,-19.75"/>
<polygon fill="midnightblue" stroke="midnightblue" points="120.35,-46.02 123.67,-56.08 127.35,-46.15 120.35,-46.02"/>
</g>
</g>
</svg>
