<?xml version="1.0" encoding="UTF-8" standalone="no"?>
<!DOCTYPE svg PUBLIC "-//W3C//DTD SVG 1.1//EN"
 "http://www.w3.org/Graphics/SVG/1.1/DTD/svg11.dtd">
<!-- Generated by graphviz version 2.43.0 (0)
 -->
<!-- Title: AirfoilTable.cpp Pages: 1 -->
<svg width="1093pt" height="464pt"
 viewBox="0.00 0.00 1093.09 464.00" xmlns="http://www.w3.org/2000/svg" xmlns:xlink="http://www.w3.org/1999/xlink">
<g id="graph0" class="graph" transform="scale(1 1) rotate(0) translate(4 460)">
<title>AirfoilTable.cpp</title>
<polygon fill="white" stroke="transparent" points="-4,4 -4,-460 1089.09,-460 1089.09,4 -4,4"/>
<!-- Node1 -->
<g id="node1" class="node">
<title>Node1</title>
<g id="a_node1"><a xlink:title=" ">
<polygon fill="#bfbfbf" stroke="black" points="875.09,-436.5 875.09,-455.5 967.09,-455.5 967.09,-436.5 875.09,-436.5"/>
<text text-anchor="middle" x="921.09" y="-443.5" font-family="Helvetica,sans-Serif" font-size="10.00">AirfoilTable.cpp</text>
</a>
</g>
</g>
<!-- Node2 -->
<g id="node2" class="node">
<title>Node2</title>
<g id="a_node2"><a xlink:href="_airfoil_table_8_h.html" target="_top" xlink:title=" ">
<polygon fill="white" stroke="black" points="497.59,-369.5 497.59,-399.5 650.59,-399.5 650.59,-369.5 497.59,-369.5"/>
<text text-anchor="start" x="505.59" y="-387.5" font-family="Helvetica,sans-Serif" font-size="10.00">amr&#45;wind/wind_energy</text>
<text text-anchor="middle" x="574.09" y="-376.5" font-family="Helvetica,sans-Serif" font-size="10.00">/actuator/aero/AirfoilTable.H</text>
</a>
</g>
</g>
<!-- Node1&#45;&gt;Node2 -->
<g id="edge1" class="edge">
<title>Node1&#45;&gt;Node2</title>
<path fill="none" stroke="midnightblue" d="M875.01,-437.1C820.57,-427.76 728.81,-412.03 660.9,-400.38"/>
<polygon fill="midnightblue" stroke="midnightblue" points="661.08,-396.86 650.63,-398.62 659.9,-403.76 661.08,-396.86"/>
</g>
<!-- Node26 -->
<g id="node26" class="node">
<title>Node26</title>
<g id="a_node26"><a xlink:href="linear__interpolation_8_h.html" target="_top" xlink:title=" ">
<polygon fill="white" stroke="black" points="804.59,-369.5 804.59,-399.5 929.59,-399.5 929.59,-369.5 804.59,-369.5"/>
<text text-anchor="start" x="812.59" y="-387.5" font-family="Helvetica,sans-Serif" font-size="10.00">amr&#45;wind/utilities</text>
<text text-anchor="middle" x="867.09" y="-376.5" font-family="Helvetica,sans-Serif" font-size="10.00">/linear_interpolation.H</text>
</a>
</g>
</g>
<!-- Node1&#45;&gt;Node26 -->
<g id="edge37" class="edge">
<title>Node1&#45;&gt;Node26</title>
<path fill="none" stroke="midnightblue" d="M913.36,-436.48C906.38,-428.79 895.84,-417.17 886.57,-406.96"/>
<polygon fill="midnightblue" stroke="midnightblue" points="889.13,-404.58 879.82,-399.52 883.95,-409.28 889.13,-404.58"/>
</g>
<!-- Node28 -->
<g id="node28" class="node">
<title>Node28</title>
<g id="a_node28"><a xlink:title=" ">
<polygon fill="white" stroke="#bfbfbf" points="947.59,-375 947.59,-394 1002.59,-394 1002.59,-375 947.59,-375"/>
<text text-anchor="middle" x="975.09" y="-382" font-family="Helvetica,sans-Serif" font-size="10.00">fstream</text>
</a>
</g>
</g>
<!-- Node1&#45;&gt;Node28 -->
<g id="edge40" class="edge">
<title>Node1&#45;&gt;Node28</title>
<path fill="none" stroke="midnightblue" d="M928.83,-436.48C937.09,-427.37 950.37,-412.74 960.59,-401.48"/>
<polygon fill="midnightblue" stroke="midnightblue" points="963.24,-403.77 967.37,-394.01 958.06,-399.06 963.24,-403.77"/>
</g>
<!-- Node29 -->
<g id="node29" class="node">
<title>Node29</title>
<g id="a_node29"><a xlink:title=" ">
<polygon fill="white" stroke="#bfbfbf" points="1021.09,-375 1021.09,-394 1085.09,-394 1085.09,-375 1021.09,-375"/>
<text text-anchor="middle" x="1053.09" y="-382" font-family="Helvetica,sans-Serif" font-size="10.00">algorithm</text>
</a>
</g>
</g>
<!-- Node1&#45;&gt;Node29 -->
<g id="edge41" class="edge">
<title>Node1&#45;&gt;Node29</title>
<path fill="none" stroke="midnightblue" d="M940.01,-436.48C962.26,-426.45 999.41,-409.7 1025.02,-398.15"/>
<polygon fill="midnightblue" stroke="midnightblue" points="1026.54,-401.31 1034.22,-394.01 1023.66,-394.93 1026.54,-401.31"/>
</g>
<!-- Node3 -->
<g id="node3" class="node">
<title>Node3</title>
<g id="a_node3"><a xlink:href="actuator__types_8_h.html" target="_top" xlink:title=" ">
<polygon fill="white" stroke="black" points="561.09,-302.5 561.09,-332.5 707.09,-332.5 707.09,-302.5 561.09,-302.5"/>
<text text-anchor="start" x="569.09" y="-320.5" font-family="Helvetica,sans-Serif" font-size="10.00">amr&#45;wind/wind_energy</text>
<text text-anchor="middle" x="634.09" y="-309.5" font-family="Helvetica,sans-Serif" font-size="10.00">/actuator/actuator_types.H</text>
</a>
</g>
</g>
<!-- Node2&#45;&gt;Node3 -->
<g id="edge2" class="edge">
<title>Node2&#45;&gt;Node3</title>
<path fill="none" stroke="midnightblue" d="M587.11,-369.4C595.05,-360.79 605.36,-349.63 614.3,-339.94"/>
<polygon fill="midnightblue" stroke="midnightblue" points="616.89,-342.3 621.1,-332.58 611.74,-337.55 616.89,-342.3"/>
</g>
<!-- Node22 -->
<g id="node22" class="node">
<title>Node22</title>
<g id="a_node22"><a xlink:title=" ">
<polygon fill="white" stroke="#bfbfbf" points="725.09,-308 725.09,-327 773.09,-327 773.09,-308 725.09,-308"/>
<text text-anchor="middle" x="749.09" y="-315" font-family="Helvetica,sans-Serif" font-size="10.00">iosfwd</text>
</a>
</g>
</g>
<!-- Node2&#45;&gt;Node22 -->
<g id="edge32" class="edge">
<title>Node2&#45;&gt;Node22</title>
<path fill="none" stroke="midnightblue" d="M616.02,-369.48C644.45,-359.76 682.78,-346.22 716.09,-333 717.69,-332.37 719.33,-331.7 720.98,-331.02"/>
<polygon fill="midnightblue" stroke="midnightblue" points="722.52,-334.16 730.34,-327.02 719.77,-327.72 722.52,-334.16"/>
</g>
<!-- Node23 -->
<g id="node23" class="node">
<title>Node23</title>
<g id="a_node23"><a xlink:title=" ">
<polygon fill="white" stroke="#bfbfbf" points="485.09,-308 485.09,-327 543.09,-327 543.09,-308 485.09,-308"/>
<text text-anchor="middle" x="514.09" y="-315" font-family="Helvetica,sans-Serif" font-size="10.00">memory</text>
</a>
</g>
</g>
<!-- Node2&#45;&gt;Node23 -->
<g id="edge33" class="edge">
<title>Node2&#45;&gt;Node23</title>
<path fill="none" stroke="midnightblue" d="M561.07,-369.4C551.63,-359.16 538.83,-345.3 528.97,-334.62"/>
<polygon fill="midnightblue" stroke="midnightblue" points="531.47,-332.17 522.12,-327.19 526.33,-336.92 531.47,-332.17"/>
</g>
<!-- Node24 -->
<g id="node24" class="node">
<title>Node24</title>
<g id="a_node24"><a xlink:href="_airfoil_table_i_8_h.html" target="_top" xlink:title=" ">
<polygon fill="white" stroke="black" points="311.09,-302.5 311.09,-332.5 467.09,-332.5 467.09,-302.5 311.09,-302.5"/>
<text text-anchor="start" x="319.09" y="-320.5" font-family="Helvetica,sans-Serif" font-size="10.00">amr&#45;wind/wind_energy</text>
<text text-anchor="middle" x="389.09" y="-309.5" font-family="Helvetica,sans-Serif" font-size="10.00">/actuator/aero/AirfoilTableI.H</text>
</a>
</g>
</g>
<!-- Node2&#45;&gt;Node24 -->
<g id="edge34" class="edge">
<title>Node2&#45;&gt;Node24</title>
<path fill="none" stroke="midnightblue" d="M528.27,-369.4C499.11,-359.6 461.64,-346.48 432.88,-336.02"/>
<polygon fill="midnightblue" stroke="midnightblue" points="434.08,-332.73 423.48,-332.58 431.67,-339.3 434.08,-332.73"/>
</g>
<!-- Node4 -->
<g id="node4" class="node">
<title>Node4</title>
<g id="a_node4"><a xlink:href="_slice_8_h.html" target="_top" xlink:title=" ">
<polygon fill="white" stroke="black" points="811.09,-241 811.09,-260 935.09,-260 935.09,-241 811.09,-241"/>
<text text-anchor="middle" x="873.09" y="-248" font-family="Helvetica,sans-Serif" font-size="10.00">amr&#45;wind/core/Slice.H</text>
</a>
</g>
</g>
<!-- Node3&#45;&gt;Node4 -->
<g id="edge3" class="edge">
<title>Node3&#45;&gt;Node4</title>
<path fill="none" stroke="midnightblue" d="M685.66,-302.48C729.43,-290.57 791.41,-273.72 831.92,-262.7"/>
<polygon fill="midnightblue" stroke="midnightblue" points="833,-266.03 841.73,-260.03 831.17,-259.28 833,-266.03"/>
</g>
<!-- Node7 -->
<g id="node7" class="node">
<title>Node7</title>
<g id="a_node7"><a xlink:title=" ">
<polygon fill="white" stroke="#bfbfbf" points="496.59,-0.5 496.59,-19.5 583.59,-19.5 583.59,-0.5 496.59,-0.5"/>
<text text-anchor="middle" x="540.09" y="-7.5" font-family="Helvetica,sans-Serif" font-size="10.00">AMReX_Gpu.H</text>
</a>
</g>
</g>
<!-- Node3&#45;&gt;Node7 -->
<g id="edge28" class="edge">
<title>Node3&#45;&gt;Node7</title>
<path fill="none" stroke="midnightblue" d="M602.47,-302.33C587.63,-293.96 571.24,-281.88 562.09,-266 538.95,-225.82 538.92,-81.66 539.7,-29.77"/>
<polygon fill="midnightblue" stroke="midnightblue" points="543.2,-29.73 539.88,-19.67 536.2,-29.6 543.2,-29.73"/>
</g>
<!-- Node8 -->
<g id="node8" class="node">
<title>Node8</title>
<g id="a_node8"><a xlink:href="vector__space_8_h.html" target="_top" xlink:title=" ">
<polygon fill="white" stroke="black" points="338.59,-235.5 338.59,-265.5 473.59,-265.5 473.59,-235.5 338.59,-235.5"/>
<text text-anchor="start" x="346.59" y="-253.5" font-family="Helvetica,sans-Serif" font-size="10.00">amr&#45;wind/core/vs/vector</text>
<text text-anchor="middle" x="406.09" y="-242.5" font-family="Helvetica,sans-Serif" font-size="10.00">_space.H</text>
</a>
</g>
</g>
<!-- Node3&#45;&gt;Node8 -->
<g id="edge7" class="edge">
<title>Node3&#45;&gt;Node8</title>
<path fill="none" stroke="midnightblue" d="M584.9,-302.48C549.81,-292.47 502.45,-278.97 465.29,-268.38"/>
<polygon fill="midnightblue" stroke="midnightblue" points="466.17,-264.99 455.59,-265.61 464.25,-271.72 466.17,-264.99"/>
</g>
<!-- Node19 -->
<g id="node19" class="node">
<title>Node19</title>
<g id="a_node19"><a xlink:title=" ">
<polygon fill="white" stroke="#bfbfbf" points="571.09,-241 571.09,-260 679.09,-260 679.09,-241 571.09,-241"/>
<text text-anchor="middle" x="625.09" y="-248" font-family="Helvetica,sans-Serif" font-size="10.00">AMReX_RealBox.H</text>
</a>
</g>
</g>
<!-- Node3&#45;&gt;Node19 -->
<g id="edge29" class="edge">
<title>Node3&#45;&gt;Node19</title>
<path fill="none" stroke="midnightblue" d="M632.14,-302.4C630.83,-292.96 629.1,-280.45 627.68,-270.19"/>
<polygon fill="midnightblue" stroke="midnightblue" points="631.14,-269.62 626.3,-260.19 624.2,-270.58 631.14,-269.62"/>
</g>
<!-- Node20 -->
<g id="node20" class="node">
<title>Node20</title>
<g id="a_node20"><a xlink:title=" ">
<polygon fill="white" stroke="#bfbfbf" points="697.09,-241 697.09,-260 729.09,-260 729.09,-241 697.09,-241"/>
<text text-anchor="middle" x="713.09" y="-248" font-family="Helvetica,sans-Serif" font-size="10.00">set</text>
</a>
</g>
</g>
<!-- Node3&#45;&gt;Node20 -->
<g id="edge30" class="edge">
<title>Node3&#45;&gt;Node20</title>
<path fill="none" stroke="midnightblue" d="M651.23,-302.4C664.04,-291.86 681.52,-277.48 694.63,-266.69"/>
<polygon fill="midnightblue" stroke="midnightblue" points="697.03,-269.25 702.53,-260.19 692.58,-263.85 697.03,-269.25"/>
</g>
<!-- Node21 -->
<g id="node21" class="node">
<title>Node21</title>
<g id="a_node21"><a xlink:title=" ">
<polygon fill="white" stroke="#bfbfbf" points="747.59,-241 747.59,-260 792.59,-260 792.59,-241 747.59,-241"/>
<text text-anchor="middle" x="770.09" y="-248" font-family="Helvetica,sans-Serif" font-size="10.00">utility</text>
</a>
</g>
</g>
<!-- Node3&#45;&gt;Node21 -->
<g id="edge31" class="edge">
<title>Node3&#45;&gt;Node21</title>
<path fill="none" stroke="midnightblue" d="M663.6,-302.4C687.25,-291.09 720.17,-275.36 743.12,-264.39"/>
<polygon fill="midnightblue" stroke="midnightblue" points="744.78,-267.48 752.29,-260.01 741.76,-261.16 744.78,-267.48"/>
</g>
<!-- Node5 -->
<g id="node5" class="node">
<title>Node5</title>
<g id="a_node5"><a xlink:title=" ">
<polygon fill="white" stroke="#bfbfbf" points="817.59,-179.5 817.59,-198.5 870.59,-198.5 870.59,-179.5 817.59,-179.5"/>
<text text-anchor="middle" x="844.09" y="-186.5" font-family="Helvetica,sans-Serif" font-size="10.00">iterator</text>
</a>
</g>
</g>
<!-- Node4&#45;&gt;Node5 -->
<g id="edge4" class="edge">
<title>Node4&#45;&gt;Node5</title>
<path fill="none" stroke="midnightblue" d="M868.94,-240.98C864.72,-232.32 858.06,-218.65 852.69,-207.65"/>
<polygon fill="midnightblue" stroke="midnightblue" points="855.77,-205.96 848.24,-198.51 849.48,-209.03 855.77,-205.96"/>
</g>
<!-- Node6 -->
<g id="node6" class="node">
<title>Node6</title>
<g id="a_node6"><a xlink:title=" ">
<polygon fill="white" stroke="#bfbfbf" points="701.09,-179.5 701.09,-198.5 799.09,-198.5 799.09,-179.5 701.09,-179.5"/>
<text text-anchor="middle" x="750.09" y="-186.5" font-family="Helvetica,sans-Serif" font-size="10.00">AMReX_Vector.H</text>
</a>
</g>
</g>
<!-- Node4&#45;&gt;Node6 -->
<g id="edge5" class="edge">
<title>Node4&#45;&gt;Node6</title>
<path fill="none" stroke="midnightblue" d="M855.47,-240.98C834.92,-231.03 800.73,-214.49 776.89,-202.96"/>
<polygon fill="midnightblue" stroke="midnightblue" points="778.21,-199.71 767.68,-198.51 775.16,-206.01 778.21,-199.71"/>
</g>
<!-- Node4&#45;&gt;Node7 -->
<g id="edge6" class="edge">
<title>Node4&#45;&gt;Node7</title>
<path fill="none" stroke="midnightblue" d="M877.09,-240.93C883,-226.84 892.17,-198.43 880.09,-179 817.08,-77.57 672.71,-35.54 593.88,-19.65"/>
<polygon fill="midnightblue" stroke="midnightblue" points="594.16,-16.14 583.67,-17.67 592.82,-23.01 594.16,-16.14"/>
</g>
<!-- Node9 -->
<g id="node9" class="node">
<title>Node9</title>
<g id="a_node9"><a xlink:href="vector_8_h.html" target="_top" xlink:title=" ">
<polygon fill="white" stroke="black" points="308.59,-123.5 308.59,-142.5 453.59,-142.5 453.59,-123.5 308.59,-123.5"/>
<text text-anchor="middle" x="381.09" y="-130.5" font-family="Helvetica,sans-Serif" font-size="10.00">amr&#45;wind/core/vs/vector.H</text>
</a>
</g>
</g>
<!-- Node8&#45;&gt;Node9 -->
<g id="edge8" class="edge">
<title>Node8&#45;&gt;Node9</title>
<path fill="none" stroke="midnightblue" d="M403.03,-235.34C398.52,-214.53 390.11,-175.66 385.12,-152.58"/>
<polygon fill="midnightblue" stroke="midnightblue" points="388.51,-151.7 382.97,-142.67 381.66,-153.18 388.51,-151.7"/>
</g>
<!-- Node16 -->
<g id="node16" class="node">
<title>Node16</title>
<g id="a_node16"><a xlink:href="tensor_8_h.html" target="_top" xlink:title=" ">
<polygon fill="white" stroke="black" points="178.59,-179.5 178.59,-198.5 323.59,-198.5 323.59,-179.5 178.59,-179.5"/>
<text text-anchor="middle" x="251.09" y="-186.5" font-family="Helvetica,sans-Serif" font-size="10.00">amr&#45;wind/core/vs/tensor.H</text>
</a>
</g>
</g>
<!-- Node8&#45;&gt;Node16 -->
<g id="edge17" class="edge">
<title>Node8&#45;&gt;Node16</title>
<path fill="none" stroke="midnightblue" d="M369.36,-235.4C343.12,-225.33 308.17,-211.91 283.07,-202.28"/>
<polygon fill="midnightblue" stroke="midnightblue" points="284.24,-198.97 273.65,-198.66 281.73,-205.51 284.24,-198.97"/>
</g>
<!-- Node9&#45;&gt;Node7 -->
<g id="edge9" class="edge">
<title>Node9&#45;&gt;Node7</title>
<path fill="none" stroke="midnightblue" d="M400.49,-123.45C417.94,-115.32 443.86,-102.1 464.09,-87 488.03,-69.13 511.75,-43.89 526.17,-27.49"/>
<polygon fill="midnightblue" stroke="midnightblue" points="528.92,-29.65 532.81,-19.8 523.62,-25.08 528.92,-29.65"/>
</g>
<!-- Node10 -->
<g id="node10" class="node">
<title>Node10</title>
<g id="a_node10"><a xlink:href="vstraits_8_h.html" target="_top" xlink:title=" ">
<polygon fill="white" stroke="black" points="136.09,-62 136.09,-81 288.09,-81 288.09,-62 136.09,-62"/>
<text text-anchor="middle" x="212.09" y="-69" font-family="Helvetica,sans-Serif" font-size="10.00">amr&#45;wind/core/vs/vstraits.H</text>
</a>
</g>
</g>
<!-- Node9&#45;&gt;Node10 -->
<g id="edge10" class="edge">
<title>Node9&#45;&gt;Node10</title>
<path fill="none" stroke="midnightblue" d="M356.88,-123.48C327.76,-113.22 278.73,-95.96 245.89,-84.4"/>
<polygon fill="midnightblue" stroke="midnightblue" points="246.86,-81.03 236.26,-81.01 244.53,-87.63 246.86,-81.03"/>
</g>
<!-- Node13 -->
<g id="node13" class="node">
<title>Node13</title>
<g id="a_node13"><a xlink:href="vector_i_8_h.html" target="_top" xlink:title=" ">
<polygon fill="white" stroke="black" points="306.59,-62 306.59,-81 455.59,-81 455.59,-62 306.59,-62"/>
<text text-anchor="middle" x="381.09" y="-69" font-family="Helvetica,sans-Serif" font-size="10.00">amr&#45;wind/core/vs/vectorI.H</text>
</a>
</g>
</g>
<!-- Node9&#45;&gt;Node13 -->
<g id="edge13" class="edge">
<title>Node9&#45;&gt;Node13</title>
<path fill="none" stroke="midnightblue" d="M376.19,-123.48C374.36,-115.08 373.89,-101.98 374.78,-91.16"/>
<polygon fill="midnightblue" stroke="midnightblue" points="378.28,-91.4 376.2,-81.01 371.35,-90.43 378.28,-91.4"/>
</g>
<!-- Node11 -->
<g id="node11" class="node">
<title>Node11</title>
<g id="a_node11"><a xlink:title=" ">
<polygon fill="white" stroke="#bfbfbf" points="204.09,-0.5 204.09,-19.5 248.09,-19.5 248.09,-0.5 204.09,-0.5"/>
<text text-anchor="middle" x="226.09" y="-7.5" font-family="Helvetica,sans-Serif" font-size="10.00">limits</text>
</a>
</g>
</g>
<!-- Node10&#45;&gt;Node11 -->
<g id="edge11" class="edge">
<title>Node10&#45;&gt;Node11</title>
<path fill="none" stroke="midnightblue" d="M214.1,-61.98C216.1,-53.49 219.22,-40.2 221.78,-29.32"/>
<polygon fill="midnightblue" stroke="midnightblue" points="225.21,-30.04 224.09,-19.51 218.39,-28.44 225.21,-30.04"/>
</g>
<!-- Node12 -->
<g id="node12" class="node">
<title>Node12</title>
<g id="a_node12"><a xlink:title=" ">
<polygon fill="white" stroke="#bfbfbf" points="94.09,-0.5 94.09,-19.5 186.09,-19.5 186.09,-0.5 94.09,-0.5"/>
<text text-anchor="middle" x="140.09" y="-7.5" font-family="Helvetica,sans-Serif" font-size="10.00">AMReX_REAL.H</text>
</a>
</g>
</g>
<!-- Node10&#45;&gt;Node12 -->
<g id="edge12" class="edge">
<title>Node10&#45;&gt;Node12</title>
<path fill="none" stroke="midnightblue" d="M201.78,-61.98C190.44,-52.61 172.02,-37.38 158.25,-26.01"/>
<polygon fill="midnightblue" stroke="midnightblue" points="160.33,-23.18 150.39,-19.51 155.87,-28.58 160.33,-23.18"/>
</g>
<!-- Node13&#45;&gt;Node9 -->
<g id="edge16" class="edge">
<title>Node13&#45;&gt;Node9</title>
<path fill="none" stroke="midnightblue" d="M385.99,-81.01C387.82,-89.4 388.3,-102.5 387.41,-113.32"/>
<polygon fill="midnightblue" stroke="midnightblue" points="383.91,-113.09 385.99,-123.48 390.84,-114.05 383.91,-113.09"/>
</g>
<!-- Node14 -->
<g id="node14" class="node">
<title>Node14</title>
<g id="a_node14"><a xlink:title=" ">
<polygon fill="white" stroke="#bfbfbf" points="352.59,-0.5 352.59,-19.5 409.59,-19.5 409.59,-0.5 352.59,-0.5"/>
<text text-anchor="middle" x="381.09" y="-7.5" font-family="Helvetica,sans-Serif" font-size="10.00">ostream</text>
</a>
</g>
</g>
<!-- Node13&#45;&gt;Node14 -->
<g id="edge14" class="edge">
<title>Node13&#45;&gt;Node14</title>
<path fill="none" stroke="midnightblue" d="M381.09,-61.98C381.09,-53.58 381.09,-40.48 381.09,-29.66"/>
<polygon fill="midnightblue" stroke="midnightblue" points="384.59,-29.51 381.09,-19.51 377.59,-29.51 384.59,-29.51"/>
</g>
<!-- Node15 -->
<g id="node15" class="node">
<title>Node15</title>
<g id="a_node15"><a xlink:title=" ">
<polygon fill="white" stroke="#bfbfbf" points="28.59,-0.5 28.59,-19.5 75.59,-19.5 75.59,-0.5 28.59,-0.5"/>
<text text-anchor="middle" x="52.09" y="-7.5" font-family="Helvetica,sans-Serif" font-size="10.00">cmath</text>
</a>
</g>
</g>
<!-- Node13&#45;&gt;Node15 -->
<g id="edge15" class="edge">
<title>Node13&#45;&gt;Node15</title>
<path fill="none" stroke="midnightblue" d="M331.79,-61.97C320.4,-60 308.32,-57.92 297.09,-56 206.02,-40.41 180.12,-40.57 85.78,-19.97"/>
<polygon fill="midnightblue" stroke="midnightblue" points="86.34,-16.5 75.82,-17.77 84.83,-23.34 86.34,-16.5"/>
</g>
<!-- Node16&#45;&gt;Node7 -->
<g id="edge18" class="edge">
<title>Node16&#45;&gt;Node7</title>
<path fill="none" stroke="midnightblue" d="M323.8,-187.03C367.74,-183.15 422.84,-172.1 463.09,-143 502.75,-114.33 525.23,-58.46 534.7,-29.46"/>
<polygon fill="midnightblue" stroke="midnightblue" points="538.09,-30.36 537.7,-19.77 531.4,-28.29 538.09,-30.36"/>
</g>
<!-- Node16&#45;&gt;Node9 -->
<g id="edge20" class="edge">
<title>Node16&#45;&gt;Node9</title>
<path fill="none" stroke="midnightblue" d="M271.69,-179.44C293.09,-170.56 326.77,-156.56 351.12,-146.45"/>
<polygon fill="midnightblue" stroke="midnightblue" points="352.7,-149.58 360.59,-142.52 350.01,-143.12 352.7,-149.58"/>
</g>
<!-- Node16&#45;&gt;Node10 -->
<g id="edge19" class="edge">
<title>Node16&#45;&gt;Node10</title>
<path fill="none" stroke="midnightblue" d="M248.16,-179.32C241.84,-160.59 226.8,-116.05 218.27,-90.79"/>
<polygon fill="midnightblue" stroke="midnightblue" points="221.57,-89.64 215.06,-81.28 214.94,-91.88 221.57,-89.64"/>
</g>
<!-- Node17 -->
<g id="node17" class="node">
<title>Node17</title>
<g id="a_node17"><a xlink:href="tensor_i_8_h.html" target="_top" xlink:title=" ">
<polygon fill="white" stroke="black" points="30.59,-123.5 30.59,-142.5 179.59,-142.5 179.59,-123.5 30.59,-123.5"/>
<text text-anchor="middle" x="105.09" y="-130.5" font-family="Helvetica,sans-Serif" font-size="10.00">amr&#45;wind/core/vs/tensorI.H</text>
</a>
</g>
</g>
<!-- Node16&#45;&gt;Node17 -->
<g id="edge21" class="edge">
<title>Node16&#45;&gt;Node17</title>
<path fill="none" stroke="midnightblue" d="M222.87,-179.44C196.78,-170.52 158.49,-156.44 132.62,-146.32"/>
<polygon fill="midnightblue" stroke="midnightblue" points="133.63,-142.95 123.04,-142.52 131.04,-149.46 133.63,-142.95"/>
</g>
<!-- Node17&#45;&gt;Node15 -->
<g id="edge22" class="edge">
<title>Node17&#45;&gt;Node15</title>
<path fill="none" stroke="midnightblue" d="M60.4,-123.48C39.87,-117.09 17.39,-106.02 5.09,-87 -2.39,-75.43 -0.32,-68.67 5.09,-56 10.24,-43.95 20.37,-33.58 29.92,-25.84"/>
<polygon fill="midnightblue" stroke="midnightblue" points="32.13,-28.55 38.01,-19.74 27.92,-22.96 32.13,-28.55"/>
</g>
<!-- Node17&#45;&gt;Node16 -->
<g id="edge23" class="edge">
<title>Node17&#45;&gt;Node16</title>
<path fill="none" stroke="midnightblue" d="M133.2,-142.52C159.25,-151.43 197.55,-165.5 223.45,-175.64"/>
<polygon fill="midnightblue" stroke="midnightblue" points="222.46,-179.01 233.05,-179.44 225.04,-172.5 222.46,-179.01"/>
</g>
<!-- Node18 -->
<g id="node18" class="node">
<title>Node18</title>
<g id="a_node18"><a xlink:href="trig__ops_8_h.html" target="_top" xlink:title="Trigonometric utilities.">
<polygon fill="white" stroke="black" points="14.59,-56.5 14.59,-86.5 117.59,-86.5 117.59,-56.5 14.59,-56.5"/>
<text text-anchor="start" x="22.59" y="-74.5" font-family="Helvetica,sans-Serif" font-size="10.00">amr&#45;wind/utilities</text>
<text text-anchor="middle" x="66.09" y="-63.5" font-family="Helvetica,sans-Serif" font-size="10.00">/trig_ops.H</text>
</a>
</g>
</g>
<!-- Node17&#45;&gt;Node18 -->
<g id="edge24" class="edge">
<title>Node17&#45;&gt;Node18</title>
<path fill="none" stroke="midnightblue" d="M99.51,-123.48C94.67,-116.09 87.45,-105.08 80.95,-95.17"/>
<polygon fill="midnightblue" stroke="midnightblue" points="83.69,-92.97 75.28,-86.52 77.84,-96.81 83.69,-92.97"/>
</g>
<!-- Node18&#45;&gt;Node7 -->
<g id="edge27" class="edge">
<title>Node18&#45;&gt;Node7</title>
<path fill="none" stroke="midnightblue" d="M117.92,-57.72C121.01,-57.1 124.09,-56.52 127.09,-56 254.97,-33.92 407.1,-20.65 486.23,-14.71"/>
<polygon fill="midnightblue" stroke="midnightblue" points="486.72,-18.18 496.44,-13.96 486.21,-11.2 486.72,-18.18"/>
</g>
<!-- Node18&#45;&gt;Node12 -->
<g id="edge26" class="edge">
<title>Node18&#45;&gt;Node12</title>
<path fill="none" stroke="midnightblue" d="M83.63,-56.4C94.94,-47.31 109.64,-35.49 121.2,-26.19"/>
<polygon fill="midnightblue" stroke="midnightblue" points="123.73,-28.65 129.33,-19.66 119.34,-23.2 123.73,-28.65"/>
</g>
<!-- Node18&#45;&gt;Node15 -->
<g id="edge25" class="edge">
<title>Node18&#45;&gt;Node15</title>
<path fill="none" stroke="midnightblue" d="M62.78,-56.4C60.89,-48.38 58.5,-38.23 56.46,-29.57"/>
<polygon fill="midnightblue" stroke="midnightblue" points="59.83,-28.59 54.13,-19.66 53.01,-30.19 59.83,-28.59"/>
</g>
<!-- Node24&#45;&gt;Node2 -->
<g id="edge35" class="edge">
<title>Node24&#45;&gt;Node2</title>
<path fill="none" stroke="midnightblue" d="M434.83,-332.58C463.98,-342.37 501.45,-355.48 530.23,-365.96"/>
<polygon fill="midnightblue" stroke="midnightblue" points="529.04,-369.25 539.63,-369.4 531.44,-362.67 529.04,-369.25"/>
</g>
<!-- Node25 -->
<g id="node25" class="node">
<title>Node25</title>
<g id="a_node25"><a xlink:title=" ">
<polygon fill="white" stroke="#bfbfbf" points="276.09,-241 276.09,-260 320.09,-260 320.09,-241 276.09,-241"/>
<text text-anchor="middle" x="298.09" y="-248" font-family="Helvetica,sans-Serif" font-size="10.00">string</text>
</a>
</g>
</g>
<!-- Node24&#45;&gt;Node25 -->
<g id="edge36" class="edge">
<title>Node24&#45;&gt;Node25</title>
<path fill="none" stroke="midnightblue" d="M369.35,-302.4C354.23,-291.6 333.45,-276.76 318.24,-265.89"/>
<polygon fill="midnightblue" stroke="midnightblue" points="320.17,-262.97 310,-260.01 316.11,-268.67 320.17,-262.97"/>
</g>
<!-- Node26&#45;&gt;Node7 -->
<g id="edge38" class="edge">
<title>Node26&#45;&gt;Node7</title>
<path fill="none" stroke="midnightblue" d="M892.65,-369.31C906.57,-360.46 923.14,-347.91 934.09,-333 956.85,-302.01 963.09,-289.95 963.09,-251.5 963.09,-251.5 963.09,-251.5 963.09,-132 963.09,-56.08 708.02,-25.1 594.02,-15.05"/>
<polygon fill="midnightblue" stroke="midnightblue" points="594.03,-11.54 583.77,-14.17 593.43,-18.51 594.03,-11.54"/>
</g>
<!-- Node27 -->
<g id="node27" class="node">
<title>Node27</title>
<g id="a_node27"><a xlink:title=" ">
<polygon fill="white" stroke="#bfbfbf" points="809.09,-308 809.09,-327 925.09,-327 925.09,-308 809.09,-308"/>
<text text-anchor="middle" x="867.09" y="-315" font-family="Helvetica,sans-Serif" font-size="10.00">AMReX_Extension.H</text>
</a>
</g>
</g>
<!-- Node26&#45;&gt;Node27 -->
<g id="edge39" class="edge">
<title>Node26&#45;&gt;Node27</title>
<path fill="none" stroke="midnightblue" d="M867.09,-369.4C867.09,-360.06 867.09,-347.71 867.09,-337.52"/>
<polygon fill="midnightblue" stroke="midnightblue" points="870.59,-337.19 867.09,-327.19 863.59,-337.19 870.59,-337.19"/>
</g>
</g>
</svg>
