<?xml version="1.0" encoding="UTF-8" standalone="no"?>
<!DOCTYPE svg PUBLIC "-//W3C//DTD SVG 1.1//EN"
 "http://www.w3.org/Graphics/SVG/1.1/DTD/svg11.dtd">
<!-- Generated by graphviz version 2.43.0 (0)
 -->
<!-- Title: AirfoilTable.cpp Pages: 1 -->
<!--zoomable 475 -->
<svg id="main" version="1.1" xmlns="http://www.w3.org/2000/svg" xmlns:xlink="http://www.w3.org/1999/xlink" xml:space="preserve" onload="init(evt)">
<style type="text/css"><![CDATA[
.edge:hover path { stroke: red; }
.edge:hover polygon { stroke: red; fill: red; }
]]></style>
<script type="text/javascript"><![CDATA[
var edges = document.getElementsByTagName('g');
if (edges && edges.length) {
  for (var i=0;i<edges.length;i++) {
    if (edges[i].id.substr(0,4)=='edge') {
      edges[i].setAttribute('class','edge');
    }
  }
}
]]></script>
        <defs>
                <circle id="rim" cx="0" cy="0" r="7"/>
                <circle id="rim2" cx="0" cy="0" r="3.5"/>
                <g id="zoomPlus">
                        <use xlink:href="#rim" fill="#404040">
                                <set attributeName="fill" to="#808080" begin="zoomplus.mouseover" end="zoomplus.mouseout"/>
                        </use>
                        <path d="M-4,0h8M0,-4v8" fill="none" stroke="white" stroke-width="1.5" pointer-events="none"/>
                </g>
                <g id="zoomMin">
                        <use xlink:href="#rim" fill="#404040">
                                <set attributeName="fill" to="#808080" begin="zoomminus.mouseover" end="zoomminus.mouseout"/>
                        </use>
                        <path d="M-4,0h8" fill="none" stroke="white" stroke-width="1.5" pointer-events="none"/>
                </g>
                <g id="dirArrow">
                        <path fill="none" stroke="white" stroke-width="1.5" d="M0,-3.0v7 M-2.5,-0.5L0,-3.0L2.5,-0.5"/>
                </g>
               <g id="resetDef">
                       <use xlink:href="#rim2" fill="#404040">
                               <set attributeName="fill" to="#808080" begin="reset.mouseover" end="reset.mouseout"/>
                       </use>
               </g>
        </defs>

<script type="text/javascript">
var viewWidth = 973;
var viewHeight = 475;
var sectionId = 'dynsection-0';
</script>
<script xlink:href="svgpan.js"/>
<svg id="graph" class="graph">
<g id="viewport">
<title>AirfoilTable.cpp</title>
<polygon fill="white" stroke="transparent" points="-4,4 -4,-471 969.46,-471 969.46,4 -4,4"/>
<!-- Node1 -->
<g id="node1" class="node">
<title>Node1</title>
<g id="a_node1"><a xlink:title=" ">
<polygon fill="#bfbfbf" stroke="black" points="317.5,-447.5 317.5,-466.5 409.5,-466.5 409.5,-447.5 317.5,-447.5"/>
<text text-anchor="middle" x="363.5" y="-454.5" font-family="Helvetica,sans-Serif" font-size="10.00">AirfoilTable.cpp</text>
</a>
</g>
</g>
<!-- Node2 -->
<g id="node2" class="node">
<title>Node2</title>
<g id="a_node2"><a xlink:href="_airfoil_table_8_h.html" target="_top" xlink:title=" ">
<polygon fill="white" stroke="black" points="226,-380.5 226,-410.5 379,-410.5 379,-380.5 226,-380.5"/>
<text text-anchor="start" x="234" y="-398.5" font-family="Helvetica,sans-Serif" font-size="10.00">amr&#45;wind/wind_energy</text>
<text text-anchor="middle" x="302.5" y="-387.5" font-family="Helvetica,sans-Serif" font-size="10.00">/actuator/aero/AirfoilTable.H</text>
</a>
</g>
</g>
<!-- Node1&#45;&gt;Node2 -->
<g id="edge1" class="edge">
<title>Node1&#45;&gt;Node2</title>
<path fill="none" stroke="midnightblue" d="M354.76,-447.48C346.81,-439.72 334.74,-427.94 324.2,-417.66"/>
<polygon fill="midnightblue" stroke="midnightblue" points="326.48,-415 316.88,-410.52 321.59,-420.01 326.48,-415"/>
</g>
<!-- Node26 -->
<g id="node26" class="node">
<title>Node26</title>
<g id="a_node26"><a xlink:href="linear__interpolation_8_h.html" target="_top" xlink:title=" ">
<polygon fill="white" stroke="black" points="0,-123.5 0,-153.5 125,-153.5 125,-123.5 0,-123.5"/>
<text text-anchor="start" x="8" y="-141.5" font-family="Helvetica,sans-Serif" font-size="10.00">amr&#45;wind/utilities</text>
<text text-anchor="middle" x="62.5" y="-130.5" font-family="Helvetica,sans-Serif" font-size="10.00">/linear_interpolation.H</text>
</a>
</g>
</g>
<!-- Node1&#45;&gt;Node26 -->
<g id="edge37" class="edge">
<title>Node1&#45;&gt;Node26</title>
<path fill="none" stroke="midnightblue" d="M317.34,-448.11C227.2,-431.4 36.5,-389 36.5,-329.5 36.5,-329.5 36.5,-329.5 36.5,-260.5 36.5,-226.25 46.58,-187.74 54.19,-163.55"/>
<polygon fill="midnightblue" stroke="midnightblue" points="57.59,-164.41 57.36,-153.81 50.94,-162.24 57.59,-164.41"/>
</g>
<!-- Node27 -->
<g id="node27" class="node">
<title>Node27</title>
<g id="a_node27"><a xlink:title=" ">
<polygon fill="white" stroke="#bfbfbf" points="397,-386 397,-405 452,-405 452,-386 397,-386"/>
<text text-anchor="middle" x="424.5" y="-393" font-family="Helvetica,sans-Serif" font-size="10.00">fstream</text>
</a>
</g>
</g>
<!-- Node1&#45;&gt;Node27 -->
<g id="edge39" class="edge">
<title>Node1&#45;&gt;Node27</title>
<path fill="none" stroke="midnightblue" d="M372.24,-447.48C381.66,-438.28 396.86,-423.46 408.45,-412.16"/>
<polygon fill="midnightblue" stroke="midnightblue" points="411.06,-414.5 415.78,-405.01 406.17,-409.49 411.06,-414.5"/>
</g>
<!-- Node28 -->
<g id="node28" class="node">
<title>Node28</title>
<g id="a_node28"><a xlink:title=" ">
<polygon fill="white" stroke="#bfbfbf" points="470.5,-386 470.5,-405 534.5,-405 534.5,-386 470.5,-386"/>
<text text-anchor="middle" x="502.5" y="-393" font-family="Helvetica,sans-Serif" font-size="10.00">algorithm</text>
</a>
</g>
</g>
<!-- Node1&#45;&gt;Node28 -->
<g id="edge40" class="edge">
<title>Node1&#45;&gt;Node28</title>
<path fill="none" stroke="midnightblue" d="M383.42,-447.48C406.95,-437.4 446.31,-420.55 473.29,-409"/>
<polygon fill="midnightblue" stroke="midnightblue" points="474.81,-412.16 482.62,-405.01 472.05,-405.73 474.81,-412.16"/>
</g>
<!-- Node3 -->
<g id="node3" class="node">
<title>Node3</title>
<g id="a_node3"><a xlink:href="actuator__types_8_h.html" target="_top" xlink:title=" ">
<polygon fill="white" stroke="black" points="172.5,-313.5 172.5,-343.5 318.5,-343.5 318.5,-313.5 172.5,-313.5"/>
<text text-anchor="start" x="180.5" y="-331.5" font-family="Helvetica,sans-Serif" font-size="10.00">amr&#45;wind/wind_energy</text>
<text text-anchor="middle" x="245.5" y="-320.5" font-family="Helvetica,sans-Serif" font-size="10.00">/actuator/actuator_types.H</text>
</a>
</g>
</g>
<!-- Node2&#45;&gt;Node3 -->
<g id="edge2" class="edge">
<title>Node2&#45;&gt;Node3</title>
<path fill="none" stroke="midnightblue" d="M290.13,-380.4C282.66,-371.88 272.99,-360.85 264.56,-351.23"/>
<polygon fill="midnightblue" stroke="midnightblue" points="267.07,-348.79 257.84,-343.58 261.81,-353.4 267.07,-348.79"/>
</g>
<!-- Node22 -->
<g id="node22" class="node">
<title>Node22</title>
<g id="a_node22"><a xlink:title=" ">
<polygon fill="white" stroke="#bfbfbf" points="336.5,-319 336.5,-338 384.5,-338 384.5,-319 336.5,-319"/>
<text text-anchor="middle" x="360.5" y="-326" font-family="Helvetica,sans-Serif" font-size="10.00">iosfwd</text>
</a>
</g>
</g>
<!-- Node2&#45;&gt;Node22 -->
<g id="edge32" class="edge">
<title>Node2&#45;&gt;Node22</title>
<path fill="none" stroke="midnightblue" d="M315.09,-380.4C324.13,-370.26 336.35,-356.57 345.83,-345.94"/>
<polygon fill="midnightblue" stroke="midnightblue" points="348.7,-347.99 352.74,-338.19 343.47,-343.33 348.7,-347.99"/>
</g>
<!-- Node23 -->
<g id="node23" class="node">
<title>Node23</title>
<g id="a_node23"><a xlink:title=" ">
<polygon fill="white" stroke="#bfbfbf" points="96.5,-319 96.5,-338 154.5,-338 154.5,-319 96.5,-319"/>
<text text-anchor="middle" x="125.5" y="-326" font-family="Helvetica,sans-Serif" font-size="10.00">memory</text>
</a>
</g>
</g>
<!-- Node2&#45;&gt;Node23 -->
<g id="edge33" class="edge">
<title>Node2&#45;&gt;Node23</title>
<path fill="none" stroke="midnightblue" d="M263.19,-380.41C235.32,-370.37 197.06,-356.5 163.5,-344 161.61,-343.3 159.68,-342.57 157.72,-341.84"/>
<polygon fill="midnightblue" stroke="midnightblue" points="158.57,-338.42 147.98,-338.15 156.09,-344.96 158.57,-338.42"/>
</g>
<!-- Node24 -->
<g id="node24" class="node">
<title>Node24</title>
<g id="a_node24"><a xlink:href="_airfoil_table_i_8_h.html" target="_top" xlink:title=" ">
<polygon fill="white" stroke="black" points="402.5,-313.5 402.5,-343.5 558.5,-343.5 558.5,-313.5 402.5,-313.5"/>
<text text-anchor="start" x="410.5" y="-331.5" font-family="Helvetica,sans-Serif" font-size="10.00">amr&#45;wind/wind_energy</text>
<text text-anchor="middle" x="480.5" y="-320.5" font-family="Helvetica,sans-Serif" font-size="10.00">/actuator/aero/AirfoilTableI.H</text>
</a>
</g>
</g>
<!-- Node2&#45;&gt;Node24 -->
<g id="edge34" class="edge">
<title>Node2&#45;&gt;Node24</title>
<path fill="none" stroke="midnightblue" d="M335.44,-380.4C360.98,-370.6 396.78,-357.48 426.47,-347.02"/>
<polygon fill="midnightblue" stroke="midnightblue" points="428,-350.19 436.28,-343.58 425.68,-343.58 428,-350.19"/>
</g>
<!-- Node4 -->
<g id="node4" class="node">
<title>Node4</title>
<g id="a_node4"><a xlink:href="_slice_8_h.html" target="_top" xlink:title=" ">
<polygon fill="white" stroke="black" points="216.5,-252 216.5,-271 340.5,-271 340.5,-252 216.5,-252"/>
<text text-anchor="middle" x="278.5" y="-259" font-family="Helvetica,sans-Serif" font-size="10.00">amr&#45;wind/core/Slice.H</text>
</a>
</g>
</g>
<!-- Node3&#45;&gt;Node4 -->
<g id="edge3" class="edge">
<title>Node3&#45;&gt;Node4</title>
<path fill="none" stroke="midnightblue" d="M252.66,-313.4C257.6,-303.66 264.21,-290.65 269.51,-280.21"/>
<polygon fill="midnightblue" stroke="midnightblue" points="272.68,-281.7 274.09,-271.19 266.44,-278.53 272.68,-281.7"/>
</g>
<!-- Node7 -->
<g id="node7" class="node">
<title>Node7</title>
<g id="a_node7"><a xlink:title=" ">
<polygon fill="white" stroke="#bfbfbf" points="382,-0.5 382,-19.5 469,-19.5 469,-0.5 382,-0.5"/>
<text text-anchor="middle" x="425.5" y="-7.5" font-family="Helvetica,sans-Serif" font-size="10.00">AMReX_Gpu.H</text>
</a>
</g>
</g>
<!-- Node3&#45;&gt;Node7 -->
<g id="edge28" class="edge">
<title>Node3&#45;&gt;Node7</title>
<path fill="none" stroke="midnightblue" d="M231.36,-313.4C222.85,-303.95 212.68,-290.76 207.5,-277 193.86,-240.75 185.75,-224.92 202.5,-190 243.14,-105.26 345.61,-47.97 396.25,-23.87"/>
<polygon fill="midnightblue" stroke="midnightblue" points="397.78,-27.02 405.36,-19.62 394.82,-20.67 397.78,-27.02"/>
</g>
<!-- Node8 -->
<g id="node8" class="node">
<title>Node8</title>
<g id="a_node8"><a xlink:href="vector__space_8_h.html" target="_top" xlink:title=" ">
<polygon fill="white" stroke="black" points="505,-246.5 505,-276.5 640,-276.5 640,-246.5 505,-246.5"/>
<text text-anchor="start" x="513" y="-264.5" font-family="Helvetica,sans-Serif" font-size="10.00">amr&#45;wind/core/vs/vector</text>
<text text-anchor="middle" x="572.5" y="-253.5" font-family="Helvetica,sans-Serif" font-size="10.00">_space.H</text>
</a>
</g>
</g>
<!-- Node3&#45;&gt;Node8 -->
<g id="edge7" class="edge">
<title>Node3&#45;&gt;Node8</title>
<path fill="none" stroke="midnightblue" d="M316.05,-313.48C368.72,-303.01 440.67,-288.71 494.95,-277.92"/>
<polygon fill="midnightblue" stroke="midnightblue" points="495.75,-281.33 504.87,-275.94 494.38,-274.46 495.75,-281.33"/>
</g>
<!-- Node19 -->
<g id="node19" class="node">
<title>Node19</title>
<g id="a_node19"><a xlink:title=" ">
<polygon fill="white" stroke="#bfbfbf" points="358.5,-252 358.5,-271 466.5,-271 466.5,-252 358.5,-252"/>
<text text-anchor="middle" x="412.5" y="-259" font-family="Helvetica,sans-Serif" font-size="10.00">AMReX_RealBox.H</text>
</a>
</g>
</g>
<!-- Node3&#45;&gt;Node19 -->
<g id="edge29" class="edge">
<title>Node3&#45;&gt;Node19</title>
<path fill="none" stroke="midnightblue" d="M281.74,-313.4C311.43,-301.84 353.01,-285.66 381.25,-274.66"/>
<polygon fill="midnightblue" stroke="midnightblue" points="382.59,-277.9 390.64,-271.01 380.06,-271.37 382.59,-277.9"/>
</g>
<!-- Node20 -->
<g id="node20" class="node">
<title>Node20</title>
<g id="a_node20"><a xlink:title=" ">
<polygon fill="white" stroke="#bfbfbf" points="64.5,-252 64.5,-271 96.5,-271 96.5,-252 64.5,-252"/>
<text text-anchor="middle" x="80.5" y="-259" font-family="Helvetica,sans-Serif" font-size="10.00">set</text>
</a>
</g>
</g>
<!-- Node3&#45;&gt;Node20 -->
<g id="edge30" class="edge">
<title>Node3&#45;&gt;Node20</title>
<path fill="none" stroke="midnightblue" d="M201.27,-313.45C173.59,-304.17 137.44,-291.14 106.5,-277 105.66,-276.61 104.8,-276.21 103.95,-275.8"/>
<polygon fill="midnightblue" stroke="midnightblue" points="105.35,-272.58 94.86,-271.05 102.1,-278.78 105.35,-272.58"/>
</g>
<!-- Node21 -->
<g id="node21" class="node">
<title>Node21</title>
<g id="a_node21"><a xlink:title=" ">
<polygon fill="white" stroke="#bfbfbf" points="115,-252 115,-271 160,-271 160,-252 115,-252"/>
<text text-anchor="middle" x="137.5" y="-259" font-family="Helvetica,sans-Serif" font-size="10.00">utility</text>
</a>
</g>
</g>
<!-- Node3&#45;&gt;Node21 -->
<g id="edge31" class="edge">
<title>Node3&#45;&gt;Node21</title>
<path fill="none" stroke="midnightblue" d="M222.07,-313.4C203.79,-302.39 178.54,-287.2 160.4,-276.28"/>
<polygon fill="midnightblue" stroke="midnightblue" points="162.01,-273.16 151.63,-271.01 158.4,-279.16 162.01,-273.16"/>
</g>
<!-- Node5 -->
<g id="node5" class="node">
<title>Node5</title>
<g id="a_node5"><a xlink:title=" ">
<polygon fill="white" stroke="#bfbfbf" points="328,-190.5 328,-209.5 381,-209.5 381,-190.5 328,-190.5"/>
<text text-anchor="middle" x="354.5" y="-197.5" font-family="Helvetica,sans-Serif" font-size="10.00">iterator</text>
</a>
</g>
</g>
<!-- Node4&#45;&gt;Node5 -->
<g id="edge4" class="edge">
<title>Node4&#45;&gt;Node5</title>
<path fill="none" stroke="midnightblue" d="M289.39,-251.98C301.47,-242.52 321.17,-227.1 335.74,-215.69"/>
<polygon fill="midnightblue" stroke="midnightblue" points="337.91,-218.43 343.63,-209.51 333.6,-212.92 337.91,-218.43"/>
</g>
<!-- Node6 -->
<g id="node6" class="node">
<title>Node6</title>
<g id="a_node6"><a xlink:title=" ">
<polygon fill="white" stroke="#bfbfbf" points="211.5,-190.5 211.5,-209.5 309.5,-209.5 309.5,-190.5 211.5,-190.5"/>
<text text-anchor="middle" x="260.5" y="-197.5" font-family="Helvetica,sans-Serif" font-size="10.00">AMReX_Vector.H</text>
</a>
</g>
</g>
<!-- Node4&#45;&gt;Node6 -->
<g id="edge5" class="edge">
<title>Node4&#45;&gt;Node6</title>
<path fill="none" stroke="midnightblue" d="M275.92,-251.98C273.35,-243.49 269.33,-230.2 266.04,-219.32"/>
<polygon fill="midnightblue" stroke="midnightblue" points="269.32,-218.07 263.07,-209.51 262.62,-220.09 269.32,-218.07"/>
</g>
<!-- Node4&#45;&gt;Node7 -->
<g id="edge6" class="edge">
<title>Node4&#45;&gt;Node7</title>
<path fill="none" stroke="midnightblue" d="M319.99,-252C344.21,-244.87 373.29,-232.15 390.5,-210 432.64,-155.78 430.8,-68.13 427.6,-29.87"/>
<polygon fill="midnightblue" stroke="midnightblue" points="431.06,-29.29 426.61,-19.68 424.09,-29.97 431.06,-29.29"/>
</g>
<!-- Node9 -->
<g id="node9" class="node">
<title>Node9</title>
<g id="a_node9"><a xlink:href="vector_8_h.html" target="_top" xlink:title=" ">
<polygon fill="white" stroke="black" points="512,-129 512,-148 657,-148 657,-129 512,-129"/>
<text text-anchor="middle" x="584.5" y="-136" font-family="Helvetica,sans-Serif" font-size="10.00">amr&#45;wind/core/vs/vector.H</text>
</a>
</g>
</g>
<!-- Node8&#45;&gt;Node9 -->
<g id="edge8" class="edge">
<title>Node8&#45;&gt;Node9</title>
<path fill="none" stroke="midnightblue" d="M573.92,-246.14C576.1,-224.2 580.25,-182.33 582.66,-158.09"/>
<polygon fill="midnightblue" stroke="midnightblue" points="586.15,-158.35 583.65,-148.05 579.18,-157.66 586.15,-158.35"/>
</g>
<!-- Node16 -->
<g id="node16" class="node">
<title>Node16</title>
<g id="a_node16"><a xlink:href="tensor_8_h.html" target="_top" xlink:title=" ">
<polygon fill="white" stroke="black" points="628,-190.5 628,-209.5 773,-209.5 773,-190.5 628,-190.5"/>
<text text-anchor="middle" x="700.5" y="-197.5" font-family="Helvetica,sans-Serif" font-size="10.00">amr&#45;wind/core/vs/tensor.H</text>
</a>
</g>
</g>
<!-- Node8&#45;&gt;Node16 -->
<g id="edge17" class="edge">
<title>Node8&#45;&gt;Node16</title>
<path fill="none" stroke="midnightblue" d="M602.83,-246.4C624.02,-236.55 652.09,-223.5 672.7,-213.92"/>
<polygon fill="midnightblue" stroke="midnightblue" points="674.28,-217.05 681.87,-209.66 671.33,-210.7 674.28,-217.05"/>
</g>
<!-- Node9&#45;&gt;Node7 -->
<g id="edge9" class="edge">
<title>Node9&#45;&gt;Node7</title>
<path fill="none" stroke="midnightblue" d="M567.84,-128.9C550.52,-119.62 522.99,-103.88 501.5,-87 478.01,-68.54 454.18,-43.45 439.62,-27.24"/>
<polygon fill="midnightblue" stroke="midnightblue" points="442.15,-24.82 432.9,-19.65 436.91,-29.46 442.15,-24.82"/>
</g>
<!-- Node10 -->
<g id="node10" class="node">
<title>Node10</title>
<g id="a_node10"><a xlink:href="vstraits_8_h.html" target="_top" xlink:title=" ">
<polygon fill="white" stroke="black" points="677.5,-62 677.5,-81 829.5,-81 829.5,-62 677.5,-62"/>
<text text-anchor="middle" x="753.5" y="-69" font-family="Helvetica,sans-Serif" font-size="10.00">amr&#45;wind/core/vs/vstraits.H</text>
</a>
</g>
</g>
<!-- Node9&#45;&gt;Node10 -->
<g id="edge10" class="edge">
<title>Node9&#45;&gt;Node10</title>
<path fill="none" stroke="midnightblue" d="M606.94,-128.87C636.32,-117.57 687.99,-97.7 721.47,-84.82"/>
<polygon fill="midnightblue" stroke="midnightblue" points="723.16,-87.92 731.23,-81.06 720.64,-81.39 723.16,-87.92"/>
</g>
<!-- Node13 -->
<g id="node13" class="node">
<title>Node13</title>
<g id="a_node13"><a xlink:href="vector_i_8_h.html" target="_top" xlink:title=" ">
<polygon fill="white" stroke="black" points="510,-62 510,-81 659,-81 659,-62 510,-62"/>
<text text-anchor="middle" x="584.5" y="-69" font-family="Helvetica,sans-Serif" font-size="10.00">amr&#45;wind/core/vs/vectorI.H</text>
</a>
</g>
</g>
<!-- Node9&#45;&gt;Node13 -->
<g id="edge13" class="edge">
<title>Node9&#45;&gt;Node13</title>
<path fill="none" stroke="midnightblue" d="M579.71,-128.73C577.7,-119.18 577.24,-103.62 578.32,-91.28"/>
<polygon fill="midnightblue" stroke="midnightblue" points="581.82,-91.52 579.74,-81.13 574.88,-90.54 581.82,-91.52"/>
</g>
<!-- Node11 -->
<g id="node11" class="node">
<title>Node11</title>
<g id="a_node11"><a xlink:title=" ">
<polygon fill="white" stroke="#bfbfbf" points="717.5,-0.5 717.5,-19.5 761.5,-19.5 761.5,-0.5 717.5,-0.5"/>
<text text-anchor="middle" x="739.5" y="-7.5" font-family="Helvetica,sans-Serif" font-size="10.00">limits</text>
</a>
</g>
</g>
<!-- Node10&#45;&gt;Node11 -->
<g id="edge11" class="edge">
<title>Node10&#45;&gt;Node11</title>
<path fill="none" stroke="midnightblue" d="M751.49,-61.98C749.5,-53.49 746.37,-40.2 743.81,-29.32"/>
<polygon fill="midnightblue" stroke="midnightblue" points="747.2,-28.44 741.5,-19.51 740.39,-30.04 747.2,-28.44"/>
</g>
<!-- Node12 -->
<g id="node12" class="node">
<title>Node12</title>
<g id="a_node12"><a xlink:title=" ">
<polygon fill="white" stroke="#bfbfbf" points="779.5,-0.5 779.5,-19.5 871.5,-19.5 871.5,-0.5 779.5,-0.5"/>
<text text-anchor="middle" x="825.5" y="-7.5" font-family="Helvetica,sans-Serif" font-size="10.00">AMReX_REAL.H</text>
</a>
</g>
</g>
<!-- Node10&#45;&gt;Node12 -->
<g id="edge12" class="edge">
<title>Node10&#45;&gt;Node12</title>
<path fill="none" stroke="midnightblue" d="M763.82,-61.98C775.15,-52.61 793.57,-37.38 807.34,-26.01"/>
<polygon fill="midnightblue" stroke="midnightblue" points="809.72,-28.58 815.2,-19.51 805.27,-23.18 809.72,-28.58"/>
</g>
<!-- Node13&#45;&gt;Node9 -->
<g id="edge16" class="edge">
<title>Node13&#45;&gt;Node9</title>
<path fill="none" stroke="midnightblue" d="M589.26,-81.13C591.28,-90.62 591.76,-106.17 590.7,-118.54"/>
<polygon fill="midnightblue" stroke="midnightblue" points="587.19,-118.35 589.29,-128.73 594.13,-119.31 587.19,-118.35"/>
</g>
<!-- Node14 -->
<g id="node14" class="node">
<title>Node14</title>
<g id="a_node14"><a xlink:title=" ">
<polygon fill="white" stroke="#bfbfbf" points="556,-0.5 556,-19.5 613,-19.5 613,-0.5 556,-0.5"/>
<text text-anchor="middle" x="584.5" y="-7.5" font-family="Helvetica,sans-Serif" font-size="10.00">ostream</text>
</a>
</g>
</g>
<!-- Node13&#45;&gt;Node14 -->
<g id="edge14" class="edge">
<title>Node13&#45;&gt;Node14</title>
<path fill="none" stroke="midnightblue" d="M584.5,-61.98C584.5,-53.58 584.5,-40.48 584.5,-29.66"/>
<polygon fill="midnightblue" stroke="midnightblue" points="588,-29.51 584.5,-19.51 581,-29.51 588,-29.51"/>
</g>
<!-- Node15 -->
<g id="node15" class="node">
<title>Node15</title>
<g id="a_node15"><a xlink:title=" ">
<polygon fill="white" stroke="#bfbfbf" points="890,-0.5 890,-19.5 937,-19.5 937,-0.5 890,-0.5"/>
<text text-anchor="middle" x="913.5" y="-7.5" font-family="Helvetica,sans-Serif" font-size="10.00">cmath</text>
</a>
</g>
</g>
<!-- Node13&#45;&gt;Node15 -->
<g id="edge15" class="edge">
<title>Node13&#45;&gt;Node15</title>
<path fill="none" stroke="midnightblue" d="M633.8,-61.97C645.19,-60 657.27,-57.92 668.5,-56 759.57,-40.41 785.47,-40.57 879.81,-19.97"/>
<polygon fill="midnightblue" stroke="midnightblue" points="880.76,-23.34 889.78,-17.77 879.26,-16.5 880.76,-23.34"/>
</g>
<!-- Node16&#45;&gt;Node7 -->
<g id="edge18" class="edge">
<title>Node16&#45;&gt;Node7</title>
<path fill="none" stroke="midnightblue" d="M627.71,-196.29C587.77,-191.59 539.25,-180.29 503.5,-154 460.89,-122.66 438.91,-60.79 430.16,-29.72"/>
<polygon fill="midnightblue" stroke="midnightblue" points="433.47,-28.55 427.52,-19.78 426.7,-30.35 433.47,-28.55"/>
</g>
<!-- Node16&#45;&gt;Node9 -->
<g id="edge20" class="edge">
<title>Node16&#45;&gt;Node9</title>
<path fill="none" stroke="midnightblue" d="M683.88,-190.48C664.58,-180.58 632.54,-164.14 610.07,-152.62"/>
<polygon fill="midnightblue" stroke="midnightblue" points="611.58,-149.46 601.09,-148.01 608.39,-155.69 611.58,-149.46"/>
</g>
<!-- Node16&#45;&gt;Node10 -->
<g id="edge19" class="edge">
<title>Node16&#45;&gt;Node10</title>
<path fill="none" stroke="midnightblue" d="M704.14,-190.31C712.73,-169.81 734.38,-118.15 745.94,-90.54"/>
<polygon fill="midnightblue" stroke="midnightblue" points="749.2,-91.83 749.83,-81.26 742.74,-89.13 749.2,-91.83"/>
</g>
<!-- Node17 -->
<g id="node17" class="node">
<title>Node17</title>
<g id="a_node17"><a xlink:href="tensor_i_8_h.html" target="_top" xlink:title=" ">
<polygon fill="white" stroke="black" points="786,-129 786,-148 935,-148 935,-129 786,-129"/>
<text text-anchor="middle" x="860.5" y="-136" font-family="Helvetica,sans-Serif" font-size="10.00">amr&#45;wind/core/vs/tensorI.H</text>
</a>
</g>
</g>
<!-- Node16&#45;&gt;Node17 -->
<g id="edge21" class="edge">
<title>Node16&#45;&gt;Node17</title>
<path fill="none" stroke="midnightblue" d="M718.52,-190.48C743.85,-180.22 790.07,-162.96 822.98,-151.4"/>
<polygon fill="midnightblue" stroke="midnightblue" points="824.43,-154.6 832.72,-148.01 822.13,-147.99 824.43,-154.6"/>
</g>
<!-- Node17&#45;&gt;Node15 -->
<g id="edge22" class="edge">
<title>Node17&#45;&gt;Node15</title>
<path fill="none" stroke="midnightblue" d="M898.18,-128.99C920.48,-121.8 946.94,-109.03 960.5,-87 967.72,-75.27 965.91,-68.67 960.5,-56 955.35,-43.95 945.22,-33.58 935.67,-25.84"/>
<polygon fill="midnightblue" stroke="midnightblue" points="937.67,-22.96 927.58,-19.74 933.46,-28.55 937.67,-22.96"/>
</g>
<!-- Node17&#45;&gt;Node16 -->
<g id="edge23" class="edge">
<title>Node17&#45;&gt;Node16</title>
<path fill="none" stroke="midnightblue" d="M842.52,-148.01C817.21,-158.25 770.99,-175.52 738.08,-187.08"/>
<polygon fill="midnightblue" stroke="midnightblue" points="736.62,-183.88 728.32,-190.48 738.92,-190.49 736.62,-183.88"/>
</g>
<!-- Node18 -->
<g id="node18" class="node">
<title>Node18</title>
<g id="a_node18"><a xlink:href="trig__ops_8_h.html" target="_top" xlink:title="Trigonometric utilities.">
<polygon fill="white" stroke="black" points="848,-56.5 848,-86.5 951,-86.5 951,-56.5 848,-56.5"/>
<text text-anchor="start" x="856" y="-74.5" font-family="Helvetica,sans-Serif" font-size="10.00">amr&#45;wind/utilities</text>
<text text-anchor="middle" x="899.5" y="-63.5" font-family="Helvetica,sans-Serif" font-size="10.00">/trig_ops.H</text>
</a>
</g>
</g>
<!-- Node17&#45;&gt;Node18 -->
<g id="edge24" class="edge">
<title>Node17&#45;&gt;Node18</title>
<path fill="none" stroke="midnightblue" d="M865.76,-128.73C870.88,-120.2 878.88,-106.87 885.8,-95.33"/>
<polygon fill="midnightblue" stroke="midnightblue" points="888.9,-96.96 891.05,-86.59 882.9,-93.36 888.9,-96.96"/>
</g>
<!-- Node18&#45;&gt;Node7 -->
<g id="edge27" class="edge">
<title>Node18&#45;&gt;Node7</title>
<path fill="none" stroke="midnightblue" d="M847.68,-57.72C844.58,-57.1 841.5,-56.52 838.5,-56 710.62,-33.92 558.49,-20.65 479.36,-14.71"/>
<polygon fill="midnightblue" stroke="midnightblue" points="479.39,-11.2 469.16,-13.96 478.87,-18.18 479.39,-11.2"/>
</g>
<!-- Node18&#45;&gt;Node12 -->
<g id="edge26" class="edge">
<title>Node18&#45;&gt;Node12</title>
<path fill="none" stroke="midnightblue" d="M881.96,-56.4C870.66,-47.31 855.96,-35.49 844.39,-26.19"/>
<polygon fill="midnightblue" stroke="midnightblue" points="846.25,-23.2 836.27,-19.66 841.87,-28.65 846.25,-23.2"/>
</g>
<!-- Node18&#45;&gt;Node15 -->
<g id="edge25" class="edge">
<title>Node18&#45;&gt;Node15</title>
<path fill="none" stroke="midnightblue" d="M902.82,-56.4C904.71,-48.38 907.09,-38.23 909.13,-29.57"/>
<polygon fill="midnightblue" stroke="midnightblue" points="912.58,-30.19 911.46,-19.66 905.77,-28.59 912.58,-30.19"/>
</g>
<!-- Node24&#45;&gt;Node2 -->
<g id="edge35" class="edge">
<title>Node24&#45;&gt;Node2</title>
<path fill="none" stroke="midnightblue" d="M447.63,-343.58C422.11,-353.37 386.31,-366.48 356.62,-376.96"/>
<polygon fill="midnightblue" stroke="midnightblue" points="355.08,-373.78 346.8,-380.4 357.4,-380.39 355.08,-373.78"/>
</g>
<!-- Node25 -->
<g id="node25" class="node">
<title>Node25</title>
<g id="a_node25"><a xlink:title=" ">
<polygon fill="white" stroke="#bfbfbf" points="658.5,-252 658.5,-271 702.5,-271 702.5,-252 658.5,-252"/>
<text text-anchor="middle" x="680.5" y="-259" font-family="Helvetica,sans-Serif" font-size="10.00">string</text>
</a>
</g>
</g>
<!-- Node24&#45;&gt;Node25 -->
<g id="edge36" class="edge">
<title>Node24&#45;&gt;Node25</title>
<path fill="none" stroke="midnightblue" d="M534.83,-313.46C568.31,-304.27 611.87,-291.33 649.5,-277 650.92,-276.46 652.37,-275.88 653.83,-275.28"/>
<polygon fill="midnightblue" stroke="midnightblue" points="655.58,-278.33 663.31,-271.09 652.75,-271.92 655.58,-278.33"/>
</g>
<!-- Node26&#45;&gt;Node7 -->
<g id="edge38" class="edge">
<title>Node26&#45;&gt;Node7</title>
<path fill="none" stroke="midnightblue" d="M76.29,-123.42C95.39,-104.82 131.85,-72.48 169.5,-56 235.19,-27.25 317.97,-16.86 371.31,-13.1"/>
<polygon fill="midnightblue" stroke="midnightblue" points="371.82,-16.58 381.57,-12.44 371.36,-9.59 371.82,-16.58"/>
</g>
</g>
</svg>
        <g id="navigator" transform="translate(0 0)" fill="#404254">
                <rect fill="#f2f5e9" fill-opacity="0.5" stroke="#606060" stroke-width=".5" x="0" y="0" width="60" height="60"/>
                <use id="zoomplus" xlink:href="#zoomPlus" x="17" y="9" onmousedown="handleZoom(evt,'in')"/>
                <use id="zoomminus" xlink:href="#zoomMin" x="42" y="9" onmousedown="handleZoom(evt,'out')"/>
                <use id="reset" xlink:href="#resetDef" x="30" y="36" onmousedown="handleReset()"/>
                <g id="arrowUp" xlink:href="#dirArrow" transform="translate(30 24)" onmousedown="handlePan(0,-1)">
                  <use xlink:href="#rim" fill="#404040">
                        <set attributeName="fill" to="#808080" begin="arrowUp.mouseover" end="arrowUp.mouseout"/>
                  </use>
                  <path fill="none" stroke="white" stroke-width="1.5" d="M0,-3.0v7 M-2.5,-0.5L0,-3.0L2.5,-0.5"/>
                </g>
                <g id="arrowRight" xlink:href="#dirArrow" transform="rotate(90) translate(36 -43)" onmousedown="handlePan(1,0)">
                  <use xlink:href="#rim" fill="#404040">
                        <set attributeName="fill" to="#808080" begin="arrowRight.mouseover" end="arrowRight.mouseout"/>
                  </use>
                  <path fill="none" stroke="white" stroke-width="1.5" d="M0,-3.0v7 M-2.5,-0.5L0,-3.0L2.5,-0.5"/>
                </g>
                <g id="arrowDown" xlink:href="#dirArrow" transform="rotate(180) translate(-30 -48)" onmousedown="handlePan(0,1)">
                  <use xlink:href="#rim" fill="#404040">
                        <set attributeName="fill" to="#808080" begin="arrowDown.mouseover" end="arrowDown.mouseout"/>
                  </use>
                  <path fill="none" stroke="white" stroke-width="1.5" d="M0,-3.0v7 M-2.5,-0.5L0,-3.0L2.5,-0.5"/>
                </g>
                <g id="arrowLeft" xlink:href="#dirArrow" transform="rotate(270) translate(-36 17)" onmousedown="handlePan(-1,0)">
                  <use xlink:href="#rim" fill="#404040">
                        <set attributeName="fill" to="#808080" begin="arrowLeft.mouseover" end="arrowLeft.mouseout"/>
                  </use>
                  <path fill="none" stroke="white" stroke-width="1.5" d="M0,-3.0v7 M-2.5,-0.5L0,-3.0L2.5,-0.5"/>
                </g>
        </g>
        <svg viewBox="0 0 15 15" width="100%" height="30px" preserveAspectRatio="xMaxYMin meet">
         <g id="arrow_out" transform="scale(0.3 0.3)">
          <a xlink:href="_airfoil_table_8cpp__incl_org.svg" target="_base">
           <rect id="button" ry="5" rx="5" y="6" x="6" height="38" width="38"
                fill="#f2f5e9" fill-opacity="0.5" stroke="#606060" stroke-width="1.0"/>
           <path id="arrow"
             d="M 11.500037,31.436501 C 11.940474,20.09759 22.043105,11.32322 32.158766,21.979434 L 37.068811,17.246167 C 37.068811,17.246167 37.088388,32 37.088388,32 L 22.160133,31.978069 C 22.160133,31.978069 26.997745,27.140456 26.997745,27.140456 C 18.528582,18.264221 13.291696,25.230495 11.500037,31.436501 z"
             style="fill:#404040;"/>
          </a>
         </g>
        </svg>
</svg>
