<?xml version="1.0" encoding="UTF-8" standalone="no"?>
<!DOCTYPE svg PUBLIC "-//W3C//DTD SVG 1.1//EN"
 "http://www.w3.org/Graphics/SVG/1.1/DTD/svg11.dtd">
<!-- Generated by graphviz version 2.43.0 (0)
 -->
<!-- Title: BCInterface.H Pages: 1 -->
<svg width="902pt" height="196pt"
 viewBox="0.00 0.00 902.24 196.00" xmlns="http://www.w3.org/2000/svg" xmlns:xlink="http://www.w3.org/1999/xlink">
<g id="graph0" class="graph" transform="scale(1 1) rotate(0) translate(4 192)">
<title>BCInterface.H</title>
<polygon fill="white" stroke="transparent" points="-4,4 -4,-192 898.24,-192 898.24,4 -4,4"/>
<!-- Node1 -->
<g id="node1" class="node">
<title>Node1</title>
<g id="a_node1"><a xlink:title=" ">
<polygon fill="#bfbfbf" stroke="black" points="681.74,-168.5 681.74,-187.5 765.74,-187.5 765.74,-168.5 681.74,-168.5"/>
<text text-anchor="middle" x="723.74" y="-175.5" font-family="Helvetica,sans-Serif" font-size="10.00">BCInterface.H</text>
</a>
</g>
</g>
<!-- Node2 -->
<g id="node2" class="node">
<title>Node2</title>
<g id="a_node2"><a xlink:href="_field_8_h.html" target="_top" xlink:title=" ">
<polygon fill="white" stroke="black" points="386.74,-112.5 386.74,-131.5 510.74,-131.5 510.74,-112.5 386.74,-112.5"/>
<text text-anchor="middle" x="448.74" y="-119.5" font-family="Helvetica,sans-Serif" font-size="10.00">amr&#45;wind/core/Field.H</text>
</a>
</g>
</g>
<!-- Node1&#45;&gt;Node2 -->
<g id="edge1" class="edge">
<title>Node1&#45;&gt;Node2</title>
<path fill="none" stroke="midnightblue" d="M681.67,-168.74C633.57,-159.29 554.73,-143.81 502.28,-133.51"/>
<polygon fill="midnightblue" stroke="midnightblue" points="502.65,-130.02 492.16,-131.53 501.3,-136.89 502.65,-130.02"/>
</g>
<!-- Node10 -->
<g id="node10" class="node">
<title>Node10</title>
<g id="a_node10"><a xlink:href="incflo__enums_8_h.html" target="_top" xlink:title=" ">
<polygon fill="white" stroke="black" points="753.24,-56.5 753.24,-75.5 894.24,-75.5 894.24,-56.5 753.24,-56.5"/>
<text text-anchor="middle" x="823.74" y="-63.5" font-family="Helvetica,sans-Serif" font-size="10.00">amr&#45;wind/incflo_enums.H</text>
</a>
</g>
</g>
<!-- Node1&#45;&gt;Node10 -->
<g id="edge16" class="edge">
<title>Node1&#45;&gt;Node10</title>
<path fill="none" stroke="midnightblue" d="M715.73,-168.34C704.61,-155.22 687.17,-129.93 699.74,-112 711.15,-95.72 729.09,-85.3 747.81,-78.65"/>
<polygon fill="midnightblue" stroke="midnightblue" points="748.89,-81.98 757.34,-75.59 746.75,-75.31 748.89,-81.98"/>
</g>
<!-- Node14 -->
<g id="node14" class="node">
<title>Node14</title>
<g id="a_node14"><a xlink:title=" ">
<polygon fill="white" stroke="#bfbfbf" points="708.74,-112.5 708.74,-131.5 824.74,-131.5 824.74,-112.5 708.74,-112.5"/>
<text text-anchor="middle" x="766.74" y="-119.5" font-family="Helvetica,sans-Serif" font-size="10.00">AMReX_BC_TYPES.H</text>
</a>
</g>
</g>
<!-- Node1&#45;&gt;Node14 -->
<g id="edge17" class="edge">
<title>Node1&#45;&gt;Node14</title>
<path fill="none" stroke="midnightblue" d="M730.84,-168.08C736.98,-160.38 746.01,-149.03 753.48,-139.65"/>
<polygon fill="midnightblue" stroke="midnightblue" points="756.28,-141.75 759.77,-131.75 750.8,-137.39 756.28,-141.75"/>
</g>
<!-- Node15 -->
<g id="node15" class="node">
<title>Node15</title>
<g id="a_node15"><a xlink:title=" ">
<polygon fill="white" stroke="#bfbfbf" points="843.24,-112.5 843.24,-131.5 888.24,-131.5 888.24,-112.5 843.24,-112.5"/>
<text text-anchor="middle" x="865.74" y="-119.5" font-family="Helvetica,sans-Serif" font-size="10.00">utility</text>
</a>
</g>
</g>
<!-- Node1&#45;&gt;Node15 -->
<g id="edge18" class="edge">
<title>Node1&#45;&gt;Node15</title>
<path fill="none" stroke="midnightblue" d="M746.24,-168.44C769.82,-159.48 807.06,-145.31 833.7,-135.18"/>
<polygon fill="midnightblue" stroke="midnightblue" points="835.24,-138.34 843.35,-131.52 832.75,-131.8 835.24,-138.34"/>
</g>
<!-- Node3 -->
<g id="node3" class="node">
<title>Node3</title>
<g id="a_node3"><a xlink:title=" ">
<polygon fill="white" stroke="#bfbfbf" points="159.74,-0.5 159.74,-19.5 203.74,-19.5 203.74,-0.5 159.74,-0.5"/>
<text text-anchor="middle" x="181.74" y="-7.5" font-family="Helvetica,sans-Serif" font-size="10.00">string</text>
</a>
</g>
</g>
<!-- Node2&#45;&gt;Node3 -->
<g id="edge2" class="edge">
<title>Node2&#45;&gt;Node3</title>
<path fill="none" stroke="midnightblue" d="M386.43,-119.16C271.05,-115.11 33.57,-103.5 8.74,-76 -33.05,-29.72 88.3,-16.25 149.19,-12.44"/>
<polygon fill="midnightblue" stroke="midnightblue" points="149.67,-15.92 159.45,-11.86 149.27,-8.93 149.67,-15.92"/>
</g>
<!-- Node4 -->
<g id="node4" class="node">
<title>Node4</title>
<g id="a_node4"><a xlink:title=" ">
<polygon fill="white" stroke="#bfbfbf" points="17.74,-56.5 17.74,-75.5 75.74,-75.5 75.74,-56.5 17.74,-56.5"/>
<text text-anchor="middle" x="46.74" y="-63.5" font-family="Helvetica,sans-Serif" font-size="10.00">memory</text>
</a>
</g>
</g>
<!-- Node2&#45;&gt;Node4 -->
<g id="edge3" class="edge">
<title>Node2&#45;&gt;Node4</title>
<path fill="none" stroke="midnightblue" d="M386.6,-115.41C316.02,-108.59 197.24,-95.7 86.17,-76.09"/>
<polygon fill="midnightblue" stroke="midnightblue" points="86.59,-72.61 76.13,-74.3 85.36,-79.5 86.59,-72.61"/>
</g>
<!-- Node5 -->
<g id="node5" class="node">
<title>Node5</title>
<g id="a_node5"><a xlink:title=" ">
<polygon fill="white" stroke="#bfbfbf" points="94.24,-56.5 94.24,-75.5 187.24,-75.5 187.24,-56.5 94.24,-56.5"/>
<text text-anchor="middle" x="140.74" y="-63.5" font-family="Helvetica,sans-Serif" font-size="10.00">unordered_map</text>
</a>
</g>
</g>
<!-- Node2&#45;&gt;Node5 -->
<g id="edge4" class="edge">
<title>Node2&#45;&gt;Node5</title>
<path fill="none" stroke="midnightblue" d="M399.94,-112.44C344.89,-102.79 255.5,-87.12 197.41,-76.94"/>
<polygon fill="midnightblue" stroke="midnightblue" points="197.75,-73.44 187.3,-75.16 196.54,-80.34 197.75,-73.44"/>
</g>
<!-- Node6 -->
<g id="node6" class="node">
<title>Node6</title>
<g id="a_node6"><a xlink:title=" ">
<polygon fill="white" stroke="#bfbfbf" points="205.74,-56.5 205.74,-75.5 269.74,-75.5 269.74,-56.5 205.74,-56.5"/>
<text text-anchor="middle" x="237.74" y="-63.5" font-family="Helvetica,sans-Serif" font-size="10.00">algorithm</text>
</a>
</g>
</g>
<!-- Node2&#45;&gt;Node6 -->
<g id="edge5" class="edge">
<title>Node2&#45;&gt;Node6</title>
<path fill="none" stroke="midnightblue" d="M415.31,-112.44C378.64,-103.06 319.73,-87.98 279.92,-77.79"/>
<polygon fill="midnightblue" stroke="midnightblue" points="280.54,-74.34 269.98,-75.25 278.8,-81.12 280.54,-74.34"/>
</g>
<!-- Node7 -->
<g id="node7" class="node">
<title>Node7</title>
<g id="a_node7"><a xlink:title=" ">
<polygon fill="white" stroke="#bfbfbf" points="530.24,-0.5 530.24,-19.5 639.24,-19.5 639.24,-0.5 530.24,-0.5"/>
<text text-anchor="middle" x="584.74" y="-7.5" font-family="Helvetica,sans-Serif" font-size="10.00">AMReX_MultiFab.H</text>
</a>
</g>
</g>
<!-- Node2&#45;&gt;Node7 -->
<g id="edge6" class="edge">
<title>Node2&#45;&gt;Node7</title>
<path fill="none" stroke="midnightblue" d="M510.84,-116.81C568.48,-111.48 648.24,-99.92 667.74,-76 685.69,-53.98 651.37,-34.77 621.56,-23.06"/>
<polygon fill="midnightblue" stroke="midnightblue" points="622.7,-19.75 612.11,-19.52 620.25,-26.3 622.7,-19.75"/>
</g>
<!-- Node8 -->
<g id="node8" class="node">
<title>Node8</title>
<g id="a_node8"><a xlink:title=" ">
<polygon fill="white" stroke="#bfbfbf" points="288.24,-56.5 288.24,-75.5 387.24,-75.5 387.24,-56.5 288.24,-56.5"/>
<text text-anchor="middle" x="337.74" y="-63.5" font-family="Helvetica,sans-Serif" font-size="10.00">AMReX_BCRec.H</text>
</a>
</g>
</g>
<!-- Node2&#45;&gt;Node8 -->
<g id="edge7" class="edge">
<title>Node2&#45;&gt;Node8</title>
<path fill="none" stroke="midnightblue" d="M430.91,-112.32C413.02,-103.62 385.27,-90.12 364.7,-80.11"/>
<polygon fill="midnightblue" stroke="midnightblue" points="366.05,-76.88 355.53,-75.65 362.99,-83.18 366.05,-76.88"/>
</g>
<!-- Node9 -->
<g id="node9" class="node">
<title>Node9</title>
<g id="a_node9"><a xlink:title=" ">
<polygon fill="white" stroke="#bfbfbf" points="405.24,-56.5 405.24,-75.5 492.24,-75.5 492.24,-56.5 405.24,-56.5"/>
<text text-anchor="middle" x="448.74" y="-63.5" font-family="Helvetica,sans-Serif" font-size="10.00">AMReX_Gpu.H</text>
</a>
</g>
</g>
<!-- Node2&#45;&gt;Node9 -->
<g id="edge8" class="edge">
<title>Node2&#45;&gt;Node9</title>
<path fill="none" stroke="midnightblue" d="M448.74,-112.08C448.74,-105.01 448.74,-94.86 448.74,-85.99"/>
<polygon fill="midnightblue" stroke="midnightblue" points="452.24,-85.75 448.74,-75.75 445.24,-85.75 452.24,-85.75"/>
</g>
<!-- Node2&#45;&gt;Node10 -->
<g id="edge9" class="edge">
<title>Node2&#45;&gt;Node10</title>
<path fill="none" stroke="midnightblue" d="M508.16,-112.44C575.09,-102.81 683.72,-87.16 754.45,-76.98"/>
<polygon fill="midnightblue" stroke="midnightblue" points="755.2,-80.41 764.6,-75.52 754.2,-73.48 755.2,-80.41"/>
</g>
<!-- Node11 -->
<g id="node11" class="node">
<title>Node11</title>
<g id="a_node11"><a xlink:href="_field_desc_types_8_h.html" target="_top" xlink:title=" ">
<polygon fill="white" stroke="black" points="657.74,-0.5 657.74,-19.5 833.74,-19.5 833.74,-0.5 657.74,-0.5"/>
<text text-anchor="middle" x="745.74" y="-7.5" font-family="Helvetica,sans-Serif" font-size="10.00">amr&#45;wind/core/FieldDescTypes.H</text>
</a>
</g>
</g>
<!-- Node2&#45;&gt;Node11 -->
<g id="edge10" class="edge">
<title>Node2&#45;&gt;Node11</title>
<path fill="none" stroke="midnightblue" d="M510.93,-119.58C560.7,-116.07 630.83,-105.65 684.74,-76 705.63,-64.51 723.46,-43.32 734.36,-28.26"/>
<polygon fill="midnightblue" stroke="midnightblue" points="737.39,-30.02 740.21,-19.81 731.64,-26.04 737.39,-30.02"/>
</g>
<!-- Node12 -->
<g id="node12" class="node">
<title>Node12</title>
<g id="a_node12"><a xlink:href="_view_field_8_h.html" target="_top" xlink:title=" ">
<polygon fill="white" stroke="black" points="510.74,-56.5 510.74,-75.5 658.74,-75.5 658.74,-56.5 510.74,-56.5"/>
<text text-anchor="middle" x="584.74" y="-63.5" font-family="Helvetica,sans-Serif" font-size="10.00">amr&#45;wind/core/ViewField.H</text>
</a>
</g>
</g>
<!-- Node2&#45;&gt;Node12 -->
<g id="edge11" class="edge">
<title>Node2&#45;&gt;Node12</title>
<path fill="none" stroke="midnightblue" d="M470.29,-112.44C492.77,-103.52 528.23,-89.44 553.72,-79.32"/>
<polygon fill="midnightblue" stroke="midnightblue" points="555.29,-82.46 563.29,-75.52 552.71,-75.95 555.29,-82.46"/>
</g>
<!-- Node12&#45;&gt;Node3 -->
<g id="edge12" class="edge">
<title>Node12&#45;&gt;Node3</title>
<path fill="none" stroke="midnightblue" d="M520.88,-56.44C433.84,-44.78 281.17,-24.32 214.47,-15.39"/>
<polygon fill="midnightblue" stroke="midnightblue" points="214.54,-11.86 204.16,-14 213.61,-18.8 214.54,-11.86"/>
</g>
<!-- Node12&#45;&gt;Node7 -->
<g id="edge14" class="edge">
<title>Node12&#45;&gt;Node7</title>
<path fill="none" stroke="midnightblue" d="M584.74,-56.08C584.74,-49.01 584.74,-38.86 584.74,-29.99"/>
<polygon fill="midnightblue" stroke="midnightblue" points="588.24,-29.75 584.74,-19.75 581.24,-29.75 588.24,-29.75"/>
</g>
<!-- Node12&#45;&gt;Node11 -->
<g id="edge13" class="edge">
<title>Node12&#45;&gt;Node11</title>
<path fill="none" stroke="midnightblue" d="M610.25,-56.44C637.34,-47.36 680.33,-32.94 710.61,-22.78"/>
<polygon fill="midnightblue" stroke="midnightblue" points="711.98,-26.01 720.35,-19.52 709.76,-19.38 711.98,-26.01"/>
</g>
<!-- Node13 -->
<g id="node13" class="node">
<title>Node13</title>
<g id="a_node13"><a xlink:title=" ">
<polygon fill="white" stroke="#bfbfbf" points="413.74,-0.5 413.74,-19.5 511.74,-19.5 511.74,-0.5 413.74,-0.5"/>
<text text-anchor="middle" x="462.74" y="-7.5" font-family="Helvetica,sans-Serif" font-size="10.00">AMReX_Vector.H</text>
</a>
</g>
</g>
<!-- Node12&#45;&gt;Node13 -->
<g id="edge15" class="edge">
<title>Node12&#45;&gt;Node13</title>
<path fill="none" stroke="midnightblue" d="M565.41,-56.44C545.42,-47.6 514,-33.69 491.18,-23.59"/>
<polygon fill="midnightblue" stroke="midnightblue" points="492.54,-20.36 481.98,-19.52 489.71,-26.76 492.54,-20.36"/>
</g>
</g>
</svg>
