<?xml version="1.0" encoding="UTF-8" standalone="no"?>
<!DOCTYPE svg PUBLIC "-//W3C//DTD SVG 1.1//EN"
 "http://www.w3.org/Graphics/SVG/1.1/DTD/svg11.dtd">
<!-- Generated by graphviz version 2.43.0 (0)
 -->
<!-- Title: CartBoxRefinement.cpp Pages: 1 -->
<svg width="2346pt" height="341pt"
 viewBox="0.00 0.00 2345.92 341.00" xmlns="http://www.w3.org/2000/svg" xmlns:xlink="http://www.w3.org/1999/xlink">
<g id="graph0" class="graph" transform="scale(1 1) rotate(0) translate(4 337)">
<title>CartBoxRefinement.cpp</title>
<polygon fill="white" stroke="transparent" points="-4,4 -4,-337 2341.92,-337 2341.92,4 -4,4"/>
<!-- Node1 -->
<g id="node1" class="node">
<title>Node1</title>
<g id="a_node1"><a xlink:title=" ">
<polygon fill="#bfbfbf" stroke="black" points="1927.83,-313.5 1927.83,-332.5 2059.83,-332.5 2059.83,-313.5 1927.83,-313.5"/>
<text text-anchor="middle" x="1993.83" y="-320.5" font-family="Helvetica,sans-Serif" font-size="10.00">CartBoxRefinement.cpp</text>
</a>
</g>
</g>
<!-- Node2 -->
<g id="node2" class="node">
<title>Node2</title>
<g id="a_node2"><a xlink:title=" ">
<polygon fill="white" stroke="#bfbfbf" points="1768.83,-56.5 1768.83,-75.5 1828.83,-75.5 1828.83,-56.5 1768.83,-56.5"/>
<text text-anchor="middle" x="1798.83" y="-63.5" font-family="Helvetica,sans-Serif" font-size="10.00">iostream</text>
</a>
</g>
</g>
<!-- Node1&#45;&gt;Node2 -->
<g id="edge1" class="edge">
<title>Node1&#45;&gt;Node2</title>
<path fill="none" stroke="midnightblue" d="M1927.74,-322.79C1709.35,-323.77 1018.15,-313.19 900.83,-143 893.01,-131.66 891.3,-121.94 900.83,-112 932.57,-78.91 1651.35,-82.07 1758.57,-75.42"/>
<polygon fill="midnightblue" stroke="midnightblue" points="1759.05,-78.89 1768.7,-74.53 1758.43,-71.92 1759.05,-78.89"/>
</g>
<!-- Node3 -->
<g id="node3" class="node">
<title>Node3</title>
<g id="a_node3"><a xlink:title=" ">
<polygon fill="white" stroke="#bfbfbf" points="2094.33,-252 2094.33,-271 2149.33,-271 2149.33,-252 2094.33,-252"/>
<text text-anchor="middle" x="2121.83" y="-259" font-family="Helvetica,sans-Serif" font-size="10.00">fstream</text>
</a>
</g>
</g>
<!-- Node1&#45;&gt;Node3 -->
<g id="edge2" class="edge">
<title>Node1&#45;&gt;Node3</title>
<path fill="none" stroke="midnightblue" d="M2012.17,-313.48C2033.65,-303.49 2069.46,-286.85 2094.28,-275.31"/>
<polygon fill="midnightblue" stroke="midnightblue" points="2095.94,-278.4 2103.53,-271.01 2092.99,-272.05 2095.94,-278.4"/>
</g>
<!-- Node4 -->
<g id="node4" class="node">
<title>Node4</title>
<g id="a_node4"><a xlink:href="_cart_box_refinement_8_h.html" target="_top" xlink:title=" ">
<polygon fill="white" stroke="black" points="1911.33,-246.5 1911.33,-276.5 2076.33,-276.5 2076.33,-246.5 1911.33,-246.5"/>
<text text-anchor="start" x="1919.33" y="-264.5" font-family="Helvetica,sans-Serif" font-size="10.00">amr&#45;wind/utilities</text>
<text text-anchor="middle" x="1993.83" y="-253.5" font-family="Helvetica,sans-Serif" font-size="10.00">/tagging/CartBoxRefinement.H</text>
</a>
</g>
</g>
<!-- Node1&#45;&gt;Node4 -->
<g id="edge3" class="edge">
<title>Node1&#45;&gt;Node4</title>
<path fill="none" stroke="midnightblue" d="M1993.83,-313.48C1993.83,-306.47 1993.83,-296.19 1993.83,-286.7"/>
<polygon fill="midnightblue" stroke="midnightblue" points="1997.33,-286.52 1993.83,-276.52 1990.33,-286.52 1997.33,-286.52"/>
</g>
<!-- Node16 -->
<g id="node16" class="node">
<title>Node16</title>
<g id="a_node16"><a xlink:href="_c_f_d_sim_8_h.html" target="_top" xlink:title=" ">
<polygon fill="white" stroke="black" points="1387.83,-252 1387.83,-271 1503.83,-271 1503.83,-252 1387.83,-252"/>
<text text-anchor="middle" x="1445.83" y="-259" font-family="Helvetica,sans-Serif" font-size="10.00">amr&#45;wind/CFDSim.H</text>
</a>
</g>
</g>
<!-- Node1&#45;&gt;Node16 -->
<g id="edge16" class="edge">
<title>Node1&#45;&gt;Node16</title>
<path fill="none" stroke="midnightblue" d="M1927.73,-314.82C1822.94,-303.44 1619.72,-281.38 1513.78,-269.88"/>
<polygon fill="midnightblue" stroke="midnightblue" points="1514.16,-266.4 1503.84,-268.8 1513.4,-273.36 1514.16,-266.4"/>
</g>
<!-- Node42 -->
<g id="node42" class="node">
<title>Node42</title>
<g id="a_node42"><a xlink:title=" ">
<polygon fill="white" stroke="#bfbfbf" points="2167.33,-252 2167.33,-271 2286.33,-271 2286.33,-252 2167.33,-252"/>
<text text-anchor="middle" x="2226.83" y="-259" font-family="Helvetica,sans-Serif" font-size="10.00">AMReX_ParmParse.H</text>
</a>
</g>
</g>
<!-- Node1&#45;&gt;Node42 -->
<g id="edge76" class="edge">
<title>Node1&#45;&gt;Node42</title>
<path fill="none" stroke="midnightblue" d="M2027.22,-313.48C2068.4,-302.96 2138.48,-285.06 2183.7,-273.51"/>
<polygon fill="midnightblue" stroke="midnightblue" points="2184.69,-276.87 2193.51,-271.01 2182.96,-270.09 2184.69,-276.87"/>
</g>
<!-- Node5 -->
<g id="node5" class="node">
<title>Node5</title>
<g id="a_node5"><a xlink:title=" ">
<polygon fill="white" stroke="#bfbfbf" points="2248.83,-56.5 2248.83,-75.5 2296.83,-75.5 2296.83,-56.5 2248.83,-56.5"/>
<text text-anchor="middle" x="2272.83" y="-63.5" font-family="Helvetica,sans-Serif" font-size="10.00">iosfwd</text>
</a>
</g>
</g>
<!-- Node4&#45;&gt;Node5 -->
<g id="edge4" class="edge">
<title>Node4&#45;&gt;Node5</title>
<path fill="none" stroke="midnightblue" d="M2072.65,-246.46C2127.22,-236.09 2194.59,-221.77 2220.83,-210 2267.32,-189.15 2290.62,-188.34 2313.83,-143 2320.11,-130.74 2318.81,-124.85 2313.83,-112 2309.38,-100.5 2300.47,-90.13 2292.08,-82.25"/>
<polygon fill="midnightblue" stroke="midnightblue" points="2294.21,-79.46 2284.37,-75.51 2289.6,-84.73 2294.21,-79.46"/>
</g>
<!-- Node6 -->
<g id="node6" class="node">
<title>Node6</title>
<g id="a_node6"><a xlink:href="_refinement_criteria_8_h.html" target="_top" xlink:title=" ">
<polygon fill="white" stroke="black" points="1749.83,-179.5 1749.83,-209.5 1911.83,-209.5 1911.83,-179.5 1749.83,-179.5"/>
<text text-anchor="start" x="1757.83" y="-197.5" font-family="Helvetica,sans-Serif" font-size="10.00">amr&#45;wind/utilities</text>
<text text-anchor="middle" x="1830.83" y="-186.5" font-family="Helvetica,sans-Serif" font-size="10.00">/tagging/RefinementCriteria.H</text>
</a>
</g>
</g>
<!-- Node4&#45;&gt;Node6 -->
<g id="edge5" class="edge">
<title>Node4&#45;&gt;Node6</title>
<path fill="none" stroke="midnightblue" d="M1958.47,-246.4C1934.12,-236.69 1901.57,-223.71 1875.44,-213.29"/>
<polygon fill="midnightblue" stroke="midnightblue" points="1876.72,-210.03 1866.13,-209.58 1874.13,-216.53 1876.72,-210.03"/>
</g>
<!-- Node14 -->
<g id="node14" class="node">
<title>Node14</title>
<g id="a_node14"><a xlink:title=" ">
<polygon fill="white" stroke="#bfbfbf" points="2103.83,-185 2103.83,-204 2211.83,-204 2211.83,-185 2103.83,-185"/>
<text text-anchor="middle" x="2157.83" y="-192" font-family="Helvetica,sans-Serif" font-size="10.00">AMReX_RealBox.H</text>
</a>
</g>
</g>
<!-- Node4&#45;&gt;Node14 -->
<g id="edge14" class="edge">
<title>Node4&#45;&gt;Node14</title>
<path fill="none" stroke="midnightblue" d="M2029.42,-246.4C2058.45,-234.89 2099.05,-218.8 2126.78,-207.81"/>
<polygon fill="midnightblue" stroke="midnightblue" points="2128.36,-210.95 2136.37,-204.01 2125.78,-204.44 2128.36,-210.95"/>
</g>
<!-- Node15 -->
<g id="node15" class="node">
<title>Node15</title>
<g id="a_node15"><a xlink:title=" ">
<polygon fill="white" stroke="#bfbfbf" points="1589.83,-0.5 1589.83,-19.5 1687.83,-19.5 1687.83,-0.5 1589.83,-0.5"/>
<text text-anchor="middle" x="1638.83" y="-7.5" font-family="Helvetica,sans-Serif" font-size="10.00">AMReX_Vector.H</text>
</a>
</g>
</g>
<!-- Node4&#45;&gt;Node15 -->
<g id="edge15" class="edge">
<title>Node4&#45;&gt;Node15</title>
<path fill="none" stroke="midnightblue" d="M2076.64,-246.47C2153.85,-233.19 2258.37,-214.62 2266.83,-210 2302.71,-190.42 2314.77,-181 2329.83,-143 2344.61,-105.71 2338.56,-79.2 2305.83,-56 2256.92,-21.33 1852.44,-13.31 1698.24,-11.51"/>
<polygon fill="midnightblue" stroke="midnightblue" points="1698.05,-8 1688.01,-11.39 1697.97,-15 1698.05,-8"/>
</g>
<!-- Node7 -->
<g id="node7" class="node">
<title>Node7</title>
<g id="a_node7"><a xlink:title=" ">
<polygon fill="white" stroke="#bfbfbf" points="1305.83,-118 1305.83,-137 1415.83,-137 1415.83,-118 1305.83,-118"/>
<text text-anchor="middle" x="1360.83" y="-125" font-family="Helvetica,sans-Serif" font-size="10.00">AMReX_AmrCore.H</text>
</a>
</g>
</g>
<!-- Node6&#45;&gt;Node7 -->
<g id="edge6" class="edge">
<title>Node6&#45;&gt;Node7</title>
<path fill="none" stroke="midnightblue" d="M1749.69,-182.48C1675.12,-172.32 1561.51,-156.78 1462.83,-143 1450.93,-141.34 1438.25,-139.55 1426.02,-137.81"/>
<polygon fill="midnightblue" stroke="midnightblue" points="1426.27,-134.32 1415.88,-136.37 1425.29,-141.25 1426.27,-134.32"/>
</g>
<!-- Node8 -->
<g id="node8" class="node">
<title>Node8</title>
<g id="a_node8"><a xlink:title=" ">
<polygon fill="white" stroke="#bfbfbf" points="1799.33,-118 1799.33,-137 1902.33,-137 1902.33,-118 1799.33,-118"/>
<text text-anchor="middle" x="1850.83" y="-125" font-family="Helvetica,sans-Serif" font-size="10.00">AMReX_TagBox.H</text>
</a>
</g>
</g>
<!-- Node6&#45;&gt;Node8 -->
<g id="edge7" class="edge">
<title>Node6&#45;&gt;Node8</title>
<path fill="none" stroke="midnightblue" d="M1835.17,-179.4C1838.11,-169.86 1842.01,-157.18 1845.18,-146.86"/>
<polygon fill="midnightblue" stroke="midnightblue" points="1848.56,-147.78 1848.16,-137.19 1841.87,-145.72 1848.56,-147.78"/>
</g>
<!-- Node9 -->
<g id="node9" class="node">
<title>Node9</title>
<g id="a_node9"><a xlink:href="_factory_8_h.html" target="_top" xlink:title=" ">
<polygon fill="white" stroke="black" points="1920.83,-118 1920.83,-137 2054.83,-137 2054.83,-118 1920.83,-118"/>
<text text-anchor="middle" x="1987.83" y="-125" font-family="Helvetica,sans-Serif" font-size="10.00">amr&#45;wind/core/Factory.H</text>
</a>
</g>
</g>
<!-- Node6&#45;&gt;Node9 -->
<g id="edge8" class="edge">
<title>Node6&#45;&gt;Node9</title>
<path fill="none" stroke="midnightblue" d="M1864.9,-179.4C1892.57,-167.94 1931.22,-151.94 1957.76,-140.95"/>
<polygon fill="midnightblue" stroke="midnightblue" points="1959.39,-144.07 1967.29,-137.01 1956.71,-137.6 1959.39,-144.07"/>
</g>
<!-- Node9&#45;&gt;Node2 -->
<g id="edge11" class="edge">
<title>Node9&#45;&gt;Node2</title>
<path fill="none" stroke="midnightblue" d="M1960.75,-117.98C1927.91,-107.64 1872.4,-90.16 1835.69,-78.6"/>
<polygon fill="midnightblue" stroke="midnightblue" points="1836.45,-75.17 1825.86,-75.51 1834.35,-81.85 1836.45,-75.17"/>
</g>
<!-- Node10 -->
<g id="node10" class="node">
<title>Node10</title>
<g id="a_node10"><a xlink:title=" ">
<polygon fill="white" stroke="#bfbfbf" points="1692.83,-56.5 1692.83,-75.5 1750.83,-75.5 1750.83,-56.5 1692.83,-56.5"/>
<text text-anchor="middle" x="1721.83" y="-63.5" font-family="Helvetica,sans-Serif" font-size="10.00">memory</text>
</a>
</g>
</g>
<!-- Node9&#45;&gt;Node10 -->
<g id="edge9" class="edge">
<title>Node9&#45;&gt;Node10</title>
<path fill="none" stroke="midnightblue" d="M1948.25,-117.92C1904.79,-108.45 1832.68,-92.63 1760.98,-76.24"/>
<polygon fill="midnightblue" stroke="midnightblue" points="1761.4,-72.74 1750.87,-73.92 1759.84,-79.57 1761.4,-72.74"/>
</g>
<!-- Node11 -->
<g id="node11" class="node">
<title>Node11</title>
<g id="a_node11"><a xlink:title=" ">
<polygon fill="white" stroke="#bfbfbf" points="1543.33,-56.5 1543.33,-75.5 1636.33,-75.5 1636.33,-56.5 1543.33,-56.5"/>
<text text-anchor="middle" x="1589.83" y="-63.5" font-family="Helvetica,sans-Serif" font-size="10.00">unordered_map</text>
</a>
</g>
</g>
<!-- Node9&#45;&gt;Node11 -->
<g id="edge10" class="edge">
<title>Node9&#45;&gt;Node11</title>
<path fill="none" stroke="midnightblue" d="M1944.32,-117.94C1933.41,-115.89 1921.71,-113.78 1910.83,-112 1818.46,-96.84 1710.59,-82.38 1646.37,-74.11"/>
<polygon fill="midnightblue" stroke="midnightblue" points="1646.82,-70.64 1636.45,-72.84 1645.93,-77.58 1646.82,-70.64"/>
</g>
<!-- Node12 -->
<g id="node12" class="node">
<title>Node12</title>
<g id="a_node12"><a xlink:title=" ">
<polygon fill="white" stroke="#bfbfbf" points="1884.83,-56.5 1884.83,-75.5 1974.83,-75.5 1974.83,-56.5 1884.83,-56.5"/>
<text text-anchor="middle" x="1929.83" y="-63.5" font-family="Helvetica,sans-Serif" font-size="10.00">AMReX_Print.H</text>
</a>
</g>
</g>
<!-- Node9&#45;&gt;Node12 -->
<g id="edge12" class="edge">
<title>Node9&#45;&gt;Node12</title>
<path fill="none" stroke="midnightblue" d="M1979.52,-117.98C1970.65,-108.87 1956.39,-94.24 1945.41,-82.98"/>
<polygon fill="midnightblue" stroke="midnightblue" points="1947.62,-80.23 1938.13,-75.51 1942.6,-85.11 1947.62,-80.23"/>
</g>
<!-- Node13 -->
<g id="node13" class="node">
<title>Node13</title>
<g id="a_node13"><a xlink:title=" ">
<polygon fill="white" stroke="#bfbfbf" points="1992.83,-56.5 1992.83,-75.5 2054.83,-75.5 2054.83,-56.5 1992.83,-56.5"/>
<text text-anchor="middle" x="2023.83" y="-63.5" font-family="Helvetica,sans-Serif" font-size="10.00">AMReX.H</text>
</a>
</g>
</g>
<!-- Node9&#45;&gt;Node13 -->
<g id="edge13" class="edge">
<title>Node9&#45;&gt;Node13</title>
<path fill="none" stroke="midnightblue" d="M1992.99,-117.98C1998.28,-109.23 2006.67,-95.37 2013.36,-84.31"/>
<polygon fill="midnightblue" stroke="midnightblue" points="2016.5,-85.88 2018.69,-75.51 2010.51,-82.25 2016.5,-85.88"/>
</g>
<!-- Node16&#45;&gt;Node7 -->
<g id="edge17" class="edge">
<title>Node16&#45;&gt;Node7</title>
<path fill="none" stroke="midnightblue" d="M1440.26,-251.84C1426.39,-230.3 1390.13,-174 1371.8,-145.52"/>
<polygon fill="midnightblue" stroke="midnightblue" points="1374.68,-143.53 1366.32,-137.02 1368.79,-147.32 1374.68,-143.53"/>
</g>
<!-- Node17 -->
<g id="node17" class="node">
<title>Node17</title>
<g id="a_node17"><a xlink:href="_sim_time_8_h.html" target="_top" xlink:title=" ">
<polygon fill="white" stroke="black" points="1085.83,-185 1085.83,-204 1229.83,-204 1229.83,-185 1085.83,-185"/>
<text text-anchor="middle" x="1157.83" y="-192" font-family="Helvetica,sans-Serif" font-size="10.00">amr&#45;wind/core/SimTime.H</text>
</a>
</g>
</g>
<!-- Node16&#45;&gt;Node17 -->
<g id="edge18" class="edge">
<title>Node16&#45;&gt;Node17</title>
<path fill="none" stroke="midnightblue" d="M1407.89,-251.94C1355.87,-240.2 1262.42,-219.11 1205.67,-206.3"/>
<polygon fill="midnightblue" stroke="midnightblue" points="1206.39,-202.87 1195.87,-204.08 1204.85,-209.7 1206.39,-202.87"/>
</g>
<!-- Node21 -->
<g id="node21" class="node">
<title>Node21</title>
<g id="a_node21"><a xlink:href="_field_repo_8_h.html" target="_top" xlink:title=" ">
<polygon fill="white" stroke="black" points="603.33,-185 603.33,-204 752.33,-204 752.33,-185 603.33,-185"/>
<text text-anchor="middle" x="677.83" y="-192" font-family="Helvetica,sans-Serif" font-size="10.00">amr&#45;wind/core/FieldRepo.H</text>
</a>
</g>
</g>
<!-- Node16&#45;&gt;Node21 -->
<g id="edge22" class="edge">
<title>Node16&#45;&gt;Node21</title>
<path fill="none" stroke="midnightblue" d="M1387.79,-255.59C1253.33,-244.21 919.96,-215.99 762.62,-202.68"/>
<polygon fill="midnightblue" stroke="midnightblue" points="762.77,-199.18 752.51,-201.82 762.18,-206.15 762.77,-199.18"/>
</g>
<!-- Node37 -->
<g id="node37" class="node">
<title>Node37</title>
<g id="a_node37"><a xlink:href="_p_d_e_base_8_h.html" target="_top" xlink:title=" ">
<polygon fill="white" stroke="black" points="1930.33,-179.5 1930.33,-209.5 2085.33,-209.5 2085.33,-179.5 1930.33,-179.5"/>
<text text-anchor="start" x="1938.33" y="-197.5" font-family="Helvetica,sans-Serif" font-size="10.00">amr&#45;wind/equation_systems</text>
<text text-anchor="middle" x="2007.83" y="-186.5" font-family="Helvetica,sans-Serif" font-size="10.00">/PDEBase.H</text>
</a>
</g>
</g>
<!-- Node16&#45;&gt;Node37 -->
<g id="edge59" class="edge">
<title>Node16&#45;&gt;Node37</title>
<path fill="none" stroke="midnightblue" d="M1504.1,-255.43C1591.88,-247.53 1763.5,-231.15 1919.81,-210.09"/>
<polygon fill="midnightblue" stroke="midnightblue" points="1920.64,-213.51 1930.08,-208.69 1919.7,-206.57 1920.64,-213.51"/>
</g>
<!-- Node40 -->
<g id="node40" class="node">
<title>Node40</title>
<g id="a_node40"><a xlink:href="_physics_8_h.html" target="_top" xlink:title=" ">
<polygon fill="white" stroke="black" points="1461.33,-185 1461.33,-204 1598.33,-204 1598.33,-185 1461.33,-185"/>
<text text-anchor="middle" x="1529.83" y="-192" font-family="Helvetica,sans-Serif" font-size="10.00">amr&#45;wind/core/Physics.H</text>
</a>
</g>
</g>
<!-- Node16&#45;&gt;Node40 -->
<g id="edge71" class="edge">
<title>Node16&#45;&gt;Node40</title>
<path fill="none" stroke="midnightblue" d="M1457.16,-251.73C1470.89,-241.11 1494.23,-223.05 1510.75,-210.26"/>
<polygon fill="midnightblue" stroke="midnightblue" points="1512.92,-213.02 1518.68,-204.13 1508.63,-207.48 1512.92,-213.02"/>
</g>
<!-- Node18 -->
<g id="node18" class="node">
<title>Node18</title>
<g id="a_node18"><a xlink:title=" ">
<polygon fill="white" stroke="#bfbfbf" points="909.83,-118 909.83,-137 1001.83,-137 1001.83,-118 909.83,-118"/>
<text text-anchor="middle" x="955.83" y="-125" font-family="Helvetica,sans-Serif" font-size="10.00">AMReX_REAL.H</text>
</a>
</g>
</g>
<!-- Node17&#45;&gt;Node18 -->
<g id="edge19" class="edge">
<title>Node17&#45;&gt;Node18</title>
<path fill="none" stroke="midnightblue" d="M1131.01,-184.87C1095.29,-173.38 1032,-153.01 992.07,-140.16"/>
<polygon fill="midnightblue" stroke="midnightblue" points="993.04,-136.8 982.45,-137.06 990.89,-143.46 993.04,-136.8"/>
</g>
<!-- Node19 -->
<g id="node19" class="node">
<title>Node19</title>
<g id="a_node19"><a xlink:title=" ">
<polygon fill="white" stroke="#bfbfbf" points="1019.83,-118 1019.83,-137 1153.83,-137 1153.83,-118 1019.83,-118"/>
<text text-anchor="middle" x="1086.83" y="-125" font-family="Helvetica,sans-Serif" font-size="10.00">AMReX_GpuQualifiers.H</text>
</a>
</g>
</g>
<!-- Node17&#45;&gt;Node19 -->
<g id="edge20" class="edge">
<title>Node17&#45;&gt;Node19</title>
<path fill="none" stroke="midnightblue" d="M1148.26,-184.73C1136.87,-174.31 1117.65,-156.71 1103.74,-143.97"/>
<polygon fill="midnightblue" stroke="midnightblue" points="1106,-141.3 1096.26,-137.13 1101.27,-146.46 1106,-141.3"/>
</g>
<!-- Node20 -->
<g id="node20" class="node">
<title>Node20</title>
<g id="a_node20"><a xlink:title=" ">
<polygon fill="white" stroke="#bfbfbf" points="1171.83,-118 1171.83,-137 1287.83,-137 1287.83,-118 1171.83,-118"/>
<text text-anchor="middle" x="1229.83" y="-125" font-family="Helvetica,sans-Serif" font-size="10.00">AMReX_Extension.H</text>
</a>
</g>
</g>
<!-- Node17&#45;&gt;Node20 -->
<g id="edge21" class="edge">
<title>Node17&#45;&gt;Node20</title>
<path fill="none" stroke="midnightblue" d="M1167.54,-184.73C1179.1,-174.31 1198.59,-156.71 1212.69,-143.97"/>
<polygon fill="midnightblue" stroke="midnightblue" points="1215.2,-146.43 1220.28,-137.13 1210.51,-141.23 1215.2,-146.43"/>
</g>
<!-- Node21&#45;&gt;Node7 -->
<g id="edge56" class="edge">
<title>Node21&#45;&gt;Node7</title>
<path fill="none" stroke="midnightblue" d="M752.55,-190.82C869.29,-185.86 1101.8,-172.9 1296.83,-143 1303.49,-141.98 1310.49,-140.66 1317.31,-139.23"/>
<polygon fill="midnightblue" stroke="midnightblue" points="1318.11,-142.64 1327.13,-137.08 1316.61,-135.8 1318.11,-142.64"/>
</g>
<!-- Node21&#45;&gt;Node11 -->
<g id="edge24" class="edge">
<title>Node21&#45;&gt;Node11</title>
<path fill="none" stroke="midnightblue" d="M708.02,-184.99C737.35,-176.22 782.75,-161.26 819.83,-143 842.62,-131.78 843.68,-119.84 867.83,-112 1005.79,-67.24 1370.34,-90.72 1532.73,-75.91"/>
<polygon fill="midnightblue" stroke="midnightblue" points="1533.53,-79.35 1543.13,-74.88 1532.84,-72.39 1533.53,-79.35"/>
</g>
<!-- Node22 -->
<g id="node22" class="node">
<title>Node22</title>
<g id="a_node22"><a xlink:title=" ">
<polygon fill="white" stroke="#bfbfbf" points="610.83,-0.5 610.83,-19.5 654.83,-19.5 654.83,-0.5 610.83,-0.5"/>
<text text-anchor="middle" x="632.83" y="-7.5" font-family="Helvetica,sans-Serif" font-size="10.00">string</text>
</a>
</g>
</g>
<!-- Node21&#45;&gt;Node22 -->
<g id="edge23" class="edge">
<title>Node21&#45;&gt;Node22</title>
<path fill="none" stroke="midnightblue" d="M603.09,-186.54C546.98,-179.7 468.94,-166.72 403.83,-143 347.17,-122.36 316.18,-128.12 285.83,-76 281.36,-68.32 279.92,-62.64 285.83,-56 332.27,-3.9 529.21,-32.72 597.83,-20 598.75,-19.83 599.68,-19.65 600.62,-19.46"/>
<polygon fill="midnightblue" stroke="midnightblue" points="601.74,-22.79 610.72,-17.17 600.19,-15.97 601.74,-22.79"/>
</g>
<!-- Node23 -->
<g id="node23" class="node">
<title>Node23</title>
<g id="a_node23"><a xlink:href="_field_desc_types_8_h.html" target="_top" xlink:title=" ">
<polygon fill="white" stroke="black" points="1027.83,-0.5 1027.83,-19.5 1203.83,-19.5 1203.83,-0.5 1027.83,-0.5"/>
<text text-anchor="middle" x="1115.83" y="-7.5" font-family="Helvetica,sans-Serif" font-size="10.00">amr&#45;wind/core/FieldDescTypes.H</text>
</a>
</g>
</g>
<!-- Node21&#45;&gt;Node23 -->
<g id="edge25" class="edge">
<title>Node21&#45;&gt;Node23</title>
<path fill="none" stroke="midnightblue" d="M691.05,-184.89C705.61,-175.22 729.52,-158.81 748.83,-143 764.4,-130.25 763.55,-120.4 781.83,-112 849.87,-80.75 1066.8,-131.7 1116.83,-76 1127.89,-63.69 1125.96,-44.16 1122.28,-29.72"/>
<polygon fill="midnightblue" stroke="midnightblue" points="1125.55,-28.44 1119.32,-19.87 1118.85,-30.45 1125.55,-28.44"/>
</g>
<!-- Node24 -->
<g id="node24" class="node">
<title>Node24</title>
<g id="a_node24"><a xlink:href="_field_utils_8_h.html" target="_top" xlink:title=" ">
<polygon fill="white" stroke="black" points="1219.83,-56.5 1219.83,-75.5 1365.83,-75.5 1365.83,-56.5 1219.83,-56.5"/>
<text text-anchor="middle" x="1292.83" y="-63.5" font-family="Helvetica,sans-Serif" font-size="10.00">amr&#45;wind/core/FieldUtils.H</text>
</a>
</g>
</g>
<!-- Node21&#45;&gt;Node24 -->
<g id="edge26" class="edge">
<title>Node21&#45;&gt;Node24</title>
<path fill="none" stroke="midnightblue" d="M697.36,-184.88C718.54,-175.33 753.15,-159.15 781.83,-143 803.96,-130.54 805.85,-120.34 829.83,-112 988.41,-56.9 1038.79,-92.64 1205.83,-76 1207.11,-75.87 1208.39,-75.74 1209.69,-75.62"/>
<polygon fill="midnightblue" stroke="midnightblue" points="1210.14,-79.09 1219.74,-74.6 1209.44,-72.12 1210.14,-79.09"/>
</g>
<!-- Node25 -->
<g id="node25" class="node">
<title>Node25</title>
<g id="a_node25"><a xlink:title=" ">
<polygon fill="white" stroke="#bfbfbf" points="480.33,-0.5 480.33,-19.5 589.33,-19.5 589.33,-0.5 480.33,-0.5"/>
<text text-anchor="middle" x="534.83" y="-7.5" font-family="Helvetica,sans-Serif" font-size="10.00">AMReX_MultiFab.H</text>
</a>
</g>
</g>
<!-- Node21&#45;&gt;Node25 -->
<g id="edge57" class="edge">
<title>Node21&#45;&gt;Node25</title>
<path fill="none" stroke="midnightblue" d="M603.1,-193.86C461.64,-193.48 160.61,-187.3 67.83,-143 30.67,-125.26 19.16,-114.22 3.83,-76 0.53,-67.75 -2.18,-62.55 3.83,-56 34.8,-22.3 335.05,-13.81 469.87,-11.69"/>
<polygon fill="midnightblue" stroke="midnightblue" points="470.12,-15.19 480.06,-11.54 470.01,-8.19 470.12,-15.19"/>
</g>
<!-- Node27 -->
<g id="node27" class="node">
<title>Node27</title>
<g id="a_node27"><a xlink:href="_field_8_h.html" target="_top" xlink:title=" ">
<polygon fill="white" stroke="black" points="615.83,-118 615.83,-137 739.83,-137 739.83,-118 615.83,-118"/>
<text text-anchor="middle" x="677.83" y="-125" font-family="Helvetica,sans-Serif" font-size="10.00">amr&#45;wind/core/Field.H</text>
</a>
</g>
</g>
<!-- Node21&#45;&gt;Node27 -->
<g id="edge30" class="edge">
<title>Node21&#45;&gt;Node27</title>
<path fill="none" stroke="midnightblue" d="M677.83,-184.73C677.83,-175.18 677.83,-159.62 677.83,-147.28"/>
<polygon fill="midnightblue" stroke="midnightblue" points="681.33,-147.13 677.83,-137.13 674.33,-147.13 681.33,-147.13"/>
</g>
<!-- Node33 -->
<g id="node33" class="node">
<title>Node33</title>
<g id="a_node33"><a xlink:href="_int_field_8_h.html" target="_top" xlink:title=" ">
<polygon fill="white" stroke="black" points="97.33,-118 97.33,-137 234.33,-137 234.33,-118 97.33,-118"/>
<text text-anchor="middle" x="165.83" y="-125" font-family="Helvetica,sans-Serif" font-size="10.00">amr&#45;wind/core/IntField.H</text>
</a>
</g>
</g>
<!-- Node21&#45;&gt;Node33 -->
<g id="edge45" class="edge">
<title>Node21&#45;&gt;Node33</title>
<path fill="none" stroke="midnightblue" d="M603.27,-186C517.56,-177.08 372.76,-161.1 248.83,-143 240.11,-141.72 230.88,-140.25 221.88,-138.73"/>
<polygon fill="midnightblue" stroke="midnightblue" points="222.31,-135.25 211.86,-137.01 221.12,-142.15 222.31,-135.25"/>
</g>
<!-- Node34 -->
<g id="node34" class="node">
<title>Node34</title>
<g id="a_node34"><a xlink:title=" ">
<polygon fill="white" stroke="#bfbfbf" points="12.83,-56.5 12.83,-75.5 124.83,-75.5 124.83,-56.5 12.83,-56.5"/>
<text text-anchor="middle" x="68.83" y="-63.5" font-family="Helvetica,sans-Serif" font-size="10.00">AMReX_iMultiFab.H</text>
</a>
</g>
</g>
<!-- Node21&#45;&gt;Node34 -->
<g id="edge58" class="edge">
<title>Node21&#45;&gt;Node34</title>
<path fill="none" stroke="midnightblue" d="M603.26,-191.89C453.32,-187.98 126.28,-175.75 87.83,-143 71.53,-129.11 68.09,-103.54 67.87,-85.93"/>
<polygon fill="midnightblue" stroke="midnightblue" points="71.37,-85.77 68.08,-75.7 64.37,-85.63 71.37,-85.77"/>
</g>
<!-- Node35 -->
<g id="node35" class="node">
<title>Node35</title>
<g id="a_node35"><a xlink:href="_scratch_field_8_h.html" target="_top" xlink:title=" ">
<polygon fill="white" stroke="black" points="412.83,-118 412.83,-137 572.83,-137 572.83,-118 412.83,-118"/>
<text text-anchor="middle" x="492.83" y="-125" font-family="Helvetica,sans-Serif" font-size="10.00">amr&#45;wind/core/ScratchField.H</text>
</a>
</g>
</g>
<!-- Node21&#45;&gt;Node35 -->
<g id="edge49" class="edge">
<title>Node21&#45;&gt;Node35</title>
<path fill="none" stroke="midnightblue" d="M653.27,-184.87C620.83,-173.47 563.57,-153.35 526.95,-140.49"/>
<polygon fill="midnightblue" stroke="midnightblue" points="527.8,-137.08 517.21,-137.06 525.48,-143.68 527.8,-137.08"/>
</g>
<!-- Node24&#45;&gt;Node23 -->
<g id="edge27" class="edge">
<title>Node24&#45;&gt;Node23</title>
<path fill="none" stroke="midnightblue" d="M1264.79,-56.44C1234.75,-47.28 1186.92,-32.69 1153.59,-22.52"/>
<polygon fill="midnightblue" stroke="midnightblue" points="1154.34,-19.09 1143.75,-19.52 1152.29,-25.78 1154.34,-19.09"/>
</g>
<!-- Node24&#45;&gt;Node25 -->
<g id="edge28" class="edge">
<title>Node24&#45;&gt;Node25</title>
<path fill="none" stroke="midnightblue" d="M1219.8,-59.64C1202.75,-58.42 1184.66,-57.14 1167.83,-56 916.35,-38.95 852.68,-44.79 601.83,-20 601.09,-19.93 600.34,-19.85 599.59,-19.77"/>
<polygon fill="midnightblue" stroke="midnightblue" points="599.97,-16.29 589.64,-18.68 599.2,-23.25 599.97,-16.29"/>
</g>
<!-- Node26 -->
<g id="node26" class="node">
<title>Node26</title>
<g id="a_node26"><a xlink:title=" ">
<polygon fill="white" stroke="#bfbfbf" points="1230.83,-0.5 1230.83,-19.5 1354.83,-19.5 1354.83,-0.5 1230.83,-0.5"/>
<text text-anchor="middle" x="1292.83" y="-7.5" font-family="Helvetica,sans-Serif" font-size="10.00">AMReX_Interpolater.H</text>
</a>
</g>
</g>
<!-- Node24&#45;&gt;Node26 -->
<g id="edge29" class="edge">
<title>Node24&#45;&gt;Node26</title>
<path fill="none" stroke="midnightblue" d="M1292.83,-56.08C1292.83,-49.01 1292.83,-38.86 1292.83,-29.99"/>
<polygon fill="midnightblue" stroke="midnightblue" points="1296.33,-29.75 1292.83,-19.75 1289.33,-29.75 1296.33,-29.75"/>
</g>
<!-- Node27&#45;&gt;Node10 -->
<g id="edge32" class="edge">
<title>Node27&#45;&gt;Node10</title>
<path fill="none" stroke="midnightblue" d="M739.84,-121.3C776.95,-118.3 825.07,-114.62 867.83,-112 1212.89,-90.84 1300.27,-104.08 1644.83,-76 1657.08,-75 1670.38,-73.57 1682.42,-72.14"/>
<polygon fill="midnightblue" stroke="midnightblue" points="1683.13,-75.58 1692.63,-70.9 1682.28,-68.64 1683.13,-75.58"/>
</g>
<!-- Node27&#45;&gt;Node11 -->
<g id="edge33" class="edge">
<title>Node27&#45;&gt;Node11</title>
<path fill="none" stroke="midnightblue" d="M739.9,-119.96C767.43,-117.21 800.22,-114.17 829.83,-112 1138.94,-89.36 1220.52,-108.48 1532.88,-75.97"/>
<polygon fill="midnightblue" stroke="midnightblue" points="1533.55,-79.42 1543.13,-74.89 1532.82,-72.46 1533.55,-79.42"/>
</g>
<!-- Node27&#45;&gt;Node22 -->
<g id="edge31" class="edge">
<title>Node27&#45;&gt;Node22</title>
<path fill="none" stroke="midnightblue" d="M688.52,-117.9C703.84,-104.49 728.85,-77.86 715.83,-56 704.75,-37.38 682.97,-25.99 664.5,-19.32"/>
<polygon fill="midnightblue" stroke="midnightblue" points="665.54,-15.98 654.95,-16.18 663.35,-22.63 665.54,-15.98"/>
</g>
<!-- Node27&#45;&gt;Node23 -->
<g id="edge39" class="edge">
<title>Node27&#45;&gt;Node23</title>
<path fill="none" stroke="midnightblue" d="M719.14,-117.97C730.37,-115.83 742.54,-113.67 753.83,-112 829.43,-100.83 1036.83,-124.56 1095.83,-76 1109.35,-64.88 1113.92,-44.85 1115.37,-29.95"/>
<polygon fill="midnightblue" stroke="midnightblue" points="1118.87,-29.98 1115.97,-19.79 1111.89,-29.57 1118.87,-29.98"/>
</g>
<!-- Node27&#45;&gt;Node25 -->
<g id="edge35" class="edge">
<title>Node27&#45;&gt;Node25</title>
<path fill="none" stroke="midnightblue" d="M626.25,-117.97C599.8,-111 569.16,-98.45 549.83,-76 538.86,-63.26 535.51,-44.06 534.67,-29.83"/>
<polygon fill="midnightblue" stroke="midnightblue" points="538.16,-29.62 534.43,-19.7 531.16,-29.78 538.16,-29.62"/>
</g>
<!-- Node28 -->
<g id="node28" class="node">
<title>Node28</title>
<g id="a_node28"><a xlink:title=" ">
<polygon fill="white" stroke="#bfbfbf" points="800.83,-56.5 800.83,-75.5 864.83,-75.5 864.83,-56.5 800.83,-56.5"/>
<text text-anchor="middle" x="832.83" y="-63.5" font-family="Helvetica,sans-Serif" font-size="10.00">algorithm</text>
</a>
</g>
</g>
<!-- Node27&#45;&gt;Node28 -->
<g id="edge34" class="edge">
<title>Node27&#45;&gt;Node28</title>
<path fill="none" stroke="midnightblue" d="M700.04,-117.98C726.51,-107.81 770.95,-90.76 801.05,-79.2"/>
<polygon fill="midnightblue" stroke="midnightblue" points="802.59,-82.36 810.67,-75.51 800.08,-75.83 802.59,-82.36"/>
</g>
<!-- Node29 -->
<g id="node29" class="node">
<title>Node29</title>
<g id="a_node29"><a xlink:title=" ">
<polygon fill="white" stroke="#bfbfbf" points="883.33,-56.5 883.33,-75.5 982.33,-75.5 982.33,-56.5 883.33,-56.5"/>
<text text-anchor="middle" x="932.83" y="-63.5" font-family="Helvetica,sans-Serif" font-size="10.00">AMReX_BCRec.H</text>
</a>
</g>
</g>
<!-- Node27&#45;&gt;Node29 -->
<g id="edge36" class="edge">
<title>Node27&#45;&gt;Node29</title>
<path fill="none" stroke="midnightblue" d="M714.37,-117.98C759.72,-107.39 837.11,-89.34 886.56,-77.8"/>
<polygon fill="midnightblue" stroke="midnightblue" points="887.42,-81.19 896.37,-75.51 885.83,-74.37 887.42,-81.19"/>
</g>
<!-- Node30 -->
<g id="node30" class="node">
<title>Node30</title>
<g id="a_node30"><a xlink:title=" ">
<polygon fill="white" stroke="#bfbfbf" points="1000.33,-56.5 1000.33,-75.5 1087.33,-75.5 1087.33,-56.5 1000.33,-56.5"/>
<text text-anchor="middle" x="1043.83" y="-63.5" font-family="Helvetica,sans-Serif" font-size="10.00">AMReX_Gpu.H</text>
</a>
</g>
</g>
<!-- Node27&#45;&gt;Node30 -->
<g id="edge37" class="edge">
<title>Node27&#45;&gt;Node30</title>
<path fill="none" stroke="midnightblue" d="M721.19,-117.94C731.85,-115.91 743.24,-113.81 753.83,-112 855.67,-94.56 883.95,-93 990.01,-76.1"/>
<polygon fill="midnightblue" stroke="midnightblue" points="990.85,-79.51 1000.17,-74.48 989.74,-72.6 990.85,-79.51"/>
</g>
<!-- Node31 -->
<g id="node31" class="node">
<title>Node31</title>
<g id="a_node31"><a xlink:href="incflo__enums_8_h.html" target="_top" xlink:title=" ">
<polygon fill="white" stroke="black" points="1384.33,-56.5 1384.33,-75.5 1525.33,-75.5 1525.33,-56.5 1384.33,-56.5"/>
<text text-anchor="middle" x="1454.83" y="-63.5" font-family="Helvetica,sans-Serif" font-size="10.00">amr&#45;wind/incflo_enums.H</text>
</a>
</g>
</g>
<!-- Node27&#45;&gt;Node31 -->
<g id="edge38" class="edge">
<title>Node27&#45;&gt;Node31</title>
<path fill="none" stroke="midnightblue" d="M739.92,-120.16C767.45,-117.46 800.24,-114.39 829.83,-112 1068.49,-92.74 1131.34,-97.44 1373.99,-76.03"/>
<polygon fill="midnightblue" stroke="midnightblue" points="1374.53,-79.5 1384.18,-75.13 1373.91,-72.53 1374.53,-79.5"/>
</g>
<!-- Node32 -->
<g id="node32" class="node">
<title>Node32</title>
<g id="a_node32"><a xlink:href="_view_field_8_h.html" target="_top" xlink:title=" ">
<polygon fill="white" stroke="black" points="558.83,-56.5 558.83,-75.5 706.83,-75.5 706.83,-56.5 558.83,-56.5"/>
<text text-anchor="middle" x="632.83" y="-63.5" font-family="Helvetica,sans-Serif" font-size="10.00">amr&#45;wind/core/ViewField.H</text>
</a>
</g>
</g>
<!-- Node27&#45;&gt;Node32 -->
<g id="edge40" class="edge">
<title>Node27&#45;&gt;Node32</title>
<path fill="none" stroke="midnightblue" d="M671.39,-117.98C664.64,-109.05 653.86,-94.81 645.42,-83.64"/>
<polygon fill="midnightblue" stroke="midnightblue" points="648.09,-81.37 639.27,-75.51 642.51,-85.6 648.09,-81.37"/>
</g>
<!-- Node32&#45;&gt;Node15 -->
<g id="edge44" class="edge">
<title>Node32&#45;&gt;Node15</title>
<path fill="none" stroke="midnightblue" d="M707.11,-59.44C724.1,-58.24 742.09,-57.03 758.83,-56 1067.56,-37.08 1437.56,-19.98 1579.46,-13.62"/>
<polygon fill="midnightblue" stroke="midnightblue" points="1579.85,-17.11 1589.68,-13.16 1579.53,-10.11 1579.85,-17.11"/>
</g>
<!-- Node32&#45;&gt;Node22 -->
<g id="edge41" class="edge">
<title>Node32&#45;&gt;Node22</title>
<path fill="none" stroke="midnightblue" d="M632.83,-56.08C632.83,-49.01 632.83,-38.86 632.83,-29.99"/>
<polygon fill="midnightblue" stroke="midnightblue" points="636.33,-29.75 632.83,-19.75 629.33,-29.75 636.33,-29.75"/>
</g>
<!-- Node32&#45;&gt;Node23 -->
<g id="edge42" class="edge">
<title>Node32&#45;&gt;Node23</title>
<path fill="none" stroke="midnightblue" d="M706.98,-56.71C793.9,-46.99 937.71,-30.91 1029.55,-20.65"/>
<polygon fill="midnightblue" stroke="midnightblue" points="1030.11,-24.11 1039.66,-19.52 1029.33,-17.15 1030.11,-24.11"/>
</g>
<!-- Node32&#45;&gt;Node25 -->
<g id="edge43" class="edge">
<title>Node32&#45;&gt;Node25</title>
<path fill="none" stroke="midnightblue" d="M617.09,-56.32C601.52,-47.74 577.46,-34.49 559.37,-24.52"/>
<polygon fill="midnightblue" stroke="midnightblue" points="560.99,-21.42 550.54,-19.65 557.61,-27.55 560.99,-21.42"/>
</g>
<!-- Node33&#45;&gt;Node22 -->
<g id="edge46" class="edge">
<title>Node33&#45;&gt;Node22</title>
<path fill="none" stroke="midnightblue" d="M169.05,-117.71C175.23,-102.2 190.38,-70.28 214.83,-56 288.65,-12.89 513.62,-34.69 597.83,-20 598.75,-19.84 599.68,-19.67 600.62,-19.49"/>
<polygon fill="midnightblue" stroke="midnightblue" points="601.72,-22.83 610.73,-17.25 600.21,-15.99 601.72,-22.83"/>
</g>
<!-- Node33&#45;&gt;Node23 -->
<g id="edge47" class="edge">
<title>Node33&#45;&gt;Node23</title>
<path fill="none" stroke="midnightblue" d="M176.26,-117.99C196.12,-102.35 241.41,-69.38 285.83,-56 354.2,-35.4 812.91,-19.76 1017.58,-13.72"/>
<polygon fill="midnightblue" stroke="midnightblue" points="1017.83,-17.21 1027.72,-13.42 1017.62,-10.21 1017.83,-17.21"/>
</g>
<!-- Node33&#45;&gt;Node34 -->
<g id="edge48" class="edge">
<title>Node33&#45;&gt;Node34</title>
<path fill="none" stroke="midnightblue" d="M151.94,-117.98C136.16,-108.3 110.2,-92.37 91.48,-80.89"/>
<polygon fill="midnightblue" stroke="midnightblue" points="93.06,-77.75 82.71,-75.51 89.4,-83.72 93.06,-77.75"/>
</g>
<!-- Node35&#45;&gt;Node15 -->
<g id="edge54" class="edge">
<title>Node35&#45;&gt;Node15</title>
<path fill="none" stroke="midnightblue" d="M532.41,-117.97C577.06,-108.25 651.83,-91.66 715.83,-76 749.76,-67.7 757.33,-61.4 791.83,-56 868.99,-43.93 1399.86,-20.96 1579.54,-13.45"/>
<polygon fill="midnightblue" stroke="midnightblue" points="1579.76,-16.94 1589.6,-13.03 1579.46,-9.95 1579.76,-16.94"/>
</g>
<!-- Node35&#45;&gt;Node22 -->
<g id="edge50" class="edge">
<title>Node35&#45;&gt;Node22</title>
<path fill="none" stroke="midnightblue" d="M487.14,-117.73C478.61,-103.37 464.91,-74.57 478.83,-56 482.58,-51 556.87,-30.86 600.88,-19.29"/>
<polygon fill="midnightblue" stroke="midnightblue" points="602.04,-22.61 610.82,-16.69 600.26,-15.84 602.04,-22.61"/>
</g>
<!-- Node35&#45;&gt;Node23 -->
<g id="edge51" class="edge">
<title>Node35&#45;&gt;Node23</title>
<path fill="none" stroke="midnightblue" d="M496.97,-117.64C504.8,-102.02 523.38,-69.95 549.83,-56 590.06,-34.8 866.32,-20.78 1017.48,-14.61"/>
<polygon fill="midnightblue" stroke="midnightblue" points="1017.85,-18.1 1027.7,-14.19 1017.56,-11.1 1017.85,-18.1"/>
</g>
<!-- Node35&#45;&gt;Node25 -->
<g id="edge53" class="edge">
<title>Node35&#45;&gt;Node25</title>
<path fill="none" stroke="midnightblue" d="M412.63,-123.98C338.91,-118.75 246.58,-102.98 285.83,-56 308.86,-28.44 404.04,-17.73 469.82,-13.59"/>
<polygon fill="midnightblue" stroke="midnightblue" points="470.34,-17.06 480.11,-12.97 469.92,-10.07 470.34,-17.06"/>
</g>
<!-- Node35&#45;&gt;Node32 -->
<g id="edge52" class="edge">
<title>Node35&#45;&gt;Node32</title>
<path fill="none" stroke="midnightblue" d="M512.89,-117.98C536.6,-107.9 576.24,-91.05 603.42,-79.5"/>
<polygon fill="midnightblue" stroke="midnightblue" points="604.98,-82.64 612.81,-75.51 602.24,-76.2 604.98,-82.64"/>
</g>
<!-- Node36 -->
<g id="node36" class="node">
<title>Node36</title>
<g id="a_node36"><a xlink:title=" ">
<polygon fill="white" stroke="#bfbfbf" points="295.33,-56.5 295.33,-75.5 426.33,-75.5 426.33,-56.5 295.33,-56.5"/>
<text text-anchor="middle" x="360.83" y="-63.5" font-family="Helvetica,sans-Serif" font-size="10.00">AMReX_PhysBCFunct.H</text>
</a>
</g>
</g>
<!-- Node35&#45;&gt;Node36 -->
<g id="edge55" class="edge">
<title>Node35&#45;&gt;Node36</title>
<path fill="none" stroke="midnightblue" d="M473.92,-117.98C451.67,-107.95 414.52,-91.2 388.91,-79.65"/>
<polygon fill="midnightblue" stroke="midnightblue" points="390.27,-76.43 379.71,-75.51 387.39,-82.81 390.27,-76.43"/>
</g>
<!-- Node37&#45;&gt;Node9 -->
<g id="edge61" class="edge">
<title>Node37&#45;&gt;Node9</title>
<path fill="none" stroke="midnightblue" d="M2003.49,-179.4C2000.56,-169.86 1996.66,-157.18 1993.48,-146.86"/>
<polygon fill="midnightblue" stroke="midnightblue" points="1996.8,-145.72 1990.51,-137.19 1990.1,-147.78 1996.8,-145.72"/>
</g>
<!-- Node37&#45;&gt;Node22 -->
<g id="edge60" class="edge">
<title>Node37&#45;&gt;Node22</title>
<path fill="none" stroke="midnightblue" d="M2031.3,-179.32C2043.46,-170.54 2057.13,-158.07 2063.83,-143 2079.55,-107.67 2090.74,-83.77 2063.83,-56 2057.53,-49.5 876.55,-17.54 665.06,-11.86"/>
<polygon fill="midnightblue" stroke="midnightblue" points="665.01,-8.36 654.92,-11.59 664.82,-15.36 665.01,-8.36"/>
</g>
<!-- Node37&#45;&gt;Node23 -->
<g id="edge69" class="edge">
<title>Node37&#45;&gt;Node23</title>
<path fill="none" stroke="midnightblue" d="M2052.06,-179.44C2069.18,-171.59 2087,-159.89 2096.83,-143 2116.29,-109.59 2123.61,-83.9 2096.83,-56 2063.15,-20.9 1270.39,-23.06 1221.83,-20 1219.29,-19.84 1216.72,-19.67 1214.12,-19.49"/>
<polygon fill="midnightblue" stroke="midnightblue" points="1214.24,-15.99 1204.02,-18.78 1213.75,-22.98 1214.24,-15.99"/>
</g>
<!-- Node37&#45;&gt;Node31 -->
<g id="edge70" class="edge">
<title>Node37&#45;&gt;Node31</title>
<path fill="none" stroke="midnightblue" d="M1930.07,-180.38C1926.95,-179.91 1923.86,-179.44 1920.83,-179 1794.07,-160.47 1752.91,-192.7 1634.83,-143 1614.43,-134.41 1615.37,-122.43 1595.83,-112 1567.06,-96.64 1532.17,-85.45 1504.29,-78.07"/>
<polygon fill="midnightblue" stroke="midnightblue" points="1504.91,-74.62 1494.36,-75.53 1503.17,-81.4 1504.91,-74.62"/>
</g>
<!-- Node38 -->
<g id="node38" class="node">
<title>Node38</title>
<g id="a_node38"><a xlink:href="_coll_mgr_8_h.html" target="_top" xlink:title=" ">
<polygon fill="white" stroke="black" points="1644.33,-118 1644.33,-137 1781.33,-137 1781.33,-118 1644.33,-118"/>
<text text-anchor="middle" x="1712.83" y="-125" font-family="Helvetica,sans-Serif" font-size="10.00">amr&#45;wind/core/CollMgr.H</text>
</a>
</g>
</g>
<!-- Node37&#45;&gt;Node38 -->
<g id="edge62" class="edge">
<title>Node37&#45;&gt;Node38</title>
<path fill="none" stroke="midnightblue" d="M1944.19,-179.48C1889.36,-167.4 1811.38,-150.21 1761.45,-139.21"/>
<polygon fill="midnightblue" stroke="midnightblue" points="1762.06,-135.76 1751.54,-137.03 1760.55,-142.6 1762.06,-135.76"/>
</g>
<!-- Node39 -->
<g id="node39" class="node">
<title>Node39</title>
<g id="a_node39"><a xlink:href="_p_d_e_fields_8_h.html" target="_top" xlink:title=" ">
<polygon fill="white" stroke="black" points="2149.33,-112.5 2149.33,-142.5 2304.33,-142.5 2304.33,-112.5 2149.33,-112.5"/>
<text text-anchor="start" x="2157.33" y="-130.5" font-family="Helvetica,sans-Serif" font-size="10.00">amr&#45;wind/equation_systems</text>
<text text-anchor="middle" x="2226.83" y="-119.5" font-family="Helvetica,sans-Serif" font-size="10.00">/PDEFields.H</text>
</a>
</g>
</g>
<!-- Node37&#45;&gt;Node39 -->
<g id="edge67" class="edge">
<title>Node37&#45;&gt;Node39</title>
<path fill="none" stroke="midnightblue" d="M2055.08,-179.48C2088.65,-169.51 2133.89,-156.09 2169.52,-145.51"/>
<polygon fill="midnightblue" stroke="midnightblue" points="2170.7,-148.81 2179.29,-142.61 2168.71,-142.1 2170.7,-148.81"/>
</g>
<!-- Node38&#45;&gt;Node10 -->
<g id="edge64" class="edge">
<title>Node38&#45;&gt;Node10</title>
<path fill="none" stroke="midnightblue" d="M1714.12,-117.98C1715.39,-109.58 1717.37,-96.48 1719.01,-85.66"/>
<polygon fill="midnightblue" stroke="midnightblue" points="1722.51,-85.92 1720.55,-75.51 1715.59,-84.87 1722.51,-85.92"/>
</g>
<!-- Node38&#45;&gt;Node11 -->
<g id="edge65" class="edge">
<title>Node38&#45;&gt;Node11</title>
<path fill="none" stroke="midnightblue" d="M1695.21,-117.98C1674.66,-108.03 1640.47,-91.49 1616.63,-79.96"/>
<polygon fill="midnightblue" stroke="midnightblue" points="1617.95,-76.71 1607.42,-75.51 1614.9,-83.01 1617.95,-76.71"/>
</g>
<!-- Node38&#45;&gt;Node15 -->
<g id="edge66" class="edge">
<title>Node38&#45;&gt;Node15</title>
<path fill="none" stroke="midnightblue" d="M1760.38,-117.91C1805.58,-107.63 1863.19,-87.73 1837.83,-56 1820.58,-34.4 1750.38,-22.41 1698.22,-16.34"/>
<polygon fill="midnightblue" stroke="midnightblue" points="1698.37,-12.84 1688.05,-15.21 1697.6,-19.8 1698.37,-12.84"/>
</g>
<!-- Node38&#45;&gt;Node22 -->
<g id="edge63" class="edge">
<title>Node38&#45;&gt;Node22</title>
<path fill="none" stroke="midnightblue" d="M1707.63,-117.76C1697.72,-102.03 1674.44,-69.36 1644.83,-56 1599.2,-35.4 833.79,-15.84 665.42,-11.77"/>
<polygon fill="midnightblue" stroke="midnightblue" points="665.29,-8.27 655.21,-11.53 665.12,-15.26 665.29,-8.27"/>
</g>
<!-- Node39&#45;&gt;Node5 -->
<g id="edge68" class="edge">
<title>Node39&#45;&gt;Node5</title>
<path fill="none" stroke="midnightblue" d="M2237.74,-112.4C2244.42,-103.75 2253.01,-92.64 2260.02,-83.58"/>
<polygon fill="midnightblue" stroke="midnightblue" points="2262.79,-85.71 2266.14,-75.66 2257.26,-81.43 2262.79,-85.71"/>
</g>
<!-- Node40&#45;&gt;Node9 -->
<g id="edge72" class="edge">
<title>Node40&#45;&gt;Node9</title>
<path fill="none" stroke="midnightblue" d="M1598.48,-185.54C1674.89,-176.42 1801.96,-160.45 1910.83,-143 1918.58,-141.76 1926.74,-140.34 1934.74,-138.89"/>
<polygon fill="midnightblue" stroke="midnightblue" points="1935.54,-142.3 1944.74,-137.04 1934.27,-135.42 1935.54,-142.3"/>
</g>
<!-- Node40&#45;&gt;Node25 -->
<g id="edge74" class="edge">
<title>Node40&#45;&gt;Node25</title>
<path fill="none" stroke="midnightblue" d="M1517.87,-184.7C1504.38,-174.73 1481.86,-157.92 1462.83,-143 1445.68,-129.55 1444.69,-121 1424.83,-112 1336.99,-72.19 1305.9,-92.26 1210.83,-76 1159.7,-67.25 1147.32,-62.34 1095.83,-56 877.34,-29.11 820.8,-42.66 601.83,-20 601.09,-19.92 600.34,-19.84 599.59,-19.76"/>
<polygon fill="midnightblue" stroke="midnightblue" points="599.98,-16.29 589.65,-18.64 599.19,-23.24 599.98,-16.29"/>
</g>
<!-- Node40&#45;&gt;Node38 -->
<g id="edge73" class="edge">
<title>Node40&#45;&gt;Node38</title>
<path fill="none" stroke="midnightblue" d="M1554.13,-184.87C1586.22,-173.47 1642.86,-153.35 1679.09,-140.49"/>
<polygon fill="midnightblue" stroke="midnightblue" points="1680.47,-143.71 1688.72,-137.06 1678.13,-137.11 1680.47,-143.71"/>
</g>
<!-- Node41 -->
<g id="node41" class="node">
<title>Node41</title>
<g id="a_node41"><a xlink:title=" ">
<polygon fill="white" stroke="#bfbfbf" points="1472.33,-118 1472.33,-137 1587.33,-137 1587.33,-118 1472.33,-118"/>
<text text-anchor="middle" x="1529.83" y="-125" font-family="Helvetica,sans-Serif" font-size="10.00">AMReX_Geometry.H</text>
</a>
</g>
</g>
<!-- Node40&#45;&gt;Node41 -->
<g id="edge75" class="edge">
<title>Node40&#45;&gt;Node41</title>
<path fill="none" stroke="midnightblue" d="M1529.83,-184.73C1529.83,-175.18 1529.83,-159.62 1529.83,-147.28"/>
<polygon fill="midnightblue" stroke="midnightblue" points="1533.33,-147.13 1529.83,-137.13 1526.33,-147.13 1533.33,-147.13"/>
</g>
</g>
</svg>
