<?xml version="1.0" encoding="UTF-8" standalone="no"?>
<!DOCTYPE svg PUBLIC "-//W3C//DTD SVG 1.1//EN"
 "http://www.w3.org/Graphics/SVG/1.1/DTD/svg11.dtd">
<!-- Generated by graphviz version 2.43.0 (0)
 -->
<!-- Title: ChannelFlow.cpp Pages: 1 -->
<!--zoomable 397 -->
<svg id="main" version="1.1" xmlns="http://www.w3.org/2000/svg" xmlns:xlink="http://www.w3.org/1999/xlink" xml:space="preserve" onload="init(evt)">
<style type="text/css"><![CDATA[
.edge:hover path { stroke: red; }
.edge:hover polygon { stroke: red; fill: red; }
]]></style>
<script type="text/javascript"><![CDATA[
var edges = document.getElementsByTagName('g');
if (edges && edges.length) {
  for (var i=0;i<edges.length;i++) {
    if (edges[i].id.substr(0,4)=='edge') {
      edges[i].setAttribute('class','edge');
    }
  }
}
]]></script>
        <defs>
                <circle id="rim" cx="0" cy="0" r="7"/>
                <circle id="rim2" cx="0" cy="0" r="3.5"/>
                <g id="zoomPlus">
                        <use xlink:href="#rim" fill="#404040">
                                <set attributeName="fill" to="#808080" begin="zoomplus.mouseover" end="zoomplus.mouseout"/>
                        </use>
                        <path d="M-4,0h8M0,-4v8" fill="none" stroke="white" stroke-width="1.5" pointer-events="none"/>
                </g>
                <g id="zoomMin">
                        <use xlink:href="#rim" fill="#404040">
                                <set attributeName="fill" to="#808080" begin="zoomminus.mouseover" end="zoomminus.mouseout"/>
                        </use>
                        <path d="M-4,0h8" fill="none" stroke="white" stroke-width="1.5" pointer-events="none"/>
                </g>
                <g id="dirArrow">
                        <path fill="none" stroke="white" stroke-width="1.5" d="M0,-3.0v7 M-2.5,-0.5L0,-3.0L2.5,-0.5"/>
                </g>
               <g id="resetDef">
                       <use xlink:href="#rim2" fill="#404040">
                               <set attributeName="fill" to="#808080" begin="reset.mouseover" end="reset.mouseout"/>
                       </use>
               </g>
        </defs>

<script type="text/javascript">
var viewWidth = 3085;
var viewHeight = 397;
var sectionId = 'dynsection-0';
</script>
<script xlink:href="svgpan.js"/>
<svg id="graph" class="graph">
<g id="viewport">
<title>ChannelFlow.cpp</title>
<polygon fill="white" stroke="transparent" points="-4,4 -4,-393 3081,-393 3081,4 -4,4"/>
<!-- Node1 -->
<g id="node1" class="node">
<title>Node1</title>
<g id="a_node1"><a xlink:title=" ">
<polygon fill="#bfbfbf" stroke="black" points="2636,-369.5 2636,-388.5 2735,-388.5 2735,-369.5 2636,-369.5"/>
<text text-anchor="middle" x="2685.5" y="-376.5" font-family="Helvetica,sans-Serif" font-size="10.00">ChannelFlow.cpp</text>
</a>
</g>
</g>
<!-- Node2 -->
<g id="node2" class="node">
<title>Node2</title>
<g id="a_node2"><a xlink:href="_channel_flow_8_h.html" target="_top" xlink:title=" ">
<polygon fill="white" stroke="black" points="1425.5,-302.5 1425.5,-332.5 1571.5,-332.5 1571.5,-302.5 1425.5,-302.5"/>
<text text-anchor="start" x="1433.5" y="-320.5" font-family="Helvetica,sans-Serif" font-size="10.00">amr&#45;wind/physics/Channel</text>
<text text-anchor="middle" x="1498.5" y="-309.5" font-family="Helvetica,sans-Serif" font-size="10.00">Flow.H</text>
</a>
</g>
</g>
<!-- Node1&#45;&gt;Node2 -->
<g id="edge1" class="edge">
<title>Node1&#45;&gt;Node2</title>
<path fill="none" stroke="midnightblue" d="M2635.63,-375.5C2452,-366.3 1812.21,-334.23 1581.91,-322.68"/>
<polygon fill="midnightblue" stroke="midnightblue" points="1581.75,-319.17 1571.59,-322.16 1581.4,-326.16 1581.75,-319.17"/>
</g>
<!-- Node22 -->
<g id="node22" class="node">
<title>Node22</title>
<g id="a_node22"><a xlink:href="_c_f_d_sim_8_h.html" target="_top" xlink:title=" ">
<polygon fill="white" stroke="black" points="1871.5,-246.5 1871.5,-265.5 1987.5,-265.5 1987.5,-246.5 1871.5,-246.5"/>
<text text-anchor="middle" x="1929.5" y="-253.5" font-family="Helvetica,sans-Serif" font-size="10.00">amr&#45;wind/CFDSim.H</text>
</a>
</g>
</g>
<!-- Node1&#45;&gt;Node22 -->
<g id="edge69" class="edge">
<title>Node1&#45;&gt;Node22</title>
<path fill="none" stroke="midnightblue" d="M2635.9,-370.06C2503.25,-348.83 2140.44,-290.76 1993.03,-267.17"/>
<polygon fill="midnightblue" stroke="midnightblue" points="1993.22,-263.65 1982.79,-265.53 1992.11,-270.57 1993.22,-263.65"/>
</g>
<!-- Node32 -->
<g id="node32" class="node">
<title>Node32</title>
<g id="a_node32"><a xlink:title=" ">
<polygon fill="white" stroke="#bfbfbf" points="1899.5,-56.5 1899.5,-75.5 2011.5,-75.5 2011.5,-56.5 1899.5,-56.5"/>
<text text-anchor="middle" x="1955.5" y="-63.5" font-family="Helvetica,sans-Serif" font-size="10.00">AMReX_iMultiFab.H</text>
</a>
</g>
</g>
<!-- Node1&#45;&gt;Node32 -->
<g id="edge70" class="edge">
<title>Node1&#45;&gt;Node32</title>
<path fill="none" stroke="midnightblue" d="M2659.97,-369.39C2619.33,-353.88 2544.5,-317.16 2544.5,-257 2544.5,-257 2544.5,-257 2544.5,-193.5 2544.5,-156.31 2553.7,-136.25 2525.5,-112 2516.05,-103.87 2170.3,-80.78 2021.98,-71.22"/>
<polygon fill="midnightblue" stroke="midnightblue" points="2021.85,-67.71 2011.64,-70.56 2021.4,-74.69 2021.85,-67.71"/>
</g>
<!-- Node38 -->
<g id="node38" class="node">
<title>Node38</title>
<g id="a_node38"><a xlink:title=" ">
<polygon fill="white" stroke="#bfbfbf" points="2813.5,-308 2813.5,-327 2939.5,-327 2939.5,-308 2813.5,-308"/>
<text text-anchor="middle" x="2876.5" y="-315" font-family="Helvetica,sans-Serif" font-size="10.00">AMReX_MultiFabUtil.H</text>
</a>
</g>
</g>
<!-- Node1&#45;&gt;Node38 -->
<g id="edge71" class="edge">
<title>Node1&#45;&gt;Node38</title>
<path fill="none" stroke="midnightblue" d="M2712.87,-369.48C2746.05,-359.14 2802.15,-341.66 2839.26,-330.1"/>
<polygon fill="midnightblue" stroke="midnightblue" points="2840.68,-333.32 2849.19,-327.01 2838.6,-326.64 2840.68,-333.32"/>
</g>
<!-- Node39 -->
<g id="node39" class="node">
<title>Node39</title>
<g id="a_node39"><a xlink:title=" ">
<polygon fill="white" stroke="#bfbfbf" points="2958,-308 2958,-327 3077,-327 3077,-308 2958,-308"/>
<text text-anchor="middle" x="3017.5" y="-315" font-family="Helvetica,sans-Serif" font-size="10.00">AMReX_ParmParse.H</text>
</a>
</g>
</g>
<!-- Node1&#45;&gt;Node39 -->
<g id="edge72" class="edge">
<title>Node1&#45;&gt;Node39</title>
<path fill="none" stroke="midnightblue" d="M2735.04,-370.09C2787.99,-361.51 2874.33,-347.13 2948.5,-333 2954.81,-331.8 2961.44,-330.48 2967.98,-329.14"/>
<polygon fill="midnightblue" stroke="midnightblue" points="2969.06,-332.49 2978.14,-327.04 2967.64,-325.64 2969.06,-332.49"/>
</g>
<!-- Node40 -->
<g id="node40" class="node">
<title>Node40</title>
<g id="a_node40"><a xlink:href="trig__ops_8_h.html" target="_top" xlink:title=" ">
<polygon fill="white" stroke="black" points="2719,-179.5 2719,-209.5 2822,-209.5 2822,-179.5 2719,-179.5"/>
<text text-anchor="start" x="2727" y="-197.5" font-family="Helvetica,sans-Serif" font-size="10.00">amr&#45;wind/utilities</text>
<text text-anchor="middle" x="2770.5" y="-186.5" font-family="Helvetica,sans-Serif" font-size="10.00">/trig_ops.H</text>
</a>
</g>
</g>
<!-- Node1&#45;&gt;Node40 -->
<g id="edge73" class="edge">
<title>Node1&#45;&gt;Node40</title>
<path fill="none" stroke="midnightblue" d="M2705.29,-369.49C2720.26,-362.03 2740.13,-349.75 2751.5,-333 2774.54,-299.05 2775.34,-249.45 2773.29,-220.02"/>
<polygon fill="midnightblue" stroke="midnightblue" points="2776.75,-219.47 2772.4,-209.81 2769.78,-220.07 2776.75,-219.47"/>
</g>
<!-- Node42 -->
<g id="node42" class="node">
<title>Node42</title>
<g id="a_node42"><a xlink:href="_direction_selector_8_h.html" target="_top" xlink:title=" ">
<polygon fill="white" stroke="black" points="2629,-302.5 2629,-332.5 2742,-332.5 2742,-302.5 2629,-302.5"/>
<text text-anchor="start" x="2637" y="-320.5" font-family="Helvetica,sans-Serif" font-size="10.00">amr&#45;wind/utilities</text>
<text text-anchor="middle" x="2685.5" y="-309.5" font-family="Helvetica,sans-Serif" font-size="10.00">/DirectionSelector.H</text>
</a>
</g>
</g>
<!-- Node1&#45;&gt;Node42 -->
<g id="edge77" class="edge">
<title>Node1&#45;&gt;Node42</title>
<path fill="none" stroke="midnightblue" d="M2685.5,-369.48C2685.5,-362.47 2685.5,-352.19 2685.5,-342.7"/>
<polygon fill="midnightblue" stroke="midnightblue" points="2689,-342.52 2685.5,-332.52 2682,-342.52 2689,-342.52"/>
</g>
<!-- Node3 -->
<g id="node3" class="node">
<title>Node3</title>
<g id="a_node3"><a xlink:href="_physics_8_h.html" target="_top" xlink:title=" ">
<polygon fill="white" stroke="black" points="378,-185 378,-204 515,-204 515,-185 378,-185"/>
<text text-anchor="middle" x="446.5" y="-192" font-family="Helvetica,sans-Serif" font-size="10.00">amr&#45;wind/core/Physics.H</text>
</a>
</g>
</g>
<!-- Node2&#45;&gt;Node3 -->
<g id="edge2" class="edge">
<title>Node2&#45;&gt;Node3</title>
<path fill="none" stroke="midnightblue" d="M1425.22,-310.05C1325.44,-301.1 1141.29,-283.97 984.5,-266 816.26,-246.72 619.02,-219.75 516.46,-205.4"/>
<polygon fill="midnightblue" stroke="midnightblue" points="516.92,-201.93 506.53,-204.01 515.95,-208.87 516.92,-201.93"/>
</g>
<!-- Node15 -->
<g id="node15" class="node">
<title>Node15</title>
<g id="a_node15"><a xlink:href="_field_8_h.html" target="_top" xlink:title=" ">
<polygon fill="white" stroke="black" points="930.5,-118 930.5,-137 1054.5,-137 1054.5,-118 930.5,-118"/>
<text text-anchor="middle" x="992.5" y="-125" font-family="Helvetica,sans-Serif" font-size="10.00">amr&#45;wind/core/Field.H</text>
</a>
</g>
</g>
<!-- Node2&#45;&gt;Node15 -->
<g id="edge16" class="edge">
<title>Node2&#45;&gt;Node15</title>
<path fill="none" stroke="midnightblue" d="M1425.3,-308C1308.87,-293.18 1088.49,-259.39 1028.5,-210 1009.23,-194.13 999.94,-165.87 995.72,-147.16"/>
<polygon fill="midnightblue" stroke="midnightblue" points="999.12,-146.3 993.74,-137.17 992.25,-147.66 999.12,-146.3"/>
</g>
<!-- Node2&#45;&gt;Node22 -->
<g id="edge31" class="edge">
<title>Node2&#45;&gt;Node22</title>
<path fill="none" stroke="midnightblue" d="M1571.61,-306.41C1652.52,-295.24 1781.89,-277.38 1860.93,-266.47"/>
<polygon fill="midnightblue" stroke="midnightblue" points="1861.83,-269.87 1871.26,-265.04 1860.88,-262.94 1861.83,-269.87"/>
</g>
<!-- Node4 -->
<g id="node4" class="node">
<title>Node4</title>
<g id="a_node4"><a xlink:href="_factory_8_h.html" target="_top" xlink:title=" ">
<polygon fill="white" stroke="black" points="302.5,-118 302.5,-137 436.5,-137 436.5,-118 302.5,-118"/>
<text text-anchor="middle" x="369.5" y="-125" font-family="Helvetica,sans-Serif" font-size="10.00">amr&#45;wind/core/Factory.H</text>
</a>
</g>
</g>
<!-- Node3&#45;&gt;Node4 -->
<g id="edge3" class="edge">
<title>Node3&#45;&gt;Node4</title>
<path fill="none" stroke="midnightblue" d="M436.12,-184.73C423.65,-174.21 402.53,-156.38 387.41,-143.62"/>
<polygon fill="midnightblue" stroke="midnightblue" points="389.62,-140.9 379.72,-137.13 385.1,-146.25 389.62,-140.9"/>
</g>
<!-- Node10 -->
<g id="node10" class="node">
<title>Node10</title>
<g id="a_node10"><a xlink:href="_coll_mgr_8_h.html" target="_top" xlink:title=" ">
<polygon fill="white" stroke="black" points="455,-118 455,-137 592,-137 592,-118 455,-118"/>
<text text-anchor="middle" x="523.5" y="-125" font-family="Helvetica,sans-Serif" font-size="10.00">amr&#45;wind/core/CollMgr.H</text>
</a>
</g>
</g>
<!-- Node3&#45;&gt;Node10 -->
<g id="edge9" class="edge">
<title>Node3&#45;&gt;Node10</title>
<path fill="none" stroke="midnightblue" d="M456.88,-184.73C469.35,-174.21 490.47,-156.38 505.59,-143.62"/>
<polygon fill="midnightblue" stroke="midnightblue" points="507.9,-146.25 513.28,-137.13 503.38,-140.9 507.9,-146.25"/>
</g>
<!-- Node13 -->
<g id="node13" class="node">
<title>Node13</title>
<g id="a_node13"><a xlink:title=" ">
<polygon fill="white" stroke="#bfbfbf" points="1445,-0.5 1445,-19.5 1554,-19.5 1554,-0.5 1445,-0.5"/>
<text text-anchor="middle" x="1499.5" y="-7.5" font-family="Helvetica,sans-Serif" font-size="10.00">AMReX_MultiFab.H</text>
</a>
</g>
</g>
<!-- Node3&#45;&gt;Node13 -->
<g id="edge14" class="edge">
<title>Node3&#45;&gt;Node13</title>
<path fill="none" stroke="midnightblue" d="M380.59,-185C276.06,-169.09 91.04,-129.59 162.5,-56 209.77,-7.31 1315.73,-23.63 1383.5,-20 1400.12,-19.11 1418.06,-17.86 1434.75,-16.58"/>
<polygon fill="midnightblue" stroke="midnightblue" points="1435.26,-20.05 1444.95,-15.77 1434.71,-13.07 1435.26,-20.05"/>
</g>
<!-- Node14 -->
<g id="node14" class="node">
<title>Node14</title>
<g id="a_node14"><a xlink:title=" ">
<polygon fill="white" stroke="#bfbfbf" points="0,-118 0,-137 115,-137 115,-118 0,-118"/>
<text text-anchor="middle" x="57.5" y="-125" font-family="Helvetica,sans-Serif" font-size="10.00">AMReX_Geometry.H</text>
</a>
</g>
</g>
<!-- Node3&#45;&gt;Node14 -->
<g id="edge15" class="edge">
<title>Node3&#45;&gt;Node14</title>
<path fill="none" stroke="midnightblue" d="M388.54,-184.99C324.88,-175.48 219.72,-159.26 129.5,-143 122.76,-141.78 115.67,-140.44 108.68,-139.07"/>
<polygon fill="midnightblue" stroke="midnightblue" points="109.06,-135.58 98.57,-137.07 107.7,-142.45 109.06,-135.58"/>
</g>
<!-- Node5 -->
<g id="node5" class="node">
<title>Node5</title>
<g id="a_node5"><a xlink:title=" ">
<polygon fill="white" stroke="#bfbfbf" points="475.5,-56.5 475.5,-75.5 533.5,-75.5 533.5,-56.5 475.5,-56.5"/>
<text text-anchor="middle" x="504.5" y="-63.5" font-family="Helvetica,sans-Serif" font-size="10.00">memory</text>
</a>
</g>
</g>
<!-- Node4&#45;&gt;Node5 -->
<g id="edge4" class="edge">
<title>Node4&#45;&gt;Node5</title>
<path fill="none" stroke="midnightblue" d="M388.84,-117.98C411.6,-107.95 449.59,-91.2 475.79,-79.65"/>
<polygon fill="midnightblue" stroke="midnightblue" points="477.45,-82.74 485.19,-75.51 474.63,-76.34 477.45,-82.74"/>
</g>
<!-- Node6 -->
<g id="node6" class="node">
<title>Node6</title>
<g id="a_node6"><a xlink:title=" ">
<polygon fill="white" stroke="#bfbfbf" points="628,-56.5 628,-75.5 721,-75.5 721,-56.5 628,-56.5"/>
<text text-anchor="middle" x="674.5" y="-63.5" font-family="Helvetica,sans-Serif" font-size="10.00">unordered_map</text>
</a>
</g>
</g>
<!-- Node4&#45;&gt;Node6 -->
<g id="edge5" class="edge">
<title>Node4&#45;&gt;Node6</title>
<path fill="none" stroke="midnightblue" d="M413.2,-117.98C468.01,-107.28 561.94,-88.96 621,-77.44"/>
<polygon fill="midnightblue" stroke="midnightblue" points="621.74,-80.86 630.88,-75.51 620.4,-73.99 621.74,-80.86"/>
</g>
<!-- Node7 -->
<g id="node7" class="node">
<title>Node7</title>
<g id="a_node7"><a xlink:title=" ">
<polygon fill="white" stroke="#bfbfbf" points="171.5,-56.5 171.5,-75.5 231.5,-75.5 231.5,-56.5 171.5,-56.5"/>
<text text-anchor="middle" x="201.5" y="-63.5" font-family="Helvetica,sans-Serif" font-size="10.00">iostream</text>
</a>
</g>
</g>
<!-- Node4&#45;&gt;Node7 -->
<g id="edge6" class="edge">
<title>Node4&#45;&gt;Node7</title>
<path fill="none" stroke="midnightblue" d="M345.43,-117.98C316.49,-107.72 267.74,-90.46 235.1,-78.9"/>
<polygon fill="midnightblue" stroke="midnightblue" points="236.12,-75.55 225.53,-75.51 233.78,-82.15 236.12,-75.55"/>
</g>
<!-- Node8 -->
<g id="node8" class="node">
<title>Node8</title>
<g id="a_node8"><a xlink:title=" ">
<polygon fill="white" stroke="#bfbfbf" points="249.5,-56.5 249.5,-75.5 339.5,-75.5 339.5,-56.5 249.5,-56.5"/>
<text text-anchor="middle" x="294.5" y="-63.5" font-family="Helvetica,sans-Serif" font-size="10.00">AMReX_Print.H</text>
</a>
</g>
</g>
<!-- Node4&#45;&gt;Node8 -->
<g id="edge7" class="edge">
<title>Node4&#45;&gt;Node8</title>
<path fill="none" stroke="midnightblue" d="M358.75,-117.98C346.95,-108.61 327.76,-93.38 313.42,-82.01"/>
<polygon fill="midnightblue" stroke="midnightblue" points="315.24,-78.98 305.23,-75.51 310.88,-84.47 315.24,-78.98"/>
</g>
<!-- Node9 -->
<g id="node9" class="node">
<title>Node9</title>
<g id="a_node9"><a xlink:title=" ">
<polygon fill="white" stroke="#bfbfbf" points="357.5,-56.5 357.5,-75.5 419.5,-75.5 419.5,-56.5 357.5,-56.5"/>
<text text-anchor="middle" x="388.5" y="-63.5" font-family="Helvetica,sans-Serif" font-size="10.00">AMReX.H</text>
</a>
</g>
</g>
<!-- Node4&#45;&gt;Node9 -->
<g id="edge8" class="edge">
<title>Node4&#45;&gt;Node9</title>
<path fill="none" stroke="midnightblue" d="M372.22,-117.98C374.93,-109.49 379.17,-96.2 382.65,-85.32"/>
<polygon fill="midnightblue" stroke="midnightblue" points="386.07,-86.1 385.78,-75.51 379.41,-83.97 386.07,-86.1"/>
</g>
<!-- Node10&#45;&gt;Node5 -->
<g id="edge11" class="edge">
<title>Node10&#45;&gt;Node5</title>
<path fill="none" stroke="midnightblue" d="M520.78,-117.98C518.07,-109.49 513.83,-96.2 510.35,-85.32"/>
<polygon fill="midnightblue" stroke="midnightblue" points="513.59,-83.97 507.22,-75.51 506.93,-86.1 513.59,-83.97"/>
</g>
<!-- Node10&#45;&gt;Node6 -->
<g id="edge12" class="edge">
<title>Node10&#45;&gt;Node6</title>
<path fill="none" stroke="midnightblue" d="M545.13,-117.98C570.92,-107.81 614.21,-90.76 643.54,-79.2"/>
<polygon fill="midnightblue" stroke="midnightblue" points="644.88,-82.43 652.91,-75.51 642.32,-75.92 644.88,-82.43"/>
</g>
<!-- Node11 -->
<g id="node11" class="node">
<title>Node11</title>
<g id="a_node11"><a xlink:title=" ">
<polygon fill="white" stroke="#bfbfbf" points="1330.5,-0.5 1330.5,-19.5 1374.5,-19.5 1374.5,-0.5 1330.5,-0.5"/>
<text text-anchor="middle" x="1352.5" y="-7.5" font-family="Helvetica,sans-Serif" font-size="10.00">string</text>
</a>
</g>
</g>
<!-- Node10&#45;&gt;Node11 -->
<g id="edge10" class="edge">
<title>Node10&#45;&gt;Node11</title>
<path fill="none" stroke="midnightblue" d="M528.04,-117.79C536.75,-102.11 557.46,-69.52 585.5,-56 730.2,13.75 1143.83,-44.69 1320.29,-19.67"/>
<polygon fill="midnightblue" stroke="midnightblue" points="1320.95,-23.11 1330.29,-18.12 1319.87,-16.2 1320.95,-23.11"/>
</g>
<!-- Node12 -->
<g id="node12" class="node">
<title>Node12</title>
<g id="a_node12"><a xlink:title=" ">
<polygon fill="white" stroke="#bfbfbf" points="1214.5,-0.5 1214.5,-19.5 1312.5,-19.5 1312.5,-0.5 1214.5,-0.5"/>
<text text-anchor="middle" x="1263.5" y="-7.5" font-family="Helvetica,sans-Serif" font-size="10.00">AMReX_Vector.H</text>
</a>
</g>
</g>
<!-- Node10&#45;&gt;Node12 -->
<g id="edge13" class="edge">
<title>Node10&#45;&gt;Node12</title>
<path fill="none" stroke="midnightblue" d="M507.79,-117.9C484.76,-104.26 446.61,-77.05 466.5,-56 491.77,-29.26 1023.63,-15.92 1204.16,-12.15"/>
<polygon fill="midnightblue" stroke="midnightblue" points="1204.35,-15.64 1214.27,-11.94 1204.2,-8.64 1204.35,-15.64"/>
</g>
<!-- Node15&#45;&gt;Node5 -->
<g id="edge18" class="edge">
<title>Node15&#45;&gt;Node5</title>
<path fill="none" stroke="midnightblue" d="M930.2,-118.9C828.08,-106.45 628,-82.06 543.57,-71.76"/>
<polygon fill="midnightblue" stroke="midnightblue" points="543.98,-68.29 533.63,-70.55 543.13,-75.24 543.98,-68.29"/>
</g>
<!-- Node15&#45;&gt;Node6 -->
<g id="edge19" class="edge">
<title>Node15&#45;&gt;Node6</title>
<path fill="none" stroke="midnightblue" d="M946.94,-117.98C889.67,-107.26 791.45,-88.88 729.9,-77.37"/>
<polygon fill="midnightblue" stroke="midnightblue" points="730.45,-73.91 719.98,-75.51 729.16,-80.79 730.45,-73.91"/>
</g>
<!-- Node15&#45;&gt;Node11 -->
<g id="edge17" class="edge">
<title>Node15&#45;&gt;Node11</title>
<path fill="none" stroke="midnightblue" d="M930.35,-125.66C848,-122.5 718.6,-109.25 768.5,-56 808.92,-12.87 1225.45,-29.18 1320.16,-19.44"/>
<polygon fill="midnightblue" stroke="midnightblue" points="1320.84,-22.88 1330.29,-18.08 1319.91,-15.94 1320.84,-22.88"/>
</g>
<!-- Node15&#45;&gt;Node13 -->
<g id="edge21" class="edge">
<title>Node15&#45;&gt;Node13</title>
<path fill="none" stroke="midnightblue" d="M991.96,-117.95C991.53,-102.83 993.07,-71.51 1011.5,-56 1019.5,-49.26 1303.24,-26.32 1434.31,-16.04"/>
<polygon fill="midnightblue" stroke="midnightblue" points="1434.92,-19.51 1444.62,-15.24 1434.37,-12.53 1434.92,-19.51"/>
</g>
<!-- Node16 -->
<g id="node16" class="node">
<title>Node16</title>
<g id="a_node16"><a xlink:title=" ">
<polygon fill="white" stroke="#bfbfbf" points="777.5,-56.5 777.5,-75.5 841.5,-75.5 841.5,-56.5 777.5,-56.5"/>
<text text-anchor="middle" x="809.5" y="-63.5" font-family="Helvetica,sans-Serif" font-size="10.00">algorithm</text>
</a>
</g>
</g>
<!-- Node15&#45;&gt;Node16 -->
<g id="edge20" class="edge">
<title>Node15&#45;&gt;Node16</title>
<path fill="none" stroke="midnightblue" d="M966.28,-117.98C934.48,-107.64 880.73,-90.16 845.18,-78.6"/>
<polygon fill="midnightblue" stroke="midnightblue" points="846.26,-75.27 835.67,-75.51 844.1,-81.93 846.26,-75.27"/>
</g>
<!-- Node17 -->
<g id="node17" class="node">
<title>Node17</title>
<g id="a_node17"><a xlink:title=" ">
<polygon fill="white" stroke="#bfbfbf" points="860,-56.5 860,-75.5 959,-75.5 959,-56.5 860,-56.5"/>
<text text-anchor="middle" x="909.5" y="-63.5" font-family="Helvetica,sans-Serif" font-size="10.00">AMReX_BCRec.H</text>
</a>
</g>
</g>
<!-- Node15&#45;&gt;Node17 -->
<g id="edge22" class="edge">
<title>Node15&#45;&gt;Node17</title>
<path fill="none" stroke="midnightblue" d="M980.61,-117.98C967.3,-108.43 945.5,-92.81 929.54,-81.37"/>
<polygon fill="midnightblue" stroke="midnightblue" points="931.54,-78.49 921.37,-75.51 927.46,-84.18 931.54,-78.49"/>
</g>
<!-- Node18 -->
<g id="node18" class="node">
<title>Node18</title>
<g id="a_node18"><a xlink:title=" ">
<polygon fill="white" stroke="#bfbfbf" points="2649,-56.5 2649,-75.5 2736,-75.5 2736,-56.5 2649,-56.5"/>
<text text-anchor="middle" x="2692.5" y="-63.5" font-family="Helvetica,sans-Serif" font-size="10.00">AMReX_Gpu.H</text>
</a>
</g>
</g>
<!-- Node15&#45;&gt;Node18 -->
<g id="edge23" class="edge">
<title>Node15&#45;&gt;Node18</title>
<path fill="none" stroke="midnightblue" d="M1054.71,-119.21C1079.78,-116.52 1108.98,-113.73 1135.5,-112 1287.8,-102.09 2382.23,-74.67 2638.78,-68.32"/>
<polygon fill="midnightblue" stroke="midnightblue" points="2639.05,-71.82 2648.96,-68.07 2638.88,-64.82 2639.05,-71.82"/>
</g>
<!-- Node19 -->
<g id="node19" class="node">
<title>Node19</title>
<g id="a_node19"><a xlink:href="incflo__enums_8_h.html" target="_top" xlink:title=" ">
<polygon fill="white" stroke="black" points="1054,-56.5 1054,-75.5 1195,-75.5 1195,-56.5 1054,-56.5"/>
<text text-anchor="middle" x="1124.5" y="-63.5" font-family="Helvetica,sans-Serif" font-size="10.00">amr&#45;wind/incflo_enums.H</text>
</a>
</g>
</g>
<!-- Node15&#45;&gt;Node19 -->
<g id="edge24" class="edge">
<title>Node15&#45;&gt;Node19</title>
<path fill="none" stroke="midnightblue" d="M1011.41,-117.98C1033.66,-107.95 1070.81,-91.2 1096.43,-79.65"/>
<polygon fill="midnightblue" stroke="midnightblue" points="1097.94,-82.81 1105.62,-75.51 1095.07,-76.43 1097.94,-82.81"/>
</g>
<!-- Node20 -->
<g id="node20" class="node">
<title>Node20</title>
<g id="a_node20"><a xlink:href="_field_desc_types_8_h.html" target="_top" xlink:title=" ">
<polygon fill="white" stroke="black" points="1707.5,-0.5 1707.5,-19.5 1883.5,-19.5 1883.5,-0.5 1707.5,-0.5"/>
<text text-anchor="middle" x="1795.5" y="-7.5" font-family="Helvetica,sans-Serif" font-size="10.00">amr&#45;wind/core/FieldDescTypes.H</text>
</a>
</g>
</g>
<!-- Node15&#45;&gt;Node20 -->
<g id="edge25" class="edge">
<title>Node15&#45;&gt;Node20</title>
<path fill="none" stroke="midnightblue" d="M995.92,-117.85C1002.59,-102.28 1018.97,-69.86 1044.5,-56 1072.69,-40.69 1499.9,-22.38 1697.1,-14.69"/>
<polygon fill="midnightblue" stroke="midnightblue" points="1697.31,-18.18 1707.17,-14.29 1697.04,-11.19 1697.31,-18.18"/>
</g>
<!-- Node21 -->
<g id="node21" class="node">
<title>Node21</title>
<g id="a_node21"><a xlink:href="_view_field_8_h.html" target="_top" xlink:title=" ">
<polygon fill="white" stroke="black" points="1355.5,-56.5 1355.5,-75.5 1503.5,-75.5 1503.5,-56.5 1355.5,-56.5"/>
<text text-anchor="middle" x="1429.5" y="-63.5" font-family="Helvetica,sans-Serif" font-size="10.00">amr&#45;wind/core/ViewField.H</text>
</a>
</g>
</g>
<!-- Node15&#45;&gt;Node21 -->
<g id="edge26" class="edge">
<title>Node15&#45;&gt;Node21</title>
<path fill="none" stroke="midnightblue" d="M1054.65,-118.04C1134.35,-107.19 1272.35,-88.4 1356.83,-76.89"/>
<polygon fill="midnightblue" stroke="midnightblue" points="1357.42,-80.35 1366.86,-75.53 1356.48,-73.41 1357.42,-80.35"/>
</g>
<!-- Node21&#45;&gt;Node11 -->
<g id="edge27" class="edge">
<title>Node21&#45;&gt;Node11</title>
<path fill="none" stroke="midnightblue" d="M1417.13,-56.32C1405.34,-48.06 1387.37,-35.45 1373.36,-25.63"/>
<polygon fill="midnightblue" stroke="midnightblue" points="1375.04,-22.53 1364.84,-19.65 1371.02,-28.26 1375.04,-22.53"/>
</g>
<!-- Node21&#45;&gt;Node12 -->
<g id="edge30" class="edge">
<title>Node21&#45;&gt;Node12</title>
<path fill="none" stroke="midnightblue" d="M1403.2,-56.44C1375.15,-47.32 1330.56,-32.81 1299.32,-22.65"/>
<polygon fill="midnightblue" stroke="midnightblue" points="1300.27,-19.28 1289.68,-19.52 1298.11,-25.94 1300.27,-19.28"/>
</g>
<!-- Node21&#45;&gt;Node13 -->
<g id="edge29" class="edge">
<title>Node21&#45;&gt;Node13</title>
<path fill="none" stroke="midnightblue" d="M1440.75,-56.32C1451.3,-48.18 1467.3,-35.84 1479.94,-26.09"/>
<polygon fill="midnightblue" stroke="midnightblue" points="1482.27,-28.71 1488.05,-19.83 1477.99,-23.17 1482.27,-28.71"/>
</g>
<!-- Node21&#45;&gt;Node20 -->
<g id="edge28" class="edge">
<title>Node21&#45;&gt;Node20</title>
<path fill="none" stroke="midnightblue" d="M1487.49,-56.44C1552.81,-46.81 1658.84,-31.16 1727.87,-20.98"/>
<polygon fill="midnightblue" stroke="midnightblue" points="1728.4,-24.44 1737.78,-19.52 1727.37,-17.51 1728.4,-24.44"/>
</g>
<!-- Node22&#45;&gt;Node3 -->
<g id="edge68" class="edge">
<title>Node22&#45;&gt;Node3</title>
<path fill="none" stroke="midnightblue" d="M1871.36,-252.67C1640.69,-243.41 789.65,-209.27 525.34,-198.66"/>
<polygon fill="midnightblue" stroke="midnightblue" points="525.2,-195.15 515.06,-198.25 524.92,-202.15 525.2,-195.15"/>
</g>
<!-- Node23 -->
<g id="node23" class="node">
<title>Node23</title>
<g id="a_node23"><a xlink:title=" ">
<polygon fill="white" stroke="#bfbfbf" points="2120.5,-118 2120.5,-137 2230.5,-137 2230.5,-118 2120.5,-118"/>
<text text-anchor="middle" x="2175.5" y="-125" font-family="Helvetica,sans-Serif" font-size="10.00">AMReX_AmrCore.H</text>
</a>
</g>
</g>
<!-- Node22&#45;&gt;Node23 -->
<g id="edge32" class="edge">
<title>Node22&#45;&gt;Node23</title>
<path fill="none" stroke="midnightblue" d="M1946.41,-246.31C1988.73,-224.54 2099.43,-167.62 2149.84,-141.7"/>
<polygon fill="midnightblue" stroke="midnightblue" points="2151.51,-144.77 2158.8,-137.09 2148.3,-138.55 2151.51,-144.77"/>
</g>
<!-- Node24 -->
<g id="node24" class="node">
<title>Node24</title>
<g id="a_node24"><a xlink:href="_sim_time_8_h.html" target="_top" xlink:title=" ">
<polygon fill="white" stroke="black" points="2303.5,-185 2303.5,-204 2447.5,-204 2447.5,-185 2303.5,-185"/>
<text text-anchor="middle" x="2375.5" y="-192" font-family="Helvetica,sans-Serif" font-size="10.00">amr&#45;wind/core/SimTime.H</text>
</a>
</g>
</g>
<!-- Node22&#45;&gt;Node24 -->
<g id="edge33" class="edge">
<title>Node22&#45;&gt;Node24</title>
<path fill="none" stroke="midnightblue" d="M1987.81,-247.22C2068.32,-236.48 2213.56,-217.1 2301.59,-205.36"/>
<polygon fill="midnightblue" stroke="midnightblue" points="2302.32,-208.79 2311.77,-204 2301.4,-201.85 2302.32,-208.79"/>
</g>
<!-- Node28 -->
<g id="node28" class="node">
<title>Node28</title>
<g id="a_node28"><a xlink:href="_field_repo_8_h.html" target="_top" xlink:title=" ">
<polygon fill="white" stroke="black" points="1855,-185 1855,-204 2004,-204 2004,-185 1855,-185"/>
<text text-anchor="middle" x="1929.5" y="-192" font-family="Helvetica,sans-Serif" font-size="10.00">amr&#45;wind/core/FieldRepo.H</text>
</a>
</g>
</g>
<!-- Node22&#45;&gt;Node28 -->
<g id="edge37" class="edge">
<title>Node22&#45;&gt;Node28</title>
<path fill="none" stroke="midnightblue" d="M1929.5,-246.48C1929.5,-238.08 1929.5,-224.98 1929.5,-214.16"/>
<polygon fill="midnightblue" stroke="midnightblue" points="1933,-214.01 1929.5,-204.01 1926,-214.01 1933,-214.01"/>
</g>
<!-- Node35 -->
<g id="node35" class="node">
<title>Node35</title>
<g id="a_node35"><a xlink:href="_p_d_e_base_8_h.html" target="_top" xlink:title=" ">
<polygon fill="white" stroke="black" points="1038,-179.5 1038,-209.5 1193,-209.5 1193,-179.5 1038,-179.5"/>
<text text-anchor="start" x="1046" y="-197.5" font-family="Helvetica,sans-Serif" font-size="10.00">amr&#45;wind/equation_systems</text>
<text text-anchor="middle" x="1115.5" y="-186.5" font-family="Helvetica,sans-Serif" font-size="10.00">/PDEBase.H</text>
</a>
</g>
</g>
<!-- Node22&#45;&gt;Node35 -->
<g id="edge60" class="edge">
<title>Node22&#45;&gt;Node35</title>
<path fill="none" stroke="midnightblue" d="M1871.29,-250.74C1730.34,-240.44 1370.1,-214.11 1203.03,-201.9"/>
<polygon fill="midnightblue" stroke="midnightblue" points="1203.27,-198.41 1193.04,-201.17 1202.76,-205.39 1203.27,-198.41"/>
</g>
<!-- Node25 -->
<g id="node25" class="node">
<title>Node25</title>
<g id="a_node25"><a xlink:title=" ">
<polygon fill="white" stroke="#bfbfbf" points="2572.5,-118 2572.5,-137 2664.5,-137 2664.5,-118 2572.5,-118"/>
<text text-anchor="middle" x="2618.5" y="-125" font-family="Helvetica,sans-Serif" font-size="10.00">AMReX_REAL.H</text>
</a>
</g>
</g>
<!-- Node24&#45;&gt;Node25 -->
<g id="edge34" class="edge">
<title>Node24&#45;&gt;Node25</title>
<path fill="none" stroke="midnightblue" d="M2407.52,-184.94C2450.95,-173.32 2528.62,-152.54 2576.64,-139.7"/>
<polygon fill="midnightblue" stroke="midnightblue" points="2577.66,-143.05 2586.41,-137.08 2575.85,-136.29 2577.66,-143.05"/>
</g>
<!-- Node26 -->
<g id="node26" class="node">
<title>Node26</title>
<g id="a_node26"><a xlink:title=" ">
<polygon fill="white" stroke="#bfbfbf" points="2382.5,-118 2382.5,-137 2516.5,-137 2516.5,-118 2382.5,-118"/>
<text text-anchor="middle" x="2449.5" y="-125" font-family="Helvetica,sans-Serif" font-size="10.00">AMReX_GpuQualifiers.H</text>
</a>
</g>
</g>
<!-- Node24&#45;&gt;Node26 -->
<g id="edge35" class="edge">
<title>Node24&#45;&gt;Node26</title>
<path fill="none" stroke="midnightblue" d="M2385.48,-184.73C2397.35,-174.31 2417.39,-156.71 2431.88,-143.97"/>
<polygon fill="midnightblue" stroke="midnightblue" points="2434.47,-146.36 2439.68,-137.13 2429.86,-141.1 2434.47,-146.36"/>
</g>
<!-- Node27 -->
<g id="node27" class="node">
<title>Node27</title>
<g id="a_node27"><a xlink:title=" ">
<polygon fill="white" stroke="#bfbfbf" points="2248.5,-118 2248.5,-137 2364.5,-137 2364.5,-118 2248.5,-118"/>
<text text-anchor="middle" x="2306.5" y="-125" font-family="Helvetica,sans-Serif" font-size="10.00">AMReX_Extension.H</text>
</a>
</g>
</g>
<!-- Node24&#45;&gt;Node27 -->
<g id="edge36" class="edge">
<title>Node24&#45;&gt;Node27</title>
<path fill="none" stroke="midnightblue" d="M2366.19,-184.73C2355.23,-174.4 2336.79,-157.04 2323.31,-144.33"/>
<polygon fill="midnightblue" stroke="midnightblue" points="2325.34,-141.44 2315.66,-137.13 2320.54,-146.53 2325.34,-141.44"/>
</g>
<!-- Node28&#45;&gt;Node6 -->
<g id="edge39" class="edge">
<title>Node28&#45;&gt;Node6</title>
<path fill="none" stroke="midnightblue" d="M1854.68,-192.16C1652.91,-188.15 1100.75,-174.56 921.5,-143 841.64,-128.94 751.43,-96.85 705.29,-79.2"/>
<polygon fill="midnightblue" stroke="midnightblue" points="706.45,-75.9 695.86,-75.56 703.93,-82.43 706.45,-75.9"/>
</g>
<!-- Node28&#45;&gt;Node11 -->
<g id="edge38" class="edge">
<title>Node28&#45;&gt;Node11</title>
<path fill="none" stroke="midnightblue" d="M1854.82,-193.05C1764.41,-190.7 1608.37,-180.85 1480.5,-143 1416.65,-124.1 1381.51,-132.64 1346.5,-76 1337.94,-62.16 1340.88,-43.39 1345.1,-29.58"/>
<polygon fill="midnightblue" stroke="midnightblue" points="1348.54,-30.35 1348.57,-19.76 1341.94,-28.02 1348.54,-30.35"/>
</g>
<!-- Node28&#45;&gt;Node13 -->
<g id="edge58" class="edge">
<title>Node28&#45;&gt;Node13</title>
<path fill="none" stroke="midnightblue" d="M1943.12,-184.79C1977.15,-162.01 2060.36,-99.45 2020.5,-56 2005.28,-39.41 1700.93,-21.52 1564.58,-14.3"/>
<polygon fill="midnightblue" stroke="midnightblue" points="1564.45,-10.78 1554.28,-13.75 1564.08,-17.78 1564.45,-10.78"/>
</g>
<!-- Node28&#45;&gt;Node15 -->
<g id="edge45" class="edge">
<title>Node28&#45;&gt;Node15</title>
<path fill="none" stroke="midnightblue" d="M1854.99,-189.7C1714.28,-182.3 1399.8,-164.8 1135.5,-143 1112.53,-141.11 1087.52,-138.69 1064.94,-136.38"/>
<polygon fill="midnightblue" stroke="midnightblue" points="1065.05,-132.87 1054.75,-135.32 1064.33,-139.83 1065.05,-132.87"/>
</g>
<!-- Node28&#45;&gt;Node20 -->
<g id="edge40" class="edge">
<title>Node28&#45;&gt;Node20</title>
<path fill="none" stroke="midnightblue" d="M1960.37,-185C1982.69,-177.38 2012.04,-164.1 2030.5,-143 2056.84,-112.9 2079.24,-86.61 2053.5,-56 2033.02,-31.64 1957.77,-20.46 1893.78,-15.34"/>
<polygon fill="midnightblue" stroke="midnightblue" points="1893.86,-11.83 1883.62,-14.57 1893.33,-18.81 1893.86,-11.83"/>
</g>
<!-- Node28&#45;&gt;Node23 -->
<g id="edge57" class="edge">
<title>Node28&#45;&gt;Node23</title>
<path fill="none" stroke="midnightblue" d="M1961.91,-184.94C2005.88,-173.32 2084.51,-152.54 2133.12,-139.7"/>
<polygon fill="midnightblue" stroke="midnightblue" points="2134.24,-143.02 2143.02,-137.08 2132.45,-136.25 2134.24,-143.02"/>
</g>
<!-- Node29 -->
<g id="node29" class="node">
<title>Node29</title>
<g id="a_node29"><a xlink:href="_field_utils_8_h.html" target="_top" xlink:title=" ">
<polygon fill="white" stroke="black" points="2105.5,-56.5 2105.5,-75.5 2251.5,-75.5 2251.5,-56.5 2105.5,-56.5"/>
<text text-anchor="middle" x="2178.5" y="-63.5" font-family="Helvetica,sans-Serif" font-size="10.00">amr&#45;wind/core/FieldUtils.H</text>
</a>
</g>
</g>
<!-- Node28&#45;&gt;Node29 -->
<g id="edge41" class="edge">
<title>Node28&#45;&gt;Node29</title>
<path fill="none" stroke="midnightblue" d="M1960.35,-184.98C1989.22,-176.38 2033.09,-161.73 2068.5,-143 2089.33,-131.98 2092.16,-125.46 2111.5,-112 2126.64,-101.46 2143.92,-89.87 2157.14,-81.08"/>
<polygon fill="midnightblue" stroke="midnightblue" points="2159.17,-83.94 2165.57,-75.5 2155.3,-78.11 2159.17,-83.94"/>
</g>
<!-- Node31 -->
<g id="node31" class="node">
<title>Node31</title>
<g id="a_node31"><a xlink:href="_int_field_8_h.html" target="_top" xlink:title=" ">
<polygon fill="white" stroke="black" points="1813,-118 1813,-137 1950,-137 1950,-118 1813,-118"/>
<text text-anchor="middle" x="1881.5" y="-125" font-family="Helvetica,sans-Serif" font-size="10.00">amr&#45;wind/core/IntField.H</text>
</a>
</g>
</g>
<!-- Node28&#45;&gt;Node31 -->
<g id="edge46" class="edge">
<title>Node28&#45;&gt;Node31</title>
<path fill="none" stroke="midnightblue" d="M1923.03,-184.73C1915.61,-174.7 1903.3,-158.01 1894,-145.42"/>
<polygon fill="midnightblue" stroke="midnightblue" points="1896.63,-143.09 1887.87,-137.13 1891,-147.25 1896.63,-143.09"/>
</g>
<!-- Node28&#45;&gt;Node32 -->
<g id="edge59" class="edge">
<title>Node28&#45;&gt;Node32</title>
<path fill="none" stroke="midnightblue" d="M1936.62,-184.87C1944,-175.32 1955.07,-159.13 1959.5,-143 1964.74,-123.93 1962.48,-101.18 1959.71,-85.57"/>
<polygon fill="midnightblue" stroke="midnightblue" points="1963.11,-84.73 1957.69,-75.62 1956.25,-86.12 1963.11,-84.73"/>
</g>
<!-- Node33 -->
<g id="node33" class="node">
<title>Node33</title>
<g id="a_node33"><a xlink:href="_scratch_field_8_h.html" target="_top" xlink:title=" ">
<polygon fill="white" stroke="black" points="1489.5,-118 1489.5,-137 1649.5,-137 1649.5,-118 1489.5,-118"/>
<text text-anchor="middle" x="1569.5" y="-125" font-family="Helvetica,sans-Serif" font-size="10.00">amr&#45;wind/core/ScratchField.H</text>
</a>
</g>
</g>
<!-- Node28&#45;&gt;Node33 -->
<g id="edge50" class="edge">
<title>Node28&#45;&gt;Node33</title>
<path fill="none" stroke="midnightblue" d="M1882.07,-184.94C1816.28,-173.06 1697.48,-151.61 1626.82,-138.85"/>
<polygon fill="midnightblue" stroke="midnightblue" points="1627.22,-135.36 1616.75,-137.03 1625.97,-142.25 1627.22,-135.36"/>
</g>
<!-- Node29&#45;&gt;Node13 -->
<g id="edge43" class="edge">
<title>Node29&#45;&gt;Node13</title>
<path fill="none" stroke="midnightblue" d="M2105.19,-59.17C1971.77,-48.56 1691.38,-26.26 1564.42,-16.16"/>
<polygon fill="midnightblue" stroke="midnightblue" points="1564.32,-12.64 1554.08,-15.34 1563.77,-19.62 1564.32,-12.64"/>
</g>
<!-- Node29&#45;&gt;Node20 -->
<g id="edge42" class="edge">
<title>Node29&#45;&gt;Node20</title>
<path fill="none" stroke="midnightblue" d="M2117.81,-56.44C2049.32,-46.79 1938.06,-31.1 1865.83,-20.92"/>
<polygon fill="midnightblue" stroke="midnightblue" points="1866.29,-17.45 1855.9,-19.52 1865.32,-24.38 1866.29,-17.45"/>
</g>
<!-- Node30 -->
<g id="node30" class="node">
<title>Node30</title>
<g id="a_node30"><a xlink:title=" ">
<polygon fill="white" stroke="#bfbfbf" points="2116.5,-0.5 2116.5,-19.5 2240.5,-19.5 2240.5,-0.5 2116.5,-0.5"/>
<text text-anchor="middle" x="2178.5" y="-7.5" font-family="Helvetica,sans-Serif" font-size="10.00">AMReX_Interpolater.H</text>
</a>
</g>
</g>
<!-- Node29&#45;&gt;Node30 -->
<g id="edge44" class="edge">
<title>Node29&#45;&gt;Node30</title>
<path fill="none" stroke="midnightblue" d="M2178.5,-56.08C2178.5,-49.01 2178.5,-38.86 2178.5,-29.99"/>
<polygon fill="midnightblue" stroke="midnightblue" points="2182,-29.75 2178.5,-19.75 2175,-29.75 2182,-29.75"/>
</g>
<!-- Node31&#45;&gt;Node11 -->
<g id="edge47" class="edge">
<title>Node31&#45;&gt;Node11</title>
<path fill="none" stroke="midnightblue" d="M1867.94,-117.83C1843.28,-102.51 1788.94,-70.89 1738.5,-56 1721.58,-51 1474.44,-24.11 1384.73,-14.45"/>
<polygon fill="midnightblue" stroke="midnightblue" points="1384.91,-10.95 1374.6,-13.37 1384.17,-17.91 1384.91,-10.95"/>
</g>
<!-- Node31&#45;&gt;Node20 -->
<g id="edge48" class="edge">
<title>Node31&#45;&gt;Node20</title>
<path fill="none" stroke="midnightblue" d="M1878.55,-117.62C1873.61,-103.59 1862.7,-75.85 1847.5,-56 1838.77,-44.59 1826.76,-33.97 1816.48,-25.91"/>
<polygon fill="midnightblue" stroke="midnightblue" points="1818.45,-23.02 1808.36,-19.79 1814.24,-28.6 1818.45,-23.02"/>
</g>
<!-- Node31&#45;&gt;Node32 -->
<g id="edge49" class="edge">
<title>Node31&#45;&gt;Node32</title>
<path fill="none" stroke="midnightblue" d="M1892.1,-117.98C1903.75,-108.61 1922.69,-93.38 1936.83,-82.01"/>
<polygon fill="midnightblue" stroke="midnightblue" points="1939.32,-84.5 1944.92,-75.51 1934.93,-79.05 1939.32,-84.5"/>
</g>
<!-- Node33&#45;&gt;Node11 -->
<g id="edge51" class="edge">
<title>Node33&#45;&gt;Node11</title>
<path fill="none" stroke="midnightblue" d="M1564.8,-117.67C1556.37,-102.67 1537.21,-72.28 1512.5,-56 1473.25,-30.14 1419.18,-18.97 1385.03,-14.27"/>
<polygon fill="midnightblue" stroke="midnightblue" points="1385.05,-10.74 1374.69,-12.96 1384.17,-17.69 1385.05,-10.74"/>
</g>
<!-- Node33&#45;&gt;Node12 -->
<g id="edge55" class="edge">
<title>Node33&#45;&gt;Node12</title>
<path fill="none" stroke="midnightblue" d="M1494.74,-117.98C1450.11,-110.87 1393.2,-98.19 1346.5,-76 1320.32,-63.56 1294.76,-41.63 1279.08,-26.72"/>
<polygon fill="midnightblue" stroke="midnightblue" points="1281.43,-24.12 1271.83,-19.65 1276.54,-29.13 1281.43,-24.12"/>
</g>
<!-- Node33&#45;&gt;Node13 -->
<g id="edge54" class="edge">
<title>Node33&#45;&gt;Node13</title>
<path fill="none" stroke="midnightblue" d="M1567.88,-117.68C1565.03,-103.74 1558.18,-76.13 1545.5,-56 1538.48,-44.86 1528.17,-34.43 1519.08,-26.43"/>
<polygon fill="midnightblue" stroke="midnightblue" points="1521.12,-23.57 1511.22,-19.81 1516.62,-28.92 1521.12,-23.57"/>
</g>
<!-- Node33&#45;&gt;Node20 -->
<g id="edge52" class="edge">
<title>Node33&#45;&gt;Node20</title>
<path fill="none" stroke="midnightblue" d="M1625.31,-117.96C1659.95,-110.77 1704.23,-98 1738.5,-76 1757.77,-63.63 1774.32,-42.92 1784.54,-28.2"/>
<polygon fill="midnightblue" stroke="midnightblue" points="1787.68,-29.8 1790.32,-19.54 1781.86,-25.92 1787.68,-29.8"/>
</g>
<!-- Node33&#45;&gt;Node21 -->
<g id="edge53" class="edge">
<title>Node33&#45;&gt;Node21</title>
<path fill="none" stroke="midnightblue" d="M1549.44,-117.98C1525.74,-107.9 1486.09,-91.05 1458.92,-79.5"/>
<polygon fill="midnightblue" stroke="midnightblue" points="1460.09,-76.2 1449.52,-75.51 1457.36,-82.64 1460.09,-76.2"/>
</g>
<!-- Node34 -->
<g id="node34" class="node">
<title>Node34</title>
<g id="a_node34"><a xlink:title=" ">
<polygon fill="white" stroke="#bfbfbf" points="1598,-56.5 1598,-75.5 1729,-75.5 1729,-56.5 1598,-56.5"/>
<text text-anchor="middle" x="1663.5" y="-63.5" font-family="Helvetica,sans-Serif" font-size="10.00">AMReX_PhysBCFunct.H</text>
</a>
</g>
</g>
<!-- Node33&#45;&gt;Node34 -->
<g id="edge56" class="edge">
<title>Node33&#45;&gt;Node34</title>
<path fill="none" stroke="midnightblue" d="M1582.97,-117.98C1598.18,-108.34 1623.19,-92.52 1641.3,-81.05"/>
<polygon fill="midnightblue" stroke="midnightblue" points="1643.48,-83.81 1650.06,-75.51 1639.74,-77.9 1643.48,-83.81"/>
</g>
<!-- Node35&#45;&gt;Node4 -->
<g id="edge62" class="edge">
<title>Node35&#45;&gt;Node4</title>
<path fill="none" stroke="midnightblue" d="M1037.83,-190.51C912.68,-185.04 658.85,-171.3 445.5,-143 437.08,-141.88 428.18,-140.43 419.55,-138.88"/>
<polygon fill="midnightblue" stroke="midnightblue" points="420.06,-135.42 409.59,-137.03 418.78,-142.3 420.06,-135.42"/>
</g>
<!-- Node35&#45;&gt;Node10 -->
<g id="edge63" class="edge">
<title>Node35&#45;&gt;Node10</title>
<path fill="none" stroke="midnightblue" d="M1037.68,-187.58C937.65,-179.56 758.71,-163.82 606.5,-143 597.45,-141.76 587.88,-140.27 578.58,-138.71"/>
<polygon fill="midnightblue" stroke="midnightblue" points="579.08,-135.25 568.64,-137.01 577.9,-142.15 579.08,-135.25"/>
</g>
<!-- Node35&#45;&gt;Node11 -->
<g id="edge61" class="edge">
<title>Node35&#45;&gt;Node11</title>
<path fill="none" stroke="midnightblue" d="M1037.91,-185.04C883.57,-166.71 557.88,-119.81 618.5,-56 670.58,-1.18 1206.96,-30.85 1320.16,-19.44"/>
<polygon fill="midnightblue" stroke="midnightblue" points="1320.83,-22.88 1330.29,-18.11 1319.92,-15.94 1320.83,-22.88"/>
</g>
<!-- Node35&#45;&gt;Node19 -->
<g id="edge67" class="edge">
<title>Node35&#45;&gt;Node19</title>
<path fill="none" stroke="midnightblue" d="M1116.5,-179.48C1118.12,-156.72 1121.32,-111.7 1123.14,-86.06"/>
<polygon fill="midnightblue" stroke="midnightblue" points="1126.66,-86.01 1123.87,-75.79 1119.67,-85.51 1126.66,-86.01"/>
</g>
<!-- Node35&#45;&gt;Node20 -->
<g id="edge66" class="edge">
<title>Node35&#45;&gt;Node20</title>
<path fill="none" stroke="midnightblue" d="M1193.04,-190.78C1321.94,-185.52 1574.48,-171.81 1658.5,-143 1710.86,-125.04 1726.58,-117.25 1763.5,-76 1775.67,-62.41 1784.32,-43.35 1789.53,-29.39"/>
<polygon fill="midnightblue" stroke="midnightblue" points="1792.86,-30.47 1792.85,-19.88 1786.25,-28.17 1792.86,-30.47"/>
</g>
<!-- Node36 -->
<g id="node36" class="node">
<title>Node36</title>
<g id="a_node36"><a xlink:href="_p_d_e_fields_8_h.html" target="_top" xlink:title=" ">
<polygon fill="white" stroke="black" points="1144,-112.5 1144,-142.5 1299,-142.5 1299,-112.5 1144,-112.5"/>
<text text-anchor="start" x="1152" y="-130.5" font-family="Helvetica,sans-Serif" font-size="10.00">amr&#45;wind/equation_systems</text>
<text text-anchor="middle" x="1221.5" y="-119.5" font-family="Helvetica,sans-Serif" font-size="10.00">/PDEFields.H</text>
</a>
</g>
</g>
<!-- Node35&#45;&gt;Node36 -->
<g id="edge64" class="edge">
<title>Node35&#45;&gt;Node36</title>
<path fill="none" stroke="midnightblue" d="M1138.5,-179.4C1153.5,-170.2 1173.29,-158.07 1189.77,-147.95"/>
<polygon fill="midnightblue" stroke="midnightblue" points="1191.85,-150.79 1198.54,-142.58 1188.19,-144.82 1191.85,-150.79"/>
</g>
<!-- Node37 -->
<g id="node37" class="node">
<title>Node37</title>
<g id="a_node37"><a xlink:title=" ">
<polygon fill="white" stroke="#bfbfbf" points="1213.5,-56.5 1213.5,-75.5 1261.5,-75.5 1261.5,-56.5 1213.5,-56.5"/>
<text text-anchor="middle" x="1237.5" y="-63.5" font-family="Helvetica,sans-Serif" font-size="10.00">iosfwd</text>
</a>
</g>
</g>
<!-- Node36&#45;&gt;Node37 -->
<g id="edge65" class="edge">
<title>Node36&#45;&gt;Node37</title>
<path fill="none" stroke="midnightblue" d="M1225.29,-112.4C1227.45,-104.38 1230.18,-94.23 1232.51,-85.57"/>
<polygon fill="midnightblue" stroke="midnightblue" points="1235.95,-86.22 1235.17,-75.66 1229.2,-84.41 1235.95,-86.22"/>
</g>
<!-- Node40&#45;&gt;Node18 -->
<g id="edge76" class="edge">
<title>Node40&#45;&gt;Node18</title>
<path fill="none" stroke="midnightblue" d="M2776.45,-179.39C2782.69,-162.18 2790.03,-132.8 2777.5,-112 2768.21,-96.57 2751.67,-86.16 2735.63,-79.27"/>
<polygon fill="midnightblue" stroke="midnightblue" points="2736.89,-76.01 2726.3,-75.61 2734.33,-82.52 2736.89,-76.01"/>
</g>
<!-- Node40&#45;&gt;Node25 -->
<g id="edge75" class="edge">
<title>Node40&#45;&gt;Node25</title>
<path fill="none" stroke="midnightblue" d="M2737.52,-179.4C2710.73,-167.94 2673.31,-151.94 2647.62,-140.95"/>
<polygon fill="midnightblue" stroke="midnightblue" points="2648.96,-137.72 2638.39,-137.01 2646.21,-144.16 2648.96,-137.72"/>
</g>
<!-- Node41 -->
<g id="node41" class="node">
<title>Node41</title>
<g id="a_node41"><a xlink:title=" ">
<polygon fill="white" stroke="#bfbfbf" points="2721,-118 2721,-137 2768,-137 2768,-118 2721,-118"/>
<text text-anchor="middle" x="2744.5" y="-125" font-family="Helvetica,sans-Serif" font-size="10.00">cmath</text>
</a>
</g>
</g>
<!-- Node40&#45;&gt;Node41 -->
<g id="edge74" class="edge">
<title>Node40&#45;&gt;Node41</title>
<path fill="none" stroke="midnightblue" d="M2764.86,-179.4C2761.01,-169.76 2755.87,-156.91 2751.71,-146.54"/>
<polygon fill="midnightblue" stroke="midnightblue" points="2754.94,-145.18 2747.98,-137.19 2748.44,-147.78 2754.94,-145.18"/>
</g>
<!-- Node42&#45;&gt;Node18 -->
<g id="edge79" class="edge">
<title>Node42&#45;&gt;Node18</title>
<path fill="none" stroke="midnightblue" d="M2677.14,-302.48C2671.78,-292.65 2665.32,-278.99 2662.5,-266 2655.05,-231.68 2677.8,-128.54 2687.91,-85.84"/>
<polygon fill="midnightblue" stroke="midnightblue" points="2691.36,-86.47 2690.29,-75.93 2684.56,-84.83 2691.36,-86.47"/>
</g>
<!-- Node43 -->
<g id="node43" class="node">
<title>Node43</title>
<g id="a_node43"><a xlink:title=" ">
<polygon fill="white" stroke="#bfbfbf" points="2671.5,-246.5 2671.5,-265.5 2757.5,-265.5 2757.5,-246.5 2671.5,-246.5"/>
<text text-anchor="middle" x="2714.5" y="-253.5" font-family="Helvetica,sans-Serif" font-size="10.00">AMReX_Box.H</text>
</a>
</g>
</g>
<!-- Node42&#45;&gt;Node43 -->
<g id="edge78" class="edge">
<title>Node42&#45;&gt;Node43</title>
<path fill="none" stroke="midnightblue" d="M2692.37,-302.4C2696.41,-294.11 2701.56,-283.55 2705.87,-274.71"/>
<polygon fill="midnightblue" stroke="midnightblue" points="2709.05,-276.18 2710.28,-265.66 2702.75,-273.11 2709.05,-276.18"/>
</g>
</g>
</svg>
        <g id="navigator" transform="translate(0 0)" fill="#404254">
                <rect fill="#f2f5e9" fill-opacity="0.5" stroke="#606060" stroke-width=".5" x="0" y="0" width="60" height="60"/>
                <use id="zoomplus" xlink:href="#zoomPlus" x="17" y="9" onmousedown="handleZoom(evt,'in')"/>
                <use id="zoomminus" xlink:href="#zoomMin" x="42" y="9" onmousedown="handleZoom(evt,'out')"/>
                <use id="reset" xlink:href="#resetDef" x="30" y="36" onmousedown="handleReset()"/>
                <g id="arrowUp" xlink:href="#dirArrow" transform="translate(30 24)" onmousedown="handlePan(0,-1)">
                  <use xlink:href="#rim" fill="#404040">
                        <set attributeName="fill" to="#808080" begin="arrowUp.mouseover" end="arrowUp.mouseout"/>
                  </use>
                  <path fill="none" stroke="white" stroke-width="1.5" d="M0,-3.0v7 M-2.5,-0.5L0,-3.0L2.5,-0.5"/>
                </g>
                <g id="arrowRight" xlink:href="#dirArrow" transform="rotate(90) translate(36 -43)" onmousedown="handlePan(1,0)">
                  <use xlink:href="#rim" fill="#404040">
                        <set attributeName="fill" to="#808080" begin="arrowRight.mouseover" end="arrowRight.mouseout"/>
                  </use>
                  <path fill="none" stroke="white" stroke-width="1.5" d="M0,-3.0v7 M-2.5,-0.5L0,-3.0L2.5,-0.5"/>
                </g>
                <g id="arrowDown" xlink:href="#dirArrow" transform="rotate(180) translate(-30 -48)" onmousedown="handlePan(0,1)">
                  <use xlink:href="#rim" fill="#404040">
                        <set attributeName="fill" to="#808080" begin="arrowDown.mouseover" end="arrowDown.mouseout"/>
                  </use>
                  <path fill="none" stroke="white" stroke-width="1.5" d="M0,-3.0v7 M-2.5,-0.5L0,-3.0L2.5,-0.5"/>
                </g>
                <g id="arrowLeft" xlink:href="#dirArrow" transform="rotate(270) translate(-36 17)" onmousedown="handlePan(-1,0)">
                  <use xlink:href="#rim" fill="#404040">
                        <set attributeName="fill" to="#808080" begin="arrowLeft.mouseover" end="arrowLeft.mouseout"/>
                  </use>
                  <path fill="none" stroke="white" stroke-width="1.5" d="M0,-3.0v7 M-2.5,-0.5L0,-3.0L2.5,-0.5"/>
                </g>
        </g>
        <svg viewBox="0 0 15 15" width="100%" height="30px" preserveAspectRatio="xMaxYMin meet">
         <g id="arrow_out" transform="scale(0.3 0.3)">
          <a xlink:href="_channel_flow_8cpp__incl_org.svg" target="_base">
           <rect id="button" ry="5" rx="5" y="6" x="6" height="38" width="38"
                fill="#f2f5e9" fill-opacity="0.5" stroke="#606060" stroke-width="1.0"/>
           <path id="arrow"
             d="M 11.500037,31.436501 C 11.940474,20.09759 22.043105,11.32322 32.158766,21.979434 L 37.068811,17.246167 C 37.068811,17.246167 37.088388,32 37.088388,32 L 22.160133,31.978069 C 22.160133,31.978069 26.997745,27.140456 26.997745,27.140456 C 18.528582,18.264221 13.291696,25.230495 11.500037,31.436501 z"
             style="fill:#404040;"/>
          </a>
         </g>
        </svg>
</svg>
