<?xml version="1.0" encoding="UTF-8" standalone="no"?>
<!DOCTYPE svg PUBLIC "-//W3C//DTD SVG 1.1//EN"
 "http://www.w3.org/Graphics/SVG/1.1/DTD/svg11.dtd">
<!-- Generated by graphviz version 2.43.0 (0)
 -->
<!-- Title: DerivedQuantity.H Pages: 1 -->
<svg width="627pt" height="196pt"
 viewBox="0.00 0.00 626.50 196.00" xmlns="http://www.w3.org/2000/svg" xmlns:xlink="http://www.w3.org/1999/xlink">
<g id="graph0" class="graph" transform="scale(1 1) rotate(0) translate(4 192)">
<title>DerivedQuantity.H</title>
<polygon fill="white" stroke="transparent" points="-4,4 -4,-192 622.5,-192 622.5,4 -4,4"/>
<!-- Node1 -->
<g id="node1" class="node">
<title>Node1</title>
<g id="a_node1"><a xlink:title=" ">
<polygon fill="#bfbfbf" stroke="black" points="210.5,-168.5 210.5,-187.5 316.5,-187.5 316.5,-168.5 210.5,-168.5"/>
<text text-anchor="middle" x="263.5" y="-175.5" font-family="Helvetica,sans-Serif" font-size="10.00">DerivedQuantity.H</text>
</a>
</g>
</g>
<!-- Node2 -->
<g id="node2" class="node">
<title>Node2</title>
<g id="a_node2"><a xlink:href="_derived_qty_defs_8_h.html" target="_top" xlink:title=" ">
<polygon fill="white" stroke="black" points="44,-112.5 44,-131.5 149,-131.5 149,-112.5 44,-112.5"/>
<text text-anchor="middle" x="96.5" y="-119.5" font-family="Helvetica,sans-Serif" font-size="10.00">DerivedQtyDefs.H</text>
</a>
</g>
</g>
<!-- Node1&#45;&gt;Node2 -->
<g id="edge1" class="edge">
<title>Node1&#45;&gt;Node2</title>
<path fill="none" stroke="midnightblue" d="M227.33,-165.3C195.86,-155.13 151.01,-140.62 122.84,-131.52"/>
<polygon fill="midnightblue" stroke="midnightblue" points="226.45,-168.7 237.04,-168.44 228.6,-162.04 226.45,-168.7"/>
</g>
<!-- Node4 -->
<g id="node4" class="node">
<title>Node4</title>
<g id="a_node4"><a xlink:href="_i_o_manager_8cpp.html" target="_top" xlink:title=" ">
<polygon fill="white" stroke="black" points="133,-56.5 133,-75.5 222,-75.5 222,-56.5 133,-56.5"/>
<text text-anchor="middle" x="177.5" y="-63.5" font-family="Helvetica,sans-Serif" font-size="10.00">IOManager.cpp</text>
</a>
</g>
</g>
<!-- Node1&#45;&gt;Node4 -->
<g id="edge5" class="edge">
<title>Node1&#45;&gt;Node4</title>
<path fill="none" stroke="midnightblue" d="M234.81,-163.62C221.42,-156.06 206.32,-145.41 196.5,-132 183.86,-114.73 179.59,-89.16 178.18,-75.83"/>
<polygon fill="midnightblue" stroke="midnightblue" points="233.24,-166.75 243.71,-168.36 236.53,-160.57 233.24,-166.75"/>
</g>
<!-- Node5 -->
<g id="node5" class="node">
<title>Node5</title>
<g id="a_node5"><a xlink:href="_derived_quantity_8cpp.html" target="_top" xlink:title=" ">
<polygon fill="white" stroke="black" points="205.5,-112.5 205.5,-131.5 321.5,-131.5 321.5,-112.5 205.5,-112.5"/>
<text text-anchor="middle" x="263.5" y="-119.5" font-family="Helvetica,sans-Serif" font-size="10.00">DerivedQuantity.cpp</text>
</a>
</g>
</g>
<!-- Node1&#45;&gt;Node5 -->
<g id="edge4" class="edge">
<title>Node1&#45;&gt;Node5</title>
<path fill="none" stroke="midnightblue" d="M263.5,-157.8C263.5,-148.91 263.5,-138.78 263.5,-131.75"/>
<polygon fill="midnightblue" stroke="midnightblue" points="260,-158.08 263.5,-168.08 267,-158.08 260,-158.08"/>
</g>
<!-- Node6 -->
<g id="node6" class="node">
<title>Node6</title>
<g id="a_node6"><a xlink:href="_sampling_8_h.html" target="_top" xlink:title=" ">
<polygon fill="white" stroke="black" points="305,-56.5 305,-75.5 378,-75.5 378,-56.5 305,-56.5"/>
<text text-anchor="middle" x="341.5" y="-63.5" font-family="Helvetica,sans-Serif" font-size="10.00">Sampling.H</text>
</a>
</g>
</g>
<!-- Node1&#45;&gt;Node6 -->
<g id="edge6" class="edge">
<title>Node1&#45;&gt;Node6</title>
<path fill="none" stroke="midnightblue" d="M293.44,-163.79C306.85,-156.35 321.6,-145.77 330.5,-132 341.8,-114.5 342.59,-89.03 342.11,-75.77"/>
<polygon fill="midnightblue" stroke="midnightblue" points="291.74,-160.73 284.47,-168.43 294.96,-166.94 291.74,-160.73"/>
</g>
<!-- Node8 -->
<g id="node8" class="node">
<title>Node8</title>
<g id="a_node8"><a xlink:href="_sampling_container_8_h.html" target="_top" xlink:title=" ">
<polygon fill="white" stroke="black" points="393,-112.5 393,-131.5 512,-131.5 512,-112.5 393,-112.5"/>
<text text-anchor="middle" x="452.5" y="-119.5" font-family="Helvetica,sans-Serif" font-size="10.00">SamplingContainer.H</text>
</a>
</g>
</g>
<!-- Node1&#45;&gt;Node8 -->
<g id="edge8" class="edge">
<title>Node1&#45;&gt;Node8</title>
<path fill="none" stroke="midnightblue" d="M303.51,-165.57C339.17,-155.38 390.54,-140.7 422.69,-131.52"/>
<polygon fill="midnightblue" stroke="midnightblue" points="302.1,-162.33 293.45,-168.44 304.02,-169.06 302.1,-162.33"/>
</g>
<!-- Node3 -->
<g id="node3" class="node">
<title>Node3</title>
<g id="a_node3"><a xlink:href="_derived_qty_defs_8cpp.html" target="_top" xlink:title=" ">
<polygon fill="white" stroke="black" points="0,-56.5 0,-75.5 115,-75.5 115,-56.5 0,-56.5"/>
<text text-anchor="middle" x="57.5" y="-63.5" font-family="Helvetica,sans-Serif" font-size="10.00">DerivedQtyDefs.cpp</text>
</a>
</g>
</g>
<!-- Node2&#45;&gt;Node3 -->
<g id="edge2" class="edge">
<title>Node2&#45;&gt;Node3</title>
<path fill="none" stroke="midnightblue" d="M84.12,-103.86C77.36,-94.5 69.29,-83.33 63.82,-75.75"/>
<polygon fill="midnightblue" stroke="midnightblue" points="81.37,-106.03 90.06,-112.08 87.04,-101.93 81.37,-106.03"/>
</g>
<!-- Node2&#45;&gt;Node4 -->
<g id="edge3" class="edge">
<title>Node2&#45;&gt;Node4</title>
<path fill="none" stroke="midnightblue" d="M118.07,-106.62C132.86,-96.76 152.01,-83.99 164.52,-75.65"/>
<polygon fill="midnightblue" stroke="midnightblue" points="115.89,-103.86 109.51,-112.32 119.78,-109.69 115.89,-103.86"/>
</g>
<!-- Node7 -->
<g id="node7" class="node">
<title>Node7</title>
<g id="a_node7"><a xlink:href="_sampling_8cpp.html" target="_top" xlink:title=" ">
<polygon fill="white" stroke="black" points="300,-0.5 300,-19.5 383,-19.5 383,-0.5 300,-0.5"/>
<text text-anchor="middle" x="341.5" y="-7.5" font-family="Helvetica,sans-Serif" font-size="10.00">Sampling.cpp</text>
</a>
</g>
</g>
<!-- Node6&#45;&gt;Node7 -->
<g id="edge7" class="edge">
<title>Node6&#45;&gt;Node7</title>
<path fill="none" stroke="midnightblue" d="M341.5,-45.8C341.5,-36.91 341.5,-26.78 341.5,-19.75"/>
<polygon fill="midnightblue" stroke="midnightblue" points="338,-46.08 341.5,-56.08 345,-46.08 338,-46.08"/>
</g>
<!-- Node8&#45;&gt;Node6 -->
<g id="edge9" class="edge">
<title>Node8&#45;&gt;Node6</title>
<path fill="none" stroke="midnightblue" d="M425.49,-107.86C404.91,-97.85 377.16,-84.35 359.29,-75.65"/>
<polygon fill="midnightblue" stroke="midnightblue" points="424.14,-111.1 434.67,-112.32 427.2,-104.8 424.14,-111.1"/>
</g>
<!-- Node9 -->
<g id="node9" class="node">
<title>Node9</title>
<g id="a_node9"><a xlink:href="_sampling_container_8cpp.html" target="_top" xlink:title=" ">
<polygon fill="white" stroke="black" points="396,-56.5 396,-75.5 525,-75.5 525,-56.5 396,-56.5"/>
<text text-anchor="middle" x="460.5" y="-63.5" font-family="Helvetica,sans-Serif" font-size="10.00">SamplingContainer.cpp</text>
</a>
</g>
</g>
<!-- Node8&#45;&gt;Node9 -->
<g id="edge10" class="edge">
<title>Node8&#45;&gt;Node9</title>
<path fill="none" stroke="midnightblue" d="M455.3,-102.1C456.63,-93.14 458.15,-82.86 459.2,-75.75"/>
<polygon fill="midnightblue" stroke="midnightblue" points="451.82,-101.68 453.82,-112.08 458.75,-102.7 451.82,-101.68"/>
</g>
<!-- Node10 -->
<g id="node10" class="node">
<title>Node10</title>
<g id="a_node10"><a xlink:href="_a_b_l_stats_8_h.html" target="_top" xlink:title=" ">
<polygon fill="white" stroke="black" points="543,-56.5 543,-75.5 614,-75.5 614,-56.5 543,-56.5"/>
<text text-anchor="middle" x="578.5" y="-63.5" font-family="Helvetica,sans-Serif" font-size="10.00">ABLStats.H</text>
</a>
</g>
</g>
<!-- Node8&#45;&gt;Node10 -->
<g id="edge11" class="edge">
<title>Node8&#45;&gt;Node10</title>
<path fill="none" stroke="midnightblue" d="M481.66,-108.5C505.28,-98.38 537.93,-84.39 558.63,-75.52"/>
<polygon fill="midnightblue" stroke="midnightblue" points="480.28,-105.29 472.47,-112.44 483.04,-111.72 480.28,-105.29"/>
</g>
<!-- Node11 -->
<g id="node11" class="node">
<title>Node11</title>
<g id="a_node11"><a xlink:href="_a_b_l_stats_8cpp.html" target="_top" xlink:title=" ">
<polygon fill="white" stroke="black" points="538.5,-0.5 538.5,-19.5 618.5,-19.5 618.5,-0.5 538.5,-0.5"/>
<text text-anchor="middle" x="578.5" y="-7.5" font-family="Helvetica,sans-Serif" font-size="10.00">ABLStats.cpp</text>
</a>
</g>
</g>
<!-- Node10&#45;&gt;Node11 -->
<g id="edge12" class="edge">
<title>Node10&#45;&gt;Node11</title>
<path fill="none" stroke="midnightblue" d="M578.5,-45.8C578.5,-36.91 578.5,-26.78 578.5,-19.75"/>
<polygon fill="midnightblue" stroke="midnightblue" points="575,-46.08 578.5,-56.08 582,-46.08 575,-46.08"/>
</g>
</g>
</svg>
