<?xml version="1.0" encoding="UTF-8" standalone="no"?>
<!DOCTYPE svg PUBLIC "-//W3C//DTD SVG 1.1//EN"
 "http://www.w3.org/Graphics/SVG/1.1/DTD/svg11.dtd">
<!-- Generated by graphviz version 2.43.0 (0)
 -->
<!-- Title: DerivedQtyDefs.H Pages: 1 -->
<!--zoomable 397 -->
<svg id="main" version="1.1" xmlns="http://www.w3.org/2000/svg" xmlns:xlink="http://www.w3.org/1999/xlink" xml:space="preserve" onload="init(evt)">
<style type="text/css"><![CDATA[
.edge:hover path { stroke: red; }
.edge:hover polygon { stroke: red; fill: red; }
]]></style>
<script type="text/javascript"><![CDATA[
var edges = document.getElementsByTagName('g');
if (edges && edges.length) {
  for (var i=0;i<edges.length;i++) {
    if (edges[i].id.substr(0,4)=='edge') {
      edges[i].setAttribute('class','edge');
    }
  }
}
]]></script>
        <defs>
                <circle id="rim" cx="0" cy="0" r="7"/>
                <circle id="rim2" cx="0" cy="0" r="3.5"/>
                <g id="zoomPlus">
                        <use xlink:href="#rim" fill="#404040">
                                <set attributeName="fill" to="#808080" begin="zoomplus.mouseover" end="zoomplus.mouseout"/>
                        </use>
                        <path d="M-4,0h8M0,-4v8" fill="none" stroke="white" stroke-width="1.5" pointer-events="none"/>
                </g>
                <g id="zoomMin">
                        <use xlink:href="#rim" fill="#404040">
                                <set attributeName="fill" to="#808080" begin="zoomminus.mouseover" end="zoomminus.mouseout"/>
                        </use>
                        <path d="M-4,0h8" fill="none" stroke="white" stroke-width="1.5" pointer-events="none"/>
                </g>
                <g id="dirArrow">
                        <path fill="none" stroke="white" stroke-width="1.5" d="M0,-3.0v7 M-2.5,-0.5L0,-3.0L2.5,-0.5"/>
                </g>
               <g id="resetDef">
                       <use xlink:href="#rim2" fill="#404040">
                               <set attributeName="fill" to="#808080" begin="reset.mouseover" end="reset.mouseout"/>
                       </use>
               </g>
        </defs>

<script type="text/javascript">
var viewWidth = 2630;
var viewHeight = 397;
var sectionId = 'dynsection-0';
</script>
<script xlink:href="svgpan.js"/>
<svg id="graph" class="graph">
<g id="viewport">
<title>DerivedQtyDefs.H</title>
<polygon fill="white" stroke="transparent" points="-4,4 -4,-393 2625.64,-393 2625.64,4 -4,4"/>
<!-- Node1 -->
<g id="node1" class="node">
<title>Node1</title>
<g id="a_node1"><a xlink:title=" ">
<polygon fill="#bfbfbf" stroke="black" points="713.14,-369.5 713.14,-388.5 818.14,-388.5 818.14,-369.5 713.14,-369.5"/>
<text text-anchor="middle" x="765.64" y="-376.5" font-family="Helvetica,sans-Serif" font-size="10.00">DerivedQtyDefs.H</text>
</a>
</g>
</g>
<!-- Node2 -->
<g id="node2" class="node">
<title>Node2</title>
<g id="a_node2"><a xlink:href="_derived_quantity_8_h.html" target="_top" xlink:title=" ">
<polygon fill="white" stroke="black" points="711.14,-302.5 711.14,-332.5 820.14,-332.5 820.14,-302.5 711.14,-302.5"/>
<text text-anchor="start" x="719.14" y="-320.5" font-family="Helvetica,sans-Serif" font-size="10.00">amr&#45;wind/utilities</text>
<text text-anchor="middle" x="765.64" y="-309.5" font-family="Helvetica,sans-Serif" font-size="10.00">/DerivedQuantity.H</text>
</a>
</g>
</g>
<!-- Node1&#45;&gt;Node2 -->
<g id="edge1" class="edge">
<title>Node1&#45;&gt;Node2</title>
<path fill="none" stroke="midnightblue" d="M765.64,-369.48C765.64,-362.47 765.64,-352.19 765.64,-342.7"/>
<polygon fill="midnightblue" stroke="midnightblue" points="769.14,-342.52 765.64,-332.52 762.14,-342.52 769.14,-342.52"/>
</g>
<!-- Node3 -->
<g id="node3" class="node">
<title>Node3</title>
<g id="a_node3"><a xlink:title=" ">
<polygon fill="white" stroke="#bfbfbf" points="1448.64,-0.5 1448.64,-19.5 1492.64,-19.5 1492.64,-0.5 1448.64,-0.5"/>
<text text-anchor="middle" x="1470.64" y="-7.5" font-family="Helvetica,sans-Serif" font-size="10.00">string</text>
</a>
</g>
</g>
<!-- Node2&#45;&gt;Node3 -->
<g id="edge2" class="edge">
<title>Node2&#45;&gt;Node3</title>
<path fill="none" stroke="midnightblue" d="M785.93,-302.41C817.94,-278.32 874.38,-227.14 852.64,-179 834.11,-137.96 815,-135.59 776.64,-112 739.95,-89.43 710.8,-111.67 686.64,-76 681.66,-68.64 680.52,-62.45 686.64,-56 712.79,-28.43 1331.74,-22.69 1369.64,-20 1392.71,-18.36 1418.71,-16.04 1438.55,-14.16"/>
<polygon fill="midnightblue" stroke="midnightblue" points="1438.97,-17.63 1448.59,-13.2 1438.31,-10.67 1438.97,-17.63"/>
</g>
<!-- Node4 -->
<g id="node4" class="node">
<title>Node4</title>
<g id="a_node4"><a xlink:title=" ">
<polygon fill="white" stroke="#bfbfbf" points="328.14,-56.5 328.14,-75.5 421.14,-75.5 421.14,-56.5 328.14,-56.5"/>
<text text-anchor="middle" x="374.64" y="-63.5" font-family="Helvetica,sans-Serif" font-size="10.00">unordered_map</text>
</a>
</g>
</g>
<!-- Node2&#45;&gt;Node4 -->
<g id="edge3" class="edge">
<title>Node2&#45;&gt;Node4</title>
<path fill="none" stroke="midnightblue" d="M711,-311.88C601.94,-301.41 363.57,-271.83 314.64,-210 287.61,-175.85 295.16,-150.96 314.64,-112 321.37,-98.54 334.25,-88.07 346.35,-80.62"/>
<polygon fill="midnightblue" stroke="midnightblue" points="348.38,-83.5 355.35,-75.52 344.92,-77.41 348.38,-83.5"/>
</g>
<!-- Node5 -->
<g id="node5" class="node">
<title>Node5</title>
<g id="a_node5"><a xlink:title=" ">
<polygon fill="white" stroke="#bfbfbf" points="1034.14,-246.5 1034.14,-265.5 1081.14,-265.5 1081.14,-246.5 1034.14,-246.5"/>
<text text-anchor="middle" x="1057.64" y="-253.5" font-family="Helvetica,sans-Serif" font-size="10.00">vector</text>
</a>
</g>
</g>
<!-- Node2&#45;&gt;Node5 -->
<g id="edge4" class="edge">
<title>Node2&#45;&gt;Node5</title>
<path fill="none" stroke="midnightblue" d="M820.21,-307.07C870.64,-298.08 947.84,-283.63 1024.12,-265.98"/>
<polygon fill="midnightblue" stroke="midnightblue" points="1024.96,-269.38 1033.9,-263.7 1023.37,-262.56 1024.96,-269.38"/>
</g>
<!-- Node6 -->
<g id="node6" class="node">
<title>Node6</title>
<g id="a_node6"><a xlink:href="_factory_8_h.html" target="_top" xlink:title=" ">
<polygon fill="white" stroke="black" points="133.64,-118 133.64,-137 267.64,-137 267.64,-118 133.64,-118"/>
<text text-anchor="middle" x="200.64" y="-125" font-family="Helvetica,sans-Serif" font-size="10.00">amr&#45;wind/core/Factory.H</text>
</a>
</g>
</g>
<!-- Node2&#45;&gt;Node6 -->
<g id="edge5" class="edge">
<title>Node2&#45;&gt;Node6</title>
<path fill="none" stroke="midnightblue" d="M711.1,-316.86C599.89,-316.63 351.56,-310.93 281.64,-266 238.05,-237.98 214.92,-177.51 205.62,-146.96"/>
<polygon fill="midnightblue" stroke="midnightblue" points="208.93,-145.82 202.81,-137.18 202.21,-147.75 208.93,-145.82"/>
</g>
<!-- Node11 -->
<g id="node11" class="node">
<title>Node11</title>
<g id="a_node11"><a xlink:href="_coll_mgr_8_h.html" target="_top" xlink:title=" ">
<polygon fill="white" stroke="black" points="457.14,-118 457.14,-137 594.14,-137 594.14,-118 457.14,-118"/>
<text text-anchor="middle" x="525.64" y="-125" font-family="Helvetica,sans-Serif" font-size="10.00">amr&#45;wind/core/CollMgr.H</text>
</a>
</g>
</g>
<!-- Node2&#45;&gt;Node11 -->
<g id="edge11" class="edge">
<title>Node2&#45;&gt;Node11</title>
<path fill="none" stroke="midnightblue" d="M747.6,-302.37C703.45,-267.79 590.27,-179.12 544.89,-143.58"/>
<polygon fill="midnightblue" stroke="midnightblue" points="546.79,-140.62 536.76,-137.21 542.47,-146.13 546.79,-140.62"/>
</g>
<!-- Node13 -->
<g id="node13" class="node">
<title>Node13</title>
<g id="a_node13"><a xlink:href="_c_f_d_sim_8_h.html" target="_top" xlink:title=" ">
<polygon fill="white" stroke="black" points="899.64,-246.5 899.64,-265.5 1015.64,-265.5 1015.64,-246.5 899.64,-246.5"/>
<text text-anchor="middle" x="957.64" y="-253.5" font-family="Helvetica,sans-Serif" font-size="10.00">amr&#45;wind/CFDSim.H</text>
</a>
</g>
</g>
<!-- Node2&#45;&gt;Node13 -->
<g id="edge16" class="edge">
<title>Node2&#45;&gt;Node13</title>
<path fill="none" stroke="midnightblue" d="M811.14,-302.4C844.46,-292.07 889.13,-278.23 920.35,-268.56"/>
<polygon fill="midnightblue" stroke="midnightblue" points="921.47,-271.87 929.99,-265.57 919.4,-265.19 921.47,-271.87"/>
</g>
<!-- Node6&#45;&gt;Node4 -->
<g id="edge7" class="edge">
<title>Node6&#45;&gt;Node4</title>
<path fill="none" stroke="midnightblue" d="M225.57,-117.98C255.68,-107.68 306.47,-90.31 340.28,-78.75"/>
<polygon fill="midnightblue" stroke="midnightblue" points="341.43,-82.06 349.76,-75.51 339.16,-75.43 341.43,-82.06"/>
</g>
<!-- Node7 -->
<g id="node7" class="node">
<title>Node7</title>
<g id="a_node7"><a xlink:title=" ">
<polygon fill="white" stroke="#bfbfbf" points="439.64,-56.5 439.64,-75.5 497.64,-75.5 497.64,-56.5 439.64,-56.5"/>
<text text-anchor="middle" x="468.64" y="-63.5" font-family="Helvetica,sans-Serif" font-size="10.00">memory</text>
</a>
</g>
</g>
<!-- Node6&#45;&gt;Node7 -->
<g id="edge6" class="edge">
<title>Node6&#45;&gt;Node7</title>
<path fill="none" stroke="midnightblue" d="M239.97,-117.95C283.65,-108.42 356.52,-92.46 429.44,-76.03"/>
<polygon fill="midnightblue" stroke="midnightblue" points="430.28,-79.43 439.26,-73.81 428.74,-72.6 430.28,-79.43"/>
</g>
<!-- Node8 -->
<g id="node8" class="node">
<title>Node8</title>
<g id="a_node8"><a xlink:title=" ">
<polygon fill="white" stroke="#bfbfbf" points="249.64,-56.5 249.64,-75.5 309.64,-75.5 309.64,-56.5 249.64,-56.5"/>
<text text-anchor="middle" x="279.64" y="-63.5" font-family="Helvetica,sans-Serif" font-size="10.00">iostream</text>
</a>
</g>
</g>
<!-- Node6&#45;&gt;Node8 -->
<g id="edge8" class="edge">
<title>Node6&#45;&gt;Node8</title>
<path fill="none" stroke="midnightblue" d="M211.96,-117.98C224.52,-108.52 244.99,-93.1 260.14,-81.69"/>
<polygon fill="midnightblue" stroke="midnightblue" points="262.46,-84.32 268.34,-75.51 258.25,-78.73 262.46,-84.32"/>
</g>
<!-- Node9 -->
<g id="node9" class="node">
<title>Node9</title>
<g id="a_node9"><a xlink:title=" ">
<polygon fill="white" stroke="#bfbfbf" points="61.64,-56.5 61.64,-75.5 151.64,-75.5 151.64,-56.5 61.64,-56.5"/>
<text text-anchor="middle" x="106.64" y="-63.5" font-family="Helvetica,sans-Serif" font-size="10.00">AMReX_Print.H</text>
</a>
</g>
</g>
<!-- Node6&#45;&gt;Node9 -->
<g id="edge9" class="edge">
<title>Node6&#45;&gt;Node9</title>
<path fill="none" stroke="midnightblue" d="M187.17,-117.98C171.96,-108.34 146.96,-92.52 128.84,-81.05"/>
<polygon fill="midnightblue" stroke="midnightblue" points="130.41,-77.9 120.09,-75.51 126.66,-83.81 130.41,-77.9"/>
</g>
<!-- Node10 -->
<g id="node10" class="node">
<title>Node10</title>
<g id="a_node10"><a xlink:title=" ">
<polygon fill="white" stroke="#bfbfbf" points="169.64,-56.5 169.64,-75.5 231.64,-75.5 231.64,-56.5 169.64,-56.5"/>
<text text-anchor="middle" x="200.64" y="-63.5" font-family="Helvetica,sans-Serif" font-size="10.00">AMReX.H</text>
</a>
</g>
</g>
<!-- Node6&#45;&gt;Node10 -->
<g id="edge10" class="edge">
<title>Node6&#45;&gt;Node10</title>
<path fill="none" stroke="midnightblue" d="M200.64,-117.98C200.64,-109.58 200.64,-96.48 200.64,-85.66"/>
<polygon fill="midnightblue" stroke="midnightblue" points="204.14,-85.51 200.64,-75.51 197.14,-85.51 204.14,-85.51"/>
</g>
<!-- Node11&#45;&gt;Node3 -->
<g id="edge12" class="edge">
<title>Node11&#45;&gt;Node3</title>
<path fill="none" stroke="midnightblue" d="M529.61,-117.8C537.29,-102.13 555.82,-69.57 582.64,-56 660.75,-16.49 1282.3,-25.89 1369.64,-20 1392.72,-18.44 1418.71,-16.12 1438.55,-14.22"/>
<polygon fill="midnightblue" stroke="midnightblue" points="1438.98,-17.69 1448.6,-13.24 1438.31,-10.72 1438.98,-17.69"/>
</g>
<!-- Node11&#45;&gt;Node4 -->
<g id="edge14" class="edge">
<title>Node11&#45;&gt;Node4</title>
<path fill="none" stroke="midnightblue" d="M504.01,-117.98C478.22,-107.81 434.93,-90.76 405.6,-79.2"/>
<polygon fill="midnightblue" stroke="midnightblue" points="406.82,-75.92 396.24,-75.51 404.26,-82.43 406.82,-75.92"/>
</g>
<!-- Node11&#45;&gt;Node7 -->
<g id="edge13" class="edge">
<title>Node11&#45;&gt;Node7</title>
<path fill="none" stroke="midnightblue" d="M517.48,-117.98C508.76,-108.87 494.74,-94.24 483.95,-82.98"/>
<polygon fill="midnightblue" stroke="midnightblue" points="486.24,-80.31 476.79,-75.51 481.18,-85.15 486.24,-80.31"/>
</g>
<!-- Node12 -->
<g id="node12" class="node">
<title>Node12</title>
<g id="a_node12"><a xlink:title=" ">
<polygon fill="white" stroke="#bfbfbf" points="1262.64,-0.5 1262.64,-19.5 1360.64,-19.5 1360.64,-0.5 1262.64,-0.5"/>
<text text-anchor="middle" x="1311.64" y="-7.5" font-family="Helvetica,sans-Serif" font-size="10.00">AMReX_Vector.H</text>
</a>
</g>
</g>
<!-- Node11&#45;&gt;Node12 -->
<g id="edge15" class="edge">
<title>Node11&#45;&gt;Node12</title>
<path fill="none" stroke="midnightblue" d="M525.71,-117.83C526.34,-102.51 530.1,-70.88 549.64,-56 563.59,-45.38 1075.37,-21.56 1252.23,-13.63"/>
<polygon fill="midnightblue" stroke="midnightblue" points="1252.57,-17.12 1262.4,-13.17 1252.25,-10.12 1252.57,-17.12"/>
</g>
<!-- Node14 -->
<g id="node14" class="node">
<title>Node14</title>
<g id="a_node14"><a xlink:title=" ">
<polygon fill="white" stroke="#bfbfbf" points="2115.64,-118 2115.64,-137 2225.64,-137 2225.64,-118 2115.64,-118"/>
<text text-anchor="middle" x="2170.64" y="-125" font-family="Helvetica,sans-Serif" font-size="10.00">AMReX_AmrCore.H</text>
</a>
</g>
</g>
<!-- Node13&#45;&gt;Node14 -->
<g id="edge17" class="edge">
<title>Node13&#45;&gt;Node14</title>
<path fill="none" stroke="midnightblue" d="M1015.84,-246.95C1019.16,-246.6 1022.44,-246.28 1025.64,-246 1402.33,-213.16 1502.11,-268.72 1875.64,-210 1972.54,-194.77 2083.09,-159.12 2137.21,-140.43"/>
<polygon fill="midnightblue" stroke="midnightblue" points="2138.67,-143.63 2146.96,-137.03 2136.36,-137.02 2138.67,-143.63"/>
</g>
<!-- Node15 -->
<g id="node15" class="node">
<title>Node15</title>
<g id="a_node15"><a xlink:href="_sim_time_8_h.html" target="_top" xlink:title=" ">
<polygon fill="white" stroke="black" points="2290.64,-185 2290.64,-204 2434.64,-204 2434.64,-185 2290.64,-185"/>
<text text-anchor="middle" x="2362.64" y="-192" font-family="Helvetica,sans-Serif" font-size="10.00">amr&#45;wind/core/SimTime.H</text>
</a>
</g>
</g>
<!-- Node13&#45;&gt;Node15 -->
<g id="edge18" class="edge">
<title>Node13&#45;&gt;Node15</title>
<path fill="none" stroke="midnightblue" d="M1015.84,-246.92C1019.15,-246.58 1022.44,-246.27 1025.64,-246 1483.89,-207.79 1600.2,-228.99 2059.64,-210 2134.26,-206.92 2219.17,-202.8 2280.09,-199.74"/>
<polygon fill="midnightblue" stroke="midnightblue" points="2280.6,-203.22 2290.41,-199.22 2280.25,-196.23 2280.6,-203.22"/>
</g>
<!-- Node19 -->
<g id="node19" class="node">
<title>Node19</title>
<g id="a_node19"><a xlink:href="_field_repo_8_h.html" target="_top" xlink:title=" ">
<polygon fill="white" stroke="black" points="1717.14,-185 1717.14,-204 1866.14,-204 1866.14,-185 1717.14,-185"/>
<text text-anchor="middle" x="1791.64" y="-192" font-family="Helvetica,sans-Serif" font-size="10.00">amr&#45;wind/core/FieldRepo.H</text>
</a>
</g>
</g>
<!-- Node13&#45;&gt;Node19 -->
<g id="edge22" class="edge">
<title>Node13&#45;&gt;Node19</title>
<path fill="none" stroke="midnightblue" d="M1015.85,-247.04C1019.16,-246.67 1022.44,-246.32 1025.64,-246 1272.45,-221.56 1565.21,-205.97 1706.69,-199.27"/>
<polygon fill="midnightblue" stroke="midnightblue" points="1707.2,-202.75 1717.03,-198.79 1706.87,-195.76 1707.2,-202.75"/>
</g>
<!-- Node34 -->
<g id="node34" class="node">
<title>Node34</title>
<g id="a_node34"><a xlink:href="_p_d_e_base_8_h.html" target="_top" xlink:title=" ">
<polygon fill="white" stroke="black" points="688.14,-179.5 688.14,-209.5 843.14,-209.5 843.14,-179.5 688.14,-179.5"/>
<text text-anchor="start" x="696.14" y="-197.5" font-family="Helvetica,sans-Serif" font-size="10.00">amr&#45;wind/equation_systems</text>
<text text-anchor="middle" x="765.64" y="-186.5" font-family="Helvetica,sans-Serif" font-size="10.00">/PDEBase.H</text>
</a>
</g>
</g>
<!-- Node13&#45;&gt;Node34 -->
<g id="edge59" class="edge">
<title>Node13&#45;&gt;Node34</title>
<path fill="none" stroke="midnightblue" d="M930.13,-246.48C901.7,-237.66 856.54,-223.67 820.72,-212.57"/>
<polygon fill="midnightblue" stroke="midnightblue" points="821.48,-209.14 810.89,-209.52 819.41,-215.83 821.48,-209.14"/>
</g>
<!-- Node37 -->
<g id="node37" class="node">
<title>Node37</title>
<g id="a_node37"><a xlink:href="_physics_8_h.html" target="_top" xlink:title=" ">
<polygon fill="white" stroke="black" points="324.14,-185 324.14,-204 461.14,-204 461.14,-185 324.14,-185"/>
<text text-anchor="middle" x="392.64" y="-192" font-family="Helvetica,sans-Serif" font-size="10.00">amr&#45;wind/core/Physics.H</text>
</a>
</g>
</g>
<!-- Node13&#45;&gt;Node37 -->
<g id="edge67" class="edge">
<title>Node13&#45;&gt;Node37</title>
<path fill="none" stroke="midnightblue" d="M899.57,-248.88C797.61,-238.15 586.35,-215.9 471.36,-203.79"/>
<polygon fill="midnightblue" stroke="midnightblue" points="471.53,-200.29 461.22,-202.72 470.8,-207.25 471.53,-200.29"/>
</g>
<!-- Node16 -->
<g id="node16" class="node">
<title>Node16</title>
<g id="a_node16"><a xlink:title=" ">
<polygon fill="white" stroke="#bfbfbf" points="2377.64,-118 2377.64,-137 2469.64,-137 2469.64,-118 2377.64,-118"/>
<text text-anchor="middle" x="2423.64" y="-125" font-family="Helvetica,sans-Serif" font-size="10.00">AMReX_REAL.H</text>
</a>
</g>
</g>
<!-- Node15&#45;&gt;Node16 -->
<g id="edge19" class="edge">
<title>Node15&#45;&gt;Node16</title>
<path fill="none" stroke="midnightblue" d="M2370.87,-184.73C2380.47,-174.5 2396.55,-157.36 2408.45,-144.69"/>
<polygon fill="midnightblue" stroke="midnightblue" points="2411.26,-146.81 2415.55,-137.13 2406.15,-142.02 2411.26,-146.81"/>
</g>
<!-- Node17 -->
<g id="node17" class="node">
<title>Node17</title>
<g id="a_node17"><a xlink:title=" ">
<polygon fill="white" stroke="#bfbfbf" points="2487.64,-118 2487.64,-137 2621.64,-137 2621.64,-118 2487.64,-118"/>
<text text-anchor="middle" x="2554.64" y="-125" font-family="Helvetica,sans-Serif" font-size="10.00">AMReX_GpuQualifiers.H</text>
</a>
</g>
</g>
<!-- Node15&#45;&gt;Node17 -->
<g id="edge20" class="edge">
<title>Node15&#45;&gt;Node17</title>
<path fill="none" stroke="midnightblue" d="M2388.14,-184.87C2421.94,-173.42 2481.74,-153.18 2519.72,-140.32"/>
<polygon fill="midnightblue" stroke="midnightblue" points="2521,-143.59 2529.35,-137.06 2518.75,-136.96 2521,-143.59"/>
</g>
<!-- Node18 -->
<g id="node18" class="node">
<title>Node18</title>
<g id="a_node18"><a xlink:title=" ">
<polygon fill="white" stroke="#bfbfbf" points="2243.64,-118 2243.64,-137 2359.64,-137 2359.64,-118 2243.64,-118"/>
<text text-anchor="middle" x="2301.64" y="-125" font-family="Helvetica,sans-Serif" font-size="10.00">AMReX_Extension.H</text>
</a>
</g>
</g>
<!-- Node15&#45;&gt;Node18 -->
<g id="edge21" class="edge">
<title>Node15&#45;&gt;Node18</title>
<path fill="none" stroke="midnightblue" d="M2354.42,-184.73C2344.81,-174.5 2328.73,-157.36 2316.84,-144.69"/>
<polygon fill="midnightblue" stroke="midnightblue" points="2319.13,-142.02 2309.74,-137.13 2314.03,-146.81 2319.13,-142.02"/>
</g>
<!-- Node19&#45;&gt;Node3 -->
<g id="edge23" class="edge">
<title>Node19&#45;&gt;Node3</title>
<path fill="none" stroke="midnightblue" d="M1790.85,-184.7C1788.14,-160.01 1776.86,-89.68 1734.64,-56 1699.34,-27.84 1565.59,-16.5 1503.14,-12.68"/>
<polygon fill="midnightblue" stroke="midnightblue" points="1503.24,-9.18 1493.05,-12.08 1502.83,-16.16 1503.24,-9.18"/>
</g>
<!-- Node19&#45;&gt;Node4 -->
<g id="edge24" class="edge">
<title>Node19&#45;&gt;Node4</title>
<path fill="none" stroke="midnightblue" d="M1716.92,-191.62C1571.09,-187.36 1238.51,-174.76 960.64,-143 878.25,-133.58 858.81,-123.19 776.64,-112 626.74,-91.59 585.67,-96.07 431.67,-76.06"/>
<polygon fill="midnightblue" stroke="midnightblue" points="431.74,-72.54 421.36,-74.71 430.82,-79.48 431.74,-72.54"/>
</g>
<!-- Node19&#45;&gt;Node14 -->
<g id="edge56" class="edge">
<title>Node19&#45;&gt;Node14</title>
<path fill="none" stroke="midnightblue" d="M1848.91,-184.97C1911.23,-175.5 2013.73,-159.39 2101.64,-143 2108.19,-141.78 2115.07,-140.42 2121.85,-139.04"/>
<polygon fill="midnightblue" stroke="midnightblue" points="2122.57,-142.47 2131.66,-137.02 2121.16,-135.61 2122.57,-142.47"/>
</g>
<!-- Node20 -->
<g id="node20" class="node">
<title>Node20</title>
<g id="a_node20"><a xlink:href="_field_desc_types_8_h.html" target="_top" xlink:title=" ">
<polygon fill="white" stroke="black" points="1779.64,-0.5 1779.64,-19.5 1955.64,-19.5 1955.64,-0.5 1779.64,-0.5"/>
<text text-anchor="middle" x="1867.64" y="-7.5" font-family="Helvetica,sans-Serif" font-size="10.00">amr&#45;wind/core/FieldDescTypes.H</text>
</a>
</g>
</g>
<!-- Node19&#45;&gt;Node20 -->
<g id="edge25" class="edge">
<title>Node19&#45;&gt;Node20</title>
<path fill="none" stroke="midnightblue" d="M1837.3,-184.96C1887.63,-175.02 1964.86,-158.05 1990.64,-143 2026.21,-122.24 2039.32,-114.22 2054.64,-76 2057.95,-67.75 2060.14,-62.98 2054.64,-56 2041.53,-39.36 1995.49,-28.16 1952.38,-21.1"/>
<polygon fill="midnightblue" stroke="midnightblue" points="1952.79,-17.62 1942.37,-19.52 1951.71,-24.54 1952.79,-17.62"/>
</g>
<!-- Node21 -->
<g id="node21" class="node">
<title>Node21</title>
<g id="a_node21"><a xlink:href="_field_utils_8_h.html" target="_top" xlink:title=" ">
<polygon fill="white" stroke="black" points="2101.64,-56.5 2101.64,-75.5 2247.64,-75.5 2247.64,-56.5 2101.64,-56.5"/>
<text text-anchor="middle" x="2174.64" y="-63.5" font-family="Helvetica,sans-Serif" font-size="10.00">amr&#45;wind/core/FieldUtils.H</text>
</a>
</g>
</g>
<!-- Node19&#45;&gt;Node21 -->
<g id="edge26" class="edge">
<title>Node19&#45;&gt;Node21</title>
<path fill="none" stroke="midnightblue" d="M1866.35,-188.51C1922.48,-182.69 2000.27,-170.1 2063.64,-143 2085.3,-133.74 2087.26,-125.39 2106.64,-112 2121.88,-101.47 2139.3,-89.95 2152.69,-81.21"/>
<polygon fill="midnightblue" stroke="midnightblue" points="2154.77,-84.03 2161.25,-75.64 2150.96,-78.16 2154.77,-84.03"/>
</g>
<!-- Node22 -->
<g id="node22" class="node">
<title>Node22</title>
<g id="a_node22"><a xlink:title=" ">
<polygon fill="white" stroke="#bfbfbf" points="973.14,-0.5 973.14,-19.5 1082.14,-19.5 1082.14,-0.5 973.14,-0.5"/>
<text text-anchor="middle" x="1027.64" y="-7.5" font-family="Helvetica,sans-Serif" font-size="10.00">AMReX_MultiFab.H</text>
</a>
</g>
</g>
<!-- Node19&#45;&gt;Node22 -->
<g id="edge57" class="edge">
<title>Node19&#45;&gt;Node22</title>
<path fill="none" stroke="midnightblue" d="M1717.04,-192.7C1402.72,-189.15 199.11,-173.6 124.64,-143 84.21,-126.39 70.09,-116.08 52.64,-76 49.09,-67.85 46.5,-62.43 52.64,-56 84.09,-23.07 750.29,-13.71 962.99,-11.56"/>
<polygon fill="midnightblue" stroke="midnightblue" points="963.1,-15.06 973.07,-11.46 963.03,-8.06 963.1,-15.06"/>
</g>
<!-- Node24 -->
<g id="node24" class="node">
<title>Node24</title>
<g id="a_node24"><a xlink:href="_field_8_h.html" target="_top" xlink:title=" ">
<polygon fill="white" stroke="black" points="969.64,-118 969.64,-137 1093.64,-137 1093.64,-118 969.64,-118"/>
<text text-anchor="middle" x="1031.64" y="-125" font-family="Helvetica,sans-Serif" font-size="10.00">amr&#45;wind/core/Field.H</text>
</a>
</g>
</g>
<!-- Node19&#45;&gt;Node24 -->
<g id="edge30" class="edge">
<title>Node19&#45;&gt;Node24</title>
<path fill="none" stroke="midnightblue" d="M1717.04,-187.12C1570.76,-174.61 1248.01,-147.01 1103.76,-134.67"/>
<polygon fill="midnightblue" stroke="midnightblue" points="1103.95,-131.17 1093.69,-133.81 1103.35,-138.15 1103.95,-131.17"/>
</g>
<!-- Node30 -->
<g id="node30" class="node">
<title>Node30</title>
<g id="a_node30"><a xlink:href="_int_field_8_h.html" target="_top" xlink:title=" ">
<polygon fill="white" stroke="black" points="1822.14,-118 1822.14,-137 1959.14,-137 1959.14,-118 1822.14,-118"/>
<text text-anchor="middle" x="1890.64" y="-125" font-family="Helvetica,sans-Serif" font-size="10.00">amr&#45;wind/core/IntField.H</text>
</a>
</g>
</g>
<!-- Node19&#45;&gt;Node30 -->
<g id="edge45" class="edge">
<title>Node19&#45;&gt;Node30</title>
<path fill="none" stroke="midnightblue" d="M1804.99,-184.73C1821.4,-173.96 1849.44,-155.55 1868.95,-142.74"/>
<polygon fill="midnightblue" stroke="midnightblue" points="1871.06,-145.54 1877.5,-137.13 1867.22,-139.69 1871.06,-145.54"/>
</g>
<!-- Node31 -->
<g id="node31" class="node">
<title>Node31</title>
<g id="a_node31"><a xlink:title=" ">
<polygon fill="white" stroke="#bfbfbf" points="1933.64,-56.5 1933.64,-75.5 2045.64,-75.5 2045.64,-56.5 1933.64,-56.5"/>
<text text-anchor="middle" x="1989.64" y="-63.5" font-family="Helvetica,sans-Serif" font-size="10.00">AMReX_iMultiFab.H</text>
</a>
</g>
</g>
<!-- Node19&#45;&gt;Node31 -->
<g id="edge58" class="edge">
<title>Node19&#45;&gt;Node31</title>
<path fill="none" stroke="midnightblue" d="M1866.46,-188.79C1901.74,-182.81 1941.87,-170 1968.64,-143 1983.6,-127.92 1988.14,-103.19 1989.4,-86.06"/>
<polygon fill="midnightblue" stroke="midnightblue" points="1992.91,-85.76 1989.83,-75.62 1985.92,-85.47 1992.91,-85.76"/>
</g>
<!-- Node32 -->
<g id="node32" class="node">
<title>Node32</title>
<g id="a_node32"><a xlink:href="_scratch_field_8_h.html" target="_top" xlink:title=" ">
<polygon fill="white" stroke="black" points="1555.64,-118 1555.64,-137 1715.64,-137 1715.64,-118 1555.64,-118"/>
<text text-anchor="middle" x="1635.64" y="-125" font-family="Helvetica,sans-Serif" font-size="10.00">amr&#45;wind/core/ScratchField.H</text>
</a>
</g>
</g>
<!-- Node19&#45;&gt;Node32 -->
<g id="edge49" class="edge">
<title>Node19&#45;&gt;Node32</title>
<path fill="none" stroke="midnightblue" d="M1770.93,-184.87C1744,-173.65 1696.79,-153.98 1665.86,-141.09"/>
<polygon fill="midnightblue" stroke="midnightblue" points="1667.02,-137.78 1656.44,-137.17 1664.33,-144.24 1667.02,-137.78"/>
</g>
<!-- Node21&#45;&gt;Node20 -->
<g id="edge27" class="edge">
<title>Node21&#45;&gt;Node20</title>
<path fill="none" stroke="midnightblue" d="M2126,-56.44C2071.77,-46.9 1984.09,-31.48 1926.16,-21.29"/>
<polygon fill="midnightblue" stroke="midnightblue" points="1926.52,-17.8 1916.06,-19.52 1925.3,-24.7 1926.52,-17.8"/>
</g>
<!-- Node21&#45;&gt;Node22 -->
<g id="edge28" class="edge">
<title>Node21&#45;&gt;Node22</title>
<path fill="none" stroke="midnightblue" d="M2101.37,-59.14C2085.94,-58.01 2069.76,-56.9 2054.64,-56 1866.05,-44.8 1287,-21.35 1092.29,-13.57"/>
<polygon fill="midnightblue" stroke="midnightblue" points="1092.34,-10.07 1082.21,-13.17 1092.06,-17.06 1092.34,-10.07"/>
</g>
<!-- Node23 -->
<g id="node23" class="node">
<title>Node23</title>
<g id="a_node23"><a xlink:title=" ">
<polygon fill="white" stroke="#bfbfbf" points="2112.64,-0.5 2112.64,-19.5 2236.64,-19.5 2236.64,-0.5 2112.64,-0.5"/>
<text text-anchor="middle" x="2174.64" y="-7.5" font-family="Helvetica,sans-Serif" font-size="10.00">AMReX_Interpolater.H</text>
</a>
</g>
</g>
<!-- Node21&#45;&gt;Node23 -->
<g id="edge29" class="edge">
<title>Node21&#45;&gt;Node23</title>
<path fill="none" stroke="midnightblue" d="M2174.64,-56.08C2174.64,-49.01 2174.64,-38.86 2174.64,-29.99"/>
<polygon fill="midnightblue" stroke="midnightblue" points="2178.14,-29.75 2174.64,-19.75 2171.14,-29.75 2178.14,-29.75"/>
</g>
<!-- Node24&#45;&gt;Node3 -->
<g id="edge31" class="edge">
<title>Node24&#45;&gt;Node3</title>
<path fill="none" stroke="midnightblue" d="M1093.7,-122.09C1182.85,-115.05 1342.2,-99.6 1394.64,-76 1419.49,-64.82 1442.43,-42.92 1456.47,-27.64"/>
<polygon fill="midnightblue" stroke="midnightblue" points="1459.28,-29.75 1463.31,-19.95 1454.05,-25.1 1459.28,-29.75"/>
</g>
<!-- Node24&#45;&gt;Node4 -->
<g id="edge33" class="edge">
<title>Node24&#45;&gt;Node4</title>
<path fill="none" stroke="midnightblue" d="M969.62,-122.84C862.19,-116.16 634.32,-100.49 431.31,-75.99"/>
<polygon fill="midnightblue" stroke="midnightblue" points="431.71,-72.51 421.36,-74.78 430.86,-79.46 431.71,-72.51"/>
</g>
<!-- Node24&#45;&gt;Node7 -->
<g id="edge32" class="edge">
<title>Node24&#45;&gt;Node7</title>
<path fill="none" stroke="midnightblue" d="M969.51,-119.93C852.92,-107.61 604.4,-81.35 508,-71.16"/>
<polygon fill="midnightblue" stroke="midnightblue" points="508.13,-67.65 497.82,-70.08 507.4,-74.62 508.13,-67.65"/>
</g>
<!-- Node24&#45;&gt;Node20 -->
<g id="edge39" class="edge">
<title>Node24&#45;&gt;Node20</title>
<path fill="none" stroke="midnightblue" d="M1093.81,-118.83C1171.15,-109.2 1307.23,-92.02 1423.64,-76 1558.01,-57.51 1714.98,-34.11 1801.66,-21.02"/>
<polygon fill="midnightblue" stroke="midnightblue" points="1802.25,-24.47 1811.61,-19.52 1801.2,-17.55 1802.25,-24.47"/>
</g>
<!-- Node24&#45;&gt;Node22 -->
<g id="edge35" class="edge">
<title>Node24&#45;&gt;Node22</title>
<path fill="none" stroke="midnightblue" d="M969.49,-121.46C938.95,-115.47 904.7,-102.76 885.64,-76 862,-42.81 915.07,-26.18 962.93,-18.12"/>
<polygon fill="midnightblue" stroke="midnightblue" points="963.7,-21.54 973.03,-16.52 962.61,-14.62 963.7,-21.54"/>
</g>
<!-- Node25 -->
<g id="node25" class="node">
<title>Node25</title>
<g id="a_node25"><a xlink:title=" ">
<polygon fill="white" stroke="#bfbfbf" points="999.64,-56.5 999.64,-75.5 1063.64,-75.5 1063.64,-56.5 999.64,-56.5"/>
<text text-anchor="middle" x="1031.64" y="-63.5" font-family="Helvetica,sans-Serif" font-size="10.00">algorithm</text>
</a>
</g>
</g>
<!-- Node24&#45;&gt;Node25 -->
<g id="edge34" class="edge">
<title>Node24&#45;&gt;Node25</title>
<path fill="none" stroke="midnightblue" d="M1031.64,-117.98C1031.64,-109.58 1031.64,-96.48 1031.64,-85.66"/>
<polygon fill="midnightblue" stroke="midnightblue" points="1035.14,-85.51 1031.64,-75.51 1028.14,-85.51 1035.14,-85.51"/>
</g>
<!-- Node26 -->
<g id="node26" class="node">
<title>Node26</title>
<g id="a_node26"><a xlink:title=" ">
<polygon fill="white" stroke="#bfbfbf" points="1082.14,-56.5 1082.14,-75.5 1181.14,-75.5 1181.14,-56.5 1082.14,-56.5"/>
<text text-anchor="middle" x="1131.64" y="-63.5" font-family="Helvetica,sans-Serif" font-size="10.00">AMReX_BCRec.H</text>
</a>
</g>
</g>
<!-- Node24&#45;&gt;Node26 -->
<g id="edge36" class="edge">
<title>Node24&#45;&gt;Node26</title>
<path fill="none" stroke="midnightblue" d="M1045.97,-117.98C1062.31,-108.25 1089.24,-92.23 1108.55,-80.74"/>
<polygon fill="midnightblue" stroke="midnightblue" points="1110.54,-83.63 1117.34,-75.51 1106.96,-77.61 1110.54,-83.63"/>
</g>
<!-- Node27 -->
<g id="node27" class="node">
<title>Node27</title>
<g id="a_node27"><a xlink:title=" ">
<polygon fill="white" stroke="#bfbfbf" points="894.14,-56.5 894.14,-75.5 981.14,-75.5 981.14,-56.5 894.14,-56.5"/>
<text text-anchor="middle" x="937.64" y="-63.5" font-family="Helvetica,sans-Serif" font-size="10.00">AMReX_Gpu.H</text>
</a>
</g>
</g>
<!-- Node24&#45;&gt;Node27 -->
<g id="edge37" class="edge">
<title>Node24&#45;&gt;Node27</title>
<path fill="none" stroke="midnightblue" d="M1018.17,-117.98C1002.96,-108.34 977.96,-92.52 959.84,-81.05"/>
<polygon fill="midnightblue" stroke="midnightblue" points="961.41,-77.9 951.09,-75.51 957.66,-83.81 961.41,-77.9"/>
</g>
<!-- Node28 -->
<g id="node28" class="node">
<title>Node28</title>
<g id="a_node28"><a xlink:href="incflo__enums_8_h.html" target="_top" xlink:title=" ">
<polygon fill="white" stroke="black" points="696.14,-56.5 696.14,-75.5 837.14,-75.5 837.14,-56.5 696.14,-56.5"/>
<text text-anchor="middle" x="766.64" y="-63.5" font-family="Helvetica,sans-Serif" font-size="10.00">amr&#45;wind/incflo_enums.H</text>
</a>
</g>
</g>
<!-- Node24&#45;&gt;Node28 -->
<g id="edge38" class="edge">
<title>Node24&#45;&gt;Node28</title>
<path fill="none" stroke="midnightblue" d="M993.67,-117.98C946.45,-107.37 865.78,-89.26 814.41,-77.72"/>
<polygon fill="midnightblue" stroke="midnightblue" points="815.06,-74.28 804.54,-75.51 813.53,-81.11 815.06,-74.28"/>
</g>
<!-- Node29 -->
<g id="node29" class="node">
<title>Node29</title>
<g id="a_node29"><a xlink:href="_view_field_8_h.html" target="_top" xlink:title=" ">
<polygon fill="white" stroke="black" points="1237.64,-56.5 1237.64,-75.5 1385.64,-75.5 1385.64,-56.5 1237.64,-56.5"/>
<text text-anchor="middle" x="1311.64" y="-63.5" font-family="Helvetica,sans-Serif" font-size="10.00">amr&#45;wind/core/ViewField.H</text>
</a>
</g>
</g>
<!-- Node24&#45;&gt;Node29 -->
<g id="edge40" class="edge">
<title>Node24&#45;&gt;Node29</title>
<path fill="none" stroke="midnightblue" d="M1071.76,-117.98C1121.76,-107.35 1207.24,-89.18 1261.51,-77.65"/>
<polygon fill="midnightblue" stroke="midnightblue" points="1262.55,-81.01 1271.6,-75.51 1261.09,-74.16 1262.55,-81.01"/>
</g>
<!-- Node29&#45;&gt;Node3 -->
<g id="edge41" class="edge">
<title>Node29&#45;&gt;Node3</title>
<path fill="none" stroke="midnightblue" d="M1336.84,-56.44C1364.53,-47.04 1409.06,-31.91 1439.07,-21.72"/>
<polygon fill="midnightblue" stroke="midnightblue" points="1440.3,-25 1448.64,-18.47 1438.04,-18.37 1440.3,-25"/>
</g>
<!-- Node29&#45;&gt;Node12 -->
<g id="edge44" class="edge">
<title>Node29&#45;&gt;Node12</title>
<path fill="none" stroke="midnightblue" d="M1311.64,-56.08C1311.64,-49.01 1311.64,-38.86 1311.64,-29.99"/>
<polygon fill="midnightblue" stroke="midnightblue" points="1315.14,-29.75 1311.64,-19.75 1308.14,-29.75 1315.14,-29.75"/>
</g>
<!-- Node29&#45;&gt;Node20 -->
<g id="edge42" class="edge">
<title>Node29&#45;&gt;Node20</title>
<path fill="none" stroke="midnightblue" d="M1385.76,-57.8C1484.67,-48.19 1660.07,-31.16 1769.76,-20.51"/>
<polygon fill="midnightblue" stroke="midnightblue" points="1770.23,-23.98 1779.84,-19.53 1769.55,-17.01 1770.23,-23.98"/>
</g>
<!-- Node29&#45;&gt;Node22 -->
<g id="edge43" class="edge">
<title>Node29&#45;&gt;Node22</title>
<path fill="none" stroke="midnightblue" d="M1266.64,-56.44C1216.68,-46.94 1136.04,-31.61 1082.44,-21.42"/>
<polygon fill="midnightblue" stroke="midnightblue" points="1082.91,-17.95 1072.43,-19.52 1081.6,-24.82 1082.91,-17.95"/>
</g>
<!-- Node30&#45;&gt;Node3 -->
<g id="edge46" class="edge">
<title>Node30&#45;&gt;Node3</title>
<path fill="none" stroke="midnightblue" d="M1883.26,-117.77C1869.67,-102.37 1839.01,-70.62 1805.64,-56 1751.6,-32.32 1575.72,-18.07 1502.79,-13.05"/>
<polygon fill="midnightblue" stroke="midnightblue" points="1503.01,-9.56 1492.8,-12.38 1502.54,-16.54 1503.01,-9.56"/>
</g>
<!-- Node30&#45;&gt;Node20 -->
<g id="edge47" class="edge">
<title>Node30&#45;&gt;Node20</title>
<path fill="none" stroke="midnightblue" d="M1890.02,-117.73C1888.95,-104.32 1886.42,-77.94 1881.64,-56 1879.68,-46.99 1876.74,-37.2 1874.05,-29.06"/>
<polygon fill="midnightblue" stroke="midnightblue" points="1877.33,-27.83 1870.78,-19.51 1870.71,-30.1 1877.33,-27.83"/>
</g>
<!-- Node30&#45;&gt;Node31 -->
<g id="edge48" class="edge">
<title>Node30&#45;&gt;Node31</title>
<path fill="none" stroke="midnightblue" d="M1904.83,-117.98C1921,-108.25 1947.67,-92.23 1966.79,-80.74"/>
<polygon fill="midnightblue" stroke="midnightblue" points="1968.72,-83.66 1975.48,-75.51 1965.11,-77.66 1968.72,-83.66"/>
</g>
<!-- Node32&#45;&gt;Node3 -->
<g id="edge50" class="edge">
<title>Node32&#45;&gt;Node3</title>
<path fill="none" stroke="midnightblue" d="M1624.85,-117.97C1607.58,-104.41 1572.53,-77.32 1541.64,-56 1525.88,-45.12 1507.62,-33.57 1493.56,-24.89"/>
<polygon fill="midnightblue" stroke="midnightblue" points="1495.36,-21.89 1485,-19.64 1491.7,-27.85 1495.36,-21.89"/>
</g>
<!-- Node32&#45;&gt;Node12 -->
<g id="edge54" class="edge">
<title>Node32&#45;&gt;Node12</title>
<path fill="none" stroke="midnightblue" d="M1611.55,-117.91C1554.5,-97.57 1411,-46.42 1345.36,-23.02"/>
<polygon fill="midnightblue" stroke="midnightblue" points="1346.48,-19.7 1335.89,-19.64 1344.13,-26.3 1346.48,-19.7"/>
</g>
<!-- Node32&#45;&gt;Node20 -->
<g id="edge51" class="edge">
<title>Node32&#45;&gt;Node20</title>
<path fill="none" stroke="midnightblue" d="M1653.08,-117.82C1693.4,-97.74 1793.29,-48.01 1841.2,-24.17"/>
<polygon fill="midnightblue" stroke="midnightblue" points="1842.93,-27.21 1850.32,-19.62 1839.81,-20.95 1842.93,-27.21"/>
</g>
<!-- Node32&#45;&gt;Node22 -->
<g id="edge53" class="edge">
<title>Node32&#45;&gt;Node22</title>
<path fill="none" stroke="midnightblue" d="M1555.45,-125.02C1472.04,-121.54 1338.53,-110.47 1228.64,-76 1210.43,-70.29 1208.39,-63.02 1190.64,-56 1153.78,-41.41 1110.46,-29.69 1077.74,-21.87"/>
<polygon fill="midnightblue" stroke="midnightblue" points="1078.49,-18.45 1067.95,-19.57 1076.89,-25.27 1078.49,-18.45"/>
</g>
<!-- Node32&#45;&gt;Node29 -->
<g id="edge52" class="edge">
<title>Node32&#45;&gt;Node29</title>
<path fill="none" stroke="midnightblue" d="M1589.22,-117.98C1530.88,-107.26 1430.8,-88.88 1368.09,-77.37"/>
<polygon fill="midnightblue" stroke="midnightblue" points="1368.45,-73.87 1357.98,-75.51 1367.18,-80.76 1368.45,-73.87"/>
</g>
<!-- Node33 -->
<g id="node33" class="node">
<title>Node33</title>
<g id="a_node33"><a xlink:title=" ">
<polygon fill="white" stroke="#bfbfbf" points="1594.14,-56.5 1594.14,-75.5 1725.14,-75.5 1725.14,-56.5 1594.14,-56.5"/>
<text text-anchor="middle" x="1659.64" y="-63.5" font-family="Helvetica,sans-Serif" font-size="10.00">AMReX_PhysBCFunct.H</text>
</a>
</g>
</g>
<!-- Node32&#45;&gt;Node33 -->
<g id="edge55" class="edge">
<title>Node32&#45;&gt;Node33</title>
<path fill="none" stroke="midnightblue" d="M1639.08,-117.98C1642.54,-109.4 1647.97,-95.93 1652.39,-84.98"/>
<polygon fill="midnightblue" stroke="midnightblue" points="1655.72,-86.09 1656.21,-75.51 1649.22,-83.47 1655.72,-86.09"/>
</g>
<!-- Node34&#45;&gt;Node3 -->
<g id="edge60" class="edge">
<title>Node34&#45;&gt;Node3</title>
<path fill="none" stroke="midnightblue" d="M843.16,-187.2C995.77,-173.6 1328.59,-137.63 1423.64,-76 1441.3,-64.55 1454.49,-43.97 1462.33,-29.02"/>
<polygon fill="midnightblue" stroke="midnightblue" points="1465.62,-30.28 1466.9,-19.76 1459.34,-27.18 1465.62,-30.28"/>
</g>
<!-- Node34&#45;&gt;Node6 -->
<g id="edge61" class="edge">
<title>Node34&#45;&gt;Node6</title>
<path fill="none" stroke="midnightblue" d="M687.79,-185.14C597.86,-175.4 445.48,-158.65 314.64,-143 302.29,-141.52 289.2,-139.91 276.46,-138.3"/>
<polygon fill="midnightblue" stroke="midnightblue" points="276.69,-134.81 266.33,-137.03 275.81,-141.75 276.69,-134.81"/>
</g>
<!-- Node34&#45;&gt;Node11 -->
<g id="edge62" class="edge">
<title>Node34&#45;&gt;Node11</title>
<path fill="none" stroke="midnightblue" d="M713.86,-179.48C669.91,-167.57 607.67,-150.72 566.99,-139.7"/>
<polygon fill="midnightblue" stroke="midnightblue" points="567.7,-136.26 557.13,-137.03 565.87,-143.02 567.7,-136.26"/>
</g>
<!-- Node34&#45;&gt;Node20 -->
<g id="edge65" class="edge">
<title>Node34&#45;&gt;Node20</title>
<path fill="none" stroke="midnightblue" d="M843.4,-192.43C1057.38,-189.06 1644.47,-176.8 1724.64,-143 1783.64,-118.13 1833.64,-57.75 1855.65,-28.06"/>
<polygon fill="midnightblue" stroke="midnightblue" points="1858.76,-29.74 1861.78,-19.58 1853.08,-25.63 1858.76,-29.74"/>
</g>
<!-- Node34&#45;&gt;Node28 -->
<g id="edge66" class="edge">
<title>Node34&#45;&gt;Node28</title>
<path fill="none" stroke="midnightblue" d="M769.54,-179.48C772.13,-169.42 775.3,-155.49 776.64,-143 778.12,-129.3 778.15,-125.7 776.64,-112 775.67,-103.14 773.65,-93.47 771.68,-85.38"/>
<polygon fill="midnightblue" stroke="midnightblue" points="775.03,-84.33 769.12,-75.53 768.25,-86.09 775.03,-84.33"/>
</g>
<!-- Node35 -->
<g id="node35" class="node">
<title>Node35</title>
<g id="a_node35"><a xlink:href="_p_d_e_fields_8_h.html" target="_top" xlink:title=" ">
<polygon fill="white" stroke="black" points="612.14,-112.5 612.14,-142.5 767.14,-142.5 767.14,-112.5 612.14,-112.5"/>
<text text-anchor="start" x="620.14" y="-130.5" font-family="Helvetica,sans-Serif" font-size="10.00">amr&#45;wind/equation_systems</text>
<text text-anchor="middle" x="689.64" y="-119.5" font-family="Helvetica,sans-Serif" font-size="10.00">/PDEFields.H</text>
</a>
</g>
</g>
<!-- Node34&#45;&gt;Node35 -->
<g id="edge63" class="edge">
<title>Node34&#45;&gt;Node35</title>
<path fill="none" stroke="midnightblue" d="M749.15,-179.4C738.79,-170.54 725.26,-158.96 713.71,-149.09"/>
<polygon fill="midnightblue" stroke="midnightblue" points="715.98,-146.42 706.1,-142.58 711.43,-151.74 715.98,-146.42"/>
</g>
<!-- Node36 -->
<g id="node36" class="node">
<title>Node36</title>
<g id="a_node36"><a xlink:title=" ">
<polygon fill="white" stroke="#bfbfbf" points="591.64,-56.5 591.64,-75.5 639.64,-75.5 639.64,-56.5 591.64,-56.5"/>
<text text-anchor="middle" x="615.64" y="-63.5" font-family="Helvetica,sans-Serif" font-size="10.00">iosfwd</text>
</a>
</g>
</g>
<!-- Node35&#45;&gt;Node36 -->
<g id="edge64" class="edge">
<title>Node35&#45;&gt;Node36</title>
<path fill="none" stroke="midnightblue" d="M672.11,-112.4C660.8,-103.31 646.1,-91.49 634.54,-82.19"/>
<polygon fill="midnightblue" stroke="midnightblue" points="636.4,-79.2 626.41,-75.66 632.01,-84.65 636.4,-79.2"/>
</g>
<!-- Node37&#45;&gt;Node6 -->
<g id="edge68" class="edge">
<title>Node37&#45;&gt;Node6</title>
<path fill="none" stroke="midnightblue" d="M367.15,-184.87C333.34,-173.42 273.55,-153.18 235.56,-140.32"/>
<polygon fill="midnightblue" stroke="midnightblue" points="236.53,-136.96 225.94,-137.06 234.29,-143.59 236.53,-136.96"/>
</g>
<!-- Node37&#45;&gt;Node11 -->
<g id="edge69" class="edge">
<title>Node37&#45;&gt;Node11</title>
<path fill="none" stroke="midnightblue" d="M410.3,-184.87C432.96,-173.8 472.47,-154.49 498.84,-141.6"/>
<polygon fill="midnightblue" stroke="midnightblue" points="500.46,-144.7 507.91,-137.17 497.39,-138.41 500.46,-144.7"/>
</g>
<!-- Node37&#45;&gt;Node22 -->
<g id="edge70" class="edge">
<title>Node37&#45;&gt;Node22</title>
<path fill="none" stroke="midnightblue" d="M323.75,-189.01C221.46,-181.65 39.31,-165.51 19.64,-143 -5.8,-113.88 -7.08,-83.94 19.64,-56 52.27,-21.88 744.86,-13.31 962.67,-11.46"/>
<polygon fill="midnightblue" stroke="midnightblue" points="963.02,-14.96 972.99,-11.37 962.96,-7.96 963.02,-14.96"/>
</g>
<!-- Node38 -->
<g id="node38" class="node">
<title>Node38</title>
<g id="a_node38"><a xlink:title=" ">
<polygon fill="white" stroke="#bfbfbf" points="324.14,-118 324.14,-137 439.14,-137 439.14,-118 324.14,-118"/>
<text text-anchor="middle" x="381.64" y="-125" font-family="Helvetica,sans-Serif" font-size="10.00">AMReX_Geometry.H</text>
</a>
</g>
</g>
<!-- Node37&#45;&gt;Node38 -->
<g id="edge71" class="edge">
<title>Node37&#45;&gt;Node38</title>
<path fill="none" stroke="midnightblue" d="M391.16,-184.73C389.54,-175.18 386.91,-159.62 384.82,-147.28"/>
<polygon fill="midnightblue" stroke="midnightblue" points="388.22,-146.4 383.1,-137.13 381.32,-147.57 388.22,-146.4"/>
</g>
</g>
</svg>
        <g id="navigator" transform="translate(0 0)" fill="#404254">
                <rect fill="#f2f5e9" fill-opacity="0.5" stroke="#606060" stroke-width=".5" x="0" y="0" width="60" height="60"/>
                <use id="zoomplus" xlink:href="#zoomPlus" x="17" y="9" onmousedown="handleZoom(evt,'in')"/>
                <use id="zoomminus" xlink:href="#zoomMin" x="42" y="9" onmousedown="handleZoom(evt,'out')"/>
                <use id="reset" xlink:href="#resetDef" x="30" y="36" onmousedown="handleReset()"/>
                <g id="arrowUp" xlink:href="#dirArrow" transform="translate(30 24)" onmousedown="handlePan(0,-1)">
                  <use xlink:href="#rim" fill="#404040">
                        <set attributeName="fill" to="#808080" begin="arrowUp.mouseover" end="arrowUp.mouseout"/>
                  </use>
                  <path fill="none" stroke="white" stroke-width="1.5" d="M0,-3.0v7 M-2.5,-0.5L0,-3.0L2.5,-0.5"/>
                </g>
                <g id="arrowRight" xlink:href="#dirArrow" transform="rotate(90) translate(36 -43)" onmousedown="handlePan(1,0)">
                  <use xlink:href="#rim" fill="#404040">
                        <set attributeName="fill" to="#808080" begin="arrowRight.mouseover" end="arrowRight.mouseout"/>
                  </use>
                  <path fill="none" stroke="white" stroke-width="1.5" d="M0,-3.0v7 M-2.5,-0.5L0,-3.0L2.5,-0.5"/>
                </g>
                <g id="arrowDown" xlink:href="#dirArrow" transform="rotate(180) translate(-30 -48)" onmousedown="handlePan(0,1)">
                  <use xlink:href="#rim" fill="#404040">
                        <set attributeName="fill" to="#808080" begin="arrowDown.mouseover" end="arrowDown.mouseout"/>
                  </use>
                  <path fill="none" stroke="white" stroke-width="1.5" d="M0,-3.0v7 M-2.5,-0.5L0,-3.0L2.5,-0.5"/>
                </g>
                <g id="arrowLeft" xlink:href="#dirArrow" transform="rotate(270) translate(-36 17)" onmousedown="handlePan(-1,0)">
                  <use xlink:href="#rim" fill="#404040">
                        <set attributeName="fill" to="#808080" begin="arrowLeft.mouseover" end="arrowLeft.mouseout"/>
                  </use>
                  <path fill="none" stroke="white" stroke-width="1.5" d="M0,-3.0v7 M-2.5,-0.5L0,-3.0L2.5,-0.5"/>
                </g>
        </g>
        <svg viewBox="0 0 15 15" width="100%" height="30px" preserveAspectRatio="xMaxYMin meet">
         <g id="arrow_out" transform="scale(0.3 0.3)">
          <a xlink:href="_derived_qty_defs_8_h__incl_org.svg" target="_base">
           <rect id="button" ry="5" rx="5" y="6" x="6" height="38" width="38"
                fill="#f2f5e9" fill-opacity="0.5" stroke="#606060" stroke-width="1.0"/>
           <path id="arrow"
             d="M 11.500037,31.436501 C 11.940474,20.09759 22.043105,11.32322 32.158766,21.979434 L 37.068811,17.246167 C 37.068811,17.246167 37.088388,32 37.088388,32 L 22.160133,31.978069 C 22.160133,31.978069 26.997745,27.140456 26.997745,27.140456 C 18.528582,18.264221 13.291696,25.230495 11.500037,31.436501 z"
             style="fill:#404040;"/>
          </a>
         </g>
        </svg>
</svg>
