<?xml version="1.0" encoding="UTF-8" standalone="no"?>
<!DOCTYPE svg PUBLIC "-//W3C//DTD SVG 1.1//EN"
 "http://www.w3.org/Graphics/SVG/1.1/DTD/svg11.dtd">
<!-- Generated by graphviz version 2.43.0 (0)
 -->
<!-- Title: ExtSolver.H Pages: 1 -->
<svg width="248pt" height="252pt"
 viewBox="0.00 0.00 248.00 252.00" xmlns="http://www.w3.org/2000/svg" xmlns:xlink="http://www.w3.org/1999/xlink">
<g id="graph0" class="graph" transform="scale(1 1) rotate(0) translate(4 248)">
<title>ExtSolver.H</title>
<polygon fill="white" stroke="transparent" points="-4,4 -4,-248 244,-248 244,4 -4,4"/>
<!-- Node1 -->
<g id="node1" class="node">
<title>Node1</title>
<g id="a_node1"><a xlink:title=" ">
<polygon fill="#bfbfbf" stroke="black" points="93.5,-224.5 93.5,-243.5 166.5,-243.5 166.5,-224.5 93.5,-224.5"/>
<text text-anchor="middle" x="130" y="-231.5" font-family="Helvetica,sans-Serif" font-size="10.00">ExtSolver.H</text>
</a>
</g>
</g>
<!-- Node2 -->
<g id="node2" class="node">
<title>Node2</title>
<g id="a_node2"><a xlink:href="_c_f_d_sim_8cpp.html" target="_top" xlink:title=" ">
<polygon fill="white" stroke="black" points="0,-168.5 0,-187.5 76,-187.5 76,-168.5 0,-168.5"/>
<text text-anchor="middle" x="38" y="-175.5" font-family="Helvetica,sans-Serif" font-size="10.00">CFDSim.cpp</text>
</a>
</g>
</g>
<!-- Node1&#45;&gt;Node2 -->
<g id="edge1" class="edge">
<title>Node1&#45;&gt;Node2</title>
<path fill="none" stroke="midnightblue" d="M106.45,-219.18C89.52,-209.24 67.22,-196.15 52.74,-187.65"/>
<polygon fill="midnightblue" stroke="midnightblue" points="104.82,-222.28 115.22,-224.32 108.37,-216.24 104.82,-222.28"/>
</g>
<!-- Node3 -->
<g id="node3" class="node">
<title>Node3</title>
<g id="a_node3"><a xlink:href="_fast_iface_8_h.html" target="_top" xlink:title=" ">
<polygon fill="white" stroke="black" points="94.5,-168.5 94.5,-187.5 165.5,-187.5 165.5,-168.5 94.5,-168.5"/>
<text text-anchor="middle" x="130" y="-175.5" font-family="Helvetica,sans-Serif" font-size="10.00">FastIface.H</text>
</a>
</g>
</g>
<!-- Node1&#45;&gt;Node3 -->
<g id="edge2" class="edge">
<title>Node1&#45;&gt;Node3</title>
<path fill="none" stroke="midnightblue" d="M130,-213.8C130,-204.91 130,-194.78 130,-187.75"/>
<polygon fill="midnightblue" stroke="midnightblue" points="126.5,-214.08 130,-224.08 133.5,-214.08 126.5,-214.08"/>
</g>
<!-- Node5 -->
<g id="node5" class="node">
<title>Node5</title>
<g id="a_node5"><a xlink:href="_turbine_fast_8_h.html" target="_top" xlink:title=" ">
<polygon fill="white" stroke="black" points="153,-112.5 153,-131.5 235,-131.5 235,-112.5 153,-112.5"/>
<text text-anchor="middle" x="194" y="-119.5" font-family="Helvetica,sans-Serif" font-size="10.00">TurbineFast.H</text>
</a>
</g>
</g>
<!-- Node1&#45;&gt;Node5 -->
<g id="edge8" class="edge">
<title>Node1&#45;&gt;Node5</title>
<path fill="none" stroke="midnightblue" d="M149.36,-217.63C158.29,-209.64 168.36,-199.21 175,-188 185.91,-169.59 190.91,-144.5 192.89,-131.54"/>
<polygon fill="midnightblue" stroke="midnightblue" points="146.95,-215.08 141.61,-224.23 151.49,-220.41 146.95,-215.08"/>
</g>
<!-- Node4 -->
<g id="node4" class="node">
<title>Node4</title>
<g id="a_node4"><a xlink:href="_fast_iface_8cpp.html" target="_top" xlink:title=" ">
<polygon fill="white" stroke="black" points="55,-112.5 55,-131.5 135,-131.5 135,-112.5 55,-112.5"/>
<text text-anchor="middle" x="95" y="-119.5" font-family="Helvetica,sans-Serif" font-size="10.00">FastIface.cpp</text>
</a>
</g>
</g>
<!-- Node3&#45;&gt;Node4 -->
<g id="edge3" class="edge">
<title>Node3&#45;&gt;Node4</title>
<path fill="none" stroke="midnightblue" d="M118.7,-159.57C112.68,-150.27 105.53,-139.25 100.67,-131.75"/>
<polygon fill="midnightblue" stroke="midnightblue" points="115.84,-161.6 124.22,-168.08 121.72,-157.79 115.84,-161.6"/>
</g>
<!-- Node3&#45;&gt;Node5 -->
<g id="edge4" class="edge">
<title>Node3&#45;&gt;Node5</title>
<path fill="none" stroke="midnightblue" d="M147.99,-161.82C159.46,-152.15 173.91,-139.95 183.53,-131.83"/>
<polygon fill="midnightblue" stroke="midnightblue" points="145.67,-159.2 140.28,-168.32 150.18,-164.55 145.67,-159.2"/>
</g>
<!-- Node6 -->
<g id="node6" class="node">
<title>Node6</title>
<g id="a_node6"><a xlink:href="turbine__fast__ops_8_h.html" target="_top" xlink:title=" ">
<polygon fill="white" stroke="black" points="99,-56.5 99,-75.5 207,-75.5 207,-56.5 99,-56.5"/>
<text text-anchor="middle" x="153" y="-63.5" font-family="Helvetica,sans-Serif" font-size="10.00">turbine_fast_ops.H</text>
</a>
</g>
</g>
<!-- Node5&#45;&gt;Node6 -->
<g id="edge5" class="edge">
<title>Node5&#45;&gt;Node6</title>
<path fill="none" stroke="midnightblue" d="M180.98,-103.86C173.88,-94.5 165.4,-83.33 159.64,-75.75"/>
<polygon fill="midnightblue" stroke="midnightblue" points="178.39,-106.24 187.23,-112.08 183.97,-102 178.39,-106.24"/>
</g>
<!-- Node7 -->
<g id="node7" class="node">
<title>Node7</title>
<g id="a_node7"><a xlink:href="_turbine_fast_8cpp.html" target="_top" xlink:title=" ">
<polygon fill="white" stroke="black" points="148,-0.5 148,-19.5 240,-19.5 240,-0.5 148,-0.5"/>
<text text-anchor="middle" x="194" y="-7.5" font-family="Helvetica,sans-Serif" font-size="10.00">TurbineFast.cpp</text>
</a>
</g>
</g>
<!-- Node5&#45;&gt;Node7 -->
<g id="edge7" class="edge">
<title>Node5&#45;&gt;Node7</title>
<path fill="none" stroke="midnightblue" d="M204.76,-103.69C209.18,-95.59 213.77,-85.64 216,-76 220.78,-55.34 208.28,-31.99 200.21,-19.67"/>
<polygon fill="midnightblue" stroke="midnightblue" points="201.65,-102.08 199.64,-112.48 207.7,-105.6 201.65,-102.08"/>
</g>
<!-- Node6&#45;&gt;Node7 -->
<g id="edge6" class="edge">
<title>Node6&#45;&gt;Node7</title>
<path fill="none" stroke="midnightblue" d="M166.02,-47.86C173.12,-38.5 181.6,-27.33 187.36,-19.75"/>
<polygon fill="midnightblue" stroke="midnightblue" points="163.03,-46 159.77,-56.08 168.61,-50.24 163.03,-46"/>
</g>
</g>
</svg>
