<?xml version="1.0" encoding="UTF-8" standalone="no"?>
<!DOCTYPE svg PUBLIC "-//W3C//DTD SVG 1.1//EN"
 "http://www.w3.org/Graphics/SVG/1.1/DTD/svg11.dtd">
<!-- Generated by graphviz version 2.43.0 (0)
 -->
<!-- Title: FieldPlaneAveragingFine.H Pages: 1 -->
<svg width="1924pt" height="263pt"
 viewBox="0.00 0.00 1924.00 263.00" xmlns="http://www.w3.org/2000/svg" xmlns:xlink="http://www.w3.org/1999/xlink">
<g id="graph0" class="graph" transform="scale(1 1) rotate(0) translate(4 259)">
<title>FieldPlaneAveragingFine.H</title>
<polygon fill="white" stroke="transparent" points="-4,4 -4,-259 1920,-259 1920,4 -4,4"/>
<!-- Node1 -->
<g id="node1" class="node">
<title>Node1</title>
<g id="a_node1"><a xlink:title=" ">
<polygon fill="#bfbfbf" stroke="black" points="320.5,-235.5 320.5,-254.5 466.5,-254.5 466.5,-235.5 320.5,-235.5"/>
<text text-anchor="middle" x="393.5" y="-242.5" font-family="Helvetica,sans-Serif" font-size="10.00">FieldPlaneAveragingFine.H</text>
</a>
</g>
</g>
<!-- Node2 -->
<g id="node2" class="node">
<title>Node2</title>
<g id="a_node2"><a xlink:href="_wall_function_8_h.html" target="_top" xlink:title=" ">
<polygon fill="white" stroke="black" points="117,-179.5 117,-198.5 206,-198.5 206,-179.5 117,-179.5"/>
<text text-anchor="middle" x="161.5" y="-186.5" font-family="Helvetica,sans-Serif" font-size="10.00">WallFunction.H</text>
</a>
</g>
</g>
<!-- Node1&#45;&gt;Node2 -->
<g id="edge1" class="edge">
<title>Node1&#45;&gt;Node2</title>
<path fill="none" stroke="midnightblue" d="M346.9,-233.15C303.06,-222.95 238.32,-207.88 198.09,-198.52"/>
<polygon fill="midnightblue" stroke="midnightblue" points="346.21,-236.59 356.74,-235.44 347.79,-229.77 346.21,-236.59"/>
</g>
<!-- Node6 -->
<g id="node6" class="node">
<title>Node6</title>
<g id="a_node6"><a xlink:href="_a_b_l_meso_forcing_mom_8_h.html" target="_top" xlink:title=" ">
<polygon fill="white" stroke="black" points="308.5,-67.5 308.5,-86.5 440.5,-86.5 440.5,-67.5 308.5,-67.5"/>
<text text-anchor="middle" x="374.5" y="-74.5" font-family="Helvetica,sans-Serif" font-size="10.00">ABLMesoForcingMom.H</text>
</a>
</g>
</g>
<!-- Node1&#45;&gt;Node6 -->
<g id="edge5" class="edge">
<title>Node1&#45;&gt;Node6</title>
<path fill="none" stroke="midnightblue" d="M391.32,-224.93C387.2,-188.92 378.42,-112.23 375.48,-86.57"/>
<polygon fill="midnightblue" stroke="midnightblue" points="387.86,-225.54 392.48,-235.08 394.82,-224.74 387.86,-225.54"/>
</g>
<!-- Node10 -->
<g id="node10" class="node">
<title>Node10</title>
<g id="a_node10"><a xlink:href="_a_b_l_meso_forcing_temp_8_h.html" target="_top" xlink:title=" ">
<polygon fill="white" stroke="black" points="458.5,-67.5 458.5,-86.5 592.5,-86.5 592.5,-67.5 458.5,-67.5"/>
<text text-anchor="middle" x="525.5" y="-74.5" font-family="Helvetica,sans-Serif" font-size="10.00">ABLMesoForcingTemp.H</text>
</a>
</g>
</g>
<!-- Node1&#45;&gt;Node10 -->
<g id="edge9" class="edge">
<title>Node1&#45;&gt;Node10</title>
<path fill="none" stroke="midnightblue" d="M395.37,-225.29C398.86,-199.44 408.54,-152.65 434.5,-123 450.29,-104.97 474.99,-93.39 494.67,-86.51"/>
<polygon fill="midnightblue" stroke="midnightblue" points="391.89,-224.92 394.2,-235.26 398.84,-225.74 391.89,-224.92"/>
</g>
<!-- Node12 -->
<g id="node12" class="node">
<title>Node12</title>
<g id="a_node12"><a xlink:href="_field_plane_averaging_fine_8cpp.html" target="_top" xlink:title=" ">
<polygon fill="white" stroke="black" points="566.5,-179.5 566.5,-198.5 722.5,-198.5 722.5,-179.5 566.5,-179.5"/>
<text text-anchor="middle" x="644.5" y="-186.5" font-family="Helvetica,sans-Serif" font-size="10.00">FieldPlaneAveragingFine.cpp</text>
</a>
</g>
</g>
<!-- Node1&#45;&gt;Node12 -->
<g id="edge13" class="edge">
<title>Node1&#45;&gt;Node12</title>
<path fill="none" stroke="midnightblue" d="M443.32,-233.28C490.75,-223.08 561.2,-207.92 604.91,-198.52"/>
<polygon fill="midnightblue" stroke="midnightblue" points="442.31,-229.92 433.27,-235.44 443.78,-236.76 442.31,-229.92"/>
</g>
<!-- Node13 -->
<g id="node13" class="node">
<title>Node13</title>
<g id="a_node13"><a xlink:href="_a_b_l_stats_8_h.html" target="_top" xlink:title=" ">
<polygon fill="white" stroke="black" points="219,-67.5 219,-86.5 290,-86.5 290,-67.5 219,-67.5"/>
<text text-anchor="middle" x="254.5" y="-74.5" font-family="Helvetica,sans-Serif" font-size="10.00">ABLStats.H</text>
</a>
</g>
</g>
<!-- Node1&#45;&gt;Node13 -->
<g id="edge14" class="edge">
<title>Node1&#45;&gt;Node13</title>
<path fill="none" stroke="midnightblue" d="M379.44,-227.21C350.18,-192.26 283.63,-112.79 261.67,-86.57"/>
<polygon fill="midnightblue" stroke="midnightblue" points="376.92,-229.66 386.03,-235.08 382.29,-225.16 376.92,-229.66"/>
</g>
<!-- Node14 -->
<g id="node14" class="node">
<title>Node14</title>
<g id="a_node14"><a xlink:href="_a_b_l_wall_function_8_h.html" target="_top" xlink:title=" ">
<polygon fill="white" stroke="black" points="441,-179.5 441,-198.5 548,-198.5 548,-179.5 441,-179.5"/>
<text text-anchor="middle" x="494.5" y="-186.5" font-family="Helvetica,sans-Serif" font-size="10.00">ABLWallFunction.H</text>
</a>
</g>
</g>
<!-- Node1&#45;&gt;Node14 -->
<g id="edge16" class="edge">
<title>Node1&#45;&gt;Node14</title>
<path fill="none" stroke="midnightblue" d="M418.58,-230.59C437.26,-220.61 462.2,-207.27 478.31,-198.65"/>
<polygon fill="midnightblue" stroke="midnightblue" points="416.9,-227.52 409.73,-235.32 420.2,-233.7 416.9,-227.52"/>
</g>
<!-- Node3 -->
<g id="node3" class="node">
<title>Node3</title>
<g id="a_node3"><a xlink:href="_wall_function_8cpp.html" target="_top" xlink:title=" ">
<polygon fill="white" stroke="black" points="0,-123.5 0,-142.5 99,-142.5 99,-123.5 0,-123.5"/>
<text text-anchor="middle" x="49.5" y="-130.5" font-family="Helvetica,sans-Serif" font-size="10.00">WallFunction.cpp</text>
</a>
</g>
</g>
<!-- Node2&#45;&gt;Node3 -->
<g id="edge2" class="edge">
<title>Node2&#45;&gt;Node3</title>
<path fill="none" stroke="midnightblue" d="M134.25,-174.86C113.48,-164.85 85.48,-151.35 67.45,-142.65"/>
<polygon fill="midnightblue" stroke="midnightblue" points="132.98,-178.13 143.51,-179.32 136.02,-171.83 132.98,-178.13"/>
</g>
<!-- Node4 -->
<g id="node4" class="node">
<title>Node4</title>
<g id="a_node4"><a xlink:href="_channel_flow_8_h.html" target="_top" xlink:title=" ">
<polygon fill="white" stroke="black" points="117,-123.5 117,-142.5 206,-142.5 206,-123.5 117,-123.5"/>
<text text-anchor="middle" x="161.5" y="-130.5" font-family="Helvetica,sans-Serif" font-size="10.00">ChannelFlow.H</text>
</a>
</g>
</g>
<!-- Node2&#45;&gt;Node4 -->
<g id="edge3" class="edge">
<title>Node2&#45;&gt;Node4</title>
<path fill="none" stroke="midnightblue" d="M161.5,-168.8C161.5,-159.91 161.5,-149.78 161.5,-142.75"/>
<polygon fill="midnightblue" stroke="midnightblue" points="158,-169.08 161.5,-179.08 165,-169.08 158,-169.08"/>
</g>
<!-- Node5 -->
<g id="node5" class="node">
<title>Node5</title>
<g id="a_node5"><a xlink:href="_channel_flow_8cpp.html" target="_top" xlink:title=" ">
<polygon fill="white" stroke="black" points="102,-67.5 102,-86.5 201,-86.5 201,-67.5 102,-67.5"/>
<text text-anchor="middle" x="151.5" y="-74.5" font-family="Helvetica,sans-Serif" font-size="10.00">ChannelFlow.cpp</text>
</a>
</g>
</g>
<!-- Node4&#45;&gt;Node5 -->
<g id="edge4" class="edge">
<title>Node4&#45;&gt;Node5</title>
<path fill="none" stroke="midnightblue" d="M158,-113.1C156.34,-104.14 154.44,-93.86 153.12,-86.75"/>
<polygon fill="midnightblue" stroke="midnightblue" points="154.59,-113.89 159.85,-123.08 161.47,-112.61 154.59,-113.89"/>
</g>
<!-- Node7 -->
<g id="node7" class="node">
<title>Node7</title>
<g id="a_node7"><a xlink:href="_a_b_l_meso_forcing_mom_8cpp.html" target="_top" xlink:title=" ">
<polygon fill="white" stroke="black" points="261.5,-6 261.5,-25 403.5,-25 403.5,-6 261.5,-6"/>
<text text-anchor="middle" x="332.5" y="-13" font-family="Helvetica,sans-Serif" font-size="10.00">ABLMesoForcingMom.cpp</text>
</a>
</g>
</g>
<!-- Node6&#45;&gt;Node7 -->
<g id="edge6" class="edge">
<title>Node6&#45;&gt;Node7</title>
<path fill="none" stroke="midnightblue" d="M362.5,-59.01C354.66,-47.89 344.74,-33.84 338.51,-25.01"/>
<polygon fill="midnightblue" stroke="midnightblue" points="359.86,-61.32 368.48,-67.48 365.57,-57.29 359.86,-61.32"/>
</g>
<!-- Node8 -->
<g id="node8" class="node">
<title>Node8</title>
<g id="a_node8"><a xlink:href="_a_b_l_8cpp.html" target="_top" xlink:title=" ">
<polygon fill="white" stroke="black" points="421.5,-6 421.5,-25 477.5,-25 477.5,-6 421.5,-6"/>
<text text-anchor="middle" x="449.5" y="-13" font-family="Helvetica,sans-Serif" font-size="10.00">ABL.cpp</text>
</a>
</g>
</g>
<!-- Node6&#45;&gt;Node8 -->
<g id="edge7" class="edge">
<title>Node6&#45;&gt;Node8</title>
<path fill="none" stroke="midnightblue" d="M393.44,-60.97C407.79,-49.59 426.98,-34.37 438.77,-25.01"/>
<polygon fill="midnightblue" stroke="midnightblue" points="390.9,-58.52 385.25,-67.48 395.26,-64 390.9,-58.52"/>
</g>
<!-- Node9 -->
<g id="node9" class="node">
<title>Node9</title>
<g id="a_node9"><a xlink:href="_a_b_l_stats_8cpp.html" target="_top" xlink:title=" ">
<polygon fill="white" stroke="black" points="163.5,-6 163.5,-25 243.5,-25 243.5,-6 163.5,-6"/>
<text text-anchor="middle" x="203.5" y="-13" font-family="Helvetica,sans-Serif" font-size="10.00">ABLStats.cpp</text>
</a>
</g>
</g>
<!-- Node6&#45;&gt;Node9 -->
<g id="edge8" class="edge">
<title>Node6&#45;&gt;Node9</title>
<path fill="none" stroke="midnightblue" d="M340.25,-64.08C307.01,-52.52 257.39,-35.25 227.95,-25.01"/>
<polygon fill="midnightblue" stroke="midnightblue" points="339.41,-67.49 350,-67.48 341.71,-60.88 339.41,-67.49"/>
</g>
<!-- Node10&#45;&gt;Node8 -->
<g id="edge11" class="edge">
<title>Node10&#45;&gt;Node8</title>
<path fill="none" stroke="midnightblue" d="M506.72,-61.29C492.14,-49.88 472.44,-34.46 460.37,-25.01"/>
<polygon fill="midnightblue" stroke="midnightblue" points="504.58,-64.07 514.61,-67.48 508.89,-58.55 504.58,-64.07"/>
</g>
<!-- Node10&#45;&gt;Node9 -->
<g id="edge12" class="edge">
<title>Node10&#45;&gt;Node9</title>
<path fill="none" stroke="midnightblue" d="M449.66,-66.08C394.6,-58.26 318.5,-46.14 252.5,-31 245.15,-29.31 237.28,-27.15 230.04,-25.01"/>
<polygon fill="midnightblue" stroke="midnightblue" points="449.3,-69.56 459.69,-67.49 450.27,-62.63 449.3,-69.56"/>
</g>
<!-- Node11 -->
<g id="node11" class="node">
<title>Node11</title>
<g id="a_node11"><a xlink:href="_a_b_l_meso_forcing_temp_8cpp.html" target="_top" xlink:title=" ">
<polygon fill="white" stroke="black" points="496,-6 496,-25 639,-25 639,-6 496,-6"/>
<text text-anchor="middle" x="567.5" y="-13" font-family="Helvetica,sans-Serif" font-size="10.00">ABLMesoForcingTemp.cpp</text>
</a>
</g>
</g>
<!-- Node10&#45;&gt;Node11 -->
<g id="edge10" class="edge">
<title>Node10&#45;&gt;Node11</title>
<path fill="none" stroke="midnightblue" d="M537.5,-59.01C545.34,-47.89 555.26,-33.84 561.49,-25.01"/>
<polygon fill="midnightblue" stroke="midnightblue" points="534.43,-57.29 531.52,-67.48 540.14,-61.32 534.43,-57.29"/>
</g>
<!-- Node13&#45;&gt;Node9 -->
<g id="edge15" class="edge">
<title>Node13&#45;&gt;Node9</title>
<path fill="none" stroke="midnightblue" d="M240.5,-59.67C230.89,-48.45 218.51,-34.02 210.79,-25.01"/>
<polygon fill="midnightblue" stroke="midnightblue" points="238.03,-62.16 247.19,-67.48 243.34,-57.6 238.03,-62.16"/>
</g>
<!-- Node14&#45;&gt;Node13 -->
<g id="edge33" class="edge">
<title>Node14&#45;&gt;Node13</title>
<path fill="none" stroke="midnightblue" d="M466.49,-175.16C416.97,-152.47 315.22,-105.83 273.24,-86.59"/>
<polygon fill="midnightblue" stroke="midnightblue" points="465.12,-178.38 475.67,-179.37 468.04,-172.02 465.12,-178.38"/>
</g>
<!-- Node15 -->
<g id="node15" class="node">
<title>Node15</title>
<g id="a_node15"><a xlink:href="_boussinesq_bubble_8cpp.html" target="_top" xlink:title=" ">
<polygon fill="white" stroke="black" points="595.5,-123.5 595.5,-142.5 721.5,-142.5 721.5,-123.5 595.5,-123.5"/>
<text text-anchor="middle" x="658.5" y="-130.5" font-family="Helvetica,sans-Serif" font-size="10.00">BoussinesqBubble.cpp</text>
</a>
</g>
</g>
<!-- Node14&#45;&gt;Node15 -->
<g id="edge17" class="edge">
<title>Node14&#45;&gt;Node15</title>
<path fill="none" stroke="midnightblue" d="M530.02,-176.3C560.92,-166.13 604.97,-151.62 632.64,-142.52"/>
<polygon fill="midnightblue" stroke="midnightblue" points="528.89,-172.99 520.49,-179.44 531.08,-179.64 528.89,-172.99"/>
</g>
<!-- Node16 -->
<g id="node16" class="node">
<title>Node16</title>
<g id="a_node16"><a xlink:href="_a_b_l_8_h.html" target="_top" xlink:title=" ">
<polygon fill="white" stroke="black" points="964.5,-67.5 964.5,-86.5 1010.5,-86.5 1010.5,-67.5 964.5,-67.5"/>
<text text-anchor="middle" x="987.5" y="-74.5" font-family="Helvetica,sans-Serif" font-size="10.00">ABL.H</text>
</a>
</g>
</g>
<!-- Node14&#45;&gt;Node16 -->
<g id="edge18" class="edge">
<title>Node14&#45;&gt;Node16</title>
<path fill="none" stroke="midnightblue" d="M510.77,-172.57C528.07,-157.18 556.97,-134.23 586.5,-123 656.56,-96.35 889.7,-82.81 964.32,-79.08"/>
<polygon fill="midnightblue" stroke="midnightblue" points="508.27,-170.11 503.25,-179.44 512.99,-175.28 508.27,-170.11"/>
</g>
<!-- Node27 -->
<g id="node27" class="node">
<title>Node27</title>
<g id="a_node27"><a xlink:href="_a_b_l_wall_function_8cpp.html" target="_top" xlink:title=" ">
<polygon fill="white" stroke="black" points="1799,-6 1799,-25 1916,-25 1916,-6 1799,-6"/>
<text text-anchor="middle" x="1857.5" y="-13" font-family="Helvetica,sans-Serif" font-size="10.00">ABLWallFunction.cpp</text>
</a>
</g>
</g>
<!-- Node14&#45;&gt;Node27 -->
<g id="edge37" class="edge">
<title>Node14&#45;&gt;Node27</title>
<path fill="none" stroke="midnightblue" d="M558.25,-178.93C1106.47,-107.26 1249.5,-121.8 1790.5,-31 1800.48,-29.33 1811.21,-27.16 1821.11,-25.02"/>
<polygon fill="midnightblue" stroke="midnightblue" points="557.57,-175.49 548.11,-180.26 558.48,-182.43 557.57,-175.49"/>
</g>
<!-- Node28 -->
<g id="node28" class="node">
<title>Node28</title>
<g id="a_node28"><a xlink:href="_a_b_l_stats_base_8_h.html" target="_top" xlink:title=" ">
<polygon fill="white" stroke="black" points="444,-123.5 444,-142.5 539,-142.5 539,-123.5 444,-123.5"/>
<text text-anchor="middle" x="491.5" y="-130.5" font-family="Helvetica,sans-Serif" font-size="10.00">ABLStatsBase.H</text>
</a>
</g>
</g>
<!-- Node14&#45;&gt;Node28 -->
<g id="edge34" class="edge">
<title>Node14&#45;&gt;Node28</title>
<path fill="none" stroke="midnightblue" d="M493.43,-168.8C492.94,-159.91 492.38,-149.78 491.99,-142.75"/>
<polygon fill="midnightblue" stroke="midnightblue" points="489.96,-169.29 494,-179.08 496.94,-168.9 489.96,-169.29"/>
</g>
<!-- Node16&#45;&gt;Node7 -->
<g id="edge22" class="edge">
<title>Node16&#45;&gt;Node7</title>
<path fill="none" stroke="midnightblue" d="M954.18,-74.57C865.68,-70.53 617.45,-57.52 412.5,-31 400.32,-29.42 387.18,-27.24 375.14,-25.05"/>
<polygon fill="midnightblue" stroke="midnightblue" points="954.26,-78.08 964.41,-75.03 954.57,-71.09 954.26,-78.08"/>
</g>
<!-- Node16&#45;&gt;Node8 -->
<g id="edge30" class="edge">
<title>Node16&#45;&gt;Node8</title>
<path fill="none" stroke="midnightblue" d="M954.31,-76.24C873.25,-76.15 659.16,-71.71 486.5,-31 480.46,-29.58 474.09,-27.36 468.37,-25.09"/>
<polygon fill="midnightblue" stroke="midnightblue" points="954.42,-79.74 964.41,-76.23 954.41,-72.74 954.42,-79.74"/>
</g>
<!-- Node16&#45;&gt;Node11 -->
<g id="edge24" class="edge">
<title>Node16&#45;&gt;Node11</title>
<path fill="none" stroke="midnightblue" d="M954.28,-72.1C893.49,-64.84 760.29,-48.42 648.5,-31 637.07,-29.22 624.76,-27.11 613.28,-25.07"/>
<polygon fill="midnightblue" stroke="midnightblue" points="954.09,-75.6 964.43,-73.3 954.91,-68.65 954.09,-75.6"/>
</g>
<!-- Node17 -->
<g id="node17" class="node">
<title>Node17</title>
<g id="a_node17"><a xlink:href="_c_f_d_sim_8cpp.html" target="_top" xlink:title=" ">
<polygon fill="white" stroke="black" points="1301.5,-6 1301.5,-25 1377.5,-25 1377.5,-6 1301.5,-6"/>
<text text-anchor="middle" x="1339.5" y="-13" font-family="Helvetica,sans-Serif" font-size="10.00">CFDSim.cpp</text>
</a>
</g>
</g>
<!-- Node16&#45;&gt;Node17 -->
<g id="edge19" class="edge">
<title>Node16&#45;&gt;Node17</title>
<path fill="none" stroke="midnightblue" d="M1020.8,-72.77C1077.2,-66.93 1194.91,-53.12 1292.5,-31 1299.66,-29.38 1307.32,-27.21 1314.32,-25.04"/>
<polygon fill="midnightblue" stroke="midnightblue" points="1020.27,-69.31 1010.68,-73.8 1020.98,-76.27 1020.27,-69.31"/>
</g>
<!-- Node18 -->
<g id="node18" class="node">
<title>Node18</title>
<g id="a_node18"><a xlink:href="_a_b_l_forcing_8cpp.html" target="_top" xlink:title=" ">
<polygon fill="white" stroke="black" points="1396,-6 1396,-25 1487,-25 1487,-6 1396,-6"/>
<text text-anchor="middle" x="1441.5" y="-13" font-family="Helvetica,sans-Serif" font-size="10.00">ABLForcing.cpp</text>
</a>
</g>
</g>
<!-- Node16&#45;&gt;Node18 -->
<g id="edge20" class="edge">
<title>Node16&#45;&gt;Node18</title>
<path fill="none" stroke="midnightblue" d="M1020.83,-73.89C1089.64,-69.16 1252.19,-56.14 1386.5,-31 1394.94,-29.42 1404,-27.24 1412.28,-25.05"/>
<polygon fill="midnightblue" stroke="midnightblue" points="1020.36,-70.41 1010.61,-74.57 1020.83,-77.39 1020.36,-70.41"/>
</g>
<!-- Node19 -->
<g id="node19" class="node">
<title>Node19</title>
<g id="a_node19"><a xlink:href="_a_b_l_mean_boussinesq_8cpp.html" target="_top" xlink:title=" ">
<polygon fill="white" stroke="black" points="1505.5,-6 1505.5,-25 1643.5,-25 1643.5,-6 1505.5,-6"/>
<text text-anchor="middle" x="1574.5" y="-13" font-family="Helvetica,sans-Serif" font-size="10.00">ABLMeanBoussinesq.cpp</text>
</a>
</g>
</g>
<!-- Node16&#45;&gt;Node19 -->
<g id="edge21" class="edge">
<title>Node16&#45;&gt;Node19</title>
<path fill="none" stroke="midnightblue" d="M1020.82,-74.16C1102.29,-69.42 1317.96,-55.43 1496.5,-31 1508.24,-29.39 1520.89,-27.23 1532.52,-25.07"/>
<polygon fill="midnightblue" stroke="midnightblue" points="1020.45,-70.68 1010.67,-74.74 1020.86,-77.66 1020.45,-70.68"/>
</g>
<!-- Node20 -->
<g id="node20" class="node">
<title>Node20</title>
<g id="a_node20"><a xlink:href="_hurricane_forcing_8cpp.html" target="_top" xlink:title=" ">
<polygon fill="white" stroke="black" points="1662,-6 1662,-25 1781,-25 1781,-6 1662,-6"/>
<text text-anchor="middle" x="1721.5" y="-13" font-family="Helvetica,sans-Serif" font-size="10.00">HurricaneForcing.cpp</text>
</a>
</g>
</g>
<!-- Node16&#45;&gt;Node20 -->
<g id="edge23" class="edge">
<title>Node16&#45;&gt;Node20</title>
<path fill="none" stroke="midnightblue" d="M1020.71,-75.39C1118.16,-73.25 1411.65,-64.29 1652.5,-31 1663.29,-29.51 1674.92,-27.3 1685.5,-25.06"/>
<polygon fill="midnightblue" stroke="midnightblue" points="1020.51,-71.89 1010.59,-75.6 1020.66,-78.89 1020.51,-71.89"/>
</g>
<!-- Node21 -->
<g id="node21" class="node">
<title>Node21</title>
<g id="a_node21"><a xlink:href="_hurricane_temp_forcing_8cpp.html" target="_top" xlink:title=" ">
<polygon fill="white" stroke="black" points="657.5,-6 657.5,-25 803.5,-25 803.5,-6 657.5,-6"/>
<text text-anchor="middle" x="730.5" y="-13" font-family="Helvetica,sans-Serif" font-size="10.00">HurricaneTempForcing.cpp</text>
</a>
</g>
</g>
<!-- Node16&#45;&gt;Node21 -->
<g id="edge25" class="edge">
<title>Node16&#45;&gt;Node21</title>
<path fill="none" stroke="midnightblue" d="M954.35,-68.32C906.28,-57.2 817.51,-36.64 767.41,-25.05"/>
<polygon fill="midnightblue" stroke="midnightblue" points="953.71,-71.77 964.24,-70.61 955.29,-64.95 953.71,-71.77"/>
</g>
<!-- Node22 -->
<g id="node22" class="node">
<title>Node22</title>
<g id="a_node22"><a xlink:href="helics_8cpp.html" target="_top" xlink:title=" ">
<polygon fill="white" stroke="black" points="822,-6 822,-25 887,-25 887,-6 822,-6"/>
<text text-anchor="middle" x="854.5" y="-13" font-family="Helvetica,sans-Serif" font-size="10.00">helics.cpp</text>
</a>
</g>
</g>
<!-- Node16&#45;&gt;Node22 -->
<g id="edge26" class="edge">
<title>Node16&#45;&gt;Node22</title>
<path fill="none" stroke="midnightblue" d="M959.17,-63.33C933.35,-51.78 895.92,-35.03 873.52,-25.01"/>
<polygon fill="midnightblue" stroke="midnightblue" points="957.89,-66.59 968.44,-67.48 960.75,-60.2 957.89,-66.59"/>
</g>
<!-- Node23 -->
<g id="node23" class="node">
<title>Node23</title>
<g id="a_node23"><a xlink:href="incflo_8cpp.html" target="_top" xlink:title=" ">
<polygon fill="white" stroke="black" points="905,-6 905,-25 968,-25 968,-6 905,-6"/>
<text text-anchor="middle" x="936.5" y="-13" font-family="Helvetica,sans-Serif" font-size="10.00">incflo.cpp</text>
</a>
</g>
</g>
<!-- Node16&#45;&gt;Node23 -->
<g id="edge27" class="edge">
<title>Node16&#45;&gt;Node23</title>
<path fill="none" stroke="midnightblue" d="M973.5,-59.67C963.89,-48.45 951.51,-34.02 943.79,-25.01"/>
<polygon fill="midnightblue" stroke="midnightblue" points="971.03,-62.16 980.19,-67.48 976.34,-57.6 971.03,-62.16"/>
</g>
<!-- Node24 -->
<g id="node24" class="node">
<title>Node24</title>
<g id="a_node24"><a xlink:href="incflo__apply__nodal__projection_8cpp.html" target="_top" xlink:title=" ">
<polygon fill="white" stroke="black" points="986,-0.5 986,-30.5 1093,-30.5 1093,-0.5 986,-0.5"/>
<text text-anchor="start" x="994" y="-18.5" font-family="Helvetica,sans-Serif" font-size="10.00">incflo_apply_nodal</text>
<text text-anchor="middle" x="1039.5" y="-7.5" font-family="Helvetica,sans-Serif" font-size="10.00">_projection.cpp</text>
</a>
</g>
</g>
<!-- Node16&#45;&gt;Node24 -->
<g id="edge28" class="edge">
<title>Node16&#45;&gt;Node24</title>
<path fill="none" stroke="midnightblue" d="M1001.65,-59.81C1009.66,-50.65 1019.57,-39.3 1027.24,-30.52"/>
<polygon fill="midnightblue" stroke="midnightblue" points="998.9,-57.64 994.95,-67.48 1004.17,-62.25 998.9,-57.64"/>
</g>
<!-- Node25 -->
<g id="node25" class="node">
<title>Node25</title>
<g id="a_node25"><a xlink:href="init_8cpp.html" target="_top" xlink:title=" ">
<polygon fill="white" stroke="black" points="1111,-6 1111,-25 1164,-25 1164,-6 1111,-6"/>
<text text-anchor="middle" x="1137.5" y="-13" font-family="Helvetica,sans-Serif" font-size="10.00">init.cpp</text>
</a>
</g>
</g>
<!-- Node16&#45;&gt;Node25 -->
<g id="edge29" class="edge">
<title>Node16&#45;&gt;Node25</title>
<path fill="none" stroke="midnightblue" d="M1019.36,-63.73C1042.48,-54.78 1074.48,-42.28 1102.5,-31 1107.26,-29.08 1112.37,-26.99 1117.17,-25"/>
<polygon fill="midnightblue" stroke="midnightblue" points="1018.09,-60.46 1010.03,-67.34 1020.62,-66.99 1018.09,-60.46"/>
</g>
<!-- Node26 -->
<g id="node26" class="node">
<title>Node26</title>
<g id="a_node26"><a xlink:href="_a_b_l_anelastic_8cpp.html" target="_top" xlink:title=" ">
<polygon fill="white" stroke="black" points="1182,-6 1182,-25 1283,-25 1283,-6 1182,-6"/>
<text text-anchor="middle" x="1232.5" y="-13" font-family="Helvetica,sans-Serif" font-size="10.00">ABLAnelastic.cpp</text>
</a>
</g>
</g>
<!-- Node16&#45;&gt;Node26 -->
<g id="edge31" class="edge">
<title>Node16&#45;&gt;Node26</title>
<path fill="none" stroke="midnightblue" d="M1020.5,-68.05C1057.69,-59.09 1119.95,-44.06 1173.5,-31 1181.39,-29.08 1189.87,-27 1197.88,-25.03"/>
<polygon fill="midnightblue" stroke="midnightblue" points="1019.61,-64.67 1010.7,-70.41 1021.25,-71.47 1019.61,-64.67"/>
</g>
<!-- Node16&#45;&gt;Node27 -->
<g id="edge32" class="edge">
<title>Node16&#45;&gt;Node27</title>
<path fill="none" stroke="midnightblue" d="M1020.78,-76C1130.99,-75.61 1493.9,-71.15 1790.5,-31 1801.11,-29.56 1812.55,-27.34 1822.91,-25.07"/>
<polygon fill="midnightblue" stroke="midnightblue" points="1020.61,-72.5 1010.62,-76.03 1020.63,-79.5 1020.61,-72.5"/>
</g>
<!-- Node28&#45;&gt;Node13 -->
<g id="edge36" class="edge">
<title>Node28&#45;&gt;Node13</title>
<path fill="none" stroke="midnightblue" d="M444.06,-121.19C398.71,-110.86 331.35,-95.51 290.33,-86.16"/>
<polygon fill="midnightblue" stroke="midnightblue" points="443.42,-124.63 453.95,-123.44 444.97,-117.81 443.42,-124.63"/>
</g>
<!-- Node28&#45;&gt;Node16 -->
<g id="edge35" class="edge">
<title>Node28&#45;&gt;Node16</title>
<path fill="none" stroke="midnightblue" d="M549.54,-123.5C550.87,-123.33 552.19,-123.16 553.5,-123 710.23,-103.51 899.55,-85.92 964.41,-80.06"/>
<polygon fill="midnightblue" stroke="midnightblue" points="548.65,-120.09 539.2,-124.88 549.57,-127.03 548.65,-120.09"/>
</g>
</g>
</svg>
