<?xml version="1.0" encoding="UTF-8" standalone="no"?>
<!DOCTYPE svg PUBLIC "-//W3C//DTD SVG 1.1//EN"
 "http://www.w3.org/Graphics/SVG/1.1/DTD/svg11.dtd">
<!-- Generated by graphviz version 2.43.0 (0)
 -->
<!-- Title: FieldPlaneAveragingFine.H Pages: 1 -->
<!--zoomable 319 -->
<svg id="main" version="1.1" xmlns="http://www.w3.org/2000/svg" xmlns:xlink="http://www.w3.org/1999/xlink" xml:space="preserve" onload="init(evt)">
<style type="text/css"><![CDATA[
.edge:hover path { stroke: red; }
.edge:hover polygon { stroke: red; fill: red; }
]]></style>
<script type="text/javascript"><![CDATA[
var edges = document.getElementsByTagName('g');
if (edges && edges.length) {
  for (var i=0;i<edges.length;i++) {
    if (edges[i].id.substr(0,4)=='edge') {
      edges[i].setAttribute('class','edge');
    }
  }
}
]]></script>
        <defs>
                <circle id="rim" cx="0" cy="0" r="7"/>
                <circle id="rim2" cx="0" cy="0" r="3.5"/>
                <g id="zoomPlus">
                        <use xlink:href="#rim" fill="#404040">
                                <set attributeName="fill" to="#808080" begin="zoomplus.mouseover" end="zoomplus.mouseout"/>
                        </use>
                        <path d="M-4,0h8M0,-4v8" fill="none" stroke="white" stroke-width="1.5" pointer-events="none"/>
                </g>
                <g id="zoomMin">
                        <use xlink:href="#rim" fill="#404040">
                                <set attributeName="fill" to="#808080" begin="zoomminus.mouseover" end="zoomminus.mouseout"/>
                        </use>
                        <path d="M-4,0h8" fill="none" stroke="white" stroke-width="1.5" pointer-events="none"/>
                </g>
                <g id="dirArrow">
                        <path fill="none" stroke="white" stroke-width="1.5" d="M0,-3.0v7 M-2.5,-0.5L0,-3.0L2.5,-0.5"/>
                </g>
               <g id="resetDef">
                       <use xlink:href="#rim2" fill="#404040">
                               <set attributeName="fill" to="#808080" begin="reset.mouseover" end="reset.mouseout"/>
                       </use>
               </g>
        </defs>

<script type="text/javascript">
var viewWidth = 2065;
var viewHeight = 319;
var sectionId = 'dynsection-1';
</script>
<script xlink:href="svgpan.js"/>
<svg id="graph" class="graph">
<g id="viewport">
<title>FieldPlaneAveragingFine.H</title>
<polygon fill="white" stroke="transparent" points="-4,4 -4,-315 2061,-315 2061,4 -4,4"/>
<!-- Node1 -->
<g id="node1" class="node">
<title>Node1</title>
<g id="a_node1"><a xlink:title=" ">
<polygon fill="#bfbfbf" stroke="black" points="309.5,-291.5 309.5,-310.5 455.5,-310.5 455.5,-291.5 309.5,-291.5"/>
<text text-anchor="middle" x="382.5" y="-298.5" font-family="Helvetica,sans-Serif" font-size="10.00">FieldPlaneAveragingFine.H</text>
</a>
</g>
</g>
<!-- Node2 -->
<g id="node2" class="node">
<title>Node2</title>
<g id="a_node2"><a xlink:href="_wall_function_8_h.html" target="_top" xlink:title=" ">
<polygon fill="white" stroke="black" points="117,-235.5 117,-254.5 206,-254.5 206,-235.5 117,-235.5"/>
<text text-anchor="middle" x="161.5" y="-242.5" font-family="Helvetica,sans-Serif" font-size="10.00">WallFunction.H</text>
</a>
</g>
</g>
<!-- Node1&#45;&gt;Node2 -->
<g id="edge1" class="edge">
<title>Node1&#45;&gt;Node2</title>
<path fill="none" stroke="midnightblue" d="M337.58,-289.02C295.83,-278.82 234.52,-263.84 196.35,-254.52"/>
<polygon fill="midnightblue" stroke="midnightblue" points="336.94,-292.47 347.48,-291.44 338.6,-285.67 336.94,-292.47"/>
</g>
<!-- Node6 -->
<g id="node6" class="node">
<title>Node6</title>
<g id="a_node6"><a xlink:href="_a_b_l_meso_forcing_mom_8_h.html" target="_top" xlink:title=" ">
<polygon fill="white" stroke="black" points="297.5,-123.5 297.5,-142.5 429.5,-142.5 429.5,-123.5 297.5,-123.5"/>
<text text-anchor="middle" x="363.5" y="-130.5" font-family="Helvetica,sans-Serif" font-size="10.00">ABLMesoForcingMom.H</text>
</a>
</g>
</g>
<!-- Node1&#45;&gt;Node6 -->
<g id="edge5" class="edge">
<title>Node1&#45;&gt;Node6</title>
<path fill="none" stroke="midnightblue" d="M380.32,-280.93C376.2,-244.92 367.42,-168.23 364.48,-142.57"/>
<polygon fill="midnightblue" stroke="midnightblue" points="376.86,-281.54 381.48,-291.08 383.82,-280.74 376.86,-281.54"/>
</g>
<!-- Node10 -->
<g id="node10" class="node">
<title>Node10</title>
<g id="a_node10"><a xlink:href="_a_b_l_meso_forcing_temp_8_h.html" target="_top" xlink:title=" ">
<polygon fill="white" stroke="black" points="447.5,-123.5 447.5,-142.5 581.5,-142.5 581.5,-123.5 447.5,-123.5"/>
<text text-anchor="middle" x="514.5" y="-130.5" font-family="Helvetica,sans-Serif" font-size="10.00">ABLMesoForcingTemp.H</text>
</a>
</g>
</g>
<!-- Node1&#45;&gt;Node10 -->
<g id="edge9" class="edge">
<title>Node1&#45;&gt;Node10</title>
<path fill="none" stroke="midnightblue" d="M384.37,-281.29C387.86,-255.44 397.54,-208.65 423.5,-179 439.29,-160.97 463.99,-149.39 483.67,-142.51"/>
<polygon fill="midnightblue" stroke="midnightblue" points="380.89,-280.92 383.2,-291.26 387.84,-281.74 380.89,-280.92"/>
</g>
<!-- Node12 -->
<g id="node12" class="node">
<title>Node12</title>
<g id="a_node12"><a xlink:href="_field_plane_averaging_fine_8cpp.html" target="_top" xlink:title=" ">
<polygon fill="white" stroke="black" points="555.5,-235.5 555.5,-254.5 711.5,-254.5 711.5,-235.5 555.5,-235.5"/>
<text text-anchor="middle" x="633.5" y="-242.5" font-family="Helvetica,sans-Serif" font-size="10.00">FieldPlaneAveragingFine.cpp</text>
</a>
</g>
</g>
<!-- Node1&#45;&gt;Node12 -->
<g id="edge13" class="edge">
<title>Node1&#45;&gt;Node12</title>
<path fill="none" stroke="midnightblue" d="M432.32,-289.28C479.75,-279.08 550.2,-263.92 593.91,-254.52"/>
<polygon fill="midnightblue" stroke="midnightblue" points="431.31,-285.92 422.27,-291.44 432.78,-292.76 431.31,-285.92"/>
</g>
<!-- Node13 -->
<g id="node13" class="node">
<title>Node13</title>
<g id="a_node13"><a xlink:href="_a_b_l_stats_8_h.html" target="_top" xlink:title=" ">
<polygon fill="white" stroke="black" points="208,-123.5 208,-142.5 279,-142.5 279,-123.5 208,-123.5"/>
<text text-anchor="middle" x="243.5" y="-130.5" font-family="Helvetica,sans-Serif" font-size="10.00">ABLStats.H</text>
</a>
</g>
</g>
<!-- Node1&#45;&gt;Node13 -->
<g id="edge14" class="edge">
<title>Node1&#45;&gt;Node13</title>
<path fill="none" stroke="midnightblue" d="M368.44,-283.21C339.18,-248.26 272.63,-168.79 250.67,-142.57"/>
<polygon fill="midnightblue" stroke="midnightblue" points="365.92,-285.66 375.03,-291.08 371.29,-281.16 365.92,-285.66"/>
</g>
<!-- Node14 -->
<g id="node14" class="node">
<title>Node14</title>
<g id="a_node14"><a xlink:href="_a_b_l_wall_function_8_h.html" target="_top" xlink:title=" ">
<polygon fill="white" stroke="black" points="430,-235.5 430,-254.5 537,-254.5 537,-235.5 430,-235.5"/>
<text text-anchor="middle" x="483.5" y="-242.5" font-family="Helvetica,sans-Serif" font-size="10.00">ABLWallFunction.H</text>
</a>
</g>
</g>
<!-- Node1&#45;&gt;Node14 -->
<g id="edge16" class="edge">
<title>Node1&#45;&gt;Node14</title>
<path fill="none" stroke="midnightblue" d="M407.58,-286.59C426.26,-276.61 451.2,-263.27 467.31,-254.65"/>
<polygon fill="midnightblue" stroke="midnightblue" points="405.9,-283.52 398.73,-291.32 409.2,-289.7 405.9,-283.52"/>
</g>
<!-- Node3 -->
<g id="node3" class="node">
<title>Node3</title>
<g id="a_node3"><a xlink:href="_wall_function_8cpp.html" target="_top" xlink:title=" ">
<polygon fill="white" stroke="black" points="0,-179.5 0,-198.5 99,-198.5 99,-179.5 0,-179.5"/>
<text text-anchor="middle" x="49.5" y="-186.5" font-family="Helvetica,sans-Serif" font-size="10.00">WallFunction.cpp</text>
</a>
</g>
</g>
<!-- Node2&#45;&gt;Node3 -->
<g id="edge2" class="edge">
<title>Node2&#45;&gt;Node3</title>
<path fill="none" stroke="midnightblue" d="M134.25,-230.86C113.48,-220.85 85.48,-207.35 67.45,-198.65"/>
<polygon fill="midnightblue" stroke="midnightblue" points="132.98,-234.13 143.51,-235.32 136.02,-227.83 132.98,-234.13"/>
</g>
<!-- Node4 -->
<g id="node4" class="node">
<title>Node4</title>
<g id="a_node4"><a xlink:href="_channel_flow_8_h.html" target="_top" xlink:title=" ">
<polygon fill="white" stroke="black" points="117,-179.5 117,-198.5 206,-198.5 206,-179.5 117,-179.5"/>
<text text-anchor="middle" x="161.5" y="-186.5" font-family="Helvetica,sans-Serif" font-size="10.00">ChannelFlow.H</text>
</a>
</g>
</g>
<!-- Node2&#45;&gt;Node4 -->
<g id="edge3" class="edge">
<title>Node2&#45;&gt;Node4</title>
<path fill="none" stroke="midnightblue" d="M161.5,-224.8C161.5,-215.91 161.5,-205.78 161.5,-198.75"/>
<polygon fill="midnightblue" stroke="midnightblue" points="158,-225.08 161.5,-235.08 165,-225.08 158,-225.08"/>
</g>
<!-- Node5 -->
<g id="node5" class="node">
<title>Node5</title>
<g id="a_node5"><a xlink:href="_channel_flow_8cpp.html" target="_top" xlink:title=" ">
<polygon fill="white" stroke="black" points="91,-123.5 91,-142.5 190,-142.5 190,-123.5 91,-123.5"/>
<text text-anchor="middle" x="140.5" y="-130.5" font-family="Helvetica,sans-Serif" font-size="10.00">ChannelFlow.cpp</text>
</a>
</g>
</g>
<!-- Node4&#45;&gt;Node5 -->
<g id="edge4" class="edge">
<title>Node4&#45;&gt;Node5</title>
<path fill="none" stroke="midnightblue" d="M154.38,-169.69C150.84,-160.59 146.73,-150.01 143.9,-142.75"/>
<polygon fill="midnightblue" stroke="midnightblue" points="151.15,-171.03 158.03,-179.08 157.67,-168.49 151.15,-171.03"/>
</g>
<!-- Node7 -->
<g id="node7" class="node">
<title>Node7</title>
<g id="a_node7"><a xlink:href="_a_b_l_meso_forcing_mom_8cpp.html" target="_top" xlink:title=" ">
<polygon fill="white" stroke="black" points="250.5,-67.5 250.5,-86.5 392.5,-86.5 392.5,-67.5 250.5,-67.5"/>
<text text-anchor="middle" x="321.5" y="-74.5" font-family="Helvetica,sans-Serif" font-size="10.00">ABLMesoForcingMom.cpp</text>
</a>
</g>
</g>
<!-- Node6&#45;&gt;Node7 -->
<g id="edge6" class="edge">
<title>Node6&#45;&gt;Node7</title>
<path fill="none" stroke="midnightblue" d="M350.39,-115.14C343.07,-105.74 334.26,-94.4 328.31,-86.75"/>
<polygon fill="midnightblue" stroke="midnightblue" points="347.66,-117.34 356.56,-123.08 353.19,-113.04 347.66,-117.34"/>
</g>
<!-- Node8 -->
<g id="node8" class="node">
<title>Node8</title>
<g id="a_node8"><a xlink:href="_a_b_l_8cpp.html" target="_top" xlink:title=" ">
<polygon fill="white" stroke="black" points="410.5,-67.5 410.5,-86.5 466.5,-86.5 466.5,-67.5 410.5,-67.5"/>
<text text-anchor="middle" x="438.5" y="-74.5" font-family="Helvetica,sans-Serif" font-size="10.00">ABL.cpp</text>
</a>
</g>
</g>
<!-- Node6&#45;&gt;Node8 -->
<g id="edge7" class="edge">
<title>Node6&#45;&gt;Node8</title>
<path fill="none" stroke="midnightblue" d="M383.81,-117.38C397.36,-107.62 414.74,-95.11 426.23,-86.83"/>
<polygon fill="midnightblue" stroke="midnightblue" points="381.62,-114.64 375.55,-123.32 385.71,-120.32 381.62,-114.64"/>
</g>
<!-- Node9 -->
<g id="node9" class="node">
<title>Node9</title>
<g id="a_node9"><a xlink:href="_a_b_l_stats_8cpp.html" target="_top" xlink:title=" ">
<polygon fill="white" stroke="black" points="152.5,-67.5 152.5,-86.5 232.5,-86.5 232.5,-67.5 152.5,-67.5"/>
<text text-anchor="middle" x="192.5" y="-74.5" font-family="Helvetica,sans-Serif" font-size="10.00">ABLStats.cpp</text>
</a>
</g>
</g>
<!-- Node6&#45;&gt;Node9 -->
<g id="edge8" class="edge">
<title>Node6&#45;&gt;Node9</title>
<path fill="none" stroke="midnightblue" d="M326.46,-120.3C294.24,-110.13 248.31,-95.62 219.47,-86.52"/>
<polygon fill="midnightblue" stroke="midnightblue" points="325.81,-123.77 336.4,-123.44 327.92,-117.09 325.81,-123.77"/>
</g>
<!-- Node10&#45;&gt;Node8 -->
<g id="edge11" class="edge">
<title>Node10&#45;&gt;Node8</title>
<path fill="none" stroke="midnightblue" d="M493.92,-117.38C480.19,-107.62 462.57,-95.11 450.93,-86.83"/>
<polygon fill="midnightblue" stroke="midnightblue" points="492.11,-120.38 502.29,-123.32 496.16,-114.68 492.11,-120.38"/>
</g>
<!-- Node10&#45;&gt;Node9 -->
<g id="edge12" class="edge">
<title>Node10&#45;&gt;Node9</title>
<path fill="none" stroke="midnightblue" d="M451.08,-121.88C395.71,-112.97 313.22,-99.5 241.5,-87 238.6,-86.5 235.61,-85.97 232.6,-85.43"/>
<polygon fill="midnightblue" stroke="midnightblue" points="450.66,-125.36 461.09,-123.49 451.78,-118.45 450.66,-125.36"/>
</g>
<!-- Node11 -->
<g id="node11" class="node">
<title>Node11</title>
<g id="a_node11"><a xlink:href="_a_b_l_meso_forcing_temp_8cpp.html" target="_top" xlink:title=" ">
<polygon fill="white" stroke="black" points="485,-67.5 485,-86.5 628,-86.5 628,-67.5 485,-67.5"/>
<text text-anchor="middle" x="556.5" y="-74.5" font-family="Helvetica,sans-Serif" font-size="10.00">ABLMesoForcingTemp.cpp</text>
</a>
</g>
</g>
<!-- Node10&#45;&gt;Node11 -->
<g id="edge10" class="edge">
<title>Node10&#45;&gt;Node11</title>
<path fill="none" stroke="midnightblue" d="M527.61,-115.14C534.93,-105.74 543.74,-94.4 549.69,-86.75"/>
<polygon fill="midnightblue" stroke="midnightblue" points="524.81,-113.04 521.44,-123.08 530.34,-117.34 524.81,-113.04"/>
</g>
<!-- Node13&#45;&gt;Node9 -->
<g id="edge15" class="edge">
<title>Node13&#45;&gt;Node9</title>
<path fill="none" stroke="midnightblue" d="M228.12,-115.72C219.13,-106.2 208.14,-94.56 200.76,-86.75"/>
<polygon fill="midnightblue" stroke="midnightblue" points="225.67,-118.22 235.08,-123.08 230.76,-113.41 225.67,-118.22"/>
</g>
<!-- Node14&#45;&gt;Node13 -->
<g id="edge36" class="edge">
<title>Node14&#45;&gt;Node13</title>
<path fill="none" stroke="midnightblue" d="M455.49,-231.16C405.97,-208.47 304.22,-161.83 262.24,-142.59"/>
<polygon fill="midnightblue" stroke="midnightblue" points="454.12,-234.38 464.67,-235.37 457.04,-228.02 454.12,-234.38"/>
</g>
<!-- Node15 -->
<g id="node15" class="node">
<title>Node15</title>
<g id="a_node15"><a xlink:href="_boussinesq_bubble_8cpp.html" target="_top" xlink:title=" ">
<polygon fill="white" stroke="black" points="584.5,-179.5 584.5,-198.5 710.5,-198.5 710.5,-179.5 584.5,-179.5"/>
<text text-anchor="middle" x="647.5" y="-186.5" font-family="Helvetica,sans-Serif" font-size="10.00">BoussinesqBubble.cpp</text>
</a>
</g>
</g>
<!-- Node14&#45;&gt;Node15 -->
<g id="edge17" class="edge">
<title>Node14&#45;&gt;Node15</title>
<path fill="none" stroke="midnightblue" d="M519.02,-232.3C549.92,-222.13 593.97,-207.62 621.64,-198.52"/>
<polygon fill="midnightblue" stroke="midnightblue" points="517.89,-228.99 509.49,-235.44 520.08,-235.64 517.89,-228.99"/>
</g>
<!-- Node16 -->
<g id="node16" class="node">
<title>Node16</title>
<g id="a_node16"><a xlink:href="_a_b_l_8_h.html" target="_top" xlink:title=" ">
<polygon fill="white" stroke="black" points="1114.5,-123.5 1114.5,-142.5 1160.5,-142.5 1160.5,-123.5 1114.5,-123.5"/>
<text text-anchor="middle" x="1137.5" y="-130.5" font-family="Helvetica,sans-Serif" font-size="10.00">ABL.H</text>
</a>
</g>
</g>
<!-- Node14&#45;&gt;Node16 -->
<g id="edge18" class="edge">
<title>Node14&#45;&gt;Node16</title>
<path fill="none" stroke="midnightblue" d="M499.69,-228.38C516.94,-212.83 545.79,-189.76 575.5,-179 677.08,-142.21 1021.36,-135.41 1114.25,-134.23"/>
<polygon fill="midnightblue" stroke="midnightblue" points="497.16,-225.96 492.21,-235.33 501.92,-231.09 497.16,-225.96"/>
</g>
<!-- Node30 -->
<g id="node30" class="node">
<title>Node30</title>
<g id="a_node30"><a xlink:href="_a_b_l_wall_function_8cpp.html" target="_top" xlink:title=" ">
<polygon fill="white" stroke="black" points="1940,-67.5 1940,-86.5 2057,-86.5 2057,-67.5 1940,-67.5"/>
<text text-anchor="middle" x="1998.5" y="-74.5" font-family="Helvetica,sans-Serif" font-size="10.00">ABLWallFunction.cpp</text>
</a>
</g>
</g>
<!-- Node14&#45;&gt;Node30 -->
<g id="edge40" class="edge">
<title>Node14&#45;&gt;Node30</title>
<path fill="none" stroke="midnightblue" d="M547.11,-234.96C1162.48,-158.35 1320.19,-160.71 1931.5,-87 1934.18,-86.68 1936.92,-86.34 1939.69,-85.99"/>
<polygon fill="midnightblue" stroke="midnightblue" points="546.59,-231.5 537.1,-236.21 547.46,-238.45 546.59,-231.5"/>
</g>
<!-- Node31 -->
<g id="node31" class="node">
<title>Node31</title>
<g id="a_node31"><a xlink:href="_a_b_l_stats_base_8_h.html" target="_top" xlink:title=" ">
<polygon fill="white" stroke="black" points="433,-179.5 433,-198.5 528,-198.5 528,-179.5 433,-179.5"/>
<text text-anchor="middle" x="480.5" y="-186.5" font-family="Helvetica,sans-Serif" font-size="10.00">ABLStatsBase.H</text>
</a>
</g>
</g>
<!-- Node14&#45;&gt;Node31 -->
<g id="edge37" class="edge">
<title>Node14&#45;&gt;Node31</title>
<path fill="none" stroke="midnightblue" d="M482.43,-224.8C481.94,-215.91 481.38,-205.78 480.99,-198.75"/>
<polygon fill="midnightblue" stroke="midnightblue" points="478.96,-225.29 483,-235.08 485.94,-224.9 478.96,-225.29"/>
</g>
<!-- Node16&#45;&gt;Node7 -->
<g id="edge23" class="edge">
<title>Node16&#45;&gt;Node7</title>
<path fill="none" stroke="midnightblue" d="M1104.06,-130.56C999.92,-125.96 672.18,-110.49 401.5,-87 398.58,-86.75 395.59,-86.47 392.58,-86.19"/>
<polygon fill="midnightblue" stroke="midnightblue" points="1104.12,-134.07 1114.27,-131.01 1104.43,-127.08 1104.12,-134.07"/>
</g>
<!-- Node16&#45;&gt;Node8 -->
<g id="edge33" class="edge">
<title>Node16&#45;&gt;Node8</title>
<path fill="none" stroke="midnightblue" d="M1104.39,-131.74C1007.23,-130.56 714.72,-123.95 475.5,-87 472.63,-86.56 469.65,-86 466.68,-85.38"/>
<polygon fill="midnightblue" stroke="midnightblue" points="1104.44,-135.24 1114.48,-131.85 1104.52,-128.24 1104.44,-135.24"/>
</g>
<!-- Node16&#45;&gt;Node11 -->
<g id="edge25" class="edge">
<title>Node16&#45;&gt;Node11</title>
<path fill="none" stroke="midnightblue" d="M1104.3,-129.25C1024.07,-122.56 813.24,-104.67 637.5,-87 634.4,-86.69 631.24,-86.36 628.05,-86.03"/>
<polygon fill="midnightblue" stroke="midnightblue" points="1104.05,-132.74 1114.31,-130.09 1104.63,-125.77 1104.05,-132.74"/>
</g>
<!-- Node17 -->
<g id="node17" class="node">
<title>Node17</title>
<g id="a_node17"><a xlink:href="_c_f_d_sim_8cpp.html" target="_top" xlink:title=" ">
<polygon fill="white" stroke="black" points="1608.5,-67.5 1608.5,-86.5 1684.5,-86.5 1684.5,-67.5 1608.5,-67.5"/>
<text text-anchor="middle" x="1646.5" y="-74.5" font-family="Helvetica,sans-Serif" font-size="10.00">CFDSim.cpp</text>
</a>
</g>
</g>
<!-- Node16&#45;&gt;Node17 -->
<g id="edge19" class="edge">
<title>Node16&#45;&gt;Node17</title>
<path fill="none" stroke="midnightblue" d="M1171.07,-129.8C1247.42,-124.55 1439.85,-110.01 1599.5,-87 1602.38,-86.59 1605.35,-86.12 1608.33,-85.61"/>
<polygon fill="midnightblue" stroke="midnightblue" points="1170.4,-126.33 1160.66,-130.5 1170.88,-133.32 1170.4,-126.33"/>
</g>
<!-- Node18 -->
<g id="node18" class="node">
<title>Node18</title>
<g id="a_node18"><a xlink:href="icns__advection_8cpp.html" target="_top" xlink:title=" ">
<polygon fill="white" stroke="black" points="1702.5,-67.5 1702.5,-86.5 1812.5,-86.5 1812.5,-67.5 1702.5,-67.5"/>
<text text-anchor="middle" x="1757.5" y="-74.5" font-family="Helvetica,sans-Serif" font-size="10.00">icns_advection.cpp</text>
</a>
</g>
</g>
<!-- Node16&#45;&gt;Node18 -->
<g id="edge20" class="edge">
<title>Node16&#45;&gt;Node18</title>
<path fill="none" stroke="midnightblue" d="M1170.83,-129.99C1257.27,-124.63 1495.73,-108.89 1693.5,-87 1696.4,-86.68 1699.37,-86.33 1702.37,-85.96"/>
<polygon fill="midnightblue" stroke="midnightblue" points="1170.35,-126.51 1160.59,-130.62 1170.78,-133.5 1170.35,-126.51"/>
</g>
<!-- Node19 -->
<g id="node19" class="node">
<title>Node19</title>
<g id="a_node19"><a xlink:href="_a_b_l_forcing_8cpp.html" target="_top" xlink:title=" ">
<polygon fill="white" stroke="black" points="1831,-67.5 1831,-86.5 1922,-86.5 1922,-67.5 1831,-67.5"/>
<text text-anchor="middle" x="1876.5" y="-74.5" font-family="Helvetica,sans-Serif" font-size="10.00">ABLForcing.cpp</text>
</a>
</g>
</g>
<!-- Node16&#45;&gt;Node19 -->
<g id="edge21" class="edge">
<title>Node16&#45;&gt;Node19</title>
<path fill="none" stroke="midnightblue" d="M1170.6,-130.96C1269.65,-127.59 1572.24,-115.53 1821.5,-87 1824.58,-86.65 1827.74,-86.24 1830.93,-85.8"/>
<polygon fill="midnightblue" stroke="midnightblue" points="1170.48,-127.46 1160.6,-131.29 1170.71,-134.45 1170.48,-127.46"/>
</g>
<!-- Node20 -->
<g id="node20" class="node">
<title>Node20</title>
<g id="a_node20"><a xlink:href="_a_b_l_mean_boussinesq_8cpp.html" target="_top" xlink:title=" ">
<polygon fill="white" stroke="black" points="646.5,-67.5 646.5,-86.5 784.5,-86.5 784.5,-67.5 646.5,-67.5"/>
<text text-anchor="middle" x="715.5" y="-74.5" font-family="Helvetica,sans-Serif" font-size="10.00">ABLMeanBoussinesq.cpp</text>
</a>
</g>
</g>
<!-- Node16&#45;&gt;Node20 -->
<g id="edge22" class="edge">
<title>Node16&#45;&gt;Node20</title>
<path fill="none" stroke="midnightblue" d="M1104.28,-127.75C1034.91,-118.87 873.55,-98.22 782.01,-86.51"/>
<polygon fill="midnightblue" stroke="midnightblue" points="1103.85,-131.22 1114.21,-129.02 1104.74,-124.28 1103.85,-131.22"/>
</g>
<!-- Node21 -->
<g id="node21" class="node">
<title>Node21</title>
<g id="a_node21"><a xlink:href="_hurricane_forcing_8cpp.html" target="_top" xlink:title=" ">
<polygon fill="white" stroke="black" points="803,-67.5 803,-86.5 922,-86.5 922,-67.5 803,-67.5"/>
<text text-anchor="middle" x="862.5" y="-74.5" font-family="Helvetica,sans-Serif" font-size="10.00">HurricaneForcing.cpp</text>
</a>
</g>
</g>
<!-- Node16&#45;&gt;Node21 -->
<g id="edge24" class="edge">
<title>Node16&#45;&gt;Node21</title>
<path fill="none" stroke="midnightblue" d="M1104.14,-125.45C1054.45,-115.69 960.93,-97.33 905.95,-86.53"/>
<polygon fill="midnightblue" stroke="midnightblue" points="1103.57,-128.9 1114.05,-127.4 1104.92,-122.03 1103.57,-128.9"/>
</g>
<!-- Node22 -->
<g id="node22" class="node">
<title>Node22</title>
<g id="a_node22"><a xlink:href="_hurricane_temp_forcing_8cpp.html" target="_top" xlink:title=" ">
<polygon fill="white" stroke="black" points="940.5,-67.5 940.5,-86.5 1086.5,-86.5 1086.5,-67.5 940.5,-67.5"/>
<text text-anchor="middle" x="1013.5" y="-74.5" font-family="Helvetica,sans-Serif" font-size="10.00">HurricaneTempForcing.cpp</text>
</a>
</g>
</g>
<!-- Node16&#45;&gt;Node22 -->
<g id="edge26" class="edge">
<title>Node16&#45;&gt;Node22</title>
<path fill="none" stroke="midnightblue" d="M1108.49,-119.37C1085.27,-109.26 1053.34,-95.35 1033.06,-86.52"/>
<polygon fill="midnightblue" stroke="midnightblue" points="1107.29,-122.66 1117.85,-123.44 1110.08,-116.24 1107.29,-122.66"/>
</g>
<!-- Node23 -->
<g id="node23" class="node">
<title>Node23</title>
<g id="a_node23"><a xlink:href="helics_8cpp.html" target="_top" xlink:title=" ">
<polygon fill="white" stroke="black" points="1105,-67.5 1105,-86.5 1170,-86.5 1170,-67.5 1105,-67.5"/>
<text text-anchor="middle" x="1137.5" y="-74.5" font-family="Helvetica,sans-Serif" font-size="10.00">helics.cpp</text>
</a>
</g>
</g>
<!-- Node16&#45;&gt;Node23 -->
<g id="edge27" class="edge">
<title>Node16&#45;&gt;Node23</title>
<path fill="none" stroke="midnightblue" d="M1137.5,-112.8C1137.5,-103.91 1137.5,-93.78 1137.5,-86.75"/>
<polygon fill="midnightblue" stroke="midnightblue" points="1134,-113.08 1137.5,-123.08 1141,-113.08 1134,-113.08"/>
</g>
<!-- Node24 -->
<g id="node24" class="node">
<title>Node24</title>
<g id="a_node24"><a xlink:href="incflo_8cpp.html" target="_top" xlink:title=" ">
<polygon fill="white" stroke="black" points="1188,-67.5 1188,-86.5 1251,-86.5 1251,-67.5 1188,-67.5"/>
<text text-anchor="middle" x="1219.5" y="-74.5" font-family="Helvetica,sans-Serif" font-size="10.00">incflo.cpp</text>
</a>
</g>
</g>
<!-- Node16&#45;&gt;Node24 -->
<g id="edge28" class="edge">
<title>Node16&#45;&gt;Node24</title>
<path fill="none" stroke="midnightblue" d="M1159.33,-117.62C1174.31,-107.76 1193.7,-94.99 1206.36,-86.65"/>
<polygon fill="midnightblue" stroke="midnightblue" points="1157.1,-114.9 1150.67,-123.32 1160.95,-120.75 1157.1,-114.9"/>
</g>
<!-- Node25 -->
<g id="node25" class="node">
<title>Node25</title>
<g id="a_node25"><a xlink:href="nodal__projection__ops_8_h.html" target="_top" xlink:title=" ">
<polygon fill="white" stroke="black" points="1269,-67.5 1269,-86.5 1400,-86.5 1400,-67.5 1269,-67.5"/>
<text text-anchor="middle" x="1334.5" y="-74.5" font-family="Helvetica,sans-Serif" font-size="10.00">nodal_projection_ops.H</text>
</a>
</g>
</g>
<!-- Node16&#45;&gt;Node25 -->
<g id="edge29" class="edge">
<title>Node16&#45;&gt;Node25</title>
<path fill="none" stroke="midnightblue" d="M1170.69,-122.9C1207.73,-112.75 1267.21,-96.45 1303.39,-86.53"/>
<polygon fill="midnightblue" stroke="midnightblue" points="1169.59,-119.57 1160.87,-125.59 1171.44,-126.33 1169.59,-119.57"/>
</g>
<!-- Node28 -->
<g id="node28" class="node">
<title>Node28</title>
<g id="a_node28"><a xlink:href="init_8cpp.html" target="_top" xlink:title=" ">
<polygon fill="white" stroke="black" points="1418,-67.5 1418,-86.5 1471,-86.5 1471,-67.5 1418,-67.5"/>
<text text-anchor="middle" x="1444.5" y="-74.5" font-family="Helvetica,sans-Serif" font-size="10.00">init.cpp</text>
</a>
</g>
</g>
<!-- Node16&#45;&gt;Node28 -->
<g id="edge32" class="edge">
<title>Node16&#45;&gt;Node28</title>
<path fill="none" stroke="midnightblue" d="M1170.74,-127.46C1222.17,-120.22 1324.02,-105.03 1409.5,-87 1412.2,-86.43 1415.01,-85.79 1417.8,-85.12"/>
<polygon fill="midnightblue" stroke="midnightblue" points="1169.97,-124.03 1160.55,-128.88 1170.94,-130.97 1169.97,-124.03"/>
</g>
<!-- Node29 -->
<g id="node29" class="node">
<title>Node29</title>
<g id="a_node29"><a xlink:href="_a_b_l_anelastic_8cpp.html" target="_top" xlink:title=" ">
<polygon fill="white" stroke="black" points="1489,-67.5 1489,-86.5 1590,-86.5 1590,-67.5 1489,-67.5"/>
<text text-anchor="middle" x="1539.5" y="-74.5" font-family="Helvetica,sans-Serif" font-size="10.00">ABLAnelastic.cpp</text>
</a>
</g>
</g>
<!-- Node16&#45;&gt;Node29 -->
<g id="edge34" class="edge">
<title>Node16&#45;&gt;Node29</title>
<path fill="none" stroke="midnightblue" d="M1171.07,-127.83C1232.52,-120.15 1367.19,-103.07 1480.5,-87 1483.27,-86.61 1486.11,-86.2 1488.98,-85.78"/>
<polygon fill="midnightblue" stroke="midnightblue" points="1170.3,-124.4 1160.81,-129.11 1171.17,-131.35 1170.3,-124.4"/>
</g>
<!-- Node16&#45;&gt;Node30 -->
<g id="edge35" class="edge">
<title>Node16&#45;&gt;Node30</title>
<path fill="none" stroke="midnightblue" d="M1170.67,-131.03C1279.75,-127.66 1637.2,-115.06 1931.5,-87 1934.19,-86.74 1936.93,-86.46 1939.7,-86.16"/>
<polygon fill="midnightblue" stroke="midnightblue" points="1170.5,-127.54 1160.61,-131.34 1170.71,-134.53 1170.5,-127.54"/>
</g>
<!-- Node26 -->
<g id="node26" class="node">
<title>Node26</title>
<g id="a_node26"><a xlink:href="_overset_ops_8cpp.html" target="_top" xlink:title=" ">
<polygon fill="white" stroke="black" points="1227.5,-6 1227.5,-25 1321.5,-25 1321.5,-6 1227.5,-6"/>
<text text-anchor="middle" x="1274.5" y="-13" font-family="Helvetica,sans-Serif" font-size="10.00">OversetOps.cpp</text>
</a>
</g>
</g>
<!-- Node25&#45;&gt;Node26 -->
<g id="edge30" class="edge">
<title>Node25&#45;&gt;Node26</title>
<path fill="none" stroke="midnightblue" d="M1318.69,-60.32C1307.29,-49.02 1292.34,-34.19 1283.08,-25.01"/>
<polygon fill="midnightblue" stroke="midnightblue" points="1316.34,-62.92 1325.9,-67.48 1321.27,-57.95 1316.34,-62.92"/>
</g>
<!-- Node27 -->
<g id="node27" class="node">
<title>Node27</title>
<g id="a_node27"><a xlink:href="incflo__apply__nodal__projection_8cpp.html" target="_top" xlink:title=" ">
<polygon fill="white" stroke="black" points="1340,-0.5 1340,-30.5 1447,-30.5 1447,-0.5 1340,-0.5"/>
<text text-anchor="start" x="1348" y="-18.5" font-family="Helvetica,sans-Serif" font-size="10.00">incflo_apply_nodal</text>
<text text-anchor="middle" x="1393.5" y="-7.5" font-family="Helvetica,sans-Serif" font-size="10.00">_projection.cpp</text>
</a>
</g>
</g>
<!-- Node25&#45;&gt;Node27 -->
<g id="edge31" class="edge">
<title>Node25&#45;&gt;Node27</title>
<path fill="none" stroke="midnightblue" d="M1350,-60.37C1359.18,-51.11 1370.71,-39.48 1379.59,-30.52"/>
<polygon fill="midnightblue" stroke="midnightblue" points="1347.51,-57.91 1342.95,-67.48 1352.48,-62.84 1347.51,-57.91"/>
</g>
<!-- Node31&#45;&gt;Node13 -->
<g id="edge39" class="edge">
<title>Node31&#45;&gt;Node13</title>
<path fill="none" stroke="midnightblue" d="M433.06,-177.19C387.71,-166.86 320.35,-151.51 279.33,-142.16"/>
<polygon fill="midnightblue" stroke="midnightblue" points="432.42,-180.63 442.95,-179.44 433.97,-173.81 432.42,-180.63"/>
</g>
<!-- Node31&#45;&gt;Node16 -->
<g id="edge38" class="edge">
<title>Node31&#45;&gt;Node16</title>
<path fill="none" stroke="midnightblue" d="M538.54,-179.45C539.87,-179.29 541.19,-179.14 542.5,-179 764.66,-154.5 1034.97,-139.34 1114.47,-135.17"/>
<polygon fill="midnightblue" stroke="midnightblue" points="537.68,-176.03 528.19,-180.74 538.54,-182.98 537.68,-176.03"/>
</g>
</g>
</svg>
        <g id="navigator" transform="translate(0 0)" fill="#404254">
                <rect fill="#f2f5e9" fill-opacity="0.5" stroke="#606060" stroke-width=".5" x="0" y="0" width="60" height="60"/>
                <use id="zoomplus" xlink:href="#zoomPlus" x="17" y="9" onmousedown="handleZoom(evt,'in')"/>
                <use id="zoomminus" xlink:href="#zoomMin" x="42" y="9" onmousedown="handleZoom(evt,'out')"/>
                <use id="reset" xlink:href="#resetDef" x="30" y="36" onmousedown="handleReset()"/>
                <g id="arrowUp" xlink:href="#dirArrow" transform="translate(30 24)" onmousedown="handlePan(0,-1)">
                  <use xlink:href="#rim" fill="#404040">
                        <set attributeName="fill" to="#808080" begin="arrowUp.mouseover" end="arrowUp.mouseout"/>
                  </use>
                  <path fill="none" stroke="white" stroke-width="1.5" d="M0,-3.0v7 M-2.5,-0.5L0,-3.0L2.5,-0.5"/>
                </g>
                <g id="arrowRight" xlink:href="#dirArrow" transform="rotate(90) translate(36 -43)" onmousedown="handlePan(1,0)">
                  <use xlink:href="#rim" fill="#404040">
                        <set attributeName="fill" to="#808080" begin="arrowRight.mouseover" end="arrowRight.mouseout"/>
                  </use>
                  <path fill="none" stroke="white" stroke-width="1.5" d="M0,-3.0v7 M-2.5,-0.5L0,-3.0L2.5,-0.5"/>
                </g>
                <g id="arrowDown" xlink:href="#dirArrow" transform="rotate(180) translate(-30 -48)" onmousedown="handlePan(0,1)">
                  <use xlink:href="#rim" fill="#404040">
                        <set attributeName="fill" to="#808080" begin="arrowDown.mouseover" end="arrowDown.mouseout"/>
                  </use>
                  <path fill="none" stroke="white" stroke-width="1.5" d="M0,-3.0v7 M-2.5,-0.5L0,-3.0L2.5,-0.5"/>
                </g>
                <g id="arrowLeft" xlink:href="#dirArrow" transform="rotate(270) translate(-36 17)" onmousedown="handlePan(-1,0)">
                  <use xlink:href="#rim" fill="#404040">
                        <set attributeName="fill" to="#808080" begin="arrowLeft.mouseover" end="arrowLeft.mouseout"/>
                  </use>
                  <path fill="none" stroke="white" stroke-width="1.5" d="M0,-3.0v7 M-2.5,-0.5L0,-3.0L2.5,-0.5"/>
                </g>
        </g>
        <svg viewBox="0 0 15 15" width="100%" height="30px" preserveAspectRatio="xMaxYMin meet">
         <g id="arrow_out" transform="scale(0.3 0.3)">
          <a xlink:href="_field_plane_averaging_fine_8_h__dep__incl_org.svg" target="_base">
           <rect id="button" ry="5" rx="5" y="6" x="6" height="38" width="38"
                fill="#f2f5e9" fill-opacity="0.5" stroke="#606060" stroke-width="1.0"/>
           <path id="arrow"
             d="M 11.500037,31.436501 C 11.940474,20.09759 22.043105,11.32322 32.158766,21.979434 L 37.068811,17.246167 C 37.068811,17.246167 37.088388,32 37.088388,32 L 22.160133,31.978069 C 22.160133,31.978069 26.997745,27.140456 26.997745,27.140456 C 18.528582,18.264221 13.291696,25.230495 11.500037,31.436501 z"
             style="fill:#404040;"/>
          </a>
         </g>
        </svg>
</svg>
