<?xml version="1.0" encoding="UTF-8" standalone="no"?>
<!DOCTYPE svg PUBLIC "-//W3C//DTD SVG 1.1//EN"
 "http://www.w3.org/Graphics/SVG/1.1/DTD/svg11.dtd">
<!-- Generated by graphviz version 2.43.0 (0)
 -->
<!-- Title: FieldPlaneAveraging.H Pages: 1 -->
<svg width="1791pt" height="319pt"
 viewBox="0.00 0.00 1791.00 319.00" xmlns="http://www.w3.org/2000/svg" xmlns:xlink="http://www.w3.org/1999/xlink">
<g id="graph0" class="graph" transform="scale(1 1) rotate(0) translate(4 315)">
<title>FieldPlaneAveraging.H</title>
<polygon fill="white" stroke="transparent" points="-4,4 -4,-315 1787,-315 1787,4 -4,4"/>
<!-- Node1 -->
<g id="node1" class="node">
<title>Node1</title>
<g id="a_node1"><a xlink:title=" ">
<polygon fill="#bfbfbf" stroke="black" points="1064,-291.5 1064,-310.5 1190,-310.5 1190,-291.5 1064,-291.5"/>
<text text-anchor="middle" x="1127" y="-298.5" font-family="Helvetica,sans-Serif" font-size="10.00">FieldPlaneAveraging.H</text>
</a>
</g>
</g>
<!-- Node2 -->
<g id="node2" class="node">
<title>Node2</title>
<g id="a_node2"><a xlink:href="_a_b_l_mean_boussinesq_8_h.html" target="_top" xlink:title=" ">
<polygon fill="white" stroke="black" points="79,-123.5 79,-142.5 207,-142.5 207,-123.5 79,-123.5"/>
<text text-anchor="middle" x="143" y="-130.5" font-family="Helvetica,sans-Serif" font-size="10.00">ABLMeanBoussinesq.H</text>
</a>
</g>
</g>
<!-- Node1&#45;&gt;Node2 -->
<g id="edge1" class="edge">
<title>Node1&#45;&gt;Node2</title>
<path fill="none" stroke="midnightblue" d="M1053.68,-295.33C965.02,-289.05 811.42,-276.17 681,-255 486.57,-223.44 257.15,-164.45 174.57,-142.51"/>
<polygon fill="midnightblue" stroke="midnightblue" points="1053.69,-298.84 1063.91,-296.04 1054.17,-291.85 1053.69,-298.84"/>
</g>
<!-- Node5 -->
<g id="node5" class="node">
<title>Node5</title>
<g id="a_node5"><a xlink:href="_hurricane_forcing_8_h.html" target="_top" xlink:title=" ">
<polygon fill="white" stroke="black" points="235,-123.5 235,-142.5 345,-142.5 345,-123.5 235,-123.5"/>
<text text-anchor="middle" x="290" y="-130.5" font-family="Helvetica,sans-Serif" font-size="10.00">HurricaneForcing.H</text>
</a>
</g>
</g>
<!-- Node1&#45;&gt;Node5 -->
<g id="edge4" class="edge">
<title>Node1&#45;&gt;Node5</title>
<path fill="none" stroke="midnightblue" d="M1053.76,-292.89C983.47,-285.49 874.49,-272.54 781,-255 604.11,-221.81 395.67,-164.18 319.64,-142.54"/>
<polygon fill="midnightblue" stroke="midnightblue" points="1053.54,-296.38 1063.84,-293.94 1054.26,-289.42 1053.54,-296.38"/>
</g>
<!-- Node7 -->
<g id="node7" class="node">
<title>Node7</title>
<g id="a_node7"><a xlink:href="_hurricane_temp_forcing_8_h.html" target="_top" xlink:title=" ">
<polygon fill="white" stroke="black" points="373,-123.5 373,-142.5 509,-142.5 509,-123.5 373,-123.5"/>
<text text-anchor="middle" x="441" y="-130.5" font-family="Helvetica,sans-Serif" font-size="10.00">HurricaneTempForcing.H</text>
</a>
</g>
</g>
<!-- Node1&#45;&gt;Node7 -->
<g id="edge7" class="edge">
<title>Node1&#45;&gt;Node7</title>
<path fill="none" stroke="midnightblue" d="M1053.59,-290.01C999.48,-282.08 924.25,-269.87 859,-255 708.36,-220.67 531.66,-163.97 466.65,-142.55"/>
<polygon fill="midnightblue" stroke="midnightblue" points="1053.38,-293.51 1063.78,-291.49 1054.39,-286.59 1053.38,-293.51"/>
</g>
<!-- Node9 -->
<g id="node9" class="node">
<title>Node9</title>
<g id="a_node9"><a xlink:href="_a_m_d_8_h.html" target="_top" xlink:title=" ">
<polygon fill="white" stroke="black" points="1579,-235.5 1579,-254.5 1629,-254.5 1629,-235.5 1579,-235.5"/>
<text text-anchor="middle" x="1604" y="-242.5" font-family="Helvetica,sans-Serif" font-size="10.00">AMD.H</text>
</a>
</g>
</g>
<!-- Node1&#45;&gt;Node9 -->
<g id="edge10" class="edge">
<title>Node1&#45;&gt;Node9</title>
<path fill="none" stroke="midnightblue" d="M1200.34,-296.1C1288.61,-290.59 1441.06,-278.46 1570,-255 1572.88,-254.48 1575.88,-253.83 1578.85,-253.13"/>
<polygon fill="midnightblue" stroke="midnightblue" points="1199.93,-292.62 1190.16,-296.72 1200.36,-299.6 1199.93,-292.62"/>
</g>
<!-- Node11 -->
<g id="node11" class="node">
<title>Node11</title>
<g id="a_node11"><a xlink:href="_field_plane_averaging_8cpp.html" target="_top" xlink:title=" ">
<polygon fill="white" stroke="black" points="1647,-235.5 1647,-254.5 1783,-254.5 1783,-235.5 1647,-235.5"/>
<text text-anchor="middle" x="1715" y="-242.5" font-family="Helvetica,sans-Serif" font-size="10.00">FieldPlaneAveraging.cpp</text>
</a>
</g>
</g>
<!-- Node1&#45;&gt;Node11 -->
<g id="edge12" class="edge">
<title>Node1&#45;&gt;Node11</title>
<path fill="none" stroke="midnightblue" d="M1200.62,-294.18C1299.98,-286.17 1482.48,-270.93 1638,-255 1640.95,-254.7 1643.95,-254.38 1646.99,-254.06"/>
<polygon fill="midnightblue" stroke="midnightblue" points="1200.08,-290.71 1190.39,-295 1200.64,-297.69 1200.08,-290.71"/>
</g>
<!-- Node12 -->
<g id="node12" class="node">
<title>Node12</title>
<g id="a_node12"><a xlink:href="_second_moment_averaging_8_h.html" target="_top" xlink:title=" ">
<polygon fill="white" stroke="black" points="1409,-235.5 1409,-254.5 1561,-254.5 1561,-235.5 1409,-235.5"/>
<text text-anchor="middle" x="1485" y="-242.5" font-family="Helvetica,sans-Serif" font-size="10.00">SecondMomentAveraging.H</text>
</a>
</g>
</g>
<!-- Node1&#45;&gt;Node12 -->
<g id="edge13" class="edge">
<title>Node1&#45;&gt;Node12</title>
<path fill="none" stroke="midnightblue" d="M1193.85,-289.92C1261.48,-279.71 1364.89,-264.12 1428.54,-254.52"/>
<polygon fill="midnightblue" stroke="midnightblue" points="1193.09,-286.49 1183.73,-291.44 1194.14,-293.41 1193.09,-286.49"/>
</g>
<!-- Node14 -->
<g id="node14" class="node">
<title>Node14</title>
<g id="a_node14"><a xlink:href="_a_b_l_stats_8_h.html" target="_top" xlink:title=" ">
<polygon fill="white" stroke="black" points="1260.5,-123.5 1260.5,-142.5 1331.5,-142.5 1331.5,-123.5 1260.5,-123.5"/>
<text text-anchor="middle" x="1296" y="-130.5" font-family="Helvetica,sans-Serif" font-size="10.00">ABLStats.H</text>
</a>
</g>
</g>
<!-- Node1&#45;&gt;Node14 -->
<g id="edge37" class="edge">
<title>Node1&#45;&gt;Node14</title>
<path fill="none" stroke="midnightblue" d="M1136.04,-282.14C1149.66,-256.65 1177.55,-209.53 1212,-179 1230.33,-162.76 1255.54,-150.26 1273.55,-142.6"/>
<polygon fill="midnightblue" stroke="midnightblue" points="1132.76,-280.86 1131.24,-291.35 1138.97,-284.1 1132.76,-280.86"/>
</g>
<!-- Node16 -->
<g id="node16" class="node">
<title>Node16</title>
<g id="a_node16"><a xlink:href="_third_moment_averaging_8_h.html" target="_top" xlink:title=" ">
<polygon fill="white" stroke="black" points="1225.5,-235.5 1225.5,-254.5 1366.5,-254.5 1366.5,-235.5 1225.5,-235.5"/>
<text text-anchor="middle" x="1296" y="-242.5" font-family="Helvetica,sans-Serif" font-size="10.00">ThirdMomentAveraging.H</text>
</a>
</g>
</g>
<!-- Node1&#45;&gt;Node16 -->
<g id="edge17" class="edge">
<title>Node1&#45;&gt;Node16</title>
<path fill="none" stroke="midnightblue" d="M1163.6,-288.3C1195.45,-278.13 1240.84,-263.62 1269.35,-254.52"/>
<polygon fill="midnightblue" stroke="midnightblue" points="1162.24,-285.07 1153.78,-291.44 1164.37,-291.73 1162.24,-285.07"/>
</g>
<!-- Node18 -->
<g id="node18" class="node">
<title>Node18</title>
<g id="a_node18"><a xlink:href="_a_b_l_8_h.html" target="_top" xlink:title=" ">
<polygon fill="white" stroke="black" points="784,-123.5 784,-142.5 830,-142.5 830,-123.5 784,-123.5"/>
<text text-anchor="middle" x="807" y="-130.5" font-family="Helvetica,sans-Serif" font-size="10.00">ABL.H</text>
</a>
</g>
</g>
<!-- Node1&#45;&gt;Node18 -->
<g id="edge20" class="edge">
<title>Node1&#45;&gt;Node18</title>
<path fill="none" stroke="midnightblue" d="M1053.78,-297.32C982.95,-290.49 878.43,-268.36 823,-199 809.65,-182.3 807.22,-156.02 806.92,-142.57"/>
<polygon fill="midnightblue" stroke="midnightblue" points="1053.71,-300.83 1063.98,-298.22 1054.32,-293.86 1053.71,-300.83"/>
</g>
<!-- Node31 -->
<g id="node31" class="node">
<title>Node31</title>
<g id="a_node31"><a xlink:href="_a_b_l_wall_function_8_h.html" target="_top" xlink:title=" ">
<polygon fill="white" stroke="black" points="944.5,-235.5 944.5,-254.5 1051.5,-254.5 1051.5,-235.5 944.5,-235.5"/>
<text text-anchor="middle" x="998" y="-242.5" font-family="Helvetica,sans-Serif" font-size="10.00">ABLWallFunction.H</text>
</a>
</g>
</g>
<!-- Node1&#45;&gt;Node31 -->
<g id="edge38" class="edge">
<title>Node1&#45;&gt;Node31</title>
<path fill="none" stroke="midnightblue" d="M1097.15,-287.5C1072.96,-277.38 1039.54,-263.39 1018.34,-254.52"/>
<polygon fill="midnightblue" stroke="midnightblue" points="1095.98,-290.81 1106.56,-291.44 1098.69,-284.35 1095.98,-290.81"/>
</g>
<!-- Node3 -->
<g id="node3" class="node">
<title>Node3</title>
<g id="a_node3"><a xlink:href="_a_b_l_mean_boussinesq_8cpp.html" target="_top" xlink:title=" ">
<polygon fill="white" stroke="black" points="74,-67.5 74,-86.5 212,-86.5 212,-67.5 74,-67.5"/>
<text text-anchor="middle" x="143" y="-74.5" font-family="Helvetica,sans-Serif" font-size="10.00">ABLMeanBoussinesq.cpp</text>
</a>
</g>
</g>
<!-- Node2&#45;&gt;Node3 -->
<g id="edge2" class="edge">
<title>Node2&#45;&gt;Node3</title>
<path fill="none" stroke="midnightblue" d="M143,-112.8C143,-103.91 143,-93.78 143,-86.75"/>
<polygon fill="midnightblue" stroke="midnightblue" points="139.5,-113.08 143,-123.08 146.5,-113.08 139.5,-113.08"/>
</g>
<!-- Node4 -->
<g id="node4" class="node">
<title>Node4</title>
<g id="a_node4"><a xlink:href="_a_b_l_8cpp.html" target="_top" xlink:title=" ">
<polygon fill="white" stroke="black" points="0,-67.5 0,-86.5 56,-86.5 56,-67.5 0,-67.5"/>
<text text-anchor="middle" x="28" y="-74.5" font-family="Helvetica,sans-Serif" font-size="10.00">ABL.cpp</text>
</a>
</g>
</g>
<!-- Node2&#45;&gt;Node4 -->
<g id="edge3" class="edge">
<title>Node2&#45;&gt;Node4</title>
<path fill="none" stroke="midnightblue" d="M115.52,-119.1C94.03,-109.01 64.78,-95.27 46.14,-86.52"/>
<polygon fill="midnightblue" stroke="midnightblue" points="114.24,-122.36 124.78,-123.44 117.21,-116.02 114.24,-122.36"/>
</g>
<!-- Node5&#45;&gt;Node4 -->
<g id="edge6" class="edge">
<title>Node5&#45;&gt;Node4</title>
<path fill="none" stroke="midnightblue" d="M234.65,-121.59C189.02,-112.85 122.67,-99.78 65,-87 62.16,-86.37 59.2,-85.69 56.25,-85"/>
<polygon fill="midnightblue" stroke="midnightblue" points="234.16,-125.06 244.63,-123.5 235.47,-118.18 234.16,-125.06"/>
</g>
<!-- Node6 -->
<g id="node6" class="node">
<title>Node6</title>
<g id="a_node6"><a xlink:href="_hurricane_forcing_8cpp.html" target="_top" xlink:title=" ">
<polygon fill="white" stroke="black" points="230.5,-67.5 230.5,-86.5 349.5,-86.5 349.5,-67.5 230.5,-67.5"/>
<text text-anchor="middle" x="290" y="-74.5" font-family="Helvetica,sans-Serif" font-size="10.00">HurricaneForcing.cpp</text>
</a>
</g>
</g>
<!-- Node5&#45;&gt;Node6 -->
<g id="edge5" class="edge">
<title>Node5&#45;&gt;Node6</title>
<path fill="none" stroke="midnightblue" d="M290,-112.8C290,-103.91 290,-93.78 290,-86.75"/>
<polygon fill="midnightblue" stroke="midnightblue" points="286.5,-113.08 290,-123.08 293.5,-113.08 286.5,-113.08"/>
</g>
<!-- Node7&#45;&gt;Node4 -->
<g id="edge9" class="edge">
<title>Node7&#45;&gt;Node4</title>
<path fill="none" stroke="midnightblue" d="M362.61,-123.73C269.65,-113.74 120.34,-97.01 65,-87 62.14,-86.48 59.17,-85.88 56.21,-85.23"/>
<polygon fill="midnightblue" stroke="midnightblue" points="362.5,-127.24 372.81,-124.83 363.25,-120.28 362.5,-127.24"/>
</g>
<!-- Node8 -->
<g id="node8" class="node">
<title>Node8</title>
<g id="a_node8"><a xlink:href="_hurricane_temp_forcing_8cpp.html" target="_top" xlink:title=" ">
<polygon fill="white" stroke="black" points="368,-67.5 368,-86.5 514,-86.5 514,-67.5 368,-67.5"/>
<text text-anchor="middle" x="441" y="-74.5" font-family="Helvetica,sans-Serif" font-size="10.00">HurricaneTempForcing.cpp</text>
</a>
</g>
</g>
<!-- Node7&#45;&gt;Node8 -->
<g id="edge8" class="edge">
<title>Node7&#45;&gt;Node8</title>
<path fill="none" stroke="midnightblue" d="M441,-112.8C441,-103.91 441,-93.78 441,-86.75"/>
<polygon fill="midnightblue" stroke="midnightblue" points="437.5,-113.08 441,-123.08 444.5,-113.08 437.5,-113.08"/>
</g>
<!-- Node10 -->
<g id="node10" class="node">
<title>Node10</title>
<g id="a_node10"><a xlink:href="_a_m_d_8cpp.html" target="_top" xlink:title=" ">
<polygon fill="white" stroke="black" points="1646,-179.5 1646,-198.5 1706,-198.5 1706,-179.5 1646,-179.5"/>
<text text-anchor="middle" x="1676" y="-186.5" font-family="Helvetica,sans-Serif" font-size="10.00">AMD.cpp</text>
</a>
</g>
</g>
<!-- Node9&#45;&gt;Node10 -->
<g id="edge11" class="edge">
<title>Node9&#45;&gt;Node10</title>
<path fill="none" stroke="midnightblue" d="M1623.87,-229.1C1636.82,-219.38 1653.3,-207.03 1664.22,-198.83"/>
<polygon fill="midnightblue" stroke="midnightblue" points="1621.47,-226.52 1615.57,-235.32 1625.67,-232.12 1621.47,-226.52"/>
</g>
<!-- Node13 -->
<g id="node13" class="node">
<title>Node13</title>
<g id="a_node13"><a xlink:href="_second_moment_averaging_8cpp.html" target="_top" xlink:title=" ">
<polygon fill="white" stroke="black" points="1428.5,-179.5 1428.5,-198.5 1589.5,-198.5 1589.5,-179.5 1428.5,-179.5"/>
<text text-anchor="middle" x="1509" y="-186.5" font-family="Helvetica,sans-Serif" font-size="10.00">SecondMomentAveraging.cpp</text>
</a>
</g>
</g>
<!-- Node12&#45;&gt;Node13 -->
<g id="edge14" class="edge">
<title>Node12&#45;&gt;Node13</title>
<path fill="none" stroke="midnightblue" d="M1493.14,-225.69C1497.18,-216.59 1501.88,-206.01 1505.11,-198.75"/>
<polygon fill="midnightblue" stroke="midnightblue" points="1489.83,-224.52 1488.96,-235.08 1496.22,-227.37 1489.83,-224.52"/>
</g>
<!-- Node12&#45;&gt;Node14 -->
<g id="edge15" class="edge">
<title>Node12&#45;&gt;Node14</title>
<path fill="none" stroke="midnightblue" d="M1539.45,-232.97C1578.72,-222.59 1621.22,-204.77 1599,-179 1564.83,-139.38 1404.21,-134.08 1331.69,-133.75"/>
<polygon fill="midnightblue" stroke="midnightblue" points="1538.42,-229.62 1529.57,-235.45 1540.12,-236.41 1538.42,-229.62"/>
</g>
<!-- Node15 -->
<g id="node15" class="node">
<title>Node15</title>
<g id="a_node15"><a xlink:href="_a_b_l_stats_8cpp.html" target="_top" xlink:title=" ">
<polygon fill="white" stroke="black" points="1696,-67.5 1696,-86.5 1776,-86.5 1776,-67.5 1696,-67.5"/>
<text text-anchor="middle" x="1736" y="-74.5" font-family="Helvetica,sans-Serif" font-size="10.00">ABLStats.cpp</text>
</a>
</g>
</g>
<!-- Node14&#45;&gt;Node15 -->
<g id="edge16" class="edge">
<title>Node14&#45;&gt;Node15</title>
<path fill="none" stroke="midnightblue" d="M1341.94,-127.72C1415.14,-120.68 1562.68,-105.55 1687,-87 1689.91,-86.57 1692.91,-86.09 1695.93,-85.59"/>
<polygon fill="midnightblue" stroke="midnightblue" points="1341.31,-124.27 1331.69,-128.7 1341.97,-131.23 1341.31,-124.27"/>
</g>
<!-- Node16&#45;&gt;Node14 -->
<g id="edge19" class="edge">
<title>Node16&#45;&gt;Node14</title>
<path fill="none" stroke="midnightblue" d="M1335.28,-231.98C1363.89,-220.99 1395.33,-202.81 1381,-179 1369.89,-160.55 1348.39,-149.26 1329.8,-142.61"/>
<polygon fill="midnightblue" stroke="midnightblue" points="1333.96,-228.74 1325.75,-235.44 1336.35,-235.32 1333.96,-228.74"/>
</g>
<!-- Node17 -->
<g id="node17" class="node">
<title>Node17</title>
<g id="a_node17"><a xlink:href="_third_moment_averaging_8cpp.html" target="_top" xlink:title=" ">
<polygon fill="white" stroke="black" points="1220.5,-179.5 1220.5,-198.5 1371.5,-198.5 1371.5,-179.5 1220.5,-179.5"/>
<text text-anchor="middle" x="1296" y="-186.5" font-family="Helvetica,sans-Serif" font-size="10.00">ThirdMomentAveraging.cpp</text>
</a>
</g>
</g>
<!-- Node16&#45;&gt;Node17 -->
<g id="edge18" class="edge">
<title>Node16&#45;&gt;Node17</title>
<path fill="none" stroke="midnightblue" d="M1296,-224.8C1296,-215.91 1296,-205.78 1296,-198.75"/>
<polygon fill="midnightblue" stroke="midnightblue" points="1292.5,-225.08 1296,-235.08 1299.5,-225.08 1292.5,-225.08"/>
</g>
<!-- Node18&#45;&gt;Node3 -->
<g id="edge23" class="edge">
<title>Node18&#45;&gt;Node3</title>
<path fill="none" stroke="midnightblue" d="M773.71,-129.89C684.24,-124.13 431.09,-107.18 221,-87 218.15,-86.73 215.24,-86.44 212.31,-86.14"/>
<polygon fill="midnightblue" stroke="midnightblue" points="773.6,-133.39 783.8,-130.54 774.05,-126.41 773.6,-133.39"/>
</g>
<!-- Node18&#45;&gt;Node4 -->
<g id="edge34" class="edge">
<title>Node18&#45;&gt;Node4</title>
<path fill="none" stroke="midnightblue" d="M773.52,-130.76C647.89,-126 204.66,-108.05 65,-87 62.12,-86.57 59.14,-86.02 56.18,-85.4"/>
<polygon fill="midnightblue" stroke="midnightblue" points="773.55,-134.27 783.68,-131.15 773.81,-127.27 773.55,-134.27"/>
</g>
<!-- Node18&#45;&gt;Node6 -->
<g id="edge25" class="edge">
<title>Node18&#45;&gt;Node6</title>
<path fill="none" stroke="midnightblue" d="M773.47,-128.97C698.9,-122.17 513.69,-104.85 359,-87 356,-86.65 352.93,-86.29 349.83,-85.91"/>
<polygon fill="midnightblue" stroke="midnightblue" points="773.38,-132.48 783.65,-129.9 774.01,-125.51 773.38,-132.48"/>
</g>
<!-- Node18&#45;&gt;Node8 -->
<g id="edge27" class="edge">
<title>Node18&#45;&gt;Node8</title>
<path fill="none" stroke="midnightblue" d="M773.76,-127.1C711.43,-117.9 576.27,-97.96 498.75,-86.52"/>
<polygon fill="midnightblue" stroke="midnightblue" points="773.42,-130.58 783.83,-128.58 774.45,-123.66 773.42,-130.58"/>
</g>
<!-- Node19 -->
<g id="node19" class="node">
<title>Node19</title>
<g id="a_node19"><a xlink:href="_c_f_d_sim_8cpp.html" target="_top" xlink:title=" ">
<polygon fill="white" stroke="black" points="532,-67.5 532,-86.5 608,-86.5 608,-67.5 532,-67.5"/>
<text text-anchor="middle" x="570" y="-74.5" font-family="Helvetica,sans-Serif" font-size="10.00">CFDSim.cpp</text>
</a>
</g>
</g>
<!-- Node18&#45;&gt;Node19 -->
<g id="edge21" class="edge">
<title>Node18&#45;&gt;Node19</title>
<path fill="none" stroke="midnightblue" d="M774.01,-124.48C730.32,-114.53 653.47,-97.02 607.59,-86.56"/>
<polygon fill="midnightblue" stroke="midnightblue" points="773.32,-127.91 783.84,-126.72 774.87,-121.09 773.32,-127.91"/>
</g>
<!-- Node20 -->
<g id="node20" class="node">
<title>Node20</title>
<g id="a_node20"><a xlink:href="_a_b_l_forcing_8cpp.html" target="_top" xlink:title=" ">
<polygon fill="white" stroke="black" points="626.5,-67.5 626.5,-86.5 717.5,-86.5 717.5,-67.5 626.5,-67.5"/>
<text text-anchor="middle" x="672" y="-74.5" font-family="Helvetica,sans-Serif" font-size="10.00">ABLForcing.cpp</text>
</a>
</g>
</g>
<!-- Node18&#45;&gt;Node20 -->
<g id="edge22" class="edge">
<title>Node18&#45;&gt;Node20</title>
<path fill="none" stroke="midnightblue" d="M776.09,-119.64C750.76,-109.5 715.57,-95.43 693.29,-86.52"/>
<polygon fill="midnightblue" stroke="midnightblue" points="775.02,-122.98 785.61,-123.44 777.62,-116.48 775.02,-122.98"/>
</g>
<!-- Node21 -->
<g id="node21" class="node">
<title>Node21</title>
<g id="a_node21"><a xlink:href="_a_b_l_meso_forcing_mom_8cpp.html" target="_top" xlink:title=" ">
<polygon fill="white" stroke="black" points="736,-67.5 736,-86.5 878,-86.5 878,-67.5 736,-67.5"/>
<text text-anchor="middle" x="807" y="-74.5" font-family="Helvetica,sans-Serif" font-size="10.00">ABLMesoForcingMom.cpp</text>
</a>
</g>
</g>
<!-- Node18&#45;&gt;Node21 -->
<g id="edge24" class="edge">
<title>Node18&#45;&gt;Node21</title>
<path fill="none" stroke="midnightblue" d="M807,-112.8C807,-103.91 807,-93.78 807,-86.75"/>
<polygon fill="midnightblue" stroke="midnightblue" points="803.5,-113.08 807,-123.08 810.5,-113.08 803.5,-113.08"/>
</g>
<!-- Node22 -->
<g id="node22" class="node">
<title>Node22</title>
<g id="a_node22"><a xlink:href="_a_b_l_meso_forcing_temp_8cpp.html" target="_top" xlink:title=" ">
<polygon fill="white" stroke="black" points="896.5,-67.5 896.5,-86.5 1039.5,-86.5 1039.5,-67.5 896.5,-67.5"/>
<text text-anchor="middle" x="968" y="-74.5" font-family="Helvetica,sans-Serif" font-size="10.00">ABLMesoForcingTemp.cpp</text>
</a>
</g>
</g>
<!-- Node18&#45;&gt;Node22 -->
<g id="edge26" class="edge">
<title>Node18&#45;&gt;Node22</title>
<path fill="none" stroke="midnightblue" d="M839.79,-121C870.19,-110.81 914.8,-95.84 942.58,-86.52"/>
<polygon fill="midnightblue" stroke="midnightblue" points="838.44,-117.76 830.07,-124.26 840.66,-124.4 838.44,-117.76"/>
</g>
<!-- Node23 -->
<g id="node23" class="node">
<title>Node23</title>
<g id="a_node23"><a xlink:href="helics_8cpp.html" target="_top" xlink:title=" ">
<polygon fill="white" stroke="black" points="1057.5,-67.5 1057.5,-86.5 1122.5,-86.5 1122.5,-67.5 1057.5,-67.5"/>
<text text-anchor="middle" x="1090" y="-74.5" font-family="Helvetica,sans-Serif" font-size="10.00">helics.cpp</text>
</a>
</g>
</g>
<!-- Node18&#45;&gt;Node23 -->
<g id="edge28" class="edge">
<title>Node18&#45;&gt;Node23</title>
<path fill="none" stroke="midnightblue" d="M840.12,-123.83C841.43,-123.55 842.73,-123.27 844,-123 934.11,-104.11 957.64,-104.65 1048,-87 1051.07,-86.4 1054.27,-85.75 1057.46,-85.09"/>
<polygon fill="midnightblue" stroke="midnightblue" points="839,-120.5 830.04,-126.15 840.57,-127.32 839,-120.5"/>
</g>
<!-- Node24 -->
<g id="node24" class="node">
<title>Node24</title>
<g id="a_node24"><a xlink:href="incflo_8cpp.html" target="_top" xlink:title=" ">
<polygon fill="white" stroke="black" points="1140.5,-67.5 1140.5,-86.5 1203.5,-86.5 1203.5,-67.5 1140.5,-67.5"/>
<text text-anchor="middle" x="1172" y="-74.5" font-family="Helvetica,sans-Serif" font-size="10.00">incflo.cpp</text>
</a>
</g>
</g>
<!-- Node18&#45;&gt;Node24 -->
<g id="edge29" class="edge">
<title>Node18&#45;&gt;Node24</title>
<path fill="none" stroke="midnightblue" d="M840.1,-123.75C841.42,-123.49 842.72,-123.23 844,-123 970.88,-99.72 1004.93,-109.18 1132,-87 1134.66,-86.53 1137.42,-86.01 1140.18,-85.45"/>
<polygon fill="midnightblue" stroke="midnightblue" points="839.02,-120.41 830.01,-125.97 840.52,-127.24 839.02,-120.41"/>
</g>
<!-- Node25 -->
<g id="node25" class="node">
<title>Node25</title>
<g id="a_node25"><a xlink:href="nodal__projection__ops_8_h.html" target="_top" xlink:title=" ">
<polygon fill="white" stroke="black" points="1221.5,-67.5 1221.5,-86.5 1352.5,-86.5 1352.5,-67.5 1221.5,-67.5"/>
<text text-anchor="middle" x="1287" y="-74.5" font-family="Helvetica,sans-Serif" font-size="10.00">nodal_projection_ops.H</text>
</a>
</g>
</g>
<!-- Node18&#45;&gt;Node25 -->
<g id="edge30" class="edge">
<title>Node18&#45;&gt;Node25</title>
<path fill="none" stroke="midnightblue" d="M840.21,-123.69C841.49,-123.44 842.75,-123.21 844,-123 1006.46,-95.46 1049.2,-104.95 1213,-87 1215.7,-86.7 1218.46,-86.4 1221.24,-86.08"/>
<polygon fill="midnightblue" stroke="midnightblue" points="839.43,-120.27 830.38,-125.78 840.89,-127.12 839.43,-120.27"/>
</g>
<!-- Node28 -->
<g id="node28" class="node">
<title>Node28</title>
<g id="a_node28"><a xlink:href="init_8cpp.html" target="_top" xlink:title=" ">
<polygon fill="white" stroke="black" points="1370.5,-67.5 1370.5,-86.5 1423.5,-86.5 1423.5,-67.5 1370.5,-67.5"/>
<text text-anchor="middle" x="1397" y="-74.5" font-family="Helvetica,sans-Serif" font-size="10.00">init.cpp</text>
</a>
</g>
</g>
<!-- Node18&#45;&gt;Node28 -->
<g id="edge33" class="edge">
<title>Node18&#45;&gt;Node28</title>
<path fill="none" stroke="midnightblue" d="M840.2,-123.64C841.48,-123.41 842.75,-123.19 844,-123 1072.05,-87.6 1134.19,-123.89 1362,-87 1364.73,-86.56 1367.55,-86 1370.35,-85.39"/>
<polygon fill="midnightblue" stroke="midnightblue" points="839.45,-120.22 830.37,-125.68 840.87,-127.08 839.45,-120.22"/>
</g>
<!-- Node29 -->
<g id="node29" class="node">
<title>Node29</title>
<g id="a_node29"><a xlink:href="_a_b_l_anelastic_8cpp.html" target="_top" xlink:title=" ">
<polygon fill="white" stroke="black" points="1441.5,-67.5 1441.5,-86.5 1542.5,-86.5 1542.5,-67.5 1441.5,-67.5"/>
<text text-anchor="middle" x="1492" y="-74.5" font-family="Helvetica,sans-Serif" font-size="10.00">ABLAnelastic.cpp</text>
</a>
</g>
</g>
<!-- Node18&#45;&gt;Node29 -->
<g id="edge35" class="edge">
<title>Node18&#45;&gt;Node29</title>
<path fill="none" stroke="midnightblue" d="M840.2,-123.63C841.48,-123.4 842.75,-123.19 844,-123 1103.33,-83.85 1172.21,-114.8 1433,-87 1435.68,-86.71 1438.42,-86.39 1441.19,-86.05"/>
<polygon fill="midnightblue" stroke="midnightblue" points="839.45,-120.21 830.36,-125.65 840.86,-127.06 839.45,-120.21"/>
</g>
<!-- Node30 -->
<g id="node30" class="node">
<title>Node30</title>
<g id="a_node30"><a xlink:href="_a_b_l_wall_function_8cpp.html" target="_top" xlink:title=" ">
<polygon fill="white" stroke="black" points="1560.5,-67.5 1560.5,-86.5 1677.5,-86.5 1677.5,-67.5 1560.5,-67.5"/>
<text text-anchor="middle" x="1619" y="-74.5" font-family="Helvetica,sans-Serif" font-size="10.00">ABLWallFunction.cpp</text>
</a>
</g>
</g>
<!-- Node18&#45;&gt;Node30 -->
<g id="edge36" class="edge">
<title>Node18&#45;&gt;Node30</title>
<path fill="none" stroke="midnightblue" d="M840.2,-123.61C841.48,-123.39 842.75,-123.18 844,-123 1155.78,-77.57 1238.26,-116 1552,-87 1554.69,-86.75 1557.43,-86.48 1560.21,-86.18"/>
<polygon fill="midnightblue" stroke="midnightblue" points="839.46,-120.19 830.36,-125.62 840.86,-127.05 839.46,-120.19"/>
</g>
<!-- Node26 -->
<g id="node26" class="node">
<title>Node26</title>
<g id="a_node26"><a xlink:href="_overset_ops_8cpp.html" target="_top" xlink:title=" ">
<polygon fill="white" stroke="black" points="1180,-6 1180,-25 1274,-25 1274,-6 1180,-6"/>
<text text-anchor="middle" x="1227" y="-13" font-family="Helvetica,sans-Serif" font-size="10.00">OversetOps.cpp</text>
</a>
</g>
</g>
<!-- Node25&#45;&gt;Node26 -->
<g id="edge31" class="edge">
<title>Node25&#45;&gt;Node26</title>
<path fill="none" stroke="midnightblue" d="M1271.19,-60.32C1259.79,-49.02 1244.84,-34.19 1235.58,-25.01"/>
<polygon fill="midnightblue" stroke="midnightblue" points="1268.84,-62.92 1278.4,-67.48 1273.77,-57.95 1268.84,-62.92"/>
</g>
<!-- Node27 -->
<g id="node27" class="node">
<title>Node27</title>
<g id="a_node27"><a xlink:href="incflo__apply__nodal__projection_8cpp.html" target="_top" xlink:title=" ">
<polygon fill="white" stroke="black" points="1292.5,-0.5 1292.5,-30.5 1399.5,-30.5 1399.5,-0.5 1292.5,-0.5"/>
<text text-anchor="start" x="1300.5" y="-18.5" font-family="Helvetica,sans-Serif" font-size="10.00">incflo_apply_nodal</text>
<text text-anchor="middle" x="1346" y="-7.5" font-family="Helvetica,sans-Serif" font-size="10.00">_projection.cpp</text>
</a>
</g>
</g>
<!-- Node25&#45;&gt;Node27 -->
<g id="edge32" class="edge">
<title>Node25&#45;&gt;Node27</title>
<path fill="none" stroke="midnightblue" d="M1302.5,-60.37C1311.68,-51.11 1323.21,-39.48 1332.09,-30.52"/>
<polygon fill="midnightblue" stroke="midnightblue" points="1300.01,-57.91 1295.45,-67.48 1304.98,-62.84 1300.01,-57.91"/>
</g>
<!-- Node31&#45;&gt;Node14 -->
<g id="edge41" class="edge">
<title>Node31&#45;&gt;Node14</title>
<path fill="none" stroke="midnightblue" d="M1036.92,-232.56C1064.58,-224.1 1102.44,-211.87 1135,-199 1154.6,-191.25 1158.59,-187.2 1178,-179 1210.11,-165.43 1247.85,-151.36 1271.85,-142.64"/>
<polygon fill="midnightblue" stroke="midnightblue" points="1035.77,-229.25 1027.22,-235.5 1037.8,-235.95 1035.77,-229.25"/>
</g>
<!-- Node31&#45;&gt;Node18 -->
<g id="edge40" class="edge">
<title>Node31&#45;&gt;Node18</title>
<path fill="none" stroke="midnightblue" d="M934.24,-236.59C904.34,-230.47 869.72,-219.33 844,-199 825.05,-184.02 814.11,-156.5 809.54,-142.56"/>
<polygon fill="midnightblue" stroke="midnightblue" points="933.71,-240.05 944.18,-238.47 935.01,-233.17 933.71,-240.05"/>
</g>
<!-- Node31&#45;&gt;Node30 -->
<g id="edge45" class="edge">
<title>Node31&#45;&gt;Node30</title>
<path fill="none" stroke="midnightblue" d="M938.59,-233.17C897.53,-223.09 854.09,-205.59 877,-179 975.83,-64.32 1401.82,-106.1 1552,-87 1554.68,-86.66 1557.42,-86.31 1560.18,-85.95"/>
<polygon fill="midnightblue" stroke="midnightblue" points="937.86,-236.59 948.39,-235.45 939.44,-229.77 937.86,-236.59"/>
</g>
<!-- Node32 -->
<g id="node32" class="node">
<title>Node32</title>
<g id="a_node32"><a xlink:href="_boussinesq_bubble_8cpp.html" target="_top" xlink:title=" ">
<polygon fill="white" stroke="black" points="1000,-179.5 1000,-198.5 1126,-198.5 1126,-179.5 1000,-179.5"/>
<text text-anchor="middle" x="1063" y="-186.5" font-family="Helvetica,sans-Serif" font-size="10.00">BoussinesqBubble.cpp</text>
</a>
</g>
</g>
<!-- Node31&#45;&gt;Node32 -->
<g id="edge39" class="edge">
<title>Node31&#45;&gt;Node32</title>
<path fill="none" stroke="midnightblue" d="M1016.27,-228.82C1027.92,-219.15 1042.6,-206.95 1052.37,-198.83"/>
<polygon fill="midnightblue" stroke="midnightblue" points="1013.9,-226.24 1008.44,-235.32 1018.37,-231.63 1013.9,-226.24"/>
</g>
<!-- Node33 -->
<g id="node33" class="node">
<title>Node33</title>
<g id="a_node33"><a xlink:href="_a_b_l_stats_base_8_h.html" target="_top" xlink:title=" ">
<polygon fill="white" stroke="black" points="886.5,-179.5 886.5,-198.5 981.5,-198.5 981.5,-179.5 886.5,-179.5"/>
<text text-anchor="middle" x="934" y="-186.5" font-family="Helvetica,sans-Serif" font-size="10.00">ABLStatsBase.H</text>
</a>
</g>
</g>
<!-- Node31&#45;&gt;Node33 -->
<g id="edge42" class="edge">
<title>Node31&#45;&gt;Node33</title>
<path fill="none" stroke="midnightblue" d="M980.01,-228.82C968.54,-219.15 954.09,-206.95 944.47,-198.83"/>
<polygon fill="midnightblue" stroke="midnightblue" points="977.82,-231.55 987.72,-235.32 982.33,-226.2 977.82,-231.55"/>
</g>
<!-- Node33&#45;&gt;Node14 -->
<g id="edge44" class="edge">
<title>Node33&#45;&gt;Node14</title>
<path fill="none" stroke="midnightblue" d="M991.61,-178.92C1095.49,-163.09 1205.11,-147.13 1260.3,-139.15"/>
<polygon fill="midnightblue" stroke="midnightblue" points="990.94,-175.48 981.58,-180.45 991.99,-182.4 990.94,-175.48"/>
</g>
<!-- Node33&#45;&gt;Node18 -->
<g id="edge43" class="edge">
<title>Node33&#45;&gt;Node18</title>
<path fill="none" stroke="midnightblue" d="M904.61,-175.5C880.8,-165.38 847.89,-151.39 827.03,-142.52"/>
<polygon fill="midnightblue" stroke="midnightblue" points="903.3,-178.75 913.88,-179.44 906.04,-172.31 903.3,-178.75"/>
</g>
</g>
</svg>
