<?xml version="1.0" encoding="UTF-8" standalone="no"?>
<!DOCTYPE svg PUBLIC "-//W3C//DTD SVG 1.1//EN"
 "http://www.w3.org/Graphics/SVG/1.1/DTD/svg11.dtd">
<!-- Generated by graphviz version 2.43.0 (0)
 -->
<!-- Title: FixedGradientBC.H Pages: 1 -->
<!--zoomable 252 -->
<svg id="main" version="1.1" xmlns="http://www.w3.org/2000/svg" xmlns:xlink="http://www.w3.org/1999/xlink" xml:space="preserve" onload="init(evt)">
<style type="text/css"><![CDATA[
.edge:hover path { stroke: red; }
.edge:hover polygon { stroke: red; fill: red; }
]]></style>
<script type="text/javascript"><![CDATA[
var edges = document.getElementsByTagName('g');
if (edges && edges.length) {
  for (var i=0;i<edges.length;i++) {
    if (edges[i].id.substr(0,4)=='edge') {
      edges[i].setAttribute('class','edge');
    }
  }
}
]]></script>
        <defs>
                <circle id="rim" cx="0" cy="0" r="7"/>
                <circle id="rim2" cx="0" cy="0" r="3.5"/>
                <g id="zoomPlus">
                        <use xlink:href="#rim" fill="#404040">
                                <set attributeName="fill" to="#808080" begin="zoomplus.mouseover" end="zoomplus.mouseout"/>
                        </use>
                        <path d="M-4,0h8M0,-4v8" fill="none" stroke="white" stroke-width="1.5" pointer-events="none"/>
                </g>
                <g id="zoomMin">
                        <use xlink:href="#rim" fill="#404040">
                                <set attributeName="fill" to="#808080" begin="zoomminus.mouseover" end="zoomminus.mouseout"/>
                        </use>
                        <path d="M-4,0h8" fill="none" stroke="white" stroke-width="1.5" pointer-events="none"/>
                </g>
                <g id="dirArrow">
                        <path fill="none" stroke="white" stroke-width="1.5" d="M0,-3.0v7 M-2.5,-0.5L0,-3.0L2.5,-0.5"/>
                </g>
               <g id="resetDef">
                       <use xlink:href="#rim2" fill="#404040">
                               <set attributeName="fill" to="#808080" begin="reset.mouseover" end="reset.mouseout"/>
                       </use>
               </g>
        </defs>

<script type="text/javascript">
var viewWidth = 1992;
var viewHeight = 252;
var sectionId = 'dynsection-0';
</script>
<script xlink:href="svgpan.js"/>
<svg id="graph" class="graph">
<g id="viewport">
<title>FixedGradientBC.H</title>
<polygon fill="white" stroke="transparent" points="-4,4 -4,-248 1987.61,-248 1987.61,4 -4,4"/>
<!-- Node1 -->
<g id="node1" class="node">
<title>Node1</title>
<g id="a_node1"><a xlink:title=" ">
<polygon fill="#bfbfbf" stroke="black" points="1579.11,-224.5 1579.11,-243.5 1687.11,-243.5 1687.11,-224.5 1579.11,-224.5"/>
<text text-anchor="middle" x="1633.11" y="-231.5" font-family="Helvetica,sans-Serif" font-size="10.00">FixedGradientBC.H</text>
</a>
</g>
</g>
<!-- Node2 -->
<g id="node2" class="node">
<title>Node2</title>
<g id="a_node2"><a xlink:href="_field_b_c_ops_8_h.html" target="_top" xlink:title=" ">
<polygon fill="white" stroke="black" points="1555.11,-168.5 1555.11,-187.5 1711.11,-187.5 1711.11,-168.5 1555.11,-168.5"/>
<text text-anchor="middle" x="1633.11" y="-175.5" font-family="Helvetica,sans-Serif" font-size="10.00">amr&#45;wind/core/FieldBCOps.H</text>
</a>
</g>
</g>
<!-- Node1&#45;&gt;Node2 -->
<g id="edge1" class="edge">
<title>Node1&#45;&gt;Node2</title>
<path fill="none" stroke="midnightblue" d="M1633.11,-224.08C1633.11,-217.01 1633.11,-206.86 1633.11,-197.99"/>
<polygon fill="midnightblue" stroke="midnightblue" points="1636.61,-197.75 1633.11,-187.75 1629.61,-197.75 1636.61,-197.75"/>
</g>
<!-- Node18 -->
<g id="node18" class="node">
<title>Node18</title>
<g id="a_node18"><a xlink:href="_field_repo_8_h.html" target="_top" xlink:title=" ">
<polygon fill="white" stroke="black" points="585.61,-168.5 585.61,-187.5 734.61,-187.5 734.61,-168.5 585.61,-168.5"/>
<text text-anchor="middle" x="660.11" y="-175.5" font-family="Helvetica,sans-Serif" font-size="10.00">amr&#45;wind/core/FieldRepo.H</text>
</a>
</g>
</g>
<!-- Node1&#45;&gt;Node18 -->
<g id="edge22" class="edge">
<title>Node1&#45;&gt;Node18</title>
<path fill="none" stroke="midnightblue" d="M1579.06,-230C1418.03,-221.06 940.55,-194.56 745.03,-183.71"/>
<polygon fill="midnightblue" stroke="midnightblue" points="744.99,-180.21 734.81,-183.15 744.6,-187.19 744.99,-180.21"/>
</g>
<!-- Node25 -->
<g id="node25" class="node">
<title>Node25</title>
<g id="a_node25"><a xlink:title=" ">
<polygon fill="white" stroke="#bfbfbf" points="1729.11,-168.5 1729.11,-187.5 1851.11,-187.5 1851.11,-168.5 1729.11,-168.5"/>
<text text-anchor="middle" x="1790.11" y="-175.5" font-family="Helvetica,sans-Serif" font-size="10.00">AMReX_Orientation.H</text>
</a>
</g>
</g>
<!-- Node1&#45;&gt;Node25 -->
<g id="edge45" class="edge">
<title>Node1&#45;&gt;Node25</title>
<path fill="none" stroke="midnightblue" d="M1657.99,-224.44C1684.4,-215.36 1726.33,-200.94 1755.85,-190.78"/>
<polygon fill="midnightblue" stroke="midnightblue" points="1757.03,-194.08 1765.35,-187.52 1754.76,-187.46 1757.03,-194.08"/>
</g>
<!-- Node3 -->
<g id="node3" class="node">
<title>Node3</title>
<g id="a_node3"><a xlink:href="_field_desc_types_8_h.html" target="_top" xlink:title=" ">
<polygon fill="white" stroke="black" points="709.11,-0.5 709.11,-19.5 885.11,-19.5 885.11,-0.5 709.11,-0.5"/>
<text text-anchor="middle" x="797.11" y="-7.5" font-family="Helvetica,sans-Serif" font-size="10.00">amr&#45;wind/core/FieldDescTypes.H</text>
</a>
</g>
</g>
<!-- Node2&#45;&gt;Node3 -->
<g id="edge2" class="edge">
<title>Node2&#45;&gt;Node3</title>
<path fill="none" stroke="midnightblue" d="M1642.78,-168.25C1665.56,-146.6 1718.37,-89.88 1686.11,-56 1658.04,-26.51 994.77,-22.17 954.11,-20 935.07,-18.99 914.74,-17.86 895.24,-16.75"/>
<polygon fill="midnightblue" stroke="midnightblue" points="895.31,-13.25 885.12,-16.17 894.91,-20.24 895.31,-13.25"/>
</g>
<!-- Node4 -->
<g id="node4" class="node">
<title>Node4</title>
<g id="a_node4"><a xlink:href="_field_8_h.html" target="_top" xlink:title=" ">
<polygon fill="white" stroke="black" points="1123.11,-112.5 1123.11,-131.5 1247.11,-131.5 1247.11,-112.5 1123.11,-112.5"/>
<text text-anchor="middle" x="1185.11" y="-119.5" font-family="Helvetica,sans-Serif" font-size="10.00">amr&#45;wind/core/Field.H</text>
</a>
</g>
</g>
<!-- Node2&#45;&gt;Node4 -->
<g id="edge3" class="edge">
<title>Node2&#45;&gt;Node4</title>
<path fill="none" stroke="midnightblue" d="M1562.12,-168.44C1478.79,-158.4 1341.33,-141.83 1257.42,-131.72"/>
<polygon fill="midnightblue" stroke="midnightblue" points="1257.81,-128.24 1247.46,-130.52 1256.97,-135.19 1257.81,-128.24"/>
</g>
<!-- Node11 -->
<g id="node11" class="node">
<title>Node11</title>
<g id="a_node11"><a xlink:title=" ">
<polygon fill="white" stroke="#bfbfbf" points="1589.61,-56.5 1589.61,-75.5 1676.61,-75.5 1676.61,-56.5 1589.61,-56.5"/>
<text text-anchor="middle" x="1633.11" y="-63.5" font-family="Helvetica,sans-Serif" font-size="10.00">AMReX_Gpu.H</text>
</a>
</g>
</g>
<!-- Node2&#45;&gt;Node11 -->
<g id="edge18" class="edge">
<title>Node2&#45;&gt;Node11</title>
<path fill="none" stroke="midnightblue" d="M1633.11,-168.37C1633.11,-150.62 1633.11,-109.67 1633.11,-85.6"/>
<polygon fill="midnightblue" stroke="midnightblue" points="1636.61,-85.59 1633.11,-75.59 1629.61,-85.59 1636.61,-85.59"/>
</g>
<!-- Node15 -->
<g id="node15" class="node">
<title>Node15</title>
<g id="a_node15"><a xlink:title=" ">
<polygon fill="white" stroke="#bfbfbf" points="1733.61,-112.5 1733.61,-131.5 1850.61,-131.5 1850.61,-112.5 1733.61,-112.5"/>
<text text-anchor="middle" x="1792.11" y="-119.5" font-family="Helvetica,sans-Serif" font-size="10.00">AMReX_FArrayBox.H</text>
</a>
</g>
</g>
<!-- Node2&#45;&gt;Node15 -->
<g id="edge19" class="edge">
<title>Node2&#45;&gt;Node15</title>
<path fill="none" stroke="midnightblue" d="M1658.31,-168.44C1685.05,-159.36 1727.51,-144.94 1757.42,-134.78"/>
<polygon fill="midnightblue" stroke="midnightblue" points="1758.69,-138.05 1767.04,-131.52 1756.44,-131.42 1758.69,-138.05"/>
</g>
<!-- Node16 -->
<g id="node16" class="node">
<title>Node16</title>
<g id="a_node16"><a xlink:title=" ">
<polygon fill="white" stroke="#bfbfbf" points="1868.61,-112.5 1868.61,-131.5 1983.61,-131.5 1983.61,-112.5 1868.61,-112.5"/>
<text text-anchor="middle" x="1926.11" y="-119.5" font-family="Helvetica,sans-Serif" font-size="10.00">AMReX_Geometry.H</text>
</a>
</g>
</g>
<!-- Node2&#45;&gt;Node16 -->
<g id="edge20" class="edge">
<title>Node2&#45;&gt;Node16</title>
<path fill="none" stroke="midnightblue" d="M1679.54,-168.44C1731.19,-158.92 1814.62,-143.55 1869.92,-133.36"/>
<polygon fill="midnightblue" stroke="midnightblue" points="1870.7,-136.77 1879.9,-131.52 1869.43,-129.89 1870.7,-136.77"/>
</g>
<!-- Node17 -->
<g id="node17" class="node">
<title>Node17</title>
<g id="a_node17"><a xlink:title=" ">
<polygon fill="white" stroke="#bfbfbf" points="296.61,-56.5 296.61,-75.5 427.61,-75.5 427.61,-56.5 296.61,-56.5"/>
<text text-anchor="middle" x="362.11" y="-63.5" font-family="Helvetica,sans-Serif" font-size="10.00">AMReX_PhysBCFunct.H</text>
</a>
</g>
</g>
<!-- Node2&#45;&gt;Node17 -->
<g id="edge21" class="edge">
<title>Node2&#45;&gt;Node17</title>
<path fill="none" stroke="midnightblue" d="M1555.02,-171.63C1364.94,-158.29 862.94,-121.53 437.71,-76.58"/>
<polygon fill="midnightblue" stroke="midnightblue" points="437.99,-73.09 427.68,-75.52 437.25,-80.05 437.99,-73.09"/>
</g>
<!-- Node4&#45;&gt;Node3 -->
<g id="edge12" class="edge">
<title>Node4&#45;&gt;Node3</title>
<path fill="none" stroke="midnightblue" d="M1247.34,-119.15C1360.29,-114.69 1583.73,-100.21 1542.11,-56 1540.74,-54.54 1097.34,-28.51 895.33,-16.72"/>
<polygon fill="midnightblue" stroke="midnightblue" points="895.49,-13.22 885.31,-16.13 895.08,-20.21 895.49,-13.22"/>
</g>
<!-- Node5 -->
<g id="node5" class="node">
<title>Node5</title>
<g id="a_node5"><a xlink:title=" ">
<polygon fill="white" stroke="#bfbfbf" points="170.11,-0.5 170.11,-19.5 214.11,-19.5 214.11,-0.5 170.11,-0.5"/>
<text text-anchor="middle" x="192.11" y="-7.5" font-family="Helvetica,sans-Serif" font-size="10.00">string</text>
</a>
</g>
</g>
<!-- Node4&#45;&gt;Node5 -->
<g id="edge4" class="edge">
<title>Node4&#45;&gt;Node5</title>
<path fill="none" stroke="midnightblue" d="M1122.93,-118.51C961.37,-111.85 536.63,-92.93 475.11,-76 456.33,-70.83 454.55,-62.28 436.11,-56 362.57,-30.96 271.54,-18.87 224.17,-13.91"/>
<polygon fill="midnightblue" stroke="midnightblue" points="224.49,-10.42 214.19,-12.9 223.79,-17.39 224.49,-10.42"/>
</g>
<!-- Node6 -->
<g id="node6" class="node">
<title>Node6</title>
<g id="a_node6"><a xlink:title=" ">
<polygon fill="white" stroke="#bfbfbf" points="1116.11,-56.5 1116.11,-75.5 1174.11,-75.5 1174.11,-56.5 1116.11,-56.5"/>
<text text-anchor="middle" x="1145.11" y="-63.5" font-family="Helvetica,sans-Serif" font-size="10.00">memory</text>
</a>
</g>
</g>
<!-- Node4&#45;&gt;Node6 -->
<g id="edge5" class="edge">
<title>Node4&#45;&gt;Node6</title>
<path fill="none" stroke="midnightblue" d="M1178.51,-112.08C1172.86,-104.46 1164.57,-93.26 1157.66,-83.94"/>
<polygon fill="midnightblue" stroke="midnightblue" points="1160.36,-81.7 1151.59,-75.75 1154.73,-85.87 1160.36,-81.7"/>
</g>
<!-- Node7 -->
<g id="node7" class="node">
<title>Node7</title>
<g id="a_node7"><a xlink:title=" ">
<polygon fill="white" stroke="#bfbfbf" points="802.61,-56.5 802.61,-75.5 895.61,-75.5 895.61,-56.5 802.61,-56.5"/>
<text text-anchor="middle" x="849.11" y="-63.5" font-family="Helvetica,sans-Serif" font-size="10.00">unordered_map</text>
</a>
</g>
</g>
<!-- Node4&#45;&gt;Node7 -->
<g id="edge6" class="edge">
<title>Node4&#45;&gt;Node7</title>
<path fill="none" stroke="midnightblue" d="M1131.87,-112.44C1070.26,-102.54 969.2,-86.3 906.05,-76.15"/>
<polygon fill="midnightblue" stroke="midnightblue" points="906.3,-72.65 895.87,-74.52 905.19,-79.56 906.3,-72.65"/>
</g>
<!-- Node8 -->
<g id="node8" class="node">
<title>Node8</title>
<g id="a_node8"><a xlink:title=" ">
<polygon fill="white" stroke="#bfbfbf" points="1192.11,-56.5 1192.11,-75.5 1256.11,-75.5 1256.11,-56.5 1192.11,-56.5"/>
<text text-anchor="middle" x="1224.11" y="-63.5" font-family="Helvetica,sans-Serif" font-size="10.00">algorithm</text>
</a>
</g>
</g>
<!-- Node4&#45;&gt;Node8 -->
<g id="edge7" class="edge">
<title>Node4&#45;&gt;Node8</title>
<path fill="none" stroke="midnightblue" d="M1191.55,-112.08C1197.06,-104.46 1205.14,-93.26 1211.88,-83.94"/>
<polygon fill="midnightblue" stroke="midnightblue" points="1214.77,-85.91 1217.79,-75.75 1209.1,-81.81 1214.77,-85.91"/>
</g>
<!-- Node9 -->
<g id="node9" class="node">
<title>Node9</title>
<g id="a_node9"><a xlink:title=" ">
<polygon fill="white" stroke="#bfbfbf" points="581.61,-0.5 581.61,-19.5 690.61,-19.5 690.61,-0.5 581.61,-0.5"/>
<text text-anchor="middle" x="636.11" y="-7.5" font-family="Helvetica,sans-Serif" font-size="10.00">AMReX_MultiFab.H</text>
</a>
</g>
</g>
<!-- Node4&#45;&gt;Node9 -->
<g id="edge8" class="edge">
<title>Node4&#45;&gt;Node9</title>
<path fill="none" stroke="midnightblue" d="M1122.94,-114.47C1073.29,-108.07 1002.46,-96.25 943.11,-76 924.68,-69.71 922.6,-62.13 904.11,-56 885.13,-49.71 773.76,-32.02 700.69,-20.78"/>
<polygon fill="midnightblue" stroke="midnightblue" points="701.07,-17.3 690.65,-19.24 700,-24.22 701.07,-17.3"/>
</g>
<!-- Node10 -->
<g id="node10" class="node">
<title>Node10</title>
<g id="a_node10"><a xlink:title=" ">
<polygon fill="white" stroke="#bfbfbf" points="1274.61,-56.5 1274.61,-75.5 1373.61,-75.5 1373.61,-56.5 1274.61,-56.5"/>
<text text-anchor="middle" x="1324.11" y="-63.5" font-family="Helvetica,sans-Serif" font-size="10.00">AMReX_BCRec.H</text>
</a>
</g>
</g>
<!-- Node4&#45;&gt;Node10 -->
<g id="edge9" class="edge">
<title>Node4&#45;&gt;Node10</title>
<path fill="none" stroke="midnightblue" d="M1207.14,-112.44C1230.22,-103.48 1266.67,-89.31 1292.75,-79.18"/>
<polygon fill="midnightblue" stroke="midnightblue" points="1294.14,-82.4 1302.19,-75.52 1291.6,-75.88 1294.14,-82.4"/>
</g>
<!-- Node4&#45;&gt;Node11 -->
<g id="edge10" class="edge">
<title>Node4&#45;&gt;Node11</title>
<path fill="none" stroke="midnightblue" d="M1247.35,-114.58C1324.4,-106.45 1459.61,-91.62 1575.11,-76 1576.56,-75.8 1578.03,-75.6 1579.52,-75.39"/>
<polygon fill="midnightblue" stroke="midnightblue" points="1580.04,-78.86 1589.43,-73.96 1579.04,-71.93 1580.04,-78.86"/>
</g>
<!-- Node12 -->
<g id="node12" class="node">
<title>Node12</title>
<g id="a_node12"><a xlink:href="incflo__enums_8_h.html" target="_top" xlink:title=" ">
<polygon fill="white" stroke="black" points="1391.61,-56.5 1391.61,-75.5 1532.61,-75.5 1532.61,-56.5 1391.61,-56.5"/>
<text text-anchor="middle" x="1462.11" y="-63.5" font-family="Helvetica,sans-Serif" font-size="10.00">amr&#45;wind/incflo_enums.H</text>
</a>
</g>
</g>
<!-- Node4&#45;&gt;Node12 -->
<g id="edge11" class="edge">
<title>Node4&#45;&gt;Node12</title>
<path fill="none" stroke="midnightblue" d="M1229,-112.44C1277.63,-102.96 1356.06,-87.67 1408.34,-77.48"/>
<polygon fill="midnightblue" stroke="midnightblue" points="1409.28,-80.87 1418.43,-75.52 1407.94,-73.99 1409.28,-80.87"/>
</g>
<!-- Node13 -->
<g id="node13" class="node">
<title>Node13</title>
<g id="a_node13"><a xlink:href="_view_field_8_h.html" target="_top" xlink:title=" ">
<polygon fill="white" stroke="black" points="484.11,-56.5 484.11,-75.5 632.11,-75.5 632.11,-56.5 484.11,-56.5"/>
<text text-anchor="middle" x="558.11" y="-63.5" font-family="Helvetica,sans-Serif" font-size="10.00">amr&#45;wind/core/ViewField.H</text>
</a>
</g>
</g>
<!-- Node4&#45;&gt;Node13 -->
<g id="edge13" class="edge">
<title>Node4&#45;&gt;Node13</title>
<path fill="none" stroke="midnightblue" d="M1122.99,-115.65C1009.89,-105.91 770.29,-85.27 642.51,-74.27"/>
<polygon fill="midnightblue" stroke="midnightblue" points="642.65,-70.77 632.38,-73.4 642.05,-77.74 642.65,-70.77"/>
</g>
<!-- Node13&#45;&gt;Node3 -->
<g id="edge15" class="edge">
<title>Node13&#45;&gt;Node3</title>
<path fill="none" stroke="midnightblue" d="M595.98,-56.44C637.59,-47.04 704.48,-31.93 749.58,-21.74"/>
<polygon fill="midnightblue" stroke="midnightblue" points="750.44,-25.13 759.42,-19.52 748.89,-18.31 750.44,-25.13"/>
</g>
<!-- Node13&#45;&gt;Node5 -->
<g id="edge14" class="edge">
<title>Node13&#45;&gt;Node5</title>
<path fill="none" stroke="midnightblue" d="M500.12,-56.44C422.19,-44.95 286.32,-24.9 224.45,-15.77"/>
<polygon fill="midnightblue" stroke="midnightblue" points="224.89,-12.3 214.48,-14.3 223.86,-19.22 224.89,-12.3"/>
</g>
<!-- Node13&#45;&gt;Node9 -->
<g id="edge16" class="edge">
<title>Node13&#45;&gt;Node9</title>
<path fill="none" stroke="midnightblue" d="M570.64,-56.32C582.7,-47.98 601.14,-35.21 615.38,-25.35"/>
<polygon fill="midnightblue" stroke="midnightblue" points="617.38,-28.22 623.61,-19.65 613.4,-22.47 617.38,-28.22"/>
</g>
<!-- Node14 -->
<g id="node14" class="node">
<title>Node14</title>
<g id="a_node14"><a xlink:title=" ">
<polygon fill="white" stroke="#bfbfbf" points="360.11,-0.5 360.11,-19.5 458.11,-19.5 458.11,-0.5 360.11,-0.5"/>
<text text-anchor="middle" x="409.11" y="-7.5" font-family="Helvetica,sans-Serif" font-size="10.00">AMReX_Vector.H</text>
</a>
</g>
</g>
<!-- Node13&#45;&gt;Node14 -->
<g id="edge17" class="edge">
<title>Node13&#45;&gt;Node14</title>
<path fill="none" stroke="midnightblue" d="M534.5,-56.44C509.65,-47.44 470.34,-33.19 442.36,-23.05"/>
<polygon fill="midnightblue" stroke="midnightblue" points="443.2,-19.63 432.61,-19.52 440.82,-26.21 443.2,-19.63"/>
</g>
<!-- Node18&#45;&gt;Node3 -->
<g id="edge25" class="edge">
<title>Node18&#45;&gt;Node3</title>
<path fill="none" stroke="midnightblue" d="M667.48,-168.08C689.51,-141.38 755.13,-61.87 783.64,-27.32"/>
<polygon fill="midnightblue" stroke="midnightblue" points="786.37,-29.51 790.04,-19.57 780.98,-25.05 786.37,-29.51"/>
</g>
<!-- Node18&#45;&gt;Node4 -->
<g id="edge30" class="edge">
<title>Node18&#45;&gt;Node4</title>
<path fill="none" stroke="midnightblue" d="M734.77,-169.32C835.49,-158.96 1013.69,-140.63 1113.05,-130.41"/>
<polygon fill="midnightblue" stroke="midnightblue" points="1113.41,-133.89 1123,-129.39 1112.7,-126.93 1113.41,-133.89"/>
</g>
<!-- Node18&#45;&gt;Node5 -->
<g id="edge23" class="edge">
<title>Node18&#45;&gt;Node5</title>
<path fill="none" stroke="midnightblue" d="M585.43,-175.9C451.72,-173.13 176.99,-163.67 87.11,-132 45.49,-117.33 25.72,-115.03 5.11,-76 -26.08,-16.94 97.84,-10.09 159.36,-10.22"/>
<polygon fill="midnightblue" stroke="midnightblue" points="159.68,-13.72 169.71,-10.3 159.74,-6.72 159.68,-13.72"/>
</g>
<!-- Node18&#45;&gt;Node7 -->
<g id="edge24" class="edge">
<title>Node18&#45;&gt;Node7</title>
<path fill="none" stroke="midnightblue" d="M699.27,-168.44C725.81,-161.44 760.88,-149.75 788.11,-132 807.87,-119.12 825.72,-98.55 836.93,-84"/>
<polygon fill="midnightblue" stroke="midnightblue" points="839.84,-85.95 843.01,-75.84 834.23,-81.77 839.84,-85.95"/>
</g>
<!-- Node18&#45;&gt;Node9 -->
<g id="edge43" class="edge">
<title>Node18&#45;&gt;Node9</title>
<path fill="none" stroke="midnightblue" d="M658.82,-168.08C655.04,-141.95 643.95,-65.21 638.8,-29.58"/>
<polygon fill="midnightblue" stroke="midnightblue" points="642.25,-28.96 637.35,-19.57 635.32,-29.97 642.25,-28.96"/>
</g>
<!-- Node19 -->
<g id="node19" class="node">
<title>Node19</title>
<g id="a_node19"><a xlink:href="_field_utils_8_h.html" target="_top" xlink:title=" ">
<polygon fill="white" stroke="black" points="952.11,-56.5 952.11,-75.5 1098.11,-75.5 1098.11,-56.5 952.11,-56.5"/>
<text text-anchor="middle" x="1025.11" y="-63.5" font-family="Helvetica,sans-Serif" font-size="10.00">amr&#45;wind/core/FieldUtils.H</text>
</a>
</g>
</g>
<!-- Node18&#45;&gt;Node19 -->
<g id="edge26" class="edge">
<title>Node18&#45;&gt;Node19</title>
<path fill="none" stroke="midnightblue" d="M689.96,-168.42C721.01,-159.46 771.03,-144.93 814.11,-132 875.16,-113.68 945.93,-91.73 988.03,-78.6"/>
<polygon fill="midnightblue" stroke="midnightblue" points="989.33,-81.86 997.84,-75.54 987.25,-75.18 989.33,-81.86"/>
</g>
<!-- Node21 -->
<g id="node21" class="node">
<title>Node21</title>
<g id="a_node21"><a xlink:href="_int_field_8_h.html" target="_top" xlink:title=" ">
<polygon fill="white" stroke="black" points="119.61,-112.5 119.61,-131.5 256.61,-131.5 256.61,-112.5 119.61,-112.5"/>
<text text-anchor="middle" x="188.11" y="-119.5" font-family="Helvetica,sans-Serif" font-size="10.00">amr&#45;wind/core/IntField.H</text>
</a>
</g>
</g>
<!-- Node18&#45;&gt;Node21 -->
<g id="edge31" class="edge">
<title>Node18&#45;&gt;Node21</title>
<path fill="none" stroke="midnightblue" d="M585.58,-168.47C498.66,-158.53 355.59,-142.16 266.89,-132.01"/>
<polygon fill="midnightblue" stroke="midnightblue" points="267.21,-128.53 256.88,-130.87 266.42,-135.48 267.21,-128.53"/>
</g>
<!-- Node22 -->
<g id="node22" class="node">
<title>Node22</title>
<g id="a_node22"><a xlink:title=" ">
<polygon fill="white" stroke="#bfbfbf" points="14.11,-56.5 14.11,-75.5 126.11,-75.5 126.11,-56.5 14.11,-56.5"/>
<text text-anchor="middle" x="70.11" y="-63.5" font-family="Helvetica,sans-Serif" font-size="10.00">AMReX_iMultiFab.H</text>
</a>
</g>
</g>
<!-- Node18&#45;&gt;Node22 -->
<g id="edge44" class="edge">
<title>Node18&#45;&gt;Node22</title>
<path fill="none" stroke="midnightblue" d="M585.38,-174.62C444.39,-169.58 149.66,-156.27 110.11,-132 92.86,-121.41 81.96,-100.32 75.96,-85.03"/>
<polygon fill="midnightblue" stroke="midnightblue" points="79.24,-83.8 72.58,-75.56 72.65,-86.16 79.24,-83.8"/>
</g>
<!-- Node23 -->
<g id="node23" class="node">
<title>Node23</title>
<g id="a_node23"><a xlink:href="_scratch_field_8_h.html" target="_top" xlink:title=" ">
<polygon fill="white" stroke="black" points="282.11,-112.5 282.11,-131.5 442.11,-131.5 442.11,-112.5 282.11,-112.5"/>
<text text-anchor="middle" x="362.11" y="-119.5" font-family="Helvetica,sans-Serif" font-size="10.00">amr&#45;wind/core/ScratchField.H</text>
</a>
</g>
</g>
<!-- Node18&#45;&gt;Node23 -->
<g id="edge35" class="edge">
<title>Node18&#45;&gt;Node23</title>
<path fill="none" stroke="midnightblue" d="M612.89,-168.44C560.36,-158.92 475.5,-143.55 419.26,-133.36"/>
<polygon fill="midnightblue" stroke="midnightblue" points="419.57,-129.86 409.11,-131.52 418.33,-136.74 419.57,-129.86"/>
</g>
<!-- Node24 -->
<g id="node24" class="node">
<title>Node24</title>
<g id="a_node24"><a xlink:title=" ">
<polygon fill="white" stroke="#bfbfbf" points="522.11,-112.5 522.11,-131.5 632.11,-131.5 632.11,-112.5 522.11,-112.5"/>
<text text-anchor="middle" x="577.11" y="-119.5" font-family="Helvetica,sans-Serif" font-size="10.00">AMReX_AmrCore.H</text>
</a>
</g>
</g>
<!-- Node18&#45;&gt;Node24 -->
<g id="edge42" class="edge">
<title>Node18&#45;&gt;Node24</title>
<path fill="none" stroke="midnightblue" d="M646.78,-168.32C633.95,-159.98 614.33,-147.21 599.17,-137.35"/>
<polygon fill="midnightblue" stroke="midnightblue" points="600.7,-134.17 590.41,-131.65 596.89,-140.04 600.7,-134.17"/>
</g>
<!-- Node19&#45;&gt;Node3 -->
<g id="edge27" class="edge">
<title>Node19&#45;&gt;Node3</title>
<path fill="none" stroke="midnightblue" d="M988.98,-56.44C949.46,-47.08 886.01,-32.06 843,-21.87"/>
<polygon fill="midnightblue" stroke="midnightblue" points="843.61,-18.42 833.07,-19.52 841.99,-25.23 843.61,-18.42"/>
</g>
<!-- Node19&#45;&gt;Node9 -->
<g id="edge28" class="edge">
<title>Node19&#45;&gt;Node9</title>
<path fill="none" stroke="midnightblue" d="M963.41,-56.5C900.2,-47.78 798.8,-33.76 700.99,-20.12"/>
<polygon fill="midnightblue" stroke="midnightblue" points="701.31,-16.63 690.92,-18.72 700.34,-23.56 701.31,-16.63"/>
</g>
<!-- Node20 -->
<g id="node20" class="node">
<title>Node20</title>
<g id="a_node20"><a xlink:title=" ">
<polygon fill="white" stroke="#bfbfbf" points="963.11,-0.5 963.11,-19.5 1087.11,-19.5 1087.11,-0.5 963.11,-0.5"/>
<text text-anchor="middle" x="1025.11" y="-7.5" font-family="Helvetica,sans-Serif" font-size="10.00">AMReX_Interpolater.H</text>
</a>
</g>
</g>
<!-- Node19&#45;&gt;Node20 -->
<g id="edge29" class="edge">
<title>Node19&#45;&gt;Node20</title>
<path fill="none" stroke="midnightblue" d="M1025.11,-56.08C1025.11,-49.01 1025.11,-38.86 1025.11,-29.99"/>
<polygon fill="midnightblue" stroke="midnightblue" points="1028.61,-29.75 1025.11,-19.75 1021.61,-29.75 1028.61,-29.75"/>
</g>
<!-- Node21&#45;&gt;Node3 -->
<g id="edge33" class="edge">
<title>Node21&#45;&gt;Node3</title>
<path fill="none" stroke="midnightblue" d="M256.77,-113.68C262.3,-113.11 267.8,-112.54 273.11,-112 436.6,-95.35 481.73,-116.04 641.11,-76 689.13,-63.94 741.62,-39.54 771.83,-24.3"/>
<polygon fill="midnightblue" stroke="midnightblue" points="773.51,-27.38 780.82,-19.71 770.32,-21.14 773.51,-27.38"/>
</g>
<!-- Node21&#45;&gt;Node5 -->
<g id="edge32" class="edge">
<title>Node21&#45;&gt;Node5</title>
<path fill="none" stroke="midnightblue" d="M185.04,-112.17C181.09,-99.67 175.06,-76.09 178.11,-56 179.48,-47 182.3,-37.33 185.06,-29.26"/>
<polygon fill="midnightblue" stroke="midnightblue" points="188.38,-30.37 188.51,-19.78 181.8,-27.98 188.38,-30.37"/>
</g>
<!-- Node21&#45;&gt;Node22 -->
<g id="edge34" class="edge">
<title>Node21&#45;&gt;Node22</title>
<path fill="none" stroke="midnightblue" d="M169.41,-112.44C150.17,-103.64 119.96,-89.81 97.91,-79.72"/>
<polygon fill="midnightblue" stroke="midnightblue" points="99.27,-76.5 88.72,-75.52 96.36,-82.86 99.27,-76.5"/>
</g>
<!-- Node23&#45;&gt;Node3 -->
<g id="edge37" class="edge">
<title>Node23&#45;&gt;Node3</title>
<path fill="none" stroke="midnightblue" d="M442.45,-115.52C530.27,-108.68 664.8,-95.47 712.11,-76 739.61,-64.68 765.96,-42.1 781.84,-26.77"/>
<polygon fill="midnightblue" stroke="midnightblue" points="784.52,-29.04 789.14,-19.51 779.58,-24.08 784.52,-29.04"/>
</g>
<!-- Node23&#45;&gt;Node5 -->
<g id="edge36" class="edge">
<title>Node23&#45;&gt;Node5</title>
<path fill="none" stroke="midnightblue" d="M326.22,-112.44C301.76,-105.4 269.52,-93.68 245.11,-76 227.31,-63.11 212.08,-42.82 202.57,-28.34"/>
<polygon fill="midnightblue" stroke="midnightblue" points="205.48,-26.39 197.18,-19.8 199.56,-30.13 205.48,-26.39"/>
</g>
<!-- Node23&#45;&gt;Node9 -->
<g id="edge39" class="edge">
<title>Node23&#45;&gt;Node9</title>
<path fill="none" stroke="midnightblue" d="M338.36,-112.4C309.56,-100.7 267.2,-78.64 287.11,-56 305.55,-35.03 475.68,-21.06 571.41,-14.79"/>
<polygon fill="midnightblue" stroke="midnightblue" points="571.81,-18.27 581.57,-14.13 571.36,-11.28 571.81,-18.27"/>
</g>
<!-- Node23&#45;&gt;Node13 -->
<g id="edge38" class="edge">
<title>Node23&#45;&gt;Node13</title>
<path fill="none" stroke="midnightblue" d="M393.17,-112.44C426.71,-103.2 480.31,-88.44 517.25,-78.26"/>
<polygon fill="midnightblue" stroke="midnightblue" points="518.49,-81.55 527.2,-75.52 516.63,-74.8 518.49,-81.55"/>
</g>
<!-- Node23&#45;&gt;Node14 -->
<g id="edge40" class="edge">
<title>Node23&#45;&gt;Node14</title>
<path fill="none" stroke="midnightblue" d="M319.79,-112.43C281.13,-102.62 232.95,-84.17 254.11,-56 265.89,-40.32 311.14,-28.33 349.72,-20.69"/>
<polygon fill="midnightblue" stroke="midnightblue" points="350.72,-24.06 359.88,-18.74 349.4,-17.18 350.72,-24.06"/>
</g>
<!-- Node23&#45;&gt;Node17 -->
<g id="edge41" class="edge">
<title>Node23&#45;&gt;Node17</title>
<path fill="none" stroke="midnightblue" d="M362.11,-112.08C362.11,-105.01 362.11,-94.86 362.11,-85.99"/>
<polygon fill="midnightblue" stroke="midnightblue" points="365.61,-85.75 362.11,-75.75 358.61,-85.75 365.61,-85.75"/>
</g>
</g>
</svg>
        <g id="navigator" transform="translate(0 0)" fill="#404254">
                <rect fill="#f2f5e9" fill-opacity="0.5" stroke="#606060" stroke-width=".5" x="0" y="0" width="60" height="60"/>
                <use id="zoomplus" xlink:href="#zoomPlus" x="17" y="9" onmousedown="handleZoom(evt,'in')"/>
                <use id="zoomminus" xlink:href="#zoomMin" x="42" y="9" onmousedown="handleZoom(evt,'out')"/>
                <use id="reset" xlink:href="#resetDef" x="30" y="36" onmousedown="handleReset()"/>
                <g id="arrowUp" xlink:href="#dirArrow" transform="translate(30 24)" onmousedown="handlePan(0,-1)">
                  <use xlink:href="#rim" fill="#404040">
                        <set attributeName="fill" to="#808080" begin="arrowUp.mouseover" end="arrowUp.mouseout"/>
                  </use>
                  <path fill="none" stroke="white" stroke-width="1.5" d="M0,-3.0v7 M-2.5,-0.5L0,-3.0L2.5,-0.5"/>
                </g>
                <g id="arrowRight" xlink:href="#dirArrow" transform="rotate(90) translate(36 -43)" onmousedown="handlePan(1,0)">
                  <use xlink:href="#rim" fill="#404040">
                        <set attributeName="fill" to="#808080" begin="arrowRight.mouseover" end="arrowRight.mouseout"/>
                  </use>
                  <path fill="none" stroke="white" stroke-width="1.5" d="M0,-3.0v7 M-2.5,-0.5L0,-3.0L2.5,-0.5"/>
                </g>
                <g id="arrowDown" xlink:href="#dirArrow" transform="rotate(180) translate(-30 -48)" onmousedown="handlePan(0,1)">
                  <use xlink:href="#rim" fill="#404040">
                        <set attributeName="fill" to="#808080" begin="arrowDown.mouseover" end="arrowDown.mouseout"/>
                  </use>
                  <path fill="none" stroke="white" stroke-width="1.5" d="M0,-3.0v7 M-2.5,-0.5L0,-3.0L2.5,-0.5"/>
                </g>
                <g id="arrowLeft" xlink:href="#dirArrow" transform="rotate(270) translate(-36 17)" onmousedown="handlePan(-1,0)">
                  <use xlink:href="#rim" fill="#404040">
                        <set attributeName="fill" to="#808080" begin="arrowLeft.mouseover" end="arrowLeft.mouseout"/>
                  </use>
                  <path fill="none" stroke="white" stroke-width="1.5" d="M0,-3.0v7 M-2.5,-0.5L0,-3.0L2.5,-0.5"/>
                </g>
        </g>
        <svg viewBox="0 0 15 15" width="100%" height="30px" preserveAspectRatio="xMaxYMin meet">
         <g id="arrow_out" transform="scale(0.3 0.3)">
          <a xlink:href="_fixed_gradient_b_c_8_h__incl_org.svg" target="_base">
           <rect id="button" ry="5" rx="5" y="6" x="6" height="38" width="38"
                fill="#f2f5e9" fill-opacity="0.5" stroke="#606060" stroke-width="1.0"/>
           <path id="arrow"
             d="M 11.500037,31.436501 C 11.940474,20.09759 22.043105,11.32322 32.158766,21.979434 L 37.068811,17.246167 C 37.068811,17.246167 37.088388,32 37.088388,32 L 22.160133,31.978069 C 22.160133,31.978069 26.997745,27.140456 26.997745,27.140456 C 18.528582,18.264221 13.291696,25.230495 11.500037,31.436501 z"
             style="fill:#404040;"/>
          </a>
         </g>
        </svg>
</svg>
