<?xml version="1.0" encoding="UTF-8" standalone="no"?>
<!DOCTYPE svg PUBLIC "-//W3C//DTD SVG 1.1//EN"
 "http://www.w3.org/Graphics/SVG/1.1/DTD/svg11.dtd">
<!-- Generated by graphviz version 2.43.0 (0)
 -->
<!-- Title: IOManager.H Pages: 1 -->
<svg width="3186pt" height="308pt"
 viewBox="0.00 0.00 3186.42 308.00" xmlns="http://www.w3.org/2000/svg" xmlns:xlink="http://www.w3.org/1999/xlink">
<g id="graph0" class="graph" transform="scale(1 1) rotate(0) translate(4 304)">
<title>IOManager.H</title>
<polygon fill="white" stroke="transparent" points="-4,4 -4,-304 3182.42,-304 3182.42,4 -4,4"/>
<!-- Node1 -->
<g id="node1" class="node">
<title>Node1</title>
<g id="a_node1"><a xlink:title=" ">
<polygon fill="#bfbfbf" stroke="black" points="2124.42,-280.5 2124.42,-299.5 2204.42,-299.5 2204.42,-280.5 2124.42,-280.5"/>
<text text-anchor="middle" x="2164.42" y="-287.5" font-family="Helvetica,sans-Serif" font-size="10.00">IOManager.H</text>
</a>
</g>
</g>
<!-- Node2 -->
<g id="node2" class="node">
<title>Node2</title>
<g id="a_node2"><a xlink:href="_c_f_d_sim_8cpp.html" target="_top" xlink:title=" ">
<polygon fill="white" stroke="black" points="1184.42,-224.5 1184.42,-243.5 1260.42,-243.5 1260.42,-224.5 1184.42,-224.5"/>
<text text-anchor="middle" x="1222.42" y="-231.5" font-family="Helvetica,sans-Serif" font-size="10.00">CFDSim.cpp</text>
</a>
</g>
</g>
<!-- Node1&#45;&gt;Node2 -->
<g id="edge1" class="edge">
<title>Node1&#45;&gt;Node2</title>
<path fill="none" stroke="midnightblue" d="M2113.96,-288.91C1977.39,-288.15 1589.33,-282.48 1269.42,-244 1266.54,-243.65 1263.56,-243.23 1260.57,-242.76"/>
<polygon fill="midnightblue" stroke="midnightblue" points="2114.1,-292.41 2124.11,-288.96 2114.13,-285.41 2114.1,-292.41"/>
</g>
<!-- Node3 -->
<g id="node3" class="node">
<title>Node3</title>
<g id="a_node3"><a xlink:href="_p_d_e_ops_8_h.html" target="_top" xlink:title=" ">
<polygon fill="white" stroke="black" points="1278.92,-224.5 1278.92,-243.5 1343.92,-243.5 1343.92,-224.5 1278.92,-224.5"/>
<text text-anchor="middle" x="1311.42" y="-231.5" font-family="Helvetica,sans-Serif" font-size="10.00">PDEOps.H</text>
</a>
</g>
</g>
<!-- Node1&#45;&gt;Node3 -->
<g id="edge2" class="edge">
<title>Node1&#45;&gt;Node3</title>
<path fill="none" stroke="midnightblue" d="M2114.11,-287.53C1989.09,-283.58 1654.33,-271.13 1376.42,-244 1365.88,-242.97 1354.42,-241.5 1344.1,-240.05"/>
<polygon fill="midnightblue" stroke="midnightblue" points="2114.05,-291.03 2124.15,-287.85 2114.27,-284.04 2114.05,-291.03"/>
</g>
<!-- Node52 -->
<g id="node27" class="node">
<title>Node52</title>
<g id="a_node27"><a xlink:href="_i_b_8cpp.html" target="_top" xlink:title=" ">
<polygon fill="white" stroke="black" points="1385.92,-224.5 1385.92,-243.5 1432.92,-243.5 1432.92,-224.5 1385.92,-224.5"/>
<text text-anchor="middle" x="1409.42" y="-231.5" font-family="Helvetica,sans-Serif" font-size="10.00">IB.cpp</text>
</a>
</g>
</g>
<!-- Node1&#45;&gt;Node52 -->
<g id="edge52" class="edge">
<title>Node1&#45;&gt;Node52</title>
<path fill="none" stroke="midnightblue" d="M2113.9,-289.52C1995.49,-289.94 1691.17,-286.4 1441.42,-244 1438.69,-243.54 1435.86,-242.93 1433.06,-242.25"/>
<polygon fill="midnightblue" stroke="midnightblue" points="2114.13,-293.02 2124.11,-289.47 2114.09,-286.02 2114.13,-293.02"/>
</g>
<!-- Node53 -->
<g id="node28" class="node">
<title>Node53</title>
<g id="a_node28"><a xlink:href="incflo_8cpp.html" target="_top" xlink:title=" ">
<polygon fill="white" stroke="black" points="1450.92,-224.5 1450.92,-243.5 1513.92,-243.5 1513.92,-224.5 1450.92,-224.5"/>
<text text-anchor="middle" x="1482.42" y="-231.5" font-family="Helvetica,sans-Serif" font-size="10.00">incflo.cpp</text>
</a>
</g>
</g>
<!-- Node1&#45;&gt;Node53 -->
<g id="edge53" class="edge">
<title>Node1&#45;&gt;Node53</title>
<path fill="none" stroke="midnightblue" d="M2114.07,-287.96C2005.59,-285.18 1741.91,-275.48 1523.42,-244 1520.39,-243.56 1517.26,-243.03 1514.12,-242.44"/>
<polygon fill="midnightblue" stroke="midnightblue" points="2114,-291.46 2124.08,-288.21 2114.17,-284.46 2114,-291.46"/>
</g>
<!-- Node54 -->
<g id="node29" class="node">
<title>Node54</title>
<g id="a_node29"><a xlink:href="_ocean_waves_8cpp.html" target="_top" xlink:title=" ">
<polygon fill="white" stroke="black" points="1532.42,-224.5 1532.42,-243.5 1632.42,-243.5 1632.42,-224.5 1532.42,-224.5"/>
<text text-anchor="middle" x="1582.42" y="-231.5" font-family="Helvetica,sans-Serif" font-size="10.00">OceanWaves.cpp</text>
</a>
</g>
</g>
<!-- Node1&#45;&gt;Node54 -->
<g id="edge54" class="edge">
<title>Node1&#45;&gt;Node54</title>
<path fill="none" stroke="midnightblue" d="M2114.3,-285.79C2021.03,-279.56 1814.56,-264.63 1641.42,-244 1638.54,-243.66 1635.59,-243.28 1632.61,-242.88"/>
<polygon fill="midnightblue" stroke="midnightblue" points="2114.1,-289.28 2124.31,-286.45 2114.56,-282.29 2114.1,-289.28"/>
</g>
<!-- Node55 -->
<g id="node30" class="node">
<title>Node55</title>
<g id="a_node30"><a xlink:href="_tioga_interface_8cpp.html" target="_top" xlink:title=" ">
<polygon fill="white" stroke="black" points="1650.92,-224.5 1650.92,-243.5 1757.92,-243.5 1757.92,-224.5 1650.92,-224.5"/>
<text text-anchor="middle" x="1704.42" y="-231.5" font-family="Helvetica,sans-Serif" font-size="10.00">TiogaInterface.cpp</text>
</a>
</g>
</g>
<!-- Node1&#45;&gt;Node55 -->
<g id="edge55" class="edge">
<title>Node1&#45;&gt;Node55</title>
<path fill="none" stroke="midnightblue" d="M2114.08,-283.82C2038.5,-275.93 1891.24,-260.11 1766.42,-244 1763.73,-243.65 1760.97,-243.29 1758.18,-242.91"/>
<polygon fill="midnightblue" stroke="midnightblue" points="2113.96,-287.33 2124.26,-284.88 2114.68,-280.37 2113.96,-287.33"/>
</g>
<!-- Node56 -->
<g id="node31" class="node">
<title>Node56</title>
<g id="a_node31"><a xlink:href="_turb_model_base_8_h.html" target="_top" xlink:title=" ">
<polygon fill="white" stroke="black" points="1775.92,-224.5 1775.92,-243.5 1876.92,-243.5 1876.92,-224.5 1775.92,-224.5"/>
<text text-anchor="middle" x="1826.42" y="-231.5" font-family="Helvetica,sans-Serif" font-size="10.00">TurbModelBase.H</text>
</a>
</g>
</g>
<!-- Node1&#45;&gt;Node56 -->
<g id="edge56" class="edge">
<title>Node1&#45;&gt;Node56</title>
<path fill="none" stroke="midnightblue" d="M2114.12,-280.96C2050.38,-270.78 1941.15,-253.33 1877.2,-243.11"/>
<polygon fill="midnightblue" stroke="midnightblue" points="2113.9,-284.47 2124.32,-282.59 2115,-277.56 2113.9,-284.47"/>
</g>
<!-- Node69 -->
<g id="node38" class="node">
<title>Node69</title>
<g id="a_node38"><a xlink:href="_re_averaging_8cpp.html" target="_top" xlink:title=" ">
<polygon fill="white" stroke="black" points="1895.42,-224.5 1895.42,-243.5 1993.42,-243.5 1993.42,-224.5 1895.42,-224.5"/>
<text text-anchor="middle" x="1944.42" y="-231.5" font-family="Helvetica,sans-Serif" font-size="10.00">ReAveraging.cpp</text>
</a>
</g>
</g>
<!-- Node1&#45;&gt;Node69 -->
<g id="edge63" class="edge">
<title>Node1&#45;&gt;Node69</title>
<path fill="none" stroke="midnightblue" d="M2119.71,-278.02C2078.15,-267.82 2017.11,-252.84 1979.12,-243.52"/>
<polygon fill="midnightblue" stroke="midnightblue" points="2119.02,-281.46 2129.56,-280.44 2120.69,-274.66 2119.02,-281.46"/>
</g>
<!-- Node70 -->
<g id="node39" class="node">
<title>Node70</title>
<g id="a_node39"><a xlink:href="_reynolds_stress_8cpp.html" target="_top" xlink:title=" ">
<polygon fill="white" stroke="black" points="2011.42,-224.5 2011.42,-243.5 2123.42,-243.5 2123.42,-224.5 2011.42,-224.5"/>
<text text-anchor="middle" x="2067.42" y="-231.5" font-family="Helvetica,sans-Serif" font-size="10.00">ReynoldsStress.cpp</text>
</a>
</g>
</g>
<!-- Node1&#45;&gt;Node70 -->
<g id="edge64" class="edge">
<title>Node1&#45;&gt;Node70</title>
<path fill="none" stroke="midnightblue" d="M2140.09,-275.45C2122.18,-265.48 2098.37,-252.23 2082.97,-243.65"/>
<polygon fill="midnightblue" stroke="midnightblue" points="2138.4,-278.52 2148.84,-280.32 2141.8,-272.4 2138.4,-278.52"/>
</g>
<!-- Node71 -->
<g id="node40" class="node">
<title>Node71</title>
<g id="a_node40"><a xlink:href="io_8cpp.html" target="_top" xlink:title=" ">
<polygon fill="white" stroke="black" points="2141.42,-224.5 2141.42,-243.5 2187.42,-243.5 2187.42,-224.5 2141.42,-224.5"/>
<text text-anchor="middle" x="2164.42" y="-231.5" font-family="Helvetica,sans-Serif" font-size="10.00">io.cpp</text>
</a>
</g>
</g>
<!-- Node1&#45;&gt;Node71 -->
<g id="edge65" class="edge">
<title>Node1&#45;&gt;Node71</title>
<path fill="none" stroke="midnightblue" d="M2164.42,-269.8C2164.42,-260.91 2164.42,-250.78 2164.42,-243.75"/>
<polygon fill="midnightblue" stroke="midnightblue" points="2160.92,-270.08 2164.42,-280.08 2167.92,-270.08 2160.92,-270.08"/>
</g>
<!-- Node72 -->
<g id="node41" class="node">
<title>Node72</title>
<g id="a_node41"><a xlink:href="_i_o_manager_8cpp.html" target="_top" xlink:title=" ">
<polygon fill="white" stroke="black" points="2205.92,-224.5 2205.92,-243.5 2294.92,-243.5 2294.92,-224.5 2205.92,-224.5"/>
<text text-anchor="middle" x="2250.42" y="-231.5" font-family="Helvetica,sans-Serif" font-size="10.00">IOManager.cpp</text>
</a>
</g>
</g>
<!-- Node1&#45;&gt;Node72 -->
<g id="edge66" class="edge">
<title>Node1&#45;&gt;Node72</title>
<path fill="none" stroke="midnightblue" d="M2186.88,-274.9C2202.65,-265 2223.24,-252.07 2236.64,-243.65"/>
<polygon fill="midnightblue" stroke="midnightblue" points="2184.85,-272.04 2178.24,-280.32 2188.57,-277.97 2184.85,-272.04"/>
</g>
<!-- Node73 -->
<g id="node42" class="node">
<title>Node73</title>
<g id="a_node42"><a xlink:href="_enstrophy_8cpp.html" target="_top" xlink:title=" ">
<polygon fill="white" stroke="black" points="2312.42,-224.5 2312.42,-243.5 2396.42,-243.5 2396.42,-224.5 2312.42,-224.5"/>
<text text-anchor="middle" x="2354.42" y="-231.5" font-family="Helvetica,sans-Serif" font-size="10.00">Enstrophy.cpp</text>
</a>
</g>
</g>
<!-- Node1&#45;&gt;Node73 -->
<g id="edge67" class="edge">
<title>Node1&#45;&gt;Node73</title>
<path fill="none" stroke="midnightblue" d="M2204.19,-277.7C2240.05,-267.51 2292,-252.74 2324.46,-243.52"/>
<polygon fill="midnightblue" stroke="midnightblue" points="2203.19,-274.34 2194.53,-280.44 2205.11,-281.08 2203.19,-274.34"/>
</g>
<!-- Node74 -->
<g id="node43" class="node">
<title>Node74</title>
<g id="a_node43"><a xlink:href="_field_norms_8cpp.html" target="_top" xlink:title=" ">
<polygon fill="white" stroke="black" points="2414.42,-224.5 2414.42,-243.5 2506.42,-243.5 2506.42,-224.5 2414.42,-224.5"/>
<text text-anchor="middle" x="2460.42" y="-231.5" font-family="Helvetica,sans-Serif" font-size="10.00">FieldNorms.cpp</text>
</a>
</g>
</g>
<!-- Node1&#45;&gt;Node74 -->
<g id="edge68" class="edge">
<title>Node1&#45;&gt;Node74</title>
<path fill="none" stroke="midnightblue" d="M2214.66,-279.84C2270.44,-269.66 2359.73,-253.37 2413.95,-243.48"/>
<polygon fill="midnightblue" stroke="midnightblue" points="2213.86,-276.42 2204.65,-281.66 2215.12,-283.31 2213.86,-276.42"/>
</g>
<!-- Node75 -->
<g id="node44" class="node">
<title>Node75</title>
<g id="a_node44"><a xlink:href="_free_surface_8cpp.html" target="_top" xlink:title=" ">
<polygon fill="white" stroke="black" points="2524.92,-224.5 2524.92,-243.5 2619.92,-243.5 2619.92,-224.5 2524.92,-224.5"/>
<text text-anchor="middle" x="2572.42" y="-231.5" font-family="Helvetica,sans-Serif" font-size="10.00">FreeSurface.cpp</text>
</a>
</g>
</g>
<!-- Node1&#45;&gt;Node75 -->
<g id="edge69" class="edge">
<title>Node1&#45;&gt;Node75</title>
<path fill="none" stroke="midnightblue" d="M2214.51,-283.04C2282.67,-274.83 2408.41,-259.31 2515.42,-244 2518.5,-243.56 2521.66,-243.1 2524.85,-242.62"/>
<polygon fill="midnightblue" stroke="midnightblue" points="2213.99,-279.58 2204.48,-284.25 2214.83,-286.53 2213.99,-279.58"/>
</g>
<!-- Node76 -->
<g id="node45" class="node">
<title>Node76</title>
<g id="a_node45"><a xlink:href="_kinetic_energy_8cpp.html" target="_top" xlink:title=" ">
<polygon fill="white" stroke="black" points="2637.92,-224.5 2637.92,-243.5 2740.92,-243.5 2740.92,-224.5 2637.92,-224.5"/>
<text text-anchor="middle" x="2689.42" y="-231.5" font-family="Helvetica,sans-Serif" font-size="10.00">KineticEnergy.cpp</text>
</a>
</g>
</g>
<!-- Node1&#45;&gt;Node76 -->
<g id="edge70" class="edge">
<title>Node1&#45;&gt;Node76</title>
<path fill="none" stroke="midnightblue" d="M2214.82,-284.99C2300.25,-278.01 2478.93,-262.56 2629.42,-244 2632.14,-243.66 2634.93,-243.3 2637.74,-242.93"/>
<polygon fill="midnightblue" stroke="midnightblue" points="2214.3,-281.52 2204.62,-285.82 2214.87,-288.5 2214.3,-281.52"/>
</g>
<!-- Node77 -->
<g id="node46" class="node">
<title>Node77</title>
<g id="a_node46"><a xlink:href="_sampling_8cpp.html" target="_top" xlink:title=" ">
<polygon fill="white" stroke="black" points="2758.92,-224.5 2758.92,-243.5 2841.92,-243.5 2841.92,-224.5 2758.92,-224.5"/>
<text text-anchor="middle" x="2800.42" y="-231.5" font-family="Helvetica,sans-Serif" font-size="10.00">Sampling.cpp</text>
</a>
</g>
</g>
<!-- Node1&#45;&gt;Node77 -->
<g id="edge71" class="edge">
<title>Node1&#45;&gt;Node77</title>
<path fill="none" stroke="midnightblue" d="M2215,-286.85C2316.72,-282.13 2553.21,-269.25 2750.42,-244 2753.14,-243.65 2755.92,-243.26 2758.73,-242.83"/>
<polygon fill="midnightblue" stroke="midnightblue" points="2214.54,-283.36 2204.71,-287.32 2214.86,-290.36 2214.54,-283.36"/>
</g>
<!-- Node78 -->
<g id="node47" class="node">
<title>Node78</title>
<g id="a_node47"><a xlink:href="_wave_energy_8cpp.html" target="_top" xlink:title=" ">
<polygon fill="white" stroke="black" points="2860.42,-224.5 2860.42,-243.5 2956.42,-243.5 2956.42,-224.5 2860.42,-224.5"/>
<text text-anchor="middle" x="2908.42" y="-231.5" font-family="Helvetica,sans-Serif" font-size="10.00">WaveEnergy.cpp</text>
</a>
</g>
</g>
<!-- Node1&#45;&gt;Node78 -->
<g id="edge72" class="edge">
<title>Node1&#45;&gt;Node78</title>
<path fill="none" stroke="midnightblue" d="M2214.96,-287.27C2328.85,-283.02 2614.12,-270.45 2851.42,-244 2854.31,-243.68 2857.28,-243.31 2860.26,-242.92"/>
<polygon fill="midnightblue" stroke="midnightblue" points="2214.67,-283.78 2204.8,-287.64 2214.93,-290.77 2214.67,-283.78"/>
</g>
<!-- Node79 -->
<g id="node48" class="node">
<title>Node79</title>
<g id="a_node48"><a xlink:href="_actuator_8cpp.html" target="_top" xlink:title=" ">
<polygon fill="white" stroke="black" points="2974.92,-224.5 2974.92,-243.5 3051.92,-243.5 3051.92,-224.5 2974.92,-224.5"/>
<text text-anchor="middle" x="3013.42" y="-231.5" font-family="Helvetica,sans-Serif" font-size="10.00">Actuator.cpp</text>
</a>
</g>
</g>
<!-- Node1&#45;&gt;Node79 -->
<g id="edge73" class="edge">
<title>Node1&#45;&gt;Node79</title>
<path fill="none" stroke="midnightblue" d="M2214.75,-288.43C2341.33,-286.5 2683,-278.26 2965.42,-244 2968.45,-243.63 2971.58,-243.19 2974.72,-242.7"/>
<polygon fill="midnightblue" stroke="midnightblue" points="2214.54,-284.93 2204.59,-288.58 2214.64,-291.93 2214.54,-284.93"/>
</g>
<!-- Node80 -->
<g id="node49" class="node">
<title>Node80</title>
<g id="a_node49"><a xlink:href="turbine__fast__ops_8_h.html" target="_top" xlink:title=" ">
<polygon fill="white" stroke="black" points="3070.42,-224.5 3070.42,-243.5 3178.42,-243.5 3178.42,-224.5 3070.42,-224.5"/>
<text text-anchor="middle" x="3124.42" y="-231.5" font-family="Helvetica,sans-Serif" font-size="10.00">turbine_fast_ops.H</text>
</a>
</g>
</g>
<!-- Node1&#45;&gt;Node80 -->
<g id="edge74" class="edge">
<title>Node1&#45;&gt;Node80</title>
<path fill="none" stroke="midnightblue" d="M2214.91,-288.09C2351.56,-285.28 2739.98,-274.96 3061.42,-244 3064.28,-243.72 3067.21,-243.41 3070.17,-243.07"/>
<polygon fill="midnightblue" stroke="midnightblue" points="2214.68,-284.59 2204.75,-288.3 2214.82,-291.59 2214.68,-284.59"/>
</g>
<!-- Node4 -->
<g id="node4" class="node">
<title>Node4</title>
<g id="a_node4"><a xlink:href="_adv_op___godunov_8_h.html" target="_top" xlink:title=" ">
<polygon fill="white" stroke="black" points="932.92,-168.5 932.92,-187.5 1039.92,-187.5 1039.92,-168.5 932.92,-168.5"/>
<text text-anchor="middle" x="986.42" y="-175.5" font-family="Helvetica,sans-Serif" font-size="10.00">AdvOp_Godunov.H</text>
</a>
</g>
</g>
<!-- Node3&#45;&gt;Node4 -->
<g id="edge3" class="edge">
<title>Node3&#45;&gt;Node4</title>
<path fill="none" stroke="midnightblue" d="M1268.97,-224C1182.99,-208.11 1094.94,-194.69 1040.03,-186.65"/>
<polygon fill="midnightblue" stroke="midnightblue" points="1268.43,-227.46 1278.9,-225.85 1269.71,-220.58 1268.43,-227.46"/>
</g>
<!-- Node9 -->
<g id="node8" class="node">
<title>Node9</title>
<g id="a_node8"><a xlink:href="icns__ops_8_h.html" target="_top" xlink:title=" ">
<polygon fill="white" stroke="black" points="1226.92,-112.5 1226.92,-131.5 1295.92,-131.5 1295.92,-112.5 1226.92,-112.5"/>
<text text-anchor="middle" x="1261.42" y="-119.5" font-family="Helvetica,sans-Serif" font-size="10.00">icns_ops.H</text>
</a>
</g>
</g>
<!-- Node3&#45;&gt;Node9 -->
<g id="edge50" class="edge">
<title>Node3&#45;&gt;Node9</title>
<path fill="none" stroke="midnightblue" d="M1303.24,-215C1292.33,-191 1273.46,-149.47 1265.33,-131.59"/>
<polygon fill="midnightblue" stroke="midnightblue" points="1300.18,-216.71 1307.5,-224.37 1306.55,-213.82 1300.18,-216.71"/>
</g>
<!-- Node16 -->
<g id="node15" class="node">
<title>Node16</title>
<g id="a_node15"><a xlink:href="_adv_op___m_o_l_8_h.html" target="_top" xlink:title=" ">
<polygon fill="white" stroke="black" points="819.42,-168.5 819.42,-187.5 905.42,-187.5 905.42,-168.5 819.42,-168.5"/>
<text text-anchor="middle" x="862.42" y="-175.5" font-family="Helvetica,sans-Serif" font-size="10.00">AdvOp_MOL.H</text>
</a>
</g>
</g>
<!-- Node3&#45;&gt;Node16 -->
<g id="edge15" class="edge">
<title>Node3&#45;&gt;Node16</title>
<path fill="none" stroke="midnightblue" d="M1268.21,-223.97C1114.96,-200.08 1073.53,-206.87 923.42,-188 917.69,-187.28 911.66,-186.46 905.71,-185.62"/>
<polygon fill="midnightblue" stroke="midnightblue" points="1268.05,-227.49 1278.47,-225.59 1269.14,-220.57 1268.05,-227.49"/>
</g>
<!-- Node17 -->
<g id="node16" class="node">
<title>Node17</title>
<g id="a_node16"><a xlink:href="_b_c_ops_8_h.html" target="_top" xlink:title=" ">
<polygon fill="white" stroke="black" points="469.92,-168.5 469.92,-187.5 528.92,-187.5 528.92,-168.5 469.92,-168.5"/>
<text text-anchor="middle" x="499.42" y="-175.5" font-family="Helvetica,sans-Serif" font-size="10.00">BCOps.H</text>
</a>
</g>
</g>
<!-- Node3&#45;&gt;Node17 -->
<g id="edge25" class="edge">
<title>Node3&#45;&gt;Node17</title>
<path fill="none" stroke="midnightblue" d="M1268.49,-224.13C1103.17,-203.28 649.78,-184.8 529.18,-180.13"/>
<polygon fill="midnightblue" stroke="midnightblue" points="1268.12,-227.61 1278.49,-225.45 1269.03,-220.67 1268.12,-227.61"/>
</g>
<!-- Node23 -->
<g id="node21" class="node">
<title>Node23</title>
<g id="a_node21"><a xlink:href="_comp_r_h_s_ops_8_h.html" target="_top" xlink:title=" ">
<polygon fill="white" stroke="black" points="1473.92,-168.5 1473.92,-187.5 1568.92,-187.5 1568.92,-168.5 1473.92,-168.5"/>
<text text-anchor="middle" x="1521.42" y="-175.5" font-family="Helvetica,sans-Serif" font-size="10.00">CompRHSOps.H</text>
</a>
</g>
</g>
<!-- Node3&#45;&gt;Node23 -->
<g id="edge39" class="edge">
<title>Node3&#45;&gt;Node23</title>
<path fill="none" stroke="midnightblue" d="M1354.13,-222.02C1393.75,-211.83 1451.88,-196.88 1488.15,-187.56"/>
<polygon fill="midnightblue" stroke="midnightblue" points="1353.05,-218.68 1344.24,-224.56 1354.79,-225.46 1353.05,-218.68"/>
</g>
<!-- Node24 -->
<g id="node22" class="node">
<title>Node24</title>
<g id="a_node22"><a xlink:href="_p_d_e_8_h.html" target="_top" xlink:title=" ">
<polygon fill="white" stroke="red" points="1543.92,-112.5 1543.92,-131.5 1590.92,-131.5 1590.92,-112.5 1543.92,-112.5"/>
<text text-anchor="middle" x="1567.42" y="-119.5" font-family="Helvetica,sans-Serif" font-size="10.00">PDE.H</text>
</a>
</g>
</g>
<!-- Node3&#45;&gt;Node24 -->
<g id="edge51" class="edge">
<title>Node3&#45;&gt;Node24</title>
<path fill="none" stroke="midnightblue" d="M1344.89,-220.78C1367.8,-212.17 1398.74,-200.07 1425.42,-188 1443.17,-179.97 1446.82,-176.35 1464.42,-168 1492.63,-154.62 1525.82,-140.39 1546.74,-131.59"/>
<polygon fill="midnightblue" stroke="midnightblue" points="1343.43,-217.59 1335.29,-224.36 1345.88,-224.14 1343.43,-217.59"/>
</g>
<!-- Node50 -->
<g id="node24" class="node">
<title>Node50</title>
<g id="a_node24"><a xlink:href="_diffusion_ops_8_h.html" target="_top" xlink:title=" ">
<polygon fill="white" stroke="black" points="1327.92,-168.5 1327.92,-187.5 1416.92,-187.5 1416.92,-168.5 1327.92,-168.5"/>
<text text-anchor="middle" x="1372.42" y="-175.5" font-family="Helvetica,sans-Serif" font-size="10.00">DiffusionOps.H</text>
</a>
</g>
</g>
<!-- Node3&#45;&gt;Node50 -->
<g id="edge43" class="edge">
<title>Node3&#45;&gt;Node50</title>
<path fill="none" stroke="midnightblue" d="M1328.89,-217.54C1339.77,-207.91 1353.37,-195.87 1362.45,-187.83"/>
<polygon fill="midnightblue" stroke="midnightblue" points="1326.39,-215.07 1321.22,-224.32 1331.03,-220.32 1326.39,-215.07"/>
</g>
<!-- Node28 -->
<g id="node26" class="node">
<title>Node28</title>
<g id="a_node26"><a xlink:href="icns__diffusion_8_h.html" target="_top" xlink:title=" ">
<polygon fill="white" stroke="black" points="1314.42,-112.5 1314.42,-131.5 1408.42,-131.5 1408.42,-112.5 1314.42,-112.5"/>
<text text-anchor="middle" x="1361.42" y="-119.5" font-family="Helvetica,sans-Serif" font-size="10.00">icns_diffusion.H</text>
</a>
</g>
</g>
<!-- Node3&#45;&gt;Node28 -->
<g id="edge49" class="edge">
<title>Node3&#45;&gt;Node28</title>
<path fill="none" stroke="midnightblue" d="M1310.31,-214.11C1310.25,-200.66 1311.7,-182.47 1318.42,-168 1325.44,-152.91 1339.57,-139.69 1349.72,-131.55"/>
<polygon fill="midnightblue" stroke="midnightblue" points="1306.81,-214.23 1310.63,-224.11 1313.81,-214.01 1306.81,-214.23"/>
</g>
<!-- Node5 -->
<g id="node5" class="node">
<title>Node5</title>
<g id="a_node5"><a xlink:href="density_8cpp.html" target="_top" xlink:title=" ">
<polygon fill="white" stroke="black" points="1084.92,-0.5 1084.92,-19.5 1155.92,-19.5 1155.92,-0.5 1084.92,-0.5"/>
<text text-anchor="middle" x="1120.42" y="-7.5" font-family="Helvetica,sans-Serif" font-size="10.00">density.cpp</text>
</a>
</g>
</g>
<!-- Node4&#45;&gt;Node5 -->
<g id="edge4" class="edge">
<title>Node4&#45;&gt;Node5</title>
<path fill="none" stroke="midnightblue" d="M1050.35,-170.6C1100.14,-164.14 1163.42,-152.17 1179.42,-132 1190.25,-118.37 1182.92,-82.18 1168.42,-56 1160.01,-40.81 1144.67,-27.8 1133.59,-19.73"/>
<polygon fill="midnightblue" stroke="midnightblue" points="1049.76,-167.15 1040.27,-171.86 1050.63,-174.09 1049.76,-167.15"/>
</g>
<!-- Node6 -->
<g id="node6" class="node">
<title>Node6</title>
<g id="a_node6"><a xlink:href="icns__advection_8_h.html" target="_top" xlink:title=" ">
<polygon fill="white" stroke="red" points="1070.42,-112.5 1070.42,-131.5 1170.42,-131.5 1170.42,-112.5 1070.42,-112.5"/>
<text text-anchor="middle" x="1120.42" y="-119.5" font-family="Helvetica,sans-Serif" font-size="10.00">icns_advection.H</text>
</a>
</g>
</g>
<!-- Node4&#45;&gt;Node6 -->
<g id="edge5" class="edge">
<title>Node4&#45;&gt;Node6</title>
<path fill="none" stroke="midnightblue" d="M1017.1,-164.64C1042.25,-154.5 1077.18,-140.43 1099.29,-131.52"/>
<polygon fill="midnightblue" stroke="midnightblue" points="1015.62,-161.46 1007.66,-168.44 1018.24,-167.95 1015.62,-161.46"/>
</g>
<!-- Node4&#45;&gt;Node9 -->
<g id="edge7" class="edge">
<title>Node4&#45;&gt;Node9</title>
<path fill="none" stroke="midnightblue" d="M1039.96,-166.49C1095.19,-155.64 1179.71,-139.05 1226.76,-129.81"/>
<polygon fill="midnightblue" stroke="midnightblue" points="1039.14,-163.08 1030,-168.44 1040.49,-169.95 1039.14,-163.08"/>
</g>
<!-- Node10 -->
<g id="node9" class="node">
<title>Node10</title>
<g id="a_node9"><a xlink:href="levelset_8cpp.html" target="_top" xlink:title=" ">
<polygon fill="white" stroke="black" points="508.42,-112.5 508.42,-131.5 584.42,-131.5 584.42,-112.5 508.42,-112.5"/>
<text text-anchor="middle" x="546.42" y="-119.5" font-family="Helvetica,sans-Serif" font-size="10.00">levelset.cpp</text>
</a>
</g>
</g>
<!-- Node4&#45;&gt;Node10 -->
<g id="edge9" class="edge">
<title>Node4&#45;&gt;Node10</title>
<path fill="none" stroke="midnightblue" d="M922.55,-168.97C919.81,-168.64 917.09,-168.32 914.42,-168 771.86,-151.1 735.36,-153.52 593.42,-132 590.55,-131.56 587.58,-131.08 584.6,-130.57"/>
<polygon fill="midnightblue" stroke="midnightblue" points="922.22,-172.46 932.57,-170.19 923.07,-165.51 922.22,-172.46"/>
</g>
<!-- Node11 -->
<g id="node10" class="node">
<title>Node11</title>
<g id="a_node10"><a xlink:href="passive__scalar_8cpp.html" target="_top" xlink:title=" ">
<polygon fill="white" stroke="black" points="602.42,-112.5 602.42,-131.5 710.42,-131.5 710.42,-112.5 602.42,-112.5"/>
<text text-anchor="middle" x="656.42" y="-119.5" font-family="Helvetica,sans-Serif" font-size="10.00">passive_scalar.cpp</text>
</a>
</g>
</g>
<!-- Node4&#45;&gt;Node11 -->
<g id="edge10" class="edge">
<title>Node4&#45;&gt;Node11</title>
<path fill="none" stroke="midnightblue" d="M924.03,-166.79C861.68,-156.59 766.9,-141.08 708.47,-131.52"/>
<polygon fill="midnightblue" stroke="midnightblue" points="923.7,-170.28 934.13,-168.44 924.83,-163.37 923.7,-170.28"/>
</g>
<!-- Node12 -->
<g id="node11" class="node">
<title>Node12</title>
<g id="a_node11"><a xlink:href="_s_d_r_8cpp.html" target="_top" xlink:title=" ">
<polygon fill="white" stroke="black" points="728.92,-112.5 728.92,-131.5 785.92,-131.5 785.92,-112.5 728.92,-112.5"/>
<text text-anchor="middle" x="757.42" y="-119.5" font-family="Helvetica,sans-Serif" font-size="10.00">SDR.cpp</text>
</a>
</g>
</g>
<!-- Node4&#45;&gt;Node12 -->
<g id="edge11" class="edge">
<title>Node4&#45;&gt;Node12</title>
<path fill="none" stroke="midnightblue" d="M940.24,-166.13C901.55,-157.03 844.88,-143.68 795.42,-132 792.39,-131.28 789.22,-130.53 786.06,-129.79"/>
<polygon fill="midnightblue" stroke="midnightblue" points="939.62,-169.59 950.16,-168.47 941.23,-162.77 939.62,-169.59"/>
</g>
<!-- Node13 -->
<g id="node12" class="node">
<title>Node13</title>
<g id="a_node12"><a xlink:href="temperature_8cpp.html" target="_top" xlink:title=" ">
<polygon fill="white" stroke="black" points="804.42,-112.5 804.42,-131.5 902.42,-131.5 902.42,-112.5 804.42,-112.5"/>
<text text-anchor="middle" x="853.42" y="-119.5" font-family="Helvetica,sans-Serif" font-size="10.00">temperature.cpp</text>
</a>
</g>
</g>
<!-- Node4&#45;&gt;Node13 -->
<g id="edge12" class="edge">
<title>Node4&#45;&gt;Node13</title>
<path fill="none" stroke="midnightblue" d="M955.98,-164.64C931.02,-154.5 896.35,-140.43 874.4,-131.52"/>
<polygon fill="midnightblue" stroke="midnightblue" points="954.77,-167.92 965.35,-168.44 957.4,-161.44 954.77,-167.92"/>
</g>
<!-- Node14 -->
<g id="node13" class="node">
<title>Node14</title>
<g id="a_node13"><a xlink:href="_t_k_e_8cpp.html" target="_top" xlink:title=" ">
<polygon fill="white" stroke="black" points="920.42,-112.5 920.42,-131.5 976.42,-131.5 976.42,-112.5 920.42,-112.5"/>
<text text-anchor="middle" x="948.42" y="-119.5" font-family="Helvetica,sans-Serif" font-size="10.00">TKE.cpp</text>
</a>
</g>
</g>
<!-- Node4&#45;&gt;Node14 -->
<g id="edge13" class="edge">
<title>Node4&#45;&gt;Node14</title>
<path fill="none" stroke="midnightblue" d="M974.36,-159.86C967.78,-150.5 959.91,-139.33 954.58,-131.75"/>
<polygon fill="midnightblue" stroke="midnightblue" points="971.53,-161.92 980.15,-168.08 977.26,-157.89 971.53,-161.92"/>
</g>
<!-- Node15 -->
<g id="node14" class="node">
<title>Node15</title>
<g id="a_node14"><a xlink:href="vof_8cpp.html" target="_top" xlink:title=" ">
<polygon fill="white" stroke="black" points="328.42,-56.5 328.42,-75.5 380.42,-75.5 380.42,-56.5 328.42,-56.5"/>
<text text-anchor="middle" x="354.42" y="-63.5" font-family="Helvetica,sans-Serif" font-size="10.00">vof.cpp</text>
</a>
</g>
</g>
<!-- Node4&#45;&gt;Node15 -->
<g id="edge14" class="edge">
<title>Node4&#45;&gt;Node15</title>
<path fill="none" stroke="midnightblue" d="M992.15,-158.6C995.44,-144.02 996.92,-124.15 985.42,-112 943.31,-67.46 494.77,-66.38 380.7,-66.83"/>
<polygon fill="midnightblue" stroke="midnightblue" points="988.71,-157.93 989.48,-168.5 995.47,-159.76 988.71,-157.93"/>
</g>
<!-- Node7 -->
<g id="node7" class="node">
<title>Node7</title>
<g id="a_node7"><a xlink:href="icns_8cpp.html" target="_top" xlink:title=" ">
<polygon fill="white" stroke="black" points="1103.42,-56.5 1103.42,-75.5 1159.42,-75.5 1159.42,-56.5 1103.42,-56.5"/>
<text text-anchor="middle" x="1131.42" y="-63.5" font-family="Helvetica,sans-Serif" font-size="10.00">icns.cpp</text>
</a>
</g>
</g>
<!-- Node6&#45;&gt;Node7 -->
<g id="edge6" class="edge">
<title>Node6&#45;&gt;Node7</title>
<path fill="none" stroke="midnightblue" d="M1124.27,-102.1C1126.1,-93.14 1128.19,-82.86 1129.64,-75.75"/>
<polygon fill="midnightblue" stroke="midnightblue" points="1120.81,-101.59 1122.24,-112.08 1127.67,-102.98 1120.81,-101.59"/>
</g>
<!-- Node9&#45;&gt;Node7 -->
<g id="edge8" class="edge">
<title>Node9&#45;&gt;Node7</title>
<path fill="none" stroke="midnightblue" d="M1231.34,-108.5C1206.97,-98.38 1173.28,-84.39 1151.93,-75.52"/>
<polygon fill="midnightblue" stroke="midnightblue" points="1230.25,-111.84 1240.83,-112.44 1232.93,-105.38 1230.25,-111.84"/>
</g>
<!-- Node16&#45;&gt;Node5 -->
<g id="edge16" class="edge">
<title>Node16&#45;&gt;Node5</title>
<path fill="none" stroke="midnightblue" d="M905.78,-165.56C930.2,-158.06 960.67,-146.87 985.42,-132 1040.74,-98.79 1094.03,-41.17 1113.07,-19.54"/>
<polygon fill="midnightblue" stroke="midnightblue" points="904.65,-162.25 896.07,-168.45 906.65,-168.95 904.65,-162.25"/>
</g>
<!-- Node16&#45;&gt;Node6 -->
<g id="edge17" class="edge">
<title>Node16&#45;&gt;Node6</title>
<path fill="none" stroke="midnightblue" d="M913.33,-166.35C962.09,-156.14 1034.71,-140.94 1079.73,-131.52"/>
<polygon fill="midnightblue" stroke="midnightblue" points="912.38,-162.97 903.31,-168.44 913.81,-169.82 912.38,-162.97"/>
</g>
<!-- Node16&#45;&gt;Node9 -->
<g id="edge18" class="edge">
<title>Node16&#45;&gt;Node9</title>
<path fill="none" stroke="midnightblue" d="M915.77,-169.08C918.36,-168.71 920.92,-168.35 923.42,-168 1034.22,-152.45 1165.65,-135.33 1226.86,-127.44"/>
<polygon fill="midnightblue" stroke="midnightblue" points="915.13,-165.64 905.73,-170.53 916.13,-172.57 915.13,-165.64"/>
</g>
<!-- Node16&#45;&gt;Node10 -->
<g id="edge19" class="edge">
<title>Node16&#45;&gt;Node10</title>
<path fill="none" stroke="midnightblue" d="M808.95,-168.43C754.62,-159.64 668.08,-145.39 593.42,-132 590.56,-131.49 587.6,-130.95 584.63,-130.39"/>
<polygon fill="midnightblue" stroke="midnightblue" points="808.61,-171.92 819.04,-170.06 809.73,-165.01 808.61,-171.92"/>
</g>
<!-- Node16&#45;&gt;Node11 -->
<g id="edge20" class="edge">
<title>Node16&#45;&gt;Node11</title>
<path fill="none" stroke="midnightblue" d="M819.81,-165.83C780.91,-155.63 724.26,-140.78 688.91,-131.52"/>
<polygon fill="midnightblue" stroke="midnightblue" points="819.22,-169.29 829.78,-168.44 821,-162.52 819.22,-169.29"/>
</g>
<!-- Node16&#45;&gt;Node12 -->
<g id="edge21" class="edge">
<title>Node16&#45;&gt;Node12</title>
<path fill="none" stroke="midnightblue" d="M836.61,-163.73C817.17,-153.73 791.08,-140.31 774.25,-131.65"/>
<polygon fill="midnightblue" stroke="midnightblue" points="835.06,-166.86 845.55,-168.32 838.26,-160.64 835.06,-166.86"/>
</g>
<!-- Node16&#45;&gt;Node13 -->
<g id="edge22" class="edge">
<title>Node16&#45;&gt;Node13</title>
<path fill="none" stroke="midnightblue" d="M859.27,-158.1C857.78,-149.14 856.07,-138.86 854.88,-131.75"/>
<polygon fill="midnightblue" stroke="midnightblue" points="855.84,-158.79 860.94,-168.08 862.75,-157.64 855.84,-158.79"/>
</g>
<!-- Node16&#45;&gt;Node14 -->
<g id="edge23" class="edge">
<title>Node16&#45;&gt;Node14</title>
<path fill="none" stroke="midnightblue" d="M884.88,-162.9C900.65,-153 921.24,-140.07 934.64,-131.65"/>
<polygon fill="midnightblue" stroke="midnightblue" points="882.85,-160.04 876.24,-168.32 886.57,-165.97 882.85,-160.04"/>
</g>
<!-- Node16&#45;&gt;Node15 -->
<g id="edge24" class="edge">
<title>Node16&#45;&gt;Node15</title>
<path fill="none" stroke="midnightblue" d="M809.35,-176.93C704.21,-175.96 473.74,-169.48 405.42,-132 381.78,-119.03 365.36,-90.05 358.3,-75.58"/>
<polygon fill="midnightblue" stroke="midnightblue" points="809.4,-180.43 819.42,-177.01 809.45,-173.43 809.4,-180.43"/>
</g>
<!-- Node17&#45;&gt;Node5 -->
<g id="edge26" class="edge">
<title>Node17&#45;&gt;Node5</title>
<path fill="none" stroke="midnightblue" d="M459.37,-176.39C346.98,-174.26 34.9,-165.37 4.42,-132 -1.57,-125.44 -1.28,-118.81 4.42,-112 75.49,-27.19 901.59,-13.35 1084.65,-11.32"/>
<polygon fill="midnightblue" stroke="midnightblue" points="459.54,-179.89 469.6,-176.57 459.67,-172.89 459.54,-179.89"/>
</g>
<!-- Node17&#45;&gt;Node10 -->
<g id="edge29" class="edge">
<title>Node17&#45;&gt;Node10</title>
<path fill="none" stroke="midnightblue" d="M513.85,-160.43C522.08,-150.97 532.08,-139.48 538.81,-131.75"/>
<polygon fill="midnightblue" stroke="midnightblue" points="511.11,-158.24 507.19,-168.08 516.39,-162.84 511.11,-158.24"/>
</g>
<!-- Node17&#45;&gt;Node11 -->
<g id="edge30" class="edge">
<title>Node17&#45;&gt;Node11</title>
<path fill="none" stroke="midnightblue" d="M533.81,-165.17C563.38,-155 605.3,-140.59 631.66,-131.52"/>
<polygon fill="midnightblue" stroke="midnightblue" points="532.62,-161.88 524.3,-168.44 534.9,-168.5 532.62,-161.88"/>
</g>
<!-- Node17&#45;&gt;Node12 -->
<g id="edge31" class="edge">
<title>Node17&#45;&gt;Node12</title>
<path fill="none" stroke="midnightblue" d="M539.04,-169.28C583.15,-160.59 656.51,-145.88 719.42,-132 722.47,-131.33 725.65,-130.61 728.81,-129.88"/>
<polygon fill="midnightblue" stroke="midnightblue" points="538.16,-165.88 529.02,-171.25 539.51,-172.75 538.16,-165.88"/>
</g>
<!-- Node17&#45;&gt;Node13 -->
<g id="edge32" class="edge">
<title>Node17&#45;&gt;Node13</title>
<path fill="none" stroke="midnightblue" d="M539.26,-170.92C604.36,-160.99 733.41,-141.31 804.16,-130.51"/>
<polygon fill="midnightblue" stroke="midnightblue" points="538.36,-167.52 529,-172.49 539.41,-174.44 538.36,-167.52"/>
</g>
<!-- Node17&#45;&gt;Node14 -->
<g id="edge33" class="edge">
<title>Node17&#45;&gt;Node14</title>
<path fill="none" stroke="midnightblue" d="M539.32,-174.37C613.17,-169.13 775.99,-155.76 911.42,-132 914.29,-131.5 917.26,-130.9 920.22,-130.26"/>
<polygon fill="midnightblue" stroke="midnightblue" points="538.82,-170.9 529.09,-175.09 539.31,-177.88 538.82,-170.9"/>
</g>
<!-- Node17&#45;&gt;Node15 -->
<g id="edge34" class="edge">
<title>Node17&#45;&gt;Node15</title>
<path fill="none" stroke="midnightblue" d="M459.44,-174.79C401.85,-170.67 299.98,-159.59 277.42,-132 258.21,-108.5 300.41,-87 329.6,-75.58"/>
<polygon fill="midnightblue" stroke="midnightblue" points="459.43,-178.29 469.65,-175.48 459.9,-171.31 459.43,-178.29"/>
</g>
<!-- Node18 -->
<g id="node17" class="node">
<title>Node18</title>
<g id="a_node17"><a xlink:href="icns__bcop_8_h.html" target="_top" xlink:title=" ">
<polygon fill="white" stroke="black" points="414.92,-112.5 414.92,-131.5 489.92,-131.5 489.92,-112.5 414.92,-112.5"/>
<text text-anchor="middle" x="452.42" y="-119.5" font-family="Helvetica,sans-Serif" font-size="10.00">icns_bcop.H</text>
</a>
</g>
</g>
<!-- Node17&#45;&gt;Node18 -->
<g id="edge27" class="edge">
<title>Node17&#45;&gt;Node18</title>
<path fill="none" stroke="midnightblue" d="M485,-160.43C476.77,-150.97 466.77,-139.48 460.04,-131.75"/>
<polygon fill="midnightblue" stroke="midnightblue" points="482.46,-162.84 491.66,-168.08 487.74,-158.24 482.46,-162.84"/>
</g>
<!-- Node19 -->
<g id="node18" class="node">
<title>Node19</title>
<g id="a_node18"><a xlink:href="vof__bcop_8_h.html" target="_top" xlink:title=" ">
<polygon fill="white" stroke="black" points="286.92,-112.5 286.92,-131.5 357.92,-131.5 357.92,-112.5 286.92,-112.5"/>
<text text-anchor="middle" x="322.42" y="-119.5" font-family="Helvetica,sans-Serif" font-size="10.00">vof_bcop.H</text>
</a>
</g>
</g>
<!-- Node17&#45;&gt;Node19 -->
<g id="edge35" class="edge">
<title>Node17&#45;&gt;Node19</title>
<path fill="none" stroke="midnightblue" d="M461.52,-165.44C428.15,-155.26 380.32,-140.66 350.34,-131.52"/>
<polygon fill="midnightblue" stroke="midnightblue" points="460.79,-168.87 471.38,-168.44 462.83,-162.18 460.79,-168.87"/>
</g>
<!-- Node20 -->
<g id="node19" class="node">
<title>Node20</title>
<g id="a_node19"><a xlink:href="waves2amr__ops_8_h.html" target="_top" xlink:title=" ">
<polygon fill="white" stroke="red" points="13.92,-112.5 13.92,-131.5 120.92,-131.5 120.92,-112.5 13.92,-112.5"/>
<text text-anchor="middle" x="67.42" y="-119.5" font-family="Helvetica,sans-Serif" font-size="10.00">waves2amr_ops.H</text>
</a>
</g>
</g>
<!-- Node17&#45;&gt;Node20 -->
<g id="edge37" class="edge">
<title>Node17&#45;&gt;Node20</title>
<path fill="none" stroke="midnightblue" d="M459.41,-172.44C391.5,-164.63 249.37,-148 129.42,-132 126.73,-131.64 123.97,-131.27 121.18,-130.88"/>
<polygon fill="midnightblue" stroke="midnightblue" points="459.33,-175.95 469.66,-173.62 460.12,-169 459.33,-175.95"/>
</g>
<!-- Node22 -->
<g id="node20" class="node">
<title>Node22</title>
<g id="a_node20"><a xlink:href="_multi_phase_8cpp.html" target="_top" xlink:title=" ">
<polygon fill="white" stroke="black" points="138.92,-112.5 138.92,-131.5 229.92,-131.5 229.92,-112.5 138.92,-112.5"/>
<text text-anchor="middle" x="184.42" y="-119.5" font-family="Helvetica,sans-Serif" font-size="10.00">MultiPhase.cpp</text>
</a>
</g>
</g>
<!-- Node17&#45;&gt;Node22 -->
<g id="edge38" class="edge">
<title>Node17&#45;&gt;Node22</title>
<path fill="none" stroke="midnightblue" d="M459.82,-170.21C401.28,-160.17 291.93,-141.43 230.09,-130.83"/>
<polygon fill="midnightblue" stroke="midnightblue" points="459.34,-173.68 469.79,-171.92 460.53,-166.78 459.34,-173.68"/>
</g>
<!-- Node18&#45;&gt;Node7 -->
<g id="edge28" class="edge">
<title>Node18&#45;&gt;Node7</title>
<path fill="none" stroke="midnightblue" d="M499.99,-112.09C739.17,-81.33 1015.54,-70.62 1103.27,-67.82"/>
<polygon fill="midnightblue" stroke="midnightblue" points="499.54,-108.62 490.07,-113.39 500.44,-115.57 499.54,-108.62"/>
</g>
<!-- Node19&#45;&gt;Node15 -->
<g id="edge36" class="edge">
<title>Node19&#45;&gt;Node15</title>
<path fill="none" stroke="midnightblue" d="M332.93,-103.27C338.4,-94.05 344.84,-83.17 349.24,-75.75"/>
<polygon fill="midnightblue" stroke="midnightblue" points="329.8,-101.7 327.71,-112.08 335.82,-105.26 329.8,-101.7"/>
</g>
<!-- Node23&#45;&gt;Node24 -->
<g id="edge40" class="edge">
<title>Node23&#45;&gt;Node24</title>
<path fill="none" stroke="midnightblue" d="M1535.54,-160.43C1543.6,-150.97 1553.38,-139.48 1559.97,-131.75"/>
<polygon fill="midnightblue" stroke="midnightblue" points="1532.84,-158.2 1529.02,-168.08 1538.17,-162.74 1532.84,-158.2"/>
</g>
<!-- Node25 -->
<g id="node23" class="node">
<title>Node25</title>
<g id="a_node23"><a xlink:href="density_8_h.html" target="_top" xlink:title=" ">
<polygon fill="white" stroke="red" points="1381.42,-56.5 1381.42,-75.5 1443.42,-75.5 1443.42,-56.5 1381.42,-56.5"/>
<text text-anchor="middle" x="1412.42" y="-63.5" font-family="Helvetica,sans-Serif" font-size="10.00">density.H</text>
</a>
</g>
</g>
<!-- Node24&#45;&gt;Node25 -->
<g id="edge41" class="edge">
<title>Node24&#45;&gt;Node25</title>
<path fill="none" stroke="midnightblue" d="M1534.13,-109.4C1504.94,-99.23 1463.19,-84.69 1436.96,-75.55"/>
<polygon fill="midnightblue" stroke="midnightblue" points="1533.29,-112.81 1543.88,-112.8 1535.59,-106.2 1533.29,-112.81"/>
</g>
<!-- Node25&#45;&gt;Node5 -->
<g id="edge42" class="edge">
<title>Node25&#45;&gt;Node5</title>
<path fill="none" stroke="midnightblue" d="M1371.34,-57.4C1313.84,-46.77 1210.33,-27.63 1155.97,-17.57"/>
<polygon fill="midnightblue" stroke="midnightblue" points="1370.71,-60.84 1381.18,-59.22 1371.98,-53.96 1370.71,-60.84"/>
</g>
<!-- Node50&#45;&gt;Node9 -->
<g id="edge47" class="edge">
<title>Node50&#45;&gt;Node9</title>
<path fill="none" stroke="midnightblue" d="M1345.42,-163.86C1324.84,-153.85 1297.08,-140.35 1279.21,-131.65"/>
<polygon fill="midnightblue" stroke="midnightblue" points="1344.07,-167.1 1354.59,-168.32 1347.13,-160.8 1344.07,-167.1"/>
</g>
<!-- Node50&#45;&gt;Node24 -->
<g id="edge48" class="edge">
<title>Node50&#45;&gt;Node24</title>
<path fill="none" stroke="midnightblue" d="M1413.18,-165.71C1452.71,-154.77 1511.32,-138.54 1543.72,-129.56"/>
<polygon fill="midnightblue" stroke="midnightblue" points="1412.03,-162.4 1403.32,-168.44 1413.89,-169.15 1412.03,-162.4"/>
</g>
<!-- Node51 -->
<g id="node25" class="node">
<title>Node51</title>
<g id="a_node25"><a xlink:href="_diffusion_ops_8cpp.html" target="_top" xlink:title=" ">
<polygon fill="white" stroke="black" points="1426.92,-112.5 1426.92,-131.5 1525.92,-131.5 1525.92,-112.5 1426.92,-112.5"/>
<text text-anchor="middle" x="1476.42" y="-119.5" font-family="Helvetica,sans-Serif" font-size="10.00">DiffusionOps.cpp</text>
</a>
</g>
</g>
<!-- Node50&#45;&gt;Node51 -->
<g id="edge44" class="edge">
<title>Node50&#45;&gt;Node51</title>
<path fill="none" stroke="midnightblue" d="M1398.25,-163.59C1417.48,-153.61 1443.17,-140.27 1459.76,-131.65"/>
<polygon fill="midnightblue" stroke="midnightblue" points="1396.4,-160.61 1389.13,-168.32 1399.62,-166.82 1396.4,-160.61"/>
</g>
<!-- Node50&#45;&gt;Node28 -->
<g id="edge45" class="edge">
<title>Node50&#45;&gt;Node28</title>
<path fill="none" stroke="midnightblue" d="M1368.57,-158.1C1366.75,-149.14 1364.65,-138.86 1363.21,-131.75"/>
<polygon fill="midnightblue" stroke="midnightblue" points="1365.18,-158.98 1370.61,-168.08 1372.04,-157.59 1365.18,-158.98"/>
</g>
<!-- Node28&#45;&gt;Node7 -->
<g id="edge46" class="edge">
<title>Node28&#45;&gt;Node7</title>
<path fill="none" stroke="midnightblue" d="M1315.15,-110.14C1268.66,-99.22 1198.51,-82.75 1159.72,-73.64"/>
<polygon fill="midnightblue" stroke="midnightblue" points="1314.44,-113.57 1324.98,-112.44 1316.04,-106.75 1314.44,-113.57"/>
</g>
<!-- Node57 -->
<g id="node32" class="node">
<title>Node57</title>
<g id="a_node32"><a xlink:href="_a_m_d_8_h.html" target="_top" xlink:title=" ">
<polygon fill="white" stroke="red" points="1899.42,-168.5 1899.42,-187.5 1949.42,-187.5 1949.42,-168.5 1899.42,-168.5"/>
<text text-anchor="middle" x="1924.42" y="-175.5" font-family="Helvetica,sans-Serif" font-size="10.00">AMD.H</text>
</a>
</g>
</g>
<!-- Node56&#45;&gt;Node57 -->
<g id="edge57" class="edge">
<title>Node56&#45;&gt;Node57</title>
<path fill="none" stroke="midnightblue" d="M1851.01,-219.45C1869.1,-209.48 1893.16,-196.23 1908.72,-187.65"/>
<polygon fill="midnightblue" stroke="midnightblue" points="1849.24,-216.43 1842.17,-224.32 1852.62,-222.56 1849.24,-216.43"/>
</g>
<!-- Node59 -->
<g id="node33" class="node">
<title>Node59</title>
<g id="a_node33"><a xlink:href="_a_m_d_no_therm_8_h.html" target="_top" xlink:title=" ">
<polygon fill="white" stroke="red" points="1967.92,-168.5 1967.92,-187.5 2062.92,-187.5 2062.92,-168.5 1967.92,-168.5"/>
<text text-anchor="middle" x="2015.42" y="-175.5" font-family="Helvetica,sans-Serif" font-size="10.00">AMDNoTherm.H</text>
</a>
</g>
</g>
<!-- Node56&#45;&gt;Node59 -->
<g id="edge58" class="edge">
<title>Node56&#45;&gt;Node59</title>
<path fill="none" stroke="midnightblue" d="M1866.44,-221.57C1902.09,-211.38 1953.46,-196.7 1985.62,-187.52"/>
<polygon fill="midnightblue" stroke="midnightblue" points="1865.03,-218.33 1856.37,-224.44 1866.95,-225.06 1865.03,-218.33"/>
</g>
<!-- Node61 -->
<g id="node34" class="node">
<title>Node61</title>
<g id="a_node34"><a xlink:href="_kosovic_8_h.html" target="_top" xlink:title=" ">
<polygon fill="white" stroke="red" points="2080.92,-168.5 2080.92,-187.5 2145.92,-187.5 2145.92,-168.5 2080.92,-168.5"/>
<text text-anchor="middle" x="2113.42" y="-175.5" font-family="Helvetica,sans-Serif" font-size="10.00">Kosovic.H</text>
</a>
</g>
</g>
<!-- Node56&#45;&gt;Node61 -->
<g id="edge59" class="edge">
<title>Node56&#45;&gt;Node61</title>
<path fill="none" stroke="midnightblue" d="M1885.24,-222.7C1934.93,-213.88 2007.93,-200.63 2071.42,-188 2074.5,-187.39 2077.69,-186.74 2080.88,-186.07"/>
<polygon fill="midnightblue" stroke="midnightblue" points="1884.55,-219.27 1875.31,-224.46 1885.77,-226.16 1884.55,-219.27"/>
</g>
<!-- Node64 -->
<g id="node35" class="node">
<title>Node64</title>
<g id="a_node35"><a xlink:href="_one_eq_ksgs_8_h.html" target="_top" xlink:title=" ">
<polygon fill="white" stroke="red" points="1587.42,-168.5 1587.42,-187.5 1669.42,-187.5 1669.42,-168.5 1587.42,-168.5"/>
<text text-anchor="middle" x="1628.42" y="-175.5" font-family="Helvetica,sans-Serif" font-size="10.00">OneEqKsgs.H</text>
</a>
</g>
</g>
<!-- Node56&#45;&gt;Node64 -->
<g id="edge60" class="edge">
<title>Node56&#45;&gt;Node64</title>
<path fill="none" stroke="midnightblue" d="M1784.99,-221.7C1747.62,-211.51 1693.48,-196.74 1659.65,-187.52"/>
<polygon fill="midnightblue" stroke="midnightblue" points="1784.48,-225.19 1795.05,-224.44 1786.32,-218.44 1784.48,-225.19"/>
</g>
<!-- Node65 -->
<g id="node36" class="node">
<title>Node65</title>
<g id="a_node36"><a xlink:href="_smagorinsky_8_h.html" target="_top" xlink:title=" ">
<polygon fill="white" stroke="red" points="1687.92,-168.5 1687.92,-187.5 1776.92,-187.5 1776.92,-168.5 1687.92,-168.5"/>
<text text-anchor="middle" x="1732.42" y="-175.5" font-family="Helvetica,sans-Serif" font-size="10.00">Smagorinsky.H</text>
</a>
</g>
</g>
<!-- Node56&#45;&gt;Node65 -->
<g id="edge61" class="edge">
<title>Node56&#45;&gt;Node65</title>
<path fill="none" stroke="midnightblue" d="M1802.36,-219.18C1785.07,-209.24 1762.28,-196.15 1747.49,-187.65"/>
<polygon fill="midnightblue" stroke="midnightblue" points="1800.91,-222.38 1811.32,-224.32 1804.39,-216.31 1800.91,-222.38"/>
</g>
<!-- Node67 -->
<g id="node37" class="node">
<title>Node67</title>
<g id="a_node37"><a xlink:href="_k_omega_s_s_t_8_h.html" target="_top" xlink:title=" ">
<polygon fill="white" stroke="red" points="1795.42,-168.5 1795.42,-187.5 1881.42,-187.5 1881.42,-168.5 1795.42,-168.5"/>
<text text-anchor="middle" x="1838.42" y="-175.5" font-family="Helvetica,sans-Serif" font-size="10.00">KOmegaSST.H</text>
</a>
</g>
</g>
<!-- Node56&#45;&gt;Node67 -->
<g id="edge62" class="edge">
<title>Node56&#45;&gt;Node67</title>
<path fill="none" stroke="midnightblue" d="M1830.62,-214.1C1832.62,-205.14 1834.9,-194.86 1836.48,-187.75"/>
<polygon fill="midnightblue" stroke="midnightblue" points="1827.16,-213.56 1828.41,-224.08 1833.99,-215.08 1827.16,-213.56"/>
</g>
<!-- Node81 -->
<g id="node50" class="node">
<title>Node81</title>
<g id="a_node50"><a xlink:href="_turbine_fast_8cpp.html" target="_top" xlink:title=" ">
<polygon fill="white" stroke="black" points="3078.42,-168.5 3078.42,-187.5 3170.42,-187.5 3170.42,-168.5 3078.42,-168.5"/>
<text text-anchor="middle" x="3124.42" y="-175.5" font-family="Helvetica,sans-Serif" font-size="10.00">TurbineFast.cpp</text>
</a>
</g>
</g>
<!-- Node80&#45;&gt;Node81 -->
<g id="edge75" class="edge">
<title>Node80&#45;&gt;Node81</title>
<path fill="none" stroke="midnightblue" d="M3124.42,-213.8C3124.42,-204.91 3124.42,-194.78 3124.42,-187.75"/>
<polygon fill="midnightblue" stroke="midnightblue" points="3120.92,-214.08 3124.42,-224.08 3127.92,-214.08 3120.92,-214.08"/>
</g>
</g>
</svg>
