<?xml version="1.0" encoding="UTF-8" standalone="no"?>
<!DOCTYPE svg PUBLIC "-//W3C//DTD SVG 1.1//EN"
 "http://www.w3.org/Graphics/SVG/1.1/DTD/svg11.dtd">
<!-- Generated by graphviz version 2.43.0 (0)
 -->
<!-- Title: IntField.cpp Pages: 1 -->
<!--zoomable 263 -->
<svg id="main" version="1.1" xmlns="http://www.w3.org/2000/svg" xmlns:xlink="http://www.w3.org/1999/xlink" xml:space="preserve" onload="init(evt)">
<style type="text/css"><![CDATA[
.edge:hover path { stroke: red; }
.edge:hover polygon { stroke: red; fill: red; }
]]></style>
<script type="text/javascript"><![CDATA[
var edges = document.getElementsByTagName('g');
if (edges && edges.length) {
  for (var i=0;i<edges.length;i++) {
    if (edges[i].id.substr(0,4)=='edge') {
      edges[i].setAttribute('class','edge');
    }
  }
}
]]></script>
        <defs>
                <circle id="rim" cx="0" cy="0" r="7"/>
                <circle id="rim2" cx="0" cy="0" r="3.5"/>
                <g id="zoomPlus">
                        <use xlink:href="#rim" fill="#404040">
                                <set attributeName="fill" to="#808080" begin="zoomplus.mouseover" end="zoomplus.mouseout"/>
                        </use>
                        <path d="M-4,0h8M0,-4v8" fill="none" stroke="white" stroke-width="1.5" pointer-events="none"/>
                </g>
                <g id="zoomMin">
                        <use xlink:href="#rim" fill="#404040">
                                <set attributeName="fill" to="#808080" begin="zoomminus.mouseover" end="zoomminus.mouseout"/>
                        </use>
                        <path d="M-4,0h8" fill="none" stroke="white" stroke-width="1.5" pointer-events="none"/>
                </g>
                <g id="dirArrow">
                        <path fill="none" stroke="white" stroke-width="1.5" d="M0,-3.0v7 M-2.5,-0.5L0,-3.0L2.5,-0.5"/>
                </g>
               <g id="resetDef">
                       <use xlink:href="#rim2" fill="#404040">
                               <set attributeName="fill" to="#808080" begin="reset.mouseover" end="reset.mouseout"/>
                       </use>
               </g>
        </defs>

<script type="text/javascript">
var viewWidth = 1874;
var viewHeight = 263;
var sectionId = 'dynsection-0';
</script>
<script xlink:href="svgpan.js"/>
<svg id="graph" class="graph">
<g id="viewport">
<title>IntField.cpp</title>
<polygon fill="white" stroke="transparent" points="-4,4 -4,-259 1869.5,-259 1869.5,4 -4,4"/>
<!-- Node1 -->
<g id="node1" class="node">
<title>Node1</title>
<g id="a_node1"><a xlink:title=" ">
<polygon fill="#bfbfbf" stroke="black" points="1318.5,-235.5 1318.5,-254.5 1391.5,-254.5 1391.5,-235.5 1318.5,-235.5"/>
<text text-anchor="middle" x="1355" y="-242.5" font-family="Helvetica,sans-Serif" font-size="10.00">IntField.cpp</text>
</a>
</g>
</g>
<!-- Node2 -->
<g id="node2" class="node">
<title>Node2</title>
<g id="a_node2"><a xlink:title=" ">
<polygon fill="white" stroke="#bfbfbf" points="1325.5,-56.5 1325.5,-75.5 1370.5,-75.5 1370.5,-56.5 1325.5,-56.5"/>
<text text-anchor="middle" x="1348" y="-63.5" font-family="Helvetica,sans-Serif" font-size="10.00">utility</text>
</a>
</g>
</g>
<!-- Node1&#45;&gt;Node2 -->
<g id="edge1" class="edge">
<title>Node1&#45;&gt;Node2</title>
<path fill="none" stroke="midnightblue" d="M1354.66,-235.46C1353.59,-208.43 1350.26,-124.24 1348.76,-86.11"/>
<polygon fill="midnightblue" stroke="midnightblue" points="1352.24,-85.72 1348.35,-75.87 1345.25,-86 1352.24,-85.72"/>
</g>
<!-- Node3 -->
<g id="node3" class="node">
<title>Node3</title>
<g id="a_node3"><a xlink:href="_int_field_8_h.html" target="_top" xlink:title=" ">
<polygon fill="white" stroke="black" points="1728.5,-118 1728.5,-137 1865.5,-137 1865.5,-118 1728.5,-118"/>
<text text-anchor="middle" x="1797" y="-125" font-family="Helvetica,sans-Serif" font-size="10.00">amr&#45;wind/core/IntField.H</text>
</a>
</g>
</g>
<!-- Node1&#45;&gt;Node3 -->
<g id="edge2" class="edge">
<title>Node1&#45;&gt;Node3</title>
<path fill="none" stroke="midnightblue" d="M1387.86,-235.41C1466.67,-214.82 1666.38,-162.63 1754.32,-139.65"/>
<polygon fill="midnightblue" stroke="midnightblue" points="1755.43,-142.98 1764.22,-137.06 1753.66,-136.21 1755.43,-142.98"/>
</g>
<!-- Node7 -->
<g id="node7" class="node">
<title>Node7</title>
<g id="a_node7"><a xlink:href="_field_repo_8_h.html" target="_top" xlink:title=" ">
<polygon fill="white" stroke="black" points="1111.5,-179.5 1111.5,-198.5 1260.5,-198.5 1260.5,-179.5 1111.5,-179.5"/>
<text text-anchor="middle" x="1186" y="-186.5" font-family="Helvetica,sans-Serif" font-size="10.00">amr&#45;wind/core/FieldRepo.H</text>
</a>
</g>
</g>
<!-- Node1&#45;&gt;Node7 -->
<g id="edge6" class="edge">
<title>Node1&#45;&gt;Node7</title>
<path fill="none" stroke="midnightblue" d="M1328.22,-235.44C1299.67,-226.32 1254.27,-211.81 1222.46,-201.65"/>
<polygon fill="midnightblue" stroke="midnightblue" points="1223.24,-198.23 1212.65,-198.52 1221.11,-204.89 1223.24,-198.23"/>
</g>
<!-- Node4 -->
<g id="node4" class="node">
<title>Node4</title>
<g id="a_node4"><a xlink:title=" ">
<polygon fill="white" stroke="#bfbfbf" points="1445,-0.5 1445,-19.5 1489,-19.5 1489,-0.5 1445,-0.5"/>
<text text-anchor="middle" x="1467" y="-7.5" font-family="Helvetica,sans-Serif" font-size="10.00">string</text>
</a>
</g>
</g>
<!-- Node3&#45;&gt;Node4 -->
<g id="edge3" class="edge">
<title>Node3&#45;&gt;Node4</title>
<path fill="none" stroke="midnightblue" d="M1810.01,-117.94C1829.48,-104.11 1862.07,-76.35 1844,-56 1821.24,-30.36 1586.43,-16.67 1499.3,-12.44"/>
<polygon fill="midnightblue" stroke="midnightblue" points="1499.35,-8.94 1489.2,-11.97 1499.02,-15.94 1499.35,-8.94"/>
</g>
<!-- Node5 -->
<g id="node5" class="node">
<title>Node5</title>
<g id="a_node5"><a xlink:href="_field_desc_types_8_h.html" target="_top" xlink:title=" ">
<polygon fill="white" stroke="black" points="929,-0.5 929,-19.5 1105,-19.5 1105,-0.5 929,-0.5"/>
<text text-anchor="middle" x="1017" y="-7.5" font-family="Helvetica,sans-Serif" font-size="10.00">amr&#45;wind/core/FieldDescTypes.H</text>
</a>
</g>
</g>
<!-- Node3&#45;&gt;Node5 -->
<g id="edge4" class="edge">
<title>Node3&#45;&gt;Node5</title>
<path fill="none" stroke="midnightblue" d="M1802.85,-117.83C1812.01,-103.07 1827.12,-73.04 1811,-56 1786.22,-29.81 1198.99,-22.11 1163,-20 1147.61,-19.1 1131.31,-18.12 1115.4,-17.15"/>
<polygon fill="midnightblue" stroke="midnightblue" points="1115.2,-13.63 1105.01,-16.51 1114.78,-20.62 1115.2,-13.63"/>
</g>
<!-- Node6 -->
<g id="node6" class="node">
<title>Node6</title>
<g id="a_node6"><a xlink:title=" ">
<polygon fill="white" stroke="#bfbfbf" points="1690,-56.5 1690,-75.5 1802,-75.5 1802,-56.5 1690,-56.5"/>
<text text-anchor="middle" x="1746" y="-63.5" font-family="Helvetica,sans-Serif" font-size="10.00">AMReX_iMultiFab.H</text>
</a>
</g>
</g>
<!-- Node3&#45;&gt;Node6 -->
<g id="edge5" class="edge">
<title>Node3&#45;&gt;Node6</title>
<path fill="none" stroke="midnightblue" d="M1789.69,-117.98C1781.97,-108.96 1769.59,-94.52 1759.98,-83.31"/>
<polygon fill="midnightblue" stroke="midnightblue" points="1762.46,-80.82 1753.29,-75.51 1757.14,-85.38 1762.46,-80.82"/>
</g>
<!-- Node7&#45;&gt;Node3 -->
<g id="edge29" class="edge">
<title>Node7&#45;&gt;Node3</title>
<path fill="none" stroke="midnightblue" d="M1260.55,-183.72C1363,-177.36 1552.97,-163.89 1714,-143 1723.16,-141.81 1732.85,-140.33 1742.26,-138.76"/>
<polygon fill="midnightblue" stroke="midnightblue" points="1743.04,-142.18 1752.31,-137.05 1741.87,-135.28 1743.04,-142.18"/>
</g>
<!-- Node7&#45;&gt;Node4 -->
<g id="edge7" class="edge">
<title>Node7&#45;&gt;Node4</title>
<path fill="none" stroke="midnightblue" d="M1260.7,-187.37C1359.84,-185.21 1528.31,-176.53 1579,-143 1614.19,-119.72 1642.19,-89.85 1617,-56 1590.01,-19.73 1534.79,-11.59 1499.4,-10.34"/>
<polygon fill="midnightblue" stroke="midnightblue" points="1499.17,-6.84 1489.11,-10.15 1499.05,-13.84 1499.17,-6.84"/>
</g>
<!-- Node7&#45;&gt;Node5 -->
<g id="edge9" class="edge">
<title>Node7&#45;&gt;Node5</title>
<path fill="none" stroke="midnightblue" d="M1111.45,-187.24C985.97,-185.03 724.93,-176.42 507,-143 382.23,-123.87 309.02,-175.23 231,-76 225.51,-69.01 224.9,-62.46 231,-56 254.26,-31.37 713,-17.9 918.69,-13.08"/>
<polygon fill="midnightblue" stroke="midnightblue" points="918.97,-16.57 928.88,-12.84 918.81,-9.57 918.97,-16.57"/>
</g>
<!-- Node7&#45;&gt;Node6 -->
<g id="edge48" class="edge">
<title>Node7&#45;&gt;Node6</title>
<path fill="none" stroke="midnightblue" d="M1260.86,-187.63C1379.6,-185.96 1604.97,-178.11 1676,-143 1702.32,-129.99 1723.6,-102.55 1735.53,-84.44"/>
<polygon fill="midnightblue" stroke="midnightblue" points="1738.79,-85.83 1741.16,-75.5 1732.87,-82.1 1738.79,-85.83"/>
</g>
<!-- Node8 -->
<g id="node8" class="node">
<title>Node8</title>
<g id="a_node8"><a xlink:title=" ">
<polygon fill="white" stroke="#bfbfbf" points="240.5,-56.5 240.5,-75.5 333.5,-75.5 333.5,-56.5 240.5,-56.5"/>
<text text-anchor="middle" x="287" y="-63.5" font-family="Helvetica,sans-Serif" font-size="10.00">unordered_map</text>
</a>
</g>
</g>
<!-- Node7&#45;&gt;Node8 -->
<g id="edge8" class="edge">
<title>Node7&#45;&gt;Node8</title>
<path fill="none" stroke="midnightblue" d="M1111.34,-183.55C1013.55,-177.21 836.89,-163.95 687,-143 559.13,-125.13 410.09,-94.07 335.19,-77.74"/>
<polygon fill="midnightblue" stroke="midnightblue" points="335.64,-74.25 325.13,-75.54 334.15,-81.09 335.64,-74.25"/>
</g>
<!-- Node9 -->
<g id="node9" class="node">
<title>Node9</title>
<g id="a_node9"><a xlink:href="_field_utils_8_h.html" target="_top" xlink:title=" ">
<polygon fill="white" stroke="black" points="0,-56.5 0,-75.5 146,-75.5 146,-56.5 0,-56.5"/>
<text text-anchor="middle" x="73" y="-63.5" font-family="Helvetica,sans-Serif" font-size="10.00">amr&#45;wind/core/FieldUtils.H</text>
</a>
</g>
</g>
<!-- Node7&#45;&gt;Node9 -->
<g id="edge10" class="edge">
<title>Node7&#45;&gt;Node9</title>
<path fill="none" stroke="midnightblue" d="M1111.31,-187.57C889.97,-185.89 247.47,-178.03 160,-143 128.96,-130.57 101.45,-102.1 86.04,-83.75"/>
<polygon fill="midnightblue" stroke="midnightblue" points="88.5,-81.23 79.48,-75.67 83.07,-85.64 88.5,-81.23"/>
</g>
<!-- Node10 -->
<g id="node10" class="node">
<title>Node10</title>
<g id="a_node10"><a xlink:title=" ">
<polygon fill="white" stroke="#bfbfbf" points="307.5,-0.5 307.5,-19.5 416.5,-19.5 416.5,-0.5 307.5,-0.5"/>
<text text-anchor="middle" x="362" y="-7.5" font-family="Helvetica,sans-Serif" font-size="10.00">AMReX_MultiFab.H</text>
</a>
</g>
</g>
<!-- Node7&#45;&gt;Node10 -->
<g id="edge47" class="edge">
<title>Node7&#45;&gt;Node10</title>
<path fill="none" stroke="midnightblue" d="M1111.46,-188.33C904.98,-188.67 336.03,-185.71 264,-143 227.23,-121.2 197.86,-90.57 223,-56 240.08,-32.52 269.66,-21.04 297.16,-15.53"/>
<polygon fill="midnightblue" stroke="midnightblue" points="297.94,-18.94 307.17,-13.75 296.72,-12.05 297.94,-18.94"/>
</g>
<!-- Node12 -->
<g id="node12" class="node">
<title>Node12</title>
<g id="a_node12"><a xlink:href="_field_8_h.html" target="_top" xlink:title=" ">
<polygon fill="white" stroke="black" points="696,-118 696,-137 820,-137 820,-118 696,-118"/>
<text text-anchor="middle" x="758" y="-125" font-family="Helvetica,sans-Serif" font-size="10.00">amr&#45;wind/core/Field.H</text>
</a>
</g>
</g>
<!-- Node7&#45;&gt;Node12 -->
<g id="edge14" class="edge">
<title>Node7&#45;&gt;Node12</title>
<path fill="none" stroke="midnightblue" d="M1124.68,-179.48C1046.57,-168.62 911.85,-149.89 829.26,-138.41"/>
<polygon fill="midnightblue" stroke="midnightblue" points="829.59,-134.92 819.21,-137.01 828.63,-141.85 829.59,-134.92"/>
</g>
<!-- Node20 -->
<g id="node20" class="node">
<title>Node20</title>
<g id="a_node20"><a xlink:href="_scratch_field_8_h.html" target="_top" xlink:title=" ">
<polygon fill="white" stroke="black" points="1039,-118 1039,-137 1199,-137 1199,-118 1039,-118"/>
<text text-anchor="middle" x="1119" y="-125" font-family="Helvetica,sans-Serif" font-size="10.00">amr&#45;wind/core/ScratchField.H</text>
</a>
</g>
</g>
<!-- Node7&#45;&gt;Node20 -->
<g id="edge30" class="edge">
<title>Node7&#45;&gt;Node20</title>
<path fill="none" stroke="midnightblue" d="M1176.4,-179.48C1165.95,-170.2 1149.03,-155.17 1136.26,-143.83"/>
<polygon fill="midnightblue" stroke="midnightblue" points="1138.38,-141.03 1128.58,-137.01 1133.73,-146.27 1138.38,-141.03"/>
</g>
<!-- Node22 -->
<g id="node22" class="node">
<title>Node22</title>
<g id="a_node22"><a xlink:href="_int_scratch_field_8_h.html" target="_top" xlink:title=" ">
<polygon fill="white" stroke="black" points="1431.5,-112.5 1431.5,-142.5 1570.5,-142.5 1570.5,-112.5 1431.5,-112.5"/>
<text text-anchor="start" x="1439.5" y="-130.5" font-family="Helvetica,sans-Serif" font-size="10.00">amr&#45;wind/core/IntScratch</text>
<text text-anchor="middle" x="1501" y="-119.5" font-family="Helvetica,sans-Serif" font-size="10.00">Field.H</text>
</a>
</g>
</g>
<!-- Node7&#45;&gt;Node22 -->
<g id="edge38" class="edge">
<title>Node7&#45;&gt;Node22</title>
<path fill="none" stroke="midnightblue" d="M1231.13,-179.48C1280.68,-170.12 1361.2,-154.91 1421.41,-143.53"/>
<polygon fill="midnightblue" stroke="midnightblue" points="1422.09,-146.97 1431.27,-141.67 1420.79,-140.09 1422.09,-146.97"/>
</g>
<!-- Node23 -->
<g id="node23" class="node">
<title>Node23</title>
<g id="a_node23"><a xlink:title=" ">
<polygon fill="white" stroke="#bfbfbf" points="1217,-118 1217,-137 1327,-137 1327,-118 1217,-118"/>
<text text-anchor="middle" x="1272" y="-125" font-family="Helvetica,sans-Serif" font-size="10.00">AMReX_AmrCore.H</text>
</a>
</g>
</g>
<!-- Node7&#45;&gt;Node23 -->
<g id="edge46" class="edge">
<title>Node7&#45;&gt;Node23</title>
<path fill="none" stroke="midnightblue" d="M1198.32,-179.48C1212.12,-169.93 1234.7,-154.31 1251.23,-142.87"/>
<polygon fill="midnightblue" stroke="midnightblue" points="1253.47,-145.58 1259.7,-137.01 1249.49,-139.82 1253.47,-145.58"/>
</g>
<!-- Node9&#45;&gt;Node5 -->
<g id="edge11" class="edge">
<title>Node9&#45;&gt;Node5</title>
<path fill="none" stroke="midnightblue" d="M146.02,-59.53C163.08,-58.31 181.17,-57.07 198,-56 457.96,-39.5 764.57,-23.6 918.44,-15.87"/>
<polygon fill="midnightblue" stroke="midnightblue" points="918.99,-19.35 928.8,-15.35 918.64,-12.36 918.99,-19.35"/>
</g>
<!-- Node9&#45;&gt;Node10 -->
<g id="edge12" class="edge">
<title>Node9&#45;&gt;Node10</title>
<path fill="none" stroke="midnightblue" d="M118.79,-56.44C169.74,-46.92 252.03,-31.55 306.57,-21.36"/>
<polygon fill="midnightblue" stroke="midnightblue" points="307.23,-24.79 316.42,-19.52 305.95,-17.91 307.23,-24.79"/>
</g>
<!-- Node11 -->
<g id="node11" class="node">
<title>Node11</title>
<g id="a_node11"><a xlink:title=" ">
<polygon fill="white" stroke="#bfbfbf" points="11,-0.5 11,-19.5 135,-19.5 135,-0.5 11,-0.5"/>
<text text-anchor="middle" x="73" y="-7.5" font-family="Helvetica,sans-Serif" font-size="10.00">AMReX_Interpolater.H</text>
</a>
</g>
</g>
<!-- Node9&#45;&gt;Node11 -->
<g id="edge13" class="edge">
<title>Node9&#45;&gt;Node11</title>
<path fill="none" stroke="midnightblue" d="M73,-56.08C73,-49.01 73,-38.86 73,-29.99"/>
<polygon fill="midnightblue" stroke="midnightblue" points="76.5,-29.75 73,-19.75 69.5,-29.75 76.5,-29.75"/>
</g>
<!-- Node12&#45;&gt;Node4 -->
<g id="edge15" class="edge">
<title>Node12&#45;&gt;Node4</title>
<path fill="none" stroke="midnightblue" d="M820.26,-122.6C906.59,-116.47 1067.26,-102.46 1202,-76 1234.17,-69.68 1241.25,-64.15 1273,-56 1329.63,-41.46 1396.09,-26.5 1434.69,-18.01"/>
<polygon fill="midnightblue" stroke="midnightblue" points="1435.79,-21.35 1444.81,-15.79 1434.29,-14.52 1435.79,-21.35"/>
</g>
<!-- Node12&#45;&gt;Node5 -->
<g id="edge23" class="edge">
<title>Node12&#45;&gt;Node5</title>
<path fill="none" stroke="midnightblue" d="M796.75,-117.92C830.56,-109.65 880.41,-95.5 921,-76 949.98,-62.08 980.16,-40.23 998.77,-25.76"/>
<polygon fill="midnightblue" stroke="midnightblue" points="1001.01,-28.45 1006.69,-19.51 996.67,-22.96 1001.01,-28.45"/>
</g>
<!-- Node12&#45;&gt;Node8 -->
<g id="edge17" class="edge">
<title>Node12&#45;&gt;Node8</title>
<path fill="none" stroke="midnightblue" d="M695.77,-119.31C615.38,-109.9 471.13,-92.66 348,-76 346.54,-75.8 345.06,-75.6 343.57,-75.39"/>
<polygon fill="midnightblue" stroke="midnightblue" points="344,-71.92 333.61,-73.99 343.03,-78.85 344,-71.92"/>
</g>
<!-- Node12&#45;&gt;Node10 -->
<g id="edge19" class="edge">
<title>Node12&#45;&gt;Node10</title>
<path fill="none" stroke="midnightblue" d="M695.86,-126.15C601.21,-124.33 427.02,-115.54 381,-76 367.78,-64.64 363.5,-44.65 362.24,-29.82"/>
<polygon fill="midnightblue" stroke="midnightblue" points="365.73,-29.55 361.76,-19.73 358.74,-29.88 365.73,-29.55"/>
</g>
<!-- Node13 -->
<g id="node13" class="node">
<title>Node13</title>
<g id="a_node13"><a xlink:title=" ">
<polygon fill="white" stroke="#bfbfbf" points="550,-56.5 550,-75.5 608,-75.5 608,-56.5 550,-56.5"/>
<text text-anchor="middle" x="579" y="-63.5" font-family="Helvetica,sans-Serif" font-size="10.00">memory</text>
</a>
</g>
</g>
<!-- Node12&#45;&gt;Node13 -->
<g id="edge16" class="edge">
<title>Node12&#45;&gt;Node13</title>
<path fill="none" stroke="midnightblue" d="M732.35,-117.98C701.38,-107.68 649.13,-90.31 614.35,-78.75"/>
<polygon fill="midnightblue" stroke="midnightblue" points="615.19,-75.34 604.6,-75.51 612.98,-81.98 615.19,-75.34"/>
</g>
<!-- Node14 -->
<g id="node14" class="node">
<title>Node14</title>
<g id="a_node14"><a xlink:title=" ">
<polygon fill="white" stroke="#bfbfbf" points="626,-56.5 626,-75.5 690,-75.5 690,-56.5 626,-56.5"/>
<text text-anchor="middle" x="658" y="-63.5" font-family="Helvetica,sans-Serif" font-size="10.00">algorithm</text>
</a>
</g>
</g>
<!-- Node12&#45;&gt;Node14 -->
<g id="edge18" class="edge">
<title>Node12&#45;&gt;Node14</title>
<path fill="none" stroke="midnightblue" d="M743.67,-117.98C727.34,-108.25 700.4,-92.23 681.09,-80.74"/>
<polygon fill="midnightblue" stroke="midnightblue" points="682.68,-77.61 672.3,-75.51 679.11,-83.63 682.68,-77.61"/>
</g>
<!-- Node15 -->
<g id="node15" class="node">
<title>Node15</title>
<g id="a_node15"><a xlink:title=" ">
<polygon fill="white" stroke="#bfbfbf" points="708.5,-56.5 708.5,-75.5 807.5,-75.5 807.5,-56.5 708.5,-56.5"/>
<text text-anchor="middle" x="758" y="-63.5" font-family="Helvetica,sans-Serif" font-size="10.00">AMReX_BCRec.H</text>
</a>
</g>
</g>
<!-- Node12&#45;&gt;Node15 -->
<g id="edge20" class="edge">
<title>Node12&#45;&gt;Node15</title>
<path fill="none" stroke="midnightblue" d="M758,-117.98C758,-109.58 758,-96.48 758,-85.66"/>
<polygon fill="midnightblue" stroke="midnightblue" points="761.5,-85.51 758,-75.51 754.5,-85.51 761.5,-85.51"/>
</g>
<!-- Node16 -->
<g id="node16" class="node">
<title>Node16</title>
<g id="a_node16"><a xlink:title=" ">
<polygon fill="white" stroke="#bfbfbf" points="825.5,-56.5 825.5,-75.5 912.5,-75.5 912.5,-56.5 825.5,-56.5"/>
<text text-anchor="middle" x="869" y="-63.5" font-family="Helvetica,sans-Serif" font-size="10.00">AMReX_Gpu.H</text>
</a>
</g>
</g>
<!-- Node12&#45;&gt;Node16 -->
<g id="edge21" class="edge">
<title>Node12&#45;&gt;Node16</title>
<path fill="none" stroke="midnightblue" d="M773.9,-117.98C792.28,-108.12 822.76,-91.79 844.24,-80.27"/>
<polygon fill="midnightblue" stroke="midnightblue" points="845.97,-83.32 853.13,-75.51 842.66,-77.15 845.97,-83.32"/>
</g>
<!-- Node17 -->
<g id="node17" class="node">
<title>Node17</title>
<g id="a_node17"><a xlink:href="incflo__enums_8_h.html" target="_top" xlink:title=" ">
<polygon fill="white" stroke="black" points="390.5,-56.5 390.5,-75.5 531.5,-75.5 531.5,-56.5 390.5,-56.5"/>
<text text-anchor="middle" x="461" y="-63.5" font-family="Helvetica,sans-Serif" font-size="10.00">amr&#45;wind/incflo_enums.H</text>
</a>
</g>
</g>
<!-- Node12&#45;&gt;Node17 -->
<g id="edge22" class="edge">
<title>Node12&#45;&gt;Node17</title>
<path fill="none" stroke="midnightblue" d="M715.45,-117.98C662.19,-107.3 570.98,-89.03 513.46,-77.51"/>
<polygon fill="midnightblue" stroke="midnightblue" points="513.97,-74.04 503.47,-75.51 512.59,-80.91 513.97,-74.04"/>
</g>
<!-- Node18 -->
<g id="node18" class="node">
<title>Node18</title>
<g id="a_node18"><a xlink:href="_view_field_8_h.html" target="_top" xlink:title=" ">
<polygon fill="white" stroke="black" points="1045,-56.5 1045,-75.5 1193,-75.5 1193,-56.5 1045,-56.5"/>
<text text-anchor="middle" x="1119" y="-63.5" font-family="Helvetica,sans-Serif" font-size="10.00">amr&#45;wind/core/ViewField.H</text>
</a>
</g>
</g>
<!-- Node12&#45;&gt;Node18 -->
<g id="edge24" class="edge">
<title>Node12&#45;&gt;Node18</title>
<path fill="none" stroke="midnightblue" d="M809.72,-117.98C875.13,-107.19 987.62,-88.65 1057.4,-77.15"/>
<polygon fill="midnightblue" stroke="midnightblue" points="1058.08,-80.59 1067.37,-75.51 1056.94,-73.68 1058.08,-80.59"/>
</g>
<!-- Node18&#45;&gt;Node4 -->
<g id="edge25" class="edge">
<title>Node18&#45;&gt;Node4</title>
<path fill="none" stroke="midnightblue" d="M1174.14,-56.44C1247.73,-45.03 1375.64,-25.18 1435.02,-15.96"/>
<polygon fill="midnightblue" stroke="midnightblue" points="1435.6,-19.41 1444.94,-14.42 1434.52,-12.5 1435.6,-19.41"/>
</g>
<!-- Node18&#45;&gt;Node5 -->
<g id="edge26" class="edge">
<title>Node18&#45;&gt;Node5</title>
<path fill="none" stroke="midnightblue" d="M1102.61,-56.32C1086.33,-47.7 1061.13,-34.36 1042.28,-24.39"/>
<polygon fill="midnightblue" stroke="midnightblue" points="1043.82,-21.24 1033.35,-19.65 1040.55,-27.43 1043.82,-21.24"/>
</g>
<!-- Node18&#45;&gt;Node10 -->
<g id="edge27" class="edge">
<title>Node18&#45;&gt;Node10</title>
<path fill="none" stroke="midnightblue" d="M1044.69,-59.7C896.59,-49.13 566.89,-25.62 426.89,-15.63"/>
<polygon fill="midnightblue" stroke="midnightblue" points="426.96,-12.13 416.74,-14.9 426.46,-19.11 426.96,-12.13"/>
</g>
<!-- Node19 -->
<g id="node19" class="node">
<title>Node19</title>
<g id="a_node19"><a xlink:title=" ">
<polygon fill="white" stroke="#bfbfbf" points="1172,-0.5 1172,-19.5 1270,-19.5 1270,-0.5 1172,-0.5"/>
<text text-anchor="middle" x="1221" y="-7.5" font-family="Helvetica,sans-Serif" font-size="10.00">AMReX_Vector.H</text>
</a>
</g>
</g>
<!-- Node18&#45;&gt;Node19 -->
<g id="edge28" class="edge">
<title>Node18&#45;&gt;Node19</title>
<path fill="none" stroke="midnightblue" d="M1135.39,-56.32C1151.67,-47.7 1176.87,-34.36 1195.72,-24.39"/>
<polygon fill="midnightblue" stroke="midnightblue" points="1197.45,-27.43 1204.65,-19.65 1194.18,-21.24 1197.45,-27.43"/>
</g>
<!-- Node20&#45;&gt;Node2 -->
<g id="edge32" class="edge">
<title>Node20&#45;&gt;Node2</title>
<path fill="none" stroke="midnightblue" d="M1151.81,-117.98C1195.43,-106.64 1272.06,-86.73 1315.52,-75.44"/>
<polygon fill="midnightblue" stroke="midnightblue" points="1316.5,-78.8 1325.3,-72.9 1314.74,-72.03 1316.5,-78.8"/>
</g>
<!-- Node20&#45;&gt;Node4 -->
<g id="edge31" class="edge">
<title>Node20&#45;&gt;Node4</title>
<path fill="none" stroke="midnightblue" d="M1148.6,-117.93C1179.88,-108.62 1230.47,-92.79 1273,-76 1292.6,-68.26 1296.29,-63.47 1316,-56 1356.33,-40.71 1404.26,-27.18 1435.13,-19.05"/>
<polygon fill="midnightblue" stroke="midnightblue" points="1436.12,-22.41 1444.91,-16.5 1434.35,-15.63 1436.12,-22.41"/>
</g>
<!-- Node20&#45;&gt;Node5 -->
<g id="edge33" class="edge">
<title>Node20&#45;&gt;Node5</title>
<path fill="none" stroke="midnightblue" d="M1095.64,-117.86C1076.9,-109.78 1051.3,-95.94 1036,-76 1025.72,-62.6 1021,-43.78 1018.83,-29.84"/>
<polygon fill="midnightblue" stroke="midnightblue" points="1022.3,-29.38 1017.58,-19.9 1015.35,-30.26 1022.3,-29.38"/>
</g>
<!-- Node20&#45;&gt;Node10 -->
<g id="edge35" class="edge">
<title>Node20&#45;&gt;Node10</title>
<path fill="none" stroke="midnightblue" d="M1100.37,-118C1065.82,-102.66 989.15,-70.61 921,-56 745.03,-18.27 531.74,-11.57 426.77,-10.75"/>
<polygon fill="midnightblue" stroke="midnightblue" points="426.67,-7.25 416.65,-10.69 426.62,-14.25 426.67,-7.25"/>
</g>
<!-- Node20&#45;&gt;Node18 -->
<g id="edge34" class="edge">
<title>Node20&#45;&gt;Node18</title>
<path fill="none" stroke="midnightblue" d="M1119,-117.98C1119,-109.58 1119,-96.48 1119,-85.66"/>
<polygon fill="midnightblue" stroke="midnightblue" points="1122.5,-85.51 1119,-75.51 1115.5,-85.51 1122.5,-85.51"/>
</g>
<!-- Node20&#45;&gt;Node19 -->
<g id="edge36" class="edge">
<title>Node20&#45;&gt;Node19</title>
<path fill="none" stroke="midnightblue" d="M1142.36,-117.86C1161.1,-109.78 1186.7,-95.94 1202,-76 1212.28,-62.6 1217,-43.78 1219.17,-29.84"/>
<polygon fill="midnightblue" stroke="midnightblue" points="1222.65,-30.26 1220.42,-19.9 1215.7,-29.38 1222.65,-30.26"/>
</g>
<!-- Node21 -->
<g id="node21" class="node">
<title>Node21</title>
<g id="a_node21"><a xlink:title=" ">
<polygon fill="white" stroke="#bfbfbf" points="1388.5,-56.5 1388.5,-75.5 1519.5,-75.5 1519.5,-56.5 1388.5,-56.5"/>
<text text-anchor="middle" x="1454" y="-63.5" font-family="Helvetica,sans-Serif" font-size="10.00">AMReX_PhysBCFunct.H</text>
</a>
</g>
</g>
<!-- Node20&#45;&gt;Node21 -->
<g id="edge37" class="edge">
<title>Node20&#45;&gt;Node21</title>
<path fill="none" stroke="midnightblue" d="M1167,-117.98C1227.45,-107.24 1331.23,-88.81 1396.04,-77.29"/>
<polygon fill="midnightblue" stroke="midnightblue" points="1396.86,-80.7 1406.09,-75.51 1395.63,-73.81 1396.86,-80.7"/>
</g>
<!-- Node22&#45;&gt;Node2 -->
<g id="edge40" class="edge">
<title>Node22&#45;&gt;Node2</title>
<path fill="none" stroke="midnightblue" d="M1464.74,-112.4C1438.96,-102.37 1404.64,-89.03 1379.9,-79.4"/>
<polygon fill="midnightblue" stroke="midnightblue" points="1380.85,-76.02 1370.26,-75.66 1378.31,-82.54 1380.85,-76.02"/>
</g>
<!-- Node22&#45;&gt;Node4 -->
<g id="edge39" class="edge">
<title>Node22&#45;&gt;Node4</title>
<path fill="none" stroke="midnightblue" d="M1550.41,-112.38C1583.47,-100.31 1617.89,-80.95 1600,-56 1577.21,-24.24 1530.78,-14.61 1499.27,-11.85"/>
<polygon fill="midnightblue" stroke="midnightblue" points="1499.43,-8.35 1489.21,-11.15 1498.95,-15.34 1499.43,-8.35"/>
</g>
<!-- Node22&#45;&gt;Node5 -->
<g id="edge41" class="edge">
<title>Node22&#45;&gt;Node5</title>
<path fill="none" stroke="midnightblue" d="M1514.11,-112.44C1526.98,-96.92 1542.69,-72.04 1528,-56 1521.11,-48.47 1261.97,-28.65 1115.44,-18"/>
<polygon fill="midnightblue" stroke="midnightblue" points="1115.32,-14.48 1105.09,-17.25 1114.81,-21.46 1115.32,-14.48"/>
</g>
<!-- Node22&#45;&gt;Node6 -->
<g id="edge43" class="edge">
<title>Node22&#45;&gt;Node6</title>
<path fill="none" stroke="midnightblue" d="M1558.75,-112.47C1602.31,-101.9 1661.2,-87.59 1701.22,-77.87"/>
<polygon fill="midnightblue" stroke="midnightblue" points="1702.08,-81.27 1710.97,-75.51 1700.43,-74.47 1702.08,-81.27"/>
</g>
<!-- Node22&#45;&gt;Node18 -->
<g id="edge42" class="edge">
<title>Node22&#45;&gt;Node18</title>
<path fill="none" stroke="midnightblue" d="M1431.38,-115.66C1360.86,-104.67 1252.66,-87.82 1183.89,-77.11"/>
<polygon fill="midnightblue" stroke="midnightblue" points="1184.04,-73.59 1173.62,-75.51 1182.96,-80.5 1184.04,-73.59"/>
</g>
<!-- Node22&#45;&gt;Node19 -->
<g id="edge44" class="edge">
<title>Node22&#45;&gt;Node19</title>
<path fill="none" stroke="midnightblue" d="M1527.5,-112.41C1550.98,-98.14 1579.07,-75.47 1562,-56 1543.74,-35.17 1372.82,-20.9 1280.12,-14.62"/>
<polygon fill="midnightblue" stroke="midnightblue" points="1280.25,-11.12 1270.04,-13.94 1279.78,-18.1 1280.25,-11.12"/>
</g>
<!-- Node22&#45;&gt;Node21 -->
<g id="edge45" class="edge">
<title>Node22&#45;&gt;Node21</title>
<path fill="none" stroke="midnightblue" d="M1489.86,-112.4C1483.03,-103.75 1474.26,-92.64 1467.09,-83.58"/>
<polygon fill="midnightblue" stroke="midnightblue" points="1469.78,-81.34 1460.84,-75.66 1464.29,-85.67 1469.78,-81.34"/>
</g>
</g>
</svg>
        <g id="navigator" transform="translate(0 0)" fill="#404254">
                <rect fill="#f2f5e9" fill-opacity="0.5" stroke="#606060" stroke-width=".5" x="0" y="0" width="60" height="60"/>
                <use id="zoomplus" xlink:href="#zoomPlus" x="17" y="9" onmousedown="handleZoom(evt,'in')"/>
                <use id="zoomminus" xlink:href="#zoomMin" x="42" y="9" onmousedown="handleZoom(evt,'out')"/>
                <use id="reset" xlink:href="#resetDef" x="30" y="36" onmousedown="handleReset()"/>
                <g id="arrowUp" xlink:href="#dirArrow" transform="translate(30 24)" onmousedown="handlePan(0,-1)">
                  <use xlink:href="#rim" fill="#404040">
                        <set attributeName="fill" to="#808080" begin="arrowUp.mouseover" end="arrowUp.mouseout"/>
                  </use>
                  <path fill="none" stroke="white" stroke-width="1.5" d="M0,-3.0v7 M-2.5,-0.5L0,-3.0L2.5,-0.5"/>
                </g>
                <g id="arrowRight" xlink:href="#dirArrow" transform="rotate(90) translate(36 -43)" onmousedown="handlePan(1,0)">
                  <use xlink:href="#rim" fill="#404040">
                        <set attributeName="fill" to="#808080" begin="arrowRight.mouseover" end="arrowRight.mouseout"/>
                  </use>
                  <path fill="none" stroke="white" stroke-width="1.5" d="M0,-3.0v7 M-2.5,-0.5L0,-3.0L2.5,-0.5"/>
                </g>
                <g id="arrowDown" xlink:href="#dirArrow" transform="rotate(180) translate(-30 -48)" onmousedown="handlePan(0,1)">
                  <use xlink:href="#rim" fill="#404040">
                        <set attributeName="fill" to="#808080" begin="arrowDown.mouseover" end="arrowDown.mouseout"/>
                  </use>
                  <path fill="none" stroke="white" stroke-width="1.5" d="M0,-3.0v7 M-2.5,-0.5L0,-3.0L2.5,-0.5"/>
                </g>
                <g id="arrowLeft" xlink:href="#dirArrow" transform="rotate(270) translate(-36 17)" onmousedown="handlePan(-1,0)">
                  <use xlink:href="#rim" fill="#404040">
                        <set attributeName="fill" to="#808080" begin="arrowLeft.mouseover" end="arrowLeft.mouseout"/>
                  </use>
                  <path fill="none" stroke="white" stroke-width="1.5" d="M0,-3.0v7 M-2.5,-0.5L0,-3.0L2.5,-0.5"/>
                </g>
        </g>
        <svg viewBox="0 0 15 15" width="100%" height="30px" preserveAspectRatio="xMaxYMin meet">
         <g id="arrow_out" transform="scale(0.3 0.3)">
          <a xlink:href="_int_field_8cpp__incl_org.svg" target="_base">
           <rect id="button" ry="5" rx="5" y="6" x="6" height="38" width="38"
                fill="#f2f5e9" fill-opacity="0.5" stroke="#606060" stroke-width="1.0"/>
           <path id="arrow"
             d="M 11.500037,31.436501 C 11.940474,20.09759 22.043105,11.32322 32.158766,21.979434 L 37.068811,17.246167 C 37.068811,17.246167 37.088388,32 37.088388,32 L 22.160133,31.978069 C 22.160133,31.978069 26.997745,27.140456 26.997745,27.140456 C 18.528582,18.264221 13.291696,25.230495 11.500037,31.436501 z"
             style="fill:#404040;"/>
          </a>
         </g>
        </svg>
</svg>
