<?xml version="1.0" encoding="UTF-8" standalone="no"?>
<!DOCTYPE svg PUBLIC "-//W3C//DTD SVG 1.1//EN"
 "http://www.w3.org/Graphics/SVG/1.1/DTD/svg11.dtd">
<!-- Generated by graphviz version 2.43.0 (0)
 -->
<!-- Title: KOmegaSST.H Pages: 1 -->
<svg width="275pt" height="140pt"
 viewBox="0.00 0.00 274.50 140.00" xmlns="http://www.w3.org/2000/svg" xmlns:xlink="http://www.w3.org/1999/xlink">
<g id="graph0" class="graph" transform="scale(1 1) rotate(0) translate(4 136)">
<title>KOmegaSST.H</title>
<polygon fill="white" stroke="transparent" points="-4,4 -4,-136 270.5,-136 270.5,4 -4,4"/>
<!-- Node1 -->
<g id="node1" class="node">
<title>Node1</title>
<g id="a_node1"><a xlink:title=" ">
<polygon fill="#bfbfbf" stroke="black" points="45.5,-112.5 45.5,-131.5 131.5,-131.5 131.5,-112.5 45.5,-112.5"/>
<text text-anchor="middle" x="88.5" y="-119.5" font-family="Helvetica,sans-Serif" font-size="10.00">KOmegaSST.H</text>
</a>
</g>
</g>
<!-- Node2 -->
<g id="node2" class="node">
<title>Node2</title>
<g id="a_node2"><a xlink:href="_k_omega_s_s_t_8cpp.html" target="_top" xlink:title=" ">
<polygon fill="white" stroke="black" points="0,-0.5 0,-19.5 95,-19.5 95,-0.5 0,-0.5"/>
<text text-anchor="middle" x="47.5" y="-7.5" font-family="Helvetica,sans-Serif" font-size="10.00">KOmegaSST.cpp</text>
</a>
</g>
</g>
<!-- Node1&#45;&gt;Node2 -->
<g id="edge1" class="edge">
<title>Node1&#45;&gt;Node2</title>
<path fill="none" stroke="midnightblue" d="M63.32,-107C52.31,-99.4 40.54,-88.91 34.5,-76 25.71,-57.24 35.71,-32.73 42.42,-19.82"/>
<polygon fill="midnightblue" stroke="midnightblue" points="61.56,-110.03 71.87,-112.46 65.33,-104.13 61.56,-110.03"/>
</g>
<!-- Node3 -->
<g id="node3" class="node">
<title>Node3</title>
<g id="a_node3"><a xlink:href="_k_omega_s_s_t_i_8_h.html" target="_top" xlink:title=" ">
<polygon fill="white" stroke="black" points="44,-56.5 44,-75.5 133,-75.5 133,-56.5 44,-56.5"/>
<text text-anchor="middle" x="88.5" y="-63.5" font-family="Helvetica,sans-Serif" font-size="10.00">KOmegaSSTI.H</text>
</a>
</g>
</g>
<!-- Node1&#45;&gt;Node3 -->
<g id="edge2" class="edge">
<title>Node1&#45;&gt;Node3</title>
<path fill="none" stroke="midnightblue" d="M88.5,-101.8C88.5,-92.91 88.5,-82.78 88.5,-75.75"/>
<polygon fill="midnightblue" stroke="midnightblue" points="85,-102.08 88.5,-112.08 92,-102.08 85,-102.08"/>
</g>
<!-- Node5 -->
<g id="node5" class="node">
<title>Node5</title>
<g id="a_node5"><a xlink:href="_k_omega_s_s_t_i_d_d_e_s_8_h.html" target="_top" xlink:title=" ">
<polygon fill="white" stroke="black" points="150.5,-56.5 150.5,-75.5 266.5,-75.5 266.5,-56.5 150.5,-56.5"/>
<text text-anchor="middle" x="208.5" y="-63.5" font-family="Helvetica,sans-Serif" font-size="10.00">KOmegaSSTIDDES.H</text>
</a>
</g>
</g>
<!-- Node1&#45;&gt;Node5 -->
<g id="edge5" class="edge">
<title>Node1&#45;&gt;Node5</title>
<path fill="none" stroke="midnightblue" d="M116.87,-108.23C139.32,-98.13 170.04,-84.31 189.57,-75.52"/>
<polygon fill="midnightblue" stroke="midnightblue" points="115.2,-105.15 107.51,-112.44 118.07,-111.53 115.2,-105.15"/>
</g>
<!-- Node3&#45;&gt;Node2 -->
<g id="edge3" class="edge">
<title>Node3&#45;&gt;Node2</title>
<path fill="none" stroke="midnightblue" d="M75.48,-47.86C68.38,-38.5 59.9,-27.33 54.14,-19.75"/>
<polygon fill="midnightblue" stroke="midnightblue" points="72.89,-50.24 81.73,-56.08 78.47,-46 72.89,-50.24"/>
</g>
<!-- Node4 -->
<g id="node4" class="node">
<title>Node4</title>
<g id="a_node4"><a xlink:href="_k_omega_s_s_t_i_d_d_e_s_8cpp.html" target="_top" xlink:title=" ">
<polygon fill="white" stroke="black" points="129.5,-0.5 129.5,-19.5 255.5,-19.5 255.5,-0.5 129.5,-0.5"/>
<text text-anchor="middle" x="192.5" y="-7.5" font-family="Helvetica,sans-Serif" font-size="10.00">KOmegaSSTIDDES.cpp</text>
</a>
</g>
</g>
<!-- Node3&#45;&gt;Node4 -->
<g id="edge4" class="edge">
<title>Node3&#45;&gt;Node4</title>
<path fill="none" stroke="midnightblue" d="M114.33,-51.59C133.56,-41.61 159.24,-28.27 175.83,-19.65"/>
<polygon fill="midnightblue" stroke="midnightblue" points="112.47,-48.61 105.21,-56.32 115.7,-54.82 112.47,-48.61"/>
</g>
<!-- Node5&#45;&gt;Node4 -->
<g id="edge6" class="edge">
<title>Node5&#45;&gt;Node4</title>
<path fill="none" stroke="midnightblue" d="M202.99,-46.4C200.31,-37.36 197.22,-26.94 195.09,-19.75"/>
<polygon fill="midnightblue" stroke="midnightblue" points="199.66,-47.49 205.86,-56.08 206.37,-45.5 199.66,-47.49"/>
</g>
</g>
</svg>
