<?xml version="1.0" encoding="UTF-8" standalone="no"?>
<!DOCTYPE svg PUBLIC "-//W3C//DTD SVG 1.1//EN"
 "http://www.w3.org/Graphics/SVG/1.1/DTD/svg11.dtd">
<!-- Generated by graphviz version 2.43.0 (0)
 -->
<!-- Title: LineSampler.cpp Pages: 1 -->
<svg width="2557pt" height="341pt"
 viewBox="0.00 0.00 2556.82 341.00" xmlns="http://www.w3.org/2000/svg" xmlns:xlink="http://www.w3.org/1999/xlink">
<g id="graph0" class="graph" transform="scale(1 1) rotate(0) translate(4 337)">
<title>LineSampler.cpp</title>
<polygon fill="white" stroke="transparent" points="-4,4 -4,-337 2552.82,-337 2552.82,4 -4,4"/>
<!-- Node1 -->
<g id="node1" class="node">
<title>Node1</title>
<g id="a_node1"><a xlink:title=" ">
<polygon fill="#bfbfbf" stroke="black" points="906.5,-313.5 906.5,-332.5 1003.5,-332.5 1003.5,-313.5 906.5,-313.5"/>
<text text-anchor="middle" x="955" y="-320.5" font-family="Helvetica,sans-Serif" font-size="10.00">LineSampler.cpp</text>
</a>
</g>
</g>
<!-- Node2 -->
<g id="node2" class="node">
<title>Node2</title>
<g id="a_node2"><a xlink:href="_line_sampler_8_h.html" target="_top" xlink:title=" ">
<polygon fill="white" stroke="black" points="591,-246.5 591,-276.5 729,-276.5 729,-246.5 591,-246.5"/>
<text text-anchor="start" x="599" y="-264.5" font-family="Helvetica,sans-Serif" font-size="10.00">amr&#45;wind/utilities</text>
<text text-anchor="middle" x="660" y="-253.5" font-family="Helvetica,sans-Serif" font-size="10.00">/sampling/LineSampler.H</text>
</a>
</g>
</g>
<!-- Node1&#45;&gt;Node2 -->
<g id="edge1" class="edge">
<title>Node1&#45;&gt;Node2</title>
<path fill="none" stroke="midnightblue" d="M912.73,-313.48C867.57,-304.37 794.94,-289.72 739.11,-278.46"/>
<polygon fill="midnightblue" stroke="midnightblue" points="739.74,-275.01 729.24,-276.47 738.35,-281.87 739.74,-275.01"/>
</g>
<!-- Node15 -->
<g id="node15" class="node">
<title>Node15</title>
<g id="a_node15"><a xlink:href="_c_f_d_sim_8_h.html" target="_top" xlink:title=" ">
<polygon fill="white" stroke="black" points="833,-252 833,-271 949,-271 949,-252 833,-252"/>
<text text-anchor="middle" x="891" y="-259" font-family="Helvetica,sans-Serif" font-size="10.00">amr&#45;wind/CFDSim.H</text>
</a>
</g>
</g>
<!-- Node1&#45;&gt;Node15 -->
<g id="edge15" class="edge">
<title>Node1&#45;&gt;Node15</title>
<path fill="none" stroke="midnightblue" d="M945.83,-313.48C935.85,-304.2 919.69,-289.17 907.49,-277.83"/>
<polygon fill="midnightblue" stroke="midnightblue" points="909.86,-275.25 900.15,-271.01 905.09,-280.38 909.86,-275.25"/>
</g>
<!-- Node43 -->
<g id="node43" class="node">
<title>Node43</title>
<g id="a_node43"><a xlink:href="tensor__ops_8_h.html" target="_top" xlink:title=" ">
<polygon fill="white" stroke="black" points="967.5,-246.5 967.5,-276.5 1070.5,-276.5 1070.5,-246.5 967.5,-246.5"/>
<text text-anchor="start" x="975.5" y="-264.5" font-family="Helvetica,sans-Serif" font-size="10.00">amr&#45;wind/utilities</text>
<text text-anchor="middle" x="1019" y="-253.5" font-family="Helvetica,sans-Serif" font-size="10.00">/tensor_ops.H</text>
</a>
</g>
</g>
<!-- Node1&#45;&gt;Node43 -->
<g id="edge75" class="edge">
<title>Node1&#45;&gt;Node43</title>
<path fill="none" stroke="midnightblue" d="M964.17,-313.48C972.59,-305.64 985.42,-293.71 996.56,-283.37"/>
<polygon fill="midnightblue" stroke="midnightblue" points="998.98,-285.9 1003.92,-276.52 994.21,-280.77 998.98,-285.9"/>
</g>
<!-- Node44 -->
<g id="node44" class="node">
<title>Node44</title>
<g id="a_node44"><a xlink:title=" ">
<polygon fill="white" stroke="#bfbfbf" points="1088.5,-252 1088.5,-271 1207.5,-271 1207.5,-252 1088.5,-252"/>
<text text-anchor="middle" x="1148" y="-259" font-family="Helvetica,sans-Serif" font-size="10.00">AMReX_ParmParse.H</text>
</a>
</g>
</g>
<!-- Node1&#45;&gt;Node44 -->
<g id="edge77" class="edge">
<title>Node1&#45;&gt;Node44</title>
<path fill="none" stroke="midnightblue" d="M982.65,-313.48C1016.19,-303.14 1072.87,-285.66 1110.37,-274.1"/>
<polygon fill="midnightblue" stroke="midnightblue" points="1111.87,-277.3 1120.4,-271.01 1109.81,-270.61 1111.87,-277.3"/>
</g>
<!-- Node3 -->
<g id="node3" class="node">
<title>Node3</title>
<g id="a_node3"><a xlink:href="_sampler_base_8_h.html" target="_top" xlink:title=" ">
<polygon fill="white" stroke="black" points="62.5,-123.5 62.5,-153.5 205.5,-153.5 205.5,-123.5 62.5,-123.5"/>
<text text-anchor="start" x="70.5" y="-141.5" font-family="Helvetica,sans-Serif" font-size="10.00">amr&#45;wind/utilities</text>
<text text-anchor="middle" x="134" y="-130.5" font-family="Helvetica,sans-Serif" font-size="10.00">/sampling/SamplerBase.H</text>
</a>
</g>
</g>
<!-- Node2&#45;&gt;Node3 -->
<g id="edge2" class="edge">
<title>Node2&#45;&gt;Node3</title>
<path fill="none" stroke="midnightblue" d="M595.57,-246.49C549.88,-236.49 487.13,-222.63 432,-210 352.97,-191.9 262.34,-170.34 201.98,-155.87"/>
<polygon fill="midnightblue" stroke="midnightblue" points="202.73,-152.46 192.19,-153.53 201.09,-159.26 202.73,-152.46"/>
</g>
<!-- Node4 -->
<g id="node4" class="node">
<title>Node4</title>
<g id="a_node4"><a xlink:href="_factory_8_h.html" target="_top" xlink:title=" ">
<polygon fill="white" stroke="black" points="348,-62 348,-81 482,-81 482,-62 348,-62"/>
<text text-anchor="middle" x="415" y="-69" font-family="Helvetica,sans-Serif" font-size="10.00">amr&#45;wind/core/Factory.H</text>
</a>
</g>
</g>
<!-- Node3&#45;&gt;Node4 -->
<g id="edge3" class="edge">
<title>Node3&#45;&gt;Node4</title>
<path fill="none" stroke="midnightblue" d="M194.63,-123.48C246.63,-111.45 320.51,-94.36 368.1,-83.35"/>
<polygon fill="midnightblue" stroke="midnightblue" points="369.18,-86.69 378.13,-81.03 367.6,-79.87 369.18,-86.69"/>
</g>
<!-- Node10 -->
<g id="node10" class="node">
<title>Node10</title>
<g id="a_node10"><a xlink:href="nc__interface_8_h.html" target="_top" xlink:title=" ">
<polygon fill="white" stroke="black" points="71.5,-56.5 71.5,-86.5 196.5,-86.5 196.5,-56.5 71.5,-56.5"/>
<text text-anchor="start" x="79.5" y="-74.5" font-family="Helvetica,sans-Serif" font-size="10.00">amr&#45;wind/utilities</text>
<text text-anchor="middle" x="134" y="-63.5" font-family="Helvetica,sans-Serif" font-size="10.00">/ncutils/nc_interface.H</text>
</a>
</g>
</g>
<!-- Node3&#45;&gt;Node10 -->
<g id="edge9" class="edge">
<title>Node3&#45;&gt;Node10</title>
<path fill="none" stroke="midnightblue" d="M134,-123.4C134,-115.64 134,-105.81 134,-96.86"/>
<polygon fill="midnightblue" stroke="midnightblue" points="137.5,-96.58 134,-86.58 130.5,-96.58 137.5,-96.58"/>
</g>
<!-- Node5 -->
<g id="node5" class="node">
<title>Node5</title>
<g id="a_node5"><a xlink:title=" ">
<polygon fill="white" stroke="#bfbfbf" points="616,-0.5 616,-19.5 674,-19.5 674,-0.5 616,-0.5"/>
<text text-anchor="middle" x="645" y="-7.5" font-family="Helvetica,sans-Serif" font-size="10.00">memory</text>
</a>
</g>
</g>
<!-- Node4&#45;&gt;Node5 -->
<g id="edge4" class="edge">
<title>Node4&#45;&gt;Node5</title>
<path fill="none" stroke="midnightblue" d="M447.95,-61.98C489.67,-51.18 561.44,-32.62 605.89,-21.12"/>
<polygon fill="midnightblue" stroke="midnightblue" points="606.95,-24.46 615.75,-18.57 605.19,-17.68 606.95,-24.46"/>
</g>
<!-- Node6 -->
<g id="node6" class="node">
<title>Node6</title>
<g id="a_node6"><a xlink:title=" ">
<polygon fill="white" stroke="#bfbfbf" points="501.5,-0.5 501.5,-19.5 594.5,-19.5 594.5,-0.5 501.5,-0.5"/>
<text text-anchor="middle" x="548" y="-7.5" font-family="Helvetica,sans-Serif" font-size="10.00">unordered_map</text>
</a>
</g>
</g>
<!-- Node4&#45;&gt;Node6 -->
<g id="edge5" class="edge">
<title>Node4&#45;&gt;Node6</title>
<path fill="none" stroke="midnightblue" d="M434.06,-61.98C456.47,-51.95 493.91,-35.2 519.71,-23.65"/>
<polygon fill="midnightblue" stroke="midnightblue" points="521.28,-26.79 528.98,-19.51 518.42,-20.4 521.28,-26.79"/>
</g>
<!-- Node7 -->
<g id="node7" class="node">
<title>Node7</title>
<g id="a_node7"><a xlink:title=" ">
<polygon fill="white" stroke="#bfbfbf" points="315,-0.5 315,-19.5 375,-19.5 375,-0.5 315,-0.5"/>
<text text-anchor="middle" x="345" y="-7.5" font-family="Helvetica,sans-Serif" font-size="10.00">iostream</text>
</a>
</g>
</g>
<!-- Node4&#45;&gt;Node7 -->
<g id="edge6" class="edge">
<title>Node4&#45;&gt;Node7</title>
<path fill="none" stroke="midnightblue" d="M404.97,-61.98C393.95,-52.61 376.04,-37.38 362.66,-26.01"/>
<polygon fill="midnightblue" stroke="midnightblue" points="364.9,-23.32 355.01,-19.51 360.36,-28.65 364.9,-23.32"/>
</g>
<!-- Node8 -->
<g id="node8" class="node">
<title>Node8</title>
<g id="a_node8"><a xlink:title=" ">
<polygon fill="white" stroke="#bfbfbf" points="393,-0.5 393,-19.5 483,-19.5 483,-0.5 393,-0.5"/>
<text text-anchor="middle" x="438" y="-7.5" font-family="Helvetica,sans-Serif" font-size="10.00">AMReX_Print.H</text>
</a>
</g>
</g>
<!-- Node4&#45;&gt;Node8 -->
<g id="edge7" class="edge">
<title>Node4&#45;&gt;Node8</title>
<path fill="none" stroke="midnightblue" d="M418.3,-61.98C421.61,-53.4 426.82,-39.93 431.05,-28.98"/>
<polygon fill="midnightblue" stroke="midnightblue" points="434.37,-30.1 434.71,-19.51 427.84,-27.57 434.37,-30.1"/>
</g>
<!-- Node9 -->
<g id="node9" class="node">
<title>Node9</title>
<g id="a_node9"><a xlink:title=" ">
<polygon fill="white" stroke="#bfbfbf" points="235,-0.5 235,-19.5 297,-19.5 297,-0.5 235,-0.5"/>
<text text-anchor="middle" x="266" y="-7.5" font-family="Helvetica,sans-Serif" font-size="10.00">AMReX.H</text>
</a>
</g>
</g>
<!-- Node4&#45;&gt;Node9 -->
<g id="edge8" class="edge">
<title>Node4&#45;&gt;Node9</title>
<path fill="none" stroke="midnightblue" d="M393.65,-61.98C368.31,-51.86 325.86,-34.9 296.93,-23.35"/>
<polygon fill="midnightblue" stroke="midnightblue" points="297.89,-19.97 287.31,-19.51 295.3,-26.47 297.89,-19.97"/>
</g>
<!-- Node10&#45;&gt;Node6 -->
<g id="edge11" class="edge">
<title>Node10&#45;&gt;Node6</title>
<path fill="none" stroke="midnightblue" d="M196.67,-57.43C199.48,-56.93 202.27,-56.45 205,-56 328.63,-35.65 363.01,-38.06 491.07,-20.08"/>
<polygon fill="midnightblue" stroke="midnightblue" points="491.86,-23.5 501.27,-18.63 490.87,-16.57 491.86,-23.5"/>
</g>
<!-- Node11 -->
<g id="node11" class="node">
<title>Node11</title>
<g id="a_node11"><a xlink:title=" ">
<polygon fill="white" stroke="#bfbfbf" points="1068,-0.5 1068,-19.5 1112,-19.5 1112,-0.5 1068,-0.5"/>
<text text-anchor="middle" x="1090" y="-7.5" font-family="Helvetica,sans-Serif" font-size="10.00">string</text>
</a>
</g>
</g>
<!-- Node10&#45;&gt;Node11 -->
<g id="edge10" class="edge">
<title>Node10&#45;&gt;Node11</title>
<path fill="none" stroke="midnightblue" d="M196.63,-57.18C199.46,-56.74 202.25,-56.35 205,-56 290.71,-45.13 907.39,-18.69 1057.25,-12.37"/>
<polygon fill="midnightblue" stroke="midnightblue" points="1057.76,-15.85 1067.61,-11.94 1057.47,-8.86 1057.76,-15.85"/>
</g>
<!-- Node12 -->
<g id="node12" class="node">
<title>Node12</title>
<g id="a_node12"><a xlink:title=" ">
<polygon fill="white" stroke="#bfbfbf" points="169.5,-0.5 169.5,-19.5 216.5,-19.5 216.5,-0.5 169.5,-0.5"/>
<text text-anchor="middle" x="193" y="-7.5" font-family="Helvetica,sans-Serif" font-size="10.00">vector</text>
</a>
</g>
</g>
<!-- Node10&#45;&gt;Node12 -->
<g id="edge12" class="edge">
<title>Node10&#45;&gt;Node12</title>
<path fill="none" stroke="midnightblue" d="M147.98,-56.4C156.73,-47.58 168.03,-36.18 177.12,-27.02"/>
<polygon fill="midnightblue" stroke="midnightblue" points="179.86,-29.22 184.41,-19.66 174.89,-24.29 179.86,-29.22"/>
</g>
<!-- Node13 -->
<g id="node13" class="node">
<title>Node13</title>
<g id="a_node13"><a xlink:title=" ">
<polygon fill="white" stroke="#bfbfbf" points="0,-0.5 0,-19.5 56,-19.5 56,-0.5 0,-0.5"/>
<text text-anchor="middle" x="28" y="-7.5" font-family="Helvetica,sans-Serif" font-size="10.00">netcdf.h</text>
</a>
</g>
</g>
<!-- Node10&#45;&gt;Node13 -->
<g id="edge13" class="edge">
<title>Node10&#45;&gt;Node13</title>
<path fill="none" stroke="midnightblue" d="M108.88,-56.4C91.73,-46.77 69.14,-34.09 52.19,-24.58"/>
<polygon fill="midnightblue" stroke="midnightblue" points="53.86,-21.5 43.42,-19.66 50.43,-27.6 53.86,-21.5"/>
</g>
<!-- Node14 -->
<g id="node14" class="node">
<title>Node14</title>
<g id="a_node14"><a xlink:title=" ">
<polygon fill="white" stroke="#bfbfbf" points="74.5,-0.5 74.5,-19.5 151.5,-19.5 151.5,-0.5 74.5,-0.5"/>
<text text-anchor="middle" x="113" y="-7.5" font-family="Helvetica,sans-Serif" font-size="10.00">netcdf_par.h</text>
</a>
</g>
</g>
<!-- Node10&#45;&gt;Node14 -->
<g id="edge14" class="edge">
<title>Node10&#45;&gt;Node14</title>
<path fill="none" stroke="midnightblue" d="M129.02,-56.4C126.16,-48.29 122.53,-38.01 119.45,-29.28"/>
<polygon fill="midnightblue" stroke="midnightblue" points="122.68,-27.92 116.06,-19.66 116.08,-30.25 122.68,-27.92"/>
</g>
<!-- Node16 -->
<g id="node16" class="node">
<title>Node16</title>
<g id="a_node16"><a xlink:title=" ">
<polygon fill="white" stroke="#bfbfbf" points="2345,-129 2345,-148 2455,-148 2455,-129 2345,-129"/>
<text text-anchor="middle" x="2400" y="-136" font-family="Helvetica,sans-Serif" font-size="10.00">AMReX_AmrCore.H</text>
</a>
</g>
</g>
<!-- Node15&#45;&gt;Node16 -->
<g id="edge16" class="edge">
<title>Node15&#45;&gt;Node16</title>
<path fill="none" stroke="midnightblue" d="M924.54,-251.99C935.17,-249.63 947.01,-247.35 958,-246 1475.71,-182.57 1614.78,-284.59 2131,-210 2216.83,-197.6 2314.65,-167.89 2365.38,-151.27"/>
<polygon fill="midnightblue" stroke="midnightblue" points="2366.78,-154.49 2375.17,-148.03 2364.58,-147.85 2366.78,-154.49"/>
</g>
<!-- Node17 -->
<g id="node17" class="node">
<title>Node17</title>
<g id="a_node17"><a xlink:href="_sim_time_8_h.html" target="_top" xlink:title=" ">
<polygon fill="white" stroke="black" points="584,-190.5 584,-209.5 728,-209.5 728,-190.5 584,-190.5"/>
<text text-anchor="middle" x="656" y="-197.5" font-family="Helvetica,sans-Serif" font-size="10.00">amr&#45;wind/core/SimTime.H</text>
</a>
</g>
</g>
<!-- Node15&#45;&gt;Node17 -->
<g id="edge17" class="edge">
<title>Node15&#45;&gt;Node17</title>
<path fill="none" stroke="midnightblue" d="M857.33,-251.98C815.8,-241.46 745.11,-223.56 699.5,-212.01"/>
<polygon fill="midnightblue" stroke="midnightblue" points="700.16,-208.57 689.61,-209.51 698.44,-215.36 700.16,-208.57"/>
</g>
<!-- Node21 -->
<g id="node21" class="node">
<title>Node21</title>
<g id="a_node21"><a xlink:href="_field_repo_8_h.html" target="_top" xlink:title=" ">
<polygon fill="white" stroke="black" points="1972.5,-190.5 1972.5,-209.5 2121.5,-209.5 2121.5,-190.5 1972.5,-190.5"/>
<text text-anchor="middle" x="2047" y="-197.5" font-family="Helvetica,sans-Serif" font-size="10.00">amr&#45;wind/core/FieldRepo.H</text>
</a>
</g>
</g>
<!-- Node15&#45;&gt;Node21 -->
<g id="edge21" class="edge">
<title>Node15&#45;&gt;Node21</title>
<path fill="none" stroke="midnightblue" d="M924.89,-251.98C935.43,-249.65 947.14,-247.39 958,-246 1151.77,-221.22 1741.37,-207.14 1962.25,-202.62"/>
<polygon fill="midnightblue" stroke="midnightblue" points="1962.56,-206.11 1972.48,-202.41 1962.42,-199.11 1962.56,-206.11"/>
</g>
<!-- Node37 -->
<g id="node37" class="node">
<title>Node37</title>
<g id="a_node37"><a xlink:href="_p_d_e_base_8_h.html" target="_top" xlink:title=" ">
<polygon fill="white" stroke="black" points="813.5,-123.5 813.5,-153.5 968.5,-153.5 968.5,-123.5 813.5,-123.5"/>
<text text-anchor="start" x="821.5" y="-141.5" font-family="Helvetica,sans-Serif" font-size="10.00">amr&#45;wind/equation_systems</text>
<text text-anchor="middle" x="891" y="-130.5" font-family="Helvetica,sans-Serif" font-size="10.00">/PDEBase.H</text>
</a>
</g>
</g>
<!-- Node15&#45;&gt;Node37 -->
<g id="edge58" class="edge">
<title>Node15&#45;&gt;Node37</title>
<path fill="none" stroke="midnightblue" d="M891,-251.8C891,-233.6 891,-190.98 891,-163.79"/>
<polygon fill="midnightblue" stroke="midnightblue" points="894.5,-163.54 891,-153.54 887.5,-163.54 894.5,-163.54"/>
</g>
<!-- Node41 -->
<g id="node41" class="node">
<title>Node41</title>
<g id="a_node41"><a xlink:href="_physics_8_h.html" target="_top" xlink:title=" ">
<polygon fill="white" stroke="black" points="223.5,-129 223.5,-148 360.5,-148 360.5,-129 223.5,-129"/>
<text text-anchor="middle" x="292" y="-136" font-family="Helvetica,sans-Serif" font-size="10.00">amr&#45;wind/core/Physics.H</text>
</a>
</g>
</g>
<!-- Node15&#45;&gt;Node41 -->
<g id="edge70" class="edge">
<title>Node15&#45;&gt;Node41</title>
<path fill="none" stroke="midnightblue" d="M832.78,-252.72C769.17,-243.87 664.41,-228.25 575,-210 487.9,-192.22 387.16,-165.67 332.46,-150.74"/>
<polygon fill="midnightblue" stroke="midnightblue" points="333.36,-147.36 322.79,-148.09 331.51,-154.11 333.36,-147.36"/>
</g>
<!-- Node18 -->
<g id="node18" class="node">
<title>Node18</title>
<g id="a_node18"><a xlink:title=" ">
<polygon fill="white" stroke="#bfbfbf" points="665,-129 665,-148 757,-148 757,-129 665,-129"/>
<text text-anchor="middle" x="711" y="-136" font-family="Helvetica,sans-Serif" font-size="10.00">AMReX_REAL.H</text>
</a>
</g>
</g>
<!-- Node17&#45;&gt;Node18 -->
<g id="edge18" class="edge">
<title>Node17&#45;&gt;Node18</title>
<path fill="none" stroke="midnightblue" d="M663.88,-190.48C672.29,-181.37 685.82,-166.74 696.23,-155.48"/>
<polygon fill="midnightblue" stroke="midnightblue" points="698.92,-157.73 703.13,-148.01 693.78,-152.98 698.92,-157.73"/>
</g>
<!-- Node19 -->
<g id="node19" class="node">
<title>Node19</title>
<g id="a_node19"><a xlink:title=" ">
<polygon fill="white" stroke="#bfbfbf" points="379,-129 379,-148 513,-148 513,-129 379,-129"/>
<text text-anchor="middle" x="446" y="-136" font-family="Helvetica,sans-Serif" font-size="10.00">AMReX_GpuQualifiers.H</text>
</a>
</g>
</g>
<!-- Node17&#45;&gt;Node19 -->
<g id="edge19" class="edge">
<title>Node17&#45;&gt;Node19</title>
<path fill="none" stroke="midnightblue" d="M625.91,-190.48C589.11,-180.05 526.69,-162.36 485.91,-150.81"/>
<polygon fill="midnightblue" stroke="midnightblue" points="486.61,-147.37 476.03,-148.01 484.7,-154.1 486.61,-147.37"/>
</g>
<!-- Node20 -->
<g id="node20" class="node">
<title>Node20</title>
<g id="a_node20"><a xlink:title=" ">
<polygon fill="white" stroke="#bfbfbf" points="531,-129 531,-148 647,-148 647,-129 531,-129"/>
<text text-anchor="middle" x="589" y="-136" font-family="Helvetica,sans-Serif" font-size="10.00">AMReX_Extension.H</text>
</a>
</g>
</g>
<!-- Node17&#45;&gt;Node20 -->
<g id="edge20" class="edge">
<title>Node17&#45;&gt;Node20</title>
<path fill="none" stroke="midnightblue" d="M646.4,-190.48C635.95,-181.2 619.03,-166.17 606.26,-154.83"/>
<polygon fill="midnightblue" stroke="midnightblue" points="608.38,-152.03 598.58,-148.01 603.73,-157.27 608.38,-152.03"/>
</g>
<!-- Node21&#45;&gt;Node6 -->
<g id="edge23" class="edge">
<title>Node21&#45;&gt;Node6</title>
<path fill="none" stroke="midnightblue" d="M1972.13,-199.06C1720.2,-198.87 912.93,-195.03 804,-154 783.6,-146.32 785.87,-131.96 766,-123 676.08,-82.45 610.84,-162.19 547,-87 533.69,-71.32 536.96,-46.56 541.55,-29.59"/>
<polygon fill="midnightblue" stroke="midnightblue" points="544.99,-30.33 544.6,-19.74 538.3,-28.26 544.99,-30.33"/>
</g>
<!-- Node21&#45;&gt;Node11 -->
<g id="edge22" class="edge">
<title>Node21&#45;&gt;Node11</title>
<path fill="none" stroke="midnightblue" d="M1972.4,-197.13C1739.19,-190.5 1035.62,-164.2 972,-87 963.24,-76.37 964.18,-67.35 972,-56 991.08,-28.3 1029.66,-17.64 1057.53,-13.54"/>
<polygon fill="midnightblue" stroke="midnightblue" points="1058.13,-17 1067.62,-12.27 1057.26,-10.05 1058.13,-17"/>
</g>
<!-- Node21&#45;&gt;Node16 -->
<g id="edge55" class="edge">
<title>Node21&#45;&gt;Node16</title>
<path fill="none" stroke="midnightblue" d="M2106.44,-190.47C2164,-181.99 2253.68,-168.24 2331,-154 2337.55,-152.79 2344.44,-151.44 2351.22,-150.07"/>
<polygon fill="midnightblue" stroke="midnightblue" points="2351.94,-153.49 2361.02,-148.05 2350.52,-146.64 2351.94,-153.49"/>
</g>
<!-- Node22 -->
<g id="node22" class="node">
<title>Node22</title>
<g id="a_node22"><a xlink:href="_field_desc_types_8_h.html" target="_top" xlink:title=" ">
<polygon fill="white" stroke="black" points="1997,-0.5 1997,-19.5 2173,-19.5 2173,-0.5 1997,-0.5"/>
<text text-anchor="middle" x="2085" y="-7.5" font-family="Helvetica,sans-Serif" font-size="10.00">amr&#45;wind/core/FieldDescTypes.H</text>
</a>
</g>
</g>
<!-- Node21&#45;&gt;Node22 -->
<g id="edge24" class="edge">
<title>Node21&#45;&gt;Node22</title>
<path fill="none" stroke="midnightblue" d="M2110.49,-190.5C2171.83,-181.72 2260,-167.44 2292,-154 2314.05,-144.73 2313.91,-132.17 2336,-123 2421.84,-87.37 2482.2,-158.15 2542,-87 2550.86,-76.45 2551.25,-66.21 2542,-56 2518.4,-29.96 2310.45,-18.44 2183.34,-13.79"/>
<polygon fill="midnightblue" stroke="midnightblue" points="2183.31,-10.29 2173.19,-13.43 2183.06,-17.29 2183.31,-10.29"/>
</g>
<!-- Node23 -->
<g id="node23" class="node">
<title>Node23</title>
<g id="a_node23"><a xlink:href="_field_utils_8_h.html" target="_top" xlink:title=" ">
<polygon fill="white" stroke="black" points="2387,-62 2387,-81 2533,-81 2533,-62 2387,-62"/>
<text text-anchor="middle" x="2460" y="-69" font-family="Helvetica,sans-Serif" font-size="10.00">amr&#45;wind/core/FieldUtils.H</text>
</a>
</g>
</g>
<!-- Node21&#45;&gt;Node23 -->
<g id="edge25" class="edge">
<title>Node21&#45;&gt;Node23</title>
<path fill="none" stroke="midnightblue" d="M2114.51,-190.44C2155.86,-183.72 2209.25,-172.35 2254,-154 2277.84,-144.22 2279.66,-133.92 2303,-123 2339.39,-105.97 2383.05,-92.44 2415.09,-83.69"/>
<polygon fill="midnightblue" stroke="midnightblue" points="2416.3,-86.98 2425.05,-81.01 2414.49,-80.22 2416.3,-86.98"/>
</g>
<!-- Node24 -->
<g id="node24" class="node">
<title>Node24</title>
<g id="a_node24"><a xlink:title=" ">
<polygon fill="white" stroke="#bfbfbf" points="1770.5,-0.5 1770.5,-19.5 1879.5,-19.5 1879.5,-0.5 1770.5,-0.5"/>
<text text-anchor="middle" x="1825" y="-7.5" font-family="Helvetica,sans-Serif" font-size="10.00">AMReX_MultiFab.H</text>
</a>
</g>
</g>
<!-- Node21&#45;&gt;Node24 -->
<g id="edge56" class="edge">
<title>Node21&#45;&gt;Node24</title>
<path fill="none" stroke="midnightblue" d="M2047.28,-190.46C2047.61,-165.76 2045.03,-93.66 2006,-56 1989.32,-39.9 1934.69,-27.74 1889.77,-20.14"/>
<polygon fill="midnightblue" stroke="midnightblue" points="1890.2,-16.66 1879.76,-18.49 1889.06,-23.57 1890.2,-16.66"/>
</g>
<!-- Node26 -->
<g id="node26" class="node">
<title>Node26</title>
<g id="a_node26"><a xlink:href="_field_8_h.html" target="_top" xlink:title=" ">
<polygon fill="white" stroke="black" points="1325,-129 1325,-148 1449,-148 1449,-129 1325,-129"/>
<text text-anchor="middle" x="1387" y="-136" font-family="Helvetica,sans-Serif" font-size="10.00">amr&#45;wind/core/Field.H</text>
</a>
</g>
</g>
<!-- Node21&#45;&gt;Node26 -->
<g id="edge29" class="edge">
<title>Node21&#45;&gt;Node26</title>
<path fill="none" stroke="midnightblue" d="M1972.25,-192.26C1844.56,-180.75 1585.98,-157.44 1459.7,-146.05"/>
<polygon fill="midnightblue" stroke="midnightblue" points="1459.64,-142.53 1449.37,-145.12 1459.02,-149.51 1459.64,-142.53"/>
</g>
<!-- Node33 -->
<g id="node33" class="node">
<title>Node33</title>
<g id="a_node33"><a xlink:href="_int_field_8_h.html" target="_top" xlink:title=" ">
<polygon fill="white" stroke="black" points="2075.5,-129 2075.5,-148 2212.5,-148 2212.5,-129 2075.5,-129"/>
<text text-anchor="middle" x="2144" y="-136" font-family="Helvetica,sans-Serif" font-size="10.00">amr&#45;wind/core/IntField.H</text>
</a>
</g>
</g>
<!-- Node21&#45;&gt;Node33 -->
<g id="edge44" class="edge">
<title>Node21&#45;&gt;Node33</title>
<path fill="none" stroke="midnightblue" d="M2060.9,-190.48C2076.67,-180.8 2102.64,-164.87 2121.35,-153.39"/>
<polygon fill="midnightblue" stroke="midnightblue" points="2123.43,-156.22 2130.13,-148.01 2119.77,-150.25 2123.43,-156.22"/>
</g>
<!-- Node34 -->
<g id="node34" class="node">
<title>Node34</title>
<g id="a_node34"><a xlink:title=" ">
<polygon fill="white" stroke="#bfbfbf" points="2257,-62 2257,-81 2369,-81 2369,-62 2257,-62"/>
<text text-anchor="middle" x="2313" y="-69" font-family="Helvetica,sans-Serif" font-size="10.00">AMReX_iMultiFab.H</text>
</a>
</g>
</g>
<!-- Node21&#45;&gt;Node34 -->
<g id="edge57" class="edge">
<title>Node21&#45;&gt;Node34</title>
<path fill="none" stroke="midnightblue" d="M2109.17,-190.47C2143.86,-183.92 2187.01,-172.71 2222,-154 2238.58,-145.13 2275.86,-109.44 2297.2,-88.34"/>
<polygon fill="midnightblue" stroke="midnightblue" points="2299.91,-90.59 2304.53,-81.06 2294.97,-85.63 2299.91,-90.59"/>
</g>
<!-- Node35 -->
<g id="node35" class="node">
<title>Node35</title>
<g id="a_node35"><a xlink:href="_scratch_field_8_h.html" target="_top" xlink:title=" ">
<polygon fill="white" stroke="black" points="1835,-129 1835,-148 1995,-148 1995,-129 1835,-129"/>
<text text-anchor="middle" x="1915" y="-136" font-family="Helvetica,sans-Serif" font-size="10.00">amr&#45;wind/core/ScratchField.H</text>
</a>
</g>
</g>
<!-- Node21&#45;&gt;Node35 -->
<g id="edge48" class="edge">
<title>Node21&#45;&gt;Node35</title>
<path fill="none" stroke="midnightblue" d="M2028.09,-190.48C2005.84,-180.45 1968.69,-163.7 1943.07,-152.15"/>
<polygon fill="midnightblue" stroke="midnightblue" points="1944.43,-148.93 1933.88,-148.01 1941.56,-155.31 1944.43,-148.93"/>
</g>
<!-- Node23&#45;&gt;Node22 -->
<g id="edge26" class="edge">
<title>Node23&#45;&gt;Node22</title>
<path fill="none" stroke="midnightblue" d="M2412.77,-61.96C2401.39,-59.95 2389.27,-57.86 2378,-56 2301.08,-43.29 2212.6,-29.87 2153.17,-21.02"/>
<polygon fill="midnightblue" stroke="midnightblue" points="2153.56,-17.54 2143.16,-19.54 2152.53,-24.47 2153.56,-17.54"/>
</g>
<!-- Node23&#45;&gt;Node24 -->
<g id="edge27" class="edge">
<title>Node23&#45;&gt;Node24</title>
<path fill="none" stroke="midnightblue" d="M2416.28,-61.99C2403.94,-59.8 2390.47,-57.61 2378,-56 2202.28,-33.36 1993.59,-20.03 1890.02,-14.31"/>
<polygon fill="midnightblue" stroke="midnightblue" points="1889.91,-10.8 1879.73,-13.75 1889.52,-17.79 1889.91,-10.8"/>
</g>
<!-- Node25 -->
<g id="node25" class="node">
<title>Node25</title>
<g id="a_node25"><a xlink:title=" ">
<polygon fill="white" stroke="#bfbfbf" points="2398,-0.5 2398,-19.5 2522,-19.5 2522,-0.5 2398,-0.5"/>
<text text-anchor="middle" x="2460" y="-7.5" font-family="Helvetica,sans-Serif" font-size="10.00">AMReX_Interpolater.H</text>
</a>
</g>
</g>
<!-- Node23&#45;&gt;Node25 -->
<g id="edge28" class="edge">
<title>Node23&#45;&gt;Node25</title>
<path fill="none" stroke="midnightblue" d="M2460,-61.98C2460,-53.58 2460,-40.48 2460,-29.66"/>
<polygon fill="midnightblue" stroke="midnightblue" points="2463.5,-29.51 2460,-19.51 2456.5,-29.51 2463.5,-29.51"/>
</g>
<!-- Node26&#45;&gt;Node5 -->
<g id="edge31" class="edge">
<title>Node26&#45;&gt;Node5</title>
<path fill="none" stroke="midnightblue" d="M1327.24,-128.97C1284.19,-121.45 1225.39,-108.29 1177,-87 1154.43,-77.07 1154.22,-64.28 1131,-56 1110.05,-48.53 796.51,-23.04 684.44,-14.12"/>
<polygon fill="midnightblue" stroke="midnightblue" points="684.49,-10.61 674.25,-13.31 683.94,-17.59 684.49,-10.61"/>
</g>
<!-- Node26&#45;&gt;Node6 -->
<g id="edge32" class="edge">
<title>Node26&#45;&gt;Node6</title>
<path fill="none" stroke="midnightblue" d="M1324.9,-135.67C1138.7,-129.92 596.05,-111.15 567,-87 550.45,-73.24 547.1,-47.45 546.96,-29.76"/>
<polygon fill="midnightblue" stroke="midnightblue" points="550.46,-29.83 547.2,-19.74 543.46,-29.66 550.46,-29.83"/>
</g>
<!-- Node26&#45;&gt;Node11 -->
<g id="edge30" class="edge">
<title>Node26&#45;&gt;Node11</title>
<path fill="none" stroke="midnightblue" d="M1360.42,-128.95C1331.83,-119.52 1285.18,-103.5 1246,-87 1198.9,-67.16 1145.72,-40.24 1115.2,-24.34"/>
<polygon fill="midnightblue" stroke="midnightblue" points="1116.61,-21.12 1106.12,-19.58 1113.36,-27.33 1116.61,-21.12"/>
</g>
<!-- Node26&#45;&gt;Node22 -->
<g id="edge38" class="edge">
<title>Node26&#45;&gt;Node22</title>
<path fill="none" stroke="midnightblue" d="M1449.03,-133.39C1523.55,-127.48 1651.91,-114.14 1759,-87 1796.77,-77.43 1803.47,-66.46 1841,-56 1897.36,-40.29 1962.61,-28.58 2011.45,-21.05"/>
<polygon fill="midnightblue" stroke="midnightblue" points="2012.25,-24.47 2021.61,-19.51 2011.2,-17.55 2012.25,-24.47"/>
</g>
<!-- Node26&#45;&gt;Node24 -->
<g id="edge34" class="edge">
<title>Node26&#45;&gt;Node24</title>
<path fill="none" stroke="midnightblue" d="M1449.06,-133.27C1511.01,-127.63 1608.22,-114.89 1688,-87 1731.9,-71.65 1778.28,-42.9 1804.24,-25.49"/>
<polygon fill="midnightblue" stroke="midnightblue" points="1806.54,-28.16 1812.84,-19.64 1802.6,-22.38 1806.54,-28.16"/>
</g>
<!-- Node27 -->
<g id="node27" class="node">
<title>Node27</title>
<g id="a_node27"><a xlink:title=" ">
<polygon fill="white" stroke="#bfbfbf" points="1255,-62 1255,-81 1319,-81 1319,-62 1255,-62"/>
<text text-anchor="middle" x="1287" y="-69" font-family="Helvetica,sans-Serif" font-size="10.00">algorithm</text>
</a>
</g>
</g>
<!-- Node26&#45;&gt;Node27 -->
<g id="edge33" class="edge">
<title>Node26&#45;&gt;Node27</title>
<path fill="none" stroke="midnightblue" d="M1373.51,-128.73C1356.95,-117.96 1328.62,-99.55 1308.91,-86.74"/>
<polygon fill="midnightblue" stroke="midnightblue" points="1310.56,-83.64 1300.27,-81.13 1306.75,-89.51 1310.56,-83.64"/>
</g>
<!-- Node28 -->
<g id="node28" class="node">
<title>Node28</title>
<g id="a_node28"><a xlink:title=" ">
<polygon fill="white" stroke="#bfbfbf" points="1337.5,-62 1337.5,-81 1436.5,-81 1436.5,-62 1337.5,-62"/>
<text text-anchor="middle" x="1387" y="-69" font-family="Helvetica,sans-Serif" font-size="10.00">AMReX_BCRec.H</text>
</a>
</g>
</g>
<!-- Node26&#45;&gt;Node28 -->
<g id="edge35" class="edge">
<title>Node26&#45;&gt;Node28</title>
<path fill="none" stroke="midnightblue" d="M1387,-128.73C1387,-119.18 1387,-103.62 1387,-91.28"/>
<polygon fill="midnightblue" stroke="midnightblue" points="1390.5,-91.13 1387,-81.13 1383.5,-91.13 1390.5,-91.13"/>
</g>
<!-- Node29 -->
<g id="node29" class="node">
<title>Node29</title>
<g id="a_node29"><a xlink:title=" ">
<polygon fill="white" stroke="#bfbfbf" points="2151.5,-62 2151.5,-81 2238.5,-81 2238.5,-62 2151.5,-62"/>
<text text-anchor="middle" x="2195" y="-69" font-family="Helvetica,sans-Serif" font-size="10.00">AMReX_Gpu.H</text>
</a>
</g>
</g>
<!-- Node26&#45;&gt;Node29 -->
<g id="edge36" class="edge">
<title>Node26&#45;&gt;Node29</title>
<path fill="none" stroke="midnightblue" d="M1449.06,-132.51C1602.28,-120.18 1996.53,-88.47 2140.94,-76.85"/>
<polygon fill="midnightblue" stroke="midnightblue" points="2141.62,-80.31 2151.31,-76.01 2141.06,-73.33 2141.62,-80.31"/>
</g>
<!-- Node30 -->
<g id="node30" class="node">
<title>Node30</title>
<g id="a_node30"><a xlink:href="incflo__enums_8_h.html" target="_top" xlink:title=" ">
<polygon fill="white" stroke="black" points="981.5,-62 981.5,-81 1122.5,-81 1122.5,-62 981.5,-62"/>
<text text-anchor="middle" x="1052" y="-69" font-family="Helvetica,sans-Serif" font-size="10.00">amr&#45;wind/incflo_enums.H</text>
</a>
</g>
</g>
<!-- Node26&#45;&gt;Node30 -->
<g id="edge37" class="edge">
<title>Node26&#45;&gt;Node30</title>
<path fill="none" stroke="midnightblue" d="M1342.86,-128.94C1281.89,-117.11 1172,-95.78 1106.15,-83.01"/>
<polygon fill="midnightblue" stroke="midnightblue" points="1106.45,-79.5 1095.97,-81.03 1105.12,-86.37 1106.45,-79.5"/>
</g>
<!-- Node31 -->
<g id="node31" class="node">
<title>Node31</title>
<g id="a_node31"><a xlink:href="_view_field_8_h.html" target="_top" xlink:title=" ">
<polygon fill="white" stroke="black" points="1531,-62 1531,-81 1679,-81 1679,-62 1531,-62"/>
<text text-anchor="middle" x="1605" y="-69" font-family="Helvetica,sans-Serif" font-size="10.00">amr&#45;wind/core/ViewField.H</text>
</a>
</g>
</g>
<!-- Node26&#45;&gt;Node31 -->
<g id="edge39" class="edge">
<title>Node26&#45;&gt;Node31</title>
<path fill="none" stroke="midnightblue" d="M1415.95,-128.87C1454.66,-117.33 1523.38,-96.84 1566.45,-84"/>
<polygon fill="midnightblue" stroke="midnightblue" points="1567.7,-87.28 1576.28,-81.06 1565.7,-80.57 1567.7,-87.28"/>
</g>
<!-- Node31&#45;&gt;Node11 -->
<g id="edge40" class="edge">
<title>Node31&#45;&gt;Node11</title>
<path fill="none" stroke="midnightblue" d="M1556.2,-61.94C1543.46,-59.85 1529.74,-57.72 1517,-56 1370.14,-36.18 1193.88,-20.01 1122.44,-13.77"/>
<polygon fill="midnightblue" stroke="midnightblue" points="1122.55,-10.26 1112.28,-12.89 1121.94,-17.24 1122.55,-10.26"/>
</g>
<!-- Node31&#45;&gt;Node22 -->
<g id="edge41" class="edge">
<title>Node31&#45;&gt;Node22</title>
<path fill="none" stroke="midnightblue" d="M1673.77,-61.98C1761.72,-51.07 1913.69,-32.24 2006.21,-20.77"/>
<polygon fill="midnightblue" stroke="midnightblue" points="2006.86,-24.21 2016.36,-19.51 2006,-17.27 2006.86,-24.21"/>
</g>
<!-- Node31&#45;&gt;Node24 -->
<g id="edge42" class="edge">
<title>Node31&#45;&gt;Node24</title>
<path fill="none" stroke="midnightblue" d="M1636.52,-61.98C1675.24,-51.5 1741.02,-33.71 1783.74,-22.16"/>
<polygon fill="midnightblue" stroke="midnightblue" points="1784.8,-25.5 1793.54,-19.51 1782.97,-18.74 1784.8,-25.5"/>
</g>
<!-- Node32 -->
<g id="node32" class="node">
<title>Node32</title>
<g id="a_node32"><a xlink:title=" ">
<polygon fill="white" stroke="#bfbfbf" points="1556,-0.5 1556,-19.5 1654,-19.5 1654,-0.5 1556,-0.5"/>
<text text-anchor="middle" x="1605" y="-7.5" font-family="Helvetica,sans-Serif" font-size="10.00">AMReX_Vector.H</text>
</a>
</g>
</g>
<!-- Node31&#45;&gt;Node32 -->
<g id="edge43" class="edge">
<title>Node31&#45;&gt;Node32</title>
<path fill="none" stroke="midnightblue" d="M1605,-61.98C1605,-53.58 1605,-40.48 1605,-29.66"/>
<polygon fill="midnightblue" stroke="midnightblue" points="1608.5,-29.51 1605,-19.51 1601.5,-29.51 1608.5,-29.51"/>
</g>
<!-- Node33&#45;&gt;Node11 -->
<g id="edge45" class="edge">
<title>Node33&#45;&gt;Node11</title>
<path fill="none" stroke="midnightblue" d="M2075.32,-129.99C2052.63,-127.62 2027.24,-125.07 2004,-123 1897.01,-113.47 1622.49,-124.94 1522,-87 1500.63,-78.93 1502.21,-64.49 1481,-56 1415.89,-29.92 1203.78,-16.73 1122.29,-12.53"/>
<polygon fill="midnightblue" stroke="midnightblue" points="1122.29,-9.02 1112.13,-12.02 1121.94,-16.01 1122.29,-9.02"/>
</g>
<!-- Node33&#45;&gt;Node22 -->
<g id="edge46" class="edge">
<title>Node33&#45;&gt;Node22</title>
<path fill="none" stroke="midnightblue" d="M2139.94,-128.81C2130.39,-108.31 2106.29,-56.65 2093.41,-29.04"/>
<polygon fill="midnightblue" stroke="midnightblue" points="2096.48,-27.34 2089.08,-19.76 2090.14,-30.3 2096.48,-27.34"/>
</g>
<!-- Node33&#45;&gt;Node34 -->
<g id="edge47" class="edge">
<title>Node33&#45;&gt;Node34</title>
<path fill="none" stroke="midnightblue" d="M2166.44,-128.87C2195.82,-117.57 2247.49,-97.7 2280.97,-84.82"/>
<polygon fill="midnightblue" stroke="midnightblue" points="2282.66,-87.92 2290.73,-81.06 2280.14,-81.39 2282.66,-87.92"/>
</g>
<!-- Node35&#45;&gt;Node11 -->
<g id="edge49" class="edge">
<title>Node35&#45;&gt;Node11</title>
<path fill="none" stroke="midnightblue" d="M1834.99,-132.81C1729.54,-125.82 1550.25,-110.85 1489,-87 1467.05,-78.45 1467.92,-64.63 1446,-56 1387.3,-32.88 1198.65,-18.18 1122.41,-13.04"/>
<polygon fill="midnightblue" stroke="midnightblue" points="1122.22,-9.52 1112.01,-12.36 1121.76,-16.51 1122.22,-9.52"/>
</g>
<!-- Node35&#45;&gt;Node22 -->
<g id="edge50" class="edge">
<title>Node35&#45;&gt;Node22</title>
<path fill="none" stroke="midnightblue" d="M1933.63,-128.94C1952.64,-119.8 1982.6,-104.29 2006,-87 2030.51,-68.89 2055.26,-43.71 2070.36,-27.38"/>
<polygon fill="midnightblue" stroke="midnightblue" points="2073.18,-29.49 2077.33,-19.74 2068.01,-24.77 2073.18,-29.49"/>
</g>
<!-- Node35&#45;&gt;Node24 -->
<g id="edge52" class="edge">
<title>Node35&#45;&gt;Node24</title>
<path fill="none" stroke="midnightblue" d="M1938.32,-128.91C1956.04,-121 1979.16,-107.37 1990,-87 1996.47,-74.84 1998.36,-66.95 1990,-56 1977.55,-39.71 1930.51,-27.89 1889.83,-20.47"/>
<polygon fill="midnightblue" stroke="midnightblue" points="1890.37,-17.01 1879.91,-18.73 1889.16,-23.91 1890.37,-17.01"/>
</g>
<!-- Node35&#45;&gt;Node31 -->
<g id="edge51" class="edge">
<title>Node35&#45;&gt;Node31</title>
<path fill="none" stroke="midnightblue" d="M1874.15,-128.94C1817.93,-117.15 1716.75,-95.93 1655.74,-83.14"/>
<polygon fill="midnightblue" stroke="midnightblue" points="1656.44,-79.71 1645.94,-81.08 1655.01,-86.56 1656.44,-79.71"/>
</g>
<!-- Node35&#45;&gt;Node32 -->
<g id="edge53" class="edge">
<title>Node35&#45;&gt;Node32</title>
<path fill="none" stroke="midnightblue" d="M1893.69,-128.81C1839.81,-106.82 1697.95,-48.93 1635.38,-23.4"/>
<polygon fill="midnightblue" stroke="midnightblue" points="1636.63,-20.13 1626.05,-19.59 1633.98,-26.61 1636.63,-20.13"/>
</g>
<!-- Node36 -->
<g id="node36" class="node">
<title>Node36</title>
<g id="a_node36"><a xlink:title=" ">
<polygon fill="white" stroke="#bfbfbf" points="1849.5,-62 1849.5,-81 1980.5,-81 1980.5,-62 1849.5,-62"/>
<text text-anchor="middle" x="1915" y="-69" font-family="Helvetica,sans-Serif" font-size="10.00">AMReX_PhysBCFunct.H</text>
</a>
</g>
</g>
<!-- Node35&#45;&gt;Node36 -->
<g id="edge54" class="edge">
<title>Node35&#45;&gt;Node36</title>
<path fill="none" stroke="midnightblue" d="M1915,-128.73C1915,-119.18 1915,-103.62 1915,-91.28"/>
<polygon fill="midnightblue" stroke="midnightblue" points="1918.5,-91.13 1915,-81.13 1911.5,-91.13 1918.5,-91.13"/>
</g>
<!-- Node37&#45;&gt;Node4 -->
<g id="edge60" class="edge">
<title>Node37&#45;&gt;Node4</title>
<path fill="none" stroke="midnightblue" d="M813.46,-126.91C723.25,-114.59 575.47,-94.41 487.48,-82.4"/>
<polygon fill="midnightblue" stroke="midnightblue" points="487.69,-78.89 477.31,-81.01 486.75,-85.83 487.69,-78.89"/>
</g>
<!-- Node37&#45;&gt;Node11 -->
<g id="edge59" class="edge">
<title>Node37&#45;&gt;Node11</title>
<path fill="none" stroke="midnightblue" d="M895.69,-123.19C902.41,-104.93 916.5,-73.61 939,-56 973.89,-28.69 1025.08,-17.93 1057.97,-13.7"/>
<polygon fill="midnightblue" stroke="midnightblue" points="1058.43,-17.17 1067.97,-12.55 1057.63,-10.22 1058.43,-17.17"/>
</g>
<!-- Node37&#45;&gt;Node22 -->
<g id="edge68" class="edge">
<title>Node37&#45;&gt;Node22</title>
<path fill="none" stroke="midnightblue" d="M968.82,-134.11C1155.69,-125.74 1619.4,-103.6 1688,-87 1721.47,-78.9 1725.86,-65.33 1759,-56 1833.78,-34.95 1921.09,-23.56 1986.53,-17.52"/>
<polygon fill="midnightblue" stroke="midnightblue" points="1987.19,-20.97 1996.84,-16.59 1986.57,-14 1987.19,-20.97"/>
</g>
<!-- Node37&#45;&gt;Node30 -->
<g id="edge69" class="edge">
<title>Node37&#45;&gt;Node30</title>
<path fill="none" stroke="midnightblue" d="M925.93,-123.4C954.43,-111.89 994.29,-95.8 1021.52,-84.81"/>
<polygon fill="midnightblue" stroke="midnightblue" points="1022.97,-88 1030.93,-81.01 1020.35,-81.51 1022.97,-88"/>
</g>
<!-- Node38 -->
<g id="node38" class="node">
<title>Node38</title>
<g id="a_node38"><a xlink:href="_coll_mgr_8_h.html" target="_top" xlink:title=" ">
<polygon fill="white" stroke="black" points="576.5,-62 576.5,-81 713.5,-81 713.5,-62 576.5,-62"/>
<text text-anchor="middle" x="645" y="-69" font-family="Helvetica,sans-Serif" font-size="10.00">amr&#45;wind/core/CollMgr.H</text>
</a>
</g>
</g>
<!-- Node37&#45;&gt;Node38 -->
<g id="edge61" class="edge">
<title>Node37&#45;&gt;Node38</title>
<path fill="none" stroke="midnightblue" d="M837.92,-123.48C792.78,-111.55 728.81,-94.64 687.11,-83.63"/>
<polygon fill="midnightblue" stroke="midnightblue" points="687.84,-80.2 677.28,-81.03 686.05,-86.97 687.84,-80.2"/>
</g>
<!-- Node39 -->
<g id="node39" class="node">
<title>Node39</title>
<g id="a_node39"><a xlink:href="_p_d_e_fields_8_h.html" target="_top" xlink:title=" ">
<polygon fill="white" stroke="black" points="731.5,-56.5 731.5,-86.5 886.5,-86.5 886.5,-56.5 731.5,-56.5"/>
<text text-anchor="start" x="739.5" y="-74.5" font-family="Helvetica,sans-Serif" font-size="10.00">amr&#45;wind/equation_systems</text>
<text text-anchor="middle" x="809" y="-63.5" font-family="Helvetica,sans-Serif" font-size="10.00">/PDEFields.H</text>
</a>
</g>
</g>
<!-- Node37&#45;&gt;Node39 -->
<g id="edge66" class="edge">
<title>Node37&#45;&gt;Node39</title>
<path fill="none" stroke="midnightblue" d="M873.21,-123.4C861.92,-114.45 847.15,-102.74 834.61,-92.8"/>
<polygon fill="midnightblue" stroke="midnightblue" points="836.77,-90.05 826.76,-86.58 832.42,-95.53 836.77,-90.05"/>
</g>
<!-- Node38&#45;&gt;Node5 -->
<g id="edge63" class="edge">
<title>Node38&#45;&gt;Node5</title>
<path fill="none" stroke="midnightblue" d="M645,-61.98C645,-53.58 645,-40.48 645,-29.66"/>
<polygon fill="midnightblue" stroke="midnightblue" points="648.5,-29.51 645,-19.51 641.5,-29.51 648.5,-29.51"/>
</g>
<!-- Node38&#45;&gt;Node6 -->
<g id="edge64" class="edge">
<title>Node38&#45;&gt;Node6</title>
<path fill="none" stroke="midnightblue" d="M631.1,-61.98C615.33,-52.3 589.36,-36.37 570.65,-24.89"/>
<polygon fill="midnightblue" stroke="midnightblue" points="572.23,-21.75 561.87,-19.51 568.57,-27.72 572.23,-21.75"/>
</g>
<!-- Node38&#45;&gt;Node11 -->
<g id="edge62" class="edge">
<title>Node38&#45;&gt;Node11</title>
<path fill="none" stroke="midnightblue" d="M687.68,-61.96C698.83,-59.86 710.84,-57.73 722,-56 845.56,-36.83 993.5,-20.84 1057.67,-14.24"/>
<polygon fill="midnightblue" stroke="midnightblue" points="1058.36,-17.69 1067.95,-13.2 1057.64,-10.73 1058.36,-17.69"/>
</g>
<!-- Node38&#45;&gt;Node32 -->
<g id="edge65" class="edge">
<title>Node38&#45;&gt;Node32</title>
<path fill="none" stroke="midnightblue" d="M684.81,-61.94C696.72,-59.67 709.84,-57.45 722,-56 1030.55,-19.26 1403.26,-12.49 1545.73,-11.26"/>
<polygon fill="midnightblue" stroke="midnightblue" points="1546.01,-14.76 1555.98,-11.18 1545.96,-7.76 1546.01,-14.76"/>
</g>
<!-- Node40 -->
<g id="node40" class="node">
<title>Node40</title>
<g id="a_node40"><a xlink:title=" ">
<polygon fill="white" stroke="#bfbfbf" points="785,-0.5 785,-19.5 833,-19.5 833,-0.5 785,-0.5"/>
<text text-anchor="middle" x="809" y="-7.5" font-family="Helvetica,sans-Serif" font-size="10.00">iosfwd</text>
</a>
</g>
</g>
<!-- Node39&#45;&gt;Node40 -->
<g id="edge67" class="edge">
<title>Node39&#45;&gt;Node40</title>
<path fill="none" stroke="midnightblue" d="M809,-56.4C809,-48.47 809,-38.46 809,-29.86"/>
<polygon fill="midnightblue" stroke="midnightblue" points="812.5,-29.66 809,-19.66 805.5,-29.66 812.5,-29.66"/>
</g>
<!-- Node41&#45;&gt;Node4 -->
<g id="edge71" class="edge">
<title>Node41&#45;&gt;Node4</title>
<path fill="none" stroke="midnightblue" d="M308.33,-128.87C329.1,-117.89 365.19,-98.82 389.57,-85.94"/>
<polygon fill="midnightblue" stroke="midnightblue" points="391.39,-88.93 398.6,-81.17 388.12,-82.75 391.39,-88.93"/>
</g>
<!-- Node41&#45;&gt;Node24 -->
<g id="edge73" class="edge">
<title>Node41&#45;&gt;Node24</title>
<path fill="none" stroke="midnightblue" d="M331.92,-128.99C344.09,-126.69 357.55,-124.44 370,-123 706.34,-83.97 796.47,-139.37 1131,-87 1183.3,-78.81 1193.83,-64.98 1246,-56 1343.23,-39.27 1630.16,-21.82 1759.94,-14.53"/>
<polygon fill="midnightblue" stroke="midnightblue" points="1760.35,-18.01 1770.14,-13.96 1759.96,-11.02 1760.35,-18.01"/>
</g>
<!-- Node41&#45;&gt;Node38 -->
<g id="edge72" class="edge">
<title>Node41&#45;&gt;Node38</title>
<path fill="none" stroke="midnightblue" d="M337.78,-128.97C348.36,-127.01 359.57,-124.93 370,-123 445.49,-109.05 532.67,-93.06 588.28,-82.88"/>
<polygon fill="midnightblue" stroke="midnightblue" points="589.08,-86.29 598.28,-81.05 587.82,-79.41 589.08,-86.29"/>
</g>
<!-- Node42 -->
<g id="node42" class="node">
<title>Node42</title>
<g id="a_node42"><a xlink:title=" ">
<polygon fill="white" stroke="#bfbfbf" points="214.5,-62 214.5,-81 329.5,-81 329.5,-62 214.5,-62"/>
<text text-anchor="middle" x="272" y="-69" font-family="Helvetica,sans-Serif" font-size="10.00">AMReX_Geometry.H</text>
</a>
</g>
</g>
<!-- Node41&#45;&gt;Node42 -->
<g id="edge74" class="edge">
<title>Node41&#45;&gt;Node42</title>
<path fill="none" stroke="midnightblue" d="M289.3,-128.73C286.33,-119.09 281.48,-103.3 277.66,-90.91"/>
<polygon fill="midnightblue" stroke="midnightblue" points="280.94,-89.66 274.65,-81.13 274.25,-91.71 280.94,-89.66"/>
</g>
<!-- Node43&#45;&gt;Node29 -->
<g id="edge76" class="edge">
<title>Node43&#45;&gt;Node29</title>
<path fill="none" stroke="midnightblue" d="M1070.58,-247.32C1073.42,-246.82 1076.24,-246.37 1079,-246 1569.88,-179.47 1701.08,-268.34 2193,-210 2315.13,-195.52 2386.33,-249.36 2464,-154 2561.36,-34.46 2634.17,-171.78 2248,-87 2243.35,-85.98 2238.5,-84.81 2233.71,-83.58"/>
<polygon fill="midnightblue" stroke="midnightblue" points="2234.59,-80.19 2224.03,-81.01 2232.8,-86.96 2234.59,-80.19"/>
</g>
</g>
</svg>
