<?xml version="1.0" encoding="UTF-8" standalone="no"?>
<!DOCTYPE svg PUBLIC "-//W3C//DTD SVG 1.1//EN"
 "http://www.w3.org/Graphics/SVG/1.1/DTD/svg11.dtd">
<!-- Generated by graphviz version 2.43.0 (0)
 -->
<!-- Title: MeshMap.H Pages: 1 -->
<svg width="4922pt" height="252pt"
 viewBox="0.00 0.00 4921.50 252.00" xmlns="http://www.w3.org/2000/svg" xmlns:xlink="http://www.w3.org/1999/xlink">
<g id="graph0" class="graph" transform="scale(1 1) rotate(0) translate(4 248)">
<title>MeshMap.H</title>
<polygon fill="white" stroke="transparent" points="-4,4 -4,-248 4917.5,-248 4917.5,4 -4,4"/>
<!-- Node1 -->
<g id="node1" class="node">
<title>Node1</title>
<g id="a_node1"><a xlink:title=" ">
<polygon fill="#bfbfbf" stroke="black" points="2643,-224.5 2643,-243.5 2717,-243.5 2717,-224.5 2643,-224.5"/>
<text text-anchor="middle" x="2680" y="-231.5" font-family="Helvetica,sans-Serif" font-size="10.00">MeshMap.H</text>
</a>
</g>
</g>
<!-- Node2 -->
<g id="node2" class="node">
<title>Node2</title>
<g id="a_node2"><a xlink:href="_c_f_d_sim_8_h.html" target="_top" xlink:title=" ">
<polygon fill="white" stroke="red" points="2594,-168.5 2594,-187.5 2660,-187.5 2660,-168.5 2594,-168.5"/>
<text text-anchor="middle" x="2627" y="-175.5" font-family="Helvetica,sans-Serif" font-size="10.00">CFDSim.H</text>
</a>
</g>
</g>
<!-- Node1&#45;&gt;Node2 -->
<g id="edge1" class="edge">
<title>Node1&#45;&gt;Node2</title>
<path fill="none" stroke="midnightblue" d="M2664.02,-216.72C2654.68,-207.2 2643.25,-195.56 2635.59,-187.75"/>
<polygon fill="midnightblue" stroke="midnightblue" points="2661.75,-219.4 2671.25,-224.08 2666.74,-214.49 2661.75,-219.4"/>
</g>
<!-- Node8 -->
<g id="node7" class="node">
<title>Node8</title>
<g id="a_node7"><a xlink:href="_mesh_map_8cpp.html" target="_top" xlink:title=" ">
<polygon fill="white" stroke="black" points="0,-112.5 0,-131.5 84,-131.5 84,-112.5 0,-112.5"/>
<text text-anchor="middle" x="42" y="-119.5" font-family="Helvetica,sans-Serif" font-size="10.00">MeshMap.cpp</text>
</a>
</g>
</g>
<!-- Node1&#45;&gt;Node8 -->
<g id="edge57" class="edge">
<title>Node1&#45;&gt;Node8</title>
<path fill="none" stroke="midnightblue" d="M2632.6,-233.27C2375.11,-234.28 1118.39,-233.58 98,-132 93.49,-131.55 88.8,-130.97 84.13,-130.33"/>
<polygon fill="midnightblue" stroke="midnightblue" points="2632.75,-236.77 2642.73,-233.23 2632.72,-229.77 2632.75,-236.77"/>
</g>
<!-- Node254 -->
<g id="node49" class="node">
<title>Node254</title>
<g id="a_node49"><a xlink:href="_channel_flow_map_8_h.html" target="_top" xlink:title=" ">
<polygon fill="white" stroke="red" points="2678.5,-168.5 2678.5,-187.5 2789.5,-187.5 2789.5,-168.5 2678.5,-168.5"/>
<text text-anchor="middle" x="2734" y="-175.5" font-family="Helvetica,sans-Serif" font-size="10.00">ChannelFlowMap.H</text>
</a>
</g>
</g>
<!-- Node1&#45;&gt;Node254 -->
<g id="edge58" class="edge">
<title>Node1&#45;&gt;Node254</title>
<path fill="none" stroke="midnightblue" d="M2696,-217C2705.57,-207.43 2717.36,-195.64 2725.25,-187.75"/>
<polygon fill="midnightblue" stroke="midnightblue" points="2693.51,-214.54 2688.92,-224.08 2698.46,-219.49 2693.51,-214.54"/>
</g>
<!-- Node256 -->
<g id="node50" class="node">
<title>Node256</title>
<g id="a_node50"><a xlink:href="_constant_map_8_h.html" target="_top" xlink:title=" ">
<polygon fill="white" stroke="red" points="2808,-168.5 2808,-187.5 2900,-187.5 2900,-168.5 2808,-168.5"/>
<text text-anchor="middle" x="2854" y="-175.5" font-family="Helvetica,sans-Serif" font-size="10.00">ConstantMap.H</text>
</a>
</g>
</g>
<!-- Node1&#45;&gt;Node256 -->
<g id="edge59" class="edge">
<title>Node1&#45;&gt;Node256</title>
<path fill="none" stroke="midnightblue" d="M2717.26,-221.44C2750.07,-211.26 2797.08,-196.66 2826.56,-187.52"/>
<polygon fill="midnightblue" stroke="midnightblue" points="2716.08,-218.14 2707.57,-224.44 2718.16,-224.82 2716.08,-218.14"/>
</g>
<!-- Node3 -->
<g id="node3" class="node">
<title>Node3</title>
<g id="a_node3"><a xlink:href="_wall_function_8_h.html" target="_top" xlink:title=" ">
<polygon fill="white" stroke="red" points="2284.5,-112.5 2284.5,-131.5 2373.5,-131.5 2373.5,-112.5 2284.5,-112.5"/>
<text text-anchor="middle" x="2329" y="-119.5" font-family="Helvetica,sans-Serif" font-size="10.00">WallFunction.H</text>
</a>
</g>
</g>
<!-- Node2&#45;&gt;Node3 -->
<g id="edge2" class="edge">
<title>Node2&#45;&gt;Node3</title>
<path fill="none" stroke="midnightblue" d="M2584,-169.21C2527.94,-159.05 2430.36,-141.37 2373.54,-131.07"/>
<polygon fill="midnightblue" stroke="midnightblue" points="2583.51,-172.68 2593.97,-171.01 2584.75,-165.79 2583.51,-172.68"/>
</g>
<!-- Node5 -->
<g id="node4" class="node">
<title>Node5</title>
<g id="a_node4"><a xlink:href="_channel_flow_8_h.html" target="_top" xlink:title=" ">
<polygon fill="white" stroke="black" points="2284.5,-56.5 2284.5,-75.5 2373.5,-75.5 2373.5,-56.5 2284.5,-56.5"/>
<text text-anchor="middle" x="2329" y="-63.5" font-family="Helvetica,sans-Serif" font-size="10.00">ChannelFlow.H</text>
</a>
</g>
</g>
<!-- Node2&#45;&gt;Node5 -->
<g id="edge48" class="edge">
<title>Node2&#45;&gt;Node5</title>
<path fill="none" stroke="midnightblue" d="M2595.43,-164.71C2573.72,-156.05 2544.34,-143.92 2519,-132 2501.73,-123.88 2498.68,-119.19 2481,-112 2442.38,-96.3 2396.23,-83.42 2365,-75.52"/>
<polygon fill="midnightblue" stroke="midnightblue" points="2594.24,-168.01 2604.82,-168.43 2596.81,-161.5 2594.24,-168.01"/>
</g>
<!-- Node6 -->
<g id="node5" class="node">
<title>Node6</title>
<g id="a_node5"><a xlink:href="_channel_flow_8cpp.html" target="_top" xlink:title=" ">
<polygon fill="white" stroke="black" points="1170.5,-0.5 1170.5,-19.5 1269.5,-19.5 1269.5,-0.5 1170.5,-0.5"/>
<text text-anchor="middle" x="1220" y="-7.5" font-family="Helvetica,sans-Serif" font-size="10.00">ChannelFlow.cpp</text>
</a>
</g>
</g>
<!-- Node2&#45;&gt;Node6 -->
<g id="edge47" class="edge">
<title>Node2&#45;&gt;Node6</title>
<path fill="none" stroke="midnightblue" d="M2583.22,-177.05C2255.93,-177.29 203.21,-177.02 159,-132 15.97,13.66 408.84,-76.06 612,-56 818.98,-35.56 1066.43,-19.99 1170.28,-13.85"/>
<polygon fill="midnightblue" stroke="midnightblue" points="2583.7,-180.55 2593.7,-177.04 2583.69,-173.55 2583.7,-180.55"/>
</g>
<!-- Node7 -->
<g id="node6" class="node">
<title>Node7</title>
<g id="a_node6"><a xlink:href="_c_f_d_sim_8cpp.html" target="_top" xlink:title=" ">
<polygon fill="white" stroke="black" points="178,-112.5 178,-131.5 254,-131.5 254,-112.5 178,-112.5"/>
<text text-anchor="middle" x="216" y="-119.5" font-family="Helvetica,sans-Serif" font-size="10.00">CFDSim.cpp</text>
</a>
</g>
</g>
<!-- Node2&#45;&gt;Node7 -->
<g id="edge5" class="edge">
<title>Node2&#45;&gt;Node7</title>
<path fill="none" stroke="midnightblue" d="M2583.78,-176.62C2282.58,-173.92 502.06,-156.98 263,-132 260.11,-131.7 257.13,-131.31 254.14,-130.87"/>
<polygon fill="midnightblue" stroke="midnightblue" points="2583.83,-180.12 2593.86,-176.71 2583.9,-173.12 2583.83,-180.12"/>
</g>
<!-- Node2&#45;&gt;Node8 -->
<g id="edge6" class="edge">
<title>Node2&#45;&gt;Node8</title>
<path fill="none" stroke="midnightblue" d="M2583.75,-176.6C2270.55,-173.66 354.93,-154.82 98,-132 93.49,-131.6 88.79,-131.05 84.12,-130.42"/>
<polygon fill="midnightblue" stroke="midnightblue" points="2583.77,-180.1 2593.8,-176.69 2583.83,-173.1 2583.77,-180.1"/>
</g>
<!-- Node9 -->
<g id="node8" class="node">
<title>Node9</title>
<g id="a_node8"><a xlink:href="_a_b_l_forcing_8cpp.html" target="_top" xlink:title=" ">
<polygon fill="white" stroke="black" points="272.5,-112.5 272.5,-131.5 363.5,-131.5 363.5,-112.5 272.5,-112.5"/>
<text text-anchor="middle" x="318" y="-119.5" font-family="Helvetica,sans-Serif" font-size="10.00">ABLForcing.cpp</text>
</a>
</g>
</g>
<!-- Node2&#45;&gt;Node9 -->
<g id="edge7" class="edge">
<title>Node2&#45;&gt;Node9</title>
<path fill="none" stroke="midnightblue" d="M2583.29,-176.98C2309.28,-176.7 825.19,-173.3 373,-132 369.92,-131.72 366.74,-131.37 363.55,-130.97"/>
<polygon fill="midnightblue" stroke="midnightblue" points="2583.62,-180.48 2593.62,-176.99 2583.63,-173.48 2583.62,-180.48"/>
</g>
<!-- Node10 -->
<g id="node9" class="node">
<title>Node10</title>
<g id="a_node9"><a xlink:href="_a_b_l_mean_boussinesq_8cpp.html" target="_top" xlink:title=" ">
<polygon fill="white" stroke="black" points="382,-112.5 382,-131.5 520,-131.5 520,-112.5 382,-112.5"/>
<text text-anchor="middle" x="451" y="-119.5" font-family="Helvetica,sans-Serif" font-size="10.00">ABLMeanBoussinesq.cpp</text>
</a>
</g>
</g>
<!-- Node2&#45;&gt;Node10 -->
<g id="edge8" class="edge">
<title>Node2&#45;&gt;Node10</title>
<path fill="none" stroke="midnightblue" d="M2583.48,-176.62C2321.26,-174.26 949.12,-160.68 529,-132 526.14,-131.81 523.23,-131.58 520.29,-131.34"/>
<polygon fill="midnightblue" stroke="midnightblue" points="2583.7,-180.12 2593.74,-176.71 2583.77,-173.12 2583.7,-180.12"/>
</g>
<!-- Node11 -->
<g id="node10" class="node">
<title>Node11</title>
<g id="a_node10"><a xlink:href="_a_b_l_meso_forcing_mom_8cpp.html" target="_top" xlink:title=" ">
<polygon fill="white" stroke="black" points="538,-112.5 538,-131.5 680,-131.5 680,-112.5 538,-112.5"/>
<text text-anchor="middle" x="609" y="-119.5" font-family="Helvetica,sans-Serif" font-size="10.00">ABLMesoForcingMom.cpp</text>
</a>
</g>
</g>
<!-- Node2&#45;&gt;Node11 -->
<g id="edge9" class="edge">
<title>Node2&#45;&gt;Node11</title>
<path fill="none" stroke="midnightblue" d="M2583.67,-176.52C2333.89,-173.66 1075.47,-158.17 689,-132 686.07,-131.8 683.09,-131.58 680.07,-131.33"/>
<polygon fill="midnightblue" stroke="midnightblue" points="2583.77,-180.02 2593.8,-176.63 2583.85,-173.02 2583.77,-180.02"/>
</g>
<!-- Node12 -->
<g id="node11" class="node">
<title>Node12</title>
<g id="a_node11"><a xlink:href="_actuator_forcing_8cpp.html" target="_top" xlink:title=" ">
<polygon fill="white" stroke="black" points="698.5,-112.5 698.5,-131.5 811.5,-131.5 811.5,-112.5 698.5,-112.5"/>
<text text-anchor="middle" x="755" y="-119.5" font-family="Helvetica,sans-Serif" font-size="10.00">ActuatorForcing.cpp</text>
</a>
</g>
</g>
<!-- Node2&#45;&gt;Node12 -->
<g id="edge10" class="edge">
<title>Node2&#45;&gt;Node12</title>
<path fill="none" stroke="midnightblue" d="M2583.6,-176.57C2343.85,-174.1 1179.3,-160.8 821,-132 818,-131.76 814.93,-131.47 811.84,-131.16"/>
<polygon fill="midnightblue" stroke="midnightblue" points="2583.64,-180.07 2593.67,-176.67 2583.71,-173.07 2583.64,-180.07"/>
</g>
<!-- Node13 -->
<g id="node12" class="node">
<title>Node13</title>
<g id="a_node12"><a xlink:href="icns_2source__terms_2_body_force_8cpp.html" target="_top" xlink:title=" ">
<polygon fill="white" stroke="black" points="830,-112.5 830,-131.5 918,-131.5 918,-112.5 830,-112.5"/>
<text text-anchor="middle" x="874" y="-119.5" font-family="Helvetica,sans-Serif" font-size="10.00">BodyForce.cpp</text>
</a>
</g>
</g>
<!-- Node2&#45;&gt;Node13 -->
<g id="edge11" class="edge">
<title>Node2&#45;&gt;Node13</title>
<path fill="none" stroke="midnightblue" d="M2583.95,-176.69C2353.4,-174.89 1262.7,-164.78 927,-132 924.12,-131.72 921.16,-131.37 918.18,-130.98"/>
<polygon fill="midnightblue" stroke="midnightblue" points="2583.94,-180.19 2593.96,-176.77 2583.99,-173.19 2583.94,-180.19"/>
</g>
<!-- Node14 -->
<g id="node13" class="node">
<title>Node14</title>
<g id="a_node13"><a xlink:href="_boussinesq_buoyancy_8cpp.html" target="_top" xlink:title=" ">
<polygon fill="white" stroke="black" points="936.5,-112.5 936.5,-131.5 1075.5,-131.5 1075.5,-112.5 936.5,-112.5"/>
<text text-anchor="middle" x="1006" y="-119.5" font-family="Helvetica,sans-Serif" font-size="10.00">BoussinesqBuoyancy.cpp</text>
</a>
</g>
</g>
<!-- Node2&#45;&gt;Node14 -->
<g id="edge12" class="edge">
<title>Node2&#45;&gt;Node14</title>
<path fill="none" stroke="midnightblue" d="M2583.56,-177.1C2400.88,-177.21 1676.96,-174.78 1084,-132 1081.28,-131.8 1078.51,-131.58 1075.71,-131.34"/>
<polygon fill="midnightblue" stroke="midnightblue" points="2583.83,-180.6 2593.83,-177.09 2583.83,-173.6 2583.83,-180.6"/>
</g>
<!-- Node15 -->
<g id="node14" class="node">
<title>Node15</title>
<g id="a_node14"><a xlink:href="_burggraf_flow_forcing_8cpp.html" target="_top" xlink:title=" ">
<polygon fill="white" stroke="black" points="4079.5,-56.5 4079.5,-75.5 4216.5,-75.5 4216.5,-56.5 4079.5,-56.5"/>
<text text-anchor="middle" x="4148" y="-63.5" font-family="Helvetica,sans-Serif" font-size="10.00">BurggrafFlowForcing.cpp</text>
</a>
</g>
</g>
<!-- Node2&#45;&gt;Node15 -->
<g id="edge13" class="edge">
<title>Node2&#45;&gt;Node15</title>
<path fill="none" stroke="midnightblue" d="M2670.39,-168.45C2820.56,-159.66 4066.44,-180.11 4129,-132 4146.34,-118.67 4148.51,-90.4 4148.4,-75.93"/>
<polygon fill="midnightblue" stroke="midnightblue" points="2670.06,-164.96 2660.38,-169.26 2670.63,-171.94 2670.06,-164.96"/>
</g>
<!-- Node16 -->
<g id="node15" class="node">
<title>Node16</title>
<g id="a_node15"><a xlink:href="_coriolis_forcing_8cpp.html" target="_top" xlink:title=" ">
<polygon fill="white" stroke="black" points="1176.5,-112.5 1176.5,-131.5 1285.5,-131.5 1285.5,-112.5 1176.5,-112.5"/>
<text text-anchor="middle" x="1231" y="-119.5" font-family="Helvetica,sans-Serif" font-size="10.00">CoriolisForcing.cpp</text>
</a>
</g>
</g>
<!-- Node2&#45;&gt;Node16 -->
<g id="edge14" class="edge">
<title>Node2&#45;&gt;Node16</title>
<path fill="none" stroke="midnightblue" d="M2583.6,-177.24C2416.6,-177.79 1799.58,-176.52 1294,-132 1291.25,-131.76 1288.43,-131.48 1285.59,-131.17"/>
<polygon fill="midnightblue" stroke="midnightblue" points="2583.96,-180.74 2593.94,-177.2 2583.93,-173.74 2583.96,-180.74"/>
</g>
<!-- Node17 -->
<g id="node16" class="node">
<title>Node17</title>
<g id="a_node16"><a xlink:href="_density_buoyancy_8cpp.html" target="_top" xlink:title=" ">
<polygon fill="white" stroke="black" points="1303.5,-112.5 1303.5,-131.5 1424.5,-131.5 1424.5,-112.5 1303.5,-112.5"/>
<text text-anchor="middle" x="1364" y="-119.5" font-family="Helvetica,sans-Serif" font-size="10.00">DensityBuoyancy.cpp</text>
</a>
</g>
</g>
<!-- Node2&#45;&gt;Node17 -->
<g id="edge15" class="edge">
<title>Node2&#45;&gt;Node17</title>
<path fill="none" stroke="midnightblue" d="M2583.57,-176.81C2427.66,-175.8 1881.6,-169.63 1433,-132 1430.23,-131.77 1427.4,-131.5 1424.55,-131.22"/>
<polygon fill="midnightblue" stroke="midnightblue" points="2583.67,-180.31 2593.69,-176.87 2583.72,-173.31 2583.67,-180.31"/>
</g>
<!-- Node18 -->
<g id="node17" class="node">
<title>Node18</title>
<g id="a_node17"><a xlink:href="_geostrophic_forcing_8cpp.html" target="_top" xlink:title=" ">
<polygon fill="white" stroke="black" points="1442.5,-112.5 1442.5,-131.5 1573.5,-131.5 1573.5,-112.5 1442.5,-112.5"/>
<text text-anchor="middle" x="1508" y="-119.5" font-family="Helvetica,sans-Serif" font-size="10.00">GeostrophicForcing.cpp</text>
</a>
</g>
</g>
<!-- Node2&#45;&gt;Node18 -->
<g id="edge16" class="edge">
<title>Node2&#45;&gt;Node18</title>
<path fill="none" stroke="midnightblue" d="M2583.45,-176.31C2440.13,-173.8 1970.21,-163.53 1583,-132 1579.99,-131.76 1576.92,-131.48 1573.82,-131.19"/>
<polygon fill="midnightblue" stroke="midnightblue" points="2583.53,-179.81 2593.59,-176.49 2583.65,-172.82 2583.53,-179.81"/>
</g>
<!-- Node19 -->
<g id="node18" class="node">
<title>Node19</title>
<g id="a_node18"><a xlink:href="_gravity_forcing_8cpp.html" target="_top" xlink:title=" ">
<polygon fill="white" stroke="black" points="1592,-112.5 1592,-131.5 1700,-131.5 1700,-112.5 1592,-112.5"/>
<text text-anchor="middle" x="1646" y="-119.5" font-family="Helvetica,sans-Serif" font-size="10.00">GravityForcing.cpp</text>
</a>
</g>
</g>
<!-- Node2&#45;&gt;Node19 -->
<g id="edge17" class="edge">
<title>Node2&#45;&gt;Node19</title>
<path fill="none" stroke="midnightblue" d="M2583.92,-176.31C2452.47,-173.9 2044.98,-164.16 1709,-132 1706.14,-131.73 1703.21,-131.42 1700.26,-131.08"/>
<polygon fill="midnightblue" stroke="midnightblue" points="2583.93,-179.81 2593.99,-176.49 2584.05,-172.81 2583.93,-179.81"/>
</g>
<!-- Node20 -->
<g id="node19" class="node">
<title>Node20</title>
<g id="a_node19"><a xlink:href="_hurricane_forcing_8cpp.html" target="_top" xlink:title=" ">
<polygon fill="white" stroke="black" points="1718.5,-112.5 1718.5,-131.5 1837.5,-131.5 1837.5,-112.5 1718.5,-112.5"/>
<text text-anchor="middle" x="1778" y="-119.5" font-family="Helvetica,sans-Serif" font-size="10.00">HurricaneForcing.cpp</text>
</a>
</g>
</g>
<!-- Node2&#45;&gt;Node20 -->
<g id="edge18" class="edge">
<title>Node2&#45;&gt;Node20</title>
<path fill="none" stroke="midnightblue" d="M2583.77,-175.6C2465.59,-171.54 2127.21,-158.32 1847,-132 1843.99,-131.72 1840.92,-131.4 1837.81,-131.07"/>
<polygon fill="midnightblue" stroke="midnightblue" points="2583.75,-179.1 2593.86,-175.94 2583.99,-172.11 2583.75,-179.1"/>
</g>
<!-- Node21 -->
<g id="node20" class="node">
<title>Node21</title>
<g id="a_node20"><a xlink:href="_non_linear_s_g_s_term_8cpp.html" target="_top" xlink:title=" ">
<polygon fill="white" stroke="black" points="1856,-112.5 1856,-131.5 1986,-131.5 1986,-112.5 1856,-112.5"/>
<text text-anchor="middle" x="1921" y="-119.5" font-family="Helvetica,sans-Serif" font-size="10.00">NonLinearSGSTerm.cpp</text>
</a>
</g>
</g>
<!-- Node2&#45;&gt;Node21 -->
<g id="edge19" class="edge">
<title>Node2&#45;&gt;Node21</title>
<path fill="none" stroke="midnightblue" d="M2583.44,-174.65C2480.79,-168.95 2215.75,-153.27 1995,-132 1992.17,-131.73 1989.27,-131.43 1986.35,-131.13"/>
<polygon fill="midnightblue" stroke="midnightblue" points="2583.54,-178.16 2593.72,-175.22 2583.93,-171.17 2583.54,-178.16"/>
</g>
<!-- Node22 -->
<g id="node21" class="node">
<title>Node22</title>
<g id="a_node21"><a xlink:href="_rayleigh_damping_8cpp.html" target="_top" xlink:title=" ">
<polygon fill="white" stroke="black" points="2004,-112.5 2004,-131.5 2128,-131.5 2128,-112.5 2004,-112.5"/>
<text text-anchor="middle" x="2066" y="-119.5" font-family="Helvetica,sans-Serif" font-size="10.00">RayleighDamping.cpp</text>
</a>
</g>
</g>
<!-- Node2&#45;&gt;Node22 -->
<g id="edge20" class="edge">
<title>Node2&#45;&gt;Node22</title>
<path fill="none" stroke="midnightblue" d="M2583.89,-173.54C2498.51,-166.59 2301.88,-150.02 2137,-132 2134.16,-131.69 2131.26,-131.36 2128.32,-131.02"/>
<polygon fill="midnightblue" stroke="midnightblue" points="2583.73,-177.04 2593.98,-174.36 2584.3,-170.07 2583.73,-177.04"/>
</g>
<!-- Node23 -->
<g id="node22" class="node">
<title>Node23</title>
<g id="a_node22"><a xlink:href="_synth_turb_forcing_8cpp.html" target="_top" xlink:title=" ">
<polygon fill="white" stroke="black" points="2146,-112.5 2146,-131.5 2266,-131.5 2266,-112.5 2146,-112.5"/>
<text text-anchor="middle" x="2206" y="-119.5" font-family="Helvetica,sans-Serif" font-size="10.00">SynthTurbForcing.cpp</text>
</a>
</g>
</g>
<!-- Node2&#45;&gt;Node23 -->
<g id="edge21" class="edge">
<title>Node2&#45;&gt;Node23</title>
<path fill="none" stroke="midnightblue" d="M2583.92,-171.53C2517.56,-163.09 2386.36,-146.38 2275,-132 2272.12,-131.63 2269.18,-131.25 2266.21,-130.86"/>
<polygon fill="midnightblue" stroke="midnightblue" points="2583.63,-175.02 2594,-172.81 2584.52,-168.08 2583.63,-175.02"/>
</g>
<!-- Node24 -->
<g id="node23" class="node">
<title>Node24</title>
<g id="a_node23"><a xlink:href="_p_d_e_8_h.html" target="_top" xlink:title=" ">
<polygon fill="white" stroke="red" points="621.5,-56.5 621.5,-75.5 668.5,-75.5 668.5,-56.5 621.5,-56.5"/>
<text text-anchor="middle" x="645" y="-63.5" font-family="Helvetica,sans-Serif" font-size="10.00">PDE.H</text>
</a>
</g>
</g>
<!-- Node2&#45;&gt;Node24 -->
<g id="edge22" class="edge">
<title>Node2&#45;&gt;Node24</title>
<path fill="none" stroke="midnightblue" d="M2583.49,-176.62C2256.09,-173.7 191.02,-154.43 169,-132 103.55,-65.34 517.08,-65.57 621.48,-66.67"/>
<polygon fill="midnightblue" stroke="midnightblue" points="2583.94,-180.12 2593.97,-176.71 2584,-173.12 2583.94,-180.12"/>
</g>
<!-- Node63 -->
<g id="node24" class="node">
<title>Node63</title>
<g id="a_node24"><a xlink:href="_p_d_e_base_8cpp.html" target="_top" xlink:title=" ">
<polygon fill="white" stroke="black" points="2392,-112.5 2392,-131.5 2472,-131.5 2472,-112.5 2392,-112.5"/>
<text text-anchor="middle" x="2432" y="-119.5" font-family="Helvetica,sans-Serif" font-size="10.00">PDEBase.cpp</text>
</a>
</g>
</g>
<!-- Node2&#45;&gt;Node63 -->
<g id="edge23" class="edge">
<title>Node2&#45;&gt;Node63</title>
<path fill="none" stroke="midnightblue" d="M2586.19,-165.7C2549.39,-155.51 2496.07,-140.74 2462.75,-131.52"/>
<polygon fill="midnightblue" stroke="midnightblue" points="2585.53,-169.15 2596.1,-168.44 2587.4,-162.4 2585.53,-169.15"/>
</g>
<!-- Node64 -->
<g id="node25" class="node">
<title>Node64</title>
<g id="a_node25"><a xlink:href="_p_d_e_ops_8_h.html" target="_top" xlink:title=" ">
<polygon fill="white" stroke="red" points="1093.5,-112.5 1093.5,-131.5 1158.5,-131.5 1158.5,-112.5 1093.5,-112.5"/>
<text text-anchor="middle" x="1126" y="-119.5" font-family="Helvetica,sans-Serif" font-size="10.00">PDEOps.H</text>
</a>
</g>
</g>
<!-- Node2&#45;&gt;Node64 -->
<g id="edge24" class="edge">
<title>Node2&#45;&gt;Node64</title>
<path fill="none" stroke="midnightblue" d="M2583.77,-176.75C2372.99,-175.35 1451.61,-167.31 1167,-132 1164.25,-131.66 1161.42,-131.22 1158.58,-130.72"/>
<polygon fill="midnightblue" stroke="midnightblue" points="2583.81,-180.25 2593.84,-176.81 2583.86,-173.25 2583.81,-180.25"/>
</g>
<!-- Node74 -->
<g id="node26" class="node">
<title>Node74</title>
<g id="a_node26"><a xlink:href="_s_d_r_src_8cpp.html" target="_top" xlink:title=" ">
<polygon fill="white" stroke="black" points="2528,-112.5 2528,-131.5 2600,-131.5 2600,-112.5 2528,-112.5"/>
<text text-anchor="middle" x="2564" y="-119.5" font-family="Helvetica,sans-Serif" font-size="10.00">SDRSrc.cpp</text>
</a>
</g>
</g>
<!-- Node2&#45;&gt;Node74 -->
<g id="edge26" class="edge">
<title>Node2&#45;&gt;Node74</title>
<path fill="none" stroke="midnightblue" d="M2608.96,-161.54C2597.73,-151.91 2583.68,-139.87 2574.31,-131.83"/>
<polygon fill="midnightblue" stroke="midnightblue" points="2607.01,-164.47 2616.88,-168.32 2611.56,-159.16 2607.01,-164.47"/>
</g>
<!-- Node75 -->
<g id="node27" class="node">
<title>Node75</title>
<g id="a_node27"><a xlink:href="_a_b_l_meso_forcing_temp_8cpp.html" target="_top" xlink:title=" ">
<polygon fill="white" stroke="black" points="2618.5,-112.5 2618.5,-131.5 2761.5,-131.5 2761.5,-112.5 2618.5,-112.5"/>
<text text-anchor="middle" x="2690" y="-119.5" font-family="Helvetica,sans-Serif" font-size="10.00">ABLMesoForcingTemp.cpp</text>
</a>
</g>
</g>
<!-- Node2&#45;&gt;Node75 -->
<g id="edge27" class="edge">
<title>Node2&#45;&gt;Node75</title>
<path fill="none" stroke="midnightblue" d="M2645.04,-161.54C2656.27,-151.91 2670.32,-139.87 2679.69,-131.83"/>
<polygon fill="midnightblue" stroke="midnightblue" points="2642.44,-159.16 2637.12,-168.32 2646.99,-164.47 2642.44,-159.16"/>
</g>
<!-- Node76 -->
<g id="node28" class="node">
<title>Node76</title>
<g id="a_node28"><a xlink:href="temperature_2source__terms_2_body_force_8cpp.html" target="_top" xlink:title=" ">
<polygon fill="white" stroke="black" points="2780,-112.5 2780,-131.5 2868,-131.5 2868,-112.5 2780,-112.5"/>
<text text-anchor="middle" x="2824" y="-119.5" font-family="Helvetica,sans-Serif" font-size="10.00">BodyForce.cpp</text>
</a>
</g>
</g>
<!-- Node2&#45;&gt;Node76 -->
<g id="edge28" class="edge">
<title>Node2&#45;&gt;Node76</title>
<path fill="none" stroke="midnightblue" d="M2668.23,-165.7C2705.41,-155.51 2759.27,-140.74 2792.93,-131.52"/>
<polygon fill="midnightblue" stroke="midnightblue" points="2666.93,-162.42 2658.22,-168.44 2668.78,-169.18 2666.93,-162.42"/>
</g>
<!-- Node77 -->
<g id="node29" class="node">
<title>Node77</title>
<g id="a_node29"><a xlink:href="_hurricane_temp_forcing_8cpp.html" target="_top" xlink:title=" ">
<polygon fill="white" stroke="black" points="2886,-112.5 2886,-131.5 3032,-131.5 3032,-112.5 2886,-112.5"/>
<text text-anchor="middle" x="2959" y="-119.5" font-family="Helvetica,sans-Serif" font-size="10.00">HurricaneTempForcing.cpp</text>
</a>
</g>
</g>
<!-- Node2&#45;&gt;Node77 -->
<g id="edge29" class="edge">
<title>Node2&#45;&gt;Node77</title>
<path fill="none" stroke="midnightblue" d="M2670.4,-167.82C2754.43,-152.47 2840.86,-139.57 2897.45,-131.51"/>
<polygon fill="midnightblue" stroke="midnightblue" points="2669.64,-164.4 2660.44,-169.65 2670.9,-171.29 2669.64,-164.4"/>
</g>
<!-- Node78 -->
<g id="node30" class="node">
<title>Node78</title>
<g id="a_node30"><a xlink:href="_ksgs_m84_src_8cpp.html" target="_top" xlink:title=" ">
<polygon fill="white" stroke="black" points="3050,-112.5 3050,-131.5 3146,-131.5 3146,-112.5 3050,-112.5"/>
<text text-anchor="middle" x="3098" y="-119.5" font-family="Helvetica,sans-Serif" font-size="10.00">KsgsM84Src.cpp</text>
</a>
</g>
</g>
<!-- Node2&#45;&gt;Node78 -->
<g id="edge30" class="edge">
<title>Node2&#45;&gt;Node78</title>
<path fill="none" stroke="midnightblue" d="M2670.38,-167.94C2834.87,-142.95 2879.44,-152.55 3041,-132 3043.88,-131.63 3046.84,-131.23 3049.83,-130.81"/>
<polygon fill="midnightblue" stroke="midnightblue" points="2669.76,-164.5 2660.41,-169.48 2670.82,-171.42 2669.76,-164.5"/>
</g>
<!-- Node79 -->
<g id="node31" class="node">
<title>Node79</title>
<g id="a_node31"><a xlink:href="_kw_s_s_t_src_8cpp.html" target="_top" xlink:title=" ">
<polygon fill="white" stroke="black" points="3164.5,-112.5 3164.5,-131.5 3249.5,-131.5 3249.5,-112.5 3164.5,-112.5"/>
<text text-anchor="middle" x="3207" y="-119.5" font-family="Helvetica,sans-Serif" font-size="10.00">KwSSTSrc.cpp</text>
</a>
</g>
</g>
<!-- Node2&#45;&gt;Node79 -->
<g id="edge31" class="edge">
<title>Node2&#45;&gt;Node79</title>
<path fill="none" stroke="midnightblue" d="M2670.41,-167.99C2885.15,-137.87 2943.29,-158.1 3155,-132 3158.09,-131.62 3161.28,-131.18 3164.48,-130.71"/>
<polygon fill="midnightblue" stroke="midnightblue" points="2669.8,-164.54 2660.4,-169.41 2670.79,-171.47 2669.8,-164.54"/>
</g>
<!-- Node80 -->
<g id="node32" class="node">
<title>Node80</title>
<g id="a_node32"><a xlink:href="helics_8_h.html" target="_top" xlink:title=" ">
<polygon fill="white" stroke="red" points="3268,-112.5 3268,-131.5 3324,-131.5 3324,-112.5 3268,-112.5"/>
<text text-anchor="middle" x="3296" y="-119.5" font-family="Helvetica,sans-Serif" font-size="10.00">helics.H</text>
</a>
</g>
</g>
<!-- Node2&#45;&gt;Node80 -->
<g id="edge32" class="edge">
<title>Node2&#45;&gt;Node80</title>
<path fill="none" stroke="midnightblue" d="M2666.79,-167.12C2921.64,-133.37 2992.85,-169.88 3249,-132 3255.04,-131.11 3261.52,-129.73 3267.79,-128.32"/>
<polygon fill="midnightblue" stroke="midnightblue" points="2666.31,-163.65 2656.87,-168.46 2667.24,-170.59 2666.31,-163.65"/>
</g>
<!-- Node82 -->
<g id="node33" class="node">
<title>Node82</title>
<g id="a_node33"><a xlink:href="_i_b_8cpp.html" target="_top" xlink:title=" ">
<polygon fill="white" stroke="black" points="3342.5,-112.5 3342.5,-131.5 3389.5,-131.5 3389.5,-112.5 3342.5,-112.5"/>
<text text-anchor="middle" x="3366" y="-119.5" font-family="Helvetica,sans-Serif" font-size="10.00">IB.cpp</text>
</a>
</g>
</g>
<!-- Node2&#45;&gt;Node82 -->
<g id="edge34" class="edge">
<title>Node2&#45;&gt;Node82</title>
<path fill="none" stroke="midnightblue" d="M2670.46,-168.02C2963.76,-130.03 3044.52,-178.62 3333,-132 3336.05,-131.51 3339.22,-130.84 3342.34,-130.1"/>
<polygon fill="midnightblue" stroke="midnightblue" points="2669.84,-164.57 2660.39,-169.35 2670.76,-171.51 2669.84,-164.57"/>
</g>
<!-- Node83 -->
<g id="node34" class="node">
<title>Node83</title>
<g id="a_node34"><a xlink:href="_i_b_ops_8_h.html" target="_top" xlink:title=" ">
<polygon fill="white" stroke="red" points="3408,-112.5 3408,-131.5 3464,-131.5 3464,-112.5 3408,-112.5"/>
<text text-anchor="middle" x="3436" y="-119.5" font-family="Helvetica,sans-Serif" font-size="10.00">IBOps.H</text>
</a>
</g>
</g>
<!-- Node2&#45;&gt;Node83 -->
<g id="edge35" class="edge">
<title>Node2&#45;&gt;Node83</title>
<path fill="none" stroke="midnightblue" d="M2670.47,-168.03C2992.44,-126.93 3080.12,-177.1 3398,-132 3401.22,-131.54 3404.57,-130.94 3407.89,-130.26"/>
<polygon fill="midnightblue" stroke="midnightblue" points="2669.85,-164.58 2660.39,-169.34 2670.75,-171.52 2669.85,-164.58"/>
</g>
<!-- Node93 -->
<g id="node35" class="node">
<title>Node93</title>
<g id="a_node35"><a xlink:href="incflo_8_h.html" target="_top" xlink:title=" ">
<polygon fill="white" stroke="red" points="3655.5,-56.5 3655.5,-75.5 3708.5,-75.5 3708.5,-56.5 3655.5,-56.5"/>
<text text-anchor="middle" x="3682" y="-63.5" font-family="Helvetica,sans-Serif" font-size="10.00">incflo.H</text>
</a>
</g>
</g>
<!-- Node2&#45;&gt;Node93 -->
<g id="edge36" class="edge">
<title>Node2&#45;&gt;Node93</title>
<path fill="none" stroke="midnightblue" d="M2670.7,-168.47C2800.67,-161.37 3776.95,-176.41 3820,-132 3855.76,-95.11 3758.07,-76.8 3708.65,-70.1"/>
<polygon fill="midnightblue" stroke="midnightblue" points="2670.07,-165.01 2660.38,-169.28 2670.62,-171.99 2670.07,-165.01"/>
</g>
<!-- Node123 -->
<g id="node36" class="node">
<title>Node123</title>
<g id="a_node36"><a xlink:href="_ocean_waves_8cpp.html" target="_top" xlink:title=" ">
<polygon fill="white" stroke="black" points="3584,-112.5 3584,-131.5 3684,-131.5 3684,-112.5 3584,-112.5"/>
<text text-anchor="middle" x="3634" y="-119.5" font-family="Helvetica,sans-Serif" font-size="10.00">OceanWaves.cpp</text>
</a>
</g>
</g>
<!-- Node2&#45;&gt;Node123 -->
<g id="edge37" class="edge">
<title>Node2&#45;&gt;Node123</title>
<path fill="none" stroke="midnightblue" d="M2670.49,-168.04C3070.58,-118.47 3177.18,-170.13 3575,-132 3577.89,-131.72 3580.85,-131.4 3583.84,-131.04"/>
<polygon fill="midnightblue" stroke="midnightblue" points="2669.87,-164.59 2660.38,-169.31 2670.74,-171.54 2669.87,-164.59"/>
</g>
<!-- Node124 -->
<g id="node37" class="node">
<title>Node124</title>
<g id="a_node37"><a xlink:href="_ocean_waves_ops_8_h.html" target="_top" xlink:title=" ">
<polygon fill="white" stroke="red" points="3702.5,-112.5 3702.5,-131.5 3811.5,-131.5 3811.5,-112.5 3702.5,-112.5"/>
<text text-anchor="middle" x="3757" y="-119.5" font-family="Helvetica,sans-Serif" font-size="10.00">OceanWavesOps.H</text>
</a>
</g>
</g>
<!-- Node2&#45;&gt;Node124 -->
<g id="edge38" class="edge">
<title>Node2&#45;&gt;Node124</title>
<path fill="none" stroke="midnightblue" d="M2670.45,-168.05C3122.7,-112.94 3242.67,-171.47 3693,-132 3696.02,-131.74 3699.11,-131.43 3702.23,-131.09"/>
<polygon fill="midnightblue" stroke="midnightblue" points="2669.88,-164.6 2660.38,-169.29 2670.73,-171.55 2669.88,-164.6"/>
</g>
<!-- Node132 -->
<g id="node38" class="node">
<title>Node132</title>
<g id="a_node38"><a xlink:href="_overset_ops_8_h.html" target="_top" xlink:title=" ">
<polygon fill="white" stroke="red" points="3482,-112.5 3482,-131.5 3566,-131.5 3566,-112.5 3482,-112.5"/>
<text text-anchor="middle" x="3524" y="-119.5" font-family="Helvetica,sans-Serif" font-size="10.00">OversetOps.H</text>
</a>
</g>
</g>
<!-- Node2&#45;&gt;Node132 -->
<g id="edge39" class="edge">
<title>Node2&#45;&gt;Node132</title>
<path fill="none" stroke="midnightblue" d="M2670.43,-168.04C3025.53,-123.27 3120.76,-170.8 3473,-132 3475.86,-131.68 3478.8,-131.31 3481.76,-130.89"/>
<polygon fill="midnightblue" stroke="midnightblue" points="2669.86,-164.58 2660.38,-169.32 2670.75,-171.53 2669.86,-164.58"/>
</g>
<!-- Node134 -->
<g id="node39" class="node">
<title>Node134</title>
<g id="a_node39"><a xlink:href="_tioga_interface_8cpp.html" target="_top" xlink:title=" ">
<polygon fill="white" stroke="black" points="3868.5,-112.5 3868.5,-131.5 3975.5,-131.5 3975.5,-112.5 3868.5,-112.5"/>
<text text-anchor="middle" x="3922" y="-119.5" font-family="Helvetica,sans-Serif" font-size="10.00">TiogaInterface.cpp</text>
</a>
</g>
</g>
<!-- Node2&#45;&gt;Node134 -->
<g id="edge41" class="edge">
<title>Node2&#45;&gt;Node134</title>
<path fill="none" stroke="midnightblue" d="M2670.46,-168.06C3193.83,-105.42 3332.15,-174.35 3854,-132 3858.63,-131.62 3863.43,-131.15 3868.23,-130.63"/>
<polygon fill="midnightblue" stroke="midnightblue" points="2669.89,-164.61 2660.38,-169.28 2670.73,-171.55 2669.89,-164.61"/>
</g>
<!-- Node135 -->
<g id="node40" class="node">
<title>Node135</title>
<g id="a_node40"><a xlink:href="_boussinesq_bubble_8cpp.html" target="_top" xlink:title=" ">
<polygon fill="white" stroke="black" points="3994,-112.5 3994,-131.5 4120,-131.5 4120,-112.5 3994,-112.5"/>
<text text-anchor="middle" x="4057" y="-119.5" font-family="Helvetica,sans-Serif" font-size="10.00">BoussinesqBubble.cpp</text>
</a>
</g>
</g>
<!-- Node2&#45;&gt;Node135 -->
<g id="edge42" class="edge">
<title>Node2&#45;&gt;Node135</title>
<path fill="none" stroke="midnightblue" d="M2670.69,-168.04C3251.3,-99.36 3404.4,-175.56 3984,-132 3987.18,-131.76 3990.44,-131.48 3993.73,-131.17"/>
<polygon fill="midnightblue" stroke="midnightblue" points="2669.89,-164.61 2660.38,-169.27 2670.72,-171.56 2669.89,-164.61"/>
</g>
<!-- Node136 -->
<g id="node41" class="node">
<title>Node136</title>
<g id="a_node41"><a xlink:href="_burggraf_flow_8cpp.html" target="_top" xlink:title=" ">
<polygon fill="white" stroke="black" points="4236.5,-56.5 4236.5,-75.5 4337.5,-75.5 4337.5,-56.5 4236.5,-56.5"/>
<text text-anchor="middle" x="4287" y="-63.5" font-family="Helvetica,sans-Serif" font-size="10.00">BurggrafFlow.cpp</text>
</a>
</g>
</g>
<!-- Node2&#45;&gt;Node136 -->
<g id="edge43" class="edge">
<title>Node2&#45;&gt;Node136</title>
<path fill="none" stroke="midnightblue" d="M2670.43,-168.63C2813.33,-162.68 4244.53,-160.49 4277,-132 4292.96,-117.99 4291.01,-90.03 4288.75,-75.78"/>
<polygon fill="midnightblue" stroke="midnightblue" points="2670.14,-165.14 2660.38,-169.25 2670.57,-172.12 2670.14,-165.14"/>
</g>
<!-- Node137 -->
<g id="node42" class="node">
<title>Node137</title>
<g id="a_node42"><a xlink:href="_burggraf_flow_8_h.html" target="_top" xlink:title=" ">
<polygon fill="white" stroke="black" points="4176,-112.5 4176,-131.5 4268,-131.5 4268,-112.5 4176,-112.5"/>
<text text-anchor="middle" x="4222" y="-119.5" font-family="Helvetica,sans-Serif" font-size="10.00">BurggrafFlow.H</text>
</a>
</g>
</g>
<!-- Node2&#45;&gt;Node137 -->
<g id="edge44" class="edge">
<title>Node2&#45;&gt;Node137</title>
<path fill="none" stroke="midnightblue" d="M2670.61,-168.06C3329.95,-91.14 3504.12,-189.05 4162,-132 4166.51,-131.61 4171.2,-131.09 4175.88,-130.51"/>
<polygon fill="midnightblue" stroke="midnightblue" points="2669.9,-164.62 2660.38,-169.26 2670.72,-171.57 2669.9,-164.62"/>
</g>
<!-- Node138 -->
<g id="node43" class="node">
<title>Node138</title>
<g id="a_node43"><a xlink:href="_convecting_taylor_vortex_8cpp.html" target="_top" xlink:title=" ">
<polygon fill="white" stroke="black" points="4357,-56.5 4357,-75.5 4509,-75.5 4509,-56.5 4357,-56.5"/>
<text text-anchor="middle" x="4433" y="-63.5" font-family="Helvetica,sans-Serif" font-size="10.00">ConvectingTaylorVortex.cpp</text>
</a>
</g>
</g>
<!-- Node2&#45;&gt;Node138 -->
<g id="edge49" class="edge">
<title>Node2&#45;&gt;Node138</title>
<path fill="none" stroke="midnightblue" d="M2670.64,-168.18C2890.65,-147.83 4123.92,-173.25 4297,-132 4321.69,-126.11 4387.06,-91.82 4417.28,-75.56"/>
<polygon fill="midnightblue" stroke="midnightblue" points="2669.96,-164.73 2660.38,-169.25 2670.68,-171.7 2669.96,-164.73"/>
</g>
<!-- Node139 -->
<g id="node44" class="node">
<title>Node139</title>
<g id="a_node44"><a xlink:href="_convecting_taylor_vortex_8_h.html" target="_top" xlink:title=" ">
<polygon fill="white" stroke="red" points="4362.5,-112.5 4362.5,-131.5 4505.5,-131.5 4505.5,-112.5 4362.5,-112.5"/>
<text text-anchor="middle" x="4434" y="-119.5" font-family="Helvetica,sans-Serif" font-size="10.00">ConvectingTaylorVortex.H</text>
</a>
</g>
</g>
<!-- Node2&#45;&gt;Node139 -->
<g id="edge50" class="edge">
<title>Node2&#45;&gt;Node139</title>
<path fill="none" stroke="midnightblue" d="M2670.5,-168.09C3056.08,-125.24 3978.81,-155.24 4348,-132 4352.64,-131.71 4357.43,-131.35 4362.24,-130.96"/>
<polygon fill="midnightblue" stroke="midnightblue" points="2669.91,-164.64 2660.38,-169.25 2670.71,-171.59 2669.91,-164.64"/>
</g>
<!-- Node140 -->
<g id="node45" class="node">
<title>Node140</title>
<g id="a_node45"><a xlink:href="_ekman_spiral_8cpp.html" target="_top" xlink:title=" ">
<polygon fill="white" stroke="black" points="4673,-56.5 4673,-75.5 4771,-75.5 4771,-56.5 4673,-56.5"/>
<text text-anchor="middle" x="4722" y="-63.5" font-family="Helvetica,sans-Serif" font-size="10.00">EkmanSpiral.cpp</text>
</a>
</g>
</g>
<!-- Node2&#45;&gt;Node140 -->
<g id="edge52" class="edge">
<title>Node2&#45;&gt;Node140</title>
<path fill="none" stroke="midnightblue" d="M2670.49,-168.19C2914.67,-145.5 4318.08,-181.33 4514,-132 4532.89,-127.24 4534.82,-118.99 4553,-112 4595.23,-95.77 4645.55,-83.18 4680.24,-75.5"/>
<polygon fill="midnightblue" stroke="midnightblue" points="2669.96,-164.73 2660.37,-169.25 2670.68,-171.69 2669.96,-164.73"/>
</g>
<!-- Node141 -->
<g id="node46" class="node">
<title>Node141</title>
<g id="a_node46"><a xlink:href="_ekman_spiral_8_h.html" target="_top" xlink:title=" ">
<polygon fill="white" stroke="black" points="4824.5,-112.5 4824.5,-131.5 4913.5,-131.5 4913.5,-112.5 4824.5,-112.5"/>
<text text-anchor="middle" x="4869" y="-119.5" font-family="Helvetica,sans-Serif" font-size="10.00">EkmanSpiral.H</text>
</a>
</g>
</g>
<!-- Node2&#45;&gt;Node141 -->
<g id="edge53" class="edge">
<title>Node2&#45;&gt;Node141</title>
<path fill="none" stroke="midnightblue" d="M2670.37,-168.12C3159.43,-114.6 4344.11,-175.77 4816,-132 4818.7,-131.75 4821.46,-131.44 4824.24,-131.09"/>
<polygon fill="midnightblue" stroke="midnightblue" points="2669.92,-164.64 2660.37,-169.24 2670.7,-171.6 2669.92,-164.64"/>
</g>
<!-- Node142 -->
<g id="node47" class="node">
<title>Node142</title>
<g id="a_node47"><a xlink:href="_free_stream_8cpp.html" target="_top" xlink:title=" ">
<polygon fill="white" stroke="black" points="4562.5,-112.5 4562.5,-131.5 4655.5,-131.5 4655.5,-112.5 4562.5,-112.5"/>
<text text-anchor="middle" x="4609" y="-119.5" font-family="Helvetica,sans-Serif" font-size="10.00">FreeStream.cpp</text>
</a>
</g>
</g>
<!-- Node2&#45;&gt;Node142 -->
<g id="edge55" class="edge">
<title>Node2&#45;&gt;Node142</title>
<path fill="none" stroke="midnightblue" d="M2670.41,-168.11C3100.2,-120.75 4135.05,-166.28 4548,-132 4552.69,-131.61 4557.58,-131.09 4562.44,-130.49"/>
<polygon fill="midnightblue" stroke="midnightblue" points="2669.92,-164.64 2660.37,-169.24 2670.7,-171.6 2669.92,-164.64"/>
</g>
<!-- Node103 -->
<g id="node48" class="node">
<title>Node103</title>
<g id="a_node48"><a xlink:href="_hybrid_r_a_n_s_l_e_s_a_b_l_8cpp.html" target="_top" xlink:title=" ">
<polygon fill="white" stroke="black" points="4673.5,-112.5 4673.5,-131.5 4806.5,-131.5 4806.5,-112.5 4673.5,-112.5"/>
<text text-anchor="middle" x="4740" y="-119.5" font-family="Helvetica,sans-Serif" font-size="10.00">HybridRANSLESABL.cpp</text>
</a>
</g>
</g>
<!-- Node2&#45;&gt;Node103 -->
<g id="edge56" class="edge">
<title>Node2&#45;&gt;Node103</title>
<path fill="none" stroke="midnightblue" d="M2670.35,-168.12C3125.75,-117.96 4224.86,-161.89 4664,-132 4667.05,-131.79 4670.16,-131.55 4673.31,-131.28"/>
<polygon fill="midnightblue" stroke="midnightblue" points="2669.92,-164.64 2660.37,-169.24 2670.7,-171.6 2669.92,-164.64"/>
</g>
<!-- Node3&#45;&gt;Node5 -->
<g id="edge3" class="edge">
<title>Node3&#45;&gt;Node5</title>
<path fill="none" stroke="midnightblue" d="M2329,-101.8C2329,-92.91 2329,-82.78 2329,-75.75"/>
<polygon fill="midnightblue" stroke="midnightblue" points="2325.5,-102.08 2329,-112.08 2332.5,-102.08 2325.5,-102.08"/>
</g>
<!-- Node5&#45;&gt;Node6 -->
<g id="edge4" class="edge">
<title>Node5&#45;&gt;Node6</title>
<path fill="none" stroke="midnightblue" d="M2274.45,-62.34C2084.2,-53.08 1451.71,-22.28 1269.51,-13.41"/>
<polygon fill="midnightblue" stroke="midnightblue" points="2274.34,-65.84 2284.5,-62.83 2274.68,-58.85 2274.34,-65.84"/>
</g>
<!-- Node64&#45;&gt;Node24 -->
<g id="edge25" class="edge">
<title>Node64&#45;&gt;Node24</title>
<path fill="none" stroke="midnightblue" d="M1082.78,-111.97C918.79,-86.57 733.8,-72.88 668.91,-68.53"/>
<polygon fill="midnightblue" stroke="midnightblue" points="1082.63,-115.49 1093.05,-113.58 1083.71,-108.58 1082.63,-115.49"/>
</g>
<!-- Node80&#45;&gt;Node2 -->
<g id="edge33" class="edge">
<title>Node80&#45;&gt;Node2</title>
<path fill="none" stroke="midnightblue" d="M3259.95,-132.99C3005.75,-169.41 2934.54,-132.88 2678,-168 2672.24,-168.79 2666.09,-169.93 2660.07,-171.14"/>
<polygon fill="midnightblue" stroke="midnightblue" points="3260.45,-136.45 3269.84,-131.55 3259.44,-129.53 3260.45,-136.45"/>
</g>
<!-- Node132&#45;&gt;Node93 -->
<g id="edge40" class="edge">
<title>Node132&#45;&gt;Node93</title>
<path fill="none" stroke="midnightblue" d="M3558.61,-109.17C3588.36,-99 3630.55,-84.59 3657.08,-75.52"/>
<polygon fill="midnightblue" stroke="midnightblue" points="3557.37,-105.9 3549.04,-112.44 3559.63,-112.52 3557.37,-105.9"/>
</g>
<!-- Node137&#45;&gt;Node15 -->
<g id="edge45" class="edge">
<title>Node137&#45;&gt;Node15</title>
<path fill="none" stroke="midnightblue" d="M4201.97,-106.38C4188.59,-96.62 4171.44,-84.11 4160.11,-75.83"/>
<polygon fill="midnightblue" stroke="midnightblue" points="4199.97,-109.26 4210.11,-112.32 4204.1,-103.6 4199.97,-109.26"/>
</g>
<!-- Node137&#45;&gt;Node136 -->
<g id="edge46" class="edge">
<title>Node137&#45;&gt;Node136</title>
<path fill="none" stroke="midnightblue" d="M4240.27,-105.82C4251.92,-96.15 4266.6,-83.95 4276.37,-75.83"/>
<polygon fill="midnightblue" stroke="midnightblue" points="4237.9,-103.24 4232.44,-112.32 4242.37,-108.63 4237.9,-103.24"/>
</g>
<!-- Node139&#45;&gt;Node138 -->
<g id="edge51" class="edge">
<title>Node139&#45;&gt;Node138</title>
<path fill="none" stroke="midnightblue" d="M4433.64,-101.8C4433.48,-92.91 4433.29,-82.78 4433.16,-75.75"/>
<polygon fill="midnightblue" stroke="midnightblue" points="4430.15,-102.15 4433.83,-112.08 4437.15,-102.02 4430.15,-102.15"/>
</g>
<!-- Node141&#45;&gt;Node140 -->
<g id="edge54" class="edge">
<title>Node141&#45;&gt;Node140</title>
<path fill="none" stroke="midnightblue" d="M4836.08,-108.91C4808.44,-98.75 4769.66,-84.51 4745.18,-75.52"/>
<polygon fill="midnightblue" stroke="midnightblue" points="4835.11,-112.28 4845.71,-112.44 4837.53,-105.71 4835.11,-112.28"/>
</g>
</g>
</svg>
