<?xml version="1.0" encoding="UTF-8" standalone="no"?>
<!DOCTYPE svg PUBLIC "-//W3C//DTD SVG 1.1//EN"
 "http://www.w3.org/Graphics/SVG/1.1/DTD/svg11.dtd">
<!-- Generated by graphviz version 2.43.0 (0)
 -->
<!-- Title: MomentumSource.H Pages: 1 -->
<!--zoomable 196 -->
<svg id="main" version="1.1" xmlns="http://www.w3.org/2000/svg" xmlns:xlink="http://www.w3.org/1999/xlink" xml:space="preserve" onload="init(evt)">
<style type="text/css"><![CDATA[
.edge:hover path { stroke: red; }
.edge:hover polygon { stroke: red; fill: red; }
]]></style>
<script type="text/javascript"><![CDATA[
var edges = document.getElementsByTagName('g');
if (edges && edges.length) {
  for (var i=0;i<edges.length;i++) {
    if (edges[i].id.substr(0,4)=='edge') {
      edges[i].setAttribute('class','edge');
    }
  }
}
]]></script>
        <defs>
                <circle id="rim" cx="0" cy="0" r="7"/>
                <circle id="rim2" cx="0" cy="0" r="3.5"/>
                <g id="zoomPlus">
                        <use xlink:href="#rim" fill="#404040">
                                <set attributeName="fill" to="#808080" begin="zoomplus.mouseover" end="zoomplus.mouseout"/>
                        </use>
                        <path d="M-4,0h8M0,-4v8" fill="none" stroke="white" stroke-width="1.5" pointer-events="none"/>
                </g>
                <g id="zoomMin">
                        <use xlink:href="#rim" fill="#404040">
                                <set attributeName="fill" to="#808080" begin="zoomminus.mouseover" end="zoomminus.mouseout"/>
                        </use>
                        <path d="M-4,0h8" fill="none" stroke="white" stroke-width="1.5" pointer-events="none"/>
                </g>
                <g id="dirArrow">
                        <path fill="none" stroke="white" stroke-width="1.5" d="M0,-3.0v7 M-2.5,-0.5L0,-3.0L2.5,-0.5"/>
                </g>
               <g id="resetDef">
                       <use xlink:href="#rim2" fill="#404040">
                               <set attributeName="fill" to="#808080" begin="reset.mouseover" end="reset.mouseout"/>
                       </use>
               </g>
        </defs>

<script type="text/javascript">
var viewWidth = 2180;
var viewHeight = 196;
var sectionId = 'dynsection-1';
</script>
<script xlink:href="svgpan.js"/>
<svg id="graph" class="graph">
<g id="viewport">
<title>MomentumSource.H</title>
<polygon fill="white" stroke="transparent" points="-4,4 -4,-192 2176.28,-192 2176.28,4 -4,4"/>
<!-- Node1 -->
<g id="node1" class="node">
<title>Node1</title>
<g id="a_node1"><a xlink:title=" ">
<polygon fill="#bfbfbf" stroke="black" points="1319.28,-168.5 1319.28,-187.5 1435.28,-187.5 1435.28,-168.5 1319.28,-168.5"/>
<text text-anchor="middle" x="1377.28" y="-175.5" font-family="Helvetica,sans-Serif" font-size="10.00">MomentumSource.H</text>
</a>
</g>
</g>
<!-- Node2 -->
<g id="node2" class="node">
<title>Node2</title>
<g id="a_node2"><a xlink:href="icns_8_h.html" target="_top" xlink:title=" ">
<polygon fill="white" stroke="black" points="230.78,-112.5 230.78,-131.5 277.78,-131.5 277.78,-112.5 230.78,-112.5"/>
<text text-anchor="middle" x="254.28" y="-119.5" font-family="Helvetica,sans-Serif" font-size="10.00">icns.H</text>
</a>
</g>
</g>
<!-- Node1&#45;&gt;Node2 -->
<g id="edge1" class="edge">
<title>Node1&#45;&gt;Node2</title>
<path fill="none" stroke="midnightblue" d="M1309.21,-173.73C1090.81,-163.23 413.98,-130.68 278.15,-124.15"/>
<polygon fill="midnightblue" stroke="midnightblue" points="1309.11,-177.23 1319.26,-174.21 1309.44,-170.23 1309.11,-177.23"/>
</g>
<!-- Node10 -->
<g id="node10" class="node">
<title>Node10</title>
<g id="a_node10"><a xlink:href="_a_b_l_forcing_8_h.html" target="_top" xlink:title=" ">
<polygon fill="white" stroke="black" points="711.78,-112.5 711.78,-131.5 792.78,-131.5 792.78,-112.5 711.78,-112.5"/>
<text text-anchor="middle" x="752.28" y="-119.5" font-family="Helvetica,sans-Serif" font-size="10.00">ABLForcing.H</text>
</a>
</g>
</g>
<!-- Node1&#45;&gt;Node10 -->
<g id="edge13" class="edge">
<title>Node1&#45;&gt;Node10</title>
<path fill="none" stroke="midnightblue" d="M1308.79,-171.63C1206.85,-163.54 1009.16,-147.53 841.28,-132 825.5,-130.54 808.17,-128.82 793.02,-127.27"/>
<polygon fill="midnightblue" stroke="midnightblue" points="1308.71,-175.13 1318.95,-172.43 1309.26,-168.15 1308.71,-175.13"/>
</g>
<!-- Node14 -->
<g id="node14" class="node">
<title>Node14</title>
<g id="a_node14"><a xlink:href="_a_b_l_mean_boussinesq_8_h.html" target="_top" xlink:title=" ">
<polygon fill="white" stroke="black" points="850.28,-112.5 850.28,-131.5 978.28,-131.5 978.28,-112.5 850.28,-112.5"/>
<text text-anchor="middle" x="914.28" y="-119.5" font-family="Helvetica,sans-Serif" font-size="10.00">ABLMeanBoussinesq.H</text>
</a>
</g>
</g>
<!-- Node1&#45;&gt;Node14 -->
<g id="edge17" class="edge">
<title>Node1&#45;&gt;Node14</title>
<path fill="none" stroke="midnightblue" d="M1309.12,-169.05C1220.14,-158.67 1065.52,-140.64 978.52,-130.49"/>
<polygon fill="midnightblue" stroke="midnightblue" points="1308.77,-172.53 1319.1,-170.22 1309.58,-165.58 1308.77,-172.53"/>
</g>
<!-- Node16 -->
<g id="node16" class="node">
<title>Node16</title>
<g id="a_node16"><a xlink:href="_actuator_forcing_8_h.html" target="_top" xlink:title=" ">
<polygon fill="white" stroke="black" points="1011.28,-112.5 1011.28,-131.5 1115.28,-131.5 1115.28,-112.5 1011.28,-112.5"/>
<text text-anchor="middle" x="1063.28" y="-119.5" font-family="Helvetica,sans-Serif" font-size="10.00">ActuatorForcing.H</text>
</a>
</g>
</g>
<!-- Node1&#45;&gt;Node16 -->
<g id="edge20" class="edge">
<title>Node1&#45;&gt;Node16</title>
<path fill="none" stroke="midnightblue" d="M1317.54,-166.73C1258.21,-156.52 1168.28,-141.06 1112.8,-131.52"/>
<polygon fill="midnightblue" stroke="midnightblue" points="1317.07,-170.2 1327.52,-168.44 1318.26,-163.3 1317.07,-170.2"/>
</g>
<!-- Node18 -->
<g id="node18" class="node">
<title>Node18</title>
<g id="a_node18"><a xlink:href="_body_force_8_h.html" target="_top" xlink:title=" ">
<polygon fill="white" stroke="black" points="1143.28,-112.5 1143.28,-131.5 1221.28,-131.5 1221.28,-112.5 1143.28,-112.5"/>
<text text-anchor="middle" x="1182.28" y="-119.5" font-family="Helvetica,sans-Serif" font-size="10.00">BodyForce.H</text>
</a>
</g>
</g>
<!-- Node1&#45;&gt;Node18 -->
<g id="edge22" class="edge">
<title>Node1&#45;&gt;Node18</title>
<path fill="none" stroke="midnightblue" d="M1336.46,-165.7C1299.66,-155.51 1246.35,-140.74 1213.03,-131.52"/>
<polygon fill="midnightblue" stroke="midnightblue" points="1335.81,-169.15 1346.38,-168.44 1337.67,-162.4 1335.81,-169.15"/>
</g>
<!-- Node20 -->
<g id="node20" class="node">
<title>Node20</title>
<g id="a_node20"><a xlink:href="_boussinesq_buoyancy_8_h.html" target="_top" xlink:title=" ">
<polygon fill="white" stroke="black" points="1246.78,-112.5 1246.78,-131.5 1375.78,-131.5 1375.78,-112.5 1246.78,-112.5"/>
<text text-anchor="middle" x="1311.28" y="-119.5" font-family="Helvetica,sans-Serif" font-size="10.00">BoussinesqBuoyancy.H</text>
</a>
</g>
</g>
<!-- Node1&#45;&gt;Node20 -->
<g id="edge24" class="edge">
<title>Node1&#45;&gt;Node20</title>
<path fill="none" stroke="midnightblue" d="M1358.72,-161.82C1346.9,-152.15 1331.99,-139.95 1322.07,-131.83"/>
<polygon fill="midnightblue" stroke="midnightblue" points="1356.72,-164.7 1366.67,-168.32 1361.15,-159.28 1356.72,-164.7"/>
</g>
<!-- Node22 -->
<g id="node22" class="node">
<title>Node22</title>
<g id="a_node22"><a xlink:href="_coriolis_forcing_8_h.html" target="_top" xlink:title=" ">
<polygon fill="white" stroke="black" points="1398.78,-112.5 1398.78,-131.5 1497.78,-131.5 1497.78,-112.5 1398.78,-112.5"/>
<text text-anchor="middle" x="1448.28" y="-119.5" font-family="Helvetica,sans-Serif" font-size="10.00">CoriolisForcing.H</text>
</a>
</g>
</g>
<!-- Node1&#45;&gt;Node22 -->
<g id="edge26" class="edge">
<title>Node1&#45;&gt;Node22</title>
<path fill="none" stroke="midnightblue" d="M1396.86,-162.1C1409.64,-152.38 1425.89,-140.03 1436.66,-131.83"/>
<polygon fill="midnightblue" stroke="midnightblue" points="1394.52,-159.48 1388.68,-168.32 1398.76,-165.06 1394.52,-159.48"/>
</g>
<!-- Node24 -->
<g id="node24" class="node">
<title>Node24</title>
<g id="a_node24"><a xlink:href="_density_buoyancy_8_h.html" target="_top" xlink:title=" ">
<polygon fill="white" stroke="black" points="1522.78,-112.5 1522.78,-131.5 1633.78,-131.5 1633.78,-112.5 1522.78,-112.5"/>
<text text-anchor="middle" x="1578.28" y="-119.5" font-family="Helvetica,sans-Serif" font-size="10.00">DensityBuoyancy.H</text>
</a>
</g>
</g>
<!-- Node1&#45;&gt;Node24 -->
<g id="edge28" class="edge">
<title>Node1&#45;&gt;Node24</title>
<path fill="none" stroke="midnightblue" d="M1418.86,-165.83C1456.81,-155.63 1512.09,-140.78 1546.58,-131.52"/>
<polygon fill="midnightblue" stroke="midnightblue" points="1417.87,-162.47 1409.12,-168.44 1419.69,-169.23 1417.87,-162.47"/>
</g>
<!-- Node26 -->
<g id="node26" class="node">
<title>Node26</title>
<g id="a_node26"><a xlink:href="_geostrophic_forcing_8_h.html" target="_top" xlink:title=" ">
<polygon fill="white" stroke="black" points="1660.78,-112.5 1660.78,-131.5 1781.78,-131.5 1781.78,-112.5 1660.78,-112.5"/>
<text text-anchor="middle" x="1721.28" y="-119.5" font-family="Helvetica,sans-Serif" font-size="10.00">GeostrophicForcing.H</text>
</a>
</g>
</g>
<!-- Node1&#45;&gt;Node26 -->
<g id="edge30" class="edge">
<title>Node1&#45;&gt;Node26</title>
<path fill="none" stroke="midnightblue" d="M1441.91,-166.85C1506.91,-156.65 1605.99,-141.1 1667.02,-131.52"/>
<polygon fill="midnightblue" stroke="midnightblue" points="1441.12,-163.44 1431.78,-168.44 1442.2,-170.35 1441.12,-163.44"/>
</g>
<!-- Node28 -->
<g id="node28" class="node">
<title>Node28</title>
<g id="a_node28"><a xlink:href="_gravity_forcing_8_h.html" target="_top" xlink:title=" ">
<polygon fill="white" stroke="black" points="1809.28,-112.5 1809.28,-131.5 1907.28,-131.5 1907.28,-112.5 1809.28,-112.5"/>
<text text-anchor="middle" x="1858.28" y="-119.5" font-family="Helvetica,sans-Serif" font-size="10.00">GravityForcing.H</text>
</a>
</g>
</g>
<!-- Node1&#45;&gt;Node28 -->
<g id="edge32" class="edge">
<title>Node1&#45;&gt;Node28</title>
<path fill="none" stroke="midnightblue" d="M1445.64,-170.04C1527.6,-161.58 1669.07,-146.62 1790.28,-132 1796.42,-131.26 1802.88,-130.45 1809.26,-129.62"/>
<polygon fill="midnightblue" stroke="midnightblue" points="1445.05,-166.58 1435.46,-171.09 1445.77,-173.54 1445.05,-166.58"/>
</g>
<!-- Node30 -->
<g id="node30" class="node">
<title>Node30</title>
<g id="a_node30"><a xlink:href="_synth_turb_forcing_8_h.html" target="_top" xlink:title=" ">
<polygon fill="white" stroke="black" points="1935.28,-112.5 1935.28,-131.5 2045.28,-131.5 2045.28,-112.5 1935.28,-112.5"/>
<text text-anchor="middle" x="1990.28" y="-119.5" font-family="Helvetica,sans-Serif" font-size="10.00">SynthTurbForcing.H</text>
</a>
</g>
</g>
<!-- Node1&#45;&gt;Node30 -->
<g id="edge34" class="edge">
<title>Node1&#45;&gt;Node30</title>
<path fill="none" stroke="midnightblue" d="M1445.78,-172.11C1548.23,-164.62 1747.39,-149.31 1916.28,-132 1922.33,-131.38 1928.65,-130.68 1934.94,-129.96"/>
<polygon fill="midnightblue" stroke="midnightblue" points="1445.29,-168.64 1435.57,-172.86 1445.8,-175.62 1445.29,-168.64"/>
</g>
<!-- Node32 -->
<g id="node32" class="node">
<title>Node32</title>
<g id="a_node32"><a xlink:href="_m_m_s_forcing_8_h.html" target="_top" xlink:title=" ">
<polygon fill="white" stroke="black" points="2073.28,-112.5 2073.28,-131.5 2159.28,-131.5 2159.28,-112.5 2073.28,-112.5"/>
<text text-anchor="middle" x="2116.28" y="-119.5" font-family="Helvetica,sans-Serif" font-size="10.00">MMSForcing.H</text>
</a>
</g>
</g>
<!-- Node1&#45;&gt;Node32 -->
<g id="edge36" class="edge">
<title>Node1&#45;&gt;Node32</title>
<path fill="none" stroke="midnightblue" d="M1445.7,-174.21C1568.05,-168.84 1832.32,-155.45 2054.28,-132 2060.33,-131.36 2066.71,-130.57 2072.97,-129.72"/>
<polygon fill="midnightblue" stroke="midnightblue" points="1445.2,-170.73 1435.36,-174.66 1445.51,-177.73 1445.2,-170.73"/>
</g>
<!-- Node3 -->
<g id="node3" class="node">
<title>Node3</title>
<g id="a_node3"><a xlink:href="icns_8cpp.html" target="_top" xlink:title=" ">
<polygon fill="white" stroke="black" points="123.28,-0.5 123.28,-19.5 179.28,-19.5 179.28,-0.5 123.28,-0.5"/>
<text text-anchor="middle" x="151.28" y="-7.5" font-family="Helvetica,sans-Serif" font-size="10.00">icns.cpp</text>
</a>
</g>
</g>
<!-- Node2&#45;&gt;Node3 -->
<g id="edge2" class="edge">
<title>Node2&#45;&gt;Node3</title>
<path fill="none" stroke="midnightblue" d="M220.23,-119.97C158.97,-117.33 34.01,-108.05 7.28,-76 -26.64,-35.35 72.43,-19.05 123.24,-13.49"/>
<polygon fill="midnightblue" stroke="midnightblue" points="220.41,-123.48 230.54,-120.38 220.69,-116.49 220.41,-123.48"/>
</g>
<!-- Node4 -->
<g id="node4" class="node">
<title>Node4</title>
<g id="a_node4"><a xlink:href="icns__ops_8_h.html" target="_top" xlink:title=" ">
<polygon fill="white" stroke="black" points="16.78,-56.5 16.78,-75.5 85.78,-75.5 85.78,-56.5 16.78,-56.5"/>
<text text-anchor="middle" x="51.28" y="-63.5" font-family="Helvetica,sans-Serif" font-size="10.00">icns_ops.H</text>
</a>
</g>
</g>
<!-- Node2&#45;&gt;Node4 -->
<g id="edge3" class="edge">
<title>Node2&#45;&gt;Node4</title>
<path fill="none" stroke="midnightblue" d="M220.51,-112.02C182.42,-101.89 120.92,-85.52 83.48,-75.57"/>
<polygon fill="midnightblue" stroke="midnightblue" points="220.03,-115.51 230.59,-114.7 221.83,-108.75 220.03,-115.51"/>
</g>
<!-- Node5 -->
<g id="node5" class="node">
<title>Node5</title>
<g id="a_node5"><a xlink:href="icns__advection_8_h.html" target="_top" xlink:title=" ">
<polygon fill="white" stroke="black" points="310.28,-56.5 310.28,-75.5 410.28,-75.5 410.28,-56.5 310.28,-56.5"/>
<text text-anchor="middle" x="360.28" y="-63.5" font-family="Helvetica,sans-Serif" font-size="10.00">icns_advection.H</text>
</a>
</g>
</g>
<!-- Node2&#45;&gt;Node5 -->
<g id="edge5" class="edge">
<title>Node2&#45;&gt;Node5</title>
<path fill="none" stroke="midnightblue" d="M280.33,-107.73C299.96,-97.73 326.3,-84.31 343.29,-75.65"/>
<polygon fill="midnightblue" stroke="midnightblue" points="278.63,-104.67 271.31,-112.32 281.81,-110.9 278.63,-104.67"/>
</g>
<!-- Node7 -->
<g id="node7" class="node">
<title>Node7</title>
<g id="a_node7"><a xlink:href="icns__diffusion_8_h.html" target="_top" xlink:title=" ">
<polygon fill="white" stroke="black" points="104.28,-56.5 104.28,-75.5 198.28,-75.5 198.28,-56.5 104.28,-56.5"/>
<text text-anchor="middle" x="151.28" y="-63.5" font-family="Helvetica,sans-Serif" font-size="10.00">icns_diffusion.H</text>
</a>
</g>
</g>
<!-- Node2&#45;&gt;Node7 -->
<g id="edge8" class="edge">
<title>Node2&#45;&gt;Node7</title>
<path fill="none" stroke="midnightblue" d="M228.7,-107.59C209.65,-97.61 184.21,-84.27 167.78,-75.65"/>
<polygon fill="midnightblue" stroke="midnightblue" points="227.24,-110.78 237.73,-112.32 230.49,-104.58 227.24,-110.78"/>
</g>
<!-- Node8 -->
<g id="node8" class="node">
<title>Node8</title>
<g id="a_node8"><a xlink:href="icns__bcop_8_h.html" target="_top" xlink:title=" ">
<polygon fill="white" stroke="black" points="216.78,-56.5 216.78,-75.5 291.78,-75.5 291.78,-56.5 216.78,-56.5"/>
<text text-anchor="middle" x="254.28" y="-63.5" font-family="Helvetica,sans-Serif" font-size="10.00">icns_bcop.H</text>
</a>
</g>
</g>
<!-- Node2&#45;&gt;Node8 -->
<g id="edge10" class="edge">
<title>Node2&#45;&gt;Node8</title>
<path fill="none" stroke="midnightblue" d="M254.28,-101.8C254.28,-92.91 254.28,-82.78 254.28,-75.75"/>
<polygon fill="midnightblue" stroke="midnightblue" points="250.78,-102.08 254.28,-112.08 257.78,-102.08 250.78,-102.08"/>
</g>
<!-- Node9 -->
<g id="node9" class="node">
<title>Node9</title>
<g id="a_node9"><a xlink:href="_power_law_profile_8cpp.html" target="_top" xlink:title=" ">
<polygon fill="white" stroke="black" points="428.78,-56.5 428.78,-75.5 545.78,-75.5 545.78,-56.5 428.78,-56.5"/>
<text text-anchor="middle" x="487.28" y="-63.5" font-family="Helvetica,sans-Serif" font-size="10.00">PowerLawProfile.cpp</text>
</a>
</g>
</g>
<!-- Node2&#45;&gt;Node9 -->
<g id="edge12" class="edge">
<title>Node2&#45;&gt;Node9</title>
<path fill="none" stroke="midnightblue" d="M287.89,-113.21C331,-103.22 405.53,-85.95 450.23,-75.59"/>
<polygon fill="midnightblue" stroke="midnightblue" points="286.85,-109.86 277.9,-115.53 288.43,-116.68 286.85,-109.86"/>
</g>
<!-- Node4&#45;&gt;Node3 -->
<g id="edge4" class="edge">
<title>Node4&#45;&gt;Node3</title>
<path fill="none" stroke="midnightblue" d="M76.36,-51.45C94.82,-41.48 119.37,-28.23 135.25,-19.65"/>
<polygon fill="midnightblue" stroke="midnightblue" points="74.48,-48.49 67.34,-56.32 77.8,-54.65 74.48,-48.49"/>
</g>
<!-- Node5&#45;&gt;Node3 -->
<g id="edge6" class="edge">
<title>Node5&#45;&gt;Node3</title>
<path fill="none" stroke="midnightblue" d="M317.39,-53.92C276.15,-43.27 215.01,-27.47 179.55,-18.3"/>
<polygon fill="midnightblue" stroke="midnightblue" points="316.6,-57.33 327.16,-56.44 318.35,-50.55 316.6,-57.33"/>
</g>
<!-- Node6 -->
<g id="node6" class="node">
<title>Node6</title>
<g id="a_node6"><a xlink:href="icns__advection_8cpp.html" target="_top" xlink:title=" ">
<polygon fill="white" stroke="black" points="305.28,-0.5 305.28,-19.5 415.28,-19.5 415.28,-0.5 305.28,-0.5"/>
<text text-anchor="middle" x="360.28" y="-7.5" font-family="Helvetica,sans-Serif" font-size="10.00">icns_advection.cpp</text>
</a>
</g>
</g>
<!-- Node5&#45;&gt;Node6 -->
<g id="edge7" class="edge">
<title>Node5&#45;&gt;Node6</title>
<path fill="none" stroke="midnightblue" d="M360.28,-45.8C360.28,-36.91 360.28,-26.78 360.28,-19.75"/>
<polygon fill="midnightblue" stroke="midnightblue" points="356.78,-46.08 360.28,-56.08 363.78,-46.08 356.78,-46.08"/>
</g>
<!-- Node7&#45;&gt;Node3 -->
<g id="edge9" class="edge">
<title>Node7&#45;&gt;Node3</title>
<path fill="none" stroke="midnightblue" d="M151.28,-45.8C151.28,-36.91 151.28,-26.78 151.28,-19.75"/>
<polygon fill="midnightblue" stroke="midnightblue" points="147.78,-46.08 151.28,-56.08 154.78,-46.08 147.78,-46.08"/>
</g>
<!-- Node8&#45;&gt;Node3 -->
<g id="edge11" class="edge">
<title>Node8&#45;&gt;Node3</title>
<path fill="none" stroke="midnightblue" d="M228.7,-51.59C209.65,-41.61 184.21,-28.27 167.78,-19.65"/>
<polygon fill="midnightblue" stroke="midnightblue" points="227.24,-54.78 237.73,-56.32 230.49,-48.58 227.24,-54.78"/>
</g>
<!-- Node11 -->
<g id="node11" class="node">
<title>Node11</title>
<g id="a_node11"><a xlink:href="_a_b_l_forcing_8cpp.html" target="_top" xlink:title=" ">
<polygon fill="white" stroke="black" points="563.78,-56.5 563.78,-75.5 654.78,-75.5 654.78,-56.5 563.78,-56.5"/>
<text text-anchor="middle" x="609.28" y="-63.5" font-family="Helvetica,sans-Serif" font-size="10.00">ABLForcing.cpp</text>
</a>
</g>
</g>
<!-- Node10&#45;&gt;Node11 -->
<g id="edge14" class="edge">
<title>Node10&#45;&gt;Node11</title>
<path fill="none" stroke="midnightblue" d="M720.25,-108.91C693.36,-98.75 655.63,-84.51 631.83,-75.52"/>
<polygon fill="midnightblue" stroke="midnightblue" points="719.02,-112.19 729.62,-112.44 721.5,-105.64 719.02,-112.19"/>
</g>
<!-- Node12 -->
<g id="node12" class="node">
<title>Node12</title>
<g id="a_node12"><a xlink:href="_a_b_l_8cpp.html" target="_top" xlink:title=" ">
<polygon fill="white" stroke="black" points="771.28,-56.5 771.28,-75.5 827.28,-75.5 827.28,-56.5 771.28,-56.5"/>
<text text-anchor="middle" x="799.28" y="-63.5" font-family="Helvetica,sans-Serif" font-size="10.00">ABL.cpp</text>
</a>
</g>
</g>
<!-- Node10&#45;&gt;Node12 -->
<g id="edge15" class="edge">
<title>Node10&#45;&gt;Node12</title>
<path fill="none" stroke="midnightblue" d="M766.7,-104.43C774.93,-94.97 784.93,-83.48 791.66,-75.75"/>
<polygon fill="midnightblue" stroke="midnightblue" points="763.96,-102.24 760.04,-112.08 769.24,-106.84 763.96,-102.24"/>
</g>
<!-- Node13 -->
<g id="node13" class="node">
<title>Node13</title>
<g id="a_node13"><a xlink:href="_a_b_l_stats_8cpp.html" target="_top" xlink:title=" ">
<polygon fill="white" stroke="black" points="673.28,-56.5 673.28,-75.5 753.28,-75.5 753.28,-56.5 673.28,-56.5"/>
<text text-anchor="middle" x="713.28" y="-63.5" font-family="Helvetica,sans-Serif" font-size="10.00">ABLStats.cpp</text>
</a>
</g>
</g>
<!-- Node10&#45;&gt;Node13 -->
<g id="edge16" class="edge">
<title>Node10&#45;&gt;Node13</title>
<path fill="none" stroke="midnightblue" d="M739.89,-103.86C733.14,-94.5 725.07,-83.33 719.6,-75.75"/>
<polygon fill="midnightblue" stroke="midnightblue" points="737.14,-106.03 745.84,-112.08 742.82,-101.93 737.14,-106.03"/>
</g>
<!-- Node14&#45;&gt;Node12 -->
<g id="edge19" class="edge">
<title>Node14&#45;&gt;Node12</title>
<path fill="none" stroke="midnightblue" d="M886.79,-108.1C865.31,-98.01 836.05,-84.27 817.41,-75.52"/>
<polygon fill="midnightblue" stroke="midnightblue" points="885.51,-111.36 896.05,-112.44 888.49,-105.02 885.51,-111.36"/>
</g>
<!-- Node15 -->
<g id="node15" class="node">
<title>Node15</title>
<g id="a_node15"><a xlink:href="_a_b_l_mean_boussinesq_8cpp.html" target="_top" xlink:title=" ">
<polygon fill="white" stroke="black" points="845.28,-56.5 845.28,-75.5 983.28,-75.5 983.28,-56.5 845.28,-56.5"/>
<text text-anchor="middle" x="914.28" y="-63.5" font-family="Helvetica,sans-Serif" font-size="10.00">ABLMeanBoussinesq.cpp</text>
</a>
</g>
</g>
<!-- Node14&#45;&gt;Node15 -->
<g id="edge18" class="edge">
<title>Node14&#45;&gt;Node15</title>
<path fill="none" stroke="midnightblue" d="M914.28,-101.8C914.28,-92.91 914.28,-82.78 914.28,-75.75"/>
<polygon fill="midnightblue" stroke="midnightblue" points="910.78,-102.08 914.28,-112.08 917.78,-102.08 910.78,-102.08"/>
</g>
<!-- Node17 -->
<g id="node17" class="node">
<title>Node17</title>
<g id="a_node17"><a xlink:href="_actuator_forcing_8cpp.html" target="_top" xlink:title=" ">
<polygon fill="white" stroke="black" points="1001.78,-56.5 1001.78,-75.5 1114.78,-75.5 1114.78,-56.5 1001.78,-56.5"/>
<text text-anchor="middle" x="1058.28" y="-63.5" font-family="Helvetica,sans-Serif" font-size="10.00">ActuatorForcing.cpp</text>
</a>
</g>
</g>
<!-- Node16&#45;&gt;Node17 -->
<g id="edge21" class="edge">
<title>Node16&#45;&gt;Node17</title>
<path fill="none" stroke="midnightblue" d="M1061.53,-102.1C1060.7,-93.14 1059.74,-82.86 1059.09,-75.75"/>
<polygon fill="midnightblue" stroke="midnightblue" points="1058.04,-102.45 1062.45,-112.08 1065.01,-101.8 1058.04,-102.45"/>
</g>
<!-- Node19 -->
<g id="node19" class="node">
<title>Node19</title>
<g id="a_node19"><a xlink:href="_body_force_8cpp.html" target="_top" xlink:title=" ">
<polygon fill="white" stroke="black" points="1133.28,-56.5 1133.28,-75.5 1221.28,-75.5 1221.28,-56.5 1133.28,-56.5"/>
<text text-anchor="middle" x="1177.28" y="-63.5" font-family="Helvetica,sans-Serif" font-size="10.00">BodyForce.cpp</text>
</a>
</g>
</g>
<!-- Node18&#45;&gt;Node19 -->
<g id="edge23" class="edge">
<title>Node18&#45;&gt;Node19</title>
<path fill="none" stroke="midnightblue" d="M1180.53,-102.1C1179.7,-93.14 1178.74,-82.86 1178.09,-75.75"/>
<polygon fill="midnightblue" stroke="midnightblue" points="1177.04,-102.45 1181.45,-112.08 1184.01,-101.8 1177.04,-102.45"/>
</g>
<!-- Node21 -->
<g id="node21" class="node">
<title>Node21</title>
<g id="a_node21"><a xlink:href="_boussinesq_buoyancy_8cpp.html" target="_top" xlink:title=" ">
<polygon fill="white" stroke="black" points="1239.78,-56.5 1239.78,-75.5 1378.78,-75.5 1378.78,-56.5 1239.78,-56.5"/>
<text text-anchor="middle" x="1309.28" y="-63.5" font-family="Helvetica,sans-Serif" font-size="10.00">BoussinesqBuoyancy.cpp</text>
</a>
</g>
</g>
<!-- Node20&#45;&gt;Node21 -->
<g id="edge25" class="edge">
<title>Node20&#45;&gt;Node21</title>
<path fill="none" stroke="midnightblue" d="M1310.56,-101.8C1310.23,-92.91 1309.86,-82.78 1309.6,-75.75"/>
<polygon fill="midnightblue" stroke="midnightblue" points="1307.08,-102.22 1310.94,-112.08 1314.07,-101.96 1307.08,-102.22"/>
</g>
<!-- Node23 -->
<g id="node23" class="node">
<title>Node23</title>
<g id="a_node23"><a xlink:href="_coriolis_forcing_8cpp.html" target="_top" xlink:title=" ">
<polygon fill="white" stroke="black" points="1396.78,-56.5 1396.78,-75.5 1505.78,-75.5 1505.78,-56.5 1396.78,-56.5"/>
<text text-anchor="middle" x="1451.28" y="-63.5" font-family="Helvetica,sans-Serif" font-size="10.00">CoriolisForcing.cpp</text>
</a>
</g>
</g>
<!-- Node22&#45;&gt;Node23 -->
<g id="edge27" class="edge">
<title>Node22&#45;&gt;Node23</title>
<path fill="none" stroke="midnightblue" d="M1449.34,-101.8C1449.84,-92.91 1450.4,-82.78 1450.79,-75.75"/>
<polygon fill="midnightblue" stroke="midnightblue" points="1445.83,-101.9 1448.77,-112.08 1452.82,-102.29 1445.83,-101.9"/>
</g>
<!-- Node25 -->
<g id="node25" class="node">
<title>Node25</title>
<g id="a_node25"><a xlink:href="_density_buoyancy_8cpp.html" target="_top" xlink:title=" ">
<polygon fill="white" stroke="black" points="1523.78,-56.5 1523.78,-75.5 1644.78,-75.5 1644.78,-56.5 1523.78,-56.5"/>
<text text-anchor="middle" x="1584.28" y="-63.5" font-family="Helvetica,sans-Serif" font-size="10.00">DensityBuoyancy.cpp</text>
</a>
</g>
</g>
<!-- Node24&#45;&gt;Node25 -->
<g id="edge29" class="edge">
<title>Node24&#45;&gt;Node25</title>
<path fill="none" stroke="midnightblue" d="M1580.38,-102.1C1581.37,-93.14 1582.51,-82.86 1583.3,-75.75"/>
<polygon fill="midnightblue" stroke="midnightblue" points="1576.89,-101.76 1579.27,-112.08 1583.85,-102.53 1576.89,-101.76"/>
</g>
<!-- Node27 -->
<g id="node27" class="node">
<title>Node27</title>
<g id="a_node27"><a xlink:href="_geostrophic_forcing_8cpp.html" target="_top" xlink:title=" ">
<polygon fill="white" stroke="black" points="1662.78,-56.5 1662.78,-75.5 1793.78,-75.5 1793.78,-56.5 1662.78,-56.5"/>
<text text-anchor="middle" x="1728.28" y="-63.5" font-family="Helvetica,sans-Serif" font-size="10.00">GeostrophicForcing.cpp</text>
</a>
</g>
</g>
<!-- Node26&#45;&gt;Node27 -->
<g id="edge31" class="edge">
<title>Node26&#45;&gt;Node27</title>
<path fill="none" stroke="midnightblue" d="M1723.73,-102.1C1724.89,-93.14 1726.22,-82.86 1727.14,-75.75"/>
<polygon fill="midnightblue" stroke="midnightblue" points="1720.25,-101.72 1722.43,-112.08 1727.19,-102.62 1720.25,-101.72"/>
</g>
<!-- Node29 -->
<g id="node29" class="node">
<title>Node29</title>
<g id="a_node29"><a xlink:href="_gravity_forcing_8cpp.html" target="_top" xlink:title=" ">
<polygon fill="white" stroke="black" points="1812.28,-56.5 1812.28,-75.5 1920.28,-75.5 1920.28,-56.5 1812.28,-56.5"/>
<text text-anchor="middle" x="1866.28" y="-63.5" font-family="Helvetica,sans-Serif" font-size="10.00">GravityForcing.cpp</text>
</a>
</g>
</g>
<!-- Node28&#45;&gt;Node29 -->
<g id="edge33" class="edge">
<title>Node28&#45;&gt;Node29</title>
<path fill="none" stroke="midnightblue" d="M1861.08,-102.1C1862.4,-93.14 1863.93,-82.86 1864.98,-75.75"/>
<polygon fill="midnightblue" stroke="midnightblue" points="1857.6,-101.68 1859.6,-112.08 1864.52,-102.7 1857.6,-101.68"/>
</g>
<!-- Node31 -->
<g id="node31" class="node">
<title>Node31</title>
<g id="a_node31"><a xlink:href="_synth_turb_forcing_8cpp.html" target="_top" xlink:title=" ">
<polygon fill="white" stroke="black" points="1938.28,-56.5 1938.28,-75.5 2058.28,-75.5 2058.28,-56.5 1938.28,-56.5"/>
<text text-anchor="middle" x="1998.28" y="-63.5" font-family="Helvetica,sans-Serif" font-size="10.00">SynthTurbForcing.cpp</text>
</a>
</g>
</g>
<!-- Node30&#45;&gt;Node31 -->
<g id="edge35" class="edge">
<title>Node30&#45;&gt;Node31</title>
<path fill="none" stroke="midnightblue" d="M1993.08,-102.1C1994.4,-93.14 1995.93,-82.86 1996.98,-75.75"/>
<polygon fill="midnightblue" stroke="midnightblue" points="1989.6,-101.68 1991.6,-112.08 1996.52,-102.7 1989.6,-101.68"/>
</g>
<!-- Node33 -->
<g id="node33" class="node">
<title>Node33</title>
<g id="a_node33"><a xlink:href="_m_m_s_forcing_8cpp.html" target="_top" xlink:title=" ">
<polygon fill="white" stroke="black" points="2076.28,-56.5 2076.28,-75.5 2172.28,-75.5 2172.28,-56.5 2076.28,-56.5"/>
<text text-anchor="middle" x="2124.28" y="-63.5" font-family="Helvetica,sans-Serif" font-size="10.00">MMSForcing.cpp</text>
</a>
</g>
</g>
<!-- Node32&#45;&gt;Node33 -->
<g id="edge37" class="edge">
<title>Node32&#45;&gt;Node33</title>
<path fill="none" stroke="midnightblue" d="M2119.08,-102.1C2120.4,-93.14 2121.93,-82.86 2122.98,-75.75"/>
<polygon fill="midnightblue" stroke="midnightblue" points="2115.6,-101.68 2117.6,-112.08 2122.52,-102.7 2115.6,-101.68"/>
</g>
</g>
</svg>
        <g id="navigator" transform="translate(0 0)" fill="#404254">
                <rect fill="#f2f5e9" fill-opacity="0.5" stroke="#606060" stroke-width=".5" x="0" y="0" width="60" height="60"/>
                <use id="zoomplus" xlink:href="#zoomPlus" x="17" y="9" onmousedown="handleZoom(evt,'in')"/>
                <use id="zoomminus" xlink:href="#zoomMin" x="42" y="9" onmousedown="handleZoom(evt,'out')"/>
                <use id="reset" xlink:href="#resetDef" x="30" y="36" onmousedown="handleReset()"/>
                <g id="arrowUp" xlink:href="#dirArrow" transform="translate(30 24)" onmousedown="handlePan(0,-1)">
                  <use xlink:href="#rim" fill="#404040">
                        <set attributeName="fill" to="#808080" begin="arrowUp.mouseover" end="arrowUp.mouseout"/>
                  </use>
                  <path fill="none" stroke="white" stroke-width="1.5" d="M0,-3.0v7 M-2.5,-0.5L0,-3.0L2.5,-0.5"/>
                </g>
                <g id="arrowRight" xlink:href="#dirArrow" transform="rotate(90) translate(36 -43)" onmousedown="handlePan(1,0)">
                  <use xlink:href="#rim" fill="#404040">
                        <set attributeName="fill" to="#808080" begin="arrowRight.mouseover" end="arrowRight.mouseout"/>
                  </use>
                  <path fill="none" stroke="white" stroke-width="1.5" d="M0,-3.0v7 M-2.5,-0.5L0,-3.0L2.5,-0.5"/>
                </g>
                <g id="arrowDown" xlink:href="#dirArrow" transform="rotate(180) translate(-30 -48)" onmousedown="handlePan(0,1)">
                  <use xlink:href="#rim" fill="#404040">
                        <set attributeName="fill" to="#808080" begin="arrowDown.mouseover" end="arrowDown.mouseout"/>
                  </use>
                  <path fill="none" stroke="white" stroke-width="1.5" d="M0,-3.0v7 M-2.5,-0.5L0,-3.0L2.5,-0.5"/>
                </g>
                <g id="arrowLeft" xlink:href="#dirArrow" transform="rotate(270) translate(-36 17)" onmousedown="handlePan(-1,0)">
                  <use xlink:href="#rim" fill="#404040">
                        <set attributeName="fill" to="#808080" begin="arrowLeft.mouseover" end="arrowLeft.mouseout"/>
                  </use>
                  <path fill="none" stroke="white" stroke-width="1.5" d="M0,-3.0v7 M-2.5,-0.5L0,-3.0L2.5,-0.5"/>
                </g>
        </g>
        <svg viewBox="0 0 15 15" width="100%" height="30px" preserveAspectRatio="xMaxYMin meet">
         <g id="arrow_out" transform="scale(0.3 0.3)">
          <a xlink:href="_momentum_source_8_h__dep__incl_org.svg" target="_base">
           <rect id="button" ry="5" rx="5" y="6" x="6" height="38" width="38"
                fill="#f2f5e9" fill-opacity="0.5" stroke="#606060" stroke-width="1.0"/>
           <path id="arrow"
             d="M 11.500037,31.436501 C 11.940474,20.09759 22.043105,11.32322 32.158766,21.979434 L 37.068811,17.246167 C 37.068811,17.246167 37.088388,32 37.088388,32 L 22.160133,31.978069 C 22.160133,31.978069 26.997745,27.140456 26.997745,27.140456 C 18.528582,18.264221 13.291696,25.230495 11.500037,31.436501 z"
             style="fill:#404040;"/>
          </a>
         </g>
        </svg>
</svg>
