<?xml version="1.0" encoding="UTF-8" standalone="no"?>
<!DOCTYPE svg PUBLIC "-//W3C//DTD SVG 1.1//EN"
 "http://www.w3.org/Graphics/SVG/1.1/DTD/svg11.dtd">
<!-- Generated by graphviz version 2.43.0 (0)
 -->
<!-- Title: MultiLevelVector.H Pages: 1 -->
<svg width="1663pt" height="207pt"
 viewBox="0.00 0.00 1662.50 207.00" xmlns="http://www.w3.org/2000/svg" xmlns:xlink="http://www.w3.org/1999/xlink">
<g id="graph0" class="graph" transform="scale(1 1) rotate(0) translate(4 203)">
<title>MultiLevelVector.H</title>
<polygon fill="white" stroke="transparent" points="-4,4 -4,-203 1658.5,-203 1658.5,4 -4,4"/>
<!-- Node1 -->
<g id="node1" class="node">
<title>Node1</title>
<g id="a_node1"><a xlink:title=" ">
<polygon fill="#bfbfbf" stroke="black" points="838,-179.5 838,-198.5 946,-198.5 946,-179.5 838,-179.5"/>
<text text-anchor="middle" x="892" y="-186.5" font-family="Helvetica,sans-Serif" font-size="10.00">MultiLevelVector.H</text>
</a>
</g>
</g>
<!-- Node2 -->
<g id="node2" class="node">
<title>Node2</title>
<g id="a_node2"><a xlink:href="_multi_level_vector_8cpp.html" target="_top" xlink:title=" ">
<polygon fill="white" stroke="black" points="772,-123.5 772,-142.5 890,-142.5 890,-123.5 772,-123.5"/>
<text text-anchor="middle" x="831" y="-130.5" font-family="Helvetica,sans-Serif" font-size="10.00">MultiLevelVector.cpp</text>
</a>
</g>
</g>
<!-- Node1&#45;&gt;Node2 -->
<g id="edge1" class="edge">
<title>Node1&#45;&gt;Node2</title>
<path fill="none" stroke="midnightblue" d="M874.53,-172.54C863.66,-162.91 850.06,-150.87 840.98,-142.83"/>
<polygon fill="midnightblue" stroke="midnightblue" points="872.39,-175.32 882.2,-179.32 877.03,-170.07 872.39,-175.32"/>
</g>
<!-- Node3 -->
<g id="node3" class="node">
<title>Node3</title>
<g id="a_node3"><a xlink:href="_a_b_l_anelastic_8_h.html" target="_top" xlink:title=" ">
<polygon fill="white" stroke="black" points="908,-123.5 908,-142.5 1000,-142.5 1000,-123.5 908,-123.5"/>
<text text-anchor="middle" x="954" y="-130.5" font-family="Helvetica,sans-Serif" font-size="10.00">ABLAnelastic.H</text>
</a>
</g>
</g>
<!-- Node1&#45;&gt;Node3 -->
<g id="edge2" class="edge">
<title>Node1&#45;&gt;Node3</title>
<path fill="none" stroke="midnightblue" d="M909.75,-172.54C920.81,-162.91 934.63,-150.87 943.86,-142.83"/>
<polygon fill="midnightblue" stroke="midnightblue" points="907.2,-170.12 901.96,-179.32 911.8,-175.4 907.2,-170.12"/>
</g>
<!-- Node4 -->
<g id="node4" class="node">
<title>Node4</title>
<g id="a_node4"><a xlink:href="_a_b_l_8_h.html" target="_top" xlink:title=" ">
<polygon fill="white" stroke="black" points="931,-67.5 931,-86.5 977,-86.5 977,-67.5 931,-67.5"/>
<text text-anchor="middle" x="954" y="-74.5" font-family="Helvetica,sans-Serif" font-size="10.00">ABL.H</text>
</a>
</g>
</g>
<!-- Node3&#45;&gt;Node4 -->
<g id="edge3" class="edge">
<title>Node3&#45;&gt;Node4</title>
<path fill="none" stroke="midnightblue" d="M954,-112.8C954,-103.91 954,-93.78 954,-86.75"/>
<polygon fill="midnightblue" stroke="midnightblue" points="950.5,-113.08 954,-123.08 957.5,-113.08 950.5,-113.08"/>
</g>
<!-- Node5 -->
<g id="node5" class="node">
<title>Node5</title>
<g id="a_node5"><a xlink:href="_c_f_d_sim_8cpp.html" target="_top" xlink:title=" ">
<polygon fill="white" stroke="black" points="0,-6 0,-25 76,-25 76,-6 0,-6"/>
<text text-anchor="middle" x="38" y="-13" font-family="Helvetica,sans-Serif" font-size="10.00">CFDSim.cpp</text>
</a>
</g>
</g>
<!-- Node4&#45;&gt;Node5 -->
<g id="edge4" class="edge">
<title>Node4&#45;&gt;Node5</title>
<path fill="none" stroke="midnightblue" d="M920.76,-75.38C782.2,-72.61 250.09,-60.27 85,-31 77.26,-29.63 69.02,-27.37 61.63,-25.04"/>
<polygon fill="midnightblue" stroke="midnightblue" points="920.71,-78.88 930.78,-75.57 920.85,-71.88 920.71,-78.88"/>
</g>
<!-- Node6 -->
<g id="node6" class="node">
<title>Node6</title>
<g id="a_node6"><a xlink:href="_a_b_l_forcing_8cpp.html" target="_top" xlink:title=" ">
<polygon fill="white" stroke="black" points="94.5,-6 94.5,-25 185.5,-25 185.5,-6 94.5,-6"/>
<text text-anchor="middle" x="140" y="-13" font-family="Helvetica,sans-Serif" font-size="10.00">ABLForcing.cpp</text>
</a>
</g>
</g>
<!-- Node4&#45;&gt;Node6 -->
<g id="edge5" class="edge">
<title>Node4&#45;&gt;Node6</title>
<path fill="none" stroke="midnightblue" d="M920.72,-76.37C814.28,-77.06 472.87,-75.41 195,-31 186.13,-29.58 176.61,-27.34 168.03,-25.04"/>
<polygon fill="midnightblue" stroke="midnightblue" points="920.87,-79.87 930.84,-76.29 920.82,-72.87 920.87,-79.87"/>
</g>
<!-- Node7 -->
<g id="node7" class="node">
<title>Node7</title>
<g id="a_node7"><a xlink:href="_a_b_l_mean_boussinesq_8cpp.html" target="_top" xlink:title=" ">
<polygon fill="white" stroke="black" points="204,-6 204,-25 342,-25 342,-6 204,-6"/>
<text text-anchor="middle" x="273" y="-13" font-family="Helvetica,sans-Serif" font-size="10.00">ABLMeanBoussinesq.cpp</text>
</a>
</g>
</g>
<!-- Node4&#45;&gt;Node7 -->
<g id="edge6" class="edge">
<title>Node4&#45;&gt;Node7</title>
<path fill="none" stroke="midnightblue" d="M920.89,-74.8C829.7,-71.23 567.3,-59.09 351,-31 338.98,-29.44 326.01,-27.24 314.16,-25.02"/>
<polygon fill="midnightblue" stroke="midnightblue" points="920.78,-78.3 930.91,-75.19 921.05,-71.3 920.78,-78.3"/>
</g>
<!-- Node8 -->
<g id="node8" class="node">
<title>Node8</title>
<g id="a_node8"><a xlink:href="_a_b_l_meso_forcing_mom_8cpp.html" target="_top" xlink:title=" ">
<polygon fill="white" stroke="black" points="360,-6 360,-25 502,-25 502,-6 360,-6"/>
<text text-anchor="middle" x="431" y="-13" font-family="Helvetica,sans-Serif" font-size="10.00">ABLMesoForcingMom.cpp</text>
</a>
</g>
</g>
<!-- Node4&#45;&gt;Node8 -->
<g id="edge7" class="edge">
<title>Node4&#45;&gt;Node8</title>
<path fill="none" stroke="midnightblue" d="M920.78,-73.52C846.9,-67.8 663.48,-52.53 511,-31 499.12,-29.32 486.31,-27.16 474.5,-25.02"/>
<polygon fill="midnightblue" stroke="midnightblue" points="920.63,-77.02 930.86,-74.29 921.16,-70.04 920.63,-77.02"/>
</g>
<!-- Node9 -->
<g id="node9" class="node">
<title>Node9</title>
<g id="a_node9"><a xlink:href="_hurricane_forcing_8cpp.html" target="_top" xlink:title=" ">
<polygon fill="white" stroke="black" points="520.5,-6 520.5,-25 639.5,-25 639.5,-6 520.5,-6"/>
<text text-anchor="middle" x="580" y="-13" font-family="Helvetica,sans-Serif" font-size="10.00">HurricaneForcing.cpp</text>
</a>
</g>
</g>
<!-- Node4&#45;&gt;Node9 -->
<g id="edge8" class="edge">
<title>Node4&#45;&gt;Node9</title>
<path fill="none" stroke="midnightblue" d="M920.79,-71.83C864.49,-64.59 746.8,-48.78 648,-31 638.26,-29.25 627.78,-27.13 618.04,-25.06"/>
<polygon fill="midnightblue" stroke="midnightblue" points="920.52,-75.32 930.89,-73.12 921.41,-68.38 920.52,-75.32"/>
</g>
<!-- Node10 -->
<g id="node10" class="node">
<title>Node10</title>
<g id="a_node10"><a xlink:href="_a_b_l_meso_forcing_temp_8cpp.html" target="_top" xlink:title=" ">
<polygon fill="white" stroke="black" points="657.5,-6 657.5,-25 800.5,-25 800.5,-6 657.5,-6"/>
<text text-anchor="middle" x="729" y="-13" font-family="Helvetica,sans-Serif" font-size="10.00">ABLMesoForcingTemp.cpp</text>
</a>
</g>
</g>
<!-- Node4&#45;&gt;Node10 -->
<g id="edge9" class="edge">
<title>Node4&#45;&gt;Node10</title>
<path fill="none" stroke="midnightblue" d="M920.85,-67.23C878.03,-55.91 803.98,-36.33 761.49,-25.09"/>
<polygon fill="midnightblue" stroke="midnightblue" points="920.21,-70.68 930.77,-69.86 922,-63.92 920.21,-70.68"/>
</g>
<!-- Node11 -->
<g id="node11" class="node">
<title>Node11</title>
<g id="a_node11"><a xlink:href="_hurricane_temp_forcing_8cpp.html" target="_top" xlink:title=" ">
<polygon fill="white" stroke="black" points="819,-6 819,-25 965,-25 965,-6 819,-6"/>
<text text-anchor="middle" x="892" y="-13" font-family="Helvetica,sans-Serif" font-size="10.00">HurricaneTempForcing.cpp</text>
</a>
</g>
</g>
<!-- Node4&#45;&gt;Node11 -->
<g id="edge10" class="edge">
<title>Node4&#45;&gt;Node11</title>
<path fill="none" stroke="midnightblue" d="M937.67,-60.32C925.89,-49.02 910.44,-34.19 900.87,-25.01"/>
<polygon fill="midnightblue" stroke="midnightblue" points="935.48,-63.08 945.12,-67.48 940.33,-58.03 935.48,-63.08"/>
</g>
<!-- Node12 -->
<g id="node12" class="node">
<title>Node12</title>
<g id="a_node12"><a xlink:href="helics_8cpp.html" target="_top" xlink:title=" ">
<polygon fill="white" stroke="black" points="983.5,-6 983.5,-25 1048.5,-25 1048.5,-6 983.5,-6"/>
<text text-anchor="middle" x="1016" y="-13" font-family="Helvetica,sans-Serif" font-size="10.00">helics.cpp</text>
</a>
</g>
</g>
<!-- Node4&#45;&gt;Node12 -->
<g id="edge11" class="edge">
<title>Node4&#45;&gt;Node12</title>
<path fill="none" stroke="midnightblue" d="M970.33,-60.32C982.11,-49.02 997.56,-34.19 1007.13,-25.01"/>
<polygon fill="midnightblue" stroke="midnightblue" points="967.67,-58.03 962.88,-67.48 972.52,-63.08 967.67,-58.03"/>
</g>
<!-- Node13 -->
<g id="node13" class="node">
<title>Node13</title>
<g id="a_node13"><a xlink:href="incflo_8cpp.html" target="_top" xlink:title=" ">
<polygon fill="white" stroke="black" points="1066.5,-6 1066.5,-25 1129.5,-25 1129.5,-6 1066.5,-6"/>
<text text-anchor="middle" x="1098" y="-13" font-family="Helvetica,sans-Serif" font-size="10.00">incflo.cpp</text>
</a>
</g>
</g>
<!-- Node4&#45;&gt;Node13 -->
<g id="edge12" class="edge">
<title>Node4&#45;&gt;Node13</title>
<path fill="none" stroke="midnightblue" d="M983.93,-63.63C1011.91,-52.07 1052.94,-35.12 1077.41,-25.01"/>
<polygon fill="midnightblue" stroke="midnightblue" points="982.54,-60.42 974.63,-67.48 985.21,-66.89 982.54,-60.42"/>
</g>
<!-- Node14 -->
<g id="node14" class="node">
<title>Node14</title>
<g id="a_node14"><a xlink:href="incflo__apply__nodal__projection_8cpp.html" target="_top" xlink:title=" ">
<polygon fill="white" stroke="black" points="1147.5,-0.5 1147.5,-30.5 1254.5,-30.5 1254.5,-0.5 1147.5,-0.5"/>
<text text-anchor="start" x="1155.5" y="-18.5" font-family="Helvetica,sans-Serif" font-size="10.00">incflo_apply_nodal</text>
<text text-anchor="middle" x="1201" y="-7.5" font-family="Helvetica,sans-Serif" font-size="10.00">_projection.cpp</text>
</a>
</g>
</g>
<!-- Node4&#45;&gt;Node14 -->
<g id="edge13" class="edge">
<title>Node4&#45;&gt;Node14</title>
<path fill="none" stroke="midnightblue" d="M987,-68.05C1028.02,-58.17 1098.58,-41.17 1147.4,-29.41"/>
<polygon fill="midnightblue" stroke="midnightblue" points="986.14,-64.66 977.24,-70.4 987.78,-71.46 986.14,-64.66"/>
</g>
<!-- Node15 -->
<g id="node15" class="node">
<title>Node15</title>
<g id="a_node15"><a xlink:href="init_8cpp.html" target="_top" xlink:title=" ">
<polygon fill="white" stroke="black" points="1272.5,-6 1272.5,-25 1325.5,-25 1325.5,-6 1272.5,-6"/>
<text text-anchor="middle" x="1299" y="-13" font-family="Helvetica,sans-Serif" font-size="10.00">init.cpp</text>
</a>
</g>
</g>
<!-- Node4&#45;&gt;Node15 -->
<g id="edge14" class="edge">
<title>Node4&#45;&gt;Node15</title>
<path fill="none" stroke="midnightblue" d="M987.66,-73.86C1045.19,-69.6 1165.72,-58.04 1264,-31 1269.58,-29.46 1275.46,-27.27 1280.77,-25.05"/>
<polygon fill="midnightblue" stroke="midnightblue" points="987.07,-70.4 977.35,-74.6 987.57,-77.38 987.07,-70.4"/>
</g>
<!-- Node16 -->
<g id="node16" class="node">
<title>Node16</title>
<g id="a_node16"><a xlink:href="_a_b_l_8cpp.html" target="_top" xlink:title=" ">
<polygon fill="white" stroke="black" points="1344,-6 1344,-25 1400,-25 1400,-6 1344,-6"/>
<text text-anchor="middle" x="1372" y="-13" font-family="Helvetica,sans-Serif" font-size="10.00">ABL.cpp</text>
</a>
</g>
</g>
<!-- Node4&#45;&gt;Node16 -->
<g id="edge15" class="edge">
<title>Node4&#45;&gt;Node16</title>
<path fill="none" stroke="midnightblue" d="M987.48,-74.92C1054.43,-72.12 1209.23,-62.52 1335,-31 1340.89,-29.52 1347.1,-27.35 1352.72,-25.13"/>
<polygon fill="midnightblue" stroke="midnightblue" points="986.98,-71.43 977.13,-75.32 987.26,-78.43 986.98,-71.43"/>
</g>
<!-- Node17 -->
<g id="node17" class="node">
<title>Node17</title>
<g id="a_node17"><a xlink:href="_a_b_l_anelastic_8cpp.html" target="_top" xlink:title=" ">
<polygon fill="white" stroke="black" points="1418.5,-6 1418.5,-25 1519.5,-25 1519.5,-6 1418.5,-6"/>
<text text-anchor="middle" x="1469" y="-13" font-family="Helvetica,sans-Serif" font-size="10.00">ABLAnelastic.cpp</text>
</a>
</g>
</g>
<!-- Node4&#45;&gt;Node17 -->
<g id="edge16" class="edge">
<title>Node4&#45;&gt;Node17</title>
<path fill="none" stroke="midnightblue" d="M987.69,-74.27C1063.42,-70.03 1252.72,-57.48 1409,-31 1418.3,-29.42 1428.29,-27.22 1437.41,-25"/>
<polygon fill="midnightblue" stroke="midnightblue" points="987.15,-70.79 977.35,-74.84 987.53,-77.78 987.15,-70.79"/>
</g>
<!-- Node18 -->
<g id="node18" class="node">
<title>Node18</title>
<g id="a_node18"><a xlink:href="_a_b_l_wall_function_8cpp.html" target="_top" xlink:title=" ">
<polygon fill="white" stroke="black" points="1537.5,-6 1537.5,-25 1654.5,-25 1654.5,-6 1537.5,-6"/>
<text text-anchor="middle" x="1596" y="-13" font-family="Helvetica,sans-Serif" font-size="10.00">ABLWallFunction.cpp</text>
</a>
</g>
</g>
<!-- Node4&#45;&gt;Node18 -->
<g id="edge17" class="edge">
<title>Node4&#45;&gt;Node18</title>
<path fill="none" stroke="midnightblue" d="M987.37,-74.96C1076.01,-71.87 1324.52,-60.99 1529,-31 1539.36,-29.48 1550.52,-27.29 1560.7,-25.07"/>
<polygon fill="midnightblue" stroke="midnightblue" points="987.01,-71.47 977.13,-75.31 987.24,-78.47 987.01,-71.47"/>
</g>
</g>
</svg>
