<?xml version="1.0" encoding="UTF-8" standalone="no"?>
<!DOCTYPE svg PUBLIC "-//W3C//DTD SVG 1.1//EN"
 "http://www.w3.org/Graphics/SVG/1.1/DTD/svg11.dtd">
<!-- Generated by graphviz version 2.43.0 (0)
 -->
<!-- Title: OceanWavesOps.H Pages: 1 -->
<!--zoomable 196 -->
<svg id="main" version="1.1" xmlns="http://www.w3.org/2000/svg" xmlns:xlink="http://www.w3.org/1999/xlink" xml:space="preserve" onload="init(evt)">
<style type="text/css"><![CDATA[
.edge:hover path { stroke: red; }
.edge:hover polygon { stroke: red; fill: red; }
]]></style>
<script type="text/javascript"><![CDATA[
var edges = document.getElementsByTagName('g');
if (edges && edges.length) {
  for (var i=0;i<edges.length;i++) {
    if (edges[i].id.substr(0,4)=='edge') {
      edges[i].setAttribute('class','edge');
    }
  }
}
]]></script>
        <defs>
                <circle id="rim" cx="0" cy="0" r="7"/>
                <circle id="rim2" cx="0" cy="0" r="3.5"/>
                <g id="zoomPlus">
                        <use xlink:href="#rim" fill="#404040">
                                <set attributeName="fill" to="#808080" begin="zoomplus.mouseover" end="zoomplus.mouseout"/>
                        </use>
                        <path d="M-4,0h8M0,-4v8" fill="none" stroke="white" stroke-width="1.5" pointer-events="none"/>
                </g>
                <g id="zoomMin">
                        <use xlink:href="#rim" fill="#404040">
                                <set attributeName="fill" to="#808080" begin="zoomminus.mouseover" end="zoomminus.mouseout"/>
                        </use>
                        <path d="M-4,0h8" fill="none" stroke="white" stroke-width="1.5" pointer-events="none"/>
                </g>
                <g id="dirArrow">
                        <path fill="none" stroke="white" stroke-width="1.5" d="M0,-3.0v7 M-2.5,-0.5L0,-3.0L2.5,-0.5"/>
                </g>
               <g id="resetDef">
                       <use xlink:href="#rim2" fill="#404040">
                               <set attributeName="fill" to="#808080" begin="reset.mouseover" end="reset.mouseout"/>
                       </use>
               </g>
        </defs>

<script type="text/javascript">
var viewWidth = 680;
var viewHeight = 196;
var sectionId = 'dynsection-1';
</script>
<script xlink:href="svgpan.js"/>
<svg id="graph" class="graph">
<g id="viewport">
<title>OceanWavesOps.H</title>
<polygon fill="white" stroke="transparent" points="-4,4 -4,-192 676,-192 676,4 -4,4"/>
<!-- Node1 -->
<g id="node1" class="node">
<title>Node1</title>
<g id="a_node1"><a xlink:title=" ">
<polygon fill="#bfbfbf" stroke="black" points="214.5,-168.5 214.5,-187.5 323.5,-187.5 323.5,-168.5 214.5,-168.5"/>
<text text-anchor="middle" x="269" y="-175.5" font-family="Helvetica,sans-Serif" font-size="10.00">OceanWavesOps.H</text>
</a>
</g>
</g>
<!-- Node2 -->
<g id="node2" class="node">
<title>Node2</title>
<g id="a_node2"><a xlink:href="_ocean_waves_model_8_h.html" target="_top" xlink:title=" ">
<polygon fill="white" stroke="black" points="122,-56.5 122,-75.5 242,-75.5 242,-56.5 122,-56.5"/>
<text text-anchor="middle" x="182" y="-63.5" font-family="Helvetica,sans-Serif" font-size="10.00">OceanWavesModel.H</text>
</a>
</g>
</g>
<!-- Node1&#45;&gt;Node2 -->
<g id="edge1" class="edge">
<title>Node1&#45;&gt;Node2</title>
<path fill="none" stroke="midnightblue" d="M255.77,-160.27C236.96,-136.49 203.19,-93.79 188.8,-75.59"/>
<polygon fill="midnightblue" stroke="midnightblue" points="253.22,-162.7 262.17,-168.37 258.72,-158.35 253.22,-162.7"/>
</g>
<!-- Node7 -->
<g id="node7" class="node">
<title>Node7</title>
<g id="a_node7"><a xlink:href="hos__waves__ops_8_h.html" target="_top" xlink:title=" ">
<polygon fill="white" stroke="black" points="0,-56.5 0,-75.5 104,-75.5 104,-56.5 0,-56.5"/>
<text text-anchor="middle" x="52" y="-63.5" font-family="Helvetica,sans-Serif" font-size="10.00">hos_waves_ops.H</text>
</a>
</g>
</g>
<!-- Node1&#45;&gt;Node7 -->
<g id="edge6" class="edge">
<title>Node1&#45;&gt;Node7</title>
<path fill="none" stroke="midnightblue" d="M242.83,-163.73C197.75,-140.88 106.67,-94.71 68.95,-75.59"/>
<polygon fill="midnightblue" stroke="midnightblue" points="241.47,-166.97 251.97,-168.37 244.64,-160.73 241.47,-166.97"/>
</g>
<!-- Node8 -->
<g id="node8" class="node">
<title>Node8</title>
<g id="a_node8"><a xlink:href="linear__waves__ops_8_h.html" target="_top" xlink:title=" ">
<polygon fill="white" stroke="black" points="260,-56.5 260,-75.5 374,-75.5 374,-56.5 260,-56.5"/>
<text text-anchor="middle" x="317" y="-63.5" font-family="Helvetica,sans-Serif" font-size="10.00">linear_waves_ops.H</text>
</a>
</g>
</g>
<!-- Node1&#45;&gt;Node8 -->
<g id="edge8" class="edge">
<title>Node1&#45;&gt;Node8</title>
<path fill="none" stroke="midnightblue" d="M272.91,-158.46C276.08,-145.17 281.13,-127.04 288,-112 294.18,-98.47 303.96,-84.28 310.43,-75.53"/>
<polygon fill="midnightblue" stroke="midnightblue" points="269.48,-157.78 270.7,-168.3 276.31,-159.31 269.48,-157.78"/>
</g>
<!-- Node9 -->
<g id="node9" class="node">
<title>Node9</title>
<g id="a_node9"><a xlink:href="relaxation__zones__ops_8_h.html" target="_top" xlink:title=" ">
<polygon fill="white" stroke="black" points="297.5,-112.5 297.5,-131.5 430.5,-131.5 430.5,-112.5 297.5,-112.5"/>
<text text-anchor="middle" x="364" y="-119.5" font-family="Helvetica,sans-Serif" font-size="10.00">relaxation_zones_ops.H</text>
</a>
</g>
</g>
<!-- Node1&#45;&gt;Node9 -->
<g id="edge10" class="edge">
<title>Node1&#45;&gt;Node9</title>
<path fill="none" stroke="midnightblue" d="M293.32,-163.18C310.8,-153.24 333.83,-140.15 348.77,-131.65"/>
<polygon fill="midnightblue" stroke="midnightblue" points="291.23,-160.34 284.26,-168.32 294.69,-166.43 291.23,-160.34"/>
</g>
<!-- Node11 -->
<g id="node11" class="node">
<title>Node11</title>
<g id="a_node11"><a xlink:href="stokes__waves__ops_8_h.html" target="_top" xlink:title=" ">
<polygon fill="white" stroke="black" points="554,-56.5 554,-75.5 672,-75.5 672,-56.5 554,-56.5"/>
<text text-anchor="middle" x="613" y="-63.5" font-family="Helvetica,sans-Serif" font-size="10.00">stokes_waves_ops.H</text>
</a>
</g>
</g>
<!-- Node1&#45;&gt;Node11 -->
<g id="edge16" class="edge">
<title>Node1&#45;&gt;Node11</title>
<path fill="none" stroke="midnightblue" d="M315.22,-166.08C349.61,-157.63 397.56,-145.19 439,-132 495.08,-114.15 559.63,-88.72 592.07,-75.58"/>
<polygon fill="midnightblue" stroke="midnightblue" points="314.33,-162.69 305.45,-168.46 315.99,-169.49 314.33,-162.69"/>
</g>
<!-- Node3 -->
<g id="node3" class="node">
<title>Node3</title>
<g id="a_node3"><a xlink:href="_ocean_waves_8cpp.html" target="_top" xlink:title=" ">
<polygon fill="white" stroke="black" points="132,-0.5 132,-19.5 232,-19.5 232,-0.5 132,-0.5"/>
<text text-anchor="middle" x="182" y="-7.5" font-family="Helvetica,sans-Serif" font-size="10.00">OceanWaves.cpp</text>
</a>
</g>
</g>
<!-- Node2&#45;&gt;Node3 -->
<g id="edge2" class="edge">
<title>Node2&#45;&gt;Node3</title>
<path fill="none" stroke="midnightblue" d="M182,-45.8C182,-36.91 182,-26.78 182,-19.75"/>
<polygon fill="midnightblue" stroke="midnightblue" points="178.5,-46.08 182,-56.08 185.5,-46.08 178.5,-46.08"/>
</g>
<!-- Node4 -->
<g id="node4" class="node">
<title>Node4</title>
<g id="a_node4"><a xlink:href="_h_o_s_waves_8cpp.html" target="_top" xlink:title=" ">
<polygon fill="white" stroke="black" points="16,-0.5 16,-19.5 106,-19.5 106,-0.5 16,-0.5"/>
<text text-anchor="middle" x="61" y="-7.5" font-family="Helvetica,sans-Serif" font-size="10.00">HOSWaves.cpp</text>
</a>
</g>
</g>
<!-- Node2&#45;&gt;Node4 -->
<g id="edge3" class="edge">
<title>Node2&#45;&gt;Node4</title>
<path fill="none" stroke="midnightblue" d="M153.69,-52.37C131.03,-42.26 99.87,-28.35 80.08,-19.52"/>
<polygon fill="midnightblue" stroke="midnightblue" points="152.27,-55.56 162.83,-56.44 155.12,-49.17 152.27,-55.56"/>
</g>
<!-- Node5 -->
<g id="node5" class="node">
<title>Node5</title>
<g id="a_node5"><a xlink:href="_linear_waves_8cpp.html" target="_top" xlink:title=" ">
<polygon fill="white" stroke="black" points="258.5,-0.5 258.5,-19.5 357.5,-19.5 357.5,-0.5 258.5,-0.5"/>
<text text-anchor="middle" x="308" y="-7.5" font-family="Helvetica,sans-Serif" font-size="10.00">LinearWaves.cpp</text>
</a>
</g>
</g>
<!-- Node2&#45;&gt;Node5 -->
<g id="edge4" class="edge">
<title>Node2&#45;&gt;Node5</title>
<path fill="none" stroke="midnightblue" d="M211.16,-52.5C234.78,-42.38 267.43,-28.39 288.13,-19.52"/>
<polygon fill="midnightblue" stroke="midnightblue" points="209.78,-49.29 201.97,-56.44 212.54,-55.72 209.78,-49.29"/>
</g>
<!-- Node6 -->
<g id="node6" class="node">
<title>Node6</title>
<g id="a_node6"><a xlink:href="_stokes_waves_8cpp.html" target="_top" xlink:title=" ">
<polygon fill="white" stroke="black" points="468.5,-0.5 468.5,-19.5 569.5,-19.5 569.5,-0.5 468.5,-0.5"/>
<text text-anchor="middle" x="519" y="-7.5" font-family="Helvetica,sans-Serif" font-size="10.00">StokesWaves.cpp</text>
</a>
</g>
</g>
<!-- Node2&#45;&gt;Node6 -->
<g id="edge5" class="edge">
<title>Node2&#45;&gt;Node6</title>
<path fill="none" stroke="midnightblue" d="M245.46,-54.83C310.02,-44.49 408.81,-28.66 468.33,-19.12"/>
<polygon fill="midnightblue" stroke="midnightblue" points="244.72,-51.41 235.4,-56.44 245.83,-58.32 244.72,-51.41"/>
</g>
<!-- Node7&#45;&gt;Node4 -->
<g id="edge7" class="edge">
<title>Node7&#45;&gt;Node4</title>
<path fill="none" stroke="midnightblue" d="M55.15,-46.1C56.64,-37.14 58.36,-26.86 59.54,-19.75"/>
<polygon fill="midnightblue" stroke="midnightblue" points="51.68,-45.64 53.49,-56.08 58.58,-46.79 51.68,-45.64"/>
</g>
<!-- Node8&#45;&gt;Node5 -->
<g id="edge9" class="edge">
<title>Node8&#45;&gt;Node5</title>
<path fill="none" stroke="midnightblue" d="M313.85,-46.1C312.36,-37.14 310.64,-26.86 309.46,-19.75"/>
<polygon fill="midnightblue" stroke="midnightblue" points="310.42,-46.79 315.51,-56.08 317.32,-45.64 310.42,-46.79"/>
</g>
<!-- Node9&#45;&gt;Node7 -->
<g id="edge11" class="edge">
<title>Node9&#45;&gt;Node7</title>
<path fill="none" stroke="midnightblue" d="M304.65,-110.73C245.69,-100.52 156.34,-85.06 101.21,-75.52"/>
<polygon fill="midnightblue" stroke="midnightblue" points="304.11,-114.19 314.56,-112.44 305.31,-107.29 304.11,-114.19"/>
</g>
<!-- Node9&#45;&gt;Node8 -->
<g id="edge12" class="edge">
<title>Node9&#45;&gt;Node8</title>
<path fill="none" stroke="midnightblue" d="M349.58,-104.43C341.34,-94.97 331.35,-83.48 324.62,-75.75"/>
<polygon fill="midnightblue" stroke="midnightblue" points="347.03,-106.84 356.24,-112.08 352.31,-102.24 347.03,-106.84"/>
</g>
<!-- Node10 -->
<g id="node10" class="node">
<title>Node10</title>
<g id="a_node10"><a xlink:href="relaxation__zones__ops_8cpp.html" target="_top" xlink:title=" ">
<polygon fill="white" stroke="black" points="392.5,-56.5 392.5,-75.5 535.5,-75.5 535.5,-56.5 392.5,-56.5"/>
<text text-anchor="middle" x="464" y="-63.5" font-family="Helvetica,sans-Serif" font-size="10.00">relaxation_zones_ops.cpp</text>
</a>
</g>
</g>
<!-- Node9&#45;&gt;Node10 -->
<g id="edge13" class="edge">
<title>Node9&#45;&gt;Node10</title>
<path fill="none" stroke="midnightblue" d="M389.09,-107.45C407.55,-97.48 432.1,-84.23 447.97,-75.65"/>
<polygon fill="midnightblue" stroke="midnightblue" points="387.2,-104.49 380.07,-112.32 390.53,-110.65 387.2,-104.49"/>
</g>
<!-- Node9&#45;&gt;Node11 -->
<g id="edge14" class="edge">
<title>Node9&#45;&gt;Node11</title>
<path fill="none" stroke="midnightblue" d="M413.42,-110.28C460.48,-100.08 530.37,-84.92 573.73,-75.52"/>
<polygon fill="midnightblue" stroke="midnightblue" points="412.49,-106.9 403.45,-112.44 413.97,-113.74 412.49,-106.9"/>
</g>
<!-- Node11&#45;&gt;Node6 -->
<g id="edge15" class="edge">
<title>Node11&#45;&gt;Node6</title>
<path fill="none" stroke="midnightblue" d="M588.94,-51.18C571.64,-41.24 548.85,-28.15 534.07,-19.65"/>
<polygon fill="midnightblue" stroke="midnightblue" points="587.48,-54.38 597.9,-56.32 590.97,-48.31 587.48,-54.38"/>
</g>
</g>
</svg>
        <g id="navigator" transform="translate(0 0)" fill="#404254">
                <rect fill="#f2f5e9" fill-opacity="0.5" stroke="#606060" stroke-width=".5" x="0" y="0" width="60" height="60"/>
                <use id="zoomplus" xlink:href="#zoomPlus" x="17" y="9" onmousedown="handleZoom(evt,'in')"/>
                <use id="zoomminus" xlink:href="#zoomMin" x="42" y="9" onmousedown="handleZoom(evt,'out')"/>
                <use id="reset" xlink:href="#resetDef" x="30" y="36" onmousedown="handleReset()"/>
                <g id="arrowUp" xlink:href="#dirArrow" transform="translate(30 24)" onmousedown="handlePan(0,-1)">
                  <use xlink:href="#rim" fill="#404040">
                        <set attributeName="fill" to="#808080" begin="arrowUp.mouseover" end="arrowUp.mouseout"/>
                  </use>
                  <path fill="none" stroke="white" stroke-width="1.5" d="M0,-3.0v7 M-2.5,-0.5L0,-3.0L2.5,-0.5"/>
                </g>
                <g id="arrowRight" xlink:href="#dirArrow" transform="rotate(90) translate(36 -43)" onmousedown="handlePan(1,0)">
                  <use xlink:href="#rim" fill="#404040">
                        <set attributeName="fill" to="#808080" begin="arrowRight.mouseover" end="arrowRight.mouseout"/>
                  </use>
                  <path fill="none" stroke="white" stroke-width="1.5" d="M0,-3.0v7 M-2.5,-0.5L0,-3.0L2.5,-0.5"/>
                </g>
                <g id="arrowDown" xlink:href="#dirArrow" transform="rotate(180) translate(-30 -48)" onmousedown="handlePan(0,1)">
                  <use xlink:href="#rim" fill="#404040">
                        <set attributeName="fill" to="#808080" begin="arrowDown.mouseover" end="arrowDown.mouseout"/>
                  </use>
                  <path fill="none" stroke="white" stroke-width="1.5" d="M0,-3.0v7 M-2.5,-0.5L0,-3.0L2.5,-0.5"/>
                </g>
                <g id="arrowLeft" xlink:href="#dirArrow" transform="rotate(270) translate(-36 17)" onmousedown="handlePan(-1,0)">
                  <use xlink:href="#rim" fill="#404040">
                        <set attributeName="fill" to="#808080" begin="arrowLeft.mouseover" end="arrowLeft.mouseout"/>
                  </use>
                  <path fill="none" stroke="white" stroke-width="1.5" d="M0,-3.0v7 M-2.5,-0.5L0,-3.0L2.5,-0.5"/>
                </g>
        </g>
        <svg viewBox="0 0 15 15" width="100%" height="30px" preserveAspectRatio="xMaxYMin meet">
         <g id="arrow_out" transform="scale(0.3 0.3)">
          <a xlink:href="_ocean_waves_ops_8_h__dep__incl_org.svg" target="_base">
           <rect id="button" ry="5" rx="5" y="6" x="6" height="38" width="38"
                fill="#f2f5e9" fill-opacity="0.5" stroke="#606060" stroke-width="1.0"/>
           <path id="arrow"
             d="M 11.500037,31.436501 C 11.940474,20.09759 22.043105,11.32322 32.158766,21.979434 L 37.068811,17.246167 C 37.068811,17.246167 37.088388,32 37.088388,32 L 22.160133,31.978069 C 22.160133,31.978069 26.997745,27.140456 26.997745,27.140456 C 18.528582,18.264221 13.291696,25.230495 11.500037,31.436501 z"
             style="fill:#404040;"/>
          </a>
         </g>
        </svg>
</svg>
