<?xml version="1.0" encoding="UTF-8" standalone="no"?>
<!DOCTYPE svg PUBLIC "-//W3C//DTD SVG 1.1//EN"
 "http://www.w3.org/Graphics/SVG/1.1/DTD/svg11.dtd">
<!-- Generated by graphviz version 2.43.0 (0)
 -->
<!-- Title: Physics.H Pages: 1 -->
<svg width="3840pt" height="196pt"
 viewBox="0.00 0.00 3839.97 196.00" xmlns="http://www.w3.org/2000/svg" xmlns:xlink="http://www.w3.org/1999/xlink">
<g id="graph0" class="graph" transform="scale(1 1) rotate(0) translate(4 192)">
<title>Physics.H</title>
<polygon fill="white" stroke="transparent" points="-4,4 -4,-192 3835.97,-192 3835.97,4 -4,4"/>
<!-- Node1 -->
<g id="node1" class="node">
<title>Node1</title>
<g id="a_node1"><a xlink:title=" ">
<polygon fill="#bfbfbf" stroke="black" points="2020.97,-168.5 2020.97,-187.5 2084.97,-187.5 2084.97,-168.5 2020.97,-168.5"/>
<text text-anchor="middle" x="2052.97" y="-175.5" font-family="Helvetica,sans-Serif" font-size="10.00">Physics.H</text>
</a>
</g>
</g>
<!-- Node2 -->
<g id="node2" class="node">
<title>Node2</title>
<g id="a_node2"><a xlink:href="_c_f_d_sim_8_h.html" target="_top" xlink:title=" ">
<polygon fill="white" stroke="red" points="1570.97,-112.5 1570.97,-131.5 1636.97,-131.5 1636.97,-112.5 1570.97,-112.5"/>
<text text-anchor="middle" x="1603.97" y="-119.5" font-family="Helvetica,sans-Serif" font-size="10.00">CFDSim.H</text>
</a>
</g>
</g>
<!-- Node1&#45;&gt;Node2 -->
<g id="edge1" class="edge">
<title>Node1&#45;&gt;Node2</title>
<path fill="none" stroke="midnightblue" d="M2010.58,-173.35C1937.12,-166.77 1781.51,-151.77 1650.97,-132 1646.45,-131.32 1641.7,-130.51 1637.03,-129.67"/>
<polygon fill="midnightblue" stroke="midnightblue" points="2010.54,-176.86 2020.81,-174.26 2011.16,-169.89 2010.54,-176.86"/>
</g>
<!-- Node5 -->
<g id="node4" class="node">
<title>Node5</title>
<g id="a_node4"><a xlink:href="_channel_flow_8_h.html" target="_top" xlink:title=" ">
<polygon fill="white" stroke="red" points="1278.47,-0.5 1278.47,-19.5 1367.47,-19.5 1367.47,-0.5 1278.47,-0.5"/>
<text text-anchor="middle" x="1322.97" y="-7.5" font-family="Helvetica,sans-Serif" font-size="10.00">ChannelFlow.H</text>
</a>
</g>
</g>
<!-- Node1&#45;&gt;Node5 -->
<g id="edge34" class="edge">
<title>Node1&#45;&gt;Node5</title>
<path fill="none" stroke="midnightblue" d="M2010.82,-176.91C1731.56,-176.18 156.12,-170.4 62.97,-132 29.54,-118.22 18.24,-109.22 3.97,-76 0.46,-67.83 -2.21,-62.39 3.97,-56 49.17,-9.22 1052.4,-10.03 1278.13,-10.8"/>
<polygon fill="midnightblue" stroke="midnightblue" points="2010.94,-180.41 2020.95,-176.93 2010.95,-173.41 2010.94,-180.41"/>
</g>
<!-- Node137 -->
<g id="node21" class="node">
<title>Node137</title>
<g id="a_node21"><a xlink:href="_burggraf_flow_8_h.html" target="_top" xlink:title=" ">
<polygon fill="white" stroke="red" points="2401.97,-56.5 2401.97,-75.5 2493.97,-75.5 2493.97,-56.5 2401.97,-56.5"/>
<text text-anchor="middle" x="2447.97" y="-63.5" font-family="Helvetica,sans-Serif" font-size="10.00">BurggrafFlow.H</text>
</a>
</g>
</g>
<!-- Node1&#45;&gt;Node137 -->
<g id="edge33" class="edge">
<title>Node1&#45;&gt;Node137</title>
<path fill="none" stroke="midnightblue" d="M2010.67,-175.99C1905.46,-172.75 1643.55,-159.81 1688.97,-112 1715.75,-83.81 2349.28,-79.89 2387.97,-76 2392.47,-75.55 2397.16,-74.99 2401.83,-74.38"/>
<polygon fill="midnightblue" stroke="midnightblue" points="2010.84,-179.5 2020.94,-176.29 2011.05,-172.5 2010.84,-179.5"/>
</g>
<!-- Node139 -->
<g id="node22" class="node">
<title>Node139</title>
<g id="a_node22"><a xlink:href="_convecting_taylor_vortex_8_h.html" target="_top" xlink:title=" ">
<polygon fill="white" stroke="red" points="2512.47,-56.5 2512.47,-75.5 2655.47,-75.5 2655.47,-56.5 2512.47,-56.5"/>
<text text-anchor="middle" x="2583.97" y="-63.5" font-family="Helvetica,sans-Serif" font-size="10.00">ConvectingTaylorVortex.H</text>
</a>
</g>
</g>
<!-- Node1&#45;&gt;Node139 -->
<g id="edge35" class="edge">
<title>Node1&#45;&gt;Node139</title>
<path fill="none" stroke="midnightblue" d="M2010.73,-177.71C1931.05,-178.06 1763.29,-173.69 1726.97,-132 1721.13,-125.3 1720.83,-118.43 1726.97,-112 1756.77,-80.78 2459.94,-79.38 2502.97,-76 2506.07,-75.76 2509.24,-75.49 2512.44,-75.2"/>
<polygon fill="midnightblue" stroke="midnightblue" points="2010.93,-181.21 2020.91,-177.64 2010.88,-174.21 2010.93,-181.21"/>
</g>
<!-- Node141 -->
<g id="node23" class="node">
<title>Node141</title>
<g id="a_node23"><a xlink:href="_ekman_spiral_8_h.html" target="_top" xlink:title=" ">
<polygon fill="white" stroke="red" points="2673.47,-56.5 2673.47,-75.5 2762.47,-75.5 2762.47,-56.5 2673.47,-56.5"/>
<text text-anchor="middle" x="2717.97" y="-63.5" font-family="Helvetica,sans-Serif" font-size="10.00">EkmanSpiral.H</text>
</a>
</g>
</g>
<!-- Node1&#45;&gt;Node141 -->
<g id="edge36" class="edge">
<title>Node1&#45;&gt;Node141</title>
<path fill="none" stroke="midnightblue" d="M2010.72,-176.84C1938.51,-175.56 1796.09,-168.37 1764.97,-132 1759.19,-125.25 1758.81,-118.41 1764.97,-112 1799.64,-75.92 2615.2,-81.2 2664.97,-76 2667.66,-75.72 2670.42,-75.39 2673.2,-75.02"/>
<polygon fill="midnightblue" stroke="midnightblue" points="2010.8,-180.34 2020.85,-176.98 2010.9,-173.34 2010.8,-180.34"/>
</g>
<!-- Node143 -->
<g id="node24" class="node">
<title>Node143</title>
<g id="a_node24"><a xlink:href="_hybrid_r_a_n_s_l_e_s_a_b_l_8_h.html" target="_top" xlink:title=" ">
<polygon fill="white" stroke="red" points="2780.47,-56.5 2780.47,-75.5 2903.47,-75.5 2903.47,-56.5 2780.47,-56.5"/>
<text text-anchor="middle" x="2841.97" y="-63.5" font-family="Helvetica,sans-Serif" font-size="10.00">HybridRANSLESABL.H</text>
</a>
</g>
</g>
<!-- Node1&#45;&gt;Node143 -->
<g id="edge38" class="edge">
<title>Node1&#45;&gt;Node143</title>
<path fill="none" stroke="midnightblue" d="M2010.7,-175.7C1946.46,-172.73 1828.96,-163.09 1802.97,-132 1797.26,-125.18 1796.8,-118.4 1802.97,-112 1840.34,-73.21 2718.28,-80.44 2771.97,-76 2774.65,-75.78 2777.39,-75.53 2780.16,-75.26"/>
<polygon fill="midnightblue" stroke="midnightblue" points="2010.77,-179.2 2020.91,-176.13 2011.06,-172.21 2010.77,-179.2"/>
</g>
<!-- Node145 -->
<g id="node25" class="node">
<title>Node145</title>
<g id="a_node25"><a xlink:href="_m_m_s_8_h.html" target="_top" xlink:title=" ">
<polygon fill="white" stroke="red" points="2921.47,-56.5 2921.47,-75.5 2972.47,-75.5 2972.47,-56.5 2921.47,-56.5"/>
<text text-anchor="middle" x="2946.97" y="-63.5" font-family="Helvetica,sans-Serif" font-size="10.00">MMS.H</text>
</a>
</g>
</g>
<!-- Node1&#45;&gt;Node145 -->
<g id="edge39" class="edge">
<title>Node1&#45;&gt;Node145</title>
<path fill="none" stroke="midnightblue" d="M2010.74,-176.82C1935.2,-175.18 1789.47,-165.26 1840.97,-112 1882.39,-69.16 2854.01,-84.68 2912.97,-76 2915.62,-75.61 2918.37,-75.09 2921.1,-74.49"/>
<polygon fill="midnightblue" stroke="midnightblue" points="2010.84,-180.32 2020.9,-177 2010.96,-173.32 2010.84,-180.32"/>
</g>
<!-- Node158 -->
<g id="node26" class="node">
<title>Node158</title>
<g id="a_node26"><a xlink:href="_synthetic_turbulence_8_h.html" target="_top" xlink:title=" ">
<polygon fill="white" stroke="red" points="2990.47,-56.5 2990.47,-75.5 3115.47,-75.5 3115.47,-56.5 2990.47,-56.5"/>
<text text-anchor="middle" x="3052.97" y="-63.5" font-family="Helvetica,sans-Serif" font-size="10.00">SyntheticTurbulence.H</text>
</a>
</g>
</g>
<!-- Node1&#45;&gt;Node158 -->
<g id="edge53" class="edge">
<title>Node1&#45;&gt;Node158</title>
<path fill="none" stroke="midnightblue" d="M2010.82,-174.94C1945.71,-170.36 1832.4,-155.98 1874.97,-112 1917.76,-67.79 2920.63,-80.87 2981.97,-76 2984.69,-75.78 2987.47,-75.54 2990.28,-75.27"/>
<polygon fill="midnightblue" stroke="midnightblue" points="2010.62,-178.44 2020.82,-175.6 2011.07,-171.45 2010.62,-178.44"/>
</g>
<!-- Node254 -->
<g id="node27" class="node">
<title>Node254</title>
<g id="a_node27"><a xlink:href="_i_b_8_h.html" target="_top" xlink:title=" ">
<polygon fill="white" stroke="red" points="1883.47,-112.5 1883.47,-131.5 1920.47,-131.5 1920.47,-112.5 1883.47,-112.5"/>
<text text-anchor="middle" x="1901.97" y="-119.5" font-family="Helvetica,sans-Serif" font-size="10.00">IB.H</text>
</a>
</g>
</g>
<!-- Node1&#45;&gt;Node254 -->
<g id="edge28" class="edge">
<title>Node1&#45;&gt;Node254</title>
<path fill="none" stroke="midnightblue" d="M2019.27,-164.95C1988.81,-154.06 1945.1,-138.43 1920.54,-129.64"/>
<polygon fill="midnightblue" stroke="midnightblue" points="2018.44,-168.37 2029.04,-168.44 2020.8,-161.78 2018.44,-168.37"/>
</g>
<!-- Node96 -->
<g id="node28" class="node">
<title>Node96</title>
<g id="a_node28"><a xlink:href="incflo__advance_8cpp.html" target="_top" xlink:title=" ">
<polygon fill="white" stroke="black" points="1938.97,-112.5 1938.97,-131.5 2048.97,-131.5 2048.97,-112.5 1938.97,-112.5"/>
<text text-anchor="middle" x="1993.97" y="-119.5" font-family="Helvetica,sans-Serif" font-size="10.00">incflo_advance.cpp</text>
</a>
</g>
</g>
<!-- Node1&#45;&gt;Node96 -->
<g id="edge29" class="edge">
<title>Node1&#45;&gt;Node96</title>
<path fill="none" stroke="midnightblue" d="M2036.07,-161.54C2025.55,-151.91 2012.4,-139.87 2003.62,-131.83"/>
<polygon fill="midnightblue" stroke="midnightblue" points="2033.75,-164.15 2043.49,-168.32 2038.47,-158.99 2033.75,-164.15"/>
</g>
<!-- Node255 -->
<g id="node29" class="node">
<title>Node255</title>
<g id="a_node29"><a xlink:href="_ocean_waves_8_h.html" target="_top" xlink:title=" ">
<polygon fill="white" stroke="red" points="2066.97,-112.5 2066.97,-131.5 2156.97,-131.5 2156.97,-112.5 2066.97,-112.5"/>
<text text-anchor="middle" x="2111.97" y="-119.5" font-family="Helvetica,sans-Serif" font-size="10.00">OceanWaves.H</text>
</a>
</g>
</g>
<!-- Node1&#45;&gt;Node255 -->
<g id="edge30" class="edge">
<title>Node1&#45;&gt;Node255</title>
<path fill="none" stroke="midnightblue" d="M2069.86,-161.54C2080.38,-151.91 2093.53,-139.87 2102.31,-131.83"/>
<polygon fill="midnightblue" stroke="midnightblue" points="2067.46,-158.99 2062.45,-168.32 2072.18,-164.15 2067.46,-158.99"/>
</g>
<!-- Node256 -->
<g id="node30" class="node">
<title>Node256</title>
<g id="a_node30"><a xlink:href="_boussinesq_bubble_8_h.html" target="_top" xlink:title=" ">
<polygon fill="white" stroke="red" points="99.97,-112.5 99.97,-131.5 215.97,-131.5 215.97,-112.5 99.97,-112.5"/>
<text text-anchor="middle" x="157.97" y="-119.5" font-family="Helvetica,sans-Serif" font-size="10.00">BoussinesqBubble.H</text>
</a>
</g>
</g>
<!-- Node1&#45;&gt;Node256 -->
<g id="edge31" class="edge">
<title>Node1&#45;&gt;Node256</title>
<path fill="none" stroke="midnightblue" d="M2010.7,-176.56C1815.14,-174.38 978.42,-163.6 292.97,-132 267.74,-130.84 239.9,-129.06 216.08,-127.4"/>
<polygon fill="midnightblue" stroke="midnightblue" points="2010.8,-180.06 2020.84,-176.67 2010.88,-173.06 2010.8,-180.06"/>
</g>
<!-- Node101 -->
<g id="node31" class="node">
<title>Node101</title>
<g id="a_node31"><a xlink:href="init_8cpp.html" target="_top" xlink:title=" ">
<polygon fill="white" stroke="black" points="13.47,-56.5 13.47,-75.5 66.47,-75.5 66.47,-56.5 13.47,-56.5"/>
<text text-anchor="middle" x="39.97" y="-63.5" font-family="Helvetica,sans-Serif" font-size="10.00">init.cpp</text>
</a>
</g>
</g>
<!-- Node1&#45;&gt;Node101 -->
<g id="edge58" class="edge">
<title>Node1&#45;&gt;Node101</title>
<path fill="none" stroke="midnightblue" d="M2010.9,-177.05C1733.9,-177.26 179.75,-176.45 90.97,-132 66.85,-119.93 50.65,-90.53 43.75,-75.77"/>
<polygon fill="midnightblue" stroke="midnightblue" points="2010.95,-180.55 2020.95,-177.04 2010.95,-173.55 2010.95,-180.55"/>
</g>
<!-- Node257 -->
<g id="node32" class="node">
<title>Node257</title>
<g id="a_node32"><a xlink:href="_free_stream_8_h.html" target="_top" xlink:title=" ">
<polygon fill="white" stroke="red" points="2175.47,-112.5 2175.47,-131.5 2258.47,-131.5 2258.47,-112.5 2175.47,-112.5"/>
<text text-anchor="middle" x="2216.97" y="-119.5" font-family="Helvetica,sans-Serif" font-size="10.00">FreeStream.H</text>
</a>
</g>
</g>
<!-- Node1&#45;&gt;Node257 -->
<g id="edge37" class="edge">
<title>Node1&#45;&gt;Node257</title>
<path fill="none" stroke="midnightblue" d="M2088.49,-165.3C2119.39,-155.13 2163.44,-140.62 2191.1,-131.52"/>
<polygon fill="midnightblue" stroke="midnightblue" points="2087.36,-161.99 2078.95,-168.44 2089.55,-168.64 2087.36,-161.99"/>
</g>
<!-- Node258 -->
<g id="node33" class="node">
<title>Node258</title>
<g id="a_node33"><a xlink:href="_breaking_waves_8_h.html" target="_top" xlink:title=" ">
<polygon fill="white" stroke="red" points="2276.47,-112.5 2276.47,-131.5 2379.47,-131.5 2379.47,-112.5 2276.47,-112.5"/>
<text text-anchor="middle" x="2327.97" y="-119.5" font-family="Helvetica,sans-Serif" font-size="10.00">BreakingWaves.H</text>
</a>
</g>
</g>
<!-- Node1&#45;&gt;Node258 -->
<g id="edge40" class="edge">
<title>Node1&#45;&gt;Node258</title>
<path fill="none" stroke="midnightblue" d="M2095.12,-168.72C2146.38,-158.66 2232.43,-141.76 2284.34,-131.57"/>
<polygon fill="midnightblue" stroke="midnightblue" points="2094.19,-165.34 2085.05,-170.7 2095.54,-172.21 2094.19,-165.34"/>
</g>
<!-- Node259 -->
<g id="node34" class="node">
<title>Node259</title>
<g id="a_node34"><a xlink:href="_dam_break_8_h.html" target="_top" xlink:title=" ">
<polygon fill="white" stroke="red" points="2397.47,-112.5 2397.47,-131.5 2476.47,-131.5 2476.47,-112.5 2397.47,-112.5"/>
<text text-anchor="middle" x="2436.97" y="-119.5" font-family="Helvetica,sans-Serif" font-size="10.00">DamBreak.H</text>
</a>
</g>
</g>
<!-- Node1&#45;&gt;Node259 -->
<g id="edge41" class="edge">
<title>Node1&#45;&gt;Node259</title>
<path fill="none" stroke="midnightblue" d="M2095.08,-172.08C2158.82,-164.46 2283.55,-148.93 2388.97,-132 2391.73,-131.56 2394.58,-131.08 2397.44,-130.58"/>
<polygon fill="midnightblue" stroke="midnightblue" points="2094.53,-168.62 2085.01,-173.27 2095.36,-175.57 2094.53,-168.62"/>
</g>
<!-- Node260 -->
<g id="node35" class="node">
<title>Node260</title>
<g id="a_node35"><a xlink:href="_multi_phase_8_h.html" target="_top" xlink:title=" ">
<polygon fill="white" stroke="red" points="367.47,-112.5 367.47,-131.5 448.47,-131.5 448.47,-112.5 367.47,-112.5"/>
<text text-anchor="middle" x="407.97" y="-119.5" font-family="Helvetica,sans-Serif" font-size="10.00">MultiPhase.H</text>
</a>
</g>
</g>
<!-- Node1&#45;&gt;Node260 -->
<g id="edge42" class="edge">
<title>Node1&#45;&gt;Node260</title>
<path fill="none" stroke="midnightblue" d="M2010.72,-176.18C1833.72,-172.63 1134.36,-157.66 559.97,-132 522.2,-130.31 479.2,-127.7 448.59,-125.73"/>
<polygon fill="midnightblue" stroke="midnightblue" points="2010.84,-179.68 2020.91,-176.38 2010.98,-172.68 2010.84,-179.68"/>
</g>
<!-- Node262 -->
<g id="node36" class="node">
<title>Node262</title>
<g id="a_node36"><a xlink:href="_rain_drop_8_h.html" target="_top" xlink:title=" ">
<polygon fill="white" stroke="red" points="2494.97,-112.5 2494.97,-131.5 2566.97,-131.5 2566.97,-112.5 2494.97,-112.5"/>
<text text-anchor="middle" x="2530.97" y="-119.5" font-family="Helvetica,sans-Serif" font-size="10.00">RainDrop.H</text>
</a>
</g>
</g>
<!-- Node1&#45;&gt;Node262 -->
<g id="edge45" class="edge">
<title>Node1&#45;&gt;Node262</title>
<path fill="none" stroke="midnightblue" d="M2095.5,-173.91C2173.28,-167.97 2343.59,-153.59 2485.97,-132 2488.8,-131.57 2491.73,-131.08 2494.67,-130.56"/>
<polygon fill="midnightblue" stroke="midnightblue" points="2094.85,-170.45 2085.15,-174.69 2095.38,-177.43 2094.85,-170.45"/>
</g>
<!-- Node263 -->
<g id="node37" class="node">
<title>Node263</title>
<g id="a_node37"><a xlink:href="_sloshing_tank_8_h.html" target="_top" xlink:title=" ">
<polygon fill="white" stroke="red" points="2585.47,-112.5 2585.47,-131.5 2676.47,-131.5 2676.47,-112.5 2585.47,-112.5"/>
<text text-anchor="middle" x="2630.97" y="-119.5" font-family="Helvetica,sans-Serif" font-size="10.00">SloshingTank.H</text>
</a>
</g>
</g>
<!-- Node1&#45;&gt;Node263 -->
<g id="edge46" class="edge">
<title>Node1&#45;&gt;Node263</title>
<path fill="none" stroke="midnightblue" d="M2095.18,-174.47C2184.24,-168.88 2397.85,-154.2 2575.97,-132 2579.04,-131.62 2582.2,-131.19 2585.39,-130.73"/>
<polygon fill="midnightblue" stroke="midnightblue" points="2094.96,-170.97 2085.19,-175.09 2095.39,-177.96 2094.96,-170.97"/>
</g>
<!-- Node264 -->
<g id="node38" class="node">
<title>Node264</title>
<g id="a_node38"><a xlink:href="_vortex_patch_8_h.html" target="_top" xlink:title=" ">
<polygon fill="white" stroke="red" points="2694.47,-112.5 2694.47,-131.5 2779.47,-131.5 2779.47,-112.5 2694.47,-112.5"/>
<text text-anchor="middle" x="2736.97" y="-119.5" font-family="Helvetica,sans-Serif" font-size="10.00">VortexPatch.H</text>
</a>
</g>
</g>
<!-- Node1&#45;&gt;Node264 -->
<g id="edge47" class="edge">
<title>Node1&#45;&gt;Node264</title>
<path fill="none" stroke="midnightblue" d="M2095.22,-175.51C2197.13,-171.59 2464.46,-159.34 2685.97,-132 2688.73,-131.66 2691.58,-131.27 2694.44,-130.84"/>
<polygon fill="midnightblue" stroke="midnightblue" points="2094.89,-172.02 2085.03,-175.9 2095.15,-179.02 2094.89,-172.02"/>
</g>
<!-- Node265 -->
<g id="node39" class="node">
<title>Node265</title>
<g id="a_node39"><a xlink:href="_vortex_patch_scalar_vel_8_h.html" target="_top" xlink:title=" ">
<polygon fill="white" stroke="red" points="2797.97,-112.5 2797.97,-131.5 2927.97,-131.5 2927.97,-112.5 2797.97,-112.5"/>
<text text-anchor="middle" x="2862.97" y="-119.5" font-family="Helvetica,sans-Serif" font-size="10.00">VortexPatchScalarVel.H</text>
</a>
</g>
</g>
<!-- Node1&#45;&gt;Node265 -->
<g id="edge48" class="edge">
<title>Node1&#45;&gt;Node265</title>
<path fill="none" stroke="midnightblue" d="M2095.61,-175.29C2208.75,-170.55 2525.91,-156.02 2788.97,-132 2791.8,-131.74 2794.7,-131.46 2797.62,-131.16"/>
<polygon fill="midnightblue" stroke="midnightblue" points="2095.15,-171.8 2085.3,-175.72 2095.44,-178.8 2095.15,-171.8"/>
</g>
<!-- Node266 -->
<g id="node40" class="node">
<title>Node266</title>
<g id="a_node40"><a xlink:href="_zalesak_disk_8_h.html" target="_top" xlink:title=" ">
<polygon fill="white" stroke="red" points="2945.97,-112.5 2945.97,-131.5 3033.97,-131.5 3033.97,-112.5 2945.97,-112.5"/>
<text text-anchor="middle" x="2989.97" y="-119.5" font-family="Helvetica,sans-Serif" font-size="10.00">ZalesakDisk.H</text>
</a>
</g>
</g>
<!-- Node1&#45;&gt;Node266 -->
<g id="edge49" class="edge">
<title>Node1&#45;&gt;Node266</title>
<path fill="none" stroke="midnightblue" d="M2095.31,-176.6C2222.88,-175.04 2614.56,-167.46 2936.97,-132 2939.84,-131.68 2942.8,-131.31 2945.77,-130.9"/>
<polygon fill="midnightblue" stroke="midnightblue" points="2095.14,-173.11 2085.19,-176.72 2095.23,-180.11 2095.14,-173.11"/>
</g>
<!-- Node267 -->
<g id="node41" class="node">
<title>Node267</title>
<g id="a_node41"><a xlink:href="_zalesak_disk_scalar_vel_8_h.html" target="_top" xlink:title=" ">
<polygon fill="white" stroke="red" points="3052.47,-112.5 3052.47,-131.5 3185.47,-131.5 3185.47,-112.5 3052.47,-112.5"/>
<text text-anchor="middle" x="3118.97" y="-119.5" font-family="Helvetica,sans-Serif" font-size="10.00">ZalesakDiskScalarVel.H</text>
</a>
</g>
</g>
<!-- Node1&#45;&gt;Node267 -->
<g id="edge50" class="edge">
<title>Node1&#45;&gt;Node267</title>
<path fill="none" stroke="midnightblue" d="M2095.14,-176.18C2232.07,-173.27 2676.54,-161.98 3042.97,-132 3046.01,-131.75 3049.12,-131.47 3052.27,-131.18"/>
<polygon fill="midnightblue" stroke="midnightblue" points="2094.99,-172.68 2085.07,-176.39 2095.14,-179.68 2094.99,-172.68"/>
</g>
<!-- Node268 -->
<g id="node42" class="node">
<title>Node268</title>
<g id="a_node42"><a xlink:href="_rayleigh_taylor_8_h.html" target="_top" xlink:title=" ">
<polygon fill="white" stroke="red" points="3203.97,-112.5 3203.97,-131.5 3301.97,-131.5 3301.97,-112.5 3203.97,-112.5"/>
<text text-anchor="middle" x="3252.97" y="-119.5" font-family="Helvetica,sans-Serif" font-size="10.00">RayleighTaylor.H</text>
</a>
</g>
</g>
<!-- Node1&#45;&gt;Node268 -->
<g id="edge51" class="edge">
<title>Node1&#45;&gt;Node268</title>
<path fill="none" stroke="midnightblue" d="M2095.49,-177.08C2245.99,-176.98 2767.29,-173.47 3194.97,-132 3197.81,-131.72 3200.72,-131.4 3203.65,-131.05"/>
<polygon fill="midnightblue" stroke="midnightblue" points="2095.3,-173.58 2085.3,-177.08 2095.3,-180.58 2095.3,-173.58"/>
</g>
<!-- Node269 -->
<g id="node43" class="node">
<title>Node269</title>
<g id="a_node43"><a xlink:href="_scalar_advection_8_h.html" target="_top" xlink:title=" ">
<polygon fill="white" stroke="red" points="3319.97,-112.5 3319.97,-131.5 3425.97,-131.5 3425.97,-112.5 3319.97,-112.5"/>
<text text-anchor="middle" x="3372.97" y="-119.5" font-family="Helvetica,sans-Serif" font-size="10.00">ScalarAdvection.H</text>
</a>
</g>
</g>
<!-- Node1&#45;&gt;Node269 -->
<g id="edge52" class="edge">
<title>Node1&#45;&gt;Node269</title>
<path fill="none" stroke="midnightblue" d="M2095.47,-177.15C2255.3,-177.35 2835.42,-174.89 3310.97,-132 3313.89,-131.74 3316.89,-131.43 3319.91,-131.09"/>
<polygon fill="midnightblue" stroke="midnightblue" points="2095.13,-173.65 2085.12,-177.13 2095.12,-180.65 2095.13,-173.65"/>
</g>
<!-- Node270 -->
<g id="node44" class="node">
<title>Node270</title>
<g id="a_node44"><a xlink:href="_taylor_green_vortex_8_h.html" target="_top" xlink:title=" ">
<polygon fill="white" stroke="red" points="3444.47,-112.5 3444.47,-131.5 3561.47,-131.5 3561.47,-112.5 3444.47,-112.5"/>
<text text-anchor="middle" x="3502.97" y="-119.5" font-family="Helvetica,sans-Serif" font-size="10.00">TaylorGreenVortex.H</text>
</a>
</g>
</g>
<!-- Node1&#45;&gt;Node270 -->
<g id="edge54" class="edge">
<title>Node1&#45;&gt;Node270</title>
<path fill="none" stroke="midnightblue" d="M2095.4,-177.15C2264.68,-177.42 2907.96,-175.35 3434.97,-132 3438.05,-131.75 3441.21,-131.45 3444.4,-131.13"/>
<polygon fill="midnightblue" stroke="midnightblue" points="2095.18,-173.65 2085.17,-177.13 2095.17,-180.65 2095.18,-173.65"/>
</g>
<!-- Node271 -->
<g id="node45" class="node">
<title>Node271</title>
<g id="a_node45"><a xlink:href="_vortex_dipole_8_h.html" target="_top" xlink:title=" ">
<polygon fill="white" stroke="red" points="3579.97,-112.5 3579.97,-131.5 3669.97,-131.5 3669.97,-112.5 3579.97,-112.5"/>
<text text-anchor="middle" x="3624.97" y="-119.5" font-family="Helvetica,sans-Serif" font-size="10.00">VortexDipole.H</text>
</a>
</g>
</g>
<!-- Node1&#45;&gt;Node271 -->
<g id="edge55" class="edge">
<title>Node1&#45;&gt;Node271</title>
<path fill="none" stroke="midnightblue" d="M2095.41,-176.52C2309.57,-173.98 3273.08,-161.1 3570.97,-132 3573.9,-131.71 3576.91,-131.36 3579.95,-130.97"/>
<polygon fill="midnightblue" stroke="midnightblue" points="2095.17,-173.02 2085.21,-176.64 2095.25,-180.02 2095.17,-173.02"/>
</g>
<!-- Node272 -->
<g id="node46" class="node">
<title>Node272</title>
<g id="a_node46"><a xlink:href="_vortex_ring_8_h.html" target="_top" xlink:title=" ">
<polygon fill="white" stroke="red" points="3687.97,-112.5 3687.97,-131.5 3767.97,-131.5 3767.97,-112.5 3687.97,-112.5"/>
<text text-anchor="middle" x="3727.97" y="-119.5" font-family="Helvetica,sans-Serif" font-size="10.00">VortexRing.H</text>
</a>
</g>
</g>
<!-- Node1&#45;&gt;Node272 -->
<g id="edge56" class="edge">
<title>Node1&#45;&gt;Node272</title>
<path fill="none" stroke="midnightblue" d="M2095.53,-176.71C2319.02,-175.05 3358.77,-165.63 3678.97,-132 3681.89,-131.69 3684.9,-131.31 3687.93,-130.87"/>
<polygon fill="midnightblue" stroke="midnightblue" points="2095.19,-173.21 2085.21,-176.79 2095.24,-180.21 2095.19,-173.21"/>
</g>
<!-- Node186 -->
<g id="node47" class="node">
<title>Node186</title>
<g id="a_node47"><a xlink:href="nodal__projection__ops_8_h.html" target="_top" xlink:title=" ">
<polygon fill="white" stroke="red" points="84.47,-56.5 84.47,-75.5 215.47,-75.5 215.47,-56.5 84.47,-56.5"/>
<text text-anchor="middle" x="149.97" y="-63.5" font-family="Helvetica,sans-Serif" font-size="10.00">nodal_projection_ops.H</text>
</a>
</g>
</g>
<!-- Node1&#45;&gt;Node186 -->
<g id="edge57" class="edge">
<title>Node1&#45;&gt;Node186</title>
<path fill="none" stroke="midnightblue" d="M2010.29,-176.57C1763.57,-174 525.18,-159.79 357.97,-132 287.43,-120.28 207.67,-90.43 170.76,-75.62"/>
<polygon fill="midnightblue" stroke="midnightblue" points="2010.59,-180.07 2020.62,-176.68 2010.66,-173.08 2010.59,-180.07"/>
</g>
<!-- Node121 -->
<g id="node48" class="node">
<title>Node121</title>
<g id="a_node48"><a xlink:href="io_8cpp.html" target="_top" xlink:title=" ">
<polygon fill="white" stroke="black" points="3785.97,-112.5 3785.97,-131.5 3831.97,-131.5 3831.97,-112.5 3785.97,-112.5"/>
<text text-anchor="middle" x="3808.97" y="-119.5" font-family="Helvetica,sans-Serif" font-size="10.00">io.cpp</text>
</a>
</g>
</g>
<!-- Node1&#45;&gt;Node121 -->
<g id="edge59" class="edge">
<title>Node1&#45;&gt;Node121</title>
<path fill="none" stroke="midnightblue" d="M2095.19,-176.52C2343.29,-173.65 3606.23,-157.83 3776.97,-132 3779.82,-131.57 3782.78,-130.96 3785.69,-130.27"/>
<polygon fill="midnightblue" stroke="midnightblue" points="2095.1,-173.03 2085.14,-176.64 2095.18,-180.02 2095.1,-173.03"/>
</g>
<!-- Node185 -->
<g id="node49" class="node">
<title>Node185</title>
<g id="a_node49"><a xlink:href="_a_b_l_8_h.html" target="_top" xlink:title=" ">
<polygon fill="white" stroke="red" points="568.97,-112.5 568.97,-131.5 614.97,-131.5 614.97,-112.5 568.97,-112.5"/>
<text text-anchor="middle" x="591.97" y="-119.5" font-family="Helvetica,sans-Serif" font-size="10.00">ABL.H</text>
</a>
</g>
</g>
<!-- Node1&#45;&gt;Node185 -->
<g id="edge60" class="edge">
<title>Node1&#45;&gt;Node185</title>
<path fill="none" stroke="midnightblue" d="M2010.57,-175.43C1790.34,-167.29 780.62,-129.97 614.99,-123.85"/>
<polygon fill="midnightblue" stroke="midnightblue" points="2010.63,-178.94 2020.75,-175.81 2010.88,-171.94 2010.63,-178.94"/>
</g>
<!-- Node234 -->
<g id="node50" class="node">
<title>Node234</title>
<g id="a_node50"><a xlink:href="_actuator_8_h.html" target="_top" xlink:title=" ">
<polygon fill="white" stroke="red" points="1272.97,-112.5 1272.97,-131.5 1340.97,-131.5 1340.97,-112.5 1272.97,-112.5"/>
<text text-anchor="middle" x="1306.97" y="-119.5" font-family="Helvetica,sans-Serif" font-size="10.00">Actuator.H</text>
</a>
</g>
</g>
<!-- Node1&#45;&gt;Node234 -->
<g id="edge68" class="edge">
<title>Node1&#45;&gt;Node234</title>
<path fill="none" stroke="midnightblue" d="M2010.64,-173.94C1876.55,-164.23 1462.8,-134.28 1341.02,-125.47"/>
<polygon fill="midnightblue" stroke="midnightblue" points="2010.68,-177.45 2020.91,-174.68 2011.19,-170.47 2010.68,-177.45"/>
</g>
<!-- Node3 -->
<g id="node3" class="node">
<title>Node3</title>
<g id="a_node3"><a xlink:href="_wall_function_8_h.html" target="_top" xlink:title=" ">
<polygon fill="white" stroke="red" points="1351.47,-56.5 1351.47,-75.5 1440.47,-75.5 1440.47,-56.5 1351.47,-56.5"/>
<text text-anchor="middle" x="1395.97" y="-63.5" font-family="Helvetica,sans-Serif" font-size="10.00">WallFunction.H</text>
</a>
</g>
</g>
<!-- Node2&#45;&gt;Node3 -->
<g id="edge2" class="edge">
<title>Node2&#45;&gt;Node3</title>
<path fill="none" stroke="midnightblue" d="M1561.19,-109.89C1521.91,-99.7 1464.54,-84.8 1428.77,-75.52"/>
<polygon fill="midnightblue" stroke="midnightblue" points="1560.45,-113.32 1571.01,-112.44 1562.21,-106.54 1560.45,-113.32"/>
</g>
<!-- Node2&#45;&gt;Node5 -->
<g id="edge22" class="edge">
<title>Node2&#45;&gt;Node5</title>
<path fill="none" stroke="midnightblue" d="M1560.62,-119.01C1494.71,-115.1 1373.6,-104.21 1341.97,-76 1325.64,-61.45 1323.01,-33.73 1322.79,-19.66"/>
<polygon fill="midnightblue" stroke="midnightblue" points="1560.52,-122.51 1570.7,-119.58 1560.91,-115.52 1560.52,-122.51"/>
</g>
<!-- Node7 -->
<g id="node5" class="node">
<title>Node7</title>
<g id="a_node5"><a xlink:href="_c_f_d_sim_8cpp.html" target="_top" xlink:title=" ">
<polygon fill="white" stroke="black" points="491.97,-56.5 491.97,-75.5 567.97,-75.5 567.97,-56.5 491.97,-56.5"/>
<text text-anchor="middle" x="529.97" y="-63.5" font-family="Helvetica,sans-Serif" font-size="10.00">CFDSim.cpp</text>
</a>
</g>
</g>
<!-- Node2&#45;&gt;Node7 -->
<g id="edge4" class="edge">
<title>Node2&#45;&gt;Node7</title>
<path fill="none" stroke="midnightblue" d="M1560.71,-119.48C1378.14,-113 675.54,-87.54 576.97,-76 574.08,-75.66 571.1,-75.25 568.11,-74.79"/>
<polygon fill="midnightblue" stroke="midnightblue" points="1560.63,-122.98 1570.74,-119.83 1560.87,-115.98 1560.63,-122.98"/>
</g>
<!-- Node8 -->
<g id="node6" class="node">
<title>Node8</title>
<g id="a_node6"><a xlink:href="_mesh_map_8cpp.html" target="_top" xlink:title=" ">
<polygon fill="white" stroke="black" points="1457.97,-56.5 1457.97,-75.5 1541.97,-75.5 1541.97,-56.5 1457.97,-56.5"/>
<text text-anchor="middle" x="1499.97" y="-63.5" font-family="Helvetica,sans-Serif" font-size="10.00">MeshMap.cpp</text>
</a>
</g>
</g>
<!-- Node2&#45;&gt;Node8 -->
<g id="edge5" class="edge">
<title>Node2&#45;&gt;Node8</title>
<path fill="none" stroke="midnightblue" d="M1578.14,-107.59C1558.91,-97.61 1533.22,-84.27 1516.63,-75.65"/>
<polygon fill="midnightblue" stroke="midnightblue" points="1576.77,-110.82 1587.26,-112.32 1579.99,-104.61 1576.77,-110.82"/>
</g>
<!-- Node9 -->
<g id="node7" class="node">
<title>Node9</title>
<g id="a_node7"><a xlink:href="_a_b_l_forcing_8cpp.html" target="_top" xlink:title=" ">
<polygon fill="white" stroke="black" points="233.47,-56.5 233.47,-75.5 324.47,-75.5 324.47,-56.5 233.47,-56.5"/>
<text text-anchor="middle" x="278.97" y="-63.5" font-family="Helvetica,sans-Serif" font-size="10.00">ABLForcing.cpp</text>
</a>
</g>
</g>
<!-- Node2&#45;&gt;Node9 -->
<g id="edge6" class="edge">
<title>Node2&#45;&gt;Node9</title>
<path fill="none" stroke="midnightblue" d="M1560.44,-119.46C1509.86,-117.66 1423.86,-114.62 1349.97,-112 897.97,-95.99 782.98,-121.27 332.97,-76 330.22,-75.72 327.41,-75.4 324.58,-75.03"/>
<polygon fill="midnightblue" stroke="midnightblue" points="1560.56,-122.96 1570.68,-119.82 1560.81,-115.97 1560.56,-122.96"/>
</g>
<!-- Node10 -->
<g id="node8" class="node">
<title>Node10</title>
<g id="a_node8"><a xlink:href="_a_b_l_mean_boussinesq_8cpp.html" target="_top" xlink:title=" ">
<polygon fill="white" stroke="black" points="585.97,-56.5 585.97,-75.5 723.97,-75.5 723.97,-56.5 585.97,-56.5"/>
<text text-anchor="middle" x="654.97" y="-63.5" font-family="Helvetica,sans-Serif" font-size="10.00">ABLMeanBoussinesq.cpp</text>
</a>
</g>
</g>
<!-- Node2&#45;&gt;Node10 -->
<g id="edge7" class="edge">
<title>Node2&#45;&gt;Node10</title>
<path fill="none" stroke="midnightblue" d="M1560.45,-119.12C1407.72,-112.45 896.53,-89.65 732.97,-76 730.11,-75.76 727.2,-75.5 724.27,-75.23"/>
<polygon fill="midnightblue" stroke="midnightblue" points="1560.68,-122.63 1570.82,-119.57 1560.98,-115.64 1560.68,-122.63"/>
</g>
<!-- Node11 -->
<g id="node9" class="node">
<title>Node11</title>
<g id="a_node9"><a xlink:href="_a_b_l_meso_forcing_mom_8cpp.html" target="_top" xlink:title=" ">
<polygon fill="white" stroke="black" points="741.97,-56.5 741.97,-75.5 883.97,-75.5 883.97,-56.5 741.97,-56.5"/>
<text text-anchor="middle" x="812.97" y="-63.5" font-family="Helvetica,sans-Serif" font-size="10.00">ABLMesoForcingMom.cpp</text>
</a>
</g>
</g>
<!-- Node2&#45;&gt;Node11 -->
<g id="edge8" class="edge">
<title>Node2&#45;&gt;Node11</title>
<path fill="none" stroke="midnightblue" d="M1560.84,-119.01C1449.93,-113.72 1145.71,-98.2 892.97,-76 890.04,-75.74 887.06,-75.47 884.05,-75.18"/>
<polygon fill="midnightblue" stroke="midnightblue" points="1560.81,-122.51 1570.97,-119.49 1561.14,-115.52 1560.81,-122.51"/>
</g>
<!-- Node12 -->
<g id="node10" class="node">
<title>Node12</title>
<g id="a_node10"><a xlink:href="_actuator_forcing_8cpp.html" target="_top" xlink:title=" ">
<polygon fill="white" stroke="black" points="1039.47,-56.5 1039.47,-75.5 1152.47,-75.5 1152.47,-56.5 1039.47,-56.5"/>
<text text-anchor="middle" x="1095.97" y="-63.5" font-family="Helvetica,sans-Serif" font-size="10.00">ActuatorForcing.cpp</text>
</a>
</g>
</g>
<!-- Node2&#45;&gt;Node12 -->
<g id="edge9" class="edge">
<title>Node2&#45;&gt;Node12</title>
<path fill="none" stroke="midnightblue" d="M1560.86,-117.1C1481.73,-109.84 1308.02,-93.39 1161.97,-76 1158.87,-75.63 1155.68,-75.24 1152.48,-74.83"/>
<polygon fill="midnightblue" stroke="midnightblue" points="1560.65,-120.6 1570.93,-118.02 1561.29,-113.63 1560.65,-120.6"/>
</g>
<!-- Node13 -->
<g id="node11" class="node">
<title>Node13</title>
<g id="a_node11"><a xlink:href="icns_2source__terms_2_body_force_8cpp.html" target="_top" xlink:title=" ">
<polygon fill="white" stroke="black" points="1559.97,-56.5 1559.97,-75.5 1647.97,-75.5 1647.97,-56.5 1559.97,-56.5"/>
<text text-anchor="middle" x="1603.97" y="-63.5" font-family="Helvetica,sans-Serif" font-size="10.00">BodyForce.cpp</text>
</a>
</g>
</g>
<!-- Node2&#45;&gt;Node13 -->
<g id="edge10" class="edge">
<title>Node2&#45;&gt;Node13</title>
<path fill="none" stroke="midnightblue" d="M1603.97,-101.8C1603.97,-92.91 1603.97,-82.78 1603.97,-75.75"/>
<polygon fill="midnightblue" stroke="midnightblue" points="1600.47,-102.08 1603.97,-112.08 1607.47,-102.08 1600.47,-102.08"/>
</g>
<!-- Node14 -->
<g id="node12" class="node">
<title>Node14</title>
<g id="a_node12"><a xlink:href="_boussinesq_buoyancy_8cpp.html" target="_top" xlink:title=" ">
<polygon fill="white" stroke="black" points="1666.47,-56.5 1666.47,-75.5 1805.47,-75.5 1805.47,-56.5 1666.47,-56.5"/>
<text text-anchor="middle" x="1735.97" y="-63.5" font-family="Helvetica,sans-Serif" font-size="10.00">BoussinesqBuoyancy.cpp</text>
</a>
</g>
</g>
<!-- Node2&#45;&gt;Node14 -->
<g id="edge11" class="edge">
<title>Node2&#45;&gt;Node14</title>
<path fill="none" stroke="midnightblue" d="M1634.18,-108.64C1658.96,-98.5 1693.37,-84.43 1715.15,-75.52"/>
<polygon fill="midnightblue" stroke="midnightblue" points="1632.81,-105.42 1624.88,-112.44 1635.46,-111.9 1632.81,-105.42"/>
</g>
<!-- Node15 -->
<g id="node13" class="node">
<title>Node15</title>
<g id="a_node13"><a xlink:href="_burggraf_flow_forcing_8cpp.html" target="_top" xlink:title=" ">
<polygon fill="white" stroke="black" points="2342.47,-0.5 2342.47,-19.5 2479.47,-19.5 2479.47,-0.5 2342.47,-0.5"/>
<text text-anchor="middle" x="2410.97" y="-7.5" font-family="Helvetica,sans-Serif" font-size="10.00">BurggrafFlowForcing.cpp</text>
</a>
</g>
</g>
<!-- Node2&#45;&gt;Node15 -->
<g id="edge12" class="edge">
<title>Node2&#45;&gt;Node15</title>
<path fill="none" stroke="midnightblue" d="M1647.19,-115.39C1657.89,-114.14 1669.33,-112.91 1679.97,-112 1754.8,-105.58 2287.55,-109.11 2354.97,-76 2380.1,-63.66 2398.52,-34.39 2406.53,-19.71"/>
<polygon fill="midnightblue" stroke="midnightblue" points="1646.72,-111.92 1637.21,-116.59 1647.56,-118.87 1646.72,-111.92"/>
</g>
<!-- Node16 -->
<g id="node14" class="node">
<title>Node16</title>
<g id="a_node14"><a xlink:href="_coriolis_forcing_8cpp.html" target="_top" xlink:title=" ">
<polygon fill="white" stroke="black" points="1823.47,-56.5 1823.47,-75.5 1932.47,-75.5 1932.47,-56.5 1823.47,-56.5"/>
<text text-anchor="middle" x="1877.97" y="-63.5" font-family="Helvetica,sans-Serif" font-size="10.00">CoriolisForcing.cpp</text>
</a>
</g>
</g>
<!-- Node2&#45;&gt;Node16 -->
<g id="edge13" class="edge">
<title>Node2&#45;&gt;Node16</title>
<path fill="none" stroke="midnightblue" d="M1647.09,-112.5C1698.25,-102.42 1783.06,-85.7 1834.41,-75.58"/>
<polygon fill="midnightblue" stroke="midnightblue" points="1646.15,-109.12 1637.02,-114.49 1647.5,-115.99 1646.15,-109.12"/>
</g>
<!-- Node17 -->
<g id="node15" class="node">
<title>Node17</title>
<g id="a_node15"><a xlink:href="_density_buoyancy_8cpp.html" target="_top" xlink:title=" ">
<polygon fill="white" stroke="black" points="1950.47,-56.5 1950.47,-75.5 2071.47,-75.5 2071.47,-56.5 1950.47,-56.5"/>
<text text-anchor="middle" x="2010.97" y="-63.5" font-family="Helvetica,sans-Serif" font-size="10.00">DensityBuoyancy.cpp</text>
</a>
</g>
</g>
<!-- Node2&#45;&gt;Node17 -->
<g id="edge14" class="edge">
<title>Node2&#45;&gt;Node17</title>
<path fill="none" stroke="midnightblue" d="M1647.11,-112.62C1648.41,-112.41 1649.7,-112.2 1650.97,-112 1779.7,-91.73 1812.69,-92.43 1941.97,-76 1944.72,-75.65 1947.54,-75.29 1950.39,-74.92"/>
<polygon fill="midnightblue" stroke="midnightblue" points="1646.29,-109.21 1637.04,-114.38 1647.49,-116.11 1646.29,-109.21"/>
</g>
<!-- Node18 -->
<g id="node16" class="node">
<title>Node18</title>
<g id="a_node16"><a xlink:href="_geostrophic_forcing_8cpp.html" target="_top" xlink:title=" ">
<polygon fill="white" stroke="black" points="342.47,-56.5 342.47,-75.5 473.47,-75.5 473.47,-56.5 342.47,-56.5"/>
<text text-anchor="middle" x="407.97" y="-63.5" font-family="Helvetica,sans-Serif" font-size="10.00">GeostrophicForcing.cpp</text>
</a>
</g>
</g>
<!-- Node2&#45;&gt;Node18 -->
<g id="edge15" class="edge">
<title>Node2&#45;&gt;Node18</title>
<path fill="none" stroke="midnightblue" d="M1560.9,-119.47C1368.44,-112.63 591.69,-84.69 482.97,-76 479.96,-75.76 476.89,-75.49 473.79,-75.2"/>
<polygon fill="midnightblue" stroke="midnightblue" points="1560.81,-122.97 1570.93,-119.83 1561.06,-115.98 1560.81,-122.97"/>
</g>
<!-- Node19 -->
<g id="node17" class="node">
<title>Node19</title>
<g id="a_node17"><a xlink:href="_gravity_forcing_8cpp.html" target="_top" xlink:title=" ">
<polygon fill="white" stroke="black" points="2089.97,-56.5 2089.97,-75.5 2197.97,-75.5 2197.97,-56.5 2089.97,-56.5"/>
<text text-anchor="middle" x="2143.97" y="-63.5" font-family="Helvetica,sans-Serif" font-size="10.00">GravityForcing.cpp</text>
</a>
</g>
</g>
<!-- Node2&#45;&gt;Node19 -->
<g id="edge16" class="edge">
<title>Node2&#45;&gt;Node19</title>
<path fill="none" stroke="midnightblue" d="M1647.1,-112.56C1648.4,-112.36 1649.69,-112.17 1650.97,-112 1840.97,-85.93 1890.4,-97.57 2080.97,-76 2083.82,-75.68 2086.74,-75.33 2089.7,-74.96"/>
<polygon fill="midnightblue" stroke="midnightblue" points="1646.32,-109.14 1637.02,-114.22 1647.45,-116.05 1646.32,-109.14"/>
</g>
<!-- Node20 -->
<g id="node18" class="node">
<title>Node20</title>
<g id="a_node18"><a xlink:href="_hurricane_forcing_8cpp.html" target="_top" xlink:title=" ">
<polygon fill="white" stroke="black" points="902.47,-56.5 902.47,-75.5 1021.47,-75.5 1021.47,-56.5 902.47,-56.5"/>
<text text-anchor="middle" x="961.97" y="-63.5" font-family="Helvetica,sans-Serif" font-size="10.00">HurricaneForcing.cpp</text>
</a>
</g>
</g>
<!-- Node2&#45;&gt;Node20 -->
<g id="edge17" class="edge">
<title>Node2&#45;&gt;Node20</title>
<path fill="none" stroke="midnightblue" d="M1560.75,-118.4C1465,-112.47 1227.83,-96.83 1029.97,-76 1027.24,-75.71 1024.46,-75.41 1021.65,-75.08"/>
<polygon fill="midnightblue" stroke="midnightblue" points="1560.71,-121.91 1570.91,-119.03 1561.14,-114.92 1560.71,-121.91"/>
</g>
<!-- Node21 -->
<g id="node19" class="node">
<title>Node21</title>
<g id="a_node19"><a xlink:href="_non_linear_s_g_s_term_8cpp.html" target="_top" xlink:title=" ">
<polygon fill="white" stroke="black" points="2215.97,-56.5 2215.97,-75.5 2345.97,-75.5 2345.97,-56.5 2215.97,-56.5"/>
<text text-anchor="middle" x="2280.97" y="-63.5" font-family="Helvetica,sans-Serif" font-size="10.00">NonLinearSGSTerm.cpp</text>
</a>
</g>
</g>
<!-- Node2&#45;&gt;Node21 -->
<g id="edge18" class="edge">
<title>Node2&#45;&gt;Node21</title>
<path fill="none" stroke="midnightblue" d="M1647.1,-112.53C1648.4,-112.34 1649.69,-112.16 1650.97,-112 1896.6,-80.65 1960.4,-98.96 2206.97,-76 2209.8,-75.74 2212.69,-75.45 2215.62,-75.15"/>
<polygon fill="midnightblue" stroke="midnightblue" points="1646.33,-109.1 1637.01,-114.14 1647.43,-116.02 1646.33,-109.1"/>
</g>
<!-- Node22 -->
<g id="node20" class="node">
<title>Node22</title>
<g id="a_node20"><a xlink:href="_rayleigh_damping_8cpp.html" target="_top" xlink:title=" ">
<polygon fill="white" stroke="black" points="1170.97,-56.5 1170.97,-75.5 1294.97,-75.5 1294.97,-56.5 1170.97,-56.5"/>
<text text-anchor="middle" x="1232.97" y="-63.5" font-family="Helvetica,sans-Serif" font-size="10.00">RayleighDamping.cpp</text>
</a>
</g>
</g>
<!-- Node2&#45;&gt;Node22 -->
<g id="edge19" class="edge">
<title>Node2&#45;&gt;Node22</title>
<path fill="none" stroke="midnightblue" d="M1560.57,-114.68C1493.96,-104.99 1366.4,-86.42 1291.62,-75.54"/>
<polygon fill="midnightblue" stroke="midnightblue" points="1560.32,-118.18 1570.72,-116.16 1561.32,-111.26 1560.32,-118.18"/>
</g>
<!-- Node2&#45;&gt;Node137 -->
<g id="edge20" class="edge">
<title>Node2&#45;&gt;Node137</title>
<path fill="none" stroke="midnightblue" d="M1647.09,-112.5C1648.4,-112.32 1649.69,-112.15 1650.97,-112 1976.59,-73.07 2061.62,-108.36 2387.97,-76 2392.47,-75.55 2397.16,-75 2401.84,-74.4"/>
<polygon fill="midnightblue" stroke="midnightblue" points="1646.34,-109.07 1637,-114.07 1647.42,-115.99 1646.34,-109.07"/>
</g>
<!-- Node2&#45;&gt;Node139 -->
<g id="edge23" class="edge">
<title>Node2&#45;&gt;Node139</title>
<path fill="none" stroke="midnightblue" d="M1646.97,-115.93C1660.4,-114.48 1675.29,-113.03 1688.97,-112 2050.08,-84.92 2141.92,-104.01 2502.97,-76 2506.07,-75.76 2509.24,-75.49 2512.44,-75.21"/>
<polygon fill="midnightblue" stroke="midnightblue" points="1646.58,-112.45 1637.02,-117.02 1647.35,-119.41 1646.58,-112.45"/>
</g>
<!-- Node2&#45;&gt;Node141 -->
<g id="edge24" class="edge">
<title>Node2&#45;&gt;Node141</title>
<path fill="none" stroke="midnightblue" d="M1647.13,-117.47C1670.71,-115.64 1700.43,-113.48 1726.97,-112 2143.51,-88.77 2249.99,-119.01 2664.97,-76 2667.66,-75.72 2670.42,-75.39 2673.2,-75.02"/>
<polygon fill="midnightblue" stroke="midnightblue" points="1646.79,-113.99 1637.1,-118.26 1647.34,-120.97 1646.79,-113.99"/>
</g>
<!-- Node2&#45;&gt;Node143 -->
<g id="edge25" class="edge">
<title>Node2&#45;&gt;Node143</title>
<path fill="none" stroke="midnightblue" d="M1647.3,-118.34C1679.7,-116.41 1725.09,-113.83 1764.97,-112 2212.34,-91.5 2325.62,-112.59 2771.97,-76 2774.65,-75.78 2777.39,-75.53 2780.16,-75.26"/>
<polygon fill="midnightblue" stroke="midnightblue" points="1647.03,-114.85 1637.26,-118.94 1647.45,-121.84 1647.03,-114.85"/>
</g>
<!-- Node2&#45;&gt;Node145 -->
<g id="edge26" class="edge">
<title>Node2&#45;&gt;Node145</title>
<path fill="none" stroke="midnightblue" d="M1647.07,-118.89C1687.38,-116.96 1749.24,-114.09 1802.97,-112 2049.58,-102.42 2668.78,-111.81 2912.97,-76 2915.62,-75.61 2918.37,-75.09 2921.1,-74.49"/>
<polygon fill="midnightblue" stroke="midnightblue" points="1646.88,-115.4 1637.06,-119.37 1647.22,-122.39 1646.88,-115.4"/>
</g>
<!-- Node2&#45;&gt;Node158 -->
<g id="edge27" class="edge">
<title>Node2&#45;&gt;Node158</title>
<path fill="none" stroke="midnightblue" d="M1647.57,-119.26C1695.11,-117.38 1773.44,-114.35 1840.97,-112 2348.02,-94.37 2476.18,-115.95 2981.97,-76 2984.69,-75.78 2987.47,-75.54 2990.28,-75.27"/>
<polygon fill="midnightblue" stroke="midnightblue" points="1647.18,-115.77 1637.32,-119.67 1647.46,-122.77 1647.18,-115.77"/>
</g>
<!-- Node3&#45;&gt;Node5 -->
<g id="edge3" class="edge">
<title>Node3&#45;&gt;Node5</title>
<path fill="none" stroke="midnightblue" d="M1375.82,-50.1C1362.69,-40.38 1345.98,-28.03 1334.91,-19.83"/>
<polygon fill="midnightblue" stroke="midnightblue" points="1374.12,-53.19 1384.24,-56.32 1378.28,-47.56 1374.12,-53.19"/>
</g>
<!-- Node137&#45;&gt;Node15 -->
<g id="edge21" class="edge">
<title>Node137&#45;&gt;Node15</title>
<path fill="none" stroke="midnightblue" d="M2436.02,-47.57C2429.65,-38.27 2422.1,-27.25 2416.96,-19.75"/>
<polygon fill="midnightblue" stroke="midnightblue" points="2433.32,-49.81 2441.86,-56.08 2439.09,-45.86 2433.32,-49.81"/>
</g>
<!-- Node256&#45;&gt;Node101 -->
<g id="edge32" class="edge">
<title>Node256&#45;&gt;Node101</title>
<path fill="none" stroke="midnightblue" d="M130.07,-108.23C107.99,-98.13 77.79,-84.31 58.58,-75.52"/>
<polygon fill="midnightblue" stroke="midnightblue" points="128.72,-111.46 139.27,-112.44 131.63,-105.1 128.72,-111.46"/>
</g>
<!-- Node260&#45;&gt;Node9 -->
<g id="edge43" class="edge">
<title>Node260&#45;&gt;Node9</title>
<path fill="none" stroke="midnightblue" d="M378.11,-108.5C353.93,-98.38 320.5,-84.39 299.31,-75.52"/>
<polygon fill="midnightblue" stroke="midnightblue" points="376.95,-111.81 387.53,-112.44 379.65,-105.35 376.95,-111.81"/>
</g>
<!-- Node260&#45;&gt;Node18 -->
<g id="edge44" class="edge">
<title>Node260&#45;&gt;Node18</title>
<path fill="none" stroke="midnightblue" d="M407.97,-101.8C407.97,-92.91 407.97,-82.78 407.97,-75.75"/>
<polygon fill="midnightblue" stroke="midnightblue" points="404.47,-102.08 407.97,-112.08 411.47,-102.08 404.47,-102.08"/>
</g>
<!-- Node185&#45;&gt;Node7 -->
<g id="edge61" class="edge">
<title>Node185&#45;&gt;Node7</title>
<path fill="none" stroke="midnightblue" d="M574.21,-105.54C563.16,-95.91 549.33,-83.87 540.11,-75.83"/>
<polygon fill="midnightblue" stroke="midnightblue" points="572.16,-108.4 582,-112.32 576.76,-103.12 572.16,-108.4"/>
</g>
<!-- Node185&#45;&gt;Node9 -->
<g id="edge62" class="edge">
<title>Node185&#45;&gt;Node9</title>
<path fill="none" stroke="midnightblue" d="M558.82,-115.28C502.54,-105.57 388.22,-85.85 324.49,-74.85"/>
<polygon fill="midnightblue" stroke="midnightblue" points="558.5,-118.78 568.95,-117.03 559.69,-111.88 558.5,-118.78"/>
</g>
<!-- Node185&#45;&gt;Node10 -->
<g id="edge63" class="edge">
<title>Node185&#45;&gt;Node10</title>
<path fill="none" stroke="midnightblue" d="M610.01,-105.54C621.24,-95.91 635.28,-83.87 644.66,-75.83"/>
<polygon fill="midnightblue" stroke="midnightblue" points="607.4,-103.16 602.09,-112.32 611.96,-108.47 607.4,-103.16"/>
</g>
<!-- Node185&#45;&gt;Node11 -->
<g id="edge64" class="edge">
<title>Node185&#45;&gt;Node11</title>
<path fill="none" stroke="midnightblue" d="M625.01,-112.93C666.16,-102.87 736.16,-85.77 778.14,-75.51"/>
<polygon fill="midnightblue" stroke="midnightblue" points="624.08,-109.55 615.2,-115.32 625.74,-116.35 624.08,-109.55"/>
</g>
<!-- Node185&#45;&gt;Node20 -->
<g id="edge65" class="edge">
<title>Node185&#45;&gt;Node20</title>
<path fill="none" stroke="midnightblue" d="M625.25,-116.14C688.1,-106.97 824.95,-87 903.47,-75.54"/>
<polygon fill="midnightblue" stroke="midnightblue" points="624.5,-112.71 615.11,-117.62 625.51,-119.64 624.5,-112.71"/>
</g>
<!-- Node185&#45;&gt;Node101 -->
<g id="edge67" class="edge">
<title>Node185&#45;&gt;Node101</title>
<path fill="none" stroke="midnightblue" d="M558.77,-118.83C459.95,-112.26 168.79,-92.03 74.97,-76 72.24,-75.53 69.42,-74.96 66.62,-74.34"/>
<polygon fill="midnightblue" stroke="midnightblue" points="558.57,-122.32 568.78,-119.49 559.04,-115.34 558.57,-122.32"/>
</g>
<!-- Node185&#45;&gt;Node186 -->
<g id="edge66" class="edge">
<title>Node185&#45;&gt;Node186</title>
<path fill="none" stroke="midnightblue" d="M558.86,-116.96C486.17,-108.07 311.47,-86.73 215.62,-75.02"/>
<polygon fill="midnightblue" stroke="midnightblue" points="558.47,-120.43 568.82,-118.17 559.32,-113.49 558.47,-120.43"/>
</g>
<!-- Node234&#45;&gt;Node12 -->
<g id="edge69" class="edge">
<title>Node234&#45;&gt;Node12</title>
<path fill="none" stroke="midnightblue" d="M1263.82,-109.96C1223.97,-99.76 1165.6,-84.82 1129.24,-75.52"/>
<polygon fill="midnightblue" stroke="midnightblue" points="1262.98,-113.35 1273.53,-112.44 1264.71,-106.57 1262.98,-113.35"/>
</g>
</g>
</svg>
