<?xml version="1.0" encoding="UTF-8" standalone="no"?>
<!DOCTYPE svg PUBLIC "-//W3C//DTD SVG 1.1//EN"
 "http://www.w3.org/Graphics/SVG/1.1/DTD/svg11.dtd">
<!-- Generated by graphviz version 2.43.0 (0)
 -->
<!-- Title: RayleighTaylorFieldInit.cpp Pages: 1 -->
<svg width="788pt" height="151pt"
 viewBox="0.00 0.00 787.50 151.00" xmlns="http://www.w3.org/2000/svg" xmlns:xlink="http://www.w3.org/1999/xlink">
<g id="graph0" class="graph" transform="scale(1 1) rotate(0) translate(4 147)">
<title>RayleighTaylorFieldInit.cpp</title>
<polygon fill="white" stroke="transparent" points="-4,4 -4,-147 783.5,-147 783.5,4 -4,4"/>
<!-- Node1 -->
<g id="node1" class="node">
<title>Node1</title>
<g id="a_node1"><a xlink:title=" ">
<polygon fill="#bfbfbf" stroke="black" points="428,-123.5 428,-142.5 576,-142.5 576,-123.5 428,-123.5"/>
<text text-anchor="middle" x="502" y="-130.5" font-family="Helvetica,sans-Serif" font-size="10.00">RayleighTaylorFieldInit.cpp</text>
</a>
</g>
</g>
<!-- Node2 -->
<g id="node2" class="node">
<title>Node2</title>
<g id="a_node2"><a xlink:title=" ">
<polygon fill="white" stroke="#bfbfbf" points="311.5,-62 311.5,-81 358.5,-81 358.5,-62 311.5,-62"/>
<text text-anchor="middle" x="335" y="-69" font-family="Helvetica,sans-Serif" font-size="10.00">cmath</text>
</a>
</g>
</g>
<!-- Node1&#45;&gt;Node2 -->
<g id="edge1" class="edge">
<title>Node1&#45;&gt;Node2</title>
<path fill="none" stroke="midnightblue" d="M474.28,-123.49C447,-114.94 404.28,-101.03 368,-87 366.39,-86.38 364.75,-85.72 363.1,-85.05"/>
<polygon fill="midnightblue" stroke="midnightblue" points="364.3,-81.76 353.73,-81.08 361.57,-88.2 364.3,-81.76"/>
</g>
<!-- Node3 -->
<g id="node3" class="node">
<title>Node3</title>
<g id="a_node3"><a xlink:href="_rayleigh_taylor_field_init_8_h.html" target="_top" xlink:title=" ">
<polygon fill="white" stroke="black" points="376.5,-56.5 376.5,-86.5 525.5,-86.5 525.5,-56.5 376.5,-56.5"/>
<text text-anchor="start" x="384.5" y="-74.5" font-family="Helvetica,sans-Serif" font-size="10.00">amr&#45;wind/physics/Rayleigh</text>
<text text-anchor="middle" x="451" y="-63.5" font-family="Helvetica,sans-Serif" font-size="10.00">TaylorFieldInit.H</text>
</a>
</g>
</g>
<!-- Node1&#45;&gt;Node3 -->
<g id="edge2" class="edge">
<title>Node1&#45;&gt;Node3</title>
<path fill="none" stroke="midnightblue" d="M494.69,-123.48C488.17,-115.87 478.34,-104.4 469.66,-94.26"/>
<polygon fill="midnightblue" stroke="midnightblue" points="472.19,-91.84 463.02,-86.52 466.87,-96.39 472.19,-91.84"/>
</g>
<!-- Node10 -->
<g id="node10" class="node">
<title>Node10</title>
<g id="a_node10"><a xlink:title=" ">
<polygon fill="white" stroke="#bfbfbf" points="692.5,-0.5 692.5,-19.5 779.5,-19.5 779.5,-0.5 692.5,-0.5"/>
<text text-anchor="middle" x="736" y="-7.5" font-family="Helvetica,sans-Serif" font-size="10.00">AMReX_Gpu.H</text>
</a>
</g>
</g>
<!-- Node1&#45;&gt;Node10 -->
<g id="edge10" class="edge">
<title>Node1&#45;&gt;Node10</title>
<path fill="none" stroke="midnightblue" d="M507.53,-123.49C518.23,-107.73 543.34,-73.95 573,-56 591.93,-44.54 645.07,-30.98 685.58,-21.76"/>
<polygon fill="midnightblue" stroke="midnightblue" points="686.59,-25.12 695.58,-19.51 685.05,-18.29 686.59,-25.12"/>
</g>
<!-- Node11 -->
<g id="node11" class="node">
<title>Node11</title>
<g id="a_node11"><a xlink:title=" ">
<polygon fill="white" stroke="#bfbfbf" points="581.5,-62 581.5,-81 700.5,-81 700.5,-62 581.5,-62"/>
<text text-anchor="middle" x="641" y="-69" font-family="Helvetica,sans-Serif" font-size="10.00">AMReX_ParmParse.H</text>
</a>
</g>
</g>
<!-- Node1&#45;&gt;Node11 -->
<g id="edge11" class="edge">
<title>Node1&#45;&gt;Node11</title>
<path fill="none" stroke="midnightblue" d="M521.92,-123.48C545.45,-113.4 584.81,-96.55 611.79,-85"/>
<polygon fill="midnightblue" stroke="midnightblue" points="613.31,-88.16 621.12,-81.01 610.55,-81.73 613.31,-88.16"/>
</g>
<!-- Node4 -->
<g id="node4" class="node">
<title>Node4</title>
<g id="a_node4"><a xlink:title=" ">
<polygon fill="white" stroke="#bfbfbf" points="0,-0.5 0,-19.5 92,-19.5 92,-0.5 0,-0.5"/>
<text text-anchor="middle" x="46" y="-7.5" font-family="Helvetica,sans-Serif" font-size="10.00">AMReX_Array.H</text>
</a>
</g>
</g>
<!-- Node3&#45;&gt;Node4 -->
<g id="edge3" class="edge">
<title>Node3&#45;&gt;Node4</title>
<path fill="none" stroke="midnightblue" d="M376.37,-57.47C373.2,-56.97 370.07,-56.47 367,-56 252.31,-38.35 220.7,-37.66 102.39,-20.17"/>
<polygon fill="midnightblue" stroke="midnightblue" points="102.61,-16.66 92.2,-18.65 101.58,-23.59 102.61,-16.66"/>
</g>
<!-- Node5 -->
<g id="node5" class="node">
<title>Node5</title>
<g id="a_node5"><a xlink:title=" ">
<polygon fill="white" stroke="#bfbfbf" points="110,-0.5 110,-19.5 210,-19.5 210,-0.5 110,-0.5"/>
<text text-anchor="middle" x="160" y="-7.5" font-family="Helvetica,sans-Serif" font-size="10.00">AMReX_Array4.H</text>
</a>
</g>
</g>
<!-- Node3&#45;&gt;Node5 -->
<g id="edge4" class="edge">
<title>Node3&#45;&gt;Node5</title>
<path fill="none" stroke="midnightblue" d="M382.41,-56.47C330.12,-45.78 259.24,-31.29 211.68,-21.57"/>
<polygon fill="midnightblue" stroke="midnightblue" points="212.1,-18.08 201.6,-19.51 210.7,-24.94 212.1,-18.08"/>
</g>
<!-- Node6 -->
<g id="node6" class="node">
<title>Node6</title>
<g id="a_node6"><a xlink:title=" ">
<polygon fill="white" stroke="#bfbfbf" points="228,-0.5 228,-19.5 314,-19.5 314,-0.5 228,-0.5"/>
<text text-anchor="middle" x="271" y="-7.5" font-family="Helvetica,sans-Serif" font-size="10.00">AMReX_Box.H</text>
</a>
</g>
</g>
<!-- Node3&#45;&gt;Node6 -->
<g id="edge5" class="edge">
<title>Node3&#45;&gt;Node6</title>
<path fill="none" stroke="midnightblue" d="M408.34,-56.4C377.37,-46.16 335.95,-32.47 306.72,-22.81"/>
<polygon fill="midnightblue" stroke="midnightblue" points="307.52,-19.39 296.93,-19.57 305.33,-26.03 307.52,-19.39"/>
</g>
<!-- Node7 -->
<g id="node7" class="node">
<title>Node7</title>
<g id="a_node7"><a xlink:title=" ">
<polygon fill="white" stroke="#bfbfbf" points="332.5,-0.5 332.5,-19.5 447.5,-19.5 447.5,-0.5 332.5,-0.5"/>
<text text-anchor="middle" x="390" y="-7.5" font-family="Helvetica,sans-Serif" font-size="10.00">AMReX_Geometry.H</text>
</a>
</g>
</g>
<!-- Node3&#45;&gt;Node7 -->
<g id="edge6" class="edge">
<title>Node3&#45;&gt;Node7</title>
<path fill="none" stroke="midnightblue" d="M436.54,-56.4C427.41,-47.49 415.58,-35.95 406.14,-26.74"/>
<polygon fill="midnightblue" stroke="midnightblue" points="408.48,-24.13 398.88,-19.66 403.59,-29.15 408.48,-24.13"/>
</g>
<!-- Node8 -->
<g id="node8" class="node">
<title>Node8</title>
<g id="a_node8"><a xlink:title=" ">
<polygon fill="white" stroke="#bfbfbf" points="466,-0.5 466,-19.5 558,-19.5 558,-0.5 466,-0.5"/>
<text text-anchor="middle" x="512" y="-7.5" font-family="Helvetica,sans-Serif" font-size="10.00">AMReX_REAL.H</text>
</a>
</g>
</g>
<!-- Node3&#45;&gt;Node8 -->
<g id="edge7" class="edge">
<title>Node3&#45;&gt;Node8</title>
<path fill="none" stroke="midnightblue" d="M465.46,-56.4C474.59,-47.49 486.42,-35.95 495.86,-26.74"/>
<polygon fill="midnightblue" stroke="midnightblue" points="498.41,-29.15 503.12,-19.66 493.52,-24.13 498.41,-29.15"/>
</g>
<!-- Node9 -->
<g id="node9" class="node">
<title>Node9</title>
<g id="a_node9"><a xlink:title=" ">
<polygon fill="white" stroke="#bfbfbf" points="576,-0.5 576,-19.5 674,-19.5 674,-0.5 576,-0.5"/>
<text text-anchor="middle" x="625" y="-7.5" font-family="Helvetica,sans-Serif" font-size="10.00">AMReX_Vector.H</text>
</a>
</g>
</g>
<!-- Node3&#45;&gt;Node9 -->
<g id="edge8" class="edge">
<title>Node3&#45;&gt;Node9</title>
<path fill="none" stroke="midnightblue" d="M492.24,-56.4C522.17,-46.16 562.21,-32.47 590.47,-22.81"/>
<polygon fill="midnightblue" stroke="midnightblue" points="591.61,-26.12 599.94,-19.57 589.34,-19.49 591.61,-26.12"/>
</g>
<!-- Node3&#45;&gt;Node10 -->
<g id="edge9" class="edge">
<title>Node3&#45;&gt;Node10</title>
<path fill="none" stroke="midnightblue" d="M518.18,-56.47C569.39,-45.78 638.81,-31.29 685.39,-21.57"/>
<polygon fill="midnightblue" stroke="midnightblue" points="686.18,-24.98 695.26,-19.51 684.75,-18.12 686.18,-24.98"/>
</g>
</g>
</svg>
