<?xml version="1.0" encoding="UTF-8" standalone="no"?>
<!DOCTYPE svg PUBLIC "-//W3C//DTD SVG 1.1//EN"
 "http://www.w3.org/Graphics/SVG/1.1/DTD/svg11.dtd">
<!-- Generated by graphviz version 2.43.0 (0)
 -->
<!-- Title: RelaxationZones.H Pages: 1 -->
<svg width="636pt" height="196pt"
 viewBox="0.00 0.00 635.50 196.00" xmlns="http://www.w3.org/2000/svg" xmlns:xlink="http://www.w3.org/1999/xlink">
<g id="graph0" class="graph" transform="scale(1 1) rotate(0) translate(4 192)">
<title>RelaxationZones.H</title>
<polygon fill="white" stroke="transparent" points="-4,4 -4,-192 631.5,-192 631.5,4 -4,4"/>
<!-- Node1 -->
<g id="node1" class="node">
<title>Node1</title>
<g id="a_node1"><a xlink:title=" ">
<polygon fill="#bfbfbf" stroke="black" points="216,-168.5 216,-187.5 326,-187.5 326,-168.5 216,-168.5"/>
<text text-anchor="middle" x="271" y="-175.5" font-family="Helvetica,sans-Serif" font-size="10.00">RelaxationZones.H</text>
</a>
</g>
</g>
<!-- Node2 -->
<g id="node2" class="node">
<title>Node2</title>
<g id="a_node2"><a xlink:href="_h_o_s_waves_8_h.html" target="_top" xlink:title=" ">
<polygon fill="white" stroke="black" points="33,-112.5 33,-131.5 113,-131.5 113,-112.5 33,-112.5"/>
<text text-anchor="middle" x="73" y="-119.5" font-family="Helvetica,sans-Serif" font-size="10.00">HOSWaves.H</text>
</a>
</g>
</g>
<!-- Node1&#45;&gt;Node2 -->
<g id="edge1" class="edge">
<title>Node1&#45;&gt;Node2</title>
<path fill="none" stroke="midnightblue" d="M229.56,-165.7C192.19,-155.51 138.06,-140.74 104.23,-131.52"/>
<polygon fill="midnightblue" stroke="midnightblue" points="229.06,-169.19 239.63,-168.44 230.9,-162.44 229.06,-169.19"/>
</g>
<!-- Node5 -->
<g id="node5" class="node">
<title>Node5</title>
<g id="a_node5"><a xlink:href="_linear_waves_8_h.html" target="_top" xlink:title=" ">
<polygon fill="white" stroke="black" points="162.5,-112.5 162.5,-131.5 251.5,-131.5 251.5,-112.5 162.5,-112.5"/>
<text text-anchor="middle" x="207" y="-119.5" font-family="Helvetica,sans-Serif" font-size="10.00">LinearWaves.H</text>
</a>
</g>
</g>
<!-- Node1&#45;&gt;Node5 -->
<g id="edge5" class="edge">
<title>Node1&#45;&gt;Node5</title>
<path fill="none" stroke="midnightblue" d="M253.01,-161.82C241.54,-152.15 227.09,-139.95 217.47,-131.83"/>
<polygon fill="midnightblue" stroke="midnightblue" points="250.82,-164.55 260.72,-168.32 255.33,-159.2 250.82,-164.55"/>
</g>
<!-- Node8 -->
<g id="node8" class="node">
<title>Node8</title>
<g id="a_node8"><a xlink:href="relaxation__zones__ops_8_h.html" target="_top" xlink:title=" ">
<polygon fill="white" stroke="black" points="269.5,-112.5 269.5,-131.5 402.5,-131.5 402.5,-112.5 269.5,-112.5"/>
<text text-anchor="middle" x="336" y="-119.5" font-family="Helvetica,sans-Serif" font-size="10.00">relaxation_zones_ops.H</text>
</a>
</g>
</g>
<!-- Node1&#45;&gt;Node8 -->
<g id="edge9" class="edge">
<title>Node1&#45;&gt;Node8</title>
<path fill="none" stroke="midnightblue" d="M289.27,-161.82C300.92,-152.15 315.6,-139.95 325.37,-131.83"/>
<polygon fill="midnightblue" stroke="midnightblue" points="286.9,-159.24 281.44,-168.32 291.37,-164.63 286.9,-159.24"/>
</g>
<!-- Node12 -->
<g id="node12" class="node">
<title>Node12</title>
<g id="a_node12"><a xlink:href="_stokes_waves_8_h.html" target="_top" xlink:title=" ">
<polygon fill="white" stroke="black" points="488,-112.5 488,-131.5 580,-131.5 580,-112.5 488,-112.5"/>
<text text-anchor="middle" x="534" y="-119.5" font-family="Helvetica,sans-Serif" font-size="10.00">StokesWaves.H</text>
</a>
</g>
</g>
<!-- Node1&#45;&gt;Node12 -->
<g id="edge15" class="edge">
<title>Node1&#45;&gt;Node12</title>
<path fill="none" stroke="midnightblue" d="M322.58,-166.41C372.28,-156.2 446.53,-140.96 492.52,-131.52"/>
<polygon fill="midnightblue" stroke="midnightblue" points="321.76,-163 312.67,-168.44 323.17,-169.86 321.76,-163"/>
</g>
<!-- Node3 -->
<g id="node3" class="node">
<title>Node3</title>
<g id="a_node3"><a xlink:href="hos__waves__ops_8_h.html" target="_top" xlink:title=" ">
<polygon fill="white" stroke="black" points="21,-56.5 21,-75.5 125,-75.5 125,-56.5 21,-56.5"/>
<text text-anchor="middle" x="73" y="-63.5" font-family="Helvetica,sans-Serif" font-size="10.00">hos_waves_ops.H</text>
</a>
</g>
</g>
<!-- Node2&#45;&gt;Node3 -->
<g id="edge2" class="edge">
<title>Node2&#45;&gt;Node3</title>
<path fill="none" stroke="midnightblue" d="M73,-101.8C73,-92.91 73,-82.78 73,-75.75"/>
<polygon fill="midnightblue" stroke="midnightblue" points="69.5,-102.08 73,-112.08 76.5,-102.08 69.5,-102.08"/>
</g>
<!-- Node4 -->
<g id="node4" class="node">
<title>Node4</title>
<g id="a_node4"><a xlink:href="_h_o_s_waves_8cpp.html" target="_top" xlink:title=" ">
<polygon fill="white" stroke="black" points="0,-0.5 0,-19.5 90,-19.5 90,-0.5 0,-0.5"/>
<text text-anchor="middle" x="45" y="-7.5" font-family="Helvetica,sans-Serif" font-size="10.00">HOSWaves.cpp</text>
</a>
</g>
</g>
<!-- Node2&#45;&gt;Node4 -->
<g id="edge4" class="edge">
<title>Node2&#45;&gt;Node4</title>
<path fill="none" stroke="midnightblue" d="M44,-107.33C31.77,-99.92 18.81,-89.48 12,-76 1.85,-55.89 21.77,-32.32 34.85,-19.83"/>
<polygon fill="midnightblue" stroke="midnightblue" points="42.66,-110.59 53.09,-112.41 46.07,-104.48 42.66,-110.59"/>
</g>
<!-- Node3&#45;&gt;Node4 -->
<g id="edge3" class="edge">
<title>Node3&#45;&gt;Node4</title>
<path fill="none" stroke="midnightblue" d="M63.66,-46.98C58.91,-37.82 53.34,-27.09 49.54,-19.75"/>
<polygon fill="midnightblue" stroke="midnightblue" points="60.67,-48.82 68.38,-56.08 66.88,-45.59 60.67,-48.82"/>
</g>
<!-- Node6 -->
<g id="node6" class="node">
<title>Node6</title>
<g id="a_node6"><a xlink:href="linear__waves__ops_8_h.html" target="_top" xlink:title=" ">
<polygon fill="white" stroke="black" points="181,-56.5 181,-75.5 295,-75.5 295,-56.5 181,-56.5"/>
<text text-anchor="middle" x="238" y="-63.5" font-family="Helvetica,sans-Serif" font-size="10.00">linear_waves_ops.H</text>
</a>
</g>
</g>
<!-- Node5&#45;&gt;Node6 -->
<g id="edge6" class="edge">
<title>Node5&#45;&gt;Node6</title>
<path fill="none" stroke="midnightblue" d="M217.18,-103.27C222.47,-94.05 228.72,-83.17 232.98,-75.75"/>
<polygon fill="midnightblue" stroke="midnightblue" points="214.06,-101.67 212.12,-112.08 220.13,-105.15 214.06,-101.67"/>
</g>
<!-- Node7 -->
<g id="node7" class="node">
<title>Node7</title>
<g id="a_node7"><a xlink:href="_linear_waves_8cpp.html" target="_top" xlink:title=" ">
<polygon fill="white" stroke="black" points="131.5,-0.5 131.5,-19.5 230.5,-19.5 230.5,-0.5 131.5,-0.5"/>
<text text-anchor="middle" x="181" y="-7.5" font-family="Helvetica,sans-Serif" font-size="10.00">LinearWaves.cpp</text>
</a>
</g>
</g>
<!-- Node5&#45;&gt;Node7 -->
<g id="edge8" class="edge">
<title>Node5&#45;&gt;Node7</title>
<path fill="none" stroke="midnightblue" d="M190.35,-105.04C183.23,-97.08 175.72,-86.84 172,-76 165.34,-56.6 172.5,-32.35 177.33,-19.66"/>
<polygon fill="midnightblue" stroke="midnightblue" points="188,-107.65 197.44,-112.45 193.05,-102.81 188,-107.65"/>
</g>
<!-- Node6&#45;&gt;Node7 -->
<g id="edge7" class="edge">
<title>Node6&#45;&gt;Node7</title>
<path fill="none" stroke="midnightblue" d="M221.38,-49.25C211.27,-39.67 198.72,-27.79 190.32,-19.83"/>
<polygon fill="midnightblue" stroke="midnightblue" points="219.18,-51.99 228.84,-56.32 223.99,-46.91 219.18,-51.99"/>
</g>
<!-- Node8&#45;&gt;Node3 -->
<g id="edge10" class="edge">
<title>Node8&#45;&gt;Node3</title>
<path fill="none" stroke="midnightblue" d="M284.42,-110.41C234.72,-100.2 160.47,-84.96 114.48,-75.52"/>
<polygon fill="midnightblue" stroke="midnightblue" points="283.83,-113.86 294.33,-112.44 285.24,-107 283.83,-113.86"/>
</g>
<!-- Node8&#45;&gt;Node6 -->
<g id="edge11" class="edge">
<title>Node8&#45;&gt;Node6</title>
<path fill="none" stroke="midnightblue" d="M311.41,-107.45C293.32,-97.48 269.27,-84.23 253.71,-75.65"/>
<polygon fill="midnightblue" stroke="midnightblue" points="309.81,-110.56 320.25,-112.32 313.19,-104.43 309.81,-110.56"/>
</g>
<!-- Node9 -->
<g id="node9" class="node">
<title>Node9</title>
<g id="a_node9"><a xlink:href="relaxation__zones__ops_8cpp.html" target="_top" xlink:title=" ">
<polygon fill="white" stroke="black" points="313.5,-56.5 313.5,-75.5 456.5,-75.5 456.5,-56.5 313.5,-56.5"/>
<text text-anchor="middle" x="385" y="-63.5" font-family="Helvetica,sans-Serif" font-size="10.00">relaxation_zones_ops.cpp</text>
</a>
</g>
</g>
<!-- Node8&#45;&gt;Node9 -->
<g id="edge12" class="edge">
<title>Node8&#45;&gt;Node9</title>
<path fill="none" stroke="midnightblue" d="M351.03,-104.43C359.62,-94.97 370.04,-83.48 377.06,-75.75"/>
<polygon fill="midnightblue" stroke="midnightblue" points="348.22,-102.33 344.09,-112.08 353.4,-107.03 348.22,-102.33"/>
</g>
<!-- Node10 -->
<g id="node10" class="node">
<title>Node10</title>
<g id="a_node10"><a xlink:href="stokes__waves__ops_8_h.html" target="_top" xlink:title=" ">
<polygon fill="white" stroke="black" points="475,-56.5 475,-75.5 593,-75.5 593,-56.5 475,-56.5"/>
<text text-anchor="middle" x="534" y="-63.5" font-family="Helvetica,sans-Serif" font-size="10.00">stokes_waves_ops.H</text>
</a>
</g>
</g>
<!-- Node8&#45;&gt;Node10 -->
<g id="edge13" class="edge">
<title>Node8&#45;&gt;Node10</title>
<path fill="none" stroke="midnightblue" d="M377.44,-109.7C414.81,-99.51 468.94,-84.74 502.77,-75.52"/>
<polygon fill="midnightblue" stroke="midnightblue" points="376.1,-106.44 367.37,-112.44 377.94,-113.19 376.1,-106.44"/>
</g>
<!-- Node11 -->
<g id="node11" class="node">
<title>Node11</title>
<g id="a_node11"><a xlink:href="_stokes_waves_8cpp.html" target="_top" xlink:title=" ">
<polygon fill="white" stroke="black" points="526.5,-0.5 526.5,-19.5 627.5,-19.5 627.5,-0.5 526.5,-0.5"/>
<text text-anchor="middle" x="577" y="-7.5" font-family="Helvetica,sans-Serif" font-size="10.00">StokesWaves.cpp</text>
</a>
</g>
</g>
<!-- Node10&#45;&gt;Node11 -->
<g id="edge14" class="edge">
<title>Node10&#45;&gt;Node11</title>
<path fill="none" stroke="midnightblue" d="M547.42,-48.14C554.91,-38.74 563.94,-27.4 570.03,-19.75"/>
<polygon fill="midnightblue" stroke="midnightblue" points="544.59,-46.08 541.1,-56.08 550.07,-50.44 544.59,-46.08"/>
</g>
<!-- Node12&#45;&gt;Node10 -->
<g id="edge16" class="edge">
<title>Node12&#45;&gt;Node10</title>
<path fill="none" stroke="midnightblue" d="M534,-101.8C534,-92.91 534,-82.78 534,-75.75"/>
<polygon fill="midnightblue" stroke="midnightblue" points="530.5,-102.08 534,-112.08 537.5,-102.08 530.5,-102.08"/>
</g>
<!-- Node12&#45;&gt;Node11 -->
<g id="edge17" class="edge">
<title>Node12&#45;&gt;Node11</title>
<path fill="none" stroke="midnightblue" d="M566.59,-107.9C580.1,-100.65 594.38,-90.18 602,-76 612.3,-56.83 595.76,-32.48 585.03,-19.72"/>
<polygon fill="midnightblue" stroke="midnightblue" points="564.87,-104.84 557.45,-112.41 567.97,-111.12 564.87,-104.84"/>
</g>
</g>
</svg>
