<?xml version="1.0" encoding="UTF-8" standalone="no"?>
<!DOCTYPE svg PUBLIC "-//W3C//DTD SVG 1.1//EN"
 "http://www.w3.org/Graphics/SVG/1.1/DTD/svg11.dtd">
<!-- Generated by graphviz version 2.43.0 (0)
 -->
<!-- Title: ReynoldsStress.H Pages: 1 -->
<svg width="503pt" height="274pt"
 viewBox="0.00 0.00 503.00 274.00" xmlns="http://www.w3.org/2000/svg" xmlns:xlink="http://www.w3.org/1999/xlink">
<g id="graph0" class="graph" transform="scale(1 1) rotate(0) translate(4 270)">
<title>ReynoldsStress.H</title>
<polygon fill="white" stroke="transparent" points="-4,4 -4,-270 499,-270 499,4 -4,4"/>
<!-- Node1 -->
<g id="node1" class="node">
<title>Node1</title>
<g id="a_node1"><a xlink:title=" ">
<polygon fill="#bfbfbf" stroke="black" points="215,-246.5 215,-265.5 317,-265.5 317,-246.5 215,-246.5"/>
<text text-anchor="middle" x="266" y="-253.5" font-family="Helvetica,sans-Serif" font-size="10.00">ReynoldsStress.H</text>
</a>
</g>
</g>
<!-- Node2 -->
<g id="node2" class="node">
<title>Node2</title>
<g id="a_node2"><a xlink:href="_time_averaging_8_h.html" target="_top" xlink:title=" ">
<polygon fill="white" stroke="black" points="188.5,-179.5 188.5,-209.5 343.5,-209.5 343.5,-179.5 188.5,-179.5"/>
<text text-anchor="start" x="196.5" y="-197.5" font-family="Helvetica,sans-Serif" font-size="10.00">amr&#45;wind/utilities</text>
<text text-anchor="middle" x="266" y="-186.5" font-family="Helvetica,sans-Serif" font-size="10.00">/averaging/TimeAveraging.H</text>
</a>
</g>
</g>
<!-- Node1&#45;&gt;Node2 -->
<g id="edge1" class="edge">
<title>Node1&#45;&gt;Node2</title>
<path fill="none" stroke="midnightblue" d="M266,-246.48C266,-239.47 266,-229.19 266,-219.7"/>
<polygon fill="midnightblue" stroke="midnightblue" points="269.5,-219.52 266,-209.52 262.5,-219.52 269.5,-219.52"/>
</g>
<!-- Node3 -->
<g id="node3" class="node">
<title>Node3</title>
<g id="a_node3"><a xlink:href="_factory_8_h.html" target="_top" xlink:title=" ">
<polygon fill="white" stroke="black" points="122,-56.5 122,-75.5 256,-75.5 256,-56.5 122,-56.5"/>
<text text-anchor="middle" x="189" y="-63.5" font-family="Helvetica,sans-Serif" font-size="10.00">amr&#45;wind/core/Factory.H</text>
</a>
</g>
</g>
<!-- Node2&#45;&gt;Node3 -->
<g id="edge2" class="edge">
<title>Node2&#45;&gt;Node3</title>
<path fill="none" stroke="midnightblue" d="M243.98,-179.39C231.66,-170.39 217,-157.69 208,-143 197.25,-125.46 192.57,-102.11 190.54,-85.94"/>
<polygon fill="midnightblue" stroke="midnightblue" points="193.98,-85.21 189.48,-75.62 187.02,-85.93 193.98,-85.21"/>
</g>
<!-- Node4 -->
<g id="node4" class="node">
<title>Node4</title>
<g id="a_node4"><a xlink:title=" ">
<polygon fill="white" stroke="#bfbfbf" points="0,-0.5 0,-19.5 58,-19.5 58,-0.5 0,-0.5"/>
<text text-anchor="middle" x="29" y="-7.5" font-family="Helvetica,sans-Serif" font-size="10.00">memory</text>
</a>
</g>
</g>
<!-- Node2&#45;&gt;Node4 -->
<g id="edge13" class="edge">
<title>Node2&#45;&gt;Node4</title>
<path fill="none" stroke="midnightblue" d="M188.48,-184.83C133.77,-177.05 66.96,-163.63 48,-143 19.5,-111.98 21.91,-58.38 25.69,-29.96"/>
<polygon fill="midnightblue" stroke="midnightblue" points="29.2,-30.19 27.26,-19.78 22.28,-29.13 29.2,-30.19"/>
</g>
<!-- Node9 -->
<g id="node9" class="node">
<title>Node9</title>
<g id="a_node9"><a xlink:href="_post_processing_8_h.html" target="_top" xlink:title=" ">
<polygon fill="white" stroke="black" points="57,-112.5 57,-142.5 161,-142.5 161,-112.5 57,-112.5"/>
<text text-anchor="start" x="65" y="-130.5" font-family="Helvetica,sans-Serif" font-size="10.00">amr&#45;wind/utilities</text>
<text text-anchor="middle" x="109" y="-119.5" font-family="Helvetica,sans-Serif" font-size="10.00">/PostProcessing.H</text>
</a>
</g>
</g>
<!-- Node2&#45;&gt;Node9 -->
<g id="edge8" class="edge">
<title>Node2&#45;&gt;Node9</title>
<path fill="none" stroke="midnightblue" d="M231.93,-179.4C208.58,-169.73 177.41,-156.82 152.3,-146.43"/>
<polygon fill="midnightblue" stroke="midnightblue" points="153.58,-143.17 143,-142.58 150.9,-149.64 153.58,-143.17"/>
</g>
<!-- Node10 -->
<g id="node10" class="node">
<title>Node10</title>
<g id="a_node10"><a xlink:title=" ">
<polygon fill="white" stroke="#bfbfbf" points="217,-118 217,-137 315,-137 315,-118 217,-118"/>
<text text-anchor="middle" x="266" y="-125" font-family="Helvetica,sans-Serif" font-size="10.00">AMReX_Vector.H</text>
</a>
</g>
</g>
<!-- Node2&#45;&gt;Node10 -->
<g id="edge11" class="edge">
<title>Node2&#45;&gt;Node10</title>
<path fill="none" stroke="midnightblue" d="M266,-179.4C266,-170.06 266,-157.71 266,-147.52"/>
<polygon fill="midnightblue" stroke="midnightblue" points="269.5,-147.19 266,-137.19 262.5,-147.19 269.5,-147.19"/>
</g>
<!-- Node11 -->
<g id="node11" class="node">
<title>Node11</title>
<g id="a_node11"><a xlink:title=" ">
<polygon fill="white" stroke="#bfbfbf" points="333,-118 333,-137 377,-137 377,-118 333,-118"/>
<text text-anchor="middle" x="355" y="-125" font-family="Helvetica,sans-Serif" font-size="10.00">limits</text>
</a>
</g>
</g>
<!-- Node2&#45;&gt;Node11 -->
<g id="edge12" class="edge">
<title>Node2&#45;&gt;Node11</title>
<path fill="none" stroke="midnightblue" d="M285.31,-179.4C299.96,-168.7 320.04,-154.03 334.88,-143.19"/>
<polygon fill="midnightblue" stroke="midnightblue" points="337.34,-145.73 343.35,-137.01 333.21,-140.08 337.34,-145.73"/>
</g>
<!-- Node12 -->
<g id="node12" class="node">
<title>Node12</title>
<g id="a_node12"><a xlink:title=" ">
<polygon fill="white" stroke="#bfbfbf" points="395,-118 395,-137 439,-137 439,-118 395,-118"/>
<text text-anchor="middle" x="417" y="-125" font-family="Helvetica,sans-Serif" font-size="10.00">string</text>
</a>
</g>
</g>
<!-- Node2&#45;&gt;Node12 -->
<g id="edge14" class="edge">
<title>Node2&#45;&gt;Node12</title>
<path fill="none" stroke="midnightblue" d="M300.29,-179.49C324.38,-169.54 357.29,-155.75 386,-143 387.19,-142.47 388.41,-141.93 389.63,-141.37"/>
<polygon fill="midnightblue" stroke="midnightblue" points="391.4,-144.41 399.02,-137.05 388.48,-138.05 391.4,-144.41"/>
</g>
<!-- Node13 -->
<g id="node13" class="node">
<title>Node13</title>
<g id="a_node13"><a xlink:title=" ">
<polygon fill="white" stroke="#bfbfbf" points="457,-118 457,-137 495,-137 495,-118 457,-118"/>
<text text-anchor="middle" x="476" y="-125" font-family="Helvetica,sans-Serif" font-size="10.00">map</text>
</a>
</g>
</g>
<!-- Node2&#45;&gt;Node13 -->
<g id="edge15" class="edge">
<title>Node2&#45;&gt;Node13</title>
<path fill="none" stroke="midnightblue" d="M328.96,-179.45C364.5,-170.67 409.39,-158.16 448,-143 449.2,-142.53 450.42,-142.02 451.65,-141.48"/>
<polygon fill="midnightblue" stroke="midnightblue" points="453.36,-144.54 460.86,-137.06 450.33,-138.23 453.36,-144.54"/>
</g>
<!-- Node3&#45;&gt;Node4 -->
<g id="edge3" class="edge">
<title>Node3&#45;&gt;Node4</title>
<path fill="none" stroke="midnightblue" d="M163.65,-56.44C136.73,-47.36 94,-32.94 63.91,-22.78"/>
<polygon fill="midnightblue" stroke="midnightblue" points="64.83,-19.4 54.23,-19.52 62.59,-26.03 64.83,-19.4"/>
</g>
<!-- Node5 -->
<g id="node5" class="node">
<title>Node5</title>
<g id="a_node5"><a xlink:title=" ">
<polygon fill="white" stroke="#bfbfbf" points="76.5,-0.5 76.5,-19.5 169.5,-19.5 169.5,-0.5 76.5,-0.5"/>
<text text-anchor="middle" x="123" y="-7.5" font-family="Helvetica,sans-Serif" font-size="10.00">unordered_map</text>
</a>
</g>
</g>
<!-- Node3&#45;&gt;Node5 -->
<g id="edge4" class="edge">
<title>Node3&#45;&gt;Node5</title>
<path fill="none" stroke="midnightblue" d="M178.4,-56.32C168.54,-48.26 153.65,-36.08 141.78,-26.37"/>
<polygon fill="midnightblue" stroke="midnightblue" points="143.75,-23.46 133.8,-19.83 139.32,-28.88 143.75,-23.46"/>
</g>
<!-- Node6 -->
<g id="node6" class="node">
<title>Node6</title>
<g id="a_node6"><a xlink:title=" ">
<polygon fill="white" stroke="#bfbfbf" points="188,-0.5 188,-19.5 248,-19.5 248,-0.5 188,-0.5"/>
<text text-anchor="middle" x="218" y="-7.5" font-family="Helvetica,sans-Serif" font-size="10.00">iostream</text>
</a>
</g>
</g>
<!-- Node3&#45;&gt;Node6 -->
<g id="edge5" class="edge">
<title>Node3&#45;&gt;Node6</title>
<path fill="none" stroke="midnightblue" d="M193.79,-56.08C197.76,-48.69 203.53,-37.95 208.43,-28.81"/>
<polygon fill="midnightblue" stroke="midnightblue" points="211.65,-30.22 213.3,-19.75 205.49,-26.91 211.65,-30.22"/>
</g>
<!-- Node7 -->
<g id="node7" class="node">
<title>Node7</title>
<g id="a_node7"><a xlink:title=" ">
<polygon fill="white" stroke="#bfbfbf" points="266,-0.5 266,-19.5 356,-19.5 356,-0.5 266,-0.5"/>
<text text-anchor="middle" x="311" y="-7.5" font-family="Helvetica,sans-Serif" font-size="10.00">AMReX_Print.H</text>
</a>
</g>
</g>
<!-- Node3&#45;&gt;Node7 -->
<g id="edge6" class="edge">
<title>Node3&#45;&gt;Node7</title>
<path fill="none" stroke="midnightblue" d="M208.33,-56.44C228.32,-47.6 259.74,-33.69 282.56,-23.59"/>
<polygon fill="midnightblue" stroke="midnightblue" points="284.03,-26.76 291.76,-19.52 281.2,-20.36 284.03,-26.76"/>
</g>
<!-- Node8 -->
<g id="node8" class="node">
<title>Node8</title>
<g id="a_node8"><a xlink:title=" ">
<polygon fill="white" stroke="#bfbfbf" points="374,-0.5 374,-19.5 436,-19.5 436,-0.5 374,-0.5"/>
<text text-anchor="middle" x="405" y="-7.5" font-family="Helvetica,sans-Serif" font-size="10.00">AMReX.H</text>
</a>
</g>
</g>
<!-- Node3&#45;&gt;Node8 -->
<g id="edge7" class="edge">
<title>Node3&#45;&gt;Node8</title>
<path fill="none" stroke="midnightblue" d="M223.23,-56.44C261.39,-46.9 323.09,-31.48 363.85,-21.29"/>
<polygon fill="midnightblue" stroke="midnightblue" points="364.89,-24.64 373.74,-18.82 363.19,-17.85 364.89,-24.64"/>
</g>
<!-- Node9&#45;&gt;Node3 -->
<g id="edge10" class="edge">
<title>Node9&#45;&gt;Node3</title>
<path fill="none" stroke="midnightblue" d="M127.96,-112.4C140.42,-103.13 156.7,-91.03 169.31,-81.65"/>
<polygon fill="midnightblue" stroke="midnightblue" points="171.42,-84.43 177.36,-75.66 167.25,-78.82 171.42,-84.43"/>
</g>
<!-- Node9&#45;&gt;Node4 -->
<g id="edge9" class="edge">
<title>Node9&#45;&gt;Node4</title>
<path fill="none" stroke="midnightblue" d="M99.19,-112.34C84.45,-91.05 56.63,-50.89 40.8,-28.03"/>
<polygon fill="midnightblue" stroke="midnightblue" points="43.58,-25.9 35,-19.67 37.82,-29.88 43.58,-25.9"/>
</g>
</g>
</svg>
