<?xml version="1.0" encoding="UTF-8" standalone="no"?>
<!DOCTYPE svg PUBLIC "-//W3C//DTD SVG 1.1//EN"
 "http://www.w3.org/Graphics/SVG/1.1/DTD/svg11.dtd">
<!-- Generated by graphviz version 2.43.0 (0)
 -->
<!-- Title: ScratchField.cpp Pages: 1 -->
<!--zoomable 252 -->
<svg id="main" version="1.1" xmlns="http://www.w3.org/2000/svg" xmlns:xlink="http://www.w3.org/1999/xlink" xml:space="preserve" onload="init(evt)">
<style type="text/css"><![CDATA[
.edge:hover path { stroke: red; }
.edge:hover polygon { stroke: red; fill: red; }
]]></style>
<script type="text/javascript"><![CDATA[
var edges = document.getElementsByTagName('g');
if (edges && edges.length) {
  for (var i=0;i<edges.length;i++) {
    if (edges[i].id.substr(0,4)=='edge') {
      edges[i].setAttribute('class','edge');
    }
  }
}
]]></script>
        <defs>
                <circle id="rim" cx="0" cy="0" r="7"/>
                <circle id="rim2" cx="0" cy="0" r="3.5"/>
                <g id="zoomPlus">
                        <use xlink:href="#rim" fill="#404040">
                                <set attributeName="fill" to="#808080" begin="zoomplus.mouseover" end="zoomplus.mouseout"/>
                        </use>
                        <path d="M-4,0h8M0,-4v8" fill="none" stroke="white" stroke-width="1.5" pointer-events="none"/>
                </g>
                <g id="zoomMin">
                        <use xlink:href="#rim" fill="#404040">
                                <set attributeName="fill" to="#808080" begin="zoomminus.mouseover" end="zoomminus.mouseout"/>
                        </use>
                        <path d="M-4,0h8" fill="none" stroke="white" stroke-width="1.5" pointer-events="none"/>
                </g>
                <g id="dirArrow">
                        <path fill="none" stroke="white" stroke-width="1.5" d="M0,-3.0v7 M-2.5,-0.5L0,-3.0L2.5,-0.5"/>
                </g>
               <g id="resetDef">
                       <use xlink:href="#rim2" fill="#404040">
                               <set attributeName="fill" to="#808080" begin="reset.mouseover" end="reset.mouseout"/>
                       </use>
               </g>
        </defs>

<script type="text/javascript">
var viewWidth = 1657;
var viewHeight = 252;
var sectionId = 'dynsection-0';
</script>
<script xlink:href="svgpan.js"/>
<svg id="graph" class="graph">
<g id="viewport">
<title>ScratchField.cpp</title>
<polygon fill="white" stroke="transparent" points="-4,4 -4,-248 1652.85,-248 1652.85,4 -4,4"/>
<!-- Node1 -->
<g id="node1" class="node">
<title>Node1</title>
<g id="a_node1"><a xlink:title=" ">
<polygon fill="#bfbfbf" stroke="black" points="1030.3,-224.5 1030.3,-243.5 1126.3,-243.5 1126.3,-224.5 1030.3,-224.5"/>
<text text-anchor="middle" x="1078.3" y="-231.5" font-family="Helvetica,sans-Serif" font-size="10.00">ScratchField.cpp</text>
</a>
</g>
</g>
<!-- Node2 -->
<g id="node2" class="node">
<title>Node2</title>
<g id="a_node2"><a xlink:href="_scratch_field_8_h.html" target="_top" xlink:title=" ">
<polygon fill="white" stroke="black" points="465.3,-112.5 465.3,-131.5 625.3,-131.5 625.3,-112.5 465.3,-112.5"/>
<text text-anchor="middle" x="545.3" y="-119.5" font-family="Helvetica,sans-Serif" font-size="10.00">amr&#45;wind/core/ScratchField.H</text>
</a>
</g>
</g>
<!-- Node1&#45;&gt;Node2 -->
<g id="edge1" class="edge">
<title>Node1&#45;&gt;Node2</title>
<path fill="none" stroke="midnightblue" d="M1036.92,-224.46C940.7,-204.6 702.1,-155.36 596.73,-133.61"/>
<polygon fill="midnightblue" stroke="midnightblue" points="597.16,-130.13 586.66,-131.53 595.74,-136.98 597.16,-130.13"/>
</g>
<!-- Node6 -->
<g id="node6" class="node">
<title>Node6</title>
<g id="a_node6"><a xlink:title=" ">
<polygon fill="white" stroke="#bfbfbf" points="134.8,-0.5 134.8,-19.5 243.8,-19.5 243.8,-0.5 134.8,-0.5"/>
<text text-anchor="middle" x="189.3" y="-7.5" font-family="Helvetica,sans-Serif" font-size="10.00">AMReX_MultiFab.H</text>
</a>
</g>
</g>
<!-- Node1&#45;&gt;Node6 -->
<g id="edge44" class="edge">
<title>Node1&#45;&gt;Node6</title>
<path fill="none" stroke="midnightblue" d="M1030.25,-228.47C946.95,-220.58 770.36,-203.65 621.3,-188 344.99,-158.99 152.79,-312.08 6.3,-76 -22.93,-28.89 60.91,-15.48 124.62,-11.92"/>
<polygon fill="midnightblue" stroke="midnightblue" points="124.83,-15.41 134.65,-11.43 124.49,-8.42 124.83,-15.41"/>
</g>
<!-- Node8 -->
<g id="node8" class="node">
<title>Node8</title>
<g id="a_node8"><a xlink:title=" ">
<polygon fill="white" stroke="#bfbfbf" points="27.8,-56.5 27.8,-75.5 158.8,-75.5 158.8,-56.5 27.8,-56.5"/>
<text text-anchor="middle" x="93.3" y="-63.5" font-family="Helvetica,sans-Serif" font-size="10.00">AMReX_PhysBCFunct.H</text>
</a>
</g>
</g>
<!-- Node1&#45;&gt;Node8 -->
<g id="edge42" class="edge">
<title>Node1&#45;&gt;Node8</title>
<path fill="none" stroke="midnightblue" d="M1030.03,-226.95C918.66,-212.74 635.28,-175.17 400.3,-132 307.86,-115.02 200.59,-91.4 140.46,-77.81"/>
<polygon fill="midnightblue" stroke="midnightblue" points="141.03,-74.35 130.51,-75.55 139.49,-81.18 141.03,-74.35"/>
</g>
<!-- Node9 -->
<g id="node9" class="node">
<title>Node9</title>
<g id="a_node9"><a xlink:href="_field_repo_8_h.html" target="_top" xlink:title=" ">
<polygon fill="white" stroke="black" points="952.8,-168.5 952.8,-187.5 1101.8,-187.5 1101.8,-168.5 952.8,-168.5"/>
<text text-anchor="middle" x="1027.3" y="-175.5" font-family="Helvetica,sans-Serif" font-size="10.00">amr&#45;wind/core/FieldRepo.H</text>
</a>
</g>
</g>
<!-- Node1&#45;&gt;Node9 -->
<g id="edge12" class="edge">
<title>Node1&#45;&gt;Node9</title>
<path fill="none" stroke="midnightblue" d="M1069.88,-224.08C1062.45,-216.22 1051.45,-204.57 1042.49,-195.08"/>
<polygon fill="midnightblue" stroke="midnightblue" points="1044.98,-192.62 1035.57,-187.75 1039.89,-197.42 1044.98,-192.62"/>
</g>
<!-- Node17 -->
<g id="node17" class="node">
<title>Node17</title>
<g id="a_node17"><a xlink:title=" ">
<polygon fill="white" stroke="#bfbfbf" points="1357.8,-56.5 1357.8,-75.5 1444.8,-75.5 1444.8,-56.5 1357.8,-56.5"/>
<text text-anchor="middle" x="1401.3" y="-63.5" font-family="Helvetica,sans-Serif" font-size="10.00">AMReX_Gpu.H</text>
</a>
</g>
</g>
<!-- Node1&#45;&gt;Node17 -->
<g id="edge39" class="edge">
<title>Node1&#45;&gt;Node17</title>
<path fill="none" stroke="midnightblue" d="M1087.02,-224.47C1101.07,-211.07 1130.03,-184.88 1158.3,-168 1226.93,-127.04 1315.25,-94.89 1364.29,-78.64"/>
<polygon fill="midnightblue" stroke="midnightblue" points="1365.43,-81.95 1373.85,-75.51 1363.25,-75.3 1365.43,-81.95"/>
</g>
<!-- Node22 -->
<g id="node22" class="node">
<title>Node22</title>
<g id="a_node22"><a xlink:title=" ">
<polygon fill="white" stroke="#bfbfbf" points="1166.8,-168.5 1166.8,-187.5 1283.8,-187.5 1283.8,-168.5 1166.8,-168.5"/>
<text text-anchor="middle" x="1225.3" y="-175.5" font-family="Helvetica,sans-Serif" font-size="10.00">AMReX_FArrayBox.H</text>
</a>
</g>
</g>
<!-- Node1&#45;&gt;Node22 -->
<g id="edge40" class="edge">
<title>Node1&#45;&gt;Node22</title>
<path fill="none" stroke="midnightblue" d="M1101.6,-224.44C1126.11,-215.44 1164.9,-201.19 1192.5,-191.05"/>
<polygon fill="midnightblue" stroke="midnightblue" points="1193.94,-194.25 1202.12,-187.52 1191.53,-187.68 1193.94,-194.25"/>
</g>
<!-- Node23 -->
<g id="node23" class="node">
<title>Node23</title>
<g id="a_node23"><a xlink:title=" ">
<polygon fill="white" stroke="#bfbfbf" points="1301.8,-168.5 1301.8,-187.5 1416.8,-187.5 1416.8,-168.5 1301.8,-168.5"/>
<text text-anchor="middle" x="1359.3" y="-175.5" font-family="Helvetica,sans-Serif" font-size="10.00">AMReX_Geometry.H</text>
</a>
</g>
</g>
<!-- Node1&#45;&gt;Node23 -->
<g id="edge41" class="edge">
<title>Node1&#45;&gt;Node23</title>
<path fill="none" stroke="midnightblue" d="M1122.83,-224.44C1172.26,-214.94 1252.05,-199.61 1305.08,-189.42"/>
<polygon fill="midnightblue" stroke="midnightblue" points="1305.83,-192.84 1314.99,-187.52 1304.51,-185.97 1305.83,-192.84"/>
</g>
<!-- Node24 -->
<g id="node24" class="node">
<title>Node24</title>
<g id="a_node24"><a xlink:title=" ">
<polygon fill="white" stroke="#bfbfbf" points="1434.8,-168.5 1434.8,-187.5 1559.8,-187.5 1559.8,-168.5 1434.8,-168.5"/>
<text text-anchor="middle" x="1497.3" y="-175.5" font-family="Helvetica,sans-Serif" font-size="10.00">AMReX_FillPatchUtil.H</text>
</a>
</g>
</g>
<!-- Node1&#45;&gt;Node24 -->
<g id="edge43" class="edge">
<title>Node1&#45;&gt;Node24</title>
<path fill="none" stroke="midnightblue" d="M1126.37,-226.81C1199.39,-217.39 1338.79,-199.43 1424.35,-188.4"/>
<polygon fill="midnightblue" stroke="midnightblue" points="1425.04,-191.84 1434.51,-187.09 1424.15,-184.9 1425.04,-191.84"/>
</g>
<!-- Node3 -->
<g id="node3" class="node">
<title>Node3</title>
<g id="a_node3"><a xlink:title=" ">
<polygon fill="white" stroke="#bfbfbf" points="1196.3,-0.5 1196.3,-19.5 1240.3,-19.5 1240.3,-0.5 1196.3,-0.5"/>
<text text-anchor="middle" x="1218.3" y="-7.5" font-family="Helvetica,sans-Serif" font-size="10.00">string</text>
</a>
</g>
</g>
<!-- Node2&#45;&gt;Node3 -->
<g id="edge2" class="edge">
<title>Node2&#45;&gt;Node3</title>
<path fill="none" stroke="midnightblue" d="M568.7,-112.49C608.51,-98.39 692.21,-70.3 765.3,-56 920.92,-25.56 1110.86,-15.19 1185.74,-12.13"/>
<polygon fill="midnightblue" stroke="midnightblue" points="1186.08,-15.62 1195.93,-11.73 1185.8,-8.63 1186.08,-15.62"/>
</g>
<!-- Node4 -->
<g id="node4" class="node">
<title>Node4</title>
<g id="a_node4"><a xlink:href="_field_desc_types_8_h.html" target="_top" xlink:title=" ">
<polygon fill="white" stroke="black" points="562.3,-0.5 562.3,-19.5 738.3,-19.5 738.3,-0.5 562.3,-0.5"/>
<text text-anchor="middle" x="650.3" y="-7.5" font-family="Helvetica,sans-Serif" font-size="10.00">amr&#45;wind/core/FieldDescTypes.H</text>
</a>
</g>
</g>
<!-- Node2&#45;&gt;Node4 -->
<g id="edge3" class="edge">
<title>Node2&#45;&gt;Node4</title>
<path fill="none" stroke="midnightblue" d="M562.27,-112.44C576.83,-104.48 597.72,-91.52 612.3,-76 625.28,-62.18 635.75,-43.16 642.39,-29.26"/>
<polygon fill="midnightblue" stroke="midnightblue" points="645.74,-30.36 646.7,-19.81 639.37,-27.46 645.74,-30.36"/>
</g>
<!-- Node5 -->
<g id="node5" class="node">
<title>Node5</title>
<g id="a_node5"><a xlink:href="_view_field_8_h.html" target="_top" xlink:title=" ">
<polygon fill="white" stroke="black" points="455.3,-56.5 455.3,-75.5 603.3,-75.5 603.3,-56.5 455.3,-56.5"/>
<text text-anchor="middle" x="529.3" y="-63.5" font-family="Helvetica,sans-Serif" font-size="10.00">amr&#45;wind/core/ViewField.H</text>
</a>
</g>
</g>
<!-- Node2&#45;&gt;Node5 -->
<g id="edge4" class="edge">
<title>Node2&#45;&gt;Node5</title>
<path fill="none" stroke="midnightblue" d="M542.66,-112.08C540.52,-104.85 537.42,-94.41 534.75,-85.4"/>
<polygon fill="midnightblue" stroke="midnightblue" points="538.09,-84.34 531.9,-75.75 531.38,-86.33 538.09,-84.34"/>
</g>
<!-- Node2&#45;&gt;Node6 -->
<g id="edge9" class="edge">
<title>Node2&#45;&gt;Node6</title>
<path fill="none" stroke="midnightblue" d="M465.16,-119.7C378.87,-116.69 248.9,-106.97 211.3,-76 197.67,-64.77 192.45,-44.76 190.47,-29.89"/>
<polygon fill="midnightblue" stroke="midnightblue" points="193.94,-29.38 189.5,-19.76 186.97,-30.05 193.94,-29.38"/>
</g>
<!-- Node7 -->
<g id="node7" class="node">
<title>Node7</title>
<g id="a_node7"><a xlink:title=" ">
<polygon fill="white" stroke="#bfbfbf" points="436.3,-0.5 436.3,-19.5 534.3,-19.5 534.3,-0.5 436.3,-0.5"/>
<text text-anchor="middle" x="485.3" y="-7.5" font-family="Helvetica,sans-Serif" font-size="10.00">AMReX_Vector.H</text>
</a>
</g>
</g>
<!-- Node2&#45;&gt;Node7 -->
<g id="edge10" class="edge">
<title>Node2&#45;&gt;Node7</title>
<path fill="none" stroke="midnightblue" d="M501.3,-112.44C480.9,-106.03 458.52,-94.97 446.3,-76 435.48,-59.2 451.23,-39.45 465.83,-26.17"/>
<polygon fill="midnightblue" stroke="midnightblue" points="468.3,-28.67 473.64,-19.52 463.76,-23.34 468.3,-28.67"/>
</g>
<!-- Node2&#45;&gt;Node8 -->
<g id="edge11" class="edge">
<title>Node2&#45;&gt;Node8</title>
<path fill="none" stroke="midnightblue" d="M473.68,-112.44C390.56,-102.51 254.06,-86.21 169.17,-76.06"/>
<polygon fill="midnightblue" stroke="midnightblue" points="169.42,-72.57 159.08,-74.86 168.59,-79.52 169.42,-72.57"/>
</g>
<!-- Node5&#45;&gt;Node3 -->
<g id="edge5" class="edge">
<title>Node5&#45;&gt;Node3</title>
<path fill="none" stroke="midnightblue" d="M603.36,-59.2C752.07,-47.54 1081.67,-21.71 1185.99,-13.53"/>
<polygon fill="midnightblue" stroke="midnightblue" points="1186.5,-17 1196.2,-12.73 1185.95,-10.02 1186.5,-17"/>
</g>
<!-- Node5&#45;&gt;Node4 -->
<g id="edge6" class="edge">
<title>Node5&#45;&gt;Node4</title>
<path fill="none" stroke="midnightblue" d="M548.48,-56.44C568.21,-47.64 599.19,-33.81 621.8,-23.72"/>
<polygon fill="midnightblue" stroke="midnightblue" points="623.51,-26.79 631.22,-19.52 620.66,-20.4 623.51,-26.79"/>
</g>
<!-- Node5&#45;&gt;Node6 -->
<g id="edge7" class="edge">
<title>Node5&#45;&gt;Node6</title>
<path fill="none" stroke="midnightblue" d="M475.43,-56.44C415,-46.85 317.06,-31.29 252.92,-21.1"/>
<polygon fill="midnightblue" stroke="midnightblue" points="253.35,-17.63 242.92,-19.52 252.25,-24.54 253.35,-17.63"/>
</g>
<!-- Node5&#45;&gt;Node7 -->
<g id="edge8" class="edge">
<title>Node5&#45;&gt;Node7</title>
<path fill="none" stroke="midnightblue" d="M522.04,-56.08C515.76,-48.38 506.52,-37.03 498.87,-27.65"/>
<polygon fill="midnightblue" stroke="midnightblue" points="501.46,-25.29 492.43,-19.75 496.04,-29.71 501.46,-25.29"/>
</g>
<!-- Node9&#45;&gt;Node2 -->
<g id="edge35" class="edge">
<title>Node9&#45;&gt;Node2</title>
<path fill="none" stroke="midnightblue" d="M952.78,-168.65C866.06,-158.94 723.09,-142.92 631.61,-132.67"/>
<polygon fill="midnightblue" stroke="midnightblue" points="631.87,-129.18 621.55,-131.54 631.09,-136.13 631.87,-129.18"/>
</g>
<!-- Node9&#45;&gt;Node3 -->
<g id="edge13" class="edge">
<title>Node9&#45;&gt;Node3</title>
<path fill="none" stroke="midnightblue" d="M1101.87,-171.73C1262.29,-160.34 1625.98,-134.29 1628.3,-132 1652.41,-108.24 1655.91,-81.19 1633.3,-56 1607.84,-27.63 1343.86,-15.49 1250.67,-12.07"/>
<polygon fill="midnightblue" stroke="midnightblue" points="1250.54,-8.57 1240.42,-11.71 1250.29,-15.56 1250.54,-8.57"/>
</g>
<!-- Node9&#45;&gt;Node4 -->
<g id="edge15" class="edge">
<title>Node9&#45;&gt;Node4</title>
<path fill="none" stroke="midnightblue" d="M965.52,-168.47C923.85,-161.53 868.15,-149.9 821.3,-132 774.08,-113.96 763.31,-105.56 722.3,-76 701.52,-61.02 680.01,-40.89 665.98,-27.02"/>
<polygon fill="midnightblue" stroke="midnightblue" points="668.18,-24.27 658.64,-19.66 663.22,-29.21 668.18,-24.27"/>
</g>
<!-- Node9&#45;&gt;Node6 -->
<g id="edge37" class="edge">
<title>Node9&#45;&gt;Node6</title>
<path fill="none" stroke="midnightblue" d="M952.75,-175.31C729.7,-169.48 79.24,-146.52 18.3,-76 -15.53,-36.85 62.97,-21.2 124.52,-15"/>
<polygon fill="midnightblue" stroke="midnightblue" points="124.99,-18.47 134.62,-14.05 124.33,-11.5 124.99,-18.47"/>
</g>
<!-- Node10 -->
<g id="node10" class="node">
<title>Node10</title>
<g id="a_node10"><a xlink:title=" ">
<polygon fill="white" stroke="#bfbfbf" points="1246.8,-56.5 1246.8,-75.5 1339.8,-75.5 1339.8,-56.5 1246.8,-56.5"/>
<text text-anchor="middle" x="1293.3" y="-63.5" font-family="Helvetica,sans-Serif" font-size="10.00">unordered_map</text>
</a>
</g>
</g>
<!-- Node9&#45;&gt;Node10 -->
<g id="edge14" class="edge">
<title>Node9&#45;&gt;Node10</title>
<path fill="none" stroke="midnightblue" d="M1038.92,-168.48C1057.98,-154.85 1097.44,-128.06 1134.3,-112 1168.95,-96.91 1210.05,-85.43 1241.78,-77.84"/>
<polygon fill="midnightblue" stroke="midnightblue" points="1242.79,-81.2 1251.73,-75.52 1241.2,-74.39 1242.79,-81.2"/>
</g>
<!-- Node11 -->
<g id="node11" class="node">
<title>Node11</title>
<g id="a_node11"><a xlink:href="_field_utils_8_h.html" target="_top" xlink:title=" ">
<polygon fill="white" stroke="black" points="253.3,-56.5 253.3,-75.5 399.3,-75.5 399.3,-56.5 253.3,-56.5"/>
<text text-anchor="middle" x="326.3" y="-63.5" font-family="Helvetica,sans-Serif" font-size="10.00">amr&#45;wind/core/FieldUtils.H</text>
</a>
</g>
</g>
<!-- Node9&#45;&gt;Node11 -->
<g id="edge16" class="edge">
<title>Node9&#45;&gt;Node11</title>
<path fill="none" stroke="midnightblue" d="M952.74,-174.67C819.9,-169.93 547.68,-157.4 456.3,-132 415.77,-120.73 372.9,-96.58 347.93,-81.1"/>
<polygon fill="midnightblue" stroke="midnightblue" points="349.6,-78.01 339.27,-75.63 345.86,-83.93 349.6,-78.01"/>
</g>
<!-- Node13 -->
<g id="node13" class="node">
<title>Node13</title>
<g id="a_node13"><a xlink:href="_field_8_h.html" target="_top" xlink:title=" ">
<polygon fill="white" stroke="black" points="830.3,-112.5 830.3,-131.5 954.3,-131.5 954.3,-112.5 830.3,-112.5"/>
<text text-anchor="middle" x="892.3" y="-119.5" font-family="Helvetica,sans-Serif" font-size="10.00">amr&#45;wind/core/Field.H</text>
</a>
</g>
</g>
<!-- Node9&#45;&gt;Node13 -->
<g id="edge20" class="edge">
<title>Node9&#45;&gt;Node13</title>
<path fill="none" stroke="midnightblue" d="M1005.91,-168.44C983.6,-159.52 948.4,-145.44 923.09,-135.32"/>
<polygon fill="midnightblue" stroke="midnightblue" points="924.18,-131.98 913.59,-131.52 921.58,-138.48 924.18,-131.98"/>
</g>
<!-- Node19 -->
<g id="node19" class="node">
<title>Node19</title>
<g id="a_node19"><a xlink:href="_int_field_8_h.html" target="_top" xlink:title=" ">
<polygon fill="white" stroke="black" points="1481.8,-112.5 1481.8,-131.5 1618.8,-131.5 1618.8,-112.5 1481.8,-112.5"/>
<text text-anchor="middle" x="1550.3" y="-119.5" font-family="Helvetica,sans-Serif" font-size="10.00">amr&#45;wind/core/IntField.H</text>
</a>
</g>
</g>
<!-- Node9&#45;&gt;Node19 -->
<g id="edge31" class="edge">
<title>Node9&#45;&gt;Node19</title>
<path fill="none" stroke="midnightblue" d="M1101.96,-169.29C1200.05,-159.16 1371.57,-141.45 1471.63,-131.12"/>
<polygon fill="midnightblue" stroke="midnightblue" points="1472.09,-134.59 1481.68,-130.09 1471.37,-127.63 1472.09,-134.59"/>
</g>
<!-- Node20 -->
<g id="node20" class="node">
<title>Node20</title>
<g id="a_node20"><a xlink:title=" ">
<polygon fill="white" stroke="#bfbfbf" points="1463.3,-56.5 1463.3,-75.5 1575.3,-75.5 1575.3,-56.5 1463.3,-56.5"/>
<text text-anchor="middle" x="1519.3" y="-63.5" font-family="Helvetica,sans-Serif" font-size="10.00">AMReX_iMultiFab.H</text>
</a>
</g>
</g>
<!-- Node9&#45;&gt;Node20 -->
<g id="edge38" class="edge">
<title>Node9&#45;&gt;Node20</title>
<path fill="none" stroke="midnightblue" d="M1065.5,-168.46C1154.14,-148.64 1373.67,-99.56 1471.24,-77.75"/>
<polygon fill="midnightblue" stroke="midnightblue" points="1472.13,-81.13 1481.13,-75.53 1470.61,-74.3 1472.13,-81.13"/>
</g>
<!-- Node21 -->
<g id="node21" class="node">
<title>Node21</title>
<g id="a_node21"><a xlink:title=" ">
<polygon fill="white" stroke="#bfbfbf" points="972.3,-112.5 972.3,-131.5 1082.3,-131.5 1082.3,-112.5 972.3,-112.5"/>
<text text-anchor="middle" x="1027.3" y="-119.5" font-family="Helvetica,sans-Serif" font-size="10.00">AMReX_AmrCore.H</text>
</a>
</g>
</g>
<!-- Node9&#45;&gt;Node21 -->
<g id="edge36" class="edge">
<title>Node9&#45;&gt;Node21</title>
<path fill="none" stroke="midnightblue" d="M1027.3,-168.08C1027.3,-161.01 1027.3,-150.86 1027.3,-141.99"/>
<polygon fill="midnightblue" stroke="midnightblue" points="1030.8,-141.75 1027.3,-131.75 1023.8,-141.75 1030.8,-141.75"/>
</g>
<!-- Node11&#45;&gt;Node4 -->
<g id="edge17" class="edge">
<title>Node11&#45;&gt;Node4</title>
<path fill="none" stroke="midnightblue" d="M377.64,-56.44C435.11,-46.87 528.17,-31.36 589.3,-21.17"/>
<polygon fill="midnightblue" stroke="midnightblue" points="589.92,-24.61 599.2,-19.52 588.76,-17.71 589.92,-24.61"/>
</g>
<!-- Node11&#45;&gt;Node6 -->
<g id="edge18" class="edge">
<title>Node11&#45;&gt;Node6</title>
<path fill="none" stroke="midnightblue" d="M304.59,-56.44C281.95,-47.52 246.23,-33.44 220.55,-23.32"/>
<polygon fill="midnightblue" stroke="midnightblue" points="221.5,-19.93 210.91,-19.52 218.93,-26.44 221.5,-19.93"/>
</g>
<!-- Node12 -->
<g id="node12" class="node">
<title>Node12</title>
<g id="a_node12"><a xlink:title=" ">
<polygon fill="white" stroke="#bfbfbf" points="264.3,-0.5 264.3,-19.5 388.3,-19.5 388.3,-0.5 264.3,-0.5"/>
<text text-anchor="middle" x="326.3" y="-7.5" font-family="Helvetica,sans-Serif" font-size="10.00">AMReX_Interpolater.H</text>
</a>
</g>
</g>
<!-- Node11&#45;&gt;Node12 -->
<g id="edge19" class="edge">
<title>Node11&#45;&gt;Node12</title>
<path fill="none" stroke="midnightblue" d="M326.3,-56.08C326.3,-49.01 326.3,-38.86 326.3,-29.99"/>
<polygon fill="midnightblue" stroke="midnightblue" points="329.8,-29.75 326.3,-19.75 322.8,-29.75 329.8,-29.75"/>
</g>
<!-- Node13&#45;&gt;Node3 -->
<g id="edge21" class="edge">
<title>Node13&#45;&gt;Node3</title>
<path fill="none" stroke="midnightblue" d="M954.36,-112.75C1042.72,-100.9 1194.7,-80.01 1199.3,-76 1212.45,-64.56 1216.74,-44.58 1218.03,-29.78"/>
<polygon fill="midnightblue" stroke="midnightblue" points="1221.53,-29.86 1218.52,-19.7 1214.53,-29.52 1221.53,-29.86"/>
</g>
<!-- Node13&#45;&gt;Node4 -->
<g id="edge29" class="edge">
<title>Node13&#45;&gt;Node4</title>
<path fill="none" stroke="midnightblue" d="M863.75,-112.45C837.64,-104.27 798.19,-90.98 765.3,-76 731.74,-60.71 694.95,-38.97 672.25,-24.93"/>
<polygon fill="midnightblue" stroke="midnightblue" points="674.04,-21.92 663.71,-19.6 670.34,-27.86 674.04,-21.92"/>
</g>
<!-- Node13&#45;&gt;Node5 -->
<g id="edge30" class="edge">
<title>Node13&#45;&gt;Node5</title>
<path fill="none" stroke="midnightblue" d="M834.78,-112.44C770.13,-102.83 665.28,-87.23 596.8,-77.04"/>
<polygon fill="midnightblue" stroke="midnightblue" points="596.96,-73.53 586.55,-75.52 595.93,-80.45 596.96,-73.53"/>
</g>
<!-- Node13&#45;&gt;Node6 -->
<g id="edge25" class="edge">
<title>Node13&#45;&gt;Node6</title>
<path fill="none" stroke="midnightblue" d="M830.19,-117.99C673.04,-110.21 270.18,-89.11 244.3,-76 223.97,-65.7 208.17,-44.22 198.83,-28.77"/>
<polygon fill="midnightblue" stroke="midnightblue" points="201.63,-26.62 193.64,-19.66 195.55,-30.08 201.63,-26.62"/>
</g>
<!-- Node13&#45;&gt;Node10 -->
<g id="edge23" class="edge">
<title>Node13&#45;&gt;Node10</title>
<path fill="none" stroke="midnightblue" d="M954.38,-113.07C1022.57,-104.28 1135.3,-89.57 1232.3,-76 1233.76,-75.8 1235.24,-75.59 1236.73,-75.38"/>
<polygon fill="midnightblue" stroke="midnightblue" points="1237.28,-78.83 1246.69,-73.95 1236.29,-71.9 1237.28,-78.83"/>
</g>
<!-- Node14 -->
<g id="node14" class="node">
<title>Node14</title>
<g id="a_node14"><a xlink:title=" ">
<polygon fill="white" stroke="#bfbfbf" points="1050.3,-56.5 1050.3,-75.5 1108.3,-75.5 1108.3,-56.5 1050.3,-56.5"/>
<text text-anchor="middle" x="1079.3" y="-63.5" font-family="Helvetica,sans-Serif" font-size="10.00">memory</text>
</a>
</g>
</g>
<!-- Node13&#45;&gt;Node14 -->
<g id="edge22" class="edge">
<title>Node13&#45;&gt;Node14</title>
<path fill="none" stroke="midnightblue" d="M921.93,-112.44C953.9,-103.21 1004.93,-88.48 1040.18,-78.3"/>
<polygon fill="midnightblue" stroke="midnightblue" points="1041.48,-81.56 1050.12,-75.43 1039.54,-74.84 1041.48,-81.56"/>
</g>
<!-- Node15 -->
<g id="node15" class="node">
<title>Node15</title>
<g id="a_node15"><a xlink:title=" ">
<polygon fill="white" stroke="#bfbfbf" points="1126.3,-56.5 1126.3,-75.5 1190.3,-75.5 1190.3,-56.5 1126.3,-56.5"/>
<text text-anchor="middle" x="1158.3" y="-63.5" font-family="Helvetica,sans-Serif" font-size="10.00">algorithm</text>
</a>
</g>
</g>
<!-- Node13&#45;&gt;Node15 -->
<g id="edge24" class="edge">
<title>Node13&#45;&gt;Node15</title>
<path fill="none" stroke="midnightblue" d="M936.33,-112.45C979.59,-103.99 1047.77,-90.5 1116.02,-76.24"/>
<polygon fill="midnightblue" stroke="midnightblue" points="1117.02,-79.61 1126.09,-74.13 1115.58,-72.76 1117.02,-79.61"/>
</g>
<!-- Node16 -->
<g id="node16" class="node">
<title>Node16</title>
<g id="a_node16"><a xlink:title=" ">
<polygon fill="white" stroke="#bfbfbf" points="773.8,-56.5 773.8,-75.5 872.8,-75.5 872.8,-56.5 773.8,-56.5"/>
<text text-anchor="middle" x="823.3" y="-63.5" font-family="Helvetica,sans-Serif" font-size="10.00">AMReX_BCRec.H</text>
</a>
</g>
</g>
<!-- Node13&#45;&gt;Node16 -->
<g id="edge26" class="edge">
<title>Node13&#45;&gt;Node16</title>
<path fill="none" stroke="midnightblue" d="M881.22,-112.32C870.82,-104.18 855.04,-91.84 842.58,-82.09"/>
<polygon fill="midnightblue" stroke="midnightblue" points="844.62,-79.24 834.59,-75.83 840.31,-84.75 844.62,-79.24"/>
</g>
<!-- Node13&#45;&gt;Node17 -->
<g id="edge27" class="edge">
<title>Node13&#45;&gt;Node17</title>
<path fill="none" stroke="midnightblue" d="M954.63,-112.98C957.56,-112.64 960.46,-112.31 963.3,-112 1131.31,-93.52 1176.79,-98.51 1347.56,-76.14"/>
<polygon fill="midnightblue" stroke="midnightblue" points="1348.19,-79.59 1357.65,-74.81 1347.28,-72.65 1348.19,-79.59"/>
</g>
<!-- Node18 -->
<g id="node18" class="node">
<title>Node18</title>
<g id="a_node18"><a xlink:href="incflo__enums_8_h.html" target="_top" xlink:title=" ">
<polygon fill="white" stroke="black" points="890.8,-56.5 890.8,-75.5 1031.8,-75.5 1031.8,-56.5 890.8,-56.5"/>
<text text-anchor="middle" x="961.3" y="-63.5" font-family="Helvetica,sans-Serif" font-size="10.00">amr&#45;wind/incflo_enums.H</text>
</a>
</g>
</g>
<!-- Node13&#45;&gt;Node18 -->
<g id="edge28" class="edge">
<title>Node13&#45;&gt;Node18</title>
<path fill="none" stroke="midnightblue" d="M903.39,-112.32C913.79,-104.18 929.56,-91.84 942.02,-82.09"/>
<polygon fill="midnightblue" stroke="midnightblue" points="944.3,-84.75 950.02,-75.83 939.98,-79.24 944.3,-84.75"/>
</g>
<!-- Node19&#45;&gt;Node3 -->
<g id="edge32" class="edge">
<title>Node19&#45;&gt;Node3</title>
<path fill="none" stroke="midnightblue" d="M1570.97,-112.36C1597.07,-100.27 1636.42,-77.39 1617.3,-56 1592.98,-28.78 1341.29,-15.97 1250.63,-12.22"/>
<polygon fill="midnightblue" stroke="midnightblue" points="1250.53,-8.71 1240.39,-11.81 1250.24,-15.71 1250.53,-8.71"/>
</g>
<!-- Node19&#45;&gt;Node4 -->
<g id="edge33" class="edge">
<title>Node19&#45;&gt;Node4</title>
<path fill="none" stroke="midnightblue" d="M1560.69,-112.49C1575.83,-99.12 1600.47,-72.96 1584.3,-56 1555.82,-26.11 982.56,-15.31 748.53,-12.13"/>
<polygon fill="midnightblue" stroke="midnightblue" points="748.36,-8.63 738.32,-11.99 748.27,-15.63 748.36,-8.63"/>
</g>
<!-- Node19&#45;&gt;Node20 -->
<g id="edge34" class="edge">
<title>Node19&#45;&gt;Node20</title>
<path fill="none" stroke="midnightblue" d="M1545.18,-112.08C1540.9,-104.61 1534.64,-93.72 1529.36,-84.52"/>
<polygon fill="midnightblue" stroke="midnightblue" points="1532.34,-82.68 1524.33,-75.75 1526.27,-86.17 1532.34,-82.68"/>
</g>
</g>
</svg>
        <g id="navigator" transform="translate(0 0)" fill="#404254">
                <rect fill="#f2f5e9" fill-opacity="0.5" stroke="#606060" stroke-width=".5" x="0" y="0" width="60" height="60"/>
                <use id="zoomplus" xlink:href="#zoomPlus" x="17" y="9" onmousedown="handleZoom(evt,'in')"/>
                <use id="zoomminus" xlink:href="#zoomMin" x="42" y="9" onmousedown="handleZoom(evt,'out')"/>
                <use id="reset" xlink:href="#resetDef" x="30" y="36" onmousedown="handleReset()"/>
                <g id="arrowUp" xlink:href="#dirArrow" transform="translate(30 24)" onmousedown="handlePan(0,-1)">
                  <use xlink:href="#rim" fill="#404040">
                        <set attributeName="fill" to="#808080" begin="arrowUp.mouseover" end="arrowUp.mouseout"/>
                  </use>
                  <path fill="none" stroke="white" stroke-width="1.5" d="M0,-3.0v7 M-2.5,-0.5L0,-3.0L2.5,-0.5"/>
                </g>
                <g id="arrowRight" xlink:href="#dirArrow" transform="rotate(90) translate(36 -43)" onmousedown="handlePan(1,0)">
                  <use xlink:href="#rim" fill="#404040">
                        <set attributeName="fill" to="#808080" begin="arrowRight.mouseover" end="arrowRight.mouseout"/>
                  </use>
                  <path fill="none" stroke="white" stroke-width="1.5" d="M0,-3.0v7 M-2.5,-0.5L0,-3.0L2.5,-0.5"/>
                </g>
                <g id="arrowDown" xlink:href="#dirArrow" transform="rotate(180) translate(-30 -48)" onmousedown="handlePan(0,1)">
                  <use xlink:href="#rim" fill="#404040">
                        <set attributeName="fill" to="#808080" begin="arrowDown.mouseover" end="arrowDown.mouseout"/>
                  </use>
                  <path fill="none" stroke="white" stroke-width="1.5" d="M0,-3.0v7 M-2.5,-0.5L0,-3.0L2.5,-0.5"/>
                </g>
                <g id="arrowLeft" xlink:href="#dirArrow" transform="rotate(270) translate(-36 17)" onmousedown="handlePan(-1,0)">
                  <use xlink:href="#rim" fill="#404040">
                        <set attributeName="fill" to="#808080" begin="arrowLeft.mouseover" end="arrowLeft.mouseout"/>
                  </use>
                  <path fill="none" stroke="white" stroke-width="1.5" d="M0,-3.0v7 M-2.5,-0.5L0,-3.0L2.5,-0.5"/>
                </g>
        </g>
        <svg viewBox="0 0 15 15" width="100%" height="30px" preserveAspectRatio="xMaxYMin meet">
         <g id="arrow_out" transform="scale(0.3 0.3)">
          <a xlink:href="_scratch_field_8cpp__incl_org.svg" target="_base">
           <rect id="button" ry="5" rx="5" y="6" x="6" height="38" width="38"
                fill="#f2f5e9" fill-opacity="0.5" stroke="#606060" stroke-width="1.0"/>
           <path id="arrow"
             d="M 11.500037,31.436501 C 11.940474,20.09759 22.043105,11.32322 32.158766,21.979434 L 37.068811,17.246167 C 37.068811,17.246167 37.088388,32 37.088388,32 L 22.160133,31.978069 C 22.160133,31.978069 26.997745,27.140456 26.997745,27.140456 C 18.528582,18.264221 13.291696,25.230495 11.500037,31.436501 z"
             style="fill:#404040;"/>
          </a>
         </g>
        </svg>
</svg>
