<?xml version="1.0" encoding="UTF-8" standalone="no"?>
<!DOCTYPE svg PUBLIC "-//W3C//DTD SVG 1.1//EN"
 "http://www.w3.org/Graphics/SVG/1.1/DTD/svg11.dtd">
<!-- Generated by graphviz version 2.43.0 (0)
 -->
<!-- Title: SimTime.H Pages: 1 -->
<svg width="650pt" height="84pt"
 viewBox="0.00 0.00 649.50 84.00" xmlns="http://www.w3.org/2000/svg" xmlns:xlink="http://www.w3.org/1999/xlink">
<g id="graph0" class="graph" transform="scale(1 1) rotate(0) translate(4 80)">
<title>SimTime.H</title>
<polygon fill="white" stroke="transparent" points="-4,4 -4,-80 645.5,-80 645.5,4 -4,4"/>
<!-- Node1 -->
<g id="node1" class="node">
<title>Node1</title>
<g id="a_node1"><a xlink:title=" ">
<polygon fill="#bfbfbf" stroke="black" points="346.5,-56.5 346.5,-75.5 417.5,-75.5 417.5,-56.5 346.5,-56.5"/>
<text text-anchor="middle" x="382" y="-63.5" font-family="Helvetica,sans-Serif" font-size="10.00">SimTime.H</text>
</a>
</g>
</g>
<!-- Node2 -->
<g id="node2" class="node">
<title>Node2</title>
<g id="a_node2"><a xlink:title=" ">
<polygon fill="white" stroke="#bfbfbf" points="0,-0.5 0,-19.5 92,-19.5 92,-0.5 0,-0.5"/>
<text text-anchor="middle" x="46" y="-7.5" font-family="Helvetica,sans-Serif" font-size="10.00">AMReX_REAL.H</text>
</a>
</g>
</g>
<!-- Node1&#45;&gt;Node2 -->
<g id="edge1" class="edge">
<title>Node1&#45;&gt;Node2</title>
<path fill="none" stroke="midnightblue" d="M346.06,-59.29C294.45,-51.07 196.05,-35.37 102.16,-20.18"/>
<polygon fill="midnightblue" stroke="midnightblue" points="102.64,-16.72 92.21,-18.57 101.52,-23.63 102.64,-16.72"/>
</g>
<!-- Node3 -->
<g id="node3" class="node">
<title>Node3</title>
<g id="a_node3"><a xlink:title=" ">
<polygon fill="white" stroke="#bfbfbf" points="110,-0.5 110,-19.5 244,-19.5 244,-0.5 110,-0.5"/>
<text text-anchor="middle" x="177" y="-7.5" font-family="Helvetica,sans-Serif" font-size="10.00">AMReX_GpuQualifiers.H</text>
</a>
</g>
</g>
<!-- Node1&#45;&gt;Node3 -->
<g id="edge2" class="edge">
<title>Node1&#45;&gt;Node3</title>
<path fill="none" stroke="midnightblue" d="M349.52,-56.44C314.28,-47.16 257.9,-32.31 219.24,-22.13"/>
<polygon fill="midnightblue" stroke="midnightblue" points="219.89,-18.68 209.33,-19.52 218.11,-25.45 219.89,-18.68"/>
</g>
<!-- Node4 -->
<g id="node4" class="node">
<title>Node4</title>
<g id="a_node4"><a xlink:title=" ">
<polygon fill="white" stroke="#bfbfbf" points="262,-0.5 262,-19.5 378,-19.5 378,-0.5 262,-0.5"/>
<text text-anchor="middle" x="320" y="-7.5" font-family="Helvetica,sans-Serif" font-size="10.00">AMReX_Extension.H</text>
</a>
</g>
</g>
<!-- Node1&#45;&gt;Node4 -->
<g id="edge3" class="edge">
<title>Node1&#45;&gt;Node4</title>
<path fill="none" stroke="midnightblue" d="M372.04,-56.32C362.87,-48.34 349.06,-36.31 337.97,-26.65"/>
<polygon fill="midnightblue" stroke="midnightblue" points="339.98,-23.76 330.14,-19.83 335.38,-29.04 339.98,-23.76"/>
</g>
<!-- Node5 -->
<g id="node5" class="node">
<title>Node5</title>
<g id="a_node5"><a xlink:title=" ">
<polygon fill="white" stroke="#bfbfbf" points="396,-0.5 396,-19.5 494,-19.5 494,-0.5 396,-0.5"/>
<text text-anchor="middle" x="445" y="-7.5" font-family="Helvetica,sans-Serif" font-size="10.00">AMReX_Vector.H</text>
</a>
</g>
</g>
<!-- Node1&#45;&gt;Node5 -->
<g id="edge4" class="edge">
<title>Node1&#45;&gt;Node5</title>
<path fill="none" stroke="midnightblue" d="M392.12,-56.32C401.53,-48.26 415.74,-36.08 427.07,-26.37"/>
<polygon fill="midnightblue" stroke="midnightblue" points="429.38,-29 434.69,-19.83 424.82,-23.68 429.38,-29"/>
</g>
<!-- Node6 -->
<g id="node6" class="node">
<title>Node6</title>
<g id="a_node6"><a xlink:title=" ">
<polygon fill="white" stroke="#bfbfbf" points="512,-0.5 512,-19.5 576,-19.5 576,-0.5 512,-0.5"/>
<text text-anchor="middle" x="544" y="-7.5" font-family="Helvetica,sans-Serif" font-size="10.00">algorithm</text>
</a>
</g>
</g>
<!-- Node1&#45;&gt;Node6 -->
<g id="edge5" class="edge">
<title>Node1&#45;&gt;Node6</title>
<path fill="none" stroke="midnightblue" d="M407.67,-56.44C434.92,-47.36 478.18,-32.94 508.65,-22.78"/>
<polygon fill="midnightblue" stroke="midnightblue" points="510.07,-26 518.45,-19.52 507.86,-19.36 510.07,-26"/>
</g>
<!-- Node7 -->
<g id="node7" class="node">
<title>Node7</title>
<g id="a_node7"><a xlink:title=" ">
<polygon fill="white" stroke="#bfbfbf" points="594.5,-0.5 594.5,-19.5 641.5,-19.5 641.5,-0.5 594.5,-0.5"/>
<text text-anchor="middle" x="618" y="-7.5" font-family="Helvetica,sans-Serif" font-size="10.00">cmath</text>
</a>
</g>
</g>
<!-- Node1&#45;&gt;Node7 -->
<g id="edge6" class="edge">
<title>Node1&#45;&gt;Node7</title>
<path fill="none" stroke="midnightblue" d="M417.69,-57.63C456.35,-49.53 520.04,-35.84 584.34,-20.07"/>
<polygon fill="midnightblue" stroke="midnightblue" points="585.37,-23.42 594.24,-17.63 583.7,-16.62 585.37,-23.42"/>
</g>
</g>
</svg>
