<?xml version="1.0" encoding="UTF-8" standalone="no"?>
<!DOCTYPE svg PUBLIC "-//W3C//DTD SVG 1.1//EN"
 "http://www.w3.org/Graphics/SVG/1.1/DTD/svg11.dtd">
<!-- Generated by graphviz version 2.43.0 (0)
 -->
<!-- Title: SplitAdvection.cpp Pages: 1 -->
<!--zoomable 341 -->
<svg id="main" version="1.1" xmlns="http://www.w3.org/2000/svg" xmlns:xlink="http://www.w3.org/1999/xlink" xml:space="preserve" onload="init(evt)">
<style type="text/css"><![CDATA[
.edge:hover path { stroke: red; }
.edge:hover polygon { stroke: red; fill: red; }
]]></style>
<script type="text/javascript"><![CDATA[
var edges = document.getElementsByTagName('g');
if (edges && edges.length) {
  for (var i=0;i<edges.length;i++) {
    if (edges[i].id.substr(0,4)=='edge') {
      edges[i].setAttribute('class','edge');
    }
  }
}
]]></script>
        <defs>
                <circle id="rim" cx="0" cy="0" r="7"/>
                <circle id="rim2" cx="0" cy="0" r="3.5"/>
                <g id="zoomPlus">
                        <use xlink:href="#rim" fill="#404040">
                                <set attributeName="fill" to="#808080" begin="zoomplus.mouseover" end="zoomplus.mouseout"/>
                        </use>
                        <path d="M-4,0h8M0,-4v8" fill="none" stroke="white" stroke-width="1.5" pointer-events="none"/>
                </g>
                <g id="zoomMin">
                        <use xlink:href="#rim" fill="#404040">
                                <set attributeName="fill" to="#808080" begin="zoomminus.mouseover" end="zoomminus.mouseout"/>
                        </use>
                        <path d="M-4,0h8" fill="none" stroke="white" stroke-width="1.5" pointer-events="none"/>
                </g>
                <g id="dirArrow">
                        <path fill="none" stroke="white" stroke-width="1.5" d="M0,-3.0v7 M-2.5,-0.5L0,-3.0L2.5,-0.5"/>
                </g>
               <g id="resetDef">
                       <use xlink:href="#rim2" fill="#404040">
                               <set attributeName="fill" to="#808080" begin="reset.mouseover" end="reset.mouseout"/>
                       </use>
               </g>
        </defs>

<script type="text/javascript">
var viewWidth = 1995;
var viewHeight = 341;
var sectionId = 'dynsection-0';
</script>
<script xlink:href="svgpan.js"/>
<svg id="graph" class="graph">
<g id="viewport">
<title>SplitAdvection.cpp</title>
<polygon fill="white" stroke="transparent" points="-4,4 -4,-337 1990.86,-337 1990.86,4 -4,4"/>
<!-- Node1 -->
<g id="node1" class="node">
<title>Node1</title>
<g id="a_node1"><a xlink:title=" ">
<polygon fill="#bfbfbf" stroke="black" points="1654.36,-313.5 1654.36,-332.5 1761.36,-332.5 1761.36,-313.5 1654.36,-313.5"/>
<text text-anchor="middle" x="1707.86" y="-320.5" font-family="Helvetica,sans-Serif" font-size="10.00">SplitAdvection.cpp</text>
</a>
</g>
</g>
<!-- Node2 -->
<g id="node2" class="node">
<title>Node2</title>
<g id="a_node2"><a xlink:href="_split_advection_8_h.html" target="_top" xlink:title=" ">
<polygon fill="white" stroke="black" points="1098.36,-246.5 1098.36,-276.5 1253.36,-276.5 1253.36,-246.5 1098.36,-246.5"/>
<text text-anchor="start" x="1106.36" y="-264.5" font-family="Helvetica,sans-Serif" font-size="10.00">amr&#45;wind/equation_systems</text>
<text text-anchor="middle" x="1175.86" y="-253.5" font-family="Helvetica,sans-Serif" font-size="10.00">/vof/SplitAdvection.H</text>
</a>
</g>
</g>
<!-- Node1&#45;&gt;Node2 -->
<g id="edge1" class="edge">
<title>Node1&#45;&gt;Node2</title>
<path fill="none" stroke="midnightblue" d="M1653.93,-315.97C1562.09,-305.7 1374.56,-284.72 1263.63,-272.32"/>
<polygon fill="midnightblue" stroke="midnightblue" points="1263.8,-268.81 1253.47,-271.18 1263.02,-275.77 1263.8,-268.81"/>
</g>
<!-- Node25 -->
<g id="node25" class="node">
<title>Node25</title>
<g id="a_node25"><a xlink:href="split__advection_8_h.html" target="_top" xlink:title=" ">
<polygon fill="white" stroke="black" points="1554.36,-246.5 1554.36,-276.5 1709.36,-276.5 1709.36,-246.5 1554.36,-246.5"/>
<text text-anchor="start" x="1562.36" y="-264.5" font-family="Helvetica,sans-Serif" font-size="10.00">amr&#45;wind/equation_systems</text>
<text text-anchor="middle" x="1631.86" y="-253.5" font-family="Helvetica,sans-Serif" font-size="10.00">/vof/split_advection.H</text>
</a>
</g>
</g>
<!-- Node1&#45;&gt;Node25 -->
<g id="edge48" class="edge">
<title>Node1&#45;&gt;Node25</title>
<path fill="none" stroke="midnightblue" d="M1696.98,-313.48C1686.78,-305.49 1671.15,-293.25 1657.76,-282.77"/>
<polygon fill="midnightblue" stroke="midnightblue" points="1659.81,-279.93 1649.78,-276.52 1655.49,-285.44 1659.81,-279.93"/>
</g>
<!-- Node29 -->
<g id="node29" class="node">
<title>Node29</title>
<g id="a_node29"><a xlink:title=" ">
<polygon fill="white" stroke="#bfbfbf" points="1727.36,-252 1727.36,-271 1842.36,-271 1842.36,-252 1727.36,-252"/>
<text text-anchor="middle" x="1784.86" y="-259" font-family="Helvetica,sans-Serif" font-size="10.00">AMReX_Geometry.H</text>
</a>
</g>
</g>
<!-- Node1&#45;&gt;Node29 -->
<g id="edge55" class="edge">
<title>Node1&#45;&gt;Node29</title>
<path fill="none" stroke="midnightblue" d="M1718.9,-313.48C1731.13,-304.02 1751.09,-288.6 1765.86,-277.19"/>
<polygon fill="midnightblue" stroke="midnightblue" points="1768.08,-279.89 1773.85,-271.01 1763.8,-274.35 1768.08,-279.89"/>
</g>
<!-- Node30 -->
<g id="node30" class="node">
<title>Node30</title>
<g id="a_node30"><a xlink:title=" ">
<polygon fill="white" stroke="#bfbfbf" points="1860.86,-252 1860.86,-271 1986.86,-271 1986.86,-252 1860.86,-252"/>
<text text-anchor="middle" x="1923.86" y="-259" font-family="Helvetica,sans-Serif" font-size="10.00">AMReX_MultiFabUtil.H</text>
</a>
</g>
</g>
<!-- Node1&#45;&gt;Node30 -->
<g id="edge56" class="edge">
<title>Node1&#45;&gt;Node30</title>
<path fill="none" stroke="midnightblue" d="M1738.81,-313.48C1776.75,-303.03 1841.14,-285.29 1883.09,-273.73"/>
<polygon fill="midnightblue" stroke="midnightblue" points="1884.26,-277.04 1892.97,-271.01 1882.4,-270.29 1884.26,-277.04"/>
</g>
<!-- Node3 -->
<g id="node3" class="node">
<title>Node3</title>
<g id="a_node3"><a xlink:href="_field_repo_8_h.html" target="_top" xlink:title=" ">
<polygon fill="white" stroke="black" points="749.36,-185 749.36,-204 898.36,-204 898.36,-185 749.36,-185"/>
<text text-anchor="middle" x="823.86" y="-192" font-family="Helvetica,sans-Serif" font-size="10.00">amr&#45;wind/core/FieldRepo.H</text>
</a>
</g>
</g>
<!-- Node2&#45;&gt;Node3 -->
<g id="edge2" class="edge">
<title>Node2&#45;&gt;Node3</title>
<path fill="none" stroke="midnightblue" d="M1099.92,-246.48C1033.81,-234.27 939.51,-216.86 880.02,-205.87"/>
<polygon fill="midnightblue" stroke="midnightblue" points="880.52,-202.4 870.05,-204.03 879.25,-209.29 880.52,-202.4"/>
</g>
<!-- Node4 -->
<g id="node4" class="node">
<title>Node4</title>
<g id="a_node4"><a xlink:title=" ">
<polygon fill="white" stroke="#bfbfbf" points="440.86,-0.5 440.86,-19.5 484.86,-19.5 484.86,-0.5 440.86,-0.5"/>
<text text-anchor="middle" x="462.86" y="-7.5" font-family="Helvetica,sans-Serif" font-size="10.00">string</text>
</a>
</g>
</g>
<!-- Node3&#45;&gt;Node4 -->
<g id="edge3" class="edge">
<title>Node3&#45;&gt;Node4</title>
<path fill="none" stroke="midnightblue" d="M749.05,-191.46C556.68,-185.84 58.12,-168.86 33.86,-143 24.86,-133.4 22.75,-69.95 35.86,-56 64.16,-25.91 364.89,-25.22 405.86,-20 413.97,-18.97 422.7,-17.68 430.83,-16.4"/>
<polygon fill="midnightblue" stroke="midnightblue" points="431.39,-19.86 440.71,-14.81 430.28,-12.94 431.39,-19.86"/>
</g>
<!-- Node5 -->
<g id="node5" class="node">
<title>Node5</title>
<g id="a_node5"><a xlink:title=" ">
<polygon fill="white" stroke="#bfbfbf" points="1399.36,-56.5 1399.36,-75.5 1492.36,-75.5 1492.36,-56.5 1399.36,-56.5"/>
<text text-anchor="middle" x="1445.86" y="-63.5" font-family="Helvetica,sans-Serif" font-size="10.00">unordered_map</text>
</a>
</g>
</g>
<!-- Node3&#45;&gt;Node5 -->
<g id="edge4" class="edge">
<title>Node3&#45;&gt;Node5</title>
<path fill="none" stroke="midnightblue" d="M898.56,-185.49C969.56,-177.22 1079.11,-162.75 1172.86,-143 1258.84,-124.89 1357.73,-95.06 1409.66,-78.68"/>
<polygon fill="midnightblue" stroke="midnightblue" points="1410.93,-81.95 1419.41,-75.59 1408.82,-75.27 1410.93,-81.95"/>
</g>
<!-- Node6 -->
<g id="node6" class="node">
<title>Node6</title>
<g id="a_node6"><a xlink:href="_field_desc_types_8_h.html" target="_top" xlink:title=" ">
<polygon fill="white" stroke="black" points="707.86,-0.5 707.86,-19.5 883.86,-19.5 883.86,-0.5 707.86,-0.5"/>
<text text-anchor="middle" x="795.86" y="-7.5" font-family="Helvetica,sans-Serif" font-size="10.00">amr&#45;wind/core/FieldDescTypes.H</text>
</a>
</g>
</g>
<!-- Node3&#45;&gt;Node6 -->
<g id="edge5" class="edge">
<title>Node3&#45;&gt;Node6</title>
<path fill="none" stroke="midnightblue" d="M830.52,-184.79C837.41,-175.17 847.75,-158.92 851.86,-143 855.32,-129.66 855.32,-125.34 851.86,-112 843.54,-79.81 822.49,-46.93 808.71,-27.77"/>
<polygon fill="midnightblue" stroke="midnightblue" points="811.37,-25.49 802.61,-19.53 805.74,-29.65 811.37,-25.49"/>
</g>
<!-- Node7 -->
<g id="node7" class="node">
<title>Node7</title>
<g id="a_node7"><a xlink:href="_field_utils_8_h.html" target="_top" xlink:title=" ">
<polygon fill="white" stroke="black" points="1666.86,-56.5 1666.86,-75.5 1812.86,-75.5 1812.86,-56.5 1666.86,-56.5"/>
<text text-anchor="middle" x="1739.86" y="-63.5" font-family="Helvetica,sans-Serif" font-size="10.00">amr&#45;wind/core/FieldUtils.H</text>
</a>
</g>
</g>
<!-- Node3&#45;&gt;Node7 -->
<g id="edge6" class="edge">
<title>Node3&#45;&gt;Node7</title>
<path fill="none" stroke="midnightblue" d="M898.48,-193.33C1056.44,-192.15 1419.54,-184.8 1534.86,-143 1557.01,-134.97 1556.63,-122.2 1577.86,-112 1610.99,-96.09 1650.7,-84.95 1682.52,-77.73"/>
<polygon fill="midnightblue" stroke="midnightblue" points="1683.54,-81.09 1692.56,-75.52 1682.04,-74.25 1683.54,-81.09"/>
</g>
<!-- Node8 -->
<g id="node8" class="node">
<title>Node8</title>
<g id="a_node8"><a xlink:title=" ">
<polygon fill="white" stroke="#bfbfbf" points="1316.36,-0.5 1316.36,-19.5 1425.36,-19.5 1425.36,-0.5 1316.36,-0.5"/>
<text text-anchor="middle" x="1370.86" y="-7.5" font-family="Helvetica,sans-Serif" font-size="10.00">AMReX_MultiFab.H</text>
</a>
</g>
</g>
<!-- Node3&#45;&gt;Node8 -->
<g id="edge46" class="edge">
<title>Node3&#45;&gt;Node8</title>
<path fill="none" stroke="midnightblue" d="M898.54,-192.62C1059.08,-188.91 1428.42,-170.12 1500.86,-76 1523.21,-46.97 1478.39,-29.96 1435.41,-20.67"/>
<polygon fill="midnightblue" stroke="midnightblue" points="1435.93,-17.21 1425.43,-18.64 1434.53,-24.07 1435.93,-17.21"/>
</g>
<!-- Node10 -->
<g id="node10" class="node">
<title>Node10</title>
<g id="a_node10"><a xlink:href="_field_8_h.html" target="_top" xlink:title=" ">
<polygon fill="white" stroke="black" points="1039.86,-118 1039.86,-137 1163.86,-137 1163.86,-118 1039.86,-118"/>
<text text-anchor="middle" x="1101.86" y="-125" font-family="Helvetica,sans-Serif" font-size="10.00">amr&#45;wind/core/Field.H</text>
</a>
</g>
</g>
<!-- Node3&#45;&gt;Node10 -->
<g id="edge10" class="edge">
<title>Node3&#45;&gt;Node10</title>
<path fill="none" stroke="midnightblue" d="M860.49,-184.94C910.6,-173.22 1000.53,-152.19 1055.35,-139.38"/>
<polygon fill="midnightblue" stroke="midnightblue" points="1056.21,-142.77 1065.15,-137.08 1054.62,-135.95 1056.21,-142.77"/>
</g>
<!-- Node18 -->
<g id="node18" class="node">
<title>Node18</title>
<g id="a_node18"><a xlink:href="_int_field_8_h.html" target="_top" xlink:title=" ">
<polygon fill="white" stroke="black" points="706.36,-118 706.36,-137 843.36,-137 843.36,-118 706.36,-118"/>
<text text-anchor="middle" x="774.86" y="-125" font-family="Helvetica,sans-Serif" font-size="10.00">amr&#45;wind/core/IntField.H</text>
</a>
</g>
</g>
<!-- Node3&#45;&gt;Node18 -->
<g id="edge25" class="edge">
<title>Node3&#45;&gt;Node18</title>
<path fill="none" stroke="midnightblue" d="M817.26,-184.73C809.69,-174.7 797.11,-158.01 787.62,-145.42"/>
<polygon fill="midnightblue" stroke="midnightblue" points="790.18,-143.01 781.37,-137.13 784.59,-147.22 790.18,-143.01"/>
</g>
<!-- Node19 -->
<g id="node19" class="node">
<title>Node19</title>
<g id="a_node19"><a xlink:title=" ">
<polygon fill="white" stroke="#bfbfbf" points="617.86,-56.5 617.86,-75.5 729.86,-75.5 729.86,-56.5 617.86,-56.5"/>
<text text-anchor="middle" x="673.86" y="-63.5" font-family="Helvetica,sans-Serif" font-size="10.00">AMReX_iMultiFab.H</text>
</a>
</g>
</g>
<!-- Node3&#45;&gt;Node19 -->
<g id="edge47" class="edge">
<title>Node3&#45;&gt;Node19</title>
<path fill="none" stroke="midnightblue" d="M749.36,-188.99C682.46,-183.21 591.39,-170.42 568.86,-143 560.12,-132.35 561.28,-123.5 568.86,-112 579.5,-95.86 597.26,-85.49 615.17,-78.83"/>
<polygon fill="midnightblue" stroke="midnightblue" points="616.73,-82 625.09,-75.5 614.5,-75.37 616.73,-82"/>
</g>
<!-- Node20 -->
<g id="node20" class="node">
<title>Node20</title>
<g id="a_node20"><a xlink:href="_scratch_field_8_h.html" target="_top" xlink:title=" ">
<polygon fill="white" stroke="black" points="42.86,-118 42.86,-137 202.86,-137 202.86,-118 42.86,-118"/>
<text text-anchor="middle" x="122.86" y="-125" font-family="Helvetica,sans-Serif" font-size="10.00">amr&#45;wind/core/ScratchField.H</text>
</a>
</g>
</g>
<!-- Node3&#45;&gt;Node20 -->
<g id="edge29" class="edge">
<title>Node3&#45;&gt;Node20</title>
<path fill="none" stroke="midnightblue" d="M749.18,-186.57C619.51,-174.55 353.25,-149.86 213.33,-136.89"/>
<polygon fill="midnightblue" stroke="midnightblue" points="213.34,-133.37 203.06,-135.94 212.7,-140.34 213.34,-133.37"/>
</g>
<!-- Node23 -->
<g id="node23" class="node">
<title>Node23</title>
<g id="a_node23"><a xlink:href="_int_scratch_field_8_h.html" target="_top" xlink:title=" ">
<polygon fill="white" stroke="black" points="349.36,-112.5 349.36,-142.5 488.36,-142.5 488.36,-112.5 349.36,-112.5"/>
<text text-anchor="start" x="357.36" y="-130.5" font-family="Helvetica,sans-Serif" font-size="10.00">amr&#45;wind/core/IntScratch</text>
<text text-anchor="middle" x="418.86" y="-119.5" font-family="Helvetica,sans-Serif" font-size="10.00">Field.H</text>
</a>
</g>
</g>
<!-- Node3&#45;&gt;Node23 -->
<g id="edge37" class="edge">
<title>Node3&#45;&gt;Node23</title>
<path fill="none" stroke="midnightblue" d="M770.5,-184.94C701.08,-173.79 579.2,-154.23 498.74,-141.32"/>
<polygon fill="midnightblue" stroke="midnightblue" points="499.08,-137.83 488.65,-139.7 497.97,-144.74 499.08,-137.83"/>
</g>
<!-- Node24 -->
<g id="node24" class="node">
<title>Node24</title>
<g id="a_node24"><a xlink:title=" ">
<polygon fill="white" stroke="#bfbfbf" points="577.86,-118 577.86,-137 687.86,-137 687.86,-118 577.86,-118"/>
<text text-anchor="middle" x="632.86" y="-125" font-family="Helvetica,sans-Serif" font-size="10.00">AMReX_AmrCore.H</text>
</a>
</g>
</g>
<!-- Node3&#45;&gt;Node24 -->
<g id="edge45" class="edge">
<title>Node3&#45;&gt;Node24</title>
<path fill="none" stroke="midnightblue" d="M798.5,-184.87C764.87,-173.42 705.39,-153.18 667.6,-140.32"/>
<polygon fill="midnightblue" stroke="midnightblue" points="668.62,-136.97 658.03,-137.06 666.37,-143.6 668.62,-136.97"/>
</g>
<!-- Node7&#45;&gt;Node6 -->
<g id="edge7" class="edge">
<title>Node7&#45;&gt;Node6</title>
<path fill="none" stroke="midnightblue" d="M1666.57,-56.83C1663.29,-56.53 1660.04,-56.26 1656.86,-56 1380.93,-33.85 1054.33,-20.22 894.27,-14.36"/>
<polygon fill="midnightblue" stroke="midnightblue" points="894.1,-10.85 883.97,-13.98 893.84,-17.84 894.1,-10.85"/>
</g>
<!-- Node7&#45;&gt;Node8 -->
<g id="edge8" class="edge">
<title>Node7&#45;&gt;Node8</title>
<path fill="none" stroke="midnightblue" d="M1681.4,-56.44C1614.38,-46.64 1504.86,-30.61 1435.4,-20.44"/>
<polygon fill="midnightblue" stroke="midnightblue" points="1435.85,-16.97 1425.45,-18.99 1434.84,-23.9 1435.85,-16.97"/>
</g>
<!-- Node9 -->
<g id="node9" class="node">
<title>Node9</title>
<g id="a_node9"><a xlink:title=" ">
<polygon fill="white" stroke="#bfbfbf" points="1677.86,-0.5 1677.86,-19.5 1801.86,-19.5 1801.86,-0.5 1677.86,-0.5"/>
<text text-anchor="middle" x="1739.86" y="-7.5" font-family="Helvetica,sans-Serif" font-size="10.00">AMReX_Interpolater.H</text>
</a>
</g>
</g>
<!-- Node7&#45;&gt;Node9 -->
<g id="edge9" class="edge">
<title>Node7&#45;&gt;Node9</title>
<path fill="none" stroke="midnightblue" d="M1739.86,-56.08C1739.86,-49.01 1739.86,-38.86 1739.86,-29.99"/>
<polygon fill="midnightblue" stroke="midnightblue" points="1743.36,-29.75 1739.86,-19.75 1736.36,-29.75 1743.36,-29.75"/>
</g>
<!-- Node10&#45;&gt;Node4 -->
<g id="edge11" class="edge">
<title>Node10&#45;&gt;Node4</title>
<path fill="none" stroke="midnightblue" d="M1064.26,-118C1001.71,-104.01 872.24,-75.73 761.86,-56 665.22,-38.72 550.19,-22.67 495.23,-15.28"/>
<polygon fill="midnightblue" stroke="midnightblue" points="495.44,-11.77 485.06,-13.91 494.51,-18.71 495.44,-11.77"/>
</g>
<!-- Node10&#45;&gt;Node5 -->
<g id="edge13" class="edge">
<title>Node10&#45;&gt;Node5</title>
<path fill="none" stroke="midnightblue" d="M1151.15,-117.98C1214.15,-107.08 1322.97,-88.26 1389.29,-76.79"/>
<polygon fill="midnightblue" stroke="midnightblue" points="1389.89,-80.23 1399.15,-75.08 1388.7,-73.34 1389.89,-80.23"/>
</g>
<!-- Node10&#45;&gt;Node6 -->
<g id="edge19" class="edge">
<title>Node10&#45;&gt;Node6</title>
<path fill="none" stroke="midnightblue" d="M1163.93,-124.85C1241.51,-120.68 1358.87,-106.18 1312.86,-56 1285.2,-25.82 1036.19,-15.81 894.1,-12.54"/>
<polygon fill="midnightblue" stroke="midnightblue" points="894.13,-9.04 884.06,-12.32 893.98,-16.04 894.13,-9.04"/>
</g>
<!-- Node10&#45;&gt;Node8 -->
<g id="edge15" class="edge">
<title>Node10&#45;&gt;Node8</title>
<path fill="none" stroke="midnightblue" d="M1163.88,-120.58C1227.19,-113.37 1319.9,-99.18 1346.86,-76 1360.38,-64.38 1366.29,-44.42 1368.87,-29.68"/>
<polygon fill="midnightblue" stroke="midnightblue" points="1372.36,-30.04 1370.27,-19.65 1365.42,-29.07 1372.36,-30.04"/>
</g>
<!-- Node11 -->
<g id="node11" class="node">
<title>Node11</title>
<g id="a_node11"><a xlink:title=" ">
<polygon fill="white" stroke="#bfbfbf" points="899.86,-56.5 899.86,-75.5 957.86,-75.5 957.86,-56.5 899.86,-56.5"/>
<text text-anchor="middle" x="928.86" y="-63.5" font-family="Helvetica,sans-Serif" font-size="10.00">memory</text>
</a>
</g>
</g>
<!-- Node10&#45;&gt;Node11 -->
<g id="edge12" class="edge">
<title>Node10&#45;&gt;Node11</title>
<path fill="none" stroke="midnightblue" d="M1077.08,-117.98C1047.27,-107.72 997.07,-90.46 963.46,-78.9"/>
<polygon fill="midnightblue" stroke="midnightblue" points="964.2,-75.45 953.61,-75.51 961.92,-82.07 964.2,-75.45"/>
</g>
<!-- Node12 -->
<g id="node12" class="node">
<title>Node12</title>
<g id="a_node12"><a xlink:title=" ">
<polygon fill="white" stroke="#bfbfbf" points="975.86,-56.5 975.86,-75.5 1039.86,-75.5 1039.86,-56.5 975.86,-56.5"/>
<text text-anchor="middle" x="1007.86" y="-63.5" font-family="Helvetica,sans-Serif" font-size="10.00">algorithm</text>
</a>
</g>
</g>
<!-- Node10&#45;&gt;Node12 -->
<g id="edge14" class="edge">
<title>Node10&#45;&gt;Node12</title>
<path fill="none" stroke="midnightblue" d="M1088.4,-117.98C1073.18,-108.34 1048.18,-92.52 1030.06,-81.05"/>
<polygon fill="midnightblue" stroke="midnightblue" points="1031.63,-77.9 1021.31,-75.51 1027.89,-83.81 1031.63,-77.9"/>
</g>
<!-- Node13 -->
<g id="node13" class="node">
<title>Node13</title>
<g id="a_node13"><a xlink:title=" ">
<polygon fill="white" stroke="#bfbfbf" points="1549.36,-56.5 1549.36,-75.5 1648.36,-75.5 1648.36,-56.5 1549.36,-56.5"/>
<text text-anchor="middle" x="1598.86" y="-63.5" font-family="Helvetica,sans-Serif" font-size="10.00">AMReX_BCRec.H</text>
</a>
</g>
</g>
<!-- Node10&#45;&gt;Node13 -->
<g id="edge16" class="edge">
<title>Node10&#45;&gt;Node13</title>
<path fill="none" stroke="midnightblue" d="M1164.06,-119.05C1260.43,-107.52 1444.6,-85.47 1539.33,-74.13"/>
<polygon fill="midnightblue" stroke="midnightblue" points="1539.81,-77.6 1549.32,-72.93 1538.98,-70.64 1539.81,-77.6"/>
</g>
<!-- Node14 -->
<g id="node14" class="node">
<title>Node14</title>
<g id="a_node14"><a xlink:title=" ">
<polygon fill="white" stroke="#bfbfbf" points="1058.36,-56.5 1058.36,-75.5 1145.36,-75.5 1145.36,-56.5 1058.36,-56.5"/>
<text text-anchor="middle" x="1101.86" y="-63.5" font-family="Helvetica,sans-Serif" font-size="10.00">AMReX_Gpu.H</text>
</a>
</g>
</g>
<!-- Node10&#45;&gt;Node14 -->
<g id="edge17" class="edge">
<title>Node10&#45;&gt;Node14</title>
<path fill="none" stroke="midnightblue" d="M1101.86,-117.98C1101.86,-109.58 1101.86,-96.48 1101.86,-85.66"/>
<polygon fill="midnightblue" stroke="midnightblue" points="1105.36,-85.51 1101.86,-75.51 1098.36,-85.51 1105.36,-85.51"/>
</g>
<!-- Node15 -->
<g id="node15" class="node">
<title>Node15</title>
<g id="a_node15"><a xlink:href="incflo__enums_8_h.html" target="_top" xlink:title=" ">
<polygon fill="white" stroke="black" points="1163.36,-56.5 1163.36,-75.5 1304.36,-75.5 1304.36,-56.5 1163.36,-56.5"/>
<text text-anchor="middle" x="1233.86" y="-63.5" font-family="Helvetica,sans-Serif" font-size="10.00">amr&#45;wind/incflo_enums.H</text>
</a>
</g>
</g>
<!-- Node10&#45;&gt;Node15 -->
<g id="edge18" class="edge">
<title>Node10&#45;&gt;Node15</title>
<path fill="none" stroke="midnightblue" d="M1120.78,-117.98C1143.03,-107.95 1180.18,-91.2 1205.79,-79.65"/>
<polygon fill="midnightblue" stroke="midnightblue" points="1207.31,-82.81 1214.99,-75.51 1204.43,-76.43 1207.31,-82.81"/>
</g>
<!-- Node16 -->
<g id="node16" class="node">
<title>Node16</title>
<g id="a_node16"><a xlink:href="_view_field_8_h.html" target="_top" xlink:title=" ">
<polygon fill="white" stroke="black" points="413.86,-56.5 413.86,-75.5 561.86,-75.5 561.86,-56.5 413.86,-56.5"/>
<text text-anchor="middle" x="487.86" y="-63.5" font-family="Helvetica,sans-Serif" font-size="10.00">amr&#45;wind/core/ViewField.H</text>
</a>
</g>
</g>
<!-- Node10&#45;&gt;Node16 -->
<g id="edge20" class="edge">
<title>Node10&#45;&gt;Node16</title>
<path fill="none" stroke="midnightblue" d="M1039.61,-120.47C928.85,-109.73 697.49,-87.31 572.44,-75.2"/>
<polygon fill="midnightblue" stroke="midnightblue" points="572.44,-71.68 562.15,-74.2 571.76,-78.65 572.44,-71.68"/>
</g>
<!-- Node16&#45;&gt;Node4 -->
<g id="edge21" class="edge">
<title>Node16&#45;&gt;Node4</title>
<path fill="none" stroke="midnightblue" d="M483.74,-56.08C480.35,-48.77 475.45,-38.18 471.25,-29.1"/>
<polygon fill="midnightblue" stroke="midnightblue" points="474.29,-27.36 466.92,-19.75 467.94,-30.3 474.29,-27.36"/>
</g>
<!-- Node16&#45;&gt;Node6 -->
<g id="edge22" class="edge">
<title>Node16&#45;&gt;Node6</title>
<path fill="none" stroke="midnightblue" d="M536.67,-56.44C591.07,-46.9 679.03,-31.48 737.16,-21.29"/>
<polygon fill="midnightblue" stroke="midnightblue" points="738.04,-24.69 747.29,-19.52 736.84,-17.8 738.04,-24.69"/>
</g>
<!-- Node16&#45;&gt;Node8 -->
<g id="edge23" class="edge">
<title>Node16&#45;&gt;Node8</title>
<path fill="none" stroke="midnightblue" d="M562.08,-59.3C577.54,-58.16 593.73,-57.01 608.86,-56 866.99,-38.78 1174.54,-21.66 1306.04,-14.49"/>
<polygon fill="midnightblue" stroke="midnightblue" points="1306.54,-17.97 1316.33,-13.93 1306.16,-10.98 1306.54,-17.97"/>
</g>
<!-- Node17 -->
<g id="node17" class="node">
<title>Node17</title>
<g id="a_node17"><a xlink:title=" ">
<polygon fill="white" stroke="#bfbfbf" points="298.86,-0.5 298.86,-19.5 396.86,-19.5 396.86,-0.5 298.86,-0.5"/>
<text text-anchor="middle" x="347.86" y="-7.5" font-family="Helvetica,sans-Serif" font-size="10.00">AMReX_Vector.H</text>
</a>
</g>
</g>
<!-- Node16&#45;&gt;Node17 -->
<g id="edge24" class="edge">
<title>Node16&#45;&gt;Node17</title>
<path fill="none" stroke="midnightblue" d="M465.68,-56.44C442.44,-47.48 405.72,-33.31 379.45,-23.18"/>
<polygon fill="midnightblue" stroke="midnightblue" points="380.53,-19.85 369.94,-19.52 378.01,-26.38 380.53,-19.85"/>
</g>
<!-- Node18&#45;&gt;Node4 -->
<g id="edge26" class="edge">
<title>Node18&#45;&gt;Node4</title>
<path fill="none" stroke="midnightblue" d="M773.13,-117.93C769.57,-102.77 759.96,-71.39 738.86,-56 700.49,-28.01 559.52,-16.52 495.22,-12.66"/>
<polygon fill="midnightblue" stroke="midnightblue" points="495.05,-9.14 484.87,-12.06 494.65,-16.13 495.05,-9.14"/>
</g>
<!-- Node18&#45;&gt;Node6 -->
<g id="edge27" class="edge">
<title>Node18&#45;&gt;Node6</title>
<path fill="none" stroke="midnightblue" d="M776.44,-117.82C779.83,-99.17 787.88,-54.94 792.48,-29.63"/>
<polygon fill="midnightblue" stroke="midnightblue" points="795.92,-30.25 794.27,-19.78 789.04,-28.99 795.92,-30.25"/>
</g>
<!-- Node18&#45;&gt;Node19 -->
<g id="edge28" class="edge">
<title>Node18&#45;&gt;Node19</title>
<path fill="none" stroke="midnightblue" d="M760.39,-117.98C743.89,-108.25 716.69,-92.23 697.18,-80.74"/>
<polygon fill="midnightblue" stroke="midnightblue" points="698.7,-77.57 688.31,-75.51 695.15,-83.6 698.7,-77.57"/>
</g>
<!-- Node20&#45;&gt;Node4 -->
<g id="edge30" class="edge">
<title>Node20&#45;&gt;Node4</title>
<path fill="none" stroke="midnightblue" d="M100.49,-117.99C70.33,-105.32 22.81,-80.36 44.86,-56 71.92,-26.12 365.88,-25.15 405.86,-20 413.97,-18.96 422.7,-17.66 430.82,-16.39"/>
<polygon fill="midnightblue" stroke="midnightblue" points="431.39,-19.84 440.71,-14.8 430.28,-12.93 431.39,-19.84"/>
</g>
<!-- Node20&#45;&gt;Node6 -->
<g id="edge32" class="edge">
<title>Node20&#45;&gt;Node6</title>
<path fill="none" stroke="midnightblue" d="M111.51,-117.85C94.18,-103.65 64.95,-75.08 82.86,-56 103.57,-33.94 506.97,-19.37 697.63,-13.68"/>
<polygon fill="midnightblue" stroke="midnightblue" points="697.76,-17.18 707.65,-13.38 697.55,-10.18 697.76,-17.18"/>
</g>
<!-- Node20&#45;&gt;Node8 -->
<g id="edge34" class="edge">
<title>Node20&#45;&gt;Node8</title>
<path fill="none" stroke="midnightblue" d="M118.25,-117.74C111.11,-102.86 99.81,-72.64 115.86,-56 136.72,-34.38 1052.26,-16.63 1306.17,-12.11"/>
<polygon fill="midnightblue" stroke="midnightblue" points="1306.41,-15.61 1316.34,-11.93 1306.28,-8.61 1306.41,-15.61"/>
</g>
<!-- Node20&#45;&gt;Node16 -->
<g id="edge33" class="edge">
<title>Node20&#45;&gt;Node16</title>
<path fill="none" stroke="midnightblue" d="M175.16,-117.98C241.29,-107.19 355.03,-88.65 425.58,-77.15"/>
<polygon fill="midnightblue" stroke="midnightblue" points="426.36,-80.57 435.67,-75.51 425.23,-73.66 426.36,-80.57"/>
</g>
<!-- Node20&#45;&gt;Node17 -->
<g id="edge35" class="edge">
<title>Node20&#45;&gt;Node17</title>
<path fill="none" stroke="midnightblue" d="M82.68,-117.98C39.57,-107.08 -19.39,-85.95 6.86,-56 25.13,-35.17 196.05,-20.9 288.74,-14.62"/>
<polygon fill="midnightblue" stroke="midnightblue" points="289.08,-18.1 298.83,-13.94 288.62,-11.12 289.08,-18.1"/>
</g>
<!-- Node21 -->
<g id="node21" class="node">
<title>Node21</title>
<g id="a_node21"><a xlink:title=" ">
<polygon fill="white" stroke="#bfbfbf" points="125.36,-56.5 125.36,-75.5 170.36,-75.5 170.36,-56.5 125.36,-56.5"/>
<text text-anchor="middle" x="147.86" y="-63.5" font-family="Helvetica,sans-Serif" font-size="10.00">utility</text>
</a>
</g>
</g>
<!-- Node20&#45;&gt;Node21 -->
<g id="edge31" class="edge">
<title>Node20&#45;&gt;Node21</title>
<path fill="none" stroke="midnightblue" d="M126.45,-117.98C130.05,-109.4 135.71,-95.93 140.31,-84.98"/>
<polygon fill="midnightblue" stroke="midnightblue" points="143.64,-86.08 144.29,-75.51 137.19,-83.37 143.64,-86.08"/>
</g>
<!-- Node22 -->
<g id="node22" class="node">
<title>Node22</title>
<g id="a_node22"><a xlink:title=" ">
<polygon fill="white" stroke="#bfbfbf" points="188.36,-56.5 188.36,-75.5 319.36,-75.5 319.36,-56.5 188.36,-56.5"/>
<text text-anchor="middle" x="253.86" y="-63.5" font-family="Helvetica,sans-Serif" font-size="10.00">AMReX_PhysBCFunct.H</text>
</a>
</g>
</g>
<!-- Node20&#45;&gt;Node22 -->
<g id="edge36" class="edge">
<title>Node20&#45;&gt;Node22</title>
<path fill="none" stroke="midnightblue" d="M141.63,-117.98C163.72,-107.95 200.58,-91.2 226,-79.65"/>
<polygon fill="midnightblue" stroke="midnightblue" points="227.47,-82.83 235.13,-75.51 224.58,-76.46 227.47,-82.83"/>
</g>
<!-- Node23&#45;&gt;Node4 -->
<g id="edge38" class="edge">
<title>Node23&#45;&gt;Node4</title>
<path fill="none" stroke="midnightblue" d="M410.99,-112.31C403.94,-97.56 395.97,-74.15 404.86,-56 411.39,-42.68 423.96,-32.18 435.74,-24.68"/>
<polygon fill="midnightblue" stroke="midnightblue" points="437.64,-27.62 444.48,-19.53 434.08,-21.59 437.64,-27.62"/>
</g>
<!-- Node23&#45;&gt;Node6 -->
<g id="edge40" class="edge">
<title>Node23&#45;&gt;Node6</title>
<path fill="none" stroke="midnightblue" d="M467.88,-112.45C498.04,-103.26 537.22,-90.33 570.86,-76 588.42,-68.52 591.01,-62.73 608.86,-56 649.99,-40.5 698.27,-29.05 735.46,-21.57"/>
<polygon fill="midnightblue" stroke="midnightblue" points="736.51,-24.93 745.64,-19.57 735.16,-18.06 736.51,-24.93"/>
</g>
<!-- Node23&#45;&gt;Node16 -->
<g id="edge41" class="edge">
<title>Node23&#45;&gt;Node16</title>
<path fill="none" stroke="midnightblue" d="M435.22,-112.4C445.76,-103.31 459.46,-91.49 470.25,-82.19"/>
<polygon fill="midnightblue" stroke="midnightblue" points="472.54,-84.84 477.82,-75.66 467.97,-79.54 472.54,-84.84"/>
</g>
<!-- Node23&#45;&gt;Node17 -->
<g id="edge43" class="edge">
<title>Node23&#45;&gt;Node17</title>
<path fill="none" stroke="midnightblue" d="M410.16,-112.34C397.13,-91.15 372.6,-51.24 358.52,-28.34"/>
<polygon fill="midnightblue" stroke="midnightblue" points="361.41,-26.36 353.19,-19.67 355.45,-30.02 361.41,-26.36"/>
</g>
<!-- Node23&#45;&gt;Node19 -->
<g id="edge42" class="edge">
<title>Node23&#45;&gt;Node19</title>
<path fill="none" stroke="midnightblue" d="M478.97,-112.47C524.41,-101.87 585.86,-87.53 627.53,-77.81"/>
<polygon fill="midnightblue" stroke="midnightblue" points="628.47,-81.19 637.41,-75.51 626.88,-74.37 628.47,-81.19"/>
</g>
<!-- Node23&#45;&gt;Node21 -->
<g id="edge39" class="edge">
<title>Node23&#45;&gt;Node21</title>
<path fill="none" stroke="midnightblue" d="M349.23,-113.29C303.6,-104.29 242.46,-91.62 180.45,-76.27"/>
<polygon fill="midnightblue" stroke="midnightblue" points="181.05,-72.81 170.5,-73.78 179.35,-79.6 181.05,-72.81"/>
</g>
<!-- Node23&#45;&gt;Node22 -->
<g id="edge44" class="edge">
<title>Node23&#45;&gt;Node22</title>
<path fill="none" stroke="midnightblue" d="M379.76,-112.4C351.71,-102.28 314.29,-88.79 287.56,-79.15"/>
<polygon fill="midnightblue" stroke="midnightblue" points="288.47,-75.76 277.87,-75.66 286.09,-82.34 288.47,-75.76"/>
</g>
<!-- Node25&#45;&gt;Node13 -->
<g id="edge53" class="edge">
<title>Node25&#45;&gt;Node13</title>
<path fill="none" stroke="midnightblue" d="M1673.48,-246.43C1693.88,-238.09 1717.85,-225.99 1735.86,-210 1771.43,-178.42 1808.14,-149.49 1778.86,-112 1771.08,-102.02 1705,-87.34 1655.15,-77.48"/>
<polygon fill="midnightblue" stroke="midnightblue" points="1655.58,-74 1645.1,-75.52 1654.24,-80.87 1655.58,-74"/>
</g>
<!-- Node26 -->
<g id="node26" class="node">
<title>Node26</title>
<g id="a_node26"><a xlink:href="volume__fractions_8_h.html" target="_top" xlink:title=" ">
<polygon fill="white" stroke="black" points="1554.36,-179.5 1554.36,-209.5 1709.36,-209.5 1709.36,-179.5 1554.36,-179.5"/>
<text text-anchor="start" x="1562.36" y="-197.5" font-family="Helvetica,sans-Serif" font-size="10.00">amr&#45;wind/equation_systems</text>
<text text-anchor="middle" x="1631.86" y="-186.5" font-family="Helvetica,sans-Serif" font-size="10.00">/vof/volume_fractions.H</text>
</a>
</g>
</g>
<!-- Node25&#45;&gt;Node26 -->
<g id="edge49" class="edge">
<title>Node25&#45;&gt;Node26</title>
<path fill="none" stroke="midnightblue" d="M1631.86,-246.4C1631.86,-238.64 1631.86,-228.81 1631.86,-219.86"/>
<polygon fill="midnightblue" stroke="midnightblue" points="1635.36,-219.58 1631.86,-209.58 1628.36,-219.58 1635.36,-219.58"/>
</g>
<!-- Node27 -->
<g id="node27" class="node">
<title>Node27</title>
<g id="a_node27"><a xlink:title=" ">
<polygon fill="white" stroke="#bfbfbf" points="1652.36,-118 1652.36,-137 1769.36,-137 1769.36,-118 1652.36,-118"/>
<text text-anchor="middle" x="1710.86" y="-125" font-family="Helvetica,sans-Serif" font-size="10.00">AMReX_FArrayBox.H</text>
</a>
</g>
</g>
<!-- Node25&#45;&gt;Node27 -->
<g id="edge52" class="edge">
<title>Node25&#45;&gt;Node27</title>
<path fill="none" stroke="midnightblue" d="M1674.19,-246.3C1690.88,-238.39 1708.32,-226.68 1717.86,-210 1729.02,-190.51 1723.72,-163.99 1718.04,-146.57"/>
<polygon fill="midnightblue" stroke="midnightblue" points="1721.29,-145.26 1714.6,-137.04 1714.7,-147.64 1721.29,-145.26"/>
</g>
<!-- Node28 -->
<g id="node28" class="node">
<title>Node28</title>
<g id="a_node28"><a xlink:title=" ">
<polygon fill="white" stroke="#bfbfbf" points="1587.36,-118 1587.36,-137 1634.36,-137 1634.36,-118 1587.36,-118"/>
<text text-anchor="middle" x="1610.86" y="-125" font-family="Helvetica,sans-Serif" font-size="10.00">cmath</text>
</a>
</g>
</g>
<!-- Node25&#45;&gt;Node28 -->
<g id="edge54" class="edge">
<title>Node25&#45;&gt;Node28</title>
<path fill="none" stroke="midnightblue" d="M1589.06,-246.42C1572.18,-238.52 1554.54,-226.8 1544.86,-210 1537.99,-198.06 1538.76,-191.35 1544.86,-179 1552.78,-162.98 1568.49,-150.64 1582.59,-142.17"/>
<polygon fill="midnightblue" stroke="midnightblue" points="1584.52,-145.1 1591.53,-137.16 1581.1,-138.99 1584.52,-145.1"/>
</g>
<!-- Node26&#45;&gt;Node27 -->
<g id="edge50" class="edge">
<title>Node26&#45;&gt;Node27</title>
<path fill="none" stroke="midnightblue" d="M1649.01,-179.4C1661.81,-168.86 1679.29,-154.48 1692.4,-143.69"/>
<polygon fill="midnightblue" stroke="midnightblue" points="1694.8,-146.25 1700.3,-137.19 1690.35,-140.85 1694.8,-146.25"/>
</g>
<!-- Node26&#45;&gt;Node28 -->
<g id="edge51" class="edge">
<title>Node26&#45;&gt;Node28</title>
<path fill="none" stroke="midnightblue" d="M1627.31,-179.4C1624.23,-169.86 1620.13,-157.18 1616.8,-146.86"/>
<polygon fill="midnightblue" stroke="midnightblue" points="1620.08,-145.63 1613.67,-137.19 1613.42,-147.79 1620.08,-145.63"/>
</g>
</g>
</svg>
        <g id="navigator" transform="translate(0 0)" fill="#404254">
                <rect fill="#f2f5e9" fill-opacity="0.5" stroke="#606060" stroke-width=".5" x="0" y="0" width="60" height="60"/>
                <use id="zoomplus" xlink:href="#zoomPlus" x="17" y="9" onmousedown="handleZoom(evt,'in')"/>
                <use id="zoomminus" xlink:href="#zoomMin" x="42" y="9" onmousedown="handleZoom(evt,'out')"/>
                <use id="reset" xlink:href="#resetDef" x="30" y="36" onmousedown="handleReset()"/>
                <g id="arrowUp" xlink:href="#dirArrow" transform="translate(30 24)" onmousedown="handlePan(0,-1)">
                  <use xlink:href="#rim" fill="#404040">
                        <set attributeName="fill" to="#808080" begin="arrowUp.mouseover" end="arrowUp.mouseout"/>
                  </use>
                  <path fill="none" stroke="white" stroke-width="1.5" d="M0,-3.0v7 M-2.5,-0.5L0,-3.0L2.5,-0.5"/>
                </g>
                <g id="arrowRight" xlink:href="#dirArrow" transform="rotate(90) translate(36 -43)" onmousedown="handlePan(1,0)">
                  <use xlink:href="#rim" fill="#404040">
                        <set attributeName="fill" to="#808080" begin="arrowRight.mouseover" end="arrowRight.mouseout"/>
                  </use>
                  <path fill="none" stroke="white" stroke-width="1.5" d="M0,-3.0v7 M-2.5,-0.5L0,-3.0L2.5,-0.5"/>
                </g>
                <g id="arrowDown" xlink:href="#dirArrow" transform="rotate(180) translate(-30 -48)" onmousedown="handlePan(0,1)">
                  <use xlink:href="#rim" fill="#404040">
                        <set attributeName="fill" to="#808080" begin="arrowDown.mouseover" end="arrowDown.mouseout"/>
                  </use>
                  <path fill="none" stroke="white" stroke-width="1.5" d="M0,-3.0v7 M-2.5,-0.5L0,-3.0L2.5,-0.5"/>
                </g>
                <g id="arrowLeft" xlink:href="#dirArrow" transform="rotate(270) translate(-36 17)" onmousedown="handlePan(-1,0)">
                  <use xlink:href="#rim" fill="#404040">
                        <set attributeName="fill" to="#808080" begin="arrowLeft.mouseover" end="arrowLeft.mouseout"/>
                  </use>
                  <path fill="none" stroke="white" stroke-width="1.5" d="M0,-3.0v7 M-2.5,-0.5L0,-3.0L2.5,-0.5"/>
                </g>
        </g>
        <svg viewBox="0 0 15 15" width="100%" height="30px" preserveAspectRatio="xMaxYMin meet">
         <g id="arrow_out" transform="scale(0.3 0.3)">
          <a xlink:href="_split_advection_8cpp__incl_org.svg" target="_base">
           <rect id="button" ry="5" rx="5" y="6" x="6" height="38" width="38"
                fill="#f2f5e9" fill-opacity="0.5" stroke="#606060" stroke-width="1.0"/>
           <path id="arrow"
             d="M 11.500037,31.436501 C 11.940474,20.09759 22.043105,11.32322 32.158766,21.979434 L 37.068811,17.246167 C 37.068811,17.246167 37.088388,32 37.088388,32 L 22.160133,31.978069 C 22.160133,31.978069 26.997745,27.140456 26.997745,27.140456 C 18.528582,18.264221 13.291696,25.230495 11.500037,31.436501 z"
             style="fill:#404040;"/>
          </a>
         </g>
        </svg>
</svg>
