<?xml version="1.0" encoding="UTF-8" standalone="no"?>
<!DOCTYPE svg PUBLIC "-//W3C//DTD SVG 1.1//EN"
 "http://www.w3.org/Graphics/SVG/1.1/DTD/svg11.dtd">
<!-- Generated by graphviz version 2.43.0 (0)
 -->
<!-- Title: SynthTurbForcing.cpp Pages: 1 -->
<svg width="2866pt" height="408pt"
 viewBox="0.00 0.00 2866.26 408.00" xmlns="http://www.w3.org/2000/svg" xmlns:xlink="http://www.w3.org/1999/xlink">
<g id="graph0" class="graph" transform="scale(1 1) rotate(0) translate(4 404)">
<title>SynthTurbForcing.cpp</title>
<polygon fill="white" stroke="transparent" points="-4,4 -4,-404 2862.26,-404 2862.26,4 -4,4"/>
<!-- Node1 -->
<g id="node1" class="node">
<title>Node1</title>
<g id="a_node1"><a xlink:title=" ">
<polygon fill="#bfbfbf" stroke="black" points="1311.26,-380.5 1311.26,-399.5 1431.26,-399.5 1431.26,-380.5 1311.26,-380.5"/>
<text text-anchor="middle" x="1371.26" y="-387.5" font-family="Helvetica,sans-Serif" font-size="10.00">SynthTurbForcing.cpp</text>
</a>
</g>
</g>
<!-- Node2 -->
<g id="node2" class="node">
<title>Node2</title>
<g id="a_node2"><a xlink:href="_synth_turb_forcing_8_h.html" target="_top" xlink:title=" ">
<polygon fill="white" stroke="black" points="736.76,-313.5 736.76,-343.5 941.76,-343.5 941.76,-313.5 736.76,-313.5"/>
<text text-anchor="start" x="744.76" y="-331.5" font-family="Helvetica,sans-Serif" font-size="10.00">amr&#45;wind/equation_systems</text>
<text text-anchor="middle" x="839.26" y="-320.5" font-family="Helvetica,sans-Serif" font-size="10.00">/icns/source_terms/SynthTurbForcing.H</text>
</a>
</g>
</g>
<!-- Node1&#45;&gt;Node2 -->
<g id="edge1" class="edge">
<title>Node1&#45;&gt;Node2</title>
<path fill="none" stroke="midnightblue" d="M1311.01,-382.26C1224.09,-372.54 1061.93,-354.4 952.29,-342.14"/>
<polygon fill="midnightblue" stroke="midnightblue" points="952.5,-338.64 942.18,-341.01 951.73,-345.6 952.5,-338.64"/>
</g>
<!-- Node19 -->
<g id="node19" class="node">
<title>Node19</title>
<g id="a_node19"><a xlink:title=" ">
<polygon fill="white" stroke="#bfbfbf" points="1358.76,-56.5 1358.76,-75.5 1445.76,-75.5 1445.76,-56.5 1358.76,-56.5"/>
<text text-anchor="middle" x="1402.26" y="-63.5" font-family="Helvetica,sans-Serif" font-size="10.00">AMReX_Gpu.H</text>
</a>
</g>
</g>
<!-- Node1&#45;&gt;Node19 -->
<g id="edge73" class="edge">
<title>Node1&#45;&gt;Node19</title>
<path fill="none" stroke="midnightblue" d="M1371.26,-380.41C1371.26,-359.98 1371.26,-306.86 1371.26,-262.5 1371.26,-262.5 1371.26,-262.5 1371.26,-193.5 1371.26,-153.91 1385.76,-109.3 1394.93,-85.06"/>
<polygon fill="midnightblue" stroke="midnightblue" points="1398.2,-86.3 1398.58,-75.71 1391.68,-83.75 1398.2,-86.3"/>
</g>
<!-- Node28 -->
<g id="node28" class="node">
<title>Node28</title>
<g id="a_node28"><a xlink:href="_c_f_d_sim_8_h.html" target="_top" xlink:title=" ">
<polygon fill="white" stroke="black" points="1534.26,-252 1534.26,-271 1650.26,-271 1650.26,-252 1534.26,-252"/>
<text text-anchor="middle" x="1592.26" y="-259" font-family="Helvetica,sans-Serif" font-size="10.00">amr&#45;wind/CFDSim.H</text>
</a>
</g>
</g>
<!-- Node1&#45;&gt;Node28 -->
<g id="edge49" class="edge">
<title>Node1&#45;&gt;Node28</title>
<path fill="none" stroke="midnightblue" d="M1386.45,-380.31C1424.23,-358.68 1522.69,-302.32 1568.35,-276.18"/>
<polygon fill="midnightblue" stroke="midnightblue" points="1570.32,-279.09 1577.26,-271.09 1566.84,-273.02 1570.32,-279.09"/>
</g>
<!-- Node3 -->
<g id="node3" class="node">
<title>Node3</title>
<g id="a_node3"><a xlink:href="_momentum_source_8_h.html" target="_top" xlink:title=" ">
<polygon fill="white" stroke="black" points="392.76,-246.5 392.76,-276.5 547.76,-276.5 547.76,-246.5 392.76,-246.5"/>
<text text-anchor="start" x="400.76" y="-264.5" font-family="Helvetica,sans-Serif" font-size="10.00">amr&#45;wind/equation_systems</text>
<text text-anchor="middle" x="470.26" y="-253.5" font-family="Helvetica,sans-Serif" font-size="10.00">/icns/MomentumSource.H</text>
</a>
</g>
</g>
<!-- Node2&#45;&gt;Node3 -->
<g id="edge2" class="edge">
<title>Node2&#45;&gt;Node3</title>
<path fill="none" stroke="midnightblue" d="M759.65,-313.48C700.24,-303.01 619.11,-288.72 557.87,-277.93"/>
<polygon fill="midnightblue" stroke="midnightblue" points="558.29,-274.45 547.83,-276.16 557.07,-281.35 558.29,-274.45"/>
</g>
<!-- Node4 -->
<g id="node4" class="node">
<title>Node4</title>
<g id="a_node4"><a xlink:href="_factory_8_h.html" target="_top" xlink:title=" ">
<polygon fill="white" stroke="black" points="1603.26,-118 1603.26,-137 1737.26,-137 1737.26,-118 1603.26,-118"/>
<text text-anchor="middle" x="1670.26" y="-125" font-family="Helvetica,sans-Serif" font-size="10.00">amr&#45;wind/core/Factory.H</text>
</a>
</g>
</g>
<!-- Node3&#45;&gt;Node4 -->
<g id="edge3" class="edge">
<title>Node3&#45;&gt;Node4</title>
<path fill="none" stroke="midnightblue" d="M548.01,-252.59C726.36,-234.34 1178.63,-187.44 1556.26,-143 1568.69,-141.54 1581.87,-139.92 1594.69,-138.31"/>
<polygon fill="midnightblue" stroke="midnightblue" points="1595.39,-141.75 1604.88,-137.03 1594.52,-134.81 1595.39,-141.75"/>
</g>
<!-- Node10 -->
<g id="node10" class="node">
<title>Node10</title>
<g id="a_node10"><a xlink:href="_field_desc_types_8_h.html" target="_top" xlink:title=" ">
<polygon fill="white" stroke="black" points="376.26,-0.5 376.26,-19.5 552.26,-19.5 552.26,-0.5 376.26,-0.5"/>
<text text-anchor="middle" x="464.26" y="-7.5" font-family="Helvetica,sans-Serif" font-size="10.00">amr&#45;wind/core/FieldDescTypes.H</text>
</a>
</g>
</g>
<!-- Node3&#45;&gt;Node10 -->
<g id="edge9" class="edge">
<title>Node3&#45;&gt;Node10</title>
<path fill="none" stroke="midnightblue" d="M392.7,-257.02C273.78,-250.89 57.64,-236.24 34.26,-210 -11.27,-158.89 -11.55,-106.85 34.26,-56 56.04,-31.82 245.69,-19.75 365.75,-14.48"/>
<polygon fill="midnightblue" stroke="midnightblue" points="366.22,-17.96 376.06,-14.03 365.92,-10.97 366.22,-17.96"/>
</g>
<!-- Node11 -->
<g id="node11" class="node">
<title>Node11</title>
<g id="a_node11"><a xlink:href="_field_utils_8_h.html" target="_top" xlink:title=" ">
<polygon fill="white" stroke="black" points="97.26,-118 97.26,-137 243.26,-137 243.26,-118 97.26,-118"/>
<text text-anchor="middle" x="170.26" y="-125" font-family="Helvetica,sans-Serif" font-size="10.00">amr&#45;wind/core/FieldUtils.H</text>
</a>
</g>
</g>
<!-- Node3&#45;&gt;Node11 -->
<g id="edge10" class="edge">
<title>Node3&#45;&gt;Node11</title>
<path fill="none" stroke="midnightblue" d="M438.44,-246.5C379.83,-220.71 255.66,-166.08 199.25,-141.25"/>
<polygon fill="midnightblue" stroke="midnightblue" points="200.41,-137.94 189.84,-137.12 197.59,-144.35 200.41,-137.94"/>
</g>
<!-- Node12 -->
<g id="node12" class="node">
<title>Node12</title>
<g id="a_node12"><a xlink:title=" ">
<polygon fill="white" stroke="#bfbfbf" points="719.76,-0.5 719.76,-19.5 828.76,-19.5 828.76,-0.5 719.76,-0.5"/>
<text text-anchor="middle" x="774.26" y="-7.5" font-family="Helvetica,sans-Serif" font-size="10.00">AMReX_MultiFab.H</text>
</a>
</g>
</g>
<!-- Node3&#45;&gt;Node12 -->
<g id="edge48" class="edge">
<title>Node3&#45;&gt;Node12</title>
<path fill="none" stroke="midnightblue" d="M392.56,-247.83C291.63,-229.58 124.05,-192.58 88.26,-143 73.57,-122.64 104.19,-56.85 105.26,-56 117,-46.67 543.79,-23.18 709.45,-14.39"/>
<polygon fill="midnightblue" stroke="midnightblue" points="709.71,-17.88 719.51,-13.86 709.34,-10.89 709.71,-17.88"/>
</g>
<!-- Node14 -->
<g id="node14" class="node">
<title>Node14</title>
<g id="a_node14"><a xlink:href="_field_repo_8_h.html" target="_top" xlink:title=" ">
<polygon fill="white" stroke="black" points="586.76,-185 586.76,-204 735.76,-204 735.76,-185 586.76,-185"/>
<text text-anchor="middle" x="661.26" y="-192" font-family="Helvetica,sans-Serif" font-size="10.00">amr&#45;wind/core/FieldRepo.H</text>
</a>
</g>
</g>
<!-- Node3&#45;&gt;Node14 -->
<g id="edge14" class="edge">
<title>Node3&#45;&gt;Node14</title>
<path fill="none" stroke="midnightblue" d="M511.7,-246.4C546.11,-234.69 594.47,-218.23 626.78,-207.23"/>
<polygon fill="midnightblue" stroke="midnightblue" points="627.92,-210.54 636.26,-204.01 625.67,-203.92 627.92,-210.54"/>
</g>
<!-- Node5 -->
<g id="node5" class="node">
<title>Node5</title>
<g id="a_node5"><a xlink:title=" ">
<polygon fill="white" stroke="#bfbfbf" points="1918.26,-56.5 1918.26,-75.5 1976.26,-75.5 1976.26,-56.5 1918.26,-56.5"/>
<text text-anchor="middle" x="1947.26" y="-63.5" font-family="Helvetica,sans-Serif" font-size="10.00">memory</text>
</a>
</g>
</g>
<!-- Node4&#45;&gt;Node5 -->
<g id="edge4" class="edge">
<title>Node4&#45;&gt;Node5</title>
<path fill="none" stroke="midnightblue" d="M1712.21,-117.96C1757.93,-108.58 1833.51,-92.86 1908.18,-76.2"/>
<polygon fill="midnightblue" stroke="midnightblue" points="1909.24,-79.55 1918.23,-73.95 1907.71,-72.72 1909.24,-79.55"/>
</g>
<!-- Node6 -->
<g id="node6" class="node">
<title>Node6</title>
<g id="a_node6"><a xlink:title=" ">
<polygon fill="white" stroke="#bfbfbf" points="1540.76,-56.5 1540.76,-75.5 1633.76,-75.5 1633.76,-56.5 1540.76,-56.5"/>
<text text-anchor="middle" x="1587.26" y="-63.5" font-family="Helvetica,sans-Serif" font-size="10.00">unordered_map</text>
</a>
</g>
</g>
<!-- Node4&#45;&gt;Node6 -->
<g id="edge5" class="edge">
<title>Node4&#45;&gt;Node6</title>
<path fill="none" stroke="midnightblue" d="M1658.37,-117.98C1645.06,-108.43 1623.26,-92.81 1607.3,-81.37"/>
<polygon fill="midnightblue" stroke="midnightblue" points="1609.3,-78.49 1599.13,-75.51 1605.22,-84.18 1609.3,-78.49"/>
</g>
<!-- Node7 -->
<g id="node7" class="node">
<title>Node7</title>
<g id="a_node7"><a xlink:title=" ">
<polygon fill="white" stroke="#bfbfbf" points="1732.26,-56.5 1732.26,-75.5 1792.26,-75.5 1792.26,-56.5 1732.26,-56.5"/>
<text text-anchor="middle" x="1762.26" y="-63.5" font-family="Helvetica,sans-Serif" font-size="10.00">iostream</text>
</a>
</g>
</g>
<!-- Node4&#45;&gt;Node7 -->
<g id="edge6" class="edge">
<title>Node4&#45;&gt;Node7</title>
<path fill="none" stroke="midnightblue" d="M1683.44,-117.98C1698.34,-108.34 1722.8,-92.52 1740.53,-81.05"/>
<polygon fill="midnightblue" stroke="midnightblue" points="1742.61,-83.88 1749.1,-75.51 1738.81,-78 1742.61,-83.88"/>
</g>
<!-- Node8 -->
<g id="node8" class="node">
<title>Node8</title>
<g id="a_node8"><a xlink:title=" ">
<polygon fill="white" stroke="#bfbfbf" points="1810.26,-56.5 1810.26,-75.5 1900.26,-75.5 1900.26,-56.5 1810.26,-56.5"/>
<text text-anchor="middle" x="1855.26" y="-63.5" font-family="Helvetica,sans-Serif" font-size="10.00">AMReX_Print.H</text>
</a>
</g>
</g>
<!-- Node4&#45;&gt;Node8 -->
<g id="edge7" class="edge">
<title>Node4&#45;&gt;Node8</title>
<path fill="none" stroke="midnightblue" d="M1696.77,-117.98C1728.91,-107.64 1783.25,-90.16 1819.19,-78.6"/>
<polygon fill="midnightblue" stroke="midnightblue" points="1820.36,-81.9 1828.8,-75.51 1818.21,-75.24 1820.36,-81.9"/>
</g>
<!-- Node9 -->
<g id="node9" class="node">
<title>Node9</title>
<g id="a_node9"><a xlink:title=" ">
<polygon fill="white" stroke="#bfbfbf" points="1652.26,-56.5 1652.26,-75.5 1714.26,-75.5 1714.26,-56.5 1652.26,-56.5"/>
<text text-anchor="middle" x="1683.26" y="-63.5" font-family="Helvetica,sans-Serif" font-size="10.00">AMReX.H</text>
</a>
</g>
</g>
<!-- Node4&#45;&gt;Node9 -->
<g id="edge8" class="edge">
<title>Node4&#45;&gt;Node9</title>
<path fill="none" stroke="midnightblue" d="M1672.12,-117.98C1673.98,-109.49 1676.88,-96.2 1679.26,-85.32"/>
<polygon fill="midnightblue" stroke="midnightblue" points="1682.69,-86.03 1681.4,-75.51 1675.85,-84.53 1682.69,-86.03"/>
</g>
<!-- Node11&#45;&gt;Node10 -->
<g id="edge11" class="edge">
<title>Node11&#45;&gt;Node10</title>
<path fill="none" stroke="midnightblue" d="M152.08,-117.93C126.52,-104.77 85.21,-78.72 105.26,-56 122.34,-36.65 265.46,-23.6 365.74,-16.73"/>
<polygon fill="midnightblue" stroke="midnightblue" points="366.18,-20.21 375.92,-16.05 365.71,-13.23 366.18,-20.21"/>
</g>
<!-- Node11&#45;&gt;Node12 -->
<g id="edge12" class="edge">
<title>Node11&#45;&gt;Node12</title>
<path fill="none" stroke="midnightblue" d="M189.28,-117.95C223.78,-102.83 299.32,-71.5 366.26,-56 485.44,-28.4 628.23,-17.58 709.39,-13.45"/>
<polygon fill="midnightblue" stroke="midnightblue" points="709.64,-16.94 719.46,-12.95 709.3,-9.95 709.64,-16.94"/>
</g>
<!-- Node13 -->
<g id="node13" class="node">
<title>Node13</title>
<g id="a_node13"><a xlink:title=" ">
<polygon fill="white" stroke="#bfbfbf" points="114.26,-56.5 114.26,-75.5 238.26,-75.5 238.26,-56.5 114.26,-56.5"/>
<text text-anchor="middle" x="176.26" y="-63.5" font-family="Helvetica,sans-Serif" font-size="10.00">AMReX_Interpolater.H</text>
</a>
</g>
</g>
<!-- Node11&#45;&gt;Node13 -->
<g id="edge13" class="edge">
<title>Node11&#45;&gt;Node13</title>
<path fill="none" stroke="midnightblue" d="M171.12,-117.98C171.97,-109.58 173.29,-96.48 174.38,-85.66"/>
<polygon fill="midnightblue" stroke="midnightblue" points="177.88,-85.81 175.4,-75.51 170.92,-85.11 177.88,-85.81"/>
</g>
<!-- Node14&#45;&gt;Node6 -->
<g id="edge16" class="edge">
<title>Node14&#45;&gt;Node6</title>
<path fill="none" stroke="midnightblue" d="M735.77,-190.76C888.54,-184.69 1232.53,-168.6 1347.26,-143 1384.88,-134.61 1391.68,-124.15 1428.26,-112 1466.95,-99.15 1511.69,-86.7 1543.83,-78.16"/>
<polygon fill="midnightblue" stroke="midnightblue" points="1545.03,-81.47 1553.8,-75.53 1543.24,-74.7 1545.03,-81.47"/>
</g>
<!-- Node14&#45;&gt;Node10 -->
<g id="edge17" class="edge">
<title>Node14&#45;&gt;Node10</title>
<path fill="none" stroke="midnightblue" d="M586.5,-193.69C494.5,-192.14 346.13,-183.26 311.26,-143 267.84,-92.86 372,-44.79 429.44,-23.07"/>
<polygon fill="midnightblue" stroke="midnightblue" points="430.74,-26.32 438.91,-19.57 428.31,-19.76 430.74,-26.32"/>
</g>
<!-- Node14&#45;&gt;Node11 -->
<g id="edge18" class="edge">
<title>Node14&#45;&gt;Node11</title>
<path fill="none" stroke="midnightblue" d="M586.68,-185.1C505.51,-175.74 371.97,-159.72 257.26,-143 248.25,-141.69 238.73,-140.2 229.42,-138.69"/>
<polygon fill="midnightblue" stroke="midnightblue" points="229.87,-135.22 219.44,-137.06 228.74,-142.13 229.87,-135.22"/>
</g>
<!-- Node14&#45;&gt;Node12 -->
<g id="edge46" class="edge">
<title>Node14&#45;&gt;Node12</title>
<path fill="none" stroke="midnightblue" d="M652.32,-184.97C629.43,-162.1 572.75,-98.3 605.26,-56 618.19,-39.17 667.4,-27.31 709.4,-20"/>
<polygon fill="midnightblue" stroke="midnightblue" points="710.06,-23.44 719.34,-18.33 708.9,-16.53 710.06,-23.44"/>
</g>
<!-- Node15 -->
<g id="node15" class="node">
<title>Node15</title>
<g id="a_node15"><a xlink:title=" ">
<polygon fill="white" stroke="#bfbfbf" points="1308.26,-0.5 1308.26,-19.5 1352.26,-19.5 1352.26,-0.5 1308.26,-0.5"/>
<text text-anchor="middle" x="1330.26" y="-7.5" font-family="Helvetica,sans-Serif" font-size="10.00">string</text>
</a>
</g>
</g>
<!-- Node14&#45;&gt;Node15 -->
<g id="edge15" class="edge">
<title>Node14&#45;&gt;Node15</title>
<path fill="none" stroke="midnightblue" d="M735.83,-193.89C884.54,-193.68 1212.45,-187.94 1314.26,-143 1332.67,-134.87 1329.98,-122.31 1347.26,-112 1390.71,-86.08 1425.68,-117.05 1455.26,-76 1481.27,-39.92 1407.26,-22.3 1362.2,-15.12"/>
<polygon fill="midnightblue" stroke="midnightblue" points="1362.67,-11.65 1352.26,-13.63 1361.63,-18.57 1362.67,-11.65"/>
</g>
<!-- Node16 -->
<g id="node16" class="node">
<title>Node16</title>
<g id="a_node16"><a xlink:href="_field_8_h.html" target="_top" xlink:title=" ">
<polygon fill="white" stroke="black" points="1181.26,-118 1181.26,-137 1305.26,-137 1305.26,-118 1181.26,-118"/>
<text text-anchor="middle" x="1243.26" y="-125" font-family="Helvetica,sans-Serif" font-size="10.00">amr&#45;wind/core/Field.H</text>
</a>
</g>
</g>
<!-- Node14&#45;&gt;Node16 -->
<g id="edge19" class="edge">
<title>Node14&#45;&gt;Node16</title>
<path fill="none" stroke="midnightblue" d="M735.86,-185.17C848.29,-172.61 1059.81,-148.99 1170.91,-136.58"/>
<polygon fill="midnightblue" stroke="midnightblue" points="1171.46,-140.04 1181.01,-135.45 1170.69,-133.08 1171.46,-140.04"/>
</g>
<!-- Node23 -->
<g id="node23" class="node">
<title>Node23</title>
<g id="a_node23"><a xlink:href="_int_field_8_h.html" target="_top" xlink:title=" ">
<polygon fill="white" stroke="black" points="320.76,-118 320.76,-137 457.76,-137 457.76,-118 320.76,-118"/>
<text text-anchor="middle" x="389.26" y="-125" font-family="Helvetica,sans-Serif" font-size="10.00">amr&#45;wind/core/IntField.H</text>
</a>
</g>
</g>
<!-- Node14&#45;&gt;Node23 -->
<g id="edge34" class="edge">
<title>Node14&#45;&gt;Node23</title>
<path fill="none" stroke="midnightblue" d="M625.42,-184.94C576.5,-173.24 488.77,-152.28 435.11,-139.46"/>
<polygon fill="midnightblue" stroke="midnightblue" points="435.72,-136 425.18,-137.08 434.09,-142.81 435.72,-136"/>
</g>
<!-- Node24 -->
<g id="node24" class="node">
<title>Node24</title>
<g id="a_node24"><a xlink:title=" ">
<polygon fill="white" stroke="#bfbfbf" points="408.26,-56.5 408.26,-75.5 520.26,-75.5 520.26,-56.5 408.26,-56.5"/>
<text text-anchor="middle" x="464.26" y="-63.5" font-family="Helvetica,sans-Serif" font-size="10.00">AMReX_iMultiFab.H</text>
</a>
</g>
</g>
<!-- Node14&#45;&gt;Node24 -->
<g id="edge47" class="edge">
<title>Node14&#45;&gt;Node24</title>
<path fill="none" stroke="midnightblue" d="M628.78,-184.99C601.89,-176.95 563.49,-163.1 534.26,-143 510.57,-126.7 489.1,-101.01 476.36,-84.09"/>
<polygon fill="midnightblue" stroke="midnightblue" points="478.95,-81.7 470.22,-75.7 473.3,-85.84 478.95,-81.7"/>
</g>
<!-- Node25 -->
<g id="node25" class="node">
<title>Node25</title>
<g id="a_node25"><a xlink:href="_scratch_field_8_h.html" target="_top" xlink:title=" ">
<polygon fill="white" stroke="black" points="694.26,-118 694.26,-137 854.26,-137 854.26,-118 694.26,-118"/>
<text text-anchor="middle" x="774.26" y="-125" font-family="Helvetica,sans-Serif" font-size="10.00">amr&#45;wind/core/ScratchField.H</text>
</a>
</g>
</g>
<!-- Node14&#45;&gt;Node25 -->
<g id="edge38" class="edge">
<title>Node14&#45;&gt;Node25</title>
<path fill="none" stroke="midnightblue" d="M676.5,-184.73C695.48,-173.82 728.11,-155.05 750.41,-142.22"/>
<polygon fill="midnightblue" stroke="midnightblue" points="752.34,-145.15 759.26,-137.13 748.85,-139.08 752.34,-145.15"/>
</g>
<!-- Node27 -->
<g id="node27" class="node">
<title>Node27</title>
<g id="a_node27"><a xlink:title=" ">
<polygon fill="white" stroke="#bfbfbf" points="1437.26,-118 1437.26,-137 1547.26,-137 1547.26,-118 1437.26,-118"/>
<text text-anchor="middle" x="1492.26" y="-125" font-family="Helvetica,sans-Serif" font-size="10.00">AMReX_AmrCore.H</text>
</a>
</g>
</g>
<!-- Node14&#45;&gt;Node27 -->
<g id="edge45" class="edge">
<title>Node14&#45;&gt;Node27</title>
<path fill="none" stroke="midnightblue" d="M735.98,-192.04C872.87,-188.59 1172.88,-177.43 1423.26,-143 1430.76,-141.97 1438.67,-140.59 1446.35,-139.09"/>
<polygon fill="midnightblue" stroke="midnightblue" points="1447.16,-142.49 1456.26,-137.07 1445.76,-135.64 1447.16,-142.49"/>
</g>
<!-- Node16&#45;&gt;Node5 -->
<g id="edge21" class="edge">
<title>Node16&#45;&gt;Node5</title>
<path fill="none" stroke="midnightblue" d="M1305.34,-121.58C1341.26,-118.75 1387.3,-115.14 1428.26,-112 1638.77,-95.87 1695.7,-108.41 1907.99,-75.97"/>
<polygon fill="midnightblue" stroke="midnightblue" points="1908.54,-79.42 1917.89,-74.44 1907.48,-72.51 1908.54,-79.42"/>
</g>
<!-- Node16&#45;&gt;Node6 -->
<g id="edge22" class="edge">
<title>Node16&#45;&gt;Node6</title>
<path fill="none" stroke="midnightblue" d="M1292.55,-117.98C1355.54,-107.08 1464.37,-88.26 1530.68,-76.79"/>
<polygon fill="midnightblue" stroke="midnightblue" points="1531.29,-80.23 1540.55,-75.08 1530.1,-73.34 1531.29,-80.23"/>
</g>
<!-- Node16&#45;&gt;Node10 -->
<g id="edge28" class="edge">
<title>Node16&#45;&gt;Node10</title>
<path fill="none" stroke="midnightblue" d="M1181.09,-121.46C1100.09,-114.3 954.26,-99.41 831.26,-76 796.53,-69.39 788.88,-63.16 754.26,-56 682.69,-41.19 600.27,-28.85 541.63,-20.86"/>
<polygon fill="midnightblue" stroke="midnightblue" points="542.08,-17.39 531.7,-19.52 541.14,-24.32 542.08,-17.39"/>
</g>
<!-- Node16&#45;&gt;Node12 -->
<g id="edge24" class="edge">
<title>Node16&#45;&gt;Node12</title>
<path fill="none" stroke="midnightblue" d="M1216.15,-117.96C1171.03,-103.92 1077.54,-75.57 997.26,-56 941.61,-42.43 877.44,-29.8 832.27,-21.39"/>
<polygon fill="midnightblue" stroke="midnightblue" points="832.83,-17.93 822.36,-19.56 831.55,-24.82 832.83,-17.93"/>
</g>
<!-- Node16&#45;&gt;Node15 -->
<g id="edge20" class="edge">
<title>Node16&#45;&gt;Node15</title>
<path fill="none" stroke="midnightblue" d="M1259.97,-117.92C1275.19,-109.29 1297.21,-94.6 1310.26,-76 1319.9,-62.26 1325,-43.73 1327.63,-29.97"/>
<polygon fill="midnightblue" stroke="midnightblue" points="1331.15,-30.18 1329.31,-19.74 1324.24,-29.05 1331.15,-30.18"/>
</g>
<!-- Node17 -->
<g id="node17" class="node">
<title>Node17</title>
<g id="a_node17"><a xlink:title=" ">
<polygon fill="white" stroke="#bfbfbf" points="1120.26,-56.5 1120.26,-75.5 1184.26,-75.5 1184.26,-56.5 1120.26,-56.5"/>
<text text-anchor="middle" x="1152.26" y="-63.5" font-family="Helvetica,sans-Serif" font-size="10.00">algorithm</text>
</a>
</g>
</g>
<!-- Node16&#45;&gt;Node17 -->
<g id="edge23" class="edge">
<title>Node16&#45;&gt;Node17</title>
<path fill="none" stroke="midnightblue" d="M1230.22,-117.98C1215.49,-108.34 1191.29,-92.52 1173.75,-81.05"/>
<polygon fill="midnightblue" stroke="midnightblue" points="1175.56,-78.05 1165.27,-75.51 1171.73,-83.91 1175.56,-78.05"/>
</g>
<!-- Node18 -->
<g id="node18" class="node">
<title>Node18</title>
<g id="a_node18"><a xlink:title=" ">
<polygon fill="white" stroke="#bfbfbf" points="1202.76,-56.5 1202.76,-75.5 1301.76,-75.5 1301.76,-56.5 1202.76,-56.5"/>
<text text-anchor="middle" x="1252.26" y="-63.5" font-family="Helvetica,sans-Serif" font-size="10.00">AMReX_BCRec.H</text>
</a>
</g>
</g>
<!-- Node16&#45;&gt;Node18 -->
<g id="edge25" class="edge">
<title>Node16&#45;&gt;Node18</title>
<path fill="none" stroke="midnightblue" d="M1244.55,-117.98C1245.82,-109.58 1247.8,-96.48 1249.44,-85.66"/>
<polygon fill="midnightblue" stroke="midnightblue" points="1252.94,-85.92 1250.97,-75.51 1246.02,-84.87 1252.94,-85.92"/>
</g>
<!-- Node16&#45;&gt;Node19 -->
<g id="edge26" class="edge">
<title>Node16&#45;&gt;Node19</title>
<path fill="none" stroke="midnightblue" d="M1266.04,-117.98C1293.32,-107.77 1339.17,-90.61 1370.06,-79.05"/>
<polygon fill="midnightblue" stroke="midnightblue" points="1371.38,-82.29 1379.52,-75.51 1368.93,-75.74 1371.38,-82.29"/>
</g>
<!-- Node20 -->
<g id="node20" class="node">
<title>Node20</title>
<g id="a_node20"><a xlink:href="incflo__enums_8_h.html" target="_top" xlink:title=" ">
<polygon fill="white" stroke="black" points="2070.76,-56.5 2070.76,-75.5 2211.76,-75.5 2211.76,-56.5 2070.76,-56.5"/>
<text text-anchor="middle" x="2141.26" y="-63.5" font-family="Helvetica,sans-Serif" font-size="10.00">amr&#45;wind/incflo_enums.H</text>
</a>
</g>
</g>
<!-- Node16&#45;&gt;Node20 -->
<g id="edge27" class="edge">
<title>Node16&#45;&gt;Node20</title>
<path fill="none" stroke="midnightblue" d="M1305.33,-121.4C1341.24,-118.51 1387.29,-114.9 1428.26,-112 1657.51,-95.78 1928.44,-79.47 2060.61,-71.69"/>
<polygon fill="midnightblue" stroke="midnightblue" points="2060.87,-75.18 2070.65,-71.1 2060.46,-68.19 2060.87,-75.18"/>
</g>
<!-- Node21 -->
<g id="node21" class="node">
<title>Node21</title>
<g id="a_node21"><a xlink:href="_view_field_8_h.html" target="_top" xlink:title=" ">
<polygon fill="white" stroke="black" points="840.26,-56.5 840.26,-75.5 988.26,-75.5 988.26,-56.5 840.26,-56.5"/>
<text text-anchor="middle" x="914.26" y="-63.5" font-family="Helvetica,sans-Serif" font-size="10.00">amr&#45;wind/core/ViewField.H</text>
</a>
</g>
</g>
<!-- Node16&#45;&gt;Node21 -->
<g id="edge29" class="edge">
<title>Node16&#45;&gt;Node21</title>
<path fill="none" stroke="midnightblue" d="M1196.12,-117.98C1136.76,-107.24 1034.84,-88.81 971.19,-77.29"/>
<polygon fill="midnightblue" stroke="midnightblue" points="971.77,-73.84 961.31,-75.51 970.53,-80.73 971.77,-73.84"/>
</g>
<!-- Node21&#45;&gt;Node10 -->
<g id="edge31" class="edge">
<title>Node21&#45;&gt;Node10</title>
<path fill="none" stroke="midnightblue" d="M842.96,-56.44C761.99,-46.73 630.15,-30.91 545.33,-20.73"/>
<polygon fill="midnightblue" stroke="midnightblue" points="545.58,-17.23 535.23,-19.52 544.74,-24.18 545.58,-17.23"/>
</g>
<!-- Node21&#45;&gt;Node12 -->
<g id="edge32" class="edge">
<title>Node21&#45;&gt;Node12</title>
<path fill="none" stroke="midnightblue" d="M892.08,-56.44C868.83,-47.48 832.11,-33.31 805.85,-23.18"/>
<polygon fill="midnightblue" stroke="midnightblue" points="806.93,-19.85 796.34,-19.52 804.41,-26.38 806.93,-19.85"/>
</g>
<!-- Node21&#45;&gt;Node15 -->
<g id="edge30" class="edge">
<title>Node21&#45;&gt;Node15</title>
<path fill="none" stroke="midnightblue" d="M980.18,-56.44C1070.64,-44.7 1229.8,-24.04 1297.88,-15.2"/>
<polygon fill="midnightblue" stroke="midnightblue" points="1298.54,-18.65 1308,-13.89 1297.64,-11.71 1298.54,-18.65"/>
</g>
<!-- Node22 -->
<g id="node22" class="node">
<title>Node22</title>
<g id="a_node22"><a xlink:title=" ">
<polygon fill="white" stroke="#bfbfbf" points="1005.26,-0.5 1005.26,-19.5 1103.26,-19.5 1103.26,-0.5 1005.26,-0.5"/>
<text text-anchor="middle" x="1054.26" y="-7.5" font-family="Helvetica,sans-Serif" font-size="10.00">AMReX_Vector.H</text>
</a>
</g>
</g>
<!-- Node21&#45;&gt;Node22 -->
<g id="edge33" class="edge">
<title>Node21&#45;&gt;Node22</title>
<path fill="none" stroke="midnightblue" d="M936.44,-56.44C959.69,-47.48 996.41,-33.31 1022.68,-23.18"/>
<polygon fill="midnightblue" stroke="midnightblue" points="1024.11,-26.38 1032.18,-19.52 1021.59,-19.85 1024.11,-26.38"/>
</g>
<!-- Node23&#45;&gt;Node10 -->
<g id="edge36" class="edge">
<title>Node23&#45;&gt;Node10</title>
<path fill="none" stroke="midnightblue" d="M381.79,-117.64C370.95,-103.64 353.47,-75.94 366.26,-56 376.53,-39.98 394.11,-29.58 411.56,-22.87"/>
<polygon fill="midnightblue" stroke="midnightblue" points="412.9,-26.11 421.19,-19.51 410.6,-19.5 412.9,-26.11"/>
</g>
<!-- Node23&#45;&gt;Node15 -->
<g id="edge35" class="edge">
<title>Node23&#45;&gt;Node15</title>
<path fill="none" stroke="midnightblue" d="M387.37,-117.53C384.74,-102.34 382.08,-71.66 399.26,-56 403.5,-52.13 1132.45,-19.73 1297.36,-12.45"/>
<polygon fill="midnightblue" stroke="midnightblue" points="1297.98,-15.93 1307.82,-11.99 1297.68,-8.93 1297.98,-15.93"/>
</g>
<!-- Node23&#45;&gt;Node24 -->
<g id="edge37" class="edge">
<title>Node23&#45;&gt;Node24</title>
<path fill="none" stroke="midnightblue" d="M400.01,-117.98C411.81,-108.61 431,-93.38 445.34,-82.01"/>
<polygon fill="midnightblue" stroke="midnightblue" points="447.88,-84.47 453.53,-75.51 443.53,-78.98 447.88,-84.47"/>
</g>
<!-- Node25&#45;&gt;Node10 -->
<g id="edge40" class="edge">
<title>Node25&#45;&gt;Node10</title>
<path fill="none" stroke="midnightblue" d="M740.77,-118C706.33,-108.9 651.38,-93.42 605.26,-76 563.98,-60.41 517.84,-38.18 489.93,-24.18"/>
<polygon fill="midnightblue" stroke="midnightblue" points="491.36,-20.98 480.86,-19.59 488.21,-27.22 491.36,-20.98"/>
</g>
<!-- Node25&#45;&gt;Node12 -->
<g id="edge42" class="edge">
<title>Node25&#45;&gt;Node12</title>
<path fill="none" stroke="midnightblue" d="M774.26,-117.82C774.26,-99.26 774.26,-55.34 774.26,-29.97"/>
<polygon fill="midnightblue" stroke="midnightblue" points="777.76,-29.78 774.26,-19.78 770.76,-29.78 777.76,-29.78"/>
</g>
<!-- Node25&#45;&gt;Node15 -->
<g id="edge39" class="edge">
<title>Node25&#45;&gt;Node15</title>
<path fill="none" stroke="midnightblue" d="M817.96,-117.96C867.73,-108.16 951.46,-91.44 1023.26,-76 1062.47,-67.57 1072.06,-64.48 1111.26,-56 1177.68,-41.63 1255.67,-25.87 1298.35,-17.34"/>
<polygon fill="midnightblue" stroke="midnightblue" points="1299.04,-20.77 1308.16,-15.38 1297.67,-13.91 1299.04,-20.77"/>
</g>
<!-- Node25&#45;&gt;Node21 -->
<g id="edge41" class="edge">
<title>Node25&#45;&gt;Node21</title>
<path fill="none" stroke="midnightblue" d="M794.32,-117.98C818.02,-107.9 857.67,-91.05 884.84,-79.5"/>
<polygon fill="midnightblue" stroke="midnightblue" points="886.4,-82.64 894.24,-75.51 883.67,-76.2 886.4,-82.64"/>
</g>
<!-- Node25&#45;&gt;Node22 -->
<g id="edge43" class="edge">
<title>Node25&#45;&gt;Node22</title>
<path fill="none" stroke="midnightblue" d="M854.33,-120.56C898.93,-114.36 954.02,-101.73 997.26,-76 1016.94,-64.29 1033.41,-43.45 1043.5,-28.52"/>
<polygon fill="midnightblue" stroke="midnightblue" points="1046.7,-30.02 1049.19,-19.72 1040.82,-26.22 1046.7,-30.02"/>
</g>
<!-- Node26 -->
<g id="node26" class="node">
<title>Node26</title>
<g id="a_node26"><a xlink:title=" ">
<polygon fill="white" stroke="#bfbfbf" points="614.76,-56.5 614.76,-75.5 745.76,-75.5 745.76,-56.5 614.76,-56.5"/>
<text text-anchor="middle" x="680.26" y="-63.5" font-family="Helvetica,sans-Serif" font-size="10.00">AMReX_PhysBCFunct.H</text>
</a>
</g>
</g>
<!-- Node25&#45;&gt;Node26 -->
<g id="edge44" class="edge">
<title>Node25&#45;&gt;Node26</title>
<path fill="none" stroke="midnightblue" d="M760.79,-117.98C745.58,-108.34 720.57,-92.52 702.46,-81.05"/>
<polygon fill="midnightblue" stroke="midnightblue" points="704.02,-77.9 693.7,-75.51 700.28,-83.81 704.02,-77.9"/>
</g>
<!-- Node28&#45;&gt;Node14 -->
<g id="edge55" class="edge">
<title>Node28&#45;&gt;Node14</title>
<path fill="none" stroke="midnightblue" d="M1534.02,-256.43C1374.93,-245.33 932.45,-214.43 745.91,-201.41"/>
<polygon fill="midnightblue" stroke="midnightblue" points="746.1,-197.91 735.88,-200.71 745.61,-204.9 746.1,-197.91"/>
</g>
<!-- Node28&#45;&gt;Node27 -->
<g id="edge50" class="edge">
<title>Node28&#45;&gt;Node27</title>
<path fill="none" stroke="midnightblue" d="M1585.7,-251.84C1569.31,-230.21 1526.36,-173.51 1504.88,-145.15"/>
<polygon fill="midnightblue" stroke="midnightblue" points="1507.54,-142.88 1498.72,-137.02 1501.96,-147.11 1507.54,-142.88"/>
</g>
<!-- Node29 -->
<g id="node29" class="node">
<title>Node29</title>
<g id="a_node29"><a xlink:href="_sim_time_8_h.html" target="_top" xlink:title=" ">
<polygon fill="white" stroke="black" points="2546.26,-185 2546.26,-204 2690.26,-204 2690.26,-185 2546.26,-185"/>
<text text-anchor="middle" x="2618.26" y="-192" font-family="Helvetica,sans-Serif" font-size="10.00">amr&#45;wind/core/SimTime.H</text>
</a>
</g>
</g>
<!-- Node28&#45;&gt;Node29 -->
<g id="edge51" class="edge">
<title>Node28&#45;&gt;Node29</title>
<path fill="none" stroke="midnightblue" d="M1650.36,-256.82C1823.28,-245.86 2335.02,-213.44 2535.95,-200.71"/>
<polygon fill="midnightblue" stroke="midnightblue" points="2536.39,-204.19 2546.15,-200.07 2535.94,-197.21 2536.39,-204.19"/>
</g>
<!-- Node33 -->
<g id="node33" class="node">
<title>Node33</title>
<g id="a_node33"><a xlink:href="_p_d_e_base_8_h.html" target="_top" xlink:title=" ">
<polygon fill="white" stroke="black" points="1976.76,-179.5 1976.76,-209.5 2131.76,-209.5 2131.76,-179.5 1976.76,-179.5"/>
<text text-anchor="start" x="1984.76" y="-197.5" font-family="Helvetica,sans-Serif" font-size="10.00">amr&#45;wind/equation_systems</text>
<text text-anchor="middle" x="2054.26" y="-186.5" font-family="Helvetica,sans-Serif" font-size="10.00">/PDEBase.H</text>
</a>
</g>
</g>
<!-- Node28&#45;&gt;Node33 -->
<g id="edge56" class="edge">
<title>Node28&#45;&gt;Node33</title>
<path fill="none" stroke="midnightblue" d="M1650.31,-252.33C1729.92,-241.13 1873.69,-220.91 1966.49,-207.85"/>
<polygon fill="midnightblue" stroke="midnightblue" points="1967.01,-211.31 1976.43,-206.45 1966.04,-204.38 1967.01,-211.31"/>
</g>
<!-- Node37 -->
<g id="node37" class="node">
<title>Node37</title>
<g id="a_node37"><a xlink:href="_physics_8_h.html" target="_top" xlink:title=" ">
<polygon fill="white" stroke="black" points="1601.76,-185 1601.76,-204 1738.76,-204 1738.76,-185 1601.76,-185"/>
<text text-anchor="middle" x="1670.26" y="-192" font-family="Helvetica,sans-Serif" font-size="10.00">amr&#45;wind/core/Physics.H</text>
</a>
</g>
</g>
<!-- Node28&#45;&gt;Node37 -->
<g id="edge68" class="edge">
<title>Node28&#45;&gt;Node37</title>
<path fill="none" stroke="midnightblue" d="M1602.78,-251.73C1615.41,-241.21 1636.81,-223.38 1652.12,-210.62"/>
<polygon fill="midnightblue" stroke="midnightblue" points="1654.47,-213.22 1659.91,-204.13 1649.98,-207.84 1654.47,-213.22"/>
</g>
<!-- Node30 -->
<g id="node30" class="node">
<title>Node30</title>
<g id="a_node30"><a xlink:title=" ">
<polygon fill="white" stroke="#bfbfbf" points="2766.26,-118 2766.26,-137 2858.26,-137 2858.26,-118 2766.26,-118"/>
<text text-anchor="middle" x="2812.26" y="-125" font-family="Helvetica,sans-Serif" font-size="10.00">AMReX_REAL.H</text>
</a>
</g>
</g>
<!-- Node29&#45;&gt;Node30 -->
<g id="edge52" class="edge">
<title>Node29&#45;&gt;Node30</title>
<path fill="none" stroke="midnightblue" d="M2644.02,-184.87C2678.18,-173.42 2738.6,-153.18 2776.98,-140.32"/>
<polygon fill="midnightblue" stroke="midnightblue" points="2778.33,-143.56 2786.7,-137.06 2776.11,-136.92 2778.33,-143.56"/>
</g>
<!-- Node31 -->
<g id="node31" class="node">
<title>Node31</title>
<g id="a_node31"><a xlink:title=" ">
<polygon fill="white" stroke="#bfbfbf" points="2480.26,-118 2480.26,-137 2614.26,-137 2614.26,-118 2480.26,-118"/>
<text text-anchor="middle" x="2547.26" y="-125" font-family="Helvetica,sans-Serif" font-size="10.00">AMReX_GpuQualifiers.H</text>
</a>
</g>
</g>
<!-- Node29&#45;&gt;Node31 -->
<g id="edge53" class="edge">
<title>Node29&#45;&gt;Node31</title>
<path fill="none" stroke="midnightblue" d="M2608.69,-184.73C2597.29,-174.31 2578.07,-156.71 2564.16,-143.97"/>
<polygon fill="midnightblue" stroke="midnightblue" points="2566.42,-141.3 2556.68,-137.13 2561.7,-146.46 2566.42,-141.3"/>
</g>
<!-- Node32 -->
<g id="node32" class="node">
<title>Node32</title>
<g id="a_node32"><a xlink:title=" ">
<polygon fill="white" stroke="#bfbfbf" points="2632.26,-118 2632.26,-137 2748.26,-137 2748.26,-118 2632.26,-118"/>
<text text-anchor="middle" x="2690.26" y="-125" font-family="Helvetica,sans-Serif" font-size="10.00">AMReX_Extension.H</text>
</a>
</g>
</g>
<!-- Node29&#45;&gt;Node32 -->
<g id="edge54" class="edge">
<title>Node29&#45;&gt;Node32</title>
<path fill="none" stroke="midnightblue" d="M2627.97,-184.73C2639.52,-174.31 2659.01,-156.71 2673.12,-143.97"/>
<polygon fill="midnightblue" stroke="midnightblue" points="2675.63,-146.43 2680.7,-137.13 2670.94,-141.23 2675.63,-146.43"/>
</g>
<!-- Node33&#45;&gt;Node4 -->
<g id="edge58" class="edge">
<title>Node33&#45;&gt;Node4</title>
<path fill="none" stroke="midnightblue" d="M1976.58,-181.23C1914.47,-171.3 1825.19,-156.75 1747.26,-143 1739.9,-141.7 1732.16,-140.29 1724.53,-138.88"/>
<polygon fill="midnightblue" stroke="midnightblue" points="1725.08,-135.42 1714.61,-137.03 1723.8,-142.31 1725.08,-135.42"/>
</g>
<!-- Node33&#45;&gt;Node10 -->
<g id="edge66" class="edge">
<title>Node33&#45;&gt;Node10</title>
<path fill="none" stroke="midnightblue" d="M2053.09,-179.21C2051.23,-162.33 2046.58,-133.79 2035.26,-112 2019.88,-82.39 2015.52,-70.06 1985.26,-56 1921,-26.13 781.08,-22.3 710.26,-20 661.61,-18.42 607.56,-16.47 562.55,-14.78"/>
<polygon fill="midnightblue" stroke="midnightblue" points="562.62,-11.28 552.49,-14.41 562.36,-18.28 562.62,-11.28"/>
</g>
<!-- Node33&#45;&gt;Node15 -->
<g id="edge57" class="edge">
<title>Node33&#45;&gt;Node15</title>
<path fill="none" stroke="midnightblue" d="M2101.79,-179.47C2171.39,-156.7 2287.6,-108.9 2237.26,-56 2206.48,-23.66 1519.89,-13.32 1362.3,-11.37"/>
<polygon fill="midnightblue" stroke="midnightblue" points="1362.33,-7.87 1352.29,-11.24 1362.24,-14.87 1362.33,-7.87"/>
</g>
<!-- Node33&#45;&gt;Node20 -->
<g id="edge67" class="edge">
<title>Node33&#45;&gt;Node20</title>
<path fill="none" stroke="midnightblue" d="M2063.9,-179.48C2079.91,-156.21 2111.92,-109.66 2129.32,-84.36"/>
<polygon fill="midnightblue" stroke="midnightblue" points="2132.43,-86.01 2135.22,-75.79 2126.67,-82.04 2132.43,-86.01"/>
</g>
<!-- Node34 -->
<g id="node34" class="node">
<title>Node34</title>
<g id="a_node34"><a xlink:href="_coll_mgr_8_h.html" target="_top" xlink:title=" ">
<polygon fill="white" stroke="black" points="1888.76,-118 1888.76,-137 2025.76,-137 2025.76,-118 1888.76,-118"/>
<text text-anchor="middle" x="1957.26" y="-125" font-family="Helvetica,sans-Serif" font-size="10.00">amr&#45;wind/core/CollMgr.H</text>
</a>
</g>
</g>
<!-- Node33&#45;&gt;Node34 -->
<g id="edge59" class="edge">
<title>Node33&#45;&gt;Node34</title>
<path fill="none" stroke="midnightblue" d="M2033.21,-179.4C2016.95,-168.5 1994.54,-153.48 1978.28,-142.58"/>
<polygon fill="midnightblue" stroke="midnightblue" points="1980.21,-139.67 1969.96,-137.01 1976.31,-145.48 1980.21,-139.67"/>
</g>
<!-- Node35 -->
<g id="node35" class="node">
<title>Node35</title>
<g id="a_node35"><a xlink:href="_p_d_e_fields_8_h.html" target="_top" xlink:title=" ">
<polygon fill="white" stroke="black" points="2306.76,-112.5 2306.76,-142.5 2461.76,-142.5 2461.76,-112.5 2306.76,-112.5"/>
<text text-anchor="start" x="2314.76" y="-130.5" font-family="Helvetica,sans-Serif" font-size="10.00">amr&#45;wind/equation_systems</text>
<text text-anchor="middle" x="2384.26" y="-119.5" font-family="Helvetica,sans-Serif" font-size="10.00">/PDEFields.H</text>
</a>
</g>
</g>
<!-- Node33&#45;&gt;Node35 -->
<g id="edge64" class="edge">
<title>Node33&#45;&gt;Node35</title>
<path fill="none" stroke="midnightblue" d="M2125.46,-179.48C2177.63,-169.2 2248.54,-155.23 2302.95,-144.52"/>
<polygon fill="midnightblue" stroke="midnightblue" points="2303.77,-147.92 2312.91,-142.55 2302.42,-141.05 2303.77,-147.92"/>
</g>
<!-- Node34&#45;&gt;Node5 -->
<g id="edge61" class="edge">
<title>Node34&#45;&gt;Node5</title>
<path fill="none" stroke="midnightblue" d="M1955.83,-117.98C1954.42,-109.58 1952.22,-96.48 1950.4,-85.66"/>
<polygon fill="midnightblue" stroke="midnightblue" points="1953.8,-84.79 1948.69,-75.51 1946.9,-85.95 1953.8,-84.79"/>
</g>
<!-- Node34&#45;&gt;Node6 -->
<g id="edge62" class="edge">
<title>Node34&#45;&gt;Node6</title>
<path fill="none" stroke="midnightblue" d="M1913.33,-117.95C1902.53,-115.92 1890.99,-113.82 1880.26,-112 1778.41,-94.68 1750.21,-92.57 1644.17,-76.13"/>
<polygon fill="midnightblue" stroke="midnightblue" points="1644.43,-72.62 1634.01,-74.54 1643.35,-79.54 1644.43,-72.62"/>
</g>
<!-- Node34&#45;&gt;Node15 -->
<g id="edge60" class="edge">
<title>Node34&#45;&gt;Node15</title>
<path fill="none" stroke="midnightblue" d="M2025.91,-123.02C2095.7,-117.88 2196.91,-105.44 2221.26,-76 2226.92,-69.15 2227.39,-62.44 2221.26,-56 2191.1,-24.28 1519.35,-13.49 1362.7,-11.4"/>
<polygon fill="midnightblue" stroke="midnightblue" points="1362.38,-7.9 1352.33,-11.27 1362.29,-14.9 1362.38,-7.9"/>
</g>
<!-- Node34&#45;&gt;Node22 -->
<g id="edge63" class="edge">
<title>Node34&#45;&gt;Node22</title>
<path fill="none" stroke="midnightblue" d="M1966.19,-117.55C1979.72,-102.91 2002.16,-73.73 1985.26,-56 1977.71,-48.08 1317.9,-21.4 1113.76,-13.33"/>
<polygon fill="midnightblue" stroke="midnightblue" points="1113.66,-9.83 1103.53,-12.93 1113.39,-16.82 1113.66,-9.83"/>
</g>
<!-- Node36 -->
<g id="node36" class="node">
<title>Node36</title>
<g id="a_node36"><a xlink:title=" ">
<polygon fill="white" stroke="#bfbfbf" points="2360.26,-56.5 2360.26,-75.5 2408.26,-75.5 2408.26,-56.5 2360.26,-56.5"/>
<text text-anchor="middle" x="2384.26" y="-63.5" font-family="Helvetica,sans-Serif" font-size="10.00">iosfwd</text>
</a>
</g>
</g>
<!-- Node35&#45;&gt;Node36 -->
<g id="edge65" class="edge">
<title>Node35&#45;&gt;Node36</title>
<path fill="none" stroke="midnightblue" d="M2384.26,-112.4C2384.26,-104.47 2384.26,-94.46 2384.26,-85.86"/>
<polygon fill="midnightblue" stroke="midnightblue" points="2387.76,-85.66 2384.26,-75.66 2380.76,-85.66 2387.76,-85.66"/>
</g>
<!-- Node37&#45;&gt;Node4 -->
<g id="edge69" class="edge">
<title>Node37&#45;&gt;Node4</title>
<path fill="none" stroke="midnightblue" d="M1670.26,-184.73C1670.26,-175.18 1670.26,-159.62 1670.26,-147.28"/>
<polygon fill="midnightblue" stroke="midnightblue" points="1673.76,-147.13 1670.26,-137.13 1666.76,-147.13 1673.76,-147.13"/>
</g>
<!-- Node37&#45;&gt;Node12 -->
<g id="edge71" class="edge">
<title>Node37&#45;&gt;Node12</title>
<path fill="none" stroke="midnightblue" d="M1656.53,-184.95C1641.1,-175.21 1615.43,-158.61 1594.26,-143 1576.72,-130.06 1574.31,-124.22 1556.26,-112 1513.76,-83.22 1504.5,-70.49 1455.26,-56 1397.18,-38.91 997.75,-20.43 839.06,-13.67"/>
<polygon fill="midnightblue" stroke="midnightblue" points="839.1,-10.16 828.96,-13.24 838.8,-17.16 839.1,-10.16"/>
</g>
<!-- Node37&#45;&gt;Node34 -->
<g id="edge70" class="edge">
<title>Node37&#45;&gt;Node34</title>
<path fill="none" stroke="midnightblue" d="M1708.08,-184.94C1759.91,-173.2 1853.03,-152.11 1909.59,-139.3"/>
<polygon fill="midnightblue" stroke="midnightblue" points="1910.38,-142.71 1919.36,-137.08 1908.84,-135.88 1910.38,-142.71"/>
</g>
<!-- Node38 -->
<g id="node38" class="node">
<title>Node38</title>
<g id="a_node38"><a xlink:title=" ">
<polygon fill="white" stroke="#bfbfbf" points="1755.76,-118 1755.76,-137 1870.76,-137 1870.76,-118 1755.76,-118"/>
<text text-anchor="middle" x="1813.26" y="-125" font-family="Helvetica,sans-Serif" font-size="10.00">AMReX_Geometry.H</text>
</a>
</g>
</g>
<!-- Node37&#45;&gt;Node38 -->
<g id="edge72" class="edge">
<title>Node37&#45;&gt;Node38</title>
<path fill="none" stroke="midnightblue" d="M1689.25,-184.87C1713.72,-173.75 1756.46,-154.32 1784.82,-141.43"/>
<polygon fill="midnightblue" stroke="midnightblue" points="1786.54,-144.49 1794.19,-137.17 1783.64,-138.12 1786.54,-144.49"/>
</g>
</g>
</svg>
