<?xml version="1.0" encoding="UTF-8" standalone="no"?>
<!DOCTYPE svg PUBLIC "-//W3C//DTD SVG 1.1//EN"
 "http://www.w3.org/Graphics/SVG/1.1/DTD/svg11.dtd">
<!-- Generated by graphviz version 2.43.0 (0)
 -->
<!-- Title: TKESource.H Pages: 1 -->
<svg width="767pt" height="196pt"
 viewBox="0.00 0.00 767.00 196.00" xmlns="http://www.w3.org/2000/svg" xmlns:xlink="http://www.w3.org/1999/xlink">
<g id="graph0" class="graph" transform="scale(1 1) rotate(0) translate(4 192)">
<title>TKESource.H</title>
<polygon fill="white" stroke="transparent" points="-4,4 -4,-192 763,-192 763,4 -4,4"/>
<!-- Node1 -->
<g id="node1" class="node">
<title>Node1</title>
<g id="a_node1"><a xlink:title=" ">
<polygon fill="#bfbfbf" stroke="black" points="159.5,-168.5 159.5,-187.5 238.5,-187.5 238.5,-168.5 159.5,-168.5"/>
<text text-anchor="middle" x="199" y="-175.5" font-family="Helvetica,sans-Serif" font-size="10.00">TKESource.H</text>
</a>
</g>
</g>
<!-- Node2 -->
<g id="node2" class="node">
<title>Node2</title>
<g id="a_node2"><a xlink:href="_ksgs_m84_src_8_h.html" target="_top" xlink:title=" ">
<polygon fill="white" stroke="black" points="5,-112.5 5,-131.5 91,-131.5 91,-112.5 5,-112.5"/>
<text text-anchor="middle" x="48" y="-119.5" font-family="Helvetica,sans-Serif" font-size="10.00">KsgsM84Src.H</text>
</a>
</g>
</g>
<!-- Node1&#45;&gt;Node2 -->
<g id="edge1" class="edge">
<title>Node1&#45;&gt;Node2</title>
<path fill="none" stroke="midnightblue" d="M165.55,-165.04C137.14,-154.88 97.06,-140.55 71.81,-131.52"/>
<polygon fill="midnightblue" stroke="midnightblue" points="164.48,-168.37 175.07,-168.44 166.84,-161.78 164.48,-168.37"/>
</g>
<!-- Node4 -->
<g id="node4" class="node">
<title>Node4</title>
<g id="a_node4"><a xlink:href="_ksgs_s94_src_8_h.html" target="_top" xlink:title=" ">
<polygon fill="white" stroke="black" points="109.5,-112.5 109.5,-131.5 192.5,-131.5 192.5,-112.5 109.5,-112.5"/>
<text text-anchor="middle" x="151" y="-119.5" font-family="Helvetica,sans-Serif" font-size="10.00">KsgsS94Src.H</text>
</a>
</g>
</g>
<!-- Node1&#45;&gt;Node4 -->
<g id="edge3" class="edge">
<title>Node1&#45;&gt;Node4</title>
<path fill="none" stroke="midnightblue" d="M184.27,-160.43C175.86,-150.97 165.65,-139.48 158.78,-131.75"/>
<polygon fill="midnightblue" stroke="midnightblue" points="181.81,-162.93 191.07,-168.08 187.05,-158.28 181.81,-162.93"/>
</g>
<!-- Node5 -->
<g id="node5" class="node">
<title>Node5</title>
<g id="a_node5"><a xlink:href="_kw_s_s_t_src_8_h.html" target="_top" xlink:title=" ">
<polygon fill="white" stroke="black" points="210.5,-112.5 210.5,-131.5 285.5,-131.5 285.5,-112.5 210.5,-112.5"/>
<text text-anchor="middle" x="248" y="-119.5" font-family="Helvetica,sans-Serif" font-size="10.00">KwSSTSrc.H</text>
</a>
</g>
</g>
<!-- Node1&#45;&gt;Node5 -->
<g id="edge4" class="edge">
<title>Node1&#45;&gt;Node5</title>
<path fill="none" stroke="midnightblue" d="M214.03,-160.43C222.62,-150.97 233.04,-139.48 240.06,-131.75"/>
<polygon fill="midnightblue" stroke="midnightblue" points="211.22,-158.33 207.09,-168.08 216.4,-163.03 211.22,-158.33"/>
</g>
<!-- Node7 -->
<g id="node7" class="node">
<title>Node7</title>
<g id="a_node7"><a xlink:href="_t_k_e_8_h.html" target="_top" xlink:title=" ">
<polygon fill="white" stroke="black" points="445,-112.5 445,-131.5 491,-131.5 491,-112.5 445,-112.5"/>
<text text-anchor="middle" x="468" y="-119.5" font-family="Helvetica,sans-Serif" font-size="10.00">TKE.H</text>
</a>
</g>
</g>
<!-- Node1&#45;&gt;Node7 -->
<g id="edge6" class="edge">
<title>Node1&#45;&gt;Node7</title>
<path fill="none" stroke="midnightblue" d="M248.8,-167C307.2,-155.28 401.51,-136.35 444.85,-127.65"/>
<polygon fill="midnightblue" stroke="midnightblue" points="247.81,-163.63 238.69,-169.03 249.19,-170.5 247.81,-163.63"/>
</g>
<!-- Node3 -->
<g id="node3" class="node">
<title>Node3</title>
<g id="a_node3"><a xlink:href="_ksgs_m84_src_8cpp.html" target="_top" xlink:title=" ">
<polygon fill="white" stroke="black" points="0,-56.5 0,-75.5 96,-75.5 96,-56.5 0,-56.5"/>
<text text-anchor="middle" x="48" y="-63.5" font-family="Helvetica,sans-Serif" font-size="10.00">KsgsM84Src.cpp</text>
</a>
</g>
</g>
<!-- Node2&#45;&gt;Node3 -->
<g id="edge2" class="edge">
<title>Node2&#45;&gt;Node3</title>
<path fill="none" stroke="midnightblue" d="M48,-101.8C48,-92.91 48,-82.78 48,-75.75"/>
<polygon fill="midnightblue" stroke="midnightblue" points="44.5,-102.08 48,-112.08 51.5,-102.08 44.5,-102.08"/>
</g>
<!-- Node6 -->
<g id="node6" class="node">
<title>Node6</title>
<g id="a_node6"><a xlink:href="_kw_s_s_t_src_8cpp.html" target="_top" xlink:title=" ">
<polygon fill="white" stroke="black" points="159.5,-56.5 159.5,-75.5 244.5,-75.5 244.5,-56.5 159.5,-56.5"/>
<text text-anchor="middle" x="202" y="-63.5" font-family="Helvetica,sans-Serif" font-size="10.00">KwSSTSrc.cpp</text>
</a>
</g>
</g>
<!-- Node5&#45;&gt;Node6 -->
<g id="edge5" class="edge">
<title>Node5&#45;&gt;Node6</title>
<path fill="none" stroke="midnightblue" d="M233.89,-104.43C225.82,-94.97 216.04,-83.48 209.45,-75.75"/>
<polygon fill="midnightblue" stroke="midnightblue" points="231.25,-106.74 240.4,-112.08 236.58,-102.2 231.25,-106.74"/>
</g>
<!-- Node8 -->
<g id="node8" class="node">
<title>Node8</title>
<g id="a_node8"><a xlink:href="_t_k_e_8cpp.html" target="_top" xlink:title=" ">
<polygon fill="white" stroke="black" points="276,-0.5 276,-19.5 332,-19.5 332,-0.5 276,-0.5"/>
<text text-anchor="middle" x="304" y="-7.5" font-family="Helvetica,sans-Serif" font-size="10.00">TKE.cpp</text>
</a>
</g>
</g>
<!-- Node7&#45;&gt;Node8 -->
<g id="edge7" class="edge">
<title>Node7&#45;&gt;Node8</title>
<path fill="none" stroke="midnightblue" d="M434.91,-117.34C388.92,-111.49 309.36,-98.36 292,-76 279.05,-59.32 290.91,-33.04 298.61,-19.58"/>
<polygon fill="midnightblue" stroke="midnightblue" points="434.65,-120.83 445,-118.57 435.5,-113.88 434.65,-120.83"/>
</g>
<!-- Node9 -->
<g id="node9" class="node">
<title>Node9</title>
<g id="a_node9"><a xlink:href="tke__ops_8_h.html" target="_top" xlink:title=" ">
<polygon fill="white" stroke="black" points="301.5,-56.5 301.5,-75.5 366.5,-75.5 366.5,-56.5 301.5,-56.5"/>
<text text-anchor="middle" x="334" y="-63.5" font-family="Helvetica,sans-Serif" font-size="10.00">tke_ops.H</text>
</a>
</g>
</g>
<!-- Node7&#45;&gt;Node9 -->
<g id="edge8" class="edge">
<title>Node7&#45;&gt;Node9</title>
<path fill="none" stroke="midnightblue" d="M437.32,-108.64C412.18,-98.5 377.25,-84.43 355.13,-75.52"/>
<polygon fill="midnightblue" stroke="midnightblue" points="436.18,-111.95 446.77,-112.44 438.8,-105.46 436.18,-111.95"/>
</g>
<!-- Node10 -->
<g id="node10" class="node">
<title>Node10</title>
<g id="a_node10"><a xlink:href="_one_eq_ksgs_8cpp.html" target="_top" xlink:title=" ">
<polygon fill="white" stroke="black" points="385,-56.5 385,-75.5 477,-75.5 477,-56.5 385,-56.5"/>
<text text-anchor="middle" x="431" y="-63.5" font-family="Helvetica,sans-Serif" font-size="10.00">OneEqKsgs.cpp</text>
</a>
</g>
</g>
<!-- Node7&#45;&gt;Node10 -->
<g id="edge10" class="edge">
<title>Node7&#45;&gt;Node10</title>
<path fill="none" stroke="midnightblue" d="M456.05,-103.57C449.69,-94.27 442.13,-83.25 437,-75.75"/>
<polygon fill="midnightblue" stroke="midnightblue" points="453.35,-105.81 461.89,-112.08 459.13,-101.86 453.35,-105.81"/>
</g>
<!-- Node11 -->
<g id="node11" class="node">
<title>Node11</title>
<g id="a_node11"><a xlink:href="_k_omega_s_s_t_8cpp.html" target="_top" xlink:title=" ">
<polygon fill="white" stroke="black" points="461.5,-0.5 461.5,-19.5 556.5,-19.5 556.5,-0.5 461.5,-0.5"/>
<text text-anchor="middle" x="509" y="-7.5" font-family="Helvetica,sans-Serif" font-size="10.00">KOmegaSST.cpp</text>
</a>
</g>
</g>
<!-- Node7&#45;&gt;Node11 -->
<g id="edge11" class="edge">
<title>Node7&#45;&gt;Node11</title>
<path fill="none" stroke="midnightblue" d="M475.36,-103.09C478.69,-94.87 482.62,-84.97 486,-76 493.51,-56.06 501.7,-32.42 505.99,-19.87"/>
<polygon fill="midnightblue" stroke="midnightblue" points="472.09,-101.83 471.55,-112.41 478.57,-104.48 472.09,-101.83"/>
</g>
<!-- Node12 -->
<g id="node12" class="node">
<title>Node12</title>
<g id="a_node12"><a xlink:href="_k_omega_s_s_t_i_8_h.html" target="_top" xlink:title=" ">
<polygon fill="white" stroke="black" points="533.5,-56.5 533.5,-75.5 622.5,-75.5 622.5,-56.5 533.5,-56.5"/>
<text text-anchor="middle" x="578" y="-63.5" font-family="Helvetica,sans-Serif" font-size="10.00">KOmegaSSTI.H</text>
</a>
</g>
</g>
<!-- Node7&#45;&gt;Node12 -->
<g id="edge12" class="edge">
<title>Node7&#45;&gt;Node12</title>
<path fill="none" stroke="midnightblue" d="M494.76,-107.86C515.16,-97.85 542.67,-84.35 560.37,-75.65"/>
<polygon fill="midnightblue" stroke="midnightblue" points="493.11,-104.78 485.67,-112.32 496.19,-111.06 493.11,-104.78"/>
</g>
<!-- Node13 -->
<g id="node13" class="node">
<title>Node13</title>
<g id="a_node13"><a xlink:href="_k_omega_s_s_t_i_d_d_e_s_8cpp.html" target="_top" xlink:title=" ">
<polygon fill="white" stroke="black" points="583,-0.5 583,-19.5 709,-19.5 709,-0.5 583,-0.5"/>
<text text-anchor="middle" x="646" y="-7.5" font-family="Helvetica,sans-Serif" font-size="10.00">KOmegaSSTIDDES.cpp</text>
</a>
</g>
</g>
<!-- Node7&#45;&gt;Node13 -->
<g id="edge15" class="edge">
<title>Node7&#45;&gt;Node13</title>
<path fill="none" stroke="midnightblue" d="M501.4,-121.29C538.36,-119.72 597.17,-111.3 631,-76 645.74,-60.61 647.04,-33.77 646.61,-19.88"/>
<polygon fill="midnightblue" stroke="midnightblue" points="501.04,-117.8 491.14,-121.57 501.23,-124.79 501.04,-117.8"/>
</g>
<!-- Node14 -->
<g id="node14" class="node">
<title>Node14</title>
<g id="a_node14"><a xlink:href="_a_b_l_stats_8cpp.html" target="_top" xlink:title=" ">
<polygon fill="white" stroke="black" points="679,-56.5 679,-75.5 759,-75.5 759,-56.5 679,-56.5"/>
<text text-anchor="middle" x="719" y="-63.5" font-family="Helvetica,sans-Serif" font-size="10.00">ABLStats.cpp</text>
</a>
</g>
</g>
<!-- Node7&#45;&gt;Node14 -->
<g id="edge16" class="edge">
<title>Node7&#45;&gt;Node14</title>
<path fill="none" stroke="midnightblue" d="M501.19,-113.86C547.11,-103.98 629.91,-86.17 679.12,-75.58"/>
<polygon fill="midnightblue" stroke="midnightblue" points="500.2,-110.49 491.16,-116.02 501.68,-117.33 500.2,-110.49"/>
</g>
<!-- Node9&#45;&gt;Node8 -->
<g id="edge9" class="edge">
<title>Node9&#45;&gt;Node8</title>
<path fill="none" stroke="midnightblue" d="M324.15,-47.27C319.03,-38.05 312.98,-27.17 308.86,-19.75"/>
<polygon fill="midnightblue" stroke="midnightblue" points="321.13,-49.04 329.05,-56.08 327.25,-45.64 321.13,-49.04"/>
</g>
<!-- Node12&#45;&gt;Node11 -->
<g id="edge13" class="edge">
<title>Node12&#45;&gt;Node11</title>
<path fill="none" stroke="midnightblue" d="M558.96,-50.1C546.54,-40.38 530.76,-28.03 520.29,-19.83"/>
<polygon fill="midnightblue" stroke="midnightblue" points="556.88,-52.92 566.91,-56.32 561.2,-47.4 556.88,-52.92"/>
</g>
<!-- Node12&#45;&gt;Node13 -->
<g id="edge14" class="edge">
<title>Node12&#45;&gt;Node13</title>
<path fill="none" stroke="midnightblue" d="M596.76,-50.1C609,-40.38 624.56,-28.03 634.88,-19.83"/>
<polygon fill="midnightblue" stroke="midnightblue" points="594.58,-47.36 588.93,-56.32 598.93,-52.85 594.58,-47.36"/>
</g>
</g>
</svg>
