<?xml version="1.0" encoding="UTF-8" standalone="no"?>
<!DOCTYPE svg PUBLIC "-//W3C//DTD SVG 1.1//EN"
 "http://www.w3.org/Graphics/SVG/1.1/DTD/svg11.dtd">
<!-- Generated by graphviz version 2.43.0 (0)
 -->
<!-- Title: TiogaInterface.H Pages: 1 -->
<svg width="460pt" height="207pt"
 viewBox="0.00 0.00 459.50 207.00" xmlns="http://www.w3.org/2000/svg" xmlns:xlink="http://www.w3.org/1999/xlink">
<g id="graph0" class="graph" transform="scale(1 1) rotate(0) translate(4 203)">
<title>TiogaInterface.H</title>
<polygon fill="white" stroke="transparent" points="-4,4 -4,-203 455.5,-203 455.5,4 -4,4"/>
<!-- Node1 -->
<g id="node1" class="node">
<title>Node1</title>
<g id="a_node1"><a xlink:title=" ">
<polygon fill="#bfbfbf" stroke="black" points="169,-179.5 169,-198.5 267,-198.5 267,-179.5 169,-179.5"/>
<text text-anchor="middle" x="218" y="-186.5" font-family="Helvetica,sans-Serif" font-size="10.00">TiogaInterface.H</text>
</a>
</g>
</g>
<!-- Node2 -->
<g id="node2" class="node">
<title>Node2</title>
<g id="a_node2"><a xlink:title=" ">
<polygon fill="white" stroke="#bfbfbf" points="80.5,-118 80.5,-137 127.5,-137 127.5,-118 80.5,-118"/>
<text text-anchor="middle" x="104" y="-125" font-family="Helvetica,sans-Serif" font-size="10.00">vector</text>
</a>
</g>
</g>
<!-- Node1&#45;&gt;Node2 -->
<g id="edge1" class="edge">
<title>Node1&#45;&gt;Node2</title>
<path fill="none" stroke="midnightblue" d="M201.67,-179.48C182.79,-169.62 151.49,-153.29 129.42,-141.77"/>
<polygon fill="midnightblue" stroke="midnightblue" points="130.79,-138.53 120.3,-137.01 127.55,-144.74 130.79,-138.53"/>
</g>
<!-- Node3 -->
<g id="node3" class="node">
<title>Node3</title>
<g id="a_node3"><a xlink:href="_overset_manager_8_h.html" target="_top" xlink:title=" ">
<polygon fill="white" stroke="black" points="146,-112.5 146,-142.5 290,-142.5 290,-112.5 146,-112.5"/>
<text text-anchor="start" x="154" y="-130.5" font-family="Helvetica,sans-Serif" font-size="10.00">amr&#45;wind/overset/Overset</text>
<text text-anchor="middle" x="218" y="-119.5" font-family="Helvetica,sans-Serif" font-size="10.00">Manager.H</text>
</a>
</g>
</g>
<!-- Node1&#45;&gt;Node3 -->
<g id="edge2" class="edge">
<title>Node1&#45;&gt;Node3</title>
<path fill="none" stroke="midnightblue" d="M218,-179.48C218,-172.47 218,-162.19 218,-152.7"/>
<polygon fill="midnightblue" stroke="midnightblue" points="221.5,-152.52 218,-142.52 214.5,-152.52 221.5,-152.52"/>
</g>
<!-- Node10 -->
<g id="node10" class="node">
<title>Node10</title>
<g id="a_node10"><a xlink:href="overset__types_8_h.html" target="_top" xlink:title=" ">
<polygon fill="white" stroke="black" points="308.5,-112.5 308.5,-142.5 451.5,-142.5 451.5,-112.5 308.5,-112.5"/>
<text text-anchor="start" x="316.5" y="-130.5" font-family="Helvetica,sans-Serif" font-size="10.00">amr&#45;wind/overset/overset</text>
<text text-anchor="middle" x="380" y="-119.5" font-family="Helvetica,sans-Serif" font-size="10.00">_types.H</text>
</a>
</g>
</g>
<!-- Node1&#45;&gt;Node10 -->
<g id="edge9" class="edge">
<title>Node1&#45;&gt;Node10</title>
<path fill="none" stroke="midnightblue" d="M241.21,-179.48C264.89,-170.78 302.33,-157.03 332.36,-146"/>
<polygon fill="midnightblue" stroke="midnightblue" points="333.64,-149.26 341.82,-142.52 331.23,-142.69 333.64,-149.26"/>
</g>
<!-- Node4 -->
<g id="node4" class="node">
<title>Node4</title>
<g id="a_node4"><a xlink:href="_factory_8_h.html" target="_top" xlink:title=" ">
<polygon fill="white" stroke="black" points="151,-56.5 151,-75.5 285,-75.5 285,-56.5 151,-56.5"/>
<text text-anchor="middle" x="218" y="-63.5" font-family="Helvetica,sans-Serif" font-size="10.00">amr&#45;wind/core/Factory.H</text>
</a>
</g>
</g>
<!-- Node3&#45;&gt;Node4 -->
<g id="edge3" class="edge">
<title>Node3&#45;&gt;Node4</title>
<path fill="none" stroke="midnightblue" d="M218,-112.4C218,-104.47 218,-94.46 218,-85.86"/>
<polygon fill="midnightblue" stroke="midnightblue" points="221.5,-85.66 218,-75.66 214.5,-85.66 221.5,-85.66"/>
</g>
<!-- Node5 -->
<g id="node5" class="node">
<title>Node5</title>
<g id="a_node5"><a xlink:title=" ">
<polygon fill="white" stroke="#bfbfbf" points="0,-0.5 0,-19.5 58,-19.5 58,-0.5 0,-0.5"/>
<text text-anchor="middle" x="29" y="-7.5" font-family="Helvetica,sans-Serif" font-size="10.00">memory</text>
</a>
</g>
</g>
<!-- Node4&#45;&gt;Node5 -->
<g id="edge4" class="edge">
<title>Node4&#45;&gt;Node5</title>
<path fill="none" stroke="midnightblue" d="M188.05,-56.44C155.65,-47.19 103.86,-32.39 68.23,-22.21"/>
<polygon fill="midnightblue" stroke="midnightblue" points="68.76,-18.72 58.19,-19.34 66.84,-25.45 68.76,-18.72"/>
</g>
<!-- Node6 -->
<g id="node6" class="node">
<title>Node6</title>
<g id="a_node6"><a xlink:title=" ">
<polygon fill="white" stroke="#bfbfbf" points="76.5,-0.5 76.5,-19.5 169.5,-19.5 169.5,-0.5 76.5,-0.5"/>
<text text-anchor="middle" x="123" y="-7.5" font-family="Helvetica,sans-Serif" font-size="10.00">unordered_map</text>
</a>
</g>
</g>
<!-- Node4&#45;&gt;Node6 -->
<g id="edge5" class="edge">
<title>Node4&#45;&gt;Node6</title>
<path fill="none" stroke="midnightblue" d="M202.74,-56.32C187.78,-47.82 164.75,-34.73 147.27,-24.8"/>
<polygon fill="midnightblue" stroke="midnightblue" points="148.65,-21.55 138.23,-19.65 145.19,-27.64 148.65,-21.55"/>
</g>
<!-- Node7 -->
<g id="node7" class="node">
<title>Node7</title>
<g id="a_node7"><a xlink:title=" ">
<polygon fill="white" stroke="#bfbfbf" points="188,-0.5 188,-19.5 248,-19.5 248,-0.5 188,-0.5"/>
<text text-anchor="middle" x="218" y="-7.5" font-family="Helvetica,sans-Serif" font-size="10.00">iostream</text>
</a>
</g>
</g>
<!-- Node4&#45;&gt;Node7 -->
<g id="edge6" class="edge">
<title>Node4&#45;&gt;Node7</title>
<path fill="none" stroke="midnightblue" d="M218,-56.08C218,-49.01 218,-38.86 218,-29.99"/>
<polygon fill="midnightblue" stroke="midnightblue" points="221.5,-29.75 218,-19.75 214.5,-29.75 221.5,-29.75"/>
</g>
<!-- Node8 -->
<g id="node8" class="node">
<title>Node8</title>
<g id="a_node8"><a xlink:title=" ">
<polygon fill="white" stroke="#bfbfbf" points="266,-0.5 266,-19.5 356,-19.5 356,-0.5 266,-0.5"/>
<text text-anchor="middle" x="311" y="-7.5" font-family="Helvetica,sans-Serif" font-size="10.00">AMReX_Print.H</text>
</a>
</g>
</g>
<!-- Node4&#45;&gt;Node8 -->
<g id="edge7" class="edge">
<title>Node4&#45;&gt;Node8</title>
<path fill="none" stroke="midnightblue" d="M232.94,-56.32C247.59,-47.82 270.13,-34.73 287.24,-24.8"/>
<polygon fill="midnightblue" stroke="midnightblue" points="289.2,-27.7 296.1,-19.65 285.69,-21.65 289.2,-27.7"/>
</g>
<!-- Node9 -->
<g id="node9" class="node">
<title>Node9</title>
<g id="a_node9"><a xlink:title=" ">
<polygon fill="white" stroke="#bfbfbf" points="374,-0.5 374,-19.5 436,-19.5 436,-0.5 374,-0.5"/>
<text text-anchor="middle" x="405" y="-7.5" font-family="Helvetica,sans-Serif" font-size="10.00">AMReX.H</text>
</a>
</g>
</g>
<!-- Node4&#45;&gt;Node9 -->
<g id="edge8" class="edge">
<title>Node4&#45;&gt;Node9</title>
<path fill="none" stroke="midnightblue" d="M247.63,-56.44C279.5,-47.24 330.33,-32.56 365.56,-22.39"/>
<polygon fill="midnightblue" stroke="midnightblue" points="366.87,-25.65 375.51,-19.52 364.93,-18.93 366.87,-25.65"/>
</g>
<!-- Node11 -->
<g id="node11" class="node">
<title>Node11</title>
<g id="a_node11"><a xlink:title=" ">
<polygon fill="white" stroke="#bfbfbf" points="336.5,-56.5 336.5,-75.5 423.5,-75.5 423.5,-56.5 336.5,-56.5"/>
<text text-anchor="middle" x="380" y="-63.5" font-family="Helvetica,sans-Serif" font-size="10.00">AMReX_Gpu.H</text>
</a>
</g>
</g>
<!-- Node10&#45;&gt;Node11 -->
<g id="edge10" class="edge">
<title>Node10&#45;&gt;Node11</title>
<path fill="none" stroke="midnightblue" d="M380,-112.4C380,-104.47 380,-94.46 380,-85.86"/>
<polygon fill="midnightblue" stroke="midnightblue" points="383.5,-85.66 380,-75.66 376.5,-85.66 383.5,-85.66"/>
</g>
</g>
</svg>
