<?xml version="1.0" encoding="UTF-8" standalone="no"?>
<!DOCTYPE svg PUBLIC "-//W3C//DTD SVG 1.1//EN"
 "http://www.w3.org/Graphics/SVG/1.1/DTD/svg11.dtd">
<!-- Generated by graphviz version 2.43.0 (0)
 -->
<!-- Title: TiogaInterface.cpp Pages: 1 -->
<svg width="2734pt" height="341pt"
 viewBox="0.00 0.00 2733.75 341.00" xmlns="http://www.w3.org/2000/svg" xmlns:xlink="http://www.w3.org/1999/xlink">
<g id="graph0" class="graph" transform="scale(1 1) rotate(0) translate(4 337)">
<title>TiogaInterface.cpp</title>
<polygon fill="white" stroke="transparent" points="-4,4 -4,-337 2729.75,-337 2729.75,4 -4,4"/>
<!-- Node1 -->
<g id="node1" class="node">
<title>Node1</title>
<g id="a_node1"><a xlink:title=" ">
<polygon fill="#bfbfbf" stroke="black" points="1200,-313.5 1200,-332.5 1307,-332.5 1307,-313.5 1200,-313.5"/>
<text text-anchor="middle" x="1253.5" y="-320.5" font-family="Helvetica,sans-Serif" font-size="10.00">TiogaInterface.cpp</text>
</a>
</g>
</g>
<!-- Node2 -->
<g id="node2" class="node">
<title>Node2</title>
<g id="a_node2"><a xlink:href="_tioga_interface_8_h.html" target="_top" xlink:title=" ">
<polygon fill="white" stroke="black" points="396,-196 396,-215 583,-215 583,-196 396,-196"/>
<text text-anchor="middle" x="489.5" y="-203" font-family="Helvetica,sans-Serif" font-size="10.00">amr&#45;wind/overset/TiogaInterface.H</text>
</a>
</g>
</g>
<!-- Node1&#45;&gt;Node2 -->
<g id="edge1" class="edge">
<title>Node1&#45;&gt;Node2</title>
<path fill="none" stroke="midnightblue" d="M1199.78,-313.88C1063.48,-293.27 704.53,-239.01 555.66,-216.5"/>
<polygon fill="midnightblue" stroke="midnightblue" points="556.15,-213.04 545.74,-215 555.1,-219.96 556.15,-213.04"/>
</g>
<!-- Node13 -->
<g id="node13" class="node">
<title>Node13</title>
<g id="a_node13"><a xlink:href="_c_f_d_sim_8_h.html" target="_top" xlink:title=" ">
<polygon fill="white" stroke="black" points="1109.5,-257.5 1109.5,-276.5 1225.5,-276.5 1225.5,-257.5 1109.5,-257.5"/>
<text text-anchor="middle" x="1167.5" y="-264.5" font-family="Helvetica,sans-Serif" font-size="10.00">amr&#45;wind/CFDSim.H</text>
</a>
</g>
</g>
<!-- Node1&#45;&gt;Node13 -->
<g id="edge12" class="edge">
<title>Node1&#45;&gt;Node13</title>
<path fill="none" stroke="midnightblue" d="M1239.68,-313.32C1226.27,-304.9 1205.68,-291.97 1189.91,-282.07"/>
<polygon fill="midnightblue" stroke="midnightblue" points="1191.61,-279.01 1181.28,-276.65 1187.89,-284.94 1191.61,-279.01"/>
</g>
<!-- Node19 -->
<g id="node19" class="node">
<title>Node19</title>
<g id="a_node19"><a xlink:href="_field_repo_8_h.html" target="_top" xlink:title=" ">
<polygon fill="white" stroke="black" points="1540,-196 1540,-215 1689,-215 1689,-196 1540,-196"/>
<text text-anchor="middle" x="1614.5" y="-203" font-family="Helvetica,sans-Serif" font-size="10.00">amr&#45;wind/core/FieldRepo.H</text>
</a>
</g>
</g>
<!-- Node1&#45;&gt;Node19 -->
<g id="edge72" class="edge">
<title>Node1&#45;&gt;Node19</title>
<path fill="none" stroke="midnightblue" d="M1259.13,-313.13C1268.76,-298.75 1289.88,-270.6 1315.5,-257 1351.69,-237.78 1454.44,-223.26 1529.41,-214.83"/>
<polygon fill="midnightblue" stroke="midnightblue" points="1530.24,-218.26 1539.79,-213.68 1529.47,-211.31 1530.24,-218.26"/>
</g>
<!-- Node35 -->
<g id="node35" class="node">
<title>Node35</title>
<g id="a_node35"><a xlink:href="_p_d_e_base_8_h.html" target="_top" xlink:title=" ">
<polygon fill="white" stroke="black" points="1148,-123.5 1148,-153.5 1303,-153.5 1303,-123.5 1148,-123.5"/>
<text text-anchor="start" x="1156" y="-141.5" font-family="Helvetica,sans-Serif" font-size="10.00">amr&#45;wind/equation_systems</text>
<text text-anchor="middle" x="1225.5" y="-130.5" font-family="Helvetica,sans-Serif" font-size="10.00">/PDEBase.H</text>
</a>
</g>
</g>
<!-- Node1&#45;&gt;Node35 -->
<g id="edge73" class="edge">
<title>Node1&#45;&gt;Node35</title>
<path fill="none" stroke="midnightblue" d="M1252.15,-313.2C1248.03,-286.33 1235.51,-204.74 1229.21,-163.67"/>
<polygon fill="midnightblue" stroke="midnightblue" points="1232.65,-163.05 1227.68,-153.69 1225.73,-164.11 1232.65,-163.05"/>
</g>
<!-- Node41 -->
<g id="node41" class="node">
<title>Node41</title>
<g id="a_node41"><a xlink:href="field__ops_8_h.html" target="_top" xlink:title=" ">
<polygon fill="white" stroke="black" points="1713,-190.5 1713,-220.5 1824,-220.5 1824,-190.5 1713,-190.5"/>
<text text-anchor="start" x="1721" y="-208.5" font-family="Helvetica,sans-Serif" font-size="10.00">amr&#45;wind/core/field</text>
<text text-anchor="middle" x="1768.5" y="-197.5" font-family="Helvetica,sans-Serif" font-size="10.00">_ops.H</text>
</a>
</g>
</g>
<!-- Node1&#45;&gt;Node41 -->
<g id="edge74" class="edge">
<title>Node1&#45;&gt;Node41</title>
<path fill="none" stroke="midnightblue" d="M1265.55,-313.26C1289.02,-296.31 1339.35,-260.35 1348.5,-257 1495.33,-203.19 1543.96,-244.89 1698.5,-221 1699.96,-220.77 1701.43,-220.54 1702.91,-220.3"/>
<polygon fill="midnightblue" stroke="midnightblue" points="1703.56,-223.74 1712.81,-218.57 1702.36,-216.84 1703.56,-223.74"/>
</g>
<!-- Node42 -->
<g id="node42" class="node">
<title>Node42</title>
<g id="a_node42"><a xlink:href="_i_o_manager_8_h.html" target="_top" xlink:title=" ">
<polygon fill="white" stroke="black" points="222,-56.5 222,-86.5 325,-86.5 325,-56.5 222,-56.5"/>
<text text-anchor="start" x="230" y="-74.5" font-family="Helvetica,sans-Serif" font-size="10.00">amr&#45;wind/utilities</text>
<text text-anchor="middle" x="273.5" y="-63.5" font-family="Helvetica,sans-Serif" font-size="10.00">/IOManager.H</text>
</a>
</g>
</g>
<!-- Node1&#45;&gt;Node42 -->
<g id="edge77" class="edge">
<title>Node1&#45;&gt;Node42</title>
<path fill="none" stroke="midnightblue" d="M1199.93,-318.09C988.95,-302.15 223.86,-238.77 160.5,-154 139.81,-126.32 177.42,-104.15 214.7,-89.96"/>
<polygon fill="midnightblue" stroke="midnightblue" points="215.93,-93.23 224.13,-86.52 213.54,-86.66 215.93,-93.23"/>
</g>
<!-- Node46 -->
<g id="node46" class="node">
<title>Node46</title>
<g id="a_node46"><a xlink:title=" ">
<polygon fill="white" stroke="#bfbfbf" points="1357.5,-257.5 1357.5,-276.5 1413.5,-276.5 1413.5,-257.5 1357.5,-257.5"/>
<text text-anchor="middle" x="1385.5" y="-264.5" font-family="Helvetica,sans-Serif" font-size="10.00">numeric</text>
</a>
</g>
</g>
<!-- Node1&#45;&gt;Node46 -->
<g id="edge84" class="edge">
<title>Node1&#45;&gt;Node46</title>
<path fill="none" stroke="midnightblue" d="M1274.42,-313.44C1296.24,-304.52 1330.65,-290.44 1355.39,-280.32"/>
<polygon fill="midnightblue" stroke="midnightblue" points="1356.75,-283.54 1364.68,-276.52 1354.1,-277.06 1356.75,-283.54"/>
</g>
<!-- Node3 -->
<g id="node3" class="node">
<title>Node3</title>
<g id="a_node3"><a xlink:title=" ">
<polygon fill="white" stroke="#bfbfbf" points="332,-129 332,-148 379,-148 379,-129 332,-129"/>
<text text-anchor="middle" x="355.5" y="-136" font-family="Helvetica,sans-Serif" font-size="10.00">vector</text>
</a>
</g>
</g>
<!-- Node2&#45;&gt;Node3 -->
<g id="edge2" class="edge">
<title>Node2&#45;&gt;Node3</title>
<path fill="none" stroke="midnightblue" d="M471.71,-195.87C448.88,-184.8 409.07,-165.49 382.5,-152.6"/>
<polygon fill="midnightblue" stroke="midnightblue" points="383.89,-149.38 373.37,-148.17 380.84,-155.68 383.89,-149.38"/>
</g>
<!-- Node4 -->
<g id="node4" class="node">
<title>Node4</title>
<g id="a_node4"><a xlink:href="_overset_manager_8_h.html" target="_top" xlink:title=" ">
<polygon fill="white" stroke="black" points="169.5,-123.5 169.5,-153.5 313.5,-153.5 313.5,-123.5 169.5,-123.5"/>
<text text-anchor="start" x="177.5" y="-141.5" font-family="Helvetica,sans-Serif" font-size="10.00">amr&#45;wind/overset/Overset</text>
<text text-anchor="middle" x="241.5" y="-130.5" font-family="Helvetica,sans-Serif" font-size="10.00">Manager.H</text>
</a>
</g>
</g>
<!-- Node2&#45;&gt;Node4 -->
<g id="edge3" class="edge">
<title>Node2&#45;&gt;Node4</title>
<path fill="none" stroke="midnightblue" d="M456.82,-195.94C418.31,-185.84 353.42,-168.83 304.92,-156.12"/>
<polygon fill="midnightblue" stroke="midnightblue" points="305.7,-152.71 295.14,-153.56 303.93,-159.48 305.7,-152.71"/>
</g>
<!-- Node11 -->
<g id="node11" class="node">
<title>Node11</title>
<g id="a_node11"><a xlink:href="overset__types_8_h.html" target="_top" xlink:title=" ">
<polygon fill="white" stroke="black" points="552,-123.5 552,-153.5 695,-153.5 695,-123.5 552,-123.5"/>
<text text-anchor="start" x="560" y="-141.5" font-family="Helvetica,sans-Serif" font-size="10.00">amr&#45;wind/overset/overset</text>
<text text-anchor="middle" x="623.5" y="-130.5" font-family="Helvetica,sans-Serif" font-size="10.00">_types.H</text>
</a>
</g>
</g>
<!-- Node2&#45;&gt;Node11 -->
<g id="edge10" class="edge">
<title>Node2&#45;&gt;Node11</title>
<path fill="none" stroke="midnightblue" d="M507.29,-195.87C527.14,-186.24 559.82,-170.39 585.48,-157.94"/>
<polygon fill="midnightblue" stroke="midnightblue" points="587.11,-161.04 594.58,-153.53 584.06,-154.74 587.11,-161.04"/>
</g>
<!-- Node5 -->
<g id="node5" class="node">
<title>Node5</title>
<g id="a_node5"><a xlink:href="_factory_8_h.html" target="_top" xlink:title=" ">
<polygon fill="white" stroke="black" points="476.5,-62 476.5,-81 610.5,-81 610.5,-62 476.5,-62"/>
<text text-anchor="middle" x="543.5" y="-69" font-family="Helvetica,sans-Serif" font-size="10.00">amr&#45;wind/core/Factory.H</text>
</a>
</g>
</g>
<!-- Node4&#45;&gt;Node5 -->
<g id="edge4" class="edge">
<title>Node4&#45;&gt;Node5</title>
<path fill="none" stroke="midnightblue" d="M306.66,-123.48C362.9,-111.37 442.94,-94.14 494.05,-83.14"/>
<polygon fill="midnightblue" stroke="midnightblue" points="494.83,-86.55 503.87,-81.03 493.36,-79.71 494.83,-86.55"/>
</g>
<!-- Node6 -->
<g id="node6" class="node">
<title>Node6</title>
<g id="a_node6"><a xlink:title=" ">
<polygon fill="white" stroke="#bfbfbf" points="744.5,-0.5 744.5,-19.5 802.5,-19.5 802.5,-0.5 744.5,-0.5"/>
<text text-anchor="middle" x="773.5" y="-7.5" font-family="Helvetica,sans-Serif" font-size="10.00">memory</text>
</a>
</g>
</g>
<!-- Node5&#45;&gt;Node6 -->
<g id="edge5" class="edge">
<title>Node5&#45;&gt;Node6</title>
<path fill="none" stroke="midnightblue" d="M576.45,-61.98C618.17,-51.18 689.94,-32.62 734.39,-21.12"/>
<polygon fill="midnightblue" stroke="midnightblue" points="735.45,-24.46 744.25,-18.57 733.69,-17.68 735.45,-24.46"/>
</g>
<!-- Node7 -->
<g id="node7" class="node">
<title>Node7</title>
<g id="a_node7"><a xlink:title=" ">
<polygon fill="white" stroke="#bfbfbf" points="630,-0.5 630,-19.5 723,-19.5 723,-0.5 630,-0.5"/>
<text text-anchor="middle" x="676.5" y="-7.5" font-family="Helvetica,sans-Serif" font-size="10.00">unordered_map</text>
</a>
</g>
</g>
<!-- Node5&#45;&gt;Node7 -->
<g id="edge6" class="edge">
<title>Node5&#45;&gt;Node7</title>
<path fill="none" stroke="midnightblue" d="M562.56,-61.98C584.97,-51.95 622.41,-35.2 648.21,-23.65"/>
<polygon fill="midnightblue" stroke="midnightblue" points="649.78,-26.79 657.48,-19.51 646.92,-20.4 649.78,-26.79"/>
</g>
<!-- Node8 -->
<g id="node8" class="node">
<title>Node8</title>
<g id="a_node8"><a xlink:title=" ">
<polygon fill="white" stroke="#bfbfbf" points="363.5,-0.5 363.5,-19.5 423.5,-19.5 423.5,-0.5 363.5,-0.5"/>
<text text-anchor="middle" x="393.5" y="-7.5" font-family="Helvetica,sans-Serif" font-size="10.00">iostream</text>
</a>
</g>
</g>
<!-- Node5&#45;&gt;Node8 -->
<g id="edge7" class="edge">
<title>Node5&#45;&gt;Node8</title>
<path fill="none" stroke="midnightblue" d="M522.01,-61.98C496.39,-51.81 453.39,-34.76 424.26,-23.2"/>
<polygon fill="midnightblue" stroke="midnightblue" points="425.54,-19.94 414.95,-19.51 422.96,-26.45 425.54,-19.94"/>
</g>
<!-- Node9 -->
<g id="node9" class="node">
<title>Node9</title>
<g id="a_node9"><a xlink:title=" ">
<polygon fill="white" stroke="#bfbfbf" points="441.5,-0.5 441.5,-19.5 531.5,-19.5 531.5,-0.5 441.5,-0.5"/>
<text text-anchor="middle" x="486.5" y="-7.5" font-family="Helvetica,sans-Serif" font-size="10.00">AMReX_Print.H</text>
</a>
</g>
</g>
<!-- Node5&#45;&gt;Node9 -->
<g id="edge8" class="edge">
<title>Node5&#45;&gt;Node9</title>
<path fill="none" stroke="midnightblue" d="M535.33,-61.98C526.61,-52.87 512.6,-38.24 501.81,-26.98"/>
<polygon fill="midnightblue" stroke="midnightblue" points="504.1,-24.31 494.65,-19.51 499.04,-29.15 504.1,-24.31"/>
</g>
<!-- Node10 -->
<g id="node10" class="node">
<title>Node10</title>
<g id="a_node10"><a xlink:title=" ">
<polygon fill="white" stroke="#bfbfbf" points="549.5,-0.5 549.5,-19.5 611.5,-19.5 611.5,-0.5 549.5,-0.5"/>
<text text-anchor="middle" x="580.5" y="-7.5" font-family="Helvetica,sans-Serif" font-size="10.00">AMReX.H</text>
</a>
</g>
</g>
<!-- Node5&#45;&gt;Node10 -->
<g id="edge9" class="edge">
<title>Node5&#45;&gt;Node10</title>
<path fill="none" stroke="midnightblue" d="M548.8,-61.98C554.24,-53.23 562.86,-39.37 569.74,-28.31"/>
<polygon fill="midnightblue" stroke="midnightblue" points="572.9,-29.85 575.21,-19.51 566.96,-26.15 572.9,-29.85"/>
</g>
<!-- Node12 -->
<g id="node12" class="node">
<title>Node12</title>
<g id="a_node12"><a xlink:title=" ">
<polygon fill="white" stroke="#bfbfbf" points="1110,-62 1110,-81 1197,-81 1197,-62 1110,-62"/>
<text text-anchor="middle" x="1153.5" y="-69" font-family="Helvetica,sans-Serif" font-size="10.00">AMReX_Gpu.H</text>
</a>
</g>
</g>
<!-- Node11&#45;&gt;Node12 -->
<g id="edge11" class="edge">
<title>Node11&#45;&gt;Node12</title>
<path fill="none" stroke="midnightblue" d="M695.01,-124.44C698.22,-123.93 701.39,-123.45 704.5,-123 705.11,-122.91 980.6,-91.94 1099.7,-78.55"/>
<polygon fill="midnightblue" stroke="midnightblue" points="1100.15,-82.02 1109.7,-77.42 1099.37,-75.06 1100.15,-82.02"/>
</g>
<!-- Node14 -->
<g id="node14" class="node">
<title>Node14</title>
<g id="a_node14"><a xlink:title=" ">
<polygon fill="white" stroke="#bfbfbf" points="1321.5,-129 1321.5,-148 1431.5,-148 1431.5,-129 1321.5,-129"/>
<text text-anchor="middle" x="1376.5" y="-136" font-family="Helvetica,sans-Serif" font-size="10.00">AMReX_AmrCore.H</text>
</a>
</g>
</g>
<!-- Node13&#45;&gt;Node14 -->
<g id="edge13" class="edge">
<title>Node13&#45;&gt;Node14</title>
<path fill="none" stroke="midnightblue" d="M1181.87,-257.31C1217.52,-235.72 1310.31,-179.56 1353.62,-153.35"/>
<polygon fill="midnightblue" stroke="midnightblue" points="1355.57,-156.26 1362.31,-148.09 1351.94,-150.27 1355.57,-156.26"/>
</g>
<!-- Node15 -->
<g id="node15" class="node">
<title>Node15</title>
<g id="a_node15"><a xlink:href="_sim_time_8_h.html" target="_top" xlink:title=" ">
<polygon fill="white" stroke="black" points="889.5,-196 889.5,-215 1033.5,-215 1033.5,-196 889.5,-196"/>
<text text-anchor="middle" x="961.5" y="-203" font-family="Helvetica,sans-Serif" font-size="10.00">amr&#45;wind/core/SimTime.H</text>
</a>
</g>
</g>
<!-- Node13&#45;&gt;Node15 -->
<g id="edge14" class="edge">
<title>Node13&#45;&gt;Node15</title>
<path fill="none" stroke="midnightblue" d="M1137.99,-257.48C1101.88,-247.05 1040.65,-229.36 1000.65,-217.81"/>
<polygon fill="midnightblue" stroke="midnightblue" points="1001.54,-214.42 990.96,-215.01 999.6,-221.15 1001.54,-214.42"/>
</g>
<!-- Node13&#45;&gt;Node19 -->
<g id="edge18" class="edge">
<title>Node13&#45;&gt;Node19</title>
<path fill="none" stroke="midnightblue" d="M1225.94,-258.22C1306.72,-247.47 1452.49,-228.06 1540.7,-216.32"/>
<polygon fill="midnightblue" stroke="midnightblue" points="1541.18,-219.79 1550.63,-215 1540.26,-212.85 1541.18,-219.79"/>
</g>
<!-- Node13&#45;&gt;Node35 -->
<g id="edge55" class="edge">
<title>Node13&#45;&gt;Node35</title>
<path fill="none" stroke="midnightblue" d="M1171.49,-257.31C1180.28,-238.13 1201.58,-191.66 1214.66,-163.15"/>
<polygon fill="midnightblue" stroke="midnightblue" points="1217.92,-164.44 1218.9,-153.89 1211.55,-161.52 1217.92,-164.44"/>
</g>
<!-- Node39 -->
<g id="node39" class="node">
<title>Node39</title>
<g id="a_node39"><a xlink:href="_physics_8_h.html" target="_top" xlink:title=" ">
<polygon fill="white" stroke="black" points="397,-129 397,-148 534,-148 534,-129 397,-129"/>
<text text-anchor="middle" x="465.5" y="-136" font-family="Helvetica,sans-Serif" font-size="10.00">amr&#45;wind/core/Physics.H</text>
</a>
</g>
</g>
<!-- Node13&#45;&gt;Node39 -->
<g id="edge67" class="edge">
<title>Node13&#45;&gt;Node39</title>
<path fill="none" stroke="midnightblue" d="M1109.4,-257.56C1051.35,-248.97 959.6,-234.96 880.5,-221 748.67,-197.73 594.13,-166.27 516.09,-150.09"/>
<polygon fill="midnightblue" stroke="midnightblue" points="516.55,-146.61 506.05,-148 515.13,-153.46 516.55,-146.61"/>
</g>
<!-- Node16 -->
<g id="node16" class="node">
<title>Node16</title>
<g id="a_node16"><a xlink:title=" ">
<polygon fill="white" stroke="#bfbfbf" points="713.5,-129 713.5,-148 805.5,-148 805.5,-129 713.5,-129"/>
<text text-anchor="middle" x="759.5" y="-136" font-family="Helvetica,sans-Serif" font-size="10.00">AMReX_REAL.H</text>
</a>
</g>
</g>
<!-- Node15&#45;&gt;Node16 -->
<g id="edge15" class="edge">
<title>Node15&#45;&gt;Node16</title>
<path fill="none" stroke="midnightblue" d="M934.68,-195.87C898.96,-184.38 835.66,-164.01 795.73,-151.16"/>
<polygon fill="midnightblue" stroke="midnightblue" points="796.7,-147.8 786.11,-148.06 794.56,-154.46 796.7,-147.8"/>
</g>
<!-- Node17 -->
<g id="node17" class="node">
<title>Node17</title>
<g id="a_node17"><a xlink:title=" ">
<polygon fill="white" stroke="#bfbfbf" points="823.5,-129 823.5,-148 957.5,-148 957.5,-129 823.5,-129"/>
<text text-anchor="middle" x="890.5" y="-136" font-family="Helvetica,sans-Serif" font-size="10.00">AMReX_GpuQualifiers.H</text>
</a>
</g>
</g>
<!-- Node15&#45;&gt;Node17 -->
<g id="edge16" class="edge">
<title>Node15&#45;&gt;Node17</title>
<path fill="none" stroke="midnightblue" d="M951.92,-195.73C940.53,-185.31 921.31,-167.71 907.4,-154.97"/>
<polygon fill="midnightblue" stroke="midnightblue" points="909.66,-152.3 899.92,-148.13 904.94,-157.46 909.66,-152.3"/>
</g>
<!-- Node18 -->
<g id="node18" class="node">
<title>Node18</title>
<g id="a_node18"><a xlink:title=" ">
<polygon fill="white" stroke="#bfbfbf" points="975.5,-129 975.5,-148 1091.5,-148 1091.5,-129 975.5,-129"/>
<text text-anchor="middle" x="1033.5" y="-136" font-family="Helvetica,sans-Serif" font-size="10.00">AMReX_Extension.H</text>
</a>
</g>
</g>
<!-- Node15&#45;&gt;Node18 -->
<g id="edge17" class="edge">
<title>Node15&#45;&gt;Node18</title>
<path fill="none" stroke="midnightblue" d="M971.21,-195.73C982.76,-185.31 1002.25,-167.71 1016.36,-154.97"/>
<polygon fill="midnightblue" stroke="midnightblue" points="1018.87,-157.43 1023.94,-148.13 1014.18,-152.23 1018.87,-157.43"/>
</g>
<!-- Node19&#45;&gt;Node7 -->
<g id="edge20" class="edge">
<title>Node19&#45;&gt;Node7</title>
<path fill="none" stroke="midnightblue" d="M1539.67,-201.63C1424.6,-196.36 1210.1,-182.92 1139.5,-154 1119.01,-145.61 1121.08,-131.17 1100.5,-123 1012.2,-87.94 738.79,-156.95 674.5,-87 660.51,-71.77 664.39,-46.72 669.51,-29.57"/>
<polygon fill="midnightblue" stroke="midnightblue" points="672.99,-30.22 672.88,-19.62 666.36,-27.97 672.99,-30.22"/>
</g>
<!-- Node19&#45;&gt;Node14 -->
<g id="edge52" class="edge">
<title>Node19&#45;&gt;Node14</title>
<path fill="none" stroke="midnightblue" d="M1582.9,-195.87C1540.37,-184.25 1464.65,-163.58 1417.7,-150.75"/>
<polygon fill="midnightblue" stroke="midnightblue" points="1418.43,-147.32 1407.86,-148.06 1416.58,-154.07 1418.43,-147.32"/>
</g>
<!-- Node20 -->
<g id="node20" class="node">
<title>Node20</title>
<g id="a_node20"><a xlink:title=" ">
<polygon fill="white" stroke="#bfbfbf" points="1340.5,-0.5 1340.5,-19.5 1384.5,-19.5 1384.5,-0.5 1340.5,-0.5"/>
<text text-anchor="middle" x="1362.5" y="-7.5" font-family="Helvetica,sans-Serif" font-size="10.00">string</text>
</a>
</g>
</g>
<!-- Node19&#45;&gt;Node20 -->
<g id="edge19" class="edge">
<title>Node19&#45;&gt;Node20</title>
<path fill="none" stroke="midnightblue" d="M1599.13,-195.93C1569.36,-179.64 1501.37,-143.97 1440.5,-123 1372.81,-99.69 1328.11,-142.99 1283.5,-87 1274.92,-76.22 1276.58,-67.91 1283.5,-56 1293.64,-38.55 1313.37,-27.3 1330.57,-20.42"/>
<polygon fill="midnightblue" stroke="midnightblue" points="1332.13,-23.57 1340.32,-16.85 1329.72,-17 1332.13,-23.57"/>
</g>
<!-- Node21 -->
<g id="node21" class="node">
<title>Node21</title>
<g id="a_node21"><a xlink:href="_field_desc_types_8_h.html" target="_top" xlink:title=" ">
<polygon fill="white" stroke="black" points="1879.5,-0.5 1879.5,-19.5 2055.5,-19.5 2055.5,-0.5 1879.5,-0.5"/>
<text text-anchor="middle" x="1967.5" y="-7.5" font-family="Helvetica,sans-Serif" font-size="10.00">amr&#45;wind/core/FieldDescTypes.H</text>
</a>
</g>
</g>
<!-- Node19&#45;&gt;Node21 -->
<g id="edge21" class="edge">
<title>Node19&#45;&gt;Node21</title>
<path fill="none" stroke="midnightblue" d="M1661.08,-195.99C1675,-193.72 1690.33,-191.48 1704.5,-190 1744.99,-185.76 2407.14,-182.21 2436.5,-154 2467.97,-123.77 2471.86,-88.28 2442.5,-56 2429.98,-42.24 2201.16,-25.64 2065.76,-16.95"/>
<polygon fill="midnightblue" stroke="midnightblue" points="2065.97,-13.46 2055.77,-16.31 2065.53,-20.44 2065.97,-13.46"/>
</g>
<!-- Node22 -->
<g id="node22" class="node">
<title>Node22</title>
<g id="a_node22"><a xlink:href="_field_utils_8_h.html" target="_top" xlink:title=" ">
<polygon fill="white" stroke="black" points="2515.5,-62 2515.5,-81 2661.5,-81 2661.5,-62 2515.5,-62"/>
<text text-anchor="middle" x="2588.5" y="-69" font-family="Helvetica,sans-Serif" font-size="10.00">amr&#45;wind/core/FieldUtils.H</text>
</a>
</g>
</g>
<!-- Node19&#45;&gt;Node22 -->
<g id="edge22" class="edge">
<title>Node19&#45;&gt;Node22</title>
<path fill="none" stroke="midnightblue" d="M1661.08,-195.95C1675,-193.68 1690.33,-191.46 1704.5,-190 1792.68,-180.94 2419.82,-188.43 2501.5,-154 2533.91,-140.34 2561.64,-108.89 2576.61,-89.3"/>
<polygon fill="midnightblue" stroke="midnightblue" points="2579.44,-91.36 2582.56,-81.24 2573.81,-87.2 2579.44,-91.36"/>
</g>
<!-- Node23 -->
<g id="node23" class="node">
<title>Node23</title>
<g id="a_node23"><a xlink:title=" ">
<polygon fill="white" stroke="#bfbfbf" points="2189,-0.5 2189,-19.5 2298,-19.5 2298,-0.5 2189,-0.5"/>
<text text-anchor="middle" x="2243.5" y="-7.5" font-family="Helvetica,sans-Serif" font-size="10.00">AMReX_MultiFab.H</text>
</a>
</g>
</g>
<!-- Node19&#45;&gt;Node23 -->
<g id="edge53" class="edge">
<title>Node19&#45;&gt;Node23</title>
<path fill="none" stroke="midnightblue" d="M1661.08,-195.94C1675,-193.66 1690.33,-191.44 1704.5,-190 1888.61,-171.25 2357.35,-200.4 2536.5,-154 2600.96,-137.3 2635.49,-143.64 2670.5,-87 2677.74,-75.28 2679.72,-66.24 2670.5,-56 2646.74,-29.61 2421.78,-17.57 2308.3,-13.14"/>
<polygon fill="midnightblue" stroke="midnightblue" points="2308.13,-9.64 2298.01,-12.75 2307.87,-16.63 2308.13,-9.64"/>
</g>
<!-- Node25 -->
<g id="node25" class="node">
<title>Node25</title>
<g id="a_node25"><a xlink:href="_field_8_h.html" target="_top" xlink:title=" ">
<polygon fill="white" stroke="black" points="1706.5,-129 1706.5,-148 1830.5,-148 1830.5,-129 1706.5,-129"/>
<text text-anchor="middle" x="1768.5" y="-136" font-family="Helvetica,sans-Serif" font-size="10.00">amr&#45;wind/core/Field.H</text>
</a>
</g>
</g>
<!-- Node19&#45;&gt;Node25 -->
<g id="edge26" class="edge">
<title>Node19&#45;&gt;Node25</title>
<path fill="none" stroke="midnightblue" d="M1634.95,-195.87C1661.53,-184.65 1708.14,-164.98 1738.67,-152.09"/>
<polygon fill="midnightblue" stroke="midnightblue" points="1740.11,-155.28 1747.97,-148.17 1737.39,-148.83 1740.11,-155.28"/>
</g>
<!-- Node31 -->
<g id="node31" class="node">
<title>Node31</title>
<g id="a_node31"><a xlink:href="_int_field_8_h.html" target="_top" xlink:title=" ">
<polygon fill="white" stroke="black" points="2290,-129 2290,-148 2427,-148 2427,-129 2290,-129"/>
<text text-anchor="middle" x="2358.5" y="-136" font-family="Helvetica,sans-Serif" font-size="10.00">amr&#45;wind/core/IntField.H</text>
</a>
</g>
</g>
<!-- Node19&#45;&gt;Node31 -->
<g id="edge41" class="edge">
<title>Node19&#45;&gt;Node31</title>
<path fill="none" stroke="midnightblue" d="M1662.97,-195.94C1676.39,-193.77 1690.98,-191.61 1704.5,-190 1911.28,-165.4 2156.34,-150.18 2279.49,-143.49"/>
<polygon fill="midnightblue" stroke="midnightblue" points="2279.78,-146.98 2289.58,-142.94 2279.41,-139.99 2279.78,-146.98"/>
</g>
<!-- Node32 -->
<g id="node32" class="node">
<title>Node32</title>
<g id="a_node32"><a xlink:title=" ">
<polygon fill="white" stroke="#bfbfbf" points="2271.5,-62 2271.5,-81 2383.5,-81 2383.5,-62 2271.5,-62"/>
<text text-anchor="middle" x="2327.5" y="-69" font-family="Helvetica,sans-Serif" font-size="10.00">AMReX_iMultiFab.H</text>
</a>
</g>
</g>
<!-- Node19&#45;&gt;Node32 -->
<g id="edge54" class="edge">
<title>Node19&#45;&gt;Node32</title>
<path fill="none" stroke="midnightblue" d="M1660.46,-195.99C1786.05,-172.74 2134.73,-108.19 2271.46,-82.87"/>
<polygon fill="midnightblue" stroke="midnightblue" points="2272.13,-86.31 2281.32,-81.05 2270.85,-79.43 2272.13,-86.31"/>
</g>
<!-- Node33 -->
<g id="node33" class="node">
<title>Node33</title>
<g id="a_node33"><a xlink:href="_scratch_field_8_h.html" target="_top" xlink:title=" ">
<polygon fill="white" stroke="black" points="1528.5,-129 1528.5,-148 1688.5,-148 1688.5,-129 1528.5,-129"/>
<text text-anchor="middle" x="1608.5" y="-136" font-family="Helvetica,sans-Serif" font-size="10.00">amr&#45;wind/core/ScratchField.H</text>
</a>
</g>
</g>
<!-- Node19&#45;&gt;Node33 -->
<g id="edge45" class="edge">
<title>Node19&#45;&gt;Node33</title>
<path fill="none" stroke="midnightblue" d="M1613.69,-195.73C1612.81,-186.18 1611.37,-170.62 1610.23,-158.28"/>
<polygon fill="midnightblue" stroke="midnightblue" points="1613.7,-157.76 1609.3,-148.13 1606.73,-158.41 1613.7,-157.76"/>
</g>
<!-- Node22&#45;&gt;Node21 -->
<g id="edge23" class="edge">
<title>Node22&#45;&gt;Node21</title>
<path fill="none" stroke="midnightblue" d="M2541.64,-61.97C2528.67,-59.81 2514.57,-57.64 2501.5,-56 2349.91,-37.01 2173.09,-23.87 2065.77,-16.88"/>
<polygon fill="midnightblue" stroke="midnightblue" points="2065.81,-13.38 2055.61,-16.23 2065.36,-20.37 2065.81,-13.38"/>
</g>
<!-- Node22&#45;&gt;Node23 -->
<g id="edge24" class="edge">
<title>Node22&#45;&gt;Node23</title>
<path fill="none" stroke="midnightblue" d="M2539.07,-61.98C2476.69,-51.22 2369.5,-32.73 2302.78,-21.22"/>
<polygon fill="midnightblue" stroke="midnightblue" points="2303.29,-17.76 2292.84,-19.51 2302.1,-24.66 2303.29,-17.76"/>
</g>
<!-- Node24 -->
<g id="node24" class="node">
<title>Node24</title>
<g id="a_node24"><a xlink:title=" ">
<polygon fill="white" stroke="#bfbfbf" points="2526.5,-0.5 2526.5,-19.5 2650.5,-19.5 2650.5,-0.5 2526.5,-0.5"/>
<text text-anchor="middle" x="2588.5" y="-7.5" font-family="Helvetica,sans-Serif" font-size="10.00">AMReX_Interpolater.H</text>
</a>
</g>
</g>
<!-- Node22&#45;&gt;Node24 -->
<g id="edge25" class="edge">
<title>Node22&#45;&gt;Node24</title>
<path fill="none" stroke="midnightblue" d="M2588.5,-61.98C2588.5,-53.58 2588.5,-40.48 2588.5,-29.66"/>
<polygon fill="midnightblue" stroke="midnightblue" points="2592,-29.51 2588.5,-19.51 2585,-29.51 2592,-29.51"/>
</g>
<!-- Node25&#45;&gt;Node6 -->
<g id="edge28" class="edge">
<title>Node25&#45;&gt;Node6</title>
<path fill="none" stroke="midnightblue" d="M1757.92,-128.75C1735.88,-111.12 1682.74,-71.67 1630.5,-56 1475.78,-9.58 1065.75,-29.54 904.5,-20 873.7,-18.18 838.85,-15.77 812.84,-13.9"/>
<polygon fill="midnightblue" stroke="midnightblue" points="812.85,-10.39 802.63,-13.16 812.35,-17.37 812.85,-10.39"/>
</g>
<!-- Node25&#45;&gt;Node7 -->
<g id="edge29" class="edge">
<title>Node25&#45;&gt;Node7</title>
<path fill="none" stroke="midnightblue" d="M1732.57,-128.96C1721.39,-126.63 1708.99,-124.37 1697.5,-123 1642.24,-116.41 739.95,-121.76 696.5,-87 679.64,-73.51 675.98,-47.66 675.65,-29.88"/>
<polygon fill="midnightblue" stroke="midnightblue" points="679.15,-29.86 675.79,-19.81 672.15,-29.76 679.15,-29.86"/>
</g>
<!-- Node25&#45;&gt;Node12 -->
<g id="edge33" class="edge">
<title>Node25&#45;&gt;Node12</title>
<path fill="none" stroke="midnightblue" d="M1730.69,-128.94C1720,-126.75 1708.33,-124.57 1697.5,-123 1514.72,-96.48 1467.29,-105.24 1283.5,-87 1258.4,-84.51 1230.61,-81.45 1207.19,-78.79"/>
<polygon fill="midnightblue" stroke="midnightblue" points="1207.44,-75.29 1197.1,-77.63 1206.64,-82.25 1207.44,-75.29"/>
</g>
<!-- Node25&#45;&gt;Node20 -->
<g id="edge27" class="edge">
<title>Node25&#45;&gt;Node20</title>
<path fill="none" stroke="midnightblue" d="M1764.22,-128.78C1755.25,-111.56 1732.72,-73.35 1701.5,-56 1649.2,-26.93 1469.06,-15.74 1394.85,-12.29"/>
<polygon fill="midnightblue" stroke="midnightblue" points="1394.84,-8.79 1384.69,-11.84 1394.53,-15.78 1394.84,-8.79"/>
</g>
<!-- Node25&#45;&gt;Node21 -->
<g id="edge35" class="edge">
<title>Node25&#45;&gt;Node21</title>
<path fill="none" stroke="midnightblue" d="M1812.34,-128.93C1842.15,-121.5 1881.31,-108.48 1910.5,-87 1931.71,-71.39 1948.63,-45.69 1958.37,-28.56"/>
<polygon fill="midnightblue" stroke="midnightblue" points="1961.54,-30.06 1963.25,-19.6 1955.39,-26.71 1961.54,-30.06"/>
</g>
<!-- Node25&#45;&gt;Node23 -->
<g id="edge31" class="edge">
<title>Node25&#45;&gt;Node23</title>
<path fill="none" stroke="midnightblue" d="M1830.67,-134.52C1948.54,-128.31 2195.41,-112.42 2224.5,-87 2240.63,-72.91 2244.11,-47.39 2244.39,-29.84"/>
<polygon fill="midnightblue" stroke="midnightblue" points="2247.89,-29.59 2244.22,-19.65 2240.89,-29.71 2247.89,-29.59"/>
</g>
<!-- Node26 -->
<g id="node26" class="node">
<title>Node26</title>
<g id="a_node26"><a xlink:title=" ">
<polygon fill="white" stroke="#bfbfbf" points="2033.5,-62 2033.5,-81 2097.5,-81 2097.5,-62 2033.5,-62"/>
<text text-anchor="middle" x="2065.5" y="-69" font-family="Helvetica,sans-Serif" font-size="10.00">algorithm</text>
</a>
</g>
</g>
<!-- Node25&#45;&gt;Node26 -->
<g id="edge30" class="edge">
<title>Node25&#45;&gt;Node26</title>
<path fill="none" stroke="midnightblue" d="M1819.34,-128.92C1870.3,-119.93 1950.84,-104.67 2019.5,-87 2022.93,-86.12 2026.48,-85.13 2030.02,-84.1"/>
<polygon fill="midnightblue" stroke="midnightblue" points="2031.3,-87.37 2039.85,-81.12 2029.27,-80.67 2031.3,-87.37"/>
</g>
<!-- Node27 -->
<g id="node27" class="node">
<title>Node27</title>
<g id="a_node27"><a xlink:title=" ">
<polygon fill="white" stroke="#bfbfbf" points="2116,-62 2116,-81 2215,-81 2215,-62 2116,-62"/>
<text text-anchor="middle" x="2165.5" y="-69" font-family="Helvetica,sans-Serif" font-size="10.00">AMReX_BCRec.H</text>
</a>
</g>
</g>
<!-- Node25&#45;&gt;Node27 -->
<g id="edge32" class="edge">
<title>Node25&#45;&gt;Node27</title>
<path fill="none" stroke="midnightblue" d="M1830.78,-129.95C1898.83,-121.3 2010.89,-105.85 2106.5,-87 2111.93,-85.93 2117.62,-84.69 2123.23,-83.39"/>
<polygon fill="midnightblue" stroke="midnightblue" points="2124.25,-86.75 2133.16,-81.02 2122.62,-79.94 2124.25,-86.75"/>
</g>
<!-- Node28 -->
<g id="node28" class="node">
<title>Node28</title>
<g id="a_node28"><a xlink:href="incflo__enums_8_h.html" target="_top" xlink:title=" ">
<polygon fill="white" stroke="black" points="1292,-62 1292,-81 1433,-81 1433,-62 1292,-62"/>
<text text-anchor="middle" x="1362.5" y="-69" font-family="Helvetica,sans-Serif" font-size="10.00">amr&#45;wind/incflo_enums.H</text>
</a>
</g>
</g>
<!-- Node25&#45;&gt;Node28 -->
<g id="edge34" class="edge">
<title>Node25&#45;&gt;Node28</title>
<path fill="none" stroke="midnightblue" d="M1728.39,-128.93C1718.33,-126.88 1707.53,-124.78 1697.5,-123 1607.71,-107.07 1503.81,-91.92 1435.82,-82.44"/>
<polygon fill="midnightblue" stroke="midnightblue" points="1436.02,-78.93 1425.64,-81.02 1435.06,-85.87 1436.02,-78.93"/>
</g>
<!-- Node29 -->
<g id="node29" class="node">
<title>Node29</title>
<g id="a_node29"><a xlink:href="_view_field_8_h.html" target="_top" xlink:title=" ">
<polygon fill="white" stroke="black" points="1753.5,-62 1753.5,-81 1901.5,-81 1901.5,-62 1753.5,-62"/>
<text text-anchor="middle" x="1827.5" y="-69" font-family="Helvetica,sans-Serif" font-size="10.00">amr&#45;wind/core/ViewField.H</text>
</a>
</g>
</g>
<!-- Node25&#45;&gt;Node29 -->
<g id="edge36" class="edge">
<title>Node25&#45;&gt;Node29</title>
<path fill="none" stroke="midnightblue" d="M1776.46,-128.73C1785.75,-118.5 1801.3,-101.36 1812.8,-88.69"/>
<polygon fill="midnightblue" stroke="midnightblue" points="1815.54,-90.88 1819.67,-81.13 1810.36,-86.18 1815.54,-90.88"/>
</g>
<!-- Node29&#45;&gt;Node20 -->
<g id="edge37" class="edge">
<title>Node29&#45;&gt;Node20</title>
<path fill="none" stroke="midnightblue" d="M1778.22,-61.98C1765.62,-59.91 1752.07,-57.78 1739.5,-56 1612.15,-37.92 1459.9,-21.26 1394.7,-14.35"/>
<polygon fill="midnightblue" stroke="midnightblue" points="1394.95,-10.86 1384.64,-13.29 1394.22,-17.82 1394.95,-10.86"/>
</g>
<!-- Node29&#45;&gt;Node21 -->
<g id="edge38" class="edge">
<title>Node29&#45;&gt;Node21</title>
<path fill="none" stroke="midnightblue" d="M1847.56,-61.98C1871.26,-51.9 1910.91,-35.05 1938.08,-23.5"/>
<polygon fill="midnightblue" stroke="midnightblue" points="1939.64,-26.64 1947.48,-19.51 1936.91,-20.2 1939.64,-26.64"/>
</g>
<!-- Node29&#45;&gt;Node23 -->
<g id="edge39" class="edge">
<title>Node29&#45;&gt;Node23</title>
<path fill="none" stroke="midnightblue" d="M1877.72,-61.98C1890.06,-59.96 1903.25,-57.85 1915.5,-56 2006.67,-42.24 2112.38,-28.05 2178.6,-19.38"/>
<polygon fill="midnightblue" stroke="midnightblue" points="2179.42,-22.8 2188.88,-18.04 2178.51,-15.86 2179.42,-22.8"/>
</g>
<!-- Node30 -->
<g id="node30" class="node">
<title>Node30</title>
<g id="a_node30"><a xlink:title=" ">
<polygon fill="white" stroke="#bfbfbf" points="986.5,-0.5 986.5,-19.5 1084.5,-19.5 1084.5,-0.5 986.5,-0.5"/>
<text text-anchor="middle" x="1035.5" y="-7.5" font-family="Helvetica,sans-Serif" font-size="10.00">AMReX_Vector.H</text>
</a>
</g>
</g>
<!-- Node29&#45;&gt;Node30 -->
<g id="edge40" class="edge">
<title>Node29&#45;&gt;Node30</title>
<path fill="none" stroke="midnightblue" d="M1758.57,-61.97C1740.05,-59.85 1720.03,-57.69 1701.5,-56 1478,-35.6 1211.53,-20.31 1094.99,-14.08"/>
<polygon fill="midnightblue" stroke="midnightblue" points="1095.03,-10.57 1084.86,-13.54 1094.66,-17.56 1095.03,-10.57"/>
</g>
<!-- Node31&#45;&gt;Node20 -->
<g id="edge42" class="edge">
<title>Node31&#45;&gt;Node20</title>
<path fill="none" stroke="midnightblue" d="M2367.63,-128.75C2383.55,-112.48 2412.86,-77.26 2392.5,-56 2374.82,-37.53 1567.42,-16.16 1394.77,-11.8"/>
<polygon fill="midnightblue" stroke="midnightblue" points="1394.64,-8.3 1384.55,-11.54 1394.46,-15.29 1394.64,-8.3"/>
</g>
<!-- Node31&#45;&gt;Node21 -->
<g id="edge43" class="edge">
<title>Node31&#45;&gt;Node21</title>
<path fill="none" stroke="midnightblue" d="M2374.64,-128.95C2401.15,-113.85 2448.75,-81.65 2425.5,-56 2413.55,-42.82 2196.53,-26.2 2065.58,-17.3"/>
<polygon fill="midnightblue" stroke="midnightblue" points="2065.74,-13.81 2055.52,-16.62 2065.26,-20.79 2065.74,-13.81"/>
</g>
<!-- Node31&#45;&gt;Node32 -->
<g id="edge44" class="edge">
<title>Node31&#45;&gt;Node32</title>
<path fill="none" stroke="midnightblue" d="M2354.32,-128.73C2349.62,-118.89 2341.88,-102.66 2335.92,-90.16"/>
<polygon fill="midnightblue" stroke="midnightblue" points="2339.08,-88.65 2331.61,-81.13 2332.76,-91.66 2339.08,-88.65"/>
</g>
<!-- Node33&#45;&gt;Node20 -->
<g id="edge46" class="edge">
<title>Node33&#45;&gt;Node20</title>
<path fill="none" stroke="midnightblue" d="M1580.42,-128.98C1553.94,-120.34 1513.63,-105.61 1481.5,-87 1462.34,-75.9 1460.87,-68.36 1442.5,-56 1425.2,-44.37 1404.68,-32.87 1388.76,-24.41"/>
<polygon fill="midnightblue" stroke="midnightblue" points="1389.99,-21.1 1379.51,-19.56 1386.74,-27.3 1389.99,-21.1"/>
</g>
<!-- Node33&#45;&gt;Node21 -->
<g id="edge47" class="edge">
<title>Node33&#45;&gt;Node21</title>
<path fill="none" stroke="midnightblue" d="M1619.8,-128.87C1642.28,-112.15 1694.7,-75.29 1744.5,-56 1788.74,-38.87 1840.56,-27.9 1883.11,-21.09"/>
<polygon fill="midnightblue" stroke="midnightblue" points="1883.81,-24.53 1893.15,-19.54 1882.73,-17.61 1883.81,-24.53"/>
</g>
<!-- Node33&#45;&gt;Node23 -->
<g id="edge49" class="edge">
<title>Node33&#45;&gt;Node23</title>
<path fill="none" stroke="midnightblue" d="M1660.25,-128.92C1672.46,-126.94 1685.43,-124.87 1697.5,-123 1806.7,-106.12 1836.59,-114.92 1943.5,-87 1980.8,-77.26 1987.5,-66.8 2024.5,-56 2076,-40.96 2135.74,-29.04 2179.8,-21.26"/>
<polygon fill="midnightblue" stroke="midnightblue" points="2180.55,-24.68 2189.8,-19.52 2179.35,-17.79 2180.55,-24.68"/>
</g>
<!-- Node33&#45;&gt;Node29 -->
<g id="edge48" class="edge">
<title>Node33&#45;&gt;Node29</title>
<path fill="none" stroke="midnightblue" d="M1637.58,-128.87C1676.55,-117.3 1745.8,-96.75 1789.04,-83.91"/>
<polygon fill="midnightblue" stroke="midnightblue" points="1790.06,-87.26 1798.65,-81.06 1788.06,-80.55 1790.06,-87.26"/>
</g>
<!-- Node33&#45;&gt;Node30 -->
<g id="edge50" class="edge">
<title>Node33&#45;&gt;Node30</title>
<path fill="none" stroke="midnightblue" d="M1528.3,-130.27C1387.76,-117.51 1110.87,-91.85 1101.5,-87 1076.36,-73.99 1056.61,-47.01 1045.49,-28.95"/>
<polygon fill="midnightblue" stroke="midnightblue" points="1048.31,-26.84 1040.23,-19.98 1042.27,-30.38 1048.31,-26.84"/>
</g>
<!-- Node34 -->
<g id="node34" class="node">
<title>Node34</title>
<g id="a_node34"><a xlink:title=" ">
<polygon fill="white" stroke="#bfbfbf" points="1490,-62 1490,-81 1621,-81 1621,-62 1490,-62"/>
<text text-anchor="middle" x="1555.5" y="-69" font-family="Helvetica,sans-Serif" font-size="10.00">AMReX_PhysBCFunct.H</text>
</a>
</g>
</g>
<!-- Node33&#45;&gt;Node34 -->
<g id="edge51" class="edge">
<title>Node33&#45;&gt;Node34</title>
<path fill="none" stroke="midnightblue" d="M1601.35,-128.73C1593.09,-118.6 1579.3,-101.69 1569,-89.06"/>
<polygon fill="midnightblue" stroke="midnightblue" points="1571.57,-86.67 1562.53,-81.13 1566.14,-91.09 1571.57,-86.67"/>
</g>
<!-- Node35&#45;&gt;Node5 -->
<g id="edge57" class="edge">
<title>Node35&#45;&gt;Node5</title>
<path fill="none" stroke="midnightblue" d="M1147.86,-128.09C1132.19,-126.3 1115.83,-124.52 1100.5,-123 906.13,-103.74 856.82,-106.82 662.5,-87 648.67,-85.59 633.96,-83.93 619.76,-82.24"/>
<polygon fill="midnightblue" stroke="midnightblue" points="619.89,-78.73 609.54,-81.01 619.05,-85.68 619.89,-78.73"/>
</g>
<!-- Node35&#45;&gt;Node20 -->
<g id="edge56" class="edge">
<title>Node35&#45;&gt;Node20</title>
<path fill="none" stroke="midnightblue" d="M1169.96,-123.45C1126.01,-109.67 1075.94,-86.34 1101.5,-56 1130.41,-21.68 1266.99,-13.53 1330.23,-11.6"/>
<polygon fill="midnightblue" stroke="midnightblue" points="1330.53,-15.09 1340.43,-11.32 1330.34,-8.1 1330.53,-15.09"/>
</g>
<!-- Node35&#45;&gt;Node21 -->
<g id="edge65" class="edge">
<title>Node35&#45;&gt;Node21</title>
<path fill="none" stroke="midnightblue" d="M1230.99,-123.29C1239.21,-104.21 1256.66,-70.98 1283.5,-56 1333.32,-28.2 1692.36,-16.8 1869.36,-12.83"/>
<polygon fill="midnightblue" stroke="midnightblue" points="1869.54,-16.32 1879.46,-12.6 1869.39,-9.32 1869.54,-16.32"/>
</g>
<!-- Node35&#45;&gt;Node28 -->
<g id="edge66" class="edge">
<title>Node35&#45;&gt;Node28</title>
<path fill="none" stroke="midnightblue" d="M1255.23,-123.4C1279.05,-112.09 1312.21,-96.36 1335.33,-85.39"/>
<polygon fill="midnightblue" stroke="midnightblue" points="1337.04,-88.46 1344.57,-81.01 1334.03,-82.13 1337.04,-88.46"/>
</g>
<!-- Node36 -->
<g id="node36" class="node">
<title>Node36</title>
<g id="a_node36"><a xlink:href="_coll_mgr_8_h.html" target="_top" xlink:title=" ">
<polygon fill="white" stroke="black" points="705,-62 705,-81 842,-81 842,-62 705,-62"/>
<text text-anchor="middle" x="773.5" y="-69" font-family="Helvetica,sans-Serif" font-size="10.00">amr&#45;wind/core/CollMgr.H</text>
</a>
</g>
</g>
<!-- Node35&#45;&gt;Node36 -->
<g id="edge58" class="edge">
<title>Node35&#45;&gt;Node36</title>
<path fill="none" stroke="midnightblue" d="M1147.72,-125.08C1142.91,-124.36 1138.14,-123.66 1133.5,-123 1008.41,-105.16 976.33,-106.55 851.5,-87 843.57,-85.76 835.2,-84.33 827.01,-82.86"/>
<polygon fill="midnightblue" stroke="midnightblue" points="827.62,-79.42 817.15,-81.07 826.36,-86.3 827.62,-79.42"/>
</g>
<!-- Node37 -->
<g id="node37" class="node">
<title>Node37</title>
<g id="a_node37"><a xlink:href="_p_d_e_fields_8_h.html" target="_top" xlink:title=" ">
<polygon fill="white" stroke="black" points="860,-56.5 860,-86.5 1015,-86.5 1015,-56.5 860,-56.5"/>
<text text-anchor="start" x="868" y="-74.5" font-family="Helvetica,sans-Serif" font-size="10.00">amr&#45;wind/equation_systems</text>
<text text-anchor="middle" x="937.5" y="-63.5" font-family="Helvetica,sans-Serif" font-size="10.00">/PDEFields.H</text>
</a>
</g>
</g>
<!-- Node35&#45;&gt;Node37 -->
<g id="edge63" class="edge">
<title>Node35&#45;&gt;Node37</title>
<path fill="none" stroke="midnightblue" d="M1163.36,-123.48C1118.28,-113.3 1057.18,-99.51 1009.89,-88.84"/>
<polygon fill="midnightblue" stroke="midnightblue" points="1010.55,-85.4 1000.02,-86.61 1009.01,-92.23 1010.55,-85.4"/>
</g>
<!-- Node36&#45;&gt;Node6 -->
<g id="edge60" class="edge">
<title>Node36&#45;&gt;Node6</title>
<path fill="none" stroke="midnightblue" d="M773.5,-61.98C773.5,-53.58 773.5,-40.48 773.5,-29.66"/>
<polygon fill="midnightblue" stroke="midnightblue" points="777,-29.51 773.5,-19.51 770,-29.51 777,-29.51"/>
</g>
<!-- Node36&#45;&gt;Node7 -->
<g id="edge61" class="edge">
<title>Node36&#45;&gt;Node7</title>
<path fill="none" stroke="midnightblue" d="M759.6,-61.98C743.83,-52.3 717.86,-36.37 699.15,-24.89"/>
<polygon fill="midnightblue" stroke="midnightblue" points="700.73,-21.75 690.37,-19.51 697.07,-27.72 700.73,-21.75"/>
</g>
<!-- Node36&#45;&gt;Node20 -->
<g id="edge59" class="edge">
<title>Node36&#45;&gt;Node20</title>
<path fill="none" stroke="midnightblue" d="M815.48,-61.93C827.11,-59.77 839.76,-57.6 851.5,-56 1031.58,-31.39 1249.3,-17.42 1330.2,-12.76"/>
<polygon fill="midnightblue" stroke="midnightblue" points="1330.47,-16.26 1340.25,-12.19 1330.07,-9.27 1330.47,-16.26"/>
</g>
<!-- Node36&#45;&gt;Node30 -->
<g id="edge62" class="edge">
<title>Node36&#45;&gt;Node30</title>
<path fill="none" stroke="midnightblue" d="M811.04,-61.98C857.73,-51.37 937.48,-33.26 988.28,-21.72"/>
<polygon fill="midnightblue" stroke="midnightblue" points="989.05,-25.14 998.03,-19.51 987.5,-18.31 989.05,-25.14"/>
</g>
<!-- Node38 -->
<g id="node38" class="node">
<title>Node38</title>
<g id="a_node38"><a xlink:title=" ">
<polygon fill="white" stroke="#bfbfbf" points="913.5,-0.5 913.5,-19.5 961.5,-19.5 961.5,-0.5 913.5,-0.5"/>
<text text-anchor="middle" x="937.5" y="-7.5" font-family="Helvetica,sans-Serif" font-size="10.00">iosfwd</text>
</a>
</g>
</g>
<!-- Node37&#45;&gt;Node38 -->
<g id="edge64" class="edge">
<title>Node37&#45;&gt;Node38</title>
<path fill="none" stroke="midnightblue" d="M937.5,-56.4C937.5,-48.47 937.5,-38.46 937.5,-29.86"/>
<polygon fill="midnightblue" stroke="midnightblue" points="941,-29.66 937.5,-19.66 934,-29.66 941,-29.66"/>
</g>
<!-- Node39&#45;&gt;Node5 -->
<g id="edge68" class="edge">
<title>Node39&#45;&gt;Node5</title>
<path fill="none" stroke="midnightblue" d="M476.02,-128.73C488.65,-118.21 510.04,-100.38 525.36,-87.62"/>
<polygon fill="midnightblue" stroke="midnightblue" points="527.71,-90.22 533.15,-81.13 523.22,-84.84 527.71,-90.22"/>
</g>
<!-- Node39&#45;&gt;Node23 -->
<g id="edge70" class="edge">
<title>Node39&#45;&gt;Node23</title>
<path fill="none" stroke="midnightblue" d="M504.6,-128.98C516.98,-126.62 530.76,-124.34 543.5,-123 694.6,-107.07 1769.98,-144.8 1910.5,-87 1929.11,-79.34 1925.39,-64.78 1943.5,-56 1983.84,-36.44 2103.2,-22.99 2178.64,-16.18"/>
<polygon fill="midnightblue" stroke="midnightblue" points="2179.33,-19.63 2188.98,-15.26 2178.71,-12.66 2179.33,-19.63"/>
</g>
<!-- Node39&#45;&gt;Node36 -->
<g id="edge69" class="edge">
<title>Node39&#45;&gt;Node36</title>
<path fill="none" stroke="midnightblue" d="M506.08,-128.94C561.83,-117.17 662.06,-96.02 722.71,-83.22"/>
<polygon fill="midnightblue" stroke="midnightblue" points="723.77,-86.57 732.83,-81.08 722.32,-79.72 723.77,-86.57"/>
</g>
<!-- Node40 -->
<g id="node40" class="node">
<title>Node40</title>
<g id="a_node40"><a xlink:title=" ">
<polygon fill="white" stroke="#bfbfbf" points="343,-62 343,-81 458,-81 458,-62 343,-62"/>
<text text-anchor="middle" x="400.5" y="-69" font-family="Helvetica,sans-Serif" font-size="10.00">AMReX_Geometry.H</text>
</a>
</g>
</g>
<!-- Node39&#45;&gt;Node40 -->
<g id="edge71" class="edge">
<title>Node39&#45;&gt;Node40</title>
<path fill="none" stroke="midnightblue" d="M456.73,-128.73C446.4,-118.4 429.04,-101.04 416.33,-88.33"/>
<polygon fill="midnightblue" stroke="midnightblue" points="418.67,-85.72 409.13,-81.13 413.72,-90.67 418.67,-85.72"/>
</g>
<!-- Node41&#45;&gt;Node23 -->
<g id="edge76" class="edge">
<title>Node41&#45;&gt;Node23</title>
<path fill="none" stroke="midnightblue" d="M1824.2,-203.58C2020.94,-200.07 2673.14,-186.05 2703.5,-154 2733.46,-122.38 2732.76,-88.26 2703.5,-56 2677.47,-27.3 2428.93,-16.29 2308.41,-12.62"/>
<polygon fill="midnightblue" stroke="midnightblue" points="2308.31,-9.11 2298.21,-12.31 2308.1,-16.11 2308.31,-9.11"/>
</g>
<!-- Node41&#45;&gt;Node25 -->
<g id="edge75" class="edge">
<title>Node41&#45;&gt;Node25</title>
<path fill="none" stroke="midnightblue" d="M1768.5,-190.4C1768.5,-181.06 1768.5,-168.71 1768.5,-158.52"/>
<polygon fill="midnightblue" stroke="midnightblue" points="1772,-158.19 1768.5,-148.19 1765,-158.19 1772,-158.19"/>
</g>
<!-- Node42&#45;&gt;Node7 -->
<g id="edge79" class="edge">
<title>Node42&#45;&gt;Node7</title>
<path fill="none" stroke="midnightblue" d="M325,-57.84C328.21,-57.18 331.39,-56.56 334.5,-56 457.36,-33.73 491.94,-37.93 619.6,-20.07"/>
<polygon fill="midnightblue" stroke="midnightblue" points="620.36,-23.5 629.77,-18.63 619.38,-16.57 620.36,-23.5"/>
</g>
<!-- Node42&#45;&gt;Node20 -->
<g id="edge78" class="edge">
<title>Node42&#45;&gt;Node20</title>
<path fill="none" stroke="midnightblue" d="M325.29,-57.48C328.39,-56.92 331.48,-56.42 334.5,-56 434.92,-42 1165.75,-17.44 1329.85,-12.06"/>
<polygon fill="midnightblue" stroke="midnightblue" points="1330.37,-15.55 1340.25,-11.72 1330.14,-8.55 1330.37,-15.55"/>
</g>
<!-- Node42&#45;&gt;Node30 -->
<g id="edge81" class="edge">
<title>Node42&#45;&gt;Node30</title>
<path fill="none" stroke="midnightblue" d="M325.29,-57.53C328.4,-56.96 331.48,-56.44 334.5,-56 614.65,-15.1 688.71,-47.44 970.5,-20 972.25,-19.83 974.03,-19.65 975.83,-19.45"/>
<polygon fill="midnightblue" stroke="midnightblue" points="976.69,-22.88 986.22,-18.25 975.88,-15.92 976.69,-22.88"/>
</g>
<!-- Node43 -->
<g id="node43" class="node">
<title>Node43</title>
<g id="a_node43"><a xlink:title=" ">
<polygon fill="white" stroke="#bfbfbf" points="313.5,-0.5 313.5,-19.5 345.5,-19.5 345.5,-0.5 313.5,-0.5"/>
<text text-anchor="middle" x="329.5" y="-7.5" font-family="Helvetica,sans-Serif" font-size="10.00">set</text>
</a>
</g>
</g>
<!-- Node42&#45;&gt;Node43 -->
<g id="edge80" class="edge">
<title>Node42&#45;&gt;Node43</title>
<path fill="none" stroke="midnightblue" d="M286.77,-56.4C295.08,-47.58 305.8,-36.18 314.42,-27.02"/>
<polygon fill="midnightblue" stroke="midnightblue" points="317.05,-29.34 321.35,-19.66 311.95,-24.54 317.05,-29.34"/>
</g>
<!-- Node44 -->
<g id="node44" class="node">
<title>Node44</title>
<g id="a_node44"><a xlink:title=" ">
<polygon fill="white" stroke="#bfbfbf" points="0,-0.5 0,-19.5 111,-19.5 111,-0.5 0,-0.5"/>
<text text-anchor="middle" x="55.5" y="-7.5" font-family="Helvetica,sans-Serif" font-size="10.00">AMReX_BoxArray.H</text>
</a>
</g>
</g>
<!-- Node42&#45;&gt;Node44 -->
<g id="edge82" class="edge">
<title>Node42&#45;&gt;Node44</title>
<path fill="none" stroke="midnightblue" d="M222.11,-56.47C183.85,-46.03 132.29,-31.96 96.71,-22.25"/>
<polygon fill="midnightblue" stroke="midnightblue" points="97.23,-18.76 86.67,-19.51 95.39,-25.52 97.23,-18.76"/>
</g>
<!-- Node45 -->
<g id="node45" class="node">
<title>Node45</title>
<g id="a_node45"><a xlink:title=" ">
<polygon fill="white" stroke="#bfbfbf" points="129,-0.5 129,-19.5 296,-19.5 296,-0.5 129,-0.5"/>
<text text-anchor="middle" x="212.5" y="-7.5" font-family="Helvetica,sans-Serif" font-size="10.00">AMReX_DistributionMapping.H</text>
</a>
</g>
</g>
<!-- Node42&#45;&gt;Node45 -->
<g id="edge83" class="edge">
<title>Node42&#45;&gt;Node45</title>
<path fill="none" stroke="midnightblue" d="M259.04,-56.4C249.91,-47.49 238.08,-35.95 228.64,-26.74"/>
<polygon fill="midnightblue" stroke="midnightblue" points="230.98,-24.13 221.38,-19.66 226.09,-29.15 230.98,-24.13"/>
</g>
</g>
</svg>
