<?xml version="1.0" encoding="UTF-8" standalone="no"?>
<!DOCTYPE svg PUBLIC "-//W3C//DTD SVG 1.1//EN"
 "http://www.w3.org/Graphics/SVG/1.1/DTD/svg11.dtd">
<!-- Generated by graphviz version 2.43.0 (0)
 -->
<!-- Title: TransportModel.H Pages: 1 -->
<svg width="574pt" height="252pt"
 viewBox="0.00 0.00 573.50 252.00" xmlns="http://www.w3.org/2000/svg" xmlns:xlink="http://www.w3.org/1999/xlink">
<g id="graph0" class="graph" transform="scale(1 1) rotate(0) translate(4 248)">
<title>TransportModel.H</title>
<polygon fill="white" stroke="transparent" points="-4,4 -4,-248 569.5,-248 569.5,4 -4,4"/>
<!-- Node1 -->
<g id="node1" class="node">
<title>Node1</title>
<g id="a_node1"><a xlink:title=" ">
<polygon fill="#bfbfbf" stroke="black" points="271.5,-224.5 271.5,-243.5 373.5,-243.5 373.5,-224.5 271.5,-224.5"/>
<text text-anchor="middle" x="322.5" y="-231.5" font-family="Helvetica,sans-Serif" font-size="10.00">TransportModel.H</text>
</a>
</g>
</g>
<!-- Node2 -->
<g id="node2" class="node">
<title>Node2</title>
<g id="a_node2"><a xlink:href="_const_transport_8_h.html" target="_top" xlink:title=" ">
<polygon fill="white" stroke="black" points="208.5,-168.5 208.5,-187.5 308.5,-187.5 308.5,-168.5 208.5,-168.5"/>
<text text-anchor="middle" x="258.5" y="-175.5" font-family="Helvetica,sans-Serif" font-size="10.00">ConstTransport.H</text>
</a>
</g>
</g>
<!-- Node1&#45;&gt;Node2 -->
<g id="edge1" class="edge">
<title>Node1&#45;&gt;Node2</title>
<path fill="none" stroke="midnightblue" d="M304.51,-217.82C293.04,-208.15 278.59,-195.95 268.97,-187.83"/>
<polygon fill="midnightblue" stroke="midnightblue" points="302.32,-220.55 312.22,-224.32 306.83,-215.2 302.32,-220.55"/>
</g>
<!-- Node10 -->
<g id="node10" class="node">
<title>Node10</title>
<g id="a_node10"><a xlink:href="_two_phase_transport_8_h.html" target="_top" xlink:title=" ">
<polygon fill="white" stroke="black" points="326.5,-168.5 326.5,-187.5 446.5,-187.5 446.5,-168.5 326.5,-168.5"/>
<text text-anchor="middle" x="386.5" y="-175.5" font-family="Helvetica,sans-Serif" font-size="10.00">TwoPhaseTransport.H</text>
</a>
</g>
</g>
<!-- Node1&#45;&gt;Node10 -->
<g id="edge11" class="edge">
<title>Node1&#45;&gt;Node10</title>
<path fill="none" stroke="midnightblue" d="M340.49,-217.82C351.96,-208.15 366.41,-195.95 376.03,-187.83"/>
<polygon fill="midnightblue" stroke="midnightblue" points="338.17,-215.2 332.78,-224.32 342.68,-220.55 338.17,-215.2"/>
</g>
<!-- Node3 -->
<g id="node3" class="node">
<title>Node3</title>
<g id="a_node3"><a xlink:href="_turb_model_defs_8_h.html" target="_top" xlink:title=" ">
<polygon fill="white" stroke="black" points="272.5,-112.5 272.5,-131.5 372.5,-131.5 372.5,-112.5 272.5,-112.5"/>
<text text-anchor="middle" x="322.5" y="-119.5" font-family="Helvetica,sans-Serif" font-size="10.00">TurbModelDefs.H</text>
</a>
</g>
</g>
<!-- Node2&#45;&gt;Node3 -->
<g id="edge2" class="edge">
<title>Node2&#45;&gt;Node3</title>
<path fill="none" stroke="midnightblue" d="M276.49,-161.82C287.96,-152.15 302.41,-139.95 312.03,-131.83"/>
<polygon fill="midnightblue" stroke="midnightblue" points="274.17,-159.2 268.78,-168.32 278.68,-164.55 274.17,-159.2"/>
</g>
<!-- Node4 -->
<g id="node4" class="node">
<title>Node4</title>
<g id="a_node4"><a xlink:href="_laminar_model_8cpp.html" target="_top" xlink:title=" ">
<polygon fill="white" stroke="black" points="0,-56.5 0,-75.5 107,-75.5 107,-56.5 0,-56.5"/>
<text text-anchor="middle" x="53.5" y="-63.5" font-family="Helvetica,sans-Serif" font-size="10.00">LaminarModel.cpp</text>
</a>
</g>
</g>
<!-- Node3&#45;&gt;Node4 -->
<g id="edge3" class="edge">
<title>Node3&#45;&gt;Node4</title>
<path fill="none" stroke="midnightblue" d="M270.06,-110.47C219.22,-100.27 143.06,-84.98 95.92,-75.52"/>
<polygon fill="midnightblue" stroke="midnightblue" points="269.38,-113.91 279.88,-112.44 270.76,-107.04 269.38,-113.91"/>
</g>
<!-- Node5 -->
<g id="node5" class="node">
<title>Node5</title>
<g id="a_node5"><a xlink:href="_one_eq_ksgs_8cpp.html" target="_top" xlink:title=" ">
<polygon fill="white" stroke="black" points="125.5,-56.5 125.5,-75.5 217.5,-75.5 217.5,-56.5 125.5,-56.5"/>
<text text-anchor="middle" x="171.5" y="-63.5" font-family="Helvetica,sans-Serif" font-size="10.00">OneEqKsgs.cpp</text>
</a>
</g>
</g>
<!-- Node3&#45;&gt;Node5 -->
<g id="edge4" class="edge">
<title>Node3&#45;&gt;Node5</title>
<path fill="none" stroke="midnightblue" d="M289.05,-109.04C260.64,-98.88 220.56,-84.55 195.31,-75.52"/>
<polygon fill="midnightblue" stroke="midnightblue" points="287.98,-112.37 298.57,-112.44 290.34,-105.78 287.98,-112.37"/>
</g>
<!-- Node6 -->
<g id="node6" class="node">
<title>Node6</title>
<g id="a_node6"><a xlink:href="_smagorinsky_8cpp.html" target="_top" xlink:title=" ">
<polygon fill="white" stroke="black" points="235.5,-56.5 235.5,-75.5 333.5,-75.5 333.5,-56.5 235.5,-56.5"/>
<text text-anchor="middle" x="284.5" y="-63.5" font-family="Helvetica,sans-Serif" font-size="10.00">Smagorinsky.cpp</text>
</a>
</g>
</g>
<!-- Node3&#45;&gt;Node6 -->
<g id="edge5" class="edge">
<title>Node3&#45;&gt;Node6</title>
<path fill="none" stroke="midnightblue" d="M310.44,-103.86C303.86,-94.5 295.99,-83.33 290.66,-75.75"/>
<polygon fill="midnightblue" stroke="midnightblue" points="307.61,-105.92 316.23,-112.08 313.33,-101.89 307.61,-105.92"/>
</g>
<!-- Node7 -->
<g id="node7" class="node">
<title>Node7</title>
<g id="a_node7"><a xlink:href="_k_omega_s_s_t_i_8_h.html" target="_top" xlink:title=" ">
<polygon fill="white" stroke="black" points="390,-56.5 390,-75.5 479,-75.5 479,-56.5 390,-56.5"/>
<text text-anchor="middle" x="434.5" y="-63.5" font-family="Helvetica,sans-Serif" font-size="10.00">KOmegaSSTI.H</text>
</a>
</g>
</g>
<!-- Node3&#45;&gt;Node7 -->
<g id="edge6" class="edge">
<title>Node3&#45;&gt;Node7</title>
<path fill="none" stroke="midnightblue" d="M349.75,-107.86C370.52,-97.85 398.52,-84.35 416.55,-75.65"/>
<polygon fill="midnightblue" stroke="midnightblue" points="347.98,-104.83 340.49,-112.32 351.02,-111.13 347.98,-104.83"/>
</g>
<!-- Node8 -->
<g id="node8" class="node">
<title>Node8</title>
<g id="a_node8"><a xlink:href="_k_omega_s_s_t_8cpp.html" target="_top" xlink:title=" ">
<polygon fill="white" stroke="black" points="322,-0.5 322,-19.5 417,-19.5 417,-0.5 322,-0.5"/>
<text text-anchor="middle" x="369.5" y="-7.5" font-family="Helvetica,sans-Serif" font-size="10.00">KOmegaSST.cpp</text>
</a>
</g>
</g>
<!-- Node3&#45;&gt;Node8 -->
<g id="edge9" class="edge">
<title>Node3&#45;&gt;Node8</title>
<path fill="none" stroke="midnightblue" d="M330.59,-103.07C334.27,-94.84 338.65,-84.95 342.5,-76 351.09,-56.02 360.79,-32.4 365.9,-19.86"/>
<polygon fill="midnightblue" stroke="midnightblue" points="327.3,-101.84 326.4,-112.4 333.69,-104.71 327.3,-101.84"/>
</g>
<!-- Node9 -->
<g id="node9" class="node">
<title>Node9</title>
<g id="a_node9"><a xlink:href="_k_omega_s_s_t_i_d_d_e_s_8cpp.html" target="_top" xlink:title=" ">
<polygon fill="white" stroke="black" points="439.5,-0.5 439.5,-19.5 565.5,-19.5 565.5,-0.5 439.5,-0.5"/>
<text text-anchor="middle" x="502.5" y="-7.5" font-family="Helvetica,sans-Serif" font-size="10.00">KOmegaSSTIDDES.cpp</text>
</a>
</g>
</g>
<!-- Node3&#45;&gt;Node9 -->
<g id="edge10" class="edge">
<title>Node3&#45;&gt;Node9</title>
<path fill="none" stroke="midnightblue" d="M382.77,-119.35C417.93,-115.18 460.53,-104.05 487.5,-76 502.27,-60.64 503.56,-33.78 503.11,-19.89"/>
<polygon fill="midnightblue" stroke="midnightblue" points="382.19,-115.89 372.6,-120.4 382.9,-122.86 382.19,-115.89"/>
</g>
<!-- Node7&#45;&gt;Node8 -->
<g id="edge7" class="edge">
<title>Node7&#45;&gt;Node8</title>
<path fill="none" stroke="midnightblue" d="M416.23,-49.82C404.58,-40.15 389.9,-27.95 380.13,-19.83"/>
<polygon fill="midnightblue" stroke="midnightblue" points="414.13,-52.63 424.06,-56.32 418.6,-47.24 414.13,-52.63"/>
</g>
<!-- Node7&#45;&gt;Node9 -->
<g id="edge8" class="edge">
<title>Node7&#45;&gt;Node9</title>
<path fill="none" stroke="midnightblue" d="M453.26,-50.1C465.5,-40.38 481.06,-28.03 491.38,-19.83"/>
<polygon fill="midnightblue" stroke="midnightblue" points="451.08,-47.36 445.43,-56.32 455.43,-52.85 451.08,-47.36"/>
</g>
<!-- Node10&#45;&gt;Node3 -->
<g id="edge12" class="edge">
<title>Node10&#45;&gt;Node3</title>
<path fill="none" stroke="midnightblue" d="M368.51,-161.82C357.04,-152.15 342.59,-139.95 332.97,-131.83"/>
<polygon fill="midnightblue" stroke="midnightblue" points="366.32,-164.55 376.22,-168.32 370.83,-159.2 366.32,-164.55"/>
</g>
</g>
</svg>
