<?xml version="1.0" encoding="UTF-8" standalone="no"?>
<!DOCTYPE svg PUBLIC "-//W3C//DTD SVG 1.1//EN"
 "http://www.w3.org/Graphics/SVG/1.1/DTD/svg11.dtd">
<!-- Generated by graphviz version 2.43.0 (0)
 -->
<!-- Title: TurbineFast.H Pages: 1 -->
<svg width="1347pt" height="497pt"
 viewBox="0.00 0.00 1347.00 497.00" xmlns="http://www.w3.org/2000/svg" xmlns:xlink="http://www.w3.org/1999/xlink">
<g id="graph0" class="graph" transform="scale(1 1) rotate(0) translate(4 493)">
<title>TurbineFast.H</title>
<polygon fill="white" stroke="transparent" points="-4,4 -4,-493 1343,-493 1343,4 -4,4"/>
<!-- Node1 -->
<g id="node1" class="node">
<title>Node1</title>
<g id="a_node1"><a xlink:title=" ">
<polygon fill="#bfbfbf" stroke="black" points="741,-469.5 741,-488.5 823,-488.5 823,-469.5 741,-469.5"/>
<text text-anchor="middle" x="782" y="-476.5" font-family="Helvetica,sans-Serif" font-size="10.00">TurbineFast.H</text>
</a>
</g>
</g>
<!-- Node2 -->
<g id="node2" class="node">
<title>Node2</title>
<g id="a_node2"><a xlink:href="turbine__types_8_h.html" target="_top" xlink:title=" ">
<polygon fill="white" stroke="black" points="505.5,-391.5 505.5,-432.5 640.5,-432.5 640.5,-391.5 505.5,-391.5"/>
<text text-anchor="start" x="513.5" y="-420.5" font-family="Helvetica,sans-Serif" font-size="10.00">amr&#45;wind/wind_energy</text>
<text text-anchor="start" x="513.5" y="-409.5" font-family="Helvetica,sans-Serif" font-size="10.00">/actuator/turbine/turbine</text>
<text text-anchor="middle" x="573" y="-398.5" font-family="Helvetica,sans-Serif" font-size="10.00">_types.H</text>
</a>
</g>
</g>
<!-- Node1&#45;&gt;Node2 -->
<g id="edge1" class="edge">
<title>Node1&#45;&gt;Node2</title>
<path fill="none" stroke="midnightblue" d="M754.25,-469.37C726.73,-460.81 683.38,-447.33 645.97,-435.69"/>
<polygon fill="midnightblue" stroke="midnightblue" points="646.69,-432.25 636.1,-432.63 644.61,-438.94 646.69,-432.25"/>
</g>
<!-- Node22 -->
<g id="node22" class="node">
<title>Node22</title>
<g id="a_node22"><a xlink:href="fast__types_8_h.html" target="_top" xlink:title=" ">
<polygon fill="white" stroke="black" points="660,-313.5 660,-354.5 788,-354.5 788,-313.5 660,-313.5"/>
<text text-anchor="start" x="668" y="-342.5" font-family="Helvetica,sans-Serif" font-size="10.00">amr&#45;wind/wind_energy</text>
<text text-anchor="start" x="668" y="-331.5" font-family="Helvetica,sans-Serif" font-size="10.00">/actuator/turbine/fast</text>
<text text-anchor="middle" x="724" y="-320.5" font-family="Helvetica,sans-Serif" font-size="10.00">/fast_types.H</text>
</a>
</g>
</g>
<!-- Node1&#45;&gt;Node22 -->
<g id="edge32" class="edge">
<title>Node1&#45;&gt;Node22</title>
<path fill="none" stroke="midnightblue" d="M778.55,-469.48C770.32,-449.21 749.28,-397.33 735.87,-364.25"/>
<polygon fill="midnightblue" stroke="midnightblue" points="738.97,-362.6 731.97,-354.65 732.48,-365.23 738.97,-362.6"/>
</g>
<!-- Node25 -->
<g id="node25" class="node">
<title>Node25</title>
<g id="a_node25"><a xlink:href="_fast_iface_8_h.html" target="_top" xlink:title=" ">
<polygon fill="white" stroke="black" points="787,-391.5 787,-432.5 915,-432.5 915,-391.5 787,-391.5"/>
<text text-anchor="start" x="795" y="-420.5" font-family="Helvetica,sans-Serif" font-size="10.00">amr&#45;wind/wind_energy</text>
<text text-anchor="start" x="795" y="-409.5" font-family="Helvetica,sans-Serif" font-size="10.00">/actuator/turbine/fast</text>
<text text-anchor="middle" x="851" y="-398.5" font-family="Helvetica,sans-Serif" font-size="10.00">/FastIface.H</text>
</a>
</g>
</g>
<!-- Node1&#45;&gt;Node25 -->
<g id="edge35" class="edge">
<title>Node1&#45;&gt;Node25</title>
<path fill="none" stroke="midnightblue" d="M791.31,-469.23C799.38,-461.63 811.49,-450.22 822.7,-439.66"/>
<polygon fill="midnightblue" stroke="midnightblue" points="825.38,-441.95 830.26,-432.54 820.58,-436.85 825.38,-441.95"/>
</g>
<!-- Node26 -->
<g id="node26" class="node">
<title>Node26</title>
<g id="a_node26"><a xlink:href="_ext_solver_8_h.html" target="_top" xlink:title=" ">
<polygon fill="white" stroke="black" points="966,-324.5 966,-343.5 1112,-343.5 1112,-324.5 966,-324.5"/>
<text text-anchor="middle" x="1039" y="-331.5" font-family="Helvetica,sans-Serif" font-size="10.00">amr&#45;wind/core/ExtSolver.H</text>
</a>
</g>
</g>
<!-- Node1&#45;&gt;Node26 -->
<g id="edge52" class="edge">
<title>Node1&#45;&gt;Node26</title>
<path fill="none" stroke="midnightblue" d="M823.23,-469.55C852.55,-462.45 892.22,-450.62 924,-433 964.48,-410.55 1003.79,-372.49 1024.32,-351"/>
<polygon fill="midnightblue" stroke="midnightblue" points="1026.93,-353.33 1031.22,-343.65 1021.83,-348.54 1026.93,-353.33"/>
</g>
<!-- Node3 -->
<g id="node3" class="node">
<title>Node3</title>
<g id="a_node3"><a xlink:href="actuator__types_8_h.html" target="_top" xlink:title=" ">
<polygon fill="white" stroke="black" points="420,-319 420,-349 566,-349 566,-319 420,-319"/>
<text text-anchor="start" x="428" y="-337" font-family="Helvetica,sans-Serif" font-size="10.00">amr&#45;wind/wind_energy</text>
<text text-anchor="middle" x="493" y="-326" font-family="Helvetica,sans-Serif" font-size="10.00">/actuator/actuator_types.H</text>
</a>
</g>
</g>
<!-- Node2&#45;&gt;Node3 -->
<g id="edge2" class="edge">
<title>Node2&#45;&gt;Node3</title>
<path fill="none" stroke="midnightblue" d="M552.4,-391.43C541.11,-380.71 527.11,-367.41 515.54,-356.41"/>
<polygon fill="midnightblue" stroke="midnightblue" points="517.63,-353.58 507.97,-349.23 512.81,-358.65 517.63,-353.58"/>
</g>
<!-- Node4 -->
<g id="node4" class="node">
<title>Node4</title>
<g id="a_node4"><a xlink:href="_slice_8_h.html" target="_top" xlink:title=" ">
<polygon fill="white" stroke="black" points="534,-246.5 534,-265.5 658,-265.5 658,-246.5 534,-246.5"/>
<text text-anchor="middle" x="596" y="-253.5" font-family="Helvetica,sans-Serif" font-size="10.00">amr&#45;wind/core/Slice.H</text>
</a>
</g>
</g>
<!-- Node3&#45;&gt;Node4 -->
<g id="edge3" class="edge">
<title>Node3&#45;&gt;Node4</title>
<path fill="none" stroke="midnightblue" d="M512.37,-318.7C530.6,-305.25 557.77,-285.21 576.15,-271.64"/>
<polygon fill="midnightblue" stroke="midnightblue" points="578.43,-274.32 584.39,-265.56 574.27,-268.68 578.43,-274.32"/>
</g>
<!-- Node7 -->
<g id="node7" class="node">
<title>Node7</title>
<g id="a_node7"><a xlink:title=" ">
<polygon fill="white" stroke="#bfbfbf" points="500.5,-0.5 500.5,-19.5 587.5,-19.5 587.5,-0.5 500.5,-0.5"/>
<text text-anchor="middle" x="544" y="-7.5" font-family="Helvetica,sans-Serif" font-size="10.00">AMReX_Gpu.H</text>
</a>
</g>
</g>
<!-- Node3&#45;&gt;Node7 -->
<g id="edge28" class="edge">
<title>Node3&#45;&gt;Node7</title>
<path fill="none" stroke="midnightblue" d="M566.03,-326.34C601.24,-319.38 641.29,-305.31 667,-277 693.61,-247.7 686,-229.58 686,-190 686,-190 686,-190 686,-132 686,-75.96 621.13,-40.4 579.08,-23.23"/>
<polygon fill="midnightblue" stroke="midnightblue" points="580.3,-19.95 569.72,-19.56 577.75,-26.47 580.3,-19.95"/>
</g>
<!-- Node8 -->
<g id="node8" class="node">
<title>Node8</title>
<g id="a_node8"><a xlink:href="vector__space_8_h.html" target="_top" xlink:title=" ">
<polygon fill="white" stroke="black" points="140.5,-241 140.5,-271 275.5,-271 275.5,-241 140.5,-241"/>
<text text-anchor="start" x="148.5" y="-259" font-family="Helvetica,sans-Serif" font-size="10.00">amr&#45;wind/core/vs/vector</text>
<text text-anchor="middle" x="208" y="-248" font-family="Helvetica,sans-Serif" font-size="10.00">_space.H</text>
</a>
</g>
</g>
<!-- Node3&#45;&gt;Node8 -->
<g id="edge7" class="edge">
<title>Node3&#45;&gt;Node8</title>
<path fill="none" stroke="midnightblue" d="M440.39,-318.97C392.44,-306.19 321.54,-287.28 270.67,-273.71"/>
<polygon fill="midnightblue" stroke="midnightblue" points="271.35,-270.27 260.78,-271.07 269.54,-277.03 271.35,-270.27"/>
</g>
<!-- Node19 -->
<g id="node19" class="node">
<title>Node19</title>
<g id="a_node19"><a xlink:title=" ">
<polygon fill="white" stroke="#bfbfbf" points="294,-246.5 294,-265.5 402,-265.5 402,-246.5 294,-246.5"/>
<text text-anchor="middle" x="348" y="-253.5" font-family="Helvetica,sans-Serif" font-size="10.00">AMReX_RealBox.H</text>
</a>
</g>
</g>
<!-- Node3&#45;&gt;Node19 -->
<g id="edge29" class="edge">
<title>Node3&#45;&gt;Node19</title>
<path fill="none" stroke="midnightblue" d="M466.07,-318.88C439.52,-304.97 399.25,-283.86 373.29,-270.25"/>
<polygon fill="midnightblue" stroke="midnightblue" points="374.9,-267.15 364.42,-265.61 371.65,-273.35 374.9,-267.15"/>
</g>
<!-- Node20 -->
<g id="node20" class="node">
<title>Node20</title>
<g id="a_node20"><a xlink:title=" ">
<polygon fill="white" stroke="#bfbfbf" points="420,-246.5 420,-265.5 452,-265.5 452,-246.5 420,-246.5"/>
<text text-anchor="middle" x="436" y="-253.5" font-family="Helvetica,sans-Serif" font-size="10.00">set</text>
</a>
</g>
</g>
<!-- Node3&#45;&gt;Node20 -->
<g id="edge30" class="edge">
<title>Node3&#45;&gt;Node20</title>
<path fill="none" stroke="midnightblue" d="M482.28,-318.7C472.74,-305.99 458.78,-287.37 448.69,-273.92"/>
<polygon fill="midnightblue" stroke="midnightblue" points="451.22,-271.46 442.42,-265.56 445.62,-275.66 451.22,-271.46"/>
</g>
<!-- Node21 -->
<g id="node21" class="node">
<title>Node21</title>
<g id="a_node21"><a xlink:title=" ">
<polygon fill="white" stroke="#bfbfbf" points="470.5,-246.5 470.5,-265.5 515.5,-265.5 515.5,-246.5 470.5,-246.5"/>
<text text-anchor="middle" x="493" y="-253.5" font-family="Helvetica,sans-Serif" font-size="10.00">utility</text>
</a>
</g>
</g>
<!-- Node3&#45;&gt;Node21 -->
<g id="edge31" class="edge">
<title>Node3&#45;&gt;Node21</title>
<path fill="none" stroke="midnightblue" d="M493,-318.7C493,-306.6 493,-289.15 493,-275.89"/>
<polygon fill="midnightblue" stroke="midnightblue" points="496.5,-275.56 493,-265.56 489.5,-275.56 496.5,-275.56"/>
</g>
<!-- Node5 -->
<g id="node5" class="node">
<title>Node5</title>
<g id="a_node5"><a xlink:title=" ">
<polygon fill="white" stroke="#bfbfbf" points="514.5,-179.5 514.5,-198.5 567.5,-198.5 567.5,-179.5 514.5,-179.5"/>
<text text-anchor="middle" x="541" y="-186.5" font-family="Helvetica,sans-Serif" font-size="10.00">iterator</text>
</a>
</g>
</g>
<!-- Node4&#45;&gt;Node5 -->
<g id="edge4" class="edge">
<title>Node4&#45;&gt;Node5</title>
<path fill="none" stroke="midnightblue" d="M588.58,-246.23C580.01,-236.1 565.7,-219.19 555.01,-206.56"/>
<polygon fill="midnightblue" stroke="midnightblue" points="557.43,-204 548.3,-198.63 552.09,-208.52 557.43,-204"/>
</g>
<!-- Node6 -->
<g id="node6" class="node">
<title>Node6</title>
<g id="a_node6"><a xlink:title=" ">
<polygon fill="white" stroke="#bfbfbf" points="717,-179.5 717,-198.5 815,-198.5 815,-179.5 717,-179.5"/>
<text text-anchor="middle" x="766" y="-186.5" font-family="Helvetica,sans-Serif" font-size="10.00">AMReX_Vector.H</text>
</a>
</g>
</g>
<!-- Node4&#45;&gt;Node6 -->
<g id="edge5" class="edge">
<title>Node4&#45;&gt;Node6</title>
<path fill="none" stroke="midnightblue" d="M618.57,-246.37C648.25,-235.02 700.55,-215.02 734.22,-202.15"/>
<polygon fill="midnightblue" stroke="midnightblue" points="735.51,-205.4 743.6,-198.56 733.01,-198.87 735.51,-205.4"/>
</g>
<!-- Node4&#45;&gt;Node7 -->
<g id="edge6" class="edge">
<title>Node4&#45;&gt;Node7</title>
<path fill="none" stroke="midnightblue" d="M594.15,-246.32C586.65,-211.11 558.4,-78.56 547.93,-29.45"/>
<polygon fill="midnightblue" stroke="midnightblue" points="551.34,-28.63 545.83,-19.58 544.49,-30.09 551.34,-28.63"/>
</g>
<!-- Node9 -->
<g id="node9" class="node">
<title>Node9</title>
<g id="a_node9"><a xlink:href="vector_8_h.html" target="_top" xlink:title=" ">
<polygon fill="white" stroke="black" points="323.5,-123.5 323.5,-142.5 468.5,-142.5 468.5,-123.5 323.5,-123.5"/>
<text text-anchor="middle" x="396" y="-130.5" font-family="Helvetica,sans-Serif" font-size="10.00">amr&#45;wind/core/vs/vector.H</text>
</a>
</g>
</g>
<!-- Node8&#45;&gt;Node9 -->
<g id="edge8" class="edge">
<title>Node8&#45;&gt;Node9</title>
<path fill="none" stroke="midnightblue" d="M235.28,-240.92C255.69,-230.1 284.1,-214.43 308,-199 332.59,-183.12 359.47,-162.8 376.97,-149.14"/>
<polygon fill="midnightblue" stroke="midnightblue" points="379.51,-151.6 385.2,-142.67 375.18,-146.1 379.51,-151.6"/>
</g>
<!-- Node16 -->
<g id="node16" class="node">
<title>Node16</title>
<g id="a_node16"><a xlink:href="tensor_8_h.html" target="_top" xlink:title=" ">
<polygon fill="white" stroke="black" points="153.5,-179.5 153.5,-198.5 298.5,-198.5 298.5,-179.5 153.5,-179.5"/>
<text text-anchor="middle" x="226" y="-186.5" font-family="Helvetica,sans-Serif" font-size="10.00">amr&#45;wind/core/vs/tensor.H</text>
</a>
</g>
</g>
<!-- Node8&#45;&gt;Node16 -->
<g id="edge17" class="edge">
<title>Node8&#45;&gt;Node16</title>
<path fill="none" stroke="midnightblue" d="M211.91,-240.9C214.55,-231.36 218.06,-218.68 220.92,-208.36"/>
<polygon fill="midnightblue" stroke="midnightblue" points="224.3,-209.27 223.59,-198.69 217.55,-207.4 224.3,-209.27"/>
</g>
<!-- Node9&#45;&gt;Node7 -->
<g id="edge9" class="edge">
<title>Node9&#45;&gt;Node7</title>
<path fill="none" stroke="midnightblue" d="M421.32,-123.43C440.95,-115.93 468.07,-103.63 488,-87 507.99,-70.32 524.73,-45.09 534.56,-28.33"/>
<polygon fill="midnightblue" stroke="midnightblue" points="537.64,-30 539.52,-19.57 531.55,-26.55 537.64,-30"/>
</g>
<!-- Node10 -->
<g id="node10" class="node">
<title>Node10</title>
<g id="a_node10"><a xlink:href="vstraits_8_h.html" target="_top" xlink:title=" ">
<polygon fill="white" stroke="black" points="0,-62 0,-81 152,-81 152,-62 0,-62"/>
<text text-anchor="middle" x="76" y="-69" font-family="Helvetica,sans-Serif" font-size="10.00">amr&#45;wind/core/vs/vstraits.H</text>
</a>
</g>
</g>
<!-- Node9&#45;&gt;Node10 -->
<g id="edge10" class="edge">
<title>Node9&#45;&gt;Node10</title>
<path fill="none" stroke="midnightblue" d="M350.15,-123.48C292.53,-112.76 193.69,-94.38 131.75,-82.87"/>
<polygon fill="midnightblue" stroke="midnightblue" points="132.23,-79.4 121.76,-81.01 130.95,-86.28 132.23,-79.4"/>
</g>
<!-- Node13 -->
<g id="node13" class="node">
<title>Node13</title>
<g id="a_node13"><a xlink:href="vector_i_8_h.html" target="_top" xlink:title=" ">
<polygon fill="white" stroke="black" points="329.5,-62 329.5,-81 478.5,-81 478.5,-62 329.5,-62"/>
<text text-anchor="middle" x="404" y="-69" font-family="Helvetica,sans-Serif" font-size="10.00">amr&#45;wind/core/vs/vectorI.H</text>
</a>
</g>
</g>
<!-- Node9&#45;&gt;Node13 -->
<g id="edge13" class="edge">
<title>Node9&#45;&gt;Node13</title>
<path fill="none" stroke="midnightblue" d="M392.25,-123.48C391.54,-114.99 392.86,-101.7 395.25,-90.82"/>
<polygon fill="midnightblue" stroke="midnightblue" points="398.67,-91.58 397.96,-81.01 391.92,-89.72 398.67,-91.58"/>
</g>
<!-- Node11 -->
<g id="node11" class="node">
<title>Node11</title>
<g id="a_node11"><a xlink:title=" ">
<polygon fill="white" stroke="#bfbfbf" points="54,-0.5 54,-19.5 98,-19.5 98,-0.5 54,-0.5"/>
<text text-anchor="middle" x="76" y="-7.5" font-family="Helvetica,sans-Serif" font-size="10.00">limits</text>
</a>
</g>
</g>
<!-- Node10&#45;&gt;Node11 -->
<g id="edge11" class="edge">
<title>Node10&#45;&gt;Node11</title>
<path fill="none" stroke="midnightblue" d="M76,-61.98C76,-53.58 76,-40.48 76,-29.66"/>
<polygon fill="midnightblue" stroke="midnightblue" points="79.5,-29.51 76,-19.51 72.5,-29.51 79.5,-29.51"/>
</g>
<!-- Node12 -->
<g id="node12" class="node">
<title>Node12</title>
<g id="a_node12"><a xlink:title=" ">
<polygon fill="white" stroke="#bfbfbf" points="142,-0.5 142,-19.5 234,-19.5 234,-0.5 142,-0.5"/>
<text text-anchor="middle" x="188" y="-7.5" font-family="Helvetica,sans-Serif" font-size="10.00">AMReX_REAL.H</text>
</a>
</g>
</g>
<!-- Node10&#45;&gt;Node12 -->
<g id="edge12" class="edge">
<title>Node10&#45;&gt;Node12</title>
<path fill="none" stroke="midnightblue" d="M92.05,-61.98C110.59,-52.12 141.34,-35.79 163.02,-24.27"/>
<polygon fill="midnightblue" stroke="midnightblue" points="164.79,-27.29 171.98,-19.51 161.51,-21.11 164.79,-27.29"/>
</g>
<!-- Node13&#45;&gt;Node9 -->
<g id="edge16" class="edge">
<title>Node13&#45;&gt;Node9</title>
<path fill="none" stroke="midnightblue" d="M407.75,-81.01C408.47,-89.49 407.14,-102.77 404.75,-113.66"/>
<polygon fill="midnightblue" stroke="midnightblue" points="401.33,-112.9 402.05,-123.48 408.08,-114.77 401.33,-112.9"/>
</g>
<!-- Node14 -->
<g id="node14" class="node">
<title>Node14</title>
<g id="a_node14"><a xlink:title=" ">
<polygon fill="white" stroke="#bfbfbf" points="375.5,-0.5 375.5,-19.5 432.5,-19.5 432.5,-0.5 375.5,-0.5"/>
<text text-anchor="middle" x="404" y="-7.5" font-family="Helvetica,sans-Serif" font-size="10.00">ostream</text>
</a>
</g>
</g>
<!-- Node13&#45;&gt;Node14 -->
<g id="edge14" class="edge">
<title>Node13&#45;&gt;Node14</title>
<path fill="none" stroke="midnightblue" d="M404,-61.98C404,-53.58 404,-40.48 404,-29.66"/>
<polygon fill="midnightblue" stroke="midnightblue" points="407.5,-29.51 404,-19.51 400.5,-29.51 407.5,-29.51"/>
</g>
<!-- Node15 -->
<g id="node15" class="node">
<title>Node15</title>
<g id="a_node15"><a xlink:title=" ">
<polygon fill="white" stroke="#bfbfbf" points="278.5,-0.5 278.5,-19.5 325.5,-19.5 325.5,-0.5 278.5,-0.5"/>
<text text-anchor="middle" x="302" y="-7.5" font-family="Helvetica,sans-Serif" font-size="10.00">cmath</text>
</a>
</g>
</g>
<!-- Node13&#45;&gt;Node15 -->
<g id="edge15" class="edge">
<title>Node13&#45;&gt;Node15</title>
<path fill="none" stroke="midnightblue" d="M389.39,-61.98C372.65,-52.21 345,-36.08 325.28,-24.58"/>
<polygon fill="midnightblue" stroke="midnightblue" points="326.99,-21.52 316.59,-19.51 323.46,-27.57 326.99,-21.52"/>
</g>
<!-- Node16&#45;&gt;Node7 -->
<g id="edge18" class="edge">
<title>Node16&#45;&gt;Node7</title>
<path fill="none" stroke="midnightblue" d="M298.67,-181.42C362.36,-174.51 449.13,-161.99 478,-143 517.67,-116.91 534.49,-59.42 540.76,-29.66"/>
<polygon fill="midnightblue" stroke="midnightblue" points="544.21,-30.22 542.67,-19.74 537.34,-28.9 544.21,-30.22"/>
</g>
<!-- Node16&#45;&gt;Node9 -->
<g id="edge20" class="edge">
<title>Node16&#45;&gt;Node9</title>
<path fill="none" stroke="midnightblue" d="M252.94,-179.44C281.66,-170.32 327.33,-155.81 359.32,-145.65"/>
<polygon fill="midnightblue" stroke="midnightblue" points="360.72,-148.88 369.19,-142.52 358.6,-142.21 360.72,-148.88"/>
</g>
<!-- Node16&#45;&gt;Node10 -->
<g id="edge19" class="edge">
<title>Node16&#45;&gt;Node10</title>
<path fill="none" stroke="midnightblue" d="M206.17,-179.42C188.67,-171.35 162.91,-158.25 143,-143 122.16,-127.03 101.92,-104.45 89.24,-89.19"/>
<polygon fill="midnightblue" stroke="midnightblue" points="91.72,-86.69 82.7,-81.15 86.29,-91.11 91.72,-86.69"/>
</g>
<!-- Node17 -->
<g id="node17" class="node">
<title>Node17</title>
<g id="a_node17"><a xlink:href="tensor_i_8_h.html" target="_top" xlink:title=" ">
<polygon fill="white" stroke="black" points="151.5,-123.5 151.5,-142.5 300.5,-142.5 300.5,-123.5 151.5,-123.5"/>
<text text-anchor="middle" x="226" y="-130.5" font-family="Helvetica,sans-Serif" font-size="10.00">amr&#45;wind/core/vs/tensorI.H</text>
</a>
</g>
</g>
<!-- Node16&#45;&gt;Node17 -->
<g id="edge21" class="edge">
<title>Node16&#45;&gt;Node17</title>
<path fill="none" stroke="midnightblue" d="M220.83,-179.08C219.32,-171.93 218.89,-161.64 219.54,-152.69"/>
<polygon fill="midnightblue" stroke="midnightblue" points="223.02,-153.13 220.87,-142.75 216.08,-152.2 223.02,-153.13"/>
</g>
<!-- Node17&#45;&gt;Node15 -->
<g id="edge22" class="edge">
<title>Node17&#45;&gt;Node15</title>
<path fill="none" stroke="midnightblue" d="M241.94,-123.41C254.93,-115.6 272.73,-102.88 283,-87 294.17,-69.72 298.77,-46.32 300.67,-30.07"/>
<polygon fill="midnightblue" stroke="midnightblue" points="304.19,-29.97 301.63,-19.69 297.22,-29.33 304.19,-29.97"/>
</g>
<!-- Node17&#45;&gt;Node16 -->
<g id="edge23" class="edge">
<title>Node17&#45;&gt;Node16</title>
<path fill="none" stroke="midnightblue" d="M231.13,-142.75C232.66,-149.86 233.1,-160.14 232.47,-169.1"/>
<polygon fill="midnightblue" stroke="midnightblue" points="228.99,-168.71 231.17,-179.08 235.93,-169.62 228.99,-168.71"/>
</g>
<!-- Node18 -->
<g id="node18" class="node">
<title>Node18</title>
<g id="a_node18"><a xlink:href="trig__ops_8_h.html" target="_top" xlink:title="Trigonometric utilities.">
<polygon fill="white" stroke="black" points="170.5,-56.5 170.5,-86.5 273.5,-86.5 273.5,-56.5 170.5,-56.5"/>
<text text-anchor="start" x="178.5" y="-74.5" font-family="Helvetica,sans-Serif" font-size="10.00">amr&#45;wind/utilities</text>
<text text-anchor="middle" x="222" y="-63.5" font-family="Helvetica,sans-Serif" font-size="10.00">/trig_ops.H</text>
</a>
</g>
</g>
<!-- Node17&#45;&gt;Node18 -->
<g id="edge24" class="edge">
<title>Node17&#45;&gt;Node18</title>
<path fill="none" stroke="midnightblue" d="M225.43,-123.48C224.96,-116.47 224.27,-106.19 223.63,-96.7"/>
<polygon fill="midnightblue" stroke="midnightblue" points="227.11,-96.27 222.94,-86.52 220.12,-96.74 227.11,-96.27"/>
</g>
<!-- Node18&#45;&gt;Node7 -->
<g id="edge27" class="edge">
<title>Node18&#45;&gt;Node7</title>
<path fill="none" stroke="midnightblue" d="M273.73,-60.94C333.14,-49.96 430.13,-32.04 490.34,-20.92"/>
<polygon fill="midnightblue" stroke="midnightblue" points="491.2,-24.31 500.4,-19.06 489.93,-17.43 491.2,-24.31"/>
</g>
<!-- Node18&#45;&gt;Node12 -->
<g id="edge26" class="edge">
<title>Node18&#45;&gt;Node12</title>
<path fill="none" stroke="midnightblue" d="M213.94,-56.4C209.15,-48.02 203.04,-37.33 197.96,-28.42"/>
<polygon fill="midnightblue" stroke="midnightblue" points="200.95,-26.6 192.95,-19.66 194.87,-30.08 200.95,-26.6"/>
</g>
<!-- Node18&#45;&gt;Node15 -->
<g id="edge25" class="edge">
<title>Node18&#45;&gt;Node15</title>
<path fill="none" stroke="midnightblue" d="M240.96,-56.4C253.42,-47.13 269.7,-35.03 282.31,-25.65"/>
<polygon fill="midnightblue" stroke="midnightblue" points="284.42,-28.43 290.36,-19.66 280.25,-22.82 284.42,-28.43"/>
</g>
<!-- Node23 -->
<g id="node23" class="node">
<title>Node23</title>
<g id="a_node23"><a xlink:href="fast__wrapper_8_h.html" target="_top" xlink:title=" ">
<polygon fill="white" stroke="black" points="752,-235.5 752,-276.5 880,-276.5 880,-235.5 752,-235.5"/>
<text text-anchor="start" x="760" y="-264.5" font-family="Helvetica,sans-Serif" font-size="10.00">amr&#45;wind/wind_energy</text>
<text text-anchor="start" x="760" y="-253.5" font-family="Helvetica,sans-Serif" font-size="10.00">/actuator/turbine/fast</text>
<text text-anchor="middle" x="816" y="-242.5" font-family="Helvetica,sans-Serif" font-size="10.00">/fast_wrapper.H</text>
</a>
</g>
</g>
<!-- Node22&#45;&gt;Node23 -->
<g id="edge33" class="edge">
<title>Node22&#45;&gt;Node23</title>
<path fill="none" stroke="midnightblue" d="M747.69,-313.43C758.85,-304.21 772.32,-293.08 784.34,-283.15"/>
<polygon fill="midnightblue" stroke="midnightblue" points="786.91,-285.57 792.39,-276.51 782.45,-280.18 786.91,-285.57"/>
</g>
<!-- Node24 -->
<g id="node24" class="node">
<title>Node24</title>
<g id="a_node24"><a xlink:title=" ">
<polygon fill="white" stroke="#bfbfbf" points="838,-179.5 838,-198.5 882,-198.5 882,-179.5 838,-179.5"/>
<text text-anchor="middle" x="860" y="-186.5" font-family="Helvetica,sans-Serif" font-size="10.00">string</text>
</a>
</g>
</g>
<!-- Node22&#45;&gt;Node24 -->
<g id="edge34" class="edge">
<title>Node22&#45;&gt;Node24</title>
<path fill="none" stroke="midnightblue" d="M722.54,-313.35C722.02,-291.71 724.52,-257.05 743,-235 754.21,-221.63 797.29,-207.35 827.91,-198.55"/>
<polygon fill="midnightblue" stroke="midnightblue" points="829.07,-201.86 837.75,-195.78 827.18,-195.12 829.07,-201.86"/>
</g>
<!-- Node25&#45;&gt;Node22 -->
<g id="edge49" class="edge">
<title>Node25&#45;&gt;Node22</title>
<path fill="none" stroke="midnightblue" d="M818.29,-391.43C802.15,-381.77 782.5,-370.01 765.32,-359.73"/>
<polygon fill="midnightblue" stroke="midnightblue" points="766.97,-356.64 756.59,-354.51 763.38,-362.64 766.97,-356.64"/>
</g>
<!-- Node25&#45;&gt;Node23 -->
<g id="edge48" class="edge">
<title>Node25&#45;&gt;Node23</title>
<path fill="none" stroke="midnightblue" d="M844.95,-391.41C841.76,-380.71 837.92,-367.19 835,-355 829.55,-332.25 824.57,-306.24 821.07,-286.73"/>
<polygon fill="midnightblue" stroke="midnightblue" points="824.47,-285.87 819.29,-276.63 817.58,-287.09 824.47,-285.87"/>
</g>
<!-- Node25&#45;&gt;Node26 -->
<g id="edge36" class="edge">
<title>Node25&#45;&gt;Node26</title>
<path fill="none" stroke="midnightblue" d="M899.41,-391.43C933.82,-377.52 978.98,-359.26 1008.48,-347.34"/>
<polygon fill="midnightblue" stroke="midnightblue" points="1009.89,-350.54 1017.84,-343.55 1007.26,-344.06 1009.89,-350.54"/>
</g>
<!-- Node34 -->
<g id="node34" class="node">
<title>Node34</title>
<g id="a_node34"><a xlink:title=" ">
<polygon fill="white" stroke="#bfbfbf" points="844,-324.5 844,-343.5 882,-343.5 882,-324.5 844,-324.5"/>
<text text-anchor="middle" x="863" y="-331.5" font-family="Helvetica,sans-Serif" font-size="10.00">map</text>
</a>
</g>
</g>
<!-- Node25&#45;&gt;Node34 -->
<g id="edge50" class="edge">
<title>Node25&#45;&gt;Node34</title>
<path fill="none" stroke="midnightblue" d="M854.09,-391.43C855.92,-379.82 858.24,-365.18 860.04,-353.72"/>
<polygon fill="midnightblue" stroke="midnightblue" points="863.55,-353.98 861.65,-343.55 856.63,-352.88 863.55,-353.98"/>
</g>
<!-- Node35 -->
<g id="node35" class="node">
<title>Node35</title>
<g id="a_node35"><a xlink:title=" ">
<polygon fill="white" stroke="#bfbfbf" points="900.5,-324.5 900.5,-343.5 947.5,-343.5 947.5,-324.5 900.5,-324.5"/>
<text text-anchor="middle" x="924" y="-331.5" font-family="Helvetica,sans-Serif" font-size="10.00">vector</text>
</a>
</g>
</g>
<!-- Node25&#45;&gt;Node35 -->
<g id="edge51" class="edge">
<title>Node25&#45;&gt;Node35</title>
<path fill="none" stroke="midnightblue" d="M869.8,-391.43C881.88,-378.85 897.38,-362.72 908.7,-350.92"/>
<polygon fill="midnightblue" stroke="midnightblue" points="911.38,-353.19 915.79,-343.55 906.33,-348.34 911.38,-353.19"/>
</g>
<!-- Node27 -->
<g id="node27" class="node">
<title>Node27</title>
<g id="a_node27"><a xlink:href="_factory_8_h.html" target="_top" xlink:title=" ">
<polygon fill="white" stroke="black" points="1054,-246.5 1054,-265.5 1188,-265.5 1188,-246.5 1054,-246.5"/>
<text text-anchor="middle" x="1121" y="-253.5" font-family="Helvetica,sans-Serif" font-size="10.00">amr&#45;wind/core/Factory.H</text>
</a>
</g>
</g>
<!-- Node26&#45;&gt;Node27 -->
<g id="edge37" class="edge">
<title>Node26&#45;&gt;Node27</title>
<path fill="none" stroke="midnightblue" d="M1048.41,-324.28C1062,-311.68 1087.35,-288.19 1104.2,-272.57"/>
<polygon fill="midnightblue" stroke="midnightblue" points="1106.75,-274.98 1111.7,-265.62 1101.99,-269.85 1106.75,-274.98"/>
</g>
<!-- Node33 -->
<g id="node33" class="node">
<title>Node33</title>
<g id="a_node33"><a xlink:href="_coll_mgr_8_h.html" target="_top" xlink:title=" ">
<polygon fill="white" stroke="black" points="898.5,-246.5 898.5,-265.5 1035.5,-265.5 1035.5,-246.5 898.5,-246.5"/>
<text text-anchor="middle" x="967" y="-253.5" font-family="Helvetica,sans-Serif" font-size="10.00">amr&#45;wind/core/CollMgr.H</text>
</a>
</g>
</g>
<!-- Node26&#45;&gt;Node33 -->
<g id="edge43" class="edge">
<title>Node26&#45;&gt;Node33</title>
<path fill="none" stroke="midnightblue" d="M1030.74,-324.28C1018.91,-311.8 996.95,-288.62 982.16,-273"/>
<polygon fill="midnightblue" stroke="midnightblue" points="984.58,-270.47 975.16,-265.62 979.5,-275.28 984.58,-270.47"/>
</g>
<!-- Node28 -->
<g id="node28" class="node">
<title>Node28</title>
<g id="a_node28"><a xlink:title=" ">
<polygon fill="white" stroke="#bfbfbf" points="1015,-179.5 1015,-198.5 1073,-198.5 1073,-179.5 1015,-179.5"/>
<text text-anchor="middle" x="1044" y="-186.5" font-family="Helvetica,sans-Serif" font-size="10.00">memory</text>
</a>
</g>
</g>
<!-- Node27&#45;&gt;Node28 -->
<g id="edge38" class="edge">
<title>Node27&#45;&gt;Node28</title>
<path fill="none" stroke="midnightblue" d="M1110.62,-246.23C1098.15,-235.71 1077.03,-217.88 1061.91,-205.12"/>
<polygon fill="midnightblue" stroke="midnightblue" points="1064.12,-202.4 1054.22,-198.63 1059.6,-207.75 1064.12,-202.4"/>
</g>
<!-- Node29 -->
<g id="node29" class="node">
<title>Node29</title>
<g id="a_node29"><a xlink:title=" ">
<polygon fill="white" stroke="#bfbfbf" points="903.5,-179.5 903.5,-198.5 996.5,-198.5 996.5,-179.5 903.5,-179.5"/>
<text text-anchor="middle" x="950" y="-186.5" font-family="Helvetica,sans-Serif" font-size="10.00">unordered_map</text>
</a>
</g>
</g>
<!-- Node27&#45;&gt;Node29 -->
<g id="edge39" class="edge">
<title>Node27&#45;&gt;Node29</title>
<path fill="none" stroke="midnightblue" d="M1098.29,-246.37C1068.44,-235.02 1015.83,-215.02 981.97,-202.15"/>
<polygon fill="midnightblue" stroke="midnightblue" points="983.12,-198.85 972.53,-198.56 980.63,-205.39 983.12,-198.85"/>
</g>
<!-- Node30 -->
<g id="node30" class="node">
<title>Node30</title>
<g id="a_node30"><a xlink:title=" ">
<polygon fill="white" stroke="#bfbfbf" points="1091,-179.5 1091,-198.5 1151,-198.5 1151,-179.5 1091,-179.5"/>
<text text-anchor="middle" x="1121" y="-186.5" font-family="Helvetica,sans-Serif" font-size="10.00">iostream</text>
</a>
</g>
</g>
<!-- Node27&#45;&gt;Node30 -->
<g id="edge40" class="edge">
<title>Node27&#45;&gt;Node30</title>
<path fill="none" stroke="midnightblue" d="M1121,-246.23C1121,-236.68 1121,-221.12 1121,-208.78"/>
<polygon fill="midnightblue" stroke="midnightblue" points="1124.5,-208.63 1121,-198.63 1117.5,-208.63 1124.5,-208.63"/>
</g>
<!-- Node31 -->
<g id="node31" class="node">
<title>Node31</title>
<g id="a_node31"><a xlink:title=" ">
<polygon fill="white" stroke="#bfbfbf" points="1169,-179.5 1169,-198.5 1259,-198.5 1259,-179.5 1169,-179.5"/>
<text text-anchor="middle" x="1214" y="-186.5" font-family="Helvetica,sans-Serif" font-size="10.00">AMReX_Print.H</text>
</a>
</g>
</g>
<!-- Node27&#45;&gt;Node31 -->
<g id="edge41" class="edge">
<title>Node27&#45;&gt;Node31</title>
<path fill="none" stroke="midnightblue" d="M1133.54,-246.23C1148.88,-235.51 1175.06,-217.22 1193.38,-204.41"/>
<polygon fill="midnightblue" stroke="midnightblue" points="1195.46,-207.22 1201.66,-198.63 1191.45,-201.49 1195.46,-207.22"/>
</g>
<!-- Node32 -->
<g id="node32" class="node">
<title>Node32</title>
<g id="a_node32"><a xlink:title=" ">
<polygon fill="white" stroke="#bfbfbf" points="1277,-179.5 1277,-198.5 1339,-198.5 1339,-179.5 1277,-179.5"/>
<text text-anchor="middle" x="1308" y="-186.5" font-family="Helvetica,sans-Serif" font-size="10.00">AMReX.H</text>
</a>
</g>
</g>
<!-- Node27&#45;&gt;Node32 -->
<g id="edge42" class="edge">
<title>Node27&#45;&gt;Node32</title>
<path fill="none" stroke="midnightblue" d="M1145.83,-246.37C1178.62,-234.97 1236.5,-214.85 1273.51,-201.99"/>
<polygon fill="midnightblue" stroke="midnightblue" points="1275.07,-205.15 1283.36,-198.56 1272.77,-198.54 1275.07,-205.15"/>
</g>
<!-- Node33&#45;&gt;Node6 -->
<g id="edge47" class="edge">
<title>Node33&#45;&gt;Node6</title>
<path fill="none" stroke="midnightblue" d="M940.31,-246.37C904.77,-234.88 841.79,-214.51 802.05,-201.66"/>
<polygon fill="midnightblue" stroke="midnightblue" points="803.07,-198.31 792.48,-198.56 800.92,-204.97 803.07,-198.31"/>
</g>
<!-- Node33&#45;&gt;Node24 -->
<g id="edge44" class="edge">
<title>Node33&#45;&gt;Node24</title>
<path fill="none" stroke="midnightblue" d="M952.57,-246.23C934.68,-235.37 903.98,-216.72 882.87,-203.89"/>
<polygon fill="midnightblue" stroke="midnightblue" points="884.57,-200.83 874.2,-198.63 880.93,-206.81 884.57,-200.83"/>
</g>
<!-- Node33&#45;&gt;Node28 -->
<g id="edge45" class="edge">
<title>Node33&#45;&gt;Node28</title>
<path fill="none" stroke="midnightblue" d="M977.38,-246.23C989.85,-235.71 1010.97,-217.88 1026.09,-205.12"/>
<polygon fill="midnightblue" stroke="midnightblue" points="1028.4,-207.75 1033.78,-198.63 1023.88,-202.4 1028.4,-207.75"/>
</g>
<!-- Node33&#45;&gt;Node29 -->
<g id="edge46" class="edge">
<title>Node33&#45;&gt;Node29</title>
<path fill="none" stroke="midnightblue" d="M964.71,-246.23C962.18,-236.59 958.06,-220.8 954.81,-208.41"/>
<polygon fill="midnightblue" stroke="midnightblue" points="958.17,-207.42 952.26,-198.63 951.4,-209.19 958.17,-207.42"/>
</g>
</g>
</svg>
