<?xml version="1.0" encoding="UTF-8" standalone="no"?>
<!DOCTYPE svg PUBLIC "-//W3C//DTD SVG 1.1//EN"
 "http://www.w3.org/Graphics/SVG/1.1/DTD/svg11.dtd">
<!-- Generated by graphviz version 2.43.0 (0)
 -->
<!-- Title: TurbModelBase.H Pages: 1 -->
<svg width="495pt" height="196pt"
 viewBox="0.00 0.00 495.00 196.00" xmlns="http://www.w3.org/2000/svg" xmlns:xlink="http://www.w3.org/1999/xlink">
<g id="graph0" class="graph" transform="scale(1 1) rotate(0) translate(4 192)">
<title>TurbModelBase.H</title>
<polygon fill="white" stroke="transparent" points="-4,4 -4,-192 491,-192 491,4 -4,4"/>
<!-- Node1 -->
<g id="node1" class="node">
<title>Node1</title>
<g id="a_node1"><a xlink:title=" ">
<polygon fill="#bfbfbf" stroke="black" points="108.5,-168.5 108.5,-187.5 209.5,-187.5 209.5,-168.5 108.5,-168.5"/>
<text text-anchor="middle" x="159" y="-175.5" font-family="Helvetica,sans-Serif" font-size="10.00">TurbModelBase.H</text>
</a>
</g>
</g>
<!-- Node2 -->
<g id="node2" class="node">
<title>Node2</title>
<g id="a_node2"><a xlink:href="_one_eq_ksgs_8_h.html" target="_top" xlink:title=" ">
<polygon fill="white" stroke="black" points="10,-112.5 10,-131.5 92,-131.5 92,-112.5 10,-112.5"/>
<text text-anchor="middle" x="51" y="-119.5" font-family="Helvetica,sans-Serif" font-size="10.00">OneEqKsgs.H</text>
</a>
</g>
</g>
<!-- Node1&#45;&gt;Node2 -->
<g id="edge1" class="edge">
<title>Node1&#45;&gt;Node2</title>
<path fill="none" stroke="midnightblue" d="M132.45,-163.73C112.45,-153.73 85.61,-140.31 68.31,-131.65"/>
<polygon fill="midnightblue" stroke="midnightblue" points="131.14,-166.98 141.65,-168.32 134.27,-160.72 131.14,-166.98"/>
</g>
<!-- Node4 -->
<g id="node4" class="node">
<title>Node4</title>
<g id="a_node4"><a xlink:href="_smagorinsky_8_h.html" target="_top" xlink:title=" ">
<polygon fill="white" stroke="black" points="114.5,-112.5 114.5,-131.5 203.5,-131.5 203.5,-112.5 114.5,-112.5"/>
<text text-anchor="middle" x="159" y="-119.5" font-family="Helvetica,sans-Serif" font-size="10.00">Smagorinsky.H</text>
</a>
</g>
</g>
<!-- Node1&#45;&gt;Node4 -->
<g id="edge3" class="edge">
<title>Node1&#45;&gt;Node4</title>
<path fill="none" stroke="midnightblue" d="M159,-157.8C159,-148.91 159,-138.78 159,-131.75"/>
<polygon fill="midnightblue" stroke="midnightblue" points="155.5,-158.08 159,-168.08 162.5,-158.08 155.5,-158.08"/>
</g>
<!-- Node6 -->
<g id="node6" class="node">
<title>Node6</title>
<g id="a_node6"><a xlink:href="_k_omega_s_s_t_8_h.html" target="_top" xlink:title=" ">
<polygon fill="white" stroke="black" points="244,-112.5 244,-131.5 330,-131.5 330,-112.5 244,-112.5"/>
<text text-anchor="middle" x="287" y="-119.5" font-family="Helvetica,sans-Serif" font-size="10.00">KOmegaSST.H</text>
</a>
</g>
</g>
<!-- Node1&#45;&gt;Node6 -->
<g id="edge5" class="edge">
<title>Node1&#45;&gt;Node6</title>
<path fill="none" stroke="midnightblue" d="M188.62,-164.5C212.62,-154.38 245.78,-140.39 266.81,-131.52"/>
<polygon fill="midnightblue" stroke="midnightblue" points="187.14,-161.33 179.28,-168.44 189.86,-167.78 187.14,-161.33"/>
</g>
<!-- Node3 -->
<g id="node3" class="node">
<title>Node3</title>
<g id="a_node3"><a xlink:href="_one_eq_ksgs_8cpp.html" target="_top" xlink:title=" ">
<polygon fill="white" stroke="black" points="0,-56.5 0,-75.5 92,-75.5 92,-56.5 0,-56.5"/>
<text text-anchor="middle" x="46" y="-63.5" font-family="Helvetica,sans-Serif" font-size="10.00">OneEqKsgs.cpp</text>
</a>
</g>
</g>
<!-- Node2&#45;&gt;Node3 -->
<g id="edge2" class="edge">
<title>Node2&#45;&gt;Node3</title>
<path fill="none" stroke="midnightblue" d="M49.25,-102.1C48.42,-93.14 47.47,-82.86 46.81,-75.75"/>
<polygon fill="midnightblue" stroke="midnightblue" points="45.77,-102.45 50.17,-112.08 52.74,-101.8 45.77,-102.45"/>
</g>
<!-- Node5 -->
<g id="node5" class="node">
<title>Node5</title>
<g id="a_node5"><a xlink:href="_smagorinsky_8cpp.html" target="_top" xlink:title=" ">
<polygon fill="white" stroke="black" points="110,-56.5 110,-75.5 208,-75.5 208,-56.5 110,-56.5"/>
<text text-anchor="middle" x="159" y="-63.5" font-family="Helvetica,sans-Serif" font-size="10.00">Smagorinsky.cpp</text>
</a>
</g>
</g>
<!-- Node4&#45;&gt;Node5 -->
<g id="edge4" class="edge">
<title>Node4&#45;&gt;Node5</title>
<path fill="none" stroke="midnightblue" d="M159,-101.8C159,-92.91 159,-82.78 159,-75.75"/>
<polygon fill="midnightblue" stroke="midnightblue" points="155.5,-102.08 159,-112.08 162.5,-102.08 155.5,-102.08"/>
</g>
<!-- Node7 -->
<g id="node7" class="node">
<title>Node7</title>
<g id="a_node7"><a xlink:href="_k_omega_s_s_t_8cpp.html" target="_top" xlink:title=" ">
<polygon fill="white" stroke="black" points="220.5,-0.5 220.5,-19.5 315.5,-19.5 315.5,-0.5 220.5,-0.5"/>
<text text-anchor="middle" x="268" y="-7.5" font-family="Helvetica,sans-Serif" font-size="10.00">KOmegaSST.cpp</text>
</a>
</g>
</g>
<!-- Node6&#45;&gt;Node7 -->
<g id="edge6" class="edge">
<title>Node6&#45;&gt;Node7</title>
<path fill="none" stroke="midnightblue" d="M271.55,-104.55C265.1,-96.57 258.34,-86.46 255,-76 248.7,-56.27 257.69,-32.15 263.58,-19.57"/>
<polygon fill="midnightblue" stroke="midnightblue" points="269.06,-107.02 278.25,-112.29 274.35,-102.44 269.06,-107.02"/>
</g>
<!-- Node8 -->
<g id="node8" class="node">
<title>Node8</title>
<g id="a_node8"><a xlink:href="_k_omega_s_s_t_i_8_h.html" target="_top" xlink:title=" ">
<polygon fill="white" stroke="black" points="264.5,-56.5 264.5,-75.5 353.5,-75.5 353.5,-56.5 264.5,-56.5"/>
<text text-anchor="middle" x="309" y="-63.5" font-family="Helvetica,sans-Serif" font-size="10.00">KOmegaSSTI.H</text>
</a>
</g>
</g>
<!-- Node6&#45;&gt;Node8 -->
<g id="edge7" class="edge">
<title>Node6&#45;&gt;Node8</title>
<path fill="none" stroke="midnightblue" d="M294.46,-102.69C298.17,-93.59 302.48,-83.01 305.43,-75.75"/>
<polygon fill="midnightblue" stroke="midnightblue" points="291.16,-101.5 290.63,-112.08 297.65,-104.14 291.16,-101.5"/>
</g>
<!-- Node10 -->
<g id="node10" class="node">
<title>Node10</title>
<g id="a_node10"><a xlink:href="_k_omega_s_s_t_i_d_d_e_s_8_h.html" target="_top" xlink:title=" ">
<polygon fill="white" stroke="black" points="371,-56.5 371,-75.5 487,-75.5 487,-56.5 371,-56.5"/>
<text text-anchor="middle" x="429" y="-63.5" font-family="Helvetica,sans-Serif" font-size="10.00">KOmegaSSTIDDES.H</text>
</a>
</g>
</g>
<!-- Node6&#45;&gt;Node10 -->
<g id="edge10" class="edge">
<title>Node6&#45;&gt;Node10</title>
<path fill="none" stroke="midnightblue" d="M319.16,-108.77C345.83,-98.63 383.07,-84.47 406.6,-75.52"/>
<polygon fill="midnightblue" stroke="midnightblue" points="317.6,-105.62 309.5,-112.44 320.09,-112.16 317.6,-105.62"/>
</g>
<!-- Node8&#45;&gt;Node7 -->
<g id="edge8" class="edge">
<title>Node8&#45;&gt;Node7</title>
<path fill="none" stroke="midnightblue" d="M295.98,-47.86C288.88,-38.5 280.4,-27.33 274.64,-19.75"/>
<polygon fill="midnightblue" stroke="midnightblue" points="293.39,-50.24 302.23,-56.08 298.97,-46 293.39,-50.24"/>
</g>
<!-- Node9 -->
<g id="node9" class="node">
<title>Node9</title>
<g id="a_node9"><a xlink:href="_k_omega_s_s_t_i_d_d_e_s_8cpp.html" target="_top" xlink:title=" ">
<polygon fill="white" stroke="black" points="350,-0.5 350,-19.5 476,-19.5 476,-0.5 350,-0.5"/>
<text text-anchor="middle" x="413" y="-7.5" font-family="Helvetica,sans-Serif" font-size="10.00">KOmegaSSTIDDES.cpp</text>
</a>
</g>
</g>
<!-- Node8&#45;&gt;Node9 -->
<g id="edge9" class="edge">
<title>Node8&#45;&gt;Node9</title>
<path fill="none" stroke="midnightblue" d="M334.83,-51.59C354.06,-41.61 379.74,-28.27 396.33,-19.65"/>
<polygon fill="midnightblue" stroke="midnightblue" points="332.97,-48.61 325.71,-56.32 336.2,-54.82 332.97,-48.61"/>
</g>
<!-- Node10&#45;&gt;Node9 -->
<g id="edge11" class="edge">
<title>Node10&#45;&gt;Node9</title>
<path fill="none" stroke="midnightblue" d="M423.49,-46.4C420.81,-37.36 417.72,-26.94 415.59,-19.75"/>
<polygon fill="midnightblue" stroke="midnightblue" points="420.16,-47.49 426.36,-56.08 426.87,-45.5 420.16,-47.49"/>
</g>
</g>
</svg>
