<?xml version="1.0" encoding="UTF-8" standalone="no"?>
<!DOCTYPE svg PUBLIC "-//W3C//DTD SVG 1.1//EN"
 "http://www.w3.org/Graphics/SVG/1.1/DTD/svg11.dtd">
<!-- Generated by graphviz version 2.43.0 (0)
 -->
<!-- Title: actuator_ops.H Pages: 1 -->
<svg width="528pt" height="196pt"
 viewBox="0.00 0.00 527.50 196.00" xmlns="http://www.w3.org/2000/svg" xmlns:xlink="http://www.w3.org/1999/xlink">
<g id="graph0" class="graph" transform="scale(1 1) rotate(0) translate(4 192)">
<title>actuator_ops.H</title>
<polygon fill="white" stroke="transparent" points="-4,4 -4,-192 523.5,-192 523.5,4 -4,4"/>
<!-- Node1 -->
<g id="node1" class="node">
<title>Node1</title>
<g id="a_node1"><a xlink:title=" ">
<polygon fill="#bfbfbf" stroke="black" points="188,-168.5 188,-187.5 278,-187.5 278,-168.5 188,-168.5"/>
<text text-anchor="middle" x="233" y="-175.5" font-family="Helvetica,sans-Serif" font-size="10.00">actuator_ops.H</text>
</a>
</g>
</g>
<!-- Node2 -->
<g id="node2" class="node">
<title>Node2</title>
<g id="a_node2"><a xlink:href="_act_src_op_8_h.html" target="_top" xlink:title=" ">
<polygon fill="white" stroke="black" points="165.5,-112.5 165.5,-131.5 236.5,-131.5 236.5,-112.5 165.5,-112.5"/>
<text text-anchor="middle" x="201" y="-119.5" font-family="Helvetica,sans-Serif" font-size="10.00">ActSrcOp.H</text>
</a>
</g>
</g>
<!-- Node1&#45;&gt;Node2 -->
<g id="edge1" class="edge">
<title>Node1&#45;&gt;Node2</title>
<path fill="none" stroke="midnightblue" d="M222.5,-159.27C217.03,-150.05 210.58,-139.17 206.19,-131.75"/>
<polygon fill="midnightblue" stroke="midnightblue" points="219.61,-161.26 227.72,-168.08 225.63,-157.7 219.61,-161.26"/>
</g>
<!-- Node3 -->
<g id="node3" class="node">
<title>Node3</title>
<g id="a_node3"><a xlink:href="_actuator_model_8_h.html" target="_top" xlink:title=" ">
<polygon fill="white" stroke="black" points="88,-56.5 88,-75.5 186,-75.5 186,-56.5 88,-56.5"/>
<text text-anchor="middle" x="137" y="-63.5" font-family="Helvetica,sans-Serif" font-size="10.00">ActuatorModel.H</text>
</a>
</g>
</g>
<!-- Node1&#45;&gt;Node3 -->
<g id="edge7" class="edge">
<title>Node1&#45;&gt;Node3</title>
<path fill="none" stroke="midnightblue" d="M199.64,-164.34C184.37,-157.01 167.21,-146.35 156,-132 142.83,-115.14 138.78,-89.4 137.54,-75.93"/>
<polygon fill="midnightblue" stroke="midnightblue" points="198.29,-167.57 208.84,-168.48 201.16,-161.19 198.29,-167.57"/>
</g>
<!-- Node8 -->
<g id="node8" class="node">
<title>Node8</title>
<g id="a_node8"><a xlink:href="turbine__fast__ops_8_h.html" target="_top" xlink:title=" ">
<polygon fill="white" stroke="black" points="0,-112.5 0,-131.5 108,-131.5 108,-112.5 0,-112.5"/>
<text text-anchor="middle" x="54" y="-119.5" font-family="Helvetica,sans-Serif" font-size="10.00">turbine_fast_ops.H</text>
</a>
</g>
</g>
<!-- Node1&#45;&gt;Node8 -->
<g id="edge8" class="edge">
<title>Node1&#45;&gt;Node8</title>
<path fill="none" stroke="midnightblue" d="M194.67,-165.44C160.92,-155.26 112.55,-140.66 82.23,-131.52"/>
<polygon fill="midnightblue" stroke="midnightblue" points="194.05,-168.91 204.64,-168.44 196.07,-162.2 194.05,-168.91"/>
</g>
<!-- Node9 -->
<g id="node9" class="node">
<title>Node9</title>
<g id="a_node9"><a xlink:href="fixed__wing__ops_8_h.html" target="_top" xlink:title=" ">
<polygon fill="white" stroke="black" points="204.5,-56.5 204.5,-75.5 305.5,-75.5 305.5,-56.5 204.5,-56.5"/>
<text text-anchor="middle" x="255" y="-63.5" font-family="Helvetica,sans-Serif" font-size="10.00">fixed_wing_ops.H</text>
</a>
</g>
</g>
<!-- Node1&#45;&gt;Node9 -->
<g id="edge10" class="edge">
<title>Node1&#45;&gt;Node9</title>
<path fill="none" stroke="midnightblue" d="M238.39,-158.58C240.64,-150.48 243.15,-140.81 245,-132 249.17,-112.11 252.38,-88.45 253.94,-75.89"/>
<polygon fill="midnightblue" stroke="midnightblue" points="234.96,-157.86 235.58,-168.44 241.69,-159.78 234.96,-157.86"/>
</g>
<!-- Node10 -->
<g id="node10" class="node">
<title>Node10</title>
<g id="a_node10"><a xlink:href="wing__ops_8_h.html" target="_top" xlink:title=" ">
<polygon fill="white" stroke="black" points="310.5,-112.5 310.5,-131.5 383.5,-131.5 383.5,-112.5 310.5,-112.5"/>
<text text-anchor="middle" x="347" y="-119.5" font-family="Helvetica,sans-Serif" font-size="10.00">wing_ops.H</text>
</a>
</g>
</g>
<!-- Node1&#45;&gt;Node10 -->
<g id="edge12" class="edge">
<title>Node1&#45;&gt;Node10</title>
<path fill="none" stroke="midnightblue" d="M260.24,-164.1C281.54,-154.01 310.54,-140.27 329.02,-131.52"/>
<polygon fill="midnightblue" stroke="midnightblue" points="258.6,-161 251.06,-168.44 261.6,-167.33 258.6,-161"/>
</g>
<!-- Node11 -->
<g id="node11" class="node">
<title>Node11</title>
<g id="a_node11"><a xlink:href="flat__plate__ops_8_h.html" target="_top" xlink:title=" ">
<polygon fill="white" stroke="black" points="424.5,-56.5 424.5,-75.5 519.5,-75.5 519.5,-56.5 424.5,-56.5"/>
<text text-anchor="middle" x="472" y="-63.5" font-family="Helvetica,sans-Serif" font-size="10.00">flat_plate_ops.H</text>
</a>
</g>
</g>
<!-- Node1&#45;&gt;Node11 -->
<g id="edge17" class="edge">
<title>Node1&#45;&gt;Node11</title>
<path fill="none" stroke="midnightblue" d="M287.96,-167.22C319.58,-160.2 359.38,-148.94 392,-132 421.22,-116.82 449.76,-89.88 463.51,-75.93"/>
<polygon fill="midnightblue" stroke="midnightblue" points="287.05,-163.83 278,-169.35 288.51,-170.68 287.05,-163.83"/>
</g>
<!-- Node2&#45;&gt;Node3 -->
<g id="edge2" class="edge">
<title>Node2&#45;&gt;Node3</title>
<path fill="none" stroke="midnightblue" d="M183.01,-105.82C171.54,-96.15 157.09,-83.95 147.47,-75.83"/>
<polygon fill="midnightblue" stroke="midnightblue" points="180.82,-108.55 190.72,-112.32 185.33,-103.2 180.82,-108.55"/>
</g>
<!-- Node4 -->
<g id="node4" class="node">
<title>Node4</title>
<g id="a_node4"><a xlink:href="_actuator_8cpp.html" target="_top" xlink:title=" ">
<polygon fill="white" stroke="black" points="116.5,-0.5 116.5,-19.5 193.5,-19.5 193.5,-0.5 116.5,-0.5"/>
<text text-anchor="middle" x="155" y="-7.5" font-family="Helvetica,sans-Serif" font-size="10.00">Actuator.cpp</text>
</a>
</g>
</g>
<!-- Node3&#45;&gt;Node4 -->
<g id="edge3" class="edge">
<title>Node3&#45;&gt;Node4</title>
<path fill="none" stroke="midnightblue" d="M143.2,-46.4C146.21,-37.36 149.69,-26.94 152.08,-19.75"/>
<polygon fill="midnightblue" stroke="midnightblue" points="139.81,-45.49 139.97,-56.08 146.46,-47.7 139.81,-45.49"/>
</g>
<!-- Node5 -->
<g id="node5" class="node">
<title>Node5</title>
<g id="a_node5"><a xlink:href="_turbine_fast_8cpp.html" target="_top" xlink:title=" ">
<polygon fill="white" stroke="black" points="6,-0.5 6,-19.5 98,-19.5 98,-0.5 6,-0.5"/>
<text text-anchor="middle" x="52" y="-7.5" font-family="Helvetica,sans-Serif" font-size="10.00">TurbineFast.cpp</text>
</a>
</g>
</g>
<!-- Node3&#45;&gt;Node5 -->
<g id="edge4" class="edge">
<title>Node3&#45;&gt;Node5</title>
<path fill="none" stroke="midnightblue" d="M114.81,-50.9C99.22,-41 78.87,-28.07 65.62,-19.65"/>
<polygon fill="midnightblue" stroke="midnightblue" points="113.03,-53.92 123.34,-56.32 116.78,-48.01 113.03,-53.92"/>
</g>
<!-- Node6 -->
<g id="node6" class="node">
<title>Node6</title>
<g id="a_node6"><a xlink:href="_fixed_wing_8cpp.html" target="_top" xlink:title=" ">
<polygon fill="white" stroke="black" points="211.5,-0.5 211.5,-19.5 298.5,-19.5 298.5,-0.5 211.5,-0.5"/>
<text text-anchor="middle" x="255" y="-7.5" font-family="Helvetica,sans-Serif" font-size="10.00">FixedWing.cpp</text>
</a>
</g>
</g>
<!-- Node3&#45;&gt;Node6 -->
<g id="edge5" class="edge">
<title>Node3&#45;&gt;Node6</title>
<path fill="none" stroke="midnightblue" d="M164.9,-52.23C186.97,-42.13 217.18,-28.31 236.39,-19.52"/>
<polygon fill="midnightblue" stroke="midnightblue" points="163.33,-49.1 155.7,-56.44 166.25,-55.46 163.33,-49.1"/>
</g>
<!-- Node7 -->
<g id="node7" class="node">
<title>Node7</title>
<g id="a_node7"><a xlink:href="_flat_plate_8cpp.html" target="_top" xlink:title=" ">
<polygon fill="white" stroke="black" points="374,-0.5 374,-19.5 454,-19.5 454,-0.5 374,-0.5"/>
<text text-anchor="middle" x="414" y="-7.5" font-family="Helvetica,sans-Serif" font-size="10.00">FlatPlate.cpp</text>
</a>
</g>
</g>
<!-- Node3&#45;&gt;Node7 -->
<g id="edge6" class="edge">
<title>Node3&#45;&gt;Node7</title>
<path fill="none" stroke="midnightblue" d="M190.91,-54.49C244.57,-44.03 325.7,-28.21 373.91,-18.82"/>
<polygon fill="midnightblue" stroke="midnightblue" points="190.04,-51.09 180.89,-56.44 191.38,-57.97 190.04,-51.09"/>
</g>
<!-- Node8&#45;&gt;Node5 -->
<g id="edge9" class="edge">
<title>Node8&#45;&gt;Node5</title>
<path fill="none" stroke="midnightblue" d="M53.66,-102.35C53.22,-78.25 52.48,-37.31 52.16,-19.59"/>
<polygon fill="midnightblue" stroke="midnightblue" points="50.16,-102.43 53.84,-112.37 57.16,-102.31 50.16,-102.43"/>
</g>
<!-- Node9&#45;&gt;Node6 -->
<g id="edge11" class="edge">
<title>Node9&#45;&gt;Node6</title>
<path fill="none" stroke="midnightblue" d="M255,-45.8C255,-36.91 255,-26.78 255,-19.75"/>
<polygon fill="midnightblue" stroke="midnightblue" points="251.5,-46.08 255,-56.08 258.5,-46.08 251.5,-46.08"/>
</g>
<!-- Node10&#45;&gt;Node9 -->
<g id="edge13" class="edge">
<title>Node10&#45;&gt;Node9</title>
<path fill="none" stroke="midnightblue" d="M323.45,-107.18C306.52,-97.24 284.22,-84.15 269.74,-75.65"/>
<polygon fill="midnightblue" stroke="midnightblue" points="321.82,-110.28 332.22,-112.32 325.37,-104.24 321.82,-110.28"/>
</g>
<!-- Node10&#45;&gt;Node11 -->
<g id="edge14" class="edge">
<title>Node10&#45;&gt;Node11</title>
<path fill="none" stroke="midnightblue" d="M376.24,-108.37C399.65,-98.26 431.84,-84.35 452.29,-75.52"/>
<polygon fill="midnightblue" stroke="midnightblue" points="374.6,-105.26 366.81,-112.44 377.37,-111.69 374.6,-105.26"/>
</g>
<!-- Node12 -->
<g id="node12" class="node">
<title>Node12</title>
<g id="a_node12"><a xlink:href="wing__ops_8cpp.html" target="_top" xlink:title=" ">
<polygon fill="white" stroke="black" points="323.5,-56.5 323.5,-75.5 406.5,-75.5 406.5,-56.5 323.5,-56.5"/>
<text text-anchor="middle" x="365" y="-63.5" font-family="Helvetica,sans-Serif" font-size="10.00">wing_ops.cpp</text>
</a>
</g>
</g>
<!-- Node10&#45;&gt;Node12 -->
<g id="edge16" class="edge">
<title>Node10&#45;&gt;Node12</title>
<path fill="none" stroke="midnightblue" d="M353.2,-102.4C356.21,-93.36 359.69,-82.94 362.08,-75.75"/>
<polygon fill="midnightblue" stroke="midnightblue" points="349.81,-101.49 349.97,-112.08 356.46,-103.7 349.81,-101.49"/>
</g>
<!-- Node11&#45;&gt;Node7 -->
<g id="edge15" class="edge">
<title>Node11&#45;&gt;Node7</title>
<path fill="none" stroke="midnightblue" d="M455.09,-49.25C444.8,-39.67 432.03,-27.79 423.49,-19.83"/>
<polygon fill="midnightblue" stroke="midnightblue" points="452.98,-52.07 462.68,-56.32 457.75,-46.95 452.98,-52.07"/>
</g>
</g>
</svg>
