<?xml version="1.0" encoding="UTF-8" standalone="no"?>
<!DOCTYPE svg PUBLIC "-//W3C//DTD SVG 1.1//EN"
 "http://www.w3.org/Graphics/SVG/1.1/DTD/svg11.dtd">
<!-- Generated by graphviz version 2.43.0 (0)
 -->
<!-- Title: actuator_utils.cpp Pages: 1 -->
<!--zoomable 397 -->
<svg id="main" version="1.1" xmlns="http://www.w3.org/2000/svg" xmlns:xlink="http://www.w3.org/1999/xlink" xml:space="preserve" onload="init(evt)">
<style type="text/css"><![CDATA[
.edge:hover path { stroke: red; }
.edge:hover polygon { stroke: red; fill: red; }
]]></style>
<script type="text/javascript"><![CDATA[
var edges = document.getElementsByTagName('g');
if (edges && edges.length) {
  for (var i=0;i<edges.length;i++) {
    if (edges[i].id.substr(0,4)=='edge') {
      edges[i].setAttribute('class','edge');
    }
  }
}
]]></script>
        <defs>
                <circle id="rim" cx="0" cy="0" r="7"/>
                <circle id="rim2" cx="0" cy="0" r="3.5"/>
                <g id="zoomPlus">
                        <use xlink:href="#rim" fill="#404040">
                                <set attributeName="fill" to="#808080" begin="zoomplus.mouseover" end="zoomplus.mouseout"/>
                        </use>
                        <path d="M-4,0h8M0,-4v8" fill="none" stroke="white" stroke-width="1.5" pointer-events="none"/>
                </g>
                <g id="zoomMin">
                        <use xlink:href="#rim" fill="#404040">
                                <set attributeName="fill" to="#808080" begin="zoomminus.mouseover" end="zoomminus.mouseout"/>
                        </use>
                        <path d="M-4,0h8" fill="none" stroke="white" stroke-width="1.5" pointer-events="none"/>
                </g>
                <g id="dirArrow">
                        <path fill="none" stroke="white" stroke-width="1.5" d="M0,-3.0v7 M-2.5,-0.5L0,-3.0L2.5,-0.5"/>
                </g>
               <g id="resetDef">
                       <use xlink:href="#rim2" fill="#404040">
                               <set attributeName="fill" to="#808080" begin="reset.mouseover" end="reset.mouseout"/>
                       </use>
               </g>
        </defs>

<script type="text/javascript">
var viewWidth = 1057;
var viewHeight = 397;
var sectionId = 'dynsection-0';
</script>
<script xlink:href="svgpan.js"/>
<svg id="graph" class="graph">
<g id="viewport">
<title>actuator_utils.cpp</title>
<polygon fill="white" stroke="transparent" points="-4,4 -4,-393 1052.5,-393 1052.5,4 -4,4"/>
<!-- Node1 -->
<g id="node1" class="node">
<title>Node1</title>
<g id="a_node1"><a xlink:title=" ">
<polygon fill="#bfbfbf" stroke="black" points="425.5,-369.5 425.5,-388.5 529.5,-388.5 529.5,-369.5 425.5,-369.5"/>
<text text-anchor="middle" x="477.5" y="-376.5" font-family="Helvetica,sans-Serif" font-size="10.00">actuator_utils.cpp</text>
</a>
</g>
</g>
<!-- Node2 -->
<g id="node2" class="node">
<title>Node2</title>
<g id="a_node2"><a xlink:href="actuator__utils_8_h.html" target="_top" xlink:title=" ">
<polygon fill="white" stroke="black" points="528.5,-302.5 528.5,-332.5 668.5,-332.5 668.5,-302.5 528.5,-302.5"/>
<text text-anchor="start" x="536.5" y="-320.5" font-family="Helvetica,sans-Serif" font-size="10.00">amr&#45;wind/wind_energy</text>
<text text-anchor="middle" x="598.5" y="-309.5" font-family="Helvetica,sans-Serif" font-size="10.00">/actuator/actuator_utils.H</text>
</a>
</g>
</g>
<!-- Node1&#45;&gt;Node2 -->
<g id="edge1" class="edge">
<title>Node1&#45;&gt;Node2</title>
<path fill="none" stroke="midnightblue" d="M494.84,-369.48C511.99,-361.04 538.8,-347.86 560.86,-337.01"/>
<polygon fill="midnightblue" stroke="midnightblue" points="562.55,-340.08 569.98,-332.52 559.46,-333.79 562.55,-340.08"/>
</g>
<!-- Node17 -->
<g id="node17" class="node">
<title>Node17</title>
<g id="a_node17"><a xlink:href="actuator__types_8_h.html" target="_top" xlink:title=" ">
<polygon fill="white" stroke="black" points="283.5,-302.5 283.5,-332.5 429.5,-332.5 429.5,-302.5 283.5,-302.5"/>
<text text-anchor="start" x="291.5" y="-320.5" font-family="Helvetica,sans-Serif" font-size="10.00">amr&#45;wind/wind_energy</text>
<text text-anchor="middle" x="356.5" y="-309.5" font-family="Helvetica,sans-Serif" font-size="10.00">/actuator/actuator_types.H</text>
</a>
</g>
</g>
<!-- Node1&#45;&gt;Node17 -->
<g id="edge26" class="edge">
<title>Node1&#45;&gt;Node17</title>
<path fill="none" stroke="midnightblue" d="M460.16,-369.48C443.01,-361.04 416.2,-347.86 394.14,-337.01"/>
<polygon fill="midnightblue" stroke="midnightblue" points="395.54,-333.79 385.02,-332.52 392.45,-340.08 395.54,-333.79"/>
</g>
<!-- Node3 -->
<g id="node3" class="node">
<title>Node3</title>
<g id="a_node3"><a xlink:href="vector__space_8_h.html" target="_top" xlink:title=" ">
<polygon fill="white" stroke="black" points="429,-235.5 429,-265.5 564,-265.5 564,-235.5 429,-235.5"/>
<text text-anchor="start" x="437" y="-253.5" font-family="Helvetica,sans-Serif" font-size="10.00">amr&#45;wind/core/vs/vector</text>
<text text-anchor="middle" x="496.5" y="-242.5" font-family="Helvetica,sans-Serif" font-size="10.00">_space.H</text>
</a>
</g>
</g>
<!-- Node2&#45;&gt;Node3 -->
<g id="edge2" class="edge">
<title>Node2&#45;&gt;Node3</title>
<path fill="none" stroke="midnightblue" d="M576.37,-302.4C561.93,-293.2 542.9,-281.07 527.03,-270.95"/>
<polygon fill="midnightblue" stroke="midnightblue" points="528.9,-268 518.59,-265.58 525.14,-273.9 528.9,-268"/>
</g>
<!-- Node11 -->
<g id="node11" class="node">
<title>Node11</title>
<g id="a_node11"><a xlink:title=" ">
<polygon fill="white" stroke="#bfbfbf" points="536,-0.5 536,-19.5 583,-19.5 583,-0.5 536,-0.5"/>
<text text-anchor="middle" x="559.5" y="-7.5" font-family="Helvetica,sans-Serif" font-size="10.00">cmath</text>
</a>
</g>
</g>
<!-- Node2&#45;&gt;Node11 -->
<g id="edge24" class="edge">
<title>Node2&#45;&gt;Node11</title>
<path fill="none" stroke="midnightblue" d="M668.52,-302.74C760.51,-282.63 910.5,-241.87 910.5,-190 910.5,-190 910.5,-190 910.5,-132 910.5,-97.29 918.32,-79.2 892.5,-56 845.19,-13.47 671.36,-29.75 608.5,-20 603.63,-19.24 598.5,-18.38 593.46,-17.49"/>
<polygon fill="midnightblue" stroke="midnightblue" points="593.84,-14 583.38,-15.66 592.6,-20.89 593.84,-14"/>
</g>
<!-- Node15 -->
<g id="node15" class="node">
<title>Node15</title>
<g id="a_node15"><a xlink:title=" ">
<polygon fill="white" stroke="#bfbfbf" points="938.5,-241 938.5,-260 1048.5,-260 1048.5,-241 938.5,-241"/>
<text text-anchor="middle" x="993.5" y="-248" font-family="Helvetica,sans-Serif" font-size="10.00">AMReX_AmrCore.H</text>
</a>
</g>
</g>
<!-- Node2&#45;&gt;Node15 -->
<g id="edge23" class="edge">
<title>Node2&#45;&gt;Node15</title>
<path fill="none" stroke="midnightblue" d="M668.63,-306.74C734.78,-297.28 836.61,-282.03 924.5,-266 931.05,-264.8 937.94,-263.46 944.72,-262.09"/>
<polygon fill="midnightblue" stroke="midnightblue" points="945.44,-265.51 954.53,-260.07 944.03,-258.66 945.44,-265.51"/>
</g>
<!-- Node16 -->
<g id="node16" class="node">
<title>Node16</title>
<g id="a_node16"><a xlink:title=" ">
<polygon fill="white" stroke="#bfbfbf" points="582.5,-241 582.5,-260 614.5,-260 614.5,-241 582.5,-241"/>
<text text-anchor="middle" x="598.5" y="-248" font-family="Helvetica,sans-Serif" font-size="10.00">set</text>
</a>
</g>
</g>
<!-- Node2&#45;&gt;Node16 -->
<g id="edge25" class="edge">
<title>Node2&#45;&gt;Node16</title>
<path fill="none" stroke="midnightblue" d="M598.5,-302.4C598.5,-293.06 598.5,-280.71 598.5,-270.52"/>
<polygon fill="midnightblue" stroke="midnightblue" points="602,-270.19 598.5,-260.19 595,-270.19 602,-270.19"/>
</g>
<!-- Node4 -->
<g id="node4" class="node">
<title>Node4</title>
<g id="a_node4"><a xlink:href="vector_8_h.html" target="_top" xlink:title=" ">
<polygon fill="white" stroke="black" points="596,-123.5 596,-142.5 741,-142.5 741,-123.5 596,-123.5"/>
<text text-anchor="middle" x="668.5" y="-130.5" font-family="Helvetica,sans-Serif" font-size="10.00">amr&#45;wind/core/vs/vector.H</text>
</a>
</g>
</g>
<!-- Node3&#45;&gt;Node4 -->
<g id="edge3" class="edge">
<title>Node3&#45;&gt;Node4</title>
<path fill="none" stroke="midnightblue" d="M517.59,-235.34C550.55,-213.2 613.93,-170.64 647.09,-148.38"/>
<polygon fill="midnightblue" stroke="midnightblue" points="649.24,-151.15 655.59,-142.67 645.34,-145.34 649.24,-151.15"/>
</g>
<!-- Node12 -->
<g id="node12" class="node">
<title>Node12</title>
<g id="a_node12"><a xlink:href="tensor_8_h.html" target="_top" xlink:title=" ">
<polygon fill="white" stroke="black" points="404,-179.5 404,-198.5 549,-198.5 549,-179.5 404,-179.5"/>
<text text-anchor="middle" x="476.5" y="-186.5" font-family="Helvetica,sans-Serif" font-size="10.00">amr&#45;wind/core/vs/tensor.H</text>
</a>
</g>
</g>
<!-- Node3&#45;&gt;Node12 -->
<g id="edge12" class="edge">
<title>Node3&#45;&gt;Node12</title>
<path fill="none" stroke="midnightblue" d="M491.76,-235.4C489.03,-227.29 485.58,-217.01 482.64,-208.28"/>
<polygon fill="midnightblue" stroke="midnightblue" points="485.91,-207.02 479.41,-198.66 479.28,-209.25 485.91,-207.02"/>
</g>
<!-- Node5 -->
<g id="node5" class="node">
<title>Node5</title>
<g id="a_node5"><a xlink:title=" ">
<polygon fill="white" stroke="#bfbfbf" points="294,-0.5 294,-19.5 381,-19.5 381,-0.5 294,-0.5"/>
<text text-anchor="middle" x="337.5" y="-7.5" font-family="Helvetica,sans-Serif" font-size="10.00">AMReX_Gpu.H</text>
</a>
</g>
</g>
<!-- Node4&#45;&gt;Node5 -->
<g id="edge4" class="edge">
<title>Node4&#45;&gt;Node5</title>
<path fill="none" stroke="midnightblue" d="M595.69,-126.08C526.54,-119.39 428.39,-106.76 395.5,-87 372.56,-73.21 355.51,-46.64 346.03,-28.86"/>
<polygon fill="midnightblue" stroke="midnightblue" points="349.08,-27.14 341.44,-19.8 342.83,-30.3 349.08,-27.14"/>
</g>
<!-- Node6 -->
<g id="node6" class="node">
<title>Node6</title>
<g id="a_node6"><a xlink:href="vstraits_8_h.html" target="_top" xlink:title=" ">
<polygon fill="white" stroke="black" points="563.5,-62 563.5,-81 715.5,-81 715.5,-62 563.5,-62"/>
<text text-anchor="middle" x="639.5" y="-69" font-family="Helvetica,sans-Serif" font-size="10.00">amr&#45;wind/core/vs/vstraits.H</text>
</a>
</g>
</g>
<!-- Node4&#45;&gt;Node6 -->
<g id="edge5" class="edge">
<title>Node4&#45;&gt;Node6</title>
<path fill="none" stroke="midnightblue" d="M664.35,-123.48C660.12,-114.82 653.46,-101.15 648.1,-90.15"/>
<polygon fill="midnightblue" stroke="midnightblue" points="651.17,-88.46 643.65,-81.01 644.88,-91.53 651.17,-88.46"/>
</g>
<!-- Node9 -->
<g id="node9" class="node">
<title>Node9</title>
<g id="a_node9"><a xlink:href="vector_i_8_h.html" target="_top" xlink:title=" ">
<polygon fill="white" stroke="black" points="734,-62 734,-81 883,-81 883,-62 734,-62"/>
<text text-anchor="middle" x="808.5" y="-69" font-family="Helvetica,sans-Serif" font-size="10.00">amr&#45;wind/core/vs/vectorI.H</text>
</a>
</g>
</g>
<!-- Node4&#45;&gt;Node9 -->
<g id="edge8" class="edge">
<title>Node4&#45;&gt;Node9</title>
<path fill="none" stroke="midnightblue" d="M683.66,-123.48C705.35,-113.31 745.26,-96.26 774.22,-84.7"/>
<polygon fill="midnightblue" stroke="midnightblue" points="775.56,-87.93 783.58,-81.01 772.99,-81.42 775.56,-87.93"/>
</g>
<!-- Node7 -->
<g id="node7" class="node">
<title>Node7</title>
<g id="a_node7"><a xlink:title=" ">
<polygon fill="white" stroke="#bfbfbf" points="617.5,-0.5 617.5,-19.5 661.5,-19.5 661.5,-0.5 617.5,-0.5"/>
<text text-anchor="middle" x="639.5" y="-7.5" font-family="Helvetica,sans-Serif" font-size="10.00">limits</text>
</a>
</g>
</g>
<!-- Node6&#45;&gt;Node7 -->
<g id="edge6" class="edge">
<title>Node6&#45;&gt;Node7</title>
<path fill="none" stroke="midnightblue" d="M639.5,-61.98C639.5,-53.58 639.5,-40.48 639.5,-29.66"/>
<polygon fill="midnightblue" stroke="midnightblue" points="643,-29.51 639.5,-19.51 636,-29.51 643,-29.51"/>
</g>
<!-- Node8 -->
<g id="node8" class="node">
<title>Node8</title>
<g id="a_node8"><a xlink:title=" ">
<polygon fill="white" stroke="#bfbfbf" points="417.5,-0.5 417.5,-19.5 509.5,-19.5 509.5,-0.5 417.5,-0.5"/>
<text text-anchor="middle" x="463.5" y="-7.5" font-family="Helvetica,sans-Serif" font-size="10.00">AMReX_REAL.H</text>
</a>
</g>
</g>
<!-- Node6&#45;&gt;Node8 -->
<g id="edge7" class="edge">
<title>Node6&#45;&gt;Node8</title>
<path fill="none" stroke="midnightblue" d="M614.28,-61.98C583.83,-51.68 532.45,-34.31 498.26,-22.75"/>
<polygon fill="midnightblue" stroke="midnightblue" points="499.26,-19.4 488.67,-19.51 497.02,-26.03 499.26,-19.4"/>
</g>
<!-- Node9&#45;&gt;Node4 -->
<g id="edge11" class="edge">
<title>Node9&#45;&gt;Node4</title>
<path fill="none" stroke="midnightblue" d="M793.38,-81.01C771.7,-91.16 731.8,-108.22 702.82,-119.78"/>
<polygon fill="midnightblue" stroke="midnightblue" points="701.48,-116.55 693.46,-123.48 704.05,-123.06 701.48,-116.55"/>
</g>
<!-- Node10 -->
<g id="node10" class="node">
<title>Node10</title>
<g id="a_node10"><a xlink:title=" ">
<polygon fill="white" stroke="#bfbfbf" points="780,-0.5 780,-19.5 837,-19.5 837,-0.5 780,-0.5"/>
<text text-anchor="middle" x="808.5" y="-7.5" font-family="Helvetica,sans-Serif" font-size="10.00">ostream</text>
</a>
</g>
</g>
<!-- Node9&#45;&gt;Node10 -->
<g id="edge9" class="edge">
<title>Node9&#45;&gt;Node10</title>
<path fill="none" stroke="midnightblue" d="M808.5,-61.98C808.5,-53.58 808.5,-40.48 808.5,-29.66"/>
<polygon fill="midnightblue" stroke="midnightblue" points="812,-29.51 808.5,-19.51 805,-29.51 812,-29.51"/>
</g>
<!-- Node9&#45;&gt;Node11 -->
<g id="edge10" class="edge">
<title>Node9&#45;&gt;Node11</title>
<path fill="none" stroke="midnightblue" d="M772.82,-61.98C724.82,-50.5 640.04,-30.25 593.12,-19.03"/>
<polygon fill="midnightblue" stroke="midnightblue" points="593.69,-15.57 583.15,-16.65 592.06,-22.38 593.69,-15.57"/>
</g>
<!-- Node12&#45;&gt;Node4 -->
<g id="edge15" class="edge">
<title>Node12&#45;&gt;Node4</title>
<path fill="none" stroke="midnightblue" d="M506.92,-179.44C539.78,-170.2 592.28,-155.44 628.47,-145.26"/>
<polygon fill="midnightblue" stroke="midnightblue" points="629.54,-148.59 638.22,-142.52 627.65,-141.85 629.54,-148.59"/>
</g>
<!-- Node12&#45;&gt;Node5 -->
<g id="edge13" class="edge">
<title>Node12&#45;&gt;Node5</title>
<path fill="none" stroke="midnightblue" d="M445.04,-179.4C424.87,-172.47 399.4,-160.89 382.5,-143 352.25,-110.98 342.27,-57.8 339.02,-29.71"/>
<polygon fill="midnightblue" stroke="midnightblue" points="342.5,-29.26 338.03,-19.65 335.53,-29.95 342.5,-29.26"/>
</g>
<!-- Node12&#45;&gt;Node6 -->
<g id="edge14" class="edge">
<title>Node12&#45;&gt;Node6</title>
<path fill="none" stroke="midnightblue" d="M491.63,-179.34C506.62,-170.61 530.08,-156.53 549.5,-143 575.25,-125.06 603.53,-102.39 621.39,-87.67"/>
<polygon fill="midnightblue" stroke="midnightblue" points="623.8,-90.22 629.26,-81.14 619.33,-84.83 623.8,-90.22"/>
</g>
<!-- Node13 -->
<g id="node13" class="node">
<title>Node13</title>
<g id="a_node13"><a xlink:href="tensor_i_8_h.html" target="_top" xlink:title=" ">
<polygon fill="white" stroke="black" points="391,-123.5 391,-142.5 540,-142.5 540,-123.5 391,-123.5"/>
<text text-anchor="middle" x="465.5" y="-130.5" font-family="Helvetica,sans-Serif" font-size="10.00">amr&#45;wind/core/vs/tensorI.H</text>
</a>
</g>
</g>
<!-- Node12&#45;&gt;Node13 -->
<g id="edge16" class="edge">
<title>Node12&#45;&gt;Node13</title>
<path fill="none" stroke="midnightblue" d="M469.52,-179.08C466.58,-172.01 464.08,-161.86 462.89,-152.99"/>
<polygon fill="midnightblue" stroke="midnightblue" points="466.36,-152.47 462.15,-142.75 459.38,-152.98 466.36,-152.47"/>
</g>
<!-- Node13&#45;&gt;Node11 -->
<g id="edge17" class="edge">
<title>Node13&#45;&gt;Node11</title>
<path fill="none" stroke="midnightblue" d="M477.46,-123.31C488.5,-114.89 504.9,-101.31 516.5,-87 531.23,-68.84 543.81,-44.98 551.5,-28.88"/>
<polygon fill="midnightblue" stroke="midnightblue" points="554.79,-30.1 555.81,-19.55 548.43,-27.16 554.79,-30.1"/>
</g>
<!-- Node13&#45;&gt;Node12 -->
<g id="edge18" class="edge">
<title>Node13&#45;&gt;Node12</title>
<path fill="none" stroke="midnightblue" d="M472.41,-142.75C475.39,-149.86 477.93,-160.14 479.12,-169.1"/>
<polygon fill="midnightblue" stroke="midnightblue" points="475.63,-169.36 479.85,-179.08 482.61,-168.86 475.63,-169.36"/>
</g>
<!-- Node14 -->
<g id="node14" class="node">
<title>Node14</title>
<g id="a_node14"><a xlink:href="trig__ops_8_h.html" target="_top" xlink:title="Trigonometric utilities.">
<polygon fill="white" stroke="black" points="404,-56.5 404,-86.5 507,-86.5 507,-56.5 404,-56.5"/>
<text text-anchor="start" x="412" y="-74.5" font-family="Helvetica,sans-Serif" font-size="10.00">amr&#45;wind/utilities</text>
<text text-anchor="middle" x="455.5" y="-63.5" font-family="Helvetica,sans-Serif" font-size="10.00">/trig_ops.H</text>
</a>
</g>
</g>
<!-- Node13&#45;&gt;Node14 -->
<g id="edge19" class="edge">
<title>Node13&#45;&gt;Node14</title>
<path fill="none" stroke="midnightblue" d="M464.07,-123.48C462.88,-116.4 461.13,-105.97 459.52,-96.39"/>
<polygon fill="midnightblue" stroke="midnightblue" points="462.97,-95.8 457.86,-86.52 456.06,-96.96 462.97,-95.8"/>
</g>
<!-- Node14&#45;&gt;Node5 -->
<g id="edge22" class="edge">
<title>Node14&#45;&gt;Node5</title>
<path fill="none" stroke="midnightblue" d="M427.54,-56.4C408.18,-46.64 382.59,-33.74 363.64,-24.18"/>
<polygon fill="midnightblue" stroke="midnightblue" points="365.17,-21.04 354.67,-19.66 362.02,-27.29 365.17,-21.04"/>
</g>
<!-- Node14&#45;&gt;Node8 -->
<g id="edge21" class="edge">
<title>Node14&#45;&gt;Node8</title>
<path fill="none" stroke="midnightblue" d="M457.4,-56.4C458.47,-48.38 459.84,-38.23 461,-29.57"/>
<polygon fill="midnightblue" stroke="midnightblue" points="464.47,-30.04 462.34,-19.66 457.53,-29.1 464.47,-30.04"/>
</g>
<!-- Node14&#45;&gt;Node11 -->
<g id="edge20" class="edge">
<title>Node14&#45;&gt;Node11</title>
<path fill="none" stroke="midnightblue" d="M480.15,-56.4C496.82,-46.86 518.73,-34.32 535.31,-24.84"/>
<polygon fill="midnightblue" stroke="midnightblue" points="537.43,-27.66 544.37,-19.66 533.95,-21.59 537.43,-27.66"/>
</g>
<!-- Node17&#45;&gt;Node3 -->
<g id="edge31" class="edge">
<title>Node17&#45;&gt;Node3</title>
<path fill="none" stroke="midnightblue" d="M386.88,-302.4C407.43,-292.86 434.76,-280.16 457,-269.84"/>
<polygon fill="midnightblue" stroke="midnightblue" points="458.59,-272.96 466.18,-265.58 455.64,-266.61 458.59,-272.96"/>
</g>
<!-- Node17&#45;&gt;Node5 -->
<g id="edge32" class="edge">
<title>Node17&#45;&gt;Node5</title>
<path fill="none" stroke="midnightblue" d="M283.25,-314.33C199.4,-307.48 73.5,-281.89 73.5,-190 73.5,-190 73.5,-190 73.5,-132 73.5,-40.32 206.69,-17.83 283.87,-12.5"/>
<polygon fill="midnightblue" stroke="midnightblue" points="284.14,-15.99 293.91,-11.88 283.71,-9 284.14,-15.99"/>
</g>
<!-- Node17&#45;&gt;Node16 -->
<g id="edge34" class="edge">
<title>Node17&#45;&gt;Node16</title>
<path fill="none" stroke="midnightblue" d="M429.98,-305.02C472.79,-296.96 527.29,-284.3 573.5,-266 574.38,-265.65 575.26,-265.28 576.15,-264.88"/>
<polygon fill="midnightblue" stroke="midnightblue" points="578.11,-267.8 585.38,-260.09 574.89,-261.59 578.11,-267.8"/>
</g>
<!-- Node18 -->
<g id="node18" class="node">
<title>Node18</title>
<g id="a_node18"><a xlink:href="_slice_8_h.html" target="_top" xlink:title=" ">
<polygon fill="white" stroke="black" points="160.5,-241 160.5,-260 284.5,-260 284.5,-241 160.5,-241"/>
<text text-anchor="middle" x="222.5" y="-248" font-family="Helvetica,sans-Serif" font-size="10.00">amr&#45;wind/core/Slice.H</text>
</a>
</g>
</g>
<!-- Node17&#45;&gt;Node18 -->
<g id="edge27" class="edge">
<title>Node17&#45;&gt;Node18</title>
<path fill="none" stroke="midnightblue" d="M327.42,-302.4C304.12,-291.09 271.69,-275.36 249.07,-264.39"/>
<polygon fill="midnightblue" stroke="midnightblue" points="250.56,-261.22 240.04,-260.01 247.51,-267.52 250.56,-261.22"/>
</g>
<!-- Node21 -->
<g id="node21" class="node">
<title>Node21</title>
<g id="a_node21"><a xlink:title=" ">
<polygon fill="white" stroke="#bfbfbf" points="302.5,-241 302.5,-260 410.5,-260 410.5,-241 302.5,-241"/>
<text text-anchor="middle" x="356.5" y="-248" font-family="Helvetica,sans-Serif" font-size="10.00">AMReX_RealBox.H</text>
</a>
</g>
</g>
<!-- Node17&#45;&gt;Node21 -->
<g id="edge33" class="edge">
<title>Node17&#45;&gt;Node21</title>
<path fill="none" stroke="midnightblue" d="M356.5,-302.4C356.5,-293.06 356.5,-280.71 356.5,-270.52"/>
<polygon fill="midnightblue" stroke="midnightblue" points="360,-270.19 356.5,-260.19 353,-270.19 360,-270.19"/>
</g>
<!-- Node22 -->
<g id="node22" class="node">
<title>Node22</title>
<g id="a_node22"><a xlink:title=" ">
<polygon fill="white" stroke="#bfbfbf" points="0,-241 0,-260 45,-260 45,-241 0,-241"/>
<text text-anchor="middle" x="22.5" y="-248" font-family="Helvetica,sans-Serif" font-size="10.00">utility</text>
</a>
</g>
</g>
<!-- Node17&#45;&gt;Node22 -->
<g id="edge35" class="edge">
<title>Node17&#45;&gt;Node22</title>
<path fill="none" stroke="midnightblue" d="M283.26,-308.3C222.58,-300.5 134.46,-286.82 59.5,-266 56.91,-265.28 54.25,-264.44 51.6,-263.54"/>
<polygon fill="midnightblue" stroke="midnightblue" points="52.81,-260.26 42.22,-260.09 50.39,-266.83 52.81,-260.26"/>
</g>
<!-- Node18&#45;&gt;Node5 -->
<g id="edge30" class="edge">
<title>Node18&#45;&gt;Node5</title>
<path fill="none" stroke="midnightblue" d="M236.2,-240.92C249.39,-231.99 268.97,-216.82 280.5,-199 316.13,-143.95 330.39,-65.55 335.29,-29.92"/>
<polygon fill="midnightblue" stroke="midnightblue" points="338.81,-29.93 336.6,-19.57 331.87,-29.05 338.81,-29.93"/>
</g>
<!-- Node19 -->
<g id="node19" class="node">
<title>Node19</title>
<g id="a_node19"><a xlink:title=" ">
<polygon fill="white" stroke="#bfbfbf" points="102,-179.5 102,-198.5 155,-198.5 155,-179.5 102,-179.5"/>
<text text-anchor="middle" x="128.5" y="-186.5" font-family="Helvetica,sans-Serif" font-size="10.00">iterator</text>
</a>
</g>
</g>
<!-- Node18&#45;&gt;Node19 -->
<g id="edge28" class="edge">
<title>Node18&#45;&gt;Node19</title>
<path fill="none" stroke="midnightblue" d="M209.03,-240.98C193.82,-231.34 168.81,-215.52 150.7,-204.05"/>
<polygon fill="midnightblue" stroke="midnightblue" points="152.26,-200.9 141.94,-198.51 148.52,-206.81 152.26,-200.9"/>
</g>
<!-- Node20 -->
<g id="node20" class="node">
<title>Node20</title>
<g id="a_node20"><a xlink:title=" ">
<polygon fill="white" stroke="#bfbfbf" points="173.5,-179.5 173.5,-198.5 271.5,-198.5 271.5,-179.5 173.5,-179.5"/>
<text text-anchor="middle" x="222.5" y="-186.5" font-family="Helvetica,sans-Serif" font-size="10.00">AMReX_Vector.H</text>
</a>
</g>
</g>
<!-- Node18&#45;&gt;Node20 -->
<g id="edge29" class="edge">
<title>Node18&#45;&gt;Node20</title>
<path fill="none" stroke="midnightblue" d="M222.5,-240.98C222.5,-232.58 222.5,-219.48 222.5,-208.66"/>
<polygon fill="midnightblue" stroke="midnightblue" points="226,-208.51 222.5,-198.51 219,-208.51 226,-208.51"/>
</g>
</g>
</svg>
        <g id="navigator" transform="translate(0 0)" fill="#404254">
                <rect fill="#f2f5e9" fill-opacity="0.5" stroke="#606060" stroke-width=".5" x="0" y="0" width="60" height="60"/>
                <use id="zoomplus" xlink:href="#zoomPlus" x="17" y="9" onmousedown="handleZoom(evt,'in')"/>
                <use id="zoomminus" xlink:href="#zoomMin" x="42" y="9" onmousedown="handleZoom(evt,'out')"/>
                <use id="reset" xlink:href="#resetDef" x="30" y="36" onmousedown="handleReset()"/>
                <g id="arrowUp" xlink:href="#dirArrow" transform="translate(30 24)" onmousedown="handlePan(0,-1)">
                  <use xlink:href="#rim" fill="#404040">
                        <set attributeName="fill" to="#808080" begin="arrowUp.mouseover" end="arrowUp.mouseout"/>
                  </use>
                  <path fill="none" stroke="white" stroke-width="1.5" d="M0,-3.0v7 M-2.5,-0.5L0,-3.0L2.5,-0.5"/>
                </g>
                <g id="arrowRight" xlink:href="#dirArrow" transform="rotate(90) translate(36 -43)" onmousedown="handlePan(1,0)">
                  <use xlink:href="#rim" fill="#404040">
                        <set attributeName="fill" to="#808080" begin="arrowRight.mouseover" end="arrowRight.mouseout"/>
                  </use>
                  <path fill="none" stroke="white" stroke-width="1.5" d="M0,-3.0v7 M-2.5,-0.5L0,-3.0L2.5,-0.5"/>
                </g>
                <g id="arrowDown" xlink:href="#dirArrow" transform="rotate(180) translate(-30 -48)" onmousedown="handlePan(0,1)">
                  <use xlink:href="#rim" fill="#404040">
                        <set attributeName="fill" to="#808080" begin="arrowDown.mouseover" end="arrowDown.mouseout"/>
                  </use>
                  <path fill="none" stroke="white" stroke-width="1.5" d="M0,-3.0v7 M-2.5,-0.5L0,-3.0L2.5,-0.5"/>
                </g>
                <g id="arrowLeft" xlink:href="#dirArrow" transform="rotate(270) translate(-36 17)" onmousedown="handlePan(-1,0)">
                  <use xlink:href="#rim" fill="#404040">
                        <set attributeName="fill" to="#808080" begin="arrowLeft.mouseover" end="arrowLeft.mouseout"/>
                  </use>
                  <path fill="none" stroke="white" stroke-width="1.5" d="M0,-3.0v7 M-2.5,-0.5L0,-3.0L2.5,-0.5"/>
                </g>
        </g>
        <svg viewBox="0 0 15 15" width="100%" height="30px" preserveAspectRatio="xMaxYMin meet">
         <g id="arrow_out" transform="scale(0.3 0.3)">
          <a xlink:href="actuator__utils_8cpp__incl_org.svg" target="_base">
           <rect id="button" ry="5" rx="5" y="6" x="6" height="38" width="38"
                fill="#f2f5e9" fill-opacity="0.5" stroke="#606060" stroke-width="1.0"/>
           <path id="arrow"
             d="M 11.500037,31.436501 C 11.940474,20.09759 22.043105,11.32322 32.158766,21.979434 L 37.068811,17.246167 C 37.068811,17.246167 37.088388,32 37.088388,32 L 22.160133,31.978069 C 22.160133,31.978069 26.997745,27.140456 26.997745,27.140456 C 18.528582,18.264221 13.291696,25.230495 11.500037,31.436501 z"
             style="fill:#404040;"/>
          </a>
         </g>
        </svg>
</svg>
