<?xml version="1.0" encoding="UTF-8" standalone="no"?>
<!DOCTYPE svg PUBLIC "-//W3C//DTD SVG 1.1//EN"
 "http://www.w3.org/Graphics/SVG/1.1/DTD/svg11.dtd">
<!-- Generated by graphviz version 2.43.0 (0)
 -->
<!-- Title: amr_wind::channel_flow::ChannelFlow Pages: 1 -->
<!--zoomable 692 -->
<svg id="main" version="1.1" xmlns="http://www.w3.org/2000/svg" xmlns:xlink="http://www.w3.org/1999/xlink" xml:space="preserve" onload="init(evt)">
<style type="text/css"><![CDATA[
.edge:hover path { stroke: red; }
.edge:hover polygon { stroke: red; fill: red; }
]]></style>
<script type="text/javascript"><![CDATA[
var edges = document.getElementsByTagName('g');
if (edges && edges.length) {
  for (var i=0;i<edges.length;i++) {
    if (edges[i].id.substr(0,4)=='edge') {
      edges[i].setAttribute('class','edge');
    }
  }
}
]]></script>
        <defs>
                <circle id="rim" cx="0" cy="0" r="7"/>
                <circle id="rim2" cx="0" cy="0" r="3.5"/>
                <g id="zoomPlus">
                        <use xlink:href="#rim" fill="#404040">
                                <set attributeName="fill" to="#808080" begin="zoomplus.mouseover" end="zoomplus.mouseout"/>
                        </use>
                        <path d="M-4,0h8M0,-4v8" fill="none" stroke="white" stroke-width="1.5" pointer-events="none"/>
                </g>
                <g id="zoomMin">
                        <use xlink:href="#rim" fill="#404040">
                                <set attributeName="fill" to="#808080" begin="zoomminus.mouseover" end="zoomminus.mouseout"/>
                        </use>
                        <path d="M-4,0h8" fill="none" stroke="white" stroke-width="1.5" pointer-events="none"/>
                </g>
                <g id="dirArrow">
                        <path fill="none" stroke="white" stroke-width="1.5" d="M0,-3.0v7 M-2.5,-0.5L0,-3.0L2.5,-0.5"/>
                </g>
               <g id="resetDef">
                       <use xlink:href="#rim2" fill="#404040">
                               <set attributeName="fill" to="#808080" begin="reset.mouseover" end="reset.mouseout"/>
                       </use>
               </g>
        </defs>

<script type="text/javascript">
var viewWidth = 2310;
var viewHeight = 692;
var sectionId = 'dynsection-1';
</script>
<script xlink:href="svgpan.js"/>
<svg id="graph" class="graph">
<g id="viewport">
<title>amr_wind::channel_flow::ChannelFlow</title>
<polygon fill="white" stroke="transparent" points="-4,4 -4,-688 2306,-688 2306,4 -4,4"/>
<!-- Node1 -->
<g id="node1" class="node">
<title>Node1</title>
<g id="a_node1"><a xlink:title="Channel Flow physics.">
<polygon fill="#bfbfbf" stroke="black" points="2168,-330 2168,-360 2302,-360 2302,-330 2168,-330"/>
<text text-anchor="start" x="2176" y="-348" font-family="Helvetica,sans-Serif" font-size="10.00">amr_wind::channel_flow</text>
<text text-anchor="middle" x="2235" y="-337" font-family="Helvetica,sans-Serif" font-size="10.00">::ChannelFlow</text>
</a>
</g>
</g>
<!-- Node2 -->
<g id="node2" class="node">
<title>Node2</title>
<g id="a_node2"><a xlink:title=" ">
<polygon fill="white" stroke="#bfbfbf" points="1946.5,-632 1946.5,-662 2054.5,-662 2054.5,-632 1946.5,-632"/>
<text text-anchor="start" x="1954.5" y="-650" font-family="Helvetica,sans-Serif" font-size="10.00">Physics::Register&lt;</text>
<text text-anchor="middle" x="2000.5" y="-639" font-family="Helvetica,sans-Serif" font-size="10.00"> ChannelFlow &gt;</text>
</a>
</g>
</g>
<!-- Node2&#45;&gt;Node1 -->
<g id="edge1" class="edge">
<title>Node2&#45;&gt;Node1</title>
<path fill="none" stroke="midnightblue" d="M2064.64,-648.37C2093.84,-645.77 2127.05,-637.75 2150,-617 2227.71,-546.71 2234.32,-406.3 2234.3,-360.11"/>
<polygon fill="midnightblue" stroke="midnightblue" points="2064.24,-644.89 2054.5,-649.08 2064.72,-651.87 2064.24,-644.89"/>
</g>
<!-- Node3 -->
<g id="node3" class="node">
<title>Node3</title>
<g id="a_node3"><a xlink:href="classamr__wind_1_1_c_f_d_sim.html" target="_top" xlink:title="Data structures for a CFD simulation.">
<polygon fill="white" stroke="black" points="1691,-365.5 1691,-384.5 1801,-384.5 1801,-365.5 1691,-365.5"/>
<text text-anchor="middle" x="1746" y="-372.5" font-family="Helvetica,sans-Serif" font-size="10.00">amr_wind::CFDSim</text>
</a>
</g>
</g>
<!-- Node3&#45;&gt;Node1 -->
<g id="edge2" class="edge">
<title>Node3&#45;&gt;Node1</title>
<path fill="none" stroke="#9a32cd" stroke-dasharray="5,2" d="M1811.54,-371.02C1904.28,-365.31 2074.33,-354.84 2167.91,-349.07"/>
<polygon fill="#9a32cd" stroke="#9a32cd" points="1811.21,-367.54 1801.45,-371.65 1811.64,-374.52 1811.21,-367.54"/>
<text text-anchor="middle" x="2000.5" y="-366" font-family="Helvetica,sans-Serif" font-size="10.00"> m_sim</text>
</g>
<!-- Node9 -->
<g id="node9" class="node">
<title>Node9</title>
<g id="a_node9"><a xlink:href="classamr__wind_1_1pde_1_1_p_d_e_mgr.html" target="_top" xlink:title="PDE systems manager.">
<polygon fill="white" stroke="black" points="1934,-240.5 1934,-259.5 2067,-259.5 2067,-240.5 1934,-240.5"/>
<text text-anchor="middle" x="2000.5" y="-247.5" font-family="Helvetica,sans-Serif" font-size="10.00">amr_wind::pde::PDEMgr</text>
</a>
</g>
</g>
<!-- Node3&#45;&gt;Node9 -->
<g id="edge19" class="edge">
<title>Node3&#45;&gt;Node9</title>
<path fill="none" stroke="#9a32cd" stroke-dasharray="5,2" d="M1801.54,-363.19C1843.1,-353.64 1896.41,-340 1916,-329 1948.89,-310.53 1978.73,-276.27 1992.09,-259.61"/>
<polygon fill="#9a32cd" stroke="#9a32cd" points="1800.5,-359.84 1791.52,-365.47 1802.05,-366.67 1800.5,-359.84"/>
<text text-anchor="middle" x="1885.5" y="-352" font-family="Helvetica,sans-Serif" font-size="10.00"> m_sim</text>
</g>
<!-- Node27 -->
<g id="node27" class="node">
<title>Node27</title>
<g id="a_node27"><a xlink:href="classamr__wind_1_1_wall_function.html" target="_top" xlink:title="Wall&#45;function computations for LES simulations.">
<polygon fill="white" stroke="black" points="1934,-149.5 1934,-168.5 2067,-168.5 2067,-149.5 1934,-149.5"/>
<text text-anchor="middle" x="2000.5" y="-156.5" font-family="Helvetica,sans-Serif" font-size="10.00">amr_wind::WallFunction</text>
</a>
</g>
</g>
<!-- Node3&#45;&gt;Node27 -->
<g id="edge47" class="edge">
<title>Node3&#45;&gt;Node27</title>
<path fill="none" stroke="#9a32cd" stroke-dasharray="5,2" d="M1765.76,-358.79C1787.28,-340.21 1823.64,-308.85 1855,-282 1904.55,-239.58 1963.89,-189.2 1988.24,-168.55"/>
<polygon fill="#9a32cd" stroke="#9a32cd" points="1763.3,-356.29 1758.02,-365.47 1767.88,-361.59 1763.3,-356.29"/>
<text text-anchor="middle" x="1885.5" y="-285" font-family="Helvetica,sans-Serif" font-size="10.00"> m_sim</text>
</g>
<!-- Node4 -->
<g id="node4" class="node">
<title>Node4</title>
<g id="a_node4"><a xlink:title=" ">
<polygon fill="white" stroke="#bfbfbf" points="1340.5,-309 1340.5,-339 1473.5,-339 1473.5,-309 1340.5,-309"/>
<text text-anchor="start" x="1348.5" y="-327" font-family="Helvetica,sans-Serif" font-size="10.00">std::unique_ptr&lt; amr</text>
<text text-anchor="middle" x="1407" y="-316" font-family="Helvetica,sans-Serif" font-size="10.00">_wind::helics_storage &gt;</text>
</a>
</g>
</g>
<!-- Node4&#45;&gt;Node3 -->
<g id="edge3" class="edge">
<title>Node4&#45;&gt;Node3</title>
<path fill="none" stroke="#9a32cd" stroke-dasharray="5,2" d="M1483.56,-335.05C1528.21,-341.62 1585.84,-350.18 1637,-358 1654.54,-360.68 1673.68,-363.67 1690.9,-366.39"/>
<polygon fill="#9a32cd" stroke="#9a32cd" points="1484.07,-331.59 1473.67,-333.59 1483.05,-338.51 1484.07,-331.59"/>
<text text-anchor="middle" x="1572" y="-361" font-family="Helvetica,sans-Serif" font-size="10.00"> m_helics</text>
</g>
<!-- Node5 -->
<g id="node5" class="node">
<title>Node5</title>
<g id="a_node5"><a xlink:title=" ">
<polygon fill="white" stroke="#bfbfbf" points="973,-412.5 973,-431.5 1091,-431.5 1091,-412.5 973,-412.5"/>
<text text-anchor="middle" x="1032" y="-419.5" font-family="Helvetica,sans-Serif" font-size="10.00">std::unique_ptr&lt; T &gt;</text>
</a>
</g>
</g>
<!-- Node5&#45;&gt;Node4 -->
<g id="edge4" class="edge">
<title>Node5&#45;&gt;Node4</title>
<path fill="none" stroke="orange" stroke-dasharray="5,2" d="M1050.97,-405.65C1068.67,-390.57 1097.17,-368.91 1126,-358 1195.96,-331.52 1282.12,-324.54 1340.24,-323.21"/>
<polygon fill="orange" stroke="orange" points="1048.41,-403.23 1043.19,-412.45 1053.02,-408.5 1048.41,-403.23"/>
<text text-anchor="start" x="1168" y="-372" font-family="Helvetica,sans-Serif" font-size="10.00"> &lt; amr_wind::helics</text>
<text text-anchor="middle" x="1216.5" y="-361" font-family="Helvetica,sans-Serif" font-size="10.00">_storage &gt;</text>
</g>
<!-- Node7 -->
<g id="node7" class="node">
<title>Node7</title>
<g id="a_node7"><a xlink:title=" ">
<polygon fill="white" stroke="#bfbfbf" points="1347,-615 1347,-645 1467,-645 1467,-615 1347,-615"/>
<text text-anchor="start" x="1355" y="-633" font-family="Helvetica,sans-Serif" font-size="10.00">std::unique_ptr&lt; amr</text>
<text text-anchor="middle" x="1407" y="-622" font-family="Helvetica,sans-Serif" font-size="10.00">_wind::IOManager &gt;</text>
</a>
</g>
</g>
<!-- Node5&#45;&gt;Node7 -->
<g id="edge7" class="edge">
<title>Node5&#45;&gt;Node7</title>
<path fill="none" stroke="orange" stroke-dasharray="5,2" d="M1037.81,-441.7C1047.66,-477.52 1073.75,-552.94 1126,-589 1160.83,-613.03 1275.55,-623.29 1346.89,-627.42"/>
<polygon fill="orange" stroke="orange" points="1041.07,-440.36 1035.17,-431.56 1034.3,-442.12 1041.07,-440.36"/>
<text text-anchor="middle" x="1216.5" y="-627" font-family="Helvetica,sans-Serif" font-size="10.00"> &lt; amr_wind::IOManager &gt;</text>
</g>
<!-- Node8 -->
<g id="node8" class="node">
<title>Node8</title>
<g id="a_node8"><a xlink:title=" ">
<polygon fill="white" stroke="#bfbfbf" points="1325,-566 1325,-596 1489,-596 1489,-566 1325,-566"/>
<text text-anchor="start" x="1333" y="-584" font-family="Helvetica,sans-Serif" font-size="10.00">std::unique_ptr&lt; amr</text>
<text text-anchor="middle" x="1407" y="-573" font-family="Helvetica,sans-Serif" font-size="10.00">_wind::PostProcessManager &gt;</text>
</a>
</g>
</g>
<!-- Node5&#45;&gt;Node8 -->
<g id="edge9" class="edge">
<title>Node5&#45;&gt;Node8</title>
<path fill="none" stroke="orange" stroke-dasharray="5,2" d="M1041.66,-440.76C1055.36,-468.06 1084.74,-518.11 1126,-542 1158.86,-561.03 1254.31,-571.31 1324.67,-576.46"/>
<polygon fill="orange" stroke="orange" points="1044.7,-438.99 1037.19,-431.51 1038.39,-442.03 1044.7,-438.99"/>
<text text-anchor="middle" x="1216.5" y="-577" font-family="Helvetica,sans-Serif" font-size="10.00"> &lt; amr_wind::PostProcessManager &gt;</text>
</g>
<!-- Node17 -->
<g id="node17" class="node">
<title>Node17</title>
<g id="a_node17"><a xlink:title=" ">
<polygon fill="white" stroke="#bfbfbf" points="1507,-264 1507,-294 1637,-294 1637,-264 1507,-264"/>
<text text-anchor="start" x="1515" y="-282" font-family="Helvetica,sans-Serif" font-size="10.00">std::unique_ptr&lt; amr</text>
<text text-anchor="middle" x="1572" y="-271" font-family="Helvetica,sans-Serif" font-size="10.00">_wind::pde::PDEBase &gt;</text>
</a>
</g>
</g>
<!-- Node5&#45;&gt;Node17 -->
<g id="edge22" class="edge">
<title>Node5&#45;&gt;Node17</title>
<path fill="none" stroke="orange" stroke-dasharray="5,2" d="M1042.17,-403.17C1056.16,-376.81 1085.52,-329.8 1126,-309 1190.65,-275.77 1399.83,-275.15 1506.76,-277.17"/>
<polygon fill="orange" stroke="orange" points="1039.01,-401.67 1037.58,-412.17 1045.24,-404.86 1039.01,-401.67"/>
<text text-anchor="middle" x="1216.5" y="-312" font-family="Helvetica,sans-Serif" font-size="10.00"> &lt; amr_wind::pde::PDEBase &gt;</text>
</g>
<!-- Node19 -->
<g id="node19" class="node">
<title>Node19</title>
<g id="a_node19"><a xlink:title=" ">
<polygon fill="white" stroke="#bfbfbf" points="1335.5,-517 1335.5,-547 1478.5,-547 1478.5,-517 1335.5,-517"/>
<text text-anchor="start" x="1343.5" y="-535" font-family="Helvetica,sans-Serif" font-size="10.00">std::unique_ptr&lt; amr</text>
<text text-anchor="middle" x="1407" y="-524" font-family="Helvetica,sans-Serif" font-size="10.00">_wind::OversetManager &gt;</text>
</a>
</g>
</g>
<!-- Node5&#45;&gt;Node19 -->
<g id="edge25" class="edge">
<title>Node5&#45;&gt;Node19</title>
<path fill="none" stroke="orange" stroke-dasharray="5,2" d="M1050.62,-438.67C1068.25,-454.33 1096.88,-477.09 1126,-489 1193.71,-516.7 1277.27,-526.73 1335.4,-530.27"/>
<polygon fill="orange" stroke="orange" points="1052.64,-435.78 1042.89,-431.63 1047.92,-440.95 1052.64,-435.78"/>
<text text-anchor="middle" x="1216.5" y="-530" font-family="Helvetica,sans-Serif" font-size="10.00"> &lt; amr_wind::OversetManager &gt;</text>
</g>
<!-- Node20 -->
<g id="node20" class="node">
<title>Node20</title>
<g id="a_node20"><a xlink:title=" ">
<polygon fill="white" stroke="#bfbfbf" points="1326.5,-456.5 1326.5,-497.5 1487.5,-497.5 1487.5,-456.5 1326.5,-456.5"/>
<text text-anchor="start" x="1334.5" y="-485.5" font-family="Helvetica,sans-Serif" font-size="10.00">std::unique_ptr&lt; amr</text>
<text text-anchor="start" x="1334.5" y="-474.5" font-family="Helvetica,sans-Serif" font-size="10.00">_wind::turbulence::Turbulence</text>
<text text-anchor="middle" x="1407" y="-463.5" font-family="Helvetica,sans-Serif" font-size="10.00">Model &gt;</text>
</a>
</g>
</g>
<!-- Node5&#45;&gt;Node20 -->
<g id="edge27" class="edge">
<title>Node5&#45;&gt;Node20</title>
<path fill="none" stroke="orange" stroke-dasharray="5,2" d="M1101.16,-433.14C1109.52,-434.46 1117.95,-435.78 1126,-437 1193.48,-447.26 1270.23,-458.17 1326.29,-466"/>
<polygon fill="orange" stroke="orange" points="1101.44,-429.64 1091.02,-431.52 1100.34,-436.55 1101.44,-429.64"/>
<text text-anchor="start" x="1156" y="-477" font-family="Helvetica,sans-Serif" font-size="10.00"> &lt; amr_wind::turbulence</text>
<text text-anchor="middle" x="1216.5" y="-466" font-family="Helvetica,sans-Serif" font-size="10.00">::TurbulenceModel &gt;</text>
</g>
<!-- Node23 -->
<g id="node23" class="node">
<title>Node23</title>
<g id="a_node23"><a xlink:title=" ">
<polygon fill="white" stroke="#bfbfbf" points="1347,-407 1347,-437 1467,-437 1467,-407 1347,-407"/>
<text text-anchor="start" x="1355" y="-425" font-family="Helvetica,sans-Serif" font-size="10.00">std::unique_ptr&lt; amr</text>
<text text-anchor="middle" x="1407" y="-414" font-family="Helvetica,sans-Serif" font-size="10.00">_wind::MeshMap &gt;</text>
</a>
</g>
</g>
<!-- Node5&#45;&gt;Node23 -->
<g id="edge33" class="edge">
<title>Node5&#45;&gt;Node23</title>
<path fill="none" stroke="orange" stroke-dasharray="5,2" d="M1101.37,-422C1171.71,-422 1280.15,-422 1346.9,-422"/>
<polygon fill="orange" stroke="orange" points="1101.28,-418.5 1091.28,-422 1101.28,-425.5 1101.28,-418.5"/>
<text text-anchor="middle" x="1216.5" y="-425" font-family="Helvetica,sans-Serif" font-size="10.00"> &lt; amr_wind::MeshMap &gt;</text>
</g>
<!-- Node24 -->
<g id="node24" class="node">
<title>Node24</title>
<g id="a_node24"><a xlink:title=" ">
<polygon fill="white" stroke="#bfbfbf" points="1343,-358 1343,-388 1471,-388 1471,-358 1343,-358"/>
<text text-anchor="start" x="1351" y="-376" font-family="Helvetica,sans-Serif" font-size="10.00">std::unique_ptr&lt; amr</text>
<text text-anchor="middle" x="1407" y="-365" font-family="Helvetica,sans-Serif" font-size="10.00">_wind::ExtSolverMgr &gt;</text>
</a>
</g>
</g>
<!-- Node5&#45;&gt;Node24 -->
<g id="edge35" class="edge">
<title>Node5&#45;&gt;Node24</title>
<path fill="none" stroke="orange" stroke-dasharray="5,2" d="M1100.13,-410.85C1108.83,-409.5 1117.62,-408.18 1126,-407 1200.31,-396.5 1285.99,-386.39 1342.8,-379.96"/>
<polygon fill="orange" stroke="orange" points="1099.33,-407.43 1090,-412.45 1100.42,-414.35 1099.33,-407.43"/>
<text text-anchor="middle" x="1216.5" y="-410" font-family="Helvetica,sans-Serif" font-size="10.00"> &lt; amr_wind::ExtSolverMgr &gt;</text>
</g>
<!-- Node6 -->
<g id="node6" class="node">
<title>Node6</title>
<g id="a_node6"><a xlink:title=" ">
<polygon fill="white" stroke="#bfbfbf" points="37.5,-284.5 37.5,-303.5 66.5,-303.5 66.5,-284.5 37.5,-284.5"/>
<text text-anchor="middle" x="52" y="-291.5" font-family="Helvetica,sans-Serif" font-size="10.00">T</text>
</a>
</g>
</g>
<!-- Node6&#45;&gt;Node5 -->
<g id="edge5" class="edge">
<title>Node6&#45;&gt;Node5</title>
<path fill="none" stroke="#9a32cd" stroke-dasharray="5,2" d="M77.05,-290.91C113.37,-286.52 184.4,-279 245,-279 245,-279 245,-279 732.5,-279 856.33,-279 983.2,-380.33 1020.25,-412.4"/>
<polygon fill="#9a32cd" stroke="#9a32cd" points="76.44,-287.46 66.94,-292.16 77.3,-294.41 76.44,-287.46"/>
<text text-anchor="middle" x="509" y="-282" font-family="Helvetica,sans-Serif" font-size="10.00"> ptr</text>
</g>
<!-- Node15 -->
<g id="node15" class="node">
<title>Node15</title>
<g id="a_node15"><a xlink:title=" ">
<polygon fill="white" stroke="#bfbfbf" points="189,-319 189,-349 303,-349 303,-319 189,-319"/>
<text text-anchor="start" x="197" y="-337" font-family="Helvetica,sans-Serif" font-size="10.00">std::unordered_map</text>
<text text-anchor="middle" x="246" y="-326" font-family="Helvetica,sans-Serif" font-size="10.00">&lt; K, T &gt;</text>
</a>
</g>
</g>
<!-- Node6&#45;&gt;Node15 -->
<g id="edge18" class="edge">
<title>Node6&#45;&gt;Node15</title>
<path fill="none" stroke="#9a32cd" stroke-dasharray="5,2" d="M76.45,-298.89C104.19,-304.67 151.31,-314.48 188.69,-322.27"/>
<polygon fill="#9a32cd" stroke="#9a32cd" points="77,-295.43 66.5,-296.81 75.58,-302.28 77,-295.43"/>
<text text-anchor="middle" x="146.5" y="-320" font-family="Helvetica,sans-Serif" font-size="10.00"> elements</text>
</g>
<!-- Node7&#45;&gt;Node3 -->
<g id="edge6" class="edge">
<title>Node7&#45;&gt;Node3</title>
<path fill="none" stroke="#9a32cd" stroke-dasharray="5,2" d="M1476.41,-615.57C1481.01,-612.9 1485.28,-609.74 1489,-606 1509.23,-585.66 1485.65,-563.17 1507,-544 1550.66,-504.8 1587.12,-551.89 1637,-521 1692.75,-486.47 1729.2,-411.67 1740.91,-384.83"/>
<polygon fill="#9a32cd" stroke="#9a32cd" points="1474.63,-612.55 1467.24,-620.14 1477.75,-618.82 1474.63,-612.55"/>
<text text-anchor="middle" x="1572" y="-547" font-family="Helvetica,sans-Serif" font-size="10.00"> m_io_mgr</text>
</g>
<!-- Node8&#45;&gt;Node3 -->
<g id="edge8" class="edge">
<title>Node8&#45;&gt;Node3</title>
<path fill="none" stroke="#9a32cd" stroke-dasharray="5,2" d="M1485.44,-560.04C1486.67,-559.07 1487.86,-558.06 1489,-557 1505.42,-541.81 1489.75,-524.24 1507,-510 1552.25,-472.65 1585.21,-514.58 1637,-487 1684.92,-461.48 1724.17,-406.99 1738.82,-384.75"/>
<polygon fill="#9a32cd" stroke="#9a32cd" points="1483.2,-557.33 1476.84,-565.8 1487.09,-563.14 1483.2,-557.33"/>
<text text-anchor="middle" x="1572" y="-513" font-family="Helvetica,sans-Serif" font-size="10.00"> m_post_mgr</text>
</g>
<!-- Node9&#45;&gt;Node3 -->
<g id="edge10" class="edge">
<title>Node9&#45;&gt;Node3</title>
<path fill="none" stroke="#9a32cd" stroke-dasharray="5,2" d="M1974.27,-264.74C1957.94,-274 1936.04,-285.87 1916,-295 1889.63,-307.01 1881.42,-306.1 1855,-318 1821.75,-332.97 1784.43,-353.56 1763.51,-365.45"/>
<polygon fill="#9a32cd" stroke="#9a32cd" points="1976.26,-267.64 1983.2,-259.63 1972.78,-261.56 1976.26,-267.64"/>
<text text-anchor="middle" x="1885.5" y="-321" font-family="Helvetica,sans-Serif" font-size="10.00"> m_pde_mgr</text>
</g>
<!-- Node10 -->
<g id="node10" class="node">
<title>Node10</title>
<g id="a_node10"><a xlink:href="classamr__wind_1_1_coll_mgr.html" target="_top" xlink:title=" ">
<polygon fill="white" stroke="black" points="1157,-190 1157,-220 1276,-220 1276,-190 1157,-190"/>
<text text-anchor="start" x="1165" y="-208" font-family="Helvetica,sans-Serif" font-size="10.00">amr_wind::CollMgr&lt;</text>
<text text-anchor="middle" x="1216.5" y="-197" font-family="Helvetica,sans-Serif" font-size="10.00"> PDEMgr, PDEBase &gt;</text>
</a>
</g>
</g>
<!-- Node10&#45;&gt;Node9 -->
<g id="edge11" class="edge">
<title>Node10&#45;&gt;Node9</title>
<path fill="none" stroke="midnightblue" d="M1286.33,-206.2C1369.48,-207.91 1513.58,-211.67 1637,-219 1740.88,-225.17 1861.19,-236.24 1933.76,-243.34"/>
<polygon fill="midnightblue" stroke="midnightblue" points="1286.32,-202.7 1276.25,-206 1286.18,-209.7 1286.32,-202.7"/>
</g>
<!-- Node11 -->
<g id="node11" class="node">
<title>Node11</title>
<g id="a_node11"><a xlink:href="classamr__wind_1_1_coll_mgr.html" target="_top" xlink:title="Interface to manage objects of sub&#45;classes based on factory registration.">
<polygon fill="white" stroke="black" points="667,-202.5 667,-243.5 796,-243.5 796,-202.5 667,-202.5"/>
<text text-anchor="start" x="675" y="-231.5" font-family="Helvetica,sans-Serif" font-size="10.00">amr_wind::CollMgr&lt;</text>
<text text-anchor="start" x="675" y="-220.5" font-family="Helvetica,sans-Serif" font-size="10.00"> Collection, Type, allow</text>
<text text-anchor="middle" x="731.5" y="-209.5" font-family="Helvetica,sans-Serif" font-size="10.00">_duplicates &gt;</text>
</a>
</g>
</g>
<!-- Node11&#45;&gt;Node10 -->
<g id="edge12" class="edge">
<title>Node11&#45;&gt;Node10</title>
<path fill="none" stroke="orange" stroke-dasharray="5,2" d="M806.26,-217.43C808.87,-217.27 811.46,-217.13 814,-217 935.88,-210.7 1078.75,-207.4 1156.95,-205.95"/>
<polygon fill="orange" stroke="orange" points="805.87,-213.94 796.11,-218.05 806.3,-220.93 805.87,-213.94"/>
<text text-anchor="middle" x="876" y="-220" font-family="Helvetica,sans-Serif" font-size="10.00"> &lt; PDEMgr, PDEBase &gt;</text>
</g>
<!-- Node26 -->
<g id="node26" class="node">
<title>Node26</title>
<g id="a_node26"><a xlink:href="classamr__wind_1_1_coll_mgr.html" target="_top" xlink:title=" ">
<polygon fill="white" stroke="black" points="967.5,-240 967.5,-270 1096.5,-270 1096.5,-240 967.5,-240"/>
<text text-anchor="start" x="975.5" y="-258" font-family="Helvetica,sans-Serif" font-size="10.00">amr_wind::CollMgr&lt;</text>
<text text-anchor="middle" x="1032" y="-247" font-family="Helvetica,sans-Serif" font-size="10.00"> PhysicsMgr, Physics &gt;</text>
</a>
</g>
</g>
<!-- Node11&#45;&gt;Node26 -->
<g id="edge38" class="edge">
<title>Node11&#45;&gt;Node26</title>
<path fill="none" stroke="orange" stroke-dasharray="5,2" d="M806.17,-230.9C855.66,-236.2 920.2,-243.12 967.43,-248.18"/>
<polygon fill="orange" stroke="orange" points="806.49,-227.41 796.17,-229.83 805.74,-234.37 806.49,-227.41"/>
<text text-anchor="middle" x="876" y="-247" font-family="Helvetica,sans-Serif" font-size="10.00"> &lt; PhysicsMgr, Physics &gt;</text>
</g>
<!-- Node12 -->
<g id="node12" class="node">
<title>Node12</title>
<g id="a_node12"><a xlink:title=" ">
<polygon fill="white" stroke="#bfbfbf" points="452,-208 452,-238 566,-238 566,-208 452,-208"/>
<text text-anchor="start" x="460" y="-226" font-family="Helvetica,sans-Serif" font-size="10.00">std::unordered_map</text>
<text text-anchor="middle" x="509" y="-215" font-family="Helvetica,sans-Serif" font-size="10.00">&lt; std::string, int &gt;</text>
</a>
</g>
</g>
<!-- Node12&#45;&gt;Node11 -->
<g id="edge13" class="edge">
<title>Node12&#45;&gt;Node11</title>
<path fill="none" stroke="#9a32cd" stroke-dasharray="5,2" d="M576.55,-223C605.24,-223 638.64,-223 666.99,-223"/>
<polygon fill="#9a32cd" stroke="#9a32cd" points="576.21,-219.5 566.21,-223 576.21,-226.5 576.21,-219.5"/>
<text text-anchor="middle" x="618.5" y="-226" font-family="Helvetica,sans-Serif" font-size="10.00"> m_obj_map</text>
</g>
<!-- Node13 -->
<g id="node13" class="node">
<title>Node13</title>
<g id="a_node13"><a xlink:title=" ">
<polygon fill="white" stroke="#bfbfbf" points="213.5,-183.5 213.5,-202.5 278.5,-202.5 278.5,-183.5 213.5,-183.5"/>
<text text-anchor="middle" x="246" y="-190.5" font-family="Helvetica,sans-Serif" font-size="10.00">std::string</text>
</a>
</g>
</g>
<!-- Node13&#45;&gt;Node1 -->
<g id="edge40" class="edge">
<title>Node13&#45;&gt;Node1</title>
<path fill="none" stroke="#9a32cd" stroke-dasharray="5,2" d="M258.89,-174.95C292.07,-126.99 390.97,0 508,0 508,0 508,0 2001.5,0 2073.72,0 2103.62,-10.64 2150,-66 2218.55,-147.81 2231.16,-284.3 2233.48,-329.75"/>
<polygon fill="#9a32cd" stroke="#9a32cd" points="255.86,-173.19 253.14,-183.43 261.65,-177.11 255.86,-173.19"/>
<text text-anchor="middle" x="1216.5" y="-14" font-family="Helvetica,sans-Serif" font-size="10.00"> m_output_fname</text>
<text text-anchor="middle" x="1216.5" y="-3" font-family="Helvetica,sans-Serif" font-size="10.00">m_turbulence_model</text>
</g>
<!-- Node13&#45;&gt;Node9 -->
<g id="edge20" class="edge">
<title>Node13&#45;&gt;Node9</title>
<path fill="none" stroke="#9a32cd" stroke-dasharray="5,2" d="M288.74,-187.56C340.2,-181.34 430.38,-172 508,-172 508,-172 508,-172 877,-172 1304.11,-172 1413.11,-163.58 1837,-216 1880.62,-221.39 1929.94,-232.43 1962.68,-240.47"/>
<polygon fill="#9a32cd" stroke="#9a32cd" points="288.17,-184.11 278.67,-188.8 289.03,-191.05 288.17,-184.11"/>
<text text-anchor="middle" x="1032" y="-174" font-family="Helvetica,sans-Serif" font-size="10.00"> m_scheme</text>
</g>
<!-- Node13&#45;&gt;Node12 -->
<g id="edge14" class="edge">
<title>Node13&#45;&gt;Node12</title>
<path fill="none" stroke="#9a32cd" stroke-dasharray="5,2" d="M288.84,-197.81C333.01,-202.89 402.86,-210.92 451.81,-216.54"/>
<polygon fill="#9a32cd" stroke="#9a32cd" points="289.08,-194.31 278.74,-196.65 288.28,-201.27 289.08,-194.31"/>
<text text-anchor="middle" x="375.5" y="-216" font-family="Helvetica,sans-Serif" font-size="10.00"> keys</text>
</g>
<!-- Node22 -->
<g id="node22" class="node">
<title>Node22</title>
<g id="a_node22"><a xlink:title=" ">
<polygon fill="white" stroke="#bfbfbf" points="448,-331 448,-361 570,-361 570,-331 448,-331"/>
<text text-anchor="start" x="456" y="-349" font-family="Helvetica,sans-Serif" font-size="10.00">std::unordered_map</text>
<text text-anchor="middle" x="509" y="-338" font-family="Helvetica,sans-Serif" font-size="10.00">&lt; std::string, size_t &gt;</text>
</a>
</g>
</g>
<!-- Node13&#45;&gt;Node22 -->
<g id="edge30" class="edge">
<title>Node13&#45;&gt;Node22</title>
<path fill="none" stroke="#9a32cd" stroke-dasharray="5,2" d="M273.14,-207.2C287.03,-214.27 304.59,-222.47 321,-228 367.92,-243.8 391.85,-219.44 430,-251 445.96,-264.21 435.85,-277.22 448,-294 458.43,-308.4 473.58,-321.5 486.05,-330.94"/>
<polygon fill="#9a32cd" stroke="#9a32cd" points="274.65,-204.04 264.16,-202.53 271.42,-210.25 274.65,-204.04"/>
<text text-anchor="middle" x="375.5" y="-254" font-family="Helvetica,sans-Serif" font-size="10.00"> keys</text>
</g>
<!-- Node14 -->
<g id="node14" class="node">
<title>Node14</title>
<g id="a_node14"><a xlink:title=" ">
<polygon fill="white" stroke="#bfbfbf" points="0,-178 0,-208 104,-208 104,-178 0,-178"/>
<text text-anchor="start" x="8" y="-196" font-family="Helvetica,sans-Serif" font-size="10.00">std::basic_string&lt;</text>
<text text-anchor="middle" x="52" y="-185" font-family="Helvetica,sans-Serif" font-size="10.00"> Char &gt;</text>
</a>
</g>
</g>
<!-- Node14&#45;&gt;Node13 -->
<g id="edge15" class="edge">
<title>Node14&#45;&gt;Node13</title>
<path fill="none" stroke="midnightblue" d="M114.23,-193C147.25,-193 186.63,-193 213.48,-193"/>
<polygon fill="midnightblue" stroke="midnightblue" points="114.2,-189.5 104.2,-193 114.2,-196.5 114.2,-189.5"/>
</g>
<!-- Node15&#45;&gt;Node12 -->
<g id="edge16" class="edge">
<title>Node15&#45;&gt;Node12</title>
<path fill="none" stroke="orange" stroke-dasharray="5,2" d="M302.8,-315.68C339.5,-303.04 388.28,-285.12 430,-266 440.05,-261.39 463.21,-248.52 481.7,-238.05"/>
<polygon fill="orange" stroke="orange" points="301.59,-312.39 293.26,-318.94 303.86,-319.01 301.59,-312.39"/>
<text text-anchor="middle" x="375.5" y="-311" font-family="Helvetica,sans-Serif" font-size="10.00"> &lt; std::string, int &gt;</text>
</g>
<!-- Node15&#45;&gt;Node22 -->
<g id="edge31" class="edge">
<title>Node15&#45;&gt;Node22</title>
<path fill="none" stroke="orange" stroke-dasharray="5,2" d="M313.56,-337.06C354.89,-338.96 407.59,-341.38 447.7,-343.23"/>
<polygon fill="orange" stroke="orange" points="313.46,-333.55 303.31,-336.59 313.14,-340.54 313.46,-333.55"/>
<text text-anchor="middle" x="375.5" y="-345" font-family="Helvetica,sans-Serif" font-size="10.00"> &lt; std::string, size_t &gt;</text>
</g>
<!-- Node16 -->
<g id="node16" class="node">
<title>Node16</title>
<g id="a_node16"><a xlink:title=" ">
<polygon fill="white" stroke="#bfbfbf" points="37.5,-336.5 37.5,-355.5 66.5,-355.5 66.5,-336.5 37.5,-336.5"/>
<text text-anchor="middle" x="52" y="-343.5" font-family="Helvetica,sans-Serif" font-size="10.00">K</text>
</a>
</g>
</g>
<!-- Node16&#45;&gt;Node15 -->
<g id="edge17" class="edge">
<title>Node16&#45;&gt;Node15</title>
<path fill="none" stroke="#9a32cd" stroke-dasharray="5,2" d="M76.82,-344.51C104.61,-342.77 151.48,-339.85 188.69,-337.52"/>
<polygon fill="#9a32cd" stroke="#9a32cd" points="76.26,-341.04 66.5,-345.16 76.7,-348.03 76.26,-341.04"/>
<text text-anchor="middle" x="146.5" y="-344" font-family="Helvetica,sans-Serif" font-size="10.00"> keys</text>
</g>
<!-- Node17&#45;&gt;Node9 -->
<g id="edge21" class="edge">
<title>Node17&#45;&gt;Node9</title>
<path fill="none" stroke="#9a32cd" stroke-dasharray="5,2" d="M1647.44,-273.94C1728.43,-268.43 1856.65,-259.71 1933.96,-254.46"/>
<polygon fill="#9a32cd" stroke="#9a32cd" points="1647.05,-270.46 1637.31,-274.63 1647.53,-277.44 1647.05,-270.46"/>
<text text-anchor="middle" x="1746" y="-276" font-family="Helvetica,sans-Serif" font-size="10.00"> m_icns</text>
</g>
<!-- Node18 -->
<g id="node18" class="node">
<title>Node18</title>
<g id="a_node18"><a xlink:href="classamr__wind_1_1_sim_time.html" target="_top" xlink:title="Time manager for simulations.">
<polygon fill="white" stroke="black" points="674.5,-72.5 674.5,-91.5 788.5,-91.5 788.5,-72.5 674.5,-72.5"/>
<text text-anchor="middle" x="731.5" y="-79.5" font-family="Helvetica,sans-Serif" font-size="10.00">amr_wind::SimTime</text>
</a>
</g>
</g>
<!-- Node18&#45;&gt;Node1 -->
<g id="edge39" class="edge">
<title>Node18&#45;&gt;Node1</title>
<path fill="none" stroke="#9a32cd" stroke-dasharray="5,2" d="M781.6,-70.26C840.49,-57.22 942.36,-38 1031,-38 1031,-38 1031,-38 2001.5,-38 2149.59,-38 2215.47,-267.83 2230.54,-329.78"/>
<polygon fill="#9a32cd" stroke="#9a32cd" points="780.81,-66.85 771.82,-72.45 782.35,-73.68 780.81,-66.85"/>
<text text-anchor="middle" x="1572" y="-41" font-family="Helvetica,sans-Serif" font-size="10.00"> m_time</text>
</g>
<!-- Node18&#45;&gt;Node3 -->
<g id="edge23" class="edge">
<title>Node18&#45;&gt;Node3</title>
<path fill="none" stroke="#9a32cd" stroke-dasharray="5,2" d="M790.53,-93.29C798.4,-94.64 806.39,-95.92 814,-97 997.06,-122.9 1503.84,-90.74 1637,-219 1659.83,-240.99 1639.01,-260.64 1655,-288 1674.73,-321.78 1711.21,-351.07 1731.13,-365.48"/>
<polygon fill="#9a32cd" stroke="#9a32cd" points="791.11,-89.84 780.66,-91.55 789.9,-96.73 791.11,-89.84"/>
<text text-anchor="middle" x="1216.5" y="-127" font-family="Helvetica,sans-Serif" font-size="10.00"> m_time</text>
</g>
<!-- Node30 -->
<g id="node30" class="node">
<title>Node30</title>
<g id="a_node30"><a xlink:href="classamr__wind_1_1_f_plane_averaging_fine.html" target="_top" xlink:title="Output average of a field on planes normal to a given direction.">
<polygon fill="white" stroke="black" points="956,-67 956,-97 1108,-97 1108,-67 956,-67"/>
<text text-anchor="start" x="964" y="-85" font-family="Helvetica,sans-Serif" font-size="10.00">amr_wind::FPlaneAveraging</text>
<text text-anchor="middle" x="1032" y="-74" font-family="Helvetica,sans-Serif" font-size="10.00">Fine&lt; FType &gt;</text>
</a>
</g>
</g>
<!-- Node18&#45;&gt;Node30 -->
<g id="edge46" class="edge">
<title>Node18&#45;&gt;Node30</title>
<path fill="none" stroke="#9a32cd" stroke-dasharray="5,2" d="M798.92,-82C845.42,-82 907.63,-82 955.94,-82"/>
<polygon fill="#9a32cd" stroke="#9a32cd" points="798.65,-78.5 788.65,-82 798.65,-85.5 798.65,-78.5"/>
<text text-anchor="middle" x="876" y="-85" font-family="Helvetica,sans-Serif" font-size="10.00"> m_time</text>
</g>
<!-- Node19&#45;&gt;Node3 -->
<g id="edge24" class="edge">
<title>Node19&#45;&gt;Node3</title>
<path fill="none" stroke="#9a32cd" stroke-dasharray="5,2" d="M1481.84,-512.03C1484.33,-510.48 1486.73,-508.8 1489,-507 1501.47,-497.08 1493.94,-485.13 1507,-476 1555.1,-442.39 1582.96,-475.87 1637,-453 1677.26,-435.97 1716.94,-401.57 1734.95,-384.73"/>
<polygon fill="#9a32cd" stroke="#9a32cd" points="1480.12,-508.99 1473.03,-516.87 1483.48,-515.12 1480.12,-508.99"/>
<text text-anchor="middle" x="1572" y="-479" font-family="Helvetica,sans-Serif" font-size="10.00"> m_overset_mgr</text>
</g>
<!-- Node20&#45;&gt;Node3 -->
<g id="edge26" class="edge">
<title>Node20&#45;&gt;Node3</title>
<path fill="none" stroke="#9a32cd" stroke-dasharray="5,2" d="M1470.43,-453.18C1482.46,-449.09 1495.04,-445.15 1507,-442 1563.74,-427.06 1580.63,-435.27 1637,-419 1668.71,-409.85 1703.82,-394.51 1725.15,-384.58"/>
<polygon fill="#9a32cd" stroke="#9a32cd" points="1469.23,-449.89 1460.93,-456.48 1471.53,-456.5 1469.23,-449.89"/>
<text text-anchor="middle" x="1572" y="-445" font-family="Helvetica,sans-Serif" font-size="10.00"> m_turbulence</text>
</g>
<!-- Node21 -->
<g id="node21" class="node">
<title>Node21</title>
<g id="a_node21"><a xlink:href="classamr__wind_1_1_field_repo.html" target="_top" xlink:title="Field Repository.">
<polygon fill="white" stroke="black" points="1347.5,-664.5 1347.5,-683.5 1466.5,-683.5 1466.5,-664.5 1347.5,-664.5"/>
<text text-anchor="middle" x="1407" y="-671.5" font-family="Helvetica,sans-Serif" font-size="10.00">amr_wind::FieldRepo</text>
</a>
</g>
</g>
<!-- Node21&#45;&gt;Node1 -->
<g id="edge41" class="edge">
<title>Node21&#45;&gt;Node1</title>
<path fill="none" stroke="#9a32cd" stroke-dasharray="5,2" d="M1464.59,-661.98C1472.84,-659.87 1481.18,-657.52 1489,-655 1773.95,-562.98 2102.44,-408.51 2203.11,-360.02"/>
<polygon fill="#9a32cd" stroke="#9a32cd" points="1463.49,-658.65 1454.62,-664.44 1465.17,-665.44 1463.49,-658.65"/>
<text text-anchor="middle" x="1885.5" y="-517" font-family="Helvetica,sans-Serif" font-size="10.00"> m_repo</text>
</g>
<!-- Node21&#45;&gt;Node3 -->
<g id="edge28" class="edge">
<title>Node21&#45;&gt;Node3</title>
<path fill="none" stroke="#9a32cd" stroke-dasharray="5,2" d="M1476.05,-664.41C1480.8,-661.89 1485.2,-658.8 1489,-655 1513.84,-630.14 1481.48,-602.16 1507,-578 1549.61,-537.66 1588.66,-588.26 1637,-555 1700.95,-510.99 1733.25,-415.61 1742.29,-384.8"/>
<polygon fill="#9a32cd" stroke="#9a32cd" points="1474.31,-661.35 1466.55,-668.57 1477.12,-667.77 1474.31,-661.35"/>
<text text-anchor="middle" x="1572" y="-581" font-family="Helvetica,sans-Serif" font-size="10.00"> m_repo</text>
</g>
<!-- Node22&#45;&gt;Node21 -->
<g id="edge29" class="edge">
<title>Node22&#45;&gt;Node21</title>
<path fill="none" stroke="#9a32cd" stroke-dasharray="5,2" d="M543.02,-366.43C632.83,-420.92 890.53,-570.23 1126,-639 1200.42,-660.73 1289.83,-668.97 1347.25,-672.09"/>
<polygon fill="#9a32cd" stroke="#9a32cd" points="544.73,-363.38 534.37,-361.16 541.09,-369.35 544.73,-363.38"/>
<text text-anchor="middle" x="876" y="-584" font-family="Helvetica,sans-Serif" font-size="10.00"> m_fid_map</text>
<text text-anchor="middle" x="876" y="-573" font-family="Helvetica,sans-Serif" font-size="10.00">m_int_fid_map</text>
</g>
<!-- Node23&#45;&gt;Node3 -->
<g id="edge32" class="edge">
<title>Node23&#45;&gt;Node3</title>
<path fill="none" stroke="#9a32cd" stroke-dasharray="5,2" d="M1477.1,-412.2C1487.13,-410.79 1497.33,-409.35 1507,-408 1570,-399.18 1642.4,-389.16 1690.64,-382.49"/>
<polygon fill="#9a32cd" stroke="#9a32cd" points="1476.56,-408.74 1467.15,-413.61 1477.54,-415.68 1476.56,-408.74"/>
<text text-anchor="middle" x="1572" y="-411" font-family="Helvetica,sans-Serif" font-size="10.00"> m_mesh_map</text>
</g>
<!-- Node24&#45;&gt;Node3 -->
<g id="edge34" class="edge">
<title>Node24&#45;&gt;Node3</title>
<path fill="none" stroke="#9a32cd" stroke-dasharray="5,2" d="M1481.42,-373.23C1526.34,-373.39 1584.99,-373.65 1637,-374 1654.53,-374.12 1673.66,-374.29 1690.89,-374.45"/>
<polygon fill="#9a32cd" stroke="#9a32cd" points="1481.19,-369.73 1471.18,-373.19 1481.17,-376.73 1481.19,-369.73"/>
<text text-anchor="middle" x="1572" y="-377" font-family="Helvetica,sans-Serif" font-size="10.00"> m_ext_solver_mgr</text>
</g>
<!-- Node25 -->
<g id="node25" class="node">
<title>Node25</title>
<g id="a_node25"><a xlink:href="classamr__wind_1_1_physics_mgr.html" target="_top" xlink:title="A collection of Physics models instances that are active during a simulation.">
<polygon fill="white" stroke="black" points="1344,-232.5 1344,-251.5 1470,-251.5 1470,-232.5 1344,-232.5"/>
<text text-anchor="middle" x="1407" y="-239.5" font-family="Helvetica,sans-Serif" font-size="10.00">amr_wind::PhysicsMgr</text>
</a>
</g>
</g>
<!-- Node25&#45;&gt;Node3 -->
<g id="edge36" class="edge">
<title>Node25&#45;&gt;Node3</title>
<path fill="none" stroke="#9a32cd" stroke-dasharray="5,2" d="M1458.69,-230.66C1507,-222.49 1580.55,-217.08 1637,-244 1638.77,-244.84 1712.36,-334.97 1737.03,-365.23"/>
<polygon fill="#9a32cd" stroke="#9a32cd" points="1458,-227.23 1448.78,-232.43 1459.24,-234.12 1458,-227.23"/>
<text text-anchor="middle" x="1572" y="-247" font-family="Helvetica,sans-Serif" font-size="10.00"> m_physics_mgr</text>
</g>
<!-- Node26&#45;&gt;Node25 -->
<g id="edge37" class="edge">
<title>Node26&#45;&gt;Node25</title>
<path fill="none" stroke="midnightblue" d="M1107.1,-252.42C1176.38,-250 1278.67,-246.44 1343.81,-244.17"/>
<polygon fill="midnightblue" stroke="midnightblue" points="1106.57,-248.93 1096.7,-252.78 1106.81,-255.93 1106.57,-248.93"/>
</g>
<!-- Node27&#45;&gt;Node1 -->
<g id="edge42" class="edge">
<title>Node27&#45;&gt;Node1</title>
<path fill="none" stroke="#9a32cd" stroke-dasharray="5,2" d="M2021.71,-175.17C2066.18,-210.74 2171.95,-295.36 2215.14,-329.91"/>
<polygon fill="#9a32cd" stroke="#9a32cd" points="2023.67,-172.25 2013.67,-168.74 2019.3,-177.72 2023.67,-172.25"/>
<text text-anchor="middle" x="2117.5" y="-277" font-family="Helvetica,sans-Serif" font-size="10.00"> m_wall_func</text>
</g>
<!-- Node28 -->
<g id="node28" class="node">
<title>Node28</title>
<g id="a_node28"><a xlink:href="classamr__wind_1_1_vel_plane_averaging_fine.html" target="_top" xlink:title="Specific application of FieldPlaneAveraging to the velocity field.">
<polygon fill="white" stroke="black" points="1655,-78.5 1655,-97.5 1837,-97.5 1837,-78.5 1655,-78.5"/>
<text text-anchor="middle" x="1746" y="-85.5" font-family="Helvetica,sans-Serif" font-size="10.00">amr_wind::VelPlaneAveragingFine</text>
</a>
</g>
</g>
<!-- Node28&#45;&gt;Node27 -->
<g id="edge43" class="edge">
<title>Node28&#45;&gt;Node27</title>
<path fill="none" stroke="#9a32cd" stroke-dasharray="5,2" d="M1833.11,-99.26C1860.03,-103.98 1889.59,-110.42 1916,-119 1940.15,-126.85 1966.3,-140.24 1982.78,-149.35"/>
<polygon fill="#9a32cd" stroke="#9a32cd" points="1833.38,-95.75 1822.94,-97.53 1832.21,-102.66 1833.38,-95.75"/>
<text text-anchor="middle" x="1885.5" y="-122" font-family="Helvetica,sans-Serif" font-size="10.00"> m_pa_vel</text>
</g>
<!-- Node29 -->
<g id="node29" class="node">
<title>Node29</title>
<g id="a_node29"><a xlink:href="classamr__wind_1_1_f_plane_averaging_fine.html" target="_top" xlink:title=" ">
<polygon fill="white" stroke="black" points="1339,-76.5 1339,-95.5 1475,-95.5 1475,-76.5 1339,-76.5"/>
<text text-anchor="middle" x="1407" y="-83.5" font-family="Helvetica,sans-Serif" font-size="10.00">FieldPlaneAveragingFine</text>
</a>
</g>
</g>
<!-- Node29&#45;&gt;Node28 -->
<g id="edge44" class="edge">
<title>Node29&#45;&gt;Node28</title>
<path fill="none" stroke="midnightblue" d="M1485.58,-86.46C1536.01,-86.76 1601.96,-87.15 1654.74,-87.46"/>
<polygon fill="midnightblue" stroke="midnightblue" points="1485.41,-82.96 1475.39,-86.4 1485.37,-89.96 1485.41,-82.96"/>
</g>
<!-- Node30&#45;&gt;Node29 -->
<g id="edge45" class="edge">
<title>Node30&#45;&gt;Node29</title>
<path fill="none" stroke="orange" stroke-dasharray="5,2" d="M1118.14,-82.91C1185.1,-83.63 1277.11,-84.62 1338.91,-85.28"/>
<polygon fill="orange" stroke="orange" points="1118.07,-79.41 1108.03,-82.8 1118,-86.41 1118.07,-79.41"/>
<text text-anchor="middle" x="1216.5" y="-88" font-family="Helvetica,sans-Serif" font-size="10.00"> &lt; Field &gt;</text>
</g>
<!-- Node31 -->
<g id="node31" class="node">
<title>Node31</title>
<g id="a_node31"><a xlink:href="structamr__wind_1_1_log_law.html" target="_top" xlink:title=" ">
<polygon fill="white" stroke="black" points="1692.5,-118.5 1692.5,-137.5 1799.5,-137.5 1799.5,-118.5 1692.5,-118.5"/>
<text text-anchor="middle" x="1746" y="-125.5" font-family="Helvetica,sans-Serif" font-size="10.00">amr_wind::LogLaw</text>
</a>
</g>
</g>
<!-- Node31&#45;&gt;Node27 -->
<g id="edge48" class="edge">
<title>Node31&#45;&gt;Node27</title>
<path fill="none" stroke="#9a32cd" stroke-dasharray="5,2" d="M1809.82,-130.8C1841.73,-132.74 1881.05,-135.91 1916,-141 1930.67,-143.14 1946.63,-146.35 1960.62,-149.47"/>
<polygon fill="#9a32cd" stroke="#9a32cd" points="1809.92,-127.3 1799.73,-130.22 1809.51,-134.29 1809.92,-127.3"/>
<text text-anchor="middle" x="1885.5" y="-144" font-family="Helvetica,sans-Serif" font-size="10.00"> m_log_law</text>
</g>
</g>
</svg>
        <g id="navigator" transform="translate(0 0)" fill="#404254">
                <rect fill="#f2f5e9" fill-opacity="0.5" stroke="#606060" stroke-width=".5" x="0" y="0" width="60" height="60"/>
                <use id="zoomplus" xlink:href="#zoomPlus" x="17" y="9" onmousedown="handleZoom(evt,'in')"/>
                <use id="zoomminus" xlink:href="#zoomMin" x="42" y="9" onmousedown="handleZoom(evt,'out')"/>
                <use id="reset" xlink:href="#resetDef" x="30" y="36" onmousedown="handleReset()"/>
                <g id="arrowUp" xlink:href="#dirArrow" transform="translate(30 24)" onmousedown="handlePan(0,-1)">
                  <use xlink:href="#rim" fill="#404040">
                        <set attributeName="fill" to="#808080" begin="arrowUp.mouseover" end="arrowUp.mouseout"/>
                  </use>
                  <path fill="none" stroke="white" stroke-width="1.5" d="M0,-3.0v7 M-2.5,-0.5L0,-3.0L2.5,-0.5"/>
                </g>
                <g id="arrowRight" xlink:href="#dirArrow" transform="rotate(90) translate(36 -43)" onmousedown="handlePan(1,0)">
                  <use xlink:href="#rim" fill="#404040">
                        <set attributeName="fill" to="#808080" begin="arrowRight.mouseover" end="arrowRight.mouseout"/>
                  </use>
                  <path fill="none" stroke="white" stroke-width="1.5" d="M0,-3.0v7 M-2.5,-0.5L0,-3.0L2.5,-0.5"/>
                </g>
                <g id="arrowDown" xlink:href="#dirArrow" transform="rotate(180) translate(-30 -48)" onmousedown="handlePan(0,1)">
                  <use xlink:href="#rim" fill="#404040">
                        <set attributeName="fill" to="#808080" begin="arrowDown.mouseover" end="arrowDown.mouseout"/>
                  </use>
                  <path fill="none" stroke="white" stroke-width="1.5" d="M0,-3.0v7 M-2.5,-0.5L0,-3.0L2.5,-0.5"/>
                </g>
                <g id="arrowLeft" xlink:href="#dirArrow" transform="rotate(270) translate(-36 17)" onmousedown="handlePan(-1,0)">
                  <use xlink:href="#rim" fill="#404040">
                        <set attributeName="fill" to="#808080" begin="arrowLeft.mouseover" end="arrowLeft.mouseout"/>
                  </use>
                  <path fill="none" stroke="white" stroke-width="1.5" d="M0,-3.0v7 M-2.5,-0.5L0,-3.0L2.5,-0.5"/>
                </g>
        </g>
        <svg viewBox="0 0 15 15" width="100%" height="30px" preserveAspectRatio="xMaxYMin meet">
         <g id="arrow_out" transform="scale(0.3 0.3)">
          <a xlink:href="classamr__wind_1_1channel__flow_1_1_channel_flow__coll__graph_org.svg" target="_base">
           <rect id="button" ry="5" rx="5" y="6" x="6" height="38" width="38"
                fill="#f2f5e9" fill-opacity="0.5" stroke="#606060" stroke-width="1.0"/>
           <path id="arrow"
             d="M 11.500037,31.436501 C 11.940474,20.09759 22.043105,11.32322 32.158766,21.979434 L 37.068811,17.246167 C 37.068811,17.246167 37.088388,32 37.088388,32 L 22.160133,31.978069 C 22.160133,31.978069 26.997745,27.140456 26.997745,27.140456 C 18.528582,18.264221 13.291696,25.230495 11.500037,31.436501 z"
             style="fill:#404040;"/>
          </a>
         </g>
        </svg>
</svg>
