<?xml version="1.0" encoding="UTF-8" standalone="no"?>
<!DOCTYPE svg PUBLIC "-//W3C//DTD SVG 1.1//EN"
 "http://www.w3.org/Graphics/SVG/1.1/DTD/svg11.dtd">
<!-- Generated by graphviz version 2.43.0 (0)
 -->
<!-- Title: amr_wind::actuator::ActModel&lt; ActTrait, SrcTrait &gt; Pages: 1 -->
<!--zoomable 279 -->
<svg id="main" version="1.1" xmlns="http://www.w3.org/2000/svg" xmlns:xlink="http://www.w3.org/1999/xlink" xml:space="preserve" onload="init(evt)">
<style type="text/css"><![CDATA[
.edge:hover path { stroke: red; }
.edge:hover polygon { stroke: red; fill: red; }
]]></style>
<script type="text/javascript"><![CDATA[
var edges = document.getElementsByTagName('g');
if (edges && edges.length) {
  for (var i=0;i<edges.length;i++) {
    if (edges[i].id.substr(0,4)=='edge') {
      edges[i].setAttribute('class','edge');
    }
  }
}
]]></script>
        <defs>
                <circle id="rim" cx="0" cy="0" r="7"/>
                <circle id="rim2" cx="0" cy="0" r="3.5"/>
                <g id="zoomPlus">
                        <use xlink:href="#rim" fill="#404040">
                                <set attributeName="fill" to="#808080" begin="zoomplus.mouseover" end="zoomplus.mouseout"/>
                        </use>
                        <path d="M-4,0h8M0,-4v8" fill="none" stroke="white" stroke-width="1.5" pointer-events="none"/>
                </g>
                <g id="zoomMin">
                        <use xlink:href="#rim" fill="#404040">
                                <set attributeName="fill" to="#808080" begin="zoomminus.mouseover" end="zoomminus.mouseout"/>
                        </use>
                        <path d="M-4,0h8" fill="none" stroke="white" stroke-width="1.5" pointer-events="none"/>
                </g>
                <g id="dirArrow">
                        <path fill="none" stroke="white" stroke-width="1.5" d="M0,-3.0v7 M-2.5,-0.5L0,-3.0L2.5,-0.5"/>
                </g>
               <g id="resetDef">
                       <use xlink:href="#rim2" fill="#404040">
                               <set attributeName="fill" to="#808080" begin="reset.mouseover" end="reset.mouseout"/>
                       </use>
               </g>
        </defs>

<script type="text/javascript">
var viewWidth = 1824;
var viewHeight = 279;
var sectionId = 'dynsection-1';
</script>
<script xlink:href="svgpan.js"/>
<svg id="graph" class="graph">
<g id="viewport">
<title>amr_wind::actuator::ActModel&lt; ActTrait, SrcTrait &gt;</title>
<polygon fill="white" stroke="transparent" points="-4,4 -4,-274.91 1820,-274.91 1820,4 -4,4"/>
<!-- Node1 -->
<g id="node1" class="node">
<title>Node1</title>
<g id="a_node1"><a xlink:title="Concrete implementation of the ActuatorModel for different actuator types.">
<polygon fill="#bfbfbf" stroke="black" points="1697,-169.41 1697,-210.41 1816,-210.41 1816,-169.41 1697,-169.41"/>
<text text-anchor="start" x="1705" y="-198.41" font-family="Helvetica,sans-Serif" font-size="10.00">amr_wind::actuator</text>
<text text-anchor="start" x="1705" y="-187.41" font-family="Helvetica,sans-Serif" font-size="10.00">::ActModel&lt; ActTrait,</text>
<text text-anchor="middle" x="1756.5" y="-176.41" font-family="Helvetica,sans-Serif" font-size="10.00"> SrcTrait &gt;</text>
</a>
</g>
</g>
<!-- Node2 -->
<g id="node2" class="node">
<title>Node2</title>
<g id="a_node2"><a xlink:title=" ">
<polygon fill="white" stroke="#bfbfbf" points="1471.5,-229.41 1471.5,-270.41 1605.5,-270.41 1605.5,-229.41 1471.5,-229.41"/>
<text text-anchor="start" x="1479.5" y="-258.41" font-family="Helvetica,sans-Serif" font-size="10.00">ActuatorModel::Register</text>
<text text-anchor="start" x="1479.5" y="-247.41" font-family="Helvetica,sans-Serif" font-size="10.00">&lt; ActModel&lt; ActTrait,</text>
<text text-anchor="middle" x="1538.5" y="-236.41" font-family="Helvetica,sans-Serif" font-size="10.00"> ActSrcLine &gt; &gt;</text>
</a>
</g>
</g>
<!-- Node2&#45;&gt;Node1 -->
<g id="edge1" class="edge">
<title>Node2&#45;&gt;Node1</title>
<path fill="none" stroke="midnightblue" d="M1615.45,-228.81C1642.11,-221.41 1671.64,-213.2 1696.68,-206.25"/>
<polygon fill="midnightblue" stroke="midnightblue" points="1614.47,-225.45 1605.78,-231.5 1616.35,-232.2 1614.47,-225.45"/>
</g>
<!-- Node3 -->
<g id="node3" class="node">
<title>Node3</title>
<g id="a_node3"><a xlink:href="structamr__wind_1_1actuator_1_1ops_1_1_process_outputs_op.html" target="_top" xlink:title=" ">
<polygon fill="white" stroke="black" points="1471,-169.41 1471,-210.41 1606,-210.41 1606,-169.41 1471,-169.41"/>
<text text-anchor="start" x="1479" y="-198.41" font-family="Helvetica,sans-Serif" font-size="10.00">amr_wind::actuator</text>
<text text-anchor="start" x="1479" y="-187.41" font-family="Helvetica,sans-Serif" font-size="10.00">::ops::ProcessOutputsOp</text>
<text text-anchor="middle" x="1538.5" y="-176.41" font-family="Helvetica,sans-Serif" font-size="10.00">&lt; ActTrait, ActSrcLine &gt;</text>
</a>
</g>
</g>
<!-- Node3&#45;&gt;Node1 -->
<g id="edge2" class="edge">
<title>Node3&#45;&gt;Node1</title>
<path fill="none" stroke="#9a32cd" stroke-dasharray="5,2" d="M1616.09,-189.91C1642.64,-189.91 1671.96,-189.91 1696.83,-189.91"/>
<polygon fill="#9a32cd" stroke="#9a32cd" points="1616.07,-186.41 1606.07,-189.91 1616.07,-193.41 1616.07,-186.41"/>
<text text-anchor="middle" x="1653" y="-192.91" font-family="Helvetica,sans-Serif" font-size="10.00"> m_out_op</text>
</g>
<!-- Node4 -->
<g id="node4" class="node">
<title>Node4</title>
<g id="a_node4"><a xlink:href="structamr__wind_1_1actuator_1_1ops_1_1_process_outputs_op.html" target="_top" xlink:title=" ">
<polygon fill="white" stroke="black" points="1139,-169.41 1139,-210.41 1312,-210.41 1312,-169.41 1139,-169.41"/>
<text text-anchor="start" x="1147" y="-198.41" font-family="Helvetica,sans-Serif" font-size="10.00">amr_wind::actuator</text>
<text text-anchor="start" x="1147" y="-187.41" font-family="Helvetica,sans-Serif" font-size="10.00">::ops::ProcessOutputsOp</text>
<text text-anchor="middle" x="1225.5" y="-176.41" font-family="Helvetica,sans-Serif" font-size="10.00">&lt; ActTrait, SrcTrait, typename &gt;</text>
</a>
</g>
</g>
<!-- Node4&#45;&gt;Node3 -->
<g id="edge3" class="edge">
<title>Node4&#45;&gt;Node3</title>
<path fill="none" stroke="orange" stroke-dasharray="5,2" d="M1322.41,-189.91C1370.47,-189.91 1427.46,-189.91 1470.7,-189.91"/>
<polygon fill="orange" stroke="orange" points="1322.31,-186.41 1312.31,-189.91 1322.31,-193.41 1322.31,-186.41"/>
<text text-anchor="middle" x="1390" y="-192.91" font-family="Helvetica,sans-Serif" font-size="10.00"> &lt; ActTrait, ActSrcLine &gt;</text>
</g>
<!-- Node5 -->
<g id="node5" class="node">
<title>Node5</title>
<g id="a_node5"><a xlink:href="classamr__wind_1_1actuator_1_1ops_1_1_act_src_op_3_01_act_trait_00_01_act_src_line_01_4.html" target="_top" xlink:title=" ">
<polygon fill="white" stroke="black" points="1468,-109.41 1468,-150.41 1609,-150.41 1609,-109.41 1468,-109.41"/>
<text text-anchor="start" x="1476" y="-138.41" font-family="Helvetica,sans-Serif" font-size="10.00">amr_wind::actuator</text>
<text text-anchor="start" x="1476" y="-127.41" font-family="Helvetica,sans-Serif" font-size="10.00">::ops::ActSrcOp&lt; ActTrait,</text>
<text text-anchor="middle" x="1538.5" y="-116.41" font-family="Helvetica,sans-Serif" font-size="10.00"> ActSrcLine &gt;</text>
</a>
</g>
</g>
<!-- Node5&#45;&gt;Node1 -->
<g id="edge4" class="edge">
<title>Node5&#45;&gt;Node1</title>
<path fill="none" stroke="#9a32cd" stroke-dasharray="5,2" d="M1618.82,-151.94C1644.68,-159.13 1672.91,-166.97 1696.96,-173.65"/>
<polygon fill="#9a32cd" stroke="#9a32cd" points="1619.6,-148.53 1609.03,-149.22 1617.73,-155.27 1619.6,-148.53"/>
<text text-anchor="middle" x="1653" y="-169.91" font-family="Helvetica,sans-Serif" font-size="10.00"> m_src_op</text>
</g>
<!-- Node6 -->
<g id="node6" class="node">
<title>Node6</title>
<g id="a_node6"><a xlink:href="classamr__wind_1_1_field.html" target="_top" xlink:title="Computational field.">
<polygon fill="white" stroke="black" points="1178.5,-120.41 1178.5,-139.41 1272.5,-139.41 1272.5,-120.41 1178.5,-120.41"/>
<text text-anchor="middle" x="1225.5" y="-127.41" font-family="Helvetica,sans-Serif" font-size="10.00">amr_wind::Field</text>
</a>
</g>
</g>
<!-- Node6&#45;&gt;Node5 -->
<g id="edge5" class="edge">
<title>Node6&#45;&gt;Node5</title>
<path fill="none" stroke="#9a32cd" stroke-dasharray="5,2" d="M1282.77,-129.91C1334.75,-129.91 1412.14,-129.91 1467.96,-129.91"/>
<polygon fill="#9a32cd" stroke="#9a32cd" points="1282.72,-126.41 1272.72,-129.91 1282.72,-133.41 1282.72,-126.41"/>
<text text-anchor="middle" x="1390" y="-132.91" font-family="Helvetica,sans-Serif" font-size="10.00"> m_act_src</text>
</g>
<!-- Node7 -->
<g id="node7" class="node">
<title>Node7</title>
<g id="a_node7"><a xlink:title=" ">
<polygon fill="white" stroke="#bfbfbf" points="943,-165.91 943,-195.91 1063,-195.91 1063,-165.91 943,-165.91"/>
<text text-anchor="start" x="951" y="-183.91" font-family="Helvetica,sans-Serif" font-size="10.00">std::shared_ptr&lt; amr</text>
<text text-anchor="middle" x="1003" y="-172.91" font-family="Helvetica,sans-Serif" font-size="10.00">_wind::FieldInfo &gt;</text>
</a>
</g>
</g>
<!-- Node7&#45;&gt;Node6 -->
<g id="edge6" class="edge">
<title>Node7&#45;&gt;Node6</title>
<path fill="none" stroke="#9a32cd" stroke-dasharray="5,2" d="M1073.11,-164.93C1109.32,-156.55 1152.46,-146.57 1183.4,-139.42"/>
<polygon fill="#9a32cd" stroke="#9a32cd" points="1072.04,-161.58 1063.09,-167.24 1073.62,-168.4 1072.04,-161.58"/>
<text text-anchor="middle" x="1101" y="-165.91" font-family="Helvetica,sans-Serif" font-size="10.00"> m_info</text>
</g>
<!-- Node8 -->
<g id="node8" class="node">
<title>Node8</title>
<g id="a_node8"><a xlink:href="structamr__wind_1_1_field_info.html" target="_top" xlink:title="Information common to a field that has multiple states.">
<polygon fill="white" stroke="black" points="716.5,-171.41 716.5,-190.41 829.5,-190.41 829.5,-171.41 716.5,-171.41"/>
<text text-anchor="middle" x="773" y="-178.41" font-family="Helvetica,sans-Serif" font-size="10.00">amr_wind::FieldInfo</text>
</a>
</g>
</g>
<!-- Node8&#45;&gt;Node7 -->
<g id="edge7" class="edge">
<title>Node8&#45;&gt;Node7</title>
<path fill="none" stroke="#9a32cd" stroke-dasharray="5,2" d="M840.07,-180.91C872.54,-180.91 911.34,-180.91 942.82,-180.91"/>
<polygon fill="#9a32cd" stroke="#9a32cd" points="839.78,-177.41 829.78,-180.91 839.78,-184.41 839.78,-177.41"/>
<text text-anchor="middle" x="888.5" y="-183.91" font-family="Helvetica,sans-Serif" font-size="10.00"> ptr</text>
</g>
<!-- Node9 -->
<g id="node9" class="node">
<title>Node9</title>
<g id="a_node9"><a xlink:title=" ">
<polygon fill="white" stroke="#bfbfbf" points="385,-171.91 385,-201.91 554,-201.91 554,-171.91 385,-171.91"/>
<text text-anchor="start" x="393" y="-189.91" font-family="Helvetica,sans-Serif" font-size="10.00">std::unique_ptr&lt; amr</text>
<text text-anchor="middle" x="469.5" y="-178.91" font-family="Helvetica,sans-Serif" font-size="10.00">_wind::FieldFillPatchOpsBase &gt;</text>
</a>
</g>
</g>
<!-- Node9&#45;&gt;Node8 -->
<g id="edge8" class="edge">
<title>Node9&#45;&gt;Node8</title>
<path fill="none" stroke="#9a32cd" stroke-dasharray="5,2" d="M564.25,-185.04C614.15,-184.05 673.81,-182.86 716.37,-182.02"/>
<polygon fill="#9a32cd" stroke="#9a32cd" points="564.01,-181.55 554.08,-185.25 564.15,-188.55 564.01,-181.55"/>
<text text-anchor="middle" x="633" y="-186.91" font-family="Helvetica,sans-Serif" font-size="10.00"> m_fillpatch_op</text>
</g>
<!-- Node10 -->
<g id="node10" class="node">
<title>Node10</title>
<g id="a_node10"><a xlink:href="classamr__wind_1_1_field_fill_patch_ops_base.html" target="_top" xlink:title="Abstract interface for classes that handle fill patch and physical boundary condition operations for ...">
<polygon fill="white" stroke="black" points="82,-145.91 82,-175.91 216,-175.91 216,-145.91 82,-145.91"/>
<text text-anchor="start" x="90" y="-163.91" font-family="Helvetica,sans-Serif" font-size="10.00">amr_wind::FieldFillPatch</text>
<text text-anchor="middle" x="149" y="-152.91" font-family="Helvetica,sans-Serif" font-size="10.00">OpsBase</text>
</a>
</g>
</g>
<!-- Node10&#45;&gt;Node9 -->
<g id="edge9" class="edge">
<title>Node10&#45;&gt;Node9</title>
<path fill="none" stroke="#9a32cd" stroke-dasharray="5,2" d="M226.1,-166.06C267.74,-168.99 320.23,-172.88 367,-176.91 372.82,-177.41 378.83,-177.95 384.88,-178.51"/>
<polygon fill="#9a32cd" stroke="#9a32cd" points="226.25,-162.56 216.03,-165.35 225.77,-169.55 226.25,-162.56"/>
<text text-anchor="middle" x="300.5" y="-179.91" font-family="Helvetica,sans-Serif" font-size="10.00"> ptr</text>
</g>
<!-- Node11 -->
<g id="node11" class="node">
<title>Node11</title>
<g id="a_node11"><a xlink:title="STL class.">
<polygon fill="white" stroke="#bfbfbf" points="90,-195.41 90,-214.41 208,-214.41 208,-195.41 90,-195.41"/>
<text text-anchor="middle" x="149" y="-202.41" font-family="Helvetica,sans-Serif" font-size="10.00">std::unique_ptr&lt; T &gt;</text>
</a>
</g>
</g>
<!-- Node11&#45;&gt;Node9 -->
<g id="edge10" class="edge">
<title>Node11&#45;&gt;Node9</title>
<path fill="none" stroke="orange" stroke-dasharray="5,2" d="M218.42,-199.91C223.69,-199.56 228.93,-199.22 234,-198.91 284.05,-195.84 340.14,-192.95 384.91,-190.78"/>
<polygon fill="orange" stroke="orange" points="218.02,-196.43 208.28,-200.59 218.5,-203.41 218.02,-196.43"/>
<text text-anchor="start" x="234" y="-212.91" font-family="Helvetica,sans-Serif" font-size="10.00"> &lt; amr_wind::FieldFillPatch</text>
<text text-anchor="middle" x="300.5" y="-201.91" font-family="Helvetica,sans-Serif" font-size="10.00">OpsBase &gt;</text>
</g>
<!-- Node12 -->
<g id="node12" class="node">
<title>Node12</title>
<g id="a_node12"><a xlink:title=" ">
<polygon fill="white" stroke="#bfbfbf" points="0,-195.41 0,-214.41 29,-214.41 29,-195.41 0,-195.41"/>
<text text-anchor="middle" x="14.5" y="-202.41" font-family="Helvetica,sans-Serif" font-size="10.00">T</text>
</a>
</g>
</g>
<!-- Node12&#45;&gt;Node11 -->
<g id="edge11" class="edge">
<title>Node12&#45;&gt;Node11</title>
<path fill="none" stroke="#9a32cd" stroke-dasharray="5,2" d="M39.44,-204.91C53.53,-204.91 72.01,-204.91 89.72,-204.91"/>
<polygon fill="#9a32cd" stroke="#9a32cd" points="39.18,-201.41 29.18,-204.91 39.18,-208.41 39.18,-201.41"/>
<text text-anchor="middle" x="55.5" y="-207.91" font-family="Helvetica,sans-Serif" font-size="10.00"> ptr</text>
</g>
<!-- Node15 -->
<g id="node15" class="node">
<title>Node15</title>
<g id="a_node15"><a xlink:title="STL class.">
<polygon fill="white" stroke="#bfbfbf" points="241.5,-230.41 241.5,-249.41 359.5,-249.41 359.5,-230.41 241.5,-230.41"/>
<text text-anchor="middle" x="300.5" y="-237.41" font-family="Helvetica,sans-Serif" font-size="10.00">std::shared_ptr&lt; T &gt;</text>
</a>
</g>
</g>
<!-- Node12&#45;&gt;Node15 -->
<g id="edge15" class="edge">
<title>Node12&#45;&gt;Node15</title>
<path fill="none" stroke="#9a32cd" stroke-dasharray="5,2" d="M38.43,-216.89C41.26,-218.05 44.16,-219.1 47,-219.91 62.05,-224.22 66.41,-222.45 82,-223.91 135.91,-228.97 197.45,-233.37 241.29,-236.27"/>
<polygon fill="#9a32cd" stroke="#9a32cd" points="39.77,-213.65 29.22,-212.66 36.85,-220.01 39.77,-213.65"/>
<text text-anchor="middle" x="55.5" y="-225.91" font-family="Helvetica,sans-Serif" font-size="10.00"> ptr</text>
</g>
<!-- Node18 -->
<g id="node18" class="node">
<title>Node18</title>
<g id="a_node18"><a xlink:title="STL class.">
<polygon fill="white" stroke="#bfbfbf" points="412.5,-44.91 412.5,-74.91 526.5,-74.91 526.5,-44.91 412.5,-44.91"/>
<text text-anchor="start" x="420.5" y="-62.91" font-family="Helvetica,sans-Serif" font-size="10.00">std::unordered_map</text>
<text text-anchor="middle" x="469.5" y="-51.91" font-family="Helvetica,sans-Serif" font-size="10.00">&lt; K, T &gt;</text>
</a>
</g>
</g>
<!-- Node12&#45;&gt;Node18 -->
<g id="edge22" class="edge">
<title>Node12&#45;&gt;Node18</title>
<path fill="none" stroke="#9a32cd" stroke-dasharray="5,2" d="M16.63,-184.72C19.89,-148.1 32.59,-71.42 82,-37.91 191.3,36.22 360.53,-16.41 433.28,-44.88"/>
<polygon fill="#9a32cd" stroke="#9a32cd" points="13.11,-184.87 15.87,-195.1 20.09,-185.38 13.11,-184.87"/>
<text text-anchor="middle" x="149" y="-40.91" font-family="Helvetica,sans-Serif" font-size="10.00"> elements</text>
</g>
<!-- Node13 -->
<g id="node13" class="node">
<title>Node13</title>
<g id="a_node13"><a xlink:title="STL class.">
<polygon fill="white" stroke="#bfbfbf" points="437,-105.41 437,-124.41 502,-124.41 502,-105.41 437,-105.41"/>
<text text-anchor="middle" x="469.5" y="-112.41" font-family="Helvetica,sans-Serif" font-size="10.00">std::string</text>
</a>
</g>
</g>
<!-- Node13&#45;&gt;Node6 -->
<g id="edge16" class="edge">
<title>Node13&#45;&gt;Node6</title>
<path fill="none" stroke="#9a32cd" stroke-dasharray="5,2" d="M512.28,-112.44C609.2,-107.2 856.77,-96.56 1063,-110.91 1102.01,-113.62 1146.08,-118.96 1178.32,-123.29"/>
<polygon fill="#9a32cd" stroke="#9a32cd" points="511.82,-108.96 502.03,-113.01 512.2,-115.95 511.82,-108.96"/>
<text text-anchor="middle" x="888.5" y="-106.91" font-family="Helvetica,sans-Serif" font-size="10.00"> m_name</text>
</g>
<!-- Node13&#45;&gt;Node8 -->
<g id="edge12" class="edge">
<title>Node13&#45;&gt;Node8</title>
<path fill="none" stroke="#9a32cd" stroke-dasharray="5,2" d="M512.28,-124.06C569.19,-136.51 670.57,-158.71 728.4,-171.37"/>
<polygon fill="#9a32cd" stroke="#9a32cd" points="512.71,-120.57 502.2,-121.85 511.22,-127.41 512.71,-120.57"/>
<text text-anchor="middle" x="633" y="-165.91" font-family="Helvetica,sans-Serif" font-size="10.00"> m_basename</text>
</g>
<!-- Node17 -->
<g id="node17" class="node">
<title>Node17</title>
<g id="a_node17"><a xlink:title=" ">
<polygon fill="white" stroke="#bfbfbf" points="712,-114.91 712,-144.91 834,-144.91 834,-114.91 712,-114.91"/>
<text text-anchor="start" x="720" y="-132.91" font-family="Helvetica,sans-Serif" font-size="10.00">std::unordered_map</text>
<text text-anchor="middle" x="773" y="-121.91" font-family="Helvetica,sans-Serif" font-size="10.00">&lt; std::string, size_t &gt;</text>
</a>
</g>
</g>
<!-- Node13&#45;&gt;Node17 -->
<g id="edge19" class="edge">
<title>Node13&#45;&gt;Node17</title>
<path fill="none" stroke="#9a32cd" stroke-dasharray="5,2" d="M512.25,-114.53C557.19,-114.44 630.76,-115.16 694,-119.91 699.72,-120.34 705.66,-120.9 711.6,-121.53"/>
<polygon fill="#9a32cd" stroke="#9a32cd" points="512,-111.04 502.01,-114.57 512.02,-118.04 512,-111.04"/>
<text text-anchor="middle" x="633" y="-122.91" font-family="Helvetica,sans-Serif" font-size="10.00"> keys</text>
</g>
<!-- Node14 -->
<g id="node14" class="node">
<title>Node14</title>
<g id="a_node14"><a xlink:title="STL class.">
<polygon fill="white" stroke="#bfbfbf" points="97,-96.91 97,-126.91 201,-126.91 201,-96.91 97,-96.91"/>
<text text-anchor="start" x="105" y="-114.91" font-family="Helvetica,sans-Serif" font-size="10.00">std::basic_string&lt;</text>
<text text-anchor="middle" x="149" y="-103.91" font-family="Helvetica,sans-Serif" font-size="10.00"> char &gt;</text>
</a>
</g>
</g>
<!-- Node14&#45;&gt;Node13 -->
<g id="edge13" class="edge">
<title>Node14&#45;&gt;Node13</title>
<path fill="none" stroke="midnightblue" d="M211.24,-112.49C278.64,-113.12 384.37,-114.12 436.81,-114.61"/>
<polygon fill="midnightblue" stroke="midnightblue" points="211.21,-108.99 201.17,-112.39 211.14,-115.99 211.21,-108.99"/>
</g>
<!-- Node15&#45;&gt;Node7 -->
<g id="edge14" class="edge">
<title>Node15&#45;&gt;Node7</title>
<path fill="none" stroke="orange" stroke-dasharray="5,2" d="M369.83,-237.81C484.85,-233.68 724.24,-222.45 925,-195.91 930.81,-195.14 936.83,-194.21 942.85,-193.19"/>
<polygon fill="orange" stroke="orange" points="369.63,-234.32 359.76,-238.17 369.88,-241.31 369.63,-234.32"/>
<text text-anchor="middle" x="633" y="-230.91" font-family="Helvetica,sans-Serif" font-size="10.00"> &lt; amr_wind::FieldInfo &gt;</text>
</g>
<!-- Node16 -->
<g id="node16" class="node">
<title>Node16</title>
<g id="a_node16"><a xlink:href="classamr__wind_1_1_field_repo.html" target="_top" xlink:title="Field Repository.">
<polygon fill="white" stroke="black" points="943.5,-120.41 943.5,-139.41 1062.5,-139.41 1062.5,-120.41 943.5,-120.41"/>
<text text-anchor="middle" x="1003" y="-127.41" font-family="Helvetica,sans-Serif" font-size="10.00">amr_wind::FieldRepo</text>
</a>
</g>
</g>
<!-- Node16&#45;&gt;Node6 -->
<g id="edge17" class="edge">
<title>Node16&#45;&gt;Node6</title>
<path fill="none" stroke="#9a32cd" stroke-dasharray="5,2" d="M1072.94,-129.91C1107.24,-129.91 1147.78,-129.91 1178.3,-129.91"/>
<polygon fill="#9a32cd" stroke="#9a32cd" points="1072.51,-126.41 1062.51,-129.91 1072.51,-133.41 1072.51,-126.41"/>
<text text-anchor="middle" x="1101" y="-132.91" font-family="Helvetica,sans-Serif" font-size="10.00"> m_repo</text>
</g>
<!-- Node17&#45;&gt;Node16 -->
<g id="edge18" class="edge">
<title>Node17&#45;&gt;Node16</title>
<path fill="none" stroke="#9a32cd" stroke-dasharray="5,2" d="M844.32,-129.91C876.09,-129.91 913.2,-129.91 943.43,-129.91"/>
<polygon fill="#9a32cd" stroke="#9a32cd" points="844.2,-126.41 834.2,-129.91 844.2,-133.41 844.2,-126.41"/>
<text text-anchor="middle" x="888.5" y="-143.91" font-family="Helvetica,sans-Serif" font-size="10.00"> m_fid_map</text>
<text text-anchor="middle" x="888.5" y="-132.91" font-family="Helvetica,sans-Serif" font-size="10.00">m_int_fid_map</text>
</g>
<!-- Node18&#45;&gt;Node17 -->
<g id="edge20" class="edge">
<title>Node18&#45;&gt;Node17</title>
<path fill="none" stroke="orange" stroke-dasharray="5,2" d="M536.64,-68.38C581.52,-74.94 641.93,-85.38 694,-99.91 708.39,-103.93 723.83,-109.57 737.14,-114.87"/>
<polygon fill="orange" stroke="orange" points="537.13,-64.91 526.73,-66.95 536.13,-71.84 537.13,-64.91"/>
<text text-anchor="middle" x="633" y="-102.91" font-family="Helvetica,sans-Serif" font-size="10.00"> &lt; std::string, size_t &gt;</text>
</g>
<!-- Node19 -->
<g id="node19" class="node">
<title>Node19</title>
<g id="a_node19"><a xlink:title=" ">
<polygon fill="white" stroke="#bfbfbf" points="134.5,-58.41 134.5,-77.41 163.5,-77.41 163.5,-58.41 134.5,-58.41"/>
<text text-anchor="middle" x="149" y="-65.41" font-family="Helvetica,sans-Serif" font-size="10.00">K</text>
</a>
</g>
</g>
<!-- Node19&#45;&gt;Node18 -->
<g id="edge21" class="edge">
<title>Node19&#45;&gt;Node18</title>
<path fill="none" stroke="#9a32cd" stroke-dasharray="5,2" d="M173.87,-67.31C224.1,-66.05 341.85,-63.09 412.34,-61.32"/>
<polygon fill="#9a32cd" stroke="#9a32cd" points="173.59,-63.82 163.69,-67.57 173.77,-70.81 173.59,-63.82"/>
<text text-anchor="middle" x="300.5" y="-67.91" font-family="Helvetica,sans-Serif" font-size="10.00"> keys</text>
</g>
</g>
</svg>
        <g id="navigator" transform="translate(0 0)" fill="#404254">
                <rect fill="#f2f5e9" fill-opacity="0.5" stroke="#606060" stroke-width=".5" x="0" y="0" width="60" height="60"/>
                <use id="zoomplus" xlink:href="#zoomPlus" x="17" y="9" onmousedown="handleZoom(evt,'in')"/>
                <use id="zoomminus" xlink:href="#zoomMin" x="42" y="9" onmousedown="handleZoom(evt,'out')"/>
                <use id="reset" xlink:href="#resetDef" x="30" y="36" onmousedown="handleReset()"/>
                <g id="arrowUp" xlink:href="#dirArrow" transform="translate(30 24)" onmousedown="handlePan(0,-1)">
                  <use xlink:href="#rim" fill="#404040">
                        <set attributeName="fill" to="#808080" begin="arrowUp.mouseover" end="arrowUp.mouseout"/>
                  </use>
                  <path fill="none" stroke="white" stroke-width="1.5" d="M0,-3.0v7 M-2.5,-0.5L0,-3.0L2.5,-0.5"/>
                </g>
                <g id="arrowRight" xlink:href="#dirArrow" transform="rotate(90) translate(36 -43)" onmousedown="handlePan(1,0)">
                  <use xlink:href="#rim" fill="#404040">
                        <set attributeName="fill" to="#808080" begin="arrowRight.mouseover" end="arrowRight.mouseout"/>
                  </use>
                  <path fill="none" stroke="white" stroke-width="1.5" d="M0,-3.0v7 M-2.5,-0.5L0,-3.0L2.5,-0.5"/>
                </g>
                <g id="arrowDown" xlink:href="#dirArrow" transform="rotate(180) translate(-30 -48)" onmousedown="handlePan(0,1)">
                  <use xlink:href="#rim" fill="#404040">
                        <set attributeName="fill" to="#808080" begin="arrowDown.mouseover" end="arrowDown.mouseout"/>
                  </use>
                  <path fill="none" stroke="white" stroke-width="1.5" d="M0,-3.0v7 M-2.5,-0.5L0,-3.0L2.5,-0.5"/>
                </g>
                <g id="arrowLeft" xlink:href="#dirArrow" transform="rotate(270) translate(-36 17)" onmousedown="handlePan(-1,0)">
                  <use xlink:href="#rim" fill="#404040">
                        <set attributeName="fill" to="#808080" begin="arrowLeft.mouseover" end="arrowLeft.mouseout"/>
                  </use>
                  <path fill="none" stroke="white" stroke-width="1.5" d="M0,-3.0v7 M-2.5,-0.5L0,-3.0L2.5,-0.5"/>
                </g>
        </g>
        <svg viewBox="0 0 15 15" width="100%" height="30px" preserveAspectRatio="xMaxYMin meet">
         <g id="arrow_out" transform="scale(0.3 0.3)">
          <a xlink:href="classamr__wind_1_1actuator_1_1_act_model__coll__graph_org.svg" target="_base">
           <rect id="button" ry="5" rx="5" y="6" x="6" height="38" width="38"
                fill="#f2f5e9" fill-opacity="0.5" stroke="#606060" stroke-width="1.0"/>
           <path id="arrow"
             d="M 11.500037,31.436501 C 11.940474,20.09759 22.043105,11.32322 32.158766,21.979434 L 37.068811,17.246167 C 37.068811,17.246167 37.088388,32 37.088388,32 L 22.160133,31.978069 C 22.160133,31.978069 26.997745,27.140456 26.997745,27.140456 C 18.528582,18.264221 13.291696,25.230495 11.500037,31.436501 z"
             style="fill:#404040;"/>
          </a>
         </g>
        </svg>
</svg>
