<?xml version="1.0" encoding="UTF-8" standalone="no"?>
<!DOCTYPE svg PUBLIC "-//W3C//DTD SVG 1.1//EN"
 "http://www.w3.org/Graphics/SVG/1.1/DTD/svg11.dtd">
<!-- Generated by graphviz version 2.43.0 (0)
 -->
<!-- Title: amr_wind::EkmanSpiral Pages: 1 -->
<!--zoomable 278 -->
<svg id="main" version="1.1" xmlns="http://www.w3.org/2000/svg" xmlns:xlink="http://www.w3.org/1999/xlink" xml:space="preserve" onload="init(evt)">
<style type="text/css"><![CDATA[
.edge:hover path { stroke: red; }
.edge:hover polygon { stroke: red; fill: red; }
]]></style>
<script type="text/javascript"><![CDATA[
var edges = document.getElementsByTagName('g');
if (edges && edges.length) {
  for (var i=0;i<edges.length;i++) {
    if (edges[i].id.substr(0,4)=='edge') {
      edges[i].setAttribute('class','edge');
    }
  }
}
]]></script>
        <defs>
                <circle id="rim" cx="0" cy="0" r="7"/>
                <circle id="rim2" cx="0" cy="0" r="3.5"/>
                <g id="zoomPlus">
                        <use xlink:href="#rim" fill="#404040">
                                <set attributeName="fill" to="#808080" begin="zoomplus.mouseover" end="zoomplus.mouseout"/>
                        </use>
                        <path d="M-4,0h8M0,-4v8" fill="none" stroke="white" stroke-width="1.5" pointer-events="none"/>
                </g>
                <g id="zoomMin">
                        <use xlink:href="#rim" fill="#404040">
                                <set attributeName="fill" to="#808080" begin="zoomminus.mouseover" end="zoomminus.mouseout"/>
                        </use>
                        <path d="M-4,0h8" fill="none" stroke="white" stroke-width="1.5" pointer-events="none"/>
                </g>
                <g id="dirArrow">
                        <path fill="none" stroke="white" stroke-width="1.5" d="M0,-3.0v7 M-2.5,-0.5L0,-3.0L2.5,-0.5"/>
                </g>
               <g id="resetDef">
                       <use xlink:href="#rim2" fill="#404040">
                               <set attributeName="fill" to="#808080" begin="reset.mouseover" end="reset.mouseout"/>
                       </use>
               </g>
        </defs>

<script type="text/javascript">
var viewWidth = 1484;
var viewHeight = 278;
var sectionId = 'dynsection-1';
</script>
<script xlink:href="svgpan.js"/>
<svg id="graph" class="graph">
<g id="viewport">
<title>amr_wind::EkmanSpiral</title>
<polygon fill="white" stroke="transparent" points="-4,4 -4,-274 1480,-274 1480,4 -4,4"/>
<!-- Node1 -->
<g id="node1" class="node">
<title>Node1</title>
<g id="a_node1"><a xlink:title="Ekman Spiral physics.">
<polygon fill="#bfbfbf" stroke="black" points="1344,-105.5 1344,-124.5 1476,-124.5 1476,-105.5 1344,-105.5"/>
<text text-anchor="middle" x="1410" y="-112.5" font-family="Helvetica,sans-Serif" font-size="10.00">amr_wind::EkmanSpiral</text>
</a>
</g>
</g>
<!-- Node2 -->
<g id="node2" class="node">
<title>Node2</title>
<g id="a_node2"><a xlink:title=" ">
<polygon fill="white" stroke="#bfbfbf" points="1142,-182 1142,-212 1250,-212 1250,-182 1142,-182"/>
<text text-anchor="start" x="1150" y="-200" font-family="Helvetica,sans-Serif" font-size="10.00">Physics::Register&lt;</text>
<text text-anchor="middle" x="1196" y="-189" font-family="Helvetica,sans-Serif" font-size="10.00"> EkmanSpiral &gt;</text>
</a>
</g>
</g>
<!-- Node2&#45;&gt;Node1 -->
<g id="edge1" class="edge">
<title>Node2&#45;&gt;Node1</title>
<path fill="none" stroke="midnightblue" d="M1260.18,-185.3C1281.53,-180.31 1305.2,-173.61 1326,-165 1352.27,-154.12 1380.02,-135.82 1395.86,-124.63"/>
<polygon fill="midnightblue" stroke="midnightblue" points="1259.22,-181.93 1250.24,-187.54 1260.76,-188.75 1259.22,-181.93"/>
</g>
<!-- Node3 -->
<g id="node3" class="node">
<title>Node3</title>
<g id="a_node3"><a xlink:href="classamr__wind_1_1_field.html" target="_top" xlink:title="Computational field.">
<polygon fill="white" stroke="black" points="1149,-143.5 1149,-162.5 1243,-162.5 1243,-143.5 1149,-143.5"/>
<text text-anchor="middle" x="1196" y="-150.5" font-family="Helvetica,sans-Serif" font-size="10.00">amr_wind::Field</text>
</a>
</g>
</g>
<!-- Node3&#45;&gt;Node1 -->
<g id="edge2" class="edge">
<title>Node3&#45;&gt;Node1</title>
<path fill="none" stroke="#9a32cd" stroke-dasharray="5,2" d="M1253.06,-142.95C1284.94,-137.24 1324.63,-130.12 1355.99,-124.5"/>
<polygon fill="#9a32cd" stroke="#9a32cd" points="1252.23,-139.55 1243,-144.75 1253.46,-146.44 1252.23,-139.55"/>
<text text-anchor="middle" x="1298.5" y="-153" font-family="Helvetica,sans-Serif" font-size="10.00"> m_density</text>
<text text-anchor="middle" x="1298.5" y="-142" font-family="Helvetica,sans-Serif" font-size="10.00">m_velocity</text>
</g>
<!-- Node4 -->
<g id="node4" class="node">
<title>Node4</title>
<g id="a_node4"><a xlink:title=" ">
<polygon fill="white" stroke="#bfbfbf" points="943,-200 943,-230 1063,-230 1063,-200 943,-200"/>
<text text-anchor="start" x="951" y="-218" font-family="Helvetica,sans-Serif" font-size="10.00">std::shared_ptr&lt; amr</text>
<text text-anchor="middle" x="1003" y="-207" font-family="Helvetica,sans-Serif" font-size="10.00">_wind::FieldInfo &gt;</text>
</a>
</g>
</g>
<!-- Node4&#45;&gt;Node3 -->
<g id="edge3" class="edge">
<title>Node4&#45;&gt;Node3</title>
<path fill="none" stroke="#9a32cd" stroke-dasharray="5,2" d="M1059.75,-196.9C1094.35,-185.67 1137.42,-171.69 1165.53,-162.57"/>
<polygon fill="#9a32cd" stroke="#9a32cd" points="1058.67,-193.57 1050.24,-199.99 1060.83,-200.23 1058.67,-193.57"/>
<text text-anchor="middle" x="1101" y="-192" font-family="Helvetica,sans-Serif" font-size="10.00"> m_info</text>
</g>
<!-- Node5 -->
<g id="node5" class="node">
<title>Node5</title>
<g id="a_node5"><a xlink:href="structamr__wind_1_1_field_info.html" target="_top" xlink:title="Information common to a field that has multiple states.">
<polygon fill="white" stroke="black" points="716.5,-205.5 716.5,-224.5 829.5,-224.5 829.5,-205.5 716.5,-205.5"/>
<text text-anchor="middle" x="773" y="-212.5" font-family="Helvetica,sans-Serif" font-size="10.00">amr_wind::FieldInfo</text>
</a>
</g>
</g>
<!-- Node5&#45;&gt;Node4 -->
<g id="edge4" class="edge">
<title>Node5&#45;&gt;Node4</title>
<path fill="none" stroke="#9a32cd" stroke-dasharray="5,2" d="M840.07,-215C872.54,-215 911.34,-215 942.82,-215"/>
<polygon fill="#9a32cd" stroke="#9a32cd" points="839.78,-211.5 829.78,-215 839.78,-218.5 839.78,-211.5"/>
<text text-anchor="middle" x="888.5" y="-218" font-family="Helvetica,sans-Serif" font-size="10.00"> ptr</text>
</g>
<!-- Node6 -->
<g id="node6" class="node">
<title>Node6</title>
<g id="a_node6"><a xlink:title=" ">
<polygon fill="white" stroke="#bfbfbf" points="385,-201 385,-231 554,-231 554,-201 385,-201"/>
<text text-anchor="start" x="393" y="-219" font-family="Helvetica,sans-Serif" font-size="10.00">std::unique_ptr&lt; amr</text>
<text text-anchor="middle" x="469.5" y="-208" font-family="Helvetica,sans-Serif" font-size="10.00">_wind::FieldFillPatchOpsBase &gt;</text>
</a>
</g>
</g>
<!-- Node6&#45;&gt;Node5 -->
<g id="edge5" class="edge">
<title>Node6&#45;&gt;Node5</title>
<path fill="none" stroke="#9a32cd" stroke-dasharray="5,2" d="M564.25,-215.69C614.15,-215.52 673.81,-215.33 716.37,-215.18"/>
<polygon fill="#9a32cd" stroke="#9a32cd" points="564.07,-212.19 554.08,-215.72 564.1,-219.19 564.07,-212.19"/>
<text text-anchor="middle" x="633" y="-218" font-family="Helvetica,sans-Serif" font-size="10.00"> m_fillpatch_op</text>
</g>
<!-- Node7 -->
<g id="node7" class="node">
<title>Node7</title>
<g id="a_node7"><a xlink:href="classamr__wind_1_1_field_fill_patch_ops_base.html" target="_top" xlink:title="Abstract interface for classes that handle fill patch and physical boundary condition operations for ...">
<polygon fill="white" stroke="black" points="82,-201 82,-231 216,-231 216,-201 82,-201"/>
<text text-anchor="start" x="90" y="-219" font-family="Helvetica,sans-Serif" font-size="10.00">amr_wind::FieldFillPatch</text>
<text text-anchor="middle" x="149" y="-208" font-family="Helvetica,sans-Serif" font-size="10.00">OpsBase</text>
</a>
</g>
</g>
<!-- Node7&#45;&gt;Node6 -->
<g id="edge6" class="edge">
<title>Node7&#45;&gt;Node6</title>
<path fill="none" stroke="#9a32cd" stroke-dasharray="5,2" d="M226.66,-216C274.42,-216 335.87,-216 384.88,-216"/>
<polygon fill="#9a32cd" stroke="#9a32cd" points="226.38,-212.5 216.38,-216 226.38,-219.5 226.38,-212.5"/>
<text text-anchor="middle" x="300.5" y="-219" font-family="Helvetica,sans-Serif" font-size="10.00"> ptr</text>
</g>
<!-- Node8 -->
<g id="node8" class="node">
<title>Node8</title>
<g id="a_node8"><a xlink:title="STL class.">
<polygon fill="white" stroke="#bfbfbf" points="90,-162.5 90,-181.5 208,-181.5 208,-162.5 90,-162.5"/>
<text text-anchor="middle" x="149" y="-169.5" font-family="Helvetica,sans-Serif" font-size="10.00">std::unique_ptr&lt; T &gt;</text>
</a>
</g>
</g>
<!-- Node8&#45;&gt;Node6 -->
<g id="edge7" class="edge">
<title>Node8&#45;&gt;Node6</title>
<path fill="none" stroke="orange" stroke-dasharray="5,2" d="M218.4,-174.73C261.31,-177.16 317.65,-181.69 367,-190 383.32,-192.75 400.87,-196.83 416.7,-200.94"/>
<polygon fill="orange" stroke="orange" points="218.53,-171.23 208.36,-174.18 218.15,-178.22 218.53,-171.23"/>
<text text-anchor="start" x="234" y="-204" font-family="Helvetica,sans-Serif" font-size="10.00"> &lt; amr_wind::FieldFillPatch</text>
<text text-anchor="middle" x="300.5" y="-193" font-family="Helvetica,sans-Serif" font-size="10.00">OpsBase &gt;</text>
</g>
<!-- Node9 -->
<g id="node9" class="node">
<title>Node9</title>
<g id="a_node9"><a xlink:title=" ">
<polygon fill="white" stroke="#bfbfbf" points="0,-162.5 0,-181.5 29,-181.5 29,-162.5 0,-162.5"/>
<text text-anchor="middle" x="14.5" y="-169.5" font-family="Helvetica,sans-Serif" font-size="10.00">T</text>
</a>
</g>
</g>
<!-- Node9&#45;&gt;Node8 -->
<g id="edge8" class="edge">
<title>Node9&#45;&gt;Node8</title>
<path fill="none" stroke="#9a32cd" stroke-dasharray="5,2" d="M39.44,-172C53.53,-172 72.01,-172 89.72,-172"/>
<polygon fill="#9a32cd" stroke="#9a32cd" points="39.18,-168.5 29.18,-172 39.18,-175.5 39.18,-168.5"/>
<text text-anchor="middle" x="55.5" y="-175" font-family="Helvetica,sans-Serif" font-size="10.00"> ptr</text>
</g>
<!-- Node12 -->
<g id="node12" class="node">
<title>Node12</title>
<g id="a_node12"><a xlink:title="STL class.">
<polygon fill="white" stroke="#bfbfbf" points="241.5,-250.5 241.5,-269.5 359.5,-269.5 359.5,-250.5 241.5,-250.5"/>
<text text-anchor="middle" x="300.5" y="-257.5" font-family="Helvetica,sans-Serif" font-size="10.00">std::shared_ptr&lt; T &gt;</text>
</a>
</g>
</g>
<!-- Node9&#45;&gt;Node12 -->
<g id="edge12" class="edge">
<title>Node9&#45;&gt;Node12</title>
<path fill="none" stroke="#9a32cd" stroke-dasharray="5,2" d="M27.08,-189.95C38.77,-206.36 58.44,-229.75 82,-241 131.94,-264.85 195.66,-267.67 241.2,-265.7"/>
<polygon fill="#9a32cd" stroke="#9a32cd" points="29.96,-187.95 21.43,-181.66 24.18,-191.9 29.96,-187.95"/>
<text text-anchor="middle" x="55.5" y="-232" font-family="Helvetica,sans-Serif" font-size="10.00"> ptr</text>
</g>
<!-- Node15 -->
<g id="node15" class="node">
<title>Node15</title>
<g id="a_node15"><a xlink:title="STL class.">
<polygon fill="white" stroke="#bfbfbf" points="412.5,-40 412.5,-70 526.5,-70 526.5,-40 412.5,-40"/>
<text text-anchor="start" x="420.5" y="-58" font-family="Helvetica,sans-Serif" font-size="10.00">std::unordered_map</text>
<text text-anchor="middle" x="469.5" y="-47" font-family="Helvetica,sans-Serif" font-size="10.00">&lt; K, T &gt;</text>
</a>
</g>
</g>
<!-- Node9&#45;&gt;Node15 -->
<g id="edge19" class="edge">
<title>Node9&#45;&gt;Node15</title>
<path fill="none" stroke="#9a32cd" stroke-dasharray="5,2" d="M25.29,-153.57C36.34,-134.8 56.2,-106.58 82,-93 89.22,-89.2 306.9,-69.38 412.34,-59.97"/>
<polygon fill="#9a32cd" stroke="#9a32cd" points="22.17,-151.96 20.32,-162.39 28.28,-155.39 22.17,-151.96"/>
<text text-anchor="middle" x="149" y="-96" font-family="Helvetica,sans-Serif" font-size="10.00"> elements</text>
</g>
<!-- Node10 -->
<g id="node10" class="node">
<title>Node10</title>
<g id="a_node10"><a xlink:title="STL class.">
<polygon fill="white" stroke="#bfbfbf" points="437,-118.5 437,-137.5 502,-137.5 502,-118.5 437,-118.5"/>
<text text-anchor="middle" x="469.5" y="-125.5" font-family="Helvetica,sans-Serif" font-size="10.00">std::string</text>
</a>
</g>
</g>
<!-- Node10&#45;&gt;Node1 -->
<g id="edge21" class="edge">
<title>Node10&#45;&gt;Node1</title>
<path fill="none" stroke="#9a32cd" stroke-dasharray="5,2" d="M512.44,-125.05C570.65,-121.21 679.27,-115 772,-115 772,-115 772,-115 1197,-115 1246.14,-115 1301.68,-115 1343.58,-115"/>
<polygon fill="#9a32cd" stroke="#9a32cd" points="511.91,-121.58 502.17,-125.74 512.38,-128.56 511.91,-121.58"/>
<text text-anchor="middle" x="1003" y="-118" font-family="Helvetica,sans-Serif" font-size="10.00"> m_output_fname</text>
</g>
<!-- Node10&#45;&gt;Node3 -->
<g id="edge13" class="edge">
<title>Node10&#45;&gt;Node3</title>
<path fill="none" stroke="#9a32cd" stroke-dasharray="5,2" d="M512.14,-129.44C638.5,-133.8 1016.93,-146.86 1148.95,-151.41"/>
<polygon fill="#9a32cd" stroke="#9a32cd" points="512.21,-125.94 502.1,-129.09 511.97,-132.93 512.21,-125.94"/>
<text text-anchor="middle" x="888.5" y="-146" font-family="Helvetica,sans-Serif" font-size="10.00"> m_name</text>
</g>
<!-- Node10&#45;&gt;Node5 -->
<g id="edge9" class="edge">
<title>Node10&#45;&gt;Node5</title>
<path fill="none" stroke="#9a32cd" stroke-dasharray="5,2" d="M503.89,-141.17C523.54,-148.67 548.99,-157.95 572,-165 625.21,-181.3 687.57,-196.25 728.33,-205.47"/>
<polygon fill="#9a32cd" stroke="#9a32cd" points="505.05,-137.87 494.46,-137.54 502.53,-144.4 505.05,-137.87"/>
<text text-anchor="middle" x="633" y="-199" font-family="Helvetica,sans-Serif" font-size="10.00"> m_basename</text>
</g>
<!-- Node14 -->
<g id="node14" class="node">
<title>Node14</title>
<g id="a_node14"><a xlink:title=" ">
<polygon fill="white" stroke="#bfbfbf" points="712,-48 712,-78 834,-78 834,-48 712,-48"/>
<text text-anchor="start" x="720" y="-66" font-family="Helvetica,sans-Serif" font-size="10.00">std::unordered_map</text>
<text text-anchor="middle" x="773" y="-55" font-family="Helvetica,sans-Serif" font-size="10.00">&lt; std::string, size_t &gt;</text>
</a>
</g>
</g>
<!-- Node10&#45;&gt;Node14 -->
<g id="edge16" class="edge">
<title>Node10&#45;&gt;Node14</title>
<path fill="none" stroke="#9a32cd" stroke-dasharray="5,2" d="M501.27,-114.42C521.1,-106.19 547.65,-96.12 572,-90 618.21,-78.39 671.77,-71.49 711.83,-67.58"/>
<polygon fill="#9a32cd" stroke="#9a32cd" points="499.68,-111.29 491.83,-118.41 502.41,-117.74 499.68,-111.29"/>
<text text-anchor="middle" x="633" y="-93" font-family="Helvetica,sans-Serif" font-size="10.00"> keys</text>
</g>
<!-- Node11 -->
<g id="node11" class="node">
<title>Node11</title>
<g id="a_node11"><a xlink:title="STL class.">
<polygon fill="white" stroke="#bfbfbf" points="97,-113 97,-143 201,-143 201,-113 97,-113"/>
<text text-anchor="start" x="105" y="-131" font-family="Helvetica,sans-Serif" font-size="10.00">std::basic_string&lt;</text>
<text text-anchor="middle" x="149" y="-120" font-family="Helvetica,sans-Serif" font-size="10.00"> char &gt;</text>
</a>
</g>
</g>
<!-- Node11&#45;&gt;Node10 -->
<g id="edge10" class="edge">
<title>Node11&#45;&gt;Node10</title>
<path fill="none" stroke="midnightblue" d="M211.24,-128C278.64,-128 384.37,-128 436.81,-128"/>
<polygon fill="midnightblue" stroke="midnightblue" points="211.17,-124.5 201.17,-128 211.17,-131.5 211.17,-124.5"/>
</g>
<!-- Node12&#45;&gt;Node4 -->
<g id="edge11" class="edge">
<title>Node12&#45;&gt;Node4</title>
<path fill="none" stroke="orange" stroke-dasharray="5,2" d="M369.83,-259.93C484.84,-259.09 724.22,-254.26 925,-230 930.81,-229.3 936.85,-228.41 942.86,-227.41"/>
<polygon fill="orange" stroke="orange" points="369.73,-256.43 359.76,-259.99 369.78,-263.43 369.73,-256.43"/>
<text text-anchor="middle" x="633" y="-258" font-family="Helvetica,sans-Serif" font-size="10.00"> &lt; amr_wind::FieldInfo &gt;</text>
</g>
<!-- Node13 -->
<g id="node13" class="node">
<title>Node13</title>
<g id="a_node13"><a xlink:href="classamr__wind_1_1_field_repo.html" target="_top" xlink:title="Field Repository.">
<polygon fill="white" stroke="black" points="943.5,-53.5 943.5,-72.5 1062.5,-72.5 1062.5,-53.5 943.5,-53.5"/>
<text text-anchor="middle" x="1003" y="-60.5" font-family="Helvetica,sans-Serif" font-size="10.00">amr_wind::FieldRepo</text>
</a>
</g>
</g>
<!-- Node13&#45;&gt;Node1 -->
<g id="edge22" class="edge">
<title>Node13&#45;&gt;Node1</title>
<path fill="none" stroke="#9a32cd" stroke-dasharray="5,2" d="M1072.75,-69.68C1122.8,-74.73 1192.18,-82.12 1253,-90 1285.54,-94.21 1293.6,-95.83 1326,-101 1334.8,-102.41 1344.12,-103.94 1353.21,-105.45"/>
<polygon fill="#9a32cd" stroke="#9a32cd" points="1072.99,-66.19 1062.69,-68.67 1072.29,-73.15 1072.99,-66.19"/>
<text text-anchor="middle" x="1196" y="-93" font-family="Helvetica,sans-Serif" font-size="10.00"> m_repo</text>
</g>
<!-- Node13&#45;&gt;Node3 -->
<g id="edge14" class="edge">
<title>Node13&#45;&gt;Node3</title>
<path fill="none" stroke="#9a32cd" stroke-dasharray="5,2" d="M1033.75,-77.02C1072.96,-95.5 1140.92,-127.52 1174.71,-143.44"/>
<polygon fill="#9a32cd" stroke="#9a32cd" points="1034.98,-73.73 1024.44,-72.63 1031.99,-80.06 1034.98,-73.73"/>
<text text-anchor="middle" x="1101" y="-119" font-family="Helvetica,sans-Serif" font-size="10.00"> m_repo</text>
</g>
<!-- Node14&#45;&gt;Node13 -->
<g id="edge15" class="edge">
<title>Node14&#45;&gt;Node13</title>
<path fill="none" stroke="#9a32cd" stroke-dasharray="5,2" d="M844.32,-63C876.09,-63 913.2,-63 943.43,-63"/>
<polygon fill="#9a32cd" stroke="#9a32cd" points="844.2,-59.5 834.2,-63 844.2,-66.5 844.2,-59.5"/>
<text text-anchor="middle" x="888.5" y="-77" font-family="Helvetica,sans-Serif" font-size="10.00"> m_fid_map</text>
<text text-anchor="middle" x="888.5" y="-66" font-family="Helvetica,sans-Serif" font-size="10.00">m_int_fid_map</text>
</g>
<!-- Node15&#45;&gt;Node14 -->
<g id="edge17" class="edge">
<title>Node15&#45;&gt;Node14</title>
<path fill="none" stroke="orange" stroke-dasharray="5,2" d="M536.67,-53.82C581.17,-53.39 641.14,-53.51 694,-56 699.84,-56.27 705.92,-56.65 711.99,-57.1"/>
<polygon fill="orange" stroke="orange" points="536.52,-50.32 526.56,-53.93 536.6,-57.32 536.52,-50.32"/>
<text text-anchor="middle" x="633" y="-59" font-family="Helvetica,sans-Serif" font-size="10.00"> &lt; std::string, size_t &gt;</text>
</g>
<!-- Node16 -->
<g id="node16" class="node">
<title>Node16</title>
<g id="a_node16"><a xlink:title=" ">
<polygon fill="white" stroke="#bfbfbf" points="134.5,-27.5 134.5,-46.5 163.5,-46.5 163.5,-27.5 134.5,-27.5"/>
<text text-anchor="middle" x="149" y="-34.5" font-family="Helvetica,sans-Serif" font-size="10.00">K</text>
</a>
</g>
</g>
<!-- Node16&#45;&gt;Node15 -->
<g id="edge18" class="edge">
<title>Node16&#45;&gt;Node15</title>
<path fill="none" stroke="#9a32cd" stroke-dasharray="5,2" d="M173.87,-38.35C224.1,-41.19 341.85,-47.84 412.34,-51.83"/>
<polygon fill="#9a32cd" stroke="#9a32cd" points="173.87,-34.84 163.69,-37.77 173.47,-41.83 173.87,-34.84"/>
<text text-anchor="middle" x="300.5" y="-52" font-family="Helvetica,sans-Serif" font-size="10.00"> keys</text>
</g>
<!-- Node17 -->
<g id="node17" class="node">
<title>Node17</title>
<g id="a_node17"><a xlink:href="classamr__wind_1_1_sim_time.html" target="_top" xlink:title="Time manager for simulations.">
<polygon fill="white" stroke="black" points="1139,-0.5 1139,-19.5 1253,-19.5 1253,-0.5 1139,-0.5"/>
<text text-anchor="middle" x="1196" y="-7.5" font-family="Helvetica,sans-Serif" font-size="10.00">amr_wind::SimTime</text>
</a>
</g>
</g>
<!-- Node17&#45;&gt;Node1 -->
<g id="edge20" class="edge">
<title>Node17&#45;&gt;Node1</title>
<path fill="none" stroke="#9a32cd" stroke-dasharray="5,2" d="M1263.19,-12.75C1284.16,-15.68 1306.85,-21.12 1326,-31 1360.98,-49.05 1390.18,-87.28 1402.59,-105.26"/>
<polygon fill="#9a32cd" stroke="#9a32cd" points="1263.4,-9.25 1253.05,-11.5 1262.55,-16.19 1263.4,-9.25"/>
<text text-anchor="middle" x="1298.5" y="-34" font-family="Helvetica,sans-Serif" font-size="10.00"> m_time</text>
</g>
</g>
</svg>
        <g id="navigator" transform="translate(0 0)" fill="#404254">
                <rect fill="#f2f5e9" fill-opacity="0.5" stroke="#606060" stroke-width=".5" x="0" y="0" width="60" height="60"/>
                <use id="zoomplus" xlink:href="#zoomPlus" x="17" y="9" onmousedown="handleZoom(evt,'in')"/>
                <use id="zoomminus" xlink:href="#zoomMin" x="42" y="9" onmousedown="handleZoom(evt,'out')"/>
                <use id="reset" xlink:href="#resetDef" x="30" y="36" onmousedown="handleReset()"/>
                <g id="arrowUp" xlink:href="#dirArrow" transform="translate(30 24)" onmousedown="handlePan(0,-1)">
                  <use xlink:href="#rim" fill="#404040">
                        <set attributeName="fill" to="#808080" begin="arrowUp.mouseover" end="arrowUp.mouseout"/>
                  </use>
                  <path fill="none" stroke="white" stroke-width="1.5" d="M0,-3.0v7 M-2.5,-0.5L0,-3.0L2.5,-0.5"/>
                </g>
                <g id="arrowRight" xlink:href="#dirArrow" transform="rotate(90) translate(36 -43)" onmousedown="handlePan(1,0)">
                  <use xlink:href="#rim" fill="#404040">
                        <set attributeName="fill" to="#808080" begin="arrowRight.mouseover" end="arrowRight.mouseout"/>
                  </use>
                  <path fill="none" stroke="white" stroke-width="1.5" d="M0,-3.0v7 M-2.5,-0.5L0,-3.0L2.5,-0.5"/>
                </g>
                <g id="arrowDown" xlink:href="#dirArrow" transform="rotate(180) translate(-30 -48)" onmousedown="handlePan(0,1)">
                  <use xlink:href="#rim" fill="#404040">
                        <set attributeName="fill" to="#808080" begin="arrowDown.mouseover" end="arrowDown.mouseout"/>
                  </use>
                  <path fill="none" stroke="white" stroke-width="1.5" d="M0,-3.0v7 M-2.5,-0.5L0,-3.0L2.5,-0.5"/>
                </g>
                <g id="arrowLeft" xlink:href="#dirArrow" transform="rotate(270) translate(-36 17)" onmousedown="handlePan(-1,0)">
                  <use xlink:href="#rim" fill="#404040">
                        <set attributeName="fill" to="#808080" begin="arrowLeft.mouseover" end="arrowLeft.mouseout"/>
                  </use>
                  <path fill="none" stroke="white" stroke-width="1.5" d="M0,-3.0v7 M-2.5,-0.5L0,-3.0L2.5,-0.5"/>
                </g>
        </g>
        <svg viewBox="0 0 15 15" width="100%" height="30px" preserveAspectRatio="xMaxYMin meet">
         <g id="arrow_out" transform="scale(0.3 0.3)">
          <a xlink:href="classamr__wind_1_1_ekman_spiral__coll__graph_org.svg" target="_base">
           <rect id="button" ry="5" rx="5" y="6" x="6" height="38" width="38"
                fill="#f2f5e9" fill-opacity="0.5" stroke="#606060" stroke-width="1.0"/>
           <path id="arrow"
             d="M 11.500037,31.436501 C 11.940474,20.09759 22.043105,11.32322 32.158766,21.979434 L 37.068811,17.246167 C 37.068811,17.246167 37.088388,32 37.088388,32 L 22.160133,31.978069 C 22.160133,31.978069 26.997745,27.140456 26.997745,27.140456 C 18.528582,18.264221 13.291696,25.230495 11.500037,31.436501 z"
             style="fill:#404040;"/>
          </a>
         </g>
        </svg>
</svg>
