<?xml version="1.0" encoding="UTF-8" standalone="no"?>
<!DOCTYPE svg PUBLIC "-//W3C//DTD SVG 1.1//EN"
 "http://www.w3.org/Graphics/SVG/1.1/DTD/svg11.dtd">
<!-- Generated by graphviz version 2.43.0 (0)
 -->
<!-- Title: amr_wind::sampling::RadarSampler Pages: 1 -->
<svg width="2061pt" height="758pt"
 viewBox="0.00 0.00 2061.00 757.50" xmlns="http://www.w3.org/2000/svg" xmlns:xlink="http://www.w3.org/1999/xlink">
<g id="graph0" class="graph" transform="scale(1 1) rotate(0) translate(4 753.5)">
<title>amr_wind::sampling::RadarSampler</title>
<polygon fill="white" stroke="transparent" points="-4,4 -4,-753.5 2057,-753.5 2057,4 -4,4"/>
<!-- Node1 -->
<g id="node1" class="node">
<title>Node1</title>
<g id="a_node1"><a xlink:title="Sample data along a line.">
<polygon fill="#bfbfbf" stroke="black" points="1928.5,-606 1928.5,-636 2044.5,-636 2044.5,-606 1928.5,-606"/>
<text text-anchor="start" x="1936.5" y="-624" font-family="Helvetica,sans-Serif" font-size="10.00">amr_wind::sampling</text>
<text text-anchor="middle" x="1986.5" y="-613" font-family="Helvetica,sans-Serif" font-size="10.00">::RadarSampler</text>
</a>
</g>
</g>
<!-- Node2 -->
<g id="node2" class="node">
<title>Node2</title>
<g id="a_node2"><a xlink:title=" ">
<polygon fill="white" stroke="#bfbfbf" points="1648,-719 1648,-749 1776,-749 1776,-719 1648,-719"/>
<text text-anchor="start" x="1656" y="-737" font-family="Helvetica,sans-Serif" font-size="10.00">SamplerBase::Register</text>
<text text-anchor="middle" x="1712" y="-726" font-family="Helvetica,sans-Serif" font-size="10.00">&lt; RadarSampler &gt;</text>
</a>
</g>
</g>
<!-- Node2&#45;&gt;Node1 -->
<g id="edge1" class="edge">
<title>Node2&#45;&gt;Node1</title>
<path fill="none" stroke="midnightblue" d="M1786.13,-733.99C1822.63,-731.36 1866.46,-724.08 1902,-706 1934.26,-689.58 1961.44,-655.89 1975.4,-636.21"/>
<polygon fill="midnightblue" stroke="midnightblue" points="1785.81,-730.5 1776.04,-734.61 1786.24,-737.49 1785.81,-730.5"/>
</g>
<!-- Node3 -->
<g id="node3" class="node">
<title>Node3</title>
<g id="a_node3"><a xlink:title=" ">
<polygon fill="white" stroke="#bfbfbf" points="1648,-670 1648,-700 1776,-700 1776,-670 1648,-670"/>
<text text-anchor="start" x="1656" y="-688" font-family="Helvetica,sans-Serif" font-size="10.00">std::vector&lt; amr_wind</text>
<text text-anchor="middle" x="1712" y="-677" font-family="Helvetica,sans-Serif" font-size="10.00">::vs::VectorT &gt;</text>
</a>
</g>
</g>
<!-- Node3&#45;&gt;Node1 -->
<g id="edge2" class="edge">
<title>Node3&#45;&gt;Node1</title>
<path fill="none" stroke="#9a32cd" stroke-dasharray="5,2" d="M1786.57,-691.05C1822.24,-691.7 1865.21,-689.05 1902,-677 1927.88,-668.52 1953.22,-649.58 1969.08,-636.08"/>
<polygon fill="#9a32cd" stroke="#9a32cd" points="1786.32,-687.54 1776.23,-690.77 1786.13,-694.54 1786.32,-687.54"/>
<text text-anchor="middle" x="1848" y="-694" font-family="Helvetica,sans-Serif" font-size="10.00"> m_rays</text>
</g>
<!-- Node4 -->
<g id="node4" class="node">
<title>Node4</title>
<g id="a_node4"><a xlink:href="structamr__wind_1_1vs_1_1_vector_t.html" target="_top" xlink:title="Vector in 3D space.">
<polygon fill="white" stroke="black" points="1319.5,-684.5 1319.5,-703.5 1472.5,-703.5 1472.5,-684.5 1319.5,-684.5"/>
<text text-anchor="middle" x="1396" y="-691.5" font-family="Helvetica,sans-Serif" font-size="10.00">amr_wind::vs::VectorT&lt; T &gt;</text>
</a>
</g>
</g>
<!-- Node4&#45;&gt;Node3 -->
<g id="edge3" class="edge">
<title>Node4&#45;&gt;Node3</title>
<path fill="none" stroke="#9a32cd" stroke-dasharray="5,2" d="M1482.86,-691.54C1535.05,-690.04 1600.53,-688.17 1647.94,-686.81"/>
<polygon fill="#9a32cd" stroke="#9a32cd" points="1482.51,-688.05 1472.61,-691.83 1482.71,-695.04 1482.51,-688.05"/>
<text text-anchor="middle" x="1563" y="-694" font-family="Helvetica,sans-Serif" font-size="10.00"> elements</text>
</g>
<!-- Node5 -->
<g id="node5" class="node">
<title>Node5</title>
<g id="a_node5"><a xlink:title=" ">
<polygon fill="white" stroke="#bfbfbf" points="1347.5,-628.5 1347.5,-647.5 1444.5,-647.5 1444.5,-628.5 1347.5,-628.5"/>
<text text-anchor="middle" x="1396" y="-635.5" font-family="Helvetica,sans-Serif" font-size="10.00">std::vector&lt; T &gt;</text>
</a>
</g>
</g>
<!-- Node5&#45;&gt;Node3 -->
<g id="edge4" class="edge">
<title>Node5&#45;&gt;Node3</title>
<path fill="none" stroke="orange" stroke-dasharray="5,2" d="M1454.81,-646.2C1501.97,-652.95 1570.33,-662.86 1630,-672 1635.77,-672.88 1641.77,-673.82 1647.78,-674.76"/>
<polygon fill="orange" stroke="orange" points="1455.17,-642.72 1444.78,-644.77 1454.18,-649.65 1455.17,-642.72"/>
<text text-anchor="middle" x="1563" y="-675" font-family="Helvetica,sans-Serif" font-size="10.00"> &lt; amr_wind::vs::VectorT &gt;</text>
</g>
<!-- Node30 -->
<g id="node30" class="node">
<title>Node30</title>
<g id="a_node30"><a xlink:title=" ">
<polygon fill="white" stroke="#bfbfbf" points="1650,-616.5 1650,-635.5 1774,-635.5 1774,-616.5 1650,-616.5"/>
<text text-anchor="middle" x="1712" y="-623.5" font-family="Helvetica,sans-Serif" font-size="10.00">std::vector&lt; double &gt;</text>
</a>
</g>
</g>
<!-- Node5&#45;&gt;Node30 -->
<g id="edge45" class="edge">
<title>Node5&#45;&gt;Node30</title>
<path fill="none" stroke="orange" stroke-dasharray="5,2" d="M1454.87,-630.53C1468.34,-629.08 1482.66,-627.77 1496,-627 1547.8,-624.01 1606.73,-623.97 1649.78,-624.56"/>
<polygon fill="orange" stroke="orange" points="1454.3,-627.07 1444.75,-631.66 1455.08,-634.03 1454.3,-627.07"/>
<text text-anchor="middle" x="1563" y="-630" font-family="Helvetica,sans-Serif" font-size="10.00"> &lt; double &gt;</text>
</g>
<!-- Node6 -->
<g id="node6" class="node">
<title>Node6</title>
<g id="a_node6"><a xlink:title=" ">
<polygon fill="white" stroke="#bfbfbf" points="37.5,-585.5 37.5,-604.5 66.5,-604.5 66.5,-585.5 37.5,-585.5"/>
<text text-anchor="middle" x="52" y="-592.5" font-family="Helvetica,sans-Serif" font-size="10.00">T</text>
</a>
</g>
</g>
<!-- Node6&#45;&gt;Node5 -->
<g id="edge5" class="edge">
<title>Node6&#45;&gt;Node5</title>
<path fill="none" stroke="#9a32cd" stroke-dasharray="5,2" d="M76.25,-603.7C111.99,-616.26 182.82,-638 245,-638 245,-638 245,-638 1033.5,-638 1146,-638 1278.19,-638 1347.34,-638"/>
<polygon fill="#9a32cd" stroke="#9a32cd" points="77.33,-600.36 66.74,-600.27 74.96,-606.95 77.33,-600.36"/>
<text text-anchor="middle" x="624.5" y="-641" font-family="Helvetica,sans-Serif" font-size="10.00"> elements</text>
</g>
<!-- Node9 -->
<g id="node9" class="node">
<title>Node9</title>
<g id="a_node9"><a xlink:title=" ">
<polygon fill="white" stroke="#bfbfbf" points="973.5,-301.5 973.5,-320.5 1091.5,-320.5 1091.5,-301.5 973.5,-301.5"/>
<text text-anchor="middle" x="1032.5" y="-308.5" font-family="Helvetica,sans-Serif" font-size="10.00">std::unique_ptr&lt; T &gt;</text>
</a>
</g>
</g>
<!-- Node6&#45;&gt;Node9 -->
<g id="edge9" class="edge">
<title>Node6&#45;&gt;Node9</title>
<path fill="none" stroke="#9a32cd" stroke-dasharray="5,2" d="M76.92,-597.03C160.18,-603.26 443.97,-617.57 661,-545 819.37,-492.05 978.54,-357.87 1020.71,-320.68"/>
<polygon fill="#9a32cd" stroke="#9a32cd" points="76.98,-593.52 66.74,-596.23 76.44,-600.5 76.98,-593.52"/>
<text text-anchor="middle" x="509" y="-592" font-family="Helvetica,sans-Serif" font-size="10.00"> ptr</text>
</g>
<!-- Node18 -->
<g id="node18" class="node">
<title>Node18</title>
<g id="a_node18"><a xlink:title=" ">
<polygon fill="white" stroke="#bfbfbf" points="189,-499 189,-529 303,-529 303,-499 189,-499"/>
<text text-anchor="start" x="197" y="-517" font-family="Helvetica,sans-Serif" font-size="10.00">std::unordered_map</text>
<text text-anchor="middle" x="246" y="-506" font-family="Helvetica,sans-Serif" font-size="10.00">&lt; K, T &gt;</text>
</a>
</g>
</g>
<!-- Node6&#45;&gt;Node18 -->
<g id="edge22" class="edge">
<title>Node6&#45;&gt;Node18</title>
<path fill="none" stroke="#9a32cd" stroke-dasharray="5,2" d="M75.79,-585.39C108.84,-571.44 170.39,-545.48 209.44,-529"/>
<polygon fill="#9a32cd" stroke="#9a32cd" points="74.35,-582.19 66.5,-589.3 77.08,-588.64 74.35,-582.19"/>
<text text-anchor="middle" x="146.5" y="-567" font-family="Helvetica,sans-Serif" font-size="10.00"> elements</text>
</g>
<!-- Node7 -->
<g id="node7" class="node">
<title>Node7</title>
<g id="a_node7"><a xlink:href="classamr__wind_1_1_c_f_d_sim.html" target="_top" xlink:title="Data structures for a CFD simulation.">
<polygon fill="white" stroke="black" points="1657,-301.5 1657,-320.5 1767,-320.5 1767,-301.5 1657,-301.5"/>
<text text-anchor="middle" x="1712" y="-308.5" font-family="Helvetica,sans-Serif" font-size="10.00">amr_wind::CFDSim</text>
</a>
</g>
</g>
<!-- Node7&#45;&gt;Node1 -->
<g id="edge6" class="edge">
<title>Node7&#45;&gt;Node1</title>
<path fill="none" stroke="#9a32cd" stroke-dasharray="5,2" d="M1728.34,-328.45C1776.82,-383.6 1926.25,-553.6 1972.03,-605.68"/>
<polygon fill="#9a32cd" stroke="#9a32cd" points="1730.69,-325.82 1721.45,-320.62 1725.43,-330.44 1730.69,-325.82"/>
<text text-anchor="middle" x="1848" y="-523" font-family="Helvetica,sans-Serif" font-size="10.00"> m_sim</text>
</g>
<!-- Node12 -->
<g id="node12" class="node">
<title>Node12</title>
<g id="a_node12"><a xlink:href="classamr__wind_1_1pde_1_1_p_d_e_mgr.html" target="_top" xlink:title="PDE systems manager.">
<polygon fill="white" stroke="black" points="1920,-74.5 1920,-93.5 2053,-93.5 2053,-74.5 1920,-74.5"/>
<text text-anchor="middle" x="1986.5" y="-81.5" font-family="Helvetica,sans-Serif" font-size="10.00">amr_wind::pde::PDEMgr</text>
</a>
</g>
</g>
<!-- Node7&#45;&gt;Node12 -->
<g id="edge23" class="edge">
<title>Node7&#45;&gt;Node12</title>
<path fill="none" stroke="#9a32cd" stroke-dasharray="5,2" d="M1777.27,-303.88C1817.06,-296.58 1867.04,-281.81 1902,-252 1954.29,-207.41 1977.11,-122.2 1983.51,-93.61"/>
<polygon fill="#9a32cd" stroke="#9a32cd" points="1776.65,-300.44 1767.39,-305.58 1777.84,-307.34 1776.65,-300.44"/>
<text text-anchor="middle" x="1848" y="-302" font-family="Helvetica,sans-Serif" font-size="10.00"> m_sim</text>
</g>
<!-- Node8 -->
<g id="node8" class="node">
<title>Node8</title>
<g id="a_node8"><a xlink:title=" ">
<polygon fill="white" stroke="#bfbfbf" points="1329.5,-143 1329.5,-173 1462.5,-173 1462.5,-143 1329.5,-143"/>
<text text-anchor="start" x="1337.5" y="-161" font-family="Helvetica,sans-Serif" font-size="10.00">std::unique_ptr&lt; amr</text>
<text text-anchor="middle" x="1396" y="-150" font-family="Helvetica,sans-Serif" font-size="10.00">_wind::helics_storage &gt;</text>
</a>
</g>
</g>
<!-- Node8&#45;&gt;Node7 -->
<g id="edge7" class="edge">
<title>Node8&#45;&gt;Node7</title>
<path fill="none" stroke="#9a32cd" stroke-dasharray="5,2" d="M1472.65,-159.81C1520.85,-164.07 1582.88,-175.54 1630,-205 1669.08,-229.43 1696.35,-279.93 1706.55,-301.21"/>
<polygon fill="#9a32cd" stroke="#9a32cd" points="1472.83,-156.32 1462.58,-159.01 1472.27,-163.3 1472.83,-156.32"/>
<text text-anchor="middle" x="1563" y="-208" font-family="Helvetica,sans-Serif" font-size="10.00"> m_helics</text>
</g>
<!-- Node9&#45;&gt;Node8 -->
<g id="edge8" class="edge">
<title>Node9&#45;&gt;Node8</title>
<path fill="none" stroke="orange" stroke-dasharray="5,2" d="M1039.99,-291.91C1050.71,-263.63 1074.99,-211.33 1115,-187 1179.94,-147.52 1269.29,-145.3 1329.45,-149.65"/>
<polygon fill="orange" stroke="orange" points="1036.64,-290.87 1036.54,-301.46 1043.23,-293.24 1036.64,-290.87"/>
<text text-anchor="start" x="1157" y="-201" font-family="Helvetica,sans-Serif" font-size="10.00"> &lt; amr_wind::helics</text>
<text text-anchor="middle" x="1205.5" y="-190" font-family="Helvetica,sans-Serif" font-size="10.00">_storage &gt;</text>
</g>
<!-- Node10 -->
<g id="node10" class="node">
<title>Node10</title>
<g id="a_node10"><a xlink:title=" ">
<polygon fill="white" stroke="#bfbfbf" points="1336,-487 1336,-517 1456,-517 1456,-487 1336,-487"/>
<text text-anchor="start" x="1344" y="-505" font-family="Helvetica,sans-Serif" font-size="10.00">std::unique_ptr&lt; amr</text>
<text text-anchor="middle" x="1396" y="-494" font-family="Helvetica,sans-Serif" font-size="10.00">_wind::IOManager &gt;</text>
</a>
</g>
</g>
<!-- Node9&#45;&gt;Node10 -->
<g id="edge11" class="edge">
<title>Node9&#45;&gt;Node10</title>
<path fill="none" stroke="orange" stroke-dasharray="5,2" d="M1038.06,-330.5C1046.83,-363.32 1069.36,-429.15 1115,-461 1180.27,-506.54 1275.06,-510.87 1335.87,-507.9"/>
<polygon fill="orange" stroke="orange" points="1041.43,-329.57 1035.6,-320.73 1034.64,-331.28 1041.43,-329.57"/>
<text text-anchor="middle" x="1205.5" y="-511" font-family="Helvetica,sans-Serif" font-size="10.00"> &lt; amr_wind::IOManager &gt;</text>
</g>
<!-- Node11 -->
<g id="node11" class="node">
<title>Node11</title>
<g id="a_node11"><a xlink:title=" ">
<polygon fill="white" stroke="#bfbfbf" points="1314,-438 1314,-468 1478,-468 1478,-438 1314,-438"/>
<text text-anchor="start" x="1322" y="-456" font-family="Helvetica,sans-Serif" font-size="10.00">std::unique_ptr&lt; amr</text>
<text text-anchor="middle" x="1396" y="-445" font-family="Helvetica,sans-Serif" font-size="10.00">_wind::PostProcessManager &gt;</text>
</a>
</g>
</g>
<!-- Node9&#45;&gt;Node11 -->
<g id="edge13" class="edge">
<title>Node9&#45;&gt;Node11</title>
<path fill="none" stroke="orange" stroke-dasharray="5,2" d="M1045.68,-329.15C1059.91,-348.84 1085.32,-379.65 1115,-396 1176.48,-429.88 1255.54,-443.72 1313.96,-449.32"/>
<polygon fill="orange" stroke="orange" points="1048.39,-326.91 1039.79,-320.73 1042.66,-330.93 1048.39,-326.91"/>
<text text-anchor="middle" x="1205.5" y="-449" font-family="Helvetica,sans-Serif" font-size="10.00"> &lt; amr_wind::PostProcessManager &gt;</text>
</g>
<!-- Node20 -->
<g id="node20" class="node">
<title>Node20</title>
<g id="a_node20"><a xlink:title=" ">
<polygon fill="white" stroke="#bfbfbf" points="1498,-63 1498,-93 1628,-93 1628,-63 1498,-63"/>
<text text-anchor="start" x="1506" y="-81" font-family="Helvetica,sans-Serif" font-size="10.00">std::unique_ptr&lt; amr</text>
<text text-anchor="middle" x="1563" y="-70" font-family="Helvetica,sans-Serif" font-size="10.00">_wind::pde::PDEBase &gt;</text>
</a>
</g>
</g>
<!-- Node9&#45;&gt;Node20 -->
<g id="edge26" class="edge">
<title>Node9&#45;&gt;Node20</title>
<path fill="none" stroke="orange" stroke-dasharray="5,2" d="M1036.55,-291.47C1043.41,-254.49 1063.67,-174.37 1115,-134 1226.12,-46.61 1403.16,-54.71 1497.64,-67.02"/>
<polygon fill="orange" stroke="orange" points="1033.08,-291.02 1034.83,-301.47 1039.98,-292.2 1033.08,-291.02"/>
<text text-anchor="middle" x="1205.5" y="-137" font-family="Helvetica,sans-Serif" font-size="10.00"> &lt; amr_wind::pde::PDEBase &gt;</text>
</g>
<!-- Node22 -->
<g id="node22" class="node">
<title>Node22</title>
<g id="a_node22"><a xlink:title=" ">
<polygon fill="white" stroke="#bfbfbf" points="1324.5,-389 1324.5,-419 1467.5,-419 1467.5,-389 1324.5,-389"/>
<text text-anchor="start" x="1332.5" y="-407" font-family="Helvetica,sans-Serif" font-size="10.00">std::unique_ptr&lt; amr</text>
<text text-anchor="middle" x="1396" y="-396" font-family="Helvetica,sans-Serif" font-size="10.00">_wind::OversetManager &gt;</text>
</a>
</g>
</g>
<!-- Node9&#45;&gt;Node22 -->
<g id="edge29" class="edge">
<title>Node9&#45;&gt;Node22</title>
<path fill="none" stroke="orange" stroke-dasharray="5,2" d="M1071.23,-323.68C1084.95,-328.12 1100.61,-332.99 1115,-337 1186.38,-356.9 1268.99,-376.22 1325.88,-388.96"/>
<polygon fill="orange" stroke="orange" points="1072.23,-320.32 1061.63,-320.54 1070.05,-326.97 1072.23,-320.32"/>
<text text-anchor="middle" x="1205.5" y="-384" font-family="Helvetica,sans-Serif" font-size="10.00"> &lt; amr_wind::OversetManager &gt;</text>
</g>
<!-- Node23 -->
<g id="node23" class="node">
<title>Node23</title>
<g id="a_node23"><a xlink:title=" ">
<polygon fill="white" stroke="#bfbfbf" points="1315.5,-290.5 1315.5,-331.5 1476.5,-331.5 1476.5,-290.5 1315.5,-290.5"/>
<text text-anchor="start" x="1323.5" y="-319.5" font-family="Helvetica,sans-Serif" font-size="10.00">std::unique_ptr&lt; amr</text>
<text text-anchor="start" x="1323.5" y="-308.5" font-family="Helvetica,sans-Serif" font-size="10.00">_wind::turbulence::Turbulence</text>
<text text-anchor="middle" x="1396" y="-297.5" font-family="Helvetica,sans-Serif" font-size="10.00">Model &gt;</text>
</a>
</g>
</g>
<!-- Node9&#45;&gt;Node23 -->
<g id="edge31" class="edge">
<title>Node9&#45;&gt;Node23</title>
<path fill="none" stroke="orange" stroke-dasharray="5,2" d="M1101.84,-311C1162.63,-311 1251.55,-311 1315.5,-311"/>
<polygon fill="orange" stroke="orange" points="1101.58,-307.5 1091.58,-311 1101.58,-314.5 1101.58,-307.5"/>
<text text-anchor="start" x="1145" y="-325" font-family="Helvetica,sans-Serif" font-size="10.00"> &lt; amr_wind::turbulence</text>
<text text-anchor="middle" x="1205.5" y="-314" font-family="Helvetica,sans-Serif" font-size="10.00">::TurbulenceModel &gt;</text>
</g>
<!-- Node26 -->
<g id="node26" class="node">
<title>Node26</title>
<g id="a_node26"><a xlink:title=" ">
<polygon fill="white" stroke="#bfbfbf" points="1336,-241 1336,-271 1456,-271 1456,-241 1336,-241"/>
<text text-anchor="start" x="1344" y="-259" font-family="Helvetica,sans-Serif" font-size="10.00">std::unique_ptr&lt; amr</text>
<text text-anchor="middle" x="1396" y="-248" font-family="Helvetica,sans-Serif" font-size="10.00">_wind::MeshMap &gt;</text>
</a>
</g>
</g>
<!-- Node9&#45;&gt;Node26 -->
<g id="edge37" class="edge">
<title>Node9&#45;&gt;Node26</title>
<path fill="none" stroke="orange" stroke-dasharray="5,2" d="M1093.32,-299.71C1100.61,-298.41 1107.97,-297.15 1115,-296 1191.09,-283.57 1279.16,-271.34 1335.9,-263.74"/>
<polygon fill="orange" stroke="orange" points="1092.67,-296.27 1083.44,-301.48 1093.9,-303.16 1092.67,-296.27"/>
<text text-anchor="middle" x="1205.5" y="-299" font-family="Helvetica,sans-Serif" font-size="10.00"> &lt; amr_wind::MeshMap &gt;</text>
</g>
<!-- Node27 -->
<g id="node27" class="node">
<title>Node27</title>
<g id="a_node27"><a xlink:title=" ">
<polygon fill="white" stroke="#bfbfbf" points="1332,-192 1332,-222 1460,-222 1460,-192 1332,-192"/>
<text text-anchor="start" x="1340" y="-210" font-family="Helvetica,sans-Serif" font-size="10.00">std::unique_ptr&lt; amr</text>
<text text-anchor="middle" x="1396" y="-199" font-family="Helvetica,sans-Serif" font-size="10.00">_wind::ExtSolverMgr &gt;</text>
</a>
</g>
</g>
<!-- Node9&#45;&gt;Node27 -->
<g id="edge39" class="edge">
<title>Node9&#45;&gt;Node27</title>
<path fill="none" stroke="orange" stroke-dasharray="5,2" d="M1051.99,-294.42C1067.65,-281.33 1091.27,-263.71 1115,-254 1185.83,-225.03 1273.73,-213.91 1331.94,-209.65"/>
<polygon fill="orange" stroke="orange" points="1049.47,-291.98 1044.16,-301.15 1054.03,-297.29 1049.47,-291.98"/>
<text text-anchor="middle" x="1205.5" y="-257" font-family="Helvetica,sans-Serif" font-size="10.00"> &lt; amr_wind::ExtSolverMgr &gt;</text>
</g>
<!-- Node10&#45;&gt;Node7 -->
<g id="edge10" class="edge">
<title>Node10&#45;&gt;Node7</title>
<path fill="none" stroke="#9a32cd" stroke-dasharray="5,2" d="M1466.12,-505.92C1516.01,-505.31 1582.65,-497.05 1630,-463 1680.74,-426.51 1702.62,-348.29 1708.94,-320.8"/>
<polygon fill="#9a32cd" stroke="#9a32cd" points="1466.05,-502.42 1456.06,-505.94 1466.07,-509.42 1466.05,-502.42"/>
<text text-anchor="middle" x="1563" y="-507" font-family="Helvetica,sans-Serif" font-size="10.00"> m_io_mgr</text>
</g>
<!-- Node11&#45;&gt;Node7 -->
<g id="edge12" class="edge">
<title>Node11&#45;&gt;Node7</title>
<path fill="none" stroke="#9a32cd" stroke-dasharray="5,2" d="M1488.17,-449.68C1533.41,-444.61 1587.36,-433.15 1630,-408 1667.23,-386.04 1695.13,-340.44 1706.01,-320.58"/>
<polygon fill="#9a32cd" stroke="#9a32cd" points="1487.65,-446.22 1478.06,-450.73 1488.37,-453.18 1487.65,-446.22"/>
<text text-anchor="middle" x="1563" y="-451" font-family="Helvetica,sans-Serif" font-size="10.00"> m_post_mgr</text>
</g>
<!-- Node12&#45;&gt;Node7 -->
<g id="edge14" class="edge">
<title>Node12&#45;&gt;Node7</title>
<path fill="none" stroke="#9a32cd" stroke-dasharray="5,2" d="M1965.84,-100.37C1912.66,-144.68 1767.07,-265.96 1724.71,-301.25"/>
<polygon fill="#9a32cd" stroke="#9a32cd" points="1968.39,-102.81 1973.83,-93.72 1963.91,-97.43 1968.39,-102.81"/>
<text text-anchor="middle" x="1848" y="-240" font-family="Helvetica,sans-Serif" font-size="10.00"> m_pde_mgr</text>
</g>
<!-- Node13 -->
<g id="node13" class="node">
<title>Node13</title>
<g id="a_node13"><a xlink:href="classamr__wind_1_1_coll_mgr.html" target="_top" xlink:title=" ">
<polygon fill="white" stroke="black" points="1146,-23 1146,-53 1265,-53 1265,-23 1146,-23"/>
<text text-anchor="start" x="1154" y="-41" font-family="Helvetica,sans-Serif" font-size="10.00">amr_wind::CollMgr&lt;</text>
<text text-anchor="middle" x="1205.5" y="-30" font-family="Helvetica,sans-Serif" font-size="10.00"> PDEMgr, PDEBase &gt;</text>
</a>
</g>
</g>
<!-- Node13&#45;&gt;Node12 -->
<g id="edge15" class="edge">
<title>Node13&#45;&gt;Node12</title>
<path fill="none" stroke="midnightblue" d="M1275.28,-39.35C1359.11,-41.24 1505.05,-45.34 1630,-53 1731.26,-59.2 1848.43,-70.15 1919.73,-77.24"/>
<polygon fill="midnightblue" stroke="midnightblue" points="1275.19,-35.84 1265.12,-39.12 1275.04,-42.84 1275.19,-35.84"/>
</g>
<!-- Node14 -->
<g id="node14" class="node">
<title>Node14</title>
<g id="a_node14"><a xlink:href="classamr__wind_1_1_coll_mgr.html" target="_top" xlink:title="Interface to manage objects of sub&#45;classes based on factory registration.">
<polygon fill="white" stroke="black" points="679,-62.5 679,-103.5 808,-103.5 808,-62.5 679,-62.5"/>
<text text-anchor="start" x="687" y="-91.5" font-family="Helvetica,sans-Serif" font-size="10.00">amr_wind::CollMgr&lt;</text>
<text text-anchor="start" x="687" y="-80.5" font-family="Helvetica,sans-Serif" font-size="10.00"> Collection, Type, allow</text>
<text text-anchor="middle" x="743.5" y="-69.5" font-family="Helvetica,sans-Serif" font-size="10.00">_duplicates &gt;</text>
</a>
</g>
</g>
<!-- Node14&#45;&gt;Node13 -->
<g id="edge16" class="edge">
<title>Node14&#45;&gt;Node13</title>
<path fill="none" stroke="orange" stroke-dasharray="5,2" d="M817.94,-69.12C820.66,-68.72 823.35,-68.35 826,-68 938.74,-53.2 1071.4,-44.72 1145.95,-40.77"/>
<polygon fill="orange" stroke="orange" points="817.37,-65.67 808.02,-70.66 818.44,-72.59 817.37,-65.67"/>
<text text-anchor="middle" x="888" y="-71" font-family="Helvetica,sans-Serif" font-size="10.00"> &lt; PDEMgr, PDEBase &gt;</text>
</g>
<!-- Node29 -->
<g id="node29" class="node">
<title>Node29</title>
<g id="a_node29"><a xlink:href="classamr__wind_1_1_coll_mgr.html" target="_top" xlink:title=" ">
<polygon fill="white" stroke="black" points="968,-68 968,-98 1097,-98 1097,-68 968,-68"/>
<text text-anchor="start" x="976" y="-86" font-family="Helvetica,sans-Serif" font-size="10.00">amr_wind::CollMgr&lt;</text>
<text text-anchor="middle" x="1032.5" y="-75" font-family="Helvetica,sans-Serif" font-size="10.00"> PhysicsMgr, Physics &gt;</text>
</a>
</g>
</g>
<!-- Node14&#45;&gt;Node29 -->
<g id="edge42" class="edge">
<title>Node14&#45;&gt;Node29</title>
<path fill="none" stroke="orange" stroke-dasharray="5,2" d="M818.47,-83C864.77,-83 923.81,-83 967.98,-83"/>
<polygon fill="orange" stroke="orange" points="818.19,-79.5 808.19,-83 818.19,-86.5 818.19,-79.5"/>
<text text-anchor="middle" x="888" y="-86" font-family="Helvetica,sans-Serif" font-size="10.00"> &lt; PhysicsMgr, Physics &gt;</text>
</g>
<!-- Node15 -->
<g id="node15" class="node">
<title>Node15</title>
<g id="a_node15"><a xlink:title=" ">
<polygon fill="white" stroke="#bfbfbf" points="452,-397 452,-427 566,-427 566,-397 452,-397"/>
<text text-anchor="start" x="460" y="-415" font-family="Helvetica,sans-Serif" font-size="10.00">std::unordered_map</text>
<text text-anchor="middle" x="509" y="-404" font-family="Helvetica,sans-Serif" font-size="10.00">&lt; std::string, int &gt;</text>
</a>
</g>
</g>
<!-- Node15&#45;&gt;Node14 -->
<g id="edge17" class="edge">
<title>Node15&#45;&gt;Node14</title>
<path fill="none" stroke="#9a32cd" stroke-dasharray="5,2" d="M526.79,-388.24C570.42,-326.51 686.78,-161.84 727.88,-103.69"/>
<polygon fill="#9a32cd" stroke="#9a32cd" points="523.82,-386.39 520.9,-396.57 529.53,-390.43 523.82,-386.39"/>
<text text-anchor="middle" x="624.5" y="-299" font-family="Helvetica,sans-Serif" font-size="10.00"> m_obj_map</text>
</g>
<!-- Node16 -->
<g id="node16" class="node">
<title>Node16</title>
<g id="a_node16"><a xlink:title=" ">
<polygon fill="white" stroke="#bfbfbf" points="213.5,-431.5 213.5,-450.5 278.5,-450.5 278.5,-431.5 213.5,-431.5"/>
<text text-anchor="middle" x="246" y="-438.5" font-family="Helvetica,sans-Serif" font-size="10.00">std::string</text>
</a>
</g>
</g>
<!-- Node16&#45;&gt;Node1 -->
<g id="edge43" class="edge">
<title>Node16&#45;&gt;Node1</title>
<path fill="none" stroke="#9a32cd" stroke-dasharray="5,2" d="M268.85,-456.81C280.04,-465.68 293.31,-477.45 303,-490 313.94,-504.16 306.25,-515.89 321,-526 353.68,-548.4 991.88,-588 1031.5,-588 1031.5,-588 1031.5,-588 1713,-588 1787.82,-588 1873.36,-600.41 1928.33,-610.01"/>
<polygon fill="#9a32cd" stroke="#9a32cd" points="270.86,-453.94 260.79,-450.64 266.6,-459.5 270.86,-453.94"/>
<text text-anchor="middle" x="1032.5" y="-602" font-family="Helvetica,sans-Serif" font-size="10.00"> m_label</text>
<text text-anchor="middle" x="1032.5" y="-591" font-family="Helvetica,sans-Serif" font-size="10.00">m_radar_quad_type</text>
</g>
<!-- Node16&#45;&gt;Node12 -->
<g id="edge24" class="edge">
<title>Node16&#45;&gt;Node12</title>
<path fill="none" stroke="#9a32cd" stroke-dasharray="5,2" d="M248.97,-421.18C258.69,-335.35 309.39,0 508,0 508,0 508,0 1713,0 1813,0 1924.85,-52.3 1967.59,-74.36"/>
<polygon fill="#9a32cd" stroke="#9a32cd" points="245.46,-421.06 247.88,-431.38 252.42,-421.81 245.46,-421.06"/>
<text text-anchor="middle" x="1032.5" y="-3" font-family="Helvetica,sans-Serif" font-size="10.00"> m_scheme</text>
</g>
<!-- Node16&#45;&gt;Node15 -->
<g id="edge18" class="edge">
<title>Node16&#45;&gt;Node15</title>
<path fill="none" stroke="#9a32cd" stroke-dasharray="5,2" d="M275.74,-427.39C289.17,-421.75 305.57,-415.86 321,-413 364.41,-404.94 414.47,-405.16 451.87,-407.14"/>
<polygon fill="#9a32cd" stroke="#9a32cd" points="274.31,-424.2 266.54,-431.41 277.11,-430.61 274.31,-424.2"/>
<text text-anchor="middle" x="375.5" y="-416" font-family="Helvetica,sans-Serif" font-size="10.00"> keys</text>
</g>
<!-- Node25 -->
<g id="node25" class="node">
<title>Node25</title>
<g id="a_node25"><a xlink:title=" ">
<polygon fill="white" stroke="#bfbfbf" points="448,-490 448,-520 570,-520 570,-490 448,-490"/>
<text text-anchor="start" x="456" y="-508" font-family="Helvetica,sans-Serif" font-size="10.00">std::unordered_map</text>
<text text-anchor="middle" x="509" y="-497" font-family="Helvetica,sans-Serif" font-size="10.00">&lt; std::string, size_t &gt;</text>
</a>
</g>
</g>
<!-- Node16&#45;&gt;Node25 -->
<g id="edge34" class="edge">
<title>Node16&#45;&gt;Node25</title>
<path fill="none" stroke="#9a32cd" stroke-dasharray="5,2" d="M288.58,-451.19C331.52,-461.72 398.96,-478.26 447.74,-490.22"/>
<polygon fill="#9a32cd" stroke="#9a32cd" points="289.29,-447.77 278.74,-448.78 287.62,-454.56 289.29,-447.77"/>
<text text-anchor="middle" x="375.5" y="-487" font-family="Helvetica,sans-Serif" font-size="10.00"> keys</text>
</g>
<!-- Node17 -->
<g id="node17" class="node">
<title>Node17</title>
<g id="a_node17"><a xlink:title=" ">
<polygon fill="white" stroke="#bfbfbf" points="0,-426 0,-456 104,-456 104,-426 0,-426"/>
<text text-anchor="start" x="8" y="-444" font-family="Helvetica,sans-Serif" font-size="10.00">std::basic_string&lt;</text>
<text text-anchor="middle" x="52" y="-433" font-family="Helvetica,sans-Serif" font-size="10.00"> Char &gt;</text>
</a>
</g>
</g>
<!-- Node17&#45;&gt;Node16 -->
<g id="edge19" class="edge">
<title>Node17&#45;&gt;Node16</title>
<path fill="none" stroke="midnightblue" d="M114.23,-441C147.25,-441 186.63,-441 213.48,-441"/>
<polygon fill="midnightblue" stroke="midnightblue" points="114.2,-437.5 104.2,-441 114.2,-444.5 114.2,-437.5"/>
</g>
<!-- Node18&#45;&gt;Node15 -->
<g id="edge20" class="edge">
<title>Node18&#45;&gt;Node15</title>
<path fill="none" stroke="orange" stroke-dasharray="5,2" d="M270.28,-491.7C290.8,-472.13 317.92,-446.54 321,-445 326.92,-442.05 398.92,-429.83 451.82,-421.12"/>
<polygon fill="orange" stroke="orange" points="267.61,-489.4 262.8,-498.84 272.45,-494.46 267.61,-489.4"/>
<text text-anchor="middle" x="375.5" y="-448" font-family="Helvetica,sans-Serif" font-size="10.00"> &lt; std::string, int &gt;</text>
</g>
<!-- Node18&#45;&gt;Node25 -->
<g id="edge35" class="edge">
<title>Node18&#45;&gt;Node25</title>
<path fill="none" stroke="orange" stroke-dasharray="5,2" d="M313.56,-511.7C354.89,-510.28 407.59,-508.46 447.7,-507.08"/>
<polygon fill="orange" stroke="orange" points="313.19,-508.22 303.31,-512.06 313.43,-515.21 313.19,-508.22"/>
<text text-anchor="middle" x="375.5" y="-514" font-family="Helvetica,sans-Serif" font-size="10.00"> &lt; std::string, size_t &gt;</text>
</g>
<!-- Node19 -->
<g id="node19" class="node">
<title>Node19</title>
<g id="a_node19"><a xlink:title=" ">
<polygon fill="white" stroke="#bfbfbf" points="37.5,-504.5 37.5,-523.5 66.5,-523.5 66.5,-504.5 37.5,-504.5"/>
<text text-anchor="middle" x="52" y="-511.5" font-family="Helvetica,sans-Serif" font-size="10.00">K</text>
</a>
</g>
</g>
<!-- Node19&#45;&gt;Node18 -->
<g id="edge21" class="edge">
<title>Node19&#45;&gt;Node18</title>
<path fill="none" stroke="#9a32cd" stroke-dasharray="5,2" d="M76.82,-514C104.61,-514 151.48,-514 188.69,-514"/>
<polygon fill="#9a32cd" stroke="#9a32cd" points="76.5,-510.5 66.5,-514 76.5,-517.5 76.5,-510.5"/>
<text text-anchor="middle" x="146.5" y="-517" font-family="Helvetica,sans-Serif" font-size="10.00"> keys</text>
</g>
<!-- Node20&#45;&gt;Node12 -->
<g id="edge25" class="edge">
<title>Node20&#45;&gt;Node12</title>
<path fill="none" stroke="#9a32cd" stroke-dasharray="5,2" d="M1638.48,-79.06C1718.25,-80.2 1843.63,-81.98 1919.84,-83.07"/>
<polygon fill="#9a32cd" stroke="#9a32cd" points="1638.07,-75.55 1628.02,-78.91 1637.97,-82.55 1638.07,-75.55"/>
<text text-anchor="middle" x="1712" y="-84" font-family="Helvetica,sans-Serif" font-size="10.00"> m_icns</text>
</g>
<!-- Node21 -->
<g id="node21" class="node">
<title>Node21</title>
<g id="a_node21"><a xlink:href="classamr__wind_1_1_sim_time.html" target="_top" xlink:title="Time manager for simulations.">
<polygon fill="white" stroke="black" points="1339,-350.5 1339,-369.5 1453,-369.5 1453,-350.5 1339,-350.5"/>
<text text-anchor="middle" x="1396" y="-357.5" font-family="Helvetica,sans-Serif" font-size="10.00">amr_wind::SimTime</text>
</a>
</g>
</g>
<!-- Node21&#45;&gt;Node7 -->
<g id="edge27" class="edge">
<title>Node21&#45;&gt;Node7</title>
<path fill="none" stroke="#9a32cd" stroke-dasharray="5,2" d="M1463.11,-351.04C1509.81,-344.54 1573.83,-335.3 1630,-326 1640.16,-324.32 1651.01,-322.4 1661.36,-320.5"/>
<polygon fill="#9a32cd" stroke="#9a32cd" points="1462.54,-347.58 1453.12,-352.42 1463.5,-354.52 1462.54,-347.58"/>
<text text-anchor="middle" x="1563" y="-349" font-family="Helvetica,sans-Serif" font-size="10.00"> m_time</text>
</g>
<!-- Node22&#45;&gt;Node7 -->
<g id="edge28" class="edge">
<title>Node22&#45;&gt;Node7</title>
<path fill="none" stroke="#9a32cd" stroke-dasharray="5,2" d="M1477.84,-396.54C1523.62,-390.5 1581.29,-379.77 1630,-361 1656.37,-350.84 1683.65,-331.94 1698.86,-320.52"/>
<polygon fill="#9a32cd" stroke="#9a32cd" points="1477.14,-393.1 1467.66,-397.83 1478.02,-400.05 1477.14,-393.1"/>
<text text-anchor="middle" x="1563" y="-396" font-family="Helvetica,sans-Serif" font-size="10.00"> m_overset_mgr</text>
</g>
<!-- Node23&#45;&gt;Node7 -->
<g id="edge30" class="edge">
<title>Node23&#45;&gt;Node7</title>
<path fill="none" stroke="#9a32cd" stroke-dasharray="5,2" d="M1486.72,-311C1541.56,-311 1609.91,-311 1656.65,-311"/>
<polygon fill="#9a32cd" stroke="#9a32cd" points="1486.64,-307.5 1476.64,-311 1486.64,-314.5 1486.64,-307.5"/>
<text text-anchor="middle" x="1563" y="-314" font-family="Helvetica,sans-Serif" font-size="10.00"> m_turbulence</text>
</g>
<!-- Node24 -->
<g id="node24" class="node">
<title>Node24</title>
<g id="a_node24"><a xlink:href="classamr__wind_1_1_field_repo.html" target="_top" xlink:title="Field Repository.">
<polygon fill="white" stroke="black" points="828.5,-553.5 828.5,-572.5 947.5,-572.5 947.5,-553.5 828.5,-553.5"/>
<text text-anchor="middle" x="888" y="-560.5" font-family="Helvetica,sans-Serif" font-size="10.00">amr_wind::FieldRepo</text>
</a>
</g>
</g>
<!-- Node24&#45;&gt;Node7 -->
<g id="edge32" class="edge">
<title>Node24&#45;&gt;Node7</title>
<path fill="none" stroke="#9a32cd" stroke-dasharray="5,2" d="M957.8,-563.09C1131.26,-562.73 1576.47,-557.98 1630,-519 1697.98,-469.5 1708.91,-354.47 1710.67,-320.56"/>
<polygon fill="#9a32cd" stroke="#9a32cd" points="957.76,-559.59 947.77,-563.11 957.77,-566.59 957.76,-559.59"/>
<text text-anchor="middle" x="1205.5" y="-564" font-family="Helvetica,sans-Serif" font-size="10.00"> m_repo</text>
</g>
<!-- Node25&#45;&gt;Node24 -->
<g id="edge33" class="edge">
<title>Node25&#45;&gt;Node24</title>
<path fill="none" stroke="#9a32cd" stroke-dasharray="5,2" d="M580.02,-510.03C605.57,-512.25 634.66,-515.22 661,-519 725.5,-528.24 799.48,-543.55 844.73,-553.46"/>
<polygon fill="#9a32cd" stroke="#9a32cd" points="580.31,-506.54 570.05,-509.18 579.72,-513.51 580.31,-506.54"/>
<text text-anchor="middle" x="624.5" y="-533" font-family="Helvetica,sans-Serif" font-size="10.00"> m_fid_map</text>
<text text-anchor="middle" x="624.5" y="-522" font-family="Helvetica,sans-Serif" font-size="10.00">m_int_fid_map</text>
</g>
<!-- Node26&#45;&gt;Node7 -->
<g id="edge36" class="edge">
<title>Node26&#45;&gt;Node7</title>
<path fill="none" stroke="#9a32cd" stroke-dasharray="5,2" d="M1466.35,-267.66C1512.71,-275.52 1575.04,-286.19 1630,-296 1639.71,-297.73 1650.08,-299.62 1660.03,-301.46"/>
<polygon fill="#9a32cd" stroke="#9a32cd" points="1466.86,-264.2 1456.41,-265.98 1465.69,-271.1 1466.86,-264.2"/>
<text text-anchor="middle" x="1563" y="-299" font-family="Helvetica,sans-Serif" font-size="10.00"> m_mesh_map</text>
</g>
<!-- Node27&#45;&gt;Node7 -->
<g id="edge38" class="edge">
<title>Node27&#45;&gt;Node7</title>
<path fill="none" stroke="#9a32cd" stroke-dasharray="5,2" d="M1470.36,-215.52C1517.34,-222.71 1578.87,-235.4 1630,-257 1657.09,-268.44 1684.77,-289.28 1699.73,-301.45"/>
<polygon fill="#9a32cd" stroke="#9a32cd" points="1470.66,-212.03 1460.26,-214.02 1469.64,-218.95 1470.66,-212.03"/>
<text text-anchor="middle" x="1563" y="-260" font-family="Helvetica,sans-Serif" font-size="10.00"> m_ext_solver_mgr</text>
</g>
<!-- Node28 -->
<g id="node28" class="node">
<title>Node28</title>
<g id="a_node28"><a xlink:href="classamr__wind_1_1_physics_mgr.html" target="_top" xlink:title="A collection of Physics models instances that are active during a simulation.">
<polygon fill="white" stroke="black" points="1333,-104.5 1333,-123.5 1459,-123.5 1459,-104.5 1333,-104.5"/>
<text text-anchor="middle" x="1396" y="-111.5" font-family="Helvetica,sans-Serif" font-size="10.00">amr_wind::PhysicsMgr</text>
</a>
</g>
</g>
<!-- Node28&#45;&gt;Node7 -->
<g id="edge40" class="edge">
<title>Node28&#45;&gt;Node7</title>
<path fill="none" stroke="#9a32cd" stroke-dasharray="5,2" d="M1469.27,-107.92C1518.89,-107.45 1583.86,-114.55 1630,-148 1683.98,-187.13 1704,-272.49 1709.38,-301.29"/>
<polygon fill="#9a32cd" stroke="#9a32cd" points="1469.17,-104.42 1459.24,-108.12 1469.31,-111.42 1469.17,-104.42"/>
<text text-anchor="middle" x="1563" y="-151" font-family="Helvetica,sans-Serif" font-size="10.00"> m_physics_mgr</text>
</g>
<!-- Node29&#45;&gt;Node28 -->
<g id="edge41" class="edge">
<title>Node29&#45;&gt;Node28</title>
<path fill="none" stroke="midnightblue" d="M1107.32,-77.07C1160.18,-74.26 1232.86,-73.35 1296,-83 1322.53,-87.06 1351.71,-96.89 1371.48,-104.41"/>
<polygon fill="midnightblue" stroke="midnightblue" points="1106.81,-73.59 1097.02,-77.65 1107.21,-80.58 1106.81,-73.59"/>
</g>
<!-- Node30&#45;&gt;Node1 -->
<g id="edge44" class="edge">
<title>Node30&#45;&gt;Node1</title>
<path fill="none" stroke="#9a32cd" stroke-dasharray="5,2" d="M1784.11,-622.31C1787.45,-622.19 1790.76,-622.09 1794,-622 1839.03,-620.77 1890.04,-620.56 1928.09,-620.64"/>
<polygon fill="#9a32cd" stroke="#9a32cd" points="1783.88,-618.82 1774.02,-622.7 1784.15,-625.81 1783.88,-618.82"/>
<text text-anchor="middle" x="1848" y="-669" font-family="Helvetica,sans-Serif" font-size="10.00"> m_los_velocity</text>
<text text-anchor="middle" x="1848" y="-658" font-family="Helvetica,sans-Serif" font-size="10.00">m_los_velocity_interp</text>
<text text-anchor="middle" x="1848" y="-647" font-family="Helvetica,sans-Serif" font-size="10.00">m_los_velocity_next</text>
<text text-anchor="middle" x="1848" y="-636" font-family="Helvetica,sans-Serif" font-size="10.00">m_los_velocity_prior</text>
<text text-anchor="middle" x="1848" y="-625" font-family="Helvetica,sans-Serif" font-size="10.00">m_weights</text>
</g>
</g>
</svg>
