<?xml version="1.0" encoding="UTF-8" standalone="no"?>
<!DOCTYPE svg PUBLIC "-//W3C//DTD SVG 1.1//EN"
 "http://www.w3.org/Graphics/SVG/1.1/DTD/svg11.dtd">
<!-- Generated by graphviz version 2.43.0 (0)
 -->
<!-- Title: amr_wind::FieldBCIface Pages: 1 -->
<svg width="502pt" height="84pt"
 viewBox="0.00 0.00 502.00 84.00" xmlns="http://www.w3.org/2000/svg" xmlns:xlink="http://www.w3.org/1999/xlink">
<g id="graph0" class="graph" transform="scale(1 1) rotate(0) translate(4 80)">
<title>amr_wind::FieldBCIface</title>
<polygon fill="white" stroke="transparent" points="-4,4 -4,-80 498,-80 498,4 -4,4"/>
<!-- Node1 -->
<g id="node1" class="node">
<title>Node1</title>
<g id="a_node1"><a xlink:title="Interface to setup up boundary conditions on a field.">
<polygon fill="#bfbfbf" stroke="black" points="184.5,-56.5 184.5,-75.5 315.5,-75.5 315.5,-56.5 184.5,-56.5"/>
<text text-anchor="middle" x="250" y="-63.5" font-family="Helvetica,sans-Serif" font-size="10.00">amr_wind::FieldBCIface</text>
</a>
</g>
</g>
<!-- Node2 -->
<g id="node2" class="node">
<title>Node2</title>
<g id="a_node2"><a xlink:href="classamr__wind_1_1_a_b_l_temp_wall_func.html" target="_top" xlink:title=" ">
<polygon fill="white" stroke="black" points="0,-0.5 0,-19.5 158,-19.5 158,-0.5 0,-0.5"/>
<text text-anchor="middle" x="79" y="-7.5" font-family="Helvetica,sans-Serif" font-size="10.00">amr_wind::ABLTempWallFunc</text>
</a>
</g>
</g>
<!-- Node1&#45;&gt;Node2 -->
<g id="edge1" class="edge">
<title>Node1&#45;&gt;Node2</title>
<path fill="none" stroke="midnightblue" d="M212.96,-53.3C180.74,-43.13 134.81,-28.62 105.97,-19.52"/>
<polygon fill="midnightblue" stroke="midnightblue" points="212.31,-56.77 222.9,-56.44 214.42,-50.09 212.31,-56.77"/>
</g>
<!-- Node3 -->
<g id="node3" class="node">
<title>Node3</title>
<g id="a_node3"><a xlink:href="classamr__wind_1_1_a_b_l_vel_wall_func.html" target="_top" xlink:title="Applies a shear&#45;stress value at the domain boundary.">
<polygon fill="white" stroke="black" points="176.5,-0.5 176.5,-19.5 323.5,-19.5 323.5,-0.5 176.5,-0.5"/>
<text text-anchor="middle" x="250" y="-7.5" font-family="Helvetica,sans-Serif" font-size="10.00">amr_wind::ABLVelWallFunc</text>
</a>
</g>
</g>
<!-- Node1&#45;&gt;Node3 -->
<g id="edge2" class="edge">
<title>Node1&#45;&gt;Node3</title>
<path fill="none" stroke="midnightblue" d="M250,-45.8C250,-36.91 250,-26.78 250,-19.75"/>
<polygon fill="midnightblue" stroke="midnightblue" points="246.5,-46.08 250,-56.08 253.5,-46.08 246.5,-46.08"/>
</g>
<!-- Node4 -->
<g id="node4" class="node">
<title>Node4</title>
<g id="a_node4"><a xlink:href="classamr__wind_1_1_fixed_gradient_b_c.html" target="_top" xlink:title="Applies a non&#45;zero gradient at the domain boundary.">
<polygon fill="white" stroke="black" points="342,-0.5 342,-19.5 494,-19.5 494,-0.5 342,-0.5"/>
<text text-anchor="middle" x="418" y="-7.5" font-family="Helvetica,sans-Serif" font-size="10.00">amr_wind::FixedGradientBC</text>
</a>
</g>
</g>
<!-- Node1&#45;&gt;Node4 -->
<g id="edge3" class="edge">
<title>Node1&#45;&gt;Node4</title>
<path fill="none" stroke="midnightblue" d="M286.39,-53.3C318.04,-43.13 363.17,-28.62 391.5,-19.52"/>
<polygon fill="midnightblue" stroke="midnightblue" points="285.07,-50.05 276.62,-56.44 287.21,-56.72 285.07,-50.05"/>
</g>
</g>
</svg>
