<?xml version="1.0" encoding="UTF-8" standalone="no"?>
<!DOCTYPE svg PUBLIC "-//W3C//DTD SVG 1.1//EN"
 "http://www.w3.org/Graphics/SVG/1.1/DTD/svg11.dtd">
<!-- Generated by graphviz version 2.43.0 (0)
 -->
<!-- Title: incflo Pages: 1 -->
<!--zoomable 685 -->
<svg id="main" version="1.1" xmlns="http://www.w3.org/2000/svg" xmlns:xlink="http://www.w3.org/1999/xlink" xml:space="preserve" onload="init(evt)">
<style type="text/css"><![CDATA[
.edge:hover path { stroke: red; }
.edge:hover polygon { stroke: red; fill: red; }
]]></style>
<script type="text/javascript"><![CDATA[
var edges = document.getElementsByTagName('g');
if (edges && edges.length) {
  for (var i=0;i<edges.length;i++) {
    if (edges[i].id.substr(0,4)=='edge') {
      edges[i].setAttribute('class','edge');
    }
  }
}
]]></script>
        <defs>
                <circle id="rim" cx="0" cy="0" r="7"/>
                <circle id="rim2" cx="0" cy="0" r="3.5"/>
                <g id="zoomPlus">
                        <use xlink:href="#rim" fill="#404040">
                                <set attributeName="fill" to="#808080" begin="zoomplus.mouseover" end="zoomplus.mouseout"/>
                        </use>
                        <path d="M-4,0h8M0,-4v8" fill="none" stroke="white" stroke-width="1.5" pointer-events="none"/>
                </g>
                <g id="zoomMin">
                        <use xlink:href="#rim" fill="#404040">
                                <set attributeName="fill" to="#808080" begin="zoomminus.mouseover" end="zoomminus.mouseout"/>
                        </use>
                        <path d="M-4,0h8" fill="none" stroke="white" stroke-width="1.5" pointer-events="none"/>
                </g>
                <g id="dirArrow">
                        <path fill="none" stroke="white" stroke-width="1.5" d="M0,-3.0v7 M-2.5,-0.5L0,-3.0L2.5,-0.5"/>
                </g>
               <g id="resetDef">
                       <use xlink:href="#rim2" fill="#404040">
                               <set attributeName="fill" to="#808080" begin="reset.mouseover" end="reset.mouseout"/>
                       </use>
               </g>
        </defs>

<script type="text/javascript">
var viewWidth = 2232;
var viewHeight = 685;
var sectionId = 'dynsection-1';
</script>
<script xlink:href="svgpan.js"/>
<svg id="graph" class="graph">
<g id="viewport">
<title>incflo</title>
<polygon fill="white" stroke="transparent" points="-4,4 -4,-681.14 2228,-681.14 2228,4 -4,4"/>
<!-- Node1 -->
<g id="node1" class="node">
<title>Node1</title>
<g id="a_node1"><a xlink:title="AMR&#45;Wind driver class.">
<polygon fill="#bfbfbf" stroke="black" points="2181,-445.64 2181,-464.64 2224,-464.64 2224,-445.64 2181,-445.64"/>
<text text-anchor="middle" x="2202.5" y="-452.64" font-family="Helvetica,sans-Serif" font-size="10.00">incflo</text>
</a>
</g>
</g>
<!-- Node2 -->
<g id="node2" class="node">
<title>Node2</title>
<g id="a_node2"><a xlink:title=" ">
<polygon fill="white" stroke="#bfbfbf" points="1968,-537.64 1968,-556.64 2065,-556.64 2065,-537.64 1968,-537.64"/>
<text text-anchor="middle" x="2016.5" y="-544.64" font-family="Helvetica,sans-Serif" font-size="10.00">amrex::AmrCore</text>
</a>
</g>
</g>
<!-- Node2&#45;&gt;Node1 -->
<g id="edge1" class="edge">
<title>Node2&#45;&gt;Node1</title>
<path fill="none" stroke="midnightblue" d="M2075.55,-548.4C2104.11,-546.38 2137.74,-539.79 2163,-522.14 2183.24,-508.01 2194.27,-479.58 2198.88,-464.71"/>
<polygon fill="midnightblue" stroke="midnightblue" points="2075.07,-544.92 2065.28,-548.95 2075.45,-551.91 2075.07,-544.92"/>
</g>
<!-- Node3 -->
<g id="node3" class="node">
<title>Node3</title>
<g id="a_node3"><a xlink:href="classamr__wind_1_1_c_f_d_sim.html" target="_top" xlink:title="Data structures for a CFD simulation.">
<polygon fill="white" stroke="black" points="1632,-303.64 1632,-322.64 1742,-322.64 1742,-303.64 1632,-303.64"/>
<text text-anchor="middle" x="1687" y="-310.64" font-family="Helvetica,sans-Serif" font-size="10.00">amr_wind::CFDSim</text>
</a>
</g>
</g>
<!-- Node3&#45;&gt;Node1 -->
<g id="edge2" class="edge">
<title>Node3&#45;&gt;Node1</title>
<path fill="none" stroke="#9a32cd" stroke-dasharray="5,2" d="M1752.65,-316.76C1832.4,-322.84 1971.15,-338.7 2083,-379.14 2120.2,-392.59 2130.57,-395.5 2163,-418.14 2174.4,-426.11 2185.66,-437.44 2193.03,-445.46"/>
<polygon fill="#9a32cd" stroke="#9a32cd" points="1752.5,-313.24 1742.27,-316 1751.99,-320.22 1752.5,-313.24"/>
<text text-anchor="middle" x="2016.5" y="-382.14" font-family="Helvetica,sans-Serif" font-size="10.00"> m_sim</text>
</g>
<!-- Node9 -->
<g id="node9" class="node">
<title>Node9</title>
<g id="a_node9"><a xlink:href="classamr__wind_1_1pde_1_1_p_d_e_mgr.html" target="_top" xlink:title="PDE systems manager.">
<polygon fill="white" stroke="black" points="1950,-179.64 1950,-198.64 2083,-198.64 2083,-179.64 1950,-179.64"/>
<text text-anchor="middle" x="2016.5" y="-186.64" font-family="Helvetica,sans-Serif" font-size="10.00">amr_wind::pde::PDEMgr</text>
</a>
</g>
</g>
<!-- Node3&#45;&gt;Node9 -->
<g id="edge19" class="edge">
<title>Node3&#45;&gt;Node9</title>
<path fill="none" stroke="#9a32cd" stroke-dasharray="5,2" d="M1752.37,-303.9C1823.3,-293.63 1927.99,-278.22 1932,-276.14 1968.06,-257.45 1997.42,-217.13 2009.52,-198.69"/>
<polygon fill="#9a32cd" stroke="#9a32cd" points="1751.56,-300.48 1742.17,-305.37 1752.56,-307.4 1751.56,-300.48"/>
<text text-anchor="middle" x="1846" y="-305.14" font-family="Helvetica,sans-Serif" font-size="10.00"> m_sim</text>
</g>
<!-- Node28 -->
<g id="node28" class="node">
<title>Node28</title>
<g id="a_node28"><a xlink:href="classamr__wind_1_1_overset_ops.html" target="_top" xlink:title=" ">
<polygon fill="white" stroke="black" points="1952.5,-399.64 1952.5,-418.64 2080.5,-418.64 2080.5,-399.64 1952.5,-399.64"/>
<text text-anchor="middle" x="2016.5" y="-406.64" font-family="Helvetica,sans-Serif" font-size="10.00">amr_wind::OversetOps</text>
</a>
</g>
</g>
<!-- Node3&#45;&gt;Node28 -->
<g id="edge44" class="edge">
<title>Node3&#45;&gt;Node28</title>
<path fill="none" stroke="#9a32cd" stroke-dasharray="5,2" d="M1719.32,-326.76C1731.84,-331.94 1746.47,-337.67 1760,-342.14 1833.57,-366.5 1921.35,-387.9 1972.52,-399.63"/>
<polygon fill="#9a32cd" stroke="#9a32cd" points="1720.37,-323.41 1709.79,-322.76 1717.65,-329.86 1720.37,-323.41"/>
<text text-anchor="middle" x="1846" y="-393.14" font-family="Helvetica,sans-Serif" font-size="10.00"> m_sim_ptr</text>
</g>
<!-- Node4 -->
<g id="node4" class="node">
<title>Node4</title>
<g id="a_node4"><a xlink:title=" ">
<polygon fill="white" stroke="#bfbfbf" points="1317.5,-244.14 1317.5,-274.14 1450.5,-274.14 1450.5,-244.14 1317.5,-244.14"/>
<text text-anchor="start" x="1325.5" y="-262.14" font-family="Helvetica,sans-Serif" font-size="10.00">std::unique_ptr&lt; amr</text>
<text text-anchor="middle" x="1384" y="-251.14" font-family="Helvetica,sans-Serif" font-size="10.00">_wind::helics_storage &gt;</text>
</a>
</g>
</g>
<!-- Node4&#45;&gt;Node3 -->
<g id="edge3" class="edge">
<title>Node4&#45;&gt;Node3</title>
<path fill="none" stroke="#9a32cd" stroke-dasharray="5,2" d="M1460.54,-261.55C1505.65,-264.35 1563.76,-270.34 1614,-283.14 1632.76,-287.93 1653.03,-296.73 1667.27,-303.56"/>
<polygon fill="#9a32cd" stroke="#9a32cd" points="1460.72,-258.06 1450.54,-260.97 1460.32,-265.05 1460.72,-258.06"/>
<text text-anchor="middle" x="1549" y="-286.14" font-family="Helvetica,sans-Serif" font-size="10.00"> m_helics</text>
</g>
<!-- Node5 -->
<g id="node5" class="node">
<title>Node5</title>
<g id="a_node5"><a xlink:title=" ">
<polygon fill="white" stroke="#bfbfbf" points="961.5,-332.64 961.5,-351.64 1079.5,-351.64 1079.5,-332.64 961.5,-332.64"/>
<text text-anchor="middle" x="1020.5" y="-339.64" font-family="Helvetica,sans-Serif" font-size="10.00">std::unique_ptr&lt; T &gt;</text>
</a>
</g>
</g>
<!-- Node5&#45;&gt;Node4 -->
<g id="edge4" class="edge">
<title>Node5&#45;&gt;Node4</title>
<path fill="none" stroke="orange" stroke-dasharray="5,2" d="M1039.93,-325.75C1055.55,-312.88 1079.16,-295.76 1103,-287.14 1173.18,-261.79 1259.3,-256.72 1317.35,-256.76"/>
<polygon fill="orange" stroke="orange" points="1037.48,-323.24 1032.12,-332.38 1042.01,-328.57 1037.48,-323.24"/>
<text text-anchor="start" x="1145" y="-301.14" font-family="Helvetica,sans-Serif" font-size="10.00"> &lt; amr_wind::helics</text>
<text text-anchor="middle" x="1193.5" y="-290.14" font-family="Helvetica,sans-Serif" font-size="10.00">_storage &gt;</text>
</g>
<!-- Node7 -->
<g id="node7" class="node">
<title>Node7</title>
<g id="a_node7"><a xlink:title=" ">
<polygon fill="white" stroke="#bfbfbf" points="1324,-195.14 1324,-225.14 1444,-225.14 1444,-195.14 1324,-195.14"/>
<text text-anchor="start" x="1332" y="-213.14" font-family="Helvetica,sans-Serif" font-size="10.00">std::unique_ptr&lt; amr</text>
<text text-anchor="middle" x="1384" y="-202.14" font-family="Helvetica,sans-Serif" font-size="10.00">_wind::IOManager &gt;</text>
</a>
</g>
</g>
<!-- Node5&#45;&gt;Node7 -->
<g id="edge7" class="edge">
<title>Node5&#45;&gt;Node7</title>
<path fill="none" stroke="orange" stroke-dasharray="5,2" d="M1030.93,-323.59C1043.79,-300.43 1069.15,-261.62 1103,-243.14 1171.96,-205.5 1264.51,-202.09 1323.96,-204.78"/>
<polygon fill="orange" stroke="orange" points="1027.82,-321.98 1026.2,-332.45 1034,-325.28 1027.82,-321.98"/>
<text text-anchor="middle" x="1193.5" y="-246.14" font-family="Helvetica,sans-Serif" font-size="10.00"> &lt; amr_wind::IOManager &gt;</text>
</g>
<!-- Node8 -->
<g id="node8" class="node">
<title>Node8</title>
<g id="a_node8"><a xlink:title=" ">
<polygon fill="white" stroke="#bfbfbf" points="1302,-540.14 1302,-570.14 1466,-570.14 1466,-540.14 1302,-540.14"/>
<text text-anchor="start" x="1310" y="-558.14" font-family="Helvetica,sans-Serif" font-size="10.00">std::unique_ptr&lt; amr</text>
<text text-anchor="middle" x="1384" y="-547.14" font-family="Helvetica,sans-Serif" font-size="10.00">_wind::PostProcessManager &gt;</text>
</a>
</g>
</g>
<!-- Node5&#45;&gt;Node8 -->
<g id="edge9" class="edge">
<title>Node5&#45;&gt;Node8</title>
<path fill="none" stroke="orange" stroke-dasharray="5,2" d="M1025.36,-361.53C1033.32,-396.13 1055.01,-468.23 1103,-504.14 1159.97,-546.77 1241.44,-557.58 1301.82,-558.88"/>
<polygon fill="orange" stroke="orange" points="1028.77,-360.75 1023.24,-351.71 1021.93,-362.23 1028.77,-360.75"/>
<text text-anchor="middle" x="1193.5" y="-560.14" font-family="Helvetica,sans-Serif" font-size="10.00"> &lt; amr_wind::PostProcessManager &gt;</text>
</g>
<!-- Node17 -->
<g id="node17" class="node">
<title>Node17</title>
<g id="a_node17"><a xlink:title=" ">
<polygon fill="white" stroke="#bfbfbf" points="1484,-174.14 1484,-204.14 1614,-204.14 1614,-174.14 1484,-174.14"/>
<text text-anchor="start" x="1492" y="-192.14" font-family="Helvetica,sans-Serif" font-size="10.00">std::unique_ptr&lt; amr</text>
<text text-anchor="middle" x="1549" y="-181.14" font-family="Helvetica,sans-Serif" font-size="10.00">_wind::pde::PDEBase &gt;</text>
</a>
</g>
</g>
<!-- Node5&#45;&gt;Node17 -->
<g id="edge22" class="edge">
<title>Node5&#45;&gt;Node17</title>
<path fill="none" stroke="orange" stroke-dasharray="5,2" d="M1025.46,-322.28C1033.43,-288.29 1054.89,-219.76 1103,-190.14 1164.84,-152.07 1375.84,-169.38 1483.58,-181.26"/>
<polygon fill="orange" stroke="orange" points="1021.97,-321.86 1023.26,-332.38 1028.81,-323.35 1021.97,-321.86"/>
<text text-anchor="middle" x="1193.5" y="-193.14" font-family="Helvetica,sans-Serif" font-size="10.00"> &lt; amr_wind::pde::PDEBase &gt;</text>
</g>
<!-- Node19 -->
<g id="node19" class="node">
<title>Node19</title>
<g id="a_node19"><a xlink:title=" ">
<polygon fill="white" stroke="#bfbfbf" points="1312.5,-491.14 1312.5,-521.14 1455.5,-521.14 1455.5,-491.14 1312.5,-491.14"/>
<text text-anchor="start" x="1320.5" y="-509.14" font-family="Helvetica,sans-Serif" font-size="10.00">std::unique_ptr&lt; amr</text>
<text text-anchor="middle" x="1384" y="-498.14" font-family="Helvetica,sans-Serif" font-size="10.00">_wind::OversetManager &gt;</text>
</a>
</g>
</g>
<!-- Node5&#45;&gt;Node19 -->
<g id="edge25" class="edge">
<title>Node5&#45;&gt;Node19</title>
<path fill="none" stroke="orange" stroke-dasharray="5,2" d="M1034.26,-359.72C1048.84,-378.56 1074.41,-408.08 1103,-425.14 1168.18,-464.04 1253.11,-485.17 1312.26,-495.99"/>
<polygon fill="orange" stroke="orange" points="1037,-357.54 1028.19,-351.66 1031.41,-361.75 1037,-357.54"/>
<text text-anchor="middle" x="1193.5" y="-492.14" font-family="Helvetica,sans-Serif" font-size="10.00"> &lt; amr_wind::OversetManager &gt;</text>
</g>
<!-- Node20 -->
<g id="node20" class="node">
<title>Node20</title>
<g id="a_node20"><a xlink:title=" ">
<polygon fill="white" stroke="#bfbfbf" points="1303.5,-293.64 1303.5,-334.64 1464.5,-334.64 1464.5,-293.64 1303.5,-293.64"/>
<text text-anchor="start" x="1311.5" y="-322.64" font-family="Helvetica,sans-Serif" font-size="10.00">std::unique_ptr&lt; amr</text>
<text text-anchor="start" x="1311.5" y="-311.64" font-family="Helvetica,sans-Serif" font-size="10.00">_wind::turbulence::Turbulence</text>
<text text-anchor="middle" x="1384" y="-300.64" font-family="Helvetica,sans-Serif" font-size="10.00">Model &gt;</text>
</a>
</g>
</g>
<!-- Node5&#45;&gt;Node20 -->
<g id="edge27" class="edge">
<title>Node5&#45;&gt;Node20</title>
<path fill="none" stroke="orange" stroke-dasharray="5,2" d="M1065.56,-330.2C1077.61,-327.4 1090.73,-324.76 1103,-323.14 1170.15,-314.33 1247.09,-312.44 1303.31,-312.55"/>
<polygon fill="orange" stroke="orange" points="1064.62,-326.83 1055.72,-332.58 1066.27,-333.63 1064.62,-326.83"/>
<text text-anchor="start" x="1133" y="-337.14" font-family="Helvetica,sans-Serif" font-size="10.00"> &lt; amr_wind::turbulence</text>
<text text-anchor="middle" x="1193.5" y="-326.14" font-family="Helvetica,sans-Serif" font-size="10.00">::TurbulenceModel &gt;</text>
</g>
<!-- Node23 -->
<g id="node23" class="node">
<title>Node23</title>
<g id="a_node23"><a xlink:title=" ">
<polygon fill="white" stroke="#bfbfbf" points="1324,-403.14 1324,-433.14 1444,-433.14 1444,-403.14 1324,-403.14"/>
<text text-anchor="start" x="1332" y="-421.14" font-family="Helvetica,sans-Serif" font-size="10.00">std::unique_ptr&lt; amr</text>
<text text-anchor="middle" x="1384" y="-410.14" font-family="Helvetica,sans-Serif" font-size="10.00">_wind::MeshMap &gt;</text>
</a>
</g>
</g>
<!-- Node5&#45;&gt;Node23 -->
<g id="edge33" class="edge">
<title>Node5&#45;&gt;Node23</title>
<path fill="none" stroke="orange" stroke-dasharray="5,2" d="M1049.11,-356.14C1064.6,-363.43 1084.47,-371.91 1103,-377.14 1177.58,-398.23 1266.57,-408.9 1323.88,-413.98"/>
<polygon fill="orange" stroke="orange" points="1050.62,-352.98 1040.09,-351.79 1047.58,-359.28 1050.62,-352.98"/>
<text text-anchor="middle" x="1193.5" y="-413.14" font-family="Helvetica,sans-Serif" font-size="10.00"> &lt; amr_wind::MeshMap &gt;</text>
</g>
<!-- Node24 -->
<g id="node24" class="node">
<title>Node24</title>
<g id="a_node24"><a xlink:title=" ">
<polygon fill="white" stroke="#bfbfbf" points="1320,-354.14 1320,-384.14 1448,-384.14 1448,-354.14 1320,-354.14"/>
<text text-anchor="start" x="1328" y="-372.14" font-family="Helvetica,sans-Serif" font-size="10.00">std::unique_ptr&lt; amr</text>
<text text-anchor="middle" x="1384" y="-361.14" font-family="Helvetica,sans-Serif" font-size="10.00">_wind::ExtSolverMgr &gt;</text>
</a>
</g>
</g>
<!-- Node5&#45;&gt;Node24 -->
<g id="edge35" class="edge">
<title>Node5&#45;&gt;Node24</title>
<path fill="none" stroke="orange" stroke-dasharray="5,2" d="M1089.91,-347.25C1156.09,-352.2 1255.57,-359.63 1319.9,-364.43"/>
<polygon fill="orange" stroke="orange" points="1089.81,-343.74 1079.58,-346.48 1089.29,-350.72 1089.81,-343.74"/>
<text text-anchor="middle" x="1193.5" y="-365.14" font-family="Helvetica,sans-Serif" font-size="10.00"> &lt; amr_wind::ExtSolverMgr &gt;</text>
</g>
<!-- Node27 -->
<g id="node27" class="node">
<title>Node27</title>
<g id="a_node27"><a xlink:title=" ">
<polygon fill="white" stroke="#bfbfbf" points="1760,-542.14 1760,-572.14 1932,-572.14 1932,-542.14 1760,-542.14"/>
<text text-anchor="start" x="1768" y="-560.14" font-family="Helvetica,sans-Serif" font-size="10.00">std::unique_ptr&lt; amr</text>
<text text-anchor="middle" x="1846" y="-549.14" font-family="Helvetica,sans-Serif" font-size="10.00">_wind::RefineCriteriaManager &gt;</text>
</a>
</g>
</g>
<!-- Node5&#45;&gt;Node27 -->
<g id="edge41" class="edge">
<title>Node5&#45;&gt;Node27</title>
<path fill="none" stroke="orange" stroke-dasharray="5,2" d="M1021.66,-361.82C1023.21,-407.64 1034.16,-521.4 1103,-572.14 1323.65,-734.79 1690.02,-616.74 1807.51,-572.21"/>
<polygon fill="orange" stroke="orange" points="1025.15,-361.64 1021.44,-351.72 1018.16,-361.79 1025.15,-361.64"/>
<text text-anchor="start" x="1316" y="-669.14" font-family="Helvetica,sans-Serif" font-size="10.00"> &lt; amr_wind::RefineCriteria</text>
<text text-anchor="middle" x="1384" y="-658.14" font-family="Helvetica,sans-Serif" font-size="10.00">Manager &gt;</text>
</g>
<!-- Node6 -->
<g id="node6" class="node">
<title>Node6</title>
<g id="a_node6"><a xlink:title=" ">
<polygon fill="white" stroke="#bfbfbf" points="37.5,-192.64 37.5,-211.64 66.5,-211.64 66.5,-192.64 37.5,-192.64"/>
<text text-anchor="middle" x="52" y="-199.64" font-family="Helvetica,sans-Serif" font-size="10.00">T</text>
</a>
</g>
</g>
<!-- Node6&#45;&gt;Node5 -->
<g id="edge5" class="edge">
<title>Node6&#45;&gt;Node5</title>
<path fill="none" stroke="#9a32cd" stroke-dasharray="5,2" d="M75.78,-215.94C110.83,-235.81 180.68,-270.14 245,-270.14 245,-270.14 245,-270.14 732.5,-270.14 833.96,-270.14 949.69,-313 997.28,-332.58"/>
<polygon fill="#9a32cd" stroke="#9a32cd" points="77.26,-212.75 66.85,-210.76 73.74,-218.8 77.26,-212.75"/>
<text text-anchor="middle" x="509" y="-273.14" font-family="Helvetica,sans-Serif" font-size="10.00"> ptr</text>
</g>
<!-- Node15 -->
<g id="node15" class="node">
<title>Node15</title>
<g id="a_node15"><a xlink:title=" ">
<polygon fill="white" stroke="#bfbfbf" points="189,-138.14 189,-168.14 303,-168.14 303,-138.14 189,-138.14"/>
<text text-anchor="start" x="197" y="-156.14" font-family="Helvetica,sans-Serif" font-size="10.00">std::unordered_map</text>
<text text-anchor="middle" x="246" y="-145.14" font-family="Helvetica,sans-Serif" font-size="10.00">&lt; K, T &gt;</text>
</a>
</g>
</g>
<!-- Node6&#45;&gt;Node15 -->
<g id="edge18" class="edge">
<title>Node6&#45;&gt;Node15</title>
<path fill="none" stroke="#9a32cd" stroke-dasharray="5,2" d="M76.45,-196.16C104.19,-189.08 151.31,-177.05 188.69,-167.51"/>
<polygon fill="#9a32cd" stroke="#9a32cd" points="75.32,-192.83 66.5,-198.7 77.06,-199.62 75.32,-192.83"/>
<text text-anchor="middle" x="146.5" y="-187.14" font-family="Helvetica,sans-Serif" font-size="10.00"> elements</text>
</g>
<!-- Node7&#45;&gt;Node3 -->
<g id="edge6" class="edge">
<title>Node7&#45;&gt;Node3</title>
<path fill="none" stroke="#9a32cd" stroke-dasharray="5,2" d="M1454.25,-212.02C1501.31,-215.62 1563.87,-225.07 1614,-249.14 1641.44,-262.32 1666.25,-289.11 1678.31,-303.5"/>
<polygon fill="#9a32cd" stroke="#9a32cd" points="1454.37,-208.52 1444.15,-211.32 1453.89,-215.5 1454.37,-208.52"/>
<text text-anchor="middle" x="1549" y="-252.14" font-family="Helvetica,sans-Serif" font-size="10.00"> m_io_mgr</text>
</g>
<!-- Node8&#45;&gt;Node3 -->
<g id="edge8" class="edge">
<title>Node8&#45;&gt;Node3</title>
<path fill="none" stroke="#9a32cd" stroke-dasharray="5,2" d="M1476.13,-550.93C1522.26,-544.4 1576.32,-529.46 1614,-496.14 1668.48,-447.97 1682.14,-353.27 1685.2,-322.82"/>
<polygon fill="#9a32cd" stroke="#9a32cd" points="1475.57,-547.47 1466.11,-552.23 1476.48,-554.41 1475.57,-547.47"/>
<text text-anchor="middle" x="1549" y="-552.14" font-family="Helvetica,sans-Serif" font-size="10.00"> m_post_mgr</text>
</g>
<!-- Node9&#45;&gt;Node3 -->
<g id="edge10" class="edge">
<title>Node9&#45;&gt;Node3</title>
<path fill="none" stroke="#9a32cd" stroke-dasharray="5,2" d="M1958.39,-200.96C1905.4,-213.12 1825.14,-234.59 1760,-265.14 1737.29,-275.8 1713.57,-292.98 1699.82,-303.64"/>
<polygon fill="#9a32cd" stroke="#9a32cd" points="1959.3,-204.35 1968.28,-198.73 1957.76,-197.52 1959.3,-204.35"/>
<text text-anchor="middle" x="1846" y="-268.14" font-family="Helvetica,sans-Serif" font-size="10.00"> m_pde_mgr</text>
</g>
<!-- Node10 -->
<g id="node10" class="node">
<title>Node10</title>
<g id="a_node10"><a xlink:href="classamr__wind_1_1_coll_mgr.html" target="_top" xlink:title=" ">
<polygon fill="white" stroke="black" points="1134,-79.14 1134,-109.14 1253,-109.14 1253,-79.14 1134,-79.14"/>
<text text-anchor="start" x="1142" y="-97.14" font-family="Helvetica,sans-Serif" font-size="10.00">amr_wind::CollMgr&lt;</text>
<text text-anchor="middle" x="1193.5" y="-86.14" font-family="Helvetica,sans-Serif" font-size="10.00"> PDEMgr, PDEBase &gt;</text>
</a>
</g>
</g>
<!-- Node10&#45;&gt;Node9 -->
<g id="edge11" class="edge">
<title>Node10&#45;&gt;Node9</title>
<path fill="none" stroke="midnightblue" d="M1263.2,-91.91C1346.51,-90.08 1491.05,-89.79 1614,-104.14 1751.82,-120.24 1912.31,-161.04 1981.22,-179.64"/>
<polygon fill="midnightblue" stroke="midnightblue" points="1263.02,-88.41 1253.1,-92.14 1263.18,-95.41 1263.02,-88.41"/>
</g>
<!-- Node11 -->
<g id="node11" class="node">
<title>Node11</title>
<g id="a_node11"><a xlink:href="classamr__wind_1_1_coll_mgr.html" target="_top" xlink:title="Interface to manage objects of sub&#45;classes based on factory registration.">
<polygon fill="white" stroke="black" points="667,-100.64 667,-141.64 796,-141.64 796,-100.64 667,-100.64"/>
<text text-anchor="start" x="675" y="-129.64" font-family="Helvetica,sans-Serif" font-size="10.00">amr_wind::CollMgr&lt;</text>
<text text-anchor="start" x="675" y="-118.64" font-family="Helvetica,sans-Serif" font-size="10.00"> Collection, Type, allow</text>
<text text-anchor="middle" x="731.5" y="-107.64" font-family="Helvetica,sans-Serif" font-size="10.00">_duplicates &gt;</text>
</a>
</g>
</g>
<!-- Node11&#45;&gt;Node10 -->
<g id="edge12" class="edge">
<title>Node11&#45;&gt;Node10</title>
<path fill="none" stroke="orange" stroke-dasharray="5,2" d="M806.25,-112.79C808.87,-112.56 811.45,-112.34 814,-112.14 926.97,-103.23 1059.27,-98.16 1133.75,-95.8"/>
<polygon fill="orange" stroke="orange" points="805.72,-109.33 796.09,-113.73 806.37,-116.3 805.72,-109.33"/>
<text text-anchor="middle" x="876" y="-115.14" font-family="Helvetica,sans-Serif" font-size="10.00"> &lt; PDEMgr, PDEBase &gt;</text>
</g>
<!-- Node26 -->
<g id="node26" class="node">
<title>Node26</title>
<g id="a_node26"><a xlink:href="classamr__wind_1_1_coll_mgr.html" target="_top" xlink:title=" ">
<polygon fill="white" stroke="black" points="956,-126.14 956,-156.14 1085,-156.14 1085,-126.14 956,-126.14"/>
<text text-anchor="start" x="964" y="-144.14" font-family="Helvetica,sans-Serif" font-size="10.00">amr_wind::CollMgr&lt;</text>
<text text-anchor="middle" x="1020.5" y="-133.14" font-family="Helvetica,sans-Serif" font-size="10.00"> PhysicsMgr, Physics &gt;</text>
</a>
</g>
</g>
<!-- Node11&#45;&gt;Node26 -->
<g id="edge38" class="edge">
<title>Node11&#45;&gt;Node26</title>
<path fill="none" stroke="orange" stroke-dasharray="5,2" d="M806.18,-126.28C852.52,-129.51 911.71,-133.63 955.98,-136.72"/>
<polygon fill="orange" stroke="orange" points="806.41,-122.79 796.19,-125.58 805.93,-129.77 806.41,-122.79"/>
<text text-anchor="middle" x="876" y="-139.14" font-family="Helvetica,sans-Serif" font-size="10.00"> &lt; PhysicsMgr, Physics &gt;</text>
</g>
<!-- Node12 -->
<g id="node12" class="node">
<title>Node12</title>
<g id="a_node12"><a xlink:title=" ">
<polygon fill="white" stroke="#bfbfbf" points="452,-106.14 452,-136.14 566,-136.14 566,-106.14 452,-106.14"/>
<text text-anchor="start" x="460" y="-124.14" font-family="Helvetica,sans-Serif" font-size="10.00">std::unordered_map</text>
<text text-anchor="middle" x="509" y="-113.14" font-family="Helvetica,sans-Serif" font-size="10.00">&lt; std::string, int &gt;</text>
</a>
</g>
</g>
<!-- Node12&#45;&gt;Node11 -->
<g id="edge13" class="edge">
<title>Node12&#45;&gt;Node11</title>
<path fill="none" stroke="#9a32cd" stroke-dasharray="5,2" d="M576.55,-121.14C605.24,-121.14 638.64,-121.14 666.99,-121.14"/>
<polygon fill="#9a32cd" stroke="#9a32cd" points="576.21,-117.64 566.21,-121.14 576.21,-124.64 576.21,-117.64"/>
<text text-anchor="middle" x="618.5" y="-124.14" font-family="Helvetica,sans-Serif" font-size="10.00"> m_obj_map</text>
</g>
<!-- Node13 -->
<g id="node13" class="node">
<title>Node13</title>
<g id="a_node13"><a xlink:title=" ">
<polygon fill="white" stroke="#bfbfbf" points="213.5,-41.64 213.5,-60.64 278.5,-60.64 278.5,-41.64 213.5,-41.64"/>
<text text-anchor="middle" x="246" y="-48.64" font-family="Helvetica,sans-Serif" font-size="10.00">std::string</text>
</a>
</g>
</g>
<!-- Node13&#45;&gt;Node9 -->
<g id="edge20" class="edge">
<title>Node13&#45;&gt;Node9</title>
<path fill="none" stroke="#9a32cd" stroke-dasharray="5,2" d="M288.55,-41.31C339.83,-30.05 429.82,-13.14 508,-13.14 508,-13.14 508,-13.14 1688,-13.14 1796.81,-13.14 1841.02,26.54 1932,-33.14 1985.94,-68.53 2007.57,-150.83 2013.61,-179.27"/>
<polygon fill="#9a32cd" stroke="#9a32cd" points="287.52,-37.95 278.52,-43.55 289.05,-44.78 287.52,-37.95"/>
<text text-anchor="middle" x="1020.5" y="-16.14" font-family="Helvetica,sans-Serif" font-size="10.00"> m_scheme</text>
</g>
<!-- Node13&#45;&gt;Node12 -->
<g id="edge14" class="edge">
<title>Node13&#45;&gt;Node12</title>
<path fill="none" stroke="#9a32cd" stroke-dasharray="5,2" d="M288.73,-57.97C334.31,-65.62 404.26,-78.03 430,-86.14 446.56,-91.37 464.28,-99.12 478.63,-106.01"/>
<polygon fill="#9a32cd" stroke="#9a32cd" points="289.28,-54.51 278.84,-56.31 288.13,-61.41 289.28,-54.51"/>
<text text-anchor="middle" x="375.5" y="-89.14" font-family="Helvetica,sans-Serif" font-size="10.00"> keys</text>
</g>
<!-- Node22 -->
<g id="node22" class="node">
<title>Node22</title>
<g id="a_node22"><a xlink:title=" ">
<polygon fill="white" stroke="#bfbfbf" points="448,-42.14 448,-72.14 570,-72.14 570,-42.14 448,-42.14"/>
<text text-anchor="start" x="456" y="-60.14" font-family="Helvetica,sans-Serif" font-size="10.00">std::unordered_map</text>
<text text-anchor="middle" x="509" y="-49.14" font-family="Helvetica,sans-Serif" font-size="10.00">&lt; std::string, size_t &gt;</text>
</a>
</g>
</g>
<!-- Node13&#45;&gt;Node22 -->
<g id="edge30" class="edge">
<title>Node13&#45;&gt;Node22</title>
<path fill="none" stroke="#9a32cd" stroke-dasharray="5,2" d="M289.17,-50.67C326.27,-50.43 381.74,-50.47 430,-52.14 435.83,-52.35 441.9,-52.62 447.97,-52.94"/>
<polygon fill="#9a32cd" stroke="#9a32cd" points="288.72,-47.18 278.75,-50.75 288.78,-54.18 288.72,-47.18"/>
<text text-anchor="middle" x="375.5" y="-55.14" font-family="Helvetica,sans-Serif" font-size="10.00"> keys</text>
</g>
<!-- Node14 -->
<g id="node14" class="node">
<title>Node14</title>
<g id="a_node14"><a xlink:title=" ">
<polygon fill="white" stroke="#bfbfbf" points="0,-36.14 0,-66.14 104,-66.14 104,-36.14 0,-36.14"/>
<text text-anchor="start" x="8" y="-54.14" font-family="Helvetica,sans-Serif" font-size="10.00">std::basic_string&lt;</text>
<text text-anchor="middle" x="52" y="-43.14" font-family="Helvetica,sans-Serif" font-size="10.00"> Char &gt;</text>
</a>
</g>
</g>
<!-- Node14&#45;&gt;Node13 -->
<g id="edge15" class="edge">
<title>Node14&#45;&gt;Node13</title>
<path fill="none" stroke="midnightblue" d="M114.23,-51.14C147.25,-51.14 186.63,-51.14 213.48,-51.14"/>
<polygon fill="midnightblue" stroke="midnightblue" points="114.2,-47.64 104.2,-51.14 114.2,-54.64 114.2,-47.64"/>
</g>
<!-- Node15&#45;&gt;Node12 -->
<g id="edge16" class="edge">
<title>Node15&#45;&gt;Node12</title>
<path fill="none" stroke="orange" stroke-dasharray="5,2" d="M313.12,-145.32C347.91,-141.17 391.27,-135.95 430,-131.14 437.05,-130.27 444.45,-129.34 451.77,-128.41"/>
<polygon fill="orange" stroke="orange" points="312.59,-141.86 303.08,-146.52 313.42,-148.81 312.59,-141.86"/>
<text text-anchor="middle" x="375.5" y="-148.14" font-family="Helvetica,sans-Serif" font-size="10.00"> &lt; std::string, int &gt;</text>
</g>
<!-- Node15&#45;&gt;Node22 -->
<g id="edge31" class="edge">
<title>Node15&#45;&gt;Node22</title>
<path fill="none" stroke="orange" stroke-dasharray="5,2" d="M283.48,-133.66C295.21,-128.01 308.42,-122.26 321,-118.14 367.89,-102.81 383.36,-113.23 430,-97.14 448.56,-90.74 468.22,-80.64 483.16,-72.18"/>
<polygon fill="orange" stroke="orange" points="281.84,-130.57 274.43,-138.14 284.95,-136.84 281.84,-130.57"/>
<text text-anchor="middle" x="375.5" y="-121.14" font-family="Helvetica,sans-Serif" font-size="10.00"> &lt; std::string, size_t &gt;</text>
</g>
<!-- Node16 -->
<g id="node16" class="node">
<title>Node16</title>
<g id="a_node16"><a xlink:title=" ">
<polygon fill="white" stroke="#bfbfbf" points="37.5,-143.64 37.5,-162.64 66.5,-162.64 66.5,-143.64 37.5,-143.64"/>
<text text-anchor="middle" x="52" y="-150.64" font-family="Helvetica,sans-Serif" font-size="10.00">K</text>
</a>
</g>
</g>
<!-- Node16&#45;&gt;Node15 -->
<g id="edge17" class="edge">
<title>Node16&#45;&gt;Node15</title>
<path fill="none" stroke="#9a32cd" stroke-dasharray="5,2" d="M76.82,-153.14C104.61,-153.14 151.48,-153.14 188.69,-153.14"/>
<polygon fill="#9a32cd" stroke="#9a32cd" points="76.5,-149.64 66.5,-153.14 76.5,-156.64 76.5,-149.64"/>
<text text-anchor="middle" x="146.5" y="-156.14" font-family="Helvetica,sans-Serif" font-size="10.00"> keys</text>
</g>
<!-- Node17&#45;&gt;Node9 -->
<g id="edge21" class="edge">
<title>Node17&#45;&gt;Node9</title>
<path fill="none" stroke="#9a32cd" stroke-dasharray="5,2" d="M1624.35,-189.14C1714.16,-189.14 1863.86,-189.14 1949.67,-189.14"/>
<polygon fill="#9a32cd" stroke="#9a32cd" points="1624.24,-185.64 1614.24,-189.14 1624.24,-192.64 1624.24,-185.64"/>
<text text-anchor="middle" x="1687" y="-192.14" font-family="Helvetica,sans-Serif" font-size="10.00"> m_icns</text>
</g>
<!-- Node18 -->
<g id="node18" class="node">
<title>Node18</title>
<g id="a_node18"><a xlink:href="classamr__wind_1_1_sim_time.html" target="_top" xlink:title="Time manager for simulations.">
<polygon fill="white" stroke="black" points="1327,-452.64 1327,-471.64 1441,-471.64 1441,-452.64 1327,-452.64"/>
<text text-anchor="middle" x="1384" y="-459.64" font-family="Helvetica,sans-Serif" font-size="10.00">amr_wind::SimTime</text>
</a>
</g>
</g>
<!-- Node18&#45;&gt;Node1 -->
<g id="edge39" class="edge">
<title>Node18&#45;&gt;Node1</title>
<path fill="none" stroke="#9a32cd" stroke-dasharray="5,2" d="M1451.31,-461.58C1623.42,-460.1 2078.14,-456.2 2180.73,-455.32"/>
<polygon fill="#9a32cd" stroke="#9a32cd" points="1451.09,-458.08 1441.12,-461.66 1451.15,-465.08 1451.09,-458.08"/>
<text text-anchor="middle" x="1846" y="-462.14" font-family="Helvetica,sans-Serif" font-size="10.00"> m_time</text>
</g>
<!-- Node18&#45;&gt;Node3 -->
<g id="edge23" class="edge">
<title>Node18&#45;&gt;Node3</title>
<path fill="none" stroke="#9a32cd" stroke-dasharray="5,2" d="M1450.74,-451.52C1456.23,-449.01 1461.42,-445.93 1466,-442.14 1480.72,-429.99 1468.88,-414.8 1484,-403.14 1530.47,-367.32 1561.48,-406.31 1614,-380.14 1642.12,-366.13 1667.01,-337.65 1678.79,-322.74"/>
<polygon fill="#9a32cd" stroke="#9a32cd" points="1449.31,-448.32 1441.28,-455.23 1451.87,-454.84 1449.31,-448.32"/>
<text text-anchor="middle" x="1549" y="-406.14" font-family="Helvetica,sans-Serif" font-size="10.00"> m_time</text>
</g>
<!-- Node19&#45;&gt;Node3 -->
<g id="edge24" class="edge">
<title>Node19&#45;&gt;Node3</title>
<path fill="none" stroke="#9a32cd" stroke-dasharray="5,2" d="M1460.98,-488.3C1508.77,-474.2 1569.58,-450.68 1614,-414.14 1646.6,-387.33 1671.49,-342.37 1681.36,-322.77"/>
<polygon fill="#9a32cd" stroke="#9a32cd" points="1459.94,-484.96 1451.29,-491.09 1461.87,-491.69 1459.94,-484.96"/>
<text text-anchor="middle" x="1549" y="-484.14" font-family="Helvetica,sans-Serif" font-size="10.00"> m_overset_mgr</text>
</g>
<!-- Node20&#45;&gt;Node3 -->
<g id="edge26" class="edge">
<title>Node20&#45;&gt;Node3</title>
<path fill="none" stroke="#9a32cd" stroke-dasharray="5,2" d="M1474.7,-301.84C1477.83,-301.58 1480.94,-301.34 1484,-301.14 1541.65,-297.37 1556.42,-296.38 1614,-301.14 1620.95,-301.72 1628.23,-302.6 1635.39,-303.63"/>
<polygon fill="#9a32cd" stroke="#9a32cd" points="1474.25,-298.37 1464.61,-302.77 1474.89,-305.34 1474.25,-298.37"/>
<text text-anchor="middle" x="1549" y="-304.14" font-family="Helvetica,sans-Serif" font-size="10.00"> m_turbulence</text>
</g>
<!-- Node21 -->
<g id="node21" class="node">
<title>Node21</title>
<g id="a_node21"><a xlink:href="classamr__wind_1_1_field_repo.html" target="_top" xlink:title="Field Repository.">
<polygon fill="white" stroke="black" points="1324.5,-42.64 1324.5,-61.64 1443.5,-61.64 1443.5,-42.64 1324.5,-42.64"/>
<text text-anchor="middle" x="1384" y="-49.64" font-family="Helvetica,sans-Serif" font-size="10.00">amr_wind::FieldRepo</text>
</a>
</g>
</g>
<!-- Node21&#45;&gt;Node1 -->
<g id="edge42" class="edge">
<title>Node21&#45;&gt;Node1</title>
<path fill="none" stroke="#9a32cd" stroke-dasharray="5,2" d="M1451.26,-41.25C1589.23,-22.69 1908.93,-1.74 2083,-170.14 2168.31,-252.67 2194.71,-405.75 2200.27,-445.51"/>
<polygon fill="#9a32cd" stroke="#9a32cd" points="1450.68,-37.8 1441.25,-42.64 1451.64,-44.73 1450.68,-37.8"/>
<text text-anchor="middle" x="1846" y="-80.14" font-family="Helvetica,sans-Serif" font-size="10.00"> m_repo</text>
</g>
<!-- Node21&#45;&gt;Node3 -->
<g id="edge28" class="edge">
<title>Node21&#45;&gt;Node3</title>
<path fill="none" stroke="#9a32cd" stroke-dasharray="5,2" d="M1446.89,-63.76C1506.65,-76.22 1591.32,-97.56 1614,-122.14 1639.3,-149.57 1619.63,-168.94 1632,-204.14 1645.52,-242.6 1669.35,-285.02 1680.25,-303.58"/>
<polygon fill="#9a32cd" stroke="#9a32cd" points="1447.29,-60.27 1436.79,-61.69 1445.88,-67.13 1447.29,-60.27"/>
<text text-anchor="middle" x="1549" y="-125.14" font-family="Helvetica,sans-Serif" font-size="10.00"> m_repo</text>
</g>
<!-- Node22&#45;&gt;Node21 -->
<g id="edge29" class="edge">
<title>Node22&#45;&gt;Node21</title>
<path fill="none" stroke="#9a32cd" stroke-dasharray="5,2" d="M580.2,-56.74C747.82,-55.78 1169.01,-53.37 1324.3,-52.48"/>
<polygon fill="#9a32cd" stroke="#9a32cd" points="579.98,-53.24 570,-56.8 580.02,-60.24 579.98,-53.24"/>
<text text-anchor="middle" x="876" y="-70.14" font-family="Helvetica,sans-Serif" font-size="10.00"> m_fid_map</text>
<text text-anchor="middle" x="876" y="-59.14" font-family="Helvetica,sans-Serif" font-size="10.00">m_int_fid_map</text>
</g>
<!-- Node23&#45;&gt;Node3 -->
<g id="edge32" class="edge">
<title>Node23&#45;&gt;Node3</title>
<path fill="none" stroke="#9a32cd" stroke-dasharray="5,2" d="M1453.41,-400.58C1457.82,-398.38 1462.07,-395.91 1466,-393.14 1476.9,-385.47 1472.64,-376.13 1484,-369.14 1533.99,-338.42 1557.99,-363.62 1614,-346.14 1633.3,-340.12 1654.17,-330.14 1668.45,-322.72"/>
<polygon fill="#9a32cd" stroke="#9a32cd" points="1451.84,-397.44 1444.15,-404.73 1454.71,-403.83 1451.84,-397.44"/>
<text text-anchor="middle" x="1549" y="-372.14" font-family="Helvetica,sans-Serif" font-size="10.00"> m_mesh_map</text>
</g>
<!-- Node24&#45;&gt;Node3 -->
<g id="edge34" class="edge">
<title>Node24&#45;&gt;Node3</title>
<path fill="none" stroke="#9a32cd" stroke-dasharray="5,2" d="M1447.86,-350.86C1454.04,-348.73 1460.17,-346.48 1466,-344.14 1474.3,-340.81 1475.42,-337.67 1484,-335.14 1532.73,-320.81 1590.56,-315.64 1631.82,-313.86"/>
<polygon fill="#9a32cd" stroke="#9a32cd" points="1446.53,-347.62 1438.16,-354.11 1448.75,-354.26 1446.53,-347.62"/>
<text text-anchor="middle" x="1549" y="-338.14" font-family="Helvetica,sans-Serif" font-size="10.00"> m_ext_solver_mgr</text>
</g>
<!-- Node25 -->
<g id="node25" class="node">
<title>Node25</title>
<g id="a_node25"><a xlink:href="classamr__wind_1_1_physics_mgr.html" target="_top" xlink:title="A collection of Physics models instances that are active during a simulation.">
<polygon fill="white" stroke="black" points="1321,-118.64 1321,-137.64 1447,-137.64 1447,-118.64 1321,-118.64"/>
<text text-anchor="middle" x="1384" y="-125.64" font-family="Helvetica,sans-Serif" font-size="10.00">amr_wind::PhysicsMgr</text>
</a>
</g>
</g>
<!-- Node25&#45;&gt;Node3 -->
<g id="edge36" class="edge">
<title>Node25&#45;&gt;Node3</title>
<path fill="none" stroke="#9a32cd" stroke-dasharray="5,2" d="M1457.41,-133.24C1519.81,-138.24 1601.76,-146.51 1614,-156.14 1631.9,-170.24 1622.93,-183.24 1632,-204.14 1648.22,-241.54 1670.68,-284.5 1680.75,-303.38"/>
<polygon fill="#9a32cd" stroke="#9a32cd" points="1457.42,-129.73 1447.18,-132.44 1456.87,-136.71 1457.42,-129.73"/>
<text text-anchor="middle" x="1549" y="-159.14" font-family="Helvetica,sans-Serif" font-size="10.00"> m_physics_mgr</text>
</g>
<!-- Node26&#45;&gt;Node25 -->
<g id="edge37" class="edge">
<title>Node26&#45;&gt;Node25</title>
<path fill="none" stroke="midnightblue" d="M1095.69,-138.48C1162.07,-136.09 1258.29,-132.63 1320.75,-130.38"/>
<polygon fill="midnightblue" stroke="midnightblue" points="1095.16,-134.99 1085.3,-138.85 1095.42,-141.99 1095.16,-134.99"/>
</g>
<!-- Node27&#45;&gt;Node1 -->
<g id="edge40" class="edge">
<title>Node27&#45;&gt;Node1</title>
<path fill="none" stroke="#9a32cd" stroke-dasharray="5,2" d="M1890.94,-538.07C1908.98,-530.76 1930.25,-522.83 1950,-517.14 2042.64,-490.48 2072.27,-508.73 2163,-476.14 2171.17,-473.21 2179.7,-468.73 2186.64,-464.65"/>
<polygon fill="#9a32cd" stroke="#9a32cd" points="1889.19,-535 1881.27,-542.04 1891.85,-541.48 1889.19,-535"/>
<text text-anchor="middle" x="2016.5" y="-520.14" font-family="Helvetica,sans-Serif" font-size="10.00"> m_mesh_refiner</text>
</g>
<!-- Node28&#45;&gt;Node1 -->
<g id="edge43" class="edge">
<title>Node28&#45;&gt;Node1</title>
<path fill="none" stroke="#9a32cd" stroke-dasharray="5,2" d="M2090.55,-419.56C2114,-423.86 2139.88,-429.64 2163,-437.14 2169.88,-439.38 2177.13,-442.54 2183.47,-445.59"/>
<polygon fill="#9a32cd" stroke="#9a32cd" points="2091.12,-416.1 2080.67,-417.8 2089.9,-423 2091.12,-416.1"/>
<text text-anchor="middle" x="2132" y="-440.14" font-family="Helvetica,sans-Serif" font-size="10.00"> m_ovst_ops</text>
</g>
</g>
</svg>
        <g id="navigator" transform="translate(0 0)" fill="#404254">
                <rect fill="#f2f5e9" fill-opacity="0.5" stroke="#606060" stroke-width=".5" x="0" y="0" width="60" height="60"/>
                <use id="zoomplus" xlink:href="#zoomPlus" x="17" y="9" onmousedown="handleZoom(evt,'in')"/>
                <use id="zoomminus" xlink:href="#zoomMin" x="42" y="9" onmousedown="handleZoom(evt,'out')"/>
                <use id="reset" xlink:href="#resetDef" x="30" y="36" onmousedown="handleReset()"/>
                <g id="arrowUp" xlink:href="#dirArrow" transform="translate(30 24)" onmousedown="handlePan(0,-1)">
                  <use xlink:href="#rim" fill="#404040">
                        <set attributeName="fill" to="#808080" begin="arrowUp.mouseover" end="arrowUp.mouseout"/>
                  </use>
                  <path fill="none" stroke="white" stroke-width="1.5" d="M0,-3.0v7 M-2.5,-0.5L0,-3.0L2.5,-0.5"/>
                </g>
                <g id="arrowRight" xlink:href="#dirArrow" transform="rotate(90) translate(36 -43)" onmousedown="handlePan(1,0)">
                  <use xlink:href="#rim" fill="#404040">
                        <set attributeName="fill" to="#808080" begin="arrowRight.mouseover" end="arrowRight.mouseout"/>
                  </use>
                  <path fill="none" stroke="white" stroke-width="1.5" d="M0,-3.0v7 M-2.5,-0.5L0,-3.0L2.5,-0.5"/>
                </g>
                <g id="arrowDown" xlink:href="#dirArrow" transform="rotate(180) translate(-30 -48)" onmousedown="handlePan(0,1)">
                  <use xlink:href="#rim" fill="#404040">
                        <set attributeName="fill" to="#808080" begin="arrowDown.mouseover" end="arrowDown.mouseout"/>
                  </use>
                  <path fill="none" stroke="white" stroke-width="1.5" d="M0,-3.0v7 M-2.5,-0.5L0,-3.0L2.5,-0.5"/>
                </g>
                <g id="arrowLeft" xlink:href="#dirArrow" transform="rotate(270) translate(-36 17)" onmousedown="handlePan(-1,0)">
                  <use xlink:href="#rim" fill="#404040">
                        <set attributeName="fill" to="#808080" begin="arrowLeft.mouseover" end="arrowLeft.mouseout"/>
                  </use>
                  <path fill="none" stroke="white" stroke-width="1.5" d="M0,-3.0v7 M-2.5,-0.5L0,-3.0L2.5,-0.5"/>
                </g>
        </g>
        <svg viewBox="0 0 15 15" width="100%" height="30px" preserveAspectRatio="xMaxYMin meet">
         <g id="arrow_out" transform="scale(0.3 0.3)">
          <a xlink:href="classincflo__coll__graph_org.svg" target="_base">
           <rect id="button" ry="5" rx="5" y="6" x="6" height="38" width="38"
                fill="#f2f5e9" fill-opacity="0.5" stroke="#606060" stroke-width="1.0"/>
           <path id="arrow"
             d="M 11.500037,31.436501 C 11.940474,20.09759 22.043105,11.32322 32.158766,21.979434 L 37.068811,17.246167 C 37.068811,17.246167 37.088388,32 37.088388,32 L 22.160133,31.978069 C 22.160133,31.978069 26.997745,27.140456 26.997745,27.140456 C 18.528582,18.264221 13.291696,25.230495 11.500037,31.436501 z"
             style="fill:#404040;"/>
          </a>
         </g>
        </svg>
</svg>
