<?xml version="1.0" encoding="UTF-8" standalone="no"?>
<!DOCTYPE svg PUBLIC "-//W3C//DTD SVG 1.1//EN"
 "http://www.w3.org/Graphics/SVG/1.1/DTD/svg11.dtd">
<!-- Generated by graphviz version 2.43.0 (0)
 -->
<!-- Title: amr_wind::RefinementCriteria Pages: 1 -->
<svg width="200pt" height="196pt"
 viewBox="0.00 0.00 199.50 196.00" xmlns="http://www.w3.org/2000/svg" xmlns:xlink="http://www.w3.org/1999/xlink">
<g id="graph0" class="graph" transform="scale(1 1) rotate(0) translate(4 192)">
<title>amr_wind::RefinementCriteria</title>
<polygon fill="white" stroke="transparent" points="-4,4 -4,-192 195.5,-192 195.5,4 -4,4"/>
<!-- Node1 -->
<g id="node1" class="node">
<title>Node1</title>
<g id="a_node1"><a xlink:title="Abstract interface for tagging cells for refinement.">
<polygon fill="#bfbfbf" stroke="black" points="0,-0.5 0,-19.5 163,-19.5 163,-0.5 0,-0.5"/>
<text text-anchor="middle" x="81.5" y="-7.5" font-family="Helvetica,sans-Serif" font-size="10.00">amr_wind::RefinementCriteria</text>
</a>
</g>
</g>
<!-- Node2 -->
<g id="node2" class="node">
<title>Node2</title>
<g id="a_node2"><a xlink:href="structamr__wind_1_1_factory.html" target="_top" xlink:title=" ">
<polygon fill="white" stroke="black" points="24,-57.5 24,-98.5 139,-98.5 139,-57.5 24,-57.5"/>
<text text-anchor="start" x="32" y="-86.5" font-family="Helvetica,sans-Serif" font-size="10.00">amr_wind::Factory&lt;</text>
<text text-anchor="start" x="32" y="-75.5" font-family="Helvetica,sans-Serif" font-size="10.00"> RefinementCriteria,</text>
<text text-anchor="middle" x="81.5" y="-64.5" font-family="Helvetica,sans-Serif" font-size="10.00"> CFDSim &amp; &gt;</text>
</a>
</g>
</g>
<!-- Node2&#45;&gt;Node1 -->
<g id="edge1" class="edge">
<title>Node2&#45;&gt;Node1</title>
<path fill="none" stroke="midnightblue" d="M81.5,-47.12C81.5,-37.17 81.5,-26.84 81.5,-19.79"/>
<polygon fill="midnightblue" stroke="midnightblue" points="78,-47.2 81.5,-57.2 85,-47.2 78,-47.2"/>
</g>
<!-- Node3 -->
<g id="node3" class="node">
<title>Node3</title>
<g id="a_node3"><a xlink:href="structamr__wind_1_1_factory.html" target="_top" xlink:title="Runtime selection of options based on string keyword lookup.">
<polygon fill="white" stroke="black" points="24.5,-157.5 24.5,-187.5 138.5,-187.5 138.5,-157.5 24.5,-157.5"/>
<text text-anchor="start" x="32.5" y="-175.5" font-family="Helvetica,sans-Serif" font-size="10.00">amr_wind::Factory&lt;</text>
<text text-anchor="middle" x="81.5" y="-164.5" font-family="Helvetica,sans-Serif" font-size="10.00"> Base, Args &gt;</text>
</a>
</g>
</g>
<!-- Node3&#45;&gt;Node2 -->
<g id="edge2" class="edge">
<title>Node3&#45;&gt;Node2</title>
<path fill="none" stroke="orange" stroke-dasharray="5,2" d="M81.5,-147.28C81.5,-132.14 81.5,-112.88 81.5,-98.68"/>
<polygon fill="orange" stroke="orange" points="78,-147.45 81.5,-157.45 85,-147.45 78,-147.45"/>
<text text-anchor="start" x="81.5" y="-131" font-family="Helvetica,sans-Serif" font-size="10.00"> &lt; RefinementCriteria,</text>
<text text-anchor="middle" x="136.5" y="-120" font-family="Helvetica,sans-Serif" font-size="10.00"> CFDSim &amp; &gt;</text>
</g>
</g>
</svg>
