<?xml version="1.0" encoding="UTF-8" standalone="no"?>
<!DOCTYPE svg PUBLIC "-//W3C//DTD SVG 1.1//EN"
 "http://www.w3.org/Graphics/SVG/1.1/DTD/svg11.dtd">
<!-- Generated by graphviz version 2.43.0 (0)
 -->
<!-- Title: incflo Pages: 1 -->
<svg width="2022pt" height="650pt"
 viewBox="0.00 0.00 2022.00 650.00" xmlns="http://www.w3.org/2000/svg" xmlns:xlink="http://www.w3.org/1999/xlink">
<g id="graph0" class="graph" transform="scale(1 1) rotate(0) translate(4 646)">
<title>incflo</title>
<polygon fill="white" stroke="transparent" points="-4,4 -4,-646 2018,-646 2018,4 -4,4"/>
<!-- Node1 -->
<g id="node1" class="node">
<title>Node1</title>
<g id="a_node1"><a xlink:title="AMR&#45;Wind driver class.">
<polygon fill="#bfbfbf" stroke="black" points="1926,-536.5 1926,-555.5 1969,-555.5 1969,-536.5 1926,-536.5"/>
<text text-anchor="middle" x="1947.5" y="-543.5" font-family="Helvetica,sans-Serif" font-size="10.00">incflo</text>
</a>
</g>
</g>
<!-- Node2 -->
<g id="node2" class="node">
<title>Node2</title>
<g id="a_node2"><a xlink:title=" ">
<polygon fill="white" stroke="#bfbfbf" points="1680.5,-622.5 1680.5,-641.5 1777.5,-641.5 1777.5,-622.5 1680.5,-622.5"/>
<text text-anchor="middle" x="1729" y="-629.5" font-family="Helvetica,sans-Serif" font-size="10.00">amrex::AmrCore</text>
</a>
</g>
</g>
<!-- Node2&#45;&gt;Node1 -->
<g id="edge1" class="edge">
<title>Node2&#45;&gt;Node1</title>
<path fill="none" stroke="midnightblue" d="M1787.7,-626.83C1811.71,-623.25 1839.42,-617.2 1863,-607 1892.66,-594.17 1921.89,-569.22 1936.63,-555.54"/>
<polygon fill="midnightblue" stroke="midnightblue" points="1787.09,-623.39 1777.66,-628.22 1788.05,-630.32 1787.09,-623.39"/>
</g>
<!-- Node3 -->
<g id="node3" class="node">
<title>Node3</title>
<g id="a_node3"><a xlink:href="classamr__wind_1_1_c_f_d_sim.html" target="_top" xlink:title="Data structures for a CFD simulation.">
<polygon fill="white" stroke="black" points="1674,-293.5 1674,-312.5 1784,-312.5 1784,-293.5 1674,-293.5"/>
<text text-anchor="middle" x="1729" y="-300.5" font-family="Helvetica,sans-Serif" font-size="10.00">amr_wind::CFDSim</text>
</a>
</g>
</g>
<!-- Node3&#45;&gt;Node1 -->
<g id="edge2" class="edge">
<title>Node3&#45;&gt;Node1</title>
<path fill="none" stroke="#9a32cd" stroke-dasharray="5,2" d="M1745.24,-320.11C1787.45,-367.49 1904.93,-499.35 1937.84,-536.28"/>
<polygon fill="#9a32cd" stroke="#9a32cd" points="1747.75,-317.66 1738.49,-312.53 1742.53,-322.32 1747.75,-317.66"/>
<text text-anchor="middle" x="1832.5" y="-450" font-family="Helvetica,sans-Serif" font-size="10.00"> m_sim</text>
</g>
<!-- Node9 -->
<g id="node9" class="node">
<title>Node9</title>
<g id="a_node9"><a xlink:href="classamr__wind_1_1pde_1_1_p_d_e_mgr.html" target="_top" xlink:title="PDE systems manager.">
<polygon fill="white" stroke="black" points="1881,-74.5 1881,-93.5 2014,-93.5 2014,-74.5 1881,-74.5"/>
<text text-anchor="middle" x="1947.5" y="-81.5" font-family="Helvetica,sans-Serif" font-size="10.00">amr_wind::pde::PDEMgr</text>
</a>
</g>
</g>
<!-- Node3&#45;&gt;Node9 -->
<g id="edge19" class="edge">
<title>Node3&#45;&gt;Node9</title>
<path fill="none" stroke="#9a32cd" stroke-dasharray="5,2" d="M1737.69,-283.68C1748.85,-257.44 1771.57,-210.12 1802,-178 1839.05,-138.89 1895.44,-108.31 1925.65,-93.59"/>
<polygon fill="#9a32cd" stroke="#9a32cd" points="1734.33,-282.65 1733.75,-293.23 1740.8,-285.32 1734.33,-282.65"/>
<text text-anchor="middle" x="1832.5" y="-181" font-family="Helvetica,sans-Serif" font-size="10.00"> m_sim</text>
</g>
<!-- Node4 -->
<g id="node4" class="node">
<title>Node4</title>
<g id="a_node4"><a xlink:title=" ">
<polygon fill="white" stroke="#bfbfbf" points="1317.5,-192 1317.5,-222 1450.5,-222 1450.5,-192 1317.5,-192"/>
<text text-anchor="start" x="1325.5" y="-210" font-family="Helvetica,sans-Serif" font-size="10.00">std::unique_ptr&lt; amr</text>
<text text-anchor="middle" x="1384" y="-199" font-family="Helvetica,sans-Serif" font-size="10.00">_wind::helics_storage &gt;</text>
</a>
</g>
</g>
<!-- Node4&#45;&gt;Node3 -->
<g id="edge3" class="edge">
<title>Node4&#45;&gt;Node3</title>
<path fill="none" stroke="#9a32cd" stroke-dasharray="5,2" d="M1460.92,-210.47C1516.68,-215.18 1593.31,-226.2 1656,-252 1680.36,-262.03 1704.49,-281.6 1717.7,-293.37"/>
<polygon fill="#9a32cd" stroke="#9a32cd" points="1461.01,-206.97 1450.76,-209.67 1460.45,-213.95 1461.01,-206.97"/>
<text text-anchor="middle" x="1570" y="-255" font-family="Helvetica,sans-Serif" font-size="10.00"> m_helics</text>
</g>
<!-- Node5 -->
<g id="node5" class="node">
<title>Node5</title>
<g id="a_node5"><a xlink:title=" ">
<polygon fill="white" stroke="#bfbfbf" points="961.5,-271.5 961.5,-290.5 1079.5,-290.5 1079.5,-271.5 961.5,-271.5"/>
<text text-anchor="middle" x="1020.5" y="-278.5" font-family="Helvetica,sans-Serif" font-size="10.00">std::unique_ptr&lt; T &gt;</text>
</a>
</g>
</g>
<!-- Node5&#45;&gt;Node4 -->
<g id="edge4" class="edge">
<title>Node5&#45;&gt;Node4</title>
<path fill="none" stroke="orange" stroke-dasharray="5,2" d="M1043.03,-265.55C1058.83,-255.06 1081.25,-241.89 1103,-235 1173.91,-212.54 1259.51,-206.89 1317.25,-206"/>
<polygon fill="orange" stroke="orange" points="1040.83,-262.82 1034.55,-271.35 1044.78,-268.6 1040.83,-262.82"/>
<text text-anchor="start" x="1145" y="-249" font-family="Helvetica,sans-Serif" font-size="10.00"> &lt; amr_wind::helics</text>
<text text-anchor="middle" x="1193.5" y="-238" font-family="Helvetica,sans-Serif" font-size="10.00">_storage &gt;</text>
</g>
<!-- Node7 -->
<g id="node7" class="node">
<title>Node7</title>
<g id="a_node7"><a xlink:title=" ">
<polygon fill="white" stroke="#bfbfbf" points="1324,-143 1324,-173 1444,-173 1444,-143 1324,-143"/>
<text text-anchor="start" x="1332" y="-161" font-family="Helvetica,sans-Serif" font-size="10.00">std::unique_ptr&lt; amr</text>
<text text-anchor="middle" x="1384" y="-150" font-family="Helvetica,sans-Serif" font-size="10.00">_wind::IOManager &gt;</text>
</a>
</g>
</g>
<!-- Node5&#45;&gt;Node7 -->
<g id="edge7" class="edge">
<title>Node5&#45;&gt;Node7</title>
<path fill="none" stroke="orange" stroke-dasharray="5,2" d="M1032.68,-262.7C1046.43,-241.97 1071.83,-208.99 1103,-193 1172.74,-157.22 1264.68,-152.49 1323.83,-153.98"/>
<polygon fill="orange" stroke="orange" points="1029.64,-260.95 1027.2,-271.26 1035.54,-264.72 1029.64,-260.95"/>
<text text-anchor="middle" x="1193.5" y="-196" font-family="Helvetica,sans-Serif" font-size="10.00"> &lt; amr_wind::IOManager &gt;</text>
</g>
<!-- Node8 -->
<g id="node8" class="node">
<title>Node8</title>
<g id="a_node8"><a xlink:title=" ">
<polygon fill="white" stroke="#bfbfbf" points="1302,-449 1302,-479 1466,-479 1466,-449 1302,-449"/>
<text text-anchor="start" x="1310" y="-467" font-family="Helvetica,sans-Serif" font-size="10.00">std::unique_ptr&lt; amr</text>
<text text-anchor="middle" x="1384" y="-456" font-family="Helvetica,sans-Serif" font-size="10.00">_wind::PostProcessManager &gt;</text>
</a>
</g>
</g>
<!-- Node5&#45;&gt;Node8 -->
<g id="edge9" class="edge">
<title>Node5&#45;&gt;Node8</title>
<path fill="none" stroke="orange" stroke-dasharray="5,2" d="M1026.18,-300.77C1035.05,-333.46 1057.61,-398.22 1103,-429 1161.08,-468.39 1241.84,-474.65 1301.7,-472.53"/>
<polygon fill="orange" stroke="orange" points="1029.46,-299.48 1023.6,-290.65 1022.68,-301.21 1029.46,-299.48"/>
<text text-anchor="middle" x="1193.5" y="-476" font-family="Helvetica,sans-Serif" font-size="10.00"> &lt; amr_wind::PostProcessManager &gt;</text>
</g>
<!-- Node17 -->
<g id="node17" class="node">
<title>Node17</title>
<g id="a_node17"><a xlink:title=" ">
<polygon fill="white" stroke="#bfbfbf" points="1505,-65 1505,-95 1635,-95 1635,-65 1505,-65"/>
<text text-anchor="start" x="1513" y="-83" font-family="Helvetica,sans-Serif" font-size="10.00">std::unique_ptr&lt; amr</text>
<text text-anchor="middle" x="1570" y="-72" font-family="Helvetica,sans-Serif" font-size="10.00">_wind::pde::PDEBase &gt;</text>
</a>
</g>
</g>
<!-- Node5&#45;&gt;Node17 -->
<g id="edge22" class="edge">
<title>Node5&#45;&gt;Node17</title>
<path fill="none" stroke="orange" stroke-dasharray="5,2" d="M1027.08,-261.72C1037.03,-230.94 1060.84,-171.04 1103,-140 1222.56,-51.99 1407.65,-58.79 1504.67,-70.08"/>
<polygon fill="orange" stroke="orange" points="1023.73,-260.71 1024.13,-271.29 1030.42,-262.77 1023.73,-260.71"/>
<text text-anchor="middle" x="1193.5" y="-143" font-family="Helvetica,sans-Serif" font-size="10.00"> &lt; amr_wind::pde::PDEBase &gt;</text>
</g>
<!-- Node19 -->
<g id="node19" class="node">
<title>Node19</title>
<g id="a_node19"><a xlink:title=" ">
<polygon fill="white" stroke="#bfbfbf" points="1312.5,-400 1312.5,-430 1455.5,-430 1455.5,-400 1312.5,-400"/>
<text text-anchor="start" x="1320.5" y="-418" font-family="Helvetica,sans-Serif" font-size="10.00">std::unique_ptr&lt; amr</text>
<text text-anchor="middle" x="1384" y="-407" font-family="Helvetica,sans-Serif" font-size="10.00">_wind::OversetManager &gt;</text>
</a>
</g>
</g>
<!-- Node5&#45;&gt;Node19 -->
<g id="edge25" class="edge">
<title>Node5&#45;&gt;Node19</title>
<path fill="none" stroke="orange" stroke-dasharray="5,2" d="M1031.83,-299.46C1045.18,-321.43 1070.62,-357.35 1103,-375 1167.78,-410.32 1252.97,-417.96 1312.3,-418.24"/>
<polygon fill="orange" stroke="orange" points="1034.78,-297.59 1026.71,-290.73 1028.75,-301.13 1034.78,-297.59"/>
<text text-anchor="middle" x="1193.5" y="-421" font-family="Helvetica,sans-Serif" font-size="10.00"> &lt; amr_wind::OversetManager &gt;</text>
</g>
<!-- Node20 -->
<g id="node20" class="node">
<title>Node20</title>
<g id="a_node20"><a xlink:title=" ">
<polygon fill="white" stroke="#bfbfbf" points="1303.5,-339.5 1303.5,-380.5 1464.5,-380.5 1464.5,-339.5 1303.5,-339.5"/>
<text text-anchor="start" x="1311.5" y="-368.5" font-family="Helvetica,sans-Serif" font-size="10.00">std::unique_ptr&lt; amr</text>
<text text-anchor="start" x="1311.5" y="-357.5" font-family="Helvetica,sans-Serif" font-size="10.00">_wind::turbulence::Turbulence</text>
<text text-anchor="middle" x="1384" y="-346.5" font-family="Helvetica,sans-Serif" font-size="10.00">Model &gt;</text>
</a>
</g>
</g>
<!-- Node5&#45;&gt;Node20 -->
<g id="edge27" class="edge">
<title>Node5&#45;&gt;Node20</title>
<path fill="none" stroke="orange" stroke-dasharray="5,2" d="M1051.58,-294.54C1066.75,-300.92 1085.58,-308.17 1103,-313 1169.38,-331.39 1246.73,-343.71 1303.29,-351.1"/>
<polygon fill="orange" stroke="orange" points="1052.77,-291.24 1042.2,-290.51 1050.01,-297.68 1052.77,-291.24"/>
<text text-anchor="start" x="1133" y="-363" font-family="Helvetica,sans-Serif" font-size="10.00"> &lt; amr_wind::turbulence</text>
<text text-anchor="middle" x="1193.5" y="-352" font-family="Helvetica,sans-Serif" font-size="10.00">::TurbulenceModel &gt;</text>
</g>
<!-- Node23 -->
<g id="node23" class="node">
<title>Node23</title>
<g id="a_node23"><a xlink:title=" ">
<polygon fill="white" stroke="#bfbfbf" points="1324,-290 1324,-320 1444,-320 1444,-290 1324,-290"/>
<text text-anchor="start" x="1332" y="-308" font-family="Helvetica,sans-Serif" font-size="10.00">std::unique_ptr&lt; amr</text>
<text text-anchor="middle" x="1384" y="-297" font-family="Helvetica,sans-Serif" font-size="10.00">_wind::MeshMap &gt;</text>
</a>
</g>
</g>
<!-- Node5&#45;&gt;Node23 -->
<g id="edge33" class="edge">
<title>Node5&#45;&gt;Node23</title>
<path fill="none" stroke="orange" stroke-dasharray="5,2" d="M1089.7,-285.53C1157.26,-290.01 1259.65,-296.81 1323.86,-301.07"/>
<polygon fill="orange" stroke="orange" points="1089.79,-282.03 1079.58,-284.86 1089.33,-289.01 1089.79,-282.03"/>
<text text-anchor="middle" x="1193.5" y="-301" font-family="Helvetica,sans-Serif" font-size="10.00"> &lt; amr_wind::MeshMap &gt;</text>
</g>
<!-- Node24 -->
<g id="node24" class="node">
<title>Node24</title>
<g id="a_node24"><a xlink:title=" ">
<polygon fill="white" stroke="#bfbfbf" points="1320,-241 1320,-271 1448,-271 1448,-241 1320,-241"/>
<text text-anchor="start" x="1328" y="-259" font-family="Helvetica,sans-Serif" font-size="10.00">std::unique_ptr&lt; amr</text>
<text text-anchor="middle" x="1384" y="-248" font-family="Helvetica,sans-Serif" font-size="10.00">_wind::ExtSolverMgr &gt;</text>
</a>
</g>
</g>
<!-- Node5&#45;&gt;Node24 -->
<g id="edge35" class="edge">
<title>Node5&#45;&gt;Node24</title>
<path fill="none" stroke="orange" stroke-dasharray="5,2" d="M1090.04,-273.17C1094.42,-272.75 1098.77,-272.35 1103,-272 1177.36,-265.77 1263.03,-261.27 1319.82,-258.65"/>
<polygon fill="orange" stroke="orange" points="1089.39,-269.71 1079.78,-274.19 1090.08,-276.68 1089.39,-269.71"/>
<text text-anchor="middle" x="1193.5" y="-275" font-family="Helvetica,sans-Serif" font-size="10.00"> &lt; amr_wind::ExtSolverMgr &gt;</text>
</g>
<!-- Node27 -->
<g id="node27" class="node">
<title>Node27</title>
<g id="a_node27"><a xlink:title=" ">
<polygon fill="white" stroke="#bfbfbf" points="1484,-531 1484,-561 1656,-561 1656,-531 1484,-531"/>
<text text-anchor="start" x="1492" y="-549" font-family="Helvetica,sans-Serif" font-size="10.00">std::unique_ptr&lt; amr</text>
<text text-anchor="middle" x="1570" y="-538" font-family="Helvetica,sans-Serif" font-size="10.00">_wind::RefineCriteriaManager &gt;</text>
</a>
</g>
</g>
<!-- Node5&#45;&gt;Node27 -->
<g id="edge41" class="edge">
<title>Node5&#45;&gt;Node27</title>
<path fill="none" stroke="orange" stroke-dasharray="5,2" d="M1023.15,-300.88C1027.72,-342.54 1044.41,-439.19 1103,-488 1159.14,-534.77 1365.13,-544.48 1483.6,-546.1"/>
<polygon fill="orange" stroke="orange" points="1026.6,-300.28 1022.15,-290.67 1019.64,-300.96 1026.6,-300.28"/>
<text text-anchor="start" x="1125.5" y="-550" font-family="Helvetica,sans-Serif" font-size="10.00"> &lt; amr_wind::RefineCriteria</text>
<text text-anchor="middle" x="1193.5" y="-539" font-family="Helvetica,sans-Serif" font-size="10.00">Manager &gt;</text>
</g>
<!-- Node6 -->
<g id="node6" class="node">
<title>Node6</title>
<g id="a_node6"><a xlink:title=" ">
<polygon fill="white" stroke="#bfbfbf" points="37.5,-230.5 37.5,-249.5 66.5,-249.5 66.5,-230.5 37.5,-230.5"/>
<text text-anchor="middle" x="52" y="-237.5" font-family="Helvetica,sans-Serif" font-size="10.00">T</text>
</a>
</g>
</g>
<!-- Node6&#45;&gt;Node5 -->
<g id="edge5" class="edge">
<title>Node6&#45;&gt;Node5</title>
<path fill="none" stroke="#9a32cd" stroke-dasharray="5,2" d="M77.05,-236.91C113.37,-232.52 184.4,-225 245,-225 245,-225 245,-225 732.5,-225 828.19,-225 938.57,-255.36 990.12,-271.37"/>
<polygon fill="#9a32cd" stroke="#9a32cd" points="76.44,-233.46 66.94,-238.16 77.3,-240.41 76.44,-233.46"/>
<text text-anchor="middle" x="509" y="-228" font-family="Helvetica,sans-Serif" font-size="10.00"> ptr</text>
</g>
<!-- Node15 -->
<g id="node15" class="node">
<title>Node15</title>
<g id="a_node15"><a xlink:title=" ">
<polygon fill="white" stroke="#bfbfbf" points="189,-265 189,-295 303,-295 303,-265 189,-265"/>
<text text-anchor="start" x="197" y="-283" font-family="Helvetica,sans-Serif" font-size="10.00">std::unordered_map</text>
<text text-anchor="middle" x="246" y="-272" font-family="Helvetica,sans-Serif" font-size="10.00">&lt; K, T &gt;</text>
</a>
</g>
</g>
<!-- Node6&#45;&gt;Node15 -->
<g id="edge18" class="edge">
<title>Node6&#45;&gt;Node15</title>
<path fill="none" stroke="#9a32cd" stroke-dasharray="5,2" d="M76.45,-244.89C104.19,-250.67 151.31,-260.48 188.69,-268.27"/>
<polygon fill="#9a32cd" stroke="#9a32cd" points="77,-241.43 66.5,-242.81 75.58,-248.28 77,-241.43"/>
<text text-anchor="middle" x="146.5" y="-267" font-family="Helvetica,sans-Serif" font-size="10.00"> elements</text>
</g>
<!-- Node7&#45;&gt;Node3 -->
<g id="edge6" class="edge">
<title>Node7&#45;&gt;Node3</title>
<path fill="none" stroke="#9a32cd" stroke-dasharray="5,2" d="M1454.25,-153.47C1512.33,-152.94 1595.3,-160.1 1656,-198 1693.5,-221.41 1716.35,-272.33 1724.55,-293.49"/>
<polygon fill="#9a32cd" stroke="#9a32cd" points="1454,-149.97 1444.06,-153.64 1454.12,-156.97 1454,-149.97"/>
<text text-anchor="middle" x="1570" y="-201" font-family="Helvetica,sans-Serif" font-size="10.00"> m_io_mgr</text>
</g>
<!-- Node8&#45;&gt;Node3 -->
<g id="edge8" class="edge">
<title>Node8&#45;&gt;Node3</title>
<path fill="none" stroke="#9a32cd" stroke-dasharray="5,2" d="M1459.56,-443.69C1461.8,-442.23 1463.96,-440.67 1466,-439 1478.93,-428.42 1470.23,-415.46 1484,-406 1547.56,-362.31 1587.79,-418.99 1656,-383 1687.57,-366.35 1712.11,-330.01 1722.54,-312.63"/>
<polygon fill="#9a32cd" stroke="#9a32cd" points="1457.52,-440.82 1450.55,-448.8 1460.97,-446.91 1457.52,-440.82"/>
<text text-anchor="middle" x="1570" y="-409" font-family="Helvetica,sans-Serif" font-size="10.00"> m_post_mgr</text>
</g>
<!-- Node9&#45;&gt;Node3 -->
<g id="edge10" class="edge">
<title>Node9&#45;&gt;Node3</title>
<path fill="none" stroke="#9a32cd" stroke-dasharray="5,2" d="M1934.48,-102.16C1919.2,-124.64 1891.36,-163.56 1863,-193 1823.29,-234.22 1768.8,-275.16 1743.69,-293.3"/>
<polygon fill="#9a32cd" stroke="#9a32cd" points="1937.56,-103.86 1940.23,-93.61 1931.75,-99.96 1937.56,-103.86"/>
<text text-anchor="middle" x="1832.5" y="-251" font-family="Helvetica,sans-Serif" font-size="10.00"> m_pde_mgr</text>
</g>
<!-- Node10 -->
<g id="node10" class="node">
<title>Node10</title>
<g id="a_node10"><a xlink:href="classamr__wind_1_1_coll_mgr.html" target="_top" xlink:title=" ">
<polygon fill="white" stroke="black" points="1134,-23 1134,-53 1253,-53 1253,-23 1134,-23"/>
<text text-anchor="start" x="1142" y="-41" font-family="Helvetica,sans-Serif" font-size="10.00">amr_wind::CollMgr&lt;</text>
<text text-anchor="middle" x="1193.5" y="-30" font-family="Helvetica,sans-Serif" font-size="10.00"> PDEMgr, PDEBase &gt;</text>
</a>
</g>
</g>
<!-- Node10&#45;&gt;Node9 -->
<g id="edge11" class="edge">
<title>Node10&#45;&gt;Node9</title>
<path fill="none" stroke="midnightblue" d="M1263.31,-39.19C1353.56,-41.06 1516.78,-45.5 1656,-55 1733.37,-60.28 1822.02,-69.61 1880.84,-76.26"/>
<polygon fill="midnightblue" stroke="midnightblue" points="1263.28,-35.69 1253.21,-38.98 1263.13,-42.69 1263.28,-35.69"/>
</g>
<!-- Node11 -->
<g id="node11" class="node">
<title>Node11</title>
<g id="a_node11"><a xlink:href="classamr__wind_1_1_coll_mgr.html" target="_top" xlink:title="Interface to manage objects of sub&#45;classes based on factory registration.">
<polygon fill="white" stroke="black" points="667,-62.5 667,-103.5 796,-103.5 796,-62.5 667,-62.5"/>
<text text-anchor="start" x="675" y="-91.5" font-family="Helvetica,sans-Serif" font-size="10.00">amr_wind::CollMgr&lt;</text>
<text text-anchor="start" x="675" y="-80.5" font-family="Helvetica,sans-Serif" font-size="10.00"> Collection, Type, allow</text>
<text text-anchor="middle" x="731.5" y="-69.5" font-family="Helvetica,sans-Serif" font-size="10.00">_duplicates &gt;</text>
</a>
</g>
</g>
<!-- Node11&#45;&gt;Node10 -->
<g id="edge12" class="edge">
<title>Node11&#45;&gt;Node10</title>
<path fill="none" stroke="orange" stroke-dasharray="5,2" d="M805.94,-69.12C808.66,-68.72 811.35,-68.35 814,-68 926.74,-53.2 1059.4,-44.72 1133.95,-40.77"/>
<polygon fill="orange" stroke="orange" points="805.37,-65.67 796.02,-70.66 806.44,-72.59 805.37,-65.67"/>
<text text-anchor="middle" x="876" y="-71" font-family="Helvetica,sans-Serif" font-size="10.00"> &lt; PDEMgr, PDEBase &gt;</text>
</g>
<!-- Node26 -->
<g id="node26" class="node">
<title>Node26</title>
<g id="a_node26"><a xlink:href="classamr__wind_1_1_coll_mgr.html" target="_top" xlink:title=" ">
<polygon fill="white" stroke="black" points="956,-68 956,-98 1085,-98 1085,-68 956,-68"/>
<text text-anchor="start" x="964" y="-86" font-family="Helvetica,sans-Serif" font-size="10.00">amr_wind::CollMgr&lt;</text>
<text text-anchor="middle" x="1020.5" y="-75" font-family="Helvetica,sans-Serif" font-size="10.00"> PhysicsMgr, Physics &gt;</text>
</a>
</g>
</g>
<!-- Node11&#45;&gt;Node26 -->
<g id="edge38" class="edge">
<title>Node11&#45;&gt;Node26</title>
<path fill="none" stroke="orange" stroke-dasharray="5,2" d="M806.47,-83C852.77,-83 911.81,-83 955.98,-83"/>
<polygon fill="orange" stroke="orange" points="806.19,-79.5 796.19,-83 806.19,-86.5 806.19,-79.5"/>
<text text-anchor="middle" x="876" y="-86" font-family="Helvetica,sans-Serif" font-size="10.00"> &lt; PhysicsMgr, Physics &gt;</text>
</g>
<!-- Node12 -->
<g id="node12" class="node">
<title>Node12</title>
<g id="a_node12"><a xlink:title=" ">
<polygon fill="white" stroke="#bfbfbf" points="452,-108 452,-138 566,-138 566,-108 452,-108"/>
<text text-anchor="start" x="460" y="-126" font-family="Helvetica,sans-Serif" font-size="10.00">std::unordered_map</text>
<text text-anchor="middle" x="509" y="-115" font-family="Helvetica,sans-Serif" font-size="10.00">&lt; std::string, int &gt;</text>
</a>
</g>
</g>
<!-- Node12&#45;&gt;Node11 -->
<g id="edge13" class="edge">
<title>Node12&#45;&gt;Node11</title>
<path fill="none" stroke="#9a32cd" stroke-dasharray="5,2" d="M576.17,-111C604.95,-105.78 638.52,-99.69 666.99,-94.52"/>
<polygon fill="#9a32cd" stroke="#9a32cd" points="575.43,-107.57 566.21,-112.8 576.68,-114.46 575.43,-107.57"/>
<text text-anchor="middle" x="618.5" y="-111" font-family="Helvetica,sans-Serif" font-size="10.00"> m_obj_map</text>
</g>
<!-- Node13 -->
<g id="node13" class="node">
<title>Node13</title>
<g id="a_node13"><a xlink:title=" ">
<polygon fill="white" stroke="#bfbfbf" points="213.5,-113.5 213.5,-132.5 278.5,-132.5 278.5,-113.5 213.5,-113.5"/>
<text text-anchor="middle" x="246" y="-120.5" font-family="Helvetica,sans-Serif" font-size="10.00">std::string</text>
</a>
</g>
</g>
<!-- Node13&#45;&gt;Node9 -->
<g id="edge20" class="edge">
<title>Node13&#45;&gt;Node9</title>
<path fill="none" stroke="#9a32cd" stroke-dasharray="5,2" d="M265.9,-106.88C307.01,-73.52 408.86,0 508,0 508,0 508,0 1730,0 1811.44,0 1899.15,-52.3 1932.54,-74.36"/>
<polygon fill="#9a32cd" stroke="#9a32cd" points="263.55,-104.28 258.07,-113.35 268.01,-109.68 263.55,-104.28"/>
<text text-anchor="middle" x="1020.5" y="-3" font-family="Helvetica,sans-Serif" font-size="10.00"> m_scheme</text>
</g>
<!-- Node13&#45;&gt;Node12 -->
<g id="edge14" class="edge">
<title>Node13&#45;&gt;Node12</title>
<path fill="none" stroke="#9a32cd" stroke-dasharray="5,2" d="M288.84,-123C333.01,-123 402.86,-123 451.81,-123"/>
<polygon fill="#9a32cd" stroke="#9a32cd" points="288.74,-119.5 278.74,-123 288.74,-126.5 288.74,-119.5"/>
<text text-anchor="middle" x="375.5" y="-126" font-family="Helvetica,sans-Serif" font-size="10.00"> keys</text>
</g>
<!-- Node22 -->
<g id="node22" class="node">
<title>Node22</title>
<g id="a_node22"><a xlink:title=" ">
<polygon fill="white" stroke="#bfbfbf" points="448,-277 448,-307 570,-307 570,-277 448,-277"/>
<text text-anchor="start" x="456" y="-295" font-family="Helvetica,sans-Serif" font-size="10.00">std::unordered_map</text>
<text text-anchor="middle" x="509" y="-284" font-family="Helvetica,sans-Serif" font-size="10.00">&lt; std::string, size_t &gt;</text>
</a>
</g>
</g>
<!-- Node13&#45;&gt;Node22 -->
<g id="edge30" class="edge">
<title>Node13&#45;&gt;Node22</title>
<path fill="none" stroke="#9a32cd" stroke-dasharray="5,2" d="M254.49,-142.03C265.38,-167.23 287.94,-211.34 321,-236 322.42,-237.06 402.04,-260.71 456.92,-276.93"/>
<polygon fill="#9a32cd" stroke="#9a32cd" points="257.61,-140.4 250.55,-132.5 251.14,-143.08 257.61,-140.4"/>
<text text-anchor="middle" x="375.5" y="-271" font-family="Helvetica,sans-Serif" font-size="10.00"> keys</text>
</g>
<!-- Node14 -->
<g id="node14" class="node">
<title>Node14</title>
<g id="a_node14"><a xlink:title=" ">
<polygon fill="white" stroke="#bfbfbf" points="0,-108 0,-138 104,-138 104,-108 0,-108"/>
<text text-anchor="start" x="8" y="-126" font-family="Helvetica,sans-Serif" font-size="10.00">std::basic_string&lt;</text>
<text text-anchor="middle" x="52" y="-115" font-family="Helvetica,sans-Serif" font-size="10.00"> Char &gt;</text>
</a>
</g>
</g>
<!-- Node14&#45;&gt;Node13 -->
<g id="edge15" class="edge">
<title>Node14&#45;&gt;Node13</title>
<path fill="none" stroke="midnightblue" d="M114.23,-123C147.25,-123 186.63,-123 213.48,-123"/>
<polygon fill="midnightblue" stroke="midnightblue" points="114.2,-119.5 104.2,-123 114.2,-126.5 114.2,-119.5"/>
</g>
<!-- Node15&#45;&gt;Node12 -->
<g id="edge16" class="edge">
<title>Node15&#45;&gt;Node12</title>
<path fill="none" stroke="orange" stroke-dasharray="5,2" d="M274.02,-258.49C287.77,-247.93 304.92,-235.29 321,-225 374.11,-191.01 439.42,-157.05 477.13,-138.16"/>
<polygon fill="orange" stroke="orange" points="271.7,-255.87 265.95,-264.76 275.99,-261.39 271.7,-255.87"/>
<text text-anchor="middle" x="375.5" y="-228" font-family="Helvetica,sans-Serif" font-size="10.00"> &lt; std::string, int &gt;</text>
</g>
<!-- Node15&#45;&gt;Node22 -->
<g id="edge31" class="edge">
<title>Node15&#45;&gt;Node22</title>
<path fill="none" stroke="orange" stroke-dasharray="5,2" d="M313.56,-283.06C354.89,-284.96 407.59,-287.38 447.7,-289.23"/>
<polygon fill="orange" stroke="orange" points="313.46,-279.55 303.31,-282.59 313.14,-286.54 313.46,-279.55"/>
<text text-anchor="middle" x="375.5" y="-292" font-family="Helvetica,sans-Serif" font-size="10.00"> &lt; std::string, size_t &gt;</text>
</g>
<!-- Node16 -->
<g id="node16" class="node">
<title>Node16</title>
<g id="a_node16"><a xlink:title=" ">
<polygon fill="white" stroke="#bfbfbf" points="37.5,-282.5 37.5,-301.5 66.5,-301.5 66.5,-282.5 37.5,-282.5"/>
<text text-anchor="middle" x="52" y="-289.5" font-family="Helvetica,sans-Serif" font-size="10.00">K</text>
</a>
</g>
</g>
<!-- Node16&#45;&gt;Node15 -->
<g id="edge17" class="edge">
<title>Node16&#45;&gt;Node15</title>
<path fill="none" stroke="#9a32cd" stroke-dasharray="5,2" d="M76.82,-290.51C104.61,-288.77 151.48,-285.85 188.69,-283.52"/>
<polygon fill="#9a32cd" stroke="#9a32cd" points="76.26,-287.04 66.5,-291.16 76.7,-294.03 76.26,-287.04"/>
<text text-anchor="middle" x="146.5" y="-291" font-family="Helvetica,sans-Serif" font-size="10.00"> keys</text>
</g>
<!-- Node17&#45;&gt;Node9 -->
<g id="edge21" class="edge">
<title>Node17&#45;&gt;Node9</title>
<path fill="none" stroke="#9a32cd" stroke-dasharray="5,2" d="M1645.43,-80.79C1714.08,-81.52 1815.01,-82.6 1880.75,-83.3"/>
<polygon fill="#9a32cd" stroke="#9a32cd" points="1645.16,-77.29 1635.12,-80.68 1645.09,-84.29 1645.16,-77.29"/>
<text text-anchor="middle" x="1729" y="-86" font-family="Helvetica,sans-Serif" font-size="10.00"> m_icns</text>
</g>
<!-- Node18 -->
<g id="node18" class="node">
<title>Node18</title>
<g id="a_node18"><a xlink:href="classamr__wind_1_1_sim_time.html" target="_top" xlink:title="Time manager for simulations.">
<polygon fill="white" stroke="black" points="1327,-498.5 1327,-517.5 1441,-517.5 1441,-498.5 1327,-498.5"/>
<text text-anchor="middle" x="1384" y="-505.5" font-family="Helvetica,sans-Serif" font-size="10.00">amr_wind::SimTime</text>
</a>
</g>
</g>
<!-- Node18&#45;&gt;Node1 -->
<g id="edge39" class="edge">
<title>Node18&#45;&gt;Node1</title>
<path fill="none" stroke="#9a32cd" stroke-dasharray="5,2" d="M1451.37,-510.63C1506.25,-512.93 1586.22,-516.6 1656,-521 1712.95,-524.59 1727.14,-526.16 1784,-531 1835.1,-535.35 1895.17,-541.05 1925.99,-544.01"/>
<polygon fill="#9a32cd" stroke="#9a32cd" points="1451.22,-507.12 1441.08,-510.2 1450.93,-514.11 1451.22,-507.12"/>
<text text-anchor="middle" x="1729" y="-534" font-family="Helvetica,sans-Serif" font-size="10.00"> m_time</text>
</g>
<!-- Node18&#45;&gt;Node3 -->
<g id="edge23" class="edge">
<title>Node18&#45;&gt;Node3</title>
<path fill="none" stroke="#9a32cd" stroke-dasharray="5,2" d="M1450.79,-497.85C1456.31,-495.24 1461.49,-492.01 1466,-488 1483.02,-472.86 1466.18,-454.19 1484,-440 1544.33,-391.96 1591.08,-458.63 1656,-417 1695.8,-391.48 1717.62,-335.25 1725.05,-312.67"/>
<polygon fill="#9a32cd" stroke="#9a32cd" points="1449.23,-494.7 1441.24,-501.66 1451.82,-501.2 1449.23,-494.7"/>
<text text-anchor="middle" x="1570" y="-443" font-family="Helvetica,sans-Serif" font-size="10.00"> m_time</text>
</g>
<!-- Node19&#45;&gt;Node3 -->
<g id="edge24" class="edge">
<title>Node19&#45;&gt;Node3</title>
<path fill="none" stroke="#9a32cd" stroke-dasharray="5,2" d="M1455.18,-395.77C1458.92,-394 1462.55,-392.08 1466,-390 1475.69,-384.16 1473.86,-377.01 1484,-372 1553.14,-337.82 1583.57,-375.5 1656,-349 1679.4,-340.44 1703.1,-323.3 1716.62,-312.53"/>
<polygon fill="#9a32cd" stroke="#9a32cd" points="1453.48,-392.68 1445.69,-399.87 1456.26,-399.11 1453.48,-392.68"/>
<text text-anchor="middle" x="1570" y="-375" font-family="Helvetica,sans-Serif" font-size="10.00"> m_overset_mgr</text>
</g>
<!-- Node20&#45;&gt;Node3 -->
<g id="edge26" class="edge">
<title>Node20&#45;&gt;Node3</title>
<path fill="none" stroke="#9a32cd" stroke-dasharray="5,2" d="M1474.68,-339.72C1477.82,-339.12 1480.94,-338.54 1484,-338 1559.94,-324.51 1579.73,-326.45 1656,-315 1661.76,-314.13 1667.78,-313.19 1673.78,-312.23"/>
<polygon fill="#9a32cd" stroke="#9a32cd" points="1473.72,-336.34 1464.58,-341.69 1475.07,-343.21 1473.72,-336.34"/>
<text text-anchor="middle" x="1570" y="-341" font-family="Helvetica,sans-Serif" font-size="10.00"> m_turbulence</text>
</g>
<!-- Node21 -->
<g id="node21" class="node">
<title>Node21</title>
<g id="a_node21"><a xlink:href="classamr__wind_1_1_field_repo.html" target="_top" xlink:title="Field Repository.">
<polygon fill="white" stroke="black" points="1324.5,-574.5 1324.5,-593.5 1443.5,-593.5 1443.5,-574.5 1324.5,-574.5"/>
<text text-anchor="middle" x="1384" y="-581.5" font-family="Helvetica,sans-Serif" font-size="10.00">amr_wind::FieldRepo</text>
</a>
</g>
</g>
<!-- Node21&#45;&gt;Node1 -->
<g id="edge42" class="edge">
<title>Node21&#45;&gt;Node1</title>
<path fill="none" stroke="#9a32cd" stroke-dasharray="5,2" d="M1453.8,-583.05C1546.86,-581.19 1717.89,-575.75 1863,-560 1884.48,-557.67 1908.82,-553.4 1925.66,-550.18"/>
<polygon fill="#9a32cd" stroke="#9a32cd" points="1453.6,-579.55 1443.67,-583.24 1453.74,-586.55 1453.6,-579.55"/>
<text text-anchor="middle" x="1729" y="-578" font-family="Helvetica,sans-Serif" font-size="10.00"> m_repo</text>
</g>
<!-- Node21&#45;&gt;Node3 -->
<g id="edge28" class="edge">
<title>Node21&#45;&gt;Node3</title>
<path fill="none" stroke="#9a32cd" stroke-dasharray="5,2" d="M1408.62,-568.69C1425.13,-557.68 1447.46,-542.15 1466,-527 1474.52,-520.04 1474.58,-515.69 1484,-510 1553.17,-468.2 1595.47,-504.55 1656,-451 1700.52,-411.62 1720.22,-338.53 1726.05,-312.51"/>
<polygon fill="#9a32cd" stroke="#9a32cd" points="1406.51,-565.89 1400.1,-574.32 1410.37,-571.73 1406.51,-565.89"/>
<text text-anchor="middle" x="1570" y="-513" font-family="Helvetica,sans-Serif" font-size="10.00"> m_repo</text>
</g>
<!-- Node22&#45;&gt;Node21 -->
<g id="edge29" class="edge">
<title>Node22&#45;&gt;Node21</title>
<path fill="none" stroke="#9a32cd" stroke-dasharray="5,2" d="M543.26,-312.23C630.98,-364.45 877.42,-503.72 1103,-562 1177.71,-581.3 1267.05,-585.15 1324.38,-585.27"/>
<polygon fill="#9a32cd" stroke="#9a32cd" points="544.93,-309.15 534.55,-307.02 541.33,-315.16 544.93,-309.15"/>
<text text-anchor="middle" x="876" y="-521" font-family="Helvetica,sans-Serif" font-size="10.00"> m_fid_map</text>
<text text-anchor="middle" x="876" y="-510" font-family="Helvetica,sans-Serif" font-size="10.00">m_int_fid_map</text>
</g>
<!-- Node23&#45;&gt;Node3 -->
<g id="edge32" class="edge">
<title>Node23&#45;&gt;Node3</title>
<path fill="none" stroke="#9a32cd" stroke-dasharray="5,2" d="M1454.42,-304.25C1464.35,-304.15 1474.43,-304.07 1484,-304 1549.24,-303.54 1624.28,-303.27 1673.73,-303.13"/>
<polygon fill="#9a32cd" stroke="#9a32cd" points="1454.12,-300.75 1444.15,-304.34 1454.19,-307.75 1454.12,-300.75"/>
<text text-anchor="middle" x="1570" y="-307" font-family="Helvetica,sans-Serif" font-size="10.00"> m_mesh_map</text>
</g>
<!-- Node24&#45;&gt;Node3 -->
<g id="edge34" class="edge">
<title>Node24&#45;&gt;Node3</title>
<path fill="none" stroke="#9a32cd" stroke-dasharray="5,2" d="M1458.09,-263.48C1512.74,-269.42 1589.23,-278.46 1656,-289 1664.3,-290.31 1673.11,-291.88 1681.61,-293.48"/>
<polygon fill="#9a32cd" stroke="#9a32cd" points="1458.47,-260 1448.15,-262.41 1457.72,-266.96 1458.47,-260"/>
<text text-anchor="middle" x="1570" y="-292" font-family="Helvetica,sans-Serif" font-size="10.00"> m_ext_solver_mgr</text>
</g>
<!-- Node25 -->
<g id="node25" class="node">
<title>Node25</title>
<g id="a_node25"><a xlink:href="classamr__wind_1_1_physics_mgr.html" target="_top" xlink:title="A collection of Physics models instances that are active during a simulation.">
<polygon fill="white" stroke="black" points="1321,-104.5 1321,-123.5 1447,-123.5 1447,-104.5 1321,-104.5"/>
<text text-anchor="middle" x="1384" y="-111.5" font-family="Helvetica,sans-Serif" font-size="10.00">amr_wind::PhysicsMgr</text>
</a>
</g>
</g>
<!-- Node25&#45;&gt;Node3 -->
<g id="edge36" class="edge">
<title>Node25&#45;&gt;Node3</title>
<path fill="none" stroke="#9a32cd" stroke-dasharray="5,2" d="M1457.03,-112.89C1526.41,-113.21 1625.23,-117.79 1656,-140 1708.93,-178.21 1723.52,-264.16 1727.01,-293.2"/>
<polygon fill="#9a32cd" stroke="#9a32cd" points="1457.03,-109.39 1447.02,-112.87 1457.01,-116.39 1457.03,-109.39"/>
<text text-anchor="middle" x="1570" y="-143" font-family="Helvetica,sans-Serif" font-size="10.00"> m_physics_mgr</text>
</g>
<!-- Node26&#45;&gt;Node25 -->
<g id="edge37" class="edge">
<title>Node26&#45;&gt;Node25</title>
<path fill="none" stroke="midnightblue" d="M1095.32,-77.07C1148.18,-74.26 1220.86,-73.35 1284,-83 1310.53,-87.06 1339.71,-96.89 1359.48,-104.41"/>
<polygon fill="midnightblue" stroke="midnightblue" points="1094.81,-73.59 1085.02,-77.65 1095.21,-80.58 1094.81,-73.59"/>
</g>
<!-- Node27&#45;&gt;Node1 -->
<g id="edge40" class="edge">
<title>Node27&#45;&gt;Node1</title>
<path fill="none" stroke="#9a32cd" stroke-dasharray="5,2" d="M1666.45,-546C1754.17,-546 1877.68,-546 1925.99,-546"/>
<polygon fill="#9a32cd" stroke="#9a32cd" points="1666.21,-542.5 1656.21,-546 1666.21,-549.5 1666.21,-542.5"/>
<text text-anchor="middle" x="1729" y="-549" font-family="Helvetica,sans-Serif" font-size="10.00"> m_mesh_refiner</text>
</g>
</g>
</svg>
