<?xml version="1.0" encoding="UTF-8" standalone="no"?>
<!DOCTYPE svg PUBLIC "-//W3C//DTD SVG 1.1//EN"
 "http://www.w3.org/Graphics/SVG/1.1/DTD/svg11.dtd">
<!-- Generated by graphviz version 2.43.0 (0)
 -->
<!-- Title: amr_wind::turbulence::Laminar&lt; Transport &gt; Pages: 1 -->
<svg width="193pt" height="332pt"
 viewBox="0.00 0.00 192.50 332.00" xmlns="http://www.w3.org/2000/svg" xmlns:xlink="http://www.w3.org/1999/xlink">
<g id="graph0" class="graph" transform="scale(1 1) rotate(0) translate(4 328)">
<title>amr_wind::turbulence::Laminar&lt; Transport &gt;</title>
<polygon fill="white" stroke="transparent" points="-4,4 -4,-328 188.5,-328 188.5,4 -4,4"/>
<!-- Node1 -->
<g id="node1" class="node">
<title>Node1</title>
<g id="a_node1"><a xlink:title="Laminar model.">
<polygon fill="#bfbfbf" stroke="black" points="19.5,-0.5 19.5,-30.5 149.5,-30.5 149.5,-0.5 19.5,-0.5"/>
<text text-anchor="start" x="27.5" y="-18.5" font-family="Helvetica,sans-Serif" font-size="10.00">amr_wind::turbulence</text>
<text text-anchor="middle" x="84.5" y="-7.5" font-family="Helvetica,sans-Serif" font-size="10.00">::Laminar&lt; Transport &gt;</text>
</a>
</g>
</g>
<!-- Node2 -->
<g id="node2" class="node">
<title>Node2</title>
<g id="a_node2"><a xlink:href="classamr__wind_1_1turbulence_1_1_turb_model.html" target="_top" xlink:title="Turbulence model with a specific transport model.">
<polygon fill="white" stroke="black" points="14.5,-68.5 14.5,-98.5 154.5,-98.5 154.5,-68.5 14.5,-68.5"/>
<text text-anchor="start" x="22.5" y="-86.5" font-family="Helvetica,sans-Serif" font-size="10.00">amr_wind::turbulence</text>
<text text-anchor="middle" x="84.5" y="-75.5" font-family="Helvetica,sans-Serif" font-size="10.00">::TurbModel&lt; Transport &gt;</text>
</a>
</g>
</g>
<!-- Node2&#45;&gt;Node1 -->
<g id="edge1" class="edge">
<title>Node2&#45;&gt;Node1</title>
<path fill="none" stroke="midnightblue" d="M84.5,-58.03C84.5,-48.86 84.5,-38.74 84.5,-30.79"/>
<polygon fill="midnightblue" stroke="midnightblue" points="81,-58.18 84.5,-68.18 88,-58.18 81,-58.18"/>
</g>
<!-- Node3 -->
<g id="node3" class="node">
<title>Node3</title>
<g id="a_node3"><a xlink:href="classamr__wind_1_1turbulence_1_1_turbulence_model.html" target="_top" xlink:title="Abstract representation of a turbulence model.">
<polygon fill="white" stroke="black" points="23.5,-136.5 23.5,-166.5 145.5,-166.5 145.5,-136.5 23.5,-136.5"/>
<text text-anchor="start" x="31.5" y="-154.5" font-family="Helvetica,sans-Serif" font-size="10.00">amr_wind::turbulence</text>
<text text-anchor="middle" x="84.5" y="-143.5" font-family="Helvetica,sans-Serif" font-size="10.00">::TurbulenceModel</text>
</a>
</g>
</g>
<!-- Node3&#45;&gt;Node2 -->
<g id="edge2" class="edge">
<title>Node3&#45;&gt;Node2</title>
<path fill="none" stroke="midnightblue" d="M84.5,-126.03C84.5,-116.86 84.5,-106.74 84.5,-98.79"/>
<polygon fill="midnightblue" stroke="midnightblue" points="81,-126.18 84.5,-136.18 88,-126.18 81,-126.18"/>
</g>
<!-- Node4 -->
<g id="node4" class="node">
<title>Node4</title>
<g id="a_node4"><a xlink:href="structamr__wind_1_1_factory.html" target="_top" xlink:title=" ">
<polygon fill="white" stroke="black" points="0,-204.5 0,-234.5 169,-234.5 169,-204.5 0,-204.5"/>
<text text-anchor="start" x="8" y="-222.5" font-family="Helvetica,sans-Serif" font-size="10.00">amr_wind::Factory&lt;</text>
<text text-anchor="middle" x="84.5" y="-211.5" font-family="Helvetica,sans-Serif" font-size="10.00"> TurbulenceModel, CFDSim &amp; &gt;</text>
</a>
</g>
</g>
<!-- Node4&#45;&gt;Node3 -->
<g id="edge3" class="edge">
<title>Node4&#45;&gt;Node3</title>
<path fill="none" stroke="midnightblue" d="M84.5,-194.03C84.5,-184.86 84.5,-174.74 84.5,-166.79"/>
<polygon fill="midnightblue" stroke="midnightblue" points="81,-194.18 84.5,-204.18 88,-194.18 81,-194.18"/>
</g>
<!-- Node5 -->
<g id="node5" class="node">
<title>Node5</title>
<g id="a_node5"><a xlink:href="structamr__wind_1_1_factory.html" target="_top" xlink:title="Runtime selection of options based on string keyword lookup.">
<polygon fill="white" stroke="black" points="27.5,-293.5 27.5,-323.5 141.5,-323.5 141.5,-293.5 27.5,-293.5"/>
<text text-anchor="start" x="35.5" y="-311.5" font-family="Helvetica,sans-Serif" font-size="10.00">amr_wind::Factory&lt;</text>
<text text-anchor="middle" x="84.5" y="-300.5" font-family="Helvetica,sans-Serif" font-size="10.00"> Base, Args &gt;</text>
</a>
</g>
</g>
<!-- Node5&#45;&gt;Node4 -->
<g id="edge4" class="edge">
<title>Node5&#45;&gt;Node4</title>
<path fill="none" stroke="orange" stroke-dasharray="5,2" d="M84.5,-283.09C84.5,-267.44 84.5,-247.68 84.5,-234.6"/>
<polygon fill="orange" stroke="orange" points="81,-283.13 84.5,-293.13 88,-283.13 81,-283.13"/>
<text text-anchor="start" x="84.5" y="-267" font-family="Helvetica,sans-Serif" font-size="10.00"> &lt; TurbulenceModel,</text>
<text text-anchor="middle" x="134.5" y="-256" font-family="Helvetica,sans-Serif" font-size="10.00"> CFDSim &amp; &gt;</text>
</g>
</g>
</svg>
