<?xml version="1.0" encoding="UTF-8" standalone="no"?>
<!DOCTYPE svg PUBLIC "-//W3C//DTD SVG 1.1//EN"
 "http://www.w3.org/Graphics/SVG/1.1/DTD/svg11.dtd">
<!-- Generated by graphviz version 2.43.0 (0)
 -->
<!-- Title: amr_wind::pde::tke::SDRSrc Pages: 1 -->
<svg width="1266pt" height="148pt"
 viewBox="0.00 0.00 1266.00 148.00" xmlns="http://www.w3.org/2000/svg" xmlns:xlink="http://www.w3.org/1999/xlink">
<g id="graph0" class="graph" transform="scale(1 1) rotate(0) translate(4 144)">
<title>amr_wind::pde::tke::SDRSrc</title>
<polygon fill="white" stroke="transparent" points="-4,4 -4,-144 1262,-144 1262,4 -4,4"/>
<!-- Node1 -->
<g id="node1" class="node">
<title>Node1</title>
<g id="a_node1"><a xlink:title="Source terms for SDR equation.">
<polygon fill="#bfbfbf" stroke="black" points="1148,-72.5 1148,-102.5 1258,-102.5 1258,-72.5 1148,-72.5"/>
<text text-anchor="start" x="1156" y="-90.5" font-family="Helvetica,sans-Serif" font-size="10.00">amr_wind::pde::tke</text>
<text text-anchor="middle" x="1203" y="-79.5" font-family="Helvetica,sans-Serif" font-size="10.00">::SDRSrc</text>
</a>
</g>
</g>
<!-- Node2 -->
<g id="node2" class="node">
<title>Node2</title>
<g id="a_node2"><a xlink:title=" ">
<polygon fill="white" stroke="#bfbfbf" points="938,-94.5 938,-124.5 1054,-124.5 1054,-94.5 938,-94.5"/>
<text text-anchor="start" x="946" y="-112.5" font-family="Helvetica,sans-Serif" font-size="10.00">SDRSource::Register</text>
<text text-anchor="middle" x="996" y="-101.5" font-family="Helvetica,sans-Serif" font-size="10.00">&lt; SDRSrc &gt;</text>
</a>
</g>
</g>
<!-- Node2&#45;&gt;Node1 -->
<g id="edge1" class="edge">
<title>Node2&#45;&gt;Node1</title>
<path fill="none" stroke="midnightblue" d="M1064.41,-102.48C1085.42,-100.27 1108.68,-97.81 1130,-95.5 1135.75,-94.88 1141.76,-94.22 1147.75,-93.56"/>
<polygon fill="midnightblue" stroke="midnightblue" points="1063.87,-99.02 1054.29,-103.54 1064.6,-105.98 1063.87,-99.02"/>
</g>
<!-- Node3 -->
<g id="node3" class="node">
<title>Node3</title>
<g id="a_node3"><a xlink:href="classamr__wind_1_1_field.html" target="_top" xlink:title="Computational field.">
<polygon fill="white" stroke="black" points="949,-56 949,-75 1043,-75 1043,-56 949,-56"/>
<text text-anchor="middle" x="996" y="-63" font-family="Helvetica,sans-Serif" font-size="10.00">amr_wind::Field</text>
</a>
</g>
</g>
<!-- Node3&#45;&gt;Node1 -->
<g id="edge2" class="edge">
<title>Node3&#45;&gt;Node1</title>
<path fill="none" stroke="#9a32cd" stroke-dasharray="5,2" d="M1053.32,-64.53C1077.08,-64.8 1104.98,-66.04 1130,-69.5 1135.87,-70.31 1141.96,-71.41 1147.99,-72.67"/>
<polygon fill="#9a32cd" stroke="#9a32cd" points="1053.08,-61.02 1043.06,-64.46 1053.04,-68.02 1053.08,-61.02"/>
<text text-anchor="middle" x="1101" y="-83.5" font-family="Helvetica,sans-Serif" font-size="10.00"> m_sdr_diss</text>
<text text-anchor="middle" x="1101" y="-72.5" font-family="Helvetica,sans-Serif" font-size="10.00">m_sdr_src</text>
</g>
<!-- Node4 -->
<g id="node4" class="node">
<title>Node4</title>
<g id="a_node4"><a xlink:title=" ">
<polygon fill="white" stroke="#bfbfbf" points="605,-109.5 605,-139.5 725,-139.5 725,-109.5 605,-109.5"/>
<text text-anchor="start" x="613" y="-127.5" font-family="Helvetica,sans-Serif" font-size="10.00">std::shared_ptr&lt; amr</text>
<text text-anchor="middle" x="665" y="-116.5" font-family="Helvetica,sans-Serif" font-size="10.00">_wind::FieldInfo &gt;</text>
</a>
</g>
</g>
<!-- Node4&#45;&gt;Node3 -->
<g id="edge3" class="edge">
<title>Node4&#45;&gt;Node3</title>
<path fill="none" stroke="#9a32cd" stroke-dasharray="5,2" d="M735.05,-113.04C786.18,-104.42 857.51,-92.16 920,-80.5 929.27,-78.77 939.16,-76.85 948.63,-74.97"/>
<polygon fill="#9a32cd" stroke="#9a32cd" points="734.38,-109.6 725.1,-114.71 735.54,-116.5 734.38,-109.6"/>
<text text-anchor="middle" x="802.5" y="-113.5" font-family="Helvetica,sans-Serif" font-size="10.00"> m_info</text>
</g>
<!-- Node5 -->
<g id="node5" class="node">
<title>Node5</title>
<g id="a_node5"><a xlink:title=" ">
<polygon fill="white" stroke="#bfbfbf" points="189,-118 189,-137 307,-137 307,-118 189,-118"/>
<text text-anchor="middle" x="248" y="-125" font-family="Helvetica,sans-Serif" font-size="10.00">std::shared_ptr&lt; T &gt;</text>
</a>
</g>
</g>
<!-- Node5&#45;&gt;Node4 -->
<g id="edge4" class="edge">
<title>Node5&#45;&gt;Node4</title>
<path fill="none" stroke="orange" stroke-dasharray="5,2" d="M317.62,-127C397.79,-126.42 529.08,-125.48 604.91,-124.93"/>
<polygon fill="orange" stroke="orange" points="317.12,-123.51 307.14,-127.08 317.17,-130.51 317.12,-123.51"/>
<text text-anchor="middle" x="386" y="-129.5" font-family="Helvetica,sans-Serif" font-size="10.00"> &lt; amr_wind::FieldInfo &gt;</text>
</g>
<!-- Node6 -->
<g id="node6" class="node">
<title>Node6</title>
<g id="a_node6"><a xlink:title=" ">
<polygon fill="white" stroke="#bfbfbf" points="37.5,-103 37.5,-122 66.5,-122 66.5,-103 37.5,-103"/>
<text text-anchor="middle" x="52" y="-110" font-family="Helvetica,sans-Serif" font-size="10.00">T</text>
</a>
</g>
</g>
<!-- Node6&#45;&gt;Node5 -->
<g id="edge5" class="edge">
<title>Node6&#45;&gt;Node5</title>
<path fill="none" stroke="#9a32cd" stroke-dasharray="5,2" d="M76.95,-114.35C104.69,-116.5 151.35,-120.1 188.79,-123"/>
<polygon fill="#9a32cd" stroke="#9a32cd" points="76.88,-110.84 66.64,-113.55 76.34,-117.82 76.88,-110.84"/>
<text text-anchor="middle" x="146.5" y="-123.5" font-family="Helvetica,sans-Serif" font-size="10.00"> ptr</text>
</g>
<!-- Node11 -->
<g id="node11" class="node">
<title>Node11</title>
<g id="a_node11"><a xlink:title=" ">
<polygon fill="white" stroke="#bfbfbf" points="191,-68.5 191,-98.5 305,-98.5 305,-68.5 191,-68.5"/>
<text text-anchor="start" x="199" y="-86.5" font-family="Helvetica,sans-Serif" font-size="10.00">std::unordered_map</text>
<text text-anchor="middle" x="248" y="-75.5" font-family="Helvetica,sans-Serif" font-size="10.00">&lt; K, T &gt;</text>
</a>
</g>
</g>
<!-- Node6&#45;&gt;Node11 -->
<g id="edge13" class="edge">
<title>Node6&#45;&gt;Node11</title>
<path fill="none" stroke="#9a32cd" stroke-dasharray="5,2" d="M76.78,-108.95C105.03,-104.72 153.11,-97.54 190.98,-91.87"/>
<polygon fill="#9a32cd" stroke="#9a32cd" points="76.01,-105.52 66.64,-110.46 77.05,-112.44 76.01,-105.52"/>
<text text-anchor="middle" x="146.5" y="-103.5" font-family="Helvetica,sans-Serif" font-size="10.00"> elements</text>
</g>
<!-- Node7 -->
<g id="node7" class="node">
<title>Node7</title>
<g id="a_node7"><a xlink:title=" ">
<polygon fill="white" stroke="#bfbfbf" points="215.5,-7 215.5,-26 280.5,-26 280.5,-7 215.5,-7"/>
<text text-anchor="middle" x="248" y="-14" font-family="Helvetica,sans-Serif" font-size="10.00">std::string</text>
</a>
</g>
</g>
<!-- Node7&#45;&gt;Node3 -->
<g id="edge6" class="edge">
<title>Node7&#45;&gt;Node3</title>
<path fill="none" stroke="#9a32cd" stroke-dasharray="5,2" d="M290.88,-17.21C390.22,-19.18 647.86,-26.01 862,-46.5 891.02,-49.28 923.41,-53.87 948.96,-57.85"/>
<polygon fill="#9a32cd" stroke="#9a32cd" points="290.72,-13.7 280.66,-17.01 290.59,-20.7 290.72,-13.7"/>
<text text-anchor="middle" x="665" y="-38.5" font-family="Helvetica,sans-Serif" font-size="10.00"> m_name</text>
</g>
<!-- Node10 -->
<g id="node10" class="node">
<title>Node10</title>
<g id="a_node10"><a xlink:title=" ">
<polygon fill="white" stroke="#bfbfbf" points="465,-50.5 465,-80.5 587,-80.5 587,-50.5 465,-50.5"/>
<text text-anchor="start" x="473" y="-68.5" font-family="Helvetica,sans-Serif" font-size="10.00">std::unordered_map</text>
<text text-anchor="middle" x="526" y="-57.5" font-family="Helvetica,sans-Serif" font-size="10.00">&lt; std::string, size_t &gt;</text>
</a>
</g>
</g>
<!-- Node7&#45;&gt;Node10 -->
<g id="edge10" class="edge">
<title>Node7&#45;&gt;Node10</title>
<path fill="none" stroke="#9a32cd" stroke-dasharray="5,2" d="M290.65,-23.9C336.99,-32.12 412.24,-45.48 464.93,-54.84"/>
<polygon fill="#9a32cd" stroke="#9a32cd" points="291.12,-20.42 280.66,-22.12 289.89,-27.32 291.12,-20.42"/>
<text text-anchor="middle" x="386" y="-54.5" font-family="Helvetica,sans-Serif" font-size="10.00"> keys</text>
</g>
<!-- Node8 -->
<g id="node8" class="node">
<title>Node8</title>
<g id="a_node8"><a xlink:title=" ">
<polygon fill="white" stroke="#bfbfbf" points="0,-0.5 0,-30.5 104,-30.5 104,-0.5 0,-0.5"/>
<text text-anchor="start" x="8" y="-18.5" font-family="Helvetica,sans-Serif" font-size="10.00">std::basic_string&lt;</text>
<text text-anchor="middle" x="52" y="-7.5" font-family="Helvetica,sans-Serif" font-size="10.00"> Char &gt;</text>
</a>
</g>
</g>
<!-- Node8&#45;&gt;Node7 -->
<g id="edge7" class="edge">
<title>Node8&#45;&gt;Node7</title>
<path fill="none" stroke="midnightblue" d="M114.39,-15.82C147.91,-15.99 188.01,-16.2 215.27,-16.34"/>
<polygon fill="midnightblue" stroke="midnightblue" points="114.24,-12.32 104.22,-15.76 114.21,-19.32 114.24,-12.32"/>
</g>
<!-- Node9 -->
<g id="node9" class="node">
<title>Node9</title>
<g id="a_node9"><a xlink:href="classamr__wind_1_1_field_repo.html" target="_top" xlink:title="Field Repository.">
<polygon fill="white" stroke="black" points="743,-56 743,-75 862,-75 862,-56 743,-56"/>
<text text-anchor="middle" x="802.5" y="-63" font-family="Helvetica,sans-Serif" font-size="10.00">amr_wind::FieldRepo</text>
</a>
</g>
</g>
<!-- Node9&#45;&gt;Node3 -->
<g id="edge8" class="edge">
<title>Node9&#45;&gt;Node3</title>
<path fill="none" stroke="#9a32cd" stroke-dasharray="5,2" d="M872.56,-65.5C897.9,-65.5 925.96,-65.5 948.82,-65.5"/>
<polygon fill="#9a32cd" stroke="#9a32cd" points="872.26,-62 862.26,-65.5 872.26,-69 872.26,-62"/>
<text text-anchor="middle" x="900" y="-68.5" font-family="Helvetica,sans-Serif" font-size="10.00"> m_repo</text>
</g>
<!-- Node10&#45;&gt;Node9 -->
<g id="edge9" class="edge">
<title>Node10&#45;&gt;Node9</title>
<path fill="none" stroke="#9a32cd" stroke-dasharray="5,2" d="M597.52,-65.5C642.56,-65.5 700.28,-65.5 742.81,-65.5"/>
<polygon fill="#9a32cd" stroke="#9a32cd" points="597.24,-62 587.24,-65.5 597.24,-69 597.24,-62"/>
<text text-anchor="middle" x="665" y="-79.5" font-family="Helvetica,sans-Serif" font-size="10.00"> m_fid_map</text>
<text text-anchor="middle" x="665" y="-68.5" font-family="Helvetica,sans-Serif" font-size="10.00">m_int_fid_map</text>
</g>
<!-- Node11&#45;&gt;Node10 -->
<g id="edge11" class="edge">
<title>Node11&#45;&gt;Node10</title>
<path fill="none" stroke="orange" stroke-dasharray="5,2" d="M315.23,-79.18C360.66,-76.22 420.46,-72.32 464.59,-69.44"/>
<polygon fill="orange" stroke="orange" points="314.94,-75.69 305.19,-79.84 315.39,-82.68 314.94,-75.69"/>
<text text-anchor="middle" x="386" y="-80.5" font-family="Helvetica,sans-Serif" font-size="10.00"> &lt; std::string, size_t &gt;</text>
</g>
<!-- Node12 -->
<g id="node12" class="node">
<title>Node12</title>
<g id="a_node12"><a xlink:title=" ">
<polygon fill="white" stroke="#bfbfbf" points="37.5,-50 37.5,-69 66.5,-69 66.5,-50 37.5,-50"/>
<text text-anchor="middle" x="52" y="-57" font-family="Helvetica,sans-Serif" font-size="10.00">K</text>
</a>
</g>
</g>
<!-- Node12&#45;&gt;Node11 -->
<g id="edge12" class="edge">
<title>Node12&#45;&gt;Node11</title>
<path fill="none" stroke="#9a32cd" stroke-dasharray="5,2" d="M76.8,-57.73C100.74,-56.4 138.65,-55.57 171,-60.5 182.18,-62.2 193.99,-65.17 204.89,-68.43"/>
<polygon fill="#9a32cd" stroke="#9a32cd" points="76.31,-54.25 66.55,-58.37 76.75,-61.24 76.31,-54.25"/>
<text text-anchor="middle" x="146.5" y="-63.5" font-family="Helvetica,sans-Serif" font-size="10.00"> keys</text>
</g>
</g>
</svg>
