<?xml version="1.0" encoding="UTF-8" standalone="no"?>
<!DOCTYPE svg PUBLIC "-//W3C//DTD SVG 1.1//EN"
 "http://www.w3.org/Graphics/SVG/1.1/DTD/svg11.dtd">
<!-- Generated by graphviz version 2.43.0 (0)
 -->
<!-- Title: amr_wind::wave_energy::WaveEnergy Pages: 1 -->
<!--zoomable 771 -->
<svg id="main" version="1.1" xmlns="http://www.w3.org/2000/svg" xmlns:xlink="http://www.w3.org/1999/xlink" xml:space="preserve" onload="init(evt)">
<style type="text/css"><![CDATA[
.edge:hover path { stroke: red; }
.edge:hover polygon { stroke: red; fill: red; }
]]></style>
<script type="text/javascript"><![CDATA[
var edges = document.getElementsByTagName('g');
if (edges && edges.length) {
  for (var i=0;i<edges.length;i++) {
    if (edges[i].id.substr(0,4)=='edge') {
      edges[i].setAttribute('class','edge');
    }
  }
}
]]></script>
        <defs>
                <circle id="rim" cx="0" cy="0" r="7"/>
                <circle id="rim2" cx="0" cy="0" r="3.5"/>
                <g id="zoomPlus">
                        <use xlink:href="#rim" fill="#404040">
                                <set attributeName="fill" to="#808080" begin="zoomplus.mouseover" end="zoomplus.mouseout"/>
                        </use>
                        <path d="M-4,0h8M0,-4v8" fill="none" stroke="white" stroke-width="1.5" pointer-events="none"/>
                </g>
                <g id="zoomMin">
                        <use xlink:href="#rim" fill="#404040">
                                <set attributeName="fill" to="#808080" begin="zoomminus.mouseover" end="zoomminus.mouseout"/>
                        </use>
                        <path d="M-4,0h8" fill="none" stroke="white" stroke-width="1.5" pointer-events="none"/>
                </g>
                <g id="dirArrow">
                        <path fill="none" stroke="white" stroke-width="1.5" d="M0,-3.0v7 M-2.5,-0.5L0,-3.0L2.5,-0.5"/>
                </g>
               <g id="resetDef">
                       <use xlink:href="#rim2" fill="#404040">
                               <set attributeName="fill" to="#808080" begin="reset.mouseover" end="reset.mouseout"/>
                       </use>
               </g>
        </defs>

<script type="text/javascript">
var viewWidth = 2095;
var viewHeight = 771;
var sectionId = 'dynsection-1';
</script>
<script xlink:href="svgpan.js"/>
<svg id="graph" class="graph">
<g id="viewport">
<title>amr_wind::wave_energy::WaveEnergy</title>
<polygon fill="white" stroke="transparent" points="-4,4 -4,-766.7 2091,-766.7 2091,4 -4,4"/>
<!-- Node1 -->
<g id="node1" class="node">
<title>Node1</title>
<g id="a_node1"><a xlink:title="wave energy object">
<polygon fill="#bfbfbf" stroke="black" points="1951,-665.2 1951,-695.2 2087,-695.2 2087,-665.2 1951,-665.2"/>
<text text-anchor="start" x="1959" y="-683.2" font-family="Helvetica,sans-Serif" font-size="10.00">amr_wind::wave_energy</text>
<text text-anchor="middle" x="2019" y="-672.2" font-family="Helvetica,sans-Serif" font-size="10.00">::WaveEnergy</text>
</a>
</g>
</g>
<!-- Node2 -->
<g id="node2" class="node">
<title>Node2</title>
<g id="a_node2"><a xlink:title=" ">
<polygon fill="white" stroke="#bfbfbf" points="1708,-732.2 1708,-762.2 1854,-762.2 1854,-732.2 1708,-732.2"/>
<text text-anchor="start" x="1716" y="-750.2" font-family="Helvetica,sans-Serif" font-size="10.00">PostProcessBase::Register</text>
<text text-anchor="middle" x="1781" y="-739.2" font-family="Helvetica,sans-Serif" font-size="10.00">&lt; WaveEnergy &gt;</text>
</a>
</g>
</g>
<!-- Node2&#45;&gt;Node1 -->
<g id="edge1" class="edge">
<title>Node2&#45;&gt;Node1</title>
<path fill="none" stroke="midnightblue" d="M1864.12,-734.2C1886.69,-729.74 1911,-724.09 1933,-717.2 1951.59,-711.38 1971.59,-702.8 1987.52,-695.36"/>
<polygon fill="midnightblue" stroke="midnightblue" points="1863.38,-730.78 1854.23,-736.11 1864.71,-737.65 1863.38,-730.78"/>
</g>
<!-- Node3 -->
<g id="node3" class="node">
<title>Node3</title>
<g id="a_node3"><a xlink:href="classamr__wind_1_1_field.html" target="_top" xlink:title="Computational field.">
<polygon fill="white" stroke="black" points="1049.5,-633.7 1049.5,-652.7 1143.5,-652.7 1143.5,-633.7 1049.5,-633.7"/>
<text text-anchor="middle" x="1096.5" y="-640.7" font-family="Helvetica,sans-Serif" font-size="10.00">amr_wind::Field</text>
</a>
</g>
</g>
<!-- Node3&#45;&gt;Node1 -->
<g id="edge2" class="edge">
<title>Node3&#45;&gt;Node1</title>
<path fill="none" stroke="#9a32cd" stroke-dasharray="5,2" d="M1153.95,-645.47C1315.13,-651.95 1776.96,-670.51 1950.76,-677.5"/>
<polygon fill="#9a32cd" stroke="#9a32cd" points="1153.91,-641.97 1143.78,-645.06 1153.63,-648.96 1153.91,-641.97"/>
<text text-anchor="middle" x="1625" y="-680.2" font-family="Helvetica,sans-Serif" font-size="10.00"> m_velocity</text>
<text text-anchor="middle" x="1625" y="-669.2" font-family="Helvetica,sans-Serif" font-size="10.00">m_vof</text>
</g>
<!-- Node4 -->
<g id="node4" class="node">
<title>Node4</title>
<g id="a_node4"><a xlink:title=" ">
<polygon fill="white" stroke="#bfbfbf" points="605,-611.2 605,-641.2 725,-641.2 725,-611.2 605,-611.2"/>
<text text-anchor="start" x="613" y="-629.2" font-family="Helvetica,sans-Serif" font-size="10.00">std::shared_ptr&lt; amr</text>
<text text-anchor="middle" x="665" y="-618.2" font-family="Helvetica,sans-Serif" font-size="10.00">_wind::FieldInfo &gt;</text>
</a>
</g>
</g>
<!-- Node4&#45;&gt;Node3 -->
<g id="edge3" class="edge">
<title>Node4&#45;&gt;Node3</title>
<path fill="none" stroke="#9a32cd" stroke-dasharray="5,2" d="M735.46,-628.95C823.8,-632.45 973.89,-638.39 1049.33,-641.37"/>
<polygon fill="#9a32cd" stroke="#9a32cd" points="735.4,-625.45 725.27,-628.55 735.12,-632.44 735.4,-625.45"/>
<text text-anchor="middle" x="807.5" y="-637.2" font-family="Helvetica,sans-Serif" font-size="10.00"> m_info</text>
</g>
<!-- Node5 -->
<g id="node5" class="node">
<title>Node5</title>
<g id="a_node5"><a xlink:title=" ">
<polygon fill="white" stroke="#bfbfbf" points="189,-569.7 189,-588.7 307,-588.7 307,-569.7 189,-569.7"/>
<text text-anchor="middle" x="248" y="-576.7" font-family="Helvetica,sans-Serif" font-size="10.00">std::shared_ptr&lt; T &gt;</text>
</a>
</g>
</g>
<!-- Node5&#45;&gt;Node4 -->
<g id="edge4" class="edge">
<title>Node5&#45;&gt;Node4</title>
<path fill="none" stroke="orange" stroke-dasharray="5,2" d="M317.43,-584.51C355.76,-588.14 404.29,-593.84 447,-602.2 455.15,-603.8 456.84,-605.69 465,-607.2 511.58,-615.83 565.07,-620.65 604.85,-623.28"/>
<polygon fill="orange" stroke="orange" points="317.69,-581.02 307.41,-583.59 317.05,-587.99 317.69,-581.02"/>
<text text-anchor="middle" x="386" y="-605.2" font-family="Helvetica,sans-Serif" font-size="10.00"> &lt; amr_wind::FieldInfo &gt;</text>
</g>
<!-- Node6 -->
<g id="node6" class="node">
<title>Node6</title>
<g id="a_node6"><a xlink:title=" ">
<polygon fill="white" stroke="#bfbfbf" points="37.5,-537.7 37.5,-556.7 66.5,-556.7 66.5,-537.7 37.5,-537.7"/>
<text text-anchor="middle" x="52" y="-544.7" font-family="Helvetica,sans-Serif" font-size="10.00">T</text>
</a>
</g>
</g>
<!-- Node6&#45;&gt;Node5 -->
<g id="edge5" class="edge">
<title>Node6&#45;&gt;Node5</title>
<path fill="none" stroke="#9a32cd" stroke-dasharray="5,2" d="M76.62,-551.1C104.42,-555.68 151.57,-563.46 189.23,-569.67"/>
<polygon fill="#9a32cd" stroke="#9a32cd" points="77.08,-547.63 66.64,-549.45 75.94,-554.53 77.08,-547.63"/>
<text text-anchor="middle" x="146.5" y="-568.2" font-family="Helvetica,sans-Serif" font-size="10.00"> ptr</text>
</g>
<!-- Node11 -->
<g id="node11" class="node">
<title>Node11</title>
<g id="a_node11"><a xlink:title=" ">
<polygon fill="white" stroke="#bfbfbf" points="191,-495.2 191,-525.2 305,-525.2 305,-495.2 191,-495.2"/>
<text text-anchor="start" x="199" y="-513.2" font-family="Helvetica,sans-Serif" font-size="10.00">std::unordered_map</text>
<text text-anchor="middle" x="248" y="-502.2" font-family="Helvetica,sans-Serif" font-size="10.00">&lt; K, T &gt;</text>
</a>
</g>
</g>
<!-- Node6&#45;&gt;Node11 -->
<g id="edge13" class="edge">
<title>Node6&#45;&gt;Node11</title>
<path fill="none" stroke="#9a32cd" stroke-dasharray="5,2" d="M76.78,-542.67C105.03,-537.28 153.11,-528.11 190.98,-520.89"/>
<polygon fill="#9a32cd" stroke="#9a32cd" points="75.81,-539.29 66.64,-544.6 77.12,-546.16 75.81,-539.29"/>
<text text-anchor="middle" x="146.5" y="-535.2" font-family="Helvetica,sans-Serif" font-size="10.00"> elements</text>
</g>
<!-- Node15 -->
<g id="node15" class="node">
<title>Node15</title>
<g id="a_node15"><a xlink:title=" ">
<polygon fill="white" stroke="#bfbfbf" points="1037.5,-224.7 1037.5,-243.7 1155.5,-243.7 1155.5,-224.7 1037.5,-224.7"/>
<text text-anchor="middle" x="1096.5" y="-231.7" font-family="Helvetica,sans-Serif" font-size="10.00">std::unique_ptr&lt; T &gt;</text>
</a>
</g>
</g>
<!-- Node6&#45;&gt;Node15 -->
<g id="edge17" class="edge">
<title>Node6&#45;&gt;Node15</title>
<path fill="none" stroke="#9a32cd" stroke-dasharray="5,2" d="M76.47,-541.74C85.7,-538.79 95.98,-534.44 104,-528.2 126.06,-511.03 219.05,-321.2 247,-321.2 247,-321.2 247,-321.2 808.5,-321.2 914.19,-321.2 1032.73,-266.5 1077.28,-243.84"/>
<polygon fill="#9a32cd" stroke="#9a32cd" points="75.36,-538.42 66.68,-544.5 77.25,-545.16 75.36,-538.42"/>
<text text-anchor="middle" x="526" y="-324.2" font-family="Helvetica,sans-Serif" font-size="10.00"> ptr</text>
</g>
<!-- Node7 -->
<g id="node7" class="node">
<title>Node7</title>
<g id="a_node7"><a xlink:title=" ">
<polygon fill="white" stroke="#bfbfbf" points="215.5,-629.7 215.5,-648.7 280.5,-648.7 280.5,-629.7 215.5,-629.7"/>
<text text-anchor="middle" x="248" y="-636.7" font-family="Helvetica,sans-Serif" font-size="10.00">std::string</text>
</a>
</g>
</g>
<!-- Node7&#45;&gt;Node1 -->
<g id="edge45" class="edge">
<title>Node7&#45;&gt;Node1</title>
<path fill="none" stroke="#9a32cd" stroke-dasharray="5,2" d="M279.32,-652.84C293.04,-658.58 309.61,-664.91 325,-669.2 411.85,-693.44 434.84,-703.2 525,-703.2 525,-703.2 525,-703.2 1782,-703.2 1839.12,-703.2 1903.65,-696.45 1950.78,-690.26"/>
<polygon fill="#9a32cd" stroke="#9a32cd" points="280.46,-649.53 269.89,-648.81 277.71,-655.96 280.46,-649.53"/>
<text text-anchor="middle" x="1096.5" y="-717.2" font-family="Helvetica,sans-Serif" font-size="10.00"> m_label</text>
<text text-anchor="middle" x="1096.5" y="-706.2" font-family="Helvetica,sans-Serif" font-size="10.00">m_out_fname</text>
</g>
<!-- Node7&#45;&gt;Node3 -->
<g id="edge6" class="edge">
<title>Node7&#45;&gt;Node3</title>
<path fill="none" stroke="#9a32cd" stroke-dasharray="5,2" d="M290.59,-646.97C301.72,-648.72 313.78,-650.32 325,-651.2 630.28,-675.15 708.14,-666.18 1014,-651.2 1025.5,-650.64 1037.88,-649.63 1049.44,-648.52"/>
<polygon fill="#9a32cd" stroke="#9a32cd" points="291.11,-643.51 280.67,-645.34 289.97,-650.42 291.11,-643.51"/>
<text text-anchor="middle" x="665" y="-668.2" font-family="Helvetica,sans-Serif" font-size="10.00"> m_name</text>
</g>
<!-- Node10 -->
<g id="node10" class="node">
<title>Node10</title>
<g id="a_node10"><a xlink:title=" ">
<polygon fill="white" stroke="#bfbfbf" points="465,-567.2 465,-597.2 587,-597.2 587,-567.2 465,-567.2"/>
<text text-anchor="start" x="473" y="-585.2" font-family="Helvetica,sans-Serif" font-size="10.00">std::unordered_map</text>
<text text-anchor="middle" x="526" y="-574.2" font-family="Helvetica,sans-Serif" font-size="10.00">&lt; std::string, size_t &gt;</text>
</a>
</g>
</g>
<!-- Node7&#45;&gt;Node10 -->
<g id="edge10" class="edge">
<title>Node7&#45;&gt;Node10</title>
<path fill="none" stroke="#9a32cd" stroke-dasharray="5,2" d="M290.83,-638.31C331.4,-636.57 394.36,-631.56 447,-617.2 464.18,-612.52 482.4,-604.53 496.9,-597.37"/>
<polygon fill="#9a32cd" stroke="#9a32cd" points="290.63,-634.82 280.77,-638.69 290.9,-641.81 290.63,-634.82"/>
<text text-anchor="middle" x="386" y="-639.2" font-family="Helvetica,sans-Serif" font-size="10.00"> keys</text>
</g>
<!-- Node18 -->
<g id="node18" class="node">
<title>Node18</title>
<g id="a_node18"><a xlink:href="classamr__wind_1_1pde_1_1_p_d_e_mgr.html" target="_top" xlink:title="PDE systems manager.">
<polygon fill="white" stroke="black" points="1952.5,-386.7 1952.5,-405.7 2085.5,-405.7 2085.5,-386.7 1952.5,-386.7"/>
<text text-anchor="middle" x="2019" y="-393.7" font-family="Helvetica,sans-Serif" font-size="10.00">amr_wind::pde::PDEMgr</text>
</a>
</g>
</g>
<!-- Node7&#45;&gt;Node18 -->
<g id="edge29" class="edge">
<title>Node7&#45;&gt;Node18</title>
<path fill="none" stroke="#9a32cd" stroke-dasharray="5,2" d="M290.69,-628.62C301.83,-625.84 313.86,-622.87 325,-620.2 379.1,-607.23 402.87,-626.08 447,-592.2 460.56,-581.79 450.46,-567.19 465,-558.2 522.9,-522.4 1621.95,-530.84 1690,-529.2 1798.33,-526.6 1841.35,-567.03 1933,-509.2 1974.73,-482.87 2003.33,-428.23 2013.69,-405.96"/>
<polygon fill="#9a32cd" stroke="#9a32cd" points="289.61,-625.29 280.77,-631.11 291.32,-632.08 289.61,-625.29"/>
<text text-anchor="middle" x="1096.5" y="-534.2" font-family="Helvetica,sans-Serif" font-size="10.00"> m_scheme</text>
</g>
<!-- Node21 -->
<g id="node21" class="node">
<title>Node21</title>
<g id="a_node21"><a xlink:title=" ">
<polygon fill="white" stroke="#bfbfbf" points="469,-469.2 469,-499.2 583,-499.2 583,-469.2 469,-469.2"/>
<text text-anchor="start" x="477" y="-487.2" font-family="Helvetica,sans-Serif" font-size="10.00">std::unordered_map</text>
<text text-anchor="middle" x="526" y="-476.2" font-family="Helvetica,sans-Serif" font-size="10.00">&lt; std::string, int &gt;</text>
</a>
</g>
</g>
<!-- Node7&#45;&gt;Node21 -->
<g id="edge26" class="edge">
<title>Node7&#45;&gt;Node21</title>
<path fill="none" stroke="#9a32cd" stroke-dasharray="5,2" d="M276.98,-624.4C287.6,-617.62 299.04,-608.73 307,-598.2 321.5,-579.03 306.75,-562.85 325,-547.2 366.88,-511.28 394.8,-542.09 447,-524.2 465.57,-517.84 485.23,-507.73 500.17,-499.27"/>
<polygon fill="#9a32cd" stroke="#9a32cd" points="275.11,-621.44 268.34,-629.6 278.72,-627.44 275.11,-621.44"/>
<text text-anchor="middle" x="386" y="-550.2" font-family="Helvetica,sans-Serif" font-size="10.00"> keys</text>
</g>
<!-- Node8 -->
<g id="node8" class="node">
<title>Node8</title>
<g id="a_node8"><a xlink:title=" ">
<polygon fill="white" stroke="#bfbfbf" points="0,-624.2 0,-654.2 104,-654.2 104,-624.2 0,-624.2"/>
<text text-anchor="start" x="8" y="-642.2" font-family="Helvetica,sans-Serif" font-size="10.00">std::basic_string&lt;</text>
<text text-anchor="middle" x="52" y="-631.2" font-family="Helvetica,sans-Serif" font-size="10.00"> Char &gt;</text>
</a>
</g>
</g>
<!-- Node8&#45;&gt;Node7 -->
<g id="edge7" class="edge">
<title>Node8&#45;&gt;Node7</title>
<path fill="none" stroke="midnightblue" d="M114.39,-639.2C147.91,-639.2 188.01,-639.2 215.27,-639.2"/>
<polygon fill="midnightblue" stroke="midnightblue" points="114.23,-635.7 104.22,-639.2 114.22,-642.7 114.23,-635.7"/>
</g>
<!-- Node9 -->
<g id="node9" class="node">
<title>Node9</title>
<g id="a_node9"><a xlink:href="classamr__wind_1_1_field_repo.html" target="_top" xlink:title="Field Repository.">
<polygon fill="white" stroke="black" points="748,-570.7 748,-589.7 867,-589.7 867,-570.7 748,-570.7"/>
<text text-anchor="middle" x="807.5" y="-577.7" font-family="Helvetica,sans-Serif" font-size="10.00">amr_wind::FieldRepo</text>
</a>
</g>
</g>
<!-- Node9&#45;&gt;Node3 -->
<g id="edge8" class="edge">
<title>Node9&#45;&gt;Node3</title>
<path fill="none" stroke="#9a32cd" stroke-dasharray="5,2" d="M877.23,-586.67C917.53,-591.42 969.18,-599.19 1014,-611.2 1035.29,-616.91 1058.61,-626.42 1074.83,-633.59"/>
<polygon fill="#9a32cd" stroke="#9a32cd" points="877.57,-583.18 867.24,-585.52 876.77,-590.14 877.57,-583.18"/>
<text text-anchor="middle" x="952" y="-614.2" font-family="Helvetica,sans-Serif" font-size="10.00"> m_repo</text>
</g>
<!-- Node13 -->
<g id="node13" class="node">
<title>Node13</title>
<g id="a_node13"><a xlink:href="classamr__wind_1_1_c_f_d_sim.html" target="_top" xlink:title="Data structures for a CFD simulation.">
<polygon fill="white" stroke="black" points="1726,-352.7 1726,-371.7 1836,-371.7 1836,-352.7 1726,-352.7"/>
<text text-anchor="middle" x="1781" y="-359.7" font-family="Helvetica,sans-Serif" font-size="10.00">amr_wind::CFDSim</text>
</a>
</g>
</g>
<!-- Node9&#45;&gt;Node13 -->
<g id="edge37" class="edge">
<title>Node9&#45;&gt;Node13</title>
<path fill="none" stroke="#9a32cd" stroke-dasharray="5,2" d="M877.27,-578.78C1059.7,-573.95 1551.5,-553.7 1690,-474.2 1733.48,-449.24 1764.17,-394.43 1775.34,-372.03"/>
<polygon fill="#9a32cd" stroke="#9a32cd" points="877.16,-575.28 867.25,-579.04 877.34,-582.28 877.16,-575.28"/>
<text text-anchor="middle" x="1269.5" y="-566.2" font-family="Helvetica,sans-Serif" font-size="10.00"> m_repo</text>
</g>
<!-- Node10&#45;&gt;Node9 -->
<g id="edge9" class="edge">
<title>Node10&#45;&gt;Node9</title>
<path fill="none" stroke="#9a32cd" stroke-dasharray="5,2" d="M597.24,-580.32C599.86,-580.27 602.45,-580.23 605,-580.2 653.1,-579.58 707.66,-579.63 747.86,-579.81"/>
<polygon fill="#9a32cd" stroke="#9a32cd" points="596.97,-576.82 587.04,-580.51 597.1,-583.82 596.97,-576.82"/>
<text text-anchor="middle" x="665" y="-594.2" font-family="Helvetica,sans-Serif" font-size="10.00"> m_fid_map</text>
<text text-anchor="middle" x="665" y="-583.2" font-family="Helvetica,sans-Serif" font-size="10.00">m_int_fid_map</text>
</g>
<!-- Node11&#45;&gt;Node10 -->
<g id="edge11" class="edge">
<title>Node11&#45;&gt;Node10</title>
<path fill="none" stroke="orange" stroke-dasharray="5,2" d="M315.24,-499.94C354.79,-496.53 405.27,-497.03 447,-513.2 475.15,-524.11 499.77,-550.15 513.48,-566.94"/>
<polygon fill="orange" stroke="orange" points="314.79,-496.47 305.17,-500.92 315.46,-503.44 314.79,-496.47"/>
<text text-anchor="middle" x="386" y="-516.2" font-family="Helvetica,sans-Serif" font-size="10.00"> &lt; std::string, size_t &gt;</text>
</g>
<!-- Node11&#45;&gt;Node21 -->
<g id="edge27" class="edge">
<title>Node11&#45;&gt;Node21</title>
<path fill="none" stroke="orange" stroke-dasharray="5,2" d="M287.92,-490.96C299.56,-486.14 312.55,-481.64 325,-479.2 372.89,-469.81 428.45,-472.23 468.85,-476.33"/>
<polygon fill="orange" stroke="orange" points="286.27,-487.86 278.5,-495.05 289.06,-494.28 286.27,-487.86"/>
<text text-anchor="middle" x="386" y="-482.2" font-family="Helvetica,sans-Serif" font-size="10.00"> &lt; std::string, int &gt;</text>
</g>
<!-- Node12 -->
<g id="node12" class="node">
<title>Node12</title>
<g id="a_node12"><a xlink:title=" ">
<polygon fill="white" stroke="#bfbfbf" points="37.5,-499.7 37.5,-518.7 66.5,-518.7 66.5,-499.7 37.5,-499.7"/>
<text text-anchor="middle" x="52" y="-506.7" font-family="Helvetica,sans-Serif" font-size="10.00">K</text>
</a>
</g>
</g>
<!-- Node12&#45;&gt;Node11 -->
<g id="edge12" class="edge">
<title>Node12&#45;&gt;Node11</title>
<path fill="none" stroke="#9a32cd" stroke-dasharray="5,2" d="M76.78,-509.32C105.03,-509.47 153.11,-509.72 190.98,-509.91"/>
<polygon fill="#9a32cd" stroke="#9a32cd" points="76.66,-505.82 66.64,-509.27 76.62,-512.82 76.66,-505.82"/>
<text text-anchor="middle" x="146.5" y="-512.2" font-family="Helvetica,sans-Serif" font-size="10.00"> keys</text>
</g>
<!-- Node13&#45;&gt;Node1 -->
<g id="edge14" class="edge">
<title>Node13&#45;&gt;Node1</title>
<path fill="none" stroke="#9a32cd" stroke-dasharray="5,2" d="M1795.25,-380.05C1837.39,-436.83 1967.83,-612.6 2006.86,-665.19"/>
<polygon fill="#9a32cd" stroke="#9a32cd" points="1797.83,-377.66 1789.06,-371.72 1792.21,-381.83 1797.83,-377.66"/>
<text text-anchor="middle" x="1902.5" y="-561.2" font-family="Helvetica,sans-Serif" font-size="10.00"> m_sim</text>
</g>
<!-- Node13&#45;&gt;Node18 -->
<g id="edge28" class="edge">
<title>Node13&#45;&gt;Node18</title>
<path fill="none" stroke="#9a32cd" stroke-dasharray="5,2" d="M1846.41,-356.11C1873.39,-355.01 1904.95,-355.65 1933,-361.2 1957.42,-366.03 1983.64,-377.97 2000.4,-386.56"/>
<polygon fill="#9a32cd" stroke="#9a32cd" points="1846.12,-352.62 1836.31,-356.61 1846.47,-359.61 1846.12,-352.62"/>
<text text-anchor="middle" x="1902.5" y="-364.2" font-family="Helvetica,sans-Serif" font-size="10.00"> m_sim</text>
</g>
<!-- Node14 -->
<g id="node14" class="node">
<title>Node14</title>
<g id="a_node14"><a xlink:title=" ">
<polygon fill="white" stroke="#bfbfbf" points="1393.5,-366.2 1393.5,-396.2 1526.5,-396.2 1526.5,-366.2 1393.5,-366.2"/>
<text text-anchor="start" x="1401.5" y="-384.2" font-family="Helvetica,sans-Serif" font-size="10.00">std::unique_ptr&lt; amr</text>
<text text-anchor="middle" x="1460" y="-373.2" font-family="Helvetica,sans-Serif" font-size="10.00">_wind::helics_storage &gt;</text>
</a>
</g>
</g>
<!-- Node14&#45;&gt;Node13 -->
<g id="edge15" class="edge">
<title>Node14&#45;&gt;Node13</title>
<path fill="none" stroke="#9a32cd" stroke-dasharray="5,2" d="M1536.95,-376.68C1595.09,-373.22 1673.86,-368.52 1725.76,-365.43"/>
<polygon fill="#9a32cd" stroke="#9a32cd" points="1536.48,-373.2 1526.71,-377.29 1536.9,-380.19 1536.48,-373.2"/>
<text text-anchor="middle" x="1625" y="-378.2" font-family="Helvetica,sans-Serif" font-size="10.00"> m_helics</text>
</g>
<!-- Node15&#45;&gt;Node14 -->
<g id="edge16" class="edge">
<title>Node15&#45;&gt;Node14</title>
<path fill="none" stroke="orange" stroke-dasharray="5,2" d="M1105.82,-252.83C1118.01,-277.74 1143.22,-321.17 1179,-342.2 1244.59,-380.75 1333.4,-386.92 1393.27,-385.78"/>
<polygon fill="orange" stroke="orange" points="1108.95,-251.26 1101.53,-243.7 1102.62,-254.24 1108.95,-251.26"/>
<text text-anchor="start" x="1221" y="-400.2" font-family="Helvetica,sans-Serif" font-size="10.00"> &lt; amr_wind::helics</text>
<text text-anchor="middle" x="1269.5" y="-389.2" font-family="Helvetica,sans-Serif" font-size="10.00">_storage &gt;</text>
</g>
<!-- Node16 -->
<g id="node16" class="node">
<title>Node16</title>
<g id="a_node16"><a xlink:title=" ">
<polygon fill="white" stroke="#bfbfbf" points="1400,-317.2 1400,-347.2 1520,-347.2 1520,-317.2 1400,-317.2"/>
<text text-anchor="start" x="1408" y="-335.2" font-family="Helvetica,sans-Serif" font-size="10.00">std::unique_ptr&lt; amr</text>
<text text-anchor="middle" x="1460" y="-324.2" font-family="Helvetica,sans-Serif" font-size="10.00">_wind::IOManager &gt;</text>
</a>
</g>
</g>
<!-- Node15&#45;&gt;Node16 -->
<g id="edge19" class="edge">
<title>Node15&#45;&gt;Node16</title>
<path fill="none" stroke="orange" stroke-dasharray="5,2" d="M1116.38,-250.15C1132.11,-262.56 1155.64,-279.13 1179,-288.2 1251.7,-316.44 1341.71,-326.58 1399.73,-330.21"/>
<polygon fill="orange" stroke="orange" points="1118.47,-247.34 1108.5,-243.77 1114.07,-252.78 1118.47,-247.34"/>
<text text-anchor="middle" x="1269.5" y="-330.2" font-family="Helvetica,sans-Serif" font-size="10.00"> &lt; amr_wind::IOManager &gt;</text>
</g>
<!-- Node17 -->
<g id="node17" class="node">
<title>Node17</title>
<g id="a_node17"><a xlink:title=" ">
<polygon fill="white" stroke="#bfbfbf" points="1378,-60.2 1378,-90.2 1542,-90.2 1542,-60.2 1378,-60.2"/>
<text text-anchor="start" x="1386" y="-78.2" font-family="Helvetica,sans-Serif" font-size="10.00">std::unique_ptr&lt; amr</text>
<text text-anchor="middle" x="1460" y="-67.2" font-family="Helvetica,sans-Serif" font-size="10.00">_wind::PostProcessManager &gt;</text>
</a>
</g>
</g>
<!-- Node15&#45;&gt;Node17 -->
<g id="edge21" class="edge">
<title>Node15&#45;&gt;Node17</title>
<path fill="none" stroke="orange" stroke-dasharray="5,2" d="M1104.93,-215.25C1116.45,-188.58 1141.31,-140.6 1179,-117.2 1238.51,-80.25 1318.53,-71.43 1377.78,-70.86"/>
<polygon fill="orange" stroke="orange" points="1101.63,-214.06 1101.04,-224.64 1108.1,-216.74 1101.63,-214.06"/>
<text text-anchor="middle" x="1269.5" y="-120.2" font-family="Helvetica,sans-Serif" font-size="10.00"> &lt; amr_wind::PostProcessManager &gt;</text>
</g>
<!-- Node22 -->
<g id="node22" class="node">
<title>Node22</title>
<g id="a_node22"><a xlink:title=" ">
<polygon fill="white" stroke="#bfbfbf" points="1560,-17.2 1560,-47.2 1690,-47.2 1690,-17.2 1560,-17.2"/>
<text text-anchor="start" x="1568" y="-35.2" font-family="Helvetica,sans-Serif" font-size="10.00">std::unique_ptr&lt; amr</text>
<text text-anchor="middle" x="1625" y="-24.2" font-family="Helvetica,sans-Serif" font-size="10.00">_wind::pde::PDEBase &gt;</text>
</a>
</g>
</g>
<!-- Node15&#45;&gt;Node22 -->
<g id="edge31" class="edge">
<title>Node15&#45;&gt;Node22</title>
<path fill="none" stroke="orange" stroke-dasharray="5,2" d="M1100.07,-214.01C1106.11,-175.91 1125.02,-93.95 1179,-57.2 1294.93,21.72 1469.77,1.42 1561.99,-17.16"/>
<polygon fill="orange" stroke="orange" points="1096.54,-213.93 1098.58,-224.33 1103.47,-214.93 1096.54,-213.93"/>
<text text-anchor="middle" x="1269.5" y="-60.2" font-family="Helvetica,sans-Serif" font-size="10.00"> &lt; amr_wind::pde::PDEBase &gt;</text>
</g>
<!-- Node24 -->
<g id="node24" class="node">
<title>Node24</title>
<g id="a_node24"><a xlink:title=" ">
<polygon fill="white" stroke="#bfbfbf" points="1388.5,-268.2 1388.5,-298.2 1531.5,-298.2 1531.5,-268.2 1388.5,-268.2"/>
<text text-anchor="start" x="1396.5" y="-286.2" font-family="Helvetica,sans-Serif" font-size="10.00">std::unique_ptr&lt; amr</text>
<text text-anchor="middle" x="1460" y="-275.2" font-family="Helvetica,sans-Serif" font-size="10.00">_wind::OversetManager &gt;</text>
</a>
</g>
</g>
<!-- Node15&#45;&gt;Node24 -->
<g id="edge34" class="edge">
<title>Node15&#45;&gt;Node24</title>
<path fill="none" stroke="orange" stroke-dasharray="5,2" d="M1156.43,-245.49C1164.01,-246.81 1171.68,-248.08 1179,-249.2 1250.04,-260.04 1331.64,-269.63 1388.35,-275.83"/>
<polygon fill="orange" stroke="orange" points="1157.01,-242.04 1146.55,-243.73 1155.78,-248.93 1157.01,-242.04"/>
<text text-anchor="middle" x="1269.5" y="-276.2" font-family="Helvetica,sans-Serif" font-size="10.00"> &lt; amr_wind::OversetManager &gt;</text>
</g>
<!-- Node25 -->
<g id="node25" class="node">
<title>Node25</title>
<g id="a_node25"><a xlink:title=" ">
<polygon fill="white" stroke="#bfbfbf" points="1379.5,-109.7 1379.5,-150.7 1540.5,-150.7 1540.5,-109.7 1379.5,-109.7"/>
<text text-anchor="start" x="1387.5" y="-138.7" font-family="Helvetica,sans-Serif" font-size="10.00">std::unique_ptr&lt; amr</text>
<text text-anchor="start" x="1387.5" y="-127.7" font-family="Helvetica,sans-Serif" font-size="10.00">_wind::turbulence::Turbulence</text>
<text text-anchor="middle" x="1460" y="-116.7" font-family="Helvetica,sans-Serif" font-size="10.00">Model &gt;</text>
</a>
</g>
</g>
<!-- Node15&#45;&gt;Node25 -->
<g id="edge36" class="edge">
<title>Node15&#45;&gt;Node25</title>
<path fill="none" stroke="orange" stroke-dasharray="5,2" d="M1113.58,-217.29C1128.89,-202.3 1153.36,-181.16 1179,-170.2 1242.89,-142.9 1321.7,-133.56 1379.41,-130.66"/>
<polygon fill="orange" stroke="orange" points="1111.01,-214.91 1106.45,-224.48 1115.97,-219.84 1111.01,-214.91"/>
<text text-anchor="start" x="1209" y="-184.2" font-family="Helvetica,sans-Serif" font-size="10.00"> &lt; amr_wind::turbulence</text>
<text text-anchor="middle" x="1269.5" y="-173.2" font-family="Helvetica,sans-Serif" font-size="10.00">::TurbulenceModel &gt;</text>
</g>
<!-- Node26 -->
<g id="node26" class="node">
<title>Node26</title>
<g id="a_node26"><a xlink:title=" ">
<polygon fill="white" stroke="#bfbfbf" points="1400,-219.2 1400,-249.2 1520,-249.2 1520,-219.2 1400,-219.2"/>
<text text-anchor="start" x="1408" y="-237.2" font-family="Helvetica,sans-Serif" font-size="10.00">std::unique_ptr&lt; amr</text>
<text text-anchor="middle" x="1460" y="-226.2" font-family="Helvetica,sans-Serif" font-size="10.00">_wind::MeshMap &gt;</text>
</a>
</g>
</g>
<!-- Node15&#45;&gt;Node26 -->
<g id="edge39" class="edge">
<title>Node15&#45;&gt;Node26</title>
<path fill="none" stroke="orange" stroke-dasharray="5,2" d="M1165.7,-234.2C1233.26,-234.2 1335.65,-234.2 1399.86,-234.2"/>
<polygon fill="orange" stroke="orange" points="1165.58,-230.7 1155.58,-234.2 1165.58,-237.7 1165.58,-230.7"/>
<text text-anchor="middle" x="1269.5" y="-237.2" font-family="Helvetica,sans-Serif" font-size="10.00"> &lt; amr_wind::MeshMap &gt;</text>
</g>
<!-- Node27 -->
<g id="node27" class="node">
<title>Node27</title>
<g id="a_node27"><a xlink:title=" ">
<polygon fill="white" stroke="#bfbfbf" points="1396,-170.2 1396,-200.2 1524,-200.2 1524,-170.2 1396,-170.2"/>
<text text-anchor="start" x="1404" y="-188.2" font-family="Helvetica,sans-Serif" font-size="10.00">std::unique_ptr&lt; amr</text>
<text text-anchor="middle" x="1460" y="-177.2" font-family="Helvetica,sans-Serif" font-size="10.00">_wind::ExtSolverMgr &gt;</text>
</a>
</g>
</g>
<!-- Node15&#45;&gt;Node27 -->
<g id="edge41" class="edge">
<title>Node15&#45;&gt;Node27</title>
<path fill="none" stroke="orange" stroke-dasharray="5,2" d="M1156.43,-222.91C1164.01,-221.59 1171.68,-220.32 1179,-219.2 1253.19,-207.88 1338.89,-197.93 1395.74,-191.77"/>
<polygon fill="orange" stroke="orange" points="1155.78,-219.47 1146.55,-224.67 1157.01,-226.37 1155.78,-219.47"/>
<text text-anchor="middle" x="1269.5" y="-222.2" font-family="Helvetica,sans-Serif" font-size="10.00"> &lt; amr_wind::ExtSolverMgr &gt;</text>
</g>
<!-- Node16&#45;&gt;Node13 -->
<g id="edge18" class="edge">
<title>Node16&#45;&gt;Node13</title>
<path fill="none" stroke="#9a32cd" stroke-dasharray="5,2" d="M1530.36,-338.41C1575.78,-342.52 1636.43,-348.07 1690,-353.2 1701.57,-354.31 1713.97,-355.53 1725.75,-356.7"/>
<polygon fill="#9a32cd" stroke="#9a32cd" points="1530.6,-334.92 1520.32,-337.51 1529.97,-341.89 1530.6,-334.92"/>
<text text-anchor="middle" x="1625" y="-356.2" font-family="Helvetica,sans-Serif" font-size="10.00"> m_io_mgr</text>
</g>
<!-- Node17&#45;&gt;Node13 -->
<g id="edge20" class="edge">
<title>Node17&#45;&gt;Node13</title>
<path fill="none" stroke="#9a32cd" stroke-dasharray="5,2" d="M1552.18,-71.63C1599.7,-74.83 1655.04,-87.39 1690,-124.2 1724.72,-160.76 1691.22,-188.66 1708,-236.2 1724.52,-283.01 1758.25,-332.39 1772.92,-352.67"/>
<polygon fill="#9a32cd" stroke="#9a32cd" points="1552.35,-68.13 1542.17,-71.08 1551.96,-75.12 1552.35,-68.13"/>
<text text-anchor="middle" x="1625" y="-127.2" font-family="Helvetica,sans-Serif" font-size="10.00"> m_post_mgr</text>
</g>
<!-- Node18&#45;&gt;Node13 -->
<g id="edge22" class="edge">
<title>Node18&#45;&gt;Node13</title>
<path fill="none" stroke="#9a32cd" stroke-dasharray="5,2" d="M1942.28,-385.29C1907.73,-380.32 1867.6,-374.53 1836.14,-370"/>
<polygon fill="#9a32cd" stroke="#9a32cd" points="1941.94,-388.78 1952.34,-386.74 1942.94,-381.85 1941.94,-388.78"/>
<text text-anchor="middle" x="1902.5" y="-387.2" font-family="Helvetica,sans-Serif" font-size="10.00"> m_pde_mgr</text>
</g>
<!-- Node19 -->
<g id="node19" class="node">
<title>Node19</title>
<g id="a_node19"><a xlink:href="classamr__wind_1_1_coll_mgr.html" target="_top" xlink:title=" ">
<polygon fill="white" stroke="black" points="1210,-482.2 1210,-512.2 1329,-512.2 1329,-482.2 1210,-482.2"/>
<text text-anchor="start" x="1218" y="-500.2" font-family="Helvetica,sans-Serif" font-size="10.00">amr_wind::CollMgr&lt;</text>
<text text-anchor="middle" x="1269.5" y="-489.2" font-family="Helvetica,sans-Serif" font-size="10.00"> PDEMgr, PDEBase &gt;</text>
</a>
</g>
</g>
<!-- Node19&#45;&gt;Node18 -->
<g id="edge23" class="edge">
<title>Node19&#45;&gt;Node18</title>
<path fill="none" stroke="midnightblue" d="M1339.44,-502.88C1487.01,-513.95 1828.51,-533.53 1933,-487.2 1971.93,-469.94 2001.28,-425.36 2012.74,-405.72"/>
<polygon fill="midnightblue" stroke="midnightblue" points="1339.4,-499.37 1329.16,-502.1 1338.87,-506.35 1339.4,-499.37"/>
</g>
<!-- Node20 -->
<g id="node20" class="node">
<title>Node20</title>
<g id="a_node20"><a xlink:href="classamr__wind_1_1_coll_mgr.html" target="_top" xlink:title="Interface to manage objects of sub&#45;classes based on factory registration.">
<polygon fill="white" stroke="black" points="743,-463.7 743,-504.7 872,-504.7 872,-463.7 743,-463.7"/>
<text text-anchor="start" x="751" y="-492.7" font-family="Helvetica,sans-Serif" font-size="10.00">amr_wind::CollMgr&lt;</text>
<text text-anchor="start" x="751" y="-481.7" font-family="Helvetica,sans-Serif" font-size="10.00"> Collection, Type, allow</text>
<text text-anchor="middle" x="807.5" y="-470.7" font-family="Helvetica,sans-Serif" font-size="10.00">_duplicates &gt;</text>
</a>
</g>
</g>
<!-- Node20&#45;&gt;Node19 -->
<g id="edge24" class="edge">
<title>Node20&#45;&gt;Node19</title>
<path fill="none" stroke="orange" stroke-dasharray="5,2" d="M882.71,-486.3C973.82,-488.87 1126.46,-493.19 1209.81,-495.54"/>
<polygon fill="orange" stroke="orange" points="882.56,-482.79 872.46,-486.01 882.36,-489.79 882.56,-482.79"/>
<text text-anchor="middle" x="952" y="-493.2" font-family="Helvetica,sans-Serif" font-size="10.00"> &lt; PDEMgr, PDEBase &gt;</text>
</g>
<!-- Node29 -->
<g id="node29" class="node">
<title>Node29</title>
<g id="a_node29"><a xlink:href="classamr__wind_1_1_coll_mgr.html" target="_top" xlink:title=" ">
<polygon fill="white" stroke="black" points="1032,-421.2 1032,-451.2 1161,-451.2 1161,-421.2 1032,-421.2"/>
<text text-anchor="start" x="1040" y="-439.2" font-family="Helvetica,sans-Serif" font-size="10.00">amr_wind::CollMgr&lt;</text>
<text text-anchor="middle" x="1096.5" y="-428.2" font-family="Helvetica,sans-Serif" font-size="10.00"> PhysicsMgr, Physics &gt;</text>
</a>
</g>
</g>
<!-- Node20&#45;&gt;Node29 -->
<g id="edge44" class="edge">
<title>Node20&#45;&gt;Node29</title>
<path fill="none" stroke="orange" stroke-dasharray="5,2" d="M869.87,-460.54C876.6,-458.5 883.4,-456.66 890,-455.2 936.88,-444.86 990.99,-440.14 1031.91,-437.99"/>
<polygon fill="orange" stroke="orange" points="868.57,-457.29 860.11,-463.66 870.7,-463.95 868.57,-457.29"/>
<text text-anchor="middle" x="952" y="-458.2" font-family="Helvetica,sans-Serif" font-size="10.00"> &lt; PhysicsMgr, Physics &gt;</text>
</g>
<!-- Node21&#45;&gt;Node20 -->
<g id="edge25" class="edge">
<title>Node21&#45;&gt;Node20</title>
<path fill="none" stroke="#9a32cd" stroke-dasharray="5,2" d="M593.5,-484.2C638.63,-484.2 697.97,-484.2 742.55,-484.2"/>
<polygon fill="#9a32cd" stroke="#9a32cd" points="593.22,-480.7 583.22,-484.2 593.22,-487.7 593.22,-480.7"/>
<text text-anchor="middle" x="665" y="-487.2" font-family="Helvetica,sans-Serif" font-size="10.00"> m_obj_map</text>
</g>
<!-- Node22&#45;&gt;Node18 -->
<g id="edge30" class="edge">
<title>Node22&#45;&gt;Node18</title>
<path fill="none" stroke="#9a32cd" stroke-dasharray="5,2" d="M1664.55,-52.32C1673.2,-57.42 1682.14,-63.17 1690,-69.2 1831.99,-178.05 1974.93,-344.71 2009.91,-386.46"/>
<polygon fill="#9a32cd" stroke="#9a32cd" points="1666.11,-49.18 1655.69,-47.26 1662.64,-55.26 1666.11,-49.18"/>
<text text-anchor="middle" x="1781" y="-217.2" font-family="Helvetica,sans-Serif" font-size="10.00"> m_icns</text>
</g>
<!-- Node23 -->
<g id="node23" class="node">
<title>Node23</title>
<g id="a_node23"><a xlink:href="classamr__wind_1_1_sim_time.html" target="_top" xlink:title="Time manager for simulations.">
<polygon fill="white" stroke="black" points="1403,-453.7 1403,-472.7 1517,-472.7 1517,-453.7 1403,-453.7"/>
<text text-anchor="middle" x="1460" y="-460.7" font-family="Helvetica,sans-Serif" font-size="10.00">amr_wind::SimTime</text>
</a>
</g>
</g>
<!-- Node23&#45;&gt;Node13 -->
<g id="edge32" class="edge">
<title>Node23&#45;&gt;Node13</title>
<path fill="none" stroke="#9a32cd" stroke-dasharray="5,2" d="M1527.22,-461.89C1574.23,-458.95 1637.96,-450.82 1690,-429.2 1723.1,-415.45 1755.11,-386.86 1770.5,-371.86"/>
<polygon fill="#9a32cd" stroke="#9a32cd" points="1526.95,-458.4 1517.16,-462.46 1527.34,-465.39 1526.95,-458.4"/>
<text text-anchor="middle" x="1625" y="-462.2" font-family="Helvetica,sans-Serif" font-size="10.00"> m_time</text>
</g>
<!-- Node24&#45;&gt;Node13 -->
<g id="edge33" class="edge">
<title>Node24&#45;&gt;Node13</title>
<path fill="none" stroke="#9a32cd" stroke-dasharray="5,2" d="M1541.8,-295.06C1586.04,-302.46 1641.55,-313.25 1690,-327.2 1714,-334.11 1740.55,-344.84 1758.56,-352.59"/>
<polygon fill="#9a32cd" stroke="#9a32cd" points="1542.12,-291.56 1531.68,-293.39 1540.98,-298.47 1542.12,-291.56"/>
<text text-anchor="middle" x="1625" y="-330.2" font-family="Helvetica,sans-Serif" font-size="10.00"> m_overset_mgr</text>
</g>
<!-- Node25&#45;&gt;Node13 -->
<g id="edge35" class="edge">
<title>Node25&#45;&gt;Node13</title>
<path fill="none" stroke="#9a32cd" stroke-dasharray="5,2" d="M1550.76,-137.85C1605.82,-144.32 1669.58,-155.59 1690,-174.2 1711.21,-193.53 1696.8,-209.78 1708,-236.2 1727.37,-281.9 1759.56,-331.88 1773.38,-352.49"/>
<polygon fill="#9a32cd" stroke="#9a32cd" points="1550.92,-134.34 1540.59,-136.69 1550.13,-141.3 1550.92,-134.34"/>
<text text-anchor="middle" x="1625" y="-177.2" font-family="Helvetica,sans-Serif" font-size="10.00"> m_turbulence</text>
</g>
<!-- Node26&#45;&gt;Node13 -->
<g id="edge38" class="edge">
<title>Node26&#45;&gt;Node13</title>
<path fill="none" stroke="#9a32cd" stroke-dasharray="5,2" d="M1530.23,-240.26C1577.28,-246.5 1639.84,-259.06 1690,-284.2 1724.94,-301.71 1757.34,-335.88 1771.91,-352.57"/>
<polygon fill="#9a32cd" stroke="#9a32cd" points="1530.49,-236.76 1520.13,-238.98 1529.62,-243.71 1530.49,-236.76"/>
<text text-anchor="middle" x="1625" y="-287.2" font-family="Helvetica,sans-Serif" font-size="10.00"> m_mesh_map</text>
</g>
<!-- Node27&#45;&gt;Node13 -->
<g id="edge40" class="edge">
<title>Node27&#45;&gt;Node13</title>
<path fill="none" stroke="#9a32cd" stroke-dasharray="5,2" d="M1534.12,-185.99C1581.95,-189.68 1643.87,-200.75 1690,-231.2 1737.21,-262.37 1766.52,-327.62 1776.33,-352.39"/>
<polygon fill="#9a32cd" stroke="#9a32cd" points="1534.36,-182.5 1524.14,-185.31 1533.88,-189.49 1534.36,-182.5"/>
<text text-anchor="middle" x="1625" y="-234.2" font-family="Helvetica,sans-Serif" font-size="10.00"> m_ext_solver_mgr</text>
</g>
<!-- Node28 -->
<g id="node28" class="node">
<title>Node28</title>
<g id="a_node28"><a xlink:href="classamr__wind_1_1_physics_mgr.html" target="_top" xlink:title="A collection of Physics models instances that are active during a simulation.">
<polygon fill="white" stroke="black" points="1397,-415.7 1397,-434.7 1523,-434.7 1523,-415.7 1397,-415.7"/>
<text text-anchor="middle" x="1460" y="-422.7" font-family="Helvetica,sans-Serif" font-size="10.00">amr_wind::PhysicsMgr</text>
</a>
</g>
</g>
<!-- Node28&#45;&gt;Node13 -->
<g id="edge42" class="edge">
<title>Node28&#45;&gt;Node13</title>
<path fill="none" stroke="#9a32cd" stroke-dasharray="5,2" d="M1533.23,-416.98C1578.57,-411.13 1638.08,-402.17 1690,-390.2 1711.53,-385.24 1735.38,-377.72 1753.11,-371.73"/>
<polygon fill="#9a32cd" stroke="#9a32cd" points="1532.67,-413.52 1523.19,-418.26 1533.56,-420.47 1532.67,-413.52"/>
<text text-anchor="middle" x="1625" y="-417.2" font-family="Helvetica,sans-Serif" font-size="10.00"> m_physics_mgr</text>
</g>
<!-- Node29&#45;&gt;Node28 -->
<g id="edge43" class="edge">
<title>Node29&#45;&gt;Node28</title>
<path fill="none" stroke="midnightblue" d="M1171.69,-433.94C1238.07,-431.92 1334.29,-429 1396.75,-427.1"/>
<polygon fill="midnightblue" stroke="midnightblue" points="1171.19,-430.46 1161.3,-434.26 1171.4,-437.45 1171.19,-430.46"/>
</g>
</g>
</svg>
        <g id="navigator" transform="translate(0 0)" fill="#404254">
                <rect fill="#f2f5e9" fill-opacity="0.5" stroke="#606060" stroke-width=".5" x="0" y="0" width="60" height="60"/>
                <use id="zoomplus" xlink:href="#zoomPlus" x="17" y="9" onmousedown="handleZoom(evt,'in')"/>
                <use id="zoomminus" xlink:href="#zoomMin" x="42" y="9" onmousedown="handleZoom(evt,'out')"/>
                <use id="reset" xlink:href="#resetDef" x="30" y="36" onmousedown="handleReset()"/>
                <g id="arrowUp" xlink:href="#dirArrow" transform="translate(30 24)" onmousedown="handlePan(0,-1)">
                  <use xlink:href="#rim" fill="#404040">
                        <set attributeName="fill" to="#808080" begin="arrowUp.mouseover" end="arrowUp.mouseout"/>
                  </use>
                  <path fill="none" stroke="white" stroke-width="1.5" d="M0,-3.0v7 M-2.5,-0.5L0,-3.0L2.5,-0.5"/>
                </g>
                <g id="arrowRight" xlink:href="#dirArrow" transform="rotate(90) translate(36 -43)" onmousedown="handlePan(1,0)">
                  <use xlink:href="#rim" fill="#404040">
                        <set attributeName="fill" to="#808080" begin="arrowRight.mouseover" end="arrowRight.mouseout"/>
                  </use>
                  <path fill="none" stroke="white" stroke-width="1.5" d="M0,-3.0v7 M-2.5,-0.5L0,-3.0L2.5,-0.5"/>
                </g>
                <g id="arrowDown" xlink:href="#dirArrow" transform="rotate(180) translate(-30 -48)" onmousedown="handlePan(0,1)">
                  <use xlink:href="#rim" fill="#404040">
                        <set attributeName="fill" to="#808080" begin="arrowDown.mouseover" end="arrowDown.mouseout"/>
                  </use>
                  <path fill="none" stroke="white" stroke-width="1.5" d="M0,-3.0v7 M-2.5,-0.5L0,-3.0L2.5,-0.5"/>
                </g>
                <g id="arrowLeft" xlink:href="#dirArrow" transform="rotate(270) translate(-36 17)" onmousedown="handlePan(-1,0)">
                  <use xlink:href="#rim" fill="#404040">
                        <set attributeName="fill" to="#808080" begin="arrowLeft.mouseover" end="arrowLeft.mouseout"/>
                  </use>
                  <path fill="none" stroke="white" stroke-width="1.5" d="M0,-3.0v7 M-2.5,-0.5L0,-3.0L2.5,-0.5"/>
                </g>
        </g>
        <svg viewBox="0 0 15 15" width="100%" height="30px" preserveAspectRatio="xMaxYMin meet">
         <g id="arrow_out" transform="scale(0.3 0.3)">
          <a xlink:href="classamr__wind_1_1wave__energy_1_1_wave_energy__coll__graph_org.svg" target="_base">
           <rect id="button" ry="5" rx="5" y="6" x="6" height="38" width="38"
                fill="#f2f5e9" fill-opacity="0.5" stroke="#606060" stroke-width="1.0"/>
           <path id="arrow"
             d="M 11.500037,31.436501 C 11.940474,20.09759 22.043105,11.32322 32.158766,21.979434 L 37.068811,17.246167 C 37.068811,17.246167 37.088388,32 37.088388,32 L 22.160133,31.978069 C 22.160133,31.978069 26.997745,27.140456 26.997745,27.140456 C 18.528582,18.264221 13.291696,25.230495 11.500037,31.436501 z"
             style="fill:#404040;"/>
          </a>
         </g>
        </svg>
</svg>
