<?xml version="1.0" encoding="UTF-8" standalone="no"?>
<!DOCTYPE svg PUBLIC "-//W3C//DTD SVG 1.1//EN"
 "http://www.w3.org/Graphics/SVG/1.1/DTD/svg11.dtd">
<!-- Generated by graphviz version 2.43.0 (0)
 -->
<!-- Title: amr_wind::actuator::ActuatorContainer Pages: 1 -->
<svg width="382pt" height="100pt"
 viewBox="0.00 0.00 382.00 99.50" xmlns="http://www.w3.org/2000/svg" xmlns:xlink="http://www.w3.org/1999/xlink">
<g id="graph0" class="graph" transform="scale(1 1) rotate(0) translate(4 95.5)">
<title>amr_wind::actuator::ActuatorContainer</title>
<polygon fill="white" stroke="transparent" points="-4,4 -4,-95.5 378,-95.5 378,4 -4,4"/>
<!-- Node1 -->
<g id="node1" class="node">
<title>Node1</title>
<g id="a_node1"><a xlink:title="Specialization of AmrParticleContainer for sampling velocities.">
<polygon fill="#bfbfbf" stroke="black" points="263,-27.5 263,-57.5 374,-57.5 374,-27.5 263,-27.5"/>
<text text-anchor="start" x="271" y="-45.5" font-family="Helvetica,sans-Serif" font-size="10.00">amr_wind::actuator</text>
<text text-anchor="middle" x="318.5" y="-34.5" font-family="Helvetica,sans-Serif" font-size="10.00">::ActuatorContainer</text>
</a>
</g>
</g>
<!-- Node2 -->
<g id="node2" class="node">
<title>Node2</title>
<g id="a_node2"><a xlink:title=" ">
<polygon fill="white" stroke="#bfbfbf" points="0,-50 0,-91 187,-91 187,-50 0,-50"/>
<text text-anchor="start" x="8" y="-79" font-family="Helvetica,sans-Serif" font-size="10.00">amrex::AmrParticleContainer</text>
<text text-anchor="start" x="8" y="-68" font-family="Helvetica,sans-Serif" font-size="10.00">&lt; NumPStructReal, NumPStructInt,</text>
<text text-anchor="middle" x="93.5" y="-57" font-family="Helvetica,sans-Serif" font-size="10.00"> NumPArrayReal, NumPArrayInt &gt;</text>
</a>
</g>
</g>
<!-- Node2&#45;&gt;Node1 -->
<g id="edge1" class="edge">
<title>Node2&#45;&gt;Node1</title>
<path fill="none" stroke="midnightblue" d="M197.14,-57.61C219.78,-54.77 242.91,-51.87 262.76,-49.37"/>
<polygon fill="midnightblue" stroke="midnightblue" points="196.62,-54.15 187.13,-58.87 197.49,-61.1 196.62,-54.15"/>
</g>
<!-- Node3 -->
<g id="node3" class="node">
<title>Node3</title>
<g id="a_node3"><a xlink:href="structamr__wind_1_1actuator_1_1_actuator_cloud.html" target="_top" xlink:title="Cloud of actuator points.">
<polygon fill="white" stroke="black" points="38,-0.5 38,-30.5 149,-30.5 149,-0.5 38,-0.5"/>
<text text-anchor="start" x="46" y="-18.5" font-family="Helvetica,sans-Serif" font-size="10.00">amr_wind::actuator</text>
<text text-anchor="middle" x="93.5" y="-7.5" font-family="Helvetica,sans-Serif" font-size="10.00">::ActuatorCloud</text>
</a>
</g>
</g>
<!-- Node3&#45;&gt;Node1 -->
<g id="edge2" class="edge">
<title>Node3&#45;&gt;Node1</title>
<path fill="none" stroke="#9a32cd" stroke-dasharray="5,2" d="M159.02,-23.31C191.87,-27.29 231.38,-32.07 262.74,-35.87"/>
<polygon fill="#9a32cd" stroke="#9a32cd" points="159.4,-19.83 149.05,-22.1 158.56,-26.78 159.4,-19.83"/>
<text text-anchor="middle" x="225" y="-36.5" font-family="Helvetica,sans-Serif" font-size="10.00"> m_data</text>
</g>
</g>
</svg>
