<?xml version="1.0" encoding="UTF-8" standalone="no"?>
<!DOCTYPE svg PUBLIC "-//W3C//DTD SVG 1.1//EN"
 "http://www.w3.org/Graphics/SVG/1.1/DTD/svg11.dtd">
<!-- Generated by graphviz version 2.43.0 (0)
 -->
<!-- Title: amr_wind::tagging::GeometryType Pages: 1 -->
<svg width="188pt" height="229pt"
 viewBox="0.00 0.00 187.50 229.00" xmlns="http://www.w3.org/2000/svg" xmlns:xlink="http://www.w3.org/1999/xlink">
<g id="graph0" class="graph" transform="scale(1 1) rotate(0) translate(4 225)">
<title>amr_wind::tagging::GeometryType</title>
<polygon fill="white" stroke="transparent" points="-4,4 -4,-225 183.5,-225 183.5,4 -4,4"/>
<!-- Node1 -->
<g id="node1" class="node">
<title>Node1</title>
<g id="a_node1"><a xlink:title="Abstract definition of shapes for AMR.">
<polygon fill="#bfbfbf" stroke="black" points="5,-0.5 5,-30.5 118,-30.5 118,-0.5 5,-0.5"/>
<text text-anchor="start" x="13" y="-18.5" font-family="Helvetica,sans-Serif" font-size="10.00">amr_wind::tagging::</text>
<text text-anchor="middle" x="61.5" y="-7.5" font-family="Helvetica,sans-Serif" font-size="10.00">GeometryType</text>
</a>
</g>
</g>
<!-- Node2 -->
<g id="node2" class="node">
<title>Node2</title>
<g id="a_node2"><a xlink:href="structamr__wind_1_1_factory.html" target="_top" xlink:title=" ">
<polygon fill="white" stroke="black" points="0,-68.5 0,-120.5 123,-120.5 123,-68.5 0,-68.5"/>
<text text-anchor="start" x="8" y="-108.5" font-family="Helvetica,sans-Serif" font-size="10.00">amr_wind::Factory&lt;</text>
<text text-anchor="start" x="8" y="-97.5" font-family="Helvetica,sans-Serif" font-size="10.00"> GeometryType, const</text>
<text text-anchor="start" x="8" y="-86.5" font-family="Helvetica,sans-Serif" font-size="10.00"> CFDSim &amp;, const std</text>
<text text-anchor="middle" x="61.5" y="-75.5" font-family="Helvetica,sans-Serif" font-size="10.00">::string &amp; &gt;</text>
</a>
</g>
</g>
<!-- Node2&#45;&gt;Node1 -->
<g id="edge1" class="edge">
<title>Node2&#45;&gt;Node1</title>
<path fill="none" stroke="midnightblue" d="M61.5,-58.03C61.5,-48.38 61.5,-38.47 61.5,-30.75"/>
<polygon fill="midnightblue" stroke="midnightblue" points="58,-58.29 61.5,-68.29 65,-58.29 58,-58.29"/>
</g>
<!-- Node3 -->
<g id="node3" class="node">
<title>Node3</title>
<g id="a_node3"><a xlink:href="structamr__wind_1_1_factory.html" target="_top" xlink:title="Runtime selection of options based on string keyword lookup.">
<polygon fill="white" stroke="black" points="4.5,-190.5 4.5,-220.5 118.5,-220.5 118.5,-190.5 4.5,-190.5"/>
<text text-anchor="start" x="12.5" y="-208.5" font-family="Helvetica,sans-Serif" font-size="10.00">amr_wind::Factory&lt;</text>
<text text-anchor="middle" x="61.5" y="-197.5" font-family="Helvetica,sans-Serif" font-size="10.00"> Base, Args &gt;</text>
</a>
</g>
</g>
<!-- Node3&#45;&gt;Node2 -->
<g id="edge2" class="edge">
<title>Node3&#45;&gt;Node2</title>
<path fill="none" stroke="orange" stroke-dasharray="5,2" d="M61.5,-180.13C61.5,-162.4 61.5,-138.48 61.5,-120.6"/>
<polygon fill="orange" stroke="orange" points="58,-180.25 61.5,-190.25 65,-180.25 58,-180.25"/>
<text text-anchor="start" x="61.5" y="-164" font-family="Helvetica,sans-Serif" font-size="10.00"> &lt; GeometryType, const</text>
<text text-anchor="start" x="61.5" y="-153" font-family="Helvetica,sans-Serif" font-size="10.00"> CFDSim &amp;, const std</text>
<text text-anchor="middle" x="120.5" y="-142" font-family="Helvetica,sans-Serif" font-size="10.00">::string &amp; &gt;</text>
</g>
</g>
</svg>
