<?xml version="1.0" encoding="UTF-8" standalone="no"?>
<!DOCTYPE svg PUBLIC "-//W3C//DTD SVG 1.1//EN"
 "http://www.w3.org/Graphics/SVG/1.1/DTD/svg11.dtd">
<!-- Generated by graphviz version 2.43.0 (0)
 -->
<!-- Title: amr_wind::turbulence::KOmegaSSTIDDES&lt; Transport &gt; Pages: 1 -->
<svg width="198pt" height="468pt"
 viewBox="0.00 0.00 197.50 468.00" xmlns="http://www.w3.org/2000/svg" xmlns:xlink="http://www.w3.org/1999/xlink">
<g id="graph0" class="graph" transform="scale(1 1) rotate(0) translate(4 464)">
<title>amr_wind::turbulence::KOmegaSSTIDDES&lt; Transport &gt;</title>
<polygon fill="white" stroke="transparent" points="-4,4 -4,-464 193.5,-464 193.5,4 -4,4"/>
<!-- Node1 -->
<g id="node1" class="node">
<title>Node1</title>
<g id="a_node1"><a xlink:title="K&#45;Omega&#45;SST&#45;IDDES Hybrid RANS/LES turbulence model.">
<polygon fill="#bfbfbf" stroke="black" points="0,-0.5 0,-30.5 179,-30.5 179,-0.5 0,-0.5"/>
<text text-anchor="start" x="8" y="-18.5" font-family="Helvetica,sans-Serif" font-size="10.00">amr_wind::turbulence</text>
<text text-anchor="middle" x="89.5" y="-7.5" font-family="Helvetica,sans-Serif" font-size="10.00">::KOmegaSSTIDDES&lt; Transport &gt;</text>
</a>
</g>
</g>
<!-- Node2 -->
<g id="node2" class="node">
<title>Node2</title>
<g id="a_node2"><a xlink:href="classamr__wind_1_1turbulence_1_1_k_omega_s_s_t.html" target="_top" xlink:title="K&#45;Omega&#45;SST RANS turbulence model.">
<polygon fill="white" stroke="black" points="15,-68.5 15,-98.5 164,-98.5 164,-68.5 15,-68.5"/>
<text text-anchor="start" x="23" y="-86.5" font-family="Helvetica,sans-Serif" font-size="10.00">amr_wind::turbulence</text>
<text text-anchor="middle" x="89.5" y="-75.5" font-family="Helvetica,sans-Serif" font-size="10.00">::KOmegaSST&lt; Transport &gt;</text>
</a>
</g>
</g>
<!-- Node2&#45;&gt;Node1 -->
<g id="edge1" class="edge">
<title>Node2&#45;&gt;Node1</title>
<path fill="none" stroke="midnightblue" d="M89.5,-58.03C89.5,-48.86 89.5,-38.74 89.5,-30.79"/>
<polygon fill="midnightblue" stroke="midnightblue" points="86,-58.18 89.5,-68.18 93,-58.18 86,-58.18"/>
</g>
<!-- Node3 -->
<g id="node3" class="node">
<title>Node3</title>
<g id="a_node3"><a xlink:href="classamr__wind_1_1turbulence_1_1_turb_model_base.html" target="_top" xlink:title="Turbulence model aspects common to both LES and RANS models.">
<polygon fill="white" stroke="black" points="7.5,-136.5 7.5,-166.5 171.5,-166.5 171.5,-136.5 7.5,-136.5"/>
<text text-anchor="start" x="15.5" y="-154.5" font-family="Helvetica,sans-Serif" font-size="10.00">amr_wind::turbulence</text>
<text text-anchor="middle" x="89.5" y="-143.5" font-family="Helvetica,sans-Serif" font-size="10.00">::TurbModelBase&lt; Transport &gt;</text>
</a>
</g>
</g>
<!-- Node3&#45;&gt;Node2 -->
<g id="edge2" class="edge">
<title>Node3&#45;&gt;Node2</title>
<path fill="none" stroke="midnightblue" d="M89.5,-126.03C89.5,-116.86 89.5,-106.74 89.5,-98.79"/>
<polygon fill="midnightblue" stroke="midnightblue" points="86,-126.18 89.5,-136.18 93,-126.18 86,-126.18"/>
</g>
<!-- Node4 -->
<g id="node4" class="node">
<title>Node4</title>
<g id="a_node4"><a xlink:href="classamr__wind_1_1turbulence_1_1_turb_model.html" target="_top" xlink:title="Turbulence model with a specific transport model.">
<polygon fill="white" stroke="black" points="19.5,-204.5 19.5,-234.5 159.5,-234.5 159.5,-204.5 19.5,-204.5"/>
<text text-anchor="start" x="27.5" y="-222.5" font-family="Helvetica,sans-Serif" font-size="10.00">amr_wind::turbulence</text>
<text text-anchor="middle" x="89.5" y="-211.5" font-family="Helvetica,sans-Serif" font-size="10.00">::TurbModel&lt; Transport &gt;</text>
</a>
</g>
</g>
<!-- Node4&#45;&gt;Node3 -->
<g id="edge3" class="edge">
<title>Node4&#45;&gt;Node3</title>
<path fill="none" stroke="midnightblue" d="M89.5,-194.03C89.5,-184.86 89.5,-174.74 89.5,-166.79"/>
<polygon fill="midnightblue" stroke="midnightblue" points="86,-194.18 89.5,-204.18 93,-194.18 86,-194.18"/>
</g>
<!-- Node5 -->
<g id="node5" class="node">
<title>Node5</title>
<g id="a_node5"><a xlink:href="classamr__wind_1_1turbulence_1_1_turbulence_model.html" target="_top" xlink:title="Abstract representation of a turbulence model.">
<polygon fill="white" stroke="black" points="28.5,-272.5 28.5,-302.5 150.5,-302.5 150.5,-272.5 28.5,-272.5"/>
<text text-anchor="start" x="36.5" y="-290.5" font-family="Helvetica,sans-Serif" font-size="10.00">amr_wind::turbulence</text>
<text text-anchor="middle" x="89.5" y="-279.5" font-family="Helvetica,sans-Serif" font-size="10.00">::TurbulenceModel</text>
</a>
</g>
</g>
<!-- Node5&#45;&gt;Node4 -->
<g id="edge4" class="edge">
<title>Node5&#45;&gt;Node4</title>
<path fill="none" stroke="midnightblue" d="M89.5,-262.03C89.5,-252.86 89.5,-242.74 89.5,-234.79"/>
<polygon fill="midnightblue" stroke="midnightblue" points="86,-262.18 89.5,-272.18 93,-262.18 86,-262.18"/>
</g>
<!-- Node6 -->
<g id="node6" class="node">
<title>Node6</title>
<g id="a_node6"><a xlink:href="structamr__wind_1_1_factory.html" target="_top" xlink:title=" ">
<polygon fill="white" stroke="black" points="5,-340.5 5,-370.5 174,-370.5 174,-340.5 5,-340.5"/>
<text text-anchor="start" x="13" y="-358.5" font-family="Helvetica,sans-Serif" font-size="10.00">amr_wind::Factory&lt;</text>
<text text-anchor="middle" x="89.5" y="-347.5" font-family="Helvetica,sans-Serif" font-size="10.00"> TurbulenceModel, CFDSim &amp; &gt;</text>
</a>
</g>
</g>
<!-- Node6&#45;&gt;Node5 -->
<g id="edge5" class="edge">
<title>Node6&#45;&gt;Node5</title>
<path fill="none" stroke="midnightblue" d="M89.5,-330.03C89.5,-320.86 89.5,-310.74 89.5,-302.79"/>
<polygon fill="midnightblue" stroke="midnightblue" points="86,-330.18 89.5,-340.18 93,-330.18 86,-330.18"/>
</g>
<!-- Node7 -->
<g id="node7" class="node">
<title>Node7</title>
<g id="a_node7"><a xlink:href="structamr__wind_1_1_factory.html" target="_top" xlink:title="Runtime selection of options based on string keyword lookup.">
<polygon fill="white" stroke="black" points="32.5,-429.5 32.5,-459.5 146.5,-459.5 146.5,-429.5 32.5,-429.5"/>
<text text-anchor="start" x="40.5" y="-447.5" font-family="Helvetica,sans-Serif" font-size="10.00">amr_wind::Factory&lt;</text>
<text text-anchor="middle" x="89.5" y="-436.5" font-family="Helvetica,sans-Serif" font-size="10.00"> Base, Args &gt;</text>
</a>
</g>
</g>
<!-- Node7&#45;&gt;Node6 -->
<g id="edge6" class="edge">
<title>Node7&#45;&gt;Node6</title>
<path fill="none" stroke="orange" stroke-dasharray="5,2" d="M89.5,-419.09C89.5,-403.44 89.5,-383.68 89.5,-370.6"/>
<polygon fill="orange" stroke="orange" points="86,-419.13 89.5,-429.13 93,-419.13 86,-419.13"/>
<text text-anchor="start" x="89.5" y="-403" font-family="Helvetica,sans-Serif" font-size="10.00"> &lt; TurbulenceModel,</text>
<text text-anchor="middle" x="139.5" y="-392" font-family="Helvetica,sans-Serif" font-size="10.00"> CFDSim &amp; &gt;</text>
</g>
</g>
</svg>
