<?xml version="1.0" encoding="UTF-8" standalone="no"?>
<!DOCTYPE svg PUBLIC "-//W3C//DTD SVG 1.1//EN"
 "http://www.w3.org/Graphics/SVG/1.1/DTD/svg11.dtd">
<!-- Generated by graphviz version 2.43.0 (0)
 -->
<!-- Title: amr_wind::pde::icns::mms::MMSForcing Pages: 1 -->
<svg width="1349pt" height="148pt"
 viewBox="0.00 0.00 1349.00 148.00" xmlns="http://www.w3.org/2000/svg" xmlns:xlink="http://www.w3.org/1999/xlink">
<g id="graph0" class="graph" transform="scale(1 1) rotate(0) translate(4 144)">
<title>amr_wind::pde::icns::mms::MMSForcing</title>
<polygon fill="white" stroke="transparent" points="-4,4 -4,-144 1345,-144 1345,4 -4,4"/>
<!-- Node1 -->
<g id="node1" class="node">
<title>Node1</title>
<g id="a_node1"><a xlink:title=" ">
<polygon fill="#bfbfbf" stroke="black" points="1227,-72.5 1227,-102.5 1341,-102.5 1341,-72.5 1227,-72.5"/>
<text text-anchor="start" x="1235" y="-90.5" font-family="Helvetica,sans-Serif" font-size="10.00">amr_wind::pde::icns</text>
<text text-anchor="middle" x="1284" y="-79.5" font-family="Helvetica,sans-Serif" font-size="10.00">::mms::MMSForcing</text>
</a>
</g>
</g>
<!-- Node2 -->
<g id="node2" class="node">
<title>Node2</title>
<g id="a_node2"><a xlink:title=" ">
<polygon fill="white" stroke="#bfbfbf" points="938,-94.5 938,-124.5 1090,-124.5 1090,-94.5 938,-94.5"/>
<text text-anchor="start" x="946" y="-112.5" font-family="Helvetica,sans-Serif" font-size="10.00">MomentumSource::Register</text>
<text text-anchor="middle" x="1014" y="-101.5" font-family="Helvetica,sans-Serif" font-size="10.00">&lt; MMSForcing &gt;</text>
</a>
</g>
</g>
<!-- Node2&#45;&gt;Node1 -->
<g id="edge1" class="edge">
<title>Node2&#45;&gt;Node1</title>
<path fill="none" stroke="midnightblue" d="M1100.09,-102.52C1141.46,-99.12 1190.05,-95.13 1226.74,-92.12"/>
<polygon fill="midnightblue" stroke="midnightblue" points="1099.69,-99.04 1090.01,-103.34 1100.26,-106.01 1099.69,-99.04"/>
</g>
<!-- Node3 -->
<g id="node3" class="node">
<title>Node3</title>
<g id="a_node3"><a xlink:href="classamr__wind_1_1_field.html" target="_top" xlink:title="Computational field.">
<polygon fill="white" stroke="black" points="967,-56 967,-75 1061,-75 1061,-56 967,-56"/>
<text text-anchor="middle" x="1014" y="-63" font-family="Helvetica,sans-Serif" font-size="10.00">amr_wind::Field</text>
</a>
</g>
</g>
<!-- Node3&#45;&gt;Node1 -->
<g id="edge2" class="edge">
<title>Node3&#45;&gt;Node1</title>
<path fill="none" stroke="#9a32cd" stroke-dasharray="5,2" d="M1071.35,-68.47C1110.1,-70.71 1162.72,-74.14 1209,-78.5 1214.8,-79.05 1220.84,-79.68 1226.87,-80.35"/>
<polygon fill="#9a32cd" stroke="#9a32cd" points="1071.49,-64.97 1061.31,-67.9 1071.09,-71.96 1071.49,-64.97"/>
<text text-anchor="middle" x="1158.5" y="-81.5" font-family="Helvetica,sans-Serif" font-size="10.00"> m_mms_vel_source</text>
</g>
<!-- Node4 -->
<g id="node4" class="node">
<title>Node4</title>
<g id="a_node4"><a xlink:title=" ">
<polygon fill="white" stroke="#bfbfbf" points="605,-109.5 605,-139.5 725,-139.5 725,-109.5 605,-109.5"/>
<text text-anchor="start" x="613" y="-127.5" font-family="Helvetica,sans-Serif" font-size="10.00">std::shared_ptr&lt; amr</text>
<text text-anchor="middle" x="665" y="-116.5" font-family="Helvetica,sans-Serif" font-size="10.00">_wind::FieldInfo &gt;</text>
</a>
</g>
</g>
<!-- Node4&#45;&gt;Node3 -->
<g id="edge3" class="edge">
<title>Node4&#45;&gt;Node3</title>
<path fill="none" stroke="#9a32cd" stroke-dasharray="5,2" d="M735.14,-112.74C803.88,-101.06 907.39,-83.46 966.76,-73.36"/>
<polygon fill="#9a32cd" stroke="#9a32cd" points="734.53,-109.3 725.26,-114.42 735.7,-116.2 734.53,-109.3"/>
<text text-anchor="middle" x="802.5" y="-113.5" font-family="Helvetica,sans-Serif" font-size="10.00"> m_info</text>
</g>
<!-- Node5 -->
<g id="node5" class="node">
<title>Node5</title>
<g id="a_node5"><a xlink:title=" ">
<polygon fill="white" stroke="#bfbfbf" points="189,-118 189,-137 307,-137 307,-118 189,-118"/>
<text text-anchor="middle" x="248" y="-125" font-family="Helvetica,sans-Serif" font-size="10.00">std::shared_ptr&lt; T &gt;</text>
</a>
</g>
</g>
<!-- Node5&#45;&gt;Node4 -->
<g id="edge4" class="edge">
<title>Node5&#45;&gt;Node4</title>
<path fill="none" stroke="orange" stroke-dasharray="5,2" d="M317.62,-127C397.79,-126.42 529.08,-125.48 604.91,-124.93"/>
<polygon fill="orange" stroke="orange" points="317.12,-123.51 307.14,-127.08 317.17,-130.51 317.12,-123.51"/>
<text text-anchor="middle" x="386" y="-129.5" font-family="Helvetica,sans-Serif" font-size="10.00"> &lt; amr_wind::FieldInfo &gt;</text>
</g>
<!-- Node6 -->
<g id="node6" class="node">
<title>Node6</title>
<g id="a_node6"><a xlink:title=" ">
<polygon fill="white" stroke="#bfbfbf" points="37.5,-103 37.5,-122 66.5,-122 66.5,-103 37.5,-103"/>
<text text-anchor="middle" x="52" y="-110" font-family="Helvetica,sans-Serif" font-size="10.00">T</text>
</a>
</g>
</g>
<!-- Node6&#45;&gt;Node5 -->
<g id="edge5" class="edge">
<title>Node6&#45;&gt;Node5</title>
<path fill="none" stroke="#9a32cd" stroke-dasharray="5,2" d="M76.95,-114.35C104.69,-116.5 151.35,-120.1 188.79,-123"/>
<polygon fill="#9a32cd" stroke="#9a32cd" points="76.88,-110.84 66.64,-113.55 76.34,-117.82 76.88,-110.84"/>
<text text-anchor="middle" x="146.5" y="-123.5" font-family="Helvetica,sans-Serif" font-size="10.00"> ptr</text>
</g>
<!-- Node11 -->
<g id="node11" class="node">
<title>Node11</title>
<g id="a_node11"><a xlink:title=" ">
<polygon fill="white" stroke="#bfbfbf" points="191,-68.5 191,-98.5 305,-98.5 305,-68.5 191,-68.5"/>
<text text-anchor="start" x="199" y="-86.5" font-family="Helvetica,sans-Serif" font-size="10.00">std::unordered_map</text>
<text text-anchor="middle" x="248" y="-75.5" font-family="Helvetica,sans-Serif" font-size="10.00">&lt; K, T &gt;</text>
</a>
</g>
</g>
<!-- Node6&#45;&gt;Node11 -->
<g id="edge13" class="edge">
<title>Node6&#45;&gt;Node11</title>
<path fill="none" stroke="#9a32cd" stroke-dasharray="5,2" d="M76.78,-108.95C105.03,-104.72 153.11,-97.54 190.98,-91.87"/>
<polygon fill="#9a32cd" stroke="#9a32cd" points="76.01,-105.52 66.64,-110.46 77.05,-112.44 76.01,-105.52"/>
<text text-anchor="middle" x="146.5" y="-103.5" font-family="Helvetica,sans-Serif" font-size="10.00"> elements</text>
</g>
<!-- Node7 -->
<g id="node7" class="node">
<title>Node7</title>
<g id="a_node7"><a xlink:title=" ">
<polygon fill="white" stroke="#bfbfbf" points="215.5,-7 215.5,-26 280.5,-26 280.5,-7 215.5,-7"/>
<text text-anchor="middle" x="248" y="-14" font-family="Helvetica,sans-Serif" font-size="10.00">std::string</text>
</a>
</g>
</g>
<!-- Node7&#45;&gt;Node3 -->
<g id="edge6" class="edge">
<title>Node7&#45;&gt;Node3</title>
<path fill="none" stroke="#9a32cd" stroke-dasharray="5,2" d="M290.85,-17.45C390.15,-19.94 647.69,-27.8 862,-46.5 897.27,-49.58 936.99,-54.64 966.84,-58.76"/>
<polygon fill="#9a32cd" stroke="#9a32cd" points="290.72,-13.94 280.64,-17.2 290.55,-20.94 290.72,-13.94"/>
<text text-anchor="middle" x="665" y="-39.5" font-family="Helvetica,sans-Serif" font-size="10.00"> m_name</text>
</g>
<!-- Node10 -->
<g id="node10" class="node">
<title>Node10</title>
<g id="a_node10"><a xlink:title=" ">
<polygon fill="white" stroke="#bfbfbf" points="465,-50.5 465,-80.5 587,-80.5 587,-50.5 465,-50.5"/>
<text text-anchor="start" x="473" y="-68.5" font-family="Helvetica,sans-Serif" font-size="10.00">std::unordered_map</text>
<text text-anchor="middle" x="526" y="-57.5" font-family="Helvetica,sans-Serif" font-size="10.00">&lt; std::string, size_t &gt;</text>
</a>
</g>
</g>
<!-- Node7&#45;&gt;Node10 -->
<g id="edge10" class="edge">
<title>Node7&#45;&gt;Node10</title>
<path fill="none" stroke="#9a32cd" stroke-dasharray="5,2" d="M290.65,-23.9C336.99,-32.12 412.24,-45.48 464.93,-54.84"/>
<polygon fill="#9a32cd" stroke="#9a32cd" points="291.12,-20.42 280.66,-22.12 289.89,-27.32 291.12,-20.42"/>
<text text-anchor="middle" x="386" y="-54.5" font-family="Helvetica,sans-Serif" font-size="10.00"> keys</text>
</g>
<!-- Node8 -->
<g id="node8" class="node">
<title>Node8</title>
<g id="a_node8"><a xlink:title=" ">
<polygon fill="white" stroke="#bfbfbf" points="0,-0.5 0,-30.5 104,-30.5 104,-0.5 0,-0.5"/>
<text text-anchor="start" x="8" y="-18.5" font-family="Helvetica,sans-Serif" font-size="10.00">std::basic_string&lt;</text>
<text text-anchor="middle" x="52" y="-7.5" font-family="Helvetica,sans-Serif" font-size="10.00"> Char &gt;</text>
</a>
</g>
</g>
<!-- Node8&#45;&gt;Node7 -->
<g id="edge7" class="edge">
<title>Node8&#45;&gt;Node7</title>
<path fill="none" stroke="midnightblue" d="M114.39,-15.82C147.91,-15.99 188.01,-16.2 215.27,-16.34"/>
<polygon fill="midnightblue" stroke="midnightblue" points="114.24,-12.32 104.22,-15.76 114.21,-19.32 114.24,-12.32"/>
</g>
<!-- Node9 -->
<g id="node9" class="node">
<title>Node9</title>
<g id="a_node9"><a xlink:href="classamr__wind_1_1_field_repo.html" target="_top" xlink:title="Field Repository.">
<polygon fill="white" stroke="black" points="743,-56 743,-75 862,-75 862,-56 743,-56"/>
<text text-anchor="middle" x="802.5" y="-63" font-family="Helvetica,sans-Serif" font-size="10.00">amr_wind::FieldRepo</text>
</a>
</g>
</g>
<!-- Node9&#45;&gt;Node3 -->
<g id="edge8" class="edge">
<title>Node9&#45;&gt;Node3</title>
<path fill="none" stroke="#9a32cd" stroke-dasharray="5,2" d="M872.42,-65.5C903.35,-65.5 939.01,-65.5 966.67,-65.5"/>
<polygon fill="#9a32cd" stroke="#9a32cd" points="872.14,-62 862.14,-65.5 872.14,-69 872.14,-62"/>
<text text-anchor="middle" x="900" y="-68.5" font-family="Helvetica,sans-Serif" font-size="10.00"> m_repo</text>
</g>
<!-- Node10&#45;&gt;Node9 -->
<g id="edge9" class="edge">
<title>Node10&#45;&gt;Node9</title>
<path fill="none" stroke="#9a32cd" stroke-dasharray="5,2" d="M597.52,-65.5C642.56,-65.5 700.28,-65.5 742.81,-65.5"/>
<polygon fill="#9a32cd" stroke="#9a32cd" points="597.24,-62 587.24,-65.5 597.24,-69 597.24,-62"/>
<text text-anchor="middle" x="665" y="-79.5" font-family="Helvetica,sans-Serif" font-size="10.00"> m_fid_map</text>
<text text-anchor="middle" x="665" y="-68.5" font-family="Helvetica,sans-Serif" font-size="10.00">m_int_fid_map</text>
</g>
<!-- Node11&#45;&gt;Node10 -->
<g id="edge11" class="edge">
<title>Node11&#45;&gt;Node10</title>
<path fill="none" stroke="orange" stroke-dasharray="5,2" d="M315.23,-79.18C360.66,-76.22 420.46,-72.32 464.59,-69.44"/>
<polygon fill="orange" stroke="orange" points="314.94,-75.69 305.19,-79.84 315.39,-82.68 314.94,-75.69"/>
<text text-anchor="middle" x="386" y="-80.5" font-family="Helvetica,sans-Serif" font-size="10.00"> &lt; std::string, size_t &gt;</text>
</g>
<!-- Node12 -->
<g id="node12" class="node">
<title>Node12</title>
<g id="a_node12"><a xlink:title=" ">
<polygon fill="white" stroke="#bfbfbf" points="37.5,-50 37.5,-69 66.5,-69 66.5,-50 37.5,-50"/>
<text text-anchor="middle" x="52" y="-57" font-family="Helvetica,sans-Serif" font-size="10.00">K</text>
</a>
</g>
</g>
<!-- Node12&#45;&gt;Node11 -->
<g id="edge12" class="edge">
<title>Node12&#45;&gt;Node11</title>
<path fill="none" stroke="#9a32cd" stroke-dasharray="5,2" d="M76.8,-57.73C100.74,-56.4 138.65,-55.57 171,-60.5 182.18,-62.2 193.99,-65.17 204.89,-68.43"/>
<polygon fill="#9a32cd" stroke="#9a32cd" points="76.31,-54.25 66.55,-58.37 76.75,-61.24 76.31,-54.25"/>
<text text-anchor="middle" x="146.5" y="-63.5" font-family="Helvetica,sans-Serif" font-size="10.00"> keys</text>
</g>
</g>
</svg>
