<?xml version="1.0" encoding="UTF-8" standalone="no"?>
<!DOCTYPE svg PUBLIC "-//W3C//DTD SVG 1.1//EN"
 "http://www.w3.org/Graphics/SVG/1.1/DTD/svg11.dtd">
<!-- Generated by graphviz version 2.43.0 (0)
 -->
<!-- Title: amr_wind::FieldRepo Pages: 1 -->
<svg width="253pt" height="273pt"
 viewBox="0.00 0.00 253.00 273.00" xmlns="http://www.w3.org/2000/svg" xmlns:xlink="http://www.w3.org/1999/xlink">
<g id="graph0" class="graph" transform="scale(1 1) rotate(0) translate(4 269)">
<title>amr_wind::FieldRepo</title>
<polygon fill="white" stroke="transparent" points="-4,4 -4,-269 249,-269 249,4 -4,4"/>
<!-- Node1 -->
<g id="node1" class="node">
<title>Node1</title>
<g id="a_node1"><a xlink:title="Field Repository.">
<polygon fill="#bfbfbf" stroke="black" points="45.5,-0.5 45.5,-19.5 164.5,-19.5 164.5,-0.5 45.5,-0.5"/>
<text text-anchor="middle" x="105" y="-7.5" font-family="Helvetica,sans-Serif" font-size="10.00">amr_wind::FieldRepo</text>
</a>
</g>
</g>
<!-- Node2 -->
<g id="node2" class="node">
<title>Node2</title>
<g id="a_node2"><a xlink:title=" ">
<polygon fill="white" stroke="#bfbfbf" points="44,-78.5 44,-108.5 166,-108.5 166,-78.5 44,-78.5"/>
<text text-anchor="start" x="52" y="-96.5" font-family="Helvetica,sans-Serif" font-size="10.00">std::unordered_map</text>
<text text-anchor="middle" x="105" y="-85.5" font-family="Helvetica,sans-Serif" font-size="10.00">&lt; std::string, size_t &gt;</text>
</a>
</g>
</g>
<!-- Node2&#45;&gt;Node1 -->
<g id="edge1" class="edge">
<title>Node2&#45;&gt;Node1</title>
<path fill="none" stroke="#9a32cd" stroke-dasharray="5,2" d="M105,-68.25C105,-51.78 105,-30.99 105,-19.54"/>
<polygon fill="#9a32cd" stroke="#9a32cd" points="101.5,-68.3 105,-78.3 108.5,-68.3 101.5,-68.3"/>
<text text-anchor="middle" x="141.5" y="-52" font-family="Helvetica,sans-Serif" font-size="10.00"> m_fid_map</text>
<text text-anchor="middle" x="141.5" y="-41" font-family="Helvetica,sans-Serif" font-size="10.00">m_int_fid_map</text>
</g>
<!-- Node3 -->
<g id="node3" class="node">
<title>Node3</title>
<g id="a_node3"><a xlink:title="STL class.">
<polygon fill="white" stroke="#bfbfbf" points="19.5,-162 19.5,-181 84.5,-181 84.5,-162 19.5,-162"/>
<text text-anchor="middle" x="52" y="-169" font-family="Helvetica,sans-Serif" font-size="10.00">std::string</text>
</a>
</g>
</g>
<!-- Node3&#45;&gt;Node2 -->
<g id="edge2" class="edge">
<title>Node3&#45;&gt;Node2</title>
<path fill="none" stroke="#9a32cd" stroke-dasharray="5,2" d="M63.95,-153.37C73.39,-139.83 86.4,-121.17 95.22,-108.52"/>
<polygon fill="#9a32cd" stroke="#9a32cd" points="60.93,-151.58 58.08,-161.78 66.67,-155.58 60.93,-151.58"/>
<text text-anchor="middle" x="95" y="-130" font-family="Helvetica,sans-Serif" font-size="10.00"> keys</text>
</g>
<!-- Node4 -->
<g id="node4" class="node">
<title>Node4</title>
<g id="a_node4"><a xlink:title="STL class.">
<polygon fill="white" stroke="#bfbfbf" points="0,-234.5 0,-264.5 104,-264.5 104,-234.5 0,-234.5"/>
<text text-anchor="start" x="8" y="-252.5" font-family="Helvetica,sans-Serif" font-size="10.00">std::basic_string&lt;</text>
<text text-anchor="middle" x="52" y="-241.5" font-family="Helvetica,sans-Serif" font-size="10.00"> char &gt;</text>
</a>
</g>
</g>
<!-- Node4&#45;&gt;Node3 -->
<g id="edge3" class="edge">
<title>Node4&#45;&gt;Node3</title>
<path fill="none" stroke="midnightblue" d="M52,-224.17C52,-209.4 52,-191.45 52,-181.06"/>
<polygon fill="midnightblue" stroke="midnightblue" points="48.5,-224.2 52,-234.2 55.5,-224.21 48.5,-224.2"/>
</g>
<!-- Node5 -->
<g id="node5" class="node">
<title>Node5</title>
<g id="a_node5"><a xlink:title="STL class.">
<polygon fill="white" stroke="#bfbfbf" points="103,-156.5 103,-186.5 217,-186.5 217,-156.5 103,-156.5"/>
<text text-anchor="start" x="111" y="-174.5" font-family="Helvetica,sans-Serif" font-size="10.00">std::unordered_map</text>
<text text-anchor="middle" x="160" y="-163.5" font-family="Helvetica,sans-Serif" font-size="10.00">&lt; K, T &gt;</text>
</a>
</g>
</g>
<!-- Node5&#45;&gt;Node2 -->
<g id="edge4" class="edge">
<title>Node5&#45;&gt;Node2</title>
<path fill="none" stroke="orange" stroke-dasharray="5,2" d="M143.67,-147.94C134.48,-135.23 123.28,-119.75 115.3,-108.73"/>
<polygon fill="orange" stroke="orange" points="140.96,-150.16 149.65,-156.2 146.63,-146.05 140.96,-150.16"/>
<text text-anchor="middle" x="190.5" y="-130" font-family="Helvetica,sans-Serif" font-size="10.00"> &lt; std::string, size_t &gt;</text>
</g>
<!-- Node6 -->
<g id="node6" class="node">
<title>Node6</title>
<g id="a_node6"><a xlink:title=" ">
<polygon fill="white" stroke="#bfbfbf" points="133.5,-240 133.5,-259 162.5,-259 162.5,-240 133.5,-240"/>
<text text-anchor="middle" x="148" y="-247" font-family="Helvetica,sans-Serif" font-size="10.00">K</text>
</a>
</g>
</g>
<!-- Node6&#45;&gt;Node5 -->
<g id="edge5" class="edge">
<title>Node6&#45;&gt;Node5</title>
<path fill="none" stroke="#9a32cd" stroke-dasharray="5,2" d="M147.19,-229.64C147.19,-221.95 147.59,-213 149,-205 150.08,-198.9 152.09,-192.39 154.11,-186.81"/>
<polygon fill="#9a32cd" stroke="#9a32cd" points="143.7,-229.84 147.43,-239.76 150.7,-229.68 143.7,-229.84"/>
<text text-anchor="middle" x="162" y="-208" font-family="Helvetica,sans-Serif" font-size="10.00"> keys</text>
</g>
<!-- Node7 -->
<g id="node7" class="node">
<title>Node7</title>
<g id="a_node7"><a xlink:title=" ">
<polygon fill="white" stroke="#bfbfbf" points="182.5,-240 182.5,-259 211.5,-259 211.5,-240 182.5,-240"/>
<text text-anchor="middle" x="197" y="-247" font-family="Helvetica,sans-Serif" font-size="10.00">T</text>
</a>
</g>
</g>
<!-- Node7&#45;&gt;Node5 -->
<g id="edge6" class="edge">
<title>Node7&#45;&gt;Node5</title>
<path fill="none" stroke="#9a32cd" stroke-dasharray="5,2" d="M188.28,-230.58C181.72,-217.11 172.87,-198.93 166.83,-186.52"/>
<polygon fill="#9a32cd" stroke="#9a32cd" points="185.23,-232.32 192.76,-239.78 191.53,-229.26 185.23,-232.32"/>
<text text-anchor="middle" x="205.5" y="-208" font-family="Helvetica,sans-Serif" font-size="10.00"> elements</text>
</g>
</g>
</svg>
