<?xml version="1.0" encoding="UTF-8" standalone="no"?>
<!DOCTYPE svg PUBLIC "-//W3C//DTD SVG 1.1//EN"
 "http://www.w3.org/Graphics/SVG/1.1/DTD/svg11.dtd">
<!-- Generated by graphviz version 2.43.0 (0)
 -->
<!-- Title: amr_wind::CollMgr&lt; Collection, Type, allow_duplicates &gt; Pages: 1 -->
<svg width="238pt" height="284pt"
 viewBox="0.00 0.00 238.00 284.00" xmlns="http://www.w3.org/2000/svg" xmlns:xlink="http://www.w3.org/1999/xlink">
<g id="graph0" class="graph" transform="scale(1 1) rotate(0) translate(4 280)">
<title>amr_wind::CollMgr&lt; Collection, Type, allow_duplicates &gt;</title>
<polygon fill="white" stroke="transparent" points="-4,4 -4,-280 234,-280 234,4 -4,4"/>
<!-- Node1 -->
<g id="node1" class="node">
<title>Node1</title>
<g id="a_node1"><a xlink:title="Interface to manage objects of sub&#45;classes based on factory registration.">
<polygon fill="#bfbfbf" stroke="black" points="40.5,-0.5 40.5,-41.5 169.5,-41.5 169.5,-0.5 40.5,-0.5"/>
<text text-anchor="start" x="48.5" y="-29.5" font-family="Helvetica,sans-Serif" font-size="10.00">amr_wind::CollMgr&lt;</text>
<text text-anchor="start" x="48.5" y="-18.5" font-family="Helvetica,sans-Serif" font-size="10.00"> Collection, Type, allow</text>
<text text-anchor="middle" x="105" y="-7.5" font-family="Helvetica,sans-Serif" font-size="10.00">_duplicates &gt;</text>
</a>
</g>
</g>
<!-- Node2 -->
<g id="node2" class="node">
<title>Node2</title>
<g id="a_node2"><a xlink:title=" ">
<polygon fill="white" stroke="#bfbfbf" points="48,-89.5 48,-119.5 162,-119.5 162,-89.5 48,-89.5"/>
<text text-anchor="start" x="56" y="-107.5" font-family="Helvetica,sans-Serif" font-size="10.00">std::unordered_map</text>
<text text-anchor="middle" x="105" y="-96.5" font-family="Helvetica,sans-Serif" font-size="10.00">&lt; std::string, int &gt;</text>
</a>
</g>
</g>
<!-- Node2&#45;&gt;Node1 -->
<g id="edge1" class="edge">
<title>Node2&#45;&gt;Node1</title>
<path fill="none" stroke="#9a32cd" stroke-dasharray="5,2" d="M105,-79.07C105,-67.06 105,-52.79 105,-41.53"/>
<polygon fill="#9a32cd" stroke="#9a32cd" points="101.5,-79.3 105,-89.3 108.5,-79.3 101.5,-79.3"/>
<text text-anchor="middle" x="135.5" y="-63" font-family="Helvetica,sans-Serif" font-size="10.00"> m_obj_map</text>
</g>
<!-- Node3 -->
<g id="node3" class="node">
<title>Node3</title>
<g id="a_node3"><a xlink:title="STL class.">
<polygon fill="white" stroke="#bfbfbf" points="19.5,-173 19.5,-192 84.5,-192 84.5,-173 19.5,-173"/>
<text text-anchor="middle" x="52" y="-180" font-family="Helvetica,sans-Serif" font-size="10.00">std::string</text>
</a>
</g>
</g>
<!-- Node3&#45;&gt;Node2 -->
<g id="edge2" class="edge">
<title>Node3&#45;&gt;Node2</title>
<path fill="none" stroke="#9a32cd" stroke-dasharray="5,2" d="M63.95,-164.37C73.39,-150.83 86.4,-132.17 95.22,-119.52"/>
<polygon fill="#9a32cd" stroke="#9a32cd" points="60.93,-162.58 58.08,-172.78 66.67,-166.58 60.93,-162.58"/>
<text text-anchor="middle" x="95" y="-141" font-family="Helvetica,sans-Serif" font-size="10.00"> keys</text>
</g>
<!-- Node4 -->
<g id="node4" class="node">
<title>Node4</title>
<g id="a_node4"><a xlink:title="STL class.">
<polygon fill="white" stroke="#bfbfbf" points="0,-245.5 0,-275.5 104,-275.5 104,-245.5 0,-245.5"/>
<text text-anchor="start" x="8" y="-263.5" font-family="Helvetica,sans-Serif" font-size="10.00">std::basic_string&lt;</text>
<text text-anchor="middle" x="52" y="-252.5" font-family="Helvetica,sans-Serif" font-size="10.00"> char &gt;</text>
</a>
</g>
</g>
<!-- Node4&#45;&gt;Node3 -->
<g id="edge3" class="edge">
<title>Node4&#45;&gt;Node3</title>
<path fill="none" stroke="midnightblue" d="M52,-235.17C52,-220.4 52,-202.45 52,-192.06"/>
<polygon fill="midnightblue" stroke="midnightblue" points="48.5,-235.2 52,-245.2 55.5,-235.21 48.5,-235.2"/>
</g>
<!-- Node5 -->
<g id="node5" class="node">
<title>Node5</title>
<g id="a_node5"><a xlink:title="STL class.">
<polygon fill="white" stroke="#bfbfbf" points="103,-167.5 103,-197.5 217,-197.5 217,-167.5 103,-167.5"/>
<text text-anchor="start" x="111" y="-185.5" font-family="Helvetica,sans-Serif" font-size="10.00">std::unordered_map</text>
<text text-anchor="middle" x="160" y="-174.5" font-family="Helvetica,sans-Serif" font-size="10.00">&lt; K, T &gt;</text>
</a>
</g>
</g>
<!-- Node5&#45;&gt;Node2 -->
<g id="edge4" class="edge">
<title>Node5&#45;&gt;Node2</title>
<path fill="none" stroke="orange" stroke-dasharray="5,2" d="M143.67,-158.94C134.48,-146.23 123.28,-130.75 115.3,-119.73"/>
<polygon fill="orange" stroke="orange" points="140.96,-161.16 149.65,-167.2 146.63,-157.05 140.96,-161.16"/>
<text text-anchor="middle" x="183" y="-141" font-family="Helvetica,sans-Serif" font-size="10.00"> &lt; std::string, int &gt;</text>
</g>
<!-- Node6 -->
<g id="node6" class="node">
<title>Node6</title>
<g id="a_node6"><a xlink:title=" ">
<polygon fill="white" stroke="#bfbfbf" points="133.5,-251 133.5,-270 162.5,-270 162.5,-251 133.5,-251"/>
<text text-anchor="middle" x="148" y="-258" font-family="Helvetica,sans-Serif" font-size="10.00">K</text>
</a>
</g>
</g>
<!-- Node6&#45;&gt;Node5 -->
<g id="edge5" class="edge">
<title>Node6&#45;&gt;Node5</title>
<path fill="none" stroke="#9a32cd" stroke-dasharray="5,2" d="M147.19,-240.64C147.19,-232.95 147.59,-224 149,-216 150.08,-209.9 152.09,-203.39 154.11,-197.81"/>
<polygon fill="#9a32cd" stroke="#9a32cd" points="143.7,-240.84 147.43,-250.76 150.7,-240.68 143.7,-240.84"/>
<text text-anchor="middle" x="162" y="-219" font-family="Helvetica,sans-Serif" font-size="10.00"> keys</text>
</g>
<!-- Node7 -->
<g id="node7" class="node">
<title>Node7</title>
<g id="a_node7"><a xlink:title=" ">
<polygon fill="white" stroke="#bfbfbf" points="182.5,-251 182.5,-270 211.5,-270 211.5,-251 182.5,-251"/>
<text text-anchor="middle" x="197" y="-258" font-family="Helvetica,sans-Serif" font-size="10.00">T</text>
</a>
</g>
</g>
<!-- Node7&#45;&gt;Node5 -->
<g id="edge6" class="edge">
<title>Node7&#45;&gt;Node5</title>
<path fill="none" stroke="#9a32cd" stroke-dasharray="5,2" d="M188.28,-241.58C181.72,-228.11 172.87,-209.93 166.83,-197.52"/>
<polygon fill="#9a32cd" stroke="#9a32cd" points="185.23,-243.32 192.76,-250.78 191.53,-240.26 185.23,-243.32"/>
<text text-anchor="middle" x="205.5" y="-219" font-family="Helvetica,sans-Serif" font-size="10.00"> elements</text>
</g>
</g>
</svg>
