<?xml version="1.0" encoding="UTF-8" standalone="no"?>
<!DOCTYPE svg PUBLIC "-//W3C//DTD SVG 1.1//EN"
 "http://www.w3.org/Graphics/SVG/1.1/DTD/svg11.dtd">
<!-- Generated by graphviz version 2.43.0 (0)
 -->
<!-- Title: amr_wind::Field Pages: 1 -->
<!--zoomable 429 -->
<svg id="main" version="1.1" xmlns="http://www.w3.org/2000/svg" xmlns:xlink="http://www.w3.org/1999/xlink" xml:space="preserve" onload="init(evt)">
<style type="text/css"><![CDATA[
.edge:hover path { stroke: red; }
.edge:hover polygon { stroke: red; fill: red; }
]]></style>
<script type="text/javascript"><![CDATA[
var edges = document.getElementsByTagName('g');
if (edges && edges.length) {
  for (var i=0;i<edges.length;i++) {
    if (edges[i].id.substr(0,4)=='edge') {
      edges[i].setAttribute('class','edge');
    }
  }
}
]]></script>
        <defs>
                <circle id="rim" cx="0" cy="0" r="7"/>
                <circle id="rim2" cx="0" cy="0" r="3.5"/>
                <g id="zoomPlus">
                        <use xlink:href="#rim" fill="#404040">
                                <set attributeName="fill" to="#808080" begin="zoomplus.mouseover" end="zoomplus.mouseout"/>
                        </use>
                        <path d="M-4,0h8M0,-4v8" fill="none" stroke="white" stroke-width="1.5" pointer-events="none"/>
                </g>
                <g id="zoomMin">
                        <use xlink:href="#rim" fill="#404040">
                                <set attributeName="fill" to="#808080" begin="zoomminus.mouseover" end="zoomminus.mouseout"/>
                        </use>
                        <path d="M-4,0h8" fill="none" stroke="white" stroke-width="1.5" pointer-events="none"/>
                </g>
                <g id="dirArrow">
                        <path fill="none" stroke="white" stroke-width="1.5" d="M0,-3.0v7 M-2.5,-0.5L0,-3.0L2.5,-0.5"/>
                </g>
               <g id="resetDef">
                       <use xlink:href="#rim2" fill="#404040">
                               <set attributeName="fill" to="#808080" begin="reset.mouseover" end="reset.mouseout"/>
                       </use>
               </g>
        </defs>

<script type="text/javascript">
var viewWidth = 613;
var viewHeight = 429;
var sectionId = 'dynsection-0';
</script>
<script xlink:href="svgpan.js"/>
<svg id="graph" class="graph">
<g id="viewport">
<title>amr_wind::Field</title>
<polygon fill="white" stroke="transparent" points="-4,4 -4,-425 609,-425 609,4 -4,4"/>
<!-- Node1 -->
<g id="node1" class="node">
<title>Node1</title>
<g id="a_node1"><a xlink:title="Computational field.">
<polygon fill="#bfbfbf" stroke="black" points="383,-0.5 383,-19.5 477,-19.5 477,-0.5 383,-0.5"/>
<text text-anchor="middle" x="430" y="-7.5" font-family="Helvetica,sans-Serif" font-size="10.00">amr_wind::Field</text>
</a>
</g>
</g>
<!-- Node2 -->
<g id="node2" class="node">
<title>Node2</title>
<g id="a_node2"><a xlink:title=" ">
<polygon fill="white" stroke="#bfbfbf" points="198,-67.5 198,-97.5 318,-97.5 318,-67.5 198,-67.5"/>
<text text-anchor="start" x="206" y="-85.5" font-family="Helvetica,sans-Serif" font-size="10.00">std::shared_ptr&lt; amr</text>
<text text-anchor="middle" x="258" y="-74.5" font-family="Helvetica,sans-Serif" font-size="10.00">_wind::FieldInfo &gt;</text>
</a>
</g>
</g>
<!-- Node2&#45;&gt;Node1 -->
<g id="edge1" class="edge">
<title>Node2&#45;&gt;Node1</title>
<path fill="none" stroke="#9a32cd" stroke-dasharray="5,2" d="M301.76,-63.56C336.21,-49.44 382.68,-30.4 409.18,-19.53"/>
<polygon fill="#9a32cd" stroke="#9a32cd" points="300.32,-60.37 292.39,-67.4 302.97,-66.85 300.32,-60.37"/>
<text text-anchor="middle" x="378.5" y="-41" font-family="Helvetica,sans-Serif" font-size="10.00"> m_info</text>
</g>
<!-- Node3 -->
<g id="node3" class="node">
<title>Node3</title>
<g id="a_node3"><a xlink:href="structamr__wind_1_1_field_info.html" target="_top" xlink:title="Information common to a field that has multiple states.">
<polygon fill="white" stroke="black" points="201.5,-162 201.5,-181 314.5,-181 314.5,-162 201.5,-162"/>
<text text-anchor="middle" x="258" y="-169" font-family="Helvetica,sans-Serif" font-size="10.00">amr_wind::FieldInfo</text>
</a>
</g>
</g>
<!-- Node3&#45;&gt;Node2 -->
<g id="edge2" class="edge">
<title>Node3&#45;&gt;Node2</title>
<path fill="none" stroke="#9a32cd" stroke-dasharray="5,2" d="M258,-151.41C258,-135.15 258,-112.16 258,-97.55"/>
<polygon fill="#9a32cd" stroke="#9a32cd" points="254.5,-151.84 258,-161.84 261.5,-151.84 254.5,-151.84"/>
<text text-anchor="middle" x="266.5" y="-124.5" font-family="Helvetica,sans-Serif" font-size="10.00"> ptr</text>
</g>
<!-- Node4 -->
<g id="node4" class="node">
<title>Node4</title>
<g id="a_node4"><a xlink:title=" ">
<polygon fill="white" stroke="#bfbfbf" points="139.5,-234.5 139.5,-264.5 308.5,-264.5 308.5,-234.5 139.5,-234.5"/>
<text text-anchor="start" x="147.5" y="-252.5" font-family="Helvetica,sans-Serif" font-size="10.00">std::unique_ptr&lt; amr</text>
<text text-anchor="middle" x="224" y="-241.5" font-family="Helvetica,sans-Serif" font-size="10.00">_wind::FieldFillPatchOpsBase &gt;</text>
</a>
</g>
</g>
<!-- Node4&#45;&gt;Node3 -->
<g id="edge3" class="edge">
<title>Node4&#45;&gt;Node3</title>
<path fill="none" stroke="#9a32cd" stroke-dasharray="5,2" d="M224.19,-224C224.93,-217.6 226.37,-210.87 229,-205 233.21,-195.62 241.13,-187.03 247.63,-181.04"/>
<polygon fill="#9a32cd" stroke="#9a32cd" points="220.68,-224 223.49,-234.21 227.66,-224.47 220.68,-224"/>
<text text-anchor="middle" x="266.5" y="-208" font-family="Helvetica,sans-Serif" font-size="10.00"> m_fillpatch_op</text>
</g>
<!-- Node5 -->
<g id="node5" class="node">
<title>Node5</title>
<g id="a_node5"><a xlink:href="classamr__wind_1_1_field_fill_patch_ops_base.html" target="_top" xlink:title="Abstract interface for classes that handle fill patch and physical boundary condition operations for ...">
<polygon fill="white" stroke="black" points="80,-323.5 80,-353.5 214,-353.5 214,-323.5 80,-323.5"/>
<text text-anchor="start" x="88" y="-341.5" font-family="Helvetica,sans-Serif" font-size="10.00">amr_wind::FieldFillPatch</text>
<text text-anchor="middle" x="147" y="-330.5" font-family="Helvetica,sans-Serif" font-size="10.00">OpsBase</text>
</a>
</g>
</g>
<!-- Node5&#45;&gt;Node4 -->
<g id="edge4" class="edge">
<title>Node5&#45;&gt;Node4</title>
<path fill="none" stroke="#9a32cd" stroke-dasharray="5,2" d="M166.63,-315.32C180.76,-299.36 199.38,-278.31 211.52,-264.6"/>
<polygon fill="#9a32cd" stroke="#9a32cd" points="163.72,-313.33 159.71,-323.13 168.96,-317.97 163.72,-313.33"/>
<text text-anchor="middle" x="203.5" y="-291.5" font-family="Helvetica,sans-Serif" font-size="10.00"> ptr</text>
</g>
<!-- Node6 -->
<g id="node6" class="node">
<title>Node6</title>
<g id="a_node6"><a xlink:title="STL class.">
<polygon fill="white" stroke="#bfbfbf" points="232,-329 232,-348 350,-348 350,-329 232,-329"/>
<text text-anchor="middle" x="291" y="-336" font-family="Helvetica,sans-Serif" font-size="10.00">std::unique_ptr&lt; T &gt;</text>
</a>
</g>
</g>
<!-- Node6&#45;&gt;Node4 -->
<g id="edge5" class="edge">
<title>Node6&#45;&gt;Node4</title>
<path fill="none" stroke="orange" stroke-dasharray="5,2" d="M265.85,-323.07C258.72,-318.06 251.43,-311.93 246,-305 236.56,-292.95 230.63,-276.31 227.34,-264.6"/>
<polygon fill="orange" stroke="orange" points="264.35,-326.27 274.64,-328.8 268.17,-320.41 264.35,-326.27"/>
<text text-anchor="start" x="246" y="-297" font-family="Helvetica,sans-Serif" font-size="10.00"> &lt; amr_wind::FieldFillPatch</text>
<text text-anchor="middle" x="312.5" y="-286" font-family="Helvetica,sans-Serif" font-size="10.00">OpsBase &gt;</text>
</g>
<!-- Node7 -->
<g id="node7" class="node">
<title>Node7</title>
<g id="a_node7"><a xlink:title=" ">
<polygon fill="white" stroke="#bfbfbf" points="276.5,-401.5 276.5,-420.5 305.5,-420.5 305.5,-401.5 276.5,-401.5"/>
<text text-anchor="middle" x="291" y="-408.5" font-family="Helvetica,sans-Serif" font-size="10.00">T</text>
</a>
</g>
</g>
<!-- Node7&#45;&gt;Node6 -->
<g id="edge6" class="edge">
<title>Node7&#45;&gt;Node6</title>
<path fill="none" stroke="#9a32cd" stroke-dasharray="5,2" d="M291,-390.94C291,-377.03 291,-358.82 291,-348.22"/>
<polygon fill="#9a32cd" stroke="#9a32cd" points="287.5,-391.36 291,-401.36 294.5,-391.36 287.5,-391.36"/>
<text text-anchor="middle" x="299.5" y="-375" font-family="Helvetica,sans-Serif" font-size="10.00"> ptr</text>
</g>
<!-- Node10 -->
<g id="node10" class="node">
<title>Node10</title>
<g id="a_node10"><a xlink:title="STL class.">
<polygon fill="white" stroke="#bfbfbf" points="0,-284.5 0,-303.5 118,-303.5 118,-284.5 0,-284.5"/>
<text text-anchor="middle" x="59" y="-291.5" font-family="Helvetica,sans-Serif" font-size="10.00">std::shared_ptr&lt; T &gt;</text>
</a>
</g>
</g>
<!-- Node7&#45;&gt;Node10 -->
<g id="edge10" class="edge">
<title>Node7&#45;&gt;Node10</title>
<path fill="none" stroke="#9a32cd" stroke-dasharray="5,2" d="M266.32,-407.02C214.71,-400.29 97.9,-382.24 71,-354 58.02,-340.38 57.36,-316.74 58.11,-303.91"/>
<polygon fill="#9a32cd" stroke="#9a32cd" points="265.93,-410.5 276.29,-408.29 266.81,-403.56 265.93,-410.5"/>
<text text-anchor="middle" x="142.5" y="-375" font-family="Helvetica,sans-Serif" font-size="10.00"> ptr</text>
</g>
<!-- Node13 -->
<g id="node13" class="node">
<title>Node13</title>
<g id="a_node13"><a xlink:title="STL class.">
<polygon fill="white" stroke="#bfbfbf" points="327,-234.5 327,-264.5 441,-264.5 441,-234.5 327,-234.5"/>
<text text-anchor="start" x="335" y="-252.5" font-family="Helvetica,sans-Serif" font-size="10.00">std::unordered_map</text>
<text text-anchor="middle" x="384" y="-241.5" font-family="Helvetica,sans-Serif" font-size="10.00">&lt; K, T &gt;</text>
</a>
</g>
</g>
<!-- Node7&#45;&gt;Node13 -->
<g id="edge17" class="edge">
<title>Node7&#45;&gt;Node13</title>
<path fill="none" stroke="#9a32cd" stroke-dasharray="5,2" d="M315.5,-405.39C342.59,-398.92 385.28,-384.34 407,-354 425.44,-328.25 424.28,-312.59 413,-283 410.41,-276.22 405.69,-269.95 400.79,-264.77"/>
<polygon fill="#9a32cd" stroke="#9a32cd" points="314.64,-402 305.62,-407.56 316.14,-408.84 314.64,-402"/>
<text text-anchor="middle" x="444.5" y="-336" font-family="Helvetica,sans-Serif" font-size="10.00"> elements</text>
</g>
<!-- Node8 -->
<g id="node8" class="node">
<title>Node8</title>
<g id="a_node8"><a xlink:title="STL class.">
<polygon fill="white" stroke="#bfbfbf" points="520.5,-240 520.5,-259 585.5,-259 585.5,-240 520.5,-240"/>
<text text-anchor="middle" x="553" y="-247" font-family="Helvetica,sans-Serif" font-size="10.00">std::string</text>
</a>
</g>
</g>
<!-- Node8&#45;&gt;Node1 -->
<g id="edge11" class="edge">
<title>Node8&#45;&gt;Node1</title>
<path fill="none" stroke="#9a32cd" stroke-dasharray="5,2" d="M563.8,-231.06C567.42,-223.21 570.06,-213.75 568,-205 552.25,-138.26 537.01,-124.07 499,-67 489.57,-52.84 486.96,-49.03 474,-38 465.67,-30.92 455.29,-24.45 446.7,-19.63"/>
<polygon fill="#9a32cd" stroke="#9a32cd" points="560.66,-229.52 558.98,-239.98 566.82,-232.85 560.66,-229.52"/>
<text text-anchor="middle" x="567" y="-124.5" font-family="Helvetica,sans-Serif" font-size="10.00"> m_name</text>
</g>
<!-- Node8&#45;&gt;Node3 -->
<g id="edge7" class="edge">
<title>Node8&#45;&gt;Node3</title>
<path fill="none" stroke="#9a32cd" stroke-dasharray="5,2" d="M512.35,-237.07C494.44,-231.51 473.35,-224.25 455,-216 446.1,-212 445.16,-208.37 436,-205 414.18,-196.97 358.1,-187.36 314.66,-180.68"/>
<polygon fill="#9a32cd" stroke="#9a32cd" points="511.34,-240.42 521.93,-239.97 513.37,-233.72 511.34,-240.42"/>
<text text-anchor="middle" x="490" y="-208" font-family="Helvetica,sans-Serif" font-size="10.00"> m_basename</text>
</g>
<!-- Node12 -->
<g id="node12" class="node">
<title>Node12</title>
<g id="a_node12"><a xlink:title=" ">
<polygon fill="white" stroke="#bfbfbf" points="369,-156.5 369,-186.5 491,-186.5 491,-156.5 369,-156.5"/>
<text text-anchor="start" x="377" y="-174.5" font-family="Helvetica,sans-Serif" font-size="10.00">std::unordered_map</text>
<text text-anchor="middle" x="430" y="-163.5" font-family="Helvetica,sans-Serif" font-size="10.00">&lt; std::string, size_t &gt;</text>
</a>
</g>
</g>
<!-- Node8&#45;&gt;Node12 -->
<g id="edge14" class="edge">
<title>Node8&#45;&gt;Node12</title>
<path fill="none" stroke="#9a32cd" stroke-dasharray="5,2" d="M546.7,-230.47C542.81,-221.7 537.02,-211.64 529,-205 518.07,-195.94 504.53,-189.38 491.01,-184.64"/>
<polygon fill="#9a32cd" stroke="#9a32cd" points="543.48,-231.86 550.4,-239.89 550,-229.3 543.48,-231.86"/>
<text text-anchor="middle" x="551" y="-208" font-family="Helvetica,sans-Serif" font-size="10.00"> keys</text>
</g>
<!-- Node9 -->
<g id="node9" class="node">
<title>Node9</title>
<g id="a_node9"><a xlink:title="STL class.">
<polygon fill="white" stroke="#bfbfbf" points="501,-323.5 501,-353.5 605,-353.5 605,-323.5 501,-323.5"/>
<text text-anchor="start" x="509" y="-341.5" font-family="Helvetica,sans-Serif" font-size="10.00">std::basic_string&lt;</text>
<text text-anchor="middle" x="553" y="-330.5" font-family="Helvetica,sans-Serif" font-size="10.00"> char &gt;</text>
</a>
</g>
</g>
<!-- Node9&#45;&gt;Node8 -->
<g id="edge8" class="edge">
<title>Node9&#45;&gt;Node8</title>
<path fill="none" stroke="midnightblue" d="M553,-313.06C553,-295.13 553,-271.8 553,-259.31"/>
<polygon fill="midnightblue" stroke="midnightblue" points="549.5,-313.13 553,-323.13 556.5,-313.13 549.5,-313.13"/>
</g>
<!-- Node10&#45;&gt;Node2 -->
<g id="edge9" class="edge">
<title>Node10&#45;&gt;Node2</title>
<path fill="none" stroke="orange" stroke-dasharray="5,2" d="M64.7,-274.5C71.14,-255.64 82.99,-226.22 100,-205 138.2,-157.34 198.83,-117.65 232.8,-97.59"/>
<polygon fill="orange" stroke="orange" points="61.29,-273.65 61.53,-284.25 67.95,-275.82 61.29,-273.65"/>
<text text-anchor="middle" x="161" y="-208" font-family="Helvetica,sans-Serif" font-size="10.00"> &lt; amr_wind::FieldInfo &gt;</text>
</g>
<!-- Node11 -->
<g id="node11" class="node">
<title>Node11</title>
<g id="a_node11"><a xlink:href="classamr__wind_1_1_field_repo.html" target="_top" xlink:title="Field Repository.">
<polygon fill="white" stroke="black" points="370.5,-73 370.5,-92 489.5,-92 489.5,-73 370.5,-73"/>
<text text-anchor="middle" x="430" y="-80" font-family="Helvetica,sans-Serif" font-size="10.00">amr_wind::FieldRepo</text>
</a>
</g>
</g>
<!-- Node11&#45;&gt;Node1 -->
<g id="edge12" class="edge">
<title>Node11&#45;&gt;Node1</title>
<path fill="none" stroke="#9a32cd" stroke-dasharray="5,2" d="M430,-62.44C430,-48.53 430,-30.32 430,-19.72"/>
<polygon fill="#9a32cd" stroke="#9a32cd" points="426.5,-62.86 430,-72.86 433.5,-62.86 426.5,-62.86"/>
<text text-anchor="middle" x="450" y="-41" font-family="Helvetica,sans-Serif" font-size="10.00"> m_repo</text>
</g>
<!-- Node12&#45;&gt;Node11 -->
<g id="edge13" class="edge">
<title>Node12&#45;&gt;Node11</title>
<path fill="none" stroke="#9a32cd" stroke-dasharray="5,2" d="M430,-146.06C430,-128.13 430,-104.8 430,-92.31"/>
<polygon fill="#9a32cd" stroke="#9a32cd" points="426.5,-146.13 430,-156.13 433.5,-146.13 426.5,-146.13"/>
<text text-anchor="middle" x="466.5" y="-130" font-family="Helvetica,sans-Serif" font-size="10.00"> m_fid_map</text>
<text text-anchor="middle" x="466.5" y="-119" font-family="Helvetica,sans-Serif" font-size="10.00">m_int_fid_map</text>
</g>
<!-- Node13&#45;&gt;Node12 -->
<g id="edge15" class="edge">
<title>Node13&#45;&gt;Node12</title>
<path fill="none" stroke="orange" stroke-dasharray="5,2" d="M335.56,-229.26C325.72,-222.51 320.21,-214.27 327,-205 336.98,-191.39 352.67,-183.33 368.83,-178.61"/>
<polygon fill="orange" stroke="orange" points="333.82,-232.3 344.22,-234.34 337.37,-226.26 333.82,-232.3"/>
<text text-anchor="middle" x="381.5" y="-208" font-family="Helvetica,sans-Serif" font-size="10.00"> &lt; std::string, size_t &gt;</text>
</g>
<!-- Node14 -->
<g id="node14" class="node">
<title>Node14</title>
<g id="a_node14"><a xlink:title=" ">
<polygon fill="white" stroke="#bfbfbf" points="368.5,-329 368.5,-348 397.5,-348 397.5,-329 368.5,-329"/>
<text text-anchor="middle" x="383" y="-336" font-family="Helvetica,sans-Serif" font-size="10.00">K</text>
</a>
</g>
</g>
<!-- Node14&#45;&gt;Node13 -->
<g id="edge16" class="edge">
<title>Node14&#45;&gt;Node13</title>
<path fill="none" stroke="#9a32cd" stroke-dasharray="5,2" d="M383.22,-318.41C383.41,-302.15 383.67,-279.16 383.84,-264.55"/>
<polygon fill="#9a32cd" stroke="#9a32cd" points="379.71,-318.8 383.1,-328.84 386.71,-318.88 379.71,-318.8"/>
<text text-anchor="middle" x="396" y="-291.5" font-family="Helvetica,sans-Serif" font-size="10.00"> keys</text>
</g>
</g>
</svg>
        <g id="navigator" transform="translate(0 0)" fill="#404254">
                <rect fill="#f2f5e9" fill-opacity="0.5" stroke="#606060" stroke-width=".5" x="0" y="0" width="60" height="60"/>
                <use id="zoomplus" xlink:href="#zoomPlus" x="17" y="9" onmousedown="handleZoom(evt,'in')"/>
                <use id="zoomminus" xlink:href="#zoomMin" x="42" y="9" onmousedown="handleZoom(evt,'out')"/>
                <use id="reset" xlink:href="#resetDef" x="30" y="36" onmousedown="handleReset()"/>
                <g id="arrowUp" xlink:href="#dirArrow" transform="translate(30 24)" onmousedown="handlePan(0,-1)">
                  <use xlink:href="#rim" fill="#404040">
                        <set attributeName="fill" to="#808080" begin="arrowUp.mouseover" end="arrowUp.mouseout"/>
                  </use>
                  <path fill="none" stroke="white" stroke-width="1.5" d="M0,-3.0v7 M-2.5,-0.5L0,-3.0L2.5,-0.5"/>
                </g>
                <g id="arrowRight" xlink:href="#dirArrow" transform="rotate(90) translate(36 -43)" onmousedown="handlePan(1,0)">
                  <use xlink:href="#rim" fill="#404040">
                        <set attributeName="fill" to="#808080" begin="arrowRight.mouseover" end="arrowRight.mouseout"/>
                  </use>
                  <path fill="none" stroke="white" stroke-width="1.5" d="M0,-3.0v7 M-2.5,-0.5L0,-3.0L2.5,-0.5"/>
                </g>
                <g id="arrowDown" xlink:href="#dirArrow" transform="rotate(180) translate(-30 -48)" onmousedown="handlePan(0,1)">
                  <use xlink:href="#rim" fill="#404040">
                        <set attributeName="fill" to="#808080" begin="arrowDown.mouseover" end="arrowDown.mouseout"/>
                  </use>
                  <path fill="none" stroke="white" stroke-width="1.5" d="M0,-3.0v7 M-2.5,-0.5L0,-3.0L2.5,-0.5"/>
                </g>
                <g id="arrowLeft" xlink:href="#dirArrow" transform="rotate(270) translate(-36 17)" onmousedown="handlePan(-1,0)">
                  <use xlink:href="#rim" fill="#404040">
                        <set attributeName="fill" to="#808080" begin="arrowLeft.mouseover" end="arrowLeft.mouseout"/>
                  </use>
                  <path fill="none" stroke="white" stroke-width="1.5" d="M0,-3.0v7 M-2.5,-0.5L0,-3.0L2.5,-0.5"/>
                </g>
        </g>
        <svg viewBox="0 0 15 15" width="100%" height="30px" preserveAspectRatio="xMaxYMin meet">
         <g id="arrow_out" transform="scale(0.3 0.3)">
          <a xlink:href="classamr__wind_1_1_field__coll__graph_org.svg" target="_base">
           <rect id="button" ry="5" rx="5" y="6" x="6" height="38" width="38"
                fill="#f2f5e9" fill-opacity="0.5" stroke="#606060" stroke-width="1.0"/>
           <path id="arrow"
             d="M 11.500037,31.436501 C 11.940474,20.09759 22.043105,11.32322 32.158766,21.979434 L 37.068811,17.246167 C 37.068811,17.246167 37.088388,32 37.088388,32 L 22.160133,31.978069 C 22.160133,31.978069 26.997745,27.140456 26.997745,27.140456 C 18.528582,18.264221 13.291696,25.230495 11.500037,31.436501 z"
             style="fill:#404040;"/>
          </a>
         </g>
        </svg>
</svg>
