<?xml version="1.0" encoding="UTF-8" standalone="no"?>
<!DOCTYPE svg PUBLIC "-//W3C//DTD SVG 1.1//EN"
 "http://www.w3.org/Graphics/SVG/1.1/DTD/svg11.dtd">
<!-- Generated by graphviz version 2.43.0 (0)
 -->
<!-- Title: amr_wind::VortexRing Pages: 1 -->
<svg width="2056pt" height="750pt"
 viewBox="0.00 0.00 2056.00 750.28" xmlns="http://www.w3.org/2000/svg" xmlns:xlink="http://www.w3.org/1999/xlink">
<g id="graph0" class="graph" transform="scale(1 1) rotate(0) translate(4 746.28)">
<title>amr_wind::VortexRing</title>
<polygon fill="white" stroke="transparent" points="-4,4 -4,-746.28 2052,-746.28 2052,4 -4,4"/>
<!-- Node1 -->
<g id="node1" class="node">
<title>Node1</title>
<g id="a_node1"><a xlink:title="Vortex ring physics.">
<polygon fill="#bfbfbf" stroke="black" points="1919.5,-627.28 1919.5,-646.28 2043.5,-646.28 2043.5,-627.28 1919.5,-627.28"/>
<text text-anchor="middle" x="1981.5" y="-634.28" font-family="Helvetica,sans-Serif" font-size="10.00">amr_wind::VortexRing</text>
</a>
</g>
</g>
<!-- Node2 -->
<g id="node2" class="node">
<title>Node2</title>
<g id="a_node2"><a xlink:title=" ">
<polygon fill="white" stroke="#bfbfbf" points="1709,-711.78 1709,-741.78 1817,-741.78 1817,-711.78 1709,-711.78"/>
<text text-anchor="start" x="1717" y="-729.78" font-family="Helvetica,sans-Serif" font-size="10.00">Physics::Register&lt;</text>
<text text-anchor="middle" x="1763" y="-718.78" font-family="Helvetica,sans-Serif" font-size="10.00"> VortexRing &gt;</text>
</a>
</g>
</g>
<!-- Node2&#45;&gt;Node1 -->
<g id="edge1" class="edge">
<title>Node2&#45;&gt;Node1</title>
<path fill="none" stroke="midnightblue" d="M1826.92,-717.95C1849.65,-713.38 1875.09,-706.63 1897,-696.78 1925.98,-683.75 1955.03,-659.83 1970.04,-646.47"/>
<polygon fill="midnightblue" stroke="midnightblue" points="1826.2,-714.52 1817.03,-719.83 1827.51,-721.4 1826.2,-714.52"/>
</g>
<!-- Node3 -->
<g id="node3" class="node">
<title>Node3</title>
<g id="a_node3"><a xlink:href="classamr__wind_1_1_field.html" target="_top" xlink:title="Computational field.">
<polygon fill="white" stroke="black" points="1049.5,-627.28 1049.5,-646.28 1143.5,-646.28 1143.5,-627.28 1049.5,-627.28"/>
<text text-anchor="middle" x="1096.5" y="-634.28" font-family="Helvetica,sans-Serif" font-size="10.00">amr_wind::Field</text>
</a>
</g>
</g>
<!-- Node3&#45;&gt;Node1 -->
<g id="edge2" class="edge">
<title>Node3&#45;&gt;Node1</title>
<path fill="none" stroke="#9a32cd" stroke-dasharray="5,2" d="M1154.16,-636.78C1312.09,-636.78 1756.34,-636.78 1919.45,-636.78"/>
<polygon fill="#9a32cd" stroke="#9a32cd" points="1153.73,-633.28 1143.73,-636.78 1153.73,-640.28 1153.73,-633.28"/>
<text text-anchor="middle" x="1625" y="-650.78" font-family="Helvetica,sans-Serif" font-size="10.00"> m_density</text>
<text text-anchor="middle" x="1625" y="-639.78" font-family="Helvetica,sans-Serif" font-size="10.00">m_velocity</text>
</g>
<!-- Node4 -->
<g id="node4" class="node">
<title>Node4</title>
<g id="a_node4"><a xlink:title=" ">
<polygon fill="white" stroke="#bfbfbf" points="605,-685.78 605,-715.78 725,-715.78 725,-685.78 605,-685.78"/>
<text text-anchor="start" x="613" y="-703.78" font-family="Helvetica,sans-Serif" font-size="10.00">std::shared_ptr&lt; amr</text>
<text text-anchor="middle" x="665" y="-692.78" font-family="Helvetica,sans-Serif" font-size="10.00">_wind::FieldInfo &gt;</text>
</a>
</g>
</g>
<!-- Node4&#45;&gt;Node3 -->
<g id="edge3" class="edge">
<title>Node4&#45;&gt;Node3</title>
<path fill="none" stroke="#9a32cd" stroke-dasharray="5,2" d="M735.29,-691.9C805.62,-682.68 917.57,-667.44 1014,-651.78 1025.5,-649.91 1037.89,-647.72 1049.44,-645.61"/>
<polygon fill="#9a32cd" stroke="#9a32cd" points="734.69,-688.45 725.23,-693.21 735.6,-695.39 734.69,-688.45"/>
<text text-anchor="middle" x="807.5" y="-692.78" font-family="Helvetica,sans-Serif" font-size="10.00"> m_info</text>
</g>
<!-- Node5 -->
<g id="node5" class="node">
<title>Node5</title>
<g id="a_node5"><a xlink:title=" ">
<polygon fill="white" stroke="#bfbfbf" points="189,-661.28 189,-680.28 307,-680.28 307,-661.28 189,-661.28"/>
<text text-anchor="middle" x="248" y="-668.28" font-family="Helvetica,sans-Serif" font-size="10.00">std::shared_ptr&lt; T &gt;</text>
</a>
</g>
</g>
<!-- Node5&#45;&gt;Node4 -->
<g id="edge4" class="edge">
<title>Node5&#45;&gt;Node4</title>
<path fill="none" stroke="orange" stroke-dasharray="5,2" d="M317.13,-675.7C397.25,-681.5 528.93,-691.01 604.91,-696.51"/>
<polygon fill="orange" stroke="orange" points="317.37,-672.21 307.14,-674.98 316.86,-679.19 317.37,-672.21"/>
<text text-anchor="middle" x="386" y="-686.78" font-family="Helvetica,sans-Serif" font-size="10.00"> &lt; amr_wind::FieldInfo &gt;</text>
</g>
<!-- Node6 -->
<g id="node6" class="node">
<title>Node6</title>
<g id="a_node6"><a xlink:title=" ">
<polygon fill="white" stroke="#bfbfbf" points="37.5,-552.28 37.5,-571.28 66.5,-571.28 66.5,-552.28 37.5,-552.28"/>
<text text-anchor="middle" x="52" y="-559.28" font-family="Helvetica,sans-Serif" font-size="10.00">T</text>
</a>
</g>
</g>
<!-- Node6&#45;&gt;Node5 -->
<g id="edge5" class="edge">
<title>Node6&#45;&gt;Node5</title>
<path fill="none" stroke="#9a32cd" stroke-dasharray="5,2" d="M76.6,-564.76C101.46,-568.7 141.09,-577.29 171,-594.78 186.63,-603.91 222.21,-642.85 238.54,-661.17"/>
<polygon fill="#9a32cd" stroke="#9a32cd" points="77.01,-561.28 66.61,-563.3 76,-568.21 77.01,-561.28"/>
<text text-anchor="middle" x="146.5" y="-597.78" font-family="Helvetica,sans-Serif" font-size="10.00"> ptr</text>
</g>
<!-- Node11 -->
<g id="node11" class="node">
<title>Node11</title>
<g id="a_node11"><a xlink:title=" ">
<polygon fill="white" stroke="#bfbfbf" points="191,-568.78 191,-598.78 305,-598.78 305,-568.78 191,-568.78"/>
<text text-anchor="start" x="199" y="-586.78" font-family="Helvetica,sans-Serif" font-size="10.00">std::unordered_map</text>
<text text-anchor="middle" x="248" y="-575.78" font-family="Helvetica,sans-Serif" font-size="10.00">&lt; K, T &gt;</text>
</a>
</g>
</g>
<!-- Node6&#45;&gt;Node11 -->
<g id="edge13" class="edge">
<title>Node6&#45;&gt;Node11</title>
<path fill="none" stroke="#9a32cd" stroke-dasharray="5,2" d="M76.77,-560.17C100.7,-558.98 138.6,-558.24 171,-562.78 180.49,-564.11 190.47,-566.28 199.97,-568.73"/>
<polygon fill="#9a32cd" stroke="#9a32cd" points="76.32,-556.69 66.53,-560.76 76.72,-563.68 76.32,-556.69"/>
<text text-anchor="middle" x="146.5" y="-565.78" font-family="Helvetica,sans-Serif" font-size="10.00"> elements</text>
</g>
<!-- Node15 -->
<g id="node15" class="node">
<title>Node15</title>
<g id="a_node15"><a xlink:title=" ">
<polygon fill="white" stroke="#bfbfbf" points="1037.5,-322.28 1037.5,-341.28 1155.5,-341.28 1155.5,-322.28 1037.5,-322.28"/>
<text text-anchor="middle" x="1096.5" y="-329.28" font-family="Helvetica,sans-Serif" font-size="10.00">std::unique_ptr&lt; T &gt;</text>
</a>
</g>
</g>
<!-- Node6&#45;&gt;Node15 -->
<g id="edge17" class="edge">
<title>Node6&#45;&gt;Node15</title>
<path fill="none" stroke="#9a32cd" stroke-dasharray="5,2" d="M76.71,-557.04C86.27,-554.07 96.72,-549.32 104,-541.78 236.88,-404.15 55.69,-135.78 247,-135.78 247,-135.78 247,-135.78 808.5,-135.78 942.15,-135.78 1059.38,-282.51 1088.55,-322.06"/>
<polygon fill="#9a32cd" stroke="#9a32cd" points="75.68,-553.69 66.89,-559.61 77.45,-560.46 75.68,-553.69"/>
<text text-anchor="middle" x="526" y="-138.78" font-family="Helvetica,sans-Serif" font-size="10.00"> ptr</text>
</g>
<!-- Node7 -->
<g id="node7" class="node">
<title>Node7</title>
<g id="a_node7"><a xlink:title=" ">
<polygon fill="white" stroke="#bfbfbf" points="215.5,-508.28 215.5,-527.28 280.5,-527.28 280.5,-508.28 215.5,-508.28"/>
<text text-anchor="middle" x="248" y="-515.28" font-family="Helvetica,sans-Serif" font-size="10.00">std::string</text>
</a>
</g>
</g>
<!-- Node7&#45;&gt;Node1 -->
<g id="edge45" class="edge">
<title>Node7&#45;&gt;Node1</title>
<path fill="none" stroke="#9a32cd" stroke-dasharray="5,2" d="M291.24,-519.13C438.65,-524.03 943.87,-542.19 1360,-573.78 1565.41,-589.37 1808.21,-616.58 1919.38,-629.53"/>
<polygon fill="#9a32cd" stroke="#9a32cd" points="290.96,-515.62 280.85,-518.79 290.73,-522.62 290.96,-515.62"/>
<text text-anchor="middle" x="1096.5" y="-563.78" font-family="Helvetica,sans-Serif" font-size="10.00"> m_vortexringtype</text>
</g>
<!-- Node7&#45;&gt;Node3 -->
<g id="edge6" class="edge">
<title>Node7&#45;&gt;Node3</title>
<path fill="none" stroke="#9a32cd" stroke-dasharray="5,2" d="M269.64,-533.4C284.28,-543.6 304.84,-556.21 325,-562.78 359.64,-574.07 888.57,-619.34 1049.44,-632.91"/>
<polygon fill="#9a32cd" stroke="#9a32cd" points="271.5,-530.43 261.34,-527.44 267.42,-536.12 271.5,-530.43"/>
<text text-anchor="middle" x="665" y="-607.78" font-family="Helvetica,sans-Serif" font-size="10.00"> m_name</text>
</g>
<!-- Node10 -->
<g id="node10" class="node">
<title>Node10</title>
<g id="a_node10"><a xlink:title=" ">
<polygon fill="white" stroke="#bfbfbf" points="465,-621.78 465,-651.78 587,-651.78 587,-621.78 465,-621.78"/>
<text text-anchor="start" x="473" y="-639.78" font-family="Helvetica,sans-Serif" font-size="10.00">std::unordered_map</text>
<text text-anchor="middle" x="526" y="-628.78" font-family="Helvetica,sans-Serif" font-size="10.00">&lt; std::string, size_t &gt;</text>
</a>
</g>
</g>
<!-- Node7&#45;&gt;Node10 -->
<g id="edge10" class="edge">
<title>Node7&#45;&gt;Node10</title>
<path fill="none" stroke="#9a32cd" stroke-dasharray="5,2" d="M274.73,-532.76C285.48,-539.79 297.62,-548.82 307,-558.78 317.4,-569.82 312.42,-579.3 325,-587.78 370.63,-618.52 393.8,-594.76 447,-608.78 460.36,-612.3 474.66,-617.11 487.33,-621.76"/>
<polygon fill="#9a32cd" stroke="#9a32cd" points="276.45,-529.71 266.12,-527.35 272.72,-535.63 276.45,-529.71"/>
<text text-anchor="middle" x="386" y="-611.78" font-family="Helvetica,sans-Serif" font-size="10.00"> keys</text>
</g>
<!-- Node18 -->
<g id="node18" class="node">
<title>Node18</title>
<g id="a_node18"><a xlink:href="classamr__wind_1_1pde_1_1_p_d_e_mgr.html" target="_top" xlink:title="PDE systems manager.">
<polygon fill="white" stroke="black" points="1915,-262.28 1915,-281.28 2048,-281.28 2048,-262.28 1915,-262.28"/>
<text text-anchor="middle" x="1981.5" y="-269.28" font-family="Helvetica,sans-Serif" font-size="10.00">amr_wind::pde::PDEMgr</text>
</a>
</g>
</g>
<!-- Node7&#45;&gt;Node18 -->
<g id="edge29" class="edge">
<title>Node7&#45;&gt;Node18</title>
<path fill="none" stroke="#9a32cd" stroke-dasharray="5,2" d="M264.29,-500.79C333.89,-423.9 622.61,-109.87 743,-56.78 957.38,37.75 1034.2,-14.78 1268.5,-14.78 1268.5,-14.78 1268.5,-14.78 1764,-14.78 1895.85,-14.78 1963.63,-215.07 1977.71,-262.02"/>
<polygon fill="#9a32cd" stroke="#9a32cd" points="261.67,-498.46 257.57,-508.23 266.87,-503.15 261.67,-498.46"/>
<text text-anchor="middle" x="1096.5" y="-14.78" font-family="Helvetica,sans-Serif" font-size="10.00"> m_scheme</text>
</g>
<!-- Node21 -->
<g id="node21" class="node">
<title>Node21</title>
<g id="a_node21"><a xlink:title=" ">
<polygon fill="white" stroke="#bfbfbf" points="469,-476.78 469,-506.78 583,-506.78 583,-476.78 469,-476.78"/>
<text text-anchor="start" x="477" y="-494.78" font-family="Helvetica,sans-Serif" font-size="10.00">std::unordered_map</text>
<text text-anchor="middle" x="526" y="-483.78" font-family="Helvetica,sans-Serif" font-size="10.00">&lt; std::string, int &gt;</text>
</a>
</g>
</g>
<!-- Node7&#45;&gt;Node21 -->
<g id="edge26" class="edge">
<title>Node7&#45;&gt;Node21</title>
<path fill="none" stroke="#9a32cd" stroke-dasharray="5,2" d="M281.44,-504.63C294.71,-499.91 310.36,-495.16 325,-492.78 372.98,-484.97 428.3,-485.4 468.58,-487.4"/>
<polygon fill="#9a32cd" stroke="#9a32cd" points="279.97,-501.44 271.81,-508.2 282.41,-508 279.97,-501.44"/>
<text text-anchor="middle" x="386" y="-495.78" font-family="Helvetica,sans-Serif" font-size="10.00"> keys</text>
</g>
<!-- Node8 -->
<g id="node8" class="node">
<title>Node8</title>
<g id="a_node8"><a xlink:title=" ">
<polygon fill="white" stroke="#bfbfbf" points="0,-502.78 0,-532.78 104,-532.78 104,-502.78 0,-502.78"/>
<text text-anchor="start" x="8" y="-520.78" font-family="Helvetica,sans-Serif" font-size="10.00">std::basic_string&lt;</text>
<text text-anchor="middle" x="52" y="-509.78" font-family="Helvetica,sans-Serif" font-size="10.00"> Char &gt;</text>
</a>
</g>
</g>
<!-- Node8&#45;&gt;Node7 -->
<g id="edge7" class="edge">
<title>Node8&#45;&gt;Node7</title>
<path fill="none" stroke="midnightblue" d="M114.39,-517.78C147.91,-517.78 188.01,-517.78 215.27,-517.78"/>
<polygon fill="midnightblue" stroke="midnightblue" points="114.23,-514.28 104.22,-517.78 114.22,-521.28 114.23,-514.28"/>
</g>
<!-- Node9 -->
<g id="node9" class="node">
<title>Node9</title>
<g id="a_node9"><a xlink:href="classamr__wind_1_1_field_repo.html" target="_top" xlink:title="Field Repository.">
<polygon fill="white" stroke="black" points="748,-627.28 748,-646.28 867,-646.28 867,-627.28 748,-627.28"/>
<text text-anchor="middle" x="807.5" y="-634.28" font-family="Helvetica,sans-Serif" font-size="10.00">amr_wind::FieldRepo</text>
</a>
</g>
</g>
<!-- Node9&#45;&gt;Node1 -->
<g id="edge46" class="edge">
<title>Node9&#45;&gt;Node1</title>
<path fill="none" stroke="#9a32cd" stroke-dasharray="5,2" d="M854.47,-648.77C910.84,-662.4 1009.51,-682.78 1095.5,-682.78 1095.5,-682.78 1095.5,-682.78 1764,-682.78 1833.55,-682.78 1912.98,-659.78 1953.55,-646.31"/>
<polygon fill="#9a32cd" stroke="#9a32cd" points="854.99,-645.3 844.45,-646.31 853.33,-652.09 854.99,-645.3"/>
<text text-anchor="middle" x="1460" y="-685.78" font-family="Helvetica,sans-Serif" font-size="10.00"> m_repo</text>
</g>
<!-- Node9&#45;&gt;Node3 -->
<g id="edge8" class="edge">
<title>Node9&#45;&gt;Node3</title>
<path fill="none" stroke="#9a32cd" stroke-dasharray="5,2" d="M877.3,-636.78C930.47,-636.78 1002.6,-636.78 1049.1,-636.78"/>
<polygon fill="#9a32cd" stroke="#9a32cd" points="877.27,-633.28 867.27,-636.78 877.27,-640.28 877.27,-633.28"/>
<text text-anchor="middle" x="952" y="-639.78" font-family="Helvetica,sans-Serif" font-size="10.00"> m_repo</text>
</g>
<!-- Node13 -->
<g id="node13" class="node">
<title>Node13</title>
<g id="a_node13"><a xlink:href="classamr__wind_1_1_c_f_d_sim.html" target="_top" xlink:title="Data structures for a CFD simulation.">
<polygon fill="white" stroke="black" points="1708,-296.28 1708,-315.28 1818,-315.28 1818,-296.28 1708,-296.28"/>
<text text-anchor="middle" x="1763" y="-303.28" font-family="Helvetica,sans-Serif" font-size="10.00">amr_wind::CFDSim</text>
</a>
</g>
</g>
<!-- Node9&#45;&gt;Node13 -->
<g id="edge37" class="edge">
<title>Node9&#45;&gt;Node13</title>
<path fill="none" stroke="#9a32cd" stroke-dasharray="5,2" d="M877.29,-630.69C1074.45,-612.62 1631.19,-557.04 1690,-500.78 1719.48,-472.58 1694.54,-449.29 1708,-410.78 1720.92,-373.82 1744.62,-333.56 1755.82,-315.5"/>
<polygon fill="#9a32cd" stroke="#9a32cd" points="876.7,-627.23 867.06,-631.62 877.34,-634.2 876.7,-627.23"/>
<text text-anchor="middle" x="1269.5" y="-602.78" font-family="Helvetica,sans-Serif" font-size="10.00"> m_repo</text>
</g>
<!-- Node10&#45;&gt;Node9 -->
<g id="edge9" class="edge">
<title>Node10&#45;&gt;Node9</title>
<path fill="none" stroke="#9a32cd" stroke-dasharray="5,2" d="M597.58,-636.78C643.97,-636.78 703.96,-636.78 747.74,-636.78"/>
<polygon fill="#9a32cd" stroke="#9a32cd" points="597.3,-633.28 587.3,-636.78 597.3,-640.28 597.3,-633.28"/>
<text text-anchor="middle" x="665" y="-650.78" font-family="Helvetica,sans-Serif" font-size="10.00"> m_fid_map</text>
<text text-anchor="middle" x="665" y="-639.78" font-family="Helvetica,sans-Serif" font-size="10.00">m_int_fid_map</text>
</g>
<!-- Node11&#45;&gt;Node10 -->
<g id="edge11" class="edge">
<title>Node11&#45;&gt;Node10</title>
<path fill="none" stroke="orange" stroke-dasharray="5,2" d="M281.99,-603.78C294.95,-610.69 310.24,-617.71 325,-621.78 370.82,-634.42 424.64,-637.85 464.9,-638.29"/>
<polygon fill="orange" stroke="orange" points="283.46,-600.59 273.01,-598.82 280.07,-606.72 283.46,-600.59"/>
<text text-anchor="middle" x="386" y="-639.78" font-family="Helvetica,sans-Serif" font-size="10.00"> &lt; std::string, size_t &gt;</text>
</g>
<!-- Node11&#45;&gt;Node21 -->
<g id="edge27" class="edge">
<title>Node11&#45;&gt;Node21</title>
<path fill="none" stroke="orange" stroke-dasharray="5,2" d="M303.91,-565.48C355.43,-548.3 431.57,-522.92 479.71,-506.88"/>
<polygon fill="orange" stroke="orange" points="302.65,-562.21 294.27,-568.69 304.86,-568.85 302.65,-562.21"/>
<text text-anchor="middle" x="386" y="-559.78" font-family="Helvetica,sans-Serif" font-size="10.00"> &lt; std::string, int &gt;</text>
</g>
<!-- Node12 -->
<g id="node12" class="node">
<title>Node12</title>
<g id="a_node12"><a xlink:title=" ">
<polygon fill="white" stroke="#bfbfbf" points="37.5,-620.28 37.5,-639.28 66.5,-639.28 66.5,-620.28 37.5,-620.28"/>
<text text-anchor="middle" x="52" y="-627.28" font-family="Helvetica,sans-Serif" font-size="10.00">K</text>
</a>
</g>
</g>
<!-- Node12&#45;&gt;Node11 -->
<g id="edge12" class="edge">
<title>Node12&#45;&gt;Node11</title>
<path fill="none" stroke="#9a32cd" stroke-dasharray="5,2" d="M76.5,-626.26C100.44,-622.48 138.57,-615.89 171,-607.78 181.34,-605.19 192.33,-601.99 202.65,-598.78"/>
<polygon fill="#9a32cd" stroke="#9a32cd" points="75.91,-622.81 66.56,-627.8 76.98,-629.73 75.91,-622.81"/>
<text text-anchor="middle" x="146.5" y="-620.78" font-family="Helvetica,sans-Serif" font-size="10.00"> keys</text>
</g>
<!-- Node13&#45;&gt;Node1 -->
<g id="edge14" class="edge">
<title>Node13&#45;&gt;Node1</title>
<path fill="none" stroke="#9a32cd" stroke-dasharray="5,2" d="M1782.62,-322.15C1793.62,-332.35 1807.43,-346.1 1818,-359.78 1892.67,-456.39 1958.51,-590.42 1975.98,-627.15"/>
<polygon fill="#9a32cd" stroke="#9a32cd" points="1784.94,-319.53 1775.18,-315.4 1780.23,-324.71 1784.94,-319.53"/>
<text text-anchor="middle" x="1866.5" y="-480.78" font-family="Helvetica,sans-Serif" font-size="10.00"> m_sim</text>
</g>
<!-- Node13&#45;&gt;Node18 -->
<g id="edge28" class="edge">
<title>Node13&#45;&gt;Node18</title>
<path fill="none" stroke="#9a32cd" stroke-dasharray="5,2" d="M1828.11,-295.71C1857.14,-291.15 1891.27,-285.79 1919.87,-281.3"/>
<polygon fill="#9a32cd" stroke="#9a32cd" points="1827.41,-292.28 1818.07,-297.29 1828.5,-299.19 1827.41,-292.28"/>
<text text-anchor="middle" x="1866.5" y="-297.78" font-family="Helvetica,sans-Serif" font-size="10.00"> m_sim</text>
</g>
<!-- Node14 -->
<g id="node14" class="node">
<title>Node14</title>
<g id="a_node14"><a xlink:title=" ">
<polygon fill="white" stroke="#bfbfbf" points="1395,-365.78 1395,-395.78 1525,-395.78 1525,-365.78 1395,-365.78"/>
<text text-anchor="start" x="1403" y="-383.78" font-family="Helvetica,sans-Serif" font-size="10.00">std::unique_ptr&lt; amr</text>
<text text-anchor="middle" x="1460" y="-372.78" font-family="Helvetica,sans-Serif" font-size="10.00">_wind::HelicsStorage &gt;</text>
</a>
</g>
</g>
<!-- Node14&#45;&gt;Node13 -->
<g id="edge15" class="edge">
<title>Node14&#45;&gt;Node13</title>
<path fill="none" stroke="#9a32cd" stroke-dasharray="5,2" d="M1535.2,-371.32C1580.55,-364.44 1639.37,-353.55 1690,-337.78 1708.94,-331.88 1729.52,-322.4 1743.81,-315.28"/>
<polygon fill="#9a32cd" stroke="#9a32cd" points="1534.53,-367.88 1525.15,-372.81 1535.55,-374.8 1534.53,-367.88"/>
<text text-anchor="middle" x="1625" y="-370.78" font-family="Helvetica,sans-Serif" font-size="10.00"> m_helics</text>
</g>
<!-- Node15&#45;&gt;Node14 -->
<g id="edge16" class="edge">
<title>Node15&#45;&gt;Node14</title>
<path fill="none" stroke="orange" stroke-dasharray="5,2" d="M1156.43,-343.07C1164.01,-344.39 1171.68,-345.66 1179,-346.78 1252.82,-358.04 1338.05,-367.95 1394.9,-374.12"/>
<polygon fill="orange" stroke="orange" points="1157.01,-339.61 1146.55,-341.31 1155.78,-346.51 1157.01,-339.61"/>
<text text-anchor="middle" x="1269.5" y="-373.78" font-family="Helvetica,sans-Serif" font-size="10.00"> &lt; amr_wind::HelicsStorage &gt;</text>
</g>
<!-- Node16 -->
<g id="node16" class="node">
<title>Node16</title>
<g id="a_node16"><a xlink:title=" ">
<polygon fill="white" stroke="#bfbfbf" points="1400,-316.78 1400,-346.78 1520,-346.78 1520,-316.78 1400,-316.78"/>
<text text-anchor="start" x="1408" y="-334.78" font-family="Helvetica,sans-Serif" font-size="10.00">std::unique_ptr&lt; amr</text>
<text text-anchor="middle" x="1460" y="-323.78" font-family="Helvetica,sans-Serif" font-size="10.00">_wind::IOManager &gt;</text>
</a>
</g>
</g>
<!-- Node15&#45;&gt;Node16 -->
<g id="edge19" class="edge">
<title>Node15&#45;&gt;Node16</title>
<path fill="none" stroke="orange" stroke-dasharray="5,2" d="M1165.7,-331.78C1233.26,-331.78 1335.65,-331.78 1399.86,-331.78"/>
<polygon fill="orange" stroke="orange" points="1165.58,-328.28 1155.58,-331.78 1165.58,-335.28 1165.58,-328.28"/>
<text text-anchor="middle" x="1269.5" y="-334.78" font-family="Helvetica,sans-Serif" font-size="10.00"> &lt; amr_wind::IOManager &gt;</text>
</g>
<!-- Node17 -->
<g id="node17" class="node">
<title>Node17</title>
<g id="a_node17"><a xlink:title=" ">
<polygon fill="white" stroke="#bfbfbf" points="1378,-267.78 1378,-297.78 1542,-297.78 1542,-267.78 1378,-267.78"/>
<text text-anchor="start" x="1386" y="-285.78" font-family="Helvetica,sans-Serif" font-size="10.00">std::unique_ptr&lt; amr</text>
<text text-anchor="middle" x="1460" y="-274.78" font-family="Helvetica,sans-Serif" font-size="10.00">_wind::PostProcessManager &gt;</text>
</a>
</g>
</g>
<!-- Node15&#45;&gt;Node17 -->
<g id="edge21" class="edge">
<title>Node15&#45;&gt;Node17</title>
<path fill="none" stroke="orange" stroke-dasharray="5,2" d="M1156.43,-320.49C1164.01,-319.17 1171.68,-317.9 1179,-316.78 1245.8,-306.59 1321.95,-297.5 1377.95,-291.29"/>
<polygon fill="orange" stroke="orange" points="1155.78,-317.05 1146.55,-322.25 1157.01,-323.94 1155.78,-317.05"/>
<text text-anchor="middle" x="1269.5" y="-319.78" font-family="Helvetica,sans-Serif" font-size="10.00"> &lt; amr_wind::PostProcessManager &gt;</text>
</g>
<!-- Node22 -->
<g id="node22" class="node">
<title>Node22</title>
<g id="a_node22"><a xlink:title=" ">
<polygon fill="white" stroke="#bfbfbf" points="1560,-552.78 1560,-582.78 1690,-582.78 1690,-552.78 1560,-552.78"/>
<text text-anchor="start" x="1568" y="-570.78" font-family="Helvetica,sans-Serif" font-size="10.00">std::unique_ptr&lt; amr</text>
<text text-anchor="middle" x="1625" y="-559.78" font-family="Helvetica,sans-Serif" font-size="10.00">_wind::pde::PDEBase &gt;</text>
</a>
</g>
</g>
<!-- Node15&#45;&gt;Node22 -->
<g id="edge31" class="edge">
<title>Node15&#45;&gt;Node22</title>
<path fill="none" stroke="orange" stroke-dasharray="5,2" d="M1100.97,-351.37C1108.38,-387.02 1129.33,-462.16 1179,-498.78 1180.91,-500.19 1436.79,-539.29 1559.62,-557.99"/>
<polygon fill="orange" stroke="orange" points="1104.35,-350.44 1099.02,-341.29 1097.48,-351.77 1104.35,-350.44"/>
<text text-anchor="middle" x="1269.5" y="-529.78" font-family="Helvetica,sans-Serif" font-size="10.00"> &lt; amr_wind::pde::PDEBase &gt;</text>
</g>
<!-- Node24 -->
<g id="node24" class="node">
<title>Node24</title>
<g id="a_node24"><a xlink:title=" ">
<polygon fill="white" stroke="#bfbfbf" points="1388.5,-414.78 1388.5,-444.78 1531.5,-444.78 1531.5,-414.78 1388.5,-414.78"/>
<text text-anchor="start" x="1396.5" y="-432.78" font-family="Helvetica,sans-Serif" font-size="10.00">std::unique_ptr&lt; amr</text>
<text text-anchor="middle" x="1460" y="-421.78" font-family="Helvetica,sans-Serif" font-size="10.00">_wind::OversetManager &gt;</text>
</a>
</g>
</g>
<!-- Node15&#45;&gt;Node24 -->
<g id="edge34" class="edge">
<title>Node15&#45;&gt;Node24</title>
<path fill="none" stroke="orange" stroke-dasharray="5,2" d="M1116.38,-347.73C1132.11,-360.13 1155.64,-376.7 1179,-385.78 1247.11,-412.24 1330.42,-422.81 1388.38,-427.02"/>
<polygon fill="orange" stroke="orange" points="1118.47,-344.92 1108.5,-341.35 1114.07,-350.36 1118.47,-344.92"/>
<text text-anchor="middle" x="1269.5" y="-427.78" font-family="Helvetica,sans-Serif" font-size="10.00"> &lt; amr_wind::OversetManager &gt;</text>
</g>
<!-- Node25 -->
<g id="node25" class="node">
<title>Node25</title>
<g id="a_node25"><a xlink:title=" ">
<polygon fill="white" stroke="#bfbfbf" points="1379.5,-207.28 1379.5,-248.28 1540.5,-248.28 1540.5,-207.28 1379.5,-207.28"/>
<text text-anchor="start" x="1387.5" y="-236.28" font-family="Helvetica,sans-Serif" font-size="10.00">std::unique_ptr&lt; amr</text>
<text text-anchor="start" x="1387.5" y="-225.28" font-family="Helvetica,sans-Serif" font-size="10.00">_wind::turbulence::Turbulence</text>
<text text-anchor="middle" x="1460" y="-214.28" font-family="Helvetica,sans-Serif" font-size="10.00">Model &gt;</text>
</a>
</g>
</g>
<!-- Node15&#45;&gt;Node25 -->
<g id="edge36" class="edge">
<title>Node15&#45;&gt;Node25</title>
<path fill="none" stroke="orange" stroke-dasharray="5,2" d="M1113.58,-314.87C1128.89,-299.88 1153.36,-278.73 1179,-267.78 1242.89,-240.48 1321.7,-231.14 1379.41,-228.24"/>
<polygon fill="orange" stroke="orange" points="1111.01,-312.49 1106.45,-322.05 1115.97,-317.42 1111.01,-312.49"/>
<text text-anchor="start" x="1209" y="-281.78" font-family="Helvetica,sans-Serif" font-size="10.00"> &lt; amr_wind::turbulence</text>
<text text-anchor="middle" x="1269.5" y="-270.78" font-family="Helvetica,sans-Serif" font-size="10.00">::TurbulenceModel &gt;</text>
</g>
<!-- Node26 -->
<g id="node26" class="node">
<title>Node26</title>
<g id="a_node26"><a xlink:title=" ">
<polygon fill="white" stroke="#bfbfbf" points="1400,-157.78 1400,-187.78 1520,-187.78 1520,-157.78 1400,-157.78"/>
<text text-anchor="start" x="1408" y="-175.78" font-family="Helvetica,sans-Serif" font-size="10.00">std::unique_ptr&lt; amr</text>
<text text-anchor="middle" x="1460" y="-164.78" font-family="Helvetica,sans-Serif" font-size="10.00">_wind::MeshMap &gt;</text>
</a>
</g>
</g>
<!-- Node15&#45;&gt;Node26 -->
<g id="edge39" class="edge">
<title>Node15&#45;&gt;Node26</title>
<path fill="none" stroke="orange" stroke-dasharray="5,2" d="M1104.93,-312.83C1116.45,-286.15 1141.31,-238.18 1179,-214.78 1246.34,-172.97 1339.94,-167.17 1400,-168.6"/>
<polygon fill="orange" stroke="orange" points="1101.63,-311.64 1101.04,-322.22 1108.1,-314.32 1101.63,-311.64"/>
<text text-anchor="middle" x="1269.5" y="-217.78" font-family="Helvetica,sans-Serif" font-size="10.00"> &lt; amr_wind::MeshMap &gt;</text>
</g>
<!-- Node27 -->
<g id="node27" class="node">
<title>Node27</title>
<g id="a_node27"><a xlink:title=" ">
<polygon fill="white" stroke="#bfbfbf" points="1396,-463.78 1396,-493.78 1524,-493.78 1524,-463.78 1396,-463.78"/>
<text text-anchor="start" x="1404" y="-481.78" font-family="Helvetica,sans-Serif" font-size="10.00">std::unique_ptr&lt; amr</text>
<text text-anchor="middle" x="1460" y="-470.78" font-family="Helvetica,sans-Serif" font-size="10.00">_wind::ExtSolverMgr &gt;</text>
</a>
</g>
</g>
<!-- Node15&#45;&gt;Node27 -->
<g id="edge41" class="edge">
<title>Node15&#45;&gt;Node27</title>
<path fill="none" stroke="orange" stroke-dasharray="5,2" d="M1105.82,-350.41C1118.01,-375.32 1143.22,-418.75 1179,-439.78 1245.54,-478.89 1335.98,-484.67 1395.85,-483.3"/>
<polygon fill="orange" stroke="orange" points="1108.95,-348.84 1101.53,-341.28 1102.62,-351.82 1108.95,-348.84"/>
<text text-anchor="middle" x="1269.5" y="-486.78" font-family="Helvetica,sans-Serif" font-size="10.00"> &lt; amr_wind::ExtSolverMgr &gt;</text>
</g>
<!-- Node16&#45;&gt;Node13 -->
<g id="edge18" class="edge">
<title>Node16&#45;&gt;Node13</title>
<path fill="none" stroke="#9a32cd" stroke-dasharray="5,2" d="M1530.27,-325.8C1584.16,-321.14 1657.88,-314.77 1707.58,-310.48"/>
<polygon fill="#9a32cd" stroke="#9a32cd" points="1529.77,-322.33 1520.11,-326.67 1530.37,-329.3 1529.77,-322.33"/>
<text text-anchor="middle" x="1625" y="-325.78" font-family="Helvetica,sans-Serif" font-size="10.00"> m_io_mgr</text>
</g>
<!-- Node17&#45;&gt;Node13 -->
<g id="edge20" class="edge">
<title>Node17&#45;&gt;Node13</title>
<path fill="none" stroke="#9a32cd" stroke-dasharray="5,2" d="M1552.27,-283.17C1594.32,-284.17 1644.82,-286.53 1690,-291.78 1699.36,-292.87 1709.33,-294.5 1718.76,-296.26"/>
<polygon fill="#9a32cd" stroke="#9a32cd" points="1552.12,-279.67 1542.04,-282.95 1551.97,-286.67 1552.12,-279.67"/>
<text text-anchor="middle" x="1625" y="-294.78" font-family="Helvetica,sans-Serif" font-size="10.00"> m_post_mgr</text>
</g>
<!-- Node18&#45;&gt;Node13 -->
<g id="edge22" class="edge">
<title>Node18&#45;&gt;Node13</title>
<path fill="none" stroke="#9a32cd" stroke-dasharray="5,2" d="M1904.64,-266.33C1882.31,-266.32 1857.98,-267.9 1836,-272.78 1815.46,-277.34 1793.75,-288.23 1779.61,-296.26"/>
<polygon fill="#9a32cd" stroke="#9a32cd" points="1904.71,-269.83 1914.75,-266.43 1904.78,-262.83 1904.71,-269.83"/>
<text text-anchor="middle" x="1866.5" y="-275.78" font-family="Helvetica,sans-Serif" font-size="10.00"> m_pde_mgr</text>
</g>
<!-- Node19 -->
<g id="node19" class="node">
<title>Node19</title>
<g id="a_node19"><a xlink:href="classamr__wind_1_1_coll_mgr.html" target="_top" xlink:title=" ">
<polygon fill="white" stroke="black" points="1210,-38.78 1210,-68.78 1329,-68.78 1329,-38.78 1210,-38.78"/>
<text text-anchor="start" x="1218" y="-56.78" font-family="Helvetica,sans-Serif" font-size="10.00">amr_wind::CollMgr&lt;</text>
<text text-anchor="middle" x="1269.5" y="-45.78" font-family="Helvetica,sans-Serif" font-size="10.00"> PDEMgr, PDEBase &gt;</text>
</a>
</g>
</g>
<!-- Node19&#45;&gt;Node18 -->
<g id="edge23" class="edge">
<title>Node19&#45;&gt;Node18</title>
<path fill="none" stroke="midnightblue" d="M1339.36,-45.85C1424.23,-38.58 1571.73,-34.2 1690,-73.78 1815.02,-115.62 1935.88,-227.81 1970.6,-261.85"/>
<polygon fill="midnightblue" stroke="midnightblue" points="1338.97,-42.37 1329.32,-46.75 1339.6,-49.34 1338.97,-42.37"/>
</g>
<!-- Node20 -->
<g id="node20" class="node">
<title>Node20</title>
<g id="a_node20"><a xlink:href="classamr__wind_1_1_coll_mgr.html" target="_top" xlink:title="Interface to manage objects of sub&#45;classes based on factory registration.">
<polygon fill="white" stroke="black" points="743,-66.28 743,-107.28 872,-107.28 872,-66.28 743,-66.28"/>
<text text-anchor="start" x="751" y="-95.28" font-family="Helvetica,sans-Serif" font-size="10.00">amr_wind::CollMgr&lt;</text>
<text text-anchor="start" x="751" y="-84.28" font-family="Helvetica,sans-Serif" font-size="10.00"> Collection, Type, allow</text>
<text text-anchor="middle" x="807.5" y="-73.28" font-family="Helvetica,sans-Serif" font-size="10.00">_duplicates &gt;</text>
</a>
</g>
</g>
<!-- Node20&#45;&gt;Node19 -->
<g id="edge24" class="edge">
<title>Node20&#45;&gt;Node19</title>
<path fill="none" stroke="orange" stroke-dasharray="5,2" d="M882.24,-76.57C884.86,-76.29 887.45,-76.02 890,-75.78 1002.86,-64.9 1135.2,-58.7 1209.71,-55.81"/>
<polygon fill="orange" stroke="orange" points="881.61,-73.12 872.07,-77.72 882.4,-80.08 881.61,-73.12"/>
<text text-anchor="middle" x="952" y="-78.78" font-family="Helvetica,sans-Serif" font-size="10.00"> &lt; PDEMgr, PDEBase &gt;</text>
</g>
<!-- Node29 -->
<g id="node29" class="node">
<title>Node29</title>
<g id="a_node29"><a xlink:href="classamr__wind_1_1_coll_mgr.html" target="_top" xlink:title=" ">
<polygon fill="white" stroke="black" points="1032,-82.78 1032,-112.78 1161,-112.78 1161,-82.78 1032,-82.78"/>
<text text-anchor="start" x="1040" y="-100.78" font-family="Helvetica,sans-Serif" font-size="10.00">amr_wind::CollMgr&lt;</text>
<text text-anchor="middle" x="1096.5" y="-89.78" font-family="Helvetica,sans-Serif" font-size="10.00"> PhysicsMgr, Physics &gt;</text>
</a>
</g>
</g>
<!-- Node20&#45;&gt;Node29 -->
<g id="edge44" class="edge">
<title>Node20&#45;&gt;Node29</title>
<path fill="none" stroke="orange" stroke-dasharray="5,2" d="M882.47,-89.61C928.77,-91.39 987.81,-93.65 1031.98,-95.34"/>
<polygon fill="orange" stroke="orange" points="882.32,-86.11 872.19,-89.22 882.05,-93.1 882.32,-86.11"/>
<text text-anchor="middle" x="952" y="-97.78" font-family="Helvetica,sans-Serif" font-size="10.00"> &lt; PhysicsMgr, Physics &gt;</text>
</g>
<!-- Node21&#45;&gt;Node20 -->
<g id="edge25" class="edge">
<title>Node21&#45;&gt;Node20</title>
<path fill="none" stroke="#9a32cd" stroke-dasharray="5,2" d="M543.5,-467.87C593.78,-395.02 744.53,-176.57 792.01,-107.77"/>
<polygon fill="#9a32cd" stroke="#9a32cd" points="540.41,-466.18 537.62,-476.4 546.18,-470.15 540.41,-466.18"/>
<text text-anchor="middle" x="665" y="-375.78" font-family="Helvetica,sans-Serif" font-size="10.00"> m_obj_map</text>
</g>
<!-- Node22&#45;&gt;Node18 -->
<g id="edge30" class="edge">
<title>Node22&#45;&gt;Node18</title>
<path fill="none" stroke="#9a32cd" stroke-dasharray="5,2" d="M1689.73,-547.95C1689.82,-547.89 1689.91,-547.83 1690,-547.78 1769.65,-498.48 1767.93,-460.13 1836,-395.78 1883.32,-351.04 1943.38,-301.73 1968.55,-281.37"/>
<polygon fill="#9a32cd" stroke="#9a32cd" points="1688.09,-544.85 1680.95,-552.68 1691.41,-551.01 1688.09,-544.85"/>
<text text-anchor="middle" x="1763" y="-538.78" font-family="Helvetica,sans-Serif" font-size="10.00"> m_icns</text>
</g>
<!-- Node23 -->
<g id="node23" class="node">
<title>Node23</title>
<g id="a_node23"><a xlink:href="classamr__wind_1_1_sim_time.html" target="_top" xlink:title="Time manager for simulations.">
<polygon fill="white" stroke="black" points="1403,-119.28 1403,-138.28 1517,-138.28 1517,-119.28 1403,-119.28"/>
<text text-anchor="middle" x="1460" y="-126.28" font-family="Helvetica,sans-Serif" font-size="10.00">amr_wind::SimTime</text>
</a>
</g>
</g>
<!-- Node23&#45;&gt;Node13 -->
<g id="edge32" class="edge">
<title>Node23&#45;&gt;Node13</title>
<path fill="none" stroke="#9a32cd" stroke-dasharray="5,2" d="M1527.42,-125.02C1576.67,-125.56 1643.12,-133.65 1690,-167.78 1735.22,-200.7 1754.39,-270.61 1760.07,-296.17"/>
<polygon fill="#9a32cd" stroke="#9a32cd" points="1527.18,-121.52 1517.18,-125.01 1527.18,-128.52 1527.18,-121.52"/>
<text text-anchor="middle" x="1625" y="-170.78" font-family="Helvetica,sans-Serif" font-size="10.00"> m_time</text>
</g>
<!-- Node24&#45;&gt;Node13 -->
<g id="edge33" class="edge">
<title>Node24&#45;&gt;Node13</title>
<path fill="none" stroke="#9a32cd" stroke-dasharray="5,2" d="M1541.51,-426.89C1587.87,-422.03 1645.56,-410.31 1690,-382.78 1701.03,-375.94 1699.39,-369.5 1708,-359.78 1722.41,-343.5 1740.52,-325.92 1751.68,-315.38"/>
<polygon fill="#9a32cd" stroke="#9a32cd" points="1541.12,-423.41 1531.5,-427.85 1541.79,-430.38 1541.12,-423.41"/>
<text text-anchor="middle" x="1625" y="-427.78" font-family="Helvetica,sans-Serif" font-size="10.00"> m_overset_mgr</text>
</g>
<!-- Node25&#45;&gt;Node13 -->
<g id="edge35" class="edge">
<title>Node25&#45;&gt;Node13</title>
<path fill="none" stroke="#9a32cd" stroke-dasharray="5,2" d="M1550.76,-237.55C1593.66,-243.8 1645.28,-253.66 1690,-268.78 1710.5,-275.71 1732.39,-287.69 1746.58,-296.14"/>
<polygon fill="#9a32cd" stroke="#9a32cd" points="1551.01,-234.05 1540.62,-236.12 1550.03,-240.98 1551.01,-234.05"/>
<text text-anchor="middle" x="1625" y="-271.78" font-family="Helvetica,sans-Serif" font-size="10.00"> m_turbulence</text>
</g>
<!-- Node26&#45;&gt;Node13 -->
<g id="edge38" class="edge">
<title>Node26&#45;&gt;Node13</title>
<path fill="none" stroke="#9a32cd" stroke-dasharray="5,2" d="M1530.4,-177.39C1578.06,-183.13 1641.28,-195.99 1690,-224.78 1720.78,-242.97 1745.53,-278.77 1756.25,-296.03"/>
<polygon fill="#9a32cd" stroke="#9a32cd" points="1530.5,-173.88 1520.17,-176.24 1529.71,-180.84 1530.5,-173.88"/>
<text text-anchor="middle" x="1625" y="-227.78" font-family="Helvetica,sans-Serif" font-size="10.00"> m_mesh_map</text>
</g>
<!-- Node27&#45;&gt;Node13 -->
<g id="edge40" class="edge">
<title>Node27&#45;&gt;Node13</title>
<path fill="none" stroke="#9a32cd" stroke-dasharray="5,2" d="M1534.36,-485.95C1584.52,-486.64 1649.08,-478.6 1690,-439.78 1716.44,-414.7 1690.42,-391.7 1708,-359.78 1718.1,-341.43 1736.31,-325.16 1748.76,-315.39"/>
<polygon fill="#9a32cd" stroke="#9a32cd" points="1534.3,-482.45 1524.21,-485.69 1534.12,-489.45 1534.3,-482.45"/>
<text text-anchor="middle" x="1625" y="-488.78" font-family="Helvetica,sans-Serif" font-size="10.00"> m_ext_solver_mgr</text>
</g>
<!-- Node28 -->
<g id="node28" class="node">
<title>Node28</title>
<g id="a_node28"><a xlink:href="classamr__wind_1_1_physics_mgr.html" target="_top" xlink:title="A collection of Physics models instances that are active during a simulation.">
<polygon fill="white" stroke="black" points="1397,-81.28 1397,-100.28 1523,-100.28 1523,-81.28 1397,-81.28"/>
<text text-anchor="middle" x="1460" y="-88.28" font-family="Helvetica,sans-Serif" font-size="10.00">amr_wind::PhysicsMgr</text>
</a>
</g>
</g>
<!-- Node28&#45;&gt;Node13 -->
<g id="edge42" class="edge">
<title>Node28&#45;&gt;Node13</title>
<path fill="none" stroke="#9a32cd" stroke-dasharray="5,2" d="M1520.72,-79.99C1570.98,-74.41 1642.1,-75.11 1690,-111.78 1751.33,-158.73 1760.43,-263.65 1761.77,-296.06"/>
<polygon fill="#9a32cd" stroke="#9a32cd" points="1520.15,-76.54 1510.65,-81.23 1521,-83.49 1520.15,-76.54"/>
<text text-anchor="middle" x="1625" y="-114.78" font-family="Helvetica,sans-Serif" font-size="10.00"> m_physics_mgr</text>
</g>
<!-- Node29&#45;&gt;Node28 -->
<g id="edge43" class="edge">
<title>Node29&#45;&gt;Node28</title>
<path fill="none" stroke="midnightblue" d="M1171.69,-96.34C1238.07,-95.06 1334.29,-93.19 1396.75,-91.98"/>
<polygon fill="midnightblue" stroke="midnightblue" points="1171.23,-92.85 1161.3,-96.54 1171.36,-99.85 1171.23,-92.85"/>
</g>
</g>
</svg>
