<?xml version="1.0" encoding="UTF-8" standalone="no"?>
<!DOCTYPE svg PUBLIC "-//W3C//DTD SVG 1.1//EN"
 "http://www.w3.org/Graphics/SVG/1.1/DTD/svg11.dtd">
<!-- Generated by graphviz version 2.43.0 (0)
 -->
<!-- Title: ocean_waves Pages: 1 -->
<svg width="380pt" height="391pt"
 viewBox="0.00 0.00 380.00 391.00" xmlns="http://www.w3.org/2000/svg" xmlns:xlink="http://www.w3.org/1999/xlink">
<g id="graph0" class="graph" transform="scale(1 1) rotate(0) translate(4 387)">
<title>ocean_waves</title>
<polygon fill="white" stroke="transparent" points="-4,4 -4,-387 376,-387 376,4 -4,4"/>
<g id="clust1" class="cluster">
<title>clusterdir_d85575251dd712327fe3cf057fa568b4</title>
<g id="a_clust1"><a xlink:href="dir_d85575251dd712327fe3cf057fa568b4.html" target="_top" xlink:title="amr&#45;wind">
<polygon fill="#ddddee" stroke="black" points="8,-8 8,-375 364,-375 364,-8 8,-8"/>
<text text-anchor="middle" x="186" y="-363" font-family="Helvetica,sans-Serif" font-size="10.00">amr&#45;wind</text>
</a>
</g>
</g>
<g id="clust2" class="cluster">
<title>clusterdir_d1ad1874c7c194b86e5079f4c5f06e4a</title>
<g id="a_clust2"><a xlink:href="dir_d1ad1874c7c194b86e5079f4c5f06e4a.html" target="_top">
<polygon fill="#eeeeff" stroke="black" points="16,-224 16,-348 234,-348 234,-224 16,-224"/>
</a>
</g>
</g>
<!-- dir_3d3615e9a999cab4f3407307569d6ced -->
<g id="node1" class="node">
<title>dir_3d3615e9a999cab4f3407307569d6ced</title>
<g id="a_node1"><a xlink:href="dir_3d3615e9a999cab4f3407307569d6ced.html" target="_top" xlink:title="core">
<polygon fill="white" stroke="red" points="296,-268 242,-268 242,-232 296,-232 296,-268"/>
<text text-anchor="middle" x="269" y="-247.5" font-family="Helvetica,sans-Serif" font-size="10.00">core</text>
</a>
</g>
</g>
<!-- dir_e4cd57caa88bf1f4e1bf9521bc47c3c0 -->
<g id="node2" class="node">
<title>dir_e4cd57caa88bf1f4e1bf9521bc47c3c0</title>
<g id="a_node2"><a xlink:href="dir_e4cd57caa88bf1f4e1bf9521bc47c3c0.html" target="_top" xlink:title="utilities">
<polygon fill="white" stroke="red" points="250,-196 196,-196 196,-160 250,-160 250,-196"/>
<text text-anchor="middle" x="223" y="-175.5" font-family="Helvetica,sans-Serif" font-size="10.00">utilities</text>
</a>
</g>
</g>
<!-- dir_3d3615e9a999cab4f3407307569d6ced&#45;&gt;dir_e4cd57caa88bf1f4e1bf9521bc47c3c0 -->
<g id="edge22" class="edge">
<title>dir_3d3615e9a999cab4f3407307569d6ced&#45;&gt;dir_e4cd57caa88bf1f4e1bf9521bc47c3c0</title>
<path fill="none" stroke="black" d="M251.71,-231.7C245.59,-223.64 238.97,-213.89 233.53,-204.98"/>
<polygon fill="black" stroke="black" points="236.41,-202.98 228.34,-196.1 230.36,-206.51 236.41,-202.98"/>
<g id="a_edge22&#45;headlabel"><a xlink:href="dir_000024_000014.html" target="_top" xlink:title="1">
<text text-anchor="middle" x="240.67" y="-202.15" font-family="Helvetica,sans-Serif" font-size="10.00">1</text>
</a>
</g>
</g>
<!-- dir_e4cd57caa88bf1f4e1bf9521bc47c3c0&#45;&gt;dir_3d3615e9a999cab4f3407307569d6ced -->
<g id="edge11" class="edge">
<title>dir_e4cd57caa88bf1f4e1bf9521bc47c3c0&#45;&gt;dir_3d3615e9a999cab4f3407307569d6ced</title>
<path fill="none" stroke="black" d="M240.14,-196.1C246.25,-204.13 252.87,-213.87 258.34,-222.8"/>
<polygon fill="black" stroke="black" points="255.47,-224.83 263.54,-231.7 261.52,-221.3 255.47,-224.83"/>
<g id="a_edge11&#45;headlabel"><a xlink:href="dir_000014_000024.html" target="_top" xlink:title="28">
<text text-anchor="middle" x="251.21" y="-220.66" font-family="Helvetica,sans-Serif" font-size="10.00">28</text>
</a>
</g>
</g>
<!-- dir_f2c65bfcbdc19ebacbfc0bbbfb0d01b6 -->
<g id="node3" class="node">
<title>dir_f2c65bfcbdc19ebacbfc0bbbfb0d01b6</title>
<g id="a_node3"><a xlink:href="dir_f2c65bfcbdc19ebacbfc0bbbfb0d01b6.html" target="_top" xlink:title="physics">
<polygon fill="white" stroke="red" points="270,-124 216,-124 216,-88 270,-88 270,-124"/>
<text text-anchor="middle" x="243" y="-103.5" font-family="Helvetica,sans-Serif" font-size="10.00">physics</text>
</a>
</g>
</g>
<!-- dir_e4cd57caa88bf1f4e1bf9521bc47c3c0&#45;&gt;dir_f2c65bfcbdc19ebacbfc0bbbfb0d01b6 -->
<g id="edge14" class="edge">
<title>dir_e4cd57caa88bf1f4e1bf9521bc47c3c0&#45;&gt;dir_f2c65bfcbdc19ebacbfc0bbbfb0d01b6</title>
<path fill="none" stroke="black" d="M222.03,-159.7C223.47,-151.81 225.97,-142.3 228.84,-133.55"/>
<polygon fill="black" stroke="black" points="232.15,-134.7 232.22,-124.1 225.56,-132.34 232.15,-134.7"/>
<g id="a_edge14&#45;headlabel"><a xlink:href="dir_000014_000019.html" target="_top" xlink:title="1">
<text text-anchor="middle" x="233.61" y="-136.54" font-family="Helvetica,sans-Serif" font-size="10.00">1</text>
</a>
</g>
</g>
<!-- dir_4bb30ed846ea1df1fc4d16874a455d91 -->
<g id="node4" class="node">
<title>dir_4bb30ed846ea1df1fc4d16874a455d91</title>
<g id="a_node4"><a xlink:href="dir_4bb30ed846ea1df1fc4d16874a455d91.html" target="_top" xlink:title="equation_systems">
<polygon fill="white" stroke="red" points="250,-52 144,-52 144,-16 250,-16 250,-52"/>
<text text-anchor="middle" x="197" y="-31.5" font-family="Helvetica,sans-Serif" font-size="10.00">equation_systems</text>
</a>
</g>
</g>
<!-- dir_e4cd57caa88bf1f4e1bf9521bc47c3c0&#45;&gt;dir_4bb30ed846ea1df1fc4d16874a455d91 -->
<g id="edge12" class="edge">
<title>dir_e4cd57caa88bf1f4e1bf9521bc47c3c0&#45;&gt;dir_4bb30ed846ea1df1fc4d16874a455d91</title>
<path fill="none" stroke="black" d="M208.98,-159.54C204.47,-149.3 200.47,-136.05 198,-124 193.8,-103.57 191.26,-80.11 191.08,-62.41"/>
<polygon fill="black" stroke="black" points="194.59,-62.27 191.29,-52.21 187.59,-62.13 194.59,-62.27"/>
<g id="a_edge12&#45;headlabel"><a xlink:href="dir_000014_000002.html" target="_top" xlink:title="1">
<text text-anchor="middle" x="197.35" y="-63.42" font-family="Helvetica,sans-Serif" font-size="10.00">1</text>
</a>
</g>
</g>
<!-- dir_7f7a014517bfe31ea45620a6a947e37b -->
<g id="node5" class="node">
<title>dir_7f7a014517bfe31ea45620a6a947e37b</title>
<g id="a_node5"><a xlink:href="dir_7f7a014517bfe31ea45620a6a947e37b.html" target="_top" xlink:title="fvm">
<polygon fill="none" stroke="black" points="329,-52 275,-52 275,-16 329,-16 329,-52"/>
<text text-anchor="middle" x="302" y="-31.5" font-family="Helvetica,sans-Serif" font-size="10.00">fvm</text>
</a>
</g>
</g>
<!-- dir_e4cd57caa88bf1f4e1bf9521bc47c3c0&#45;&gt;dir_7f7a014517bfe31ea45620a6a947e37b -->
<g id="edge13" class="edge">
<title>dir_e4cd57caa88bf1f4e1bf9521bc47c3c0&#45;&gt;dir_7f7a014517bfe31ea45620a6a947e37b</title>
<path fill="none" stroke="black" d="M246.43,-159.97C257.81,-150.55 270.77,-137.95 279,-124 290.18,-105.04 295.99,-80.67 298.97,-62.23"/>
<polygon fill="black" stroke="black" points="302.46,-62.54 300.42,-52.14 295.53,-61.55 302.46,-62.54"/>
<g id="a_edge13&#45;headlabel"><a xlink:href="dir_000014_000026.html" target="_top" xlink:title="2">
<text text-anchor="middle" x="304.76" y="-64" font-family="Helvetica,sans-Serif" font-size="10.00">2</text>
</a>
</g>
</g>
<!-- dir_f2c65bfcbdc19ebacbfc0bbbfb0d01b6&#45;&gt;dir_3d3615e9a999cab4f3407307569d6ced -->
<g id="edge7" class="edge">
<title>dir_f2c65bfcbdc19ebacbfc0bbbfb0d01b6&#45;&gt;dir_3d3615e9a999cab4f3407307569d6ced</title>
<path fill="none" stroke="black" d="M249.14,-124.46C252.53,-134.7 256.53,-147.95 259,-160 263.2,-180.43 265.74,-203.89 267.21,-221.59"/>
<polygon fill="black" stroke="black" points="263.74,-222.09 267.99,-231.79 270.72,-221.56 263.74,-222.09"/>
<g id="a_edge7&#45;headlabel"><a xlink:href="dir_000019_000024.html" target="_top" xlink:title="76">
<text text-anchor="middle" x="260.63" y="-216.22" font-family="Helvetica,sans-Serif" font-size="10.00">76</text>
</a>
</g>
</g>
<!-- dir_f2c65bfcbdc19ebacbfc0bbbfb0d01b6&#45;&gt;dir_e4cd57caa88bf1f4e1bf9521bc47c3c0 -->
<g id="edge10" class="edge">
<title>dir_f2c65bfcbdc19ebacbfc0bbbfb0d01b6&#45;&gt;dir_e4cd57caa88bf1f4e1bf9521bc47c3c0</title>
<path fill="none" stroke="black" d="M244.01,-124.1C242.59,-131.96 240.1,-141.46 237.23,-150.23"/>
<polygon fill="black" stroke="black" points="233.92,-149.1 233.86,-159.7 240.51,-151.45 233.92,-149.1"/>
<g id="a_edge10&#45;headlabel"><a xlink:href="dir_000019_000014.html" target="_top" xlink:title="14">
<text text-anchor="middle" x="232.45" y="-142.26" font-family="Helvetica,sans-Serif" font-size="10.00">14</text>
</a>
</g>
</g>
<!-- dir_f2c65bfcbdc19ebacbfc0bbbfb0d01b6&#45;&gt;dir_4bb30ed846ea1df1fc4d16874a455d91 -->
<g id="edge8" class="edge">
<title>dir_f2c65bfcbdc19ebacbfc0bbbfb0d01b6&#45;&gt;dir_4bb30ed846ea1df1fc4d16874a455d91</title>
<path fill="none" stroke="black" d="M225.71,-87.7C219.59,-79.64 212.97,-69.89 207.53,-60.98"/>
<polygon fill="black" stroke="black" points="210.41,-58.98 202.34,-52.1 204.36,-62.51 210.41,-58.98"/>
<g id="a_edge8&#45;headlabel"><a xlink:href="dir_000019_000002.html" target="_top" xlink:title="8">
<text text-anchor="middle" x="214.67" y="-58.15" font-family="Helvetica,sans-Serif" font-size="10.00">8</text>
</a>
</g>
</g>
<!-- dir_f2c65bfcbdc19ebacbfc0bbbfb0d01b6&#45;&gt;dir_7f7a014517bfe31ea45620a6a947e37b -->
<g id="edge9" class="edge">
<title>dir_f2c65bfcbdc19ebacbfc0bbbfb0d01b6&#45;&gt;dir_7f7a014517bfe31ea45620a6a947e37b</title>
<path fill="none" stroke="black" d="M257.58,-87.7C264.66,-79.3 273.28,-69.07 281.05,-59.86"/>
<polygon fill="black" stroke="black" points="283.81,-62.01 287.58,-52.1 278.46,-57.49 283.81,-62.01"/>
<g id="a_edge9&#45;headlabel"><a xlink:href="dir_000019_000026.html" target="_top" xlink:title="5">
<text text-anchor="middle" x="283.67" y="-64.08" font-family="Helvetica,sans-Serif" font-size="10.00">5</text>
</a>
</g>
</g>
<!-- dir_4bb30ed846ea1df1fc4d16874a455d91&#45;&gt;dir_3d3615e9a999cab4f3407307569d6ced -->
<g id="edge19" class="edge">
<title>dir_4bb30ed846ea1df1fc4d16874a455d91&#45;&gt;dir_3d3615e9a999cab4f3407307569d6ced</title>
<path fill="none" stroke="black" d="M189.95,-52.45C178.54,-83.7 159.9,-150.21 187,-196 200.17,-218.25 216.52,-209.61 238,-224 238.78,-224.52 239.56,-225.06 240.35,-225.61"/>
<polygon fill="black" stroke="black" points="238.59,-228.66 248.71,-231.8 242.76,-223.04 238.59,-228.66"/>
<g id="a_edge19&#45;headlabel"><a xlink:href="dir_000002_000024.html" target="_top" xlink:title="71">
<text text-anchor="middle" x="234.01" y="-226.3" font-family="Helvetica,sans-Serif" font-size="10.00">71</text>
</a>
</g>
</g>
<!-- dir_4bb30ed846ea1df1fc4d16874a455d91&#45;&gt;dir_e4cd57caa88bf1f4e1bf9521bc47c3c0 -->
<g id="edge20" class="edge">
<title>dir_4bb30ed846ea1df1fc4d16874a455d91&#45;&gt;dir_e4cd57caa88bf1f4e1bf9521bc47c3c0</title>
<path fill="none" stroke="black" d="M204.72,-52.21C208.27,-70.24 210.93,-99.33 216,-124 217.74,-132.47 220.23,-141.54 222.35,-149.73"/>
<polygon fill="black" stroke="black" points="218.97,-150.65 224.73,-159.54 225.77,-148.99 218.97,-150.65"/>
<g id="a_edge20&#45;headlabel"><a xlink:href="dir_000002_000014.html" target="_top" xlink:title="28">
<text text-anchor="middle" x="215.36" y="-145.33" font-family="Helvetica,sans-Serif" font-size="10.00">28</text>
</a>
</g>
</g>
<!-- dir_4bb30ed846ea1df1fc4d16874a455d91&#45;&gt;dir_f2c65bfcbdc19ebacbfc0bbbfb0d01b6 -->
<g id="edge21" class="edge">
<title>dir_4bb30ed846ea1df1fc4d16874a455d91&#45;&gt;dir_f2c65bfcbdc19ebacbfc0bbbfb0d01b6</title>
<path fill="none" stroke="black" d="M214.14,-52.1C220.25,-60.13 226.87,-69.87 232.34,-78.8"/>
<polygon fill="black" stroke="black" points="229.47,-80.83 237.54,-87.7 235.52,-77.3 229.47,-80.83"/>
<g id="a_edge21&#45;headlabel"><a xlink:href="dir_000002_000019.html" target="_top" xlink:title="5">
<text text-anchor="middle" x="225.21" y="-76.66" font-family="Helvetica,sans-Serif" font-size="10.00">5</text>
</a>
</g>
</g>
<!-- dir_7f7a014517bfe31ea45620a6a947e37b&#45;&gt;dir_3d3615e9a999cab4f3407307569d6ced -->
<g id="edge18" class="edge">
<title>dir_7f7a014517bfe31ea45620a6a947e37b&#45;&gt;dir_3d3615e9a999cab4f3407307569d6ced</title>
<path fill="none" stroke="black" d="M300.15,-52.1C298.15,-70.04 294.73,-99.06 291,-124 285.95,-157.75 278.96,-196.41 274.22,-221.69"/>
<polygon fill="black" stroke="black" points="270.76,-221.18 272.34,-231.66 277.64,-222.48 270.76,-221.18"/>
<g id="a_edge18&#45;headlabel"><a xlink:href="dir_000026_000024.html" target="_top" xlink:title="1">
<text text-anchor="middle" x="268.63" y="-214.62" font-family="Helvetica,sans-Serif" font-size="10.00">1</text>
</a>
</g>
</g>
<!-- dir_d1ad1874c7c194b86e5079f4c5f06e4a -->
<g id="node6" class="node">
<title>dir_d1ad1874c7c194b86e5079f4c5f06e4a</title>
<text text-anchor="middle" x="184" y="-319.5" font-family="Helvetica,sans-Serif" font-size="10.00">ocean_waves</text>
</g>
<!-- dir_d1ad1874c7c194b86e5079f4c5f06e4a&#45;&gt;dir_3d3615e9a999cab4f3407307569d6ced -->
<g id="edge15" class="edge">
<title>dir_d1ad1874c7c194b86e5079f4c5f06e4a&#45;&gt;dir_3d3615e9a999cab4f3407307569d6ced</title>
<path fill="none" stroke="black" d="M205.01,-303.7C215.72,-294.88 228.89,-284.03 240.5,-274.47"/>
<polygon fill="black" stroke="black" points="242.74,-277.16 248.23,-268.1 238.29,-271.76 242.74,-277.16"/>
<g id="a_edge15&#45;headlabel"><a xlink:href="dir_000040_000024.html" target="_top" xlink:title="13">
<text text-anchor="middle" x="241.77" y="-279.14" font-family="Helvetica,sans-Serif" font-size="10.00">13</text>
</a>
</g>
</g>
<!-- dir_d1ad1874c7c194b86e5079f4c5f06e4a&#45;&gt;dir_e4cd57caa88bf1f4e1bf9521bc47c3c0 -->
<g id="edge16" class="edge">
<title>dir_d1ad1874c7c194b86e5079f4c5f06e4a&#45;&gt;dir_e4cd57caa88bf1f4e1bf9521bc47c3c0</title>
<path fill="none" stroke="black" d="M225.79,-314.63C253.38,-308.01 287.56,-294.68 305,-268 315.7,-251.63 314.96,-240.83 305,-224 295.18,-207.41 276.84,-196.53 259.99,-189.63"/>
<polygon fill="black" stroke="black" points="260.91,-186.24 250.31,-186.02 258.45,-192.8 260.91,-186.24"/>
<g id="a_edge16&#45;headlabel"><a xlink:href="dir_000040_000014.html" target="_top" xlink:title="3">
<text text-anchor="middle" x="265.27" y="-182.34" font-family="Helvetica,sans-Serif" font-size="10.00">3</text>
</a>
</g>
</g>
<!-- dir_d1ad1874c7c194b86e5079f4c5f06e4a&#45;&gt;dir_f2c65bfcbdc19ebacbfc0bbbfb0d01b6 -->
<g id="edge17" class="edge">
<title>dir_d1ad1874c7c194b86e5079f4c5f06e4a&#45;&gt;dir_f2c65bfcbdc19ebacbfc0bbbfb0d01b6</title>
<path fill="none" stroke="black" d="M225.63,-316.01C255.46,-310.02 293.66,-296.86 313,-268 342.69,-223.7 299.1,-164.75 268.52,-131.86"/>
<polygon fill="black" stroke="black" points="270.9,-129.29 261.47,-124.48 265.84,-134.13 270.9,-129.29"/>
<g id="a_edge17&#45;headlabel"><a xlink:href="dir_000040_000019.html" target="_top" xlink:title="5">
<text text-anchor="middle" x="275.44" y="-127.43" font-family="Helvetica,sans-Serif" font-size="10.00">5</text>
</a>
</g>
</g>
<!-- dir_f19f2f0e4603bb450e0481a117696d66 -->
<g id="node7" class="node">
<title>dir_f19f2f0e4603bb450e0481a117696d66</title>
<g id="a_node7"><a xlink:href="dir_f19f2f0e4603bb450e0481a117696d66.html" target="_top" xlink:title="relaxation_zones">
<polygon fill="white" stroke="black" points="124,-340 24,-340 24,-304 124,-304 124,-340"/>
<text text-anchor="middle" x="74" y="-319.5" font-family="Helvetica,sans-Serif" font-size="10.00">relaxation_zones</text>
</a>
</g>
</g>
<!-- dir_f19f2f0e4603bb450e0481a117696d66&#45;&gt;dir_3d3615e9a999cab4f3407307569d6ced -->
<g id="edge2" class="edge">
<title>dir_f19f2f0e4603bb450e0481a117696d66&#45;&gt;dir_3d3615e9a999cab4f3407307569d6ced</title>
<path fill="none" stroke="black" d="M124.07,-305.96C159.72,-295.06 205.47,-280.65 232.41,-270.13"/>
<polygon fill="black" stroke="black" points="233.83,-273.33 241.76,-266.3 231.18,-266.86 233.83,-273.33"/>
<g id="a_edge2&#45;headlabel"><a xlink:href="dir_000041_000024.html" target="_top" xlink:title="6">
<text text-anchor="middle" x="231.58" y="-274.82" font-family="Helvetica,sans-Serif" font-size="10.00">6</text>
</a>
</g>
</g>
<!-- dir_f19f2f0e4603bb450e0481a117696d66&#45;&gt;dir_e4cd57caa88bf1f4e1bf9521bc47c3c0 -->
<g id="edge5" class="edge">
<title>dir_f19f2f0e4603bb450e0481a117696d66&#45;&gt;dir_e4cd57caa88bf1f4e1bf9521bc47c3c0</title>
<path fill="none" stroke="black" d="M106.68,-303.87C122.82,-294.51 142,-281.99 157,-268 177.07,-249.28 195.27,-223.79 207.45,-204.88"/>
<polygon fill="black" stroke="black" points="210.55,-206.52 212.92,-196.19 204.63,-202.79 210.55,-206.52"/>
<g id="a_edge5&#45;headlabel"><a xlink:href="dir_000041_000014.html" target="_top" xlink:title="2">
<text text-anchor="middle" x="211.04" y="-208.57" font-family="Helvetica,sans-Serif" font-size="10.00">2</text>
</a>
</g>
</g>
<!-- dir_f19f2f0e4603bb450e0481a117696d66&#45;&gt;dir_f2c65bfcbdc19ebacbfc0bbbfb0d01b6 -->
<g id="edge6" class="edge">
<title>dir_f19f2f0e4603bb450e0481a117696d66&#45;&gt;dir_f2c65bfcbdc19ebacbfc0bbbfb0d01b6</title>
<path fill="none" stroke="black" d="M96.91,-303.85C108.71,-294.23 122.73,-281.47 133,-268 165.53,-225.32 155.03,-203.1 187,-160 194.73,-149.59 204.62,-139.46 213.94,-130.9"/>
<polygon fill="black" stroke="black" points="216.43,-133.37 221.58,-124.11 211.78,-128.14 216.43,-133.37"/>
<g id="a_edge6&#45;headlabel"><a xlink:href="dir_000041_000019.html" target="_top" xlink:title="4">
<text text-anchor="middle" x="215.64" y="-135.38" font-family="Helvetica,sans-Serif" font-size="10.00">4</text>
</a>
</g>
</g>
<!-- dir_f19f2f0e4603bb450e0481a117696d66&#45;&gt;dir_4bb30ed846ea1df1fc4d16874a455d91 -->
<g id="edge3" class="edge">
<title>dir_f19f2f0e4603bb450e0481a117696d66&#45;&gt;dir_4bb30ed846ea1df1fc4d16874a455d91</title>
<path fill="none" stroke="black" d="M87.62,-303.6C94.97,-293.6 103.79,-280.56 110,-268 147.38,-192.41 137.44,-165.79 170,-88 173.71,-79.14 178.29,-69.72 182.61,-61.32"/>
<polygon fill="black" stroke="black" points="185.77,-62.84 187.33,-52.36 179.58,-59.58 185.77,-62.84"/>
<g id="a_edge3&#45;headlabel"><a xlink:href="dir_000041_000002.html" target="_top" xlink:title="5">
<text text-anchor="middle" x="186.61" y="-64.84" font-family="Helvetica,sans-Serif" font-size="10.00">5</text>
</a>
</g>
</g>
<!-- dir_f19f2f0e4603bb450e0481a117696d66&#45;&gt;dir_7f7a014517bfe31ea45620a6a947e37b -->
<g id="edge4" class="edge">
<title>dir_f19f2f0e4603bb450e0481a117696d66&#45;&gt;dir_7f7a014517bfe31ea45620a6a947e37b</title>
<path fill="none" stroke="black" d="M124.14,-306.28C127.13,-305.48 130.1,-304.72 133,-304 208.8,-285.18 255.76,-328.62 305,-268 353.48,-208.32 328.32,-108.83 312.15,-61.54"/>
<polygon fill="black" stroke="black" points="315.41,-60.26 308.76,-52.01 308.81,-62.6 315.41,-60.26"/>
<g id="a_edge4&#45;headlabel"><a xlink:href="dir_000041_000026.html" target="_top" xlink:title="2">
<text text-anchor="middle" x="319.28" y="-60.2" font-family="Helvetica,sans-Serif" font-size="10.00">2</text>
</a>
</g>
</g>
<!-- dir_300f84ae6b070ab09d28d2d80c042ab1 -->
<g id="node8" class="node">
<title>dir_300f84ae6b070ab09d28d2d80c042ab1</title>
<g id="a_node8"><a xlink:href="dir_300f84ae6b070ab09d28d2d80c042ab1.html" target="_top" xlink:title="utils">
<polygon fill="white" stroke="black" points="101,-268 47,-268 47,-232 101,-232 101,-268"/>
<text text-anchor="middle" x="74" y="-247.5" font-family="Helvetica,sans-Serif" font-size="10.00">utils</text>
</a>
</g>
</g>
<!-- dir_f19f2f0e4603bb450e0481a117696d66&#45;&gt;dir_300f84ae6b070ab09d28d2d80c042ab1 -->
<g id="edge1" class="edge">
<title>dir_f19f2f0e4603bb450e0481a117696d66&#45;&gt;dir_300f84ae6b070ab09d28d2d80c042ab1</title>
<path fill="none" stroke="black" d="M74,-303.7C74,-295.98 74,-286.71 74,-278.11"/>
<polygon fill="black" stroke="black" points="77.5,-278.1 74,-268.1 70.5,-278.1 77.5,-278.1"/>
<g id="a_edge1&#45;headlabel"><a xlink:href="dir_000041_000053.html" target="_top" xlink:title="1">
<text text-anchor="middle" x="80.34" y="-279.2" font-family="Helvetica,sans-Serif" font-size="10.00">1</text>
</a>
</g>
</g>
</g>
</svg>
