<?xml version="1.0" encoding="UTF-8" standalone="no"?>
<!DOCTYPE svg PUBLIC "-//W3C//DTD SVG 1.1//EN"
 "http://www.w3.org/Graphics/SVG/1.1/DTD/svg11.dtd">
<!-- Generated by graphviz version 2.43.0 (0)
 -->
<!-- Title: actuator Pages: 1 -->
<svg width="317pt" height="303pt"
 viewBox="0.00 0.00 317.10 303.00" xmlns="http://www.w3.org/2000/svg" xmlns:xlink="http://www.w3.org/1999/xlink">
<g id="graph0" class="graph" transform="scale(1 1) rotate(0) translate(4 299)">
<title>actuator</title>
<polygon fill="white" stroke="transparent" points="-4,4 -4,-299 313.1,-299 313.1,4 -4,4"/>
<g id="clust1" class="cluster">
<title>clusterdir_0c368f76a33d967d5b838b5681461de6</title>
<g id="a_clust1"><a xlink:href="dir_0c368f76a33d967d5b838b5681461de6.html" target="_top" xlink:title="wind_energy">
<polygon fill="#ddddee" stroke="black" points="35.01,-128 35.01,-287 265.01,-287 265.01,-128 35.01,-128"/>
<text text-anchor="middle" x="150.01" y="-275" font-family="Helvetica,sans-Serif" font-size="10.00">wind_energy</text>
</a>
</g>
</g>
<g id="clust2" class="cluster">
<title>clusterdir_7ecfdf414f04b0541a95d392dbc1e5c0</title>
<g id="a_clust2"><a xlink:href="dir_7ecfdf414f04b0541a95d392dbc1e5c0.html" target="_top">
<polygon fill="#eeeeff" stroke="black" points="43.01,-136 43.01,-260 257.01,-260 257.01,-136 43.01,-136"/>
</a>
</g>
</g>
<!-- dir_7ecfdf414f04b0541a95d392dbc1e5c0 -->
<g id="node1" class="node">
<title>dir_7ecfdf414f04b0541a95d392dbc1e5c0</title>
<text text-anchor="middle" x="114.01" y="-231.5" font-family="Helvetica,sans-Serif" font-size="10.00">actuator</text>
</g>
<!-- dir_2b9dc5e8bb121bbf6312166c568f90af -->
<g id="node3" class="node">
<title>dir_2b9dc5e8bb121bbf6312166c568f90af</title>
<g id="a_node3"><a xlink:href="dir_2b9dc5e8bb121bbf6312166c568f90af.html" target="_top" xlink:title="disk">
<polygon fill="white" stroke="black" points="177.01,-180 123.01,-180 123.01,-144 177.01,-144 177.01,-180"/>
<text text-anchor="middle" x="150.01" y="-159.5" font-family="Helvetica,sans-Serif" font-size="10.00">disk</text>
</a>
</g>
</g>
<!-- dir_7ecfdf414f04b0541a95d392dbc1e5c0&#45;&gt;dir_2b9dc5e8bb121bbf6312166c568f90af -->
<g id="edge11" class="edge">
<title>dir_7ecfdf414f04b0541a95d392dbc1e5c0&#45;&gt;dir_2b9dc5e8bb121bbf6312166c568f90af</title>
<path fill="none" stroke="black" d="M122.91,-215.7C127.01,-207.73 131.96,-198.1 136.5,-189.26"/>
<polygon fill="black" stroke="black" points="139.75,-190.6 141.21,-180.1 133.53,-187.4 139.75,-190.6"/>
<g id="a_edge11&#45;headlabel"><a xlink:href="dir_000007_000008.html" target="_top" xlink:title="1">
<text text-anchor="middle" x="140.63" y="-192.59" font-family="Helvetica,sans-Serif" font-size="10.00">1</text>
</a>
</g>
</g>
<!-- dir_26e13646035c47d7e3eb3b975c94bc4e -->
<g id="node4" class="node">
<title>dir_26e13646035c47d7e3eb3b975c94bc4e</title>
<g id="a_node4"><a xlink:href="dir_26e13646035c47d7e3eb3b975c94bc4e.html" target="_top" xlink:title="turbine">
<polygon fill="white" stroke="red" points="105.01,-180 51.01,-180 51.01,-144 105.01,-144 105.01,-180"/>
<text text-anchor="middle" x="78.01" y="-159.5" font-family="Helvetica,sans-Serif" font-size="10.00">turbine</text>
</a>
</g>
</g>
<!-- dir_7ecfdf414f04b0541a95d392dbc1e5c0&#45;&gt;dir_26e13646035c47d7e3eb3b975c94bc4e -->
<g id="edge10" class="edge">
<title>dir_7ecfdf414f04b0541a95d392dbc1e5c0&#45;&gt;dir_26e13646035c47d7e3eb3b975c94bc4e</title>
<path fill="none" stroke="black" d="M105.11,-215.7C101.01,-207.73 96.06,-198.1 91.52,-189.26"/>
<polygon fill="black" stroke="black" points="94.49,-187.4 86.8,-180.1 88.27,-190.6 94.49,-187.4"/>
<g id="a_edge10&#45;headlabel"><a xlink:href="dir_000007_000009.html" target="_top" xlink:title="1">
<text text-anchor="middle" x="98.66" y="-186.79" font-family="Helvetica,sans-Serif" font-size="10.00">1</text>
</a>
</g>
</g>
<!-- dir_3d3615e9a999cab4f3407307569d6ced -->
<g id="node6" class="node">
<title>dir_3d3615e9a999cab4f3407307569d6ced</title>
<g id="a_node6"><a xlink:href="dir_3d3615e9a999cab4f3407307569d6ced.html" target="_top" xlink:title="core">
<polygon fill="white" stroke="red" points="105.01,-108 51.01,-108 51.01,-72 105.01,-72 105.01,-108"/>
<text text-anchor="middle" x="78.01" y="-87.5" font-family="Helvetica,sans-Serif" font-size="10.00">core</text>
</a>
</g>
</g>
<!-- dir_7ecfdf414f04b0541a95d392dbc1e5c0&#45;&gt;dir_3d3615e9a999cab4f3407307569d6ced -->
<g id="edge12" class="edge">
<title>dir_7ecfdf414f04b0541a95d392dbc1e5c0&#45;&gt;dir_3d3615e9a999cab4f3407307569d6ced</title>
<path fill="none" stroke="black" d="M85.13,-227.22C60.14,-220.52 25.49,-206.78 9.01,-180 -3.1,-160.32 -2.86,-147.83 9.01,-128 16.24,-115.92 28.92,-107.55 41.45,-101.88"/>
<polygon fill="black" stroke="black" points="42.96,-105.05 50.91,-98.05 40.33,-98.56 42.96,-105.05"/>
<g id="a_edge12&#45;headlabel"><a xlink:href="dir_000007_000024.html" target="_top" xlink:title="21">
<text text-anchor="middle" x="40.69" y="-106.53" font-family="Helvetica,sans-Serif" font-size="10.00">21</text>
</a>
</g>
</g>
<!-- dir_e4cd57caa88bf1f4e1bf9521bc47c3c0 -->
<g id="node7" class="node">
<title>dir_e4cd57caa88bf1f4e1bf9521bc47c3c0</title>
<g id="a_node7"><a xlink:href="dir_e4cd57caa88bf1f4e1bf9521bc47c3c0.html" target="_top" xlink:title="utilities">
<polygon fill="white" stroke="red" points="198.01,-36 144.01,-36 144.01,0 198.01,0 198.01,-36"/>
<text text-anchor="middle" x="171.01" y="-15.5" font-family="Helvetica,sans-Serif" font-size="10.00">utilities</text>
</a>
</g>
</g>
<!-- dir_7ecfdf414f04b0541a95d392dbc1e5c0&#45;&gt;dir_e4cd57caa88bf1f4e1bf9521bc47c3c0 -->
<g id="edge13" class="edge">
<title>dir_7ecfdf414f04b0541a95d392dbc1e5c0&#45;&gt;dir_e4cd57caa88bf1f4e1bf9521bc47c3c0</title>
<path fill="none" stroke="black" d="M142.51,-226.58C180.49,-217.37 244.48,-199.39 258.01,-180 289.95,-134.21 237.06,-75.43 200.74,-43.06"/>
<polygon fill="black" stroke="black" points="202.67,-40.11 192.83,-36.19 198.08,-45.39 202.67,-40.11"/>
<g id="a_edge13&#45;headlabel"><a xlink:href="dir_000007_000015.html" target="_top" xlink:title="25">
<text text-anchor="middle" x="207.25" y="-37.82" font-family="Helvetica,sans-Serif" font-size="10.00">25</text>
</a>
</g>
</g>
<!-- dir_e4e9964e9eecc53686804f6e188c33cc -->
<g id="node2" class="node">
<title>dir_e4e9964e9eecc53686804f6e188c33cc</title>
<g id="a_node2"><a xlink:href="dir_e4e9964e9eecc53686804f6e188c33cc.html" target="_top" xlink:title="aero">
<polygon fill="white" stroke="black" points="249.01,-180 195.01,-180 195.01,-144 249.01,-144 249.01,-180"/>
<text text-anchor="middle" x="222.01" y="-159.5" font-family="Helvetica,sans-Serif" font-size="10.00">aero</text>
</a>
</g>
</g>
<!-- dir_e4e9964e9eecc53686804f6e188c33cc&#45;&gt;dir_e4cd57caa88bf1f4e1bf9521bc47c3c0 -->
<g id="edge1" class="edge">
<title>dir_e4e9964e9eecc53686804f6e188c33cc&#45;&gt;dir_e4cd57caa88bf1f4e1bf9521bc47c3c0</title>
<path fill="none" stroke="black" d="M215.86,-143.87C207.09,-119.46 190.91,-74.43 180.57,-45.64"/>
<polygon fill="black" stroke="black" points="183.86,-44.42 177.18,-36.19 177.27,-46.78 183.86,-44.42"/>
<g id="a_edge1&#45;headlabel"><a xlink:href="dir_000012_000015.html" target="_top" xlink:title="1">
<text text-anchor="middle" x="187.74" y="-44.34" font-family="Helvetica,sans-Serif" font-size="10.00">1</text>
</a>
</g>
</g>
<!-- dir_2b9dc5e8bb121bbf6312166c568f90af&#45;&gt;dir_3d3615e9a999cab4f3407307569d6ced -->
<g id="edge5" class="edge">
<title>dir_2b9dc5e8bb121bbf6312166c568f90af&#45;&gt;dir_3d3615e9a999cab4f3407307569d6ced</title>
<path fill="none" stroke="black" d="M132.21,-143.7C123.4,-135.14 112.63,-124.66 103.01,-115.3"/>
<polygon fill="black" stroke="black" points="105.21,-112.57 95.6,-108.1 100.33,-117.58 105.21,-112.57"/>
<g id="a_edge5&#45;headlabel"><a xlink:href="dir_000008_000024.html" target="_top" xlink:title="4">
<text text-anchor="middle" x="109.77" y="-110.54" font-family="Helvetica,sans-Serif" font-size="10.00">4</text>
</a>
</g>
</g>
<!-- dir_2b9dc5e8bb121bbf6312166c568f90af&#45;&gt;dir_e4cd57caa88bf1f4e1bf9521bc47c3c0 -->
<g id="edge6" class="edge">
<title>dir_2b9dc5e8bb121bbf6312166c568f90af&#45;&gt;dir_e4cd57caa88bf1f4e1bf9521bc47c3c0</title>
<path fill="none" stroke="black" d="M152.54,-143.87C156.12,-119.67 162.7,-75.21 166.96,-46.39"/>
<polygon fill="black" stroke="black" points="170.47,-46.59 168.47,-36.19 163.54,-45.57 170.47,-46.59"/>
<g id="a_edge6&#45;headlabel"><a xlink:href="dir_000008_000015.html" target="_top" xlink:title="10">
<text text-anchor="middle" x="172.75" y="-48.07" font-family="Helvetica,sans-Serif" font-size="10.00">10</text>
</a>
</g>
</g>
<!-- dir_26e13646035c47d7e3eb3b975c94bc4e&#45;&gt;dir_3d3615e9a999cab4f3407307569d6ced -->
<g id="edge7" class="edge">
<title>dir_26e13646035c47d7e3eb3b975c94bc4e&#45;&gt;dir_3d3615e9a999cab4f3407307569d6ced</title>
<path fill="none" stroke="black" d="M78.01,-143.7C78.01,-135.98 78.01,-126.71 78.01,-118.11"/>
<polygon fill="black" stroke="black" points="81.51,-118.1 78.01,-108.1 74.51,-118.1 81.51,-118.1"/>
<g id="a_edge7&#45;headlabel"><a xlink:href="dir_000009_000024.html" target="_top" xlink:title="4">
<text text-anchor="middle" x="84.35" y="-119.2" font-family="Helvetica,sans-Serif" font-size="10.00">4</text>
</a>
</g>
</g>
<!-- dir_26e13646035c47d7e3eb3b975c94bc4e&#45;&gt;dir_e4cd57caa88bf1f4e1bf9521bc47c3c0 -->
<g id="edge8" class="edge">
<title>dir_26e13646035c47d7e3eb3b975c94bc4e&#45;&gt;dir_e4cd57caa88bf1f4e1bf9521bc47c3c0</title>
<path fill="none" stroke="black" d="M89.8,-143.89C96.89,-133.55 106.05,-120.07 114.01,-108 127.95,-86.87 143.42,-62.67 154.72,-44.84"/>
<polygon fill="black" stroke="black" points="157.83,-46.47 160.22,-36.15 151.91,-42.73 157.83,-46.47"/>
<g id="a_edge8&#45;headlabel"><a xlink:href="dir_000009_000015.html" target="_top" xlink:title="5">
<text text-anchor="middle" x="158.3" y="-48.53" font-family="Helvetica,sans-Serif" font-size="10.00">5</text>
</a>
</g>
</g>
<!-- dir_e3d85df9da26726704711d7e5a0bc894 -->
<g id="node5" class="node">
<title>dir_e3d85df9da26726704711d7e5a0bc894</title>
<g id="a_node5"><a xlink:href="dir_e3d85df9da26726704711d7e5a0bc894.html" target="_top" xlink:title="wing">
<polygon fill="white" stroke="black" points="249.01,-252 195.01,-252 195.01,-216 249.01,-216 249.01,-252"/>
<text text-anchor="middle" x="222.01" y="-231.5" font-family="Helvetica,sans-Serif" font-size="10.00">wing</text>
</a>
</g>
</g>
<!-- dir_e3d85df9da26726704711d7e5a0bc894&#45;&gt;dir_e4e9964e9eecc53686804f6e188c33cc -->
<g id="edge4" class="edge">
<title>dir_e3d85df9da26726704711d7e5a0bc894&#45;&gt;dir_e4e9964e9eecc53686804f6e188c33cc</title>
<path fill="none" stroke="black" d="M222.01,-215.7C222.01,-207.98 222.01,-198.71 222.01,-190.11"/>
<polygon fill="black" stroke="black" points="225.51,-190.1 222.01,-180.1 218.51,-190.1 225.51,-190.1"/>
<g id="a_edge4&#45;headlabel"><a xlink:href="dir_000011_000012.html" target="_top" xlink:title="3">
<text text-anchor="middle" x="228.35" y="-191.2" font-family="Helvetica,sans-Serif" font-size="10.00">3</text>
</a>
</g>
</g>
<!-- dir_e3d85df9da26726704711d7e5a0bc894&#45;&gt;dir_3d3615e9a999cab4f3407307569d6ced -->
<g id="edge2" class="edge">
<title>dir_e3d85df9da26726704711d7e5a0bc894&#45;&gt;dir_3d3615e9a999cab4f3407307569d6ced</title>
<path fill="none" stroke="black" d="M194.76,-225.89C145.6,-212.94 46.69,-186.26 42.01,-180 28.17,-161.49 33.31,-149.41 42.01,-128 43.76,-123.68 46.29,-119.59 49.21,-115.81"/>
<polygon fill="black" stroke="black" points="52.05,-117.88 56.06,-108.07 46.81,-113.24 52.05,-117.88"/>
<g id="a_edge2&#45;headlabel"><a xlink:href="dir_000011_000024.html" target="_top" xlink:title="2">
<text text-anchor="middle" x="51.79" y="-119.95" font-family="Helvetica,sans-Serif" font-size="10.00">2</text>
</a>
</g>
</g>
<!-- dir_e3d85df9da26726704711d7e5a0bc894&#45;&gt;dir_e4cd57caa88bf1f4e1bf9521bc47c3c0 -->
<g id="edge3" class="edge">
<title>dir_e3d85df9da26726704711d7e5a0bc894&#45;&gt;dir_e4cd57caa88bf1f4e1bf9521bc47c3c0</title>
<path fill="none" stroke="black" d="M249.04,-220.13C264.4,-211.21 282.26,-197.75 291.01,-180 312.23,-136.94 317.21,-112.22 291.01,-72 272.79,-44.04 236.12,-30.73 208.09,-24.45"/>
<polygon fill="black" stroke="black" points="208.7,-21 198.2,-22.44 207.31,-27.86 208.7,-21"/>
<g id="a_edge3&#45;headlabel"><a xlink:href="dir_000011_000015.html" target="_top" xlink:title="4">
<text text-anchor="middle" x="212.79" y="-16.44" font-family="Helvetica,sans-Serif" font-size="10.00">4</text>
</a>
</g>
</g>
<!-- dir_3d3615e9a999cab4f3407307569d6ced&#45;&gt;dir_e4cd57caa88bf1f4e1bf9521bc47c3c0 -->
<g id="edge14" class="edge">
<title>dir_3d3615e9a999cab4f3407307569d6ced&#45;&gt;dir_e4cd57caa88bf1f4e1bf9521bc47c3c0</title>
<path fill="none" stroke="black" d="M95.08,-71.7C106.42,-62.44 121.56,-50.95 135.38,-41.06"/>
<polygon fill="black" stroke="black" points="137.61,-43.77 143.77,-35.14 133.58,-38.05 137.61,-43.77"/>
<g id="a_edge14&#45;headlabel"><a xlink:href="dir_000024_000015.html" target="_top" xlink:title="1">
<text text-anchor="middle" x="136.31" y="-45.66" font-family="Helvetica,sans-Serif" font-size="10.00">1</text>
</a>
</g>
</g>
<!-- dir_e4cd57caa88bf1f4e1bf9521bc47c3c0&#45;&gt;dir_3d3615e9a999cab4f3407307569d6ced -->
<g id="edge9" class="edge">
<title>dir_e4cd57caa88bf1f4e1bf9521bc47c3c0&#45;&gt;dir_3d3615e9a999cab4f3407307569d6ced</title>
<path fill="none" stroke="black" d="M154.05,-36.21C142.68,-45.5 127.45,-57.06 113.56,-67"/>
<polygon fill="black" stroke="black" points="111.28,-64.32 105.13,-72.94 115.32,-70.04 111.28,-64.32"/>
<g id="a_edge9&#45;headlabel"><a xlink:href="dir_000015_000024.html" target="_top" xlink:title="28">
<text text-anchor="middle" x="112.59" y="-57.43" font-family="Helvetica,sans-Serif" font-size="10.00">28</text>
</a>
</g>
</g>
</g>
</svg>
