<?xml version="1.0" encoding="UTF-8" standalone="no"?>
<!DOCTYPE svg PUBLIC "-//W3C//DTD SVG 1.1//EN"
 "http://www.w3.org/Graphics/SVG/1.1/DTD/svg11.dtd">
<!-- Generated by graphviz version 2.43.0 (0)
 -->
<!-- Title: source_terms Pages: 1 -->
<svg width="124pt" height="151pt"
 viewBox="0.00 0.00 124.00 151.00" xmlns="http://www.w3.org/2000/svg" xmlns:xlink="http://www.w3.org/1999/xlink">
<g id="graph0" class="graph" transform="scale(1 1) rotate(0) translate(4 147)">
<title>source_terms</title>
<polygon fill="white" stroke="transparent" points="-4,4 -4,-147 120,-147 120,4 -4,4"/>
<g id="clust1" class="cluster">
<title>clusterdir_9f8434f21d2c2598f33c85a8b98c6d56</title>
<g id="a_clust1"><a xlink:href="dir_9f8434f21d2c2598f33c85a8b98c6d56.html" target="_top" xlink:title="sdr">
<polygon fill="#ddddee" stroke="black" points="8,-64 8,-135 108,-135 108,-64 8,-64"/>
<text text-anchor="middle" x="58" y="-123" font-family="Helvetica,sans-Serif" font-size="10.00">sdr</text>
</a>
</g>
</g>
<!-- dir_59e56e41830d969135fa93db3e7f045e -->
<g id="node1" class="node">
<title>dir_59e56e41830d969135fa93db3e7f045e</title>
<g id="a_node1"><a xlink:href="dir_59e56e41830d969135fa93db3e7f045e.html" target="_top" xlink:title="source_terms">
<polygon fill="#eeeeff" stroke="black" points="99.5,-108 16.5,-108 16.5,-72 99.5,-72 99.5,-108"/>
<text text-anchor="middle" x="58" y="-87.5" font-family="Helvetica,sans-Serif" font-size="10.00">source_terms</text>
</a>
</g>
</g>
<!-- dir_9ff815a534beac751fa88e427dbab695 -->
<g id="node2" class="node">
<title>dir_9ff815a534beac751fa88e427dbab695</title>
<g id="a_node2"><a xlink:href="dir_9ff815a534beac751fa88e427dbab695.html" target="_top" xlink:title="turbulence">
<polygon fill="white" stroke="red" points="92,-36 24,-36 24,0 92,0 92,-36"/>
<text text-anchor="middle" x="58" y="-15.5" font-family="Helvetica,sans-Serif" font-size="10.00">turbulence</text>
</a>
</g>
</g>
<!-- dir_59e56e41830d969135fa93db3e7f045e&#45;&gt;dir_9ff815a534beac751fa88e427dbab695 -->
<g id="edge1" class="edge">
<title>dir_59e56e41830d969135fa93db3e7f045e&#45;&gt;dir_9ff815a534beac751fa88e427dbab695</title>
<path fill="none" stroke="black" d="M58,-71.7C58,-63.98 58,-54.71 58,-46.11"/>
<polygon fill="black" stroke="black" points="61.5,-46.1 58,-36.1 54.5,-46.1 61.5,-46.1"/>
<g id="a_edge1&#45;headlabel"><a xlink:href="dir_000050_000013.html" target="_top" xlink:title="1">
<text text-anchor="middle" x="64.34" y="-47.2" font-family="Helvetica,sans-Serif" font-size="10.00">1</text>
</a>
</g>
</g>
</g>
</svg>
