<?xml version="1.0" encoding="UTF-8" standalone="no"?>
<!DOCTYPE svg PUBLIC "-//W3C//DTD SVG 1.1//EN"
 "http://www.w3.org/Graphics/SVG/1.1/DTD/svg11.dtd">
<!-- Generated by graphviz version 2.43.0 (0)
 -->
<!-- Title: turbulence Pages: 1 -->
<svg width="332pt" height="311pt"
 viewBox="0.00 0.00 332.00 311.00" xmlns="http://www.w3.org/2000/svg" xmlns:xlink="http://www.w3.org/1999/xlink">
<g id="graph0" class="graph" transform="scale(1 1) rotate(0) translate(4 307)">
<title>turbulence</title>
<polygon fill="white" stroke="transparent" points="-4,4 -4,-307 328,-307 328,4 -4,4"/>
<g id="clust1" class="cluster">
<title>clusterdir_d85575251dd712327fe3cf057fa568b4</title>
<g id="a_clust1"><a xlink:href="dir_d85575251dd712327fe3cf057fa568b4.html" target="_top" xlink:title="amr&#45;wind">
<polygon fill="#ddddee" stroke="black" points="8,-8 8,-295 316,-295 316,-8 8,-8"/>
<text text-anchor="middle" x="162" y="-283" font-family="Helvetica,sans-Serif" font-size="10.00">amr&#45;wind</text>
</a>
</g>
</g>
<g id="clust2" class="cluster">
<title>clusterdir_9ff815a534beac751fa88e427dbab695</title>
<g id="a_clust2"><a xlink:href="dir_9ff815a534beac751fa88e427dbab695.html" target="_top">
<polygon fill="#eeeeff" stroke="black" points="16,-152 16,-204 244,-204 244,-152 16,-152"/>
</a>
</g>
</g>
<!-- dir_3d3615e9a999cab4f3407307569d6ced -->
<g id="node1" class="node">
<title>dir_3d3615e9a999cab4f3407307569d6ced</title>
<g id="a_node1"><a xlink:href="dir_3d3615e9a999cab4f3407307569d6ced.html" target="_top" xlink:title="core">
<polygon fill="white" stroke="red" points="308,-196 254,-196 254,-160 308,-160 308,-196"/>
<text text-anchor="middle" x="281" y="-175.5" font-family="Helvetica,sans-Serif" font-size="10.00">core</text>
</a>
</g>
</g>
<!-- dir_e4cd57caa88bf1f4e1bf9521bc47c3c0 -->
<g id="node5" class="node">
<title>dir_e4cd57caa88bf1f4e1bf9521bc47c3c0</title>
<g id="a_node5"><a xlink:href="dir_e4cd57caa88bf1f4e1bf9521bc47c3c0.html" target="_top" xlink:title="utilities">
<polygon fill="white" stroke="red" points="248,-124 194,-124 194,-88 248,-88 248,-124"/>
<text text-anchor="middle" x="221" y="-103.5" font-family="Helvetica,sans-Serif" font-size="10.00">utilities</text>
</a>
</g>
</g>
<!-- dir_3d3615e9a999cab4f3407307569d6ced&#45;&gt;dir_e4cd57caa88bf1f4e1bf9521bc47c3c0 -->
<g id="edge16" class="edge">
<title>dir_3d3615e9a999cab4f3407307569d6ced&#45;&gt;dir_e4cd57caa88bf1f4e1bf9521bc47c3c0</title>
<path fill="none" stroke="black" d="M260.25,-159.7C252.28,-151.39 243.41,-141.28 236.04,-132.14"/>
<polygon fill="black" stroke="black" points="238.68,-129.83 229.77,-124.1 233.16,-134.14 238.68,-129.83"/>
<g id="a_edge16&#45;headlabel"><a xlink:href="dir_000024_000015.html" target="_top" xlink:title="1">
<text text-anchor="middle" x="243.13" y="-128.42" font-family="Helvetica,sans-Serif" font-size="10.00">1</text>
</a>
</g>
</g>
<!-- dir_4bb30ed846ea1df1fc4d16874a455d91 -->
<g id="node2" class="node">
<title>dir_4bb30ed846ea1df1fc4d16874a455d91</title>
<g id="a_node2"><a xlink:href="dir_4bb30ed846ea1df1fc4d16874a455d91.html" target="_top" xlink:title="equation_systems">
<polygon fill="white" stroke="red" points="208,-52 102,-52 102,-16 208,-16 208,-52"/>
<text text-anchor="middle" x="155" y="-31.5" font-family="Helvetica,sans-Serif" font-size="10.00">equation_systems</text>
</a>
</g>
</g>
<!-- dir_4bb30ed846ea1df1fc4d16874a455d91&#45;&gt;dir_3d3615e9a999cab4f3407307569d6ced -->
<g id="edge12" class="edge">
<title>dir_4bb30ed846ea1df1fc4d16874a455d91&#45;&gt;dir_3d3615e9a999cab4f3407307569d6ced</title>
<path fill="none" stroke="black" d="M206.94,-52C225.09,-60.28 244.12,-71.98 257,-88 271.07,-105.49 276.93,-130.53 279.35,-149.6"/>
<polygon fill="black" stroke="black" points="275.89,-150.17 280.39,-159.76 282.85,-149.45 275.89,-150.17"/>
<g id="a_edge12&#45;headlabel"><a xlink:href="dir_000002_000024.html" target="_top" xlink:title="72">
<text text-anchor="middle" x="272.7" y="-144.38" font-family="Helvetica,sans-Serif" font-size="10.00">72</text>
</a>
</g>
</g>
<!-- dir_4bb30ed846ea1df1fc4d16874a455d91&#45;&gt;dir_e4cd57caa88bf1f4e1bf9521bc47c3c0 -->
<g id="edge14" class="edge">
<title>dir_4bb30ed846ea1df1fc4d16874a455d91&#45;&gt;dir_e4cd57caa88bf1f4e1bf9521bc47c3c0</title>
<path fill="none" stroke="black" d="M177.02,-52.1C185.78,-60.47 195.63,-70.69 203.86,-79.92"/>
<polygon fill="black" stroke="black" points="201.4,-82.44 210.6,-87.7 206.69,-77.85 201.4,-82.44"/>
<g id="a_edge14&#45;headlabel"><a xlink:href="dir_000002_000015.html" target="_top" xlink:title="28">
<text text-anchor="middle" x="196.9" y="-79.08" font-family="Helvetica,sans-Serif" font-size="10.00">28</text>
</a>
</g>
</g>
<!-- dir_9ff815a534beac751fa88e427dbab695 -->
<g id="node6" class="node">
<title>dir_9ff815a534beac751fa88e427dbab695</title>
<text text-anchor="middle" x="58" y="-175.5" font-family="Helvetica,sans-Serif" font-size="10.00">turbulence</text>
</g>
<!-- dir_4bb30ed846ea1df1fc4d16874a455d91&#45;&gt;dir_9ff815a534beac751fa88e427dbab695 -->
<g id="edge13" class="edge">
<title>dir_4bb30ed846ea1df1fc4d16874a455d91&#45;&gt;dir_9ff815a534beac751fa88e427dbab695</title>
<path fill="none" stroke="black" d="M143.26,-52.19C126.34,-76.96 94.99,-122.86 75.38,-151.56"/>
<polygon fill="black" stroke="black" points="72.45,-149.64 69.7,-159.87 78.23,-153.59 72.45,-149.64"/>
<g id="a_edge13&#45;headlabel"><a xlink:href="dir_000002_000013.html" target="_top" xlink:title="5">
<text text-anchor="middle" x="72.13" y="-142.57" font-family="Helvetica,sans-Serif" font-size="10.00">5</text>
</a>
</g>
</g>
<!-- dir_d4759c65d88ac8462151b54b86eeee49 -->
<g id="node7" class="node">
<title>dir_d4759c65d88ac8462151b54b86eeee49</title>
<g id="a_node7"><a xlink:href="dir_d4759c65d88ac8462151b54b86eeee49.html" target="_top" xlink:title="LES">
<polygon fill="white" stroke="black" points="236,-196 182,-196 182,-160 236,-160 236,-196"/>
<text text-anchor="middle" x="209" y="-175.5" font-family="Helvetica,sans-Serif" font-size="10.00">LES</text>
</a>
</g>
</g>
<!-- dir_4bb30ed846ea1df1fc4d16874a455d91&#45;&gt;dir_d4759c65d88ac8462151b54b86eeee49 -->
<g id="edge15" class="edge">
<title>dir_4bb30ed846ea1df1fc4d16874a455d91&#45;&gt;dir_d4759c65d88ac8462151b54b86eeee49</title>
<path fill="none" stroke="black" d="M160.25,-52.25C165.88,-70.31 175.32,-99.42 185,-124 188.41,-132.65 192.46,-141.92 196.26,-150.26"/>
<polygon fill="black" stroke="black" points="193.17,-151.92 200.55,-159.52 199.53,-148.98 193.17,-151.92"/>
<g id="a_edge15&#45;headlabel"><a xlink:href="dir_000002_000014.html" target="_top" xlink:title="1">
<text text-anchor="middle" x="189.09" y="-147.35" font-family="Helvetica,sans-Serif" font-size="10.00">1</text>
</a>
</g>
</g>
<!-- dir_7b7e55eaa727ae9c717abfc097345a8f -->
<g id="node3" class="node">
<title>dir_7b7e55eaa727ae9c717abfc097345a8f</title>
<g id="a_node3"><a xlink:href="dir_7b7e55eaa727ae9c717abfc097345a8f.html" target="_top" xlink:title="transport_models">
<polygon fill="none" stroke="black" points="213,-268 111,-268 111,-232 213,-232 213,-268"/>
<text text-anchor="middle" x="162" y="-247.5" font-family="Helvetica,sans-Serif" font-size="10.00">transport_models</text>
</a>
</g>
</g>
<!-- dir_7b7e55eaa727ae9c717abfc097345a8f&#45;&gt;dir_3d3615e9a999cab4f3407307569d6ced -->
<g id="edge17" class="edge">
<title>dir_7b7e55eaa727ae9c717abfc097345a8f&#45;&gt;dir_3d3615e9a999cab4f3407307569d6ced</title>
<path fill="none" stroke="black" d="M197.89,-231.9C213.61,-223.99 232.06,-214.11 248,-204 248.94,-203.4 249.89,-202.79 250.84,-202.16"/>
<polygon fill="black" stroke="black" points="253.17,-204.8 259.35,-196.2 249.15,-199.06 253.17,-204.8"/>
<g id="a_edge17&#45;headlabel"><a xlink:href="dir_000025_000024.html" target="_top" xlink:title="2">
<text text-anchor="middle" x="251.85" y="-206.69" font-family="Helvetica,sans-Serif" font-size="10.00">2</text>
</a>
</g>
</g>
<!-- dir_7f7a014517bfe31ea45620a6a947e37b -->
<g id="node4" class="node">
<title>dir_7f7a014517bfe31ea45620a6a947e37b</title>
<g id="a_node4"><a xlink:href="dir_7f7a014517bfe31ea45620a6a947e37b.html" target="_top" xlink:title="fvm">
<polygon fill="none" stroke="black" points="294,-52 240,-52 240,-16 294,-16 294,-52"/>
<text text-anchor="middle" x="267" y="-31.5" font-family="Helvetica,sans-Serif" font-size="10.00">fvm</text>
</a>
</g>
</g>
<!-- dir_7f7a014517bfe31ea45620a6a947e37b&#45;&gt;dir_3d3615e9a999cab4f3407307569d6ced -->
<g id="edge11" class="edge">
<title>dir_7f7a014517bfe31ea45620a6a947e37b&#45;&gt;dir_3d3615e9a999cab4f3407307569d6ced</title>
<path fill="none" stroke="black" d="M277.63,-52.44C283.1,-62.46 289.2,-75.49 292,-88 296.61,-108.57 293.26,-132.29 289.09,-150.06"/>
<polygon fill="black" stroke="black" points="285.69,-149.21 286.59,-159.77 292.47,-150.96 285.69,-149.21"/>
<g id="a_edge11&#45;headlabel"><a xlink:href="dir_000026_000024.html" target="_top" xlink:title="1">
<text text-anchor="middle" x="283.84" y="-142.52" font-family="Helvetica,sans-Serif" font-size="10.00">1</text>
</a>
</g>
</g>
<!-- dir_e4cd57caa88bf1f4e1bf9521bc47c3c0&#45;&gt;dir_3d3615e9a999cab4f3407307569d6ced -->
<g id="edge4" class="edge">
<title>dir_e4cd57caa88bf1f4e1bf9521bc47c3c0&#45;&gt;dir_3d3615e9a999cab4f3407307569d6ced</title>
<path fill="none" stroke="black" d="M241.56,-124.1C249.52,-132.38 258.39,-142.49 265.78,-151.64"/>
<polygon fill="black" stroke="black" points="263.17,-153.98 272.08,-159.7 268.68,-149.66 263.17,-153.98"/>
<g id="a_edge4&#45;headlabel"><a xlink:href="dir_000015_000024.html" target="_top" xlink:title="28">
<text text-anchor="middle" x="258.71" y="-150.4" font-family="Helvetica,sans-Serif" font-size="10.00">28</text>
</a>
</g>
</g>
<!-- dir_e4cd57caa88bf1f4e1bf9521bc47c3c0&#45;&gt;dir_4bb30ed846ea1df1fc4d16874a455d91 -->
<g id="edge5" class="edge">
<title>dir_e4cd57caa88bf1f4e1bf9521bc47c3c0&#45;&gt;dir_4bb30ed846ea1df1fc4d16874a455d91</title>
<path fill="none" stroke="black" d="M198.77,-87.7C189.99,-79.3 180.15,-69.07 171.95,-59.86"/>
<polygon fill="black" stroke="black" points="174.42,-57.37 165.23,-52.1 169.13,-61.96 174.42,-57.37"/>
<g id="a_edge5&#45;headlabel"><a xlink:href="dir_000015_000002.html" target="_top" xlink:title="1">
<text text-anchor="middle" x="178.92" y="-55.73" font-family="Helvetica,sans-Serif" font-size="10.00">1</text>
</a>
</g>
</g>
<!-- dir_e4cd57caa88bf1f4e1bf9521bc47c3c0&#45;&gt;dir_7f7a014517bfe31ea45620a6a947e37b -->
<g id="edge6" class="edge">
<title>dir_e4cd57caa88bf1f4e1bf9521bc47c3c0&#45;&gt;dir_7f7a014517bfe31ea45620a6a947e37b</title>
<path fill="none" stroke="black" d="M232.37,-87.7C237.72,-79.56 244.2,-69.69 250.11,-60.7"/>
<polygon fill="black" stroke="black" points="253.19,-62.38 255.76,-52.1 247.34,-58.54 253.19,-62.38"/>
<g id="a_edge6&#45;headlabel"><a xlink:href="dir_000015_000026.html" target="_top" xlink:title="2">
<text text-anchor="middle" x="253.59" y="-64.45" font-family="Helvetica,sans-Serif" font-size="10.00">2</text>
</a>
</g>
</g>
<!-- dir_9ff815a534beac751fa88e427dbab695&#45;&gt;dir_7b7e55eaa727ae9c717abfc097345a8f -->
<g id="edge1" class="edge">
<title>dir_9ff815a534beac751fa88e427dbab695&#45;&gt;dir_7b7e55eaa727ae9c717abfc097345a8f</title>
<path fill="none" stroke="black" d="M83.54,-196.19C96.9,-205.18 113.44,-216.32 127.88,-226.04"/>
<polygon fill="black" stroke="black" points="126.31,-229.2 136.56,-231.88 130.22,-223.39 126.31,-229.2"/>
<g id="a_edge1&#45;headlabel"><a xlink:href="dir_000013_000025.html" target="_top" xlink:title="2">
<text text-anchor="middle" x="121.74" y="-227.04" font-family="Helvetica,sans-Serif" font-size="10.00">2</text>
</a>
</g>
</g>
<!-- dir_d4759c65d88ac8462151b54b86eeee49&#45;&gt;dir_3d3615e9a999cab4f3407307569d6ced -->
<g id="edge7" class="edge">
<title>dir_d4759c65d88ac8462151b54b86eeee49&#45;&gt;dir_3d3615e9a999cab4f3407307569d6ced</title>
<path fill="none" stroke="black" d="M236.28,-178C238.74,-178 241.19,-178 243.65,-178"/>
<polygon fill="black" stroke="black" points="243.75,-181.5 253.75,-178 243.75,-174.5 243.75,-181.5"/>
<g id="a_edge7&#45;headlabel"><a xlink:href="dir_000014_000024.html" target="_top" xlink:title="4">
<text text-anchor="middle" x="240.15" y="-181.84" font-family="Helvetica,sans-Serif" font-size="10.00">4</text>
</a>
</g>
</g>
<!-- dir_d4759c65d88ac8462151b54b86eeee49&#45;&gt;dir_4bb30ed846ea1df1fc4d16874a455d91 -->
<g id="edge8" class="edge">
<title>dir_d4759c65d88ac8462151b54b86eeee49&#45;&gt;dir_4bb30ed846ea1df1fc4d16874a455d91</title>
<path fill="none" stroke="black" d="M186.37,-159.89C171.45,-148.04 153.95,-132.87 150,-124 141.36,-104.62 143.41,-80.48 147.17,-62.22"/>
<polygon fill="black" stroke="black" points="150.64,-62.78 149.52,-52.24 143.83,-61.17 150.64,-62.78"/>
<g id="a_edge8&#45;headlabel"><a xlink:href="dir_000014_000002.html" target="_top" xlink:title="2">
<text text-anchor="middle" x="152.58" y="-64.43" font-family="Helvetica,sans-Serif" font-size="10.00">2</text>
</a>
</g>
</g>
<!-- dir_d4759c65d88ac8462151b54b86eeee49&#45;&gt;dir_7f7a014517bfe31ea45620a6a947e37b -->
<g id="edge9" class="edge">
<title>dir_d4759c65d88ac8462151b54b86eeee49&#45;&gt;dir_7f7a014517bfe31ea45620a6a947e37b</title>
<path fill="none" stroke="black" d="M229.57,-159.98C239.58,-150.49 250.77,-137.8 257,-124 265.73,-104.66 267.99,-80.65 268.2,-62.45"/>
<polygon fill="black" stroke="black" points="271.7,-62.19 268.12,-52.22 264.7,-62.25 271.7,-62.19"/>
<g id="a_edge9&#45;headlabel"><a xlink:href="dir_000014_000026.html" target="_top" xlink:title="10">
<text text-anchor="middle" x="274.57" y="-63.26" font-family="Helvetica,sans-Serif" font-size="10.00">10</text>
</a>
</g>
</g>
<!-- dir_d4759c65d88ac8462151b54b86eeee49&#45;&gt;dir_e4cd57caa88bf1f4e1bf9521bc47c3c0 -->
<g id="edge10" class="edge">
<title>dir_d4759c65d88ac8462151b54b86eeee49&#45;&gt;dir_e4cd57caa88bf1f4e1bf9521bc47c3c0</title>
<path fill="none" stroke="black" d="M211.97,-159.7C213.29,-151.98 214.88,-142.71 216.35,-134.11"/>
<polygon fill="black" stroke="black" points="219.83,-134.55 218.07,-124.1 212.93,-133.37 219.83,-134.55"/>
<g id="a_edge10&#45;headlabel"><a xlink:href="dir_000014_000015.html" target="_top" xlink:title="4">
<text text-anchor="middle" x="222.02" y="-136.07" font-family="Helvetica,sans-Serif" font-size="10.00">4</text>
</a>
</g>
</g>
<!-- dir_a436074bb53309d43601d2a8b8d27ca7 -->
<g id="node8" class="node">
<title>dir_a436074bb53309d43601d2a8b8d27ca7</title>
<g id="a_node8"><a xlink:href="dir_a436074bb53309d43601d2a8b8d27ca7.html" target="_top" xlink:title="RANS">
<polygon fill="white" stroke="black" points="164,-196 110,-196 110,-160 164,-160 164,-196"/>
<text text-anchor="middle" x="137" y="-175.5" font-family="Helvetica,sans-Serif" font-size="10.00">RANS</text>
</a>
</g>
</g>
<!-- dir_a436074bb53309d43601d2a8b8d27ca7&#45;&gt;dir_4bb30ed846ea1df1fc4d16874a455d91 -->
<g id="edge2" class="edge">
<title>dir_a436074bb53309d43601d2a8b8d27ca7&#45;&gt;dir_4bb30ed846ea1df1fc4d16874a455d91</title>
<path fill="none" stroke="black" d="M132.64,-159.72C128.77,-141.63 124.51,-112.5 130,-88 132.01,-79.01 135.73,-69.75 139.7,-61.53"/>
<polygon fill="black" stroke="black" points="142.91,-62.94 144.37,-52.44 136.68,-59.73 142.91,-62.94"/>
<g id="a_edge2&#45;headlabel"><a xlink:href="dir_000035_000002.html" target="_top" xlink:title="9">
<text text-anchor="middle" x="143.79" y="-64.93" font-family="Helvetica,sans-Serif" font-size="10.00">9</text>
</a>
</g>
</g>
<!-- dir_a436074bb53309d43601d2a8b8d27ca7&#45;&gt;dir_7f7a014517bfe31ea45620a6a947e37b -->
<g id="edge3" class="edge">
<title>dir_a436074bb53309d43601d2a8b8d27ca7&#45;&gt;dir_7f7a014517bfe31ea45620a6a947e37b</title>
<path fill="none" stroke="black" d="M143.29,-159.67C150.91,-140.47 165.23,-109.41 185,-88 197.98,-73.95 215.45,-61.99 230.93,-53"/>
<polygon fill="black" stroke="black" points="232.75,-56 239.77,-48.06 229.33,-49.89 232.75,-56"/>
<g id="a_edge3&#45;headlabel"><a xlink:href="dir_000035_000026.html" target="_top" xlink:title="6">
<text text-anchor="middle" x="230.99" y="-57.73" font-family="Helvetica,sans-Serif" font-size="10.00">6</text>
</a>
</g>
</g>
</g>
</svg>
