<?xml version="1.0" encoding="UTF-8" standalone="no"?>
<!DOCTYPE svg PUBLIC "-//W3C//DTD SVG 1.1//EN"
 "http://www.w3.org/Graphics/SVG/1.1/DTD/svg11.dtd">
<!-- Generated by graphviz version 2.43.0 (0)
 -->
<!-- Title: Turbulent Kinetic Energy (TKE) transport equation Pages: 1 -->
<svg width="426pt" height="38pt"
 viewBox="0.00 0.00 426.00 38.00" xmlns="http://www.w3.org/2000/svg" xmlns:xlink="http://www.w3.org/1999/xlink">
<g id="graph0" class="graph" transform="scale(1 1) rotate(0) translate(4 34)">
<title>Turbulent Kinetic Energy (TKE) transport equation</title>
<polygon fill="white" stroke="transparent" points="-4,4 -4,-34 422,-34 422,4 -4,4"/>
<!-- Node2 -->
<g id="node1" class="node">
<title>Node2</title>
<g id="a_node1"><a xlink:href="group__eqsys.html" target="_top" xlink:title="Governing partial&#45;differential equations.">
<polygon fill="white" stroke="black" points="104,-24.5 0,-24.5 0,-5.5 104,-5.5 104,-24.5"/>
<text text-anchor="middle" x="52" y="-12.5" font-family="Helvetica,sans-Serif" font-size="10.00">Equation Systems</text>
</a>
</g>
</g>
<!-- Node1 -->
<g id="node3" class="node">
<title>Node1</title>
<g id="a_node3"><a xlink:title="TKE transport equation">
<polygon fill="#bfbfbf" stroke="black" points="279,-30 140,-30 140,0 279,0 279,-30"/>
<text text-anchor="start" x="148" y="-18" font-family="Helvetica,sans-Serif" font-size="10.00">Turbulent Kinetic Energy</text>
<text text-anchor="middle" x="209.5" y="-7" font-family="Helvetica,sans-Serif" font-size="10.00"> (TKE) transport equation</text>
</a>
</g>
</g>
<!-- Node2&#45;&gt;Node1 -->
<g id="edge1" class="edge">
<title>Node2&#45;&gt;Node1</title>
<path fill="none" stroke="black" d="M114.35,-15C122.68,-15 131.28,-15 139.73,-15"/>
<polygon fill="black" stroke="black" points="114.35,-11.5 104.35,-15 114.35,-18.5 114.35,-11.5"/>
</g>
<!-- Node3 -->
<g id="node2" class="node">
<title>Node3</title>
<g id="a_node2"><a xlink:href="group__tke__src.html" target="_top" xlink:title="Source terms used with TKE transport equation.">
<polygon fill="white" stroke="black" points="418,-24.5 315,-24.5 315,-5.5 418,-5.5 418,-24.5"/>
<text text-anchor="middle" x="366.5" y="-12.5" font-family="Helvetica,sans-Serif" font-size="10.00">TKE Source terms</text>
</a>
</g>
</g>
<!-- Node1&#45;&gt;Node3 -->
<g id="edge2" class="edge">
<title>Node1&#45;&gt;Node3</title>
<path fill="none" stroke="black" d="M289.52,-15C298.17,-15 306.79,-15 314.96,-15"/>
<polygon fill="black" stroke="black" points="289.39,-11.5 279.39,-15 289.39,-18.5 289.39,-11.5"/>
</g>
</g>
</svg>
