<?xml version="1.0" encoding="UTF-8" standalone="no"?>
<!DOCTYPE svg PUBLIC "-//W3C//DTD SVG 1.1//EN"
 "http://www.w3.org/Graphics/SVG/1.1/DTD/svg11.dtd">
<!-- Generated by graphviz version 2.43.0 (0)
 -->
<!-- Title: Field statistics Pages: 1 -->
<svg width="403pt" height="40pt"
 viewBox="0.00 0.00 403.00 39.50" xmlns="http://www.w3.org/2000/svg" xmlns:xlink="http://www.w3.org/1999/xlink">
<g id="graph0" class="graph" transform="scale(1 1) rotate(0) translate(4 35.5)">
<title>Field statistics</title>
<polygon fill="white" stroke="transparent" points="-4,4 -4,-35.5 399,-35.5 399,4 -4,4"/>
<!-- Node2 -->
<g id="node1" class="node">
<title>Node2</title>
<g id="a_node1"><a xlink:href="group__utilities.html" target="_top" xlink:title="Utilities.">
<polygon fill="white" stroke="black" points="55,-19 0,-19 0,0 55,0 55,-19"/>
<text text-anchor="middle" x="27.5" y="-7" font-family="Helvetica,sans-Serif" font-size="10.00">Utilities</text>
</a>
</g>
</g>
<!-- Node1 -->
<g id="node3" class="node">
<title>Node1</title>
<g id="a_node3"><a xlink:title="Field statistics.">
<polygon fill="#bfbfbf" stroke="black" points="179,-19 92,-19 92,0 179,0 179,-19"/>
<text text-anchor="middle" x="135.5" y="-7" font-family="Helvetica,sans-Serif" font-size="10.00">Field statistics</text>
</a>
</g>
</g>
<!-- Node2&#45;&gt;Node1 -->
<g id="edge1" class="edge">
<title>Node2&#45;&gt;Node1</title>
<path fill="none" stroke="black" d="M65.26,-9.5C73.78,-9.5 82.92,-9.5 91.67,-9.5"/>
<polygon fill="black" stroke="black" points="65.25,-6 55.25,-9.5 65.25,-13 65.25,-6"/>
</g>
<!-- Node3 -->
<g id="node2" class="node">
<title>Node3</title>
<g id="a_node2"><a xlink:href="group__we__abl.html" target="_top" xlink:title="Atmospheric boundary layer (ABL) modeling.">
<polygon fill="white" stroke="black" points="395,-19 360,-19 360,0 395,0 395,-19"/>
<text text-anchor="middle" x="377.5" y="-7" font-family="Helvetica,sans-Serif" font-size="10.00">ABL</text>
</a>
</g>
</g>
<!-- Node1&#45;&gt;Node3 -->
<g id="edge2" class="edge">
<title>Node1&#45;&gt;Node3</title>
<path fill="none" stroke="orange" stroke-dasharray="5,2" d="M179.13,-9.5C232.88,-9.5 322.72,-9.5 359.76,-9.5"/>
<text text-anchor="middle" x="269.5" y="-23.5" font-family="Helvetica,sans-Serif" font-size="10.00">amr_wind::FPlaneAveraging</text>
<text text-anchor="middle" x="269.5" y="-12.5" font-family="Helvetica,sans-Serif" font-size="10.00">amr_wind::VelPlaneAveraging</text>
</g>
</g>
</svg>
