<?xml version="1.0" encoding="UTF-8" standalone="no"?>
<!DOCTYPE svg PUBLIC "-//W3C//DTD SVG 1.1//EN"
 "http://www.w3.org/Graphics/SVG/1.1/DTD/svg11.dtd">
<!-- Generated by graphviz version 2.43.0 (0)
 -->
<!-- Title: ABL Pages: 1 -->
<!--zoomable 473 -->
<svg id="main" version="1.1" xmlns="http://www.w3.org/2000/svg" xmlns:xlink="http://www.w3.org/1999/xlink" xml:space="preserve" onload="init(evt)">
<style type="text/css"><![CDATA[
.edge:hover path { stroke: red; }
.edge:hover polygon { stroke: red; fill: red; }
]]></style>
<script type="text/javascript"><![CDATA[
var edges = document.getElementsByTagName('g');
if (edges && edges.length) {
  for (var i=0;i<edges.length;i++) {
    if (edges[i].id.substr(0,4)=='edge') {
      edges[i].setAttribute('class','edge');
    }
  }
}
]]></script>
        <defs>
                <circle id="rim" cx="0" cy="0" r="7"/>
                <circle id="rim2" cx="0" cy="0" r="3.5"/>
                <g id="zoomPlus">
                        <use xlink:href="#rim" fill="#404040">
                                <set attributeName="fill" to="#808080" begin="zoomplus.mouseover" end="zoomplus.mouseout"/>
                        </use>
                        <path d="M-4,0h8M0,-4v8" fill="none" stroke="white" stroke-width="1.5" pointer-events="none"/>
                </g>
                <g id="zoomMin">
                        <use xlink:href="#rim" fill="#404040">
                                <set attributeName="fill" to="#808080" begin="zoomminus.mouseover" end="zoomminus.mouseout"/>
                        </use>
                        <path d="M-4,0h8" fill="none" stroke="white" stroke-width="1.5" pointer-events="none"/>
                </g>
                <g id="dirArrow">
                        <path fill="none" stroke="white" stroke-width="1.5" d="M0,-3.0v7 M-2.5,-0.5L0,-3.0L2.5,-0.5"/>
                </g>
               <g id="resetDef">
                       <use xlink:href="#rim2" fill="#404040">
                               <set attributeName="fill" to="#808080" begin="reset.mouseover" end="reset.mouseout"/>
                       </use>
               </g>
        </defs>

<script type="text/javascript">
var viewWidth = 528;
var viewHeight = 473;
var sectionId = 'dynsection-0';
</script>
<script xlink:href="svgpan.js"/>
<svg id="graph" class="graph">
<g id="viewport">
<title>ABL</title>
<polygon fill="white" stroke="transparent" points="-4,4 -4,-469.21 524,-469.21 524,4 -4,4"/>
<!-- Node7 -->
<g id="node1" class="node">
<title>Node7</title>
<g id="a_node1"><a xlink:href="group__turb__model.html" target="_top" xlink:title="Turbulence models available in AMR&#45;Wind.">
<polygon fill="white" stroke="black" points="504,-373.71 396,-373.71 396,-354.71 504,-354.71 504,-373.71"/>
<text text-anchor="middle" x="450" y="-361.71" font-family="Helvetica,sans-Serif" font-size="10.00">Turbulence models</text>
</a>
</g>
</g>
<!-- Node6 -->
<g id="node2" class="node">
<title>Node6</title>
<g id="a_node2"><a xlink:href="group__tke__src.html" target="_top" xlink:title="Source terms used with TKE transport equation.">
<polygon fill="white" stroke="black" points="501.5,-308.71 398.5,-308.71 398.5,-289.71 501.5,-289.71 501.5,-308.71"/>
<text text-anchor="middle" x="450" y="-296.71" font-family="Helvetica,sans-Serif" font-size="10.00">TKE Source terms</text>
</a>
</g>
</g>
<!-- Node4 -->
<g id="node3" class="node">
<title>Node4</title>
<g id="a_node3"><a xlink:href="group__shear__stress.html" target="_top" xlink:title="ShearStress contains functions to compute velocity and temperature shear stress wall models the defau...">
<polygon fill="white" stroke="black" points="520,-271.71 380,-271.71 380,-252.71 520,-252.71 520,-271.71"/>
<text text-anchor="middle" x="450" y="-259.71" font-family="Helvetica,sans-Serif" font-size="10.00">Shear Stress Wall Models</text>
</a>
</g>
</g>
<!-- Node9 -->
<g id="node4" class="node">
<title>Node9</title>
<g id="a_node4"><a xlink:href="group__field__bc.html" target="_top" xlink:title="Boundary conditions managment.">
<polygon fill="white" stroke="black" points="508,-234.21 392,-234.21 392,-204.21 508,-204.21 508,-234.21"/>
<text text-anchor="start" x="400" y="-222.21" font-family="Helvetica,sans-Serif" font-size="10.00">Boundary conditions</text>
<text text-anchor="middle" x="450" y="-211.21" font-family="Helvetica,sans-Serif" font-size="10.00"> management</text>
</a>
</g>
</g>
<!-- Node1 -->
<g id="node5" class="node">
<title>Node1</title>
<g id="a_node5"><a xlink:title="Atmospheric boundary layer (ABL) modeling.">
<polygon fill="#bfbfbf" stroke="black" points="199,-245.71 164,-245.71 164,-226.71 199,-226.71 199,-245.71"/>
<text text-anchor="middle" x="181.5" y="-233.71" font-family="Helvetica,sans-Serif" font-size="10.00">ABL</text>
</a>
</g>
</g>
<!-- Node1&#45;&gt;Node7 -->
<g id="edge6" class="edge">
<title>Node1&#45;&gt;Node7</title>
<path fill="none" stroke="orange" stroke-dasharray="5,2" d="M182.44,-245.95C182.89,-267.12 187.22,-317.32 217,-341.21 268.3,-382.37 347.96,-380.54 399.29,-373.72"/>
<text text-anchor="start" x="236.5" y="-457.21" font-family="Helvetica,sans-Serif" font-size="10.00">amr_wind::pde::tke</text>
<text text-anchor="middle" x="289.5" y="-446.21" font-family="Helvetica,sans-Serif" font-size="10.00">::KsgsM84Src</text>
<text text-anchor="start" x="236.5" y="-435.21" font-family="Helvetica,sans-Serif" font-size="10.00">amr_wind::pde::tke</text>
<text text-anchor="middle" x="289.5" y="-424.21" font-family="Helvetica,sans-Serif" font-size="10.00">::KsgsS94Src</text>
<text text-anchor="start" x="236.5" y="-413.21" font-family="Helvetica,sans-Serif" font-size="10.00">amr_wind::turbulence</text>
<text text-anchor="middle" x="289.5" y="-402.21" font-family="Helvetica,sans-Serif" font-size="10.00">::OneEqKsgsM84</text>
<text text-anchor="start" x="236.5" y="-391.21" font-family="Helvetica,sans-Serif" font-size="10.00">amr_wind::turbulence</text>
<text text-anchor="middle" x="289.5" y="-380.21" font-family="Helvetica,sans-Serif" font-size="10.00">::OneEqKsgsS94</text>
</g>
<!-- Node1&#45;&gt;Node6 -->
<g id="edge5" class="edge">
<title>Node1&#45;&gt;Node6</title>
<path fill="none" stroke="orange" stroke-dasharray="5,2" d="M189.26,-245.72C195.49,-253.69 205.5,-264.64 217,-270.21 248,-285.23 339.9,-293.08 398.3,-296.67"/>
<text text-anchor="start" x="242.5" y="-329.21" font-family="Helvetica,sans-Serif" font-size="10.00">amr_wind::pde::tke</text>
<text text-anchor="middle" x="289.5" y="-318.21" font-family="Helvetica,sans-Serif" font-size="10.00">::KsgsM84Src</text>
<text text-anchor="start" x="242.5" y="-307.21" font-family="Helvetica,sans-Serif" font-size="10.00">amr_wind::pde::tke</text>
<text text-anchor="middle" x="289.5" y="-296.21" font-family="Helvetica,sans-Serif" font-size="10.00">::KsgsS94Src</text>
</g>
<!-- Node1&#45;&gt;Node4 -->
<g id="edge3" class="edge">
<title>Node1&#45;&gt;Node4</title>
<path fill="none" stroke="black" d="M208.76,-246.17C211.51,-246.96 214.3,-247.67 217,-248.21 271.01,-259.02 333.38,-262.28 379.84,-262.97"/>
<polygon fill="black" stroke="black" points="209.68,-242.79 199.09,-243.01 207.51,-249.44 209.68,-242.79"/>
</g>
<!-- Node1&#45;&gt;Node9 -->
<g id="edge8" class="edge">
<title>Node1&#45;&gt;Node9</title>
<path fill="none" stroke="orange" stroke-dasharray="5,2" d="M199.17,-235.15C236.95,-232.74 330.53,-226.77 391.83,-222.86"/>
<text text-anchor="middle" x="289.5" y="-237.21" font-family="Helvetica,sans-Serif" font-size="10.00">amr_wind::ABLVelWallFunc</text>
</g>
<!-- Node5 -->
<g id="node7" class="node">
<title>Node5</title>
<g id="a_node7"><a xlink:href="group__icns__src.html" target="_top" xlink:title="Source terms used with incompressible Navier&#45;Stokes momentum equation.">
<polygon fill="white" stroke="black" points="503.5,-112.71 396.5,-112.71 396.5,-93.71 503.5,-93.71 503.5,-112.71"/>
<text text-anchor="middle" x="450" y="-100.71" font-family="Helvetica,sans-Serif" font-size="10.00">ICNS Source terms</text>
</a>
</g>
</g>
<!-- Node1&#45;&gt;Node5 -->
<g id="edge4" class="edge">
<title>Node1&#45;&gt;Node5</title>
<path fill="none" stroke="orange" stroke-dasharray="5,2" d="M183.69,-226.59C187.22,-199.88 198.53,-125.78 217,-111.21 243.78,-90.08 336.55,-93.4 396.36,-98.07"/>
<text text-anchor="start" x="234.5" y="-213.21" font-family="Helvetica,sans-Serif" font-size="10.00">amr_wind::pde::icns</text>
<text text-anchor="middle" x="289.5" y="-202.21" font-family="Helvetica,sans-Serif" font-size="10.00">::ABLForcing</text>
<text text-anchor="start" x="234.5" y="-191.21" font-family="Helvetica,sans-Serif" font-size="10.00">amr_wind::pde::icns</text>
<text text-anchor="middle" x="289.5" y="-180.21" font-family="Helvetica,sans-Serif" font-size="10.00">::ABLMeanBoussinesq</text>
<text text-anchor="start" x="234.5" y="-169.21" font-family="Helvetica,sans-Serif" font-size="10.00">amr_wind::pde::icns</text>
<text text-anchor="middle" x="289.5" y="-158.21" font-family="Helvetica,sans-Serif" font-size="10.00">::BoussinesqBuoyancy</text>
<text text-anchor="start" x="234.5" y="-147.21" font-family="Helvetica,sans-Serif" font-size="10.00">amr_wind::pde::icns</text>
<text text-anchor="middle" x="289.5" y="-136.21" font-family="Helvetica,sans-Serif" font-size="10.00">::CoriolisForcing</text>
<text text-anchor="start" x="234.5" y="-125.21" font-family="Helvetica,sans-Serif" font-size="10.00">amr_wind::pde::icns</text>
<text text-anchor="middle" x="289.5" y="-114.21" font-family="Helvetica,sans-Serif" font-size="10.00">::GeostrophicForcing</text>
</g>
<!-- Node8 -->
<g id="node8" class="node">
<title>Node8</title>
<g id="a_node8"><a xlink:href="group__statistics.html" target="_top" xlink:title="Field statistics.">
<polygon fill="white" stroke="black" points="493.5,-67.71 406.5,-67.71 406.5,-48.71 493.5,-48.71 493.5,-67.71"/>
<text text-anchor="middle" x="450" y="-55.71" font-family="Helvetica,sans-Serif" font-size="10.00">Field statistics</text>
</a>
</g>
</g>
<!-- Node1&#45;&gt;Node8 -->
<g id="edge7" class="edge">
<title>Node1&#45;&gt;Node8</title>
<path fill="none" stroke="orange" stroke-dasharray="5,2" d="M183.01,-226.32C184.92,-193.62 192.81,-89.89 217,-69.21 273.09,-21.27 367.54,-36.25 416.85,-48.69"/>
<text text-anchor="middle" x="289.5" y="-83.21" font-family="Helvetica,sans-Serif" font-size="10.00">amr_wind::FPlaneAveraging</text>
<text text-anchor="middle" x="289.5" y="-72.21" font-family="Helvetica,sans-Serif" font-size="10.00">amr_wind::VelPlaneAveraging</text>
</g>
<!-- Node3 -->
<g id="node9" class="node">
<title>Node3</title>
<g id="a_node9"><a xlink:href="group__abl__istats.html" target="_top" xlink:title="ABLStats contains functions to compute and statistics for ABL simulations. It supports output in asci...">
<polygon fill="white" stroke="black" points="491.5,-30.71 408.5,-30.71 408.5,-11.71 491.5,-11.71 491.5,-30.71"/>
<text text-anchor="middle" x="450" y="-18.71" font-family="Helvetica,sans-Serif" font-size="10.00">ABL Statistics</text>
</a>
</g>
</g>
<!-- Node1&#45;&gt;Node3 -->
<g id="edge2" class="edge">
<title>Node1&#45;&gt;Node3</title>
<path fill="none" stroke="black" d="M182.9,-216.58C184.26,-170.81 190.32,-59.11 217,-35.21 271.55,13.66 365.37,0.27 415.35,-11.66"/>
<polygon fill="black" stroke="black" points="179.39,-216.61 182.64,-226.7 186.39,-216.79 179.39,-216.61"/>
</g>
<!-- Node2 -->
<g id="node6" class="node">
<title>Node2</title>
<g id="a_node6"><a xlink:href="group__wind.html" target="_top" xlink:title="Wind energy modeling.">
<polygon fill="white" stroke="black" points="127,-245.71 0,-245.71 0,-226.71 127,-226.71 127,-245.71"/>
<text text-anchor="middle" x="63.5" y="-233.71" font-family="Helvetica,sans-Serif" font-size="10.00">Wind energy modeling</text>
</a>
</g>
</g>
<!-- Node2&#45;&gt;Node1 -->
<g id="edge1" class="edge">
<title>Node2&#45;&gt;Node1</title>
<path fill="none" stroke="black" d="M137.54,-236.21C147.25,-236.21 156.35,-236.21 163.66,-236.21"/>
<polygon fill="black" stroke="black" points="137.25,-232.71 127.25,-236.21 137.25,-239.71 137.25,-232.71"/>
</g>
</g>
</svg>
        <g id="navigator" transform="translate(0 0)" fill="#404254">
                <rect fill="#f2f5e9" fill-opacity="0.5" stroke="#606060" stroke-width=".5" x="0" y="0" width="60" height="60"/>
                <use id="zoomplus" xlink:href="#zoomPlus" x="17" y="9" onmousedown="handleZoom(evt,'in')"/>
                <use id="zoomminus" xlink:href="#zoomMin" x="42" y="9" onmousedown="handleZoom(evt,'out')"/>
                <use id="reset" xlink:href="#resetDef" x="30" y="36" onmousedown="handleReset()"/>
                <g id="arrowUp" xlink:href="#dirArrow" transform="translate(30 24)" onmousedown="handlePan(0,-1)">
                  <use xlink:href="#rim" fill="#404040">
                        <set attributeName="fill" to="#808080" begin="arrowUp.mouseover" end="arrowUp.mouseout"/>
                  </use>
                  <path fill="none" stroke="white" stroke-width="1.5" d="M0,-3.0v7 M-2.5,-0.5L0,-3.0L2.5,-0.5"/>
                </g>
                <g id="arrowRight" xlink:href="#dirArrow" transform="rotate(90) translate(36 -43)" onmousedown="handlePan(1,0)">
                  <use xlink:href="#rim" fill="#404040">
                        <set attributeName="fill" to="#808080" begin="arrowRight.mouseover" end="arrowRight.mouseout"/>
                  </use>
                  <path fill="none" stroke="white" stroke-width="1.5" d="M0,-3.0v7 M-2.5,-0.5L0,-3.0L2.5,-0.5"/>
                </g>
                <g id="arrowDown" xlink:href="#dirArrow" transform="rotate(180) translate(-30 -48)" onmousedown="handlePan(0,1)">
                  <use xlink:href="#rim" fill="#404040">
                        <set attributeName="fill" to="#808080" begin="arrowDown.mouseover" end="arrowDown.mouseout"/>
                  </use>
                  <path fill="none" stroke="white" stroke-width="1.5" d="M0,-3.0v7 M-2.5,-0.5L0,-3.0L2.5,-0.5"/>
                </g>
                <g id="arrowLeft" xlink:href="#dirArrow" transform="rotate(270) translate(-36 17)" onmousedown="handlePan(-1,0)">
                  <use xlink:href="#rim" fill="#404040">
                        <set attributeName="fill" to="#808080" begin="arrowLeft.mouseover" end="arrowLeft.mouseout"/>
                  </use>
                  <path fill="none" stroke="white" stroke-width="1.5" d="M0,-3.0v7 M-2.5,-0.5L0,-3.0L2.5,-0.5"/>
                </g>
        </g>
        <svg viewBox="0 0 15 15" width="100%" height="30px" preserveAspectRatio="xMaxYMin meet">
         <g id="arrow_out" transform="scale(0.3 0.3)">
          <a xlink:href="group__we__abl_org.svg" target="_base">
           <rect id="button" ry="5" rx="5" y="6" x="6" height="38" width="38"
                fill="#f2f5e9" fill-opacity="0.5" stroke="#606060" stroke-width="1.0"/>
           <path id="arrow"
             d="M 11.500037,31.436501 C 11.940474,20.09759 22.043105,11.32322 32.158766,21.979434 L 37.068811,17.246167 C 37.068811,17.246167 37.088388,32 37.088388,32 L 22.160133,31.978069 C 22.160133,31.978069 26.997745,27.140456 26.997745,27.140456 C 18.528582,18.264221 13.291696,25.230495 11.500037,31.436501 z"
             style="fill:#404040;"/>
          </a>
         </g>
        </svg>
</svg>
