<?xml version="1.0" encoding="UTF-8" standalone="no"?>
<!DOCTYPE svg PUBLIC "-//W3C//DTD SVG 1.1//EN"
 "http://www.w3.org/Graphics/SVG/1.1/DTD/svg11.dtd">
<!-- Generated by graphviz version 2.43.0 (0)
 -->
<!-- Title: ABL Pages: 1 -->
<!--zoomable 518 -->
<svg id="main" version="1.1" xmlns="http://www.w3.org/2000/svg" xmlns:xlink="http://www.w3.org/1999/xlink" xml:space="preserve" onload="init(evt)">
<style type="text/css"><![CDATA[
.edge:hover path { stroke: red; }
.edge:hover polygon { stroke: red; fill: red; }
]]></style>
<script type="text/javascript"><![CDATA[
var edges = document.getElementsByTagName('g');
if (edges && edges.length) {
  for (var i=0;i<edges.length;i++) {
    if (edges[i].id.substr(0,4)=='edge') {
      edges[i].setAttribute('class','edge');
    }
  }
}
]]></script>
        <defs>
                <circle id="rim" cx="0" cy="0" r="7"/>
                <circle id="rim2" cx="0" cy="0" r="3.5"/>
                <g id="zoomPlus">
                        <use xlink:href="#rim" fill="#404040">
                                <set attributeName="fill" to="#808080" begin="zoomplus.mouseover" end="zoomplus.mouseout"/>
                        </use>
                        <path d="M-4,0h8M0,-4v8" fill="none" stroke="white" stroke-width="1.5" pointer-events="none"/>
                </g>
                <g id="zoomMin">
                        <use xlink:href="#rim" fill="#404040">
                                <set attributeName="fill" to="#808080" begin="zoomminus.mouseover" end="zoomminus.mouseout"/>
                        </use>
                        <path d="M-4,0h8" fill="none" stroke="white" stroke-width="1.5" pointer-events="none"/>
                </g>
                <g id="dirArrow">
                        <path fill="none" stroke="white" stroke-width="1.5" d="M0,-3.0v7 M-2.5,-0.5L0,-3.0L2.5,-0.5"/>
                </g>
               <g id="resetDef">
                       <use xlink:href="#rim2" fill="#404040">
                               <set attributeName="fill" to="#808080" begin="reset.mouseover" end="reset.mouseout"/>
                       </use>
               </g>
        </defs>

<script type="text/javascript">
var viewWidth = 549;
var viewHeight = 518;
var sectionId = 'dynsection-0';
</script>
<script xlink:href="svgpan.js"/>
<svg id="graph" class="graph">
<g id="viewport">
<title>ABL</title>
<polygon fill="white" stroke="transparent" points="-4,4 -4,-514.32 545,-514.32 545,4 -4,4"/>
<!-- Node7 -->
<g id="node1" class="node">
<title>Node7</title>
<g id="a_node1"><a xlink:href="group__turb__model.html" target="_top" xlink:title="Turbulence models available in AMR&#45;Wind.">
<polygon fill="white" stroke="black" points="525,-415.82 417,-415.82 417,-396.82 525,-396.82 525,-415.82"/>
<text text-anchor="middle" x="471" y="-403.82" font-family="Helvetica,sans-Serif" font-size="10.00">Turbulence models</text>
</a>
</g>
</g>
<!-- Node6 -->
<g id="node2" class="node">
<title>Node6</title>
<g id="a_node2"><a xlink:href="group__tke__src.html" target="_top" xlink:title="Source terms used with TKE transport equation.">
<polygon fill="white" stroke="black" points="522.5,-350.82 419.5,-350.82 419.5,-331.82 522.5,-331.82 522.5,-350.82"/>
<text text-anchor="middle" x="471" y="-338.82" font-family="Helvetica,sans-Serif" font-size="10.00">TKE Source terms</text>
</a>
</g>
</g>
<!-- Node4 -->
<g id="node3" class="node">
<title>Node4</title>
<g id="a_node3"><a xlink:href="group__shear__stress.html" target="_top" xlink:title="ShearStress contains functions to compute velocity and temperature shear stress wall models the defau...">
<polygon fill="white" stroke="black" points="541,-313.82 401,-313.82 401,-294.82 541,-294.82 541,-313.82"/>
<text text-anchor="middle" x="471" y="-301.82" font-family="Helvetica,sans-Serif" font-size="10.00">Shear Stress Wall Models</text>
</a>
</g>
</g>
<!-- Node9 -->
<g id="node4" class="node">
<title>Node9</title>
<g id="a_node4"><a xlink:href="group__field__bc.html" target="_top" xlink:title="Boundary conditions management.">
<polygon fill="white" stroke="black" points="529,-276.32 413,-276.32 413,-246.32 529,-246.32 529,-276.32"/>
<text text-anchor="start" x="421" y="-264.32" font-family="Helvetica,sans-Serif" font-size="10.00">Boundary conditions</text>
<text text-anchor="middle" x="471" y="-253.32" font-family="Helvetica,sans-Serif" font-size="10.00"> management</text>
</a>
</g>
</g>
<!-- Node1 -->
<g id="node5" class="node">
<title>Node1</title>
<g id="a_node5"><a xlink:title="Atmospheric boundary layer (ABL) modeling.">
<polygon fill="#bfbfbf" stroke="black" points="199,-287.82 164,-287.82 164,-268.82 199,-268.82 199,-287.82"/>
<text text-anchor="middle" x="181.5" y="-275.82" font-family="Helvetica,sans-Serif" font-size="10.00">ABL</text>
</a>
</g>
</g>
<!-- Node1&#45;&gt;Node7 -->
<g id="edge6" class="edge">
<title>Node1&#45;&gt;Node7</title>
<path fill="none" stroke="orange" stroke-dasharray="5,2" d="M182.38,-287.86C182.68,-309.08 186.7,-360.24 217,-384.32 276.72,-431.77 371.26,-425.13 426.29,-415.84"/>
<text text-anchor="start" x="247" y="-502.32" font-family="Helvetica,sans-Serif" font-size="10.00">amr_wind::pde::tke</text>
<text text-anchor="middle" x="300" y="-491.32" font-family="Helvetica,sans-Serif" font-size="10.00">::KsgsM84Src</text>
<text text-anchor="start" x="247" y="-480.32" font-family="Helvetica,sans-Serif" font-size="10.00">amr_wind::pde::tke</text>
<text text-anchor="middle" x="300" y="-469.32" font-family="Helvetica,sans-Serif" font-size="10.00">::KsgsS94Src</text>
<text text-anchor="start" x="247" y="-458.32" font-family="Helvetica,sans-Serif" font-size="10.00">amr_wind::turbulence</text>
<text text-anchor="middle" x="300" y="-447.32" font-family="Helvetica,sans-Serif" font-size="10.00">::OneEqKsgsM84</text>
<text text-anchor="start" x="247" y="-436.32" font-family="Helvetica,sans-Serif" font-size="10.00">amr_wind::turbulence</text>
<text text-anchor="middle" x="300" y="-425.32" font-family="Helvetica,sans-Serif" font-size="10.00">::OneEqKsgsS94</text>
</g>
<!-- Node1&#45;&gt;Node6 -->
<g id="edge5" class="edge">
<title>Node1&#45;&gt;Node6</title>
<path fill="none" stroke="orange" stroke-dasharray="5,2" d="M189.25,-287.86C195.47,-295.85 205.47,-306.8 217,-312.32 251.7,-328.91 356.11,-336.35 419.44,-339.4"/>
<text text-anchor="start" x="253" y="-373.32" font-family="Helvetica,sans-Serif" font-size="10.00">amr_wind::pde::tke</text>
<text text-anchor="middle" x="300" y="-362.32" font-family="Helvetica,sans-Serif" font-size="10.00">::KsgsM84Src</text>
<text text-anchor="start" x="253" y="-351.32" font-family="Helvetica,sans-Serif" font-size="10.00">amr_wind::pde::tke</text>
<text text-anchor="middle" x="300" y="-340.32" font-family="Helvetica,sans-Serif" font-size="10.00">::KsgsS94Src</text>
</g>
<!-- Node1&#45;&gt;Node4 -->
<g id="edge3" class="edge">
<title>Node1&#45;&gt;Node4</title>
<path fill="none" stroke="black" d="M208.76,-288.29C211.51,-289.08 214.29,-289.78 217,-290.32 278.39,-302.44 349.67,-305.41 400.9,-305.66"/>
<polygon fill="black" stroke="black" points="209.68,-284.91 199.08,-285.14 207.51,-291.56 209.68,-284.91"/>
</g>
<!-- Node1&#45;&gt;Node9 -->
<g id="edge8" class="edge">
<title>Node1&#45;&gt;Node9</title>
<path fill="none" stroke="orange" stroke-dasharray="5,2" d="M199.2,-277.33C240.01,-274.92 346.31,-268.63 412.94,-264.69"/>
<text text-anchor="middle" x="300" y="-279.32" font-family="Helvetica,sans-Serif" font-size="10.00">amr_wind::ABLVelWallFunc</text>
</g>
<!-- Node5 -->
<g id="node7" class="node">
<title>Node5</title>
<g id="a_node7"><a xlink:href="group__icns__src.html" target="_top" xlink:title="Source terms used with incompressible Navier&#45;Stokes momentum equation.">
<polygon fill="white" stroke="black" points="524.5,-132.82 417.5,-132.82 417.5,-113.82 524.5,-113.82 524.5,-132.82"/>
<text text-anchor="middle" x="471" y="-120.82" font-family="Helvetica,sans-Serif" font-size="10.00">ICNS Source terms</text>
</a>
</g>
</g>
<!-- Node1&#45;&gt;Node5 -->
<g id="edge4" class="edge">
<title>Node1&#45;&gt;Node5</title>
<path fill="none" stroke="orange" stroke-dasharray="5,2" d="M183.26,-268.76C185.86,-239.02 195.4,-149 217,-131.32 246.5,-107.17 352.22,-112.08 417.3,-117.75"/>
<text text-anchor="start" x="244" y="-255.32" font-family="Helvetica,sans-Serif" font-size="10.00">amr_wind::pde::icns</text>
<text text-anchor="middle" x="300" y="-244.32" font-family="Helvetica,sans-Serif" font-size="10.00">::ABLForcing</text>
<text text-anchor="start" x="244" y="-233.32" font-family="Helvetica,sans-Serif" font-size="10.00">amr_wind::pde::icns</text>
<text text-anchor="middle" x="300" y="-222.32" font-family="Helvetica,sans-Serif" font-size="10.00">::ABLMeanBoussinesq</text>
<text text-anchor="start" x="244" y="-211.32" font-family="Helvetica,sans-Serif" font-size="10.00">amr_wind::pde::icns</text>
<text text-anchor="middle" x="300" y="-200.32" font-family="Helvetica,sans-Serif" font-size="10.00">::ABLMesoForcingMom</text>
<text text-anchor="start" x="244" y="-189.32" font-family="Helvetica,sans-Serif" font-size="10.00">amr_wind::pde::icns</text>
<text text-anchor="middle" x="300" y="-178.32" font-family="Helvetica,sans-Serif" font-size="10.00">::BoussinesqBuoyancy</text>
<text text-anchor="start" x="244" y="-167.32" font-family="Helvetica,sans-Serif" font-size="10.00">amr_wind::pde::icns</text>
<text text-anchor="middle" x="300" y="-156.32" font-family="Helvetica,sans-Serif" font-size="10.00">::CoriolisForcing</text>
<text text-anchor="start" x="244" y="-145.32" font-family="Helvetica,sans-Serif" font-size="10.00">amr_wind::pde::icns</text>
<text text-anchor="middle" x="300" y="-134.32" font-family="Helvetica,sans-Serif" font-size="10.00">::GeostrophicForcing</text>
</g>
<!-- Node8 -->
<g id="node8" class="node">
<title>Node8</title>
<g id="a_node8"><a xlink:href="group__statistics.html" target="_top" xlink:title="Field statistics.">
<polygon fill="white" stroke="black" points="514.5,-65.82 427.5,-65.82 427.5,-46.82 514.5,-46.82 514.5,-65.82"/>
<text text-anchor="middle" x="471" y="-53.82" font-family="Helvetica,sans-Serif" font-size="10.00">Field statistics</text>
</a>
</g>
</g>
<!-- Node1&#45;&gt;Node8 -->
<g id="edge7" class="edge">
<title>Node1&#45;&gt;Node8</title>
<path fill="none" stroke="orange" stroke-dasharray="5,2" d="M182.52,-268.74C182.82,-230.92 186.03,-92.64 217,-65.32 247.16,-38.71 363.48,-45.54 427.37,-51.6"/>
<text text-anchor="middle" x="300" y="-101.32" font-family="Helvetica,sans-Serif" font-size="10.00">amr_wind::FPlaneAveraging</text>
<text text-anchor="middle" x="300" y="-90.32" font-family="Helvetica,sans-Serif" font-size="10.00">amr_wind::VelPlaneAveraging</text>
<text text-anchor="middle" x="300" y="-79.32" font-family="Helvetica,sans-Serif" font-size="10.00">amr_wind::FPlaneAveragingFine</text>
<text text-anchor="middle" x="300" y="-68.32" font-family="Helvetica,sans-Serif" font-size="10.00">amr_wind::VelPlaneAveragingFine</text>
</g>
<!-- Node3 -->
<g id="node9" class="node">
<title>Node3</title>
<g id="a_node9"><a xlink:href="group__abl__istats.html" target="_top" xlink:title="ABLStats contains functions to compute and statistics for ABL simulations.">
<polygon fill="white" stroke="black" points="512.5,-28.82 429.5,-28.82 429.5,-9.82 512.5,-9.82 512.5,-28.82"/>
<text text-anchor="middle" x="471" y="-16.82" font-family="Helvetica,sans-Serif" font-size="10.00">ABL Statistics</text>
</a>
</g>
</g>
<!-- Node1&#45;&gt;Node3 -->
<g id="edge2" class="edge">
<title>Node1&#45;&gt;Node3</title>
<path fill="none" stroke="black" d="M182.39,-258.47C182.55,-207.1 185.97,-71.7 217,-42.32 274.64,12.27 376.31,1.46 431.59,-9.76"/>
<polygon fill="black" stroke="black" points="178.89,-258.61 182.4,-268.61 185.89,-258.6 178.89,-258.61"/>
</g>
<!-- Node2 -->
<g id="node6" class="node">
<title>Node2</title>
<g id="a_node6"><a xlink:href="group__wind.html" target="_top" xlink:title="Wind energy modeling.">
<polygon fill="white" stroke="black" points="127,-287.82 0,-287.82 0,-268.82 127,-268.82 127,-287.82"/>
<text text-anchor="middle" x="63.5" y="-275.82" font-family="Helvetica,sans-Serif" font-size="10.00">Wind energy modeling</text>
</a>
</g>
</g>
<!-- Node2&#45;&gt;Node1 -->
<g id="edge1" class="edge">
<title>Node2&#45;&gt;Node1</title>
<path fill="none" stroke="black" d="M137.54,-278.32C147.25,-278.32 156.35,-278.32 163.66,-278.32"/>
<polygon fill="black" stroke="black" points="137.25,-274.82 127.25,-278.32 137.25,-281.82 137.25,-274.82"/>
</g>
</g>
</svg>
        <g id="navigator" transform="translate(0 0)" fill="#404254">
                <rect fill="#f2f5e9" fill-opacity="0.5" stroke="#606060" stroke-width=".5" x="0" y="0" width="60" height="60"/>
                <use id="zoomplus" xlink:href="#zoomPlus" x="17" y="9" onmousedown="handleZoom(evt,'in')"/>
                <use id="zoomminus" xlink:href="#zoomMin" x="42" y="9" onmousedown="handleZoom(evt,'out')"/>
                <use id="reset" xlink:href="#resetDef" x="30" y="36" onmousedown="handleReset()"/>
                <g id="arrowUp" xlink:href="#dirArrow" transform="translate(30 24)" onmousedown="handlePan(0,-1)">
                  <use xlink:href="#rim" fill="#404040">
                        <set attributeName="fill" to="#808080" begin="arrowUp.mouseover" end="arrowUp.mouseout"/>
                  </use>
                  <path fill="none" stroke="white" stroke-width="1.5" d="M0,-3.0v7 M-2.5,-0.5L0,-3.0L2.5,-0.5"/>
                </g>
                <g id="arrowRight" xlink:href="#dirArrow" transform="rotate(90) translate(36 -43)" onmousedown="handlePan(1,0)">
                  <use xlink:href="#rim" fill="#404040">
                        <set attributeName="fill" to="#808080" begin="arrowRight.mouseover" end="arrowRight.mouseout"/>
                  </use>
                  <path fill="none" stroke="white" stroke-width="1.5" d="M0,-3.0v7 M-2.5,-0.5L0,-3.0L2.5,-0.5"/>
                </g>
                <g id="arrowDown" xlink:href="#dirArrow" transform="rotate(180) translate(-30 -48)" onmousedown="handlePan(0,1)">
                  <use xlink:href="#rim" fill="#404040">
                        <set attributeName="fill" to="#808080" begin="arrowDown.mouseover" end="arrowDown.mouseout"/>
                  </use>
                  <path fill="none" stroke="white" stroke-width="1.5" d="M0,-3.0v7 M-2.5,-0.5L0,-3.0L2.5,-0.5"/>
                </g>
                <g id="arrowLeft" xlink:href="#dirArrow" transform="rotate(270) translate(-36 17)" onmousedown="handlePan(-1,0)">
                  <use xlink:href="#rim" fill="#404040">
                        <set attributeName="fill" to="#808080" begin="arrowLeft.mouseover" end="arrowLeft.mouseout"/>
                  </use>
                  <path fill="none" stroke="white" stroke-width="1.5" d="M0,-3.0v7 M-2.5,-0.5L0,-3.0L2.5,-0.5"/>
                </g>
        </g>
        <svg viewBox="0 0 15 15" width="100%" height="30px" preserveAspectRatio="xMaxYMin meet">
         <g id="arrow_out" transform="scale(0.3 0.3)">
          <a xlink:href="group__we__abl_org.svg" target="_base">
           <rect id="button" ry="5" rx="5" y="6" x="6" height="38" width="38"
                fill="#f2f5e9" fill-opacity="0.5" stroke="#606060" stroke-width="1.0"/>
           <path id="arrow"
             d="M 11.500037,31.436501 C 11.940474,20.09759 22.043105,11.32322 32.158766,21.979434 L 37.068811,17.246167 C 37.068811,17.246167 37.088388,32 37.088388,32 L 22.160133,31.978069 C 22.160133,31.978069 26.997745,27.140456 26.997745,27.140456 C 18.528582,18.264221 13.291696,25.230495 11.500037,31.436501 z"
             style="fill:#404040;"/>
          </a>
         </g>
        </svg>
</svg>
