<?xml version="1.0" encoding="UTF-8" standalone="no"?>
<!DOCTYPE svg PUBLIC "-//W3C//DTD SVG 1.1//EN"
 "http://www.w3.org/Graphics/SVG/1.1/DTD/svg11.dtd">
<!-- Generated by graphviz version 2.43.0 (0)
 -->
<!-- Title: TKE Source terms Pages: 1 -->
<svg width="525pt" height="120pt"
 viewBox="0.00 0.00 525.00 119.50" xmlns="http://www.w3.org/2000/svg" xmlns:xlink="http://www.w3.org/1999/xlink">
<g id="graph0" class="graph" transform="scale(1 1) rotate(0) translate(4 115.5)">
<title>TKE Source terms</title>
<polygon fill="white" stroke="transparent" points="-4,4 -4,-115.5 521,-115.5 521,4 -4,4"/>
<!-- Node3 -->
<g id="node1" class="node">
<title>Node3</title>
<g id="a_node1"><a xlink:href="group__turb__model.html" target="_top" xlink:title="Turbulence models available in AMR&#45;Wind.">
<polygon fill="white" stroke="black" points="517,-86 409,-86 409,-67 517,-67 517,-86"/>
<text text-anchor="middle" x="463" y="-74" font-family="Helvetica,sans-Serif" font-size="10.00">Turbulence models</text>
</a>
</g>
</g>
<!-- Node1 -->
<g id="node2" class="node">
<title>Node1</title>
<g id="a_node2"><a xlink:title="Source terms used with TKE transport equation.">
<polygon fill="#bfbfbf" stroke="black" points="279,-52 176,-52 176,-33 279,-33 279,-52"/>
<text text-anchor="middle" x="227.5" y="-40" font-family="Helvetica,sans-Serif" font-size="10.00">TKE Source terms</text>
</a>
</g>
</g>
<!-- Node1&#45;&gt;Node3 -->
<g id="edge2" class="edge">
<title>Node1&#45;&gt;Node3</title>
<path fill="none" stroke="orange" stroke-dasharray="5,2" d="M279.34,-51.64C285.28,-52.64 291.27,-53.62 297,-54.5 334.27,-60.25 376.42,-65.85 408.79,-69.97"/>
<text text-anchor="start" x="297" y="-103.5" font-family="Helvetica,sans-Serif" font-size="10.00">amr_wind::pde::tke</text>
<text text-anchor="middle" x="344" y="-92.5" font-family="Helvetica,sans-Serif" font-size="10.00">::KsgsM84Src</text>
<text text-anchor="start" x="297" y="-81.5" font-family="Helvetica,sans-Serif" font-size="10.00">amr_wind::pde::tke</text>
<text text-anchor="middle" x="344" y="-70.5" font-family="Helvetica,sans-Serif" font-size="10.00">::KsgsS94Src</text>
</g>
<!-- Node4 -->
<g id="node4" class="node">
<title>Node4</title>
<g id="a_node4"><a xlink:href="group__we__abl.html" target="_top" xlink:title="Atmospheric boundary layer (ABL) modeling.">
<polygon fill="white" stroke="black" points="480.5,-19 445.5,-19 445.5,0 480.5,0 480.5,-19"/>
<text text-anchor="middle" x="463" y="-7" font-family="Helvetica,sans-Serif" font-size="10.00">ABL</text>
</a>
</g>
</g>
<!-- Node1&#45;&gt;Node4 -->
<g id="edge3" class="edge">
<title>Node1&#45;&gt;Node4</title>
<path fill="none" stroke="orange" stroke-dasharray="5,2" d="M243.86,-32.96C257.31,-25.21 277.66,-14.86 297,-10.5 350.1,1.46 415.27,-3.78 445.34,-7.28"/>
<text text-anchor="start" x="297" y="-46.5" font-family="Helvetica,sans-Serif" font-size="10.00">amr_wind::pde::tke</text>
<text text-anchor="middle" x="344" y="-35.5" font-family="Helvetica,sans-Serif" font-size="10.00">::KsgsM84Src</text>
<text text-anchor="start" x="297" y="-24.5" font-family="Helvetica,sans-Serif" font-size="10.00">amr_wind::pde::tke</text>
<text text-anchor="middle" x="344" y="-13.5" font-family="Helvetica,sans-Serif" font-size="10.00">::KsgsS94Src</text>
</g>
<!-- Node2 -->
<g id="node3" class="node">
<title>Node2</title>
<g id="a_node3"><a xlink:href="group__tke__eqn.html" target="_top" xlink:title="TKE transport equation">
<polygon fill="white" stroke="black" points="139,-57.5 0,-57.5 0,-27.5 139,-27.5 139,-57.5"/>
<text text-anchor="start" x="8" y="-45.5" font-family="Helvetica,sans-Serif" font-size="10.00">Turbulent Kinetic Energy</text>
<text text-anchor="middle" x="69.5" y="-34.5" font-family="Helvetica,sans-Serif" font-size="10.00"> (TKE) transport equation</text>
</a>
</g>
</g>
<!-- Node2&#45;&gt;Node1 -->
<g id="edge1" class="edge">
<title>Node2&#45;&gt;Node1</title>
<path fill="none" stroke="black" d="M149.46,-42.5C158.41,-42.5 167.35,-42.5 175.79,-42.5"/>
<polygon fill="black" stroke="black" points="149.38,-39 139.38,-42.5 149.38,-46 149.38,-39"/>
</g>
</g>
</svg>
