<?xml version="1.0" encoding="UTF-8" standalone="no"?>
<!DOCTYPE svg PUBLIC "-//W3C//DTD SVG 1.1//EN"
 "http://www.w3.org/Graphics/SVG/1.1/DTD/svg11.dtd">
<!-- Generated by graphviz version 2.43.0 (0)
 -->
<!-- Title: BodyForce.H Pages: 1 -->
<svg width="2499pt" height="330pt"
 viewBox="0.00 0.00 2499.00 330.00" xmlns="http://www.w3.org/2000/svg" xmlns:xlink="http://www.w3.org/1999/xlink">
<g id="graph0" class="graph" transform="scale(1 1) rotate(0) translate(4 326)">
<title>BodyForce.H</title>
<polygon fill="white" stroke="transparent" points="-4,4 -4,-326 2495,-326 2495,4 -4,4"/>
<!-- Node1 -->
<g id="node1" class="node">
<title>Node1</title>
<g id="a_node1"><a xlink:title=" ">
<polygon fill="#bfbfbf" stroke="black" points="2060,-302.5 2060,-321.5 2138,-321.5 2138,-302.5 2060,-302.5"/>
<text text-anchor="middle" x="2099" y="-309.5" font-family="Helvetica,sans-Serif" font-size="10.00">BodyForce.H</text>
</a>
</g>
</g>
<!-- Node2 -->
<g id="node2" class="node">
<title>Node2</title>
<g id="a_node2"><a xlink:href="_momentum_source_8_h.html" target="_top" xlink:title=" ">
<polygon fill="white" stroke="black" points="1175.5,-235.5 1175.5,-265.5 1330.5,-265.5 1330.5,-235.5 1175.5,-235.5"/>
<text text-anchor="start" x="1183.5" y="-253.5" font-family="Helvetica,sans-Serif" font-size="10.00">amr&#45;wind/equation_systems</text>
<text text-anchor="middle" x="1253" y="-242.5" font-family="Helvetica,sans-Serif" font-size="10.00">/icns/MomentumSource.H</text>
</a>
</g>
</g>
<!-- Node1&#45;&gt;Node2 -->
<g id="edge1" class="edge">
<title>Node1&#45;&gt;Node2</title>
<path fill="none" stroke="midnightblue" d="M2059.89,-308.25C1931.68,-299.23 1521.93,-270.41 1340.67,-257.67"/>
<polygon fill="midnightblue" stroke="midnightblue" points="1340.86,-254.17 1330.64,-256.96 1340.37,-261.15 1340.86,-254.17"/>
</g>
<!-- Node21 -->
<g id="node21" class="node">
<title>Node21</title>
<g id="a_node21"><a xlink:title=" ">
<polygon fill="white" stroke="#bfbfbf" points="1115,-0.5 1115,-19.5 1213,-19.5 1213,-0.5 1115,-0.5"/>
<text text-anchor="middle" x="1164" y="-7.5" font-family="Helvetica,sans-Serif" font-size="10.00">AMReX_Vector.H</text>
</a>
</g>
</g>
<!-- Node1&#45;&gt;Node21 -->
<g id="edge65" class="edge">
<title>Node1&#45;&gt;Node21</title>
<path fill="none" stroke="midnightblue" d="M2083.71,-302.38C2047.47,-280.89 1962.1,-223.48 2000,-179 2065.4,-102.25 2139.94,-198.69 2224,-143 2259.79,-119.29 2295.73,-86.97 2266,-56 2229.65,-18.14 1447.11,-12.12 1223.3,-11.18"/>
<polygon fill="midnightblue" stroke="midnightblue" points="1223.09,-7.67 1213.07,-11.13 1223.06,-14.67 1223.09,-7.67"/>
</g>
<!-- Node29 -->
<g id="node29" class="node">
<title>Node29</title>
<g id="a_node29"><a xlink:href="_sim_time_8_h.html" target="_top" xlink:title=" ">
<polygon fill="white" stroke="black" points="2077,-241 2077,-260 2221,-260 2221,-241 2077,-241"/>
<text text-anchor="middle" x="2149" y="-248" font-family="Helvetica,sans-Serif" font-size="10.00">amr&#45;wind/core/SimTime.H</text>
</a>
</g>
</g>
<!-- Node1&#45;&gt;Node29 -->
<g id="edge57" class="edge">
<title>Node1&#45;&gt;Node29</title>
<path fill="none" stroke="midnightblue" d="M2106.16,-302.48C2113.74,-293.46 2125.87,-279.02 2135.29,-267.81"/>
<polygon fill="midnightblue" stroke="midnightblue" points="2138.1,-269.92 2141.85,-260.01 2132.74,-265.41 2138.1,-269.92"/>
</g>
<!-- Node30 -->
<g id="node30" class="node">
<title>Node30</title>
<g id="a_node30"><a xlink:title=" ">
<polygon fill="white" stroke="#bfbfbf" points="2009,-179.5 2009,-198.5 2101,-198.5 2101,-179.5 2009,-179.5"/>
<text text-anchor="middle" x="2055" y="-186.5" font-family="Helvetica,sans-Serif" font-size="10.00">AMReX_REAL.H</text>
</a>
</g>
</g>
<!-- Node1&#45;&gt;Node30 -->
<g id="edge64" class="edge">
<title>Node1&#45;&gt;Node30</title>
<path fill="none" stroke="midnightblue" d="M2091.33,-302.37C2084.13,-293.77 2073.65,-279.88 2068,-266 2060.45,-247.44 2057.29,-224.61 2055.96,-208.84"/>
<polygon fill="midnightblue" stroke="midnightblue" points="2059.44,-208.51 2055.28,-198.77 2052.46,-208.98 2059.44,-208.51"/>
</g>
<!-- Node34 -->
<g id="node34" class="node">
<title>Node34</title>
<g id="a_node34"><a xlink:title=" ">
<polygon fill="white" stroke="#bfbfbf" points="2239,-241 2239,-260 2379,-260 2379,-241 2239,-241"/>
<text text-anchor="middle" x="2309" y="-248" font-family="Helvetica,sans-Serif" font-size="10.00">AMReX_GpuContainers.H</text>
</a>
</g>
</g>
<!-- Node1&#45;&gt;Node34 -->
<g id="edge63" class="edge">
<title>Node1&#45;&gt;Node34</title>
<path fill="none" stroke="midnightblue" d="M2129.09,-302.48C2165.89,-292.05 2228.31,-274.36 2269.09,-262.81"/>
<polygon fill="midnightblue" stroke="midnightblue" points="2270.3,-266.1 2278.97,-260.01 2268.39,-259.37 2270.3,-266.1"/>
</g>
<!-- Node35 -->
<g id="node35" class="node">
<title>Node35</title>
<g id="a_node35"><a xlink:title=" ">
<polygon fill="white" stroke="#bfbfbf" points="2397.5,-241 2397.5,-260 2450.5,-260 2450.5,-241 2397.5,-241"/>
<text text-anchor="middle" x="2424" y="-248" font-family="Helvetica,sans-Serif" font-size="10.00">cstddef</text>
</a>
</g>
</g>
<!-- Node1&#45;&gt;Node35 -->
<g id="edge66" class="edge">
<title>Node1&#45;&gt;Node35</title>
<path fill="none" stroke="midnightblue" d="M2138.4,-307.74C2194.58,-302.45 2300.61,-290.06 2388,-266 2390.5,-265.31 2393.06,-264.5 2395.61,-263.62"/>
<polygon fill="midnightblue" stroke="midnightblue" points="2397.1,-266.8 2405.22,-260 2394.63,-260.25 2397.1,-266.8"/>
</g>
<!-- Node3 -->
<g id="node3" class="node">
<title>Node3</title>
<g id="a_node3"><a xlink:href="_factory_8_h.html" target="_top" xlink:title=" ">
<polygon fill="white" stroke="black" points="2081,-118 2081,-137 2215,-137 2215,-118 2081,-118"/>
<text text-anchor="middle" x="2148" y="-125" font-family="Helvetica,sans-Serif" font-size="10.00">amr&#45;wind/core/Factory.H</text>
</a>
</g>
</g>
<!-- Node2&#45;&gt;Node3 -->
<g id="edge2" class="edge">
<title>Node2&#45;&gt;Node3</title>
<path fill="none" stroke="midnightblue" d="M1330.56,-246.72C1481.45,-240.8 1809.27,-225.3 1919,-199 1941.47,-193.61 1945.16,-186.56 1967,-179 2012.51,-163.24 2065.72,-148.86 2102.61,-139.51"/>
<polygon fill="midnightblue" stroke="midnightblue" points="2103.72,-142.84 2112.57,-137.01 2102.02,-136.06 2103.72,-142.84"/>
</g>
<!-- Node9 -->
<g id="node9" class="node">
<title>Node9</title>
<g id="a_node9"><a xlink:href="_field_desc_types_8_h.html" target="_top" xlink:title=" ">
<polygon fill="white" stroke="black" points="284,-0.5 284,-19.5 460,-19.5 460,-0.5 284,-0.5"/>
<text text-anchor="middle" x="372" y="-7.5" font-family="Helvetica,sans-Serif" font-size="10.00">amr&#45;wind/core/FieldDescTypes.H</text>
</a>
</g>
</g>
<!-- Node2&#45;&gt;Node9 -->
<g id="edge8" class="edge">
<title>Node2&#45;&gt;Node9</title>
<path fill="none" stroke="midnightblue" d="M1175.13,-247.21C950.39,-239.79 312.83,-212.73 253,-143 233.69,-120.49 274.19,-57.9 276,-56 290.59,-40.68 311.44,-30.04 329.98,-22.97"/>
<polygon fill="midnightblue" stroke="midnightblue" points="331.18,-26.26 339.42,-19.6 328.83,-19.67 331.18,-26.26"/>
</g>
<!-- Node10 -->
<g id="node10" class="node">
<title>Node10</title>
<g id="a_node10"><a xlink:href="_field_utils_8_h.html" target="_top" xlink:title=" ">
<polygon fill="white" stroke="black" points="0,-118 0,-137 146,-137 146,-118 0,-118"/>
<text text-anchor="middle" x="73" y="-125" font-family="Helvetica,sans-Serif" font-size="10.00">amr&#45;wind/core/FieldUtils.H</text>
</a>
</g>
</g>
<!-- Node2&#45;&gt;Node10 -->
<g id="edge9" class="edge">
<title>Node2&#45;&gt;Node10</title>
<path fill="none" stroke="midnightblue" d="M1175.16,-248.71C941.1,-245.93 254.04,-234.78 160,-199 130.02,-187.59 102.54,-161.6 86.8,-144.57"/>
<polygon fill="midnightblue" stroke="midnightblue" points="89.33,-142.15 80.05,-137.03 84.11,-146.81 89.33,-142.15"/>
</g>
<!-- Node11 -->
<g id="node11" class="node">
<title>Node11</title>
<g id="a_node11"><a xlink:title=" ">
<polygon fill="white" stroke="#bfbfbf" points="890.5,-0.5 890.5,-19.5 999.5,-19.5 999.5,-0.5 890.5,-0.5"/>
<text text-anchor="middle" x="945" y="-7.5" font-family="Helvetica,sans-Serif" font-size="10.00">AMReX_MultiFab.H</text>
</a>
</g>
</g>
<!-- Node2&#45;&gt;Node11 -->
<g id="edge56" class="edge">
<title>Node2&#45;&gt;Node11</title>
<path fill="none" stroke="midnightblue" d="M1330.57,-249.8C1532.86,-248.21 2049.73,-227.72 1885,-56 1851.67,-21.25 1066.99,-23.91 1019,-20 1015.94,-19.75 1012.81,-19.47 1009.65,-19.17"/>
<polygon fill="midnightblue" stroke="midnightblue" points="1009.81,-15.66 999.51,-18.13 1009.1,-22.63 1009.81,-15.66"/>
</g>
<!-- Node13 -->
<g id="node13" class="node">
<title>Node13</title>
<g id="a_node13"><a xlink:href="_field_repo_8_h.html" target="_top" xlink:title=" ">
<polygon fill="white" stroke="black" points="626.5,-179.5 626.5,-198.5 775.5,-198.5 775.5,-179.5 626.5,-179.5"/>
<text text-anchor="middle" x="701" y="-186.5" font-family="Helvetica,sans-Serif" font-size="10.00">amr&#45;wind/core/FieldRepo.H</text>
</a>
</g>
</g>
<!-- Node2&#45;&gt;Node13 -->
<g id="edge13" class="edge">
<title>Node2&#45;&gt;Node13</title>
<path fill="none" stroke="midnightblue" d="M1175.37,-241.13C1072.53,-230.05 891.77,-210.56 785.56,-199.11"/>
<polygon fill="midnightblue" stroke="midnightblue" points="785.83,-195.62 775.52,-198.03 785.08,-202.58 785.83,-195.62"/>
</g>
<!-- Node4 -->
<g id="node4" class="node">
<title>Node4</title>
<g id="a_node4"><a xlink:title=" ">
<polygon fill="white" stroke="#bfbfbf" points="1933,-56.5 1933,-75.5 1991,-75.5 1991,-56.5 1933,-56.5"/>
<text text-anchor="middle" x="1962" y="-63.5" font-family="Helvetica,sans-Serif" font-size="10.00">memory</text>
</a>
</g>
</g>
<!-- Node3&#45;&gt;Node4 -->
<g id="edge3" class="edge">
<title>Node3&#45;&gt;Node4</title>
<path fill="none" stroke="midnightblue" d="M2121.35,-117.98C2089.03,-107.64 2034.4,-90.16 1998.27,-78.6"/>
<polygon fill="midnightblue" stroke="midnightblue" points="1999.19,-75.22 1988.6,-75.51 1997.06,-81.89 1999.19,-75.22"/>
</g>
<!-- Node5 -->
<g id="node5" class="node">
<title>Node5</title>
<g id="a_node5"><a xlink:title=" ">
<polygon fill="white" stroke="#bfbfbf" points="1783.5,-56.5 1783.5,-75.5 1876.5,-75.5 1876.5,-56.5 1783.5,-56.5"/>
<text text-anchor="middle" x="1830" y="-63.5" font-family="Helvetica,sans-Serif" font-size="10.00">unordered_map</text>
</a>
</g>
</g>
<!-- Node3&#45;&gt;Node5 -->
<g id="edge4" class="edge">
<title>Node3&#45;&gt;Node5</title>
<path fill="none" stroke="midnightblue" d="M2102.44,-117.98C2045.17,-107.26 1946.95,-88.88 1885.4,-77.37"/>
<polygon fill="midnightblue" stroke="midnightblue" points="1885.95,-73.91 1875.48,-75.51 1884.66,-80.79 1885.95,-73.91"/>
</g>
<!-- Node6 -->
<g id="node6" class="node">
<title>Node6</title>
<g id="a_node6"><a xlink:title=" ">
<polygon fill="white" stroke="#bfbfbf" points="2197,-56.5 2197,-75.5 2257,-75.5 2257,-56.5 2197,-56.5"/>
<text text-anchor="middle" x="2227" y="-63.5" font-family="Helvetica,sans-Serif" font-size="10.00">iostream</text>
</a>
</g>
</g>
<!-- Node3&#45;&gt;Node6 -->
<g id="edge5" class="edge">
<title>Node3&#45;&gt;Node6</title>
<path fill="none" stroke="midnightblue" d="M2159.32,-117.98C2171.87,-108.52 2192.35,-93.1 2207.5,-81.69"/>
<polygon fill="midnightblue" stroke="midnightblue" points="2209.82,-84.32 2215.7,-75.51 2205.61,-78.73 2209.82,-84.32"/>
</g>
<!-- Node7 -->
<g id="node7" class="node">
<title>Node7</title>
<g id="a_node7"><a xlink:title=" ">
<polygon fill="white" stroke="#bfbfbf" points="2009,-56.5 2009,-75.5 2099,-75.5 2099,-56.5 2009,-56.5"/>
<text text-anchor="middle" x="2054" y="-63.5" font-family="Helvetica,sans-Serif" font-size="10.00">AMReX_Print.H</text>
</a>
</g>
</g>
<!-- Node3&#45;&gt;Node7 -->
<g id="edge6" class="edge">
<title>Node3&#45;&gt;Node7</title>
<path fill="none" stroke="midnightblue" d="M2134.53,-117.98C2119.32,-108.34 2094.31,-92.52 2076.2,-81.05"/>
<polygon fill="midnightblue" stroke="midnightblue" points="2077.76,-77.9 2067.44,-75.51 2074.02,-83.81 2077.76,-77.9"/>
</g>
<!-- Node8 -->
<g id="node8" class="node">
<title>Node8</title>
<g id="a_node8"><a xlink:title=" ">
<polygon fill="white" stroke="#bfbfbf" points="2117,-56.5 2117,-75.5 2179,-75.5 2179,-56.5 2117,-56.5"/>
<text text-anchor="middle" x="2148" y="-63.5" font-family="Helvetica,sans-Serif" font-size="10.00">AMReX.H</text>
</a>
</g>
</g>
<!-- Node3&#45;&gt;Node8 -->
<g id="edge7" class="edge">
<title>Node3&#45;&gt;Node8</title>
<path fill="none" stroke="midnightblue" d="M2148,-117.98C2148,-109.58 2148,-96.48 2148,-85.66"/>
<polygon fill="midnightblue" stroke="midnightblue" points="2151.5,-85.51 2148,-75.51 2144.5,-85.51 2151.5,-85.51"/>
</g>
<!-- Node10&#45;&gt;Node9 -->
<g id="edge10" class="edge">
<title>Node10&#45;&gt;Node9</title>
<path fill="none" stroke="midnightblue" d="M56.4,-117.95C32.56,-104.6 -6.46,-78.05 13,-56 30.08,-36.65 173.2,-23.6 273.48,-16.73"/>
<polygon fill="midnightblue" stroke="midnightblue" points="273.92,-20.21 283.66,-16.05 273.44,-13.23 273.92,-20.21"/>
</g>
<!-- Node10&#45;&gt;Node11 -->
<g id="edge11" class="edge">
<title>Node10&#45;&gt;Node11</title>
<path fill="none" stroke="midnightblue" d="M98,-117.96C143.8,-102.7 244.5,-70.98 332,-56 529.87,-22.13 767.97,-13.74 880.31,-11.67"/>
<polygon fill="midnightblue" stroke="midnightblue" points="880.52,-15.17 890.46,-11.49 880.4,-8.17 880.52,-15.17"/>
</g>
<!-- Node12 -->
<g id="node12" class="node">
<title>Node12</title>
<g id="a_node12"><a xlink:title=" ">
<polygon fill="white" stroke="#bfbfbf" points="22,-56.5 22,-75.5 146,-75.5 146,-56.5 22,-56.5"/>
<text text-anchor="middle" x="84" y="-63.5" font-family="Helvetica,sans-Serif" font-size="10.00">AMReX_Interpolater.H</text>
</a>
</g>
</g>
<!-- Node10&#45;&gt;Node12 -->
<g id="edge12" class="edge">
<title>Node10&#45;&gt;Node12</title>
<path fill="none" stroke="midnightblue" d="M74.58,-117.98C76.13,-109.58 78.55,-96.48 80.55,-85.66"/>
<polygon fill="midnightblue" stroke="midnightblue" points="84.05,-85.98 82.43,-75.51 77.17,-84.71 84.05,-85.98"/>
</g>
<!-- Node13&#45;&gt;Node5 -->
<g id="edge15" class="edge">
<title>Node13&#45;&gt;Node5</title>
<path fill="none" stroke="midnightblue" d="M775.51,-186.7C909.15,-183.65 1198.21,-173.78 1440,-143 1565.72,-126.99 1711.85,-94.82 1784.35,-77.93"/>
<polygon fill="midnightblue" stroke="midnightblue" points="1785.56,-81.24 1794.5,-75.55 1783.96,-74.42 1785.56,-81.24"/>
</g>
<!-- Node13&#45;&gt;Node9 -->
<g id="edge16" class="edge">
<title>Node13&#45;&gt;Node9</title>
<path fill="none" stroke="midnightblue" d="M626.04,-185.61C507.98,-181.06 289.61,-169.18 266,-143 228.67,-101.61 304.83,-49.1 346.81,-24.66"/>
<polygon fill="midnightblue" stroke="midnightblue" points="348.72,-27.6 355.69,-19.62 345.26,-21.51 348.72,-27.6"/>
</g>
<!-- Node13&#45;&gt;Node10 -->
<g id="edge17" class="edge">
<title>Node13&#45;&gt;Node10</title>
<path fill="none" stroke="midnightblue" d="M626.37,-181.94C528.1,-173.82 349.97,-158.61 198,-143 183.7,-141.53 168.49,-139.86 153.78,-138.19"/>
<polygon fill="midnightblue" stroke="midnightblue" points="154.03,-134.69 143.7,-137.03 153.23,-141.65 154.03,-134.69"/>
</g>
<!-- Node13&#45;&gt;Node11 -->
<g id="edge54" class="edge">
<title>Node13&#45;&gt;Node11</title>
<path fill="none" stroke="midnightblue" d="M626.14,-183.89C597.96,-178.25 568.53,-166.56 551,-143 526.22,-109.69 550.16,-78.57 585,-56 632.4,-25.3 790.06,-15.53 880.24,-12.43"/>
<polygon fill="midnightblue" stroke="midnightblue" points="880.47,-15.92 890.35,-12.1 880.24,-8.93 880.47,-15.92"/>
</g>
<!-- Node14 -->
<g id="node14" class="node">
<title>Node14</title>
<g id="a_node14"><a xlink:title=" ">
<polygon fill="white" stroke="#bfbfbf" points="1028,-0.5 1028,-19.5 1072,-19.5 1072,-0.5 1028,-0.5"/>
<text text-anchor="middle" x="1050" y="-7.5" font-family="Helvetica,sans-Serif" font-size="10.00">string</text>
</a>
</g>
</g>
<!-- Node13&#45;&gt;Node14 -->
<g id="edge14" class="edge">
<title>Node13&#45;&gt;Node14</title>
<path fill="none" stroke="midnightblue" d="M775.7,-185.44C841.55,-181.32 939.31,-170.65 1020,-143 1076.69,-123.58 1106.95,-127.84 1137,-76 1152.49,-49.29 1112.55,-30.15 1081.77,-19.83"/>
<polygon fill="midnightblue" stroke="midnightblue" points="1082.77,-16.47 1072.18,-16.79 1080.65,-23.15 1082.77,-16.47"/>
</g>
<!-- Node15 -->
<g id="node15" class="node">
<title>Node15</title>
<g id="a_node15"><a xlink:href="_field_8_h.html" target="_top" xlink:title=" ">
<polygon fill="white" stroke="black" points="1307,-118 1307,-137 1431,-137 1431,-118 1307,-118"/>
<text text-anchor="middle" x="1369" y="-125" font-family="Helvetica,sans-Serif" font-size="10.00">amr&#45;wind/core/Field.H</text>
</a>
</g>
</g>
<!-- Node13&#45;&gt;Node15 -->
<g id="edge18" class="edge">
<title>Node13&#45;&gt;Node15</title>
<path fill="none" stroke="midnightblue" d="M775.76,-183.53C884.2,-176.72 1091.38,-162.45 1267,-143 1278.81,-141.69 1291.35,-140.09 1303.46,-138.43"/>
<polygon fill="midnightblue" stroke="midnightblue" points="1304.07,-141.88 1313.49,-137.03 1303.11,-134.94 1304.07,-141.88"/>
</g>
<!-- Node22 -->
<g id="node22" class="node">
<title>Node22</title>
<g id="a_node22"><a xlink:href="_int_field_8_h.html" target="_top" xlink:title=" ">
<polygon fill="white" stroke="black" points="275.5,-118 275.5,-137 412.5,-137 412.5,-118 275.5,-118"/>
<text text-anchor="middle" x="344" y="-125" font-family="Helvetica,sans-Serif" font-size="10.00">amr&#45;wind/core/IntField.H</text>
</a>
</g>
</g>
<!-- Node13&#45;&gt;Node22 -->
<g id="edge33" class="edge">
<title>Node13&#45;&gt;Node22</title>
<path fill="none" stroke="midnightblue" d="M649.85,-179.48C585.17,-168.69 473.93,-150.15 404.92,-138.65"/>
<polygon fill="midnightblue" stroke="midnightblue" points="405.49,-135.2 395.05,-137.01 404.34,-142.11 405.49,-135.2"/>
</g>
<!-- Node23 -->
<g id="node23" class="node">
<title>Node23</title>
<g id="a_node23"><a xlink:title=" ">
<polygon fill="white" stroke="#bfbfbf" points="354,-56.5 354,-75.5 466,-75.5 466,-56.5 354,-56.5"/>
<text text-anchor="middle" x="410" y="-63.5" font-family="Helvetica,sans-Serif" font-size="10.00">AMReX_iMultiFab.H</text>
</a>
</g>
</g>
<!-- Node13&#45;&gt;Node23 -->
<g id="edge55" class="edge">
<title>Node13&#45;&gt;Node23</title>
<path fill="none" stroke="midnightblue" d="M643.12,-179.46C606.17,-172.64 557.9,-161.16 518,-143 483.13,-127.13 447.76,-99.59 427.4,-82.38"/>
<polygon fill="midnightblue" stroke="midnightblue" points="429.51,-79.57 419.64,-75.7 424.94,-84.88 429.51,-79.57"/>
</g>
<!-- Node24 -->
<g id="node24" class="node">
<title>Node24</title>
<g id="a_node24"><a xlink:href="_scratch_field_8_h.html" target="_top" xlink:title=" ">
<polygon fill="white" stroke="black" points="851,-118 851,-137 1011,-137 1011,-118 851,-118"/>
<text text-anchor="middle" x="931" y="-125" font-family="Helvetica,sans-Serif" font-size="10.00">amr&#45;wind/core/ScratchField.H</text>
</a>
</g>
</g>
<!-- Node13&#45;&gt;Node24 -->
<g id="edge37" class="edge">
<title>Node13&#45;&gt;Node24</title>
<path fill="none" stroke="midnightblue" d="M733.95,-179.48C774.6,-168.96 843.79,-151.06 888.42,-139.51"/>
<polygon fill="midnightblue" stroke="midnightblue" points="889.3,-142.9 898.11,-137.01 887.55,-136.13 889.3,-142.9"/>
</g>
<!-- Node27 -->
<g id="node27" class="node">
<title>Node27</title>
<g id="a_node27"><a xlink:href="_int_scratch_field_8_h.html" target="_top" xlink:title=" ">
<polygon fill="white" stroke="black" points="560.5,-112.5 560.5,-142.5 699.5,-142.5 699.5,-112.5 560.5,-112.5"/>
<text text-anchor="start" x="568.5" y="-130.5" font-family="Helvetica,sans-Serif" font-size="10.00">amr&#45;wind/core/IntScratch</text>
<text text-anchor="middle" x="630" y="-119.5" font-family="Helvetica,sans-Serif" font-size="10.00">Field.H</text>
</a>
</g>
</g>
<!-- Node13&#45;&gt;Node27 -->
<g id="edge45" class="edge">
<title>Node13&#45;&gt;Node27</title>
<path fill="none" stroke="midnightblue" d="M690.83,-179.48C681.39,-171.57 666.97,-159.48 654.54,-149.07"/>
<polygon fill="midnightblue" stroke="midnightblue" points="656.65,-146.26 646.73,-142.52 652.15,-151.63 656.65,-146.26"/>
</g>
<!-- Node28 -->
<g id="node28" class="node">
<title>Node28</title>
<g id="a_node28"><a xlink:title=" ">
<polygon fill="white" stroke="#bfbfbf" points="718,-118 718,-137 828,-137 828,-118 718,-118"/>
<text text-anchor="middle" x="773" y="-125" font-family="Helvetica,sans-Serif" font-size="10.00">AMReX_AmrCore.H</text>
</a>
</g>
</g>
<!-- Node13&#45;&gt;Node28 -->
<g id="edge53" class="edge">
<title>Node13&#45;&gt;Node28</title>
<path fill="none" stroke="midnightblue" d="M711.32,-179.48C722.65,-170.11 741.07,-154.88 754.84,-143.51"/>
<polygon fill="midnightblue" stroke="midnightblue" points="757.22,-146.08 762.7,-137.01 752.77,-140.68 757.22,-146.08"/>
</g>
<!-- Node15&#45;&gt;Node4 -->
<g id="edge20" class="edge">
<title>Node15&#45;&gt;Node4</title>
<path fill="none" stroke="midnightblue" d="M1431.39,-120.78C1528.45,-111.78 1721.44,-93.56 1885,-76 1897.21,-74.69 1910.5,-73.17 1922.55,-71.76"/>
<polygon fill="midnightblue" stroke="midnightblue" points="1923.24,-75.2 1932.76,-70.55 1922.42,-68.25 1923.24,-75.2"/>
</g>
<!-- Node15&#45;&gt;Node5 -->
<g id="edge21" class="edge">
<title>Node15&#45;&gt;Node5</title>
<path fill="none" stroke="midnightblue" d="M1431.19,-119.44C1508.74,-110.47 1645.65,-94.14 1773.31,-76.05"/>
<polygon fill="midnightblue" stroke="midnightblue" points="1773.86,-79.51 1783.27,-74.64 1772.87,-72.58 1773.86,-79.51"/>
</g>
<!-- Node15&#45;&gt;Node9 -->
<g id="edge27" class="edge">
<title>Node15&#45;&gt;Node9</title>
<path fill="none" stroke="midnightblue" d="M1306.79,-121.19C1225.33,-113.72 1078.28,-98.46 954,-76 916.66,-69.25 908.44,-62.17 871,-56 733.05,-33.28 571.62,-21.35 470.57,-15.62"/>
<polygon fill="midnightblue" stroke="midnightblue" points="470.56,-12.11 460.38,-15.05 470.17,-19.1 470.56,-12.11"/>
</g>
<!-- Node15&#45;&gt;Node11 -->
<g id="edge23" class="edge">
<title>Node15&#45;&gt;Node11</title>
<path fill="none" stroke="midnightblue" d="M1339.55,-117.91C1293.02,-104.4 1199.59,-77.5 1120,-56 1075.62,-44.01 1024.71,-31.01 989.28,-22.07"/>
<polygon fill="midnightblue" stroke="midnightblue" points="989.82,-18.6 979.27,-19.55 988.11,-25.39 989.82,-18.6"/>
</g>
<!-- Node15&#45;&gt;Node14 -->
<g id="edge19" class="edge">
<title>Node15&#45;&gt;Node14</title>
<path fill="none" stroke="midnightblue" d="M1359.38,-117.83C1342.17,-102.81 1304.4,-72.02 1267,-56 1234.08,-41.9 1134.27,-24.51 1082.28,-16.07"/>
<polygon fill="midnightblue" stroke="midnightblue" points="1082.68,-12.59 1072.25,-14.46 1081.57,-19.5 1082.68,-12.59"/>
</g>
<!-- Node16 -->
<g id="node16" class="node">
<title>Node16</title>
<g id="a_node16"><a xlink:title=" ">
<polygon fill="white" stroke="#bfbfbf" points="1701,-56.5 1701,-75.5 1765,-75.5 1765,-56.5 1701,-56.5"/>
<text text-anchor="middle" x="1733" y="-63.5" font-family="Helvetica,sans-Serif" font-size="10.00">algorithm</text>
</a>
</g>
</g>
<!-- Node15&#45;&gt;Node16 -->
<g id="edge22" class="edge">
<title>Node15&#45;&gt;Node16</title>
<path fill="none" stroke="midnightblue" d="M1430,-117.96C1494.89,-108.64 1600.45,-92.79 1691,-76 1691.1,-75.98 1691.2,-75.96 1691.3,-75.94"/>
<polygon fill="midnightblue" stroke="midnightblue" points="1691.79,-79.41 1700.93,-74.06 1690.45,-72.54 1691.79,-79.41"/>
</g>
<!-- Node17 -->
<g id="node17" class="node">
<title>Node17</title>
<g id="a_node17"><a xlink:title=" ">
<polygon fill="white" stroke="#bfbfbf" points="1319.5,-56.5 1319.5,-75.5 1418.5,-75.5 1418.5,-56.5 1319.5,-56.5"/>
<text text-anchor="middle" x="1369" y="-63.5" font-family="Helvetica,sans-Serif" font-size="10.00">AMReX_BCRec.H</text>
</a>
</g>
</g>
<!-- Node15&#45;&gt;Node17 -->
<g id="edge24" class="edge">
<title>Node15&#45;&gt;Node17</title>
<path fill="none" stroke="midnightblue" d="M1369,-117.98C1369,-109.58 1369,-96.48 1369,-85.66"/>
<polygon fill="midnightblue" stroke="midnightblue" points="1372.5,-85.51 1369,-75.51 1365.5,-85.51 1372.5,-85.51"/>
</g>
<!-- Node18 -->
<g id="node18" class="node">
<title>Node18</title>
<g id="a_node18"><a xlink:title=" ">
<polygon fill="white" stroke="#bfbfbf" points="1436.5,-56.5 1436.5,-75.5 1523.5,-75.5 1523.5,-56.5 1436.5,-56.5"/>
<text text-anchor="middle" x="1480" y="-63.5" font-family="Helvetica,sans-Serif" font-size="10.00">AMReX_Gpu.H</text>
</a>
</g>
</g>
<!-- Node15&#45;&gt;Node18 -->
<g id="edge25" class="edge">
<title>Node15&#45;&gt;Node18</title>
<path fill="none" stroke="midnightblue" d="M1384.9,-117.98C1403.28,-108.12 1433.76,-91.79 1455.24,-80.27"/>
<polygon fill="midnightblue" stroke="midnightblue" points="1456.97,-83.32 1464.13,-75.51 1453.66,-77.15 1456.97,-83.32"/>
</g>
<!-- Node19 -->
<g id="node19" class="node">
<title>Node19</title>
<g id="a_node19"><a xlink:href="incflo__enums_8_h.html" target="_top" xlink:title=" ">
<polygon fill="white" stroke="black" points="1541.5,-56.5 1541.5,-75.5 1682.5,-75.5 1682.5,-56.5 1541.5,-56.5"/>
<text text-anchor="middle" x="1612" y="-63.5" font-family="Helvetica,sans-Serif" font-size="10.00">amr&#45;wind/incflo_enums.H</text>
</a>
</g>
</g>
<!-- Node15&#45;&gt;Node19 -->
<g id="edge26" class="edge">
<title>Node15&#45;&gt;Node19</title>
<path fill="none" stroke="midnightblue" d="M1403.82,-117.98C1446.85,-107.44 1520.17,-89.49 1567.31,-77.94"/>
<polygon fill="midnightblue" stroke="midnightblue" points="1568.37,-81.29 1577.25,-75.51 1566.7,-74.49 1568.37,-81.29"/>
</g>
<!-- Node20 -->
<g id="node20" class="node">
<title>Node20</title>
<g id="a_node20"><a xlink:href="_view_field_8_h.html" target="_top" xlink:title=" ">
<polygon fill="white" stroke="black" points="963,-56.5 963,-75.5 1111,-75.5 1111,-56.5 963,-56.5"/>
<text text-anchor="middle" x="1037" y="-63.5" font-family="Helvetica,sans-Serif" font-size="10.00">amr&#45;wind/core/ViewField.H</text>
</a>
</g>
</g>
<!-- Node15&#45;&gt;Node20 -->
<g id="edge28" class="edge">
<title>Node15&#45;&gt;Node20</title>
<path fill="none" stroke="midnightblue" d="M1321.43,-117.98C1261.52,-107.24 1158.68,-88.81 1094.44,-77.29"/>
<polygon fill="midnightblue" stroke="midnightblue" points="1094.94,-73.83 1084.48,-75.51 1093.7,-80.72 1094.94,-73.83"/>
</g>
<!-- Node20&#45;&gt;Node9 -->
<g id="edge30" class="edge">
<title>Node20&#45;&gt;Node9</title>
<path fill="none" stroke="midnightblue" d="M962.97,-58.99C842.71,-49.22 604.83,-29.91 470.45,-18.99"/>
<polygon fill="midnightblue" stroke="midnightblue" points="470.41,-15.48 460.16,-18.16 469.84,-22.46 470.41,-15.48"/>
</g>
<!-- Node20&#45;&gt;Node11 -->
<g id="edge31" class="edge">
<title>Node20&#45;&gt;Node11</title>
<path fill="none" stroke="midnightblue" d="M1022.22,-56.32C1007.73,-47.82 985.43,-34.73 968.51,-24.8"/>
<polygon fill="midnightblue" stroke="midnightblue" points="970.14,-21.7 959.74,-19.65 966.6,-27.74 970.14,-21.7"/>
</g>
<!-- Node20&#45;&gt;Node14 -->
<g id="edge29" class="edge">
<title>Node20&#45;&gt;Node14</title>
<path fill="none" stroke="midnightblue" d="M1039.15,-56.08C1040.87,-48.93 1043.35,-38.64 1045.5,-29.69"/>
<polygon fill="midnightblue" stroke="midnightblue" points="1048.96,-30.29 1047.89,-19.75 1042.15,-28.65 1048.96,-30.29"/>
</g>
<!-- Node20&#45;&gt;Node21 -->
<g id="edge32" class="edge">
<title>Node20&#45;&gt;Node21</title>
<path fill="none" stroke="midnightblue" d="M1057.12,-56.44C1078.02,-47.56 1110.93,-33.56 1134.72,-23.45"/>
<polygon fill="midnightblue" stroke="midnightblue" points="1136.14,-26.65 1143.97,-19.52 1133.4,-20.21 1136.14,-26.65"/>
</g>
<!-- Node22&#45;&gt;Node9 -->
<g id="edge35" class="edge">
<title>Node22&#45;&gt;Node9</title>
<path fill="none" stroke="midnightblue" d="M334.78,-117.72C321.85,-104.28 301.06,-77.88 312,-56 318.73,-42.54 331.61,-32.07 343.71,-24.62"/>
<polygon fill="midnightblue" stroke="midnightblue" points="345.73,-27.5 352.7,-19.52 342.28,-21.41 345.73,-27.5"/>
</g>
<!-- Node22&#45;&gt;Node14 -->
<g id="edge34" class="edge">
<title>Node22&#45;&gt;Node14</title>
<path fill="none" stroke="midnightblue" d="M340.8,-117.73C335.99,-102.84 329.06,-72.6 345,-56 396.11,-2.8 934.87,-29.76 1008,-20 1011.25,-19.57 1014.63,-19.02 1017.99,-18.4"/>
<polygon fill="midnightblue" stroke="midnightblue" points="1018.76,-21.82 1027.88,-16.42 1017.39,-14.95 1018.76,-21.82"/>
</g>
<!-- Node22&#45;&gt;Node23 -->
<g id="edge36" class="edge">
<title>Node22&#45;&gt;Node23</title>
<path fill="none" stroke="midnightblue" d="M353.46,-117.98C363.75,-108.7 380.42,-93.67 392.99,-82.33"/>
<polygon fill="midnightblue" stroke="midnightblue" points="395.48,-84.8 400.56,-75.51 390.79,-79.61 395.48,-84.8"/>
</g>
<!-- Node24&#45;&gt;Node9 -->
<g id="edge40" class="edge">
<title>Node24&#45;&gt;Node9</title>
<path fill="none" stroke="midnightblue" d="M922.9,-117.65C908.02,-102.05 874.58,-70 839,-56 774.1,-30.46 587.04,-18.95 470.3,-14.13"/>
<polygon fill="midnightblue" stroke="midnightblue" points="470.41,-10.63 460.28,-13.73 470.13,-17.63 470.41,-10.63"/>
</g>
<!-- Node24&#45;&gt;Node11 -->
<g id="edge42" class="edge">
<title>Node24&#45;&gt;Node11</title>
<path fill="none" stroke="midnightblue" d="M932.05,-117.82C934.3,-99.26 939.63,-55.34 942.7,-29.97"/>
<polygon fill="midnightblue" stroke="midnightblue" points="946.21,-30.13 943.94,-19.78 939.26,-29.29 946.21,-30.13"/>
</g>
<!-- Node24&#45;&gt;Node14 -->
<g id="edge38" class="edge">
<title>Node24&#45;&gt;Node14</title>
<path fill="none" stroke="midnightblue" d="M994.38,-117.93C1043.09,-109.88 1104.59,-96.07 1120,-76 1135.58,-55.71 1106.96,-36.26 1081.75,-24.02"/>
<polygon fill="midnightblue" stroke="midnightblue" points="1082.9,-20.7 1072.35,-19.69 1079.97,-27.05 1082.9,-20.7"/>
</g>
<!-- Node24&#45;&gt;Node20 -->
<g id="edge41" class="edge">
<title>Node24&#45;&gt;Node20</title>
<path fill="none" stroke="midnightblue" d="M946.19,-117.98C963.66,-108.17 992.58,-91.93 1013.08,-80.42"/>
<polygon fill="midnightblue" stroke="midnightblue" points="1014.83,-83.46 1021.84,-75.51 1011.41,-77.35 1014.83,-83.46"/>
</g>
<!-- Node24&#45;&gt;Node21 -->
<g id="edge43" class="edge">
<title>Node24&#45;&gt;Node21</title>
<path fill="none" stroke="midnightblue" d="M1011.18,-123.77C1052.92,-118.5 1102.34,-105.72 1137,-76 1150.75,-64.21 1157.63,-44.28 1160.98,-29.59"/>
<polygon fill="midnightblue" stroke="midnightblue" points="1164.45,-30.09 1162.92,-19.6 1157.58,-28.76 1164.45,-30.09"/>
</g>
<!-- Node25 -->
<g id="node25" class="node">
<title>Node25</title>
<g id="a_node25"><a xlink:title=" ">
<polygon fill="white" stroke="#bfbfbf" points="785.5,-56.5 785.5,-75.5 830.5,-75.5 830.5,-56.5 785.5,-56.5"/>
<text text-anchor="middle" x="808" y="-63.5" font-family="Helvetica,sans-Serif" font-size="10.00">utility</text>
</a>
</g>
</g>
<!-- Node24&#45;&gt;Node25 -->
<g id="edge39" class="edge">
<title>Node24&#45;&gt;Node25</title>
<path fill="none" stroke="midnightblue" d="M913.38,-117.98C892.83,-108.03 858.64,-91.49 834.79,-79.96"/>
<polygon fill="midnightblue" stroke="midnightblue" points="836.12,-76.71 825.59,-75.51 833.07,-83.01 836.12,-76.71"/>
</g>
<!-- Node26 -->
<g id="node26" class="node">
<title>Node26</title>
<g id="a_node26"><a xlink:title=" ">
<polygon fill="white" stroke="#bfbfbf" points="636.5,-56.5 636.5,-75.5 767.5,-75.5 767.5,-56.5 636.5,-56.5"/>
<text text-anchor="middle" x="702" y="-63.5" font-family="Helvetica,sans-Serif" font-size="10.00">AMReX_PhysBCFunct.H</text>
</a>
</g>
</g>
<!-- Node24&#45;&gt;Node26 -->
<g id="edge44" class="edge">
<title>Node24&#45;&gt;Node26</title>
<path fill="none" stroke="midnightblue" d="M898.19,-117.98C857.8,-107.48 789.12,-89.64 744.67,-78.09"/>
<polygon fill="midnightblue" stroke="midnightblue" points="745.31,-74.64 734.75,-75.51 743.55,-81.41 745.31,-74.64"/>
</g>
<!-- Node27&#45;&gt;Node9 -->
<g id="edge48" class="edge">
<title>Node27&#45;&gt;Node9</title>
<path fill="none" stroke="midnightblue" d="M599.47,-112.45C568.26,-98.13 518.34,-75.32 475,-56 450.07,-44.89 421.64,-32.49 400.98,-23.52"/>
<polygon fill="midnightblue" stroke="midnightblue" points="402.35,-20.3 391.78,-19.54 399.57,-26.73 402.35,-20.3"/>
</g>
<!-- Node27&#45;&gt;Node14 -->
<g id="edge46" class="edge">
<title>Node27&#45;&gt;Node14</title>
<path fill="none" stroke="midnightblue" d="M613.78,-112.44C598.06,-97.17 578.68,-72.71 594,-56 625.2,-21.97 962.34,-26.85 1008,-20 1011.24,-19.51 1014.62,-18.93 1017.97,-18.29"/>
<polygon fill="midnightblue" stroke="midnightblue" points="1018.76,-21.7 1027.86,-16.28 1017.36,-14.84 1018.76,-21.7"/>
</g>
<!-- Node27&#45;&gt;Node20 -->
<g id="edge49" class="edge">
<title>Node27&#45;&gt;Node20</title>
<path fill="none" stroke="midnightblue" d="M699.76,-113.52C702.88,-112.99 705.97,-112.49 709,-112 793.89,-98.39 891.55,-85.33 958.08,-76.81"/>
<polygon fill="midnightblue" stroke="midnightblue" points="958.6,-80.27 968.07,-75.54 957.71,-73.33 958.6,-80.27"/>
</g>
<!-- Node27&#45;&gt;Node21 -->
<g id="edge51" class="edge">
<title>Node27&#45;&gt;Node21</title>
<path fill="none" stroke="midnightblue" d="M624.13,-112.31C618.62,-96.45 613.12,-71.03 627,-56 661.34,-18.83 1030.62,-24.73 1081,-20 1088.71,-19.28 1096.82,-18.46 1104.82,-17.63"/>
<polygon fill="midnightblue" stroke="midnightblue" points="1105.29,-21.1 1114.87,-16.56 1104.56,-14.14 1105.29,-21.1"/>
</g>
<!-- Node27&#45;&gt;Node23 -->
<g id="edge50" class="edge">
<title>Node27&#45;&gt;Node23</title>
<path fill="none" stroke="midnightblue" d="M578.14,-112.47C539.36,-101.99 487.04,-87.84 451.12,-78.12"/>
<polygon fill="midnightblue" stroke="midnightblue" points="452.02,-74.74 441.45,-75.51 450.19,-81.5 452.02,-74.74"/>
</g>
<!-- Node27&#45;&gt;Node25 -->
<g id="edge47" class="edge">
<title>Node27&#45;&gt;Node25</title>
<path fill="none" stroke="midnightblue" d="M672.18,-112.4C703.82,-101.82 746.49,-87.56 775.5,-77.86"/>
<polygon fill="midnightblue" stroke="midnightblue" points="776.78,-81.13 785.15,-74.64 774.56,-74.49 776.78,-81.13"/>
</g>
<!-- Node27&#45;&gt;Node26 -->
<g id="edge52" class="edge">
<title>Node27&#45;&gt;Node26</title>
<path fill="none" stroke="midnightblue" d="M647.06,-112.4C658.06,-103.31 672.37,-91.49 683.62,-82.19"/>
<polygon fill="midnightblue" stroke="midnightblue" points="686.04,-84.73 691.52,-75.66 681.59,-79.33 686.04,-84.73"/>
</g>
<!-- Node29&#45;&gt;Node16 -->
<g id="edge61" class="edge">
<title>Node29&#45;&gt;Node16</title>
<path fill="none" stroke="midnightblue" d="M2157.31,-240.88C2169.94,-226.74 2190.98,-198.23 2176,-179 2169.7,-170.91 1884.42,-102.78 1775.06,-76.91"/>
<polygon fill="midnightblue" stroke="midnightblue" points="1775.57,-73.44 1765.04,-74.55 1773.96,-80.25 1775.57,-73.44"/>
</g>
<!-- Node29&#45;&gt;Node30 -->
<g id="edge58" class="edge">
<title>Node29&#45;&gt;Node30</title>
<path fill="none" stroke="midnightblue" d="M2135.53,-240.98C2120.32,-231.34 2095.31,-215.52 2077.2,-204.05"/>
<polygon fill="midnightblue" stroke="midnightblue" points="2078.76,-200.9 2068.44,-198.51 2075.02,-206.81 2078.76,-200.9"/>
</g>
<!-- Node31 -->
<g id="node31" class="node">
<title>Node31</title>
<g id="a_node31"><a xlink:title=" ">
<polygon fill="white" stroke="#bfbfbf" points="2223,-179.5 2223,-198.5 2357,-198.5 2357,-179.5 2223,-179.5"/>
<text text-anchor="middle" x="2290" y="-186.5" font-family="Helvetica,sans-Serif" font-size="10.00">AMReX_GpuQualifiers.H</text>
</a>
</g>
</g>
<!-- Node29&#45;&gt;Node31 -->
<g id="edge59" class="edge">
<title>Node29&#45;&gt;Node31</title>
<path fill="none" stroke="midnightblue" d="M2169.2,-240.98C2193.07,-230.9 2233,-214.05 2260.37,-202.5"/>
<polygon fill="midnightblue" stroke="midnightblue" points="2261.98,-205.62 2269.84,-198.51 2259.26,-199.17 2261.98,-205.62"/>
</g>
<!-- Node32 -->
<g id="node32" class="node">
<title>Node32</title>
<g id="a_node32"><a xlink:title=" ">
<polygon fill="white" stroke="#bfbfbf" points="2375,-179.5 2375,-198.5 2491,-198.5 2491,-179.5 2375,-179.5"/>
<text text-anchor="middle" x="2433" y="-186.5" font-family="Helvetica,sans-Serif" font-size="10.00">AMReX_Extension.H</text>
</a>
</g>
</g>
<!-- Node29&#45;&gt;Node32 -->
<g id="edge60" class="edge">
<title>Node29&#45;&gt;Node32</title>
<path fill="none" stroke="midnightblue" d="M2189.69,-240.98C2240.52,-230.33 2327.47,-212.11 2382.5,-200.58"/>
<polygon fill="midnightblue" stroke="midnightblue" points="2383.32,-203.99 2392.39,-198.51 2381.88,-197.13 2383.32,-203.99"/>
</g>
<!-- Node33 -->
<g id="node33" class="node">
<title>Node33</title>
<g id="a_node33"><a xlink:title=" ">
<polygon fill="white" stroke="#bfbfbf" points="2119.5,-179.5 2119.5,-198.5 2166.5,-198.5 2166.5,-179.5 2119.5,-179.5"/>
<text text-anchor="middle" x="2143" y="-186.5" font-family="Helvetica,sans-Serif" font-size="10.00">cmath</text>
</a>
</g>
</g>
<!-- Node29&#45;&gt;Node33 -->
<g id="edge62" class="edge">
<title>Node29&#45;&gt;Node33</title>
<path fill="none" stroke="midnightblue" d="M2148.14,-240.98C2147.29,-232.58 2145.97,-219.48 2144.88,-208.66"/>
<polygon fill="midnightblue" stroke="midnightblue" points="2148.34,-208.11 2143.86,-198.51 2141.38,-208.81 2148.34,-208.11"/>
</g>
</g>
</svg>
