<?xml version="1.0" encoding="UTF-8" standalone="no"?>
<!DOCTYPE svg PUBLIC "-//W3C//DTD SVG 1.1//EN"
 "http://www.w3.org/Graphics/SVG/1.1/DTD/svg11.dtd">
<!-- Generated by graphviz version 2.43.0 (0)
 -->
<!-- Title: incflo.H Pages: 1 -->
<svg width="1292pt" height="95pt"
 viewBox="0.00 0.00 1292.00 95.00" xmlns="http://www.w3.org/2000/svg" xmlns:xlink="http://www.w3.org/1999/xlink">
<g id="graph0" class="graph" transform="scale(1 1) rotate(0) translate(4 91)">
<title>incflo.H</title>
<polygon fill="white" stroke="transparent" points="-4,4 -4,-91 1288,-91 1288,4 -4,4"/>
<!-- Node1 -->
<g id="node1" class="node">
<title>Node1</title>
<g id="a_node1"><a xlink:title=" ">
<polygon fill="#bfbfbf" stroke="black" points="653.5,-67.5 653.5,-86.5 706.5,-86.5 706.5,-67.5 653.5,-67.5"/>
<text text-anchor="middle" x="680" y="-74.5" font-family="Helvetica,sans-Serif" font-size="10.00">incflo.H</text>
</a>
</g>
</g>
<!-- Node2 -->
<g id="node2" class="node">
<title>Node2</title>
<g id="a_node2"><a xlink:href="incflo__diffusion_8cpp.html" target="_top" xlink:title=" ">
<polygon fill="white" stroke="black" points="0,-6 0,-25 110,-25 110,-6 0,-6"/>
<text text-anchor="middle" x="55" y="-13" font-family="Helvetica,sans-Serif" font-size="10.00">incflo_diffusion.cpp</text>
</a>
</g>
</g>
<!-- Node1&#45;&gt;Node2 -->
<g id="edge1" class="edge">
<title>Node1&#45;&gt;Node2</title>
<path fill="none" stroke="midnightblue" d="M643.03,-74.86C552.94,-71.68 315.08,-60.92 119,-31 108.98,-29.47 98.19,-27.25 88.38,-25.01"/>
<polygon fill="midnightblue" stroke="midnightblue" points="643.16,-78.37 653.27,-75.21 643.4,-71.37 643.16,-78.37"/>
</g>
<!-- Node3 -->
<g id="node3" class="node">
<title>Node3</title>
<g id="a_node3"><a xlink:href="incflo_8cpp.html" target="_top" xlink:title=" ">
<polygon fill="white" stroke="black" points="128.5,-6 128.5,-25 191.5,-25 191.5,-6 128.5,-6"/>
<text text-anchor="middle" x="160" y="-13" font-family="Helvetica,sans-Serif" font-size="10.00">incflo.cpp</text>
</a>
</g>
</g>
<!-- Node1&#45;&gt;Node3 -->
<g id="edge2" class="edge">
<title>Node1&#45;&gt;Node3</title>
<path fill="none" stroke="midnightblue" d="M643.26,-75.61C562.37,-74.1 363.18,-66.72 201,-31 194.36,-29.54 187.33,-27.31 180.99,-25.04"/>
<polygon fill="midnightblue" stroke="midnightblue" points="643.37,-79.12 653.43,-75.78 643.49,-72.12 643.37,-79.12"/>
</g>
<!-- Node4 -->
<g id="node4" class="node">
<title>Node4</title>
<g id="a_node4"><a xlink:href="incflo__advance_8cpp.html" target="_top" xlink:title=" ">
<polygon fill="white" stroke="black" points="210,-6 210,-25 320,-25 320,-6 210,-6"/>
<text text-anchor="middle" x="265" y="-13" font-family="Helvetica,sans-Serif" font-size="10.00">incflo_advance.cpp</text>
</a>
</g>
</g>
<!-- Node1&#45;&gt;Node4 -->
<g id="edge3" class="edge">
<title>Node1&#45;&gt;Node4</title>
<path fill="none" stroke="midnightblue" d="M643.45,-72.47C579.45,-66.04 443.04,-51.18 329,-31 319.46,-29.31 309.21,-27.15 299.75,-25.01"/>
<polygon fill="midnightblue" stroke="midnightblue" points="643.15,-75.96 653.45,-73.47 643.85,-69 643.15,-75.96"/>
</g>
<!-- Node5 -->
<g id="node5" class="node">
<title>Node5</title>
<g id="a_node5"><a xlink:href="incflo__compute__dt_8cpp.html" target="_top" xlink:title=" ">
<polygon fill="white" stroke="black" points="338,-6 338,-25 464,-25 464,-6 338,-6"/>
<text text-anchor="middle" x="401" y="-13" font-family="Helvetica,sans-Serif" font-size="10.00">incflo_compute_dt.cpp</text>
</a>
</g>
</g>
<!-- Node1&#45;&gt;Node5 -->
<g id="edge4" class="edge">
<title>Node1&#45;&gt;Node5</title>
<path fill="none" stroke="midnightblue" d="M643.39,-68.19C591.05,-57.03 495.19,-36.59 441.03,-25.04"/>
<polygon fill="midnightblue" stroke="midnightblue" points="642.74,-71.63 653.25,-70.29 644.2,-64.79 642.74,-71.63"/>
</g>
<!-- Node6 -->
<g id="node6" class="node">
<title>Node6</title>
<g id="a_node6"><a xlink:href="incflo__regrid_8cpp.html" target="_top" xlink:title=" ">
<polygon fill="white" stroke="black" points="482.5,-6 482.5,-25 579.5,-25 579.5,-6 482.5,-6"/>
<text text-anchor="middle" x="531" y="-13" font-family="Helvetica,sans-Serif" font-size="10.00">incflo_regrid.cpp</text>
</a>
</g>
</g>
<!-- Node1&#45;&gt;Node6 -->
<g id="edge5" class="edge">
<title>Node1&#45;&gt;Node6</title>
<path fill="none" stroke="midnightblue" d="M649.03,-63.63C620.08,-52.07 577.63,-35.12 552.31,-25.01"/>
<polygon fill="midnightblue" stroke="midnightblue" points="648.07,-67.02 658.65,-67.48 650.66,-60.52 648.07,-67.02"/>
</g>
<!-- Node7 -->
<g id="node7" class="node">
<title>Node7</title>
<g id="a_node7"><a xlink:href="main_8cpp.html" target="_top" xlink:title=" ">
<polygon fill="white" stroke="black" points="598,-6 598,-25 660,-25 660,-6 598,-6"/>
<text text-anchor="middle" x="629" y="-13" font-family="Helvetica,sans-Serif" font-size="10.00">main.cpp</text>
</a>
</g>
</g>
<!-- Node1&#45;&gt;Node7 -->
<g id="edge6" class="edge">
<title>Node1&#45;&gt;Node7</title>
<path fill="none" stroke="midnightblue" d="M666,-59.67C656.39,-48.45 644.01,-34.02 636.29,-25.01"/>
<polygon fill="midnightblue" stroke="midnightblue" points="663.53,-62.16 672.69,-67.48 668.84,-57.6 663.53,-62.16"/>
</g>
<!-- Node8 -->
<g id="node8" class="node">
<title>Node8</title>
<g id="a_node8"><a xlink:href="incflo__apply__nodal__projection_8cpp.html" target="_top" xlink:title=" ">
<polygon fill="white" stroke="black" points="678.5,-0.5 678.5,-30.5 785.5,-30.5 785.5,-0.5 678.5,-0.5"/>
<text text-anchor="start" x="686.5" y="-18.5" font-family="Helvetica,sans-Serif" font-size="10.00">incflo_apply_nodal</text>
<text text-anchor="middle" x="732" y="-7.5" font-family="Helvetica,sans-Serif" font-size="10.00">_projection.cpp</text>
</a>
</g>
</g>
<!-- Node1&#45;&gt;Node8 -->
<g id="edge7" class="edge">
<title>Node1&#45;&gt;Node8</title>
<path fill="none" stroke="midnightblue" d="M694.15,-59.81C702.16,-50.65 712.07,-39.3 719.74,-30.52"/>
<polygon fill="midnightblue" stroke="midnightblue" points="691.4,-57.64 687.45,-67.48 696.67,-62.25 691.4,-57.64"/>
</g>
<!-- Node9 -->
<g id="node9" class="node">
<title>Node9</title>
<g id="a_node9"><a xlink:href="init_8cpp.html" target="_top" xlink:title=" ">
<polygon fill="white" stroke="black" points="803.5,-6 803.5,-25 856.5,-25 856.5,-6 803.5,-6"/>
<text text-anchor="middle" x="830" y="-13" font-family="Helvetica,sans-Serif" font-size="10.00">init.cpp</text>
</a>
</g>
</g>
<!-- Node1&#45;&gt;Node9 -->
<g id="edge8" class="edge">
<title>Node1&#45;&gt;Node9</title>
<path fill="none" stroke="midnightblue" d="M711.86,-63.73C734.98,-54.78 766.98,-42.28 795,-31 799.76,-29.08 804.87,-26.99 809.67,-25"/>
<polygon fill="midnightblue" stroke="midnightblue" points="710.59,-60.46 702.53,-67.34 713.12,-66.99 710.59,-60.46"/>
</g>
<!-- Node10 -->
<g id="node10" class="node">
<title>Node10</title>
<g id="a_node10"><a xlink:href="set__background__pressure_8cpp.html" target="_top" xlink:title=" ">
<polygon fill="white" stroke="black" points="874.5,-6 874.5,-25 1035.5,-25 1035.5,-6 874.5,-6"/>
<text text-anchor="middle" x="955" y="-13" font-family="Helvetica,sans-Serif" font-size="10.00">set_background_pressure.cpp</text>
</a>
</g>
</g>
<!-- Node1&#45;&gt;Node10 -->
<g id="edge9" class="edge">
<title>Node1&#45;&gt;Node10</title>
<path fill="none" stroke="midnightblue" d="M716.68,-68.06C768.43,-56.87 862.46,-36.52 915.63,-25.02"/>
<polygon fill="midnightblue" stroke="midnightblue" points="715.65,-64.71 706.62,-70.24 717.13,-71.55 715.65,-64.71"/>
</g>
<!-- Node11 -->
<g id="node11" class="node">
<title>Node11</title>
<g id="a_node11"><a xlink:href="diagnostics_8cpp.html" target="_top" xlink:title=" ">
<polygon fill="white" stroke="black" points="1054,-6 1054,-25 1146,-25 1146,-6 1054,-6"/>
<text text-anchor="middle" x="1100" y="-13" font-family="Helvetica,sans-Serif" font-size="10.00">diagnostics.cpp</text>
</a>
</g>
</g>
<!-- Node1&#45;&gt;Node11 -->
<g id="edge10" class="edge">
<title>Node1&#45;&gt;Node11</title>
<path fill="none" stroke="midnightblue" d="M717.09,-73.09C783.34,-67.54 926.22,-53.87 1045,-31 1053.34,-29.39 1062.28,-27.23 1070.48,-25.07"/>
<polygon fill="midnightblue" stroke="midnightblue" points="716.43,-69.64 706.76,-73.95 717.01,-76.61 716.43,-69.64"/>
</g>
<!-- Node12 -->
<g id="node12" class="node">
<title>Node12</title>
<g id="a_node12"><a xlink:href="io_8cpp.html" target="_top" xlink:title=" ">
<polygon fill="white" stroke="black" points="1164,-6 1164,-25 1210,-25 1210,-6 1164,-6"/>
<text text-anchor="middle" x="1187" y="-13" font-family="Helvetica,sans-Serif" font-size="10.00">io.cpp</text>
</a>
</g>
</g>
<!-- Node1&#45;&gt;Node12 -->
<g id="edge11" class="edge">
<title>Node1&#45;&gt;Node12</title>
<path fill="none" stroke="midnightblue" d="M716.68,-76.6C797.39,-77.05 995.84,-73.33 1155,-31 1160.3,-29.59 1165.83,-27.38 1170.78,-25.1"/>
<polygon fill="midnightblue" stroke="midnightblue" points="716.57,-73.1 706.54,-76.52 716.51,-80.1 716.57,-73.1"/>
</g>
<!-- Node13 -->
<g id="node13" class="node">
<title>Node13</title>
<g id="a_node13"><a xlink:href="_a_b_l_8cpp.html" target="_top" xlink:title=" ">
<polygon fill="white" stroke="black" points="1228,-6 1228,-25 1284,-25 1284,-6 1228,-6"/>
<text text-anchor="middle" x="1256" y="-13" font-family="Helvetica,sans-Serif" font-size="10.00">ABL.cpp</text>
</a>
</g>
</g>
<!-- Node1&#45;&gt;Node13 -->
<g id="edge12" class="edge">
<title>Node1&#45;&gt;Node13</title>
<path fill="none" stroke="midnightblue" d="M716.81,-76.57C804.84,-77.14 1033.99,-74.01 1219,-31 1225.05,-29.59 1231.42,-27.38 1237.13,-25.11"/>
<polygon fill="midnightblue" stroke="midnightblue" points="716.81,-73.07 706.78,-76.48 716.75,-80.07 716.81,-73.07"/>
</g>
</g>
</svg>
