<?xml version="1.0" encoding="UTF-8" standalone="no"?>
<!DOCTYPE svg PUBLIC "-//W3C//DTD SVG 1.1//EN"
 "http://www.w3.org/Graphics/SVG/1.1/DTD/svg11.dtd">
<!-- Generated by graphviz version 2.43.0 (0)
 -->
<!-- Title: incflo_godunov_predict.cpp Pages: 1 -->
<!--zoomable 341 -->
<svg id="main" version="1.1" xmlns="http://www.w3.org/2000/svg" xmlns:xlink="http://www.w3.org/1999/xlink" xml:space="preserve" onload="init(evt)">
<style type="text/css"><![CDATA[
.edge:hover path { stroke: red; }
.edge:hover polygon { stroke: red; fill: red; }
]]></style>
<script type="text/javascript"><![CDATA[
var edges = document.getElementsByTagName('g');
if (edges && edges.length) {
  for (var i=0;i<edges.length;i++) {
    if (edges[i].id.substr(0,4)=='edge') {
      edges[i].setAttribute('class','edge');
    }
  }
}
]]></script>
        <defs>
                <circle id="rim" cx="0" cy="0" r="7"/>
                <circle id="rim2" cx="0" cy="0" r="3.5"/>
                <g id="zoomPlus">
                        <use xlink:href="#rim" fill="#404040">
                                <set attributeName="fill" to="#808080" begin="zoomplus.mouseover" end="zoomplus.mouseout"/>
                        </use>
                        <path d="M-4,0h8M0,-4v8" fill="none" stroke="white" stroke-width="1.5" pointer-events="none"/>
                </g>
                <g id="zoomMin">
                        <use xlink:href="#rim" fill="#404040">
                                <set attributeName="fill" to="#808080" begin="zoomminus.mouseover" end="zoomminus.mouseout"/>
                        </use>
                        <path d="M-4,0h8" fill="none" stroke="white" stroke-width="1.5" pointer-events="none"/>
                </g>
                <g id="dirArrow">
                        <path fill="none" stroke="white" stroke-width="1.5" d="M0,-3.0v7 M-2.5,-0.5L0,-3.0L2.5,-0.5"/>
                </g>
               <g id="resetDef">
                       <use xlink:href="#rim2" fill="#404040">
                               <set attributeName="fill" to="#808080" begin="reset.mouseover" end="reset.mouseout"/>
                       </use>
               </g>
        </defs>

<script type="text/javascript">
var viewWidth = 1829;
var viewHeight = 341;
var sectionId = 'dynsection-0';
</script>
<script xlink:href="svgpan.js"/>
<svg id="graph" class="graph">
<g id="viewport">
<title>incflo_godunov_predict.cpp</title>
<polygon fill="white" stroke="transparent" points="-4,4 -4,-337 1825.2,-337 1825.2,4 -4,4"/>
<!-- Node1 -->
<g id="node1" class="node">
<title>Node1</title>
<g id="a_node1"><a xlink:title=" ">
<polygon fill="#bfbfbf" stroke="black" points="218,-313.5 218,-332.5 367,-332.5 367,-313.5 218,-313.5"/>
<text text-anchor="middle" x="292.5" y="-320.5" font-family="Helvetica,sans-Serif" font-size="10.00">incflo_godunov_predict.cpp</text>
</a>
</g>
</g>
<!-- Node2 -->
<g id="node2" class="node">
<title>Node2</title>
<g id="a_node2"><a xlink:href="incflo__godunov__plm_8_h.html" target="_top" xlink:title=" ">
<polygon fill="white" stroke="black" points="33.5,-123.5 33.5,-153.5 161.5,-153.5 161.5,-123.5 33.5,-123.5"/>
<text text-anchor="start" x="41.5" y="-141.5" font-family="Helvetica,sans-Serif" font-size="10.00">amr&#45;wind/convection</text>
<text text-anchor="middle" x="97.5" y="-130.5" font-family="Helvetica,sans-Serif" font-size="10.00">/incflo_godunov_plm.H</text>
</a>
</g>
</g>
<!-- Node1&#45;&gt;Node2 -->
<g id="edge1" class="edge">
<title>Node1&#45;&gt;Node2</title>
<path fill="none" stroke="midnightblue" d="M283.36,-313.44C254.22,-286.18 162.98,-200.78 120.14,-160.69"/>
<polygon fill="midnightblue" stroke="midnightblue" points="122.42,-158.03 112.73,-153.75 117.64,-163.14 122.42,-158.03"/>
</g>
<!-- Node6 -->
<g id="node6" class="node">
<title>Node6</title>
<g id="a_node6"><a xlink:title=" ">
<polygon fill="white" stroke="#bfbfbf" points="250,-62 250,-81 349,-81 349,-62 250,-62"/>
<text text-anchor="middle" x="299.5" y="-69" font-family="Helvetica,sans-Serif" font-size="10.00">AMReX_BCRec.H</text>
</a>
</g>
</g>
<!-- Node1&#45;&gt;Node6 -->
<g id="edge9" class="edge">
<title>Node1&#45;&gt;Node6</title>
<path fill="none" stroke="midnightblue" d="M295.84,-313.21C306,-285.24 335.05,-195.88 320.5,-123 318.23,-111.65 313.36,-99.66 308.88,-90.21"/>
<polygon fill="midnightblue" stroke="midnightblue" points="311.93,-88.47 304.32,-81.1 305.67,-91.61 311.93,-88.47"/>
</g>
<!-- Node7 -->
<g id="node7" class="node">
<title>Node7</title>
<g id="a_node7"><a xlink:href="incflo__godunov__ppm_8_h.html" target="_top" xlink:title=" ">
<polygon fill="white" stroke="black" points="180,-123.5 180,-153.5 311,-153.5 311,-123.5 180,-123.5"/>
<text text-anchor="start" x="188" y="-141.5" font-family="Helvetica,sans-Serif" font-size="10.00">amr&#45;wind/convection</text>
<text text-anchor="middle" x="245.5" y="-130.5" font-family="Helvetica,sans-Serif" font-size="10.00">/incflo_godunov_ppm.H</text>
</a>
</g>
</g>
<!-- Node1&#45;&gt;Node7 -->
<g id="edge6" class="edge">
<title>Node1&#45;&gt;Node7</title>
<path fill="none" stroke="midnightblue" d="M290.23,-313.2C283.3,-286.28 262.21,-204.4 251.66,-163.41"/>
<polygon fill="midnightblue" stroke="midnightblue" points="255.04,-162.51 249.16,-153.69 248.26,-164.25 255.04,-162.51"/>
</g>
<!-- Node8 -->
<g id="node8" class="node">
<title>Node8</title>
<g id="a_node8"><a xlink:href="_godunov_8_h.html" target="_top" xlink:title=" ">
<polygon fill="white" stroke="black" points="873,-246.5 873,-276.5 992,-276.5 992,-246.5 873,-246.5"/>
<text text-anchor="start" x="881" y="-264.5" font-family="Helvetica,sans-Serif" font-size="10.00">amr&#45;wind/convection</text>
<text text-anchor="middle" x="932.5" y="-253.5" font-family="Helvetica,sans-Serif" font-size="10.00">/Godunov.H</text>
</a>
</g>
</g>
<!-- Node1&#45;&gt;Node8 -->
<g id="edge10" class="edge">
<title>Node1&#45;&gt;Node8</title>
<path fill="none" stroke="midnightblue" d="M367.17,-315.06C491.96,-303.46 741.17,-280.29 862.66,-268.99"/>
<polygon fill="midnightblue" stroke="midnightblue" points="863.32,-272.45 872.96,-268.04 862.67,-265.48 863.32,-272.45"/>
</g>
<!-- Node3 -->
<g id="node3" class="node">
<title>Node3</title>
<g id="a_node3"><a xlink:href="incflo__convection___k_8_h.html" target="_top" xlink:title=" ">
<polygon fill="white" stroke="black" points="0,-56.5 0,-86.5 127,-86.5 127,-56.5 0,-56.5"/>
<text text-anchor="start" x="8" y="-74.5" font-family="Helvetica,sans-Serif" font-size="10.00">amr&#45;wind/convection</text>
<text text-anchor="middle" x="63.5" y="-63.5" font-family="Helvetica,sans-Serif" font-size="10.00">/incflo_convection_K.H</text>
</a>
</g>
</g>
<!-- Node2&#45;&gt;Node3 -->
<g id="edge2" class="edge">
<title>Node2&#45;&gt;Node3</title>
<path fill="none" stroke="midnightblue" d="M90.12,-123.4C85.89,-115.3 80.47,-104.94 75.63,-95.69"/>
<polygon fill="midnightblue" stroke="midnightblue" points="78.6,-93.82 70.86,-86.58 72.4,-97.06 78.6,-93.82"/>
</g>
<!-- Node5 -->
<g id="node5" class="node">
<title>Node5</title>
<g id="a_node5"><a xlink:title=" ">
<polygon fill="white" stroke="#bfbfbf" points="145,-62 145,-81 232,-81 232,-62 145,-62"/>
<text text-anchor="middle" x="188.5" y="-69" font-family="Helvetica,sans-Serif" font-size="10.00">AMReX_Gpu.H</text>
</a>
</g>
</g>
<!-- Node2&#45;&gt;Node5 -->
<g id="edge4" class="edge">
<title>Node2&#45;&gt;Node5</title>
<path fill="none" stroke="midnightblue" d="M117.25,-123.4C132.36,-112.6 153.14,-97.76 168.36,-86.89"/>
<polygon fill="midnightblue" stroke="midnightblue" points="170.49,-89.67 176.59,-81.01 166.42,-83.97 170.49,-89.67"/>
</g>
<!-- Node2&#45;&gt;Node6 -->
<g id="edge5" class="edge">
<title>Node2&#45;&gt;Node6</title>
<path fill="none" stroke="midnightblue" d="M141.33,-123.4C177.87,-111.64 229.3,-95.09 263.48,-84.09"/>
<polygon fill="midnightblue" stroke="midnightblue" points="264.62,-87.4 273.06,-81.01 262.47,-80.74 264.62,-87.4"/>
</g>
<!-- Node4 -->
<g id="node4" class="node">
<title>Node4</title>
<g id="a_node4"><a xlink:title=" ">
<polygon fill="white" stroke="#bfbfbf" points="5,-0.5 5,-19.5 122,-19.5 122,-0.5 5,-0.5"/>
<text text-anchor="middle" x="63.5" y="-7.5" font-family="Helvetica,sans-Serif" font-size="10.00">AMReX_FArrayBox.H</text>
</a>
</g>
</g>
<!-- Node3&#45;&gt;Node4 -->
<g id="edge3" class="edge">
<title>Node3&#45;&gt;Node4</title>
<path fill="none" stroke="midnightblue" d="M63.5,-56.4C63.5,-48.47 63.5,-38.46 63.5,-29.86"/>
<polygon fill="midnightblue" stroke="midnightblue" points="67,-29.66 63.5,-19.66 60,-29.66 67,-29.66"/>
</g>
<!-- Node7&#45;&gt;Node5 -->
<g id="edge7" class="edge">
<title>Node7&#45;&gt;Node5</title>
<path fill="none" stroke="midnightblue" d="M233.13,-123.4C224.24,-113.26 212.24,-99.57 202.91,-88.94"/>
<polygon fill="midnightblue" stroke="midnightblue" points="205.35,-86.41 196.12,-81.19 200.09,-91.02 205.35,-86.41"/>
</g>
<!-- Node7&#45;&gt;Node6 -->
<g id="edge8" class="edge">
<title>Node7&#45;&gt;Node6</title>
<path fill="none" stroke="midnightblue" d="M257.22,-123.4C265.64,-113.26 277.01,-99.57 285.84,-88.94"/>
<polygon fill="midnightblue" stroke="midnightblue" points="288.58,-91.12 292.28,-81.19 283.19,-86.65 288.58,-91.12"/>
</g>
<!-- Node9 -->
<g id="node9" class="node">
<title>Node9</title>
<g id="a_node9"><a xlink:href="_field_repo_8_h.html" target="_top" xlink:title=" ">
<polygon fill="white" stroke="black" points="1363,-190.5 1363,-209.5 1512,-209.5 1512,-190.5 1363,-190.5"/>
<text text-anchor="middle" x="1437.5" y="-197.5" font-family="Helvetica,sans-Serif" font-size="10.00">amr&#45;wind/core/FieldRepo.H</text>
</a>
</g>
</g>
<!-- Node8&#45;&gt;Node9 -->
<g id="edge11" class="edge">
<title>Node8&#45;&gt;Node9</title>
<path fill="none" stroke="midnightblue" d="M992.41,-253.44C1082.55,-242.82 1253.31,-222.7 1355.11,-210.71"/>
<polygon fill="midnightblue" stroke="midnightblue" points="1355.53,-214.18 1365.05,-209.54 1354.71,-207.23 1355.53,-214.18"/>
</g>
<!-- Node10 -->
<g id="node10" class="node">
<title>Node10</title>
<g id="a_node10"><a xlink:title=" ">
<polygon fill="white" stroke="#bfbfbf" points="899.5,-0.5 899.5,-19.5 943.5,-19.5 943.5,-0.5 899.5,-0.5"/>
<text text-anchor="middle" x="921.5" y="-7.5" font-family="Helvetica,sans-Serif" font-size="10.00">string</text>
</a>
</g>
</g>
<!-- Node9&#45;&gt;Node10 -->
<g id="edge12" class="edge">
<title>Node9&#45;&gt;Node10</title>
<path fill="none" stroke="midnightblue" d="M1362.83,-197.48C1186.14,-193.49 746.34,-181.08 601.5,-154 507.28,-136.38 452.77,-164.6 396.5,-87 388.41,-75.85 387.18,-66.15 396.5,-56 429.88,-19.64 780.09,-12.6 889.22,-11.29"/>
<polygon fill="midnightblue" stroke="midnightblue" points="889.34,-14.79 899.3,-11.18 889.26,-7.79 889.34,-14.79"/>
</g>
<!-- Node11 -->
<g id="node11" class="node">
<title>Node11</title>
<g id="a_node11"><a xlink:title=" ">
<polygon fill="white" stroke="#bfbfbf" points="800,-62 800,-81 893,-81 893,-62 800,-62"/>
<text text-anchor="middle" x="846.5" y="-69" font-family="Helvetica,sans-Serif" font-size="10.00">unordered_map</text>
</a>
</g>
</g>
<!-- Node9&#45;&gt;Node11 -->
<g id="edge13" class="edge">
<title>Node9&#45;&gt;Node11</title>
<path fill="none" stroke="midnightblue" d="M1391.4,-190.44C1344.71,-181.68 1270.47,-167.47 1206.5,-154 1093.32,-130.17 960.79,-99.43 892.45,-83.37"/>
<polygon fill="midnightblue" stroke="midnightblue" points="892.98,-79.9 882.44,-81.02 891.38,-86.71 892.98,-79.9"/>
</g>
<!-- Node12 -->
<g id="node12" class="node">
<title>Node12</title>
<g id="a_node12"><a xlink:href="_field_desc_types_8_h.html" target="_top" xlink:title=" ">
<polygon fill="white" stroke="black" points="1400.5,-0.5 1400.5,-19.5 1576.5,-19.5 1576.5,-0.5 1400.5,-0.5"/>
<text text-anchor="middle" x="1488.5" y="-7.5" font-family="Helvetica,sans-Serif" font-size="10.00">amr&#45;wind/core/FieldDescTypes.H</text>
</a>
</g>
</g>
<!-- Node9&#45;&gt;Node12 -->
<g id="edge14" class="edge">
<title>Node9&#45;&gt;Node12</title>
<path fill="none" stroke="midnightblue" d="M1512.08,-198.85C1604.18,-197.13 1753.8,-188.84 1795.5,-154 1819.45,-133.99 1811.78,-117.85 1816.5,-87 1818.58,-73.38 1825.56,-66.38 1816.5,-56 1808.71,-47.07 1674.72,-30.96 1580.44,-20.63"/>
<polygon fill="midnightblue" stroke="midnightblue" points="1580.62,-17.13 1570.3,-19.53 1579.86,-24.09 1580.62,-17.13"/>
</g>
<!-- Node13 -->
<g id="node13" class="node">
<title>Node13</title>
<g id="a_node13"><a xlink:href="_field_utils_8_h.html" target="_top" xlink:title=" ">
<polygon fill="white" stroke="black" points="1493.5,-62 1493.5,-81 1639.5,-81 1639.5,-62 1493.5,-62"/>
<text text-anchor="middle" x="1566.5" y="-69" font-family="Helvetica,sans-Serif" font-size="10.00">amr&#45;wind/core/FieldUtils.H</text>
</a>
</g>
</g>
<!-- Node9&#45;&gt;Node13 -->
<g id="edge15" class="edge">
<title>Node9&#45;&gt;Node13</title>
<path fill="none" stroke="midnightblue" d="M1442.85,-190.35C1452.3,-175.51 1473.07,-144.69 1495.5,-123 1509.95,-109.03 1528.53,-95.95 1543.06,-86.61"/>
<polygon fill="midnightblue" stroke="midnightblue" points="1545.33,-89.32 1551.94,-81.04 1541.61,-83.39 1545.33,-89.32"/>
</g>
<!-- Node14 -->
<g id="node14" class="node">
<title>Node14</title>
<g id="a_node14"><a xlink:title=" ">
<polygon fill="white" stroke="#bfbfbf" points="1273,-0.5 1273,-19.5 1382,-19.5 1382,-0.5 1273,-0.5"/>
<text text-anchor="middle" x="1327.5" y="-7.5" font-family="Helvetica,sans-Serif" font-size="10.00">AMReX_MultiFab.H</text>
</a>
</g>
</g>
<!-- Node9&#45;&gt;Node14 -->
<g id="edge46" class="edge">
<title>Node9&#45;&gt;Node14</title>
<path fill="none" stroke="midnightblue" d="M1436.2,-190.47C1432.3,-167 1418.84,-100.27 1386.5,-56 1377.36,-43.48 1363.77,-32.79 1351.94,-24.97"/>
<polygon fill="midnightblue" stroke="midnightblue" points="1353.67,-21.93 1343.34,-19.57 1349.95,-27.85 1353.67,-21.93"/>
</g>
<!-- Node16 -->
<g id="node16" class="node">
<title>Node16</title>
<g id="a_node16"><a xlink:href="_field_8_h.html" target="_top" xlink:title=" ">
<polygon fill="white" stroke="black" points="610.5,-129 610.5,-148 734.5,-148 734.5,-129 610.5,-129"/>
<text text-anchor="middle" x="672.5" y="-136" font-family="Helvetica,sans-Serif" font-size="10.00">amr&#45;wind/core/Field.H</text>
</a>
</g>
</g>
<!-- Node9&#45;&gt;Node16 -->
<g id="edge19" class="edge">
<title>Node9&#45;&gt;Node16</title>
<path fill="none" stroke="midnightblue" d="M1362.76,-193.19C1215.53,-181.74 889.72,-156.39 744.63,-145.11"/>
<polygon fill="midnightblue" stroke="midnightblue" points="744.74,-141.61 734.5,-144.32 744.2,-148.59 744.74,-141.61"/>
</g>
<!-- Node22 -->
<g id="node22" class="node">
<title>Node22</title>
<g id="a_node22"><a xlink:href="_int_field_8_h.html" target="_top" xlink:title=" ">
<polygon fill="white" stroke="black" points="1504,-129 1504,-148 1641,-148 1641,-129 1504,-129"/>
<text text-anchor="middle" x="1572.5" y="-136" font-family="Helvetica,sans-Serif" font-size="10.00">amr&#45;wind/core/IntField.H</text>
</a>
</g>
</g>
<!-- Node9&#45;&gt;Node22 -->
<g id="edge34" class="edge">
<title>Node9&#45;&gt;Node22</title>
<path fill="none" stroke="midnightblue" d="M1456.84,-190.48C1479.6,-180.45 1517.59,-163.7 1543.79,-152.15"/>
<polygon fill="midnightblue" stroke="midnightblue" points="1545.45,-155.24 1553.19,-148.01 1542.63,-148.84 1545.45,-155.24"/>
</g>
<!-- Node23 -->
<g id="node23" class="node">
<title>Node23</title>
<g id="a_node23"><a xlink:title=" ">
<polygon fill="white" stroke="#bfbfbf" points="1695.5,-62 1695.5,-81 1807.5,-81 1807.5,-62 1695.5,-62"/>
<text text-anchor="middle" x="1751.5" y="-69" font-family="Helvetica,sans-Serif" font-size="10.00">AMReX_iMultiFab.H</text>
</a>
</g>
</g>
<!-- Node9&#45;&gt;Node23 -->
<g id="edge47" class="edge">
<title>Node9&#45;&gt;Node23</title>
<path fill="none" stroke="midnightblue" d="M1512.33,-194.29C1607.38,-187.54 1761.23,-173.7 1778.5,-154 1794.71,-135.51 1778.81,-107 1765.46,-89.06"/>
<polygon fill="midnightblue" stroke="midnightblue" points="1768.2,-86.89 1759.26,-81.2 1762.7,-91.22 1768.2,-86.89"/>
</g>
<!-- Node24 -->
<g id="node24" class="node">
<title>Node24</title>
<g id="a_node24"><a xlink:href="_scratch_field_8_h.html" target="_top" xlink:title=" ">
<polygon fill="white" stroke="black" points="1215.5,-129 1215.5,-148 1375.5,-148 1375.5,-129 1215.5,-129"/>
<text text-anchor="middle" x="1295.5" y="-136" font-family="Helvetica,sans-Serif" font-size="10.00">amr&#45;wind/core/ScratchField.H</text>
</a>
</g>
</g>
<!-- Node9&#45;&gt;Node24 -->
<g id="edge38" class="edge">
<title>Node9&#45;&gt;Node24</title>
<path fill="none" stroke="midnightblue" d="M1417.15,-190.48C1393.11,-180.4 1352.9,-163.55 1325.34,-152"/>
<polygon fill="midnightblue" stroke="midnightblue" points="1326.38,-148.65 1315.81,-148.01 1323.68,-155.1 1326.38,-148.65"/>
</g>
<!-- Node26 -->
<g id="node26" class="node">
<title>Node26</title>
<g id="a_node26"><a xlink:title=" ">
<polygon fill="white" stroke="#bfbfbf" points="1659.5,-129 1659.5,-148 1769.5,-148 1769.5,-129 1659.5,-129"/>
<text text-anchor="middle" x="1714.5" y="-136" font-family="Helvetica,sans-Serif" font-size="10.00">AMReX_AmrCore.H</text>
</a>
</g>
</g>
<!-- Node9&#45;&gt;Node26 -->
<g id="edge45" class="edge">
<title>Node9&#45;&gt;Node26</title>
<path fill="none" stroke="midnightblue" d="M1478.77,-190.47C1521.71,-181.55 1590.87,-167.05 1650.5,-154 1655.93,-152.81 1661.61,-151.55 1667.25,-150.29"/>
<polygon fill="midnightblue" stroke="midnightblue" points="1668.31,-153.64 1677.29,-148.03 1666.77,-146.81 1668.31,-153.64"/>
</g>
<!-- Node13&#45;&gt;Node12 -->
<g id="edge16" class="edge">
<title>Node13&#45;&gt;Node12</title>
<path fill="none" stroke="midnightblue" d="M1555.32,-61.98C1542.93,-52.52 1522.71,-37.1 1507.75,-25.69"/>
<polygon fill="midnightblue" stroke="midnightblue" points="1509.73,-22.79 1499.65,-19.51 1505.48,-28.36 1509.73,-22.79"/>
</g>
<!-- Node13&#45;&gt;Node14 -->
<g id="edge17" class="edge">
<title>Node13&#45;&gt;Node14</title>
<path fill="none" stroke="midnightblue" d="M1532.26,-61.98C1489.93,-51.44 1417.82,-33.49 1371.45,-21.94"/>
<polygon fill="midnightblue" stroke="midnightblue" points="1372.23,-18.53 1361.68,-19.51 1370.54,-25.32 1372.23,-18.53"/>
</g>
<!-- Node15 -->
<g id="node15" class="node">
<title>Node15</title>
<g id="a_node15"><a xlink:title=" ">
<polygon fill="white" stroke="#bfbfbf" points="1594.5,-0.5 1594.5,-19.5 1718.5,-19.5 1718.5,-0.5 1594.5,-0.5"/>
<text text-anchor="middle" x="1656.5" y="-7.5" font-family="Helvetica,sans-Serif" font-size="10.00">AMReX_Interpolater.H</text>
</a>
</g>
</g>
<!-- Node13&#45;&gt;Node15 -->
<g id="edge18" class="edge">
<title>Node13&#45;&gt;Node15</title>
<path fill="none" stroke="midnightblue" d="M1579.39,-61.98C1593.96,-52.34 1617.9,-36.52 1635.25,-25.05"/>
<polygon fill="midnightblue" stroke="midnightblue" points="1637.22,-27.94 1643.63,-19.51 1633.36,-22.1 1637.22,-27.94"/>
</g>
<!-- Node16&#45;&gt;Node5 -->
<g id="edge26" class="edge">
<title>Node16&#45;&gt;Node5</title>
<path fill="none" stroke="midnightblue" d="M610.15,-133.27C525.75,-126.85 370.72,-112.6 240.5,-87 235.75,-86.07 230.8,-84.92 225.92,-83.68"/>
<polygon fill="midnightblue" stroke="midnightblue" points="226.67,-80.26 216.1,-81.06 224.86,-87.02 226.67,-80.26"/>
</g>
<!-- Node16&#45;&gt;Node6 -->
<g id="edge25" class="edge">
<title>Node16&#45;&gt;Node6</title>
<path fill="none" stroke="midnightblue" d="M623.35,-128.94C555.05,-117.03 431.6,-95.52 358.44,-82.77"/>
<polygon fill="midnightblue" stroke="midnightblue" points="358.91,-79.3 348.46,-81.03 357.71,-86.2 358.91,-79.3"/>
</g>
<!-- Node16&#45;&gt;Node10 -->
<g id="edge20" class="edge">
<title>Node16&#45;&gt;Node10</title>
<path fill="none" stroke="midnightblue" d="M614.65,-128.99C555.04,-117.9 475.4,-95.15 510.5,-56 535.68,-27.92 796.55,-15.61 889.13,-12.11"/>
<polygon fill="midnightblue" stroke="midnightblue" points="889.45,-15.6 899.31,-11.73 889.19,-8.61 889.45,-15.6"/>
</g>
<!-- Node16&#45;&gt;Node11 -->
<g id="edge22" class="edge">
<title>Node16&#45;&gt;Node11</title>
<path fill="none" stroke="midnightblue" d="M695.61,-128.87C725.98,-117.52 779.51,-97.52 813.97,-84.65"/>
<polygon fill="midnightblue" stroke="midnightblue" points="815.43,-87.84 823.58,-81.06 812.98,-81.28 815.43,-87.84"/>
</g>
<!-- Node16&#45;&gt;Node12 -->
<g id="edge28" class="edge">
<title>Node16&#45;&gt;Node12</title>
<path fill="none" stroke="midnightblue" d="M734.54,-136.29C825.7,-133.3 1000.58,-122.93 1144.5,-87 1180.29,-78.06 1185.99,-66.01 1221.5,-56 1280.47,-39.37 1348.61,-28.01 1401.3,-20.86"/>
<polygon fill="midnightblue" stroke="midnightblue" points="1401.83,-24.32 1411.28,-19.53 1400.91,-17.38 1401.83,-24.32"/>
</g>
<!-- Node16&#45;&gt;Node14 -->
<g id="edge24" class="edge">
<title>Node16&#45;&gt;Node14</title>
<path fill="none" stroke="midnightblue" d="M687.26,-128.84C703.56,-119.13 730.4,-102.69 752.5,-87 770.56,-74.18 770.92,-64.17 791.5,-56 834.33,-39.01 1129.68,-21.47 1262.75,-14.33"/>
<polygon fill="midnightblue" stroke="midnightblue" points="1263.01,-17.82 1272.81,-13.79 1262.64,-10.83 1263.01,-17.82"/>
</g>
<!-- Node17 -->
<g id="node17" class="node">
<title>Node17</title>
<g id="a_node17"><a xlink:title=" ">
<polygon fill="white" stroke="#bfbfbf" points="405.5,-62 405.5,-81 463.5,-81 463.5,-62 405.5,-62"/>
<text text-anchor="middle" x="434.5" y="-69" font-family="Helvetica,sans-Serif" font-size="10.00">memory</text>
</a>
</g>
</g>
<!-- Node16&#45;&gt;Node17 -->
<g id="edge21" class="edge">
<title>Node16&#45;&gt;Node17</title>
<path fill="none" stroke="midnightblue" d="M636.35,-128.96C597.04,-119.49 532.47,-103.36 477.5,-87 474.57,-86.13 471.55,-85.19 468.52,-84.22"/>
<polygon fill="midnightblue" stroke="midnightblue" points="469.55,-80.88 458.96,-81.09 467.37,-87.53 469.55,-80.88"/>
</g>
<!-- Node18 -->
<g id="node18" class="node">
<title>Node18</title>
<g id="a_node18"><a xlink:title=" ">
<polygon fill="white" stroke="#bfbfbf" points="519.5,-62 519.5,-81 583.5,-81 583.5,-62 519.5,-62"/>
<text text-anchor="middle" x="551.5" y="-69" font-family="Helvetica,sans-Serif" font-size="10.00">algorithm</text>
</a>
</g>
</g>
<!-- Node16&#45;&gt;Node18 -->
<g id="edge23" class="edge">
<title>Node16&#45;&gt;Node18</title>
<path fill="none" stroke="midnightblue" d="M656.18,-128.73C635.68,-117.72 600.3,-98.71 576.41,-85.88"/>
<polygon fill="midnightblue" stroke="midnightblue" points="578.03,-82.78 567.56,-81.13 574.71,-88.94 578.03,-82.78"/>
</g>
<!-- Node19 -->
<g id="node19" class="node">
<title>Node19</title>
<g id="a_node19"><a xlink:href="incflo__enums_8_h.html" target="_top" xlink:title=" ">
<polygon fill="white" stroke="black" points="602,-62 602,-81 743,-81 743,-62 602,-62"/>
<text text-anchor="middle" x="672.5" y="-69" font-family="Helvetica,sans-Serif" font-size="10.00">amr&#45;wind/incflo_enums.H</text>
</a>
</g>
</g>
<!-- Node16&#45;&gt;Node19 -->
<g id="edge27" class="edge">
<title>Node16&#45;&gt;Node19</title>
<path fill="none" stroke="midnightblue" d="M672.5,-128.73C672.5,-119.18 672.5,-103.62 672.5,-91.28"/>
<polygon fill="midnightblue" stroke="midnightblue" points="676,-91.13 672.5,-81.13 669,-91.13 676,-91.13"/>
</g>
<!-- Node20 -->
<g id="node20" class="node">
<title>Node20</title>
<g id="a_node20"><a xlink:href="_view_field_8_h.html" target="_top" xlink:title=" ">
<polygon fill="white" stroke="black" points="987.5,-62 987.5,-81 1135.5,-81 1135.5,-62 987.5,-62"/>
<text text-anchor="middle" x="1061.5" y="-69" font-family="Helvetica,sans-Serif" font-size="10.00">amr&#45;wind/core/ViewField.H</text>
</a>
</g>
</g>
<!-- Node16&#45;&gt;Node20 -->
<g id="edge29" class="edge">
<title>Node16&#45;&gt;Node20</title>
<path fill="none" stroke="midnightblue" d="M723.75,-128.94C795.13,-117.01 924.26,-95.43 1000.5,-82.69"/>
<polygon fill="midnightblue" stroke="midnightblue" points="1001.15,-86.13 1010.44,-81.03 1000,-79.23 1001.15,-86.13"/>
</g>
<!-- Node20&#45;&gt;Node10 -->
<g id="edge30" class="edge">
<title>Node20&#45;&gt;Node10</title>
<path fill="none" stroke="midnightblue" d="M1041.44,-61.98C1017.74,-51.9 978.09,-35.05 950.92,-23.5"/>
<polygon fill="midnightblue" stroke="midnightblue" points="952.09,-20.2 941.52,-19.51 949.36,-26.64 952.09,-20.2"/>
</g>
<!-- Node20&#45;&gt;Node12 -->
<g id="edge31" class="edge">
<title>Node20&#45;&gt;Node12</title>
<path fill="none" stroke="midnightblue" d="M1111.72,-61.95C1124.06,-59.92 1137.25,-57.82 1149.5,-56 1238.31,-42.79 1340.5,-29.48 1409.27,-20.8"/>
<polygon fill="midnightblue" stroke="midnightblue" points="1410.1,-24.23 1419.59,-19.5 1409.23,-17.28 1410.1,-24.23"/>
</g>
<!-- Node20&#45;&gt;Node14 -->
<g id="edge32" class="edge">
<title>Node20&#45;&gt;Node14</title>
<path fill="none" stroke="midnightblue" d="M1099.61,-61.98C1147.02,-51.37 1227.98,-33.26 1279.56,-21.72"/>
<polygon fill="midnightblue" stroke="midnightblue" points="1280.46,-25.11 1289.46,-19.51 1278.94,-18.28 1280.46,-25.11"/>
</g>
<!-- Node21 -->
<g id="node21" class="node">
<title>Node21</title>
<g id="a_node21"><a xlink:title=" ">
<polygon fill="white" stroke="#bfbfbf" points="1053.5,-0.5 1053.5,-19.5 1151.5,-19.5 1151.5,-0.5 1053.5,-0.5"/>
<text text-anchor="middle" x="1102.5" y="-7.5" font-family="Helvetica,sans-Serif" font-size="10.00">AMReX_Vector.H</text>
</a>
</g>
</g>
<!-- Node20&#45;&gt;Node21 -->
<g id="edge33" class="edge">
<title>Node20&#45;&gt;Node21</title>
<path fill="none" stroke="midnightblue" d="M1067.37,-61.98C1073.46,-53.14 1083.14,-39.09 1090.8,-27.98"/>
<polygon fill="midnightblue" stroke="midnightblue" points="1093.84,-29.73 1096.64,-19.51 1088.08,-25.76 1093.84,-29.73"/>
</g>
<!-- Node22&#45;&gt;Node10 -->
<g id="edge35" class="edge">
<title>Node22&#45;&gt;Node10</title>
<path fill="none" stroke="midnightblue" d="M1503.97,-132.04C1348.93,-119.63 984.2,-90.16 978.5,-87 955.24,-74.11 938.67,-47.3 929.59,-29.23"/>
<polygon fill="midnightblue" stroke="midnightblue" points="932.66,-27.54 925.21,-20 926.33,-30.53 932.66,-27.54"/>
</g>
<!-- Node22&#45;&gt;Node12 -->
<g id="edge36" class="edge">
<title>Node22&#45;&gt;Node12</title>
<path fill="none" stroke="midnightblue" d="M1596.12,-128.99C1614.07,-121.13 1637.5,-107.52 1648.5,-87 1655.01,-74.86 1656.82,-66.98 1648.5,-56 1636.86,-40.64 1593.82,-29.06 1555.3,-21.49"/>
<polygon fill="midnightblue" stroke="midnightblue" points="1555.59,-17.99 1545.11,-19.56 1554.28,-24.86 1555.59,-17.99"/>
</g>
<!-- Node22&#45;&gt;Node23 -->
<g id="edge37" class="edge">
<title>Node22&#45;&gt;Node23</title>
<path fill="none" stroke="midnightblue" d="M1596.27,-128.87C1627.65,-117.47 1683.06,-97.35 1718.49,-84.49"/>
<polygon fill="midnightblue" stroke="midnightblue" points="1719.71,-87.77 1727.92,-81.06 1717.32,-81.19 1719.71,-87.77"/>
</g>
<!-- Node24&#45;&gt;Node10 -->
<g id="edge39" class="edge">
<title>Node24&#45;&gt;Node10</title>
<path fill="none" stroke="midnightblue" d="M1215.41,-135.6C1124.91,-131.83 985.04,-120.58 945.5,-87 928.89,-72.89 923.63,-47.38 922.05,-29.83"/>
<polygon fill="midnightblue" stroke="midnightblue" points="925.53,-29.43 921.45,-19.65 918.54,-29.84 925.53,-29.43"/>
</g>
<!-- Node24&#45;&gt;Node12 -->
<g id="edge40" class="edge">
<title>Node24&#45;&gt;Node12</title>
<path fill="none" stroke="midnightblue" d="M1312.67,-128.85C1331.26,-119.28 1361.61,-103.08 1386.5,-87 1416.72,-67.48 1449.78,-42.03 1469.83,-26.1"/>
<polygon fill="midnightblue" stroke="midnightblue" points="1472.2,-28.68 1477.82,-19.7 1467.83,-23.22 1472.2,-28.68"/>
</g>
<!-- Node24&#45;&gt;Node14 -->
<g id="edge42" class="edge">
<title>Node24&#45;&gt;Node14</title>
<path fill="none" stroke="midnightblue" d="M1318.82,-128.91C1336.54,-121 1359.66,-107.37 1370.5,-87 1376.97,-74.84 1375.63,-68.79 1370.5,-56 1365.82,-44.33 1356.51,-33.97 1347.74,-26.14"/>
<polygon fill="midnightblue" stroke="midnightblue" points="1349.92,-23.4 1340,-19.7 1345.45,-28.78 1349.92,-23.4"/>
</g>
<!-- Node24&#45;&gt;Node20 -->
<g id="edge41" class="edge">
<title>Node24&#45;&gt;Node20</title>
<path fill="none" stroke="midnightblue" d="M1264.43,-128.87C1222.61,-117.25 1148.17,-96.58 1102.01,-83.75"/>
<polygon fill="midnightblue" stroke="midnightblue" points="1102.9,-80.37 1092.33,-81.06 1101.03,-87.11 1102.9,-80.37"/>
</g>
<!-- Node24&#45;&gt;Node21 -->
<g id="edge43" class="edge">
<title>Node24&#45;&gt;Node21</title>
<path fill="none" stroke="midnightblue" d="M1282.23,-128.81C1249.45,-107.31 1164.34,-51.53 1124.13,-25.18"/>
<polygon fill="midnightblue" stroke="midnightblue" points="1125.89,-22.14 1115.6,-19.59 1122.05,-28 1125.89,-22.14"/>
</g>
<!-- Node25 -->
<g id="node25" class="node">
<title>Node25</title>
<g id="a_node25"><a xlink:title=" ">
<polygon fill="white" stroke="#bfbfbf" points="1230,-62 1230,-81 1361,-81 1361,-62 1230,-62"/>
<text text-anchor="middle" x="1295.5" y="-69" font-family="Helvetica,sans-Serif" font-size="10.00">AMReX_PhysBCFunct.H</text>
</a>
</g>
</g>
<!-- Node24&#45;&gt;Node25 -->
<g id="edge44" class="edge">
<title>Node24&#45;&gt;Node25</title>
<path fill="none" stroke="midnightblue" d="M1295.5,-128.73C1295.5,-119.18 1295.5,-103.62 1295.5,-91.28"/>
<polygon fill="midnightblue" stroke="midnightblue" points="1299,-91.13 1295.5,-81.13 1292,-91.13 1299,-91.13"/>
</g>
</g>
</svg>
        <g id="navigator" transform="translate(0 0)" fill="#404254">
                <rect fill="#f2f5e9" fill-opacity="0.5" stroke="#606060" stroke-width=".5" x="0" y="0" width="60" height="60"/>
                <use id="zoomplus" xlink:href="#zoomPlus" x="17" y="9" onmousedown="handleZoom(evt,'in')"/>
                <use id="zoomminus" xlink:href="#zoomMin" x="42" y="9" onmousedown="handleZoom(evt,'out')"/>
                <use id="reset" xlink:href="#resetDef" x="30" y="36" onmousedown="handleReset()"/>
                <g id="arrowUp" xlink:href="#dirArrow" transform="translate(30 24)" onmousedown="handlePan(0,-1)">
                  <use xlink:href="#rim" fill="#404040">
                        <set attributeName="fill" to="#808080" begin="arrowUp.mouseover" end="arrowUp.mouseout"/>
                  </use>
                  <path fill="none" stroke="white" stroke-width="1.5" d="M0,-3.0v7 M-2.5,-0.5L0,-3.0L2.5,-0.5"/>
                </g>
                <g id="arrowRight" xlink:href="#dirArrow" transform="rotate(90) translate(36 -43)" onmousedown="handlePan(1,0)">
                  <use xlink:href="#rim" fill="#404040">
                        <set attributeName="fill" to="#808080" begin="arrowRight.mouseover" end="arrowRight.mouseout"/>
                  </use>
                  <path fill="none" stroke="white" stroke-width="1.5" d="M0,-3.0v7 M-2.5,-0.5L0,-3.0L2.5,-0.5"/>
                </g>
                <g id="arrowDown" xlink:href="#dirArrow" transform="rotate(180) translate(-30 -48)" onmousedown="handlePan(0,1)">
                  <use xlink:href="#rim" fill="#404040">
                        <set attributeName="fill" to="#808080" begin="arrowDown.mouseover" end="arrowDown.mouseout"/>
                  </use>
                  <path fill="none" stroke="white" stroke-width="1.5" d="M0,-3.0v7 M-2.5,-0.5L0,-3.0L2.5,-0.5"/>
                </g>
                <g id="arrowLeft" xlink:href="#dirArrow" transform="rotate(270) translate(-36 17)" onmousedown="handlePan(-1,0)">
                  <use xlink:href="#rim" fill="#404040">
                        <set attributeName="fill" to="#808080" begin="arrowLeft.mouseover" end="arrowLeft.mouseout"/>
                  </use>
                  <path fill="none" stroke="white" stroke-width="1.5" d="M0,-3.0v7 M-2.5,-0.5L0,-3.0L2.5,-0.5"/>
                </g>
        </g>
        <svg viewBox="0 0 15 15" width="100%" height="30px" preserveAspectRatio="xMaxYMin meet">
         <g id="arrow_out" transform="scale(0.3 0.3)">
          <a xlink:href="incflo__godunov__predict_8cpp__incl_org.svg" target="_base">
           <rect id="button" ry="5" rx="5" y="6" x="6" height="38" width="38"
                fill="#f2f5e9" fill-opacity="0.5" stroke="#606060" stroke-width="1.0"/>
           <path id="arrow"
             d="M 11.500037,31.436501 C 11.940474,20.09759 22.043105,11.32322 32.158766,21.979434 L 37.068811,17.246167 C 37.068811,17.246167 37.088388,32 37.088388,32 L 22.160133,31.978069 C 22.160133,31.978069 26.997745,27.140456 26.997745,27.140456 C 18.528582,18.264221 13.291696,25.230495 11.500037,31.436501 z"
             style="fill:#404040;"/>
          </a>
         </g>
        </svg>
</svg>
