<?xml version="1.0" encoding="UTF-8" standalone="no"?>
<!DOCTYPE svg PUBLIC "-//W3C//DTD SVG 1.1//EN"
 "http://www.w3.org/Graphics/SVG/1.1/DTD/svg11.dtd">
<!-- Generated by graphviz version 2.43.0 (0)
 -->
<!-- Title: Graphical Class Hierarchy Pages: 1 -->
<svg width="317pt" height="1095pt"
 viewBox="0.00 0.00 317.00 1094.50" xmlns="http://www.w3.org/2000/svg" xmlns:xlink="http://www.w3.org/1999/xlink">
<g id="graph0" class="graph" transform="scale(1 1) rotate(0) translate(4 1090.5)">
<title>Graphical Class Hierarchy</title>
<polygon fill="white" stroke="transparent" points="-4,4 -4,-1090.5 313,-1090.5 313,4 -4,4"/>
<!-- Node378 -->
<g id="node1" class="node">
<title>Node378</title>
<g id="a_node1"><a xlink:title=" ">
<polygon fill="white" stroke="#bfbfbf" points="0,-573 0,-592 100,-592 100,-573 0,-573"/>
<text text-anchor="middle" x="50" y="-580" font-family="Helvetica,sans-Serif" font-size="10.00">Physics::Register</text>
</a>
</g>
</g>
<!-- Node0 -->
<g id="node2" class="node">
<title>Node0</title>
<g id="a_node2"><a xlink:href="classamr__wind_1_1_a_b_l.html" target="_top" xlink:title="Atmospheric Boundary Layer physics.">
<polygon fill="white" stroke="black" points="178,-1067 178,-1086 267,-1086 267,-1067 178,-1067"/>
<text text-anchor="middle" x="222.5" y="-1074" font-family="Helvetica,sans-Serif" font-size="10.00">amr_wind::ABL</text>
</a>
</g>
</g>
<!-- Node378&#45;&gt;Node0 -->
<g id="edge1" class="edge">
<title>Node378&#45;&gt;Node0</title>
<path fill="none" stroke="midnightblue" d="M51.73,-602.82C55.11,-684.89 71.88,-990.66 136,-1057.5 146.74,-1068.69 162.49,-1073.98 177.56,-1076.3"/>
<polygon fill="midnightblue" stroke="midnightblue" points="55.21,-602.25 51.33,-592.39 48.22,-602.52 55.21,-602.25"/>
</g>
<!-- Node380 -->
<g id="node3" class="node">
<title>Node380</title>
<g id="a_node3"><a xlink:href="classamr__wind_1_1_boussinesq_bubble.html" target="_top" xlink:title="Boussinesq Bubble physics.">
<polygon fill="white" stroke="black" points="142.5,-1029 142.5,-1048 302.5,-1048 302.5,-1029 142.5,-1029"/>
<text text-anchor="middle" x="222.5" y="-1036" font-family="Helvetica,sans-Serif" font-size="10.00">amr_wind::BoussinesqBubble</text>
</a>
</g>
</g>
<!-- Node378&#45;&gt;Node380 -->
<g id="edge2" class="edge">
<title>Node378&#45;&gt;Node380</title>
<path fill="none" stroke="midnightblue" d="M52.07,-602.68C56.59,-680.34 76.76,-958.67 136,-1019.5 139.71,-1023.31 144.01,-1026.44 148.66,-1028.99"/>
<polygon fill="midnightblue" stroke="midnightblue" points="55.54,-602.15 51.49,-592.36 48.56,-602.54 55.54,-602.15"/>
</g>
<!-- Node381 -->
<g id="node4" class="node">
<title>Node381</title>
<g id="a_node4"><a xlink:href="classamr__wind_1_1_breaking_waves.html" target="_top" xlink:title="Numerical Wave Basin physics.">
<polygon fill="white" stroke="black" points="149.5,-991 149.5,-1010 295.5,-1010 295.5,-991 149.5,-991"/>
<text text-anchor="middle" x="222.5" y="-998" font-family="Helvetica,sans-Serif" font-size="10.00">amr_wind::BreakingWaves</text>
</a>
</g>
</g>
<!-- Node378&#45;&gt;Node381 -->
<g id="edge3" class="edge">
<title>Node378&#45;&gt;Node381</title>
<path fill="none" stroke="midnightblue" d="M52.44,-602.32C58.16,-675.15 81.57,-926.59 136,-981.5 139.85,-985.39 144.31,-988.56 149.14,-991.14"/>
<polygon fill="midnightblue" stroke="midnightblue" points="55.93,-601.93 51.68,-592.22 48.95,-602.46 55.93,-601.93"/>
</g>
<!-- Node382 -->
<g id="node5" class="node">
<title>Node382</title>
<g id="a_node5"><a xlink:href="classamr__wind_1_1_dam_break.html" target="_top" xlink:title=" ">
<polygon fill="white" stroke="black" points="161.5,-953 161.5,-972 283.5,-972 283.5,-953 161.5,-953"/>
<text text-anchor="middle" x="222.5" y="-960" font-family="Helvetica,sans-Serif" font-size="10.00">amr_wind::DamBreak</text>
</a>
</g>
</g>
<!-- Node378&#45;&gt;Node382 -->
<g id="edge4" class="edge">
<title>Node378&#45;&gt;Node382</title>
<path fill="none" stroke="midnightblue" d="M52.95,-602.6C60.02,-671.22 86.52,-894.64 136,-943.5 143.03,-950.44 152.01,-955.09 161.48,-958.15"/>
<polygon fill="midnightblue" stroke="midnightblue" points="56.4,-601.91 51.92,-592.31 49.44,-602.61 56.4,-601.91"/>
</g>
<!-- Node383 -->
<g id="node6" class="node">
<title>Node383</title>
<g id="a_node6"><a xlink:href="classamr__wind_1_1_ekman_spiral.html" target="_top" xlink:title="Ekman Spiral physics.">
<polygon fill="white" stroke="black" points="156.5,-915 156.5,-934 288.5,-934 288.5,-915 156.5,-915"/>
<text text-anchor="middle" x="222.5" y="-922" font-family="Helvetica,sans-Serif" font-size="10.00">amr_wind::EkmanSpiral</text>
</a>
</g>
</g>
<!-- Node378&#45;&gt;Node383 -->
<g id="edge5" class="edge">
<title>Node378&#45;&gt;Node383</title>
<path fill="none" stroke="midnightblue" d="M53.54,-602.52C62.01,-666.23 91.35,-862.54 136,-905.5 141.81,-911.09 148.88,-915.18 156.43,-918.15"/>
<polygon fill="midnightblue" stroke="midnightblue" points="56.96,-601.7 52.2,-592.24 50.02,-602.61 56.96,-601.7"/>
</g>
<!-- Node384 -->
<g id="node7" class="node">
<title>Node384</title>
<g id="a_node7"><a xlink:href="classamr__wind_1_1_free_stream.html" target="_top" xlink:title="Freestream physics.">
<polygon fill="white" stroke="black" points="159,-877 159,-896 286,-896 286,-877 159,-877"/>
<text text-anchor="middle" x="222.5" y="-884" font-family="Helvetica,sans-Serif" font-size="10.00">amr_wind::FreeStream</text>
</a>
</g>
</g>
<!-- Node378&#45;&gt;Node384 -->
<g id="edge6" class="edge">
<title>Node378&#45;&gt;Node384</title>
<path fill="none" stroke="midnightblue" d="M50.55,-602.28C50.53,-654.11 58.01,-794.88 136,-867.5 142.45,-873.51 150.37,-877.77 158.76,-880.77"/>
<polygon fill="midnightblue" stroke="midnightblue" points="54.05,-602.15 50.66,-592.11 47.05,-602.07 54.05,-602.15"/>
</g>
<!-- Node385 -->
<g id="node8" class="node">
<title>Node385</title>
<g id="a_node8"><a xlink:href="classamr__wind_1_1_multi_phase.html" target="_top" xlink:title=" ">
<polygon fill="white" stroke="black" points="160,-839 160,-858 285,-858 285,-839 160,-839"/>
<text text-anchor="middle" x="222.5" y="-846" font-family="Helvetica,sans-Serif" font-size="10.00">amr_wind::MultiPhase</text>
</a>
</g>
</g>
<!-- Node378&#45;&gt;Node385 -->
<g id="edge7" class="edge">
<title>Node378&#45;&gt;Node385</title>
<path fill="none" stroke="midnightblue" d="M51.6,-602.14C54.15,-649.05 67.41,-768.24 136,-829.5 142.8,-835.58 151.12,-839.85 159.85,-842.83"/>
<polygon fill="midnightblue" stroke="midnightblue" points="55.09,-601.93 51.16,-592.09 48.1,-602.23 55.09,-601.93"/>
</g>
<!-- Node386 -->
<g id="node9" class="node">
<title>Node386</title>
<g id="a_node9"><a xlink:href="classamr__wind_1_1_rain_drop.html" target="_top" xlink:title=" ">
<polygon fill="white" stroke="black" points="164.5,-801 164.5,-820 280.5,-820 280.5,-801 164.5,-801"/>
<text text-anchor="middle" x="222.5" y="-808" font-family="Helvetica,sans-Serif" font-size="10.00">amr_wind::RainDrop</text>
</a>
</g>
</g>
<!-- Node378&#45;&gt;Node386 -->
<g id="edge8" class="edge">
<title>Node378&#45;&gt;Node386</title>
<path fill="none" stroke="midnightblue" d="M53,-602.2C58.34,-643.93 76.8,-741.48 136,-791.5 144.01,-798.27 153.92,-802.77 164.11,-805.74"/>
<polygon fill="midnightblue" stroke="midnightblue" points="56.47,-601.74 51.84,-592.21 49.52,-602.55 56.47,-601.74"/>
</g>
<!-- Node387 -->
<g id="node10" class="node">
<title>Node387</title>
<g id="a_node10"><a xlink:href="classamr__wind_1_1_rayleigh_taylor.html" target="_top" xlink:title="Rayleigh Taylor physics.">
<polygon fill="white" stroke="black" points="151,-763 151,-782 294,-782 294,-763 151,-763"/>
<text text-anchor="middle" x="222.5" y="-770" font-family="Helvetica,sans-Serif" font-size="10.00">amr_wind::RayleighTaylor</text>
</a>
</g>
</g>
<!-- Node378&#45;&gt;Node387 -->
<g id="edge9" class="edge">
<title>Node378&#45;&gt;Node387</title>
<path fill="none" stroke="midnightblue" d="M54.97,-602.26C63.29,-638.26 86.06,-714.41 136,-753.5 140.91,-757.34 146.44,-760.44 152.27,-762.94"/>
<polygon fill="midnightblue" stroke="midnightblue" points="58.31,-601.11 52.76,-592.08 51.47,-602.59 58.31,-601.11"/>
</g>
<!-- Node388 -->
<g id="node11" class="node">
<title>Node388</title>
<g id="a_node11"><a xlink:href="classamr__wind_1_1_scalar_advection.html" target="_top" xlink:title="Scalar Advection physics.">
<polygon fill="white" stroke="black" points="148,-725 148,-744 297,-744 297,-725 148,-725"/>
<text text-anchor="middle" x="222.5" y="-732" font-family="Helvetica,sans-Serif" font-size="10.00">amr_wind::ScalarAdvection</text>
</a>
</g>
</g>
<!-- Node378&#45;&gt;Node388 -->
<g id="edge10" class="edge">
<title>Node378&#45;&gt;Node388</title>
<path fill="none" stroke="midnightblue" d="M57.68,-601.54C69,-630.86 94.8,-686.68 136,-715.5 141.48,-719.33 147.61,-722.41 153.99,-724.88"/>
<polygon fill="midnightblue" stroke="midnightblue" points="60.92,-600.2 54.17,-592.04 54.35,-602.63 60.92,-600.2"/>
</g>
<!-- Node389 -->
<g id="node12" class="node">
<title>Node389</title>
<g id="a_node12"><a xlink:href="classamr__wind_1_1_sloshing_tank.html" target="_top" xlink:title=" ">
<polygon fill="white" stroke="black" points="155.5,-687 155.5,-706 289.5,-706 289.5,-687 155.5,-687"/>
<text text-anchor="middle" x="222.5" y="-694" font-family="Helvetica,sans-Serif" font-size="10.00">amr_wind::SloshingTank</text>
</a>
</g>
</g>
<!-- Node378&#45;&gt;Node389 -->
<g id="edge11" class="edge">
<title>Node378&#45;&gt;Node389</title>
<path fill="none" stroke="midnightblue" d="M62.16,-600.74C76.47,-622.52 103.39,-658.41 136,-677.5 142.56,-681.34 149.82,-684.41 157.26,-686.85"/>
<polygon fill="midnightblue" stroke="midnightblue" points="64.97,-598.65 56.65,-592.1 59.07,-602.41 64.97,-598.65"/>
</g>
<!-- Node390 -->
<g id="node13" class="node">
<title>Node390</title>
<g id="a_node13"><a xlink:href="classamr__wind_1_1_synthetic_turbulence.html" target="_top" xlink:title=" ">
<polygon fill="white" stroke="black" points="138,-649 138,-668 307,-668 307,-649 138,-649"/>
<text text-anchor="middle" x="222.5" y="-656" font-family="Helvetica,sans-Serif" font-size="10.00">amr_wind::SyntheticTurbulence</text>
</a>
</g>
</g>
<!-- Node378&#45;&gt;Node390 -->
<g id="edge12" class="edge">
<title>Node378&#45;&gt;Node390</title>
<path fill="none" stroke="midnightblue" d="M70.55,-598.72C87.03,-611.6 111.75,-629.11 136,-639.5 144.95,-643.33 154.76,-646.44 164.46,-648.93"/>
<polygon fill="midnightblue" stroke="midnightblue" points="72.29,-595.63 62.29,-592.11 67.92,-601.09 72.29,-595.63"/>
</g>
<!-- Node391 -->
<g id="node14" class="node">
<title>Node391</title>
<g id="a_node14"><a xlink:href="classamr__wind_1_1_taylor_green_vortex.html" target="_top" xlink:title="Taylor Green Vortex physics.">
<polygon fill="white" stroke="black" points="142,-611 142,-630 303,-630 303,-611 142,-611"/>
<text text-anchor="middle" x="222.5" y="-618" font-family="Helvetica,sans-Serif" font-size="10.00">amr_wind::TaylorGreenVortex</text>
</a>
</g>
</g>
<!-- Node378&#45;&gt;Node391 -->
<g id="edge13" class="edge">
<title>Node378&#45;&gt;Node391</title>
<path fill="none" stroke="midnightblue" d="M103.83,-594.32C114.48,-596.7 125.6,-599.18 136,-601.5 149.8,-604.58 164.86,-607.92 178.44,-610.94"/>
<polygon fill="midnightblue" stroke="midnightblue" points="104.33,-590.84 93.8,-592.08 102.8,-597.68 104.33,-590.84"/>
</g>
<!-- Node392 -->
<g id="node15" class="node">
<title>Node392</title>
<g id="a_node15"><a xlink:href="classamr__wind_1_1_vortex_dipole.html" target="_top" xlink:title="Vortex dipole Physics.">
<polygon fill="white" stroke="black" points="155.5,-573 155.5,-592 289.5,-592 289.5,-573 155.5,-573"/>
<text text-anchor="middle" x="222.5" y="-580" font-family="Helvetica,sans-Serif" font-size="10.00">amr_wind::VortexDipole</text>
</a>
</g>
</g>
<!-- Node378&#45;&gt;Node392 -->
<g id="edge14" class="edge">
<title>Node378&#45;&gt;Node392</title>
<path fill="none" stroke="midnightblue" d="M110.65,-582.5C125.14,-582.5 140.71,-582.5 155.48,-582.5"/>
<polygon fill="midnightblue" stroke="midnightblue" points="110.32,-579 100.32,-582.5 110.32,-586 110.32,-579"/>
</g>
<!-- Node393 -->
<g id="node16" class="node">
<title>Node393</title>
<g id="a_node16"><a xlink:href="classamr__wind_1_1_vortex_patch.html" target="_top" xlink:title=" ">
<polygon fill="white" stroke="black" points="158.5,-535 158.5,-554 286.5,-554 286.5,-535 158.5,-535"/>
<text text-anchor="middle" x="222.5" y="-542" font-family="Helvetica,sans-Serif" font-size="10.00">amr_wind::VortexPatch</text>
</a>
</g>
</g>
<!-- Node378&#45;&gt;Node393 -->
<g id="edge15" class="edge">
<title>Node378&#45;&gt;Node393</title>
<path fill="none" stroke="midnightblue" d="M103.83,-570.68C114.48,-568.3 125.6,-565.82 136,-563.5 149.8,-560.42 164.86,-557.08 178.44,-554.06"/>
<polygon fill="midnightblue" stroke="midnightblue" points="102.8,-567.32 93.8,-572.92 104.33,-574.16 102.8,-567.32"/>
</g>
<!-- Node394 -->
<g id="node17" class="node">
<title>Node394</title>
<g id="a_node17"><a xlink:href="classamr__wind_1_1_vortex_patch_scalar_vel.html" target="_top" xlink:title=" ">
<polygon fill="white" stroke="black" points="136,-497 136,-516 309,-516 309,-497 136,-497"/>
<text text-anchor="middle" x="222.5" y="-504" font-family="Helvetica,sans-Serif" font-size="10.00">amr_wind::VortexPatchScalarVel</text>
</a>
</g>
</g>
<!-- Node378&#45;&gt;Node394 -->
<g id="edge16" class="edge">
<title>Node378&#45;&gt;Node394</title>
<path fill="none" stroke="midnightblue" d="M70.55,-566.28C87.03,-553.4 111.75,-535.89 136,-525.5 144.95,-521.67 154.76,-518.56 164.46,-516.07"/>
<polygon fill="midnightblue" stroke="midnightblue" points="67.92,-563.91 62.29,-572.89 72.29,-569.37 67.92,-563.91"/>
</g>
<!-- Node395 -->
<g id="node18" class="node">
<title>Node395</title>
<g id="a_node18"><a xlink:href="classamr__wind_1_1_vortex_ring.html" target="_top" xlink:title="Vortex ring physics.">
<polygon fill="white" stroke="black" points="160.5,-459 160.5,-478 284.5,-478 284.5,-459 160.5,-459"/>
<text text-anchor="middle" x="222.5" y="-466" font-family="Helvetica,sans-Serif" font-size="10.00">amr_wind::VortexRing</text>
</a>
</g>
</g>
<!-- Node378&#45;&gt;Node395 -->
<g id="edge17" class="edge">
<title>Node378&#45;&gt;Node395</title>
<path fill="none" stroke="midnightblue" d="M62.16,-564.26C76.47,-542.48 103.39,-506.59 136,-487.5 143.48,-483.12 151.87,-479.75 160.39,-477.15"/>
<polygon fill="midnightblue" stroke="midnightblue" points="59.07,-562.59 56.65,-572.9 64.97,-566.35 59.07,-562.59"/>
</g>
<!-- Node396 -->
<g id="node19" class="node">
<title>Node396</title>
<g id="a_node19"><a xlink:href="classamr__wind_1_1_zalesak_disk.html" target="_top" xlink:title=" ">
<polygon fill="white" stroke="black" points="157,-421 157,-440 288,-440 288,-421 157,-421"/>
<text text-anchor="middle" x="222.5" y="-428" font-family="Helvetica,sans-Serif" font-size="10.00">amr_wind::ZalesakDisk</text>
</a>
</g>
</g>
<!-- Node378&#45;&gt;Node396 -->
<g id="edge18" class="edge">
<title>Node378&#45;&gt;Node396</title>
<path fill="none" stroke="midnightblue" d="M57.68,-563.46C69,-534.14 94.8,-478.32 136,-449.5 142.23,-445.14 149.29,-441.76 156.61,-439.14"/>
<polygon fill="midnightblue" stroke="midnightblue" points="54.35,-562.37 54.17,-572.96 60.92,-564.8 54.35,-562.37"/>
</g>
<!-- Node397 -->
<g id="node20" class="node">
<title>Node397</title>
<g id="a_node20"><a xlink:href="classamr__wind_1_1actuator_1_1_actuator.html" target="_top" xlink:title="Actuator line/disk modeling for wind turbines.">
<polygon fill="white" stroke="black" points="167,-371.5 167,-401.5 278,-401.5 278,-371.5 167,-371.5"/>
<text text-anchor="start" x="175" y="-389.5" font-family="Helvetica,sans-Serif" font-size="10.00">amr_wind::actuator</text>
<text text-anchor="middle" x="222.5" y="-378.5" font-family="Helvetica,sans-Serif" font-size="10.00">::Actuator</text>
</a>
</g>
</g>
<!-- Node378&#45;&gt;Node397 -->
<g id="edge19" class="edge">
<title>Node378&#45;&gt;Node397</title>
<path fill="none" stroke="midnightblue" d="M55.35,-562.55C64.18,-526.85 87.6,-452.02 136,-411.5 144.78,-404.15 155.62,-398.97 166.61,-395.3"/>
<polygon fill="midnightblue" stroke="midnightblue" points="51.85,-562.13 52.98,-572.67 58.67,-563.73 51.85,-562.13"/>
</g>
<!-- Node398 -->
<g id="node21" class="node">
<title>Node398</title>
<g id="a_node21"><a xlink:href="classamr__wind_1_1burggraf_1_1_burggraf_flow.html" target="_top" xlink:title="Burggraf Flow physics.">
<polygon fill="white" stroke="black" points="166.5,-322.5 166.5,-352.5 278.5,-352.5 278.5,-322.5 166.5,-322.5"/>
<text text-anchor="start" x="174.5" y="-340.5" font-family="Helvetica,sans-Serif" font-size="10.00">amr_wind::burggraf</text>
<text text-anchor="middle" x="222.5" y="-329.5" font-family="Helvetica,sans-Serif" font-size="10.00">::BurggrafFlow</text>
</a>
</g>
</g>
<!-- Node378&#45;&gt;Node398 -->
<g id="edge20" class="edge">
<title>Node378&#45;&gt;Node398</title>
<path fill="none" stroke="midnightblue" d="M52.83,-562.97C57.89,-520.2 75.95,-417.7 136,-362.5 144.43,-354.76 155.12,-349.4 166.08,-345.7"/>
<polygon fill="midnightblue" stroke="midnightblue" points="49.35,-562.61 51.76,-572.92 56.31,-563.35 49.35,-562.61"/>
</g>
<!-- Node399 -->
<g id="node22" class="node">
<title>Node399</title>
<g id="a_node22"><a xlink:href="classamr__wind_1_1channel__flow_1_1_channel_flow.html" target="_top" xlink:title="Channel Flow physics.">
<polygon fill="white" stroke="black" points="155.5,-273.5 155.5,-303.5 289.5,-303.5 289.5,-273.5 155.5,-273.5"/>
<text text-anchor="start" x="163.5" y="-291.5" font-family="Helvetica,sans-Serif" font-size="10.00">amr_wind::channel_flow</text>
<text text-anchor="middle" x="222.5" y="-280.5" font-family="Helvetica,sans-Serif" font-size="10.00">::ChannelFlow</text>
</a>
</g>
</g>
<!-- Node378&#45;&gt;Node399 -->
<g id="edge21" class="edge">
<title>Node378&#45;&gt;Node399</title>
<path fill="none" stroke="midnightblue" d="M51.24,-562.77C52.95,-513.42 64.39,-383.58 136,-313.5 141.53,-308.09 148.16,-303.84 155.25,-300.51"/>
<polygon fill="midnightblue" stroke="midnightblue" points="47.74,-562.69 51,-572.77 54.74,-562.86 47.74,-562.69"/>
</g>
<!-- Node400 -->
<g id="node23" class="node">
<title>Node400</title>
<g id="a_node23"><a xlink:href="classamr__wind_1_1ctv_1_1_convecting_taylor_vortex.html" target="_top" xlink:title="Convecting Taylor Vortex physics.">
<polygon fill="white" stroke="black" points="149.5,-224.5 149.5,-254.5 295.5,-254.5 295.5,-224.5 149.5,-224.5"/>
<text text-anchor="start" x="157.5" y="-242.5" font-family="Helvetica,sans-Serif" font-size="10.00">amr_wind::ctv::Convecting</text>
<text text-anchor="middle" x="222.5" y="-231.5" font-family="Helvetica,sans-Serif" font-size="10.00">TaylorVortex</text>
</a>
</g>
</g>
<!-- Node378&#45;&gt;Node400 -->
<g id="edge22" class="edge">
<title>Node378&#45;&gt;Node400</title>
<path fill="none" stroke="midnightblue" d="M53.7,-562.9C62.67,-500.53 93.33,-308.18 136,-264.5 139.89,-260.52 144.38,-257.16 149.22,-254.33"/>
<polygon fill="midnightblue" stroke="midnightblue" points="50.21,-562.58 52.28,-572.97 57.14,-563.56 50.21,-562.58"/>
</g>
<!-- Node401 -->
<g id="node24" class="node">
<title>Node401</title>
<g id="a_node24"><a xlink:href="classamr__wind_1_1hybrid__rans__les__abl_1_1_hybrid_r_a_n_s_l_e_s_a_b_l.html" target="_top" xlink:title="Hybrid RANS/LES with ABL.">
<polygon fill="white" stroke="black" points="143.5,-175.5 143.5,-205.5 301.5,-205.5 301.5,-175.5 143.5,-175.5"/>
<text text-anchor="start" x="151.5" y="-193.5" font-family="Helvetica,sans-Serif" font-size="10.00">amr_wind::hybrid_rans</text>
<text text-anchor="middle" x="222.5" y="-182.5" font-family="Helvetica,sans-Serif" font-size="10.00">_les_abl::HybridRANSLESABL</text>
</a>
</g>
</g>
<!-- Node378&#45;&gt;Node401 -->
<g id="edge23" class="edge">
<title>Node378&#45;&gt;Node401</title>
<path fill="none" stroke="midnightblue" d="M52.98,-562.64C60.21,-493.82 87.39,-266.96 136,-215.5 139.61,-211.68 143.77,-208.43 148.27,-205.67"/>
<polygon fill="midnightblue" stroke="midnightblue" points="49.46,-562.63 51.92,-572.93 56.42,-563.34 49.46,-562.63"/>
</g>
<!-- Node402 -->
<g id="node25" class="node">
<title>Node402</title>
<g id="a_node25"><a xlink:href="classamr__wind_1_1ib_1_1_i_b.html" target="_top" xlink:title="Immersed boundary modeling for non&#45;blade wind components and complex terrain.">
<polygon fill="white" stroke="black" points="175,-137 175,-156 270,-156 270,-137 175,-137"/>
<text text-anchor="middle" x="222.5" y="-144" font-family="Helvetica,sans-Serif" font-size="10.00">amr_wind::ib::IB</text>
</a>
</g>
</g>
<!-- Node378&#45;&gt;Node402 -->
<g id="edge24" class="edge">
<title>Node378&#45;&gt;Node402</title>
<path fill="none" stroke="midnightblue" d="M52.3,-562.36C57.57,-487.18 79.79,-224.32 136,-166.5 146.09,-156.12 160.47,-150.68 174.56,-147.96"/>
<polygon fill="midnightblue" stroke="midnightblue" points="48.78,-562.54 51.6,-572.75 55.77,-563.01 48.78,-562.54"/>
</g>
<!-- Node403 -->
<g id="node26" class="node">
<title>Node403</title>
<g id="a_node26"><a xlink:href="classamr__wind_1_1mms_1_1_m_m_s.html" target="_top" xlink:title="Method of manufactured solutions physics.">
<polygon fill="white" stroke="black" points="160,-99 160,-118 285,-118 285,-99 160,-99"/>
<text text-anchor="middle" x="222.5" y="-106" font-family="Helvetica,sans-Serif" font-size="10.00">amr_wind::mms::MMS</text>
</a>
</g>
</g>
<!-- Node378&#45;&gt;Node403 -->
<g id="edge25" class="edge">
<title>Node378&#45;&gt;Node403</title>
<path fill="none" stroke="midnightblue" d="M51.89,-562.51C55.84,-483.12 74.38,-191.25 136,-127.5 142.55,-120.72 150.95,-116.11 159.9,-113.02"/>
<polygon fill="midnightblue" stroke="midnightblue" points="48.39,-562.48 51.41,-572.63 55.38,-562.81 48.39,-562.48"/>
</g>
<!-- Node404 -->
<g id="node27" class="node">
<title>Node404</title>
<g id="a_node27"><a xlink:href="classamr__wind_1_1ocean__waves_1_1_ocean_waves.html" target="_top" xlink:title="ocean waves modeling">
<polygon fill="white" stroke="black" points="154,-49.5 154,-79.5 291,-79.5 291,-49.5 154,-49.5"/>
<text text-anchor="start" x="162" y="-67.5" font-family="Helvetica,sans-Serif" font-size="10.00">amr_wind::ocean_waves</text>
<text text-anchor="middle" x="222.5" y="-56.5" font-family="Helvetica,sans-Serif" font-size="10.00">::OceanWaves</text>
</a>
</g>
</g>
<!-- Node378&#45;&gt;Node404 -->
<g id="edge26" class="edge">
<title>Node378&#45;&gt;Node404</title>
<path fill="none" stroke="midnightblue" d="M51.7,-562.59C55.02,-479.51 71.8,-161.45 136,-89.5 140.94,-83.96 147.04,-79.62 153.68,-76.22"/>
<polygon fill="midnightblue" stroke="midnightblue" points="48.2,-562.58 51.32,-572.7 55.19,-562.84 48.2,-562.58"/>
</g>
<!-- Node405 -->
<g id="node28" class="node">
<title>Node405</title>
<g id="a_node28"><a xlink:href="classamr__wind_1_1zds_1_1_zalesak_disk_scalar_vel.html" target="_top" xlink:title=" ">
<polygon fill="white" stroke="black" points="145.5,-0.5 145.5,-30.5 299.5,-30.5 299.5,-0.5 145.5,-0.5"/>
<text text-anchor="start" x="153.5" y="-18.5" font-family="Helvetica,sans-Serif" font-size="10.00">amr_wind::zds::ZalesakDisk</text>
<text text-anchor="middle" x="222.5" y="-7.5" font-family="Helvetica,sans-Serif" font-size="10.00">ScalarVel</text>
</a>
</g>
</g>
<!-- Node378&#45;&gt;Node405 -->
<g id="edge27" class="edge">
<title>Node378&#45;&gt;Node405</title>
<path fill="none" stroke="midnightblue" d="M51.36,-562.61C53.35,-474.54 65.68,-120.52 136,-40.5 139.37,-36.67 143.29,-33.41 147.56,-30.63"/>
<polygon fill="midnightblue" stroke="midnightblue" points="47.86,-562.54 51.15,-572.61 54.86,-562.69 47.86,-562.54"/>
</g>
</g>
</svg>
