<?xml version="1.0" encoding="UTF-8" standalone="no"?>
<!DOCTYPE svg PUBLIC "-//W3C//DTD SVG 1.1//EN"
 "http://www.w3.org/Graphics/SVG/1.1/DTD/svg11.dtd">
<!-- Generated by graphviz version 2.43.0 (0)
 -->
<!-- Title: Graphical Class Hierarchy Pages: 1 -->
<svg width="470pt" height="180pt"
 viewBox="0.00 0.00 470.00 180.00" xmlns="http://www.w3.org/2000/svg" xmlns:xlink="http://www.w3.org/1999/xlink">
<g id="graph0" class="graph" transform="scale(1 1) rotate(0) translate(4 176)">
<title>Graphical Class Hierarchy</title>
<polygon fill="white" stroke="transparent" points="-4,4 -4,-176 466,-176 466,4 -4,4"/>
<!-- Node0 -->
<g id="node1" class="node">
<title>Node0</title>
<g id="a_node1"><a xlink:href="classamr__wind_1_1_b_c_iface.html" target="_top" xlink:title="Abstract class that defines the interface for processing BCs.">
<polygon fill="white" stroke="black" points="0,-76.5 0,-95.5 108,-95.5 108,-76.5 0,-76.5"/>
<text text-anchor="middle" x="54" y="-83.5" font-family="Helvetica,sans-Serif" font-size="10.00">amr_wind::BCIface</text>
</a>
</g>
</g>
<!-- Node1 -->
<g id="node2" class="node">
<title>Node1</title>
<g id="a_node2"><a xlink:href="classamr__wind_1_1_b_c_fill_patch_extrap.html" target="_top" xlink:title="Default BC that can be applied on any field.">
<polygon fill="white" stroke="black" points="144,-152.5 144,-171.5 300,-171.5 300,-152.5 144,-152.5"/>
<text text-anchor="middle" x="222" y="-159.5" font-family="Helvetica,sans-Serif" font-size="10.00">amr_wind::BCFillPatchExtrap</text>
</a>
</g>
</g>
<!-- Node0&#45;&gt;Node1 -->
<g id="edge1" class="edge">
<title>Node0&#45;&gt;Node1</title>
<path fill="none" stroke="midnightblue" d="M75.47,-101.89C92.84,-114.66 118.88,-132.21 144,-143 152.73,-146.75 162.35,-149.86 171.74,-152.4"/>
<polygon fill="midnightblue" stroke="midnightblue" points="77.33,-98.9 67.23,-95.7 73.13,-104.5 77.33,-98.9"/>
</g>
<!-- Node2 -->
<g id="node3" class="node">
<title>Node2</title>
<g id="a_node3"><a xlink:href="classamr__wind_1_1_b_c_scalar.html" target="_top" xlink:title="Boundary condition initialization for scalar transport variables.">
<polygon fill="white" stroke="black" points="165,-114.5 165,-133.5 279,-133.5 279,-114.5 165,-114.5"/>
<text text-anchor="middle" x="222" y="-121.5" font-family="Helvetica,sans-Serif" font-size="10.00">amr_wind::BCScalar</text>
</a>
</g>
</g>
<!-- Node0&#45;&gt;Node2 -->
<g id="edge2" class="edge">
<title>Node0&#45;&gt;Node2</title>
<path fill="none" stroke="midnightblue" d="M106.65,-97.82C130.06,-103.18 157.36,-109.43 179.41,-114.48"/>
<polygon fill="midnightblue" stroke="midnightblue" points="107.42,-94.41 96.89,-95.59 105.86,-101.23 107.42,-94.41"/>
</g>
<!-- Node4 -->
<g id="node5" class="node">
<title>Node4</title>
<g id="a_node5"><a xlink:href="classamr__wind_1_1_b_c_src_term.html" target="_top" xlink:title="Specialization for source terms.">
<polygon fill="white" stroke="black" points="160.5,-76.5 160.5,-95.5 283.5,-95.5 283.5,-76.5 160.5,-76.5"/>
<text text-anchor="middle" x="222" y="-83.5" font-family="Helvetica,sans-Serif" font-size="10.00">amr_wind::BCSrcTerm</text>
</a>
</g>
</g>
<!-- Node0&#45;&gt;Node4 -->
<g id="edge4" class="edge">
<title>Node0&#45;&gt;Node4</title>
<path fill="none" stroke="midnightblue" d="M118.74,-86C132.44,-86 146.88,-86 160.46,-86"/>
<polygon fill="midnightblue" stroke="midnightblue" points="118.44,-82.5 108.44,-86 118.44,-89.5 118.44,-82.5"/>
</g>
<!-- Node5 -->
<g id="node6" class="node">
<title>Node5</title>
<g id="a_node6"><a xlink:href="classamr__wind_1_1_b_c_v_o_f.html" target="_top" xlink:title="BC interface for VOF.">
<polygon fill="white" stroke="black" points="170,-38.5 170,-57.5 274,-57.5 274,-38.5 170,-38.5"/>
<text text-anchor="middle" x="222" y="-45.5" font-family="Helvetica,sans-Serif" font-size="10.00">amr_wind::BCVOF</text>
</a>
</g>
</g>
<!-- Node0&#45;&gt;Node5 -->
<g id="edge5" class="edge">
<title>Node0&#45;&gt;Node5</title>
<path fill="none" stroke="midnightblue" d="M106.65,-74.18C130.06,-68.82 157.36,-62.57 179.41,-57.52"/>
<polygon fill="midnightblue" stroke="midnightblue" points="105.86,-70.77 96.89,-76.41 107.42,-77.59 105.86,-70.77"/>
</g>
<!-- Node6 -->
<g id="node7" class="node">
<title>Node6</title>
<g id="a_node7"><a xlink:href="classamr__wind_1_1_b_c_velocity.html" target="_top" xlink:title="Boundary condition initialization for velocity (ICNS momentum) field.">
<polygon fill="white" stroke="black" points="160.5,-0.5 160.5,-19.5 283.5,-19.5 283.5,-0.5 160.5,-0.5"/>
<text text-anchor="middle" x="222" y="-7.5" font-family="Helvetica,sans-Serif" font-size="10.00">amr_wind::BCVelocity</text>
</a>
</g>
</g>
<!-- Node0&#45;&gt;Node6 -->
<g id="edge6" class="edge">
<title>Node0&#45;&gt;Node6</title>
<path fill="none" stroke="midnightblue" d="M75.47,-70.11C92.84,-57.34 118.88,-39.79 144,-29 152.73,-25.25 162.35,-22.14 171.74,-19.6"/>
<polygon fill="midnightblue" stroke="midnightblue" points="73.13,-67.5 67.23,-76.3 77.33,-73.1 73.13,-67.5"/>
</g>
<!-- Node3 -->
<g id="node4" class="node">
<title>Node3</title>
<g id="a_node4"><a xlink:href="classamr__wind_1_1_b_c_pressure.html" target="_top" xlink:title="Specialization of BC initialization for pressure.">
<polygon fill="white" stroke="black" points="336,-114.5 336,-133.5 462,-133.5 462,-114.5 336,-114.5"/>
<text text-anchor="middle" x="399" y="-121.5" font-family="Helvetica,sans-Serif" font-size="10.00">amr_wind::BCPressure</text>
</a>
</g>
</g>
<!-- Node2&#45;&gt;Node3 -->
<g id="edge3" class="edge">
<title>Node2&#45;&gt;Node3</title>
<path fill="none" stroke="midnightblue" d="M289.64,-124C304.76,-124 320.77,-124 335.71,-124"/>
<polygon fill="midnightblue" stroke="midnightblue" points="289.33,-120.5 279.33,-124 289.33,-127.5 289.33,-120.5"/>
</g>
</g>
</svg>
