<?xml version="1.0" encoding="UTF-8" standalone="no"?>
<!DOCTYPE svg PUBLIC "-//W3C//DTD SVG 1.1//EN"
 "http://www.w3.org/Graphics/SVG/1.1/DTD/svg11.dtd">
<!-- Generated by graphviz version 2.43.0 (0)
 -->
<!-- Title: Graphical Class Hierarchy Pages: 1 -->
<svg width="370pt" height="218pt"
 viewBox="0.00 0.00 370.00 218.00" xmlns="http://www.w3.org/2000/svg" xmlns:xlink="http://www.w3.org/1999/xlink">
<g id="graph0" class="graph" transform="scale(1 1) rotate(0) translate(4 214)">
<title>Graphical Class Hierarchy</title>
<polygon fill="white" stroke="transparent" points="-4,4 -4,-214 366,-214 366,4 -4,4"/>
<!-- Node0 -->
<g id="node1" class="node">
<title>Node0</title>
<g id="a_node1"><a xlink:href="structamr__wind_1_1pde_1_1_scalar_transport.html" target="_top" xlink:title="Characteristics of a scalar transport equation.">
<polygon fill="white" stroke="black" points="0,-95.5 0,-114.5 170,-114.5 170,-95.5 0,-95.5"/>
<text text-anchor="middle" x="85" y="-102.5" font-family="Helvetica,sans-Serif" font-size="10.00">amr_wind::pde::ScalarTransport</text>
</a>
</g>
</g>
<!-- Node1 -->
<g id="node2" class="node">
<title>Node1</title>
<g id="a_node2"><a xlink:href="structamr__wind_1_1pde_1_1_density.html" target="_top" xlink:title=" ">
<polygon fill="white" stroke="black" points="218,-190.5 218,-209.5 350,-209.5 350,-190.5 218,-190.5"/>
<text text-anchor="middle" x="284" y="-197.5" font-family="Helvetica,sans-Serif" font-size="10.00">amr_wind::pde::Density</text>
</a>
</g>
</g>
<!-- Node0&#45;&gt;Node1 -->
<g id="edge1" class="edge">
<title>Node0&#45;&gt;Node1</title>
<path fill="none" stroke="midnightblue" d="M106.49,-120.9C129.5,-138.05 168.55,-165.03 206,-181 214.87,-184.78 224.64,-187.92 234.16,-190.47"/>
<polygon fill="midnightblue" stroke="midnightblue" points="108.3,-117.88 98.21,-114.64 104.07,-123.47 108.3,-117.88"/>
</g>
<!-- Node2 -->
<g id="node3" class="node">
<title>Node2</title>
<g id="a_node3"><a xlink:href="structamr__wind_1_1pde_1_1_levelset.html" target="_top" xlink:title="Characteristics of Levelset transport equation system.">
<polygon fill="white" stroke="black" points="216,-152.5 216,-171.5 352,-171.5 352,-152.5 216,-152.5"/>
<text text-anchor="middle" x="284" y="-159.5" font-family="Helvetica,sans-Serif" font-size="10.00">amr_wind::pde::Levelset</text>
</a>
</g>
</g>
<!-- Node0&#45;&gt;Node2 -->
<g id="edge2" class="edge">
<title>Node0&#45;&gt;Node2</title>
<path fill="none" stroke="midnightblue" d="M124.05,-117.74C147.55,-125.44 178.39,-135.23 206,-143 217.66,-146.28 230.41,-149.55 242.11,-152.43"/>
<polygon fill="midnightblue" stroke="midnightblue" points="125.05,-114.39 114.45,-114.58 122.86,-121.04 125.05,-114.39"/>
</g>
<!-- Node3 -->
<g id="node4" class="node">
<title>Node3</title>
<g id="a_node4"><a xlink:href="structamr__wind_1_1pde_1_1_s_d_r.html" target="_top" xlink:title="Characteristics of SDR transport equation.">
<polygon fill="white" stroke="black" points="226.5,-114.5 226.5,-133.5 341.5,-133.5 341.5,-114.5 226.5,-114.5"/>
<text text-anchor="middle" x="284" y="-121.5" font-family="Helvetica,sans-Serif" font-size="10.00">amr_wind::pde::SDR</text>
</a>
</g>
</g>
<!-- Node0&#45;&gt;Node3 -->
<g id="edge3" class="edge">
<title>Node0&#45;&gt;Node3</title>
<path fill="none" stroke="midnightblue" d="M180.43,-114.11C196.18,-115.63 212.07,-117.16 226.49,-118.55"/>
<polygon fill="midnightblue" stroke="midnightblue" points="180.41,-110.59 170.12,-113.11 179.73,-117.56 180.41,-110.59"/>
</g>
<!-- Node4 -->
<g id="node5" class="node">
<title>Node4</title>
<g id="a_node5"><a xlink:href="structamr__wind_1_1pde_1_1_temperature.html" target="_top" xlink:title="Characteristics of temperature transport equation.">
<polygon fill="white" stroke="black" points="206,-76.5 206,-95.5 362,-95.5 362,-76.5 206,-76.5"/>
<text text-anchor="middle" x="284" y="-83.5" font-family="Helvetica,sans-Serif" font-size="10.00">amr_wind::pde::Temperature</text>
</a>
</g>
</g>
<!-- Node0&#45;&gt;Node4 -->
<g id="edge4" class="edge">
<title>Node0&#45;&gt;Node4</title>
<path fill="none" stroke="midnightblue" d="M180.14,-95.92C188.71,-95.09 197.32,-94.26 205.72,-93.45"/>
<polygon fill="midnightblue" stroke="midnightblue" points="179.73,-92.44 170.12,-96.89 180.41,-99.41 179.73,-92.44"/>
</g>
<!-- Node5 -->
<g id="node6" class="node">
<title>Node5</title>
<g id="a_node6"><a xlink:href="structamr__wind_1_1pde_1_1_t_k_e.html" target="_top" xlink:title="Characteristics of TKE transport equation.">
<polygon fill="white" stroke="black" points="227.5,-38.5 227.5,-57.5 340.5,-57.5 340.5,-38.5 227.5,-38.5"/>
<text text-anchor="middle" x="284" y="-45.5" font-family="Helvetica,sans-Serif" font-size="10.00">amr_wind::pde::TKE</text>
</a>
</g>
</g>
<!-- Node0&#45;&gt;Node5 -->
<g id="edge5" class="edge">
<title>Node0&#45;&gt;Node5</title>
<path fill="none" stroke="midnightblue" d="M124.05,-92.26C147.55,-84.56 178.39,-74.77 206,-67 217.66,-63.72 230.41,-60.45 242.11,-57.57"/>
<polygon fill="midnightblue" stroke="midnightblue" points="122.86,-88.96 114.45,-95.42 125.05,-95.61 122.86,-88.96"/>
</g>
<!-- Node6 -->
<g id="node7" class="node">
<title>Node6</title>
<g id="a_node7"><a xlink:href="structamr__wind_1_1pde_1_1_v_o_f.html" target="_top" xlink:title=" ">
<polygon fill="white" stroke="black" points="226.5,-0.5 226.5,-19.5 341.5,-19.5 341.5,-0.5 226.5,-0.5"/>
<text text-anchor="middle" x="284" y="-7.5" font-family="Helvetica,sans-Serif" font-size="10.00">amr_wind::pde::VOF</text>
</a>
</g>
</g>
<!-- Node0&#45;&gt;Node6 -->
<g id="edge6" class="edge">
<title>Node0&#45;&gt;Node6</title>
<path fill="none" stroke="midnightblue" d="M106.49,-89.1C129.5,-71.95 168.55,-44.97 206,-29 214.87,-25.22 224.64,-22.08 234.16,-19.53"/>
<polygon fill="midnightblue" stroke="midnightblue" points="104.07,-86.53 98.21,-95.36 108.3,-92.12 104.07,-86.53"/>
</g>
</g>
</svg>
