<?xml version="1.0" encoding="UTF-8" standalone="no"?>
<!DOCTYPE svg PUBLIC "-//W3C//DTD SVG 1.1//EN"
 "http://www.w3.org/Graphics/SVG/1.1/DTD/svg11.dtd">
<!-- Generated by graphviz version 2.43.0 (0)
 -->
<!-- Title: Graphical Class Hierarchy Pages: 1 -->
<svg width="375pt" height="921pt"
 viewBox="0.00 0.00 375.00 921.00" xmlns="http://www.w3.org/2000/svg" xmlns:xlink="http://www.w3.org/1999/xlink">
<g id="graph0" class="graph" transform="scale(1 1) rotate(0) translate(4 917)">
<title>Graphical Class Hierarchy</title>
<polygon fill="white" stroke="transparent" points="-4,4 -4,-917 371,-917 371,4 -4,4"/>
<!-- Node0 -->
<g id="node1" class="node">
<title>Node0</title>
<g id="a_node1"><a xlink:href="classamr__wind_1_1_a_b_l_mesoscale_forcing.html" target="_top" xlink:title=" ">
<polygon fill="white" stroke="black" points="0,-128 0,-147 176,-147 176,-128 0,-128"/>
<text text-anchor="middle" x="88" y="-135" font-family="Helvetica,sans-Serif" font-size="10.00">amr_wind::ABLMesoscaleForcing</text>
</a>
</g>
</g>
<!-- Node1 -->
<g id="node2" class="node">
<title>Node1</title>
<g id="a_node2"><a xlink:href="classamr__wind_1_1pde_1_1icns_1_1_a_b_l_meso_forcing_mom.html" target="_top" xlink:title="Forcing term for meso&#45;micro scale coupled ABL simulations.">
<polygon fill="white" stroke="black" points="225.5,-147.5 225.5,-177.5 353.5,-177.5 353.5,-147.5 225.5,-147.5"/>
<text text-anchor="start" x="233.5" y="-165.5" font-family="Helvetica,sans-Serif" font-size="10.00">amr_wind::pde::icns</text>
<text text-anchor="middle" x="289.5" y="-154.5" font-family="Helvetica,sans-Serif" font-size="10.00">::ABLMesoForcingMom</text>
</a>
</g>
</g>
<!-- Node0&#45;&gt;Node1 -->
<g id="edge1" class="edge">
<title>Node0&#45;&gt;Node1</title>
<path fill="none" stroke="midnightblue" d="M175.37,-148.32C192.17,-150.43 209.49,-152.6 225.37,-154.59"/>
<polygon fill="midnightblue" stroke="midnightblue" points="175.35,-144.79 164.99,-147.02 174.48,-151.74 175.35,-144.79"/>
</g>
<!-- Node2 -->
<g id="node3" class="node">
<title>Node2</title>
<g id="a_node3"><a xlink:href="classamr__wind_1_1pde_1_1temperature_1_1_a_b_l_meso_forcing_temp.html" target="_top" xlink:title=" ">
<polygon fill="white" stroke="black" points="212,-98.5 212,-128.5 367,-128.5 367,-98.5 212,-98.5"/>
<text text-anchor="start" x="220" y="-116.5" font-family="Helvetica,sans-Serif" font-size="10.00">amr_wind::pde::temperature</text>
<text text-anchor="middle" x="289.5" y="-105.5" font-family="Helvetica,sans-Serif" font-size="10.00">::ABLMesoForcingTemp</text>
</a>
</g>
</g>
<!-- Node0&#45;&gt;Node2 -->
<g id="edge2" class="edge">
<title>Node0&#45;&gt;Node2</title>
<path fill="none" stroke="midnightblue" d="M178.31,-126.76C189.47,-125.41 200.8,-124.05 211.74,-122.73"/>
<polygon fill="midnightblue" stroke="midnightblue" points="177.64,-123.31 168.13,-127.98 178.48,-130.26 177.64,-123.31"/>
</g>
<!-- Node357 -->
<g id="node4" class="node">
<title>Node357</title>
<g id="a_node4"><a xlink:title=" ">
<polygon fill="white" stroke="#bfbfbf" points="12,-520 12,-539 164,-539 164,-520 12,-520"/>
<text text-anchor="middle" x="88" y="-527" font-family="Helvetica,sans-Serif" font-size="10.00">MomentumSource::Register</text>
</a>
</g>
</g>
<!-- Node357&#45;&gt;Node1 -->
<g id="edge5" class="edge">
<title>Node357&#45;&gt;Node1</title>
<path fill="none" stroke="midnightblue" d="M90.25,-509.67C94.97,-451.57 116.73,-280.02 212,-187.5 216.01,-183.61 220.63,-180.32 225.58,-177.54"/>
<polygon fill="midnightblue" stroke="midnightblue" points="86.75,-509.49 89.51,-519.72 93.73,-510 86.75,-509.49"/>
</g>
<!-- Node358 -->
<g id="node5" class="node">
<title>Node358</title>
<g id="a_node5"><a xlink:href="classamr__wind_1_1pde_1_1icns_1_1_a_b_l_forcing.html" target="_top" xlink:title="Forcing term to drive the ABL profile to a desired state.">
<polygon fill="white" stroke="black" points="232.5,-882.5 232.5,-912.5 346.5,-912.5 346.5,-882.5 232.5,-882.5"/>
<text text-anchor="start" x="240.5" y="-900.5" font-family="Helvetica,sans-Serif" font-size="10.00">amr_wind::pde::icns</text>
<text text-anchor="middle" x="289.5" y="-889.5" font-family="Helvetica,sans-Serif" font-size="10.00">::ABLForcing</text>
</a>
</g>
</g>
<!-- Node357&#45;&gt;Node358 -->
<g id="edge3" class="edge">
<title>Node357&#45;&gt;Node358</title>
<path fill="none" stroke="midnightblue" d="M90.13,-549.11C94.54,-607.3 115.55,-780.78 212,-873.5 217.82,-879.1 224.93,-883.39 232.45,-886.68"/>
<polygon fill="midnightblue" stroke="midnightblue" points="93.61,-548.8 89.45,-539.06 86.63,-549.27 93.61,-548.8"/>
</g>
<!-- Node359 -->
<g id="node6" class="node">
<title>Node359</title>
<g id="a_node6"><a xlink:href="classamr__wind_1_1pde_1_1icns_1_1_a_b_l_mean_boussinesq.html" target="_top" xlink:title="Boussinesq buoyancy source term.">
<polygon fill="white" stroke="black" points="227.5,-833.5 227.5,-863.5 351.5,-863.5 351.5,-833.5 227.5,-833.5"/>
<text text-anchor="start" x="235.5" y="-851.5" font-family="Helvetica,sans-Serif" font-size="10.00">amr_wind::pde::icns</text>
<text text-anchor="middle" x="289.5" y="-840.5" font-family="Helvetica,sans-Serif" font-size="10.00">::ABLMeanBoussinesq</text>
</a>
</g>
</g>
<!-- Node357&#45;&gt;Node359 -->
<g id="edge4" class="edge">
<title>Node357&#45;&gt;Node359</title>
<path fill="none" stroke="midnightblue" d="M91.44,-549.05C99.03,-601.57 127.05,-746.95 212,-824.5 216.52,-828.63 221.75,-832.05 227.31,-834.88"/>
<polygon fill="midnightblue" stroke="midnightblue" points="94.89,-548.5 90.08,-539.06 87.96,-549.44 94.89,-548.5"/>
</g>
<!-- Node360 -->
<g id="node7" class="node">
<title>Node360</title>
<g id="a_node7"><a xlink:href="classamr__wind_1_1pde_1_1icns_1_1_actuator_forcing.html" target="_top" xlink:title="Body forces introduced by turbines modeled as actuators in flow field.">
<polygon fill="white" stroke="black" points="232.5,-784.5 232.5,-814.5 346.5,-814.5 346.5,-784.5 232.5,-784.5"/>
<text text-anchor="start" x="240.5" y="-802.5" font-family="Helvetica,sans-Serif" font-size="10.00">amr_wind::pde::icns</text>
<text text-anchor="middle" x="289.5" y="-791.5" font-family="Helvetica,sans-Serif" font-size="10.00">::ActuatorForcing</text>
</a>
</g>
</g>
<!-- Node357&#45;&gt;Node360 -->
<g id="edge6" class="edge">
<title>Node357&#45;&gt;Node360</title>
<path fill="none" stroke="midnightblue" d="M93.26,-549.15C104.33,-595.58 138.46,-712.85 212,-775.5 217.93,-780.55 224.93,-784.55 232.25,-787.7"/>
<polygon fill="midnightblue" stroke="midnightblue" points="96.62,-548.15 90.98,-539.18 89.79,-549.71 96.62,-548.15"/>
</g>
<!-- Node361 -->
<g id="node8" class="node">
<title>Node361</title>
<g id="a_node8"><a xlink:href="classamr__wind_1_1pde_1_1icns_1_1_body_force.html" target="_top" xlink:title="Apply a user&#45;defined body force as a source term.">
<polygon fill="white" stroke="black" points="232.5,-735.5 232.5,-765.5 346.5,-765.5 346.5,-735.5 232.5,-735.5"/>
<text text-anchor="start" x="240.5" y="-753.5" font-family="Helvetica,sans-Serif" font-size="10.00">amr_wind::pde::icns</text>
<text text-anchor="middle" x="289.5" y="-742.5" font-family="Helvetica,sans-Serif" font-size="10.00">::BodyForce</text>
</a>
</g>
</g>
<!-- Node357&#45;&gt;Node361 -->
<g id="edge7" class="edge">
<title>Node357&#45;&gt;Node361</title>
<path fill="none" stroke="midnightblue" d="M95.79,-548.91C110.59,-588.33 149.48,-678.14 212,-726.5 218.06,-731.18 225.04,-734.96 232.28,-738.01"/>
<polygon fill="midnightblue" stroke="midnightblue" points="99.04,-547.6 92.33,-539.41 92.47,-550 99.04,-547.6"/>
</g>
<!-- Node362 -->
<g id="node9" class="node">
<title>Node362</title>
<g id="a_node9"><a xlink:href="classamr__wind_1_1pde_1_1icns_1_1_boussinesq_buoyancy.html" target="_top" xlink:title="Boussinesq buoyancy source term.">
<polygon fill="white" stroke="black" points="226.5,-686.5 226.5,-716.5 352.5,-716.5 352.5,-686.5 226.5,-686.5"/>
<text text-anchor="start" x="234.5" y="-704.5" font-family="Helvetica,sans-Serif" font-size="10.00">amr_wind::pde::icns</text>
<text text-anchor="middle" x="289.5" y="-693.5" font-family="Helvetica,sans-Serif" font-size="10.00">::BoussinesqBuoyancy</text>
</a>
</g>
</g>
<!-- Node357&#45;&gt;Node362 -->
<g id="edge8" class="edge">
<title>Node357&#45;&gt;Node362</title>
<path fill="none" stroke="midnightblue" d="M99.48,-548.03C118.09,-579.31 159.92,-642.58 212,-677.5 217.09,-680.91 222.68,-683.86 228.47,-686.4"/>
<polygon fill="midnightblue" stroke="midnightblue" points="102.32,-545.96 94.26,-539.08 96.27,-549.48 102.32,-545.96"/>
</g>
<!-- Node363 -->
<g id="node10" class="node">
<title>Node363</title>
<g id="a_node10"><a xlink:href="classamr__wind_1_1pde_1_1icns_1_1_burggraf_flow_forcing.html" target="_top" xlink:title="Body forcing introduced to represent the Burrgraf cavity flow.">
<polygon fill="white" stroke="black" points="228,-637.5 228,-667.5 351,-667.5 351,-637.5 228,-637.5"/>
<text text-anchor="start" x="236" y="-655.5" font-family="Helvetica,sans-Serif" font-size="10.00">amr_wind::pde::icns</text>
<text text-anchor="middle" x="289.5" y="-644.5" font-family="Helvetica,sans-Serif" font-size="10.00">::BurggrafFlowForcing</text>
</a>
</g>
</g>
<!-- Node357&#45;&gt;Node363 -->
<g id="edge9" class="edge">
<title>Node357&#45;&gt;Node363</title>
<path fill="none" stroke="midnightblue" d="M105.61,-546.33C127.96,-568.12 169.8,-605.94 212,-628.5 218.26,-631.85 225.06,-634.81 231.94,-637.42"/>
<polygon fill="midnightblue" stroke="midnightblue" points="107.86,-543.64 98.29,-539.09 102.94,-548.61 107.86,-543.64"/>
</g>
<!-- Node364 -->
<g id="node11" class="node">
<title>Node364</title>
<g id="a_node11"><a xlink:href="classamr__wind_1_1pde_1_1icns_1_1_coriolis_forcing.html" target="_top" xlink:title="Account for Coriolis forcing due to earth&#39;s rotation.">
<polygon fill="white" stroke="black" points="232.5,-588.5 232.5,-618.5 346.5,-618.5 346.5,-588.5 232.5,-588.5"/>
<text text-anchor="start" x="240.5" y="-606.5" font-family="Helvetica,sans-Serif" font-size="10.00">amr_wind::pde::icns</text>
<text text-anchor="middle" x="289.5" y="-595.5" font-family="Helvetica,sans-Serif" font-size="10.00">::CoriolisForcing</text>
</a>
</g>
</g>
<!-- Node357&#45;&gt;Node364 -->
<g id="edge10" class="edge">
<title>Node357&#45;&gt;Node364</title>
<path fill="none" stroke="midnightblue" d="M120.24,-543.03C144.94,-553.52 180.4,-568.14 212,-579.5 220.51,-582.56 229.64,-585.61 238.51,-588.47"/>
<polygon fill="midnightblue" stroke="midnightblue" points="121.58,-539.79 111.01,-539.09 118.83,-546.23 121.58,-539.79"/>
</g>
<!-- Node365 -->
<g id="node12" class="node">
<title>Node365</title>
<g id="a_node12"><a xlink:href="classamr__wind_1_1pde_1_1icns_1_1_density_buoyancy.html" target="_top" xlink:title="Buoyancy term from density variations.">
<polygon fill="white" stroke="black" points="232.5,-539.5 232.5,-569.5 346.5,-569.5 346.5,-539.5 232.5,-539.5"/>
<text text-anchor="start" x="240.5" y="-557.5" font-family="Helvetica,sans-Serif" font-size="10.00">amr_wind::pde::icns</text>
<text text-anchor="middle" x="289.5" y="-546.5" font-family="Helvetica,sans-Serif" font-size="10.00">::DensityBuoyancy</text>
</a>
</g>
</g>
<!-- Node357&#45;&gt;Node365 -->
<g id="edge11" class="edge">
<title>Node357&#45;&gt;Node365</title>
<path fill="none" stroke="midnightblue" d="M174.32,-540.19C193.97,-542.65 214.37,-545.21 232.41,-547.47"/>
<polygon fill="midnightblue" stroke="midnightblue" points="174.5,-536.69 164.14,-538.92 173.63,-543.63 174.5,-536.69"/>
</g>
<!-- Node366 -->
<g id="node13" class="node">
<title>Node366</title>
<g id="a_node13"><a xlink:href="classamr__wind_1_1pde_1_1icns_1_1_geostrophic_forcing.html" target="_top" xlink:title="Apply source term equivalent to drive the flow to match given geostrophic wind.">
<polygon fill="white" stroke="black" points="231.5,-490.5 231.5,-520.5 347.5,-520.5 347.5,-490.5 231.5,-490.5"/>
<text text-anchor="start" x="239.5" y="-508.5" font-family="Helvetica,sans-Serif" font-size="10.00">amr_wind::pde::icns</text>
<text text-anchor="middle" x="289.5" y="-497.5" font-family="Helvetica,sans-Serif" font-size="10.00">::GeostrophicForcing</text>
</a>
</g>
</g>
<!-- Node357&#45;&gt;Node366 -->
<g id="edge12" class="edge">
<title>Node357&#45;&gt;Node366</title>
<path fill="none" stroke="midnightblue" d="M174.17,-519.25C193.53,-516.93 213.62,-514.51 231.47,-512.36"/>
<polygon fill="midnightblue" stroke="midnightblue" points="173.65,-515.79 164.14,-520.46 174.48,-522.74 173.65,-515.79"/>
</g>
<!-- Node367 -->
<g id="node14" class="node">
<title>Node367</title>
<g id="a_node14"><a xlink:href="classamr__wind_1_1pde_1_1icns_1_1_gravity_forcing.html" target="_top" xlink:title="Gravity Forcing term.">
<polygon fill="white" stroke="black" points="232.5,-441.5 232.5,-471.5 346.5,-471.5 346.5,-441.5 232.5,-441.5"/>
<text text-anchor="start" x="240.5" y="-459.5" font-family="Helvetica,sans-Serif" font-size="10.00">amr_wind::pde::icns</text>
<text text-anchor="middle" x="289.5" y="-448.5" font-family="Helvetica,sans-Serif" font-size="10.00">::GravityForcing</text>
</a>
</g>
</g>
<!-- Node357&#45;&gt;Node367 -->
<g id="edge13" class="edge">
<title>Node357&#45;&gt;Node367</title>
<path fill="none" stroke="midnightblue" d="M122.02,-516.03C146.68,-506.12 181.27,-492.51 212,-481.5 221.34,-478.15 231.38,-474.74 241.02,-471.56"/>
<polygon fill="midnightblue" stroke="midnightblue" points="120.39,-512.91 112.43,-519.9 123.02,-519.41 120.39,-512.91"/>
</g>
<!-- Node368 -->
<g id="node15" class="node">
<title>Node368</title>
<g id="a_node15"><a xlink:href="classamr__wind_1_1pde_1_1icns_1_1_hurricane_forcing.html" target="_top" xlink:title="Idealized Hurricane forcing source term Apply mesoscale tendency source term to drive the flow and ma...">
<polygon fill="white" stroke="black" points="232.5,-392.5 232.5,-422.5 346.5,-422.5 346.5,-392.5 232.5,-392.5"/>
<text text-anchor="start" x="240.5" y="-410.5" font-family="Helvetica,sans-Serif" font-size="10.00">amr_wind::pde::icns</text>
<text text-anchor="middle" x="289.5" y="-399.5" font-family="Helvetica,sans-Serif" font-size="10.00">::HurricaneForcing</text>
</a>
</g>
</g>
<!-- Node357&#45;&gt;Node368 -->
<g id="edge14" class="edge">
<title>Node357&#45;&gt;Node368</title>
<path fill="none" stroke="midnightblue" d="M106.06,-512.78C128.61,-491.49 170.37,-454.8 212,-432.5 219.02,-428.74 226.71,-425.41 234.42,-422.52"/>
<polygon fill="midnightblue" stroke="midnightblue" points="103.46,-510.42 98.66,-519.87 108.3,-515.48 103.46,-510.42"/>
</g>
<!-- Node369 -->
<g id="node16" class="node">
<title>Node369</title>
<g id="a_node16"><a xlink:href="classamr__wind_1_1pde_1_1icns_1_1_non_linear_s_g_s_term.html" target="_top" xlink:title="Adds the non&#45;linear terms from the Kosovic Model to Momentum Equation.">
<polygon fill="white" stroke="black" points="231.5,-343.5 231.5,-373.5 347.5,-373.5 347.5,-343.5 231.5,-343.5"/>
<text text-anchor="start" x="239.5" y="-361.5" font-family="Helvetica,sans-Serif" font-size="10.00">amr_wind::pde::icns</text>
<text text-anchor="middle" x="289.5" y="-350.5" font-family="Helvetica,sans-Serif" font-size="10.00">::NonLinearSGSTerm</text>
</a>
</g>
</g>
<!-- Node357&#45;&gt;Node369 -->
<g id="edge15" class="edge">
<title>Node357&#45;&gt;Node369</title>
<path fill="none" stroke="midnightblue" d="M99.86,-510.84C118.76,-479.94 160.67,-418.11 212,-383.5 217.91,-379.52 224.5,-376.13 231.26,-373.25"/>
<polygon fill="midnightblue" stroke="midnightblue" points="96.68,-509.34 94.54,-519.72 102.68,-512.94 96.68,-509.34"/>
</g>
<!-- Node370 -->
<g id="node17" class="node">
<title>Node370</title>
<g id="a_node17"><a xlink:href="classamr__wind_1_1pde_1_1icns_1_1_rayleigh_damping.html" target="_top" xlink:title="Apply Rayleigh damping as a source terms.">
<polygon fill="white" stroke="black" points="232.5,-294.5 232.5,-324.5 346.5,-324.5 346.5,-294.5 232.5,-294.5"/>
<text text-anchor="start" x="240.5" y="-312.5" font-family="Helvetica,sans-Serif" font-size="10.00">amr_wind::pde::icns</text>
<text text-anchor="middle" x="289.5" y="-301.5" font-family="Helvetica,sans-Serif" font-size="10.00">::RayleighDamping</text>
</a>
</g>
</g>
<!-- Node357&#45;&gt;Node370 -->
<g id="edge16" class="edge">
<title>Node357&#45;&gt;Node370</title>
<path fill="none" stroke="midnightblue" d="M95.99,-510.1C111.05,-471.06 150.24,-382.63 212,-334.5 218.06,-329.78 225.05,-325.93 232.29,-322.8"/>
<polygon fill="midnightblue" stroke="midnightblue" points="92.62,-509.14 92.39,-519.73 99.17,-511.59 92.62,-509.14"/>
</g>
<!-- Node371 -->
<g id="node18" class="node">
<title>Node371</title>
<g id="a_node18"><a xlink:href="classamr__wind_1_1pde_1_1icns_1_1_synth_turb_forcing.html" target="_top" xlink:title="Synthetic turbulence momentum source term.">
<polygon fill="white" stroke="black" points="232.5,-245.5 232.5,-275.5 346.5,-275.5 346.5,-245.5 232.5,-245.5"/>
<text text-anchor="start" x="240.5" y="-263.5" font-family="Helvetica,sans-Serif" font-size="10.00">amr_wind::pde::icns</text>
<text text-anchor="middle" x="289.5" y="-252.5" font-family="Helvetica,sans-Serif" font-size="10.00">::SynthTurbForcing</text>
</a>
</g>
</g>
<!-- Node357&#45;&gt;Node371 -->
<g id="edge17" class="edge">
<title>Node357&#45;&gt;Node371</title>
<path fill="none" stroke="midnightblue" d="M93.35,-510.06C104.65,-464.13 139.21,-348.05 212,-285.5 217.93,-280.4 224.93,-276.34 232.25,-273.1"/>
<polygon fill="midnightblue" stroke="midnightblue" points="89.92,-509.39 91.03,-519.93 96.73,-511 89.92,-509.39"/>
</g>
<!-- Node372 -->
<g id="node19" class="node">
<title>Node372</title>
<g id="a_node19"><a xlink:href="classamr__wind_1_1pde_1_1icns_1_1mms_1_1_m_m_s_forcing.html" target="_top" xlink:title=" ">
<polygon fill="white" stroke="black" points="232.5,-196.5 232.5,-226.5 346.5,-226.5 346.5,-196.5 232.5,-196.5"/>
<text text-anchor="start" x="240.5" y="-214.5" font-family="Helvetica,sans-Serif" font-size="10.00">amr_wind::pde::icns</text>
<text text-anchor="middle" x="289.5" y="-203.5" font-family="Helvetica,sans-Serif" font-size="10.00">::mms::MMSForcing</text>
</a>
</g>
</g>
<!-- Node357&#45;&gt;Node372 -->
<g id="edge18" class="edge">
<title>Node357&#45;&gt;Node372</title>
<path fill="none" stroke="midnightblue" d="M91.58,-509.78C99.48,-457.45 128.09,-313.82 212,-236.5 217.86,-231.1 224.9,-226.87 232.31,-223.55"/>
<polygon fill="midnightblue" stroke="midnightblue" points="88.11,-509.37 90.17,-519.76 95.04,-510.35 88.11,-509.37"/>
</g>
<!-- Node434 -->
<g id="node20" class="node">
<title>Node434</title>
<g id="a_node20"><a xlink:title=" ">
<polygon fill="white" stroke="#bfbfbf" points="29.5,-49.5 29.5,-79.5 146.5,-79.5 146.5,-49.5 29.5,-49.5"/>
<text text-anchor="start" x="37.5" y="-67.5" font-family="Helvetica,sans-Serif" font-size="10.00">TemperatureSource::</text>
<text text-anchor="middle" x="88" y="-56.5" font-family="Helvetica,sans-Serif" font-size="10.00">Register</text>
</a>
</g>
</g>
<!-- Node434&#45;&gt;Node2 -->
<g id="edge19" class="edge">
<title>Node434&#45;&gt;Node2</title>
<path fill="none" stroke="midnightblue" d="M156.65,-81.12C179.47,-86.72 204.79,-92.94 227.1,-98.42"/>
<polygon fill="midnightblue" stroke="midnightblue" points="157.25,-77.66 146.7,-78.67 155.58,-84.46 157.25,-77.66"/>
</g>
<!-- Node435 -->
<g id="node21" class="node">
<title>Node435</title>
<g id="a_node21"><a xlink:href="classamr__wind_1_1pde_1_1temperature_1_1_body_force.html" target="_top" xlink:title=" ">
<polygon fill="white" stroke="black" points="212,-49.5 212,-79.5 367,-79.5 367,-49.5 212,-49.5"/>
<text text-anchor="start" x="220" y="-67.5" font-family="Helvetica,sans-Serif" font-size="10.00">amr_wind::pde::temperature</text>
<text text-anchor="middle" x="289.5" y="-56.5" font-family="Helvetica,sans-Serif" font-size="10.00">::BodyForce</text>
</a>
</g>
</g>
<!-- Node434&#45;&gt;Node435 -->
<g id="edge20" class="edge">
<title>Node434&#45;&gt;Node435</title>
<path fill="none" stroke="midnightblue" d="M156.94,-64.5C174.65,-64.5 193.86,-64.5 211.99,-64.5"/>
<polygon fill="midnightblue" stroke="midnightblue" points="156.7,-61 146.7,-64.5 156.7,-68 156.7,-61"/>
</g>
<!-- Node436 -->
<g id="node22" class="node">
<title>Node436</title>
<g id="a_node22"><a xlink:href="classamr__wind_1_1pde_1_1temperature_1_1_hurricane_temp_forcing.html" target="_top" xlink:title=" ">
<polygon fill="white" stroke="black" points="212,-0.5 212,-30.5 367,-30.5 367,-0.5 212,-0.5"/>
<text text-anchor="start" x="220" y="-18.5" font-family="Helvetica,sans-Serif" font-size="10.00">amr_wind::pde::temperature</text>
<text text-anchor="middle" x="289.5" y="-7.5" font-family="Helvetica,sans-Serif" font-size="10.00">::HurricaneTempForcing</text>
</a>
</g>
</g>
<!-- Node434&#45;&gt;Node436 -->
<g id="edge21" class="edge">
<title>Node434&#45;&gt;Node436</title>
<path fill="none" stroke="midnightblue" d="M156.65,-47.88C179.47,-42.28 204.79,-36.06 227.1,-30.58"/>
<polygon fill="midnightblue" stroke="midnightblue" points="155.58,-44.54 146.7,-50.33 157.25,-51.34 155.58,-44.54"/>
</g>
</g>
</svg>
