<?xml version="1.0" encoding="UTF-8" standalone="no"?>
<!DOCTYPE svg PUBLIC "-//W3C//DTD SVG 1.1//EN"
 "http://www.w3.org/Graphics/SVG/1.1/DTD/svg11.dtd">
<!-- Generated by graphviz version 2.43.0 (0)
 -->
<!-- Title: io.cpp Pages: 1 -->
<svg width="3032pt" height="397pt"
 viewBox="0.00 0.00 3031.98 397.00" xmlns="http://www.w3.org/2000/svg" xmlns:xlink="http://www.w3.org/1999/xlink">
<g id="graph0" class="graph" transform="scale(1 1) rotate(0) translate(4 393)">
<title>io.cpp</title>
<polygon fill="white" stroke="transparent" points="-4,4 -4,-393 3027.98,-393 3027.98,4 -4,4"/>
<!-- Node1 -->
<g id="node1" class="node">
<title>Node1</title>
<g id="a_node1"><a xlink:title=" ">
<polygon fill="#bfbfbf" stroke="black" points="2534.5,-369.5 2534.5,-388.5 2580.5,-388.5 2580.5,-369.5 2534.5,-369.5"/>
<text text-anchor="middle" x="2557.5" y="-376.5" font-family="Helvetica,sans-Serif" font-size="10.00">io.cpp</text>
</a>
</g>
</g>
<!-- Node2 -->
<g id="node2" class="node">
<title>Node2</title>
<g id="a_node2"><a xlink:title=" ">
<polygon fill="white" stroke="#bfbfbf" points="0,-246.5 0,-265.5 119,-265.5 119,-246.5 0,-246.5"/>
<text text-anchor="middle" x="59.5" y="-253.5" font-family="Helvetica,sans-Serif" font-size="10.00">AMReX_ParmParse.H</text>
</a>
</g>
</g>
<!-- Node1&#45;&gt;Node2 -->
<g id="edge1" class="edge">
<title>Node1&#45;&gt;Node2</title>
<path fill="none" stroke="midnightblue" d="M2534.44,-377.68C2352.17,-375 1125.4,-354.15 133.5,-266 132.19,-265.88 130.88,-265.76 129.55,-265.64"/>
<polygon fill="midnightblue" stroke="midnightblue" points="129.54,-262.12 119.24,-264.6 128.84,-269.08 129.54,-262.12"/>
</g>
<!-- Node3 -->
<g id="node3" class="node">
<title>Node3</title>
<g id="a_node3"><a xlink:title=" ">
<polygon fill="white" stroke="#bfbfbf" points="2784,-308 2784,-327 2905,-327 2905,-308 2784,-308"/>
<text text-anchor="middle" x="2844.5" y="-315" font-family="Helvetica,sans-Serif" font-size="10.00">AMReX_PlotFileUtil.H</text>
</a>
</g>
</g>
<!-- Node1&#45;&gt;Node3 -->
<g id="edge2" class="edge">
<title>Node1&#45;&gt;Node3</title>
<path fill="none" stroke="midnightblue" d="M2580.5,-373.23C2626.43,-363.71 2730.47,-342.14 2793.36,-329.1"/>
<polygon fill="midnightblue" stroke="midnightblue" points="2794.38,-332.46 2803.47,-327.01 2792.96,-325.61 2794.38,-332.46"/>
</g>
<!-- Node4 -->
<g id="node4" class="node">
<title>Node4</title>
<g id="a_node4"><a xlink:href="incflo_8_h.html" target="_top" xlink:title=" ">
<polygon fill="white" stroke="black" points="1333,-308 1333,-327 1436,-327 1436,-308 1333,-308"/>
<text text-anchor="middle" x="1384.5" y="-315" font-family="Helvetica,sans-Serif" font-size="10.00">amr&#45;wind/incflo.H</text>
</a>
</g>
</g>
<!-- Node1&#45;&gt;Node4 -->
<g id="edge3" class="edge">
<title>Node1&#45;&gt;Node4</title>
<path fill="none" stroke="midnightblue" d="M2534.33,-376.82C2394.75,-369.74 1664.46,-332.7 1446.18,-321.63"/>
<polygon fill="midnightblue" stroke="midnightblue" points="1446.34,-318.13 1436.18,-321.12 1445.99,-325.12 1446.34,-318.13"/>
</g>
<!-- Node40 -->
<g id="node40" class="node">
<title>Node40</title>
<g id="a_node40"><a xlink:href="_physics_8_h.html" target="_top" xlink:title=" ">
<polygon fill="white" stroke="black" points="2313,-185 2313,-204 2450,-204 2450,-185 2313,-185"/>
<text text-anchor="middle" x="2381.5" y="-192" font-family="Helvetica,sans-Serif" font-size="10.00">amr&#45;wind/core/Physics.H</text>
</a>
</g>
</g>
<!-- Node1&#45;&gt;Node40 -->
<g id="edge77" class="edge">
<title>Node1&#45;&gt;Node40</title>
<path fill="none" stroke="midnightblue" d="M2549.01,-369.2C2521.31,-340.47 2433.24,-249.15 2397.15,-211.73"/>
<polygon fill="midnightblue" stroke="midnightblue" points="2399.36,-208.98 2389.9,-204.21 2394.33,-213.84 2399.36,-208.98"/>
</g>
<!-- Node42 -->
<g id="node42" class="node">
<title>Node42</title>
<g id="a_node42"><a xlink:href="console__io_8_h.html" target="_top" xlink:title=" ">
<polygon fill="white" stroke="black" points="2550,-302.5 2550,-332.5 2653,-332.5 2653,-302.5 2550,-302.5"/>
<text text-anchor="start" x="2558" y="-320.5" font-family="Helvetica,sans-Serif" font-size="10.00">amr&#45;wind/utilities</text>
<text text-anchor="middle" x="2601.5" y="-309.5" font-family="Helvetica,sans-Serif" font-size="10.00">/console_io.H</text>
</a>
</g>
</g>
<!-- Node1&#45;&gt;Node42 -->
<g id="edge78" class="edge">
<title>Node1&#45;&gt;Node42</title>
<path fill="none" stroke="midnightblue" d="M2563.8,-369.48C2569.37,-361.94 2577.74,-350.63 2585.18,-340.57"/>
<polygon fill="midnightblue" stroke="midnightblue" points="2588,-342.64 2591.13,-332.52 2582.37,-338.48 2588,-342.64"/>
</g>
<!-- Node44 -->
<g id="node44" class="node">
<title>Node44</title>
<g id="a_node44"><a xlink:href="_i_o_manager_8_h.html" target="_top" xlink:title=" ">
<polygon fill="white" stroke="black" points="2704,-112.5 2704,-142.5 2807,-142.5 2807,-112.5 2704,-112.5"/>
<text text-anchor="start" x="2712" y="-130.5" font-family="Helvetica,sans-Serif" font-size="10.00">amr&#45;wind/utilities</text>
<text text-anchor="middle" x="2755.5" y="-119.5" font-family="Helvetica,sans-Serif" font-size="10.00">/IOManager.H</text>
</a>
</g>
</g>
<!-- Node1&#45;&gt;Node44 -->
<g id="edge81" class="edge">
<title>Node1&#45;&gt;Node44</title>
<path fill="none" stroke="midnightblue" d="M2580.57,-371.78C2621.12,-359.45 2703.96,-327.58 2736.5,-266 2755.49,-230.07 2757.7,-181.82 2757.01,-153.07"/>
<polygon fill="midnightblue" stroke="midnightblue" points="2760.49,-152.58 2756.61,-142.72 2753.5,-152.85 2760.49,-152.58"/>
</g>
<!-- Node4&#45;&gt;Node2 -->
<g id="edge6" class="edge">
<title>Node4&#45;&gt;Node2</title>
<path fill="none" stroke="midnightblue" d="M1332.87,-315.91C1161.79,-313.63 597.96,-303.56 133.5,-266 132.19,-265.89 130.88,-265.78 129.55,-265.67"/>
<polygon fill="midnightblue" stroke="midnightblue" points="129.52,-262.15 119.23,-264.68 128.86,-269.12 129.52,-262.15"/>
</g>
<!-- Node5 -->
<g id="node5" class="node">
<title>Node5</title>
<g id="a_node5"><a xlink:title=" ">
<polygon fill="white" stroke="#bfbfbf" points="1596.5,-118 1596.5,-137 1706.5,-137 1706.5,-118 1596.5,-118"/>
<text text-anchor="middle" x="1651.5" y="-125" font-family="Helvetica,sans-Serif" font-size="10.00">AMReX_AmrCore.H</text>
</a>
</g>
</g>
<!-- Node4&#45;&gt;Node5 -->
<g id="edge4" class="edge">
<title>Node4&#45;&gt;Node5</title>
<path fill="none" stroke="midnightblue" d="M1436.04,-314.93C1479.38,-311.12 1540.77,-299.59 1582.5,-266 1621.06,-234.96 1639.95,-176.8 1647.44,-147.06"/>
<polygon fill="midnightblue" stroke="midnightblue" points="1650.89,-147.7 1649.77,-137.16 1644.07,-146.09 1650.89,-147.7"/>
</g>
<!-- Node6 -->
<g id="node6" class="node">
<title>Node6</title>
<g id="a_node6"><a xlink:title=" ">
<polygon fill="white" stroke="#bfbfbf" points="1245.5,-246.5 1245.5,-265.5 1371.5,-265.5 1371.5,-246.5 1245.5,-246.5"/>
<text text-anchor="middle" x="1308.5" y="-253.5" font-family="Helvetica,sans-Serif" font-size="10.00">AMReX_MultiFabUtil.H</text>
</a>
</g>
</g>
<!-- Node4&#45;&gt;Node6 -->
<g id="edge5" class="edge">
<title>Node4&#45;&gt;Node6</title>
<path fill="none" stroke="midnightblue" d="M1373.61,-307.98C1361.53,-298.52 1341.83,-283.1 1327.26,-271.69"/>
<polygon fill="midnightblue" stroke="midnightblue" points="1329.4,-268.92 1319.37,-265.51 1325.09,-274.43 1329.4,-268.92"/>
</g>
<!-- Node7 -->
<g id="node7" class="node">
<title>Node7</title>
<g id="a_node7"><a xlink:title=" ">
<polygon fill="white" stroke="#bfbfbf" points="422.5,-56.5 422.5,-75.5 534.5,-75.5 534.5,-56.5 422.5,-56.5"/>
<text text-anchor="middle" x="478.5" y="-63.5" font-family="Helvetica,sans-Serif" font-size="10.00">AMReX_iMultiFab.H</text>
</a>
</g>
</g>
<!-- Node4&#45;&gt;Node7 -->
<g id="edge7" class="edge">
<title>Node4&#45;&gt;Node7</title>
<path fill="none" stroke="midnightblue" d="M1332.98,-313.33C1110.36,-299.1 238.93,-237.6 166.5,-143 158.12,-132.06 157.48,-122.41 166.5,-112 197.6,-76.1 329.96,-68.19 411.97,-66.83"/>
<polygon fill="midnightblue" stroke="midnightblue" points="412.25,-70.32 422.2,-66.68 412.16,-63.32 412.25,-70.32"/>
</g>
<!-- Node8 -->
<g id="node8" class="node">
<title>Node8</title>
<g id="a_node8"><a xlink:title=" ">
<polygon fill="white" stroke="#bfbfbf" points="1390,-246.5 1390,-265.5 1529,-265.5 1529,-246.5 1390,-246.5"/>
<text text-anchor="middle" x="1459.5" y="-253.5" font-family="Helvetica,sans-Serif" font-size="10.00">AMReX_NodalProjector.H</text>
</a>
</g>
</g>
<!-- Node4&#45;&gt;Node8 -->
<g id="edge8" class="edge">
<title>Node4&#45;&gt;Node8</title>
<path fill="none" stroke="midnightblue" d="M1395.25,-307.98C1407.05,-298.61 1426.24,-283.38 1440.58,-272.01"/>
<polygon fill="midnightblue" stroke="midnightblue" points="1443.12,-274.47 1448.77,-265.51 1438.76,-268.98 1443.12,-274.47"/>
</g>
<!-- Node9 -->
<g id="node9" class="node">
<title>Node9</title>
<g id="a_node9"><a xlink:href="incflo__enums_8_h.html" target="_top" xlink:title=" ">
<polygon fill="white" stroke="black" points="1756,-56.5 1756,-75.5 1897,-75.5 1897,-56.5 1756,-56.5"/>
<text text-anchor="middle" x="1826.5" y="-63.5" font-family="Helvetica,sans-Serif" font-size="10.00">amr&#45;wind/incflo_enums.H</text>
</a>
</g>
</g>
<!-- Node4&#45;&gt;Node9 -->
<g id="edge9" class="edge">
<title>Node4&#45;&gt;Node9</title>
<path fill="none" stroke="midnightblue" d="M1436.15,-311.39C1469.16,-305.53 1510.67,-292.97 1537.5,-266 1588.26,-214.99 1533.47,-159.53 1587.5,-112 1599.99,-101.01 1687.74,-86.49 1753.32,-76.95"/>
<polygon fill="midnightblue" stroke="midnightblue" points="1753.83,-80.42 1763.23,-75.53 1752.83,-73.49 1753.83,-80.42"/>
</g>
<!-- Node10 -->
<g id="node10" class="node">
<title>Node10</title>
<g id="a_node10"><a xlink:href="_c_f_d_sim_8_h.html" target="_top" xlink:title=" ">
<polygon fill="white" stroke="black" points="1634.5,-246.5 1634.5,-265.5 1750.5,-265.5 1750.5,-246.5 1634.5,-246.5"/>
<text text-anchor="middle" x="1692.5" y="-253.5" font-family="Helvetica,sans-Serif" font-size="10.00">amr&#45;wind/CFDSim.H</text>
</a>
</g>
</g>
<!-- Node4&#45;&gt;Node10 -->
<g id="edge10" class="edge">
<title>Node4&#45;&gt;Node10</title>
<path fill="none" stroke="midnightblue" d="M1428.63,-307.98C1483.98,-297.28 1578.84,-278.96 1638.47,-267.44"/>
<polygon fill="midnightblue" stroke="midnightblue" points="1639.3,-270.84 1648.45,-265.51 1637.97,-263.97 1639.3,-270.84"/>
</g>
<!-- Node11 -->
<g id="node11" class="node">
<title>Node11</title>
<g id="a_node11"><a xlink:href="_sim_time_8_h.html" target="_top" xlink:title=" ">
<polygon fill="white" stroke="black" points="423.5,-185 423.5,-204 567.5,-204 567.5,-185 423.5,-185"/>
<text text-anchor="middle" x="495.5" y="-192" font-family="Helvetica,sans-Serif" font-size="10.00">amr&#45;wind/core/SimTime.H</text>
</a>
</g>
</g>
<!-- Node4&#45;&gt;Node11 -->
<g id="edge75" class="edge">
<title>Node4&#45;&gt;Node11</title>
<path fill="none" stroke="midnightblue" d="M1332.86,-309.47C1182.17,-288.96 742.63,-229.14 568.13,-205.39"/>
<polygon fill="midnightblue" stroke="midnightblue" points="568.4,-201.89 558.02,-204.01 567.46,-208.83 568.4,-201.89"/>
</g>
<!-- Node15 -->
<g id="node15" class="node">
<title>Node15</title>
<g id="a_node15"><a xlink:href="_field_repo_8_h.html" target="_top" xlink:title=" ">
<polygon fill="white" stroke="black" points="1137,-185 1137,-204 1286,-204 1286,-185 1137,-185"/>
<text text-anchor="middle" x="1211.5" y="-192" font-family="Helvetica,sans-Serif" font-size="10.00">amr&#45;wind/core/FieldRepo.H</text>
</a>
</g>
</g>
<!-- Node4&#45;&gt;Node15 -->
<g id="edge76" class="edge">
<title>Node4&#45;&gt;Node15</title>
<path fill="none" stroke="midnightblue" d="M1332.98,-310.38C1301.42,-304.11 1262.28,-291.47 1236.5,-266 1222.53,-252.19 1216.34,-230.08 1213.61,-214.31"/>
<polygon fill="midnightblue" stroke="midnightblue" points="1217.04,-213.56 1212.18,-204.15 1210.11,-214.54 1217.04,-213.56"/>
</g>
<!-- Node10&#45;&gt;Node5 -->
<g id="edge11" class="edge">
<title>Node10&#45;&gt;Node5</title>
<path fill="none" stroke="midnightblue" d="M1689.68,-246.31C1683.07,-225.9 1666.44,-174.6 1657.47,-146.91"/>
<polygon fill="midnightblue" stroke="midnightblue" points="1660.75,-145.69 1654.34,-137.26 1654.09,-147.85 1660.75,-145.69"/>
</g>
<!-- Node10&#45;&gt;Node11 -->
<g id="edge12" class="edge">
<title>Node10&#45;&gt;Node11</title>
<path fill="none" stroke="midnightblue" d="M1634.36,-251.49C1605.28,-249.77 1569.53,-247.71 1537.5,-246 1180.19,-226.97 753.79,-207.23 577.74,-199.22"/>
<polygon fill="midnightblue" stroke="midnightblue" points="577.67,-195.71 567.52,-198.75 577.35,-202.7 577.67,-195.71"/>
</g>
<!-- Node10&#45;&gt;Node15 -->
<g id="edge16" class="edge">
<title>Node10&#45;&gt;Node15</title>
<path fill="none" stroke="midnightblue" d="M1634.48,-247.82C1548.57,-237.2 1387.29,-217.25 1290.61,-205.29"/>
<polygon fill="midnightblue" stroke="midnightblue" points="1290.95,-201.8 1280.6,-204.05 1290.09,-208.75 1290.95,-201.8"/>
</g>
<!-- Node32 -->
<g id="node32" class="node">
<title>Node32</title>
<g id="a_node32"><a xlink:href="_p_d_e_base_8_h.html" target="_top" xlink:title=" ">
<polygon fill="white" stroke="black" points="1900,-179.5 1900,-209.5 2055,-209.5 2055,-179.5 1900,-179.5"/>
<text text-anchor="start" x="1908" y="-197.5" font-family="Helvetica,sans-Serif" font-size="10.00">amr&#45;wind/equation_systems</text>
<text text-anchor="middle" x="1977.5" y="-186.5" font-family="Helvetica,sans-Serif" font-size="10.00">/PDEBase.H</text>
</a>
</g>
</g>
<!-- Node10&#45;&gt;Node32 -->
<g id="edge53" class="edge">
<title>Node10&#45;&gt;Node32</title>
<path fill="none" stroke="midnightblue" d="M1733.33,-246.48C1776.8,-237.4 1846.61,-222.83 1900.47,-211.58"/>
<polygon fill="midnightblue" stroke="midnightblue" points="1901.26,-214.99 1910.33,-209.52 1899.83,-208.14 1901.26,-214.99"/>
</g>
<!-- Node10&#45;&gt;Node40 -->
<g id="edge70" class="edge">
<title>Node10&#45;&gt;Node40</title>
<path fill="none" stroke="midnightblue" d="M1750.65,-249.98C1874.17,-239.31 2162.81,-214.39 2302.71,-202.3"/>
<polygon fill="midnightblue" stroke="midnightblue" points="2303.27,-205.77 2312.93,-201.42 2302.66,-198.8 2303.27,-205.77"/>
</g>
<!-- Node12 -->
<g id="node12" class="node">
<title>Node12</title>
<g id="a_node12"><a xlink:title=" ">
<polygon fill="white" stroke="#bfbfbf" points="175.5,-118 175.5,-137 267.5,-137 267.5,-118 175.5,-118"/>
<text text-anchor="middle" x="221.5" y="-125" font-family="Helvetica,sans-Serif" font-size="10.00">AMReX_REAL.H</text>
</a>
</g>
</g>
<!-- Node11&#45;&gt;Node12 -->
<g id="edge13" class="edge">
<title>Node11&#45;&gt;Node12</title>
<path fill="none" stroke="midnightblue" d="M456.64,-184.92C412.8,-175.16 339.38,-158.53 276.5,-143 272.12,-141.92 267.55,-140.76 263.01,-139.59"/>
<polygon fill="midnightblue" stroke="midnightblue" points="263.72,-136.16 253.16,-137.03 261.95,-142.93 263.72,-136.16"/>
</g>
<!-- Node13 -->
<g id="node13" class="node">
<title>Node13</title>
<g id="a_node13"><a xlink:title=" ">
<polygon fill="white" stroke="#bfbfbf" points="285.5,-118 285.5,-137 419.5,-137 419.5,-118 285.5,-118"/>
<text text-anchor="middle" x="352.5" y="-125" font-family="Helvetica,sans-Serif" font-size="10.00">AMReX_GpuQualifiers.H</text>
</a>
</g>
</g>
<!-- Node11&#45;&gt;Node13 -->
<g id="edge14" class="edge">
<title>Node11&#45;&gt;Node13</title>
<path fill="none" stroke="midnightblue" d="M476.51,-184.87C452.04,-173.75 409.3,-154.32 380.94,-141.43"/>
<polygon fill="midnightblue" stroke="midnightblue" points="382.12,-138.12 371.57,-137.17 379.22,-144.49 382.12,-138.12"/>
</g>
<!-- Node14 -->
<g id="node14" class="node">
<title>Node14</title>
<g id="a_node14"><a xlink:title=" ">
<polygon fill="white" stroke="#bfbfbf" points="437.5,-118 437.5,-137 553.5,-137 553.5,-118 437.5,-118"/>
<text text-anchor="middle" x="495.5" y="-125" font-family="Helvetica,sans-Serif" font-size="10.00">AMReX_Extension.H</text>
</a>
</g>
</g>
<!-- Node11&#45;&gt;Node14 -->
<g id="edge15" class="edge">
<title>Node11&#45;&gt;Node14</title>
<path fill="none" stroke="midnightblue" d="M495.5,-184.73C495.5,-175.18 495.5,-159.62 495.5,-147.28"/>
<polygon fill="midnightblue" stroke="midnightblue" points="499,-147.13 495.5,-137.13 492,-147.13 499,-147.13"/>
</g>
<!-- Node15&#45;&gt;Node5 -->
<g id="edge50" class="edge">
<title>Node15&#45;&gt;Node5</title>
<path fill="none" stroke="midnightblue" d="M1269.47,-184.94C1351.32,-172.84 1500.31,-150.83 1586.04,-138.17"/>
<polygon fill="midnightblue" stroke="midnightblue" points="1586.79,-141.6 1596.17,-136.67 1585.77,-134.67 1586.79,-141.6"/>
</g>
<!-- Node15&#45;&gt;Node7 -->
<g id="edge52" class="edge">
<title>Node15&#45;&gt;Node7</title>
<path fill="none" stroke="midnightblue" d="M1136.99,-191.83C1003.21,-188.02 727.94,-176.29 638.5,-143 616.42,-134.78 616.22,-123.21 595.5,-112 570.21,-98.32 539.86,-86.77 516.41,-78.8"/>
<polygon fill="midnightblue" stroke="midnightblue" points="517.41,-75.45 506.81,-75.61 515.2,-82.09 517.41,-75.45"/>
</g>
<!-- Node16 -->
<g id="node16" class="node">
<title>Node16</title>
<g id="a_node16"><a xlink:title=" ">
<polygon fill="white" stroke="#bfbfbf" points="1514.5,-0.5 1514.5,-19.5 1558.5,-19.5 1558.5,-0.5 1514.5,-0.5"/>
<text text-anchor="middle" x="1536.5" y="-7.5" font-family="Helvetica,sans-Serif" font-size="10.00">string</text>
</a>
</g>
</g>
<!-- Node15&#45;&gt;Node16 -->
<g id="edge17" class="edge">
<title>Node15&#45;&gt;Node16</title>
<path fill="none" stroke="midnightblue" d="M1227.07,-184.99C1244.24,-175.41 1272.48,-159.08 1295.5,-143 1346.03,-107.71 1349.47,-85.67 1403.5,-56 1435.9,-38.21 1476.58,-25.71 1504.36,-18.47"/>
<polygon fill="midnightblue" stroke="midnightblue" points="1505.49,-21.79 1514.33,-15.95 1503.78,-15.01 1505.49,-21.79"/>
</g>
<!-- Node17 -->
<g id="node17" class="node">
<title>Node17</title>
<g id="a_node17"><a xlink:title=" ">
<polygon fill="white" stroke="#bfbfbf" points="2134,-56.5 2134,-75.5 2227,-75.5 2227,-56.5 2134,-56.5"/>
<text text-anchor="middle" x="2180.5" y="-63.5" font-family="Helvetica,sans-Serif" font-size="10.00">unordered_map</text>
</a>
</g>
</g>
<!-- Node15&#45;&gt;Node17 -->
<g id="edge18" class="edge">
<title>Node15&#45;&gt;Node17</title>
<path fill="none" stroke="midnightblue" d="M1286.17,-185.57C1347.49,-177.96 1436.19,-164.42 1511.5,-143 1546.59,-133.02 1551.96,-120.21 1587.5,-112 1817.37,-58.88 1884.98,-101.8 2123.76,-75.95"/>
<polygon fill="midnightblue" stroke="midnightblue" points="2124.24,-79.42 2133.79,-74.84 2123.47,-72.46 2124.24,-79.42"/>
</g>
<!-- Node18 -->
<g id="node18" class="node">
<title>Node18</title>
<g id="a_node18"><a xlink:href="_field_desc_types_8_h.html" target="_top" xlink:title=" ">
<polygon fill="white" stroke="black" points="855.5,-0.5 855.5,-19.5 1031.5,-19.5 1031.5,-0.5 855.5,-0.5"/>
<text text-anchor="middle" x="943.5" y="-7.5" font-family="Helvetica,sans-Serif" font-size="10.00">amr&#45;wind/core/FieldDescTypes.H</text>
</a>
</g>
</g>
<!-- Node15&#45;&gt;Node18 -->
<g id="edge19" class="edge">
<title>Node15&#45;&gt;Node18</title>
<path fill="none" stroke="midnightblue" d="M1136.8,-193.48C994.55,-192.45 690.5,-185.19 595.5,-143 577.11,-134.83 580.2,-121.57 562.5,-112 502.57,-79.6 455.64,-129.53 413.5,-76 408,-69.02 407.49,-62.55 413.5,-56 427.89,-40.34 696.16,-23.91 845.37,-15.93"/>
<polygon fill="midnightblue" stroke="midnightblue" points="845.66,-19.42 855.46,-15.39 845.29,-12.43 845.66,-19.42"/>
</g>
<!-- Node19 -->
<g id="node19" class="node">
<title>Node19</title>
<g id="a_node19"><a xlink:href="_field_utils_8_h.html" target="_top" xlink:title=" ">
<polygon fill="white" stroke="black" points="590.5,-56.5 590.5,-75.5 736.5,-75.5 736.5,-56.5 590.5,-56.5"/>
<text text-anchor="middle" x="663.5" y="-63.5" font-family="Helvetica,sans-Serif" font-size="10.00">amr&#45;wind/core/FieldUtils.H</text>
</a>
</g>
</g>
<!-- Node15&#45;&gt;Node19 -->
<g id="edge20" class="edge">
<title>Node15&#45;&gt;Node19</title>
<path fill="none" stroke="midnightblue" d="M1136.86,-193.75C1059.45,-191.67 936.15,-181.72 837.5,-143 815.23,-134.26 814.79,-122.91 793.5,-112 765.54,-97.67 731.99,-86.19 705.98,-78.41"/>
<polygon fill="midnightblue" stroke="midnightblue" points="706.63,-74.95 696.05,-75.51 704.67,-81.67 706.63,-74.95"/>
</g>
<!-- Node20 -->
<g id="node20" class="node">
<title>Node20</title>
<g id="a_node20"><a xlink:title=" ">
<polygon fill="white" stroke="#bfbfbf" points="1050,-0.5 1050,-19.5 1159,-19.5 1159,-0.5 1050,-0.5"/>
<text text-anchor="middle" x="1104.5" y="-7.5" font-family="Helvetica,sans-Serif" font-size="10.00">AMReX_MultiFab.H</text>
</a>
</g>
</g>
<!-- Node15&#45;&gt;Node20 -->
<g id="edge51" class="edge">
<title>Node15&#45;&gt;Node20</title>
<path fill="none" stroke="midnightblue" d="M1155.86,-184.98C1058.02,-168.73 861.67,-130.06 821.5,-76 816.2,-68.87 815.73,-62.76 821.5,-56 825.05,-51.84 957.35,-32.15 1039.78,-20.24"/>
<polygon fill="midnightblue" stroke="midnightblue" points="1040.42,-23.68 1049.82,-18.79 1039.42,-16.75 1040.42,-23.68"/>
</g>
<!-- Node22 -->
<g id="node22" class="node">
<title>Node22</title>
<g id="a_node22"><a xlink:href="_field_8_h.html" target="_top" xlink:title=" ">
<polygon fill="white" stroke="black" points="1378.5,-118 1378.5,-137 1502.5,-137 1502.5,-118 1378.5,-118"/>
<text text-anchor="middle" x="1440.5" y="-125" font-family="Helvetica,sans-Serif" font-size="10.00">amr&#45;wind/core/Field.H</text>
</a>
</g>
</g>
<!-- Node15&#45;&gt;Node22 -->
<g id="edge24" class="edge">
<title>Node15&#45;&gt;Node22</title>
<path fill="none" stroke="midnightblue" d="M1241.91,-184.87C1282.74,-173.28 1355.37,-152.66 1400.57,-139.83"/>
<polygon fill="midnightblue" stroke="midnightblue" points="1401.67,-143.16 1410.33,-137.06 1399.75,-136.43 1401.67,-143.16"/>
</g>
<!-- Node29 -->
<g id="node29" class="node">
<title>Node29</title>
<g id="a_node29"><a xlink:href="_int_field_8_h.html" target="_top" xlink:title=" ">
<polygon fill="white" stroke="black" points="648,-118 648,-137 785,-137 785,-118 648,-118"/>
<text text-anchor="middle" x="716.5" y="-125" font-family="Helvetica,sans-Serif" font-size="10.00">amr&#45;wind/core/IntField.H</text>
</a>
</g>
</g>
<!-- Node15&#45;&gt;Node29 -->
<g id="edge39" class="edge">
<title>Node15&#45;&gt;Node29</title>
<path fill="none" stroke="midnightblue" d="M1136.92,-185.52C1054.27,-176.4 917.11,-160.47 799.5,-143 790.88,-141.72 781.78,-140.25 772.88,-138.75"/>
<polygon fill="midnightblue" stroke="midnightblue" points="773.41,-135.29 762.96,-137.05 772.23,-142.19 773.41,-135.29"/>
</g>
<!-- Node30 -->
<g id="node30" class="node">
<title>Node30</title>
<g id="a_node30"><a xlink:href="_scratch_field_8_h.html" target="_top" xlink:title=" ">
<polygon fill="white" stroke="black" points="1126.5,-118 1126.5,-137 1286.5,-137 1286.5,-118 1126.5,-118"/>
<text text-anchor="middle" x="1206.5" y="-125" font-family="Helvetica,sans-Serif" font-size="10.00">amr&#45;wind/core/ScratchField.H</text>
</a>
</g>
</g>
<!-- Node15&#45;&gt;Node30 -->
<g id="edge43" class="edge">
<title>Node15&#45;&gt;Node30</title>
<path fill="none" stroke="midnightblue" d="M1210.83,-184.73C1210.09,-175.18 1208.89,-159.62 1207.94,-147.28"/>
<polygon fill="midnightblue" stroke="midnightblue" points="1211.42,-146.83 1207.16,-137.13 1204.44,-147.37 1211.42,-146.83"/>
</g>
<!-- Node19&#45;&gt;Node18 -->
<g id="edge21" class="edge">
<title>Node19&#45;&gt;Node18</title>
<path fill="none" stroke="midnightblue" d="M707.87,-56.44C757.12,-46.94 836.63,-31.61 889.47,-21.42"/>
<polygon fill="midnightblue" stroke="midnightblue" points="890.18,-24.85 899.34,-19.52 888.86,-17.97 890.18,-24.85"/>
</g>
<!-- Node19&#45;&gt;Node20 -->
<g id="edge22" class="edge">
<title>Node19&#45;&gt;Node20</title>
<path fill="none" stroke="midnightblue" d="M736.53,-56.74C810.3,-48.29 927.8,-34.56 1039.59,-20.09"/>
<polygon fill="midnightblue" stroke="midnightblue" points="1040.23,-23.54 1049.7,-18.78 1039.33,-16.6 1040.23,-23.54"/>
</g>
<!-- Node21 -->
<g id="node21" class="node">
<title>Node21</title>
<g id="a_node21"><a xlink:title=" ">
<polygon fill="white" stroke="#bfbfbf" points="601.5,-0.5 601.5,-19.5 725.5,-19.5 725.5,-0.5 601.5,-0.5"/>
<text text-anchor="middle" x="663.5" y="-7.5" font-family="Helvetica,sans-Serif" font-size="10.00">AMReX_Interpolater.H</text>
</a>
</g>
</g>
<!-- Node19&#45;&gt;Node21 -->
<g id="edge23" class="edge">
<title>Node19&#45;&gt;Node21</title>
<path fill="none" stroke="midnightblue" d="M663.5,-56.08C663.5,-49.01 663.5,-38.86 663.5,-29.99"/>
<polygon fill="midnightblue" stroke="midnightblue" points="667,-29.75 663.5,-19.75 660,-29.75 667,-29.75"/>
</g>
<!-- Node22&#45;&gt;Node9 -->
<g id="edge32" class="edge">
<title>Node22&#45;&gt;Node9</title>
<path fill="none" stroke="midnightblue" d="M1483.45,-117.96C1494.22,-115.91 1505.77,-113.8 1516.5,-112 1596.64,-98.54 1688.85,-85.46 1751.73,-76.91"/>
<polygon fill="midnightblue" stroke="midnightblue" points="1752.51,-80.33 1761.95,-75.52 1751.57,-73.4 1752.51,-80.33"/>
</g>
<!-- Node22&#45;&gt;Node16 -->
<g id="edge25" class="edge">
<title>Node22&#45;&gt;Node16</title>
<path fill="none" stroke="midnightblue" d="M1485.1,-117.97C1495.41,-116.01 1506.34,-113.93 1516.5,-112 1558.94,-103.95 1679.93,-109.25 1707.5,-76 1746.8,-28.6 1628.52,-15.72 1568.78,-12.25"/>
<polygon fill="midnightblue" stroke="midnightblue" points="1568.87,-8.75 1558.7,-11.72 1568.5,-15.74 1568.87,-8.75"/>
</g>
<!-- Node22&#45;&gt;Node17 -->
<g id="edge27" class="edge">
<title>Node22&#45;&gt;Node17</title>
<path fill="none" stroke="midnightblue" d="M1479.79,-118C1491.55,-115.73 1504.5,-113.49 1516.5,-112 1781.84,-78.97 1853.67,-104.86 2123.69,-75.96"/>
<polygon fill="midnightblue" stroke="midnightblue" points="2124.23,-79.42 2133.8,-74.86 2123.48,-72.46 2124.23,-79.42"/>
</g>
<!-- Node22&#45;&gt;Node18 -->
<g id="edge33" class="edge">
<title>Node22&#45;&gt;Node18</title>
<path fill="none" stroke="midnightblue" d="M1378.26,-121.31C1310.7,-114.71 1200.08,-101.02 1107.5,-76 1094.07,-72.37 1017.04,-41.13 973.49,-23.31"/>
<polygon fill="midnightblue" stroke="midnightblue" points="974.81,-20.07 964.23,-19.52 972.16,-26.55 974.81,-20.07"/>
</g>
<!-- Node22&#45;&gt;Node20 -->
<g id="edge29" class="edge">
<title>Node22&#45;&gt;Node20</title>
<path fill="none" stroke="midnightblue" d="M1378.25,-120.17C1291.39,-110.81 1142.32,-92.58 1123.5,-76 1110.42,-64.48 1106.12,-44.51 1104.81,-29.74"/>
<polygon fill="midnightblue" stroke="midnightblue" points="1108.31,-29.49 1104.3,-19.68 1101.32,-29.84 1108.31,-29.49"/>
</g>
<!-- Node23 -->
<g id="node23" class="node">
<title>Node23</title>
<g id="a_node23"><a xlink:title=" ">
<polygon fill="white" stroke="#bfbfbf" points="2057.5,-56.5 2057.5,-75.5 2115.5,-75.5 2115.5,-56.5 2057.5,-56.5"/>
<text text-anchor="middle" x="2086.5" y="-63.5" font-family="Helvetica,sans-Serif" font-size="10.00">memory</text>
</a>
</g>
</g>
<!-- Node22&#45;&gt;Node23 -->
<g id="edge26" class="edge">
<title>Node22&#45;&gt;Node23</title>
<path fill="none" stroke="midnightblue" d="M1480.59,-117.95C1492.14,-115.73 1504.78,-113.54 1516.5,-112 1734.76,-83.32 1791.36,-96.95 2010.5,-76 2022.47,-74.86 2035.47,-73.4 2047.28,-71.99"/>
<polygon fill="midnightblue" stroke="midnightblue" points="2047.8,-75.45 2057.3,-70.77 2046.95,-68.5 2047.8,-75.45"/>
</g>
<!-- Node24 -->
<g id="node24" class="node">
<title>Node24</title>
<g id="a_node24"><a xlink:title=" ">
<polygon fill="white" stroke="#bfbfbf" points="1412.5,-56.5 1412.5,-75.5 1476.5,-75.5 1476.5,-56.5 1412.5,-56.5"/>
<text text-anchor="middle" x="1444.5" y="-63.5" font-family="Helvetica,sans-Serif" font-size="10.00">algorithm</text>
</a>
</g>
</g>
<!-- Node22&#45;&gt;Node24 -->
<g id="edge28" class="edge">
<title>Node22&#45;&gt;Node24</title>
<path fill="none" stroke="midnightblue" d="M1441.07,-117.98C1441.64,-109.58 1442.52,-96.48 1443.25,-85.66"/>
<polygon fill="midnightblue" stroke="midnightblue" points="1446.75,-85.72 1443.93,-75.51 1439.76,-85.25 1446.75,-85.72"/>
</g>
<!-- Node25 -->
<g id="node25" class="node">
<title>Node25</title>
<g id="a_node25"><a xlink:title=" ">
<polygon fill="white" stroke="#bfbfbf" points="1495,-56.5 1495,-75.5 1594,-75.5 1594,-56.5 1495,-56.5"/>
<text text-anchor="middle" x="1544.5" y="-63.5" font-family="Helvetica,sans-Serif" font-size="10.00">AMReX_BCRec.H</text>
</a>
</g>
</g>
<!-- Node22&#45;&gt;Node25 -->
<g id="edge30" class="edge">
<title>Node22&#45;&gt;Node25</title>
<path fill="none" stroke="midnightblue" d="M1455.4,-117.98C1472.47,-108.21 1500.66,-92.08 1520.76,-80.58"/>
<polygon fill="midnightblue" stroke="midnightblue" points="1522.69,-83.51 1529.63,-75.51 1519.21,-77.44 1522.69,-83.51"/>
</g>
<!-- Node26 -->
<g id="node26" class="node">
<title>Node26</title>
<g id="a_node26"><a xlink:title=" ">
<polygon fill="white" stroke="#bfbfbf" points="1612,-56.5 1612,-75.5 1699,-75.5 1699,-56.5 1612,-56.5"/>
<text text-anchor="middle" x="1655.5" y="-63.5" font-family="Helvetica,sans-Serif" font-size="10.00">AMReX_Gpu.H</text>
</a>
</g>
</g>
<!-- Node22&#45;&gt;Node26 -->
<g id="edge31" class="edge">
<title>Node22&#45;&gt;Node26</title>
<path fill="none" stroke="midnightblue" d="M1471.3,-117.98C1509.06,-107.53 1573.16,-89.79 1614.91,-78.23"/>
<polygon fill="midnightblue" stroke="midnightblue" points="1616.05,-81.55 1624.75,-75.51 1614.18,-74.8 1616.05,-81.55"/>
</g>
<!-- Node27 -->
<g id="node27" class="node">
<title>Node27</title>
<g id="a_node27"><a xlink:href="_view_field_8_h.html" target="_top" xlink:title=" ">
<polygon fill="white" stroke="black" points="1132.5,-56.5 1132.5,-75.5 1280.5,-75.5 1280.5,-56.5 1132.5,-56.5"/>
<text text-anchor="middle" x="1206.5" y="-63.5" font-family="Helvetica,sans-Serif" font-size="10.00">amr&#45;wind/core/ViewField.H</text>
</a>
</g>
</g>
<!-- Node22&#45;&gt;Node27 -->
<g id="edge34" class="edge">
<title>Node22&#45;&gt;Node27</title>
<path fill="none" stroke="midnightblue" d="M1406.97,-117.98C1365.62,-107.46 1295.23,-89.56 1249.82,-78.01"/>
<polygon fill="midnightblue" stroke="midnightblue" points="1250.52,-74.58 1239.96,-75.51 1248.79,-81.37 1250.52,-74.58"/>
</g>
<!-- Node27&#45;&gt;Node16 -->
<g id="edge35" class="edge">
<title>Node27&#45;&gt;Node16</title>
<path fill="none" stroke="midnightblue" d="M1258.79,-56.44C1327.91,-45.13 1447.58,-25.55 1504.56,-16.23"/>
<polygon fill="midnightblue" stroke="midnightblue" points="1505.14,-19.68 1514.44,-14.61 1504.01,-12.77 1505.14,-19.68"/>
</g>
<!-- Node27&#45;&gt;Node18 -->
<g id="edge36" class="edge">
<title>Node27&#45;&gt;Node18</title>
<path fill="none" stroke="midnightblue" d="M1164.83,-56.44C1118.75,-46.98 1044.5,-31.74 994.87,-21.55"/>
<polygon fill="midnightblue" stroke="midnightblue" points="995.48,-18.1 984.98,-19.52 994.07,-24.96 995.48,-18.1"/>
</g>
<!-- Node27&#45;&gt;Node20 -->
<g id="edge37" class="edge">
<title>Node27&#45;&gt;Node20</title>
<path fill="none" stroke="midnightblue" d="M1190.11,-56.32C1173.83,-47.7 1148.63,-34.36 1129.78,-24.39"/>
<polygon fill="midnightblue" stroke="midnightblue" points="1131.32,-21.24 1120.85,-19.65 1128.05,-27.43 1131.32,-21.24"/>
</g>
<!-- Node28 -->
<g id="node28" class="node">
<title>Node28</title>
<g id="a_node28"><a xlink:title=" ">
<polygon fill="white" stroke="#bfbfbf" points="2005.5,-0.5 2005.5,-19.5 2103.5,-19.5 2103.5,-0.5 2005.5,-0.5"/>
<text text-anchor="middle" x="2054.5" y="-7.5" font-family="Helvetica,sans-Serif" font-size="10.00">AMReX_Vector.H</text>
</a>
</g>
</g>
<!-- Node27&#45;&gt;Node28 -->
<g id="edge38" class="edge">
<title>Node27&#45;&gt;Node28</title>
<path fill="none" stroke="midnightblue" d="M1280.64,-60.28C1446.52,-49.72 1844.85,-24.35 1995.46,-14.76"/>
<polygon fill="midnightblue" stroke="midnightblue" points="1995.69,-18.25 2005.45,-14.12 1995.24,-11.27 1995.69,-18.25"/>
</g>
<!-- Node29&#45;&gt;Node7 -->
<g id="edge42" class="edge">
<title>Node29&#45;&gt;Node7</title>
<path fill="none" stroke="midnightblue" d="M682.4,-117.98C640.25,-107.44 568.45,-89.49 522.27,-77.94"/>
<polygon fill="midnightblue" stroke="midnightblue" points="523.09,-74.54 512.54,-75.51 521.39,-81.33 523.09,-74.54"/>
</g>
<!-- Node29&#45;&gt;Node16 -->
<g id="edge40" class="edge">
<title>Node29&#45;&gt;Node16</title>
<path fill="none" stroke="midnightblue" d="M725.69,-117.78C742.88,-102.09 781.79,-69.47 821.5,-56 886.66,-33.89 1373.38,-16.38 1504.21,-12.04"/>
<polygon fill="midnightblue" stroke="midnightblue" points="1504.5,-15.53 1514.38,-11.7 1504.27,-8.54 1504.5,-15.53"/>
</g>
<!-- Node29&#45;&gt;Node18 -->
<g id="edge41" class="edge">
<title>Node29&#45;&gt;Node18</title>
<path fill="none" stroke="midnightblue" d="M663.79,-117.95C614.73,-107.81 553.14,-88.1 581.5,-56 598.78,-36.44 743.89,-23.41 845.05,-16.61"/>
<polygon fill="midnightblue" stroke="midnightblue" points="845.57,-20.09 855.31,-15.94 845.11,-13.1 845.57,-20.09"/>
</g>
<!-- Node30&#45;&gt;Node16 -->
<g id="edge44" class="edge">
<title>Node30&#45;&gt;Node16</title>
<path fill="none" stroke="midnightblue" d="M1220.66,-117.88C1248.51,-101.05 1309.66,-64.69 1332.5,-56 1391.12,-33.69 1463.64,-20.99 1504.53,-15.09"/>
<polygon fill="midnightblue" stroke="midnightblue" points="1505.04,-18.56 1514.45,-13.71 1504.07,-11.62 1505.04,-18.56"/>
</g>
<!-- Node30&#45;&gt;Node18 -->
<g id="edge45" class="edge">
<title>Node30&#45;&gt;Node18</title>
<path fill="none" stroke="midnightblue" d="M1184.41,-117.89C1159.5,-108.1 1117.86,-91.45 1082.5,-76 1043.2,-58.82 998.35,-37.54 970.47,-24.11"/>
<polygon fill="midnightblue" stroke="midnightblue" points="971.89,-20.91 961.36,-19.71 968.84,-27.21 971.89,-20.91"/>
</g>
<!-- Node30&#45;&gt;Node20 -->
<g id="edge47" class="edge">
<title>Node30&#45;&gt;Node20</title>
<path fill="none" stroke="midnightblue" d="M1156.8,-117.98C1132.44,-111.04 1105.25,-98.5 1090.5,-76 1081.23,-61.86 1087.15,-42.63 1093.91,-28.75"/>
<polygon fill="midnightblue" stroke="midnightblue" points="1097.1,-30.21 1098.78,-19.75 1090.95,-26.88 1097.1,-30.21"/>
</g>
<!-- Node30&#45;&gt;Node27 -->
<g id="edge46" class="edge">
<title>Node30&#45;&gt;Node27</title>
<path fill="none" stroke="midnightblue" d="M1206.5,-117.98C1206.5,-109.58 1206.5,-96.48 1206.5,-85.66"/>
<polygon fill="midnightblue" stroke="midnightblue" points="1210,-85.51 1206.5,-75.51 1203,-85.51 1210,-85.51"/>
</g>
<!-- Node30&#45;&gt;Node28 -->
<g id="edge48" class="edge">
<title>Node30&#45;&gt;Node28</title>
<path fill="none" stroke="midnightblue" d="M1225.02,-117.92C1259.35,-102.46 1335.59,-70.21 1403.5,-56 1515.6,-32.53 1856.72,-18.06 1995.16,-13.02"/>
<polygon fill="midnightblue" stroke="midnightblue" points="1995.3,-16.52 2005.17,-12.66 1995.05,-9.52 1995.3,-16.52"/>
</g>
<!-- Node31 -->
<g id="node31" class="node">
<title>Node31</title>
<g id="a_node31"><a xlink:title=" ">
<polygon fill="white" stroke="#bfbfbf" points="831,-56.5 831,-75.5 962,-75.5 962,-56.5 831,-56.5"/>
<text text-anchor="middle" x="896.5" y="-63.5" font-family="Helvetica,sans-Serif" font-size="10.00">AMReX_PhysBCFunct.H</text>
</a>
</g>
</g>
<!-- Node30&#45;&gt;Node31 -->
<g id="edge49" class="edge">
<title>Node30&#45;&gt;Node31</title>
<path fill="none" stroke="midnightblue" d="M1162.08,-117.98C1106.38,-107.28 1010.9,-88.96 950.88,-77.44"/>
<polygon fill="midnightblue" stroke="midnightblue" points="951.31,-73.96 940.83,-75.51 949.99,-80.83 951.31,-73.96"/>
</g>
<!-- Node32&#45;&gt;Node9 -->
<g id="edge69" class="edge">
<title>Node32&#45;&gt;Node9</title>
<path fill="none" stroke="midnightblue" d="M1919.84,-179.46C1898.04,-171.73 1874.43,-160.12 1857.5,-143 1841.88,-127.21 1833.79,-102.48 1829.85,-85.54"/>
<polygon fill="midnightblue" stroke="midnightblue" points="1833.27,-84.8 1827.82,-75.71 1826.42,-86.21 1833.27,-84.8"/>
</g>
<!-- Node32&#45;&gt;Node16 -->
<g id="edge54" class="edge">
<title>Node32&#45;&gt;Node16</title>
<path fill="none" stroke="midnightblue" d="M2019.83,-179.3C2036.52,-171.39 2053.95,-159.68 2063.5,-143 2085.99,-103.71 2051.19,-75.85 2010.5,-56 1932.33,-17.88 1662.43,-12.02 1568.8,-11.15"/>
<polygon fill="midnightblue" stroke="midnightblue" points="1568.55,-7.64 1558.53,-11.06 1568.5,-14.64 1568.55,-7.64"/>
</g>
<!-- Node32&#45;&gt;Node18 -->
<g id="edge68" class="edge">
<title>Node32&#45;&gt;Node18</title>
<path fill="none" stroke="midnightblue" d="M1934.69,-179.42C1917.81,-171.52 1900.17,-159.8 1890.5,-143 1875.27,-116.56 1899.52,-105.92 1905.5,-76 1907.24,-67.28 1911.65,-62.41 1905.5,-56 1873.54,-22.68 1150.04,-23.13 1041.76,-19.8"/>
<polygon fill="midnightblue" stroke="midnightblue" points="1041.65,-16.29 1031.51,-19.36 1041.35,-23.29 1041.65,-16.29"/>
</g>
<!-- Node33 -->
<g id="node33" class="node">
<title>Node33</title>
<g id="a_node33"><a xlink:href="_factory_8_h.html" target="_top" xlink:title=" ">
<polygon fill="white" stroke="black" points="2267.5,-118 2267.5,-137 2401.5,-137 2401.5,-118 2267.5,-118"/>
<text text-anchor="middle" x="2334.5" y="-125" font-family="Helvetica,sans-Serif" font-size="10.00">amr&#45;wind/core/Factory.H</text>
</a>
</g>
</g>
<!-- Node32&#45;&gt;Node33 -->
<g id="edge55" class="edge">
<title>Node32&#45;&gt;Node33</title>
<path fill="none" stroke="midnightblue" d="M2055.08,-179.67C2111.3,-169.61 2189.13,-155.6 2257.5,-143 2264.58,-141.69 2272.03,-140.31 2279.38,-138.93"/>
<polygon fill="midnightblue" stroke="midnightblue" points="2280.13,-142.35 2289.32,-137.07 2278.84,-135.47 2280.13,-142.35"/>
</g>
<!-- Node37 -->
<g id="node37" class="node">
<title>Node37</title>
<g id="a_node37"><a xlink:href="_coll_mgr_8_h.html" target="_top" xlink:title=" ">
<polygon fill="white" stroke="black" points="2112,-118 2112,-137 2249,-137 2249,-118 2112,-118"/>
<text text-anchor="middle" x="2180.5" y="-125" font-family="Helvetica,sans-Serif" font-size="10.00">amr&#45;wind/core/CollMgr.H</text>
</a>
</g>
</g>
<!-- Node32&#45;&gt;Node37 -->
<g id="edge61" class="edge">
<title>Node32&#45;&gt;Node37</title>
<path fill="none" stroke="midnightblue" d="M2021.55,-179.4C2058.27,-167.64 2109.95,-151.09 2144.3,-140.09"/>
<polygon fill="midnightblue" stroke="midnightblue" points="2145.48,-143.39 2153.93,-137.01 2143.34,-136.72 2145.48,-143.39"/>
</g>
<!-- Node38 -->
<g id="node38" class="node">
<title>Node38</title>
<g id="a_node38"><a xlink:href="_p_d_e_fields_8_h.html" target="_top" xlink:title=" ">
<polygon fill="white" stroke="black" points="1900,-112.5 1900,-142.5 2055,-142.5 2055,-112.5 1900,-112.5"/>
<text text-anchor="start" x="1908" y="-130.5" font-family="Helvetica,sans-Serif" font-size="10.00">amr&#45;wind/equation_systems</text>
<text text-anchor="middle" x="1977.5" y="-119.5" font-family="Helvetica,sans-Serif" font-size="10.00">/PDEFields.H</text>
</a>
</g>
</g>
<!-- Node32&#45;&gt;Node38 -->
<g id="edge66" class="edge">
<title>Node32&#45;&gt;Node38</title>
<path fill="none" stroke="midnightblue" d="M1977.5,-179.4C1977.5,-171.64 1977.5,-161.81 1977.5,-152.86"/>
<polygon fill="midnightblue" stroke="midnightblue" points="1981,-152.58 1977.5,-142.58 1974,-152.58 1981,-152.58"/>
</g>
<!-- Node33&#45;&gt;Node17 -->
<g id="edge57" class="edge">
<title>Node33&#45;&gt;Node17</title>
<path fill="none" stroke="midnightblue" d="M2312.44,-117.98C2286.13,-107.81 2241.99,-90.76 2212.08,-79.2"/>
<polygon fill="midnightblue" stroke="midnightblue" points="2213.11,-75.85 2202.52,-75.51 2210.59,-82.38 2213.11,-75.85"/>
</g>
<!-- Node33&#45;&gt;Node23 -->
<g id="edge56" class="edge">
<title>Node33&#45;&gt;Node23</title>
<path fill="none" stroke="midnightblue" d="M2298.97,-117.98C2253.05,-106.96 2173.36,-87.84 2125.71,-76.41"/>
<polygon fill="midnightblue" stroke="midnightblue" points="2126.31,-72.95 2115.77,-74.02 2124.68,-79.76 2126.31,-72.95"/>
</g>
<!-- Node34 -->
<g id="node34" class="node">
<title>Node34</title>
<g id="a_node34"><a xlink:title=" ">
<polygon fill="white" stroke="#bfbfbf" points="2547.5,-56.5 2547.5,-75.5 2607.5,-75.5 2607.5,-56.5 2547.5,-56.5"/>
<text text-anchor="middle" x="2577.5" y="-63.5" font-family="Helvetica,sans-Serif" font-size="10.00">iostream</text>
</a>
</g>
</g>
<!-- Node33&#45;&gt;Node34 -->
<g id="edge58" class="edge">
<title>Node33&#45;&gt;Node34</title>
<path fill="none" stroke="midnightblue" d="M2369.32,-117.98C2413.82,-107.08 2490.7,-88.25 2537.54,-76.78"/>
<polygon fill="midnightblue" stroke="midnightblue" points="2538.46,-80.16 2547.35,-74.38 2536.8,-73.36 2538.46,-80.16"/>
</g>
<!-- Node35 -->
<g id="node35" class="node">
<title>Node35</title>
<g id="a_node35"><a xlink:title=" ">
<polygon fill="white" stroke="#bfbfbf" points="2321.5,-56.5 2321.5,-75.5 2411.5,-75.5 2411.5,-56.5 2321.5,-56.5"/>
<text text-anchor="middle" x="2366.5" y="-63.5" font-family="Helvetica,sans-Serif" font-size="10.00">AMReX_Print.H</text>
</a>
</g>
</g>
<!-- Node33&#45;&gt;Node35 -->
<g id="edge59" class="edge">
<title>Node33&#45;&gt;Node35</title>
<path fill="none" stroke="midnightblue" d="M2339.08,-117.98C2343.74,-109.32 2351.09,-95.65 2357.01,-84.65"/>
<polygon fill="midnightblue" stroke="midnightblue" points="2360.27,-85.97 2361.92,-75.51 2354.1,-82.66 2360.27,-85.97"/>
</g>
<!-- Node36 -->
<g id="node36" class="node">
<title>Node36</title>
<g id="a_node36"><a xlink:title=" ">
<polygon fill="white" stroke="#bfbfbf" points="2429.5,-56.5 2429.5,-75.5 2491.5,-75.5 2491.5,-56.5 2429.5,-56.5"/>
<text text-anchor="middle" x="2460.5" y="-63.5" font-family="Helvetica,sans-Serif" font-size="10.00">AMReX.H</text>
</a>
</g>
</g>
<!-- Node33&#45;&gt;Node36 -->
<g id="edge60" class="edge">
<title>Node33&#45;&gt;Node36</title>
<path fill="none" stroke="midnightblue" d="M2352.55,-117.98C2373.7,-107.99 2408.94,-91.35 2433.38,-79.81"/>
<polygon fill="midnightblue" stroke="midnightblue" points="2434.93,-82.94 2442.48,-75.51 2431.94,-76.61 2434.93,-82.94"/>
</g>
<!-- Node37&#45;&gt;Node16 -->
<g id="edge62" class="edge">
<title>Node37&#45;&gt;Node16</title>
<path fill="none" stroke="midnightblue" d="M2195.74,-117.85C2218.08,-104.14 2255.04,-76.84 2235.5,-56 2212.39,-31.36 1702.65,-15.59 1568.57,-11.86"/>
<polygon fill="midnightblue" stroke="midnightblue" points="1568.62,-8.36 1558.52,-11.58 1568.42,-15.35 1568.62,-8.36"/>
</g>
<!-- Node37&#45;&gt;Node17 -->
<g id="edge64" class="edge">
<title>Node37&#45;&gt;Node17</title>
<path fill="none" stroke="midnightblue" d="M2180.5,-117.98C2180.5,-109.58 2180.5,-96.48 2180.5,-85.66"/>
<polygon fill="midnightblue" stroke="midnightblue" points="2184,-85.51 2180.5,-75.51 2177,-85.51 2184,-85.51"/>
</g>
<!-- Node37&#45;&gt;Node23 -->
<g id="edge63" class="edge">
<title>Node37&#45;&gt;Node23</title>
<path fill="none" stroke="midnightblue" d="M2167.03,-117.98C2151.82,-108.34 2126.81,-92.52 2108.7,-81.05"/>
<polygon fill="midnightblue" stroke="midnightblue" points="2110.26,-77.9 2099.94,-75.51 2106.52,-83.81 2110.26,-77.9"/>
</g>
<!-- Node37&#45;&gt;Node28 -->
<g id="edge65" class="edge">
<title>Node37&#45;&gt;Node28</title>
<path fill="none" stroke="midnightblue" d="M2207.84,-117.94C2241.39,-106.02 2291.31,-82.85 2269.5,-56 2250.2,-32.25 2170.58,-20.59 2113.87,-15.2"/>
<polygon fill="midnightblue" stroke="midnightblue" points="2113.84,-11.68 2103.57,-14.26 2113.21,-18.65 2113.84,-11.68"/>
</g>
<!-- Node39 -->
<g id="node39" class="node">
<title>Node39</title>
<g id="a_node39"><a xlink:title=" ">
<polygon fill="white" stroke="#bfbfbf" points="1953.5,-56.5 1953.5,-75.5 2001.5,-75.5 2001.5,-56.5 1953.5,-56.5"/>
<text text-anchor="middle" x="1977.5" y="-63.5" font-family="Helvetica,sans-Serif" font-size="10.00">iosfwd</text>
</a>
</g>
</g>
<!-- Node38&#45;&gt;Node39 -->
<g id="edge67" class="edge">
<title>Node38&#45;&gt;Node39</title>
<path fill="none" stroke="midnightblue" d="M1977.5,-112.4C1977.5,-104.47 1977.5,-94.46 1977.5,-85.86"/>
<polygon fill="midnightblue" stroke="midnightblue" points="1981,-85.66 1977.5,-75.66 1974,-85.66 1981,-85.66"/>
</g>
<!-- Node40&#45;&gt;Node20 -->
<g id="edge73" class="edge">
<title>Node40&#45;&gt;Node20</title>
<path fill="none" stroke="midnightblue" d="M2387.29,-184.99C2398.13,-169.4 2422.76,-135.7 2448.5,-112 2469.18,-92.96 2487.45,-100.9 2500.5,-76 2504.63,-68.13 2506.68,-62.39 2500.5,-56 2488.77,-43.89 1442.75,-18.83 1169.31,-12.49"/>
<polygon fill="midnightblue" stroke="midnightblue" points="1169.22,-8.98 1159.14,-12.25 1169.06,-15.98 1169.22,-8.98"/>
</g>
<!-- Node40&#45;&gt;Node33 -->
<g id="edge71" class="edge">
<title>Node40&#45;&gt;Node33</title>
<path fill="none" stroke="midnightblue" d="M2375.16,-184.73C2367.9,-174.7 2355.84,-158.01 2346.74,-145.42"/>
<polygon fill="midnightblue" stroke="midnightblue" points="2349.43,-143.18 2340.74,-137.13 2343.76,-147.28 2349.43,-143.18"/>
</g>
<!-- Node40&#45;&gt;Node37 -->
<g id="edge72" class="edge">
<title>Node40&#45;&gt;Node37</title>
<path fill="none" stroke="midnightblue" d="M2354.81,-184.87C2319.27,-173.38 2256.29,-153.01 2216.55,-140.16"/>
<polygon fill="midnightblue" stroke="midnightblue" points="2217.57,-136.81 2206.98,-137.06 2215.42,-143.47 2217.57,-136.81"/>
</g>
<!-- Node41 -->
<g id="node41" class="node">
<title>Node41</title>
<g id="a_node41"><a xlink:title=" ">
<polygon fill="white" stroke="#bfbfbf" points="2458,-118 2458,-137 2573,-137 2573,-118 2458,-118"/>
<text text-anchor="middle" x="2515.5" y="-125" font-family="Helvetica,sans-Serif" font-size="10.00">AMReX_Geometry.H</text>
</a>
</g>
</g>
<!-- Node40&#45;&gt;Node41 -->
<g id="edge74" class="edge">
<title>Node40&#45;&gt;Node41</title>
<path fill="none" stroke="midnightblue" d="M2399.29,-184.87C2422.12,-173.8 2461.93,-154.49 2488.5,-141.6"/>
<polygon fill="midnightblue" stroke="midnightblue" points="2490.16,-144.68 2497.63,-137.17 2487.11,-138.38 2490.16,-144.68"/>
</g>
<!-- Node42&#45;&gt;Node34 -->
<g id="edge79" class="edge">
<title>Node42&#45;&gt;Node34</title>
<path fill="none" stroke="midnightblue" d="M2600.14,-302.37C2596.06,-260 2583.94,-133.96 2579.32,-85.9"/>
<polygon fill="midnightblue" stroke="midnightblue" points="2582.8,-85.55 2578.36,-75.93 2575.83,-86.22 2582.8,-85.55"/>
</g>
<!-- Node43 -->
<g id="node43" class="node">
<title>Node43</title>
<g id="a_node43"><a xlink:title=" ">
<polygon fill="white" stroke="#bfbfbf" points="2629.5,-246.5 2629.5,-265.5 2727.5,-265.5 2727.5,-246.5 2629.5,-246.5"/>
<text text-anchor="middle" x="2678.5" y="-253.5" font-family="Helvetica,sans-Serif" font-size="10.00">AMReX_MLMG.H</text>
</a>
</g>
</g>
<!-- Node42&#45;&gt;Node43 -->
<g id="edge80" class="edge">
<title>Node42&#45;&gt;Node43</title>
<path fill="none" stroke="midnightblue" d="M2619.75,-302.4C2631.63,-293.22 2647.11,-281.26 2659.19,-271.92"/>
<polygon fill="midnightblue" stroke="midnightblue" points="2661.52,-274.54 2667.3,-265.66 2657.24,-269 2661.52,-274.54"/>
</g>
<!-- Node44&#45;&gt;Node16 -->
<g id="edge82" class="edge">
<title>Node44&#45;&gt;Node16</title>
<path fill="none" stroke="midnightblue" d="M2726.69,-112.29C2706.44,-102.26 2678.75,-88.44 2654.5,-76 2637.52,-67.29 2634.93,-60.96 2616.5,-56 2513.21,-28.19 1737.28,-14.22 1568.74,-11.5"/>
<polygon fill="midnightblue" stroke="midnightblue" points="1568.59,-8 1558.53,-11.34 1568.47,-15 1568.59,-8"/>
</g>
<!-- Node44&#45;&gt;Node17 -->
<g id="edge83" class="edge">
<title>Node44&#45;&gt;Node17</title>
<path fill="none" stroke="midnightblue" d="M2703.97,-121.17C2596.51,-110.05 2349.23,-84.46 2237.33,-72.88"/>
<polygon fill="midnightblue" stroke="midnightblue" points="2237.57,-69.39 2227.26,-71.84 2236.85,-76.35 2237.57,-69.39"/>
</g>
<!-- Node44&#45;&gt;Node28 -->
<g id="edge85" class="edge">
<title>Node44&#45;&gt;Node28</title>
<path fill="none" stroke="midnightblue" d="M2807.01,-124.19C2876.07,-119.89 2993.07,-107.96 3019.5,-76 3025.16,-69.15 3025.64,-62.43 3019.5,-56 2988.15,-23.15 2318.98,-13.67 2113.79,-11.54"/>
<polygon fill="midnightblue" stroke="midnightblue" points="2113.54,-8.03 2103.51,-11.43 2113.47,-15.03 2113.54,-8.03"/>
</g>
<!-- Node45 -->
<g id="node45" class="node">
<title>Node45</title>
<g id="a_node45"><a xlink:title=" ">
<polygon fill="white" stroke="#bfbfbf" points="2663.5,-56.5 2663.5,-75.5 2695.5,-75.5 2695.5,-56.5 2663.5,-56.5"/>
<text text-anchor="middle" x="2679.5" y="-63.5" font-family="Helvetica,sans-Serif" font-size="10.00">set</text>
</a>
</g>
</g>
<!-- Node44&#45;&gt;Node45 -->
<g id="edge84" class="edge">
<title>Node44&#45;&gt;Node45</title>
<path fill="none" stroke="midnightblue" d="M2737.49,-112.4C2725.76,-103.22 2710.48,-91.26 2698.56,-81.92"/>
<polygon fill="midnightblue" stroke="midnightblue" points="2700.59,-79.07 2690.56,-75.66 2696.28,-84.58 2700.59,-79.07"/>
</g>
<!-- Node46 -->
<g id="node46" class="node">
<title>Node46</title>
<g id="a_node46"><a xlink:title=" ">
<polygon fill="white" stroke="#bfbfbf" points="2714,-56.5 2714,-75.5 2825,-75.5 2825,-56.5 2714,-56.5"/>
<text text-anchor="middle" x="2769.5" y="-63.5" font-family="Helvetica,sans-Serif" font-size="10.00">AMReX_BoxArray.H</text>
</a>
</g>
</g>
<!-- Node44&#45;&gt;Node46 -->
<g id="edge86" class="edge">
<title>Node44&#45;&gt;Node46</title>
<path fill="none" stroke="midnightblue" d="M2758.82,-112.4C2760.71,-104.38 2763.09,-94.23 2765.13,-85.57"/>
<polygon fill="midnightblue" stroke="midnightblue" points="2768.58,-86.19 2767.46,-75.66 2761.77,-84.59 2768.58,-86.19"/>
</g>
<!-- Node47 -->
<g id="node47" class="node">
<title>Node47</title>
<g id="a_node47"><a xlink:title=" ">
<polygon fill="white" stroke="#bfbfbf" points="2843,-56.5 2843,-75.5 3010,-75.5 3010,-56.5 2843,-56.5"/>
<text text-anchor="middle" x="2926.5" y="-63.5" font-family="Helvetica,sans-Serif" font-size="10.00">AMReX_DistributionMapping.H</text>
</a>
</g>
</g>
<!-- Node44&#45;&gt;Node47 -->
<g id="edge87" class="edge">
<title>Node44&#45;&gt;Node47</title>
<path fill="none" stroke="midnightblue" d="M2796.02,-112.4C2825.23,-102.24 2864.22,-88.67 2891.95,-79.02"/>
<polygon fill="midnightblue" stroke="midnightblue" points="2893.32,-82.25 2901.62,-75.66 2891.02,-75.64 2893.32,-82.25"/>
</g>
</g>
</svg>
