<?xml version="1.0" encoding="UTF-8" standalone="no"?>
<!DOCTYPE svg PUBLIC "-//W3C//DTD SVG 1.1//EN"
 "http://www.w3.org/Graphics/SVG/1.1/DTD/svg11.dtd">
<!-- Generated by graphviz version 2.43.0 (0)
 -->
<!-- Title: io_utils.H Pages: 1 -->
<svg width="1213pt" height="84pt"
 viewBox="0.00 0.00 1213.00 84.00" xmlns="http://www.w3.org/2000/svg" xmlns:xlink="http://www.w3.org/1999/xlink">
<g id="graph0" class="graph" transform="scale(1 1) rotate(0) translate(4 80)">
<title>io_utils.H</title>
<polygon fill="white" stroke="transparent" points="-4,4 -4,-80 1209,-80 1209,4 -4,4"/>
<!-- Node1 -->
<g id="node1" class="node">
<title>Node1</title>
<g id="a_node1"><a xlink:title=" ">
<polygon fill="#bfbfbf" stroke="black" points="607.5,-56.5 607.5,-75.5 669.5,-75.5 669.5,-56.5 607.5,-56.5"/>
<text text-anchor="middle" x="638.5" y="-63.5" font-family="Helvetica,sans-Serif" font-size="10.00">io_utils.H</text>
</a>
</g>
</g>
<!-- Node2 -->
<g id="node2" class="node">
<title>Node2</title>
<g id="a_node2"><a xlink:href="_derived_qty_defs_8cpp.html" target="_top" xlink:title=" ">
<polygon fill="white" stroke="black" points="0,-0.5 0,-19.5 115,-19.5 115,-0.5 0,-0.5"/>
<text text-anchor="middle" x="57.5" y="-7.5" font-family="Helvetica,sans-Serif" font-size="10.00">DerivedQtyDefs.cpp</text>
</a>
</g>
</g>
<!-- Node1&#45;&gt;Node2 -->
<g id="edge1" class="edge">
<title>Node1&#45;&gt;Node2</title>
<path fill="none" stroke="midnightblue" d="M597.44,-62.05C510.22,-55.65 300.1,-39.47 124.5,-20 121.47,-19.66 118.36,-19.3 115.22,-18.93"/>
<polygon fill="midnightblue" stroke="midnightblue" points="597.22,-65.55 607.45,-62.78 597.73,-58.57 597.22,-65.55"/>
</g>
<!-- Node3 -->
<g id="node3" class="node">
<title>Node3</title>
<g id="a_node3"><a xlink:href="_derived_quantity_8cpp.html" target="_top" xlink:title=" ">
<polygon fill="white" stroke="black" points="133.5,-0.5 133.5,-19.5 249.5,-19.5 249.5,-0.5 133.5,-0.5"/>
<text text-anchor="middle" x="191.5" y="-7.5" font-family="Helvetica,sans-Serif" font-size="10.00">DerivedQuantity.cpp</text>
</a>
</g>
</g>
<!-- Node1&#45;&gt;Node3 -->
<g id="edge2" class="edge">
<title>Node1&#45;&gt;Node3</title>
<path fill="none" stroke="midnightblue" d="M597.32,-60.34C527.55,-52.39 381.69,-35.57 258.5,-20 255.59,-19.63 252.61,-19.25 249.6,-18.86"/>
<polygon fill="midnightblue" stroke="midnightblue" points="597.12,-63.84 607.45,-61.49 597.91,-56.88 597.12,-63.84"/>
</g>
<!-- Node4 -->
<g id="node4" class="node">
<title>Node4</title>
<g id="a_node4"><a xlink:href="_i_o_manager_8cpp.html" target="_top" xlink:title=" ">
<polygon fill="white" stroke="black" points="268,-0.5 268,-19.5 357,-19.5 357,-0.5 268,-0.5"/>
<text text-anchor="middle" x="312.5" y="-7.5" font-family="Helvetica,sans-Serif" font-size="10.00">IOManager.cpp</text>
</a>
</g>
</g>
<!-- Node1&#45;&gt;Node4 -->
<g id="edge3" class="edge">
<title>Node1&#45;&gt;Node4</title>
<path fill="none" stroke="midnightblue" d="M597.27,-58.27C543.81,-49.52 447.67,-33.75 365.5,-20 362.74,-19.54 359.9,-19.06 357.03,-18.58"/>
<polygon fill="midnightblue" stroke="midnightblue" points="596.94,-61.76 607.38,-59.92 598.07,-54.85 596.94,-61.76"/>
</g>
<!-- Node5 -->
<g id="node5" class="node">
<title>Node5</title>
<g id="a_node5"><a xlink:href="_enstrophy_8cpp.html" target="_top" xlink:title=" ">
<polygon fill="white" stroke="black" points="374.5,-0.5 374.5,-19.5 458.5,-19.5 458.5,-0.5 374.5,-0.5"/>
<text text-anchor="middle" x="416.5" y="-7.5" font-family="Helvetica,sans-Serif" font-size="10.00">Enstrophy.cpp</text>
</a>
</g>
</g>
<!-- Node1&#45;&gt;Node5 -->
<g id="edge4" class="edge">
<title>Node1&#45;&gt;Node5</title>
<path fill="none" stroke="midnightblue" d="M597.29,-54.98C555.42,-44.79 491.27,-29.19 451.71,-19.56"/>
<polygon fill="midnightblue" stroke="midnightblue" points="596.62,-58.41 607.16,-57.38 598.27,-51.61 596.62,-58.41"/>
</g>
<!-- Node6 -->
<g id="node6" class="node">
<title>Node6</title>
<g id="a_node6"><a xlink:href="_field_norms_8cpp.html" target="_top" xlink:title=" ">
<polygon fill="white" stroke="black" points="476.5,-0.5 476.5,-19.5 568.5,-19.5 568.5,-0.5 476.5,-0.5"/>
<text text-anchor="middle" x="522.5" y="-7.5" font-family="Helvetica,sans-Serif" font-size="10.00">FieldNorms.cpp</text>
</a>
</g>
</g>
<!-- Node1&#45;&gt;Node6 -->
<g id="edge5" class="edge">
<title>Node1&#45;&gt;Node6</title>
<path fill="none" stroke="midnightblue" d="M610.78,-52.1C589.11,-42.01 559.6,-28.27 540.79,-19.52"/>
<polygon fill="midnightblue" stroke="midnightblue" points="609.58,-55.4 620.12,-56.44 612.53,-49.05 609.58,-55.4"/>
</g>
<!-- Node7 -->
<g id="node7" class="node">
<title>Node7</title>
<g id="a_node7"><a xlink:href="_kinetic_energy_8cpp.html" target="_top" xlink:title=" ">
<polygon fill="white" stroke="black" points="587,-0.5 587,-19.5 690,-19.5 690,-0.5 587,-0.5"/>
<text text-anchor="middle" x="638.5" y="-7.5" font-family="Helvetica,sans-Serif" font-size="10.00">KineticEnergy.cpp</text>
</a>
</g>
</g>
<!-- Node1&#45;&gt;Node7 -->
<g id="edge6" class="edge">
<title>Node1&#45;&gt;Node7</title>
<path fill="none" stroke="midnightblue" d="M638.5,-45.8C638.5,-36.91 638.5,-26.78 638.5,-19.75"/>
<polygon fill="midnightblue" stroke="midnightblue" points="635,-46.08 638.5,-56.08 642,-46.08 635,-46.08"/>
</g>
<!-- Node8 -->
<g id="node8" class="node">
<title>Node8</title>
<g id="a_node8"><a xlink:href="_sampling_8cpp.html" target="_top" xlink:title=" ">
<polygon fill="white" stroke="black" points="708,-0.5 708,-19.5 791,-19.5 791,-0.5 708,-0.5"/>
<text text-anchor="middle" x="749.5" y="-7.5" font-family="Helvetica,sans-Serif" font-size="10.00">Sampling.cpp</text>
</a>
</g>
</g>
<!-- Node1&#45;&gt;Node8 -->
<g id="edge7" class="edge">
<title>Node1&#45;&gt;Node8</title>
<path fill="none" stroke="midnightblue" d="M665.51,-51.86C686.09,-41.85 713.84,-28.35 731.71,-19.65"/>
<polygon fill="midnightblue" stroke="midnightblue" points="663.8,-48.8 656.33,-56.32 666.86,-55.1 663.8,-48.8"/>
</g>
<!-- Node9 -->
<g id="node9" class="node">
<title>Node9</title>
<g id="a_node9"><a xlink:href="_a_b_l_stats_8cpp.html" target="_top" xlink:title=" ">
<polygon fill="white" stroke="black" points="809.5,-0.5 809.5,-19.5 889.5,-19.5 889.5,-0.5 809.5,-0.5"/>
<text text-anchor="middle" x="849.5" y="-7.5" font-family="Helvetica,sans-Serif" font-size="10.00">ABLStats.cpp</text>
</a>
</g>
</g>
<!-- Node1&#45;&gt;Node9 -->
<g id="edge8" class="edge">
<title>Node1&#45;&gt;Node9</title>
<path fill="none" stroke="midnightblue" d="M679.56,-54.49C719.41,-44.29 779.14,-29.01 816.15,-19.54"/>
<polygon fill="midnightblue" stroke="midnightblue" points="678.45,-51.16 669.63,-57.03 680.19,-57.94 678.45,-51.16"/>
</g>
<!-- Node10 -->
<g id="node10" class="node">
<title>Node10</title>
<g id="a_node10"><a xlink:href="_fast_iface_8cpp.html" target="_top" xlink:title=" ">
<polygon fill="white" stroke="black" points="907.5,-0.5 907.5,-19.5 987.5,-19.5 987.5,-0.5 907.5,-0.5"/>
<text text-anchor="middle" x="947.5" y="-7.5" font-family="Helvetica,sans-Serif" font-size="10.00">FastIface.cpp</text>
</a>
</g>
</g>
<!-- Node1&#45;&gt;Node10 -->
<g id="edge9" class="edge">
<title>Node1&#45;&gt;Node10</title>
<path fill="none" stroke="midnightblue" d="M679.77,-57.99C731.07,-49.25 821.29,-33.77 898.5,-20 901.4,-19.48 904.39,-18.95 907.39,-18.4"/>
<polygon fill="midnightblue" stroke="midnightblue" points="679.01,-54.57 669.74,-59.7 680.18,-61.47 679.01,-54.57"/>
</g>
<!-- Node11 -->
<g id="node11" class="node">
<title>Node11</title>
<g id="a_node11"><a xlink:href="turbine__utils_8cpp.html" target="_top" xlink:title=" ">
<polygon fill="white" stroke="black" points="1005.5,-0.5 1005.5,-19.5 1103.5,-19.5 1103.5,-0.5 1005.5,-0.5"/>
<text text-anchor="middle" x="1054.5" y="-7.5" font-family="Helvetica,sans-Serif" font-size="10.00">turbine_utils.cpp</text>
</a>
</g>
</g>
<!-- Node1&#45;&gt;Node11 -->
<g id="edge10" class="edge">
<title>Node1&#45;&gt;Node11</title>
<path fill="none" stroke="midnightblue" d="M679.76,-60.21C746.44,-52.37 881.97,-36.08 996.5,-20 999.43,-19.59 1002.43,-19.16 1005.47,-18.71"/>
<polygon fill="midnightblue" stroke="midnightblue" points="679.19,-56.75 669.67,-61.39 680.01,-63.7 679.19,-56.75"/>
</g>
<!-- Node12 -->
<g id="node12" class="node">
<title>Node12</title>
<g id="a_node12"><a xlink:href="wing__ops_8cpp.html" target="_top" xlink:title=" ">
<polygon fill="white" stroke="black" points="1122,-0.5 1122,-19.5 1205,-19.5 1205,-0.5 1122,-0.5"/>
<text text-anchor="middle" x="1163.5" y="-7.5" font-family="Helvetica,sans-Serif" font-size="10.00">wing_ops.cpp</text>
</a>
</g>
</g>
<!-- Node1&#45;&gt;Node12 -->
<g id="edge11" class="edge">
<title>Node1&#45;&gt;Node12</title>
<path fill="none" stroke="midnightblue" d="M679.87,-62.19C762.39,-56.34 953.2,-41.58 1112.5,-20 1115.53,-19.59 1118.65,-19.13 1121.79,-18.64"/>
<polygon fill="midnightblue" stroke="midnightblue" points="679.39,-58.72 669.66,-62.91 679.88,-65.7 679.39,-58.72"/>
</g>
</g>
</svg>
