<?xml version="1.0" encoding="UTF-8" standalone="no"?>
<!DOCTYPE svg PUBLIC "-//W3C//DTD SVG 1.1//EN"
 "http://www.w3.org/Graphics/SVG/1.1/DTD/svg11.dtd">
<!-- Generated by graphviz version 2.43.0 (0)
 -->
<!-- Title: io_utils.H Pages: 1 -->
<!--zoomable 84 -->
<svg id="main" version="1.1" xmlns="http://www.w3.org/2000/svg" xmlns:xlink="http://www.w3.org/1999/xlink" xml:space="preserve" onload="init(evt)">
<style type="text/css"><![CDATA[
.edge:hover path { stroke: red; }
.edge:hover polygon { stroke: red; fill: red; }
]]></style>
<script type="text/javascript"><![CDATA[
var edges = document.getElementsByTagName('g');
if (edges && edges.length) {
  for (var i=0;i<edges.length;i++) {
    if (edges[i].id.substr(0,4)=='edge') {
      edges[i].setAttribute('class','edge');
    }
  }
}
]]></script>
        <defs>
                <circle id="rim" cx="0" cy="0" r="7"/>
                <circle id="rim2" cx="0" cy="0" r="3.5"/>
                <g id="zoomPlus">
                        <use xlink:href="#rim" fill="#404040">
                                <set attributeName="fill" to="#808080" begin="zoomplus.mouseover" end="zoomplus.mouseout"/>
                        </use>
                        <path d="M-4,0h8M0,-4v8" fill="none" stroke="white" stroke-width="1.5" pointer-events="none"/>
                </g>
                <g id="zoomMin">
                        <use xlink:href="#rim" fill="#404040">
                                <set attributeName="fill" to="#808080" begin="zoomminus.mouseover" end="zoomminus.mouseout"/>
                        </use>
                        <path d="M-4,0h8" fill="none" stroke="white" stroke-width="1.5" pointer-events="none"/>
                </g>
                <g id="dirArrow">
                        <path fill="none" stroke="white" stroke-width="1.5" d="M0,-3.0v7 M-2.5,-0.5L0,-3.0L2.5,-0.5"/>
                </g>
               <g id="resetDef">
                       <use xlink:href="#rim2" fill="#404040">
                               <set attributeName="fill" to="#808080" begin="reset.mouseover" end="reset.mouseout"/>
                       </use>
               </g>
        </defs>

<script type="text/javascript">
var viewWidth = 2043;
var viewHeight = 84;
var sectionId = 'dynsection-1';
</script>
<script xlink:href="svgpan.js"/>
<svg id="graph" class="graph">
<g id="viewport">
<title>io_utils.H</title>
<polygon fill="white" stroke="transparent" points="-4,4 -4,-80 2038.5,-80 2038.5,4 -4,4"/>
<!-- Node1 -->
<g id="node1" class="node">
<title>Node1</title>
<g id="a_node1"><a xlink:title=" ">
<polygon fill="#bfbfbf" stroke="black" points="1038,-56.5 1038,-75.5 1100,-75.5 1100,-56.5 1038,-56.5"/>
<text text-anchor="middle" x="1069" y="-63.5" font-family="Helvetica,sans-Serif" font-size="10.00">io_utils.H</text>
</a>
</g>
</g>
<!-- Node2 -->
<g id="node2" class="node">
<title>Node2</title>
<g id="a_node2"><a xlink:href="bluff__body__ops_8cpp.html" target="_top" xlink:title=" ">
<polygon fill="white" stroke="black" points="0,-0.5 0,-19.5 110,-19.5 110,-0.5 0,-0.5"/>
<text text-anchor="middle" x="55" y="-7.5" font-family="Helvetica,sans-Serif" font-size="10.00">bluff_body_ops.cpp</text>
</a>
</g>
</g>
<!-- Node1&#45;&gt;Node2 -->
<g id="edge1" class="edge">
<title>Node1&#45;&gt;Node2</title>
<path fill="none" stroke="midnightblue" d="M1027.65,-64.4C895.19,-62.21 469.53,-52.88 119,-20 116.1,-19.73 113.12,-19.42 110.12,-19.08"/>
<polygon fill="midnightblue" stroke="midnightblue" points="1027.71,-67.91 1037.76,-64.57 1027.82,-60.91 1027.71,-67.91"/>
</g>
<!-- Node3 -->
<g id="node3" class="node">
<title>Node3</title>
<g id="a_node3"><a xlink:href="relaxation__zones__ops_8cpp.html" target="_top" xlink:title=" ">
<polygon fill="white" stroke="black" points="128.5,-0.5 128.5,-19.5 271.5,-19.5 271.5,-0.5 128.5,-0.5"/>
<text text-anchor="middle" x="200" y="-7.5" font-family="Helvetica,sans-Serif" font-size="10.00">relaxation_zones_ops.cpp</text>
</a>
</g>
</g>
<!-- Node1&#45;&gt;Node3 -->
<g id="edge2" class="edge">
<title>Node1&#45;&gt;Node3</title>
<path fill="none" stroke="midnightblue" d="M1027.43,-63.44C909.92,-58.84 565.36,-44.17 280,-20 277.21,-19.76 274.38,-19.51 271.51,-19.24"/>
<polygon fill="midnightblue" stroke="midnightblue" points="1027.63,-66.95 1037.76,-63.84 1027.9,-59.95 1027.63,-66.95"/>
</g>
<!-- Node4 -->
<g id="node4" class="node">
<title>Node4</title>
<g id="a_node4"><a xlink:href="ascent_8cpp.html" target="_top" xlink:title=" ">
<polygon fill="white" stroke="black" points="289.5,-0.5 289.5,-19.5 358.5,-19.5 358.5,-0.5 289.5,-0.5"/>
<text text-anchor="middle" x="324" y="-7.5" font-family="Helvetica,sans-Serif" font-size="10.00">ascent.cpp</text>
</a>
</g>
</g>
<!-- Node1&#45;&gt;Node4 -->
<g id="edge3" class="edge">
<title>Node1&#45;&gt;Node4</title>
<path fill="none" stroke="midnightblue" d="M1027.48,-64.4C918.62,-62.37 616.15,-53.88 367,-20 364.28,-19.63 361.47,-19.19 358.66,-18.7"/>
<polygon fill="midnightblue" stroke="midnightblue" points="1027.64,-67.9 1037.7,-64.58 1027.77,-60.9 1027.64,-67.9"/>
</g>
<!-- Node5 -->
<g id="node5" class="node">
<title>Node5</title>
<g id="a_node5"><a xlink:href="_derived_qty_defs_8cpp.html" target="_top" xlink:title=" ">
<polygon fill="white" stroke="black" points="376.5,-0.5 376.5,-19.5 491.5,-19.5 491.5,-0.5 376.5,-0.5"/>
<text text-anchor="middle" x="434" y="-7.5" font-family="Helvetica,sans-Serif" font-size="10.00">DerivedQtyDefs.cpp</text>
</a>
</g>
</g>
<!-- Node1&#45;&gt;Node5 -->
<g id="edge4" class="edge">
<title>Node1&#45;&gt;Node5</title>
<path fill="none" stroke="midnightblue" d="M1027.65,-62.5C933.84,-56.66 697.76,-40.99 501,-20 497.97,-19.68 494.86,-19.33 491.72,-18.96"/>
<polygon fill="midnightblue" stroke="midnightblue" points="1027.65,-66.01 1037.85,-63.13 1028.09,-59.02 1027.65,-66.01"/>
</g>
<!-- Node6 -->
<g id="node6" class="node">
<title>Node6</title>
<g id="a_node6"><a xlink:href="_derived_quantity_8cpp.html" target="_top" xlink:title=" ">
<polygon fill="white" stroke="black" points="510,-0.5 510,-19.5 626,-19.5 626,-0.5 510,-0.5"/>
<text text-anchor="middle" x="568" y="-7.5" font-family="Helvetica,sans-Serif" font-size="10.00">DerivedQuantity.cpp</text>
</a>
</g>
</g>
<!-- Node1&#45;&gt;Node6 -->
<g id="edge5" class="edge">
<title>Node1&#45;&gt;Node6</title>
<path fill="none" stroke="midnightblue" d="M1027.66,-61.13C950.43,-53.82 779.04,-37.14 635,-20 632.09,-19.65 629.1,-19.29 626.09,-18.91"/>
<polygon fill="midnightblue" stroke="midnightblue" points="1027.63,-64.65 1037.92,-62.1 1028.29,-57.68 1027.63,-64.65"/>
</g>
<!-- Node7 -->
<g id="node7" class="node">
<title>Node7</title>
<g id="a_node7"><a xlink:href="_i_o_manager_8cpp.html" target="_top" xlink:title=" ">
<polygon fill="white" stroke="black" points="644.5,-0.5 644.5,-19.5 733.5,-19.5 733.5,-0.5 644.5,-0.5"/>
<text text-anchor="middle" x="689" y="-7.5" font-family="Helvetica,sans-Serif" font-size="10.00">IOManager.cpp</text>
</a>
</g>
</g>
<!-- Node1&#45;&gt;Node7 -->
<g id="edge6" class="edge">
<title>Node1&#45;&gt;Node7</title>
<path fill="none" stroke="midnightblue" d="M1027.67,-59.74C965.57,-51.73 844.54,-35.76 742,-20 739.23,-19.57 736.39,-19.13 733.52,-18.66"/>
<polygon fill="midnightblue" stroke="midnightblue" points="1027.48,-63.24 1037.84,-61.04 1028.37,-56.3 1027.48,-63.24"/>
</g>
<!-- Node8 -->
<g id="node8" class="node">
<title>Node8</title>
<g id="a_node8"><a xlink:href="_enstrophy_8cpp.html" target="_top" xlink:title=" ">
<polygon fill="white" stroke="black" points="751,-0.5 751,-19.5 835,-19.5 835,-0.5 751,-0.5"/>
<text text-anchor="middle" x="793" y="-7.5" font-family="Helvetica,sans-Serif" font-size="10.00">Enstrophy.cpp</text>
</a>
</g>
</g>
<!-- Node1&#45;&gt;Node8 -->
<g id="edge7" class="edge">
<title>Node1&#45;&gt;Node8</title>
<path fill="none" stroke="midnightblue" d="M1028.04,-56.99C976.27,-46.86 887.63,-29.51 835.26,-19.27"/>
<polygon fill="midnightblue" stroke="midnightblue" points="1027.39,-60.43 1037.88,-58.91 1028.73,-53.56 1027.39,-60.43"/>
</g>
<!-- Node9 -->
<g id="node9" class="node">
<title>Node9</title>
<g id="a_node9"><a xlink:href="_field_norms_8cpp.html" target="_top" xlink:title=" ">
<polygon fill="white" stroke="black" points="853,-0.5 853,-19.5 945,-19.5 945,-0.5 853,-0.5"/>
<text text-anchor="middle" x="899" y="-7.5" font-family="Helvetica,sans-Serif" font-size="10.00">FieldNorms.cpp</text>
</a>
</g>
</g>
<!-- Node1&#45;&gt;Node9 -->
<g id="edge8" class="edge">
<title>Node1&#45;&gt;Node9</title>
<path fill="none" stroke="midnightblue" d="M1032.18,-53.3C1000.15,-43.13 954.48,-28.62 925.81,-19.52"/>
<polygon fill="midnightblue" stroke="midnightblue" points="1031.47,-56.75 1042.06,-56.44 1033.59,-50.08 1031.47,-56.75"/>
</g>
<!-- Node10 -->
<g id="node10" class="node">
<title>Node10</title>
<g id="a_node10"><a xlink:href="_free_surface_8cpp.html" target="_top" xlink:title=" ">
<polygon fill="white" stroke="black" points="963.5,-0.5 963.5,-19.5 1058.5,-19.5 1058.5,-0.5 963.5,-0.5"/>
<text text-anchor="middle" x="1011" y="-7.5" font-family="Helvetica,sans-Serif" font-size="10.00">FreeSurface.cpp</text>
</a>
</g>
</g>
<!-- Node1&#45;&gt;Node10 -->
<g id="edge9" class="edge">
<title>Node1&#45;&gt;Node10</title>
<path fill="none" stroke="midnightblue" d="M1052.09,-49.25C1041.8,-39.67 1029.03,-27.79 1020.49,-19.83"/>
<polygon fill="midnightblue" stroke="midnightblue" points="1049.98,-52.07 1059.68,-56.32 1054.75,-46.95 1049.98,-52.07"/>
</g>
<!-- Node11 -->
<g id="node11" class="node">
<title>Node11</title>
<g id="a_node11"><a xlink:href="_kinetic_energy_8cpp.html" target="_top" xlink:title=" ">
<polygon fill="white" stroke="black" points="1076.5,-0.5 1076.5,-19.5 1179.5,-19.5 1179.5,-0.5 1076.5,-0.5"/>
<text text-anchor="middle" x="1128" y="-7.5" font-family="Helvetica,sans-Serif" font-size="10.00">KineticEnergy.cpp</text>
</a>
</g>
</g>
<!-- Node1&#45;&gt;Node11 -->
<g id="edge10" class="edge">
<title>Node1&#45;&gt;Node11</title>
<path fill="none" stroke="midnightblue" d="M1085.89,-49.54C1096.41,-39.91 1109.57,-27.87 1118.35,-19.83"/>
<polygon fill="midnightblue" stroke="midnightblue" points="1083.49,-46.99 1078.48,-56.32 1088.22,-52.15 1083.49,-46.99"/>
</g>
<!-- Node12 -->
<g id="node12" class="node">
<title>Node12</title>
<g id="a_node12"><a xlink:href="_sampling_8cpp.html" target="_top" xlink:title=" ">
<polygon fill="white" stroke="black" points="1197.5,-0.5 1197.5,-19.5 1280.5,-19.5 1280.5,-0.5 1197.5,-0.5"/>
<text text-anchor="middle" x="1239" y="-7.5" font-family="Helvetica,sans-Serif" font-size="10.00">Sampling.cpp</text>
</a>
</g>
</g>
<!-- Node1&#45;&gt;Node12 -->
<g id="edge11" class="edge">
<title>Node1&#45;&gt;Node12</title>
<path fill="none" stroke="midnightblue" d="M1105.82,-53.3C1137.85,-43.13 1183.52,-28.62 1212.19,-19.52"/>
<polygon fill="midnightblue" stroke="midnightblue" points="1104.41,-50.08 1095.94,-56.44 1106.53,-56.75 1104.41,-50.08"/>
</g>
<!-- Node13 -->
<g id="node13" class="node">
<title>Node13</title>
<g id="a_node13"><a xlink:href="_wave_energy_8cpp.html" target="_top" xlink:title=" ">
<polygon fill="white" stroke="black" points="1299,-0.5 1299,-19.5 1395,-19.5 1395,-0.5 1299,-0.5"/>
<text text-anchor="middle" x="1347" y="-7.5" font-family="Helvetica,sans-Serif" font-size="10.00">WaveEnergy.cpp</text>
</a>
</g>
</g>
<!-- Node1&#45;&gt;Node13 -->
<g id="edge12" class="edge">
<title>Node1&#45;&gt;Node13</title>
<path fill="none" stroke="midnightblue" d="M1110.21,-57C1161.84,-46.97 1249.94,-29.85 1302.89,-19.57"/>
<polygon fill="midnightblue" stroke="midnightblue" points="1109.23,-53.62 1100.08,-58.96 1110.56,-60.49 1109.23,-53.62"/>
</g>
<!-- Node14 -->
<g id="node14" class="node">
<title>Node14</title>
<g id="a_node14"><a xlink:href="_a_b_l_stats_8cpp.html" target="_top" xlink:title=" ">
<polygon fill="white" stroke="black" points="1413,-0.5 1413,-19.5 1493,-19.5 1493,-0.5 1413,-0.5"/>
<text text-anchor="middle" x="1453" y="-7.5" font-family="Helvetica,sans-Serif" font-size="10.00">ABLStats.cpp</text>
</a>
</g>
</g>
<!-- Node1&#45;&gt;Node14 -->
<g id="edge13" class="edge">
<title>Node1&#45;&gt;Node14</title>
<path fill="none" stroke="midnightblue" d="M1109.99,-60.14C1173.22,-52.49 1298.32,-36.79 1404,-20 1406.9,-19.54 1409.9,-19.04 1412.92,-18.52"/>
<polygon fill="midnightblue" stroke="midnightblue" points="1109.53,-56.67 1100.02,-61.34 1110.36,-63.62 1109.53,-56.67"/>
</g>
<!-- Node15 -->
<g id="node15" class="node">
<title>Node15</title>
<g id="a_node15"><a xlink:href="disk__ops_8cpp.html" target="_top" xlink:title=" ">
<polygon fill="white" stroke="black" points="1511,-0.5 1511,-19.5 1591,-19.5 1591,-0.5 1511,-0.5"/>
<text text-anchor="middle" x="1551" y="-7.5" font-family="Helvetica,sans-Serif" font-size="10.00">disk_ops.cpp</text>
</a>
</g>
</g>
<!-- Node1&#45;&gt;Node15 -->
<g id="edge14" class="edge">
<title>Node1&#45;&gt;Node15</title>
<path fill="none" stroke="midnightblue" d="M1110.34,-61.79C1187.53,-55.54 1358.74,-40.57 1502,-20 1504.91,-19.58 1507.91,-19.12 1510.93,-18.62"/>
<polygon fill="midnightblue" stroke="midnightblue" points="1109.77,-58.32 1100.08,-62.61 1110.33,-65.3 1109.77,-58.32"/>
</g>
<!-- Node16 -->
<g id="node16" class="node">
<title>Node16</title>
<g id="a_node16"><a xlink:href="_joukowsky__ops_8cpp.html" target="_top" xlink:title=" ">
<polygon fill="white" stroke="black" points="1609,-0.5 1609,-19.5 1719,-19.5 1719,-0.5 1609,-0.5"/>
<text text-anchor="middle" x="1664" y="-7.5" font-family="Helvetica,sans-Serif" font-size="10.00">Joukowsky_ops.cpp</text>
</a>
</g>
</g>
<!-- Node1&#45;&gt;Node16 -->
<g id="edge15" class="edge">
<title>Node1&#45;&gt;Node16</title>
<path fill="none" stroke="midnightblue" d="M1110.18,-62.29C1199.53,-56.23 1417.82,-40.51 1600,-20 1602.9,-19.67 1605.87,-19.32 1608.87,-18.95"/>
<polygon fill="midnightblue" stroke="midnightblue" points="1109.92,-58.8 1100.18,-62.96 1110.39,-65.78 1109.92,-58.8"/>
</g>
<!-- Node17 -->
<g id="node17" class="node">
<title>Node17</title>
<g id="a_node17"><a xlink:href="_fast_iface_8cpp.html" target="_top" xlink:title=" ">
<polygon fill="white" stroke="black" points="1737,-0.5 1737,-19.5 1817,-19.5 1817,-0.5 1737,-0.5"/>
<text text-anchor="middle" x="1777" y="-7.5" font-family="Helvetica,sans-Serif" font-size="10.00">FastIface.cpp</text>
</a>
</g>
</g>
<!-- Node1&#45;&gt;Node17 -->
<g id="edge16" class="edge">
<title>Node1&#45;&gt;Node17</title>
<path fill="none" stroke="midnightblue" d="M1110.06,-63.82C1213.92,-60.47 1495.34,-49.21 1728,-20 1730.92,-19.63 1733.92,-19.21 1736.95,-18.74"/>
<polygon fill="midnightblue" stroke="midnightblue" points="1109.88,-60.32 1100,-64.13 1110.11,-67.32 1109.88,-60.32"/>
</g>
<!-- Node18 -->
<g id="node18" class="node">
<title>Node18</title>
<g id="a_node18"><a xlink:href="turbine__utils_8cpp.html" target="_top" xlink:title=" ">
<polygon fill="white" stroke="black" points="1835,-0.5 1835,-19.5 1933,-19.5 1933,-0.5 1835,-0.5"/>
<text text-anchor="middle" x="1884" y="-7.5" font-family="Helvetica,sans-Serif" font-size="10.00">turbine_utils.cpp</text>
</a>
</g>
</g>
<!-- Node1&#45;&gt;Node18 -->
<g id="edge17" class="edge">
<title>Node1&#45;&gt;Node18</title>
<path fill="none" stroke="midnightblue" d="M1110.13,-63.92C1224.13,-60.64 1553.7,-49.15 1826,-20 1828.94,-19.69 1831.96,-19.33 1835,-18.94"/>
<polygon fill="midnightblue" stroke="midnightblue" points="1109.99,-60.42 1100.09,-64.21 1110.19,-67.42 1109.99,-60.42"/>
</g>
<!-- Node19 -->
<g id="node19" class="node">
<title>Node19</title>
<g id="a_node19"><a xlink:href="wing__ops_8cpp.html" target="_top" xlink:title=" ">
<polygon fill="white" stroke="black" points="1951.5,-0.5 1951.5,-19.5 2034.5,-19.5 2034.5,-0.5 1951.5,-0.5"/>
<text text-anchor="middle" x="1993" y="-7.5" font-family="Helvetica,sans-Serif" font-size="10.00">wing_ops.cpp</text>
</a>
</g>
</g>
<!-- Node1&#45;&gt;Node19 -->
<g id="edge18" class="edge">
<title>Node1&#45;&gt;Node19</title>
<path fill="none" stroke="midnightblue" d="M1110.34,-64.67C1235.83,-63.3 1623.31,-56.19 1942,-20 1945.04,-19.66 1948.17,-19.24 1951.31,-18.79"/>
<polygon fill="midnightblue" stroke="midnightblue" points="1110.01,-61.18 1100.04,-64.78 1110.08,-68.18 1110.01,-61.18"/>
</g>
</g>
</svg>
        <g id="navigator" transform="translate(0 0)" fill="#404254">
                <rect fill="#f2f5e9" fill-opacity="0.5" stroke="#606060" stroke-width=".5" x="0" y="0" width="60" height="60"/>
                <use id="zoomplus" xlink:href="#zoomPlus" x="17" y="9" onmousedown="handleZoom(evt,'in')"/>
                <use id="zoomminus" xlink:href="#zoomMin" x="42" y="9" onmousedown="handleZoom(evt,'out')"/>
                <use id="reset" xlink:href="#resetDef" x="30" y="36" onmousedown="handleReset()"/>
                <g id="arrowUp" xlink:href="#dirArrow" transform="translate(30 24)" onmousedown="handlePan(0,-1)">
                  <use xlink:href="#rim" fill="#404040">
                        <set attributeName="fill" to="#808080" begin="arrowUp.mouseover" end="arrowUp.mouseout"/>
                  </use>
                  <path fill="none" stroke="white" stroke-width="1.5" d="M0,-3.0v7 M-2.5,-0.5L0,-3.0L2.5,-0.5"/>
                </g>
                <g id="arrowRight" xlink:href="#dirArrow" transform="rotate(90) translate(36 -43)" onmousedown="handlePan(1,0)">
                  <use xlink:href="#rim" fill="#404040">
                        <set attributeName="fill" to="#808080" begin="arrowRight.mouseover" end="arrowRight.mouseout"/>
                  </use>
                  <path fill="none" stroke="white" stroke-width="1.5" d="M0,-3.0v7 M-2.5,-0.5L0,-3.0L2.5,-0.5"/>
                </g>
                <g id="arrowDown" xlink:href="#dirArrow" transform="rotate(180) translate(-30 -48)" onmousedown="handlePan(0,1)">
                  <use xlink:href="#rim" fill="#404040">
                        <set attributeName="fill" to="#808080" begin="arrowDown.mouseover" end="arrowDown.mouseout"/>
                  </use>
                  <path fill="none" stroke="white" stroke-width="1.5" d="M0,-3.0v7 M-2.5,-0.5L0,-3.0L2.5,-0.5"/>
                </g>
                <g id="arrowLeft" xlink:href="#dirArrow" transform="rotate(270) translate(-36 17)" onmousedown="handlePan(-1,0)">
                  <use xlink:href="#rim" fill="#404040">
                        <set attributeName="fill" to="#808080" begin="arrowLeft.mouseover" end="arrowLeft.mouseout"/>
                  </use>
                  <path fill="none" stroke="white" stroke-width="1.5" d="M0,-3.0v7 M-2.5,-0.5L0,-3.0L2.5,-0.5"/>
                </g>
        </g>
        <svg viewBox="0 0 15 15" width="100%" height="30px" preserveAspectRatio="xMaxYMin meet">
         <g id="arrow_out" transform="scale(0.3 0.3)">
          <a xlink:href="io__utils_8_h__dep__incl_org.svg" target="_base">
           <rect id="button" ry="5" rx="5" y="6" x="6" height="38" width="38"
                fill="#f2f5e9" fill-opacity="0.5" stroke="#606060" stroke-width="1.0"/>
           <path id="arrow"
             d="M 11.500037,31.436501 C 11.940474,20.09759 22.043105,11.32322 32.158766,21.979434 L 37.068811,17.246167 C 37.068811,17.246167 37.088388,32 37.088388,32 L 22.160133,31.978069 C 22.160133,31.978069 26.997745,27.140456 26.997745,27.140456 C 18.528582,18.264221 13.291696,25.230495 11.500037,31.436501 z"
             style="fill:#404040;"/>
          </a>
         </g>
        </svg>
</svg>
