<?xml version="1.0" encoding="UTF-8" standalone="no"?>
<!DOCTYPE svg PUBLIC "-//W3C//DTD SVG 1.1//EN"
 "http://www.w3.org/Graphics/SVG/1.1/DTD/svg11.dtd">
<!-- Generated by graphviz version 2.43.0 (0)
 -->
<!-- Title: linear_interpolation.H Pages: 1 -->
<svg width="220pt" height="140pt"
 viewBox="0.00 0.00 219.50 140.00" xmlns="http://www.w3.org/2000/svg" xmlns:xlink="http://www.w3.org/1999/xlink">
<g id="graph0" class="graph" transform="scale(1 1) rotate(0) translate(4 136)">
<title>linear_interpolation.H</title>
<polygon fill="white" stroke="transparent" points="-4,4 -4,-136 215.5,-136 215.5,4 -4,4"/>
<!-- Node1 -->
<g id="node1" class="node">
<title>Node1</title>
<g id="a_node1"><a xlink:title=" ">
<polygon fill="#bfbfbf" stroke="black" points="42,-112.5 42,-131.5 164,-131.5 164,-112.5 42,-112.5"/>
<text text-anchor="middle" x="103" y="-119.5" font-family="Helvetica,sans-Serif" font-size="10.00">linear_interpolation.H</text>
</a>
</g>
</g>
<!-- Node2 -->
<g id="node2" class="node">
<title>Node2</title>
<g id="a_node2"><a xlink:href="_airfoil_table_8cpp.html" target="_top" xlink:title=" ">
<polygon fill="white" stroke="black" points="0,-56.5 0,-75.5 92,-75.5 92,-56.5 0,-56.5"/>
<text text-anchor="middle" x="46" y="-63.5" font-family="Helvetica,sans-Serif" font-size="10.00">AirfoilTable.cpp</text>
</a>
</g>
</g>
<!-- Node1&#45;&gt;Node2 -->
<g id="edge1" class="edge">
<title>Node1&#45;&gt;Node2</title>
<path fill="none" stroke="midnightblue" d="M86.38,-105.25C76.27,-95.67 63.72,-83.79 55.32,-75.83"/>
<polygon fill="midnightblue" stroke="midnightblue" points="84.18,-107.99 93.84,-112.32 88.99,-102.91 84.18,-107.99"/>
</g>
<!-- Node3 -->
<g id="node3" class="node">
<title>Node3</title>
<g id="a_node3"><a xlink:href="fixed__wing__ops_8_h.html" target="_top" xlink:title=" ">
<polygon fill="white" stroke="black" points="110.5,-56.5 110.5,-75.5 211.5,-75.5 211.5,-56.5 110.5,-56.5"/>
<text text-anchor="middle" x="161" y="-63.5" font-family="Helvetica,sans-Serif" font-size="10.00">fixed_wing_ops.H</text>
</a>
</g>
</g>
<!-- Node1&#45;&gt;Node3 -->
<g id="edge2" class="edge">
<title>Node1&#45;&gt;Node3</title>
<path fill="none" stroke="midnightblue" d="M119.91,-105.25C130.2,-95.67 142.97,-83.79 151.51,-75.83"/>
<polygon fill="midnightblue" stroke="midnightblue" points="117.25,-102.95 112.32,-112.32 122.02,-108.07 117.25,-102.95"/>
</g>
<!-- Node4 -->
<g id="node4" class="node">
<title>Node4</title>
<g id="a_node4"><a xlink:href="_fixed_wing_8cpp.html" target="_top" xlink:title=" ">
<polygon fill="white" stroke="black" points="117.5,-0.5 117.5,-19.5 204.5,-19.5 204.5,-0.5 117.5,-0.5"/>
<text text-anchor="middle" x="161" y="-7.5" font-family="Helvetica,sans-Serif" font-size="10.00">FixedWing.cpp</text>
</a>
</g>
</g>
<!-- Node3&#45;&gt;Node4 -->
<g id="edge3" class="edge">
<title>Node3&#45;&gt;Node4</title>
<path fill="none" stroke="midnightblue" d="M161,-45.8C161,-36.91 161,-26.78 161,-19.75"/>
<polygon fill="midnightblue" stroke="midnightblue" points="157.5,-46.08 161,-56.08 164.5,-46.08 157.5,-46.08"/>
</g>
</g>
</svg>
