<?xml version="1.0" encoding="UTF-8" standalone="no"?>
<!DOCTYPE svg PUBLIC "-//W3C//DTD SVG 1.1//EN"
 "http://www.w3.org/Graphics/SVG/1.1/DTD/svg11.dtd">
<!-- Generated by graphviz version 2.43.0 (0)
 -->
<!-- Title: nc_interface.H Pages: 1 -->
<!--zoomable 207 -->
<svg id="main" version="1.1" xmlns="http://www.w3.org/2000/svg" xmlns:xlink="http://www.w3.org/1999/xlink" xml:space="preserve" onload="init(evt)">
<style type="text/css"><![CDATA[
.edge:hover path { stroke: red; }
.edge:hover polygon { stroke: red; fill: red; }
]]></style>
<script type="text/javascript"><![CDATA[
var edges = document.getElementsByTagName('g');
if (edges && edges.length) {
  for (var i=0;i<edges.length;i++) {
    if (edges[i].id.substr(0,4)=='edge') {
      edges[i].setAttribute('class','edge');
    }
  }
}
]]></script>
        <defs>
                <circle id="rim" cx="0" cy="0" r="7"/>
                <circle id="rim2" cx="0" cy="0" r="3.5"/>
                <g id="zoomPlus">
                        <use xlink:href="#rim" fill="#404040">
                                <set attributeName="fill" to="#808080" begin="zoomplus.mouseover" end="zoomplus.mouseout"/>
                        </use>
                        <path d="M-4,0h8M0,-4v8" fill="none" stroke="white" stroke-width="1.5" pointer-events="none"/>
                </g>
                <g id="zoomMin">
                        <use xlink:href="#rim" fill="#404040">
                                <set attributeName="fill" to="#808080" begin="zoomminus.mouseover" end="zoomminus.mouseout"/>
                        </use>
                        <path d="M-4,0h8" fill="none" stroke="white" stroke-width="1.5" pointer-events="none"/>
                </g>
                <g id="dirArrow">
                        <path fill="none" stroke="white" stroke-width="1.5" d="M0,-3.0v7 M-2.5,-0.5L0,-3.0L2.5,-0.5"/>
                </g>
               <g id="resetDef">
                       <use xlink:href="#rim2" fill="#404040">
                               <set attributeName="fill" to="#808080" begin="reset.mouseover" end="reset.mouseout"/>
                       </use>
               </g>
        </defs>

<script type="text/javascript">
var viewWidth = 1862;
var viewHeight = 207;
var sectionId = 'dynsection-1';
</script>
<script xlink:href="svgpan.js"/>
<svg id="graph" class="graph">
<g id="viewport">
<title>nc_interface.H</title>
<polygon fill="white" stroke="transparent" points="-4,4 -4,-203 1858,-203 1858,4 -4,4"/>
<!-- Node1 -->
<g id="node1" class="node">
<title>Node1</title>
<g id="a_node1"><a xlink:title=" ">
<polygon fill="#bfbfbf" stroke="black" points="863,-179.5 863,-198.5 950,-198.5 950,-179.5 863,-179.5"/>
<text text-anchor="middle" x="906.5" y="-186.5" font-family="Helvetica,sans-Serif" font-size="10.00">nc_interface.H</text>
</a>
</g>
</g>
<!-- Node2 -->
<g id="node2" class="node">
<title>Node2</title>
<g id="a_node2"><a xlink:href="_a_b_l_boundary_plane_8_h.html" target="_top" xlink:title=" ">
<polygon fill="white" stroke="black" points="232,-123.5 232,-142.5 351,-142.5 351,-123.5 232,-123.5"/>
<text text-anchor="middle" x="291.5" y="-130.5" font-family="Helvetica,sans-Serif" font-size="10.00">ABLBoundaryPlane.H</text>
</a>
</g>
</g>
<!-- Node1&#45;&gt;Node2 -->
<g id="edge1" class="edge">
<title>Node1&#45;&gt;Node2</title>
<path fill="none" stroke="midnightblue" d="M852.7,-184.25C755.24,-177.29 543.02,-161.41 364.5,-143 360.18,-142.55 355.72,-142.07 351.24,-141.56"/>
<polygon fill="midnightblue" stroke="midnightblue" points="852.66,-187.75 862.89,-184.97 853.16,-180.77 852.66,-187.75"/>
</g>
<!-- Node11 -->
<g id="node11" class="node">
<title>Node11</title>
<g id="a_node11"><a xlink:href="_a_b_l_boundary_plane_8cpp.html" target="_top" xlink:title=" ">
<polygon fill="white" stroke="black" points="0,-6 0,-25 129,-25 129,-6 0,-6"/>
<text text-anchor="middle" x="64.5" y="-13" font-family="Helvetica,sans-Serif" font-size="10.00">ABLBoundaryPlane.cpp</text>
</a>
</g>
</g>
<!-- Node1&#45;&gt;Node11 -->
<g id="edge33" class="edge">
<title>Node1&#45;&gt;Node11</title>
<path fill="none" stroke="midnightblue" d="M852.64,-187.2C712.83,-184.7 341,-175.12 222.5,-143 168.78,-128.44 152.04,-124.04 110.5,-87 90.21,-68.91 75.12,-39.89 68.39,-25.37"/>
<polygon fill="midnightblue" stroke="midnightblue" points="852.63,-190.7 862.69,-187.38 852.76,-183.7 852.63,-190.7"/>
</g>
<!-- Node14 -->
<g id="node14" class="node">
<title>Node14</title>
<g id="a_node14"><a xlink:href="_synthetic_turbulence_8cpp.html" target="_top" xlink:title=" ">
<polygon fill="white" stroke="black" points="374,-123.5 374,-142.5 509,-142.5 509,-123.5 374,-123.5"/>
<text text-anchor="middle" x="441.5" y="-130.5" font-family="Helvetica,sans-Serif" font-size="10.00">SyntheticTurbulence.cpp</text>
</a>
</g>
</g>
<!-- Node1&#45;&gt;Node14 -->
<g id="edge15" class="edge">
<title>Node1&#45;&gt;Node14</title>
<path fill="none" stroke="midnightblue" d="M852.59,-181.81C777.49,-173.18 637.13,-157 517.5,-143 514.73,-142.68 511.9,-142.34 509.04,-142.01"/>
<polygon fill="midnightblue" stroke="midnightblue" points="852.41,-185.31 862.74,-182.98 853.21,-178.36 852.41,-185.31"/>
</g>
<!-- Node15 -->
<g id="node15" class="node">
<title>Node15</title>
<g id="a_node15"><a xlink:href="nc__interface_8cpp.html" target="_top" xlink:title=" ">
<polygon fill="white" stroke="black" points="527,-123.5 527,-142.5 624,-142.5 624,-123.5 527,-123.5"/>
<text text-anchor="middle" x="575.5" y="-130.5" font-family="Helvetica,sans-Serif" font-size="10.00">nc_interface.cpp</text>
</a>
</g>
</g>
<!-- Node1&#45;&gt;Node15 -->
<g id="edge16" class="edge">
<title>Node1&#45;&gt;Node15</title>
<path fill="none" stroke="midnightblue" d="M852.7,-179.22C789.35,-168.89 685.04,-151.87 624.05,-141.92"/>
<polygon fill="midnightblue" stroke="midnightblue" points="852.45,-182.73 862.89,-180.88 853.58,-175.82 852.45,-182.73"/>
</g>
<!-- Node16 -->
<g id="node16" class="node">
<title>Node16</title>
<g id="a_node16"><a xlink:href="_enstrophy_8cpp.html" target="_top" xlink:title=" ">
<polygon fill="white" stroke="black" points="642.5,-123.5 642.5,-142.5 726.5,-142.5 726.5,-123.5 642.5,-123.5"/>
<text text-anchor="middle" x="684.5" y="-130.5" font-family="Helvetica,sans-Serif" font-size="10.00">Enstrophy.cpp</text>
</a>
</g>
</g>
<!-- Node1&#45;&gt;Node16 -->
<g id="edge17" class="edge">
<title>Node1&#45;&gt;Node16</title>
<path fill="none" stroke="midnightblue" d="M861.38,-177.02C819.44,-166.82 757.85,-151.84 719.51,-142.52"/>
<polygon fill="midnightblue" stroke="midnightblue" points="860.78,-180.48 871.32,-179.44 862.43,-173.68 860.78,-180.48"/>
</g>
<!-- Node17 -->
<g id="node17" class="node">
<title>Node17</title>
<g id="a_node17"><a xlink:href="_field_norms_8cpp.html" target="_top" xlink:title=" ">
<polygon fill="white" stroke="black" points="744.5,-123.5 744.5,-142.5 836.5,-142.5 836.5,-123.5 744.5,-123.5"/>
<text text-anchor="middle" x="790.5" y="-130.5" font-family="Helvetica,sans-Serif" font-size="10.00">FieldNorms.cpp</text>
</a>
</g>
</g>
<!-- Node1&#45;&gt;Node17 -->
<g id="edge18" class="edge">
<title>Node1&#45;&gt;Node17</title>
<path fill="none" stroke="midnightblue" d="M878.78,-175.1C857.11,-165.01 827.6,-151.27 808.79,-142.52"/>
<polygon fill="midnightblue" stroke="midnightblue" points="877.58,-178.4 888.12,-179.44 880.53,-172.05 877.58,-178.4"/>
</g>
<!-- Node18 -->
<g id="node18" class="node">
<title>Node18</title>
<g id="a_node18"><a xlink:href="_kinetic_energy_8cpp.html" target="_top" xlink:title=" ">
<polygon fill="white" stroke="black" points="855,-123.5 855,-142.5 958,-142.5 958,-123.5 855,-123.5"/>
<text text-anchor="middle" x="906.5" y="-130.5" font-family="Helvetica,sans-Serif" font-size="10.00">KineticEnergy.cpp</text>
</a>
</g>
</g>
<!-- Node1&#45;&gt;Node18 -->
<g id="edge19" class="edge">
<title>Node1&#45;&gt;Node18</title>
<path fill="none" stroke="midnightblue" d="M906.5,-168.8C906.5,-159.91 906.5,-149.78 906.5,-142.75"/>
<polygon fill="midnightblue" stroke="midnightblue" points="903,-169.08 906.5,-179.08 910,-169.08 903,-169.08"/>
</g>
<!-- Node19 -->
<g id="node19" class="node">
<title>Node19</title>
<g id="a_node19"><a xlink:href="_sampler_base_8_h.html" target="_top" xlink:title=" ">
<polygon fill="white" stroke="black" points="1254.5,-123.5 1254.5,-142.5 1346.5,-142.5 1346.5,-123.5 1254.5,-123.5"/>
<text text-anchor="middle" x="1300.5" y="-130.5" font-family="Helvetica,sans-Serif" font-size="10.00">SamplerBase.H</text>
</a>
</g>
</g>
<!-- Node1&#45;&gt;Node19 -->
<g id="edge20" class="edge">
<title>Node1&#45;&gt;Node19</title>
<path fill="none" stroke="midnightblue" d="M960.25,-180.63C1038.06,-169.97 1180.79,-150.41 1254.2,-140.35"/>
<polygon fill="midnightblue" stroke="midnightblue" points="959.6,-177.19 950.17,-182.01 960.55,-184.12 959.6,-177.19"/>
</g>
<!-- Node27 -->
<g id="node27" class="node">
<title>Node27</title>
<g id="a_node27"><a xlink:href="_sampling_8cpp.html" target="_top" xlink:title=" ">
<polygon fill="white" stroke="black" points="1016,-6 1016,-25 1099,-25 1099,-6 1016,-6"/>
<text text-anchor="middle" x="1057.5" y="-13" font-family="Helvetica,sans-Serif" font-size="10.00">Sampling.cpp</text>
</a>
</g>
</g>
<!-- Node1&#45;&gt;Node27 -->
<g id="edge32" class="edge">
<title>Node1&#45;&gt;Node27</title>
<path fill="none" stroke="midnightblue" d="M930.21,-173.88C942.17,-165.92 956.26,-155.13 966.5,-143 990.98,-113.98 982.92,-97.52 1005.5,-67 1017.63,-50.61 1035.23,-34.74 1046.52,-25.3"/>
<polygon fill="midnightblue" stroke="midnightblue" points="928.12,-171.07 921.58,-179.4 931.89,-176.96 928.12,-171.07"/>
</g>
<!-- Node30 -->
<g id="node30" class="node">
<title>Node30</title>
<g id="a_node30"><a xlink:href="_a_b_l_stats_8cpp.html" target="_top" xlink:title=" ">
<polygon fill="white" stroke="black" points="1621.5,-6 1621.5,-25 1701.5,-25 1701.5,-6 1621.5,-6"/>
<text text-anchor="middle" x="1661.5" y="-13" font-family="Helvetica,sans-Serif" font-size="10.00">ABLStats.cpp</text>
</a>
</g>
</g>
<!-- Node1&#45;&gt;Node30 -->
<g id="edge34" class="edge">
<title>Node1&#45;&gt;Node30</title>
<path fill="none" stroke="midnightblue" d="M960.42,-183.99C1044.89,-177.39 1213.44,-162.96 1355.5,-143 1390.05,-138.15 1642.14,-113.78 1664.5,-87 1679.26,-69.32 1670.72,-39.59 1665.15,-25.04"/>
<polygon fill="midnightblue" stroke="midnightblue" points="960,-180.51 950.3,-184.77 960.54,-187.49 960,-180.51"/>
</g>
<!-- Node31 -->
<g id="node31" class="node">
<title>Node31</title>
<g id="a_node31"><a xlink:href="_fast_iface_8cpp.html" target="_top" xlink:title=" ">
<polygon fill="white" stroke="black" points="1556.5,-123.5 1556.5,-142.5 1636.5,-142.5 1636.5,-123.5 1556.5,-123.5"/>
<text text-anchor="middle" x="1596.5" y="-130.5" font-family="Helvetica,sans-Serif" font-size="10.00">FastIface.cpp</text>
</a>
</g>
</g>
<!-- Node1&#45;&gt;Node31 -->
<g id="edge35" class="edge">
<title>Node1&#45;&gt;Node31</title>
<path fill="none" stroke="midnightblue" d="M960.36,-185.91C1070.16,-181.27 1327.66,-168.45 1542.5,-143 1547.03,-142.46 1551.76,-141.81 1556.46,-141.11"/>
<polygon fill="midnightblue" stroke="midnightblue" points="960.05,-182.42 950.2,-186.33 960.34,-189.41 960.05,-182.42"/>
</g>
<!-- Node32 -->
<g id="node32" class="node">
<title>Node32</title>
<g id="a_node32"><a xlink:href="turbine__utils_8cpp.html" target="_top" xlink:title=" ">
<polygon fill="white" stroke="black" points="1654.5,-123.5 1654.5,-142.5 1752.5,-142.5 1752.5,-123.5 1654.5,-123.5"/>
<text text-anchor="middle" x="1703.5" y="-130.5" font-family="Helvetica,sans-Serif" font-size="10.00">turbine_utils.cpp</text>
</a>
</g>
</g>
<!-- Node1&#45;&gt;Node32 -->
<g id="edge36" class="edge">
<title>Node1&#45;&gt;Node32</title>
<path fill="none" stroke="midnightblue" d="M960.57,-186.43C1082.87,-182.51 1390.01,-170.54 1645.5,-143 1648.44,-142.68 1651.45,-142.32 1654.49,-141.93"/>
<polygon fill="midnightblue" stroke="midnightblue" points="960.23,-182.94 950.35,-186.76 960.45,-189.94 960.23,-182.94"/>
</g>
<!-- Node33 -->
<g id="node33" class="node">
<title>Node33</title>
<g id="a_node33"><a xlink:href="wing__ops_8cpp.html" target="_top" xlink:title=" ">
<polygon fill="white" stroke="black" points="1771,-123.5 1771,-142.5 1854,-142.5 1854,-123.5 1771,-123.5"/>
<text text-anchor="middle" x="1812.5" y="-130.5" font-family="Helvetica,sans-Serif" font-size="10.00">wing_ops.cpp</text>
</a>
</g>
</g>
<!-- Node1&#45;&gt;Node33 -->
<g id="edge37" class="edge">
<title>Node1&#45;&gt;Node33</title>
<path fill="none" stroke="midnightblue" d="M960.35,-187.44C1095.53,-185.56 1459.96,-177.41 1761.5,-143 1764.54,-142.65 1767.67,-142.24 1770.81,-141.78"/>
<polygon fill="midnightblue" stroke="midnightblue" points="960.21,-183.95 950.26,-187.58 960.3,-190.95 960.21,-183.95"/>
</g>
<!-- Node3 -->
<g id="node3" class="node">
<title>Node3</title>
<g id="a_node3"><a xlink:href="_a_b_l_8_h.html" target="_top" xlink:title=" ">
<polygon fill="white" stroke="black" points="505.5,-67.5 505.5,-86.5 551.5,-86.5 551.5,-67.5 505.5,-67.5"/>
<text text-anchor="middle" x="528.5" y="-74.5" font-family="Helvetica,sans-Serif" font-size="10.00">ABL.H</text>
</a>
</g>
</g>
<!-- Node2&#45;&gt;Node3 -->
<g id="edge2" class="edge">
<title>Node2&#45;&gt;Node3</title>
<path fill="none" stroke="midnightblue" d="M339.07,-121.16C389.53,-109.66 467.13,-91.98 505.46,-83.25"/>
<polygon fill="midnightblue" stroke="midnightblue" points="338.03,-117.81 329.05,-123.44 339.58,-124.63 338.03,-117.81"/>
</g>
<!-- Node9 -->
<g id="node9" class="node">
<title>Node9</title>
<g id="a_node9"><a xlink:href="_a_b_l_8cpp.html" target="_top" xlink:title=" ">
<polygon fill="white" stroke="black" points="263.5,-6 263.5,-25 319.5,-25 319.5,-6 263.5,-6"/>
<text text-anchor="middle" x="291.5" y="-13" font-family="Helvetica,sans-Serif" font-size="10.00">ABL.cpp</text>
</a>
</g>
</g>
<!-- Node2&#45;&gt;Node9 -->
<g id="edge10" class="edge">
<title>Node2&#45;&gt;Node9</title>
<path fill="none" stroke="midnightblue" d="M291.5,-113.16C291.5,-87.87 291.5,-43.94 291.5,-25.28"/>
<polygon fill="midnightblue" stroke="midnightblue" points="288,-113.32 291.5,-123.32 295,-113.32 288,-113.32"/>
</g>
<!-- Node2&#45;&gt;Node11 -->
<g id="edge11" class="edge">
<title>Node2&#45;&gt;Node11</title>
<path fill="none" stroke="midnightblue" d="M234.8,-121.11C205.93,-114.05 171.02,-103.11 142.5,-87 112.62,-70.12 84.56,-40.01 71.76,-25.21"/>
<polygon fill="midnightblue" stroke="midnightblue" points="234.2,-124.56 244.73,-123.44 235.8,-117.75 234.2,-124.56"/>
</g>
<!-- Node12 -->
<g id="node12" class="node">
<title>Node12</title>
<g id="a_node12"><a xlink:href="_a_b_l_fill_inflow_8_h.html" target="_top" xlink:title=" ">
<polygon fill="white" stroke="black" points="152,-67.5 152,-86.5 241,-86.5 241,-67.5 152,-67.5"/>
<text text-anchor="middle" x="196.5" y="-74.5" font-family="Helvetica,sans-Serif" font-size="10.00">ABLFillInflow.H</text>
</a>
</g>
</g>
<!-- Node2&#45;&gt;Node12 -->
<g id="edge12" class="edge">
<title>Node2&#45;&gt;Node12</title>
<path fill="none" stroke="midnightblue" d="M267.18,-118.18C249.7,-108.24 226.67,-95.15 211.73,-86.65"/>
<polygon fill="midnightblue" stroke="midnightblue" points="265.81,-121.43 276.24,-123.32 269.27,-115.34 265.81,-121.43"/>
</g>
<!-- Node4 -->
<g id="node4" class="node">
<title>Node4</title>
<g id="a_node4"><a xlink:href="_a_b_l_forcing_8cpp.html" target="_top" xlink:title=" ">
<polygon fill="white" stroke="black" points="544,-6 544,-25 635,-25 635,-6 544,-6"/>
<text text-anchor="middle" x="589.5" y="-13" font-family="Helvetica,sans-Serif" font-size="10.00">ABLForcing.cpp</text>
</a>
</g>
</g>
<!-- Node3&#45;&gt;Node4 -->
<g id="edge3" class="edge">
<title>Node3&#45;&gt;Node4</title>
<path fill="none" stroke="midnightblue" d="M544.57,-60.32C556.16,-49.02 571.36,-34.19 580.78,-25.01"/>
<polygon fill="midnightblue" stroke="midnightblue" points="541.95,-57.99 537.24,-67.48 546.84,-63 541.95,-57.99"/>
</g>
<!-- Node5 -->
<g id="node5" class="node">
<title>Node5</title>
<g id="a_node5"><a xlink:href="_a_b_l_mean_boussinesq_8cpp.html" target="_top" xlink:title=" ">
<polygon fill="white" stroke="black" points="653.5,-6 653.5,-25 791.5,-25 791.5,-6 653.5,-6"/>
<text text-anchor="middle" x="722.5" y="-13" font-family="Helvetica,sans-Serif" font-size="10.00">ABLMeanBoussinesq.cpp</text>
</a>
</g>
</g>
<!-- Node3&#45;&gt;Node5 -->
<g id="edge4" class="edge">
<title>Node3&#45;&gt;Node5</title>
<path fill="none" stroke="midnightblue" d="M561.42,-65.9C598.83,-54.43 659.27,-35.89 694.5,-25.09"/>
<polygon fill="midnightblue" stroke="midnightblue" points="560.05,-62.66 551.52,-68.94 562.1,-69.35 560.05,-62.66"/>
</g>
<!-- Node6 -->
<g id="node6" class="node">
<title>Node6</title>
<g id="a_node6"><a xlink:href="incflo_8cpp.html" target="_top" xlink:title=" ">
<polygon fill="white" stroke="black" points="810,-6 810,-25 873,-25 873,-6 810,-6"/>
<text text-anchor="middle" x="841.5" y="-13" font-family="Helvetica,sans-Serif" font-size="10.00">incflo.cpp</text>
</a>
</g>
</g>
<!-- Node3&#45;&gt;Node6 -->
<g id="edge5" class="edge">
<title>Node3&#45;&gt;Node6</title>
<path fill="none" stroke="midnightblue" d="M561.95,-72.39C613.67,-66.38 715.9,-52.78 800.5,-31 806.79,-29.38 813.48,-27.21 819.59,-25.05"/>
<polygon fill="midnightblue" stroke="midnightblue" points="561.25,-68.95 551.71,-73.56 562.04,-75.9 561.25,-68.95"/>
</g>
<!-- Node7 -->
<g id="node7" class="node">
<title>Node7</title>
<g id="a_node7"><a xlink:href="incflo__apply__nodal__projection_8cpp.html" target="_top" xlink:title=" ">
<polygon fill="white" stroke="black" points="891,-0.5 891,-30.5 998,-30.5 998,-0.5 891,-0.5"/>
<text text-anchor="start" x="899" y="-18.5" font-family="Helvetica,sans-Serif" font-size="10.00">incflo_apply_nodal</text>
<text text-anchor="middle" x="944.5" y="-7.5" font-family="Helvetica,sans-Serif" font-size="10.00">_projection.cpp</text>
</a>
</g>
</g>
<!-- Node3&#45;&gt;Node7 -->
<g id="edge6" class="edge">
<title>Node3&#45;&gt;Node7</title>
<path fill="none" stroke="midnightblue" d="M561.86,-72.86C624.7,-66.71 764.79,-51.82 881.5,-31 884.59,-30.45 887.76,-29.84 890.96,-29.2"/>
<polygon fill="midnightblue" stroke="midnightblue" points="561.37,-69.4 551.75,-73.84 562.04,-76.36 561.37,-69.4"/>
</g>
<!-- Node8 -->
<g id="node8" class="node">
<title>Node8</title>
<g id="a_node8"><a xlink:href="init_8cpp.html" target="_top" xlink:title=" ">
<polygon fill="white" stroke="black" points="338,-6 338,-25 391,-25 391,-6 338,-6"/>
<text text-anchor="middle" x="364.5" y="-13" font-family="Helvetica,sans-Serif" font-size="10.00">init.cpp</text>
</a>
</g>
</g>
<!-- Node3&#45;&gt;Node8 -->
<g id="edge7" class="edge">
<title>Node3&#45;&gt;Node8</title>
<path fill="none" stroke="midnightblue" d="M495.26,-64.99C469.09,-56.18 431.78,-43.31 399.5,-31 394.71,-29.17 389.58,-27.11 384.78,-25.13"/>
<polygon fill="midnightblue" stroke="midnightblue" points="494.46,-68.41 505.05,-68.27 496.68,-61.77 494.46,-68.41"/>
</g>
<!-- Node3&#45;&gt;Node9 -->
<g id="edge8" class="edge">
<title>Node3&#45;&gt;Node9</title>
<path fill="none" stroke="midnightblue" d="M495.41,-70.16C455.42,-62.73 386.29,-48.71 328.5,-31 322.96,-29.3 317.07,-27.16 311.66,-25.04"/>
<polygon fill="midnightblue" stroke="midnightblue" points="494.94,-73.63 505.41,-71.99 496.2,-66.74 494.94,-73.63"/>
</g>
<!-- Node10 -->
<g id="node10" class="node">
<title>Node10</title>
<g id="a_node10"><a xlink:href="_a_b_l_wall_function_8cpp.html" target="_top" xlink:title=" ">
<polygon fill="white" stroke="black" points="409,-6 409,-25 526,-25 526,-6 409,-6"/>
<text text-anchor="middle" x="467.5" y="-13" font-family="Helvetica,sans-Serif" font-size="10.00">ABLWallFunction.cpp</text>
</a>
</g>
</g>
<!-- Node3&#45;&gt;Node10 -->
<g id="edge9" class="edge">
<title>Node3&#45;&gt;Node10</title>
<path fill="none" stroke="midnightblue" d="M512.43,-60.32C500.84,-49.02 485.64,-34.19 476.22,-25.01"/>
<polygon fill="midnightblue" stroke="midnightblue" points="510.16,-63 519.76,-67.48 515.05,-57.99 510.16,-63"/>
</g>
<!-- Node12&#45;&gt;Node11 -->
<g id="edge13" class="edge">
<title>Node12&#45;&gt;Node11</title>
<path fill="none" stroke="midnightblue" d="M168.39,-63.33C142.76,-51.78 105.61,-35.03 83.38,-25.01"/>
<polygon fill="midnightblue" stroke="midnightblue" points="167.03,-66.56 177.59,-67.48 169.91,-60.17 167.03,-66.56"/>
</g>
<!-- Node13 -->
<g id="node13" class="node">
<title>Node13</title>
<g id="a_node13"><a xlink:href="_a_b_l_fill_inflow_8cpp.html" target="_top" xlink:title=" ">
<polygon fill="white" stroke="black" points="147.5,-6 147.5,-25 245.5,-25 245.5,-6 147.5,-6"/>
<text text-anchor="middle" x="196.5" y="-13" font-family="Helvetica,sans-Serif" font-size="10.00">ABLFillInflow.cpp</text>
</a>
</g>
</g>
<!-- Node12&#45;&gt;Node13 -->
<g id="edge14" class="edge">
<title>Node12&#45;&gt;Node13</title>
<path fill="none" stroke="midnightblue" d="M196.5,-57.32C196.5,-46.5 196.5,-33.4 196.5,-25.01"/>
<polygon fill="midnightblue" stroke="midnightblue" points="193,-57.48 196.5,-67.48 200,-57.48 193,-57.48"/>
</g>
<!-- Node20 -->
<g id="node20" class="node">
<title>Node20</title>
<g id="a_node20"><a xlink:href="_line_sampler_8_h.html" target="_top" xlink:title=" ">
<polygon fill="white" stroke="black" points="1366,-67.5 1366,-86.5 1453,-86.5 1453,-67.5 1366,-67.5"/>
<text text-anchor="middle" x="1409.5" y="-74.5" font-family="Helvetica,sans-Serif" font-size="10.00">LineSampler.H</text>
</a>
</g>
</g>
<!-- Node19&#45;&gt;Node20 -->
<g id="edge21" class="edge">
<title>Node19&#45;&gt;Node20</title>
<path fill="none" stroke="midnightblue" d="M1327.02,-118.86C1347.23,-108.85 1374.49,-95.35 1392.03,-86.65"/>
<polygon fill="midnightblue" stroke="midnightblue" points="1325.42,-115.75 1318.01,-123.32 1328.53,-122.02 1325.42,-115.75"/>
</g>
<!-- Node22 -->
<g id="node22" class="node">
<title>Node22</title>
<g id="a_node22"><a xlink:href="_plane_sampler_8_h.html" target="_top" xlink:title=" ">
<polygon fill="white" stroke="black" points="1471.5,-67.5 1471.5,-86.5 1565.5,-86.5 1565.5,-67.5 1471.5,-67.5"/>
<text text-anchor="middle" x="1518.5" y="-74.5" font-family="Helvetica,sans-Serif" font-size="10.00">PlaneSampler.H</text>
</a>
</g>
</g>
<!-- Node19&#45;&gt;Node22 -->
<g id="edge23" class="edge">
<title>Node19&#45;&gt;Node22</title>
<path fill="none" stroke="midnightblue" d="M1344.81,-121.02C1385.99,-110.82 1446.47,-95.84 1484.12,-86.52"/>
<polygon fill="midnightblue" stroke="midnightblue" points="1343.91,-117.64 1335.04,-123.44 1345.59,-124.44 1343.91,-117.64"/>
</g>
<!-- Node24 -->
<g id="node24" class="node">
<title>Node24</title>
<g id="a_node24"><a xlink:href="_probe_sampler_8_h.html" target="_top" xlink:title=" ">
<polygon fill="white" stroke="black" points="1253,-67.5 1253,-86.5 1348,-86.5 1348,-67.5 1253,-67.5"/>
<text text-anchor="middle" x="1300.5" y="-74.5" font-family="Helvetica,sans-Serif" font-size="10.00">ProbeSampler.H</text>
</a>
</g>
</g>
<!-- Node19&#45;&gt;Node24 -->
<g id="edge25" class="edge">
<title>Node19&#45;&gt;Node24</title>
<path fill="none" stroke="midnightblue" d="M1300.5,-112.8C1300.5,-103.91 1300.5,-93.78 1300.5,-86.75"/>
<polygon fill="midnightblue" stroke="midnightblue" points="1297,-113.08 1300.5,-123.08 1304,-113.08 1297,-113.08"/>
</g>
<!-- Node26 -->
<g id="node26" class="node">
<title>Node26</title>
<g id="a_node26"><a xlink:href="_sampling_8_h.html" target="_top" xlink:title=" ">
<polygon fill="white" stroke="black" points="1015,-67.5 1015,-86.5 1088,-86.5 1088,-67.5 1015,-67.5"/>
<text text-anchor="middle" x="1051.5" y="-74.5" font-family="Helvetica,sans-Serif" font-size="10.00">Sampling.H</text>
</a>
</g>
</g>
<!-- Node19&#45;&gt;Node26 -->
<g id="edge27" class="edge">
<title>Node19&#45;&gt;Node26</title>
<path fill="none" stroke="midnightblue" d="M1251.19,-121.31C1203.25,-110.91 1131.51,-95.35 1088.33,-85.99"/>
<polygon fill="midnightblue" stroke="midnightblue" points="1250.53,-124.74 1261.05,-123.44 1252.01,-117.9 1250.53,-124.74"/>
</g>
<!-- Node28 -->
<g id="node28" class="node">
<title>Node28</title>
<g id="a_node28"><a xlink:href="_sampling_container_8cpp.html" target="_top" xlink:title=" ">
<polygon fill="white" stroke="black" points="1106,-67.5 1106,-86.5 1235,-86.5 1235,-67.5 1106,-67.5"/>
<text text-anchor="middle" x="1170.5" y="-74.5" font-family="Helvetica,sans-Serif" font-size="10.00">SamplingContainer.cpp</text>
</a>
</g>
</g>
<!-- Node19&#45;&gt;Node28 -->
<g id="edge29" class="edge">
<title>Node19&#45;&gt;Node28</title>
<path fill="none" stroke="midnightblue" d="M1270.41,-119.5C1246.04,-109.38 1212.36,-95.39 1191,-86.52"/>
<polygon fill="midnightblue" stroke="midnightblue" points="1269.32,-122.84 1279.9,-123.44 1272.01,-116.38 1269.32,-122.84"/>
</g>
<!-- Node29 -->
<g id="node29" class="node">
<title>Node29</title>
<g id="a_node29"><a xlink:href="_a_b_l_stats_8_h.html" target="_top" xlink:title=" ">
<polygon fill="white" stroke="black" points="1584,-67.5 1584,-86.5 1655,-86.5 1655,-67.5 1584,-67.5"/>
<text text-anchor="middle" x="1619.5" y="-74.5" font-family="Helvetica,sans-Serif" font-size="10.00">ABLStats.H</text>
</a>
</g>
</g>
<!-- Node19&#45;&gt;Node29 -->
<g id="edge30" class="edge">
<title>Node19&#45;&gt;Node29</title>
<path fill="none" stroke="midnightblue" d="M1356.61,-123.37C1412.07,-114.7 1499.27,-100.7 1574.5,-87 1577.48,-86.46 1580.56,-85.88 1583.66,-85.28"/>
<polygon fill="midnightblue" stroke="midnightblue" points="1355.98,-119.92 1346.64,-124.92 1357.06,-126.84 1355.98,-119.92"/>
</g>
<!-- Node21 -->
<g id="node21" class="node">
<title>Node21</title>
<g id="a_node21"><a xlink:href="_line_sampler_8cpp.html" target="_top" xlink:title=" ">
<polygon fill="white" stroke="black" points="1361,-6 1361,-25 1458,-25 1458,-6 1361,-6"/>
<text text-anchor="middle" x="1409.5" y="-13" font-family="Helvetica,sans-Serif" font-size="10.00">LineSampler.cpp</text>
</a>
</g>
</g>
<!-- Node20&#45;&gt;Node21 -->
<g id="edge22" class="edge">
<title>Node20&#45;&gt;Node21</title>
<path fill="none" stroke="midnightblue" d="M1409.5,-57.32C1409.5,-46.5 1409.5,-33.4 1409.5,-25.01"/>
<polygon fill="midnightblue" stroke="midnightblue" points="1406,-57.48 1409.5,-67.48 1413,-57.48 1406,-57.48"/>
</g>
<!-- Node23 -->
<g id="node23" class="node">
<title>Node23</title>
<g id="a_node23"><a xlink:href="_plane_sampler_8cpp.html" target="_top" xlink:title=" ">
<polygon fill="white" stroke="black" points="1476.5,-6 1476.5,-25 1580.5,-25 1580.5,-6 1476.5,-6"/>
<text text-anchor="middle" x="1528.5" y="-13" font-family="Helvetica,sans-Serif" font-size="10.00">PlaneSampler.cpp</text>
</a>
</g>
</g>
<!-- Node22&#45;&gt;Node23 -->
<g id="edge24" class="edge">
<title>Node22&#45;&gt;Node23</title>
<path fill="none" stroke="midnightblue" d="M1521.64,-57.32C1523.46,-46.5 1525.66,-33.4 1527.07,-25.01"/>
<polygon fill="midnightblue" stroke="midnightblue" points="1518.14,-57.03 1519.93,-67.48 1525.04,-58.19 1518.14,-57.03"/>
</g>
<!-- Node25 -->
<g id="node25" class="node">
<title>Node25</title>
<g id="a_node25"><a xlink:href="_probe_sampler_8cpp.html" target="_top" xlink:title=" ">
<polygon fill="white" stroke="black" points="1238.5,-6 1238.5,-25 1342.5,-25 1342.5,-6 1238.5,-6"/>
<text text-anchor="middle" x="1290.5" y="-13" font-family="Helvetica,sans-Serif" font-size="10.00">ProbeSampler.cpp</text>
</a>
</g>
</g>
<!-- Node24&#45;&gt;Node25 -->
<g id="edge26" class="edge">
<title>Node24&#45;&gt;Node25</title>
<path fill="none" stroke="midnightblue" d="M1297.36,-57.32C1295.54,-46.5 1293.34,-33.4 1291.93,-25.01"/>
<polygon fill="midnightblue" stroke="midnightblue" points="1293.96,-58.19 1299.07,-67.48 1300.86,-57.03 1293.96,-58.19"/>
</g>
<!-- Node26&#45;&gt;Node27 -->
<g id="edge28" class="edge">
<title>Node26&#45;&gt;Node27</title>
<path fill="none" stroke="midnightblue" d="M1053.38,-57.32C1054.48,-46.5 1055.8,-33.4 1056.64,-25.01"/>
<polygon fill="midnightblue" stroke="midnightblue" points="1049.88,-57.17 1052.36,-67.48 1056.85,-57.88 1049.88,-57.17"/>
</g>
<!-- Node29&#45;&gt;Node30 -->
<g id="edge31" class="edge">
<title>Node29&#45;&gt;Node30</title>
<path fill="none" stroke="midnightblue" d="M1631.5,-59.01C1639.34,-47.89 1649.26,-33.84 1655.49,-25.01"/>
<polygon fill="midnightblue" stroke="midnightblue" points="1628.43,-57.29 1625.52,-67.48 1634.14,-61.32 1628.43,-57.29"/>
</g>
</g>
</svg>
        <g id="navigator" transform="translate(0 0)" fill="#404254">
                <rect fill="#f2f5e9" fill-opacity="0.5" stroke="#606060" stroke-width=".5" x="0" y="0" width="60" height="60"/>
                <use id="zoomplus" xlink:href="#zoomPlus" x="17" y="9" onmousedown="handleZoom(evt,'in')"/>
                <use id="zoomminus" xlink:href="#zoomMin" x="42" y="9" onmousedown="handleZoom(evt,'out')"/>
                <use id="reset" xlink:href="#resetDef" x="30" y="36" onmousedown="handleReset()"/>
                <g id="arrowUp" xlink:href="#dirArrow" transform="translate(30 24)" onmousedown="handlePan(0,-1)">
                  <use xlink:href="#rim" fill="#404040">
                        <set attributeName="fill" to="#808080" begin="arrowUp.mouseover" end="arrowUp.mouseout"/>
                  </use>
                  <path fill="none" stroke="white" stroke-width="1.5" d="M0,-3.0v7 M-2.5,-0.5L0,-3.0L2.5,-0.5"/>
                </g>
                <g id="arrowRight" xlink:href="#dirArrow" transform="rotate(90) translate(36 -43)" onmousedown="handlePan(1,0)">
                  <use xlink:href="#rim" fill="#404040">
                        <set attributeName="fill" to="#808080" begin="arrowRight.mouseover" end="arrowRight.mouseout"/>
                  </use>
                  <path fill="none" stroke="white" stroke-width="1.5" d="M0,-3.0v7 M-2.5,-0.5L0,-3.0L2.5,-0.5"/>
                </g>
                <g id="arrowDown" xlink:href="#dirArrow" transform="rotate(180) translate(-30 -48)" onmousedown="handlePan(0,1)">
                  <use xlink:href="#rim" fill="#404040">
                        <set attributeName="fill" to="#808080" begin="arrowDown.mouseover" end="arrowDown.mouseout"/>
                  </use>
                  <path fill="none" stroke="white" stroke-width="1.5" d="M0,-3.0v7 M-2.5,-0.5L0,-3.0L2.5,-0.5"/>
                </g>
                <g id="arrowLeft" xlink:href="#dirArrow" transform="rotate(270) translate(-36 17)" onmousedown="handlePan(-1,0)">
                  <use xlink:href="#rim" fill="#404040">
                        <set attributeName="fill" to="#808080" begin="arrowLeft.mouseover" end="arrowLeft.mouseout"/>
                  </use>
                  <path fill="none" stroke="white" stroke-width="1.5" d="M0,-3.0v7 M-2.5,-0.5L0,-3.0L2.5,-0.5"/>
                </g>
        </g>
        <svg viewBox="0 0 15 15" width="100%" height="30px" preserveAspectRatio="xMaxYMin meet">
         <g id="arrow_out" transform="scale(0.3 0.3)">
          <a xlink:href="nc__interface_8_h__dep__incl_org.svg" target="_base">
           <rect id="button" ry="5" rx="5" y="6" x="6" height="38" width="38"
                fill="#f2f5e9" fill-opacity="0.5" stroke="#606060" stroke-width="1.0"/>
           <path id="arrow"
             d="M 11.500037,31.436501 C 11.940474,20.09759 22.043105,11.32322 32.158766,21.979434 L 37.068811,17.246167 C 37.068811,17.246167 37.088388,32 37.088388,32 L 22.160133,31.978069 C 22.160133,31.978069 26.997745,27.140456 26.997745,27.140456 C 18.528582,18.264221 13.291696,25.230495 11.500037,31.436501 z"
             style="fill:#404040;"/>
          </a>
         </g>
        </svg>
</svg>
