<?xml version="1.0" encoding="UTF-8" standalone="no"?>
<!DOCTYPE svg PUBLIC "-//W3C//DTD SVG 1.1//EN"
 "http://www.w3.org/Graphics/SVG/1.1/DTD/svg11.dtd">
<!-- Generated by graphviz version 2.43.0 (0)
 -->
<!-- Title: overset_ops_routines.cpp Pages: 1 -->
<svg width="890pt" height="464pt"
 viewBox="0.00 0.00 889.50 464.00" xmlns="http://www.w3.org/2000/svg" xmlns:xlink="http://www.w3.org/1999/xlink">
<g id="graph0" class="graph" transform="scale(1 1) rotate(0) translate(4 460)">
<title>overset_ops_routines.cpp</title>
<polygon fill="white" stroke="transparent" points="-4,4 -4,-460 885.5,-460 885.5,4 -4,4"/>
<!-- Node1 -->
<g id="node1" class="node">
<title>Node1</title>
<g id="a_node1"><a xlink:title=" ">
<polygon fill="#bfbfbf" stroke="black" points="189.5,-436.5 189.5,-455.5 330.5,-455.5 330.5,-436.5 189.5,-436.5"/>
<text text-anchor="middle" x="260" y="-443.5" font-family="Helvetica,sans-Serif" font-size="10.00">overset_ops_routines.cpp</text>
</a>
</g>
</g>
<!-- Node2 -->
<g id="node2" class="node">
<title>Node2</title>
<g id="a_node2"><a xlink:href="overset__ops__routines_8_h.html" target="_top" xlink:title=" ">
<polygon fill="white" stroke="black" points="188.5,-369.5 188.5,-399.5 331.5,-399.5 331.5,-369.5 188.5,-369.5"/>
<text text-anchor="start" x="196.5" y="-387.5" font-family="Helvetica,sans-Serif" font-size="10.00">amr&#45;wind/overset/overset</text>
<text text-anchor="middle" x="260" y="-376.5" font-family="Helvetica,sans-Serif" font-size="10.00">_ops_routines.H</text>
</a>
</g>
</g>
<!-- Node1&#45;&gt;Node2 -->
<g id="edge1" class="edge">
<title>Node1&#45;&gt;Node2</title>
<path fill="none" stroke="midnightblue" d="M260,-436.48C260,-429.47 260,-419.19 260,-409.7"/>
<polygon fill="midnightblue" stroke="midnightblue" points="263.5,-409.52 260,-399.52 256.5,-409.52 263.5,-409.52"/>
</g>
<!-- Node3 -->
<g id="node3" class="node">
<title>Node3</title>
<g id="a_node3"><a xlink:title=" ">
<polygon fill="white" stroke="#bfbfbf" points="0,-308 0,-327 112,-327 112,-308 0,-308"/>
<text text-anchor="middle" x="56" y="-315" font-family="Helvetica,sans-Serif" font-size="10.00">AMReX_iMultiFab.H</text>
</a>
</g>
</g>
<!-- Node2&#45;&gt;Node3 -->
<g id="edge2" class="edge">
<title>Node2&#45;&gt;Node3</title>
<path fill="none" stroke="midnightblue" d="M215.99,-369.48C179.1,-357.72 127.07,-341.14 92.47,-330.12"/>
<polygon fill="midnightblue" stroke="midnightblue" points="93.36,-326.73 82.77,-327.03 91.23,-333.4 93.36,-326.73"/>
</g>
<!-- Node4 -->
<g id="node4" class="node">
<title>Node4</title>
<g id="a_node4"><a xlink:title=" ">
<polygon fill="white" stroke="#bfbfbf" points="130.5,-308 130.5,-327 239.5,-327 239.5,-308 130.5,-308"/>
<text text-anchor="middle" x="185" y="-315" font-family="Helvetica,sans-Serif" font-size="10.00">AMReX_MultiFab.H</text>
</a>
</g>
</g>
<!-- Node2&#45;&gt;Node4 -->
<g id="edge3" class="edge">
<title>Node2&#45;&gt;Node4</title>
<path fill="none" stroke="midnightblue" d="M243.73,-369.4C231.68,-358.96 215.29,-344.75 202.88,-334"/>
<polygon fill="midnightblue" stroke="midnightblue" points="204.88,-331.1 195.03,-327.19 200.3,-336.39 204.88,-331.1"/>
</g>
<!-- Node5 -->
<g id="node5" class="node">
<title>Node5</title>
<g id="a_node5"><a xlink:href="volume__fractions_8_h.html" target="_top" xlink:title=" ">
<polygon fill="white" stroke="black" points="257.5,-302.5 257.5,-332.5 412.5,-332.5 412.5,-302.5 257.5,-302.5"/>
<text text-anchor="start" x="265.5" y="-320.5" font-family="Helvetica,sans-Serif" font-size="10.00">amr&#45;wind/equation_systems</text>
<text text-anchor="middle" x="335" y="-309.5" font-family="Helvetica,sans-Serif" font-size="10.00">/vof/volume_fractions.H</text>
</a>
</g>
</g>
<!-- Node2&#45;&gt;Node5 -->
<g id="edge4" class="edge">
<title>Node2&#45;&gt;Node5</title>
<path fill="none" stroke="midnightblue" d="M276.27,-369.4C286.4,-360.62 299.6,-349.18 310.92,-339.37"/>
<polygon fill="midnightblue" stroke="midnightblue" points="313.49,-341.77 318.76,-332.58 308.91,-336.48 313.49,-341.77"/>
</g>
<!-- Node8 -->
<g id="node8" class="node">
<title>Node8</title>
<g id="a_node8"><a xlink:href="overset__ops___k_8_h.html" target="_top" xlink:title=" ">
<polygon fill="white" stroke="black" points="430.5,-302.5 430.5,-332.5 573.5,-332.5 573.5,-302.5 430.5,-302.5"/>
<text text-anchor="start" x="438.5" y="-320.5" font-family="Helvetica,sans-Serif" font-size="10.00">amr&#45;wind/overset/overset</text>
<text text-anchor="middle" x="502" y="-309.5" font-family="Helvetica,sans-Serif" font-size="10.00">_ops_K.H</text>
</a>
</g>
</g>
<!-- Node2&#45;&gt;Node8 -->
<g id="edge7" class="edge">
<title>Node2&#45;&gt;Node8</title>
<path fill="none" stroke="midnightblue" d="M312.21,-369.48C349.62,-359.43 400.15,-345.86 439.67,-335.24"/>
<polygon fill="midnightblue" stroke="midnightblue" points="440.71,-338.59 449.46,-332.61 438.9,-331.82 440.71,-338.59"/>
</g>
<!-- Node6 -->
<g id="node6" class="node">
<title>Node6</title>
<g id="a_node6"><a xlink:title=" ">
<polygon fill="white" stroke="#bfbfbf" points="331.5,-241 331.5,-260 448.5,-260 448.5,-241 331.5,-241"/>
<text text-anchor="middle" x="390" y="-248" font-family="Helvetica,sans-Serif" font-size="10.00">AMReX_FArrayBox.H</text>
</a>
</g>
</g>
<!-- Node5&#45;&gt;Node6 -->
<g id="edge5" class="edge">
<title>Node5&#45;&gt;Node6</title>
<path fill="none" stroke="midnightblue" d="M346.93,-302.4C355.51,-292.26 367.1,-278.57 376.09,-267.94"/>
<polygon fill="midnightblue" stroke="midnightblue" points="378.86,-270.09 382.64,-260.19 373.51,-265.57 378.86,-270.09"/>
</g>
<!-- Node7 -->
<g id="node7" class="node">
<title>Node7</title>
<g id="a_node7"><a xlink:title=" ">
<polygon fill="white" stroke="#bfbfbf" points="469.5,-0.5 469.5,-19.5 516.5,-19.5 516.5,-0.5 469.5,-0.5"/>
<text text-anchor="middle" x="493" y="-7.5" font-family="Helvetica,sans-Serif" font-size="10.00">cmath</text>
</a>
</g>
</g>
<!-- Node5&#45;&gt;Node7 -->
<g id="edge6" class="edge">
<title>Node5&#45;&gt;Node7</title>
<path fill="none" stroke="midnightblue" d="M328.98,-302.38C319.71,-279.31 303,-231.91 303,-190 303,-190 303,-190 303,-132 303,-97.29 296.74,-80.83 321,-56 330.75,-46.02 412.46,-27.7 459.67,-17.79"/>
<polygon fill="midnightblue" stroke="midnightblue" points="460.39,-21.22 469.46,-15.76 458.96,-14.37 460.39,-21.22"/>
</g>
<!-- Node8&#45;&gt;Node6 -->
<g id="edge29" class="edge">
<title>Node8&#45;&gt;Node6</title>
<path fill="none" stroke="midnightblue" d="M477.7,-302.4C458.65,-291.34 432.32,-276.06 413.49,-265.13"/>
<polygon fill="midnightblue" stroke="midnightblue" points="415.06,-262 404.66,-260.01 411.55,-268.05 415.06,-262"/>
</g>
<!-- Node9 -->
<g id="node9" class="node">
<title>Node9</title>
<g id="a_node9"><a xlink:href="vector__space_8_h.html" target="_top" xlink:title=" ">
<polygon fill="white" stroke="black" points="466.5,-235.5 466.5,-265.5 601.5,-265.5 601.5,-235.5 466.5,-235.5"/>
<text text-anchor="start" x="474.5" y="-253.5" font-family="Helvetica,sans-Serif" font-size="10.00">amr&#45;wind/core/vs/vector</text>
<text text-anchor="middle" x="534" y="-242.5" font-family="Helvetica,sans-Serif" font-size="10.00">_space.H</text>
</a>
</g>
</g>
<!-- Node8&#45;&gt;Node9 -->
<g id="edge8" class="edge">
<title>Node8&#45;&gt;Node9</title>
<path fill="none" stroke="midnightblue" d="M508.94,-302.4C512.93,-294.3 518.03,-283.94 522.59,-274.69"/>
<polygon fill="midnightblue" stroke="midnightblue" points="525.79,-276.09 527.07,-265.58 519.51,-273 525.79,-276.09"/>
</g>
<!-- Node10 -->
<g id="node10" class="node">
<title>Node10</title>
<g id="a_node10"><a xlink:href="vector_8_h.html" target="_top" xlink:title=" ">
<polygon fill="white" stroke="black" points="431.5,-123.5 431.5,-142.5 576.5,-142.5 576.5,-123.5 431.5,-123.5"/>
<text text-anchor="middle" x="504" y="-130.5" font-family="Helvetica,sans-Serif" font-size="10.00">amr&#45;wind/core/vs/vector.H</text>
</a>
</g>
</g>
<!-- Node9&#45;&gt;Node10 -->
<g id="edge9" class="edge">
<title>Node9&#45;&gt;Node10</title>
<path fill="none" stroke="midnightblue" d="M530.32,-235.34C524.92,-214.53 514.82,-175.66 508.83,-152.58"/>
<polygon fill="midnightblue" stroke="midnightblue" points="512.15,-151.47 506.25,-142.67 505.38,-153.23 512.15,-151.47"/>
</g>
<!-- Node17 -->
<g id="node17" class="node">
<title>Node17</title>
<g id="a_node17"><a xlink:href="tensor_8_h.html" target="_top" xlink:title=" ">
<polygon fill="white" stroke="black" points="583.5,-179.5 583.5,-198.5 728.5,-198.5 728.5,-179.5 583.5,-179.5"/>
<text text-anchor="middle" x="656" y="-186.5" font-family="Helvetica,sans-Serif" font-size="10.00">amr&#45;wind/core/vs/tensor.H</text>
</a>
</g>
</g>
<!-- Node9&#45;&gt;Node17 -->
<g id="edge18" class="edge">
<title>Node9&#45;&gt;Node17</title>
<path fill="none" stroke="midnightblue" d="M562.91,-235.4C583.02,-225.59 609.62,-212.62 629.24,-203.05"/>
<polygon fill="midnightblue" stroke="midnightblue" points="630.79,-206.19 638.25,-198.66 627.73,-199.9 630.79,-206.19"/>
</g>
<!-- Node11 -->
<g id="node11" class="node">
<title>Node11</title>
<g id="a_node11"><a xlink:title=" ">
<polygon fill="white" stroke="#bfbfbf" points="794.5,-0.5 794.5,-19.5 881.5,-19.5 881.5,-0.5 794.5,-0.5"/>
<text text-anchor="middle" x="838" y="-7.5" font-family="Helvetica,sans-Serif" font-size="10.00">AMReX_Gpu.H</text>
</a>
</g>
</g>
<!-- Node10&#45;&gt;Node11 -->
<g id="edge10" class="edge">
<title>Node10&#45;&gt;Node11</title>
<path fill="none" stroke="midnightblue" d="M576.65,-125.89C664.04,-117.88 801.28,-102.98 819,-87 834.91,-72.65 838.43,-47.19 838.79,-29.72"/>
<polygon fill="midnightblue" stroke="midnightblue" points="842.29,-29.55 838.67,-19.6 835.29,-29.64 842.29,-29.55"/>
</g>
<!-- Node12 -->
<g id="node12" class="node">
<title>Node12</title>
<g id="a_node12"><a xlink:href="vstraits_8_h.html" target="_top" xlink:title=" ">
<polygon fill="white" stroke="black" points="498,-62 498,-81 650,-81 650,-62 498,-62"/>
<text text-anchor="middle" x="574" y="-69" font-family="Helvetica,sans-Serif" font-size="10.00">amr&#45;wind/core/vs/vstraits.H</text>
</a>
</g>
</g>
<!-- Node10&#45;&gt;Node12 -->
<g id="edge11" class="edge">
<title>Node10&#45;&gt;Node12</title>
<path fill="none" stroke="midnightblue" d="M514.03,-123.48C525.05,-114.11 542.96,-98.88 556.34,-87.51"/>
<polygon fill="midnightblue" stroke="midnightblue" points="558.64,-90.15 563.99,-81.01 554.1,-84.82 558.64,-90.15"/>
</g>
<!-- Node15 -->
<g id="node15" class="node">
<title>Node15</title>
<g id="a_node15"><a xlink:href="vector_i_8_h.html" target="_top" xlink:title=" ">
<polygon fill="white" stroke="black" points="330.5,-62 330.5,-81 479.5,-81 479.5,-62 330.5,-62"/>
<text text-anchor="middle" x="405" y="-69" font-family="Helvetica,sans-Serif" font-size="10.00">amr&#45;wind/core/vs/vectorI.H</text>
</a>
</g>
</g>
<!-- Node10&#45;&gt;Node15 -->
<g id="edge14" class="edge">
<title>Node10&#45;&gt;Node15</title>
<path fill="none" stroke="midnightblue" d="M484.92,-123.48C466.95,-113.93 440.63,-98.31 423.03,-86.87"/>
<polygon fill="midnightblue" stroke="midnightblue" points="424.52,-83.65 414.26,-81.01 420.63,-89.47 424.52,-83.65"/>
</g>
<!-- Node13 -->
<g id="node13" class="node">
<title>Node13</title>
<g id="a_node13"><a xlink:title=" ">
<polygon fill="white" stroke="#bfbfbf" points="552,-0.5 552,-19.5 596,-19.5 596,-0.5 552,-0.5"/>
<text text-anchor="middle" x="574" y="-7.5" font-family="Helvetica,sans-Serif" font-size="10.00">limits</text>
</a>
</g>
</g>
<!-- Node12&#45;&gt;Node13 -->
<g id="edge12" class="edge">
<title>Node12&#45;&gt;Node13</title>
<path fill="none" stroke="midnightblue" d="M574,-61.98C574,-53.58 574,-40.48 574,-29.66"/>
<polygon fill="midnightblue" stroke="midnightblue" points="577.5,-29.51 574,-19.51 570.5,-29.51 577.5,-29.51"/>
</g>
<!-- Node14 -->
<g id="node14" class="node">
<title>Node14</title>
<g id="a_node14"><a xlink:title=" ">
<polygon fill="white" stroke="#bfbfbf" points="649,-0.5 649,-19.5 741,-19.5 741,-0.5 649,-0.5"/>
<text text-anchor="middle" x="695" y="-7.5" font-family="Helvetica,sans-Serif" font-size="10.00">AMReX_REAL.H</text>
</a>
</g>
</g>
<!-- Node12&#45;&gt;Node14 -->
<g id="edge13" class="edge">
<title>Node12&#45;&gt;Node14</title>
<path fill="none" stroke="midnightblue" d="M591.34,-61.98C611.55,-52.03 645.19,-35.49 668.64,-23.96"/>
<polygon fill="midnightblue" stroke="midnightblue" points="670.27,-27.06 677.7,-19.51 667.18,-20.78 670.27,-27.06"/>
</g>
<!-- Node15&#45;&gt;Node7 -->
<g id="edge16" class="edge">
<title>Node15&#45;&gt;Node7</title>
<path fill="none" stroke="midnightblue" d="M417.61,-61.98C431.72,-52.43 454.83,-36.81 471.75,-25.37"/>
<polygon fill="midnightblue" stroke="midnightblue" points="474.09,-28.01 480.42,-19.51 470.17,-22.21 474.09,-28.01"/>
</g>
<!-- Node15&#45;&gt;Node10 -->
<g id="edge17" class="edge">
<title>Node15&#45;&gt;Node10</title>
<path fill="none" stroke="midnightblue" d="M424.06,-81.01C442.01,-90.55 468.33,-106.17 485.94,-117.61"/>
<polygon fill="midnightblue" stroke="midnightblue" points="484.46,-120.83 494.72,-123.48 488.34,-115.01 484.46,-120.83"/>
</g>
<!-- Node16 -->
<g id="node16" class="node">
<title>Node16</title>
<g id="a_node16"><a xlink:title=" ">
<polygon fill="white" stroke="#bfbfbf" points="376.5,-0.5 376.5,-19.5 433.5,-19.5 433.5,-0.5 376.5,-0.5"/>
<text text-anchor="middle" x="405" y="-7.5" font-family="Helvetica,sans-Serif" font-size="10.00">ostream</text>
</a>
</g>
</g>
<!-- Node15&#45;&gt;Node16 -->
<g id="edge15" class="edge">
<title>Node15&#45;&gt;Node16</title>
<path fill="none" stroke="midnightblue" d="M405,-61.98C405,-53.58 405,-40.48 405,-29.66"/>
<polygon fill="midnightblue" stroke="midnightblue" points="408.5,-29.51 405,-19.51 401.5,-29.51 408.5,-29.51"/>
</g>
<!-- Node17&#45;&gt;Node10 -->
<g id="edge21" class="edge">
<title>Node17&#45;&gt;Node10</title>
<path fill="none" stroke="midnightblue" d="M631.92,-179.44C606.46,-170.4 566.11,-156.06 537.54,-145.92"/>
<polygon fill="midnightblue" stroke="midnightblue" points="538.57,-142.57 527.97,-142.52 536.22,-149.16 538.57,-142.57"/>
</g>
<!-- Node17&#45;&gt;Node11 -->
<g id="edge19" class="edge">
<title>Node17&#45;&gt;Node11</title>
<path fill="none" stroke="midnightblue" d="M698.91,-179.48C726.51,-172.63 762.25,-161.1 790,-143 818.19,-124.61 828.85,-118.39 841,-87 848.13,-68.57 845.9,-45.71 842.82,-29.9"/>
<polygon fill="midnightblue" stroke="midnightblue" points="846.15,-28.79 840.54,-19.8 839.32,-30.33 846.15,-28.79"/>
</g>
<!-- Node17&#45;&gt;Node12 -->
<g id="edge20" class="edge">
<title>Node17&#45;&gt;Node12</title>
<path fill="none" stroke="midnightblue" d="M649.86,-179.38C643.42,-170.32 632.99,-155.66 624,-143 611.03,-124.73 596.18,-103.8 586.06,-89.51"/>
<polygon fill="midnightblue" stroke="midnightblue" points="588.79,-87.32 580.15,-81.19 583.08,-91.37 588.79,-87.32"/>
</g>
<!-- Node18 -->
<g id="node18" class="node">
<title>Node18</title>
<g id="a_node18"><a xlink:href="tensor_i_8_h.html" target="_top" xlink:title=" ">
<polygon fill="white" stroke="black" points="632.5,-123.5 632.5,-142.5 781.5,-142.5 781.5,-123.5 632.5,-123.5"/>
<text text-anchor="middle" x="707" y="-130.5" font-family="Helvetica,sans-Serif" font-size="10.00">amr&#45;wind/core/vs/tensorI.H</text>
</a>
</g>
</g>
<!-- Node17&#45;&gt;Node18 -->
<g id="edge22" class="edge">
<title>Node17&#45;&gt;Node18</title>
<path fill="none" stroke="midnightblue" d="M659.26,-179.08C665.14,-171.06 676.1,-159.1 686.17,-149.51"/>
<polygon fill="midnightblue" stroke="midnightblue" points="688.56,-152.07 693.6,-142.75 683.85,-146.89 688.56,-152.07"/>
</g>
<!-- Node18&#45;&gt;Node7 -->
<g id="edge23" class="edge">
<title>Node18&#45;&gt;Node7</title>
<path fill="none" stroke="midnightblue" d="M704.02,-123.46C698.05,-107.65 683.1,-73.8 659,-56 638.09,-40.55 568.81,-25.3 526.65,-17.12"/>
<polygon fill="midnightblue" stroke="midnightblue" points="527.29,-13.68 516.81,-15.25 525.98,-20.56 527.29,-13.68"/>
</g>
<!-- Node18&#45;&gt;Node17 -->
<g id="edge24" class="edge">
<title>Node18&#45;&gt;Node17</title>
<path fill="none" stroke="midnightblue" d="M703.81,-142.83C697.93,-150.87 686.9,-162.91 676.77,-172.54"/>
<polygon fill="midnightblue" stroke="midnightblue" points="674.35,-170.01 669.31,-179.32 679.06,-175.19 674.35,-170.01"/>
</g>
<!-- Node19 -->
<g id="node19" class="node">
<title>Node19</title>
<g id="a_node19"><a xlink:href="trig__ops_8_h.html" target="_top" xlink:title="Trigonometric utilities.">
<polygon fill="white" stroke="black" points="706.5,-56.5 706.5,-86.5 809.5,-86.5 809.5,-56.5 706.5,-56.5"/>
<text text-anchor="start" x="714.5" y="-74.5" font-family="Helvetica,sans-Serif" font-size="10.00">amr&#45;wind/utilities</text>
<text text-anchor="middle" x="758" y="-63.5" font-family="Helvetica,sans-Serif" font-size="10.00">/trig_ops.H</text>
</a>
</g>
</g>
<!-- Node18&#45;&gt;Node19 -->
<g id="edge25" class="edge">
<title>Node18&#45;&gt;Node19</title>
<path fill="none" stroke="midnightblue" d="M714.31,-123.48C720.83,-115.87 730.66,-104.4 739.34,-94.26"/>
<polygon fill="midnightblue" stroke="midnightblue" points="742.13,-96.39 745.98,-86.52 736.81,-91.84 742.13,-96.39"/>
</g>
<!-- Node19&#45;&gt;Node7 -->
<g id="edge26" class="edge">
<title>Node19&#45;&gt;Node7</title>
<path fill="none" stroke="midnightblue" d="M706.28,-58.89C653.18,-46.96 572.08,-28.76 526.72,-18.57"/>
<polygon fill="midnightblue" stroke="midnightblue" points="527.33,-15.12 516.8,-16.34 525.8,-21.95 527.33,-15.12"/>
</g>
<!-- Node19&#45;&gt;Node11 -->
<g id="edge28" class="edge">
<title>Node19&#45;&gt;Node11</title>
<path fill="none" stroke="midnightblue" d="M776.96,-56.4C789.42,-47.13 805.7,-35.03 818.31,-25.65"/>
<polygon fill="midnightblue" stroke="midnightblue" points="820.42,-28.43 826.36,-19.66 816.25,-22.82 820.42,-28.43"/>
</g>
<!-- Node19&#45;&gt;Node14 -->
<g id="edge27" class="edge">
<title>Node19&#45;&gt;Node14</title>
<path fill="none" stroke="midnightblue" d="M743.07,-56.4C733.63,-47.49 721.42,-35.95 711.67,-26.74"/>
<polygon fill="midnightblue" stroke="midnightblue" points="713.84,-23.98 704.17,-19.66 709.03,-29.07 713.84,-23.98"/>
</g>
</g>
</svg>
