<?xml version="1.0" encoding="UTF-8" standalone="no"?>
<!DOCTYPE svg PUBLIC "-//W3C//DTD SVG 1.1//EN"
 "http://www.w3.org/Graphics/SVG/1.1/DTD/svg11.dtd">
<!-- Generated by graphviz version 2.43.0 (0)
 -->
<!-- Title: stencils.H Pages: 1 -->
<!--zoomable 308 -->
<svg id="main" version="1.1" xmlns="http://www.w3.org/2000/svg" xmlns:xlink="http://www.w3.org/1999/xlink" xml:space="preserve" onload="init(evt)">
<style type="text/css"><![CDATA[
.edge:hover path { stroke: red; }
.edge:hover polygon { stroke: red; fill: red; }
]]></style>
<script type="text/javascript"><![CDATA[
var edges = document.getElementsByTagName('g');
if (edges && edges.length) {
  for (var i=0;i<edges.length;i++) {
    if (edges[i].id.substr(0,4)=='edge') {
      edges[i].setAttribute('class','edge');
    }
  }
}
]]></script>
        <defs>
                <circle id="rim" cx="0" cy="0" r="7"/>
                <circle id="rim2" cx="0" cy="0" r="3.5"/>
                <g id="zoomPlus">
                        <use xlink:href="#rim" fill="#404040">
                                <set attributeName="fill" to="#808080" begin="zoomplus.mouseover" end="zoomplus.mouseout"/>
                        </use>
                        <path d="M-4,0h8M0,-4v8" fill="none" stroke="white" stroke-width="1.5" pointer-events="none"/>
                </g>
                <g id="zoomMin">
                        <use xlink:href="#rim" fill="#404040">
                                <set attributeName="fill" to="#808080" begin="zoomminus.mouseover" end="zoomminus.mouseout"/>
                        </use>
                        <path d="M-4,0h8" fill="none" stroke="white" stroke-width="1.5" pointer-events="none"/>
                </g>
                <g id="dirArrow">
                        <path fill="none" stroke="white" stroke-width="1.5" d="M0,-3.0v7 M-2.5,-0.5L0,-3.0L2.5,-0.5"/>
                </g>
               <g id="resetDef">
                       <use xlink:href="#rim2" fill="#404040">
                               <set attributeName="fill" to="#808080" begin="reset.mouseover" end="reset.mouseout"/>
                       </use>
               </g>
        </defs>

<script type="text/javascript">
var viewWidth = 2101;
var viewHeight = 308;
var sectionId = 'dynsection-1';
</script>
<script xlink:href="svgpan.js"/>
<svg id="graph" class="graph">
<g id="viewport">
<title>stencils.H</title>
<polygon fill="white" stroke="transparent" points="-4,4 -4,-304 2097,-304 2097,4 -4,4"/>
<!-- Node1 -->
<g id="node1" class="node">
<title>Node1</title>
<g id="a_node1"><a xlink:title="Second&#45;order finite volume discretization stencil coefficients.">
<polygon fill="#bfbfbf" stroke="black" points="1614,-280.5 1614,-299.5 1679,-299.5 1679,-280.5 1614,-280.5"/>
<text text-anchor="middle" x="1646.5" y="-287.5" font-family="Helvetica,sans-Serif" font-size="10.00">stencils.H</text>
</a>
</g>
</g>
<!-- Node2 -->
<g id="node2" class="node">
<title>Node2</title>
<g id="a_node2"><a xlink:href="fvm__utils_8_h.html" target="_top" xlink:title=" ">
<polygon fill="white" stroke="black" points="465,-224.5 465,-243.5 538,-243.5 538,-224.5 465,-224.5"/>
<text text-anchor="middle" x="501.5" y="-231.5" font-family="Helvetica,sans-Serif" font-size="10.00">fvm_utils.H</text>
</a>
</g>
</g>
<!-- Node1&#45;&gt;Node2 -->
<g id="edge1" class="edge">
<title>Node1&#45;&gt;Node2</title>
<path fill="none" stroke="midnightblue" d="M1603.75,-286.98C1421.14,-278.37 708.19,-244.75 538.09,-236.73"/>
<polygon fill="midnightblue" stroke="midnightblue" points="1603.62,-290.48 1613.77,-287.46 1603.95,-283.49 1603.62,-290.48"/>
</g>
<!-- Node44 -->
<g id="node44" class="node">
<title>Node44</title>
<g id="a_node44"><a xlink:href="_a_m_d_8_h.html" target="_top" xlink:title=" ">
<polygon fill="white" stroke="black" points="1712.5,-224.5 1712.5,-243.5 1762.5,-243.5 1762.5,-224.5 1712.5,-224.5"/>
<text text-anchor="middle" x="1737.5" y="-231.5" font-family="Helvetica,sans-Serif" font-size="10.00">AMD.H</text>
</a>
</g>
</g>
<!-- Node1&#45;&gt;Node44 -->
<g id="edge60" class="edge">
<title>Node1&#45;&gt;Node44</title>
<path fill="none" stroke="midnightblue" d="M1669.79,-275.18C1686.54,-265.24 1708.6,-252.15 1722.92,-243.65"/>
<polygon fill="midnightblue" stroke="midnightblue" points="1667.93,-272.21 1661.12,-280.32 1671.51,-278.23 1667.93,-272.21"/>
</g>
<!-- Node46 -->
<g id="node46" class="node">
<title>Node46</title>
<g id="a_node46"><a xlink:href="_a_m_d_no_therm_8_h.html" target="_top" xlink:title=" ">
<polygon fill="white" stroke="black" points="1599,-224.5 1599,-243.5 1694,-243.5 1694,-224.5 1599,-224.5"/>
<text text-anchor="middle" x="1646.5" y="-231.5" font-family="Helvetica,sans-Serif" font-size="10.00">AMDNoTherm.H</text>
</a>
</g>
</g>
<!-- Node1&#45;&gt;Node46 -->
<g id="edge62" class="edge">
<title>Node1&#45;&gt;Node46</title>
<path fill="none" stroke="midnightblue" d="M1646.5,-269.8C1646.5,-260.91 1646.5,-250.78 1646.5,-243.75"/>
<polygon fill="midnightblue" stroke="midnightblue" points="1643,-270.08 1646.5,-280.08 1650,-270.08 1643,-270.08"/>
</g>
<!-- Node3 -->
<g id="node3" class="node">
<title>Node3</title>
<g id="a_node3"><a xlink:href="curvature_8_h.html" target="_top" xlink:title=" ">
<polygon fill="white" stroke="black" points="373.5,-168.5 373.5,-187.5 447.5,-187.5 447.5,-168.5 373.5,-168.5"/>
<text text-anchor="middle" x="410.5" y="-175.5" font-family="Helvetica,sans-Serif" font-size="10.00">curvature.H</text>
</a>
</g>
</g>
<!-- Node2&#45;&gt;Node3 -->
<g id="edge2" class="edge">
<title>Node2&#45;&gt;Node3</title>
<path fill="none" stroke="midnightblue" d="M478.21,-219.18C461.46,-209.24 439.4,-196.15 425.08,-187.65"/>
<polygon fill="midnightblue" stroke="midnightblue" points="476.49,-222.23 486.88,-224.32 480.07,-216.21 476.49,-222.23"/>
</g>
<!-- Node6 -->
<g id="node6" class="node">
<title>Node6</title>
<g id="a_node6"><a xlink:href="divergence_8_h.html" target="_top" xlink:title=" ">
<polygon fill="white" stroke="black" points="115,-168.5 115,-187.5 196,-187.5 196,-168.5 115,-168.5"/>
<text text-anchor="middle" x="155.5" y="-175.5" font-family="Helvetica,sans-Serif" font-size="10.00">divergence.H</text>
</a>
</g>
</g>
<!-- Node2&#45;&gt;Node6 -->
<g id="edge5" class="edge">
<title>Node2&#45;&gt;Node6</title>
<path fill="none" stroke="midnightblue" d="M454.81,-226.39C396.25,-217.99 292.81,-202.8 204.5,-188 201.77,-187.54 198.96,-187.06 196.12,-186.56"/>
<polygon fill="midnightblue" stroke="midnightblue" points="454.47,-229.87 464.86,-227.83 455.46,-222.94 454.47,-229.87"/>
</g>
<!-- Node8 -->
<g id="node8" class="node">
<title>Node8</title>
<g id="a_node8"><a xlink:href="filter_8_h.html" target="_top" xlink:title=" ">
<polygon fill="white" stroke="black" points="214,-168.5 214,-187.5 263,-187.5 263,-168.5 214,-168.5"/>
<text text-anchor="middle" x="238.5" y="-175.5" font-family="Helvetica,sans-Serif" font-size="10.00">filter.H</text>
</a>
</g>
</g>
<!-- Node2&#45;&gt;Node8 -->
<g id="edge8" class="edge">
<title>Node2&#45;&gt;Node8</title>
<path fill="none" stroke="midnightblue" d="M454.8,-224.74C408.39,-216.31 335.27,-202.46 272.5,-188 269.52,-187.31 266.41,-186.55 263.34,-185.77"/>
<polygon fill="midnightblue" stroke="midnightblue" points="454.39,-228.22 464.86,-226.56 455.64,-221.33 454.39,-228.22"/>
</g>
<!-- Node10 -->
<g id="node10" class="node">
<title>Node10</title>
<g id="a_node10"><a xlink:href="gradient_8_h.html" target="_top" xlink:title=" ">
<polygon fill="white" stroke="black" points="1191.5,-168.5 1191.5,-187.5 1259.5,-187.5 1259.5,-168.5 1191.5,-168.5"/>
<text text-anchor="middle" x="1225.5" y="-175.5" font-family="Helvetica,sans-Serif" font-size="10.00">gradient.H</text>
</a>
</g>
</g>
<!-- Node2&#45;&gt;Node10 -->
<g id="edge11" class="edge">
<title>Node2&#45;&gt;Node10</title>
<path fill="none" stroke="midnightblue" d="M548.46,-229.5C683.93,-219.39 1073.27,-190.35 1191.23,-181.56"/>
<polygon fill="midnightblue" stroke="midnightblue" points="548.11,-226.01 538.4,-230.25 548.63,-232.99 548.11,-226.01"/>
</g>
<!-- Node36 -->
<g id="node36" class="node">
<title>Node36</title>
<g id="a_node36"><a xlink:href="laplacian_8_h.html" target="_top" xlink:title=" ">
<polygon fill="white" stroke="black" points="466,-168.5 466,-187.5 537,-187.5 537,-168.5 466,-168.5"/>
<text text-anchor="middle" x="501.5" y="-175.5" font-family="Helvetica,sans-Serif" font-size="10.00">laplacian.H</text>
</a>
</g>
</g>
<!-- Node2&#45;&gt;Node36 -->
<g id="edge40" class="edge">
<title>Node2&#45;&gt;Node36</title>
<path fill="none" stroke="midnightblue" d="M501.5,-213.8C501.5,-204.91 501.5,-194.78 501.5,-187.75"/>
<polygon fill="midnightblue" stroke="midnightblue" points="498,-214.08 501.5,-224.08 505,-214.08 498,-214.08"/>
</g>
<!-- Node37 -->
<g id="node37" class="node">
<title>Node37</title>
<g id="a_node37"><a xlink:href="non_linear_sum_8_h.html" target="_top" xlink:title=" ">
<polygon fill="white" stroke="black" points="0,-168.5 0,-187.5 97,-187.5 97,-168.5 0,-168.5"/>
<text text-anchor="middle" x="48.5" y="-175.5" font-family="Helvetica,sans-Serif" font-size="10.00">nonLinearSum.H</text>
</a>
</g>
</g>
<!-- Node2&#45;&gt;Node37 -->
<g id="edge42" class="edge">
<title>Node2&#45;&gt;Node37</title>
<path fill="none" stroke="midnightblue" d="M454.45,-228.32C380.19,-220.79 231.3,-205.07 105.5,-188 102.82,-187.64 100.07,-187.25 97.3,-186.85"/>
<polygon fill="midnightblue" stroke="midnightblue" points="454.55,-231.85 464.86,-229.37 455.26,-224.89 454.55,-231.85"/>
</g>
<!-- Node38 -->
<g id="node38" class="node">
<title>Node38</title>
<g id="a_node38"><a xlink:href="qcriterion_8_h.html" target="_top" xlink:title=" ">
<polygon fill="white" stroke="black" points="281.5,-168.5 281.5,-187.5 355.5,-187.5 355.5,-168.5 281.5,-168.5"/>
<text text-anchor="middle" x="318.5" y="-175.5" font-family="Helvetica,sans-Serif" font-size="10.00">qcriterion.H</text>
</a>
</g>
</g>
<!-- Node2&#45;&gt;Node38 -->
<g id="edge44" class="edge">
<title>Node2&#45;&gt;Node38</title>
<path fill="none" stroke="midnightblue" d="M462.76,-221.57C428.24,-211.38 378.49,-196.7 347.36,-187.52"/>
<polygon fill="midnightblue" stroke="midnightblue" points="461.92,-224.97 472.5,-224.44 463.9,-218.26 461.92,-224.97"/>
</g>
<!-- Node39 -->
<g id="node39" class="node">
<title>Node39</title>
<g id="a_node39"><a xlink:href="strainrate_8_h.html" target="_top" xlink:title=" ">
<polygon fill="white" stroke="black" points="753.5,-168.5 753.5,-187.5 827.5,-187.5 827.5,-168.5 753.5,-168.5"/>
<text text-anchor="middle" x="790.5" y="-175.5" font-family="Helvetica,sans-Serif" font-size="10.00">strainrate.H</text>
</a>
</g>
</g>
<!-- Node2&#45;&gt;Node39 -->
<g id="edge46" class="edge">
<title>Node2&#45;&gt;Node39</title>
<path fill="none" stroke="midnightblue" d="M548.35,-224.37C597.11,-215.36 675.68,-200.8 743.5,-188 746.68,-187.4 749.99,-186.77 753.3,-186.14"/>
<polygon fill="midnightblue" stroke="midnightblue" points="547.61,-220.94 538.41,-226.2 548.88,-227.83 547.61,-220.94"/>
</g>
<!-- Node41 -->
<g id="node41" class="node">
<title>Node41</title>
<g id="a_node41"><a xlink:href="vorticity_8_h.html" target="_top" xlink:title=" ">
<polygon fill="white" stroke="black" points="555.5,-168.5 555.5,-187.5 621.5,-187.5 621.5,-168.5 555.5,-168.5"/>
<text text-anchor="middle" x="588.5" y="-175.5" font-family="Helvetica,sans-Serif" font-size="10.00">vorticity.H</text>
</a>
</g>
</g>
<!-- Node2&#45;&gt;Node41 -->
<g id="edge53" class="edge">
<title>Node2&#45;&gt;Node41</title>
<path fill="none" stroke="midnightblue" d="M524.22,-218.9C540.17,-209 561,-196.07 574.56,-187.65"/>
<polygon fill="midnightblue" stroke="midnightblue" points="522.13,-216.08 515.48,-224.32 525.82,-222.02 522.13,-216.08"/>
</g>
<!-- Node42 -->
<g id="node42" class="node">
<title>Node42</title>
<g id="a_node42"><a xlink:href="vorticity__mag_8_h.html" target="_top" xlink:title=" ">
<polygon fill="white" stroke="black" points="640,-168.5 640,-187.5 735,-187.5 735,-168.5 640,-168.5"/>
<text text-anchor="middle" x="687.5" y="-175.5" font-family="Helvetica,sans-Serif" font-size="10.00">vorticity_mag.H</text>
</a>
</g>
</g>
<!-- Node2&#45;&gt;Node42 -->
<g id="edge56" class="edge">
<title>Node2&#45;&gt;Node42</title>
<path fill="none" stroke="midnightblue" d="M540.88,-221.57C575.97,-211.38 626.52,-196.7 658.17,-187.52"/>
<polygon fill="midnightblue" stroke="midnightblue" points="539.6,-218.29 530.97,-224.44 541.55,-225.02 539.6,-218.29"/>
</g>
<!-- Node4 -->
<g id="node4" class="node">
<title>Node4</title>
<g id="a_node4"><a xlink:href="fvm_8_h.html" target="_top" xlink:title=" ">
<polygon fill="white" stroke="black" points="387,-112.5 387,-131.5 434,-131.5 434,-112.5 387,-112.5"/>
<text text-anchor="middle" x="410.5" y="-119.5" font-family="Helvetica,sans-Serif" font-size="10.00">fvm.H</text>
</a>
</g>
</g>
<!-- Node3&#45;&gt;Node4 -->
<g id="edge3" class="edge">
<title>Node3&#45;&gt;Node4</title>
<path fill="none" stroke="midnightblue" d="M410.5,-157.8C410.5,-148.91 410.5,-138.78 410.5,-131.75"/>
<polygon fill="midnightblue" stroke="midnightblue" points="407,-158.08 410.5,-168.08 414,-158.08 407,-158.08"/>
</g>
<!-- Node5 -->
<g id="node5" class="node">
<title>Node5</title>
<g id="a_node5"><a xlink:href="_derived_qty_defs_8cpp.html" target="_top" xlink:title=" ">
<polygon fill="white" stroke="black" points="353,-56.5 353,-75.5 468,-75.5 468,-56.5 353,-56.5"/>
<text text-anchor="middle" x="410.5" y="-63.5" font-family="Helvetica,sans-Serif" font-size="10.00">DerivedQtyDefs.cpp</text>
</a>
</g>
</g>
<!-- Node4&#45;&gt;Node5 -->
<g id="edge4" class="edge">
<title>Node4&#45;&gt;Node5</title>
<path fill="none" stroke="midnightblue" d="M410.5,-101.8C410.5,-92.91 410.5,-82.78 410.5,-75.75"/>
<polygon fill="midnightblue" stroke="midnightblue" points="407,-102.08 410.5,-112.08 414,-102.08 407,-102.08"/>
</g>
<!-- Node6&#45;&gt;Node4 -->
<g id="edge6" class="edge">
<title>Node6&#45;&gt;Node4</title>
<path fill="none" stroke="midnightblue" d="M205.75,-166.36C260.47,-154.77 345.65,-136.73 386.74,-128.03"/>
<polygon fill="midnightblue" stroke="midnightblue" points="204.96,-162.95 195.91,-168.44 206.41,-169.8 204.96,-162.95"/>
</g>
<!-- Node7 -->
<g id="node7" class="node">
<title>Node7</title>
<g id="a_node7"><a xlink:href="_kosovic_8cpp.html" target="_top" xlink:title=" ">
<polygon fill="white" stroke="black" points="109.5,-112.5 109.5,-131.5 183.5,-131.5 183.5,-112.5 109.5,-112.5"/>
<text text-anchor="middle" x="146.5" y="-119.5" font-family="Helvetica,sans-Serif" font-size="10.00">Kosovic.cpp</text>
</a>
</g>
</g>
<!-- Node6&#45;&gt;Node7 -->
<g id="edge7" class="edge">
<title>Node6&#45;&gt;Node7</title>
<path fill="none" stroke="midnightblue" d="M152.35,-158.1C150.86,-149.14 149.14,-138.86 147.96,-131.75"/>
<polygon fill="midnightblue" stroke="midnightblue" points="148.92,-158.79 154.01,-168.08 155.82,-157.64 148.92,-158.79"/>
</g>
<!-- Node8&#45;&gt;Node4 -->
<g id="edge9" class="edge">
<title>Node8&#45;&gt;Node4</title>
<path fill="none" stroke="midnightblue" d="M273.04,-166.16C306.79,-155.56 357.26,-139.72 386.73,-130.46"/>
<polygon fill="midnightblue" stroke="midnightblue" points="271.64,-162.93 263.14,-169.26 273.73,-169.61 271.64,-162.93"/>
</g>
<!-- Node9 -->
<g id="node9" class="node">
<title>Node9</title>
<g id="a_node9"><a xlink:href="_multi_phase_8cpp.html" target="_top" xlink:title=" ">
<polygon fill="white" stroke="black" points="202,-112.5 202,-131.5 293,-131.5 293,-112.5 202,-112.5"/>
<text text-anchor="middle" x="247.5" y="-119.5" font-family="Helvetica,sans-Serif" font-size="10.00">MultiPhase.cpp</text>
</a>
</g>
</g>
<!-- Node8&#45;&gt;Node9 -->
<g id="edge10" class="edge">
<title>Node8&#45;&gt;Node9</title>
<path fill="none" stroke="midnightblue" d="M241.65,-158.1C243.14,-149.14 244.86,-138.86 246.04,-131.75"/>
<polygon fill="midnightblue" stroke="midnightblue" points="238.18,-157.64 239.99,-168.08 245.08,-158.79 238.18,-157.64"/>
</g>
<!-- Node10&#45;&gt;Node4 -->
<g id="edge12" class="edge">
<title>Node10&#45;&gt;Node4</title>
<path fill="none" stroke="midnightblue" d="M1181.14,-175.67C1037.67,-171.16 587.2,-155.47 443.5,-132 440.45,-131.5 437.28,-130.84 434.16,-130.09"/>
<polygon fill="midnightblue" stroke="midnightblue" points="1181.22,-179.17 1191.33,-175.98 1181.44,-172.17 1181.22,-179.17"/>
</g>
<!-- Node11 -->
<g id="node11" class="node">
<title>Node11</title>
<g id="a_node11"><a xlink:href="bluff__body__ops_8cpp.html" target="_top" xlink:title=" ">
<polygon fill="white" stroke="black" points="884.5,-56.5 884.5,-75.5 994.5,-75.5 994.5,-56.5 884.5,-56.5"/>
<text text-anchor="middle" x="939.5" y="-63.5" font-family="Helvetica,sans-Serif" font-size="10.00">bluff_body_ops.cpp</text>
</a>
</g>
</g>
<!-- Node10&#45;&gt;Node11 -->
<g id="edge13" class="edge">
<title>Node10&#45;&gt;Node11</title>
<path fill="none" stroke="midnightblue" d="M1207.33,-162.09C1188.47,-147.32 1157.56,-125.08 1127.5,-112 1084.72,-93.39 1032.97,-81.72 994.61,-74.95"/>
<polygon fill="midnightblue" stroke="midnightblue" points="1205.34,-164.97 1215.34,-168.48 1209.7,-159.5 1205.34,-164.97"/>
</g>
<!-- Node12 -->
<g id="node12" class="node">
<title>Node12</title>
<g id="a_node12"><a xlink:href="bluff__body__ops_8_h.html" target="_top" xlink:title=" ">
<polygon fill="white" stroke="black" points="1175,-112.5 1175,-131.5 1276,-131.5 1276,-112.5 1175,-112.5"/>
<text text-anchor="middle" x="1225.5" y="-119.5" font-family="Helvetica,sans-Serif" font-size="10.00">bluff_body_ops.H</text>
</a>
</g>
</g>
<!-- Node10&#45;&gt;Node12 -->
<g id="edge14" class="edge">
<title>Node10&#45;&gt;Node12</title>
<path fill="none" stroke="midnightblue" d="M1225.5,-157.8C1225.5,-148.91 1225.5,-138.78 1225.5,-131.75"/>
<polygon fill="midnightblue" stroke="midnightblue" points="1222,-158.08 1225.5,-168.08 1229,-158.08 1222,-158.08"/>
</g>
<!-- Node19 -->
<g id="node19" class="node">
<title>Node19</title>
<g id="a_node19"><a xlink:href="relaxation__zones__ops_8cpp.html" target="_top" xlink:title=" ">
<polygon fill="white" stroke="black" points="1308,-56.5 1308,-75.5 1451,-75.5 1451,-56.5 1308,-56.5"/>
<text text-anchor="middle" x="1379.5" y="-63.5" font-family="Helvetica,sans-Serif" font-size="10.00">relaxation_zones_ops.cpp</text>
</a>
</g>
</g>
<!-- Node10&#45;&gt;Node19 -->
<g id="edge22" class="edge">
<title>Node10&#45;&gt;Node19</title>
<path fill="none" stroke="midnightblue" d="M1245.92,-162.42C1278.49,-139.15 1341.21,-94.35 1367.47,-75.59"/>
<polygon fill="midnightblue" stroke="midnightblue" points="1243.69,-159.71 1237.58,-168.37 1247.76,-165.4 1243.69,-159.71"/>
</g>
<!-- Node20 -->
<g id="node20" class="node">
<title>Node20</title>
<g id="a_node20"><a xlink:href="relaxation__zones__ops_8_h.html" target="_top" xlink:title=" ">
<polygon fill="white" stroke="black" points="1333,-112.5 1333,-131.5 1466,-131.5 1466,-112.5 1333,-112.5"/>
<text text-anchor="middle" x="1399.5" y="-119.5" font-family="Helvetica,sans-Serif" font-size="10.00">relaxation_zones_ops.H</text>
</a>
</g>
</g>
<!-- Node10&#45;&gt;Node20 -->
<g id="edge23" class="edge">
<title>Node10&#45;&gt;Node20</title>
<path fill="none" stroke="midnightblue" d="M1262.76,-165.44C1295.57,-155.26 1342.58,-140.66 1372.06,-131.52"/>
<polygon fill="midnightblue" stroke="midnightblue" points="1261.58,-162.14 1253.07,-168.44 1263.66,-168.82 1261.58,-162.14"/>
</g>
<!-- Node27 -->
<g id="node27" class="node">
<title>Node27</title>
<g id="a_node27"><a xlink:href="_dam_break_8cpp.html" target="_top" xlink:title=" ">
<polygon fill="white" stroke="black" points="1484,-112.5 1484,-131.5 1573,-131.5 1573,-112.5 1484,-112.5"/>
<text text-anchor="middle" x="1528.5" y="-119.5" font-family="Helvetica,sans-Serif" font-size="10.00">DamBreak.cpp</text>
</a>
</g>
</g>
<!-- Node10&#45;&gt;Node27 -->
<g id="edge31" class="edge">
<title>Node10&#45;&gt;Node27</title>
<path fill="none" stroke="midnightblue" d="M1269.87,-169.09C1327.21,-158.87 1426.48,-141.18 1483.93,-130.94"/>
<polygon fill="midnightblue" stroke="midnightblue" points="1268.9,-165.71 1259.67,-170.91 1270.13,-172.6 1268.9,-165.71"/>
</g>
<!-- Node28 -->
<g id="node28" class="node">
<title>Node28</title>
<g id="a_node28"><a xlink:href="_sloshing_tank_8cpp.html" target="_top" xlink:title=" ">
<polygon fill="white" stroke="black" points="1591,-112.5 1591,-131.5 1692,-131.5 1692,-112.5 1591,-112.5"/>
<text text-anchor="middle" x="1641.5" y="-119.5" font-family="Helvetica,sans-Serif" font-size="10.00">SloshingTank.cpp</text>
</a>
</g>
</g>
<!-- Node10&#45;&gt;Node28 -->
<g id="edge32" class="edge">
<title>Node10&#45;&gt;Node28</title>
<path fill="none" stroke="midnightblue" d="M1270.17,-171.69C1337.65,-163.59 1469.62,-147.46 1581.5,-132 1584.53,-131.58 1587.64,-131.14 1590.77,-130.69"/>
<polygon fill="midnightblue" stroke="midnightblue" points="1269.41,-168.26 1259.9,-172.92 1270.25,-175.21 1269.41,-168.26"/>
</g>
<!-- Node29 -->
<g id="node29" class="node">
<title>Node29</title>
<g id="a_node29"><a xlink:href="_zalesak_disk_8cpp.html" target="_top" xlink:title=" ">
<polygon fill="white" stroke="black" points="1710.5,-112.5 1710.5,-131.5 1808.5,-131.5 1808.5,-112.5 1710.5,-112.5"/>
<text text-anchor="middle" x="1759.5" y="-119.5" font-family="Helvetica,sans-Serif" font-size="10.00">ZalesakDisk.cpp</text>
</a>
</g>
</g>
<!-- Node10&#45;&gt;Node29 -->
<g id="edge33" class="edge">
<title>Node10&#45;&gt;Node29</title>
<path fill="none" stroke="midnightblue" d="M1269.76,-173.65C1353.85,-167.11 1542.43,-151.53 1700.5,-132 1703.69,-131.61 1706.97,-131.18 1710.27,-130.72"/>
<polygon fill="midnightblue" stroke="midnightblue" points="1269.25,-170.18 1259.55,-174.44 1269.79,-177.16 1269.25,-170.18"/>
</g>
<!-- Node30 -->
<g id="node30" class="node">
<title>Node30</title>
<g id="a_node30"><a xlink:href="_zalesak_disk_scalar_vel_8cpp.html" target="_top" xlink:title=" ">
<polygon fill="white" stroke="black" points="1827,-112.5 1827,-131.5 1970,-131.5 1970,-112.5 1827,-112.5"/>
<text text-anchor="middle" x="1898.5" y="-119.5" font-family="Helvetica,sans-Serif" font-size="10.00">ZalesakDiskScalarVel.cpp</text>
</a>
</g>
</g>
<!-- Node10&#45;&gt;Node30 -->
<g id="edge34" class="edge">
<title>Node10&#45;&gt;Node30</title>
<path fill="none" stroke="midnightblue" d="M1269.75,-174.17C1368.24,-167.74 1613.03,-151.13 1817.5,-132 1820.6,-131.71 1823.76,-131.4 1826.96,-131.09"/>
<polygon fill="midnightblue" stroke="midnightblue" points="1269.32,-170.69 1259.57,-174.83 1269.78,-177.67 1269.32,-170.69"/>
</g>
<!-- Node31 -->
<g id="node31" class="node">
<title>Node31</title>
<g id="a_node31"><a xlink:href="_a_m_d_no_therm_8cpp.html" target="_top" xlink:title=" ">
<polygon fill="white" stroke="black" points="1988,-112.5 1988,-131.5 2093,-131.5 2093,-112.5 1988,-112.5"/>
<text text-anchor="middle" x="2040.5" y="-119.5" font-family="Helvetica,sans-Serif" font-size="10.00">AMDNoTherm.cpp</text>
</a>
</g>
</g>
<!-- Node10&#45;&gt;Node31 -->
<g id="edge35" class="edge">
<title>Node10&#45;&gt;Node31</title>
<path fill="none" stroke="midnightblue" d="M1270.1,-175.69C1386.86,-171.97 1711.02,-159.76 1979.5,-132 1982.27,-131.71 1985.1,-131.39 1987.96,-131.05"/>
<polygon fill="midnightblue" stroke="midnightblue" points="1269.66,-172.2 1259.78,-176.01 1269.88,-179.2 1269.66,-172.2"/>
</g>
<!-- Node32 -->
<g id="node32" class="node">
<title>Node32</title>
<g id="a_node32"><a xlink:href="_one_eq_ksgs_8cpp.html" target="_top" xlink:title=" ">
<polygon fill="white" stroke="black" points="928.5,-112.5 928.5,-131.5 1020.5,-131.5 1020.5,-112.5 928.5,-112.5"/>
<text text-anchor="middle" x="974.5" y="-119.5" font-family="Helvetica,sans-Serif" font-size="10.00">OneEqKsgs.cpp</text>
</a>
</g>
</g>
<!-- Node10&#45;&gt;Node32 -->
<g id="edge36" class="edge">
<title>Node10&#45;&gt;Node32</title>
<path fill="none" stroke="midnightblue" d="M1181.45,-167.52C1134.21,-157.36 1059.88,-141.37 1014.34,-131.57"/>
<polygon fill="midnightblue" stroke="midnightblue" points="1180.88,-170.98 1191.39,-169.66 1182.35,-164.14 1180.88,-170.98"/>
</g>
<!-- Node33 -->
<g id="node33" class="node">
<title>Node33</title>
<g id="a_node33"><a xlink:href="_k_omega_s_s_t_8cpp.html" target="_top" xlink:title=" ">
<polygon fill="white" stroke="black" points="815,-112.5 815,-131.5 910,-131.5 910,-112.5 815,-112.5"/>
<text text-anchor="middle" x="862.5" y="-119.5" font-family="Helvetica,sans-Serif" font-size="10.00">KOmegaSST.cpp</text>
</a>
</g>
</g>
<!-- Node10&#45;&gt;Node33 -->
<g id="edge37" class="edge">
<title>Node10&#45;&gt;Node33</title>
<path fill="none" stroke="midnightblue" d="M1180.88,-170.59C1121.27,-161.99 1012.39,-146.16 919.5,-132 916.43,-131.53 913.27,-131.05 910.08,-130.55"/>
<polygon fill="midnightblue" stroke="midnightblue" points="1180.67,-174.09 1191.06,-172.06 1181.67,-167.17 1180.67,-174.09"/>
</g>
<!-- Node34 -->
<g id="node34" class="node">
<title>Node34</title>
<g id="a_node34"><a xlink:href="_k_omega_s_s_t_i_d_d_e_s_8cpp.html" target="_top" xlink:title=" ">
<polygon fill="white" stroke="black" points="554.5,-112.5 554.5,-131.5 680.5,-131.5 680.5,-112.5 554.5,-112.5"/>
<text text-anchor="middle" x="617.5" y="-119.5" font-family="Helvetica,sans-Serif" font-size="10.00">KOmegaSSTIDDES.cpp</text>
</a>
</g>
</g>
<!-- Node10&#45;&gt;Node34 -->
<g id="edge38" class="edge">
<title>Node10&#45;&gt;Node34</title>
<path fill="none" stroke="midnightblue" d="M1181.24,-173.89C1089.44,-167.32 871.72,-151.03 689.5,-132 686.62,-131.7 683.67,-131.38 680.7,-131.05"/>
<polygon fill="midnightblue" stroke="midnightblue" points="1181.06,-177.39 1191.28,-174.61 1181.55,-170.41 1181.06,-177.39"/>
</g>
<!-- Node35 -->
<g id="node35" class="node">
<title>Node35</title>
<g id="a_node35"><a xlink:href="_a_b_l_stats_8cpp.html" target="_top" xlink:title=" ">
<polygon fill="white" stroke="black" points="1038.5,-112.5 1038.5,-131.5 1118.5,-131.5 1118.5,-112.5 1038.5,-112.5"/>
<text text-anchor="middle" x="1078.5" y="-119.5" font-family="Helvetica,sans-Serif" font-size="10.00">ABLStats.cpp</text>
</a>
</g>
</g>
<!-- Node10&#45;&gt;Node35 -->
<g id="edge39" class="edge">
<title>Node10&#45;&gt;Node35</title>
<path fill="none" stroke="midnightblue" d="M1192.58,-164.91C1164.94,-154.75 1126.16,-140.51 1101.68,-131.52"/>
<polygon fill="midnightblue" stroke="midnightblue" points="1191.61,-168.28 1202.21,-168.44 1194.03,-161.71 1191.61,-168.28"/>
</g>
<!-- Node12&#45;&gt;Node11 -->
<g id="edge15" class="edge">
<title>Node12&#45;&gt;Node11</title>
<path fill="none" stroke="midnightblue" d="M1170.09,-110.54C1116.03,-100.33 1034.83,-85 984.61,-75.52"/>
<polygon fill="midnightblue" stroke="midnightblue" points="1169.71,-114.03 1180.18,-112.44 1171.01,-107.15 1169.71,-114.03"/>
</g>
<!-- Node13 -->
<g id="node13" class="node">
<title>Node13</title>
<g id="a_node13"><a xlink:href="box__ops_8_h.html" target="_top" xlink:title=" ">
<polygon fill="white" stroke="black" points="1114.5,-56.5 1114.5,-75.5 1182.5,-75.5 1182.5,-56.5 1114.5,-56.5"/>
<text text-anchor="middle" x="1148.5" y="-63.5" font-family="Helvetica,sans-Serif" font-size="10.00">box_ops.H</text>
</a>
</g>
</g>
<!-- Node12&#45;&gt;Node13 -->
<g id="edge16" class="edge">
<title>Node12&#45;&gt;Node13</title>
<path fill="none" stroke="midnightblue" d="M1204.6,-106.34C1190.59,-96.52 1172.62,-83.91 1160.84,-75.65"/>
<polygon fill="midnightblue" stroke="midnightblue" points="1202.93,-109.45 1213.13,-112.32 1206.95,-103.72 1202.93,-109.45"/>
</g>
<!-- Node15 -->
<g id="node15" class="node">
<title>Node15</title>
<g id="a_node15"><a xlink:href="cylinder__ops_8_h.html" target="_top" xlink:title=" ">
<polygon fill="white" stroke="black" points="1201,-56.5 1201,-75.5 1290,-75.5 1290,-56.5 1201,-56.5"/>
<text text-anchor="middle" x="1245.5" y="-63.5" font-family="Helvetica,sans-Serif" font-size="10.00">cylinder_ops.H</text>
</a>
</g>
</g>
<!-- Node12&#45;&gt;Node15 -->
<g id="edge18" class="edge">
<title>Node12&#45;&gt;Node15</title>
<path fill="none" stroke="midnightblue" d="M1232.28,-102.69C1235.65,-93.59 1239.57,-83.01 1242.26,-75.75"/>
<polygon fill="midnightblue" stroke="midnightblue" points="1228.99,-101.49 1228.8,-112.08 1235.56,-103.92 1228.99,-101.49"/>
</g>
<!-- Node17 -->
<g id="node17" class="node">
<title>Node17</title>
<g id="a_node17"><a xlink:href="sphere__ops_8_h.html" target="_top" xlink:title=" ">
<polygon fill="white" stroke="black" points="1013,-56.5 1013,-75.5 1096,-75.5 1096,-56.5 1013,-56.5"/>
<text text-anchor="middle" x="1054.5" y="-63.5" font-family="Helvetica,sans-Serif" font-size="10.00">sphere_ops.H</text>
</a>
</g>
</g>
<!-- Node12&#45;&gt;Node17 -->
<g id="edge20" class="edge">
<title>Node12&#45;&gt;Node17</title>
<path fill="none" stroke="midnightblue" d="M1188.46,-109.3C1156.24,-99.13 1110.31,-84.62 1081.47,-75.52"/>
<polygon fill="midnightblue" stroke="midnightblue" points="1187.81,-112.77 1198.4,-112.44 1189.92,-106.09 1187.81,-112.77"/>
</g>
<!-- Node14 -->
<g id="node14" class="node">
<title>Node14</title>
<g id="a_node14"><a xlink:href="_box_8cpp.html" target="_top" xlink:title=" ">
<polygon fill="white" stroke="black" points="1120.5,-0.5 1120.5,-19.5 1176.5,-19.5 1176.5,-0.5 1120.5,-0.5"/>
<text text-anchor="middle" x="1148.5" y="-7.5" font-family="Helvetica,sans-Serif" font-size="10.00">Box.cpp</text>
</a>
</g>
</g>
<!-- Node13&#45;&gt;Node14 -->
<g id="edge17" class="edge">
<title>Node13&#45;&gt;Node14</title>
<path fill="none" stroke="midnightblue" d="M1148.5,-45.8C1148.5,-36.91 1148.5,-26.78 1148.5,-19.75"/>
<polygon fill="midnightblue" stroke="midnightblue" points="1145,-46.08 1148.5,-56.08 1152,-46.08 1145,-46.08"/>
</g>
<!-- Node16 -->
<g id="node16" class="node">
<title>Node16</title>
<g id="a_node16"><a xlink:href="_cylinder_8cpp.html" target="_top" xlink:title=" ">
<polygon fill="white" stroke="black" points="1207,-0.5 1207,-19.5 1284,-19.5 1284,-0.5 1207,-0.5"/>
<text text-anchor="middle" x="1245.5" y="-7.5" font-family="Helvetica,sans-Serif" font-size="10.00">Cylinder.cpp</text>
</a>
</g>
</g>
<!-- Node15&#45;&gt;Node16 -->
<g id="edge19" class="edge">
<title>Node15&#45;&gt;Node16</title>
<path fill="none" stroke="midnightblue" d="M1245.5,-45.8C1245.5,-36.91 1245.5,-26.78 1245.5,-19.75"/>
<polygon fill="midnightblue" stroke="midnightblue" points="1242,-46.08 1245.5,-56.08 1249,-46.08 1242,-46.08"/>
</g>
<!-- Node18 -->
<g id="node18" class="node">
<title>Node18</title>
<g id="a_node18"><a xlink:href="_sphere_8cpp.html" target="_top" xlink:title=" ">
<polygon fill="white" stroke="black" points="1019,-0.5 1019,-19.5 1090,-19.5 1090,-0.5 1019,-0.5"/>
<text text-anchor="middle" x="1054.5" y="-7.5" font-family="Helvetica,sans-Serif" font-size="10.00">Sphere.cpp</text>
</a>
</g>
</g>
<!-- Node17&#45;&gt;Node18 -->
<g id="edge21" class="edge">
<title>Node17&#45;&gt;Node18</title>
<path fill="none" stroke="midnightblue" d="M1054.5,-45.8C1054.5,-36.91 1054.5,-26.78 1054.5,-19.75"/>
<polygon fill="midnightblue" stroke="midnightblue" points="1051,-46.08 1054.5,-56.08 1058,-46.08 1051,-46.08"/>
</g>
<!-- Node20&#45;&gt;Node19 -->
<g id="edge28" class="edge">
<title>Node20&#45;&gt;Node19</title>
<path fill="none" stroke="midnightblue" d="M1392.72,-102.69C1389.35,-93.59 1385.43,-83.01 1382.74,-75.75"/>
<polygon fill="midnightblue" stroke="midnightblue" points="1389.44,-103.92 1396.2,-112.08 1396.01,-101.49 1389.44,-103.92"/>
</g>
<!-- Node21 -->
<g id="node21" class="node">
<title>Node21</title>
<g id="a_node21"><a xlink:href="hos__waves__ops_8_h.html" target="_top" xlink:title=" ">
<polygon fill="white" stroke="black" points="1605.5,-56.5 1605.5,-75.5 1709.5,-75.5 1709.5,-56.5 1605.5,-56.5"/>
<text text-anchor="middle" x="1657.5" y="-63.5" font-family="Helvetica,sans-Serif" font-size="10.00">hos_waves_ops.H</text>
</a>
</g>
</g>
<!-- Node20&#45;&gt;Node21 -->
<g id="edge24" class="edge">
<title>Node20&#45;&gt;Node21</title>
<path fill="none" stroke="midnightblue" d="M1450.4,-110.35C1499.16,-100.14 1571.79,-84.94 1616.81,-75.52"/>
<polygon fill="midnightblue" stroke="midnightblue" points="1449.45,-106.97 1440.38,-112.44 1450.89,-113.82 1449.45,-106.97"/>
</g>
<!-- Node23 -->
<g id="node23" class="node">
<title>Node23</title>
<g id="a_node23"><a xlink:href="linear__waves__ops_8_h.html" target="_top" xlink:title=" ">
<polygon fill="white" stroke="black" points="1727.5,-56.5 1727.5,-75.5 1841.5,-75.5 1841.5,-56.5 1727.5,-56.5"/>
<text text-anchor="middle" x="1784.5" y="-63.5" font-family="Helvetica,sans-Serif" font-size="10.00">linear_waves_ops.H</text>
</a>
</g>
</g>
<!-- Node20&#45;&gt;Node23 -->
<g id="edge26" class="edge">
<title>Node20&#45;&gt;Node23</title>
<path fill="none" stroke="midnightblue" d="M1470.66,-111.02C1544.61,-100.65 1658.9,-84.62 1727.24,-75.03"/>
<polygon fill="midnightblue" stroke="midnightblue" points="1469.92,-107.59 1460.5,-112.44 1470.89,-114.52 1469.92,-107.59"/>
</g>
<!-- Node25 -->
<g id="node25" class="node">
<title>Node25</title>
<g id="a_node25"><a xlink:href="stokes__waves__ops_8_h.html" target="_top" xlink:title=" ">
<polygon fill="white" stroke="black" points="1469.5,-56.5 1469.5,-75.5 1587.5,-75.5 1587.5,-56.5 1469.5,-56.5"/>
<text text-anchor="middle" x="1528.5" y="-63.5" font-family="Helvetica,sans-Serif" font-size="10.00">stokes_waves_ops.H</text>
</a>
</g>
</g>
<!-- Node20&#45;&gt;Node25 -->
<g id="edge29" class="edge">
<title>Node20&#45;&gt;Node25</title>
<path fill="none" stroke="midnightblue" d="M1429.35,-108.5C1453.54,-98.38 1486.96,-84.39 1508.16,-75.52"/>
<polygon fill="midnightblue" stroke="midnightblue" points="1427.81,-105.35 1419.94,-112.44 1430.52,-111.81 1427.81,-105.35"/>
</g>
<!-- Node22 -->
<g id="node22" class="node">
<title>Node22</title>
<g id="a_node22"><a xlink:href="_h_o_s_waves_8cpp.html" target="_top" xlink:title=" ">
<polygon fill="white" stroke="black" points="1612.5,-0.5 1612.5,-19.5 1702.5,-19.5 1702.5,-0.5 1612.5,-0.5"/>
<text text-anchor="middle" x="1657.5" y="-7.5" font-family="Helvetica,sans-Serif" font-size="10.00">HOSWaves.cpp</text>
</a>
</g>
</g>
<!-- Node21&#45;&gt;Node22 -->
<g id="edge25" class="edge">
<title>Node21&#45;&gt;Node22</title>
<path fill="none" stroke="midnightblue" d="M1657.5,-45.8C1657.5,-36.91 1657.5,-26.78 1657.5,-19.75"/>
<polygon fill="midnightblue" stroke="midnightblue" points="1654,-46.08 1657.5,-56.08 1661,-46.08 1654,-46.08"/>
</g>
<!-- Node24 -->
<g id="node24" class="node">
<title>Node24</title>
<g id="a_node24"><a xlink:href="_linear_waves_8cpp.html" target="_top" xlink:title=" ">
<polygon fill="white" stroke="black" points="1735,-0.5 1735,-19.5 1834,-19.5 1834,-0.5 1735,-0.5"/>
<text text-anchor="middle" x="1784.5" y="-7.5" font-family="Helvetica,sans-Serif" font-size="10.00">LinearWaves.cpp</text>
</a>
</g>
</g>
<!-- Node23&#45;&gt;Node24 -->
<g id="edge27" class="edge">
<title>Node23&#45;&gt;Node24</title>
<path fill="none" stroke="midnightblue" d="M1784.5,-45.8C1784.5,-36.91 1784.5,-26.78 1784.5,-19.75"/>
<polygon fill="midnightblue" stroke="midnightblue" points="1781,-46.08 1784.5,-56.08 1788,-46.08 1781,-46.08"/>
</g>
<!-- Node26 -->
<g id="node26" class="node">
<title>Node26</title>
<g id="a_node26"><a xlink:href="_stokes_waves_8cpp.html" target="_top" xlink:title=" ">
<polygon fill="white" stroke="black" points="1478,-0.5 1478,-19.5 1579,-19.5 1579,-0.5 1478,-0.5"/>
<text text-anchor="middle" x="1528.5" y="-7.5" font-family="Helvetica,sans-Serif" font-size="10.00">StokesWaves.cpp</text>
</a>
</g>
</g>
<!-- Node25&#45;&gt;Node26 -->
<g id="edge30" class="edge">
<title>Node25&#45;&gt;Node26</title>
<path fill="none" stroke="midnightblue" d="M1528.5,-45.8C1528.5,-36.91 1528.5,-26.78 1528.5,-19.75"/>
<polygon fill="midnightblue" stroke="midnightblue" points="1525,-46.08 1528.5,-56.08 1532,-46.08 1525,-46.08"/>
</g>
<!-- Node36&#45;&gt;Node4 -->
<g id="edge41" class="edge">
<title>Node36&#45;&gt;Node4</title>
<path fill="none" stroke="midnightblue" d="M478.21,-163.18C461.46,-153.24 439.4,-140.15 425.08,-131.65"/>
<polygon fill="midnightblue" stroke="midnightblue" points="476.49,-166.23 486.88,-168.32 480.07,-160.21 476.49,-166.23"/>
</g>
<!-- Node37&#45;&gt;Node7 -->
<g id="edge43" class="edge">
<title>Node37&#45;&gt;Node7</title>
<path fill="none" stroke="midnightblue" d="M73.09,-163.45C91.18,-153.48 115.23,-140.23 130.79,-131.65"/>
<polygon fill="midnightblue" stroke="midnightblue" points="71.31,-160.43 64.25,-168.32 74.69,-166.56 71.31,-160.43"/>
</g>
<!-- Node38&#45;&gt;Node4 -->
<g id="edge45" class="edge">
<title>Node38&#45;&gt;Node4</title>
<path fill="none" stroke="midnightblue" d="M342.05,-163.18C358.98,-153.24 381.28,-140.15 395.76,-131.65"/>
<polygon fill="midnightblue" stroke="midnightblue" points="340.13,-160.24 333.28,-168.32 343.68,-166.28 340.13,-160.24"/>
</g>
<!-- Node39&#45;&gt;Node4 -->
<g id="edge47" class="edge">
<title>Node39&#45;&gt;Node4</title>
<path fill="none" stroke="midnightblue" d="M743.09,-168.06C609.01,-147.84 572.08,-157.11 443.5,-132 440.47,-131.41 437.31,-130.69 434.19,-129.91"/>
<polygon fill="midnightblue" stroke="midnightblue" points="742.93,-171.58 753.34,-169.64 743.99,-164.66 742.93,-171.58"/>
</g>
<!-- Node39&#45;&gt;Node7 -->
<g id="edge48" class="edge">
<title>Node39&#45;&gt;Node7</title>
<path fill="none" stroke="midnightblue" d="M743.08,-168.15C498.28,-137.58 432.54,-163.19 192.5,-132 189.59,-131.62 186.6,-131.17 183.59,-130.68"/>
<polygon fill="midnightblue" stroke="midnightblue" points="743.01,-171.66 753.37,-169.45 743.89,-164.72 743.01,-171.66"/>
</g>
<!-- Node39&#45;&gt;Node32 -->
<g id="edge49" class="edge">
<title>Node39&#45;&gt;Node32</title>
<path fill="none" stroke="midnightblue" d="M829.45,-165.57C864.16,-155.38 914.18,-140.7 945.48,-131.52"/>
<polygon fill="midnightblue" stroke="midnightblue" points="828.27,-162.27 819.66,-168.44 830.24,-168.99 828.27,-162.27"/>
</g>
<!-- Node39&#45;&gt;Node33 -->
<g id="edge51" class="edge">
<title>Node39&#45;&gt;Node33</title>
<path fill="none" stroke="midnightblue" d="M810.37,-162.1C823.32,-152.38 839.8,-140.03 850.72,-131.83"/>
<polygon fill="midnightblue" stroke="midnightblue" points="807.97,-159.52 802.07,-168.32 812.17,-165.12 807.97,-159.52"/>
</g>
<!-- Node39&#45;&gt;Node34 -->
<g id="edge52" class="edge">
<title>Node39&#45;&gt;Node34</title>
<path fill="none" stroke="midnightblue" d="M753.45,-165.44C720.84,-155.26 674.09,-140.66 644.78,-131.52"/>
<polygon fill="midnightblue" stroke="midnightblue" points="752.5,-168.8 763.09,-168.44 754.58,-162.12 752.5,-168.8"/>
</g>
<!-- Node40 -->
<g id="node40" class="node">
<title>Node40</title>
<g id="a_node40"><a xlink:href="_smagorinsky_8cpp.html" target="_top" xlink:title=" ">
<polygon fill="white" stroke="black" points="698.5,-112.5 698.5,-131.5 796.5,-131.5 796.5,-112.5 698.5,-112.5"/>
<text text-anchor="middle" x="747.5" y="-119.5" font-family="Helvetica,sans-Serif" font-size="10.00">Smagorinsky.cpp</text>
</a>
</g>
</g>
<!-- Node39&#45;&gt;Node40 -->
<g id="edge50" class="edge">
<title>Node39&#45;&gt;Node40</title>
<path fill="none" stroke="midnightblue" d="M777.08,-160.14C769.59,-150.74 760.56,-139.4 754.47,-131.75"/>
<polygon fill="midnightblue" stroke="midnightblue" points="774.43,-162.44 783.4,-168.08 779.91,-158.08 774.43,-162.44"/>
</g>
<!-- Node41&#45;&gt;Node4 -->
<g id="edge54" class="edge">
<title>Node41&#45;&gt;Node4</title>
<path fill="none" stroke="midnightblue" d="M550.35,-165.43C515.04,-154.72 463.68,-139.13 434.03,-130.14"/>
<polygon fill="midnightblue" stroke="midnightblue" points="549.71,-168.89 560.3,-168.44 551.74,-162.19 549.71,-168.89"/>
</g>
<!-- Node41&#45;&gt;Node34 -->
<g id="edge55" class="edge">
<title>Node41&#45;&gt;Node34</title>
<path fill="none" stroke="midnightblue" d="M598.18,-158.98C603.1,-149.82 608.86,-139.09 612.8,-131.75"/>
<polygon fill="midnightblue" stroke="midnightblue" points="594.94,-157.62 593.29,-168.08 601.1,-160.93 594.94,-157.62"/>
</g>
<!-- Node42&#45;&gt;Node4 -->
<g id="edge57" class="edge">
<title>Node42&#45;&gt;Node4</title>
<path fill="none" stroke="midnightblue" d="M629.66,-167.74C580.04,-159.46 506.76,-146.43 443.5,-132 440.49,-131.31 437.34,-130.53 434.23,-129.73"/>
<polygon fill="midnightblue" stroke="midnightblue" points="629.13,-171.2 639.57,-169.38 630.28,-164.29 629.13,-171.2"/>
</g>
<!-- Node42&#45;&gt;Node34 -->
<g id="edge58" class="edge">
<title>Node42&#45;&gt;Node34</title>
<path fill="none" stroke="midnightblue" d="M668.19,-162.1C655.59,-152.38 639.57,-140.03 628.95,-131.83"/>
<polygon fill="midnightblue" stroke="midnightblue" points="666.2,-164.99 676.25,-168.32 670.47,-159.44 666.2,-164.99"/>
</g>
<!-- Node43 -->
<g id="node43" class="node">
<title>Node43</title>
<g id="a_node43"><a xlink:href="_enstrophy_8cpp.html" target="_top" xlink:title=" ">
<polygon fill="white" stroke="black" points="452.5,-112.5 452.5,-131.5 536.5,-131.5 536.5,-112.5 452.5,-112.5"/>
<text text-anchor="middle" x="494.5" y="-119.5" font-family="Helvetica,sans-Serif" font-size="10.00">Enstrophy.cpp</text>
</a>
</g>
</g>
<!-- Node42&#45;&gt;Node43 -->
<g id="edge59" class="edge">
<title>Node42&#45;&gt;Node43</title>
<path fill="none" stroke="midnightblue" d="M647.11,-165.7C610.68,-155.51 557.91,-140.74 524.94,-131.52"/>
<polygon fill="midnightblue" stroke="midnightblue" points="646.35,-169.12 656.92,-168.44 648.23,-162.38 646.35,-169.12"/>
</g>
<!-- Node45 -->
<g id="node45" class="node">
<title>Node45</title>
<g id="a_node45"><a xlink:href="_a_m_d_8cpp.html" target="_top" xlink:title=" ">
<polygon fill="white" stroke="black" points="1707.5,-168.5 1707.5,-187.5 1767.5,-187.5 1767.5,-168.5 1707.5,-168.5"/>
<text text-anchor="middle" x="1737.5" y="-175.5" font-family="Helvetica,sans-Serif" font-size="10.00">AMD.cpp</text>
</a>
</g>
</g>
<!-- Node44&#45;&gt;Node45 -->
<g id="edge61" class="edge">
<title>Node44&#45;&gt;Node45</title>
<path fill="none" stroke="midnightblue" d="M1737.5,-213.8C1737.5,-204.91 1737.5,-194.78 1737.5,-187.75"/>
<polygon fill="midnightblue" stroke="midnightblue" points="1734,-214.08 1737.5,-224.08 1741,-214.08 1734,-214.08"/>
</g>
<!-- Node46&#45;&gt;Node31 -->
<g id="edge63" class="edge">
<title>Node46&#45;&gt;Node31</title>
<path fill="none" stroke="midnightblue" d="M1655.41,-215.52C1664.18,-200.27 1679.07,-178.91 1698.5,-168 1808.28,-106.34 1854.77,-149.19 1979.5,-132 1982.26,-131.62 1985.08,-131.22 1987.94,-130.82"/>
<polygon fill="midnightblue" stroke="midnightblue" points="1652.23,-214.03 1650.54,-224.49 1658.39,-217.37 1652.23,-214.03"/>
</g>
</g>
</svg>
        <g id="navigator" transform="translate(0 0)" fill="#404254">
                <rect fill="#f2f5e9" fill-opacity="0.5" stroke="#606060" stroke-width=".5" x="0" y="0" width="60" height="60"/>
                <use id="zoomplus" xlink:href="#zoomPlus" x="17" y="9" onmousedown="handleZoom(evt,'in')"/>
                <use id="zoomminus" xlink:href="#zoomMin" x="42" y="9" onmousedown="handleZoom(evt,'out')"/>
                <use id="reset" xlink:href="#resetDef" x="30" y="36" onmousedown="handleReset()"/>
                <g id="arrowUp" xlink:href="#dirArrow" transform="translate(30 24)" onmousedown="handlePan(0,-1)">
                  <use xlink:href="#rim" fill="#404040">
                        <set attributeName="fill" to="#808080" begin="arrowUp.mouseover" end="arrowUp.mouseout"/>
                  </use>
                  <path fill="none" stroke="white" stroke-width="1.5" d="M0,-3.0v7 M-2.5,-0.5L0,-3.0L2.5,-0.5"/>
                </g>
                <g id="arrowRight" xlink:href="#dirArrow" transform="rotate(90) translate(36 -43)" onmousedown="handlePan(1,0)">
                  <use xlink:href="#rim" fill="#404040">
                        <set attributeName="fill" to="#808080" begin="arrowRight.mouseover" end="arrowRight.mouseout"/>
                  </use>
                  <path fill="none" stroke="white" stroke-width="1.5" d="M0,-3.0v7 M-2.5,-0.5L0,-3.0L2.5,-0.5"/>
                </g>
                <g id="arrowDown" xlink:href="#dirArrow" transform="rotate(180) translate(-30 -48)" onmousedown="handlePan(0,1)">
                  <use xlink:href="#rim" fill="#404040">
                        <set attributeName="fill" to="#808080" begin="arrowDown.mouseover" end="arrowDown.mouseout"/>
                  </use>
                  <path fill="none" stroke="white" stroke-width="1.5" d="M0,-3.0v7 M-2.5,-0.5L0,-3.0L2.5,-0.5"/>
                </g>
                <g id="arrowLeft" xlink:href="#dirArrow" transform="rotate(270) translate(-36 17)" onmousedown="handlePan(-1,0)">
                  <use xlink:href="#rim" fill="#404040">
                        <set attributeName="fill" to="#808080" begin="arrowLeft.mouseover" end="arrowLeft.mouseout"/>
                  </use>
                  <path fill="none" stroke="white" stroke-width="1.5" d="M0,-3.0v7 M-2.5,-0.5L0,-3.0L2.5,-0.5"/>
                </g>
        </g>
        <svg viewBox="0 0 15 15" width="100%" height="30px" preserveAspectRatio="xMaxYMin meet">
         <g id="arrow_out" transform="scale(0.3 0.3)">
          <a xlink:href="stencils_8_h__dep__incl_org.svg" target="_base">
           <rect id="button" ry="5" rx="5" y="6" x="6" height="38" width="38"
                fill="#f2f5e9" fill-opacity="0.5" stroke="#606060" stroke-width="1.0"/>
           <path id="arrow"
             d="M 11.500037,31.436501 C 11.940474,20.09759 22.043105,11.32322 32.158766,21.979434 L 37.068811,17.246167 C 37.068811,17.246167 37.088388,32 37.088388,32 L 22.160133,31.978069 C 22.160133,31.978069 26.997745,27.140456 26.997745,27.140456 C 18.528582,18.264221 13.291696,25.230495 11.500037,31.436501 z"
             style="fill:#404040;"/>
          </a>
         </g>
        </svg>
</svg>
