<?xml version="1.0" encoding="UTF-8" standalone="no"?>
<!DOCTYPE svg PUBLIC "-//W3C//DTD SVG 1.1//EN"
 "http://www.w3.org/Graphics/SVG/1.1/DTD/svg11.dtd">
<!-- Generated by graphviz version 2.43.0 (0)
 -->
<!-- Title: amr_wind::pde::AdvectionOp&lt; PDE, fvm::MOL, typename std::enable_if&lt; std::is_base_of&lt; ScalarTransport, PDE &gt;::value &gt;::type &gt; Pages: 1 -->
<!--zoomable 675 -->
<svg id="main" version="1.1" xmlns="http://www.w3.org/2000/svg" xmlns:xlink="http://www.w3.org/1999/xlink" xml:space="preserve" onload="init(evt)">
<style type="text/css"><![CDATA[
.edge:hover path { stroke: red; }
.edge:hover polygon { stroke: red; fill: red; }
]]></style>
<script type="text/javascript"><![CDATA[
var edges = document.getElementsByTagName('g');
if (edges && edges.length) {
  for (var i=0;i<edges.length;i++) {
    if (edges[i].id.substr(0,4)=='edge') {
      edges[i].setAttribute('class','edge');
    }
  }
}
]]></script>
        <defs>
                <circle id="rim" cx="0" cy="0" r="7"/>
                <circle id="rim2" cx="0" cy="0" r="3.5"/>
                <g id="zoomPlus">
                        <use xlink:href="#rim" fill="#404040">
                                <set attributeName="fill" to="#808080" begin="zoomplus.mouseover" end="zoomplus.mouseout"/>
                        </use>
                        <path d="M-4,0h8M0,-4v8" fill="none" stroke="white" stroke-width="1.5" pointer-events="none"/>
                </g>
                <g id="zoomMin">
                        <use xlink:href="#rim" fill="#404040">
                                <set attributeName="fill" to="#808080" begin="zoomminus.mouseover" end="zoomminus.mouseout"/>
                        </use>
                        <path d="M-4,0h8" fill="none" stroke="white" stroke-width="1.5" pointer-events="none"/>
                </g>
                <g id="dirArrow">
                        <path fill="none" stroke="white" stroke-width="1.5" d="M0,-3.0v7 M-2.5,-0.5L0,-3.0L2.5,-0.5"/>
                </g>
               <g id="resetDef">
                       <use xlink:href="#rim2" fill="#404040">
                               <set attributeName="fill" to="#808080" begin="reset.mouseover" end="reset.mouseout"/>
                       </use>
               </g>
        </defs>

<script type="text/javascript">
var viewWidth = 682;
var viewHeight = 675;
var sectionId = 'dynsection-0';
</script>
<script xlink:href="svgpan.js"/>
<svg id="graph" class="graph">
<g id="viewport">
<title>amr_wind::pde::AdvectionOp&lt; PDE, fvm::MOL, typename std::enable_if&lt; std::is_base_of&lt; ScalarTransport, PDE &gt;::value &gt;::type &gt;</title>
<polygon fill="white" stroke="transparent" points="-4,4 -4,-671 678,-671 678,4 -4,4"/>
<!-- Node1 -->
<g id="node1" class="node">
<title>Node1</title>
<g id="a_node1"><a xlink:title="MOL advection operator for scalar transport equations.">
<polygon fill="#bfbfbf" stroke="black" points="103,-0.5 103,-63.5 273,-63.5 273,-0.5 103,-0.5"/>
<text text-anchor="start" x="111" y="-51.5" font-family="Helvetica,sans-Serif" font-size="10.00">amr_wind::pde::Advection</text>
<text text-anchor="start" x="111" y="-40.5" font-family="Helvetica,sans-Serif" font-size="10.00">Op&lt; PDE, fvm::MOL, typename</text>
<text text-anchor="start" x="111" y="-29.5" font-family="Helvetica,sans-Serif" font-size="10.00"> std::enable_if&lt; std::is_base</text>
<text text-anchor="start" x="111" y="-18.5" font-family="Helvetica,sans-Serif" font-size="10.00">_of&lt; ScalarTransport, PDE &gt;::</text>
<text text-anchor="middle" x="188" y="-7.5" font-family="Helvetica,sans-Serif" font-size="10.00">value &gt;::type &gt;</text>
</a>
</g>
</g>
<!-- Node2 -->
<g id="node2" class="node">
<title>Node2</title>
<g id="a_node2"><a xlink:href="classamr__wind_1_1_field.html" target="_top" xlink:title="Computational field.">
<polygon fill="white" stroke="black" points="180,-246.5 180,-265.5 274,-265.5 274,-246.5 180,-246.5"/>
<text text-anchor="middle" x="227" y="-253.5" font-family="Helvetica,sans-Serif" font-size="10.00">amr_wind::Field</text>
</a>
</g>
</g>
<!-- Node2&#45;&gt;Node1 -->
<g id="edge1" class="edge">
<title>Node2&#45;&gt;Node1</title>
<path fill="none" stroke="#9a32cd" stroke-dasharray="5,2" d="M228.53,-236.29C229.59,-219.63 230.41,-194.61 228,-173 223.69,-134.31 210.09,-91.51 199.94,-63.54"/>
<polygon fill="#9a32cd" stroke="#9a32cd" points="225.04,-236.12 227.8,-246.35 232.02,-236.63 225.04,-236.12"/>
<text text-anchor="middle" x="246" y="-147" font-family="Helvetica,sans-Serif" font-size="10.00"> density</text>
<text text-anchor="middle" x="246" y="-136" font-family="Helvetica,sans-Serif" font-size="10.00">u_mac</text>
<text text-anchor="middle" x="246" y="-125" font-family="Helvetica,sans-Serif" font-size="10.00">v_mac</text>
<text text-anchor="middle" x="246" y="-114" font-family="Helvetica,sans-Serif" font-size="10.00">w_mac</text>
</g>
<!-- Node16 -->
<g id="node16" class="node">
<title>Node16</title>
<g id="a_node16"><a xlink:href="structamr__wind_1_1pde_1_1_p_d_e_fields.html" target="_top" xlink:title="Collection of fields related to a PDE.">
<polygon fill="white" stroke="black" points="62.5,-123.5 62.5,-142.5 205.5,-142.5 205.5,-123.5 62.5,-123.5"/>
<text text-anchor="middle" x="134" y="-130.5" font-family="Helvetica,sans-Serif" font-size="10.00">amr_wind::pde::PDEFields</text>
</a>
</g>
</g>
<!-- Node2&#45;&gt;Node16 -->
<g id="edge20" class="edge">
<title>Node2&#45;&gt;Node16</title>
<path fill="none" stroke="#9a32cd" stroke-dasharray="5,2" d="M194.25,-241.81C187.62,-238.07 181.13,-233.48 176,-228 163.61,-214.75 144.46,-163.41 137.06,-142.72"/>
<polygon fill="#9a32cd" stroke="#9a32cd" points="192.75,-244.98 203.24,-246.4 195.93,-238.74 192.75,-244.98"/>
<text text-anchor="middle" x="202" y="-220" font-family="Helvetica,sans-Serif" font-size="10.00"> src_term</text>
<text text-anchor="middle" x="202" y="-209" font-family="Helvetica,sans-Serif" font-size="10.00">field</text>
<text text-anchor="middle" x="202" y="-198" font-family="Helvetica,sans-Serif" font-size="10.00">diff_term</text>
<text text-anchor="middle" x="202" y="-187" font-family="Helvetica,sans-Serif" font-size="10.00">mueff</text>
<text text-anchor="middle" x="202" y="-176" font-family="Helvetica,sans-Serif" font-size="10.00">conv_term</text>
</g>
<!-- Node3 -->
<g id="node3" class="node">
<title>Node3</title>
<g id="a_node3"><a xlink:title=" ">
<polygon fill="white" stroke="#bfbfbf" points="293,-313.5 293,-343.5 413,-343.5 413,-313.5 293,-313.5"/>
<text text-anchor="start" x="301" y="-331.5" font-family="Helvetica,sans-Serif" font-size="10.00">std::shared_ptr&lt; amr</text>
<text text-anchor="middle" x="353" y="-320.5" font-family="Helvetica,sans-Serif" font-size="10.00">_wind::FieldInfo &gt;</text>
</a>
</g>
</g>
<!-- Node3&#45;&gt;Node2 -->
<g id="edge2" class="edge">
<title>Node3&#45;&gt;Node2</title>
<path fill="none" stroke="#9a32cd" stroke-dasharray="5,2" d="M318.98,-308.47C293.97,-294.47 261.17,-276.12 242.25,-265.53"/>
<polygon fill="#9a32cd" stroke="#9a32cd" points="317.37,-311.57 327.8,-313.4 320.79,-305.47 317.37,-311.57"/>
<text text-anchor="middle" x="311.5" y="-287" font-family="Helvetica,sans-Serif" font-size="10.00"> m_info</text>
</g>
<!-- Node4 -->
<g id="node4" class="node">
<title>Node4</title>
<g id="a_node4"><a xlink:href="structamr__wind_1_1_field_info.html" target="_top" xlink:title="Information common to a field that has multiple states.">
<polygon fill="white" stroke="black" points="381.5,-408 381.5,-427 494.5,-427 494.5,-408 381.5,-408"/>
<text text-anchor="middle" x="438" y="-415" font-family="Helvetica,sans-Serif" font-size="10.00">amr_wind::FieldInfo</text>
</a>
</g>
</g>
<!-- Node4&#45;&gt;Node3 -->
<g id="edge3" class="edge">
<title>Node4&#45;&gt;Node3</title>
<path fill="none" stroke="#9a32cd" stroke-dasharray="5,2" d="M422.49,-400.62C406.55,-384.31 381.98,-359.16 366.72,-343.55"/>
<polygon fill="#9a32cd" stroke="#9a32cd" points="420.05,-403.13 429.54,-407.84 425.05,-398.24 420.05,-403.13"/>
<text text-anchor="middle" x="413.5" y="-370.5" font-family="Helvetica,sans-Serif" font-size="10.00"> ptr</text>
</g>
<!-- Node5 -->
<g id="node5" class="node">
<title>Node5</title>
<g id="a_node5"><a xlink:title=" ">
<polygon fill="white" stroke="#bfbfbf" points="413.5,-480.5 413.5,-510.5 582.5,-510.5 582.5,-480.5 413.5,-480.5"/>
<text text-anchor="start" x="421.5" y="-498.5" font-family="Helvetica,sans-Serif" font-size="10.00">std::unique_ptr&lt; amr</text>
<text text-anchor="middle" x="498" y="-487.5" font-family="Helvetica,sans-Serif" font-size="10.00">_wind::FieldFillPatchOpsBase &gt;</text>
</a>
</g>
</g>
<!-- Node5&#45;&gt;Node4 -->
<g id="edge4" class="edge">
<title>Node5&#45;&gt;Node4</title>
<path fill="none" stroke="#9a32cd" stroke-dasharray="5,2" d="M488.18,-470.91C484.82,-464.15 480.71,-456.99 476,-451 468.71,-441.71 458.44,-433.12 450.41,-427.11"/>
<polygon fill="#9a32cd" stroke="#9a32cd" points="485.17,-472.74 492.55,-480.35 491.53,-469.81 485.17,-472.74"/>
<text text-anchor="middle" x="519.5" y="-454" font-family="Helvetica,sans-Serif" font-size="10.00"> m_fillpatch_op</text>
</g>
<!-- Node6 -->
<g id="node6" class="node">
<title>Node6</title>
<g id="a_node6"><a xlink:href="classamr__wind_1_1_field_fill_patch_ops_base.html" target="_top" xlink:title="Abstract interface for classes that handle fill patch and physical boundary condition operations for ...">
<polygon fill="white" stroke="black" points="358,-569.5 358,-599.5 492,-599.5 492,-569.5 358,-569.5"/>
<text text-anchor="start" x="366" y="-587.5" font-family="Helvetica,sans-Serif" font-size="10.00">amr_wind::FieldFillPatch</text>
<text text-anchor="middle" x="425" y="-576.5" font-family="Helvetica,sans-Serif" font-size="10.00">OpsBase</text>
</a>
</g>
</g>
<!-- Node6&#45;&gt;Node5 -->
<g id="edge5" class="edge">
<title>Node6&#45;&gt;Node5</title>
<path fill="none" stroke="#9a32cd" stroke-dasharray="5,2" d="M443.61,-561.32C457,-545.36 474.66,-524.31 486.17,-510.6"/>
<polygon fill="#9a32cd" stroke="#9a32cd" points="440.8,-559.22 437.05,-569.13 446.16,-563.72 440.8,-559.22"/>
<text text-anchor="middle" x="478.5" y="-537.5" font-family="Helvetica,sans-Serif" font-size="10.00"> ptr</text>
</g>
<!-- Node7 -->
<g id="node7" class="node">
<title>Node7</title>
<g id="a_node7"><a xlink:title="STL class.">
<polygon fill="white" stroke="#bfbfbf" points="510,-575 510,-594 628,-594 628,-575 510,-575"/>
<text text-anchor="middle" x="569" y="-582" font-family="Helvetica,sans-Serif" font-size="10.00">std::unique_ptr&lt; T &gt;</text>
</a>
</g>
</g>
<!-- Node7&#45;&gt;Node5 -->
<g id="edge6" class="edge">
<title>Node7&#45;&gt;Node5</title>
<path fill="none" stroke="orange" stroke-dasharray="5,2" d="M555.31,-566.72C541.99,-550.4 521.97,-525.87 509.46,-510.55"/>
<polygon fill="orange" stroke="orange" points="552.9,-569.31 561.93,-574.84 558.32,-564.88 552.9,-569.31"/>
<text text-anchor="start" x="541" y="-543" font-family="Helvetica,sans-Serif" font-size="10.00"> &lt; amr_wind::FieldFillPatch</text>
<text text-anchor="middle" x="607.5" y="-532" font-family="Helvetica,sans-Serif" font-size="10.00">OpsBase &gt;</text>
</g>
<!-- Node8 -->
<g id="node8" class="node">
<title>Node8</title>
<g id="a_node8"><a xlink:title=" ">
<polygon fill="white" stroke="#bfbfbf" points="315.5,-647.5 315.5,-666.5 344.5,-666.5 344.5,-647.5 315.5,-647.5"/>
<text text-anchor="middle" x="330" y="-654.5" font-family="Helvetica,sans-Serif" font-size="10.00">T</text>
</a>
</g>
</g>
<!-- Node8&#45;&gt;Node7 -->
<g id="edge7" class="edge">
<title>Node8&#45;&gt;Node7</title>
<path fill="none" stroke="#9a32cd" stroke-dasharray="5,2" d="M354.24,-648.85C398.55,-635.78 492.43,-608.09 540.03,-594.05"/>
<polygon fill="#9a32cd" stroke="#9a32cd" points="353.19,-645.51 344.59,-651.7 355.17,-652.22 353.19,-645.51"/>
<text text-anchor="middle" x="464.5" y="-621" font-family="Helvetica,sans-Serif" font-size="10.00"> ptr</text>
</g>
<!-- Node11 -->
<g id="node11" class="node">
<title>Node11</title>
<g id="a_node11"><a xlink:title="STL class.">
<polygon fill="white" stroke="#bfbfbf" points="277,-530.5 277,-549.5 395,-549.5 395,-530.5 277,-530.5"/>
<text text-anchor="middle" x="336" y="-537.5" font-family="Helvetica,sans-Serif" font-size="10.00">std::shared_ptr&lt; T &gt;</text>
</a>
</g>
</g>
<!-- Node8&#45;&gt;Node11 -->
<g id="edge11" class="edge">
<title>Node8&#45;&gt;Node11</title>
<path fill="none" stroke="#9a32cd" stroke-dasharray="5,2" d="M330.98,-637.25C332.29,-612.06 334.57,-568.32 335.54,-549.74"/>
<polygon fill="#9a32cd" stroke="#9a32cd" points="327.48,-637.19 330.45,-647.36 334.47,-637.55 327.48,-637.19"/>
<text text-anchor="middle" x="339.5" y="-621" font-family="Helvetica,sans-Serif" font-size="10.00"> ptr</text>
</g>
<!-- Node14 -->
<g id="node14" class="node">
<title>Node14</title>
<g id="a_node14"><a xlink:title="STL class.">
<polygon fill="white" stroke="#bfbfbf" points="0,-480.5 0,-510.5 114,-510.5 114,-480.5 0,-480.5"/>
<text text-anchor="start" x="8" y="-498.5" font-family="Helvetica,sans-Serif" font-size="10.00">std::unordered_map</text>
<text text-anchor="middle" x="57" y="-487.5" font-family="Helvetica,sans-Serif" font-size="10.00">&lt; K, T &gt;</text>
</a>
</g>
</g>
<!-- Node8&#45;&gt;Node14 -->
<g id="edge18" class="edge">
<title>Node8&#45;&gt;Node14</title>
<path fill="none" stroke="#9a32cd" stroke-dasharray="5,2" d="M305.51,-654.43C246.24,-650.08 97.64,-635.76 66,-600 44.01,-575.14 48.98,-532.55 53.52,-510.56"/>
<polygon fill="#9a32cd" stroke="#9a32cd" points="305.26,-657.92 315.48,-655.12 305.75,-650.93 305.26,-657.92"/>
<text text-anchor="middle" x="90.5" y="-582" font-family="Helvetica,sans-Serif" font-size="10.00"> elements</text>
</g>
<!-- Node9 -->
<g id="node9" class="node">
<title>Node9</title>
<g id="a_node9"><a xlink:title="STL class.">
<polygon fill="white" stroke="#bfbfbf" points="194.5,-486 194.5,-505 259.5,-505 259.5,-486 194.5,-486"/>
<text text-anchor="middle" x="227" y="-493" font-family="Helvetica,sans-Serif" font-size="10.00">std::string</text>
</a>
</g>
</g>
<!-- Node9&#45;&gt;Node2 -->
<g id="edge12" class="edge">
<title>Node9&#45;&gt;Node2</title>
<path fill="none" stroke="#9a32cd" stroke-dasharray="5,2" d="M227,-475.75C227,-427.39 227,-299.81 227,-265.56"/>
<polygon fill="#9a32cd" stroke="#9a32cd" points="223.5,-475.77 227,-485.77 230.5,-475.77 223.5,-475.77"/>
<text text-anchor="middle" x="250" y="-370.5" font-family="Helvetica,sans-Serif" font-size="10.00"> m_name</text>
</g>
<!-- Node9&#45;&gt;Node4 -->
<g id="edge8" class="edge">
<title>Node9&#45;&gt;Node4</title>
<path fill="none" stroke="#9a32cd" stroke-dasharray="5,2" d="M236.38,-477.12C242.25,-467.92 250.65,-457.26 261,-451 297.21,-429.07 344.68,-421.25 381.34,-418.75"/>
<polygon fill="#9a32cd" stroke="#9a32cd" points="233.25,-475.53 231.21,-485.93 239.29,-479.07 233.25,-475.53"/>
<text text-anchor="middle" x="296" y="-454" font-family="Helvetica,sans-Serif" font-size="10.00"> m_basename</text>
</g>
<!-- Node13 -->
<g id="node13" class="node">
<title>Node13</title>
<g id="a_node13"><a xlink:title=" ">
<polygon fill="white" stroke="#bfbfbf" points="70,-402.5 70,-432.5 192,-432.5 192,-402.5 70,-402.5"/>
<text text-anchor="start" x="78" y="-420.5" font-family="Helvetica,sans-Serif" font-size="10.00">std::unordered_map</text>
<text text-anchor="middle" x="131" y="-409.5" font-family="Helvetica,sans-Serif" font-size="10.00">&lt; std::string, size_t &gt;</text>
</a>
</g>
</g>
<!-- Node9&#45;&gt;Node13 -->
<g id="edge15" class="edge">
<title>Node9&#45;&gt;Node13</title>
<path fill="none" stroke="#9a32cd" stroke-dasharray="5,2" d="M207.78,-479.28C190.54,-465.64 165.46,-445.78 148.71,-432.52"/>
<polygon fill="#9a32cd" stroke="#9a32cd" points="205.97,-482.32 215.99,-485.78 210.32,-476.83 205.97,-482.32"/>
<text text-anchor="middle" x="198" y="-454" font-family="Helvetica,sans-Serif" font-size="10.00"> keys</text>
</g>
<!-- Node10 -->
<g id="node10" class="node">
<title>Node10</title>
<g id="a_node10"><a xlink:title="STL class.">
<polygon fill="white" stroke="#bfbfbf" points="175,-569.5 175,-599.5 279,-599.5 279,-569.5 175,-569.5"/>
<text text-anchor="start" x="183" y="-587.5" font-family="Helvetica,sans-Serif" font-size="10.00">std::basic_string&lt;</text>
<text text-anchor="middle" x="227" y="-576.5" font-family="Helvetica,sans-Serif" font-size="10.00"> char &gt;</text>
</a>
</g>
</g>
<!-- Node10&#45;&gt;Node9 -->
<g id="edge9" class="edge">
<title>Node10&#45;&gt;Node9</title>
<path fill="none" stroke="midnightblue" d="M227,-559.06C227,-541.13 227,-517.8 227,-505.31"/>
<polygon fill="midnightblue" stroke="midnightblue" points="223.5,-559.13 227,-569.13 230.5,-559.13 223.5,-559.13"/>
</g>
<!-- Node11&#45;&gt;Node3 -->
<g id="edge10" class="edge">
<title>Node11&#45;&gt;Node3</title>
<path fill="none" stroke="orange" stroke-dasharray="5,2" d="M337.53,-520.2C340.88,-478.8 348.86,-380.56 351.84,-343.75"/>
<polygon fill="orange" stroke="orange" points="334.03,-520.01 336.71,-530.26 341.01,-520.58 334.03,-520.01"/>
<text text-anchor="middle" x="404" y="-454" font-family="Helvetica,sans-Serif" font-size="10.00"> &lt; amr_wind::FieldInfo &gt;</text>
</g>
<!-- Node12 -->
<g id="node12" class="node">
<title>Node12</title>
<g id="a_node12"><a xlink:href="classamr__wind_1_1_field_repo.html" target="_top" xlink:title="Field Repository.">
<polygon fill="white" stroke="black" points="74.5,-319 74.5,-338 193.5,-338 193.5,-319 74.5,-319"/>
<text text-anchor="middle" x="134" y="-326" font-family="Helvetica,sans-Serif" font-size="10.00">amr_wind::FieldRepo</text>
</a>
</g>
</g>
<!-- Node12&#45;&gt;Node2 -->
<g id="edge13" class="edge">
<title>Node12&#45;&gt;Node2</title>
<path fill="none" stroke="#9a32cd" stroke-dasharray="5,2" d="M146.35,-310.92C153.46,-302.16 162.96,-291.66 173,-284 182.83,-276.5 195.07,-270.17 205.41,-265.54"/>
<polygon fill="#9a32cd" stroke="#9a32cd" points="143.49,-308.9 140.11,-318.94 149.01,-313.2 143.49,-308.9"/>
<text text-anchor="middle" x="193" y="-287" font-family="Helvetica,sans-Serif" font-size="10.00"> m_repo</text>
</g>
<!-- Node12&#45;&gt;Node16 -->
<g id="edge21" class="edge">
<title>Node12&#45;&gt;Node16</title>
<path fill="none" stroke="#9a32cd" stroke-dasharray="5,2" d="M134,-308.79C134,-268.03 134,-172.51 134,-142.91"/>
<polygon fill="#9a32cd" stroke="#9a32cd" points="130.5,-308.94 134,-318.94 137.5,-308.94 130.5,-308.94"/>
<text text-anchor="middle" x="146.5" y="-253.5" font-family="Helvetica,sans-Serif" font-size="10.00"> repo</text>
</g>
<!-- Node13&#45;&gt;Node12 -->
<g id="edge14" class="edge">
<title>Node13&#45;&gt;Node12</title>
<path fill="none" stroke="#9a32cd" stroke-dasharray="5,2" d="M131.23,-391.94C131.37,-382.57 131.61,-371.79 132,-362 132.32,-353.87 132.92,-344.6 133.37,-338.05"/>
<polygon fill="#9a32cd" stroke="#9a32cd" points="127.72,-392.11 131.09,-402.15 134.72,-392.2 127.72,-392.11"/>
<text text-anchor="middle" x="168.5" y="-376" font-family="Helvetica,sans-Serif" font-size="10.00"> m_fid_map</text>
<text text-anchor="middle" x="168.5" y="-365" font-family="Helvetica,sans-Serif" font-size="10.00">m_int_fid_map</text>
</g>
<!-- Node14&#45;&gt;Node13 -->
<g id="edge16" class="edge">
<title>Node14&#45;&gt;Node13</title>
<path fill="none" stroke="orange" stroke-dasharray="5,2" d="M50.83,-470.34C50.4,-463.62 51.28,-456.63 55,-451 60.22,-443.1 67.8,-437.11 76.17,-432.57"/>
<polygon fill="orange" stroke="orange" points="47.4,-471.08 52.36,-480.44 54.32,-470.03 47.4,-471.08"/>
<text text-anchor="middle" x="109.5" y="-454" font-family="Helvetica,sans-Serif" font-size="10.00"> &lt; std::string, size_t &gt;</text>
</g>
<!-- Node15 -->
<g id="node15" class="node">
<title>Node15</title>
<g id="a_node15"><a xlink:title=" ">
<polygon fill="white" stroke="#bfbfbf" points="124.5,-575 124.5,-594 153.5,-594 153.5,-575 124.5,-575"/>
<text text-anchor="middle" x="139" y="-582" font-family="Helvetica,sans-Serif" font-size="10.00">K</text>
</a>
</g>
</g>
<!-- Node15&#45;&gt;Node14 -->
<g id="edge17" class="edge">
<title>Node15&#45;&gt;Node14</title>
<path fill="none" stroke="#9a32cd" stroke-dasharray="5,2" d="M123.61,-567.18C108.23,-550.85 84.82,-526.02 70.24,-510.55"/>
<polygon fill="#9a32cd" stroke="#9a32cd" points="121.43,-569.96 130.84,-574.84 126.53,-565.16 121.43,-569.96"/>
<text text-anchor="middle" x="121" y="-537.5" font-family="Helvetica,sans-Serif" font-size="10.00"> keys</text>
</g>
<!-- Node16&#45;&gt;Node1 -->
<g id="edge19" class="edge">
<title>Node16&#45;&gt;Node1</title>
<path fill="none" stroke="#9a32cd" stroke-dasharray="5,2" d="M143.73,-114.15C151.4,-100.11 162.25,-80.2 171.3,-63.62"/>
<polygon fill="#9a32cd" stroke="#9a32cd" points="140.51,-112.76 138.79,-123.21 146.65,-116.11 140.51,-112.76"/>
<text text-anchor="middle" x="176" y="-85" font-family="Helvetica,sans-Serif" font-size="10.00"> fields</text>
</g>
</g>
</svg>
        <g id="navigator" transform="translate(0 0)" fill="#404254">
                <rect fill="#f2f5e9" fill-opacity="0.5" stroke="#606060" stroke-width=".5" x="0" y="0" width="60" height="60"/>
                <use id="zoomplus" xlink:href="#zoomPlus" x="17" y="9" onmousedown="handleZoom(evt,'in')"/>
                <use id="zoomminus" xlink:href="#zoomMin" x="42" y="9" onmousedown="handleZoom(evt,'out')"/>
                <use id="reset" xlink:href="#resetDef" x="30" y="36" onmousedown="handleReset()"/>
                <g id="arrowUp" xlink:href="#dirArrow" transform="translate(30 24)" onmousedown="handlePan(0,-1)">
                  <use xlink:href="#rim" fill="#404040">
                        <set attributeName="fill" to="#808080" begin="arrowUp.mouseover" end="arrowUp.mouseout"/>
                  </use>
                  <path fill="none" stroke="white" stroke-width="1.5" d="M0,-3.0v7 M-2.5,-0.5L0,-3.0L2.5,-0.5"/>
                </g>
                <g id="arrowRight" xlink:href="#dirArrow" transform="rotate(90) translate(36 -43)" onmousedown="handlePan(1,0)">
                  <use xlink:href="#rim" fill="#404040">
                        <set attributeName="fill" to="#808080" begin="arrowRight.mouseover" end="arrowRight.mouseout"/>
                  </use>
                  <path fill="none" stroke="white" stroke-width="1.5" d="M0,-3.0v7 M-2.5,-0.5L0,-3.0L2.5,-0.5"/>
                </g>
                <g id="arrowDown" xlink:href="#dirArrow" transform="rotate(180) translate(-30 -48)" onmousedown="handlePan(0,1)">
                  <use xlink:href="#rim" fill="#404040">
                        <set attributeName="fill" to="#808080" begin="arrowDown.mouseover" end="arrowDown.mouseout"/>
                  </use>
                  <path fill="none" stroke="white" stroke-width="1.5" d="M0,-3.0v7 M-2.5,-0.5L0,-3.0L2.5,-0.5"/>
                </g>
                <g id="arrowLeft" xlink:href="#dirArrow" transform="rotate(270) translate(-36 17)" onmousedown="handlePan(-1,0)">
                  <use xlink:href="#rim" fill="#404040">
                        <set attributeName="fill" to="#808080" begin="arrowLeft.mouseover" end="arrowLeft.mouseout"/>
                  </use>
                  <path fill="none" stroke="white" stroke-width="1.5" d="M0,-3.0v7 M-2.5,-0.5L0,-3.0L2.5,-0.5"/>
                </g>
        </g>
        <svg viewBox="0 0 15 15" width="100%" height="30px" preserveAspectRatio="xMaxYMin meet">
         <g id="arrow_out" transform="scale(0.3 0.3)">
          <a xlink:href="structamr__wind_1_1pde_1_1_advection_op_3_01_p_d_e_00_01fvm_1_1_m_o_l_00_01typename_01std_1_1ena277f0b7e98ca4fce1e4ee06e56fde370_org.svg" target="_base">
           <rect id="button" ry="5" rx="5" y="6" x="6" height="38" width="38"
                fill="#f2f5e9" fill-opacity="0.5" stroke="#606060" stroke-width="1.0"/>
           <path id="arrow"
             d="M 11.500037,31.436501 C 11.940474,20.09759 22.043105,11.32322 32.158766,21.979434 L 37.068811,17.246167 C 37.068811,17.246167 37.088388,32 37.088388,32 L 22.160133,31.978069 C 22.160133,31.978069 26.997745,27.140456 26.997745,27.140456 C 18.528582,18.264221 13.291696,25.230495 11.500037,31.436501 z"
             style="fill:#404040;"/>
          </a>
         </g>
        </svg>
</svg>
