<?xml version="1.0" encoding="UTF-8" standalone="no"?>
<!DOCTYPE svg PUBLIC "-//W3C//DTD SVG 1.1//EN"
 "http://www.w3.org/Graphics/SVG/1.1/DTD/svg11.dtd">
<!-- Generated by graphviz version 2.43.0 (0)
 -->
<!-- Title: amr_wind::pde::SrcTermOp&lt; ICNS &gt; Pages: 1 -->
<!--zoomable 213 -->
<svg id="main" version="1.1" xmlns="http://www.w3.org/2000/svg" xmlns:xlink="http://www.w3.org/1999/xlink" xml:space="preserve" onload="init(evt)">
<style type="text/css"><![CDATA[
.edge:hover path { stroke: red; }
.edge:hover polygon { stroke: red; fill: red; }
]]></style>
<script type="text/javascript"><![CDATA[
var edges = document.getElementsByTagName('g');
if (edges && edges.length) {
  for (var i=0;i<edges.length;i++) {
    if (edges[i].id.substr(0,4)=='edge') {
      edges[i].setAttribute('class','edge');
    }
  }
}
]]></script>
        <defs>
                <circle id="rim" cx="0" cy="0" r="7"/>
                <circle id="rim2" cx="0" cy="0" r="3.5"/>
                <g id="zoomPlus">
                        <use xlink:href="#rim" fill="#404040">
                                <set attributeName="fill" to="#808080" begin="zoomplus.mouseover" end="zoomplus.mouseout"/>
                        </use>
                        <path d="M-4,0h8M0,-4v8" fill="none" stroke="white" stroke-width="1.5" pointer-events="none"/>
                </g>
                <g id="zoomMin">
                        <use xlink:href="#rim" fill="#404040">
                                <set attributeName="fill" to="#808080" begin="zoomminus.mouseover" end="zoomminus.mouseout"/>
                        </use>
                        <path d="M-4,0h8" fill="none" stroke="white" stroke-width="1.5" pointer-events="none"/>
                </g>
                <g id="dirArrow">
                        <path fill="none" stroke="white" stroke-width="1.5" d="M0,-3.0v7 M-2.5,-0.5L0,-3.0L2.5,-0.5"/>
                </g>
               <g id="resetDef">
                       <use xlink:href="#rim2" fill="#404040">
                               <set attributeName="fill" to="#808080" begin="reset.mouseover" end="reset.mouseout"/>
                       </use>
               </g>
        </defs>

<script type="text/javascript">
var viewWidth = 1903;
var viewHeight = 213;
var sectionId = 'dynsection-1';
</script>
<script xlink:href="svgpan.js"/>
<svg id="graph" class="graph">
<g id="viewport">
<title>amr_wind::pde::SrcTermOp&lt; ICNS &gt;</title>
<polygon fill="white" stroke="transparent" points="-4,4 -4,-209 1899,-209 1899,4 -4,4"/>
<!-- Node1 -->
<g id="node1" class="node">
<title>Node1</title>
<g id="a_node1"><a xlink:title="Specialization of the source term operator for ICNS.">
<polygon fill="#bfbfbf" stroke="black" points="1748,-157 1748,-187 1895,-187 1895,-157 1748,-157"/>
<text text-anchor="start" x="1756" y="-175" font-family="Helvetica,sans-Serif" font-size="10.00">amr_wind::pde::SrcTermOp</text>
<text text-anchor="middle" x="1821.5" y="-164" font-family="Helvetica,sans-Serif" font-size="10.00">&lt; ICNS &gt;</text>
</a>
</g>
</g>
<!-- Node2 -->
<g id="node2" class="node">
<title>Node2</title>
<g id="a_node2"><a xlink:href="structamr__wind_1_1pde_1_1_src_term_op_base.html" target="_top" xlink:title=" ">
<polygon fill="white" stroke="black" points="1564,-133 1564,-163 1711,-163 1711,-133 1564,-133"/>
<text text-anchor="start" x="1572" y="-151" font-family="Helvetica,sans-Serif" font-size="10.00">amr_wind::pde::SrcTermOp</text>
<text text-anchor="middle" x="1637.5" y="-140" font-family="Helvetica,sans-Serif" font-size="10.00">Base&lt; ICNS &gt;</text>
</a>
</g>
</g>
<!-- Node2&#45;&gt;Node1 -->
<g id="edge1" class="edge">
<title>Node2&#45;&gt;Node1</title>
<path fill="none" stroke="midnightblue" d="M1721.21,-158.91C1730.11,-160.08 1739.13,-161.27 1747.9,-162.43"/>
<polygon fill="midnightblue" stroke="midnightblue" points="1721.59,-155.43 1711.22,-157.59 1720.67,-162.37 1721.59,-155.43"/>
</g>
<!-- Node3 -->
<g id="node3" class="node">
<title>Node3</title>
<g id="a_node3"><a xlink:href="structamr__wind_1_1pde_1_1_src_term_op_base.html" target="_top" xlink:title="Base implementation of source terms for a PDE.">
<polygon fill="white" stroke="black" points="1332,-127 1332,-157 1479,-157 1479,-127 1332,-127"/>
<text text-anchor="start" x="1340" y="-145" font-family="Helvetica,sans-Serif" font-size="10.00">amr_wind::pde::SrcTermOp</text>
<text text-anchor="middle" x="1405.5" y="-134" font-family="Helvetica,sans-Serif" font-size="10.00">Base&lt; PDE &gt;</text>
</a>
</g>
</g>
<!-- Node3&#45;&gt;Node2 -->
<g id="edge2" class="edge">
<title>Node3&#45;&gt;Node2</title>
<path fill="none" stroke="orange" stroke-dasharray="5,2" d="M1489.55,-144.17C1513.84,-144.8 1540.2,-145.49 1563.81,-146.1"/>
<polygon fill="orange" stroke="orange" points="1489.36,-140.66 1479.27,-143.9 1489.18,-147.66 1489.36,-140.66"/>
<text text-anchor="middle" x="1521.5" y="-148" font-family="Helvetica,sans-Serif" font-size="10.00"> &lt; ICNS &gt;</text>
</g>
<!-- Node4 -->
<g id="node4" class="node">
<title>Node4</title>
<g id="a_node4"><a xlink:href="classamr__wind_1_1_field.html" target="_top" xlink:title="Computational field.">
<polygon fill="white" stroke="black" points="938,-93.5 938,-112.5 1032,-112.5 1032,-93.5 938,-93.5"/>
<text text-anchor="middle" x="985" y="-100.5" font-family="Helvetica,sans-Serif" font-size="10.00">amr_wind::Field</text>
</a>
</g>
</g>
<!-- Node4&#45;&gt;Node1 -->
<g id="edge18" class="edge">
<title>Node4&#45;&gt;Node1</title>
<path fill="none" stroke="#9a32cd" stroke-dasharray="5,2" d="M1001.03,-120.4C1013.03,-133.22 1030.95,-150.08 1050,-160 1108.13,-190.27 1127.96,-194 1193.5,-194 1193.5,-194 1193.5,-194 1638.5,-194 1674.62,-194 1714.49,-189.68 1747.68,-184.86"/>
<polygon fill="#9a32cd" stroke="#9a32cd" points="1003.34,-117.75 994.04,-112.68 998.15,-122.44 1003.34,-117.75"/>
<text text-anchor="middle" x="1405.5" y="-197" font-family="Helvetica,sans-Serif" font-size="10.00"> grad_p</text>
</g>
<!-- Node4&#45;&gt;Node3 -->
<g id="edge3" class="edge">
<title>Node4&#45;&gt;Node3</title>
<path fill="none" stroke="#9a32cd" stroke-dasharray="5,2" d="M1006.18,-118.8C1018.18,-127.17 1034.12,-136.62 1050,-141 1144.63,-167.12 1258.95,-161.08 1331.7,-152.81"/>
<polygon fill="#9a32cd" stroke="#9a32cd" points="1007.98,-115.78 997.84,-112.7 1003.85,-121.43 1007.98,-115.78"/>
<text text-anchor="middle" x="1194.5" y="-162" font-family="Helvetica,sans-Serif" font-size="10.00"> m_density</text>
</g>
<!-- Node14 -->
<g id="node14" class="node">
<title>Node14</title>
<g id="a_node14"><a xlink:href="structamr__wind_1_1pde_1_1_p_d_e_fields.html" target="_top" xlink:title="Collection of fields related to a PDE.">
<polygon fill="white" stroke="black" points="1123,-75.5 1123,-94.5 1266,-94.5 1266,-75.5 1123,-75.5"/>
<text text-anchor="middle" x="1194.5" y="-82.5" font-family="Helvetica,sans-Serif" font-size="10.00">amr_wind::pde::PDEFields</text>
</a>
</g>
</g>
<!-- Node4&#45;&gt;Node14 -->
<g id="edge16" class="edge">
<title>Node4&#45;&gt;Node14</title>
<path fill="none" stroke="#9a32cd" stroke-dasharray="5,2" d="M1025.52,-90.84C1033.55,-88.84 1041.99,-87.07 1050,-86 1073.58,-82.84 1099.54,-81.9 1122.82,-81.96"/>
<polygon fill="#9a32cd" stroke="#9a32cd" points="1024.41,-87.51 1015.64,-93.46 1026.2,-94.28 1024.41,-87.51"/>
<text text-anchor="middle" x="1077.5" y="-133" font-family="Helvetica,sans-Serif" font-size="10.00"> conv_term</text>
<text text-anchor="middle" x="1077.5" y="-122" font-family="Helvetica,sans-Serif" font-size="10.00">diff_term</text>
<text text-anchor="middle" x="1077.5" y="-111" font-family="Helvetica,sans-Serif" font-size="10.00">field</text>
<text text-anchor="middle" x="1077.5" y="-100" font-family="Helvetica,sans-Serif" font-size="10.00">mueff</text>
<text text-anchor="middle" x="1077.5" y="-89" font-family="Helvetica,sans-Serif" font-size="10.00">src_term</text>
</g>
<!-- Node5 -->
<g id="node5" class="node">
<title>Node5</title>
<g id="a_node5"><a xlink:title=" ">
<polygon fill="white" stroke="#bfbfbf" points="605,-6 605,-36 725,-36 725,-6 605,-6"/>
<text text-anchor="start" x="613" y="-24" font-family="Helvetica,sans-Serif" font-size="10.00">std::shared_ptr&lt; amr</text>
<text text-anchor="middle" x="665" y="-13" font-family="Helvetica,sans-Serif" font-size="10.00">_wind::FieldInfo &gt;</text>
</a>
</g>
</g>
<!-- Node5&#45;&gt;Node4 -->
<g id="edge4" class="edge">
<title>Node5&#45;&gt;Node4</title>
<path fill="none" stroke="#9a32cd" stroke-dasharray="5,2" d="M735.54,-19.21C773.6,-19.98 821.19,-23.85 862,-36 904.85,-48.75 949.48,-78.06 970.94,-93.34"/>
<polygon fill="#9a32cd" stroke="#9a32cd" points="735.11,-15.7 725.07,-19.07 735.02,-22.7 735.11,-15.7"/>
<text text-anchor="middle" x="802.5" y="-39" font-family="Helvetica,sans-Serif" font-size="10.00"> m_info</text>
</g>
<!-- Node6 -->
<g id="node6" class="node">
<title>Node6</title>
<g id="a_node6"><a xlink:title=" ">
<polygon fill="white" stroke="#bfbfbf" points="189,-0.5 189,-19.5 307,-19.5 307,-0.5 189,-0.5"/>
<text text-anchor="middle" x="248" y="-7.5" font-family="Helvetica,sans-Serif" font-size="10.00">std::shared_ptr&lt; T &gt;</text>
</a>
</g>
</g>
<!-- Node6&#45;&gt;Node5 -->
<g id="edge5" class="edge">
<title>Node6&#45;&gt;Node5</title>
<path fill="none" stroke="orange" stroke-dasharray="5,2" d="M317.62,-11.82C397.79,-13.94 529.08,-17.42 604.91,-19.43"/>
<polygon fill="orange" stroke="orange" points="317.23,-8.31 307.14,-11.54 317.04,-15.3 317.23,-8.31"/>
<text text-anchor="middle" x="386" y="-19" font-family="Helvetica,sans-Serif" font-size="10.00"> &lt; amr_wind::FieldInfo &gt;</text>
</g>
<!-- Node7 -->
<g id="node7" class="node">
<title>Node7</title>
<g id="a_node7"><a xlink:title=" ">
<polygon fill="white" stroke="#bfbfbf" points="37.5,-11.5 37.5,-30.5 66.5,-30.5 66.5,-11.5 37.5,-11.5"/>
<text text-anchor="middle" x="52" y="-18.5" font-family="Helvetica,sans-Serif" font-size="10.00">T</text>
</a>
</g>
</g>
<!-- Node7&#45;&gt;Node6 -->
<g id="edge6" class="edge">
<title>Node7&#45;&gt;Node6</title>
<path fill="none" stroke="#9a32cd" stroke-dasharray="5,2" d="M76.37,-15.04C89.65,-11.97 106.65,-8.54 122,-7 143.71,-4.82 167.64,-4.81 188.7,-5.61"/>
<polygon fill="#9a32cd" stroke="#9a32cd" points="75.52,-11.65 66.62,-17.39 77.16,-18.45 75.52,-11.65"/>
<text text-anchor="middle" x="146.5" y="-10" font-family="Helvetica,sans-Serif" font-size="10.00"> ptr</text>
</g>
<!-- Node12 -->
<g id="node12" class="node">
<title>Node12</title>
<g id="a_node12"><a xlink:title=" ">
<polygon fill="white" stroke="#bfbfbf" points="191,-41 191,-71 305,-71 305,-41 191,-41"/>
<text text-anchor="start" x="199" y="-59" font-family="Helvetica,sans-Serif" font-size="10.00">std::unordered_map</text>
<text text-anchor="middle" x="248" y="-48" font-family="Helvetica,sans-Serif" font-size="10.00">&lt; K, T &gt;</text>
</a>
</g>
</g>
<!-- Node7&#45;&gt;Node12 -->
<g id="edge14" class="edge">
<title>Node7&#45;&gt;Node12</title>
<path fill="none" stroke="#9a32cd" stroke-dasharray="5,2" d="M76.78,-25.29C105.03,-30.39 153.11,-39.06 190.98,-45.89"/>
<polygon fill="#9a32cd" stroke="#9a32cd" points="77.1,-21.79 66.64,-23.46 75.86,-28.68 77.1,-21.79"/>
<text text-anchor="middle" x="146.5" y="-45" font-family="Helvetica,sans-Serif" font-size="10.00"> elements</text>
</g>
<!-- Node8 -->
<g id="node8" class="node">
<title>Node8</title>
<g id="a_node8"><a xlink:title=" ">
<polygon fill="white" stroke="#bfbfbf" points="215.5,-106.5 215.5,-125.5 280.5,-125.5 280.5,-106.5 215.5,-106.5"/>
<text text-anchor="middle" x="248" y="-113.5" font-family="Helvetica,sans-Serif" font-size="10.00">std::string</text>
</a>
</g>
</g>
<!-- Node8&#45;&gt;Node4 -->
<g id="edge7" class="edge">
<title>Node8&#45;&gt;Node4</title>
<path fill="none" stroke="#9a32cd" stroke-dasharray="5,2" d="M290.74,-115.26C418.54,-113 803.92,-106.19 937.67,-103.82"/>
<polygon fill="#9a32cd" stroke="#9a32cd" points="290.52,-111.77 280.58,-115.44 290.64,-118.76 290.52,-111.77"/>
<text text-anchor="middle" x="665" y="-112" font-family="Helvetica,sans-Serif" font-size="10.00"> m_name</text>
</g>
<!-- Node11 -->
<g id="node11" class="node">
<title>Node11</title>
<g id="a_node11"><a xlink:title=" ">
<polygon fill="white" stroke="#bfbfbf" points="465,-51 465,-81 587,-81 587,-51 465,-51"/>
<text text-anchor="start" x="473" y="-69" font-family="Helvetica,sans-Serif" font-size="10.00">std::unordered_map</text>
<text text-anchor="middle" x="526" y="-58" font-family="Helvetica,sans-Serif" font-size="10.00">&lt; std::string, size_t &gt;</text>
</a>
</g>
</g>
<!-- Node8&#45;&gt;Node11 -->
<g id="edge11" class="edge">
<title>Node8&#45;&gt;Node11</title>
<path fill="none" stroke="#9a32cd" stroke-dasharray="5,2" d="M283.79,-102.99C296.6,-98.62 311.31,-94.08 325,-91 371.43,-80.56 424.97,-74.16 464.97,-70.45"/>
<polygon fill="#9a32cd" stroke="#9a32cd" points="282.27,-99.81 273.99,-106.42 284.58,-106.42 282.27,-99.81"/>
<text text-anchor="middle" x="386" y="-94" font-family="Helvetica,sans-Serif" font-size="10.00"> keys</text>
</g>
<!-- Node9 -->
<g id="node9" class="node">
<title>Node9</title>
<g id="a_node9"><a xlink:title=" ">
<polygon fill="white" stroke="#bfbfbf" points="0,-103 0,-133 104,-133 104,-103 0,-103"/>
<text text-anchor="start" x="8" y="-121" font-family="Helvetica,sans-Serif" font-size="10.00">std::basic_string&lt;</text>
<text text-anchor="middle" x="52" y="-110" font-family="Helvetica,sans-Serif" font-size="10.00"> Char &gt;</text>
</a>
</g>
</g>
<!-- Node9&#45;&gt;Node8 -->
<g id="edge8" class="edge">
<title>Node9&#45;&gt;Node8</title>
<path fill="none" stroke="midnightblue" d="M114.39,-117.37C147.91,-117.02 188.01,-116.61 215.27,-116.33"/>
<polygon fill="midnightblue" stroke="midnightblue" points="114.19,-113.87 104.22,-117.47 114.26,-120.87 114.19,-113.87"/>
</g>
<!-- Node10 -->
<g id="node10" class="node">
<title>Node10</title>
<g id="a_node10"><a xlink:href="classamr__wind_1_1_field_repo.html" target="_top" xlink:title="Field Repository.">
<polygon fill="white" stroke="black" points="743,-56.5 743,-75.5 862,-75.5 862,-56.5 743,-56.5"/>
<text text-anchor="middle" x="802.5" y="-63.5" font-family="Helvetica,sans-Serif" font-size="10.00">amr_wind::FieldRepo</text>
</a>
</g>
</g>
<!-- Node10&#45;&gt;Node4 -->
<g id="edge9" class="edge">
<title>Node10&#45;&gt;Node4</title>
<path fill="none" stroke="#9a32cd" stroke-dasharray="5,2" d="M860.09,-77.6C885.16,-82.74 914.28,-88.71 937.99,-93.57"/>
<polygon fill="#9a32cd" stroke="#9a32cd" points="860.48,-74.11 849.98,-75.53 859.08,-80.97 860.48,-74.11"/>
<text text-anchor="middle" x="900" y="-91" font-family="Helvetica,sans-Serif" font-size="10.00"> m_repo</text>
</g>
<!-- Node10&#45;&gt;Node14 -->
<g id="edge17" class="edge">
<title>Node10&#45;&gt;Node14</title>
<path fill="none" stroke="#9a32cd" stroke-dasharray="5,2" d="M872.25,-67.43C917.63,-68.54 978.38,-70.34 1032,-73 1064.48,-74.61 1072.57,-75.61 1105,-78 1110.84,-78.43 1116.9,-78.89 1122.98,-79.35"/>
<polygon fill="#9a32cd" stroke="#9a32cd" points="872.31,-63.93 862.23,-67.19 872.14,-70.93 872.31,-63.93"/>
<text text-anchor="middle" x="985" y="-76" font-family="Helvetica,sans-Serif" font-size="10.00"> repo</text>
</g>
<!-- Node11&#45;&gt;Node10 -->
<g id="edge10" class="edge">
<title>Node11&#45;&gt;Node10</title>
<path fill="none" stroke="#9a32cd" stroke-dasharray="5,2" d="M597.52,-66C642.56,-66 700.28,-66 742.81,-66"/>
<polygon fill="#9a32cd" stroke="#9a32cd" points="597.24,-62.5 587.24,-66 597.24,-69.5 597.24,-62.5"/>
<text text-anchor="middle" x="665" y="-80" font-family="Helvetica,sans-Serif" font-size="10.00"> m_fid_map</text>
<text text-anchor="middle" x="665" y="-69" font-family="Helvetica,sans-Serif" font-size="10.00">m_int_fid_map</text>
</g>
<!-- Node12&#45;&gt;Node11 -->
<g id="edge12" class="edge">
<title>Node12&#45;&gt;Node11</title>
<path fill="none" stroke="orange" stroke-dasharray="5,2" d="M315.42,-54.52C353.89,-54.11 403.22,-54.37 447,-57 452.71,-57.34 458.65,-57.82 464.59,-58.37"/>
<polygon fill="orange" stroke="orange" points="315.34,-51.02 305.38,-54.64 315.42,-58.02 315.34,-51.02"/>
<text text-anchor="middle" x="386" y="-60" font-family="Helvetica,sans-Serif" font-size="10.00"> &lt; std::string, size_t &gt;</text>
</g>
<!-- Node13 -->
<g id="node13" class="node">
<title>Node13</title>
<g id="a_node13"><a xlink:title=" ">
<polygon fill="white" stroke="#bfbfbf" points="37.5,-64.5 37.5,-83.5 66.5,-83.5 66.5,-64.5 37.5,-64.5"/>
<text text-anchor="middle" x="52" y="-71.5" font-family="Helvetica,sans-Serif" font-size="10.00">K</text>
</a>
</g>
</g>
<!-- Node13&#45;&gt;Node12 -->
<g id="edge13" class="edge">
<title>Node13&#45;&gt;Node12</title>
<path fill="none" stroke="#9a32cd" stroke-dasharray="5,2" d="M76.78,-71.79C105.03,-69.17 153.11,-64.71 190.98,-61.2"/>
<polygon fill="#9a32cd" stroke="#9a32cd" points="76.28,-68.33 66.64,-72.73 76.92,-75.3 76.28,-68.33"/>
<text text-anchor="middle" x="146.5" y="-71" font-family="Helvetica,sans-Serif" font-size="10.00"> keys</text>
</g>
<!-- Node14&#45;&gt;Node3 -->
<g id="edge15" class="edge">
<title>Node14&#45;&gt;Node3</title>
<path fill="none" stroke="#9a32cd" stroke-dasharray="5,2" d="M1240.42,-97.25C1272.32,-105.95 1315.34,-117.68 1349.33,-126.95"/>
<polygon fill="#9a32cd" stroke="#9a32cd" points="1241.05,-93.8 1230.48,-94.54 1239.21,-100.55 1241.05,-93.8"/>
<text text-anchor="middle" x="1299" y="-119" font-family="Helvetica,sans-Serif" font-size="10.00"> fields</text>
</g>
</g>
</svg>
        <g id="navigator" transform="translate(0 0)" fill="#404254">
                <rect fill="#f2f5e9" fill-opacity="0.5" stroke="#606060" stroke-width=".5" x="0" y="0" width="60" height="60"/>
                <use id="zoomplus" xlink:href="#zoomPlus" x="17" y="9" onmousedown="handleZoom(evt,'in')"/>
                <use id="zoomminus" xlink:href="#zoomMin" x="42" y="9" onmousedown="handleZoom(evt,'out')"/>
                <use id="reset" xlink:href="#resetDef" x="30" y="36" onmousedown="handleReset()"/>
                <g id="arrowUp" xlink:href="#dirArrow" transform="translate(30 24)" onmousedown="handlePan(0,-1)">
                  <use xlink:href="#rim" fill="#404040">
                        <set attributeName="fill" to="#808080" begin="arrowUp.mouseover" end="arrowUp.mouseout"/>
                  </use>
                  <path fill="none" stroke="white" stroke-width="1.5" d="M0,-3.0v7 M-2.5,-0.5L0,-3.0L2.5,-0.5"/>
                </g>
                <g id="arrowRight" xlink:href="#dirArrow" transform="rotate(90) translate(36 -43)" onmousedown="handlePan(1,0)">
                  <use xlink:href="#rim" fill="#404040">
                        <set attributeName="fill" to="#808080" begin="arrowRight.mouseover" end="arrowRight.mouseout"/>
                  </use>
                  <path fill="none" stroke="white" stroke-width="1.5" d="M0,-3.0v7 M-2.5,-0.5L0,-3.0L2.5,-0.5"/>
                </g>
                <g id="arrowDown" xlink:href="#dirArrow" transform="rotate(180) translate(-30 -48)" onmousedown="handlePan(0,1)">
                  <use xlink:href="#rim" fill="#404040">
                        <set attributeName="fill" to="#808080" begin="arrowDown.mouseover" end="arrowDown.mouseout"/>
                  </use>
                  <path fill="none" stroke="white" stroke-width="1.5" d="M0,-3.0v7 M-2.5,-0.5L0,-3.0L2.5,-0.5"/>
                </g>
                <g id="arrowLeft" xlink:href="#dirArrow" transform="rotate(270) translate(-36 17)" onmousedown="handlePan(-1,0)">
                  <use xlink:href="#rim" fill="#404040">
                        <set attributeName="fill" to="#808080" begin="arrowLeft.mouseover" end="arrowLeft.mouseout"/>
                  </use>
                  <path fill="none" stroke="white" stroke-width="1.5" d="M0,-3.0v7 M-2.5,-0.5L0,-3.0L2.5,-0.5"/>
                </g>
        </g>
        <svg viewBox="0 0 15 15" width="100%" height="30px" preserveAspectRatio="xMaxYMin meet">
         <g id="arrow_out" transform="scale(0.3 0.3)">
          <a xlink:href="structamr__wind_1_1pde_1_1_src_term_op_3_01_i_c_n_s_01_4__coll__graph_org.svg" target="_base">
           <rect id="button" ry="5" rx="5" y="6" x="6" height="38" width="38"
                fill="#f2f5e9" fill-opacity="0.5" stroke="#606060" stroke-width="1.0"/>
           <path id="arrow"
             d="M 11.500037,31.436501 C 11.940474,20.09759 22.043105,11.32322 32.158766,21.979434 L 37.068811,17.246167 C 37.068811,17.246167 37.088388,32 37.088388,32 L 22.160133,31.978069 C 22.160133,31.978069 26.997745,27.140456 26.997745,27.140456 C 18.528582,18.264221 13.291696,25.230495 11.500037,31.436501 z"
             style="fill:#404040;"/>
          </a>
         </g>
        </svg>
</svg>
