<?xml version="1.0" encoding="UTF-8" standalone="no"?>
<!DOCTYPE svg PUBLIC "-//W3C//DTD SVG 1.1//EN"
 "http://www.w3.org/Graphics/SVG/1.1/DTD/svg11.dtd">
<!-- Generated by graphviz version 2.43.0 (0)
 -->
<!-- Title: exw_fast::FastTurbine Pages: 1 -->
<svg width="540pt" height="194pt"
 viewBox="0.00 0.00 540.00 194.00" xmlns="http://www.w3.org/2000/svg" xmlns:xlink="http://www.w3.org/1999/xlink">
<g id="graph0" class="graph" transform="scale(1 1) rotate(0) translate(4 190)">
<title>exw_fast::FastTurbine</title>
<polygon fill="white" stroke="transparent" points="-4,4 -4,-190 536,-190 536,4 -4,4"/>
<!-- Node1 -->
<g id="node1" class="node">
<title>Node1</title>
<g id="a_node1"><a xlink:title="Representation of a turbine for exchanging data with FAST.">
<polygon fill="#bfbfbf" stroke="black" points="410,-92.5 410,-111.5 532,-111.5 532,-92.5 410,-92.5"/>
<text text-anchor="middle" x="471" y="-99.5" font-family="Helvetica,sans-Serif" font-size="10.00">exw_fast::FastTurbine</text>
</a>
</g>
</g>
<!-- Node2 -->
<g id="node2" class="node">
<title>Node2</title>
<g id="a_node2"><a xlink:href="structexw__fast_1_1_op_f_m___output_type.html" target="_top" xlink:title=" ">
<polygon fill="white" stroke="black" points="141,-166.5 141,-185.5 297,-185.5 297,-166.5 141,-166.5"/>
<text text-anchor="middle" x="219" y="-173.5" font-family="Helvetica,sans-Serif" font-size="10.00">exw_fast::OpFM_OutputType</text>
</a>
</g>
</g>
<!-- Node2&#45;&gt;Node1 -->
<g id="edge1" class="edge">
<title>Node2&#45;&gt;Node1</title>
<path fill="none" stroke="#9a32cd" stroke-dasharray="5,2" d="M297.64,-164.67C327.6,-159.15 361.85,-151.4 392,-141 414.47,-133.25 438.72,-120.34 454.11,-111.51"/>
<polygon fill="#9a32cd" stroke="#9a32cd" points="296.89,-161.25 287.66,-166.46 298.12,-168.14 296.89,-161.25"/>
<text text-anchor="middle" x="353.5" y="-163" font-family="Helvetica,sans-Serif" font-size="10.00"> from_cfd</text>
</g>
<!-- Node3 -->
<g id="node3" class="node">
<title>Node3</title>
<g id="a_node3"><a xlink:href="structexw__fast_1_1_s_c___output_type.html" target="_top" xlink:title=" ">
<polygon fill="white" stroke="black" points="149,-128.5 149,-147.5 289,-147.5 289,-128.5 149,-128.5"/>
<text text-anchor="middle" x="219" y="-135.5" font-family="Helvetica,sans-Serif" font-size="10.00">exw_fast::SC_OutputType</text>
</a>
</g>
</g>
<!-- Node3&#45;&gt;Node1 -->
<g id="edge2" class="edge">
<title>Node3&#45;&gt;Node1</title>
<path fill="none" stroke="#9a32cd" stroke-dasharray="5,2" d="M299.3,-128.7C328.49,-125.06 361.79,-120.64 392,-116 400.7,-114.66 409.93,-113.12 418.87,-111.56"/>
<polygon fill="#9a32cd" stroke="#9a32cd" points="298.65,-125.26 289.16,-129.96 299.51,-132.21 298.65,-125.26"/>
<text text-anchor="middle" x="353.5" y="-129" font-family="Helvetica,sans-Serif" font-size="10.00"> from_sc</text>
</g>
<!-- Node4 -->
<g id="node4" class="node">
<title>Node4</title>
<g id="a_node4"><a xlink:href="structexw__fast_1_1_op_f_m___input_type.html" target="_top" xlink:title=" ">
<polygon fill="white" stroke="black" points="145,-90.5 145,-109.5 293,-109.5 293,-90.5 145,-90.5"/>
<text text-anchor="middle" x="219" y="-97.5" font-family="Helvetica,sans-Serif" font-size="10.00">exw_fast::OpFM_InputType</text>
</a>
</g>
</g>
<!-- Node4&#45;&gt;Node1 -->
<g id="edge3" class="edge">
<title>Node4&#45;&gt;Node1</title>
<path fill="none" stroke="#9a32cd" stroke-dasharray="5,2" d="M303.46,-100.67C338.24,-100.95 377.86,-101.26 409.73,-101.52"/>
<polygon fill="#9a32cd" stroke="#9a32cd" points="303.35,-97.17 293.32,-100.59 303.29,-104.17 303.35,-97.17"/>
<text text-anchor="middle" x="353.5" y="-104" font-family="Helvetica,sans-Serif" font-size="10.00"> to_cfd</text>
</g>
<!-- Node5 -->
<g id="node5" class="node">
<title>Node5</title>
<g id="a_node5"><a xlink:title=" ">
<polygon fill="white" stroke="#bfbfbf" points="186.5,-38.5 186.5,-57.5 251.5,-57.5 251.5,-38.5 186.5,-38.5"/>
<text text-anchor="middle" x="219" y="-45.5" font-family="Helvetica,sans-Serif" font-size="10.00">std::string</text>
</a>
</g>
</g>
<!-- Node5&#45;&gt;Node1 -->
<g id="edge4" class="edge">
<title>Node5&#45;&gt;Node1</title>
<path fill="none" stroke="#9a32cd" stroke-dasharray="5,2" d="M262.12,-47.3C297.44,-47.75 348.87,-50.82 392,-63 415.31,-69.59 439.95,-83.17 455.15,-92.44"/>
<polygon fill="#9a32cd" stroke="#9a32cd" points="261.73,-43.8 251.71,-47.24 261.69,-50.8 261.73,-43.8"/>
<text text-anchor="middle" x="353.5" y="-88" font-family="Helvetica,sans-Serif" font-size="10.00"> checkpoint_file</text>
<text text-anchor="middle" x="353.5" y="-77" font-family="Helvetica,sans-Serif" font-size="10.00">input_file</text>
<text text-anchor="middle" x="353.5" y="-66" font-family="Helvetica,sans-Serif" font-size="10.00">tlabel</text>
</g>
<!-- Node6 -->
<g id="node6" class="node">
<title>Node6</title>
<g id="a_node6"><a xlink:title=" ">
<polygon fill="white" stroke="#bfbfbf" points="0,-33 0,-63 104,-63 104,-33 0,-33"/>
<text text-anchor="start" x="8" y="-51" font-family="Helvetica,sans-Serif" font-size="10.00">std::basic_string&lt;</text>
<text text-anchor="middle" x="52" y="-40" font-family="Helvetica,sans-Serif" font-size="10.00"> Char &gt;</text>
</a>
</g>
</g>
<!-- Node6&#45;&gt;Node5 -->
<g id="edge5" class="edge">
<title>Node6&#45;&gt;Node5</title>
<path fill="none" stroke="midnightblue" d="M114.59,-48C139.04,-48 166.11,-48 186.42,-48"/>
<polygon fill="midnightblue" stroke="midnightblue" points="114.3,-44.5 104.3,-48 114.3,-51.5 114.3,-44.5"/>
</g>
<!-- Node7 -->
<g id="node7" class="node">
<title>Node7</title>
<g id="a_node7"><a xlink:href="structexw__fast_1_1_s_c___input_type.html" target="_top" xlink:title=" ">
<polygon fill="white" stroke="black" points="153,-0.5 153,-19.5 285,-19.5 285,-0.5 153,-0.5"/>
<text text-anchor="middle" x="219" y="-7.5" font-family="Helvetica,sans-Serif" font-size="10.00">exw_fast::SC_InputType</text>
</a>
</g>
</g>
<!-- Node7&#45;&gt;Node1 -->
<g id="edge6" class="edge">
<title>Node7&#45;&gt;Node1</title>
<path fill="none" stroke="#9a32cd" stroke-dasharray="5,2" d="M295.64,-11.81C326.63,-14.86 362.14,-21.41 392,-35 421.9,-48.6 449.11,-77.26 462.06,-92.31"/>
<polygon fill="#9a32cd" stroke="#9a32cd" points="295.59,-8.29 285.32,-10.91 294.98,-15.27 295.59,-8.29"/>
<text text-anchor="middle" x="353.5" y="-38" font-family="Helvetica,sans-Serif" font-size="10.00"> to_sc</text>
</g>
</g>
</svg>
