<?xml version="1.0" encoding="UTF-8" standalone="no"?>
<!DOCTYPE svg PUBLIC "-//W3C//DTD SVG 1.1//EN"
 "http://www.w3.org/Graphics/SVG/1.1/DTD/svg11.dtd">
<!-- Generated by graphviz version 2.43.0 (0)
 -->
<!-- Title: amr_wind::actuator::TurbineBaseData Pages: 1 -->
<svg width="1157pt" height="264pt"
 viewBox="0.00 0.00 1157.00 263.50" xmlns="http://www.w3.org/2000/svg" xmlns:xlink="http://www.w3.org/1999/xlink">
<g id="graph0" class="graph" transform="scale(1 1) rotate(0) translate(4 259.5)">
<title>amr_wind::actuator::TurbineBaseData</title>
<polygon fill="white" stroke="transparent" points="-4,4 -4,-259.5 1153,-259.5 1153,4 -4,4"/>
<!-- Node1 -->
<g id="node1" class="node">
<title>Node1</title>
<g id="a_node1"><a xlink:title=" ">
<polygon fill="#bfbfbf" stroke="black" points="1038,-91.5 1038,-121.5 1149,-121.5 1149,-91.5 1038,-91.5"/>
<text text-anchor="start" x="1046" y="-109.5" font-family="Helvetica,sans-Serif" font-size="10.00">amr_wind::actuator</text>
<text text-anchor="middle" x="1093.5" y="-98.5" font-family="Helvetica,sans-Serif" font-size="10.00">::TurbineBaseData</text>
</a>
</g>
</g>
<!-- Node2 -->
<g id="node2" class="node">
<title>Node2</title>
<g id="a_node2"><a xlink:title=" ">
<polygon fill="white" stroke="#bfbfbf" points="805,-91.5 805,-121.5 966,-121.5 966,-91.5 805,-91.5"/>
<text text-anchor="start" x="813" y="-109.5" font-family="Helvetica,sans-Serif" font-size="10.00">std::vector&lt; amr_wind</text>
<text text-anchor="middle" x="885.5" y="-98.5" font-family="Helvetica,sans-Serif" font-size="10.00">::actuator::ComponentView &gt;</text>
</a>
</g>
</g>
<!-- Node2&#45;&gt;Node1 -->
<g id="edge1" class="edge">
<title>Node2&#45;&gt;Node1</title>
<path fill="none" stroke="#9a32cd" stroke-dasharray="5,2" d="M976.36,-106.5C997.33,-106.5 1019.03,-106.5 1037.92,-106.5"/>
<polygon fill="#9a32cd" stroke="#9a32cd" points="976.15,-103 966.14,-106.5 976.14,-110 976.15,-103"/>
<text text-anchor="middle" x="1002" y="-109.5" font-family="Helvetica,sans-Serif" font-size="10.00"> blades</text>
</g>
<!-- Node3 -->
<g id="node3" class="node">
<title>Node3</title>
<g id="a_node3"><a xlink:href="structamr__wind_1_1actuator_1_1_component_view.html" target="_top" xlink:title="Slice of actutator data for components (tower, blade, etc)">
<polygon fill="white" stroke="black" points="549,-146.5 549,-176.5 660,-176.5 660,-146.5 549,-146.5"/>
<text text-anchor="start" x="557" y="-164.5" font-family="Helvetica,sans-Serif" font-size="10.00">amr_wind::actuator</text>
<text text-anchor="middle" x="604.5" y="-153.5" font-family="Helvetica,sans-Serif" font-size="10.00">::ComponentView</text>
</a>
</g>
</g>
<!-- Node3&#45;&gt;Node1 -->
<g id="edge11" class="edge">
<title>Node3&#45;&gt;Node1</title>
<path fill="none" stroke="#9a32cd" stroke-dasharray="5,2" d="M670.35,-158.81C705,-157.15 748.36,-154.72 787,-151.5 866.77,-144.85 886.81,-143.24 966,-131.5 989.69,-127.99 1015.68,-123.04 1037.9,-118.48"/>
<polygon fill="#9a32cd" stroke="#9a32cd" points="670.18,-155.32 660.36,-159.28 670.51,-162.31 670.18,-155.32"/>
<text text-anchor="middle" x="885.5" y="-163.5" font-family="Helvetica,sans-Serif" font-size="10.00"> hub</text>
<text text-anchor="middle" x="885.5" y="-152.5" font-family="Helvetica,sans-Serif" font-size="10.00">tower</text>
</g>
<!-- Node3&#45;&gt;Node2 -->
<g id="edge2" class="edge">
<title>Node3&#45;&gt;Node2</title>
<path fill="none" stroke="#9a32cd" stroke-dasharray="5,2" d="M664.43,-143.8C669,-142.62 673.57,-141.5 678,-140.5 719.46,-131.12 766.16,-123.21 804.64,-117.39"/>
<polygon fill="#9a32cd" stroke="#9a32cd" points="663.19,-140.51 654.43,-146.47 665,-147.27 663.19,-140.51"/>
<text text-anchor="middle" x="732.5" y="-143.5" font-family="Helvetica,sans-Serif" font-size="10.00"> elements</text>
</g>
<!-- Node4 -->
<g id="node4" class="node">
<title>Node4</title>
<g id="a_node4"><a xlink:href="structamr__wind_1_1utils_1_1_slice.html" target="_top" xlink:title=" ">
<polygon fill="white" stroke="black" points="324.5,-146.5 324.5,-176.5 445.5,-176.5 445.5,-146.5 324.5,-146.5"/>
<text text-anchor="start" x="332.5" y="-164.5" font-family="Helvetica,sans-Serif" font-size="10.00">amr_wind::utils::Slice</text>
<text text-anchor="middle" x="385" y="-153.5" font-family="Helvetica,sans-Serif" font-size="10.00">&lt; amrex::Real &gt;</text>
</a>
</g>
</g>
<!-- Node4&#45;&gt;Node3 -->
<g id="edge3" class="edge">
<title>Node4&#45;&gt;Node3</title>
<path fill="none" stroke="#9a32cd" stroke-dasharray="5,2" d="M455.74,-161.5C485.84,-161.5 520.55,-161.5 548.76,-161.5"/>
<polygon fill="#9a32cd" stroke="#9a32cd" points="455.72,-158 445.72,-161.5 455.72,-165 455.72,-158"/>
<text text-anchor="middle" x="502.5" y="-164.5" font-family="Helvetica,sans-Serif" font-size="10.00"> chord</text>
</g>
<!-- Node5 -->
<g id="node5" class="node">
<title>Node5</title>
<g id="a_node5"><a xlink:href="structamr__wind_1_1utils_1_1_slice.html" target="_top" xlink:title=" ">
<polygon fill="white" stroke="black" points="0,-152 0,-171 149,-171 149,-152 0,-152"/>
<text text-anchor="middle" x="74.5" y="-159" font-family="Helvetica,sans-Serif" font-size="10.00">amr_wind::utils::Slice&lt; T &gt;</text>
</a>
</g>
</g>
<!-- Node5&#45;&gt;Node4 -->
<g id="edge4" class="edge">
<title>Node5&#45;&gt;Node4</title>
<path fill="none" stroke="orange" stroke-dasharray="5,2" d="M159.26,-161.5C211.53,-161.5 277.56,-161.5 324.49,-161.5"/>
<polygon fill="orange" stroke="orange" points="159,-158 149,-161.5 159,-165 159,-158"/>
<text text-anchor="middle" x="231.5" y="-164.5" font-family="Helvetica,sans-Serif" font-size="10.00"> &lt; amrex::Real &gt;</text>
</g>
<!-- Node6 -->
<g id="node6" class="node">
<title>Node6</title>
<g id="a_node6"><a xlink:href="structamr__wind_1_1utils_1_1_slice.html" target="_top" xlink:title=" ">
<polygon fill="white" stroke="black" points="314,-97.5 314,-127.5 456,-127.5 456,-97.5 314,-97.5"/>
<text text-anchor="start" x="322" y="-115.5" font-family="Helvetica,sans-Serif" font-size="10.00">amr_wind::utils::Slice</text>
<text text-anchor="middle" x="385" y="-104.5" font-family="Helvetica,sans-Serif" font-size="10.00">&lt; amr_wind::vs::Tensor &gt;</text>
</a>
</g>
</g>
<!-- Node5&#45;&gt;Node6 -->
<g id="edge6" class="edge">
<title>Node5&#45;&gt;Node6</title>
<path fill="none" stroke="orange" stroke-dasharray="5,2" d="M143.19,-150.35C151.21,-149.04 159.29,-147.74 167,-146.5 215.95,-138.65 271.14,-130.01 313.62,-123.4"/>
<polygon fill="orange" stroke="orange" points="142.39,-146.93 133.09,-152 143.52,-153.84 142.39,-146.93"/>
<text text-anchor="middle" x="231.5" y="-149.5" font-family="Helvetica,sans-Serif" font-size="10.00"> &lt; amr_wind::vs::Tensor &gt;</text>
</g>
<!-- Node7 -->
<g id="node7" class="node">
<title>Node7</title>
<g id="a_node7"><a xlink:href="structamr__wind_1_1utils_1_1_slice.html" target="_top" xlink:title=" ">
<polygon fill="white" stroke="black" points="314.5,-195.5 314.5,-225.5 455.5,-225.5 455.5,-195.5 314.5,-195.5"/>
<text text-anchor="start" x="322.5" y="-213.5" font-family="Helvetica,sans-Serif" font-size="10.00">amr_wind::utils::Slice</text>
<text text-anchor="middle" x="385" y="-202.5" font-family="Helvetica,sans-Serif" font-size="10.00">&lt; amr_wind::vs::Vector &gt;</text>
</a>
</g>
</g>
<!-- Node5&#45;&gt;Node7 -->
<g id="edge8" class="edge">
<title>Node5&#45;&gt;Node7</title>
<path fill="none" stroke="orange" stroke-dasharray="5,2" d="M143.19,-172.65C151.21,-173.96 159.29,-175.26 167,-176.5 216.14,-184.38 271.57,-193.06 314.11,-199.68"/>
<polygon fill="orange" stroke="orange" points="143.52,-169.16 133.09,-171 142.39,-176.07 143.52,-169.16"/>
<text text-anchor="middle" x="231.5" y="-199.5" font-family="Helvetica,sans-Serif" font-size="10.00"> &lt; amr_wind::vs::Vector &gt;</text>
</g>
<!-- Node6&#45;&gt;Node3 -->
<g id="edge5" class="edge">
<title>Node6&#45;&gt;Node3</title>
<path fill="none" stroke="#9a32cd" stroke-dasharray="5,2" d="M462.66,-129.77C491.13,-136.18 522.83,-143.33 548.93,-149.21"/>
<polygon fill="#9a32cd" stroke="#9a32cd" points="463.26,-126.32 452.74,-127.53 461.72,-133.15 463.26,-126.32"/>
<text text-anchor="middle" x="502.5" y="-146.5" font-family="Helvetica,sans-Serif" font-size="10.00"> orientation</text>
</g>
<!-- Node7&#45;&gt;Node3 -->
<g id="edge7" class="edge">
<title>Node7&#45;&gt;Node3</title>
<path fill="none" stroke="#9a32cd" stroke-dasharray="5,2" d="M462.66,-193.23C491.13,-186.82 522.83,-179.67 548.93,-173.79"/>
<polygon fill="#9a32cd" stroke="#9a32cd" points="461.72,-189.85 452.74,-195.47 463.26,-196.68 461.72,-189.85"/>
<text text-anchor="middle" x="502.5" y="-247.5" font-family="Helvetica,sans-Serif" font-size="10.00"> epsilon</text>
<text text-anchor="middle" x="502.5" y="-236.5" font-family="Helvetica,sans-Serif" font-size="10.00">force</text>
<text text-anchor="middle" x="502.5" y="-225.5" font-family="Helvetica,sans-Serif" font-size="10.00">pos</text>
<text text-anchor="middle" x="502.5" y="-214.5" font-family="Helvetica,sans-Serif" font-size="10.00">vel</text>
<text text-anchor="middle" x="502.5" y="-203.5" font-family="Helvetica,sans-Serif" font-size="10.00">vel_pos</text>
<text text-anchor="middle" x="502.5" y="-192.5" font-family="Helvetica,sans-Serif" font-size="10.00">vel_rel</text>
</g>
<!-- Node8 -->
<g id="node8" class="node">
<title>Node8</title>
<g id="a_node8"><a xlink:title=" ">
<polygon fill="white" stroke="#bfbfbf" points="556,-53 556,-72 653,-72 653,-53 556,-53"/>
<text text-anchor="middle" x="604.5" y="-60" font-family="Helvetica,sans-Serif" font-size="10.00">std::vector&lt; T &gt;</text>
</a>
</g>
</g>
<!-- Node8&#45;&gt;Node2 -->
<g id="edge9" class="edge">
<title>Node8&#45;&gt;Node2</title>
<path fill="none" stroke="orange" stroke-dasharray="5,2" d="M663.23,-71.6C704.18,-78.06 759.66,-86.81 804.82,-93.93"/>
<polygon fill="orange" stroke="orange" points="663.57,-68.11 653.14,-70.01 662.48,-75.03 663.57,-68.11"/>
<text text-anchor="start" x="678" y="-104.5" font-family="Helvetica,sans-Serif" font-size="10.00"> &lt; amr_wind::actuator</text>
<text text-anchor="middle" x="732.5" y="-93.5" font-family="Helvetica,sans-Serif" font-size="10.00">::ComponentView &gt;</text>
</g>
<!-- Node10 -->
<g id="node10" class="node">
<title>Node10</title>
<g id="a_node10"><a xlink:title=" ">
<polygon fill="white" stroke="#bfbfbf" points="821.5,-34.5 821.5,-64.5 949.5,-64.5 949.5,-34.5 821.5,-34.5"/>
<text text-anchor="start" x="829.5" y="-52.5" font-family="Helvetica,sans-Serif" font-size="10.00">std::vector&lt; amr_wind</text>
<text text-anchor="middle" x="885.5" y="-41.5" font-family="Helvetica,sans-Serif" font-size="10.00">::actuator::FLLCData &gt;</text>
</a>
</g>
</g>
<!-- Node8&#45;&gt;Node10 -->
<g id="edge14" class="edge">
<title>Node8&#45;&gt;Node10</title>
<path fill="none" stroke="orange" stroke-dasharray="5,2" d="M663.41,-52.07C668.33,-51.44 673.24,-50.9 678,-50.5 725.87,-46.45 780.2,-46.36 821.12,-47.2"/>
<polygon fill="orange" stroke="orange" points="662.75,-48.63 653.33,-53.48 663.72,-55.56 662.75,-48.63"/>
<text text-anchor="start" x="678" y="-64.5" font-family="Helvetica,sans-Serif" font-size="10.00"> &lt; amr_wind::actuator</text>
<text text-anchor="middle" x="732.5" y="-53.5" font-family="Helvetica,sans-Serif" font-size="10.00">::FLLCData &gt;</text>
</g>
<!-- Node9 -->
<g id="node9" class="node">
<title>Node9</title>
<g id="a_node9"><a xlink:title=" ">
<polygon fill="white" stroke="#bfbfbf" points="370.5,-53 370.5,-72 399.5,-72 399.5,-53 370.5,-53"/>
<text text-anchor="middle" x="385" y="-60" font-family="Helvetica,sans-Serif" font-size="10.00">T</text>
</a>
</g>
</g>
<!-- Node9&#45;&gt;Node8 -->
<g id="edge10" class="edge">
<title>Node9&#45;&gt;Node8</title>
<path fill="none" stroke="#9a32cd" stroke-dasharray="5,2" d="M409.79,-62.5C444.7,-62.5 510.55,-62.5 555.7,-62.5"/>
<polygon fill="#9a32cd" stroke="#9a32cd" points="409.61,-59 399.61,-62.5 409.61,-66 409.61,-59"/>
<text text-anchor="middle" x="502.5" y="-65.5" font-family="Helvetica,sans-Serif" font-size="10.00"> elements</text>
</g>
<!-- Node10&#45;&gt;Node1 -->
<g id="edge12" class="edge">
<title>Node10&#45;&gt;Node1</title>
<path fill="none" stroke="#9a32cd" stroke-dasharray="5,2" d="M950.62,-67.24C978.7,-75.01 1011.3,-84.03 1038.16,-91.46"/>
<polygon fill="#9a32cd" stroke="#9a32cd" points="951.46,-63.84 940.89,-64.55 949.6,-70.59 951.46,-63.84"/>
<text text-anchor="middle" x="1002" y="-88.5" font-family="Helvetica,sans-Serif" font-size="10.00"> fllc</text>
</g>
<!-- Node11 -->
<g id="node11" class="node">
<title>Node11</title>
<g id="a_node11"><a xlink:href="structamr__wind_1_1actuator_1_1_f_l_l_c_data.html" target="_top" xlink:title=" ">
<polygon fill="white" stroke="black" points="549,-0.5 549,-30.5 660,-30.5 660,-0.5 549,-0.5"/>
<text text-anchor="start" x="557" y="-18.5" font-family="Helvetica,sans-Serif" font-size="10.00">amr_wind::actuator</text>
<text text-anchor="middle" x="604.5" y="-7.5" font-family="Helvetica,sans-Serif" font-size="10.00">::FLLCData</text>
</a>
</g>
</g>
<!-- Node11&#45;&gt;Node10 -->
<g id="edge13" class="edge">
<title>Node11&#45;&gt;Node10</title>
<path fill="none" stroke="#9a32cd" stroke-dasharray="5,2" d="M670.05,-20.29C704.78,-23.19 748.31,-27.32 787,-32.5 798.16,-33.99 809.98,-35.83 821.41,-37.75"/>
<polygon fill="#9a32cd" stroke="#9a32cd" points="670.28,-16.8 660.03,-19.47 669.71,-23.78 670.28,-16.8"/>
<text text-anchor="middle" x="732.5" y="-35.5" font-family="Helvetica,sans-Serif" font-size="10.00"> elements</text>
</g>
</g>
</svg>
