<?xml version="1.0" encoding="UTF-8" standalone="no"?>
<!DOCTYPE svg PUBLIC "-//W3C//DTD SVG 1.1//EN"
 "http://www.w3.org/Graphics/SVG/1.1/DTD/svg11.dtd">
<!-- Generated by graphviz version 2.43.0 (0)
 -->
<!-- Title: amr_wind::pde::PostSolveOp&lt; PDE &gt; Pages: 1 -->
<svg width="2066pt" height="684pt"
 viewBox="0.00 0.00 2066.00 684.00" xmlns="http://www.w3.org/2000/svg" xmlns:xlink="http://www.w3.org/1999/xlink">
<g id="graph0" class="graph" transform="scale(1 1) rotate(0) translate(4 680)">
<title>amr_wind::pde::PostSolveOp&lt; PDE &gt;</title>
<polygon fill="white" stroke="transparent" points="-4,4 -4,-680 2062,-680 2062,4 -4,4"/>
<!-- Node1 -->
<g id="node1" class="node">
<title>Node1</title>
<g id="a_node1"><a xlink:title="Actions to be performed after a PDE solve.">
<polygon fill="#bfbfbf" stroke="black" points="1915,-436 1915,-466 2058,-466 2058,-436 1915,-436"/>
<text text-anchor="start" x="1923" y="-454" font-family="Helvetica,sans-Serif" font-size="10.00">amr_wind::pde::PostSolve</text>
<text text-anchor="middle" x="1986.5" y="-443" font-family="Helvetica,sans-Serif" font-size="10.00">Op&lt; PDE &gt;</text>
</a>
</g>
</g>
<!-- Node2 -->
<g id="node2" class="node">
<title>Node2</title>
<g id="a_node2"><a xlink:href="classamr__wind_1_1_c_f_d_sim.html" target="_top" xlink:title="Data structures for a CFD simulation.">
<polygon fill="white" stroke="black" points="1708,-285.5 1708,-304.5 1818,-304.5 1818,-285.5 1708,-285.5"/>
<text text-anchor="middle" x="1763" y="-292.5" font-family="Helvetica,sans-Serif" font-size="10.00">amr_wind::CFDSim</text>
</a>
</g>
</g>
<!-- Node2&#45;&gt;Node1 -->
<g id="edge1" class="edge">
<title>Node2&#45;&gt;Node1</title>
<path fill="none" stroke="#9a32cd" stroke-dasharray="5,2" d="M1785.78,-310.34C1828.28,-340.27 1921.79,-406.13 1964.04,-435.88"/>
<polygon fill="#9a32cd" stroke="#9a32cd" points="1787.71,-307.42 1777.52,-304.52 1783.68,-313.14 1787.71,-307.42"/>
<text text-anchor="middle" x="1866.5" y="-389" font-family="Helvetica,sans-Serif" font-size="10.00"> m_sim</text>
</g>
<!-- Node8 -->
<g id="node8" class="node">
<title>Node8</title>
<g id="a_node8"><a xlink:href="classamr__wind_1_1pde_1_1_p_d_e_mgr.html" target="_top" xlink:title="PDE systems manager.">
<polygon fill="white" stroke="black" points="1920,-74.5 1920,-93.5 2053,-93.5 2053,-74.5 1920,-74.5"/>
<text text-anchor="middle" x="1986.5" y="-81.5" font-family="Helvetica,sans-Serif" font-size="10.00">amr_wind::pde::PDEMgr</text>
</a>
</g>
</g>
<!-- Node2&#45;&gt;Node8 -->
<g id="edge18" class="edge">
<title>Node2&#45;&gt;Node8</title>
<path fill="none" stroke="#9a32cd" stroke-dasharray="5,2" d="M1771.91,-275.96C1783.19,-250.56 1805.9,-205.29 1836,-175 1874.12,-136.63 1931.51,-107.63 1962.94,-93.51"/>
<polygon fill="#9a32cd" stroke="#9a32cd" points="1768.66,-274.67 1767.91,-285.23 1775.09,-277.44 1768.66,-274.67"/>
<text text-anchor="middle" x="1866.5" y="-178" font-family="Helvetica,sans-Serif" font-size="10.00"> m_sim</text>
</g>
<!-- Node3 -->
<g id="node3" class="node">
<title>Node3</title>
<g id="a_node3"><a xlink:title=" ">
<polygon fill="white" stroke="#bfbfbf" points="1393.5,-280 1393.5,-310 1526.5,-310 1526.5,-280 1393.5,-280"/>
<text text-anchor="start" x="1401.5" y="-298" font-family="Helvetica,sans-Serif" font-size="10.00">std::unique_ptr&lt; amr</text>
<text text-anchor="middle" x="1460" y="-287" font-family="Helvetica,sans-Serif" font-size="10.00">_wind::helics_storage &gt;</text>
</a>
</g>
</g>
<!-- Node3&#45;&gt;Node2 -->
<g id="edge2" class="edge">
<title>Node3&#45;&gt;Node2</title>
<path fill="none" stroke="#9a32cd" stroke-dasharray="5,2" d="M1536.75,-295C1589.92,-295 1659.79,-295 1707.53,-295"/>
<polygon fill="#9a32cd" stroke="#9a32cd" points="1536.68,-291.5 1526.68,-295 1536.68,-298.5 1536.68,-291.5"/>
<text text-anchor="middle" x="1625" y="-298" font-family="Helvetica,sans-Serif" font-size="10.00"> m_helics</text>
</g>
<!-- Node4 -->
<g id="node4" class="node">
<title>Node4</title>
<g id="a_node4"><a xlink:title=" ">
<polygon fill="white" stroke="#bfbfbf" points="1037.5,-334.5 1037.5,-353.5 1155.5,-353.5 1155.5,-334.5 1037.5,-334.5"/>
<text text-anchor="middle" x="1096.5" y="-341.5" font-family="Helvetica,sans-Serif" font-size="10.00">std::unique_ptr&lt; T &gt;</text>
</a>
</g>
</g>
<!-- Node4&#45;&gt;Node3 -->
<g id="edge3" class="edge">
<title>Node4&#45;&gt;Node3</title>
<path fill="none" stroke="orange" stroke-dasharray="5,2" d="M1131.92,-331.11C1146.28,-326.23 1163.26,-321.12 1179,-318 1251.49,-303.65 1336.24,-298.23 1393.36,-296.2"/>
<polygon fill="orange" stroke="orange" points="1130.73,-327.82 1122.44,-334.42 1133.04,-334.43 1130.73,-327.82"/>
<text text-anchor="start" x="1221" y="-332" font-family="Helvetica,sans-Serif" font-size="10.00"> &lt; amr_wind::helics</text>
<text text-anchor="middle" x="1269.5" y="-321" font-family="Helvetica,sans-Serif" font-size="10.00">_storage &gt;</text>
</g>
<!-- Node6 -->
<g id="node6" class="node">
<title>Node6</title>
<g id="a_node6"><a xlink:title=" ">
<polygon fill="white" stroke="#bfbfbf" points="1400,-192 1400,-222 1520,-222 1520,-192 1400,-192"/>
<text text-anchor="start" x="1408" y="-210" font-family="Helvetica,sans-Serif" font-size="10.00">std::unique_ptr&lt; amr</text>
<text text-anchor="middle" x="1460" y="-199" font-family="Helvetica,sans-Serif" font-size="10.00">_wind::IOManager &gt;</text>
</a>
</g>
</g>
<!-- Node4&#45;&gt;Node6 -->
<g id="edge6" class="edge">
<title>Node4&#45;&gt;Node6</title>
<path fill="none" stroke="orange" stroke-dasharray="5,2" d="M1115.47,-327.01C1131.13,-313.06 1155.03,-293.76 1179,-282 1250.84,-246.76 1341.45,-226.36 1399.81,-215.97"/>
<polygon fill="orange" stroke="orange" points="1112.7,-324.8 1107.67,-334.12 1117.42,-329.97 1112.7,-324.8"/>
<text text-anchor="middle" x="1269.5" y="-285" font-family="Helvetica,sans-Serif" font-size="10.00"> &lt; amr_wind::IOManager &gt;</text>
</g>
<!-- Node7 -->
<g id="node7" class="node">
<title>Node7</title>
<g id="a_node7"><a xlink:title=" ">
<polygon fill="white" stroke="#bfbfbf" points="1378,-143 1378,-173 1542,-173 1542,-143 1378,-143"/>
<text text-anchor="start" x="1386" y="-161" font-family="Helvetica,sans-Serif" font-size="10.00">std::unique_ptr&lt; amr</text>
<text text-anchor="middle" x="1460" y="-150" font-family="Helvetica,sans-Serif" font-size="10.00">_wind::PostProcessManager &gt;</text>
</a>
</g>
</g>
<!-- Node4&#45;&gt;Node7 -->
<g id="edge8" class="edge">
<title>Node4&#45;&gt;Node7</title>
<path fill="none" stroke="orange" stroke-dasharray="5,2" d="M1103.46,-324.5C1113.71,-294.5 1137.66,-237.52 1179,-209 1237.26,-168.81 1317.99,-157.63 1377.81,-155.57"/>
<polygon fill="orange" stroke="orange" points="1100.06,-323.64 1100.3,-334.23 1106.72,-325.8 1100.06,-323.64"/>
<text text-anchor="middle" x="1269.5" y="-212" font-family="Helvetica,sans-Serif" font-size="10.00"> &lt; amr_wind::PostProcessManager &gt;</text>
</g>
<!-- Node16 -->
<g id="node16" class="node">
<title>Node16</title>
<g id="a_node16"><a xlink:title=" ">
<polygon fill="white" stroke="#bfbfbf" points="1560,-65 1560,-95 1690,-95 1690,-65 1560,-65"/>
<text text-anchor="start" x="1568" y="-83" font-family="Helvetica,sans-Serif" font-size="10.00">std::unique_ptr&lt; amr</text>
<text text-anchor="middle" x="1625" y="-72" font-family="Helvetica,sans-Serif" font-size="10.00">_wind::pde::PDEBase &gt;</text>
</a>
</g>
</g>
<!-- Node4&#45;&gt;Node16 -->
<g id="edge21" class="edge">
<title>Node4&#45;&gt;Node16</title>
<path fill="none" stroke="orange" stroke-dasharray="5,2" d="M1099.52,-324.2C1104.77,-283.54 1122.62,-190.42 1179,-142 1286.25,-49.88 1464.7,-57.13 1559.77,-69.21"/>
<polygon fill="orange" stroke="orange" points="1096.04,-323.85 1098.36,-334.19 1102.99,-324.67 1096.04,-323.85"/>
<text text-anchor="middle" x="1269.5" y="-145" font-family="Helvetica,sans-Serif" font-size="10.00"> &lt; amr_wind::pde::PDEBase &gt;</text>
</g>
<!-- Node18 -->
<g id="node18" class="node">
<title>Node18</title>
<g id="a_node18"><a xlink:title=" ">
<polygon fill="white" stroke="#bfbfbf" points="1388.5,-488 1388.5,-518 1531.5,-518 1531.5,-488 1388.5,-488"/>
<text text-anchor="start" x="1396.5" y="-506" font-family="Helvetica,sans-Serif" font-size="10.00">std::unique_ptr&lt; amr</text>
<text text-anchor="middle" x="1460" y="-495" font-family="Helvetica,sans-Serif" font-size="10.00">_wind::OversetManager &gt;</text>
</a>
</g>
</g>
<!-- Node4&#45;&gt;Node18 -->
<g id="edge24" class="edge">
<title>Node4&#45;&gt;Node18</title>
<path fill="none" stroke="orange" stroke-dasharray="5,2" d="M1104.53,-363.25C1115.7,-390.83 1140.27,-440.91 1179,-465 1242,-504.19 1328.3,-510.34 1388.37,-508.8"/>
<polygon fill="orange" stroke="orange" points="1107.66,-361.64 1100.79,-353.57 1101.13,-364.16 1107.66,-361.64"/>
<text text-anchor="middle" x="1269.5" y="-511" font-family="Helvetica,sans-Serif" font-size="10.00"> &lt; amr_wind::OversetManager &gt;</text>
</g>
<!-- Node19 -->
<g id="node19" class="node">
<title>Node19</title>
<g id="a_node19"><a xlink:title=" ">
<polygon fill="white" stroke="#bfbfbf" points="1379.5,-427.5 1379.5,-468.5 1540.5,-468.5 1540.5,-427.5 1379.5,-427.5"/>
<text text-anchor="start" x="1387.5" y="-456.5" font-family="Helvetica,sans-Serif" font-size="10.00">std::unique_ptr&lt; amr</text>
<text text-anchor="start" x="1387.5" y="-445.5" font-family="Helvetica,sans-Serif" font-size="10.00">_wind::turbulence::Turbulence</text>
<text text-anchor="middle" x="1460" y="-434.5" font-family="Helvetica,sans-Serif" font-size="10.00">Model &gt;</text>
</a>
</g>
</g>
<!-- Node4&#45;&gt;Node19 -->
<g id="edge26" class="edge">
<title>Node4&#45;&gt;Node19</title>
<path fill="none" stroke="orange" stroke-dasharray="5,2" d="M1117.04,-359.91C1132.82,-371.95 1156.11,-387.9 1179,-397 1243.74,-422.74 1322.11,-435.59 1379.45,-441.95"/>
<polygon fill="orange" stroke="orange" points="1119.12,-357.1 1109.09,-353.7 1114.81,-362.62 1119.12,-357.1"/>
<text text-anchor="start" x="1209" y="-453" font-family="Helvetica,sans-Serif" font-size="10.00"> &lt; amr_wind::turbulence</text>
<text text-anchor="middle" x="1269.5" y="-442" font-family="Helvetica,sans-Serif" font-size="10.00">::TurbulenceModel &gt;</text>
</g>
<!-- Node22 -->
<g id="node22" class="node">
<title>Node22</title>
<g id="a_node22"><a xlink:title=" ">
<polygon fill="white" stroke="#bfbfbf" points="1400,-378 1400,-408 1520,-408 1520,-378 1400,-378"/>
<text text-anchor="start" x="1408" y="-396" font-family="Helvetica,sans-Serif" font-size="10.00">std::unique_ptr&lt; amr</text>
<text text-anchor="middle" x="1460" y="-385" font-family="Helvetica,sans-Serif" font-size="10.00">_wind::MeshMap &gt;</text>
</a>
</g>
</g>
<!-- Node4&#45;&gt;Node22 -->
<g id="edge32" class="edge">
<title>Node4&#45;&gt;Node22</title>
<path fill="none" stroke="orange" stroke-dasharray="5,2" d="M1156.43,-355.29C1164.01,-356.61 1171.68,-357.88 1179,-359 1255,-370.6 1343.09,-380.76 1399.86,-386.88"/>
<polygon fill="orange" stroke="orange" points="1157.01,-351.83 1146.55,-353.53 1155.78,-358.73 1157.01,-351.83"/>
<text text-anchor="middle" x="1269.5" y="-385" font-family="Helvetica,sans-Serif" font-size="10.00"> &lt; amr_wind::MeshMap &gt;</text>
</g>
<!-- Node23 -->
<g id="node23" class="node">
<title>Node23</title>
<g id="a_node23"><a xlink:title=" ">
<polygon fill="white" stroke="#bfbfbf" points="1396,-329 1396,-359 1524,-359 1524,-329 1396,-329"/>
<text text-anchor="start" x="1404" y="-347" font-family="Helvetica,sans-Serif" font-size="10.00">std::unique_ptr&lt; amr</text>
<text text-anchor="middle" x="1460" y="-336" font-family="Helvetica,sans-Serif" font-size="10.00">_wind::ExtSolverMgr &gt;</text>
</a>
</g>
</g>
<!-- Node4&#45;&gt;Node23 -->
<g id="edge34" class="edge">
<title>Node4&#45;&gt;Node23</title>
<path fill="none" stroke="orange" stroke-dasharray="5,2" d="M1165.91,-344C1232.09,-344 1331.57,-344 1395.9,-344"/>
<polygon fill="orange" stroke="orange" points="1165.58,-340.5 1155.58,-344 1165.58,-347.5 1165.58,-340.5"/>
<text text-anchor="middle" x="1269.5" y="-347" font-family="Helvetica,sans-Serif" font-size="10.00"> &lt; amr_wind::ExtSolverMgr &gt;</text>
</g>
<!-- Node5 -->
<g id="node5" class="node">
<title>Node5</title>
<g id="a_node5"><a xlink:title=" ">
<polygon fill="white" stroke="#bfbfbf" points="37.5,-530.5 37.5,-549.5 66.5,-549.5 66.5,-530.5 37.5,-530.5"/>
<text text-anchor="middle" x="52" y="-537.5" font-family="Helvetica,sans-Serif" font-size="10.00">T</text>
</a>
</g>
</g>
<!-- Node5&#45;&gt;Node4 -->
<g id="edge4" class="edge">
<title>Node5&#45;&gt;Node4</title>
<path fill="none" stroke="#9a32cd" stroke-dasharray="5,2" d="M77.13,-540.85C152.96,-543.06 393,-546.47 587,-510 780.94,-473.54 1003.28,-383.23 1073.24,-353.59"/>
<polygon fill="#9a32cd" stroke="#9a32cd" points="76.88,-537.34 66.77,-540.53 76.66,-544.34 76.88,-537.34"/>
<text text-anchor="middle" x="526" y="-530" font-family="Helvetica,sans-Serif" font-size="10.00"> ptr</text>
</g>
<!-- Node14 -->
<g id="node14" class="node">
<title>Node14</title>
<g id="a_node14"><a xlink:title=" ">
<polygon fill="white" stroke="#bfbfbf" points="191,-466 191,-496 305,-496 305,-466 191,-466"/>
<text text-anchor="start" x="199" y="-484" font-family="Helvetica,sans-Serif" font-size="10.00">std::unordered_map</text>
<text text-anchor="middle" x="248" y="-473" font-family="Helvetica,sans-Serif" font-size="10.00">&lt; K, T &gt;</text>
</a>
</g>
</g>
<!-- Node5&#45;&gt;Node14 -->
<g id="edge17" class="edge">
<title>Node5&#45;&gt;Node14</title>
<path fill="none" stroke="#9a32cd" stroke-dasharray="5,2" d="M76,-531.13C89.34,-526.12 106.51,-519.9 122,-515 144.3,-507.94 169.11,-501.01 190.71,-495.26"/>
<polygon fill="#9a32cd" stroke="#9a32cd" points="74.74,-527.87 66.63,-534.69 77.22,-534.41 74.74,-527.87"/>
<text text-anchor="middle" x="146.5" y="-518" font-family="Helvetica,sans-Serif" font-size="10.00"> elements</text>
</g>
<!-- Node29 -->
<g id="node29" class="node">
<title>Node29</title>
<g id="a_node29"><a xlink:title=" ">
<polygon fill="white" stroke="#bfbfbf" points="189,-596.5 189,-615.5 307,-615.5 307,-596.5 189,-596.5"/>
<text text-anchor="middle" x="248" y="-603.5" font-family="Helvetica,sans-Serif" font-size="10.00">std::shared_ptr&lt; T &gt;</text>
</a>
</g>
</g>
<!-- Node5&#45;&gt;Node29 -->
<g id="edge42" class="edge">
<title>Node5&#45;&gt;Node29</title>
<path fill="none" stroke="#9a32cd" stroke-dasharray="5,2" d="M76.23,-547.9C112.04,-560.09 180.6,-583.41 219.07,-596.5"/>
<polygon fill="#9a32cd" stroke="#9a32cd" points="77.24,-544.55 66.64,-544.64 74.98,-551.18 77.24,-544.55"/>
<text text-anchor="middle" x="146.5" y="-581" font-family="Helvetica,sans-Serif" font-size="10.00"> ptr</text>
</g>
<!-- Node6&#45;&gt;Node2 -->
<g id="edge5" class="edge">
<title>Node6&#45;&gt;Node2</title>
<path fill="none" stroke="#9a32cd" stroke-dasharray="5,2" d="M1530.21,-211.59C1576.73,-216.46 1638.68,-226.47 1690,-247 1713.43,-256.37 1737.12,-274.12 1750.63,-285.21"/>
<polygon fill="#9a32cd" stroke="#9a32cd" points="1530.53,-208.1 1520.23,-210.6 1529.84,-215.07 1530.53,-208.1"/>
<text text-anchor="middle" x="1625" y="-250" font-family="Helvetica,sans-Serif" font-size="10.00"> m_io_mgr</text>
</g>
<!-- Node7&#45;&gt;Node2 -->
<g id="edge7" class="edge">
<title>Node7&#45;&gt;Node2</title>
<path fill="none" stroke="#9a32cd" stroke-dasharray="5,2" d="M1552.38,-159.55C1596.69,-163.94 1649.05,-174.79 1690,-200 1724.54,-221.26 1748.4,-265.65 1757.68,-285.29"/>
<polygon fill="#9a32cd" stroke="#9a32cd" points="1552.46,-156.04 1542.19,-158.64 1551.83,-163.01 1552.46,-156.04"/>
<text text-anchor="middle" x="1625" y="-203" font-family="Helvetica,sans-Serif" font-size="10.00"> m_post_mgr</text>
</g>
<!-- Node8&#45;&gt;Node2 -->
<g id="edge9" class="edge">
<title>Node8&#45;&gt;Node2</title>
<path fill="none" stroke="#9a32cd" stroke-dasharray="5,2" d="M1972.54,-101.69C1956.13,-123.55 1926.45,-161.35 1897,-190 1856.94,-228.98 1803.08,-267.94 1777.97,-285.43"/>
<polygon fill="#9a32cd" stroke="#9a32cd" points="1975.37,-103.75 1978.53,-93.63 1969.75,-99.57 1975.37,-103.75"/>
<text text-anchor="middle" x="1866.5" y="-244" font-family="Helvetica,sans-Serif" font-size="10.00"> m_pde_mgr</text>
</g>
<!-- Node9 -->
<g id="node9" class="node">
<title>Node9</title>
<g id="a_node9"><a xlink:href="classamr__wind_1_1_coll_mgr.html" target="_top" xlink:title=" ">
<polygon fill="white" stroke="black" points="1210,-23 1210,-53 1329,-53 1329,-23 1210,-23"/>
<text text-anchor="start" x="1218" y="-41" font-family="Helvetica,sans-Serif" font-size="10.00">amr_wind::CollMgr&lt;</text>
<text text-anchor="middle" x="1269.5" y="-30" font-family="Helvetica,sans-Serif" font-size="10.00"> PDEMgr, PDEBase &gt;</text>
</a>
</g>
</g>
<!-- Node9&#45;&gt;Node8 -->
<g id="edge10" class="edge">
<title>Node9&#45;&gt;Node8</title>
<path fill="none" stroke="midnightblue" d="M1339.35,-39.58C1422.51,-41.77 1566.62,-46.45 1690,-55 1769.19,-60.49 1860.04,-69.87 1919.87,-76.47"/>
<polygon fill="midnightblue" stroke="midnightblue" points="1339.35,-36.08 1329.27,-39.32 1339.17,-43.08 1339.35,-36.08"/>
</g>
<!-- Node10 -->
<g id="node10" class="node">
<title>Node10</title>
<g id="a_node10"><a xlink:href="classamr__wind_1_1_coll_mgr.html" target="_top" xlink:title="Interface to manage objects of sub&#45;classes based on factory registration.">
<polygon fill="white" stroke="black" points="743,-62.5 743,-103.5 872,-103.5 872,-62.5 743,-62.5"/>
<text text-anchor="start" x="751" y="-91.5" font-family="Helvetica,sans-Serif" font-size="10.00">amr_wind::CollMgr&lt;</text>
<text text-anchor="start" x="751" y="-80.5" font-family="Helvetica,sans-Serif" font-size="10.00"> Collection, Type, allow</text>
<text text-anchor="middle" x="807.5" y="-69.5" font-family="Helvetica,sans-Serif" font-size="10.00">_duplicates &gt;</text>
</a>
</g>
</g>
<!-- Node10&#45;&gt;Node9 -->
<g id="edge11" class="edge">
<title>Node10&#45;&gt;Node9</title>
<path fill="none" stroke="orange" stroke-dasharray="5,2" d="M881.94,-69.12C884.66,-68.72 887.35,-68.35 890,-68 1002.74,-53.2 1135.4,-44.72 1209.95,-40.77"/>
<polygon fill="orange" stroke="orange" points="881.37,-65.67 872.02,-70.66 882.44,-72.59 881.37,-65.67"/>
<text text-anchor="middle" x="952" y="-71" font-family="Helvetica,sans-Serif" font-size="10.00"> &lt; PDEMgr, PDEBase &gt;</text>
</g>
<!-- Node25 -->
<g id="node25" class="node">
<title>Node25</title>
<g id="a_node25"><a xlink:href="classamr__wind_1_1_coll_mgr.html" target="_top" xlink:title=" ">
<polygon fill="white" stroke="black" points="1032,-68 1032,-98 1161,-98 1161,-68 1032,-68"/>
<text text-anchor="start" x="1040" y="-86" font-family="Helvetica,sans-Serif" font-size="10.00">amr_wind::CollMgr&lt;</text>
<text text-anchor="middle" x="1096.5" y="-75" font-family="Helvetica,sans-Serif" font-size="10.00"> PhysicsMgr, Physics &gt;</text>
</a>
</g>
</g>
<!-- Node10&#45;&gt;Node25 -->
<g id="edge37" class="edge">
<title>Node10&#45;&gt;Node25</title>
<path fill="none" stroke="orange" stroke-dasharray="5,2" d="M882.47,-83C928.77,-83 987.81,-83 1031.98,-83"/>
<polygon fill="orange" stroke="orange" points="882.19,-79.5 872.19,-83 882.19,-86.5 882.19,-79.5"/>
<text text-anchor="middle" x="952" y="-86" font-family="Helvetica,sans-Serif" font-size="10.00"> &lt; PhysicsMgr, Physics &gt;</text>
</g>
<!-- Node11 -->
<g id="node11" class="node">
<title>Node11</title>
<g id="a_node11"><a xlink:title=" ">
<polygon fill="white" stroke="#bfbfbf" points="469,-368 469,-398 583,-398 583,-368 469,-368"/>
<text text-anchor="start" x="477" y="-386" font-family="Helvetica,sans-Serif" font-size="10.00">std::unordered_map</text>
<text text-anchor="middle" x="526" y="-375" font-family="Helvetica,sans-Serif" font-size="10.00">&lt; std::string, int &gt;</text>
</a>
</g>
</g>
<!-- Node11&#45;&gt;Node10 -->
<g id="edge12" class="edge">
<title>Node11&#45;&gt;Node10</title>
<path fill="none" stroke="#9a32cd" stroke-dasharray="5,2" d="M548.09,-360.37C600.63,-303.97 736.79,-157.83 787.28,-103.63"/>
<polygon fill="#9a32cd" stroke="#9a32cd" points="545.5,-358.01 541.24,-367.71 550.62,-362.78 545.5,-358.01"/>
<text text-anchor="middle" x="665" y="-297" font-family="Helvetica,sans-Serif" font-size="10.00"> m_obj_map</text>
</g>
<!-- Node12 -->
<g id="node12" class="node">
<title>Node12</title>
<g id="a_node12"><a xlink:title=" ">
<polygon fill="white" stroke="#bfbfbf" points="215.5,-400.5 215.5,-419.5 280.5,-419.5 280.5,-400.5 215.5,-400.5"/>
<text text-anchor="middle" x="248" y="-407.5" font-family="Helvetica,sans-Serif" font-size="10.00">std::string</text>
</a>
</g>
</g>
<!-- Node12&#45;&gt;Node8 -->
<g id="edge19" class="edge">
<title>Node12&#45;&gt;Node8</title>
<path fill="none" stroke="#9a32cd" stroke-dasharray="5,2" d="M252.22,-390.29C266.81,-308.48 334.46,0 525,0 525,0 525,0 1764,0 1847.08,0 1936.96,-52.3 1971.18,-74.36"/>
<polygon fill="#9a32cd" stroke="#9a32cd" points="248.75,-389.82 250.51,-400.27 255.65,-391.01 248.75,-389.82"/>
<text text-anchor="middle" x="1096.5" y="-3" font-family="Helvetica,sans-Serif" font-size="10.00"> m_scheme</text>
</g>
<!-- Node12&#45;&gt;Node11 -->
<g id="edge13" class="edge">
<title>Node12&#45;&gt;Node11</title>
<path fill="none" stroke="#9a32cd" stroke-dasharray="5,2" d="M280.11,-396.8C293.64,-391.74 309.84,-386.56 325,-384 373.1,-375.88 428.65,-376.37 468.98,-378.47"/>
<polygon fill="#9a32cd" stroke="#9a32cd" points="278.84,-393.54 270.79,-400.43 281.38,-400.07 278.84,-393.54"/>
<text text-anchor="middle" x="386" y="-387" font-family="Helvetica,sans-Serif" font-size="10.00"> keys</text>
</g>
<!-- Node21 -->
<g id="node21" class="node">
<title>Node21</title>
<g id="a_node21"><a xlink:title=" ">
<polygon fill="white" stroke="#bfbfbf" points="465,-470 465,-500 587,-500 587,-470 465,-470"/>
<text text-anchor="start" x="473" y="-488" font-family="Helvetica,sans-Serif" font-size="10.00">std::unordered_map</text>
<text text-anchor="middle" x="526" y="-477" font-family="Helvetica,sans-Serif" font-size="10.00">&lt; std::string, size_t &gt;</text>
</a>
</g>
</g>
<!-- Node12&#45;&gt;Node21 -->
<g id="edge29" class="edge">
<title>Node12&#45;&gt;Node21</title>
<path fill="none" stroke="#9a32cd" stroke-dasharray="5,2" d="M290.35,-421.24C338.07,-434.2 416.76,-455.59 469.7,-469.97"/>
<polygon fill="#9a32cd" stroke="#9a32cd" points="291.23,-417.85 280.66,-418.6 289.39,-424.6 291.23,-417.85"/>
<text text-anchor="middle" x="386" y="-465" font-family="Helvetica,sans-Serif" font-size="10.00"> keys</text>
</g>
<!-- Node27 -->
<g id="node27" class="node">
<title>Node27</title>
<g id="a_node27"><a xlink:href="classamr__wind_1_1_field.html" target="_top" xlink:title="Computational field.">
<polygon fill="white" stroke="black" points="1049.5,-618.5 1049.5,-637.5 1143.5,-637.5 1143.5,-618.5 1049.5,-618.5"/>
<text text-anchor="middle" x="1096.5" y="-625.5" font-family="Helvetica,sans-Serif" font-size="10.00">amr_wind::Field</text>
</a>
</g>
</g>
<!-- Node12&#45;&gt;Node27 -->
<g id="edge43" class="edge">
<title>Node12&#45;&gt;Node27</title>
<path fill="none" stroke="#9a32cd" stroke-dasharray="5,2" d="M272.86,-425.33C284.34,-433.62 297.6,-444.68 307,-457 319.07,-472.82 310.7,-484.16 325,-498 373.17,-544.59 400.22,-536.82 465,-554 678.33,-610.57 943.7,-623.92 1049.17,-627.05"/>
<polygon fill="#9a32cd" stroke="#9a32cd" points="274.74,-422.37 264.53,-419.55 270.75,-428.13 274.74,-422.37"/>
<text text-anchor="middle" x="665" y="-604" font-family="Helvetica,sans-Serif" font-size="10.00"> m_name</text>
</g>
<!-- Node13 -->
<g id="node13" class="node">
<title>Node13</title>
<g id="a_node13"><a xlink:title=" ">
<polygon fill="white" stroke="#bfbfbf" points="0,-395 0,-425 104,-425 104,-395 0,-395"/>
<text text-anchor="start" x="8" y="-413" font-family="Helvetica,sans-Serif" font-size="10.00">std::basic_string&lt;</text>
<text text-anchor="middle" x="52" y="-402" font-family="Helvetica,sans-Serif" font-size="10.00"> Char &gt;</text>
</a>
</g>
</g>
<!-- Node13&#45;&gt;Node12 -->
<g id="edge14" class="edge">
<title>Node13&#45;&gt;Node12</title>
<path fill="none" stroke="midnightblue" d="M114.39,-410C147.91,-410 188.01,-410 215.27,-410"/>
<polygon fill="midnightblue" stroke="midnightblue" points="114.23,-406.5 104.22,-410 114.22,-413.5 114.23,-406.5"/>
</g>
<!-- Node14&#45;&gt;Node11 -->
<g id="edge15" class="edge">
<title>Node14&#45;&gt;Node11</title>
<path fill="none" stroke="orange" stroke-dasharray="5,2" d="M272.51,-458.82C290.29,-442.52 313.53,-422.32 325,-417 331.56,-413.96 412.03,-400.82 468.87,-391.8"/>
<polygon fill="orange" stroke="orange" points="269.75,-456.61 264.78,-465.97 274.5,-461.75 269.75,-456.61"/>
<text text-anchor="middle" x="386" y="-420" font-family="Helvetica,sans-Serif" font-size="10.00"> &lt; std::string, int &gt;</text>
</g>
<!-- Node14&#45;&gt;Node21 -->
<g id="edge30" class="edge">
<title>Node14&#45;&gt;Node21</title>
<path fill="none" stroke="orange" stroke-dasharray="5,2" d="M315.23,-481.96C360.66,-482.62 420.46,-483.48 464.59,-484.12"/>
<polygon fill="orange" stroke="orange" points="315.24,-478.46 305.19,-481.81 315.13,-485.46 315.24,-478.46"/>
<text text-anchor="middle" x="386" y="-486" font-family="Helvetica,sans-Serif" font-size="10.00"> &lt; std::string, size_t &gt;</text>
</g>
<!-- Node15 -->
<g id="node15" class="node">
<title>Node15</title>
<g id="a_node15"><a xlink:title=" ">
<polygon fill="white" stroke="#bfbfbf" points="37.5,-470.5 37.5,-489.5 66.5,-489.5 66.5,-470.5 37.5,-470.5"/>
<text text-anchor="middle" x="52" y="-477.5" font-family="Helvetica,sans-Serif" font-size="10.00">K</text>
</a>
</g>
</g>
<!-- Node15&#45;&gt;Node14 -->
<g id="edge16" class="edge">
<title>Node15&#45;&gt;Node14</title>
<path fill="none" stroke="#9a32cd" stroke-dasharray="5,2" d="M76.78,-480.12C105.03,-480.27 153.11,-480.52 190.98,-480.71"/>
<polygon fill="#9a32cd" stroke="#9a32cd" points="76.66,-476.62 66.64,-480.07 76.62,-483.62 76.66,-476.62"/>
<text text-anchor="middle" x="146.5" y="-483" font-family="Helvetica,sans-Serif" font-size="10.00"> keys</text>
</g>
<!-- Node16&#45;&gt;Node8 -->
<g id="edge20" class="edge">
<title>Node16&#45;&gt;Node8</title>
<path fill="none" stroke="#9a32cd" stroke-dasharray="5,2" d="M1700.41,-80.83C1765.13,-81.55 1858,-82.58 1919.96,-83.27"/>
<polygon fill="#9a32cd" stroke="#9a32cd" points="1700.31,-77.33 1690.27,-80.72 1700.23,-84.33 1700.31,-77.33"/>
<text text-anchor="middle" x="1763" y="-86" font-family="Helvetica,sans-Serif" font-size="10.00"> m_icns</text>
</g>
<!-- Node17 -->
<g id="node17" class="node">
<title>Node17</title>
<g id="a_node17"><a xlink:href="classamr__wind_1_1_sim_time.html" target="_top" xlink:title="Time manager for simulations.">
<polygon fill="white" stroke="black" points="1403,-241.5 1403,-260.5 1517,-260.5 1517,-241.5 1403,-241.5"/>
<text text-anchor="middle" x="1460" y="-248.5" font-family="Helvetica,sans-Serif" font-size="10.00">amr_wind::SimTime</text>
</a>
</g>
</g>
<!-- Node17&#45;&gt;Node2 -->
<g id="edge22" class="edge">
<title>Node17&#45;&gt;Node2</title>
<path fill="none" stroke="#9a32cd" stroke-dasharray="5,2" d="M1527.28,-257.98C1573.12,-263.16 1635.43,-270.88 1690,-280 1699.45,-281.58 1709.54,-283.52 1719.08,-285.48"/>
<polygon fill="#9a32cd" stroke="#9a32cd" points="1527.51,-254.49 1517.18,-256.85 1526.73,-261.44 1527.51,-254.49"/>
<text text-anchor="middle" x="1625" y="-283" font-family="Helvetica,sans-Serif" font-size="10.00"> m_time</text>
</g>
<!-- Node18&#45;&gt;Node2 -->
<g id="edge23" class="edge">
<title>Node18&#45;&gt;Node2</title>
<path fill="none" stroke="#9a32cd" stroke-dasharray="5,2" d="M1541.63,-503.71C1589.39,-500.17 1648.48,-488.39 1690,-455 1739.85,-414.91 1756.36,-332.93 1760.69,-304.76"/>
<polygon fill="#9a32cd" stroke="#9a32cd" points="1541.38,-500.22 1531.62,-504.35 1541.82,-507.2 1541.38,-500.22"/>
<text text-anchor="middle" x="1625" y="-504" font-family="Helvetica,sans-Serif" font-size="10.00"> m_overset_mgr</text>
</g>
<!-- Node19&#45;&gt;Node2 -->
<g id="edge25" class="edge">
<title>Node19&#45;&gt;Node2</title>
<path fill="none" stroke="#9a32cd" stroke-dasharray="5,2" d="M1550.74,-442.13C1595.61,-435.66 1648.94,-422.32 1690,-395 1725.09,-371.65 1748.81,-325.02 1757.88,-304.77"/>
<polygon fill="#9a32cd" stroke="#9a32cd" points="1550.16,-438.67 1540.72,-443.48 1551.1,-445.61 1550.16,-438.67"/>
<text text-anchor="middle" x="1625" y="-443" font-family="Helvetica,sans-Serif" font-size="10.00"> m_turbulence</text>
</g>
<!-- Node20 -->
<g id="node20" class="node">
<title>Node20</title>
<g id="a_node20"><a xlink:href="classamr__wind_1_1_field_repo.html" target="_top" xlink:title="Field Repository.">
<polygon fill="white" stroke="black" points="748,-556.5 748,-575.5 867,-575.5 867,-556.5 748,-556.5"/>
<text text-anchor="middle" x="807.5" y="-563.5" font-family="Helvetica,sans-Serif" font-size="10.00">amr_wind::FieldRepo</text>
</a>
</g>
</g>
<!-- Node20&#45;&gt;Node2 -->
<g id="edge27" class="edge">
<title>Node20&#45;&gt;Node2</title>
<path fill="none" stroke="#9a32cd" stroke-dasharray="5,2" d="M877.47,-564.24C1079.57,-558.79 1658.26,-541.06 1690,-516 1759.04,-461.48 1762.71,-339.56 1762.28,-304.56"/>
<polygon fill="#9a32cd" stroke="#9a32cd" points="877.17,-560.74 867.27,-564.51 877.36,-567.74 877.17,-560.74"/>
<text text-anchor="middle" x="1269.5" y="-557" font-family="Helvetica,sans-Serif" font-size="10.00"> m_repo</text>
</g>
<!-- Node26 -->
<g id="node26" class="node">
<title>Node26</title>
<g id="a_node26"><a xlink:href="structamr__wind_1_1pde_1_1_p_d_e_fields.html" target="_top" xlink:title="Collection of fields related to a PDE.">
<polygon fill="white" stroke="black" points="1388.5,-579.5 1388.5,-598.5 1531.5,-598.5 1531.5,-579.5 1388.5,-579.5"/>
<text text-anchor="middle" x="1460" y="-586.5" font-family="Helvetica,sans-Serif" font-size="10.00">amr_wind::pde::PDEFields</text>
</a>
</g>
</g>
<!-- Node20&#45;&gt;Node26 -->
<g id="edge45" class="edge">
<title>Node20&#45;&gt;Node26</title>
<path fill="none" stroke="#9a32cd" stroke-dasharray="5,2" d="M877.25,-568.43C1001.65,-572.83 1262.82,-582.06 1388.49,-586.51"/>
<polygon fill="#9a32cd" stroke="#9a32cd" points="877.2,-564.93 867.09,-568.07 876.96,-571.92 877.2,-564.93"/>
<text text-anchor="middle" x="1096.5" y="-581" font-family="Helvetica,sans-Serif" font-size="10.00"> repo</text>
</g>
<!-- Node20&#45;&gt;Node27 -->
<g id="edge44" class="edge">
<title>Node20&#45;&gt;Node27</title>
<path fill="none" stroke="#9a32cd" stroke-dasharray="5,2" d="M877.47,-577.05C926.76,-585.15 988.66,-595.77 1014,-602 1032.46,-606.54 1052.84,-613.04 1068.6,-618.4"/>
<polygon fill="#9a32cd" stroke="#9a32cd" points="877.91,-573.58 867.48,-575.42 876.78,-580.49 877.91,-573.58"/>
<text text-anchor="middle" x="952" y="-605" font-family="Helvetica,sans-Serif" font-size="10.00"> m_repo</text>
</g>
<!-- Node21&#45;&gt;Node20 -->
<g id="edge28" class="edge">
<title>Node21&#45;&gt;Node20</title>
<path fill="none" stroke="#9a32cd" stroke-dasharray="5,2" d="M588.55,-502.84C645.6,-519.37 728.3,-543.34 773.66,-556.48"/>
<polygon fill="#9a32cd" stroke="#9a32cd" points="589.5,-499.47 578.92,-500.05 587.55,-506.19 589.5,-499.47"/>
<text text-anchor="middle" x="665" y="-556" font-family="Helvetica,sans-Serif" font-size="10.00"> m_fid_map</text>
<text text-anchor="middle" x="665" y="-545" font-family="Helvetica,sans-Serif" font-size="10.00">m_int_fid_map</text>
</g>
<!-- Node22&#45;&gt;Node2 -->
<g id="edge31" class="edge">
<title>Node22&#45;&gt;Node2</title>
<path fill="none" stroke="#9a32cd" stroke-dasharray="5,2" d="M1530.3,-385.27C1576.85,-378.39 1638.81,-365.9 1690,-344 1713.36,-334.01 1737.06,-316.03 1750.6,-304.85"/>
<polygon fill="#9a32cd" stroke="#9a32cd" points="1529.71,-381.82 1520.31,-386.7 1530.7,-388.75 1529.71,-381.82"/>
<text text-anchor="middle" x="1625" y="-383" font-family="Helvetica,sans-Serif" font-size="10.00"> m_mesh_map</text>
</g>
<!-- Node23&#45;&gt;Node2 -->
<g id="edge33" class="edge">
<title>Node23&#45;&gt;Node2</title>
<path fill="none" stroke="#9a32cd" stroke-dasharray="5,2" d="M1534.31,-334.22C1579.34,-327.94 1638.13,-319.25 1690,-310 1699.18,-308.36 1708.97,-306.44 1718.29,-304.53"/>
<polygon fill="#9a32cd" stroke="#9a32cd" points="1533.76,-330.76 1524.34,-335.6 1534.73,-337.69 1533.76,-330.76"/>
<text text-anchor="middle" x="1625" y="-332" font-family="Helvetica,sans-Serif" font-size="10.00"> m_ext_solver_mgr</text>
</g>
<!-- Node24 -->
<g id="node24" class="node">
<title>Node24</title>
<g id="a_node24"><a xlink:href="classamr__wind_1_1_physics_mgr.html" target="_top" xlink:title="A collection of Physics models instances that are active during a simulation.">
<polygon fill="white" stroke="black" points="1397,-104.5 1397,-123.5 1523,-123.5 1523,-104.5 1397,-104.5"/>
<text text-anchor="middle" x="1460" y="-111.5" font-family="Helvetica,sans-Serif" font-size="10.00">amr_wind::PhysicsMgr</text>
</a>
</g>
</g>
<!-- Node24&#45;&gt;Node2 -->
<g id="edge35" class="edge">
<title>Node24&#45;&gt;Node2</title>
<path fill="none" stroke="#9a32cd" stroke-dasharray="5,2" d="M1533.39,-107.74C1582.02,-107.26 1645.17,-114.28 1690,-147 1738.23,-182.21 1755.7,-258.57 1760.49,-285.43"/>
<polygon fill="#9a32cd" stroke="#9a32cd" points="1533.17,-104.24 1523.25,-107.95 1533.32,-111.24 1533.17,-104.24"/>
<text text-anchor="middle" x="1625" y="-150" font-family="Helvetica,sans-Serif" font-size="10.00"> m_physics_mgr</text>
</g>
<!-- Node25&#45;&gt;Node24 -->
<g id="edge36" class="edge">
<title>Node25&#45;&gt;Node24</title>
<path fill="none" stroke="midnightblue" d="M1171.32,-77.07C1224.18,-74.26 1296.86,-73.35 1360,-83 1386.53,-87.06 1415.71,-96.89 1435.48,-104.41"/>
<polygon fill="midnightblue" stroke="midnightblue" points="1170.81,-73.59 1161.02,-77.65 1171.21,-80.58 1170.81,-73.59"/>
</g>
<!-- Node26&#45;&gt;Node1 -->
<g id="edge38" class="edge">
<title>Node26&#45;&gt;Node1</title>
<path fill="none" stroke="#9a32cd" stroke-dasharray="5,2" d="M1541.79,-583.78C1586.02,-579.76 1641.53,-572.81 1690,-561 1788.39,-537.02 1898.9,-490.26 1952.62,-466.16"/>
<polygon fill="#9a32cd" stroke="#9a32cd" points="1541.33,-580.3 1531.67,-584.66 1541.94,-587.28 1541.33,-580.3"/>
<text text-anchor="middle" x="1763" y="-559" font-family="Helvetica,sans-Serif" font-size="10.00"> m_fields</text>
</g>
<!-- Node27&#45;&gt;Node26 -->
<g id="edge39" class="edge">
<title>Node27&#45;&gt;Node26</title>
<path fill="none" stroke="#9a32cd" stroke-dasharray="5,2" d="M1153.81,-623.38C1207.02,-618.85 1289.04,-611.39 1360,-603 1371.29,-601.66 1383.29,-600.1 1394.88,-598.5"/>
<polygon fill="#9a32cd" stroke="#9a32cd" points="1153.23,-619.92 1143.56,-624.25 1153.82,-626.9 1153.23,-619.92"/>
<text text-anchor="middle" x="1269.5" y="-668" font-family="Helvetica,sans-Serif" font-size="10.00"> conv_term</text>
<text text-anchor="middle" x="1269.5" y="-657" font-family="Helvetica,sans-Serif" font-size="10.00">diff_term</text>
<text text-anchor="middle" x="1269.5" y="-646" font-family="Helvetica,sans-Serif" font-size="10.00">field</text>
<text text-anchor="middle" x="1269.5" y="-635" font-family="Helvetica,sans-Serif" font-size="10.00">mueff</text>
<text text-anchor="middle" x="1269.5" y="-624" font-family="Helvetica,sans-Serif" font-size="10.00">src_term</text>
</g>
<!-- Node28 -->
<g id="node28" class="node">
<title>Node28</title>
<g id="a_node28"><a xlink:title=" ">
<polygon fill="white" stroke="#bfbfbf" points="605,-628 605,-658 725,-658 725,-628 605,-628"/>
<text text-anchor="start" x="613" y="-646" font-family="Helvetica,sans-Serif" font-size="10.00">std::shared_ptr&lt; amr</text>
<text text-anchor="middle" x="665" y="-635" font-family="Helvetica,sans-Serif" font-size="10.00">_wind::FieldInfo &gt;</text>
</a>
</g>
</g>
<!-- Node28&#45;&gt;Node27 -->
<g id="edge40" class="edge">
<title>Node28&#45;&gt;Node27</title>
<path fill="none" stroke="#9a32cd" stroke-dasharray="5,2" d="M735.25,-644.2C805.55,-644.9 917.47,-644.6 1014,-638 1025.52,-637.21 1037.91,-635.92 1049.46,-634.53"/>
<polygon fill="#9a32cd" stroke="#9a32cd" points="735.23,-640.7 725.19,-644.09 735.15,-647.7 735.23,-640.7"/>
<text text-anchor="middle" x="807.5" y="-647" font-family="Helvetica,sans-Serif" font-size="10.00"> m_info</text>
</g>
<!-- Node29&#45;&gt;Node28 -->
<g id="edge41" class="edge">
<title>Node29&#45;&gt;Node28</title>
<path fill="none" stroke="orange" stroke-dasharray="5,2" d="M317.13,-612.07C397.25,-619.22 528.93,-630.96 604.91,-637.73"/>
<polygon fill="orange" stroke="orange" points="317.41,-608.59 307.14,-611.18 316.79,-615.56 317.41,-608.59"/>
<text text-anchor="middle" x="386" y="-625" font-family="Helvetica,sans-Serif" font-size="10.00"> &lt; amr_wind::FieldInfo &gt;</text>
</g>
</g>
</svg>
