<?xml version="1.0" encoding="UTF-8" standalone="no"?>
<!DOCTYPE svg PUBLIC "-//W3C//DTD SVG 1.1//EN"
 "http://www.w3.org/Graphics/SVG/1.1/DTD/svg11.dtd">
<!-- Generated by graphviz version 2.43.0 (0)
 -->
<!-- Title: tensor_ops.H Pages: 1 -->
<svg width="1324pt" height="196pt"
 viewBox="0.00 0.00 1323.50 196.00" xmlns="http://www.w3.org/2000/svg" xmlns:xlink="http://www.w3.org/1999/xlink">
<g id="graph0" class="graph" transform="scale(1 1) rotate(0) translate(4 192)">
<title>tensor_ops.H</title>
<polygon fill="white" stroke="transparent" points="-4,4 -4,-192 1319.5,-192 1319.5,4 -4,4"/>
<!-- Node1 -->
<g id="node1" class="node">
<title>Node1</title>
<g id="a_node1"><a xlink:title=" ">
<polygon fill="#bfbfbf" stroke="black" points="563.5,-168.5 563.5,-187.5 643.5,-187.5 643.5,-168.5 563.5,-168.5"/>
<text text-anchor="middle" x="603.5" y="-175.5" font-family="Helvetica,sans-Serif" font-size="10.00">tensor_ops.H</text>
</a>
</g>
</g>
<!-- Node2 -->
<g id="node2" class="node">
<title>Node2</title>
<g id="a_node2"><a xlink:href="_wall_function_8cpp.html" target="_top" xlink:title=" ">
<polygon fill="white" stroke="black" points="0,-112.5 0,-131.5 99,-131.5 99,-112.5 0,-112.5"/>
<text text-anchor="middle" x="49.5" y="-119.5" font-family="Helvetica,sans-Serif" font-size="10.00">WallFunction.cpp</text>
</a>
</g>
</g>
<!-- Node1&#45;&gt;Node2 -->
<g id="edge1" class="edge">
<title>Node1&#45;&gt;Node2</title>
<path fill="none" stroke="midnightblue" d="M553.06,-173.49C463.27,-167 269.92,-151.95 107.5,-132 104.77,-131.66 101.97,-131.3 99.15,-130.92"/>
<polygon fill="midnightblue" stroke="midnightblue" points="553,-176.99 563.23,-174.22 553.5,-170.01 553,-176.99"/>
</g>
<!-- Node3 -->
<g id="node3" class="node">
<title>Node3</title>
<g id="a_node3"><a xlink:href="_coriolis_forcing_8cpp.html" target="_top" xlink:title=" ">
<polygon fill="white" stroke="black" points="117,-112.5 117,-131.5 226,-131.5 226,-112.5 117,-112.5"/>
<text text-anchor="middle" x="171.5" y="-119.5" font-family="Helvetica,sans-Serif" font-size="10.00">CoriolisForcing.cpp</text>
</a>
</g>
</g>
<!-- Node1&#45;&gt;Node3 -->
<g id="edge2" class="edge">
<title>Node1&#45;&gt;Node3</title>
<path fill="none" stroke="midnightblue" d="M553.32,-171.21C482.29,-162.94 348.38,-147.08 234.5,-132 231.76,-131.64 228.96,-131.26 226.13,-130.87"/>
<polygon fill="midnightblue" stroke="midnightblue" points="553,-174.7 563.33,-172.38 553.8,-167.74 553,-174.7"/>
</g>
<!-- Node4 -->
<g id="node4" class="node">
<title>Node4</title>
<g id="a_node4"><a xlink:href="_synthetic_turbulence_8cpp.html" target="_top" xlink:title=" ">
<polygon fill="white" stroke="black" points="244,-112.5 244,-131.5 379,-131.5 379,-112.5 244,-112.5"/>
<text text-anchor="middle" x="311.5" y="-119.5" font-family="Helvetica,sans-Serif" font-size="10.00">SyntheticTurbulence.cpp</text>
</a>
</g>
</g>
<!-- Node1&#45;&gt;Node4 -->
<g id="edge3" class="edge">
<title>Node1&#45;&gt;Node4</title>
<path fill="none" stroke="midnightblue" d="M553.34,-167.72C498.37,-157.56 410.94,-141.39 357.63,-131.53"/>
<polygon fill="midnightblue" stroke="midnightblue" points="552.74,-171.17 563.21,-169.55 554.01,-164.29 552.74,-171.17"/>
</g>
<!-- Node5 -->
<g id="node5" class="node">
<title>Node5</title>
<g id="a_node5"><a xlink:href="_d_t_u_spinner_sampler_8cpp.html" target="_top" xlink:title=" ">
<polygon fill="white" stroke="black" points="406.5,-0.5 406.5,-19.5 540.5,-19.5 540.5,-0.5 406.5,-0.5"/>
<text text-anchor="middle" x="473.5" y="-7.5" font-family="Helvetica,sans-Serif" font-size="10.00">DTUSpinnerSampler.cpp</text>
</a>
</g>
</g>
<!-- Node1&#45;&gt;Node5 -->
<g id="edge4" class="edge">
<title>Node1&#45;&gt;Node5</title>
<path fill="none" stroke="midnightblue" d="M553.46,-171.12C506.76,-164.49 442,-151.94 426.5,-132 405.77,-105.33 413.24,-87.06 426.5,-56 433.15,-40.42 448.15,-27.65 459.42,-19.74"/>
<polygon fill="midnightblue" stroke="midnightblue" points="553.04,-174.6 563.42,-172.49 553.99,-167.66 553.04,-174.6"/>
</g>
<!-- Node6 -->
<g id="node6" class="node">
<title>Node6</title>
<g id="a_node6"><a xlink:href="_lidar_sampler_8cpp.html" target="_top" xlink:title=" ">
<polygon fill="white" stroke="black" points="436,-112.5 436,-131.5 537,-131.5 537,-112.5 436,-112.5"/>
<text text-anchor="middle" x="486.5" y="-119.5" font-family="Helvetica,sans-Serif" font-size="10.00">LidarSampler.cpp</text>
</a>
</g>
</g>
<!-- Node1&#45;&gt;Node6 -->
<g id="edge5" class="edge">
<title>Node1&#45;&gt;Node6</title>
<path fill="none" stroke="midnightblue" d="M575.84,-164.23C553.95,-154.13 524,-140.31 504.95,-131.52"/>
<polygon fill="midnightblue" stroke="midnightblue" points="574.41,-167.43 584.96,-168.44 577.35,-161.08 574.41,-167.43"/>
</g>
<!-- Node7 -->
<g id="node7" class="node">
<title>Node7</title>
<g id="a_node7"><a xlink:href="_line_sampler_8cpp.html" target="_top" xlink:title=" ">
<polygon fill="white" stroke="black" points="555,-112.5 555,-131.5 652,-131.5 652,-112.5 555,-112.5"/>
<text text-anchor="middle" x="603.5" y="-119.5" font-family="Helvetica,sans-Serif" font-size="10.00">LineSampler.cpp</text>
</a>
</g>
</g>
<!-- Node1&#45;&gt;Node7 -->
<g id="edge6" class="edge">
<title>Node1&#45;&gt;Node7</title>
<path fill="none" stroke="midnightblue" d="M603.5,-157.8C603.5,-148.91 603.5,-138.78 603.5,-131.75"/>
<polygon fill="midnightblue" stroke="midnightblue" points="600,-158.08 603.5,-168.08 607,-158.08 600,-158.08"/>
</g>
<!-- Node8 -->
<g id="node8" class="node">
<title>Node8</title>
<g id="a_node8"><a xlink:href="_radar_sampler_8cpp.html" target="_top" xlink:title=" ">
<polygon fill="white" stroke="black" points="599,-0.5 599,-19.5 704,-19.5 704,-0.5 599,-0.5"/>
<text text-anchor="middle" x="651.5" y="-7.5" font-family="Helvetica,sans-Serif" font-size="10.00">RadarSampler.cpp</text>
</a>
</g>
</g>
<!-- Node1&#45;&gt;Node8 -->
<g id="edge7" class="edge">
<title>Node1&#45;&gt;Node8</title>
<path fill="none" stroke="midnightblue" d="M654.17,-173.89C690.59,-169.37 739.13,-158.41 773.5,-132 796.23,-114.53 798.14,-103.71 805.5,-76 817.49,-30.84 753.49,-16.78 704.34,-12.55"/>
<polygon fill="midnightblue" stroke="midnightblue" points="653.32,-170.46 643.77,-175.05 654.09,-177.42 653.32,-170.46"/>
</g>
<!-- Node9 -->
<g id="node9" class="node">
<title>Node9</title>
<g id="a_node9"><a xlink:href="_sampling_utils_8_h.html" target="_top" xlink:title=" ">
<polygon fill="white" stroke="black" points="670,-112.5 670,-131.5 765,-131.5 765,-112.5 670,-112.5"/>
<text text-anchor="middle" x="717.5" y="-119.5" font-family="Helvetica,sans-Serif" font-size="10.00">SamplingUtils.H</text>
</a>
</g>
</g>
<!-- Node1&#45;&gt;Node9 -->
<g id="edge8" class="edge">
<title>Node1&#45;&gt;Node9</title>
<path fill="none" stroke="midnightblue" d="M630.74,-164.1C652.04,-154.01 681.04,-140.27 699.52,-131.52"/>
<polygon fill="midnightblue" stroke="midnightblue" points="629.1,-161 621.56,-168.44 632.1,-167.33 629.1,-161"/>
</g>
<!-- Node13 -->
<g id="node13" class="node">
<title>Node13</title>
<g id="a_node13"><a xlink:href="_a_b_l_stats_8cpp.html" target="_top" xlink:title=" ">
<polygon fill="white" stroke="black" points="837.5,-112.5 837.5,-131.5 917.5,-131.5 917.5,-112.5 837.5,-112.5"/>
<text text-anchor="middle" x="877.5" y="-119.5" font-family="Helvetica,sans-Serif" font-size="10.00">ABLStats.cpp</text>
</a>
</g>
</g>
<!-- Node1&#45;&gt;Node13 -->
<g id="edge14" class="edge">
<title>Node1&#45;&gt;Node13</title>
<path fill="none" stroke="midnightblue" d="M653.46,-167.15C706.25,-156.75 788.47,-140.55 837.26,-130.93"/>
<polygon fill="midnightblue" stroke="midnightblue" points="652.77,-163.72 643.64,-169.09 654.12,-170.59 652.77,-163.72"/>
</g>
<!-- Node14 -->
<g id="node14" class="node">
<title>Node14</title>
<g id="a_node14"><a xlink:href="_a_b_l_wall_function_8cpp.html" target="_top" xlink:title=" ">
<polygon fill="white" stroke="black" points="936,-112.5 936,-131.5 1053,-131.5 1053,-112.5 936,-112.5"/>
<text text-anchor="middle" x="994.5" y="-119.5" font-family="Helvetica,sans-Serif" font-size="10.00">ABLWallFunction.cpp</text>
</a>
</g>
</g>
<!-- Node1&#45;&gt;Node14 -->
<g id="edge15" class="edge">
<title>Node1&#45;&gt;Node14</title>
<path fill="none" stroke="midnightblue" d="M653.72,-170.06C726.03,-160.08 859.19,-141.69 935.9,-131.09"/>
<polygon fill="midnightblue" stroke="midnightblue" points="652.93,-166.64 643.51,-171.47 653.89,-173.57 652.93,-166.64"/>
</g>
<!-- Node15 -->
<g id="node15" class="node">
<title>Node15</title>
<g id="a_node15"><a xlink:href="disk__ops_8_h.html" target="_top" xlink:title=" ">
<polygon fill="white" stroke="black" points="1071.5,-112.5 1071.5,-131.5 1141.5,-131.5 1141.5,-112.5 1071.5,-112.5"/>
<text text-anchor="middle" x="1106.5" y="-119.5" font-family="Helvetica,sans-Serif" font-size="10.00">disk_ops.H</text>
</a>
</g>
</g>
<!-- Node1&#45;&gt;Node15 -->
<g id="edge16" class="edge">
<title>Node1&#45;&gt;Node15</title>
<path fill="none" stroke="midnightblue" d="M653.68,-173.8C738.32,-168.01 914.67,-154.3 1062.5,-132 1065.43,-131.56 1068.46,-131.05 1071.49,-130.5"/>
<polygon fill="midnightblue" stroke="midnightblue" points="653.32,-170.31 643.58,-174.48 653.79,-177.3 653.32,-170.31"/>
</g>
<!-- Node10 -->
<g id="node10" class="node">
<title>Node10</title>
<g id="a_node10"><a xlink:href="_d_t_u_spinner_sampler_8_h.html" target="_top" xlink:title=" ">
<polygon fill="white" stroke="black" points="436,-56.5 436,-75.5 561,-75.5 561,-56.5 436,-56.5"/>
<text text-anchor="middle" x="498.5" y="-63.5" font-family="Helvetica,sans-Serif" font-size="10.00">DTUSpinnerSampler.H</text>
</a>
</g>
</g>
<!-- Node9&#45;&gt;Node10 -->
<g id="edge9" class="edge">
<title>Node9&#45;&gt;Node10</title>
<path fill="none" stroke="midnightblue" d="M672.99,-110.02C631.62,-99.82 570.86,-84.84 533.04,-75.52"/>
<polygon fill="midnightblue" stroke="midnightblue" points="672.25,-113.45 682.8,-112.44 673.93,-106.65 672.25,-113.45"/>
</g>
<!-- Node11 -->
<g id="node11" class="node">
<title>Node11</title>
<g id="a_node11"><a xlink:href="_radar_sampler_8_h.html" target="_top" xlink:title=" ">
<polygon fill="white" stroke="black" points="579,-56.5 579,-75.5 674,-75.5 674,-56.5 579,-56.5"/>
<text text-anchor="middle" x="626.5" y="-63.5" font-family="Helvetica,sans-Serif" font-size="10.00">RadarSampler.H</text>
</a>
</g>
</g>
<!-- Node9&#45;&gt;Node11 -->
<g id="edge11" class="edge">
<title>Node9&#45;&gt;Node11</title>
<path fill="none" stroke="midnightblue" d="M694.21,-107.18C677.46,-97.24 655.4,-84.15 641.08,-75.65"/>
<polygon fill="midnightblue" stroke="midnightblue" points="692.49,-110.23 702.88,-112.32 696.07,-104.21 692.49,-110.23"/>
</g>
<!-- Node12 -->
<g id="node12" class="node">
<title>Node12</title>
<g id="a_node12"><a xlink:href="_sampling_utils_8cpp.html" target="_top" xlink:title=" ">
<polygon fill="white" stroke="black" points="692,-56.5 692,-75.5 797,-75.5 797,-56.5 692,-56.5"/>
<text text-anchor="middle" x="744.5" y="-63.5" font-family="Helvetica,sans-Serif" font-size="10.00">SamplingUtils.cpp</text>
</a>
</g>
</g>
<!-- Node9&#45;&gt;Node12 -->
<g id="edge13" class="edge">
<title>Node9&#45;&gt;Node12</title>
<path fill="none" stroke="midnightblue" d="M726.51,-102.98C731.09,-93.82 736.45,-83.09 740.12,-75.75"/>
<polygon fill="midnightblue" stroke="midnightblue" points="723.3,-101.57 721.96,-112.08 729.56,-104.7 723.3,-101.57"/>
</g>
<!-- Node10&#45;&gt;Node5 -->
<g id="edge10" class="edge">
<title>Node10&#45;&gt;Node5</title>
<path fill="none" stroke="midnightblue" d="M490.16,-46.98C485.92,-37.82 480.95,-27.09 477.55,-19.75"/>
<polygon fill="midnightblue" stroke="midnightblue" points="486.99,-48.48 494.37,-56.08 493.35,-45.54 486.99,-48.48"/>
</g>
<!-- Node11&#45;&gt;Node8 -->
<g id="edge12" class="edge">
<title>Node11&#45;&gt;Node8</title>
<path fill="none" stroke="midnightblue" d="M634.84,-46.98C639.08,-37.82 644.05,-27.09 647.45,-19.75"/>
<polygon fill="midnightblue" stroke="midnightblue" points="631.65,-45.54 630.63,-56.08 638.01,-48.48 631.65,-45.54"/>
</g>
<!-- Node16 -->
<g id="node16" class="node">
<title>Node16</title>
<g id="a_node16"><a xlink:href="disk__ops_8cpp.html" target="_top" xlink:title=" ">
<polygon fill="white" stroke="black" points="1235.5,-56.5 1235.5,-75.5 1315.5,-75.5 1315.5,-56.5 1235.5,-56.5"/>
<text text-anchor="middle" x="1275.5" y="-63.5" font-family="Helvetica,sans-Serif" font-size="10.00">disk_ops.cpp</text>
</a>
</g>
</g>
<!-- Node15&#45;&gt;Node16 -->
<g id="edge17" class="edge">
<title>Node15&#45;&gt;Node16</title>
<path fill="none" stroke="midnightblue" d="M1143.1,-109.3C1174.95,-99.13 1220.34,-84.62 1248.85,-75.52"/>
<polygon fill="midnightblue" stroke="midnightblue" points="1141.74,-106.07 1133.28,-112.44 1143.87,-112.73 1141.74,-106.07"/>
</g>
<!-- Node17 -->
<g id="node17" class="node">
<title>Node17</title>
<g id="a_node17"><a xlink:href="_joukowsky__ops_8cpp.html" target="_top" xlink:title=" ">
<polygon fill="white" stroke="black" points="912.5,-0.5 912.5,-19.5 1022.5,-19.5 1022.5,-0.5 912.5,-0.5"/>
<text text-anchor="middle" x="967.5" y="-7.5" font-family="Helvetica,sans-Serif" font-size="10.00">Joukowsky_ops.cpp</text>
</a>
</g>
</g>
<!-- Node15&#45;&gt;Node17 -->
<g id="edge18" class="edge">
<title>Node15&#45;&gt;Node17</title>
<path fill="none" stroke="midnightblue" d="M1064.35,-109.56C1034.34,-100.63 997.45,-87.79 986.5,-76 971.78,-60.15 968.41,-33.5 967.67,-19.77"/>
<polygon fill="midnightblue" stroke="midnightblue" points="1063.64,-113 1074.22,-112.43 1065.6,-106.28 1063.64,-113"/>
</g>
<!-- Node18 -->
<g id="node18" class="node">
<title>Node18</title>
<g id="a_node18"><a xlink:href="_joukowsky__ops_8_h.html" target="_top" xlink:title=" ">
<polygon fill="white" stroke="black" points="996,-56.5 996,-75.5 1097,-75.5 1097,-56.5 996,-56.5"/>
<text text-anchor="middle" x="1046.5" y="-63.5" font-family="Helvetica,sans-Serif" font-size="10.00">Joukowsky_ops.H</text>
</a>
</g>
</g>
<!-- Node15&#45;&gt;Node18 -->
<g id="edge19" class="edge">
<title>Node15&#45;&gt;Node18</title>
<path fill="none" stroke="midnightblue" d="M1089.32,-105.54C1078.62,-95.91 1065.24,-83.87 1056.32,-75.83"/>
<polygon fill="midnightblue" stroke="midnightblue" points="1087.09,-108.24 1096.86,-112.32 1091.77,-103.03 1087.09,-108.24"/>
</g>
<!-- Node20 -->
<g id="node20" class="node">
<title>Node20</title>
<g id="a_node20"><a xlink:href="uniform__ct__ops_8_h.html" target="_top" xlink:title=" ">
<polygon fill="white" stroke="black" points="1115.5,-56.5 1115.5,-75.5 1217.5,-75.5 1217.5,-56.5 1115.5,-56.5"/>
<text text-anchor="middle" x="1166.5" y="-63.5" font-family="Helvetica,sans-Serif" font-size="10.00">uniform_ct_ops.H</text>
</a>
</g>
</g>
<!-- Node15&#45;&gt;Node20 -->
<g id="edge22" class="edge">
<title>Node15&#45;&gt;Node20</title>
<path fill="none" stroke="midnightblue" d="M1123.68,-105.54C1134.38,-95.91 1147.76,-83.87 1156.68,-75.83"/>
<polygon fill="midnightblue" stroke="midnightblue" points="1121.23,-103.03 1116.14,-112.32 1125.91,-108.24 1121.23,-103.03"/>
</g>
<!-- Node18&#45;&gt;Node17 -->
<g id="edge21" class="edge">
<title>Node18&#45;&gt;Node17</title>
<path fill="none" stroke="midnightblue" d="M1025.47,-50.62C1011.03,-40.76 992.36,-27.99 980.16,-19.65"/>
<polygon fill="midnightblue" stroke="midnightblue" points="1023.58,-53.57 1033.81,-56.32 1027.53,-47.79 1023.58,-53.57"/>
</g>
<!-- Node19 -->
<g id="node19" class="node">
<title>Node19</title>
<g id="a_node19"><a xlink:href="_actuator_disk_8cpp.html" target="_top" xlink:title=" ">
<polygon fill="white" stroke="black" points="1040.5,-0.5 1040.5,-19.5 1140.5,-19.5 1140.5,-0.5 1040.5,-0.5"/>
<text text-anchor="middle" x="1090.5" y="-7.5" font-family="Helvetica,sans-Serif" font-size="10.00">ActuatorDisk.cpp</text>
</a>
</g>
</g>
<!-- Node18&#45;&gt;Node19 -->
<g id="edge20" class="edge">
<title>Node18&#45;&gt;Node19</title>
<path fill="none" stroke="midnightblue" d="M1060.23,-48.14C1067.9,-38.74 1077.13,-27.4 1083.37,-19.75"/>
<polygon fill="midnightblue" stroke="midnightblue" points="1057.37,-46.12 1053.77,-56.08 1062.8,-50.54 1057.37,-46.12"/>
</g>
<!-- Node20&#45;&gt;Node19 -->
<g id="edge23" class="edge">
<title>Node20&#45;&gt;Node19</title>
<path fill="none" stroke="midnightblue" d="M1145.92,-50.38C1132.19,-40.62 1114.57,-28.11 1102.93,-19.83"/>
<polygon fill="midnightblue" stroke="midnightblue" points="1144.11,-53.38 1154.29,-56.32 1148.16,-47.68 1144.11,-53.38"/>
</g>
<!-- Node21 -->
<g id="node21" class="node">
<title>Node21</title>
<g id="a_node21"><a xlink:href="uniform__ct__ops_8cpp.html" target="_top" xlink:title=" ">
<polygon fill="white" stroke="black" points="1158.5,-0.5 1158.5,-19.5 1270.5,-19.5 1270.5,-0.5 1158.5,-0.5"/>
<text text-anchor="middle" x="1214.5" y="-7.5" font-family="Helvetica,sans-Serif" font-size="10.00">uniform_ct_ops.cpp</text>
</a>
</g>
</g>
<!-- Node20&#45;&gt;Node21 -->
<g id="edge24" class="edge">
<title>Node20&#45;&gt;Node21</title>
<path fill="none" stroke="midnightblue" d="M1181.23,-48.43C1189.64,-38.97 1199.85,-27.48 1206.72,-19.75"/>
<polygon fill="midnightblue" stroke="midnightblue" points="1178.45,-46.28 1174.43,-56.08 1183.69,-50.93 1178.45,-46.28"/>
</g>
</g>
</svg>
