<?xml version="1.0" encoding="UTF-8" standalone="no"?>
<!DOCTYPE svg PUBLIC "-//W3C//DTD SVG 1.1//EN"
 "http://www.w3.org/Graphics/SVG/1.1/DTD/svg11.dtd">
<!-- Generated by graphviz version 2.43.0 (0)
 -->
<!-- Title: turbine_types.H Pages: 1 -->
<svg width="265pt" height="196pt"
 viewBox="0.00 0.00 265.00 196.00" xmlns="http://www.w3.org/2000/svg" xmlns:xlink="http://www.w3.org/1999/xlink">
<g id="graph0" class="graph" transform="scale(1 1) rotate(0) translate(4 192)">
<title>turbine_types.H</title>
<polygon fill="white" stroke="transparent" points="-4,4 -4,-192 261,-192 261,4 -4,4"/>
<!-- Node1 -->
<g id="node1" class="node">
<title>Node1</title>
<g id="a_node1"><a xlink:title=" ">
<polygon fill="#bfbfbf" stroke="black" points="50,-168.5 50,-187.5 144,-187.5 144,-168.5 50,-168.5"/>
<text text-anchor="middle" x="97" y="-175.5" font-family="Helvetica,sans-Serif" font-size="10.00">turbine_types.H</text>
</a>
</g>
</g>
<!-- Node2 -->
<g id="node2" class="node">
<title>Node2</title>
<g id="a_node2"><a xlink:href="_turbine_fast_8_h.html" target="_top" xlink:title=" ">
<polygon fill="white" stroke="black" points="5,-112.5 5,-131.5 87,-131.5 87,-112.5 5,-112.5"/>
<text text-anchor="middle" x="46" y="-119.5" font-family="Helvetica,sans-Serif" font-size="10.00">TurbineFast.H</text>
</a>
</g>
</g>
<!-- Node1&#45;&gt;Node2 -->
<g id="edge1" class="edge">
<title>Node1&#45;&gt;Node2</title>
<path fill="none" stroke="midnightblue" d="M81.62,-160.72C72.63,-151.2 61.64,-139.56 54.26,-131.75"/>
<polygon fill="midnightblue" stroke="midnightblue" points="79.17,-163.22 88.58,-168.08 84.26,-158.41 79.17,-163.22"/>
</g>
<!-- Node5 -->
<g id="node5" class="node">
<title>Node5</title>
<g id="a_node5"><a xlink:href="turbine__utils_8_h.html" target="_top" xlink:title=" ">
<polygon fill="white" stroke="black" points="105,-112.5 105,-131.5 193,-131.5 193,-112.5 105,-112.5"/>
<text text-anchor="middle" x="149" y="-119.5" font-family="Helvetica,sans-Serif" font-size="10.00">turbine_utils.H</text>
</a>
</g>
</g>
<!-- Node1&#45;&gt;Node5 -->
<g id="edge5" class="edge">
<title>Node1&#45;&gt;Node5</title>
<path fill="none" stroke="midnightblue" d="M112.68,-160.72C121.84,-151.2 133.05,-139.56 140.57,-131.75"/>
<polygon fill="midnightblue" stroke="midnightblue" points="110,-158.45 105.59,-168.08 115.04,-163.31 110,-158.45"/>
</g>
<!-- Node3 -->
<g id="node3" class="node">
<title>Node3</title>
<g id="a_node3"><a xlink:href="turbine__fast__ops_8_h.html" target="_top" xlink:title=" ">
<polygon fill="white" stroke="black" points="33,-56.5 33,-75.5 141,-75.5 141,-56.5 33,-56.5"/>
<text text-anchor="middle" x="87" y="-63.5" font-family="Helvetica,sans-Serif" font-size="10.00">turbine_fast_ops.H</text>
</a>
</g>
</g>
<!-- Node2&#45;&gt;Node3 -->
<g id="edge2" class="edge">
<title>Node2&#45;&gt;Node3</title>
<path fill="none" stroke="midnightblue" d="M59.02,-103.86C66.12,-94.5 74.6,-83.33 80.36,-75.75"/>
<polygon fill="midnightblue" stroke="midnightblue" points="56.03,-102 52.77,-112.08 61.61,-106.24 56.03,-102"/>
</g>
<!-- Node4 -->
<g id="node4" class="node">
<title>Node4</title>
<g id="a_node4"><a xlink:href="_turbine_fast_8cpp.html" target="_top" xlink:title=" ">
<polygon fill="white" stroke="black" points="0,-0.5 0,-19.5 92,-19.5 92,-0.5 0,-0.5"/>
<text text-anchor="middle" x="46" y="-7.5" font-family="Helvetica,sans-Serif" font-size="10.00">TurbineFast.cpp</text>
</a>
</g>
</g>
<!-- Node2&#45;&gt;Node4 -->
<g id="edge4" class="edge">
<title>Node2&#45;&gt;Node4</title>
<path fill="none" stroke="midnightblue" d="M35.24,-103.69C30.82,-95.59 26.23,-85.64 24,-76 19.22,-55.34 31.72,-31.99 39.79,-19.67"/>
<polygon fill="midnightblue" stroke="midnightblue" points="32.3,-105.6 40.36,-112.48 38.35,-102.08 32.3,-105.6"/>
</g>
<!-- Node3&#45;&gt;Node4 -->
<g id="edge3" class="edge">
<title>Node3&#45;&gt;Node4</title>
<path fill="none" stroke="midnightblue" d="M73.98,-47.86C66.88,-38.5 58.4,-27.33 52.64,-19.75"/>
<polygon fill="midnightblue" stroke="midnightblue" points="71.39,-50.24 80.23,-56.08 76.97,-46 71.39,-50.24"/>
</g>
<!-- Node5&#45;&gt;Node3 -->
<g id="edge6" class="edge">
<title>Node5&#45;&gt;Node3</title>
<path fill="none" stroke="midnightblue" d="M131.25,-105.54C120.19,-95.91 106.37,-83.87 97.14,-75.83"/>
<polygon fill="midnightblue" stroke="midnightblue" points="129.2,-108.4 139.04,-112.32 133.8,-103.12 129.2,-108.4"/>
</g>
<!-- Node6 -->
<g id="node6" class="node">
<title>Node6</title>
<g id="a_node6"><a xlink:href="turbine__utils_8cpp.html" target="_top" xlink:title=" ">
<polygon fill="white" stroke="black" points="159,-56.5 159,-75.5 257,-75.5 257,-56.5 159,-56.5"/>
<text text-anchor="middle" x="208" y="-63.5" font-family="Helvetica,sans-Serif" font-size="10.00">turbine_utils.cpp</text>
</a>
</g>
</g>
<!-- Node5&#45;&gt;Node6 -->
<g id="edge7" class="edge">
<title>Node5&#45;&gt;Node6</title>
<path fill="none" stroke="midnightblue" d="M165.89,-105.54C176.41,-95.91 189.57,-83.87 198.35,-75.83"/>
<polygon fill="midnightblue" stroke="midnightblue" points="163.49,-102.99 158.48,-112.32 168.22,-108.15 163.49,-102.99"/>
</g>
</g>
</svg>
