<?xml version="1.0" encoding="UTF-8" standalone="no"?>
<!DOCTYPE svg PUBLIC "-//W3C//DTD SVG 1.1//EN"
 "http://www.w3.org/Graphics/SVG/1.1/DTD/svg11.dtd">
<!-- Generated by graphviz version 2.43.0 (0)
 -->
<!-- Title: turbine_types.H Pages: 1 -->
<svg width="793pt" height="397pt"
 viewBox="0.00 0.00 793.21 397.00" xmlns="http://www.w3.org/2000/svg" xmlns:xlink="http://www.w3.org/1999/xlink">
<g id="graph0" class="graph" transform="scale(1 1) rotate(0) translate(4 393)">
<title>turbine_types.H</title>
<polygon fill="white" stroke="transparent" points="-4,4 -4,-393 789.21,-393 789.21,4 -4,4"/>
<!-- Node1 -->
<g id="node1" class="node">
<title>Node1</title>
<g id="a_node1"><a xlink:title=" ">
<polygon fill="#bfbfbf" stroke="black" points="400,-369.5 400,-388.5 494,-388.5 494,-369.5 400,-369.5"/>
<text text-anchor="middle" x="447" y="-376.5" font-family="Helvetica,sans-Serif" font-size="10.00">turbine_types.H</text>
</a>
</g>
</g>
<!-- Node2 -->
<g id="node2" class="node">
<title>Node2</title>
<g id="a_node2"><a xlink:href="actuator__types_8_h.html" target="_top" xlink:title=" ">
<polygon fill="white" stroke="black" points="374,-302.5 374,-332.5 520,-332.5 520,-302.5 374,-302.5"/>
<text text-anchor="start" x="382" y="-320.5" font-family="Helvetica,sans-Serif" font-size="10.00">amr&#45;wind/wind_energy</text>
<text text-anchor="middle" x="447" y="-309.5" font-family="Helvetica,sans-Serif" font-size="10.00">/actuator/actuator_types.H</text>
</a>
</g>
</g>
<!-- Node1&#45;&gt;Node2 -->
<g id="edge1" class="edge">
<title>Node1&#45;&gt;Node2</title>
<path fill="none" stroke="midnightblue" d="M447,-369.48C447,-362.47 447,-352.19 447,-342.7"/>
<polygon fill="midnightblue" stroke="midnightblue" points="450.5,-342.52 447,-332.52 443.5,-342.52 450.5,-342.52"/>
</g>
<!-- Node3 -->
<g id="node3" class="node">
<title>Node3</title>
<g id="a_node3"><a xlink:href="_slice_8_h.html" target="_top" xlink:title=" ">
<polygon fill="white" stroke="black" points="125,-241 125,-260 249,-260 249,-241 125,-241"/>
<text text-anchor="middle" x="187" y="-248" font-family="Helvetica,sans-Serif" font-size="10.00">amr&#45;wind/core/Slice.H</text>
</a>
</g>
</g>
<!-- Node2&#45;&gt;Node3 -->
<g id="edge2" class="edge">
<title>Node2&#45;&gt;Node3</title>
<path fill="none" stroke="midnightblue" d="M390.9,-302.48C342.98,-290.5 275,-273.5 230.95,-262.49"/>
<polygon fill="midnightblue" stroke="midnightblue" points="231.66,-259.06 221.11,-260.03 229.97,-265.85 231.66,-259.06"/>
</g>
<!-- Node6 -->
<g id="node6" class="node">
<title>Node6</title>
<g id="a_node6"><a xlink:title=" ">
<polygon fill="white" stroke="#bfbfbf" points="220.5,-0.5 220.5,-19.5 307.5,-19.5 307.5,-0.5 220.5,-0.5"/>
<text text-anchor="middle" x="264" y="-7.5" font-family="Helvetica,sans-Serif" font-size="10.00">AMReX_Gpu.H</text>
</a>
</g>
</g>
<!-- Node2&#45;&gt;Node6 -->
<g id="edge27" class="edge">
<title>Node2&#45;&gt;Node6</title>
<path fill="none" stroke="midnightblue" d="M373.69,-310.94C246.87,-299.27 0,-266.72 0,-190 0,-190 0,-190 0,-132 0,-40.32 133.19,-17.83 210.37,-12.5"/>
<polygon fill="midnightblue" stroke="midnightblue" points="210.64,-15.99 220.41,-11.88 210.21,-9 210.64,-15.99"/>
</g>
<!-- Node7 -->
<g id="node7" class="node">
<title>Node7</title>
<g id="a_node7"><a xlink:href="vector__space_8_h.html" target="_top" xlink:title=" ">
<polygon fill="white" stroke="black" points="309.5,-235.5 309.5,-265.5 444.5,-265.5 444.5,-235.5 309.5,-235.5"/>
<text text-anchor="start" x="317.5" y="-253.5" font-family="Helvetica,sans-Serif" font-size="10.00">amr&#45;wind/core/vs/vector</text>
<text text-anchor="middle" x="377" y="-242.5" font-family="Helvetica,sans-Serif" font-size="10.00">_space.H</text>
</a>
</g>
</g>
<!-- Node2&#45;&gt;Node7 -->
<g id="edge6" class="edge">
<title>Node2&#45;&gt;Node7</title>
<path fill="none" stroke="midnightblue" d="M431.81,-302.4C422.45,-293.71 410.28,-282.4 399.79,-272.66"/>
<polygon fill="midnightblue" stroke="midnightblue" points="401.87,-269.82 392.16,-265.58 397.11,-274.95 401.87,-269.82"/>
</g>
<!-- Node18 -->
<g id="node18" class="node">
<title>Node18</title>
<g id="a_node18"><a xlink:title=" ">
<polygon fill="white" stroke="#bfbfbf" points="463,-241 463,-260 571,-260 571,-241 463,-241"/>
<text text-anchor="middle" x="517" y="-248" font-family="Helvetica,sans-Serif" font-size="10.00">AMReX_RealBox.H</text>
</a>
</g>
</g>
<!-- Node2&#45;&gt;Node18 -->
<g id="edge28" class="edge">
<title>Node2&#45;&gt;Node18</title>
<path fill="none" stroke="midnightblue" d="M462.19,-302.4C473.32,-292.06 488.44,-278.02 499.97,-267.31"/>
<polygon fill="midnightblue" stroke="midnightblue" points="502.69,-269.56 507.64,-260.19 497.93,-264.43 502.69,-269.56"/>
</g>
<!-- Node19 -->
<g id="node19" class="node">
<title>Node19</title>
<g id="a_node19"><a xlink:title=" ">
<polygon fill="white" stroke="#bfbfbf" points="589,-241 589,-260 621,-260 621,-241 589,-241"/>
<text text-anchor="middle" x="605" y="-248" font-family="Helvetica,sans-Serif" font-size="10.00">set</text>
</a>
</g>
</g>
<!-- Node2&#45;&gt;Node19 -->
<g id="edge29" class="edge">
<title>Node2&#45;&gt;Node19</title>
<path fill="none" stroke="midnightblue" d="M489.36,-302.4C515.86,-293.1 550.45,-280.06 580,-266 580.7,-265.67 581.4,-265.32 582.11,-264.97"/>
<polygon fill="midnightblue" stroke="midnightblue" points="584.08,-267.88 591.2,-260.04 580.74,-261.73 584.08,-267.88"/>
</g>
<!-- Node20 -->
<g id="node20" class="node">
<title>Node20</title>
<g id="a_node20"><a xlink:title=" ">
<polygon fill="white" stroke="#bfbfbf" points="639.5,-241 639.5,-260 684.5,-260 684.5,-241 639.5,-241"/>
<text text-anchor="middle" x="662" y="-248" font-family="Helvetica,sans-Serif" font-size="10.00">utility</text>
</a>
</g>
</g>
<!-- Node2&#45;&gt;Node20 -->
<g id="edge30" class="edge">
<title>Node2&#45;&gt;Node20</title>
<path fill="none" stroke="midnightblue" d="M507.08,-302.44C543.15,-293.38 589.71,-280.59 630,-266 631.62,-265.41 633.27,-264.78 634.92,-264.12"/>
<polygon fill="midnightblue" stroke="midnightblue" points="636.44,-267.28 644.26,-260.13 633.69,-260.84 636.44,-267.28"/>
</g>
<!-- Node4 -->
<g id="node4" class="node">
<title>Node4</title>
<g id="a_node4"><a xlink:title=" ">
<polygon fill="white" stroke="#bfbfbf" points="144.5,-179.5 144.5,-198.5 197.5,-198.5 197.5,-179.5 144.5,-179.5"/>
<text text-anchor="middle" x="171" y="-186.5" font-family="Helvetica,sans-Serif" font-size="10.00">iterator</text>
</a>
</g>
</g>
<!-- Node3&#45;&gt;Node4 -->
<g id="edge3" class="edge">
<title>Node3&#45;&gt;Node4</title>
<path fill="none" stroke="midnightblue" d="M184.71,-240.98C182.43,-232.49 178.85,-219.2 175.93,-208.32"/>
<polygon fill="midnightblue" stroke="midnightblue" points="179.26,-207.26 173.29,-198.51 172.51,-209.07 179.26,-207.26"/>
</g>
<!-- Node5 -->
<g id="node5" class="node">
<title>Node5</title>
<g id="a_node5"><a xlink:title=" ">
<polygon fill="white" stroke="#bfbfbf" points="28,-179.5 28,-198.5 126,-198.5 126,-179.5 28,-179.5"/>
<text text-anchor="middle" x="77" y="-186.5" font-family="Helvetica,sans-Serif" font-size="10.00">AMReX_Vector.H</text>
</a>
</g>
</g>
<!-- Node3&#45;&gt;Node5 -->
<g id="edge4" class="edge">
<title>Node3&#45;&gt;Node5</title>
<path fill="none" stroke="midnightblue" d="M171.24,-240.98C153.02,-231.12 122.83,-214.79 101.53,-203.27"/>
<polygon fill="midnightblue" stroke="midnightblue" points="103.19,-200.19 92.73,-198.51 99.86,-206.35 103.19,-200.19"/>
</g>
<!-- Node3&#45;&gt;Node6 -->
<g id="edge5" class="edge">
<title>Node3&#45;&gt;Node6</title>
<path fill="none" stroke="midnightblue" d="M190.39,-240.98C194.32,-230.99 200.91,-213.89 206,-199 227.05,-137.44 248.89,-63.42 258.68,-29.55"/>
<polygon fill="midnightblue" stroke="midnightblue" points="262.12,-30.26 261.53,-19.68 255.39,-28.32 262.12,-30.26"/>
</g>
<!-- Node8 -->
<g id="node8" class="node">
<title>Node8</title>
<g id="a_node8"><a xlink:href="vector_8_h.html" target="_top" xlink:title=" ">
<polygon fill="white" stroke="black" points="331.5,-123.5 331.5,-142.5 476.5,-142.5 476.5,-123.5 331.5,-123.5"/>
<text text-anchor="middle" x="404" y="-130.5" font-family="Helvetica,sans-Serif" font-size="10.00">amr&#45;wind/core/vs/vector.H</text>
</a>
</g>
</g>
<!-- Node7&#45;&gt;Node8 -->
<g id="edge7" class="edge">
<title>Node7&#45;&gt;Node8</title>
<path fill="none" stroke="midnightblue" d="M380.31,-235.34C385.18,-214.53 394.26,-175.66 399.66,-152.58"/>
<polygon fill="midnightblue" stroke="midnightblue" points="403.11,-153.2 401.97,-142.67 396.29,-151.61 403.11,-153.2"/>
</g>
<!-- Node15 -->
<g id="node15" class="node">
<title>Node15</title>
<g id="a_node15"><a xlink:href="tensor_8_h.html" target="_top" xlink:title=" ">
<polygon fill="white" stroke="black" points="434.5,-179.5 434.5,-198.5 579.5,-198.5 579.5,-179.5 434.5,-179.5"/>
<text text-anchor="middle" x="507" y="-186.5" font-family="Helvetica,sans-Serif" font-size="10.00">amr&#45;wind/core/vs/tensor.H</text>
</a>
</g>
</g>
<!-- Node7&#45;&gt;Node15 -->
<g id="edge16" class="edge">
<title>Node7&#45;&gt;Node15</title>
<path fill="none" stroke="midnightblue" d="M407.81,-235.4C429.33,-225.55 457.84,-212.5 478.77,-202.92"/>
<polygon fill="midnightblue" stroke="midnightblue" points="480.45,-206 488.08,-198.66 477.53,-199.64 480.45,-206"/>
</g>
<!-- Node8&#45;&gt;Node6 -->
<g id="edge8" class="edge">
<title>Node8&#45;&gt;Node6</title>
<path fill="none" stroke="midnightblue" d="M382.31,-123.35C364.57,-115.58 339.49,-102.96 321,-87 301.38,-70.06 284.37,-45.28 274.15,-28.67"/>
<polygon fill="midnightblue" stroke="midnightblue" points="277.09,-26.75 268.96,-19.95 271.07,-30.33 277.09,-26.75"/>
</g>
<!-- Node9 -->
<g id="node9" class="node">
<title>Node9</title>
<g id="a_node9"><a xlink:href="vstraits_8_h.html" target="_top" xlink:title=" ">
<polygon fill="white" stroke="black" points="497,-62 497,-81 649,-81 649,-62 497,-62"/>
<text text-anchor="middle" x="573" y="-69" font-family="Helvetica,sans-Serif" font-size="10.00">amr&#45;wind/core/vs/vstraits.H</text>
</a>
</g>
</g>
<!-- Node8&#45;&gt;Node9 -->
<g id="edge9" class="edge">
<title>Node8&#45;&gt;Node9</title>
<path fill="none" stroke="midnightblue" d="M428.21,-123.48C457.33,-113.22 506.37,-95.96 539.2,-84.4"/>
<polygon fill="midnightblue" stroke="midnightblue" points="540.56,-87.63 548.83,-81.01 538.24,-81.03 540.56,-87.63"/>
</g>
<!-- Node12 -->
<g id="node12" class="node">
<title>Node12</title>
<g id="a_node12"><a xlink:href="vector_i_8_h.html" target="_top" xlink:title=" ">
<polygon fill="white" stroke="black" points="329.5,-62 329.5,-81 478.5,-81 478.5,-62 329.5,-62"/>
<text text-anchor="middle" x="404" y="-69" font-family="Helvetica,sans-Serif" font-size="10.00">amr&#45;wind/core/vs/vectorI.H</text>
</a>
</g>
</g>
<!-- Node8&#45;&gt;Node12 -->
<g id="edge12" class="edge">
<title>Node8&#45;&gt;Node12</title>
<path fill="none" stroke="midnightblue" d="M399.1,-123.48C397.27,-115.08 396.8,-101.98 397.69,-91.16"/>
<polygon fill="midnightblue" stroke="midnightblue" points="401.19,-91.4 399.1,-81.01 394.25,-90.43 401.19,-91.4"/>
</g>
<!-- Node10 -->
<g id="node10" class="node">
<title>Node10</title>
<g id="a_node10"><a xlink:title=" ">
<polygon fill="white" stroke="#bfbfbf" points="537,-0.5 537,-19.5 581,-19.5 581,-0.5 537,-0.5"/>
<text text-anchor="middle" x="559" y="-7.5" font-family="Helvetica,sans-Serif" font-size="10.00">limits</text>
</a>
</g>
</g>
<!-- Node9&#45;&gt;Node10 -->
<g id="edge10" class="edge">
<title>Node9&#45;&gt;Node10</title>
<path fill="none" stroke="midnightblue" d="M570.99,-61.98C569,-53.49 565.87,-40.2 563.31,-29.32"/>
<polygon fill="midnightblue" stroke="midnightblue" points="566.7,-28.44 561,-19.51 559.89,-30.04 566.7,-28.44"/>
</g>
<!-- Node11 -->
<g id="node11" class="node">
<title>Node11</title>
<g id="a_node11"><a xlink:title=" ">
<polygon fill="white" stroke="#bfbfbf" points="599,-0.5 599,-19.5 691,-19.5 691,-0.5 599,-0.5"/>
<text text-anchor="middle" x="645" y="-7.5" font-family="Helvetica,sans-Serif" font-size="10.00">AMReX_REAL.H</text>
</a>
</g>
</g>
<!-- Node9&#45;&gt;Node11 -->
<g id="edge11" class="edge">
<title>Node9&#45;&gt;Node11</title>
<path fill="none" stroke="midnightblue" d="M583.32,-61.98C594.65,-52.61 613.07,-37.38 626.84,-26.01"/>
<polygon fill="midnightblue" stroke="midnightblue" points="629.22,-28.58 634.7,-19.51 624.77,-23.18 629.22,-28.58"/>
</g>
<!-- Node12&#45;&gt;Node8 -->
<g id="edge15" class="edge">
<title>Node12&#45;&gt;Node8</title>
<path fill="none" stroke="midnightblue" d="M408.9,-81.01C410.73,-89.4 411.2,-102.5 410.32,-113.32"/>
<polygon fill="midnightblue" stroke="midnightblue" points="406.81,-113.09 408.9,-123.48 413.75,-114.05 406.81,-113.09"/>
</g>
<!-- Node13 -->
<g id="node13" class="node">
<title>Node13</title>
<g id="a_node13"><a xlink:title=" ">
<polygon fill="white" stroke="#bfbfbf" points="375.5,-0.5 375.5,-19.5 432.5,-19.5 432.5,-0.5 375.5,-0.5"/>
<text text-anchor="middle" x="404" y="-7.5" font-family="Helvetica,sans-Serif" font-size="10.00">ostream</text>
</a>
</g>
</g>
<!-- Node12&#45;&gt;Node13 -->
<g id="edge13" class="edge">
<title>Node12&#45;&gt;Node13</title>
<path fill="none" stroke="midnightblue" d="M404,-61.98C404,-53.58 404,-40.48 404,-29.66"/>
<polygon fill="midnightblue" stroke="midnightblue" points="407.5,-29.51 404,-19.51 400.5,-29.51 407.5,-29.51"/>
</g>
<!-- Node14 -->
<g id="node14" class="node">
<title>Node14</title>
<g id="a_node14"><a xlink:title=" ">
<polygon fill="white" stroke="#bfbfbf" points="709.5,-0.5 709.5,-19.5 756.5,-19.5 756.5,-0.5 709.5,-0.5"/>
<text text-anchor="middle" x="733" y="-7.5" font-family="Helvetica,sans-Serif" font-size="10.00">cmath</text>
</a>
</g>
</g>
<!-- Node12&#45;&gt;Node14 -->
<g id="edge14" class="edge">
<title>Node12&#45;&gt;Node14</title>
<path fill="none" stroke="midnightblue" d="M453.3,-61.97C464.69,-60 476.77,-57.92 488,-56 579.07,-40.41 604.97,-40.57 699.31,-19.97"/>
<polygon fill="midnightblue" stroke="midnightblue" points="700.26,-23.34 709.28,-17.77 698.76,-16.5 700.26,-23.34"/>
</g>
<!-- Node15&#45;&gt;Node6 -->
<g id="edge17" class="edge">
<title>Node15&#45;&gt;Node6</title>
<path fill="none" stroke="midnightblue" d="M434.49,-183.85C397.75,-178.61 354.22,-167.25 322,-143 285.1,-115.23 271.26,-58.92 266.41,-29.64"/>
<polygon fill="midnightblue" stroke="midnightblue" points="269.84,-28.92 264.92,-19.53 262.92,-29.94 269.84,-28.92"/>
</g>
<!-- Node15&#45;&gt;Node8 -->
<g id="edge19" class="edge">
<title>Node15&#45;&gt;Node8</title>
<path fill="none" stroke="midnightblue" d="M490.45,-179.32C474.01,-170.7 448.57,-157.36 429.53,-147.39"/>
<polygon fill="midnightblue" stroke="midnightblue" points="430.99,-144.2 420.51,-142.65 427.74,-150.4 430.99,-144.2"/>
</g>
<!-- Node15&#45;&gt;Node9 -->
<g id="edge18" class="edge">
<title>Node15&#45;&gt;Node9</title>
<path fill="none" stroke="midnightblue" d="M511.96,-179.32C522.76,-160.42 548.57,-115.25 562.93,-90.12"/>
<polygon fill="midnightblue" stroke="midnightblue" points="566.06,-91.7 567.98,-81.28 559.98,-88.23 566.06,-91.7"/>
</g>
<!-- Node16 -->
<g id="node16" class="node">
<title>Node16</title>
<g id="a_node16"><a xlink:href="tensor_i_8_h.html" target="_top" xlink:title=" ">
<polygon fill="white" stroke="black" points="593.5,-123.5 593.5,-142.5 742.5,-142.5 742.5,-123.5 593.5,-123.5"/>
<text text-anchor="middle" x="668" y="-130.5" font-family="Helvetica,sans-Serif" font-size="10.00">amr&#45;wind/core/vs/tensorI.H</text>
</a>
</g>
</g>
<!-- Node15&#45;&gt;Node16 -->
<g id="edge20" class="edge">
<title>Node15&#45;&gt;Node16</title>
<path fill="none" stroke="midnightblue" d="M527.42,-179.44C552.62,-170.32 595.68,-155.81 627.6,-145.65"/>
<polygon fill="midnightblue" stroke="midnightblue" points="629.05,-148.86 637.53,-142.52 626.94,-142.19 629.05,-148.86"/>
</g>
<!-- Node16&#45;&gt;Node14 -->
<g id="edge21" class="edge">
<title>Node16&#45;&gt;Node14</title>
<path fill="none" stroke="midnightblue" d="M723.14,-123.42C744.6,-117.09 767.09,-106.1 780,-87 787.72,-75.59 785.41,-68.67 780,-56 774.85,-43.95 764.72,-33.58 755.17,-25.84"/>
<polygon fill="midnightblue" stroke="midnightblue" points="757.17,-22.96 747.08,-19.74 752.96,-28.55 757.17,-22.96"/>
</g>
<!-- Node16&#45;&gt;Node15 -->
<g id="edge22" class="edge">
<title>Node16&#45;&gt;Node15</title>
<path fill="none" stroke="midnightblue" d="M647.69,-142.52C622.54,-151.62 579.49,-166.13 547.55,-176.3"/>
<polygon fill="midnightblue" stroke="midnightblue" points="546.08,-173.1 537.6,-179.44 548.19,-179.77 546.08,-173.1"/>
</g>
<!-- Node17 -->
<g id="node17" class="node">
<title>Node17</title>
<g id="a_node17"><a xlink:href="trig__ops_8_h.html" target="_top" xlink:title="Trigonometric utilities.">
<polygon fill="white" stroke="black" points="667.5,-56.5 667.5,-86.5 770.5,-86.5 770.5,-56.5 667.5,-56.5"/>
<text text-anchor="start" x="675.5" y="-74.5" font-family="Helvetica,sans-Serif" font-size="10.00">amr&#45;wind/utilities</text>
<text text-anchor="middle" x="719" y="-63.5" font-family="Helvetica,sans-Serif" font-size="10.00">/trig_ops.H</text>
</a>
</g>
</g>
<!-- Node16&#45;&gt;Node17 -->
<g id="edge23" class="edge">
<title>Node16&#45;&gt;Node17</title>
<path fill="none" stroke="midnightblue" d="M675.31,-123.48C681.83,-115.87 691.66,-104.4 700.34,-94.26"/>
<polygon fill="midnightblue" stroke="midnightblue" points="703.13,-96.39 706.98,-86.52 697.81,-91.84 703.13,-96.39"/>
</g>
<!-- Node17&#45;&gt;Node6 -->
<g id="edge26" class="edge">
<title>Node17&#45;&gt;Node6</title>
<path fill="none" stroke="midnightblue" d="M667.17,-57.73C664.08,-57.11 661,-56.53 658,-56 593.94,-44.77 409.86,-25.61 317.79,-16.34"/>
<polygon fill="midnightblue" stroke="midnightblue" points="318.13,-12.85 307.83,-15.34 317.43,-19.82 318.13,-12.85"/>
</g>
<!-- Node17&#45;&gt;Node11 -->
<g id="edge25" class="edge">
<title>Node17&#45;&gt;Node11</title>
<path fill="none" stroke="midnightblue" d="M701.46,-56.4C690.16,-47.31 675.46,-35.49 663.89,-26.19"/>
<polygon fill="midnightblue" stroke="midnightblue" points="665.75,-23.2 655.77,-19.66 661.37,-28.65 665.75,-23.2"/>
</g>
<!-- Node17&#45;&gt;Node14 -->
<g id="edge24" class="edge">
<title>Node17&#45;&gt;Node14</title>
<path fill="none" stroke="midnightblue" d="M722.32,-56.4C724.21,-48.38 726.59,-38.23 728.63,-29.57"/>
<polygon fill="midnightblue" stroke="midnightblue" points="732.08,-30.19 730.96,-19.66 725.27,-28.59 732.08,-30.19"/>
</g>
</g>
</svg>
