<?xml version="1.0" encoding="UTF-8" standalone="no"?>
<!DOCTYPE svg PUBLIC "-//W3C//DTD SVG 1.1//EN"
 "http://www.w3.org/Graphics/SVG/1.1/DTD/svg11.dtd">
<!-- Generated by graphviz version 2.43.0 (0)
 -->
<!-- Title: vector_space.H Pages: 1 -->
<svg width="2756pt" height="308pt"
 viewBox="0.00 0.00 2756.00 308.00" xmlns="http://www.w3.org/2000/svg" xmlns:xlink="http://www.w3.org/1999/xlink">
<g id="graph0" class="graph" transform="scale(1 1) rotate(0) translate(4 304)">
<title>vector_space.H</title>
<polygon fill="white" stroke="transparent" points="-4,4 -4,-304 2752,-304 2752,4 -4,4"/>
<!-- Node1 -->
<g id="node1" class="node">
<title>Node1</title>
<g id="a_node1"><a xlink:title=" ">
<polygon fill="#bfbfbf" stroke="black" points="1748,-280.5 1748,-299.5 1840,-299.5 1840,-280.5 1748,-280.5"/>
<text text-anchor="middle" x="1794" y="-287.5" font-family="Helvetica,sans-Serif" font-size="10.00">vector_space.H</text>
</a>
</g>
</g>
<!-- Node2 -->
<g id="node2" class="node">
<title>Node2</title>
<g id="a_node2"><a xlink:href="_multi_parser_8_h.html" target="_top" xlink:title=" ">
<polygon fill="white" stroke="black" points="497.5,-168.5 497.5,-187.5 578.5,-187.5 578.5,-168.5 497.5,-168.5"/>
<text text-anchor="middle" x="538" y="-175.5" font-family="Helvetica,sans-Serif" font-size="10.00">MultiParser.H</text>
</a>
</g>
</g>
<!-- Node1&#45;&gt;Node2 -->
<g id="edge1" class="edge">
<title>Node1&#45;&gt;Node2</title>
<path fill="none" stroke="midnightblue" d="M1737.18,-289.1C1592.03,-288.74 1195.98,-283.84 869,-244 759.71,-230.68 632.43,-201.87 572.52,-187.5"/>
<polygon fill="midnightblue" stroke="midnightblue" points="1737.59,-292.6 1747.6,-289.12 1737.61,-285.6 1737.59,-292.6"/>
</g>
<!-- Node53 -->
<g id="node14" class="node">
<title>Node53</title>
<g id="a_node14"><a xlink:href="_bluff_body_8_h.html" target="_top" xlink:title=" ">
<polygon fill="white" stroke="black" points="160.5,-168.5 160.5,-187.5 233.5,-187.5 233.5,-168.5 160.5,-168.5"/>
<text text-anchor="middle" x="197" y="-175.5" font-family="Helvetica,sans-Serif" font-size="10.00">BluffBody.H</text>
</a>
</g>
</g>
<!-- Node1&#45;&gt;Node53 -->
<g id="edge17" class="edge">
<title>Node1&#45;&gt;Node53</title>
<path fill="none" stroke="midnightblue" d="M1737.57,-289.25C1480.54,-290.15 427.13,-290.89 288,-244 253.41,-232.34 220.55,-202.75 205.53,-187.85"/>
<polygon fill="midnightblue" stroke="midnightblue" points="1737.81,-292.75 1747.79,-289.22 1737.78,-285.75 1737.81,-292.75"/>
</g>
<!-- Node57 -->
<g id="node18" class="node">
<title>Node57</title>
<g id="a_node18"><a xlink:href="_i_b_types_8_h.html" target="_top" xlink:title=" ">
<polygon fill="white" stroke="black" points="297.5,-224.5 297.5,-243.5 362.5,-243.5 362.5,-224.5 297.5,-224.5"/>
<text text-anchor="middle" x="330" y="-231.5" font-family="Helvetica,sans-Serif" font-size="10.00">IBTypes.H</text>
</a>
</g>
</g>
<!-- Node1&#45;&gt;Node57 -->
<g id="edge22" class="edge">
<title>Node1&#45;&gt;Node57</title>
<path fill="none" stroke="midnightblue" d="M1737.45,-286.91C1495.45,-277.99 550.94,-243.15 362.73,-236.21"/>
<polygon fill="midnightblue" stroke="midnightblue" points="1737.65,-290.42 1747.77,-287.29 1737.9,-283.43 1737.65,-290.42"/>
</g>
<!-- Node59 -->
<g id="node20" class="node">
<title>Node59</title>
<g id="a_node20"><a xlink:href="_ocean_waves_types_8_h.html" target="_top" xlink:title=" ">
<polygon fill="white" stroke="black" points="878,-224.5 878,-243.5 996,-243.5 996,-224.5 878,-224.5"/>
<text text-anchor="middle" x="937" y="-231.5" font-family="Helvetica,sans-Serif" font-size="10.00">OceanWavesTypes.H</text>
</a>
</g>
</g>
<!-- Node1&#45;&gt;Node59 -->
<g id="edge29" class="edge">
<title>Node1&#45;&gt;Node59</title>
<path fill="none" stroke="midnightblue" d="M1737.72,-285.45C1583.23,-275.72 1153.66,-248.65 996,-238.72"/>
<polygon fill="midnightblue" stroke="midnightblue" points="1737.72,-288.96 1747.92,-286.1 1738.16,-281.97 1737.72,-288.96"/>
</g>
<!-- Node61 -->
<g id="node22" class="node">
<title>Node61</title>
<g id="a_node22"><a xlink:href="_relaxation_zones_8_h.html" target="_top" xlink:title=" ">
<polygon fill="white" stroke="black" points="975,-168.5 975,-187.5 1085,-187.5 1085,-168.5 975,-168.5"/>
<text text-anchor="middle" x="1030" y="-175.5" font-family="Helvetica,sans-Serif" font-size="10.00">RelaxationZones.H</text>
</a>
</g>
</g>
<!-- Node1&#45;&gt;Node61 -->
<g id="edge40" class="edge">
<title>Node1&#45;&gt;Node61</title>
<path fill="none" stroke="midnightblue" d="M1737.59,-287.69C1640.1,-284.65 1434.09,-274.83 1263,-244 1185.71,-230.07 1097.01,-201.81 1054.81,-187.59"/>
<polygon fill="midnightblue" stroke="midnightblue" points="1737.71,-291.19 1747.81,-287.99 1737.92,-284.19 1737.71,-291.19"/>
</g>
<!-- Node65 -->
<g id="node26" class="node">
<title>Node65</title>
<g id="a_node26"><a xlink:href="_synthetic_turbulence_8_h.html" target="_top" xlink:title=" ">
<polygon fill="white" stroke="black" points="1600.5,-224.5 1600.5,-243.5 1725.5,-243.5 1725.5,-224.5 1600.5,-224.5"/>
<text text-anchor="middle" x="1663" y="-231.5" font-family="Helvetica,sans-Serif" font-size="10.00">SyntheticTurbulence.H</text>
</a>
</g>
</g>
<!-- Node1&#45;&gt;Node65 -->
<g id="edge41" class="edge">
<title>Node1&#45;&gt;Node65</title>
<path fill="none" stroke="midnightblue" d="M1763.68,-276.5C1739.12,-266.38 1705.18,-252.39 1683.66,-243.52"/>
<polygon fill="midnightblue" stroke="midnightblue" points="1762.66,-279.87 1773.24,-280.44 1765.33,-273.4 1762.66,-279.87"/>
</g>
<!-- Node67 -->
<g id="node28" class="node">
<title>Node67</title>
<g id="a_node28"><a xlink:href="_d_t_u_spinner_sampler_8_h.html" target="_top" xlink:title=" ">
<polygon fill="white" stroke="black" points="1848.5,-168.5 1848.5,-187.5 1973.5,-187.5 1973.5,-168.5 1848.5,-168.5"/>
<text text-anchor="middle" x="1911" y="-175.5" font-family="Helvetica,sans-Serif" font-size="10.00">DTUSpinnerSampler.H</text>
</a>
</g>
</g>
<!-- Node1&#45;&gt;Node67 -->
<g id="edge43" class="edge">
<title>Node1&#45;&gt;Node67</title>
<path fill="none" stroke="midnightblue" d="M1813.16,-273.86C1823.68,-265.35 1836.82,-254.37 1848,-244 1868.74,-224.76 1891.46,-200.44 1903.12,-187.7"/>
<polygon fill="midnightblue" stroke="midnightblue" points="1810.66,-271.38 1805.05,-280.36 1815.04,-276.84 1810.66,-271.38"/>
</g>
<!-- Node69 -->
<g id="node30" class="node">
<title>Node69</title>
<g id="a_node30"><a xlink:href="_lidar_sampler_8_h.html" target="_top" xlink:title=" ">
<polygon fill="white" stroke="black" points="1748.5,-224.5 1748.5,-243.5 1839.5,-243.5 1839.5,-224.5 1748.5,-224.5"/>
<text text-anchor="middle" x="1794" y="-231.5" font-family="Helvetica,sans-Serif" font-size="10.00">LidarSampler.H</text>
</a>
</g>
</g>
<!-- Node1&#45;&gt;Node69 -->
<g id="edge45" class="edge">
<title>Node1&#45;&gt;Node69</title>
<path fill="none" stroke="midnightblue" d="M1794,-269.8C1794,-260.91 1794,-250.78 1794,-243.75"/>
<polygon fill="midnightblue" stroke="midnightblue" points="1790.5,-270.08 1794,-280.08 1797.5,-270.08 1790.5,-270.08"/>
</g>
<!-- Node71 -->
<g id="node32" class="node">
<title>Node71</title>
<g id="a_node32"><a xlink:href="_radar_sampler_8_h.html" target="_top" xlink:title=" ">
<polygon fill="white" stroke="black" points="2114.5,-168.5 2114.5,-187.5 2209.5,-187.5 2209.5,-168.5 2114.5,-168.5"/>
<text text-anchor="middle" x="2162" y="-175.5" font-family="Helvetica,sans-Serif" font-size="10.00">RadarSampler.H</text>
</a>
</g>
</g>
<!-- Node1&#45;&gt;Node71 -->
<g id="edge48" class="edge">
<title>Node1&#45;&gt;Node71</title>
<path fill="none" stroke="midnightblue" d="M1850.29,-281.3C1896.14,-274.17 1962.18,-261.95 2018,-244 2066.31,-228.47 2120,-201.44 2146.06,-187.64"/>
<polygon fill="midnightblue" stroke="midnightblue" points="1849.61,-277.86 1840.25,-282.83 1850.66,-284.78 1849.61,-277.86"/>
</g>
<!-- Node73 -->
<g id="node34" class="node">
<title>Node73</title>
<g id="a_node34"><a xlink:href="_sampling_utils_8_h.html" target="_top" xlink:title=" ">
<polygon fill="white" stroke="black" points="1914.5,-224.5 1914.5,-243.5 2009.5,-243.5 2009.5,-224.5 1914.5,-224.5"/>
<text text-anchor="middle" x="1962" y="-231.5" font-family="Helvetica,sans-Serif" font-size="10.00">SamplingUtils.H</text>
</a>
</g>
</g>
<!-- Node1&#45;&gt;Node73 -->
<g id="edge50" class="edge">
<title>Node1&#45;&gt;Node73</title>
<path fill="none" stroke="midnightblue" d="M1830.39,-277.3C1862.04,-267.13 1907.17,-252.62 1935.5,-243.52"/>
<polygon fill="midnightblue" stroke="midnightblue" points="1829.07,-274.05 1820.62,-280.44 1831.21,-280.72 1829.07,-274.05"/>
</g>
<!-- Node75 -->
<g id="node36" class="node">
<title>Node75</title>
<g id="a_node36"><a xlink:href="_box_refiner_8_h.html" target="_top" xlink:title=" ">
<polygon fill="white" stroke="black" points="2096,-224.5 2096,-243.5 2176,-243.5 2176,-224.5 2096,-224.5"/>
<text text-anchor="middle" x="2136" y="-231.5" font-family="Helvetica,sans-Serif" font-size="10.00">BoxRefiner.H</text>
</a>
</g>
</g>
<!-- Node1&#45;&gt;Node75 -->
<g id="edge54" class="edge">
<title>Node1&#45;&gt;Node75</title>
<path fill="none" stroke="midnightblue" d="M1850.4,-280.09C1919.6,-269.17 2035.18,-250.92 2095.92,-241.33"/>
<polygon fill="midnightblue" stroke="midnightblue" points="1849.46,-276.7 1840.12,-281.72 1850.55,-283.61 1849.46,-276.7"/>
</g>
<!-- Node77 -->
<g id="node38" class="node">
<title>Node77</title>
<g id="a_node38"><a xlink:href="_cylinder_refiner_8_h.html" target="_top" xlink:title=" ">
<polygon fill="white" stroke="black" points="2199.5,-224.5 2199.5,-243.5 2300.5,-243.5 2300.5,-224.5 2199.5,-224.5"/>
<text text-anchor="middle" x="2250" y="-231.5" font-family="Helvetica,sans-Serif" font-size="10.00">CylinderRefiner.H</text>
</a>
</g>
</g>
<!-- Node1&#45;&gt;Node77 -->
<g id="edge56" class="edge">
<title>Node1&#45;&gt;Node77</title>
<path fill="none" stroke="midnightblue" d="M1850.39,-282.92C1926.43,-274.63 2066.04,-259.08 2185,-244 2189.63,-243.41 2194.45,-242.78 2199.27,-242.14"/>
<polygon fill="midnightblue" stroke="midnightblue" points="1849.65,-279.48 1840.09,-284.04 1850.41,-286.44 1849.65,-279.48"/>
</g>
<!-- Node79 -->
<g id="node40" class="node">
<title>Node79</title>
<g id="a_node40"><a xlink:href="_a_b_l_modulated_power_law_8_h.html" target="_top" xlink:title=" ">
<polygon fill="white" stroke="black" points="2322,-224.5 2322,-243.5 2468,-243.5 2468,-224.5 2322,-224.5"/>
<text text-anchor="middle" x="2395" y="-231.5" font-family="Helvetica,sans-Serif" font-size="10.00">ABLModulatedPowerLaw.H</text>
</a>
</g>
</g>
<!-- Node1&#45;&gt;Node79 -->
<g id="edge58" class="edge">
<title>Node1&#45;&gt;Node79</title>
<path fill="none" stroke="midnightblue" d="M1850.41,-284.39C1945.19,-276.57 2142.37,-260 2309,-244 2313.18,-243.6 2317.48,-243.18 2321.82,-242.74"/>
<polygon fill="midnightblue" stroke="midnightblue" points="1849.87,-280.92 1840.19,-285.23 1850.44,-287.9 1849.87,-280.92"/>
</g>
<!-- Node98 -->
<g id="node44" class="node">
<title>Node98</title>
<g id="a_node44"><a xlink:href="actuator__types_8_h.html" target="_top" xlink:title=" ">
<polygon fill="white" stroke="red" points="1387,-224.5 1387,-243.5 1487,-243.5 1487,-224.5 1387,-224.5"/>
<text text-anchor="middle" x="1437" y="-231.5" font-family="Helvetica,sans-Serif" font-size="10.00">actuator_types.H</text>
</a>
</g>
</g>
<!-- Node1&#45;&gt;Node98 -->
<g id="edge63" class="edge">
<title>Node1&#45;&gt;Node98</title>
<path fill="none" stroke="midnightblue" d="M1737.46,-280.45C1668.55,-270.02 1553.17,-252.57 1487.25,-242.6"/>
<polygon fill="midnightblue" stroke="midnightblue" points="1737.28,-283.96 1747.69,-282 1738.33,-277.04 1737.28,-283.96"/>
</g>
<!-- Node112 -->
<g id="node46" class="node">
<title>Node112</title>
<g id="a_node46"><a xlink:href="_actuator_wing_8_h.html" target="_top" xlink:title=" ">
<polygon fill="white" stroke="red" points="1465.5,-168.5 1465.5,-187.5 1558.5,-187.5 1558.5,-168.5 1465.5,-168.5"/>
<text text-anchor="middle" x="1512" y="-175.5" font-family="Helvetica,sans-Serif" font-size="10.00">ActuatorWing.H</text>
</a>
</g>
</g>
<!-- Node1&#45;&gt;Node112 -->
<g id="edge75" class="edge">
<title>Node1&#45;&gt;Node112</title>
<path fill="none" stroke="midnightblue" d="M1737.56,-283.67C1695.47,-278.03 1637.47,-266.64 1591,-244 1561.3,-229.53 1533.05,-201.77 1519.83,-187.68"/>
<polygon fill="midnightblue" stroke="midnightblue" points="1737.27,-287.17 1747.63,-284.96 1738.15,-280.22 1737.27,-287.17"/>
</g>
<!-- Node113 -->
<g id="node47" class="node">
<title>Node113</title>
<g id="a_node47"><a xlink:href="actuator__utils_8_h.html" target="_top" xlink:title=" ">
<polygon fill="white" stroke="red" points="1272,-224.5 1272,-243.5 1366,-243.5 1366,-224.5 1272,-224.5"/>
<text text-anchor="middle" x="1319" y="-231.5" font-family="Helvetica,sans-Serif" font-size="10.00">actuator_utils.H</text>
</a>
</g>
</g>
<!-- Node1&#45;&gt;Node113 -->
<g id="edge68" class="edge">
<title>Node1&#45;&gt;Node113</title>
<path fill="none" stroke="midnightblue" d="M1737.4,-283.67C1657.27,-275.94 1506.23,-260.71 1378,-244 1374.2,-243.5 1370.26,-242.96 1366.31,-242.4"/>
<polygon fill="midnightblue" stroke="midnightblue" points="1737.46,-287.19 1747.75,-284.66 1738.13,-280.22 1737.46,-287.19"/>
</g>
<!-- Node115 -->
<g id="node48" class="node">
<title>Node115</title>
<g id="a_node48"><a xlink:href="_actuator_container_8_h.html" target="_top" xlink:title=" ">
<polygon fill="white" stroke="red" points="2486.5,-224.5 2486.5,-243.5 2601.5,-243.5 2601.5,-224.5 2486.5,-224.5"/>
<text text-anchor="middle" x="2544" y="-231.5" font-family="Helvetica,sans-Serif" font-size="10.00">ActuatorContainer.H</text>
</a>
</g>
</g>
<!-- Node1&#45;&gt;Node115 -->
<g id="edge71" class="edge">
<title>Node1&#45;&gt;Node115</title>
<path fill="none" stroke="midnightblue" d="M1850.19,-286.59C1967.08,-281.29 2244.86,-267.21 2477,-244 2480.04,-243.7 2483.15,-243.36 2486.29,-243.01"/>
<polygon fill="midnightblue" stroke="midnightblue" points="1849.89,-283.1 1840.06,-287.04 1850.2,-290.09 1849.89,-283.1"/>
</g>
<!-- Node106 -->
<g id="node49" class="node">
<title>Node106</title>
<g id="a_node49"><a xlink:href="_actuator_disk_8_h.html" target="_top" xlink:title=" ">
<polygon fill="white" stroke="red" points="2658,-224.5 2658,-243.5 2748,-243.5 2748,-224.5 2658,-224.5"/>
<text text-anchor="middle" x="2703" y="-231.5" font-family="Helvetica,sans-Serif" font-size="10.00">ActuatorDisk.H</text>
</a>
</g>
</g>
<!-- Node1&#45;&gt;Node106 -->
<g id="edge72" class="edge">
<title>Node1&#45;&gt;Node106</title>
<path fill="none" stroke="midnightblue" d="M1850.41,-287.93C1986.95,-284.93 2345.99,-274.54 2644,-244 2648.54,-243.54 2653.25,-242.96 2657.96,-242.34"/>
<polygon fill="midnightblue" stroke="midnightblue" points="1850.12,-284.44 1840.19,-288.15 1850.27,-291.44 1850.12,-284.44"/>
</g>
<!-- Node107 -->
<g id="node50" class="node">
<title>Node107</title>
<g id="a_node50"><a xlink:href="_joukowsky_8_h.html" target="_top" xlink:title=" ">
<polygon fill="white" stroke="red" points="2664.5,-168.5 2664.5,-187.5 2741.5,-187.5 2741.5,-168.5 2664.5,-168.5"/>
<text text-anchor="middle" x="2703" y="-175.5" font-family="Helvetica,sans-Serif" font-size="10.00">Joukowsky.H</text>
</a>
</g>
</g>
<!-- Node1&#45;&gt;Node107 -->
<g id="edge74" class="edge">
<title>Node1&#45;&gt;Node107</title>
<path fill="none" stroke="midnightblue" d="M1850.42,-287.68C2023.38,-283.37 2538.74,-268.61 2610,-244 2627.97,-237.79 2671.7,-204 2692.14,-187.74"/>
<polygon fill="midnightblue" stroke="midnightblue" points="1850.17,-284.18 1840.26,-287.93 1850.34,-291.18 1850.17,-284.18"/>
</g>
<!-- Node3 -->
<g id="node3" class="node">
<title>Node3</title>
<g id="a_node3"><a xlink:href="bluff__body__ops_8cpp.html" target="_top" xlink:title=" ">
<polygon fill="white" stroke="black" points="250,-56.5 250,-75.5 360,-75.5 360,-56.5 250,-56.5"/>
<text text-anchor="middle" x="305" y="-63.5" font-family="Helvetica,sans-Serif" font-size="10.00">bluff_body_ops.cpp</text>
</a>
</g>
</g>
<!-- Node2&#45;&gt;Node3 -->
<g id="edge2" class="edge">
<title>Node2&#45;&gt;Node3</title>
<path fill="none" stroke="midnightblue" d="M513.61,-163.65C497.48,-154.78 475.91,-142.81 457,-132 441.78,-123.3 438.8,-119.59 423,-112 392.37,-97.28 355.57,-83.89 331.31,-75.61"/>
<polygon fill="midnightblue" stroke="midnightblue" points="511.96,-166.74 522.41,-168.49 515.33,-160.6 511.96,-166.74"/>
</g>
<!-- Node4 -->
<g id="node4" class="node">
<title>Node4</title>
<g id="a_node4"><a xlink:href="bluff__body__ops_8_h.html" target="_top" xlink:title=" ">
<polygon fill="white" stroke="red" points="228.5,-112.5 228.5,-131.5 329.5,-131.5 329.5,-112.5 228.5,-112.5"/>
<text text-anchor="middle" x="279" y="-119.5" font-family="Helvetica,sans-Serif" font-size="10.00">bluff_body_ops.H</text>
</a>
</g>
</g>
<!-- Node2&#45;&gt;Node4 -->
<g id="edge3" class="edge">
<title>Node2&#45;&gt;Node4</title>
<path fill="none" stroke="midnightblue" d="M487.19,-166.41C438.28,-156.21 365.24,-140.98 319.94,-131.54"/>
<polygon fill="midnightblue" stroke="midnightblue" points="486.74,-169.89 497.25,-168.5 488.17,-163.04 486.74,-169.89"/>
</g>
<!-- Node11 -->
<g id="node5" class="node">
<title>Node11</title>
<g id="a_node5"><a xlink:href="_i_b_8cpp.html" target="_top" xlink:title=" ">
<polygon fill="white" stroke="black" points="380.5,-56.5 380.5,-75.5 427.5,-75.5 427.5,-56.5 380.5,-56.5"/>
<text text-anchor="middle" x="404" y="-63.5" font-family="Helvetica,sans-Serif" font-size="10.00">IB.cpp</text>
</a>
</g>
</g>
<!-- Node2&#45;&gt;Node11 -->
<g id="edge5" class="edge">
<title>Node2&#45;&gt;Node11</title>
<path fill="none" stroke="midnightblue" d="M519.5,-161.82C490.96,-138.39 437.12,-94.19 414.47,-75.59"/>
<polygon fill="midnightblue" stroke="midnightblue" points="517.54,-164.73 527.49,-168.37 521.98,-159.32 517.54,-164.73"/>
</g>
<!-- Node12 -->
<g id="node6" class="node">
<title>Node12</title>
<g id="a_node6"><a xlink:href="_i_b_model_8_h.html" target="_top" xlink:title=" ">
<polygon fill="white" stroke="red" points="347.5,-112.5 347.5,-131.5 414.5,-131.5 414.5,-112.5 347.5,-112.5"/>
<text text-anchor="middle" x="381" y="-119.5" font-family="Helvetica,sans-Serif" font-size="10.00">IBModel.H</text>
</a>
</g>
</g>
<!-- Node2&#45;&gt;Node12 -->
<g id="edge6" class="edge">
<title>Node2&#45;&gt;Node12</title>
<path fill="none" stroke="midnightblue" d="M503.61,-165.17C474.05,-155 432.13,-140.59 405.76,-131.52"/>
<polygon fill="midnightblue" stroke="midnightblue" points="502.53,-168.5 513.12,-168.44 504.8,-161.88 502.53,-168.5"/>
</g>
<!-- Node13 -->
<g id="node7" class="node">
<title>Node13</title>
<g id="a_node7"><a xlink:href="_ocean_waves_8cpp.html" target="_top" xlink:title=" ">
<polygon fill="white" stroke="black" points="524,-56.5 524,-75.5 624,-75.5 624,-56.5 524,-56.5"/>
<text text-anchor="middle" x="574" y="-63.5" font-family="Helvetica,sans-Serif" font-size="10.00">OceanWaves.cpp</text>
</a>
</g>
</g>
<!-- Node2&#45;&gt;Node13 -->
<g id="edge8" class="edge">
<title>Node2&#45;&gt;Node13</title>
<path fill="none" stroke="midnightblue" d="M536.89,-158.04C536.73,-144.78 537.75,-126.85 543,-112 548,-97.87 558.64,-84.04 566.05,-75.52"/>
<polygon fill="midnightblue" stroke="midnightblue" points="533.4,-158.43 537.26,-168.29 540.4,-158.17 533.4,-158.43"/>
</g>
<!-- Node14 -->
<g id="node8" class="node">
<title>Node14</title>
<g id="a_node8"><a xlink:href="_ocean_waves_model_8_h.html" target="_top" xlink:title=" ">
<polygon fill="white" stroke="red" points="675,-112.5 675,-131.5 795,-131.5 795,-112.5 675,-112.5"/>
<text text-anchor="middle" x="735" y="-119.5" font-family="Helvetica,sans-Serif" font-size="10.00">OceanWavesModel.H</text>
</a>
</g>
</g>
<!-- Node2&#45;&gt;Node14 -->
<g id="edge9" class="edge">
<title>Node2&#45;&gt;Node14</title>
<path fill="none" stroke="midnightblue" d="M579.23,-165.7C616.41,-155.51 670.27,-140.74 703.93,-131.52"/>
<polygon fill="midnightblue" stroke="midnightblue" points="577.93,-162.42 569.22,-168.44 579.78,-169.18 577.93,-162.42"/>
</g>
<!-- Node18 -->
<g id="node9" class="node">
<title>Node18</title>
<g id="a_node9"><a xlink:href="relaxation__zones__ops_8cpp.html" target="_top" xlink:title=" ">
<polygon fill="white" stroke="black" points="698.5,-56.5 698.5,-75.5 841.5,-75.5 841.5,-56.5 698.5,-56.5"/>
<text text-anchor="middle" x="770" y="-63.5" font-family="Helvetica,sans-Serif" font-size="10.00">relaxation_zones_ops.cpp</text>
</a>
</g>
</g>
<!-- Node2&#45;&gt;Node18 -->
<g id="edge11" class="edge">
<title>Node2&#45;&gt;Node18</title>
<path fill="none" stroke="midnightblue" d="M544.07,-158.68C549.93,-143.86 560.25,-123.6 576,-112 611.22,-86.06 659,-74.77 698.33,-69.98"/>
<polygon fill="midnightblue" stroke="midnightblue" points="540.69,-157.72 540.58,-168.31 547.28,-160.1 540.69,-157.72"/>
</g>
<!-- Node19 -->
<g id="node10" class="node">
<title>Node19</title>
<g id="a_node10"><a xlink:href="relaxation__zones__ops_8_h.html" target="_top" xlink:title=" ">
<polygon fill="white" stroke="red" points="813.5,-112.5 813.5,-131.5 946.5,-131.5 946.5,-112.5 813.5,-112.5"/>
<text text-anchor="middle" x="880" y="-119.5" font-family="Helvetica,sans-Serif" font-size="10.00">relaxation_zones_ops.H</text>
</a>
</g>
</g>
<!-- Node2&#45;&gt;Node19 -->
<g id="edge12" class="edge">
<title>Node2&#45;&gt;Node19</title>
<path fill="none" stroke="midnightblue" d="M588.76,-168.98C652.37,-158.94 760.9,-141.81 825.99,-131.53"/>
<polygon fill="midnightblue" stroke="midnightblue" points="587.91,-165.58 578.57,-170.59 589,-172.49 587.91,-165.58"/>
</g>
<!-- Node23 -->
<g id="node11" class="node">
<title>Node23</title>
<g id="a_node11"><a xlink:href="_act_parser_8_h.html" target="_top" xlink:title=" ">
<polygon fill="white" stroke="red" points="585,-112.5 585,-131.5 657,-131.5 657,-112.5 585,-112.5"/>
<text text-anchor="middle" x="621" y="-119.5" font-family="Helvetica,sans-Serif" font-size="10.00">ActParser.H</text>
</a>
</g>
</g>
<!-- Node2&#45;&gt;Node23 -->
<g id="edge14" class="edge">
<title>Node2&#45;&gt;Node23</title>
<path fill="none" stroke="midnightblue" d="M560.1,-162.62C575.26,-152.76 594.88,-139.99 607.7,-131.65"/>
<polygon fill="midnightblue" stroke="midnightblue" points="557.81,-159.94 551.34,-168.32 561.63,-165.8 557.81,-159.94"/>
</g>
<!-- Node4&#45;&gt;Node3 -->
<g id="edge4" class="edge">
<title>Node4&#45;&gt;Node3</title>
<path fill="none" stroke="midnightblue" d="M287.67,-102.98C292.09,-93.82 297.25,-83.09 300.79,-75.75"/>
<polygon fill="midnightblue" stroke="midnightblue" points="284.48,-101.55 283.29,-112.08 290.79,-104.59 284.48,-101.55"/>
</g>
<!-- Node12&#45;&gt;Node11 -->
<g id="edge7" class="edge">
<title>Node12&#45;&gt;Node11</title>
<path fill="none" stroke="midnightblue" d="M388.8,-102.69C392.68,-93.59 397.18,-83.01 400.27,-75.75"/>
<polygon fill="midnightblue" stroke="midnightblue" points="385.5,-101.51 384.8,-112.08 391.94,-104.25 385.5,-101.51"/>
</g>
<!-- Node14&#45;&gt;Node13 -->
<g id="edge10" class="edge">
<title>Node14&#45;&gt;Node13</title>
<path fill="none" stroke="midnightblue" d="M699.74,-109.17C669.42,-99 626.43,-84.59 599.39,-75.52"/>
<polygon fill="midnightblue" stroke="midnightblue" points="698.9,-112.58 709.49,-112.44 701.12,-105.95 698.9,-112.58"/>
</g>
<!-- Node19&#45;&gt;Node18 -->
<g id="edge13" class="edge">
<title>Node19&#45;&gt;Node18</title>
<path fill="none" stroke="midnightblue" d="M853.24,-107.86C832.84,-97.85 805.33,-84.35 787.63,-75.65"/>
<polygon fill="midnightblue" stroke="midnightblue" points="851.81,-111.06 862.33,-112.32 854.89,-104.78 851.81,-111.06"/>
</g>
<!-- Node25 -->
<g id="node12" class="node">
<title>Node25</title>
<g id="a_node12"><a xlink:href="actuator__ops_8_h.html" target="_top" xlink:title=" ">
<polygon fill="white" stroke="red" points="1319,-56.5 1319,-75.5 1409,-75.5 1409,-56.5 1319,-56.5"/>
<text text-anchor="middle" x="1364" y="-63.5" font-family="Helvetica,sans-Serif" font-size="10.00">actuator_ops.H</text>
</a>
</g>
</g>
<!-- Node23&#45;&gt;Node25 -->
<g id="edge15" class="edge">
<title>Node23&#45;&gt;Node25</title>
<path fill="none" stroke="midnightblue" d="M667.34,-112C918.79,-79.5 1209.02,-70.3 1318.89,-67.83"/>
<polygon fill="midnightblue" stroke="midnightblue" points="666.74,-108.55 657.28,-113.31 667.65,-115.49 666.74,-108.55"/>
</g>
<!-- Node26 -->
<g id="node13" class="node">
<title>Node26</title>
<g id="a_node13"><a xlink:href="_act_src_line_op_8_h.html" target="_top" xlink:title=" ">
<polygon fill="white" stroke="red" points="1318,-0.5 1318,-19.5 1410,-19.5 1410,-0.5 1318,-0.5"/>
<text text-anchor="middle" x="1364" y="-7.5" font-family="Helvetica,sans-Serif" font-size="10.00">ActSrcLineOp.H</text>
</a>
</g>
</g>
<!-- Node25&#45;&gt;Node26 -->
<g id="edge16" class="edge">
<title>Node25&#45;&gt;Node26</title>
<path fill="none" stroke="midnightblue" d="M1364,-45.8C1364,-36.91 1364,-26.78 1364,-19.75"/>
<polygon fill="midnightblue" stroke="midnightblue" points="1360.5,-46.08 1364,-56.08 1367.5,-46.08 1360.5,-46.08"/>
</g>
<!-- Node53&#45;&gt;Node4 -->
<g id="edge18" class="edge">
<title>Node53&#45;&gt;Node4</title>
<path fill="none" stroke="midnightblue" d="M218.83,-162.62C233.81,-152.76 253.2,-139.99 265.86,-131.65"/>
<polygon fill="midnightblue" stroke="midnightblue" points="216.6,-159.9 210.17,-168.32 220.45,-165.75 216.6,-159.9"/>
</g>
<!-- Node54 -->
<g id="node15" class="node">
<title>Node54</title>
<g id="a_node15"><a xlink:href="_box_8_h.html" target="_top" xlink:title=" ">
<polygon fill="white" stroke="red" points="0,-112.5 0,-131.5 46,-131.5 46,-112.5 0,-112.5"/>
<text text-anchor="middle" x="23" y="-119.5" font-family="Helvetica,sans-Serif" font-size="10.00">Box.H</text>
</a>
</g>
</g>
<!-- Node53&#45;&gt;Node54 -->
<g id="edge19" class="edge">
<title>Node53&#45;&gt;Node54</title>
<path fill="none" stroke="midnightblue" d="M159.73,-165.43C125.33,-154.76 75.3,-139.23 46.27,-130.22"/>
<polygon fill="midnightblue" stroke="midnightblue" points="158.84,-168.82 169.43,-168.44 160.92,-162.14 158.84,-168.82"/>
</g>
<!-- Node55 -->
<g id="node16" class="node">
<title>Node55</title>
<g id="a_node16"><a xlink:href="_cylinder_8_h.html" target="_top" xlink:title=" ">
<polygon fill="white" stroke="red" points="64.5,-112.5 64.5,-131.5 131.5,-131.5 131.5,-112.5 64.5,-112.5"/>
<text text-anchor="middle" x="98" y="-119.5" font-family="Helvetica,sans-Serif" font-size="10.00">Cylinder.H</text>
</a>
</g>
</g>
<!-- Node53&#45;&gt;Node55 -->
<g id="edge20" class="edge">
<title>Node53&#45;&gt;Node55</title>
<path fill="none" stroke="midnightblue" d="M172.16,-163.45C153.89,-153.48 129.58,-140.23 113.87,-131.65"/>
<polygon fill="midnightblue" stroke="midnightblue" points="170.64,-166.61 181.09,-168.32 173.99,-160.46 170.64,-166.61"/>
</g>
<!-- Node56 -->
<g id="node17" class="node">
<title>Node56</title>
<g id="a_node17"><a xlink:href="_sphere_8_h.html" target="_top" xlink:title=" ">
<polygon fill="white" stroke="red" points="149.5,-112.5 149.5,-131.5 210.5,-131.5 210.5,-112.5 149.5,-112.5"/>
<text text-anchor="middle" x="180" y="-119.5" font-family="Helvetica,sans-Serif" font-size="10.00">Sphere.H</text>
</a>
</g>
</g>
<!-- Node53&#45;&gt;Node56 -->
<g id="edge21" class="edge">
<title>Node53&#45;&gt;Node56</title>
<path fill="none" stroke="midnightblue" d="M191.14,-158.4C188.3,-149.36 185.02,-138.94 182.75,-131.75"/>
<polygon fill="midnightblue" stroke="midnightblue" points="187.85,-159.6 194.19,-168.08 194.53,-157.49 187.85,-159.6"/>
</g>
<!-- Node57&#45;&gt;Node4 -->
<g id="edge23" class="edge">
<title>Node57&#45;&gt;Node4</title>
<path fill="none" stroke="midnightblue" d="M313.67,-217.03C306.32,-208.97 298.15,-198.65 293,-188 283.96,-169.29 280.71,-144.76 279.58,-131.84"/>
<polygon fill="midnightblue" stroke="midnightblue" points="311.17,-219.47 320.62,-224.27 316.22,-214.63 311.17,-219.47"/>
</g>
<!-- Node57&#45;&gt;Node12 -->
<g id="edge25" class="edge">
<title>Node57&#45;&gt;Node12</title>
<path fill="none" stroke="midnightblue" d="M346.33,-217.03C353.68,-208.97 361.85,-198.65 367,-188 376.04,-169.29 379.29,-144.76 380.42,-131.84"/>
<polygon fill="midnightblue" stroke="midnightblue" points="343.78,-214.63 339.38,-224.27 348.83,-219.47 343.78,-214.63"/>
</g>
<!-- Node57&#45;&gt;Node53 -->
<g id="edge24" class="edge">
<title>Node57&#45;&gt;Node53</title>
<path fill="none" stroke="midnightblue" d="M299.55,-220.64C274.59,-210.5 239.92,-196.43 217.98,-187.52"/>
<polygon fill="midnightblue" stroke="midnightblue" points="298.34,-223.92 308.93,-224.44 300.98,-217.44 298.34,-223.92"/>
</g>
<!-- Node58 -->
<g id="node19" class="node">
<title>Node58</title>
<g id="a_node19"><a xlink:href="_i_b_ops_8_h.html" target="_top" xlink:title=" ">
<polygon fill="white" stroke="red" points="302,-168.5 302,-187.5 358,-187.5 358,-168.5 302,-168.5"/>
<text text-anchor="middle" x="330" y="-175.5" font-family="Helvetica,sans-Serif" font-size="10.00">IBOps.H</text>
</a>
</g>
</g>
<!-- Node57&#45;&gt;Node58 -->
<g id="edge26" class="edge">
<title>Node57&#45;&gt;Node58</title>
<path fill="none" stroke="midnightblue" d="M330,-213.8C330,-204.91 330,-194.78 330,-187.75"/>
<polygon fill="midnightblue" stroke="midnightblue" points="326.5,-214.08 330,-224.08 333.5,-214.08 326.5,-214.08"/>
</g>
<!-- Node58&#45;&gt;Node4 -->
<g id="edge27" class="edge">
<title>Node58&#45;&gt;Node4</title>
<path fill="none" stroke="midnightblue" d="M314.62,-160.72C305.63,-151.2 294.64,-139.56 287.26,-131.75"/>
<polygon fill="midnightblue" stroke="midnightblue" points="312.17,-163.22 321.58,-168.08 317.26,-158.41 312.17,-163.22"/>
</g>
<!-- Node58&#45;&gt;Node12 -->
<g id="edge28" class="edge">
<title>Node58&#45;&gt;Node12</title>
<path fill="none" stroke="midnightblue" d="M345.38,-160.72C354.37,-151.2 365.36,-139.56 372.74,-131.75"/>
<polygon fill="midnightblue" stroke="midnightblue" points="342.74,-158.41 338.42,-168.08 347.83,-163.22 342.74,-158.41"/>
</g>
<!-- Node59&#45;&gt;Node14 -->
<g id="edge30" class="edge">
<title>Node59&#45;&gt;Node14</title>
<path fill="none" stroke="midnightblue" d="M874.29,-222.12C846.83,-215.33 815.21,-204.61 790,-188 767.04,-172.87 748.41,-145.41 739.94,-131.53"/>
<polygon fill="midnightblue" stroke="midnightblue" points="873.66,-225.57 884.2,-224.45 875.26,-218.75 873.66,-225.57"/>
</g>
<!-- Node59&#45;&gt;Node19 -->
<g id="edge34" class="edge">
<title>Node59&#45;&gt;Node19</title>
<path fill="none" stroke="midnightblue" d="M933.27,-214.2C930.12,-200.79 924.86,-182.62 917,-168 909.43,-153.92 897.11,-140.08 888.79,-131.55"/>
<polygon fill="midnightblue" stroke="midnightblue" points="929.89,-215.13 935.42,-224.16 936.73,-213.65 929.89,-215.13"/>
</g>
<!-- Node60 -->
<g id="node21" class="node">
<title>Node60</title>
<g id="a_node21"><a xlink:href="_ocean_waves_ops_8_h.html" target="_top" xlink:title=" ">
<polygon fill="white" stroke="red" points="799.5,-168.5 799.5,-187.5 908.5,-187.5 908.5,-168.5 799.5,-168.5"/>
<text text-anchor="middle" x="854" y="-175.5" font-family="Helvetica,sans-Serif" font-size="10.00">OceanWavesOps.H</text>
</a>
</g>
</g>
<!-- Node59&#45;&gt;Node60 -->
<g id="edge31" class="edge">
<title>Node59&#45;&gt;Node60</title>
<path fill="none" stroke="midnightblue" d="M914.9,-218.62C899.74,-208.76 880.12,-195.99 867.3,-187.65"/>
<polygon fill="midnightblue" stroke="midnightblue" points="913.37,-221.8 923.66,-224.32 917.19,-215.94 913.37,-221.8"/>
</g>
<!-- Node59&#45;&gt;Node61 -->
<g id="edge35" class="edge">
<title>Node59&#45;&gt;Node61</title>
<path fill="none" stroke="midnightblue" d="M960.81,-219.18C977.92,-209.24 1000.47,-196.15 1015.1,-187.65"/>
<polygon fill="midnightblue" stroke="midnightblue" points="958.83,-216.28 951.94,-224.32 962.35,-222.33 958.83,-216.28"/>
</g>
<!-- Node60&#45;&gt;Node14 -->
<g id="edge32" class="edge">
<title>Node60&#45;&gt;Node14</title>
<path fill="none" stroke="midnightblue" d="M825.86,-164.23C803.6,-154.13 773.14,-140.31 753.77,-131.52"/>
<polygon fill="midnightblue" stroke="midnightblue" points="824.59,-167.5 835.14,-168.44 827.48,-161.12 824.59,-167.5"/>
</g>
<!-- Node60&#45;&gt;Node19 -->
<g id="edge33" class="edge">
<title>Node60&#45;&gt;Node19</title>
<path fill="none" stroke="midnightblue" d="M862.67,-158.98C867.09,-149.82 872.25,-139.09 875.79,-131.75"/>
<polygon fill="midnightblue" stroke="midnightblue" points="859.48,-157.55 858.29,-168.08 865.79,-160.59 859.48,-157.55"/>
</g>
<!-- Node61&#45;&gt;Node19 -->
<g id="edge38" class="edge">
<title>Node61&#45;&gt;Node19</title>
<path fill="none" stroke="midnightblue" d="M996.78,-165.04C968.55,-154.88 928.74,-140.55 903.66,-131.52"/>
<polygon fill="midnightblue" stroke="midnightblue" points="995.64,-168.35 1006.23,-168.44 998.01,-161.76 995.64,-168.35"/>
</g>
<!-- Node62 -->
<g id="node23" class="node">
<title>Node62</title>
<g id="a_node23"><a xlink:href="_h_o_s_waves_8_h.html" target="_top" xlink:title=" ">
<polygon fill="white" stroke="red" points="965,-112.5 965,-131.5 1045,-131.5 1045,-112.5 965,-112.5"/>
<text text-anchor="middle" x="1005" y="-119.5" font-family="Helvetica,sans-Serif" font-size="10.00">HOSWaves.H</text>
</a>
</g>
</g>
<!-- Node61&#45;&gt;Node62 -->
<g id="edge36" class="edge">
<title>Node61&#45;&gt;Node62</title>
<path fill="none" stroke="midnightblue" d="M1021.66,-158.98C1017.42,-149.82 1012.45,-139.09 1009.05,-131.75"/>
<polygon fill="midnightblue" stroke="midnightblue" points="1018.49,-160.48 1025.87,-168.08 1024.85,-157.54 1018.49,-160.48"/>
</g>
<!-- Node63 -->
<g id="node24" class="node">
<title>Node63</title>
<g id="a_node24"><a xlink:href="_linear_waves_8_h.html" target="_top" xlink:title=" ">
<polygon fill="white" stroke="red" points="1063.5,-112.5 1063.5,-131.5 1152.5,-131.5 1152.5,-112.5 1063.5,-112.5"/>
<text text-anchor="middle" x="1108" y="-119.5" font-family="Helvetica,sans-Serif" font-size="10.00">LinearWaves.H</text>
</a>
</g>
</g>
<!-- Node61&#45;&gt;Node63 -->
<g id="edge37" class="edge">
<title>Node61&#45;&gt;Node63</title>
<path fill="none" stroke="midnightblue" d="M1050.77,-162.62C1065.02,-152.76 1083.46,-139.99 1095.5,-131.65"/>
<polygon fill="midnightblue" stroke="midnightblue" points="1048.76,-159.75 1042.53,-168.32 1052.75,-165.51 1048.76,-159.75"/>
</g>
<!-- Node64 -->
<g id="node25" class="node">
<title>Node64</title>
<g id="a_node25"><a xlink:href="_stokes_waves_8_h.html" target="_top" xlink:title=" ">
<polygon fill="white" stroke="red" points="1171,-112.5 1171,-131.5 1263,-131.5 1263,-112.5 1171,-112.5"/>
<text text-anchor="middle" x="1217" y="-119.5" font-family="Helvetica,sans-Serif" font-size="10.00">StokesWaves.H</text>
</a>
</g>
</g>
<!-- Node61&#45;&gt;Node64 -->
<g id="edge39" class="edge">
<title>Node61&#45;&gt;Node64</title>
<path fill="none" stroke="midnightblue" d="M1069.59,-165.57C1104.87,-155.38 1155.69,-140.7 1187.51,-131.52"/>
<polygon fill="midnightblue" stroke="midnightblue" points="1068.27,-162.31 1059.63,-168.44 1070.21,-169.03 1068.27,-162.31"/>
</g>
<!-- Node66 -->
<g id="node27" class="node">
<title>Node66</title>
<g id="a_node27"><a xlink:href="_synthetic_turbulence_8cpp.html" target="_top" xlink:title=" ">
<polygon fill="white" stroke="black" points="1576.5,-168.5 1576.5,-187.5 1711.5,-187.5 1711.5,-168.5 1576.5,-168.5"/>
<text text-anchor="middle" x="1644" y="-175.5" font-family="Helvetica,sans-Serif" font-size="10.00">SyntheticTurbulence.cpp</text>
</a>
</g>
</g>
<!-- Node65&#45;&gt;Node66 -->
<g id="edge42" class="edge">
<title>Node65&#45;&gt;Node66</title>
<path fill="none" stroke="midnightblue" d="M1656.45,-214.4C1653.28,-205.36 1649.61,-194.94 1647.08,-187.75"/>
<polygon fill="midnightblue" stroke="midnightblue" points="1653.24,-215.81 1659.86,-224.08 1659.85,-213.49 1653.24,-215.81"/>
</g>
<!-- Node68 -->
<g id="node29" class="node">
<title>Node68</title>
<g id="a_node29"><a xlink:href="_d_t_u_spinner_sampler_8cpp.html" target="_top" xlink:title=" ">
<polygon fill="white" stroke="black" points="1844,-112.5 1844,-131.5 1978,-131.5 1978,-112.5 1844,-112.5"/>
<text text-anchor="middle" x="1911" y="-119.5" font-family="Helvetica,sans-Serif" font-size="10.00">DTUSpinnerSampler.cpp</text>
</a>
</g>
</g>
<!-- Node67&#45;&gt;Node68 -->
<g id="edge44" class="edge">
<title>Node67&#45;&gt;Node68</title>
<path fill="none" stroke="midnightblue" d="M1911,-157.8C1911,-148.91 1911,-138.78 1911,-131.75"/>
<polygon fill="midnightblue" stroke="midnightblue" points="1907.5,-158.08 1911,-168.08 1914.5,-158.08 1907.5,-158.08"/>
</g>
<!-- Node69&#45;&gt;Node67 -->
<g id="edge46" class="edge">
<title>Node69&#45;&gt;Node67</title>
<path fill="none" stroke="midnightblue" d="M1821.66,-220.23C1843.55,-210.13 1873.5,-196.31 1892.55,-187.52"/>
<polygon fill="midnightblue" stroke="midnightblue" points="1820.15,-217.08 1812.54,-224.44 1823.09,-223.43 1820.15,-217.08"/>
</g>
<!-- Node70 -->
<g id="node31" class="node">
<title>Node70</title>
<g id="a_node31"><a xlink:href="_lidar_sampler_8cpp.html" target="_top" xlink:title=" ">
<polygon fill="white" stroke="black" points="1729.5,-168.5 1729.5,-187.5 1830.5,-187.5 1830.5,-168.5 1729.5,-168.5"/>
<text text-anchor="middle" x="1780" y="-175.5" font-family="Helvetica,sans-Serif" font-size="10.00">LidarSampler.cpp</text>
</a>
</g>
</g>
<!-- Node69&#45;&gt;Node70 -->
<g id="edge47" class="edge">
<title>Node69&#45;&gt;Node70</title>
<path fill="none" stroke="midnightblue" d="M1789.18,-214.4C1786.83,-205.36 1784.13,-194.94 1782.27,-187.75"/>
<polygon fill="midnightblue" stroke="midnightblue" points="1785.79,-215.28 1791.69,-224.08 1792.57,-213.52 1785.79,-215.28"/>
</g>
<!-- Node72 -->
<g id="node33" class="node">
<title>Node72</title>
<g id="a_node33"><a xlink:href="_radar_sampler_8cpp.html" target="_top" xlink:title=" ">
<polygon fill="white" stroke="black" points="2109.5,-112.5 2109.5,-131.5 2214.5,-131.5 2214.5,-112.5 2109.5,-112.5"/>
<text text-anchor="middle" x="2162" y="-119.5" font-family="Helvetica,sans-Serif" font-size="10.00">RadarSampler.cpp</text>
</a>
</g>
</g>
<!-- Node71&#45;&gt;Node72 -->
<g id="edge49" class="edge">
<title>Node71&#45;&gt;Node72</title>
<path fill="none" stroke="midnightblue" d="M2162,-157.8C2162,-148.91 2162,-138.78 2162,-131.75"/>
<polygon fill="midnightblue" stroke="midnightblue" points="2158.5,-158.08 2162,-168.08 2165.5,-158.08 2158.5,-158.08"/>
</g>
<!-- Node73&#45;&gt;Node67 -->
<g id="edge51" class="edge">
<title>Node73&#45;&gt;Node67</title>
<path fill="none" stroke="midnightblue" d="M1946.62,-216.72C1937.63,-207.2 1926.64,-195.56 1919.26,-187.75"/>
<polygon fill="midnightblue" stroke="midnightblue" points="1944.17,-219.22 1953.58,-224.08 1949.26,-214.41 1944.17,-219.22"/>
</g>
<!-- Node73&#45;&gt;Node71 -->
<g id="edge52" class="edge">
<title>Node73&#45;&gt;Node71</title>
<path fill="none" stroke="midnightblue" d="M2003.37,-221.83C2041.14,-211.63 2096.14,-196.78 2130.46,-187.52"/>
<polygon fill="midnightblue" stroke="midnightblue" points="2002.43,-218.46 1993.69,-224.44 2004.26,-225.22 2002.43,-218.46"/>
</g>
<!-- Node74 -->
<g id="node35" class="node">
<title>Node74</title>
<g id="a_node35"><a xlink:href="_sampling_utils_8cpp.html" target="_top" xlink:title=" ">
<polygon fill="white" stroke="black" points="1991.5,-168.5 1991.5,-187.5 2096.5,-187.5 2096.5,-168.5 1991.5,-168.5"/>
<text text-anchor="middle" x="2044" y="-175.5" font-family="Helvetica,sans-Serif" font-size="10.00">SamplingUtils.cpp</text>
</a>
</g>
</g>
<!-- Node73&#45;&gt;Node74 -->
<g id="edge53" class="edge">
<title>Node73&#45;&gt;Node74</title>
<path fill="none" stroke="midnightblue" d="M1983.83,-218.62C1998.81,-208.76 2018.2,-195.99 2030.86,-187.65"/>
<polygon fill="midnightblue" stroke="midnightblue" points="1981.6,-215.9 1975.17,-224.32 1985.45,-221.75 1981.6,-215.9"/>
</g>
<!-- Node76 -->
<g id="node37" class="node">
<title>Node76</title>
<g id="a_node37"><a xlink:href="_box_refiner_8cpp.html" target="_top" xlink:title=" ">
<polygon fill="white" stroke="black" points="2227.5,-168.5 2227.5,-187.5 2316.5,-187.5 2316.5,-168.5 2227.5,-168.5"/>
<text text-anchor="middle" x="2272" y="-175.5" font-family="Helvetica,sans-Serif" font-size="10.00">BoxRefiner.cpp</text>
</a>
</g>
</g>
<!-- Node75&#45;&gt;Node76 -->
<g id="edge55" class="edge">
<title>Node75&#45;&gt;Node76</title>
<path fill="none" stroke="midnightblue" d="M2167.13,-220.64C2192.66,-210.5 2228.11,-196.43 2250.55,-187.52"/>
<polygon fill="midnightblue" stroke="midnightblue" points="2165.55,-217.5 2157.55,-224.44 2168.14,-224.01 2165.55,-217.5"/>
</g>
<!-- Node78 -->
<g id="node39" class="node">
<title>Node78</title>
<g id="a_node39"><a xlink:href="_cylinder_refiner_8cpp.html" target="_top" xlink:title=" ">
<polygon fill="white" stroke="black" points="2334.5,-168.5 2334.5,-187.5 2445.5,-187.5 2445.5,-168.5 2334.5,-168.5"/>
<text text-anchor="middle" x="2390" y="-175.5" font-family="Helvetica,sans-Serif" font-size="10.00">CylinderRefiner.cpp</text>
</a>
</g>
</g>
<!-- Node77&#45;&gt;Node78 -->
<g id="edge57" class="edge">
<title>Node77&#45;&gt;Node78</title>
<path fill="none" stroke="midnightblue" d="M2281.7,-220.77C2308,-210.63 2344.72,-196.47 2367.92,-187.52"/>
<polygon fill="midnightblue" stroke="midnightblue" points="2280.25,-217.58 2272.18,-224.44 2282.77,-224.11 2280.25,-217.58"/>
</g>
<!-- Node80 -->
<g id="node41" class="node">
<title>Node80</title>
<g id="a_node41"><a xlink:href="_a_b_l_8_h.html" target="_top" xlink:title=" ">
<polygon fill="white" stroke="red" points="2600,-168.5 2600,-187.5 2646,-187.5 2646,-168.5 2600,-168.5"/>
<text text-anchor="middle" x="2623" y="-175.5" font-family="Helvetica,sans-Serif" font-size="10.00">ABL.H</text>
</a>
</g>
</g>
<!-- Node79&#45;&gt;Node80 -->
<g id="edge59" class="edge">
<title>Node79&#45;&gt;Node80</title>
<path fill="none" stroke="midnightblue" d="M2444.89,-222.25C2484.6,-213.52 2541.52,-200.63 2591,-188 2593.91,-187.26 2596.95,-186.45 2599.96,-185.62"/>
<polygon fill="midnightblue" stroke="midnightblue" points="2443.95,-218.87 2434.93,-224.43 2445.45,-225.71 2443.95,-218.87"/>
</g>
<!-- Node95 -->
<g id="node42" class="node">
<title>Node95</title>
<g id="a_node42"><a xlink:href="_a_b_l_fill_m_p_l_8_h.html" target="_top" xlink:title=" ">
<polygon fill="white" stroke="red" points="2502,-168.5 2502,-187.5 2582,-187.5 2582,-168.5 2502,-168.5"/>
<text text-anchor="middle" x="2542" y="-175.5" font-family="Helvetica,sans-Serif" font-size="10.00">ABLFillMPL.H</text>
</a>
</g>
</g>
<!-- Node79&#45;&gt;Node95 -->
<g id="edge60" class="edge">
<title>Node79&#45;&gt;Node95</title>
<path fill="none" stroke="midnightblue" d="M2427.92,-220.91C2455.56,-210.75 2494.34,-196.51 2518.82,-187.52"/>
<polygon fill="midnightblue" stroke="midnightblue" points="2426.47,-217.71 2418.29,-224.44 2428.89,-224.28 2426.47,-217.71"/>
</g>
<!-- Node97 -->
<g id="node43" class="node">
<title>Node97</title>
<g id="a_node43"><a xlink:href="_a_b_l_modulated_power_law_8cpp.html" target="_top" xlink:title=" ">
<polygon fill="white" stroke="black" points="2430,-112.5 2430,-131.5 2586,-131.5 2586,-112.5 2430,-112.5"/>
<text text-anchor="middle" x="2508" y="-119.5" font-family="Helvetica,sans-Serif" font-size="10.00">ABLModulatedPowerLaw.cpp</text>
</a>
</g>
</g>
<!-- Node79&#45;&gt;Node97 -->
<g id="edge62" class="edge">
<title>Node79&#45;&gt;Node97</title>
<path fill="none" stroke="midnightblue" d="M2416.16,-218.65C2427.83,-210.3 2442.29,-199.23 2454,-188 2473.27,-169.52 2492.43,-144.46 2501.9,-131.52"/>
<polygon fill="midnightblue" stroke="midnightblue" points="2414.04,-215.85 2407.86,-224.46 2418.06,-221.59 2414.04,-215.85"/>
</g>
<!-- Node95&#45;&gt;Node97 -->
<g id="edge61" class="edge">
<title>Node95&#45;&gt;Node97</title>
<path fill="none" stroke="midnightblue" d="M2531.02,-159.57C2525.17,-150.27 2518.23,-139.25 2513.51,-131.75"/>
<polygon fill="midnightblue" stroke="midnightblue" points="2528.1,-161.49 2536.39,-168.08 2534.02,-157.76 2528.1,-161.49"/>
</g>
<!-- Node98&#45;&gt;Node25 -->
<g id="edge65" class="edge">
<title>Node98&#45;&gt;Node25</title>
<path fill="none" stroke="midnightblue" d="M1429.02,-214.86C1413.36,-179.25 1379.15,-101.45 1367.77,-75.57"/>
<polygon fill="midnightblue" stroke="midnightblue" points="1425.85,-216.33 1433.08,-224.08 1432.25,-213.51 1425.85,-216.33"/>
</g>
<!-- Node98&#45;&gt;Node26 -->
<g id="edge64" class="edge">
<title>Node98&#45;&gt;Node26</title>
<path fill="none" stroke="midnightblue" d="M1439.41,-213.9C1442.77,-179.92 1445.66,-107.67 1418,-56 1409.42,-39.97 1392.53,-27.36 1379.92,-19.61"/>
<polygon fill="midnightblue" stroke="midnightblue" points="1435.89,-213.9 1438.25,-224.23 1442.84,-214.68 1435.89,-213.9"/>
</g>
<!-- Node99 -->
<g id="node45" class="node">
<title>Node99</title>
<g id="a_node45"><a xlink:href="actuator__utils_8cpp.html" target="_top" xlink:title=" ">
<polygon fill="white" stroke="black" points="1267,-168.5 1267,-187.5 1371,-187.5 1371,-168.5 1267,-168.5"/>
<text text-anchor="middle" x="1319" y="-175.5" font-family="Helvetica,sans-Serif" font-size="10.00">actuator_utils.cpp</text>
</a>
</g>
</g>
<!-- Node98&#45;&gt;Node99 -->
<g id="edge66" class="edge">
<title>Node98&#45;&gt;Node99</title>
<path fill="none" stroke="midnightblue" d="M1409.1,-220.23C1387.03,-210.13 1356.82,-196.31 1337.61,-187.52"/>
<polygon fill="midnightblue" stroke="midnightblue" points="1407.75,-223.46 1418.3,-224.44 1410.67,-217.1 1407.75,-223.46"/>
</g>
<!-- Node98&#45;&gt;Node112 -->
<g id="edge67" class="edge">
<title>Node98&#45;&gt;Node112</title>
<path fill="none" stroke="midnightblue" d="M1457.31,-218.38C1470.86,-208.62 1488.24,-196.11 1499.73,-187.83"/>
<polygon fill="midnightblue" stroke="midnightblue" points="1455.12,-215.64 1449.05,-224.32 1459.21,-221.32 1455.12,-215.64"/>
</g>
<!-- Node113&#45;&gt;Node26 -->
<g id="edge69" class="edge">
<title>Node113&#45;&gt;Node26</title>
<path fill="none" stroke="midnightblue" d="M1290,-219.33C1277.77,-211.92 1264.81,-201.48 1258,-188 1253.99,-180.07 1256.08,-176.68 1258,-168 1260.96,-154.6 1301.64,-66.88 1310,-56 1321.45,-41.1 1338.67,-27.84 1350.57,-19.64"/>
<polygon fill="midnightblue" stroke="midnightblue" points="1288.66,-222.59 1299.09,-224.41 1292.07,-216.48 1288.66,-222.59"/>
</g>
<!-- Node113&#45;&gt;Node99 -->
<g id="edge70" class="edge">
<title>Node113&#45;&gt;Node99</title>
<path fill="none" stroke="midnightblue" d="M1319,-213.8C1319,-204.91 1319,-194.78 1319,-187.75"/>
<polygon fill="midnightblue" stroke="midnightblue" points="1315.5,-214.08 1319,-224.08 1322.5,-214.08 1315.5,-214.08"/>
</g>
<!-- Node106&#45;&gt;Node107 -->
<g id="edge73" class="edge">
<title>Node106&#45;&gt;Node107</title>
<path fill="none" stroke="midnightblue" d="M2703,-213.8C2703,-204.91 2703,-194.78 2703,-187.75"/>
<polygon fill="midnightblue" stroke="midnightblue" points="2699.5,-214.08 2703,-224.08 2706.5,-214.08 2699.5,-214.08"/>
</g>
</g>
</svg>
