<?xml version="1.0" encoding="UTF-8" standalone="no"?>
<!DOCTYPE svg PUBLIC "-//W3C//DTD SVG 1.1//EN"
 "http://www.w3.org/Graphics/SVG/1.1/DTD/svg11.dtd">
<!-- Generated by graphviz version 2.43.0 (0)
 -->
<!-- Title: vof_momentum_flux.H Pages: 1 -->
<svg width="194pt" height="151pt"
 viewBox="0.00 0.00 194.00 151.00" xmlns="http://www.w3.org/2000/svg" xmlns:xlink="http://www.w3.org/1999/xlink">
<g id="graph0" class="graph" transform="scale(1 1) rotate(0) translate(4 147)">
<title>vof_momentum_flux.H</title>
<polygon fill="white" stroke="transparent" points="-4,4 -4,-147 190,-147 190,4 -4,4"/>
<!-- Node1 -->
<g id="node1" class="node">
<title>Node1</title>
<g id="a_node1"><a xlink:title=" ">
<polygon fill="#bfbfbf" stroke="black" points="44.5,-123.5 44.5,-142.5 172.5,-142.5 172.5,-123.5 44.5,-123.5"/>
<text text-anchor="middle" x="108.5" y="-130.5" font-family="Helvetica,sans-Serif" font-size="10.00">vof_momentum_flux.H</text>
</a>
</g>
</g>
<!-- Node2 -->
<g id="node2" class="node">
<title>Node2</title>
<g id="a_node2"><a xlink:href="volume__fractions_8_h.html" target="_top" xlink:title=" ">
<polygon fill="white" stroke="black" points="31,-56.5 31,-86.5 186,-86.5 186,-56.5 31,-56.5"/>
<text text-anchor="start" x="39" y="-74.5" font-family="Helvetica,sans-Serif" font-size="10.00">amr&#45;wind/equation_systems</text>
<text text-anchor="middle" x="108.5" y="-63.5" font-family="Helvetica,sans-Serif" font-size="10.00">/vof/volume_fractions.H</text>
</a>
</g>
</g>
<!-- Node1&#45;&gt;Node2 -->
<g id="edge1" class="edge">
<title>Node1&#45;&gt;Node2</title>
<path fill="none" stroke="midnightblue" d="M108.5,-123.48C108.5,-116.47 108.5,-106.19 108.5,-96.7"/>
<polygon fill="midnightblue" stroke="midnightblue" points="112,-96.52 108.5,-86.52 105,-96.52 112,-96.52"/>
</g>
<!-- Node3 -->
<g id="node3" class="node">
<title>Node3</title>
<g id="a_node3"><a xlink:title=" ">
<polygon fill="white" stroke="#bfbfbf" points="0,-0.5 0,-19.5 117,-19.5 117,-0.5 0,-0.5"/>
<text text-anchor="middle" x="58.5" y="-7.5" font-family="Helvetica,sans-Serif" font-size="10.00">AMReX_FArrayBox.H</text>
</a>
</g>
</g>
<!-- Node2&#45;&gt;Node3 -->
<g id="edge2" class="edge">
<title>Node2&#45;&gt;Node3</title>
<path fill="none" stroke="midnightblue" d="M96.65,-56.4C89.39,-47.75 80.05,-36.64 72.43,-27.58"/>
<polygon fill="midnightblue" stroke="midnightblue" points="74.89,-25.06 65.78,-19.66 69.53,-29.57 74.89,-25.06"/>
</g>
<!-- Node4 -->
<g id="node4" class="node">
<title>Node4</title>
<g id="a_node4"><a xlink:title=" ">
<polygon fill="white" stroke="#bfbfbf" points="135,-0.5 135,-19.5 182,-19.5 182,-0.5 135,-0.5"/>
<text text-anchor="middle" x="158.5" y="-7.5" font-family="Helvetica,sans-Serif" font-size="10.00">cmath</text>
</a>
</g>
</g>
<!-- Node2&#45;&gt;Node4 -->
<g id="edge3" class="edge">
<title>Node2&#45;&gt;Node4</title>
<path fill="none" stroke="midnightblue" d="M120.35,-56.4C127.61,-47.75 136.95,-36.64 144.57,-27.58"/>
<polygon fill="midnightblue" stroke="midnightblue" points="147.47,-29.57 151.22,-19.66 142.11,-25.06 147.47,-29.57"/>
</g>
</g>
</svg>
