<?xml version="1.0" encoding="UTF-8" standalone="no"?>
<!DOCTYPE svg PUBLIC "-//W3C//DTD SVG 1.1//EN"
 "http://www.w3.org/Graphics/SVG/1.1/DTD/svg11.dtd">
<!-- Generated by graphviz version 2.43.0 (0)
 -->
<!-- Title: volume_fractions.H Pages: 1 -->
<svg width="1584pt" height="196pt"
 viewBox="0.00 0.00 1584.00 196.00" xmlns="http://www.w3.org/2000/svg" xmlns:xlink="http://www.w3.org/1999/xlink">
<g id="graph0" class="graph" transform="scale(1 1) rotate(0) translate(4 192)">
<title>volume_fractions.H</title>
<polygon fill="white" stroke="transparent" points="-4,4 -4,-192 1580,-192 1580,4 -4,4"/>
<!-- Node1 -->
<g id="node1" class="node">
<title>Node1</title>
<g id="a_node1"><a xlink:title=" ">
<polygon fill="#bfbfbf" stroke="black" points="741.5,-168.5 741.5,-187.5 853.5,-187.5 853.5,-168.5 741.5,-168.5"/>
<text text-anchor="middle" x="797.5" y="-175.5" font-family="Helvetica,sans-Serif" font-size="10.00">volume_fractions.H</text>
</a>
</g>
</g>
<!-- Node2 -->
<g id="node2" class="node">
<title>Node2</title>
<g id="a_node2"><a xlink:href="_a_b_l_forcing_8cpp.html" target="_top" xlink:title=" ">
<polygon fill="white" stroke="black" points="0,-112.5 0,-131.5 91,-131.5 91,-112.5 0,-112.5"/>
<text text-anchor="middle" x="45.5" y="-119.5" font-family="Helvetica,sans-Serif" font-size="10.00">ABLForcing.cpp</text>
</a>
</g>
</g>
<!-- Node1&#45;&gt;Node2 -->
<g id="edge1" class="edge">
<title>Node1&#45;&gt;Node2</title>
<path fill="none" stroke="midnightblue" d="M731.11,-174.95C606.82,-170.61 330.65,-158.64 99.5,-132 96.76,-131.68 93.95,-131.32 91.12,-130.94"/>
<polygon fill="midnightblue" stroke="midnightblue" points="731.12,-178.45 741.23,-175.3 731.36,-171.45 731.12,-178.45"/>
</g>
<!-- Node3 -->
<g id="node3" class="node">
<title>Node3</title>
<g id="a_node3"><a xlink:href="_geostrophic_forcing_8cpp.html" target="_top" xlink:title=" ">
<polygon fill="white" stroke="black" points="109,-112.5 109,-131.5 240,-131.5 240,-112.5 109,-112.5"/>
<text text-anchor="middle" x="174.5" y="-119.5" font-family="Helvetica,sans-Serif" font-size="10.00">GeostrophicForcing.cpp</text>
</a>
</g>
</g>
<!-- Node1&#45;&gt;Node3 -->
<g id="edge2" class="edge">
<title>Node1&#45;&gt;Node3</title>
<path fill="none" stroke="midnightblue" d="M731.04,-172.4C627.72,-165.05 422.35,-149.69 248.5,-132 245.8,-131.72 243.04,-131.43 240.25,-131.13"/>
<polygon fill="midnightblue" stroke="midnightblue" points="731.1,-175.91 741.32,-173.13 731.59,-168.93 731.1,-175.91"/>
</g>
<!-- Node4 -->
<g id="node4" class="node">
<title>Node4</title>
<g id="a_node4"><a xlink:href="split__advection_8_h.html" target="_top" xlink:title=" ">
<polygon fill="white" stroke="black" points="258,-112.5 258,-131.5 359,-131.5 359,-112.5 258,-112.5"/>
<text text-anchor="middle" x="308.5" y="-119.5" font-family="Helvetica,sans-Serif" font-size="10.00">split_advection.H</text>
</a>
</g>
</g>
<!-- Node1&#45;&gt;Node4 -->
<g id="edge3" class="edge">
<title>Node1&#45;&gt;Node4</title>
<path fill="none" stroke="midnightblue" d="M731.23,-170.97C646.86,-163.08 496.64,-148.32 368.5,-132 365.47,-131.61 362.36,-131.2 359.22,-130.77"/>
<polygon fill="midnightblue" stroke="midnightblue" points="730.91,-174.45 741.19,-171.9 731.56,-167.48 730.91,-174.45"/>
</g>
<!-- Node6 -->
<g id="node6" class="node">
<title>Node6</title>
<g id="a_node6"><a xlink:href="vof__momentum__flux_8_h.html" target="_top" xlink:title=" ">
<polygon fill="white" stroke="black" points="377.5,-112.5 377.5,-131.5 505.5,-131.5 505.5,-112.5 377.5,-112.5"/>
<text text-anchor="middle" x="441.5" y="-119.5" font-family="Helvetica,sans-Serif" font-size="10.00">vof_momentum_flux.H</text>
</a>
</g>
</g>
<!-- Node1&#45;&gt;Node6 -->
<g id="edge5" class="edge">
<title>Node1&#45;&gt;Node6</title>
<path fill="none" stroke="midnightblue" d="M731.43,-166.98C664.23,-156.78 561.21,-141.16 497.78,-131.54"/>
<polygon fill="midnightblue" stroke="midnightblue" points="731.07,-170.46 741.48,-168.5 732.12,-163.54 731.07,-170.46"/>
</g>
<!-- Node10 -->
<g id="node10" class="node">
<title>Node10</title>
<g id="a_node10"><a xlink:href="incflo__compute__dt_8cpp.html" target="_top" xlink:title=" ">
<polygon fill="white" stroke="black" points="523.5,-112.5 523.5,-131.5 649.5,-131.5 649.5,-112.5 523.5,-112.5"/>
<text text-anchor="middle" x="586.5" y="-119.5" font-family="Helvetica,sans-Serif" font-size="10.00">incflo_compute_dt.cpp</text>
</a>
</g>
</g>
<!-- Node1&#45;&gt;Node10 -->
<g id="edge9" class="edge">
<title>Node1&#45;&gt;Node10</title>
<path fill="none" stroke="midnightblue" d="M754.36,-165.96C714.51,-155.76 656.14,-140.82 619.78,-131.52"/>
<polygon fill="midnightblue" stroke="midnightblue" points="753.51,-169.35 764.07,-168.44 755.25,-162.57 753.51,-169.35"/>
</g>
<!-- Node11 -->
<g id="node11" class="node">
<title>Node11</title>
<g id="a_node11"><a xlink:href="linear__waves__ops_8_h.html" target="_top" xlink:title=" ">
<polygon fill="white" stroke="black" points="667.5,-112.5 667.5,-131.5 781.5,-131.5 781.5,-112.5 667.5,-112.5"/>
<text text-anchor="middle" x="724.5" y="-119.5" font-family="Helvetica,sans-Serif" font-size="10.00">linear_waves_ops.H</text>
</a>
</g>
</g>
<!-- Node1&#45;&gt;Node11 -->
<g id="edge10" class="edge">
<title>Node1&#45;&gt;Node11</title>
<path fill="none" stroke="midnightblue" d="M777.36,-162.1C764.22,-152.38 747.52,-140.03 736.44,-131.83"/>
<polygon fill="midnightblue" stroke="midnightblue" points="775.65,-165.19 785.77,-168.32 779.81,-159.56 775.65,-165.19"/>
</g>
<!-- Node13 -->
<g id="node13" class="node">
<title>Node13</title>
<g id="a_node13"><a xlink:href="relaxation__zones__ops_8cpp.html" target="_top" xlink:title=" ">
<polygon fill="white" stroke="black" points="800,-112.5 800,-131.5 943,-131.5 943,-112.5 800,-112.5"/>
<text text-anchor="middle" x="871.5" y="-119.5" font-family="Helvetica,sans-Serif" font-size="10.00">relaxation_zones_ops.cpp</text>
</a>
</g>
</g>
<!-- Node1&#45;&gt;Node13 -->
<g id="edge12" class="edge">
<title>Node1&#45;&gt;Node13</title>
<path fill="none" stroke="midnightblue" d="M817.53,-162.38C830.91,-152.62 848.06,-140.11 859.39,-131.83"/>
<polygon fill="midnightblue" stroke="midnightblue" points="815.4,-159.6 809.39,-168.32 819.53,-165.26 815.4,-159.6"/>
</g>
<!-- Node14 -->
<g id="node14" class="node">
<title>Node14</title>
<g id="a_node14"><a xlink:href="stokes__waves__ops_8_h.html" target="_top" xlink:title=" ">
<polygon fill="white" stroke="black" points="961.5,-112.5 961.5,-131.5 1079.5,-131.5 1079.5,-112.5 961.5,-112.5"/>
<text text-anchor="middle" x="1020.5" y="-119.5" font-family="Helvetica,sans-Serif" font-size="10.00">stokes_waves_ops.H</text>
</a>
</g>
</g>
<!-- Node1&#45;&gt;Node14 -->
<g id="edge13" class="edge">
<title>Node1&#45;&gt;Node14</title>
<path fill="none" stroke="midnightblue" d="M842.56,-166.09C884.69,-155.89 946.74,-140.86 985.33,-131.52"/>
<polygon fill="midnightblue" stroke="midnightblue" points="841.73,-162.69 832.84,-168.44 843.38,-169.49 841.73,-162.69"/>
</g>
<!-- Node16 -->
<g id="node16" class="node">
<title>Node16</title>
<g id="a_node16"><a xlink:href="waves2amr__ops_8_h.html" target="_top" xlink:title=" ">
<polygon fill="white" stroke="black" points="1098,-112.5 1098,-131.5 1205,-131.5 1205,-112.5 1098,-112.5"/>
<text text-anchor="middle" x="1151.5" y="-119.5" font-family="Helvetica,sans-Serif" font-size="10.00">waves2amr_ops.H</text>
</a>
</g>
</g>
<!-- Node1&#45;&gt;Node16 -->
<g id="edge15" class="edge">
<title>Node1&#45;&gt;Node16</title>
<path fill="none" stroke="midnightblue" d="M863.72,-166.9C931.43,-156.57 1035.3,-140.73 1097.99,-131.16"/>
<polygon fill="midnightblue" stroke="midnightblue" points="862.95,-163.48 853.59,-168.44 864.01,-170.4 862.95,-163.48"/>
</g>
<!-- Node18 -->
<g id="node18" class="node">
<title>Node18</title>
<g id="a_node18"><a xlink:href="overset__ops__routines_8_h.html" target="_top" xlink:title=" ">
<polygon fill="white" stroke="black" points="1223,-112.5 1223,-131.5 1354,-131.5 1354,-112.5 1223,-112.5"/>
<text text-anchor="middle" x="1288.5" y="-119.5" font-family="Helvetica,sans-Serif" font-size="10.00">overset_ops_routines.H</text>
</a>
</g>
</g>
<!-- Node1&#45;&gt;Node18 -->
<g id="edge17" class="edge">
<title>Node1&#45;&gt;Node18</title>
<path fill="none" stroke="midnightblue" d="M863.9,-170.06C946.03,-161.42 1090.12,-146.08 1213.5,-132 1216.5,-131.66 1219.56,-131.31 1222.65,-130.95"/>
<polygon fill="midnightblue" stroke="midnightblue" points="863.29,-166.6 853.71,-171.13 864.02,-173.57 863.29,-166.6"/>
</g>
<!-- Node21 -->
<g id="node21" class="node">
<title>Node21</title>
<g id="a_node21"><a xlink:href="_multi_phase_8cpp.html" target="_top" xlink:title=" ">
<polygon fill="white" stroke="black" points="1372,-112.5 1372,-131.5 1463,-131.5 1463,-112.5 1372,-112.5"/>
<text text-anchor="middle" x="1417.5" y="-119.5" font-family="Helvetica,sans-Serif" font-size="10.00">MultiPhase.cpp</text>
</a>
</g>
</g>
<!-- Node1&#45;&gt;Node21 -->
<g id="edge20" class="edge">
<title>Node1&#45;&gt;Node21</title>
<path fill="none" stroke="midnightblue" d="M864.12,-173.56C970.13,-167.67 1183.6,-154.1 1363.5,-132 1366.24,-131.66 1369.04,-131.29 1371.87,-130.89"/>
<polygon fill="midnightblue" stroke="midnightblue" points="863.69,-170.08 853.9,-174.12 864.07,-177.07 863.69,-170.08"/>
</g>
<!-- Node22 -->
<g id="node22" class="node">
<title>Node22</title>
<g id="a_node22"><a xlink:href="_free_surface_8cpp.html" target="_top" xlink:title=" ">
<polygon fill="white" stroke="black" points="1481,-112.5 1481,-131.5 1576,-131.5 1576,-112.5 1481,-112.5"/>
<text text-anchor="middle" x="1528.5" y="-119.5" font-family="Helvetica,sans-Serif" font-size="10.00">FreeSurface.cpp</text>
</a>
</g>
</g>
<!-- Node1&#45;&gt;Node22 -->
<g id="edge21" class="edge">
<title>Node1&#45;&gt;Node22</title>
<path fill="none" stroke="midnightblue" d="M863.89,-174.62C985.1,-169.82 1250.25,-157.21 1472.5,-132 1475.24,-131.69 1478.05,-131.34 1480.88,-130.96"/>
<polygon fill="midnightblue" stroke="midnightblue" points="863.52,-171.13 853.66,-175.02 863.79,-178.13 863.52,-171.13"/>
</g>
<!-- Node5 -->
<g id="node5" class="node">
<title>Node5</title>
<g id="a_node5"><a xlink:href="_split_advection_8cpp.html" target="_top" xlink:title=" ">
<polygon fill="white" stroke="black" points="255,-56.5 255,-75.5 362,-75.5 362,-56.5 255,-56.5"/>
<text text-anchor="middle" x="308.5" y="-63.5" font-family="Helvetica,sans-Serif" font-size="10.00">SplitAdvection.cpp</text>
</a>
</g>
</g>
<!-- Node4&#45;&gt;Node5 -->
<g id="edge4" class="edge">
<title>Node4&#45;&gt;Node5</title>
<path fill="none" stroke="midnightblue" d="M308.5,-101.8C308.5,-92.91 308.5,-82.78 308.5,-75.75"/>
<polygon fill="midnightblue" stroke="midnightblue" points="305,-102.08 308.5,-112.08 312,-102.08 305,-102.08"/>
</g>
<!-- Node7 -->
<g id="node7" class="node">
<title>Node7</title>
<g id="a_node7"><a xlink:href="icns__advection_8_h.html" target="_top" xlink:title=" ">
<polygon fill="white" stroke="black" points="391.5,-56.5 391.5,-75.5 491.5,-75.5 491.5,-56.5 391.5,-56.5"/>
<text text-anchor="middle" x="441.5" y="-63.5" font-family="Helvetica,sans-Serif" font-size="10.00">icns_advection.H</text>
</a>
</g>
</g>
<!-- Node6&#45;&gt;Node7 -->
<g id="edge6" class="edge">
<title>Node6&#45;&gt;Node7</title>
<path fill="none" stroke="midnightblue" d="M441.5,-101.8C441.5,-92.91 441.5,-82.78 441.5,-75.75"/>
<polygon fill="midnightblue" stroke="midnightblue" points="438,-102.08 441.5,-112.08 445,-102.08 438,-102.08"/>
</g>
<!-- Node8 -->
<g id="node8" class="node">
<title>Node8</title>
<g id="a_node8"><a xlink:href="icns_8cpp.html" target="_top" xlink:title=" ">
<polygon fill="white" stroke="black" points="363.5,-0.5 363.5,-19.5 419.5,-19.5 419.5,-0.5 363.5,-0.5"/>
<text text-anchor="middle" x="391.5" y="-7.5" font-family="Helvetica,sans-Serif" font-size="10.00">icns.cpp</text>
</a>
</g>
</g>
<!-- Node7&#45;&gt;Node8 -->
<g id="edge7" class="edge">
<title>Node7&#45;&gt;Node8</title>
<path fill="none" stroke="midnightblue" d="M426.42,-48.72C417.61,-39.2 406.83,-27.56 399.6,-19.75"/>
<polygon fill="midnightblue" stroke="midnightblue" points="423.88,-51.12 433.24,-56.08 429.02,-46.37 423.88,-51.12"/>
</g>
<!-- Node9 -->
<g id="node9" class="node">
<title>Node9</title>
<g id="a_node9"><a xlink:href="icns__advection_8cpp.html" target="_top" xlink:title=" ">
<polygon fill="white" stroke="black" points="437.5,-0.5 437.5,-19.5 547.5,-19.5 547.5,-0.5 437.5,-0.5"/>
<text text-anchor="middle" x="492.5" y="-7.5" font-family="Helvetica,sans-Serif" font-size="10.00">icns_advection.cpp</text>
</a>
</g>
</g>
<!-- Node7&#45;&gt;Node9 -->
<g id="edge8" class="edge">
<title>Node7&#45;&gt;Node9</title>
<path fill="none" stroke="midnightblue" d="M456.88,-48.72C465.87,-39.2 476.86,-27.56 484.24,-19.75"/>
<polygon fill="midnightblue" stroke="midnightblue" points="454.24,-46.41 449.92,-56.08 459.33,-51.22 454.24,-46.41"/>
</g>
<!-- Node12 -->
<g id="node12" class="node">
<title>Node12</title>
<g id="a_node12"><a xlink:href="_linear_waves_8cpp.html" target="_top" xlink:title=" ">
<polygon fill="white" stroke="black" points="675,-56.5 675,-75.5 774,-75.5 774,-56.5 675,-56.5"/>
<text text-anchor="middle" x="724.5" y="-63.5" font-family="Helvetica,sans-Serif" font-size="10.00">LinearWaves.cpp</text>
</a>
</g>
</g>
<!-- Node11&#45;&gt;Node12 -->
<g id="edge11" class="edge">
<title>Node11&#45;&gt;Node12</title>
<path fill="none" stroke="midnightblue" d="M724.5,-101.8C724.5,-92.91 724.5,-82.78 724.5,-75.75"/>
<polygon fill="midnightblue" stroke="midnightblue" points="721,-102.08 724.5,-112.08 728,-102.08 721,-102.08"/>
</g>
<!-- Node15 -->
<g id="node15" class="node">
<title>Node15</title>
<g id="a_node15"><a xlink:href="_stokes_waves_8cpp.html" target="_top" xlink:title=" ">
<polygon fill="white" stroke="black" points="970,-56.5 970,-75.5 1071,-75.5 1071,-56.5 970,-56.5"/>
<text text-anchor="middle" x="1020.5" y="-63.5" font-family="Helvetica,sans-Serif" font-size="10.00">StokesWaves.cpp</text>
</a>
</g>
</g>
<!-- Node14&#45;&gt;Node15 -->
<g id="edge14" class="edge">
<title>Node14&#45;&gt;Node15</title>
<path fill="none" stroke="midnightblue" d="M1020.5,-101.8C1020.5,-92.91 1020.5,-82.78 1020.5,-75.75"/>
<polygon fill="midnightblue" stroke="midnightblue" points="1017,-102.08 1020.5,-112.08 1024,-102.08 1017,-102.08"/>
</g>
<!-- Node17 -->
<g id="node17" class="node">
<title>Node17</title>
<g id="a_node17"><a xlink:href="_w2_a_waves_8cpp.html" target="_top" xlink:title=" ">
<polygon fill="white" stroke="black" points="1106,-56.5 1106,-75.5 1197,-75.5 1197,-56.5 1106,-56.5"/>
<text text-anchor="middle" x="1151.5" y="-63.5" font-family="Helvetica,sans-Serif" font-size="10.00">W2AWaves.cpp</text>
</a>
</g>
</g>
<!-- Node16&#45;&gt;Node17 -->
<g id="edge16" class="edge">
<title>Node16&#45;&gt;Node17</title>
<path fill="none" stroke="midnightblue" d="M1151.5,-101.8C1151.5,-92.91 1151.5,-82.78 1151.5,-75.75"/>
<polygon fill="midnightblue" stroke="midnightblue" points="1148,-102.08 1151.5,-112.08 1155,-102.08 1148,-102.08"/>
</g>
<!-- Node19 -->
<g id="node19" class="node">
<title>Node19</title>
<g id="a_node19"><a xlink:href="overset__ops__routines_8cpp.html" target="_top" xlink:title=" ">
<polygon fill="white" stroke="black" points="1216,-56.5 1216,-75.5 1357,-75.5 1357,-56.5 1216,-56.5"/>
<text text-anchor="middle" x="1286.5" y="-63.5" font-family="Helvetica,sans-Serif" font-size="10.00">overset_ops_routines.cpp</text>
</a>
</g>
</g>
<!-- Node18&#45;&gt;Node19 -->
<g id="edge18" class="edge">
<title>Node18&#45;&gt;Node19</title>
<path fill="none" stroke="midnightblue" d="M1287.79,-101.8C1287.46,-92.91 1287.08,-82.78 1286.82,-75.75"/>
<polygon fill="midnightblue" stroke="midnightblue" points="1284.3,-102.22 1288.17,-112.08 1291.3,-101.96 1284.3,-102.22"/>
</g>
<!-- Node20 -->
<g id="node20" class="node">
<title>Node20</title>
<g id="a_node20"><a xlink:href="_overset_ops_8cpp.html" target="_top" xlink:title=" ">
<polygon fill="white" stroke="black" points="1375.5,-56.5 1375.5,-75.5 1469.5,-75.5 1469.5,-56.5 1375.5,-56.5"/>
<text text-anchor="middle" x="1422.5" y="-63.5" font-family="Helvetica,sans-Serif" font-size="10.00">OversetOps.cpp</text>
</a>
</g>
</g>
<!-- Node18&#45;&gt;Node20 -->
<g id="edge19" class="edge">
<title>Node18&#45;&gt;Node20</title>
<path fill="none" stroke="midnightblue" d="M1319.18,-108.64C1344.32,-98.5 1379.25,-84.43 1401.37,-75.52"/>
<polygon fill="midnightblue" stroke="midnightblue" points="1317.7,-105.46 1309.73,-112.44 1320.32,-111.95 1317.7,-105.46"/>
</g>
</g>
</svg>
