<?xml version="1.0" encoding="UTF-8" standalone="no"?>
<!DOCTYPE svg PUBLIC "-//W3C//DTD SVG 1.1//EN"
 "http://www.w3.org/Graphics/SVG/1.1/DTD/svg11.dtd">
<!-- Generated by graphviz version 2.43.0 (0)
 -->
<!-- Title: /home/runner/work/amr&#45;wind/amr&#45;wind/amr&#45;wind/wind_energy/ABLMesoscaleInput.cpp Pages: 1 -->
<svg width="800pt" height="170pt"
 viewBox="0.00 0.00 799.50 170.00" xmlns="http://www.w3.org/2000/svg" xmlns:xlink="http://www.w3.org/1999/xlink">
<g id="graph0" class="graph" transform="scale(1 1) rotate(0) translate(4 166)">
<title>/home/runner/work/amr&#45;wind/amr&#45;wind/amr&#45;wind/wind_energy/ABLMesoscaleInput.cpp</title>
<!-- Node1 -->
<g id="Node000001" class="node">
<title>Node1</title>
<g id="a_Node000001"><a xlink:title=" ">
<polygon fill="#999999" stroke="#666666" points="569,-162 369,-162 369,-121 569,-121 569,-162"/>
<text text-anchor="start" x="377" y="-150" font-family="Helvetica,sans-Serif" font-size="10.00">/home/runner/work/amr</text>
<text text-anchor="start" x="377" y="-139" font-family="Helvetica,sans-Serif" font-size="10.00">&#45;wind/amr&#45;wind/amr&#45;wind</text>
<text text-anchor="middle" x="469" y="-128" font-family="Helvetica,sans-Serif" font-size="10.00">/wind_energy/ABLMesoscaleInput.cpp</text>
</a>
</g>
</g>
<!-- Node2 -->
<g id="Node000002" class="node">
<title>Node2</title>
<g id="a_Node000002"><a xlink:href="_a_b_l_mesoscale_input_8_h.html" target="_top" xlink:title=" ">
<polygon fill="white" stroke="#666666" points="229,-85 101,-85 101,-55 229,-55 229,-85"/>
<text text-anchor="start" x="109" y="-73" font-family="Helvetica,sans-Serif" font-size="10.00">amr&#45;wind/wind_energy</text>
<text text-anchor="middle" x="165" y="-62" font-family="Helvetica,sans-Serif" font-size="10.00">/ABLMesoscaleInput.H</text>
</a>
</g>
</g>
<!-- Node1&#45;&gt;Node2 -->
<g id="edge1_Node000001_Node000002" class="edge">
<title>Node1&#45;&gt;Node2</title>
<g id="a_edge1_Node000001_Node000002"><a xlink:title=" ">
<path fill="none" stroke="#63b8ff" d="M383.51,-120.96C336.98,-110.32 280.09,-97.31 236.02,-87.24"/>
<polygon fill="#63b8ff" stroke="#63b8ff" points="236.78,-83.82 226.25,-85 235.22,-90.64 236.78,-83.82"/>
</a>
</g>
</g>
<!-- Node6 -->
<g id="Node000006" class="node">
<title>Node6</title>
<g id="a_Node000006"><a xlink:href="nc__interface_8_h.html" target="_top" xlink:title=" ">
<polygon fill="white" stroke="#666666" points="374.5,-85 249.5,-85 249.5,-55 374.5,-55 374.5,-85"/>
<text text-anchor="start" x="257.5" y="-73" font-family="Helvetica,sans-Serif" font-size="10.00">amr&#45;wind/utilities</text>
<text text-anchor="middle" x="312" y="-62" font-family="Helvetica,sans-Serif" font-size="10.00">/ncutils/nc_interface.H</text>
</a>
</g>
</g>
<!-- Node1&#45;&gt;Node6 -->
<g id="edge5_Node000001_Node000006" class="edge">
<title>Node1&#45;&gt;Node6</title>
<g id="a_edge5_Node000001_Node000006"><a xlink:title=" ">
<path fill="none" stroke="#63b8ff" d="M424.85,-120.96C402.41,-111.02 375.31,-99.03 353.29,-89.28"/>
<polygon fill="#63b8ff" stroke="#63b8ff" points="354.44,-85.96 343.88,-85.11 351.61,-92.36 354.44,-85.96"/>
</a>
</g>
</g>
<!-- Node11 -->
<g id="Node000011" class="node">
<title>Node11</title>
<g id="a_Node000011"><a xlink:title=" ">
<polygon fill="#e0e0e0" stroke="#999999" points="545.5,-79.5 392.5,-79.5 392.5,-60.5 545.5,-60.5 545.5,-79.5"/>
<text text-anchor="middle" x="469" y="-67.5" font-family="Helvetica,sans-Serif" font-size="10.00">AMReX_ParallelDescriptor.H</text>
</a>
</g>
</g>
<!-- Node1&#45;&gt;Node11 -->
<g id="edge12_Node000001_Node000011" class="edge">
<title>Node1&#45;&gt;Node11</title>
<g id="a_edge12_Node000001_Node000011"><a xlink:title=" ">
<path fill="none" stroke="#63b8ff" d="M469,-120.77C469,-111.08 469,-99.46 469,-89.88"/>
<polygon fill="#63b8ff" stroke="#63b8ff" points="472.5,-89.82 469,-79.82 465.5,-89.82 472.5,-89.82"/>
</a>
</g>
</g>
<!-- Node12 -->
<g id="Node000012" class="node">
<title>Node12</title>
<g id="a_Node000012"><a xlink:title=" ">
<polygon fill="#e0e0e0" stroke="#999999" points="654,-79.5 564,-79.5 564,-60.5 654,-60.5 654,-79.5"/>
<text text-anchor="middle" x="609" y="-67.5" font-family="Helvetica,sans-Serif" font-size="10.00">AMReX_Print.H</text>
</a>
</g>
</g>
<!-- Node1&#45;&gt;Node12 -->
<g id="edge13_Node000001_Node000012" class="edge">
<title>Node1&#45;&gt;Node12</title>
<g id="a_edge13_Node000001_Node000012"><a xlink:title=" ">
<path fill="none" stroke="#63b8ff" d="M508.37,-120.96C532.11,-109.17 561.7,-94.48 582.63,-84.09"/>
<polygon fill="#63b8ff" stroke="#63b8ff" points="584.47,-87.09 591.87,-79.5 581.36,-80.82 584.47,-87.09"/>
</a>
</g>
</g>
<!-- Node13 -->
<g id="Node000013" class="node">
<title>Node13</title>
<g id="a_Node000013"><a xlink:title=" ">
<polygon fill="#e0e0e0" stroke="#999999" points="791.5,-79.5 672.5,-79.5 672.5,-60.5 791.5,-60.5 791.5,-79.5"/>
<text text-anchor="middle" x="732" y="-67.5" font-family="Helvetica,sans-Serif" font-size="10.00">AMReX_ParmParse.H</text>
</a>
</g>
</g>
<!-- Node1&#45;&gt;Node13 -->
<g id="edge14_Node000001_Node000013" class="edge">
<title>Node1&#45;&gt;Node13</title>
<g id="a_edge14_Node000001_Node000013"><a xlink:title=" ">
<path fill="none" stroke="#63b8ff" d="M542.96,-120.96C590.48,-108.4 650.49,-92.54 689.99,-82.1"/>
<polygon fill="#63b8ff" stroke="#63b8ff" points="691.05,-85.44 699.82,-79.5 689.26,-78.67 691.05,-85.44"/>
</a>
</g>
</g>
<!-- Node3 -->
<g id="Node000003" class="node">
<title>Node3</title>
<g id="a_Node000003"><a xlink:title=" ">
<polygon fill="#e0e0e0" stroke="#999999" points="270,-19 226,-19 226,0 270,0 270,-19"/>
<text text-anchor="middle" x="248" y="-7" font-family="Helvetica,sans-Serif" font-size="10.00">string</text>
</a>
</g>
</g>
<!-- Node2&#45;&gt;Node3 -->
<g id="edge2_Node000002_Node000003" class="edge">
<title>Node2&#45;&gt;Node3</title>
<g id="a_edge2_Node000002_Node000003"><a xlink:title=" ">
<path fill="none" stroke="#63b8ff" d="M185.09,-54.84C197.88,-45.83 214.4,-34.18 227.3,-25.09"/>
<polygon fill="#63b8ff" stroke="#63b8ff" points="229.41,-27.89 235.56,-19.27 225.37,-22.17 229.41,-27.89"/>
</a>
</g>
</g>
<!-- Node4 -->
<g id="Node000004" class="node">
<title>Node4</title>
<g id="a_Node000004"><a xlink:title=" ">
<polygon fill="#e0e0e0" stroke="#999999" points="208,-19 116,-19 116,0 208,0 208,-19"/>
<text text-anchor="middle" x="162" y="-7" font-family="Helvetica,sans-Serif" font-size="10.00">AMReX_REAL.H</text>
</a>
</g>
</g>
<!-- Node2&#45;&gt;Node4 -->
<g id="edge3_Node000002_Node000004" class="edge">
<title>Node2&#45;&gt;Node4</title>
<g id="a_edge3_Node000002_Node000004"><a xlink:title=" ">
<path fill="none" stroke="#63b8ff" d="M164.27,-54.84C163.88,-47.21 163.4,-37.7 162.97,-29.45"/>
<polygon fill="#63b8ff" stroke="#63b8ff" points="166.46,-29.07 162.45,-19.27 159.47,-29.43 166.46,-29.07"/>
</a>
</g>
</g>
<!-- Node5 -->
<g id="Node000005" class="node">
<title>Node5</title>
<g id="a_Node000005"><a xlink:title=" ">
<polygon fill="#e0e0e0" stroke="#999999" points="98,-19 0,-19 0,0 98,0 98,-19"/>
<text text-anchor="middle" x="49" y="-7" font-family="Helvetica,sans-Serif" font-size="10.00">AMReX_Vector.H</text>
</a>
</g>
</g>
<!-- Node2&#45;&gt;Node5 -->
<g id="edge4_Node000002_Node000005" class="edge">
<title>Node2&#45;&gt;Node5</title>
<g id="a_edge4_Node000002_Node000005"><a xlink:title=" ">
<path fill="none" stroke="#63b8ff" d="M137.22,-54.99C118.38,-45.49 93.65,-33.02 75.16,-23.69"/>
<polygon fill="#63b8ff" stroke="#63b8ff" points="76.64,-20.52 66.13,-19.14 73.48,-26.77 76.64,-20.52"/>
</a>
</g>
</g>
<!-- Node6&#45;&gt;Node3 -->
<g id="edge6_Node000006_Node000003" class="edge">
<title>Node6&#45;&gt;Node3</title>
<g id="a_edge6_Node000006_Node000003"><a xlink:title=" ">
<path fill="none" stroke="#63b8ff" d="M296.51,-54.84C287.03,-46.17 274.89,-35.08 265.12,-26.15"/>
<polygon fill="#63b8ff" stroke="#63b8ff" points="267.33,-23.43 257.59,-19.27 262.61,-28.6 267.33,-23.43"/>
</a>
</g>
</g>
<!-- Node6&#45;&gt;Node4 -->
<g id="edge11_Node000006_Node000004" class="edge">
<title>Node6&#45;&gt;Node4</title>
<g id="a_edge11_Node000006_Node000004"><a xlink:title=" ">
<path fill="none" stroke="#63b8ff" d="M276.07,-54.99C250.93,-45.18 217.67,-32.21 193.55,-22.81"/>
<polygon fill="#63b8ff" stroke="#63b8ff" points="194.74,-19.51 184.15,-19.14 192.2,-26.03 194.74,-19.51"/>
</a>
</g>
</g>
<!-- Node7 -->
<g id="Node000007" class="node">
<title>Node7</title>
<g id="a_Node000007"><a xlink:title=" ">
<polygon fill="#e0e0e0" stroke="#999999" points="616.5,-19 523.5,-19 523.5,0 616.5,0 616.5,-19"/>
<text text-anchor="middle" x="570" y="-7" font-family="Helvetica,sans-Serif" font-size="10.00">unordered_map</text>
</a>
</g>
</g>
<!-- Node6&#45;&gt;Node7 -->
<g id="edge7_Node000006_Node000007" class="edge">
<title>Node6&#45;&gt;Node7</title>
<g id="a_edge7_Node000006_Node000007"><a xlink:title=" ">
<path fill="none" stroke="#63b8ff" d="M373.8,-54.99C419.38,-44.65 480.5,-30.79 522.34,-21.31"/>
<polygon fill="#63b8ff" stroke="#63b8ff" points="523.3,-24.68 532.28,-19.05 521.75,-17.85 523.3,-24.68"/>
</a>
</g>
</g>
<!-- Node8 -->
<g id="Node000008" class="node">
<title>Node8</title>
<g id="a_Node000008"><a xlink:title=" ">
<polygon fill="#e0e0e0" stroke="#999999" points="335.5,-19 288.5,-19 288.5,0 335.5,0 335.5,-19"/>
<text text-anchor="middle" x="312" y="-7" font-family="Helvetica,sans-Serif" font-size="10.00">vector</text>
</a>
</g>
</g>
<!-- Node6&#45;&gt;Node8 -->
<g id="edge8_Node000006_Node000008" class="edge">
<title>Node6&#45;&gt;Node8</title>
<g id="a_edge8_Node000006_Node000008"><a xlink:title=" ">
<path fill="none" stroke="#63b8ff" d="M312,-54.84C312,-47.21 312,-37.7 312,-29.45"/>
<polygon fill="#63b8ff" stroke="#63b8ff" points="315.5,-29.27 312,-19.27 308.5,-29.27 315.5,-29.27"/>
</a>
</g>
</g>
<!-- Node9 -->
<g id="Node000009" class="node">
<title>Node9</title>
<g id="a_Node000009"><a xlink:title=" ">
<polygon fill="#e0e0e0" stroke="#999999" points="410,-19 354,-19 354,0 410,0 410,-19"/>
<text text-anchor="middle" x="382" y="-7" font-family="Helvetica,sans-Serif" font-size="10.00">netcdf.h</text>
</a>
</g>
</g>
<!-- Node6&#45;&gt;Node9 -->
<g id="edge9_Node000006_Node000009" class="edge">
<title>Node6&#45;&gt;Node9</title>
<g id="a_edge9_Node000006_Node000009"><a xlink:title=" ">
<path fill="none" stroke="#63b8ff" d="M328.95,-54.84C339.42,-46.09 352.86,-34.85 363.59,-25.88"/>
<polygon fill="#63b8ff" stroke="#63b8ff" points="366.08,-28.36 371.51,-19.27 361.59,-22.99 366.08,-28.36"/>
</a>
</g>
</g>
<!-- Node10 -->
<g id="Node000010" class="node">
<title>Node10</title>
<g id="a_Node000010"><a xlink:title=" ">
<polygon fill="#e0e0e0" stroke="#999999" points="505.5,-19 428.5,-19 428.5,0 505.5,0 505.5,-19"/>
<text text-anchor="middle" x="467" y="-7" font-family="Helvetica,sans-Serif" font-size="10.00">netcdf_par.h</text>
</a>
</g>
</g>
<!-- Node6&#45;&gt;Node10 -->
<g id="edge10_Node000006_Node000010" class="edge">
<title>Node6&#45;&gt;Node10</title>
<g id="a_edge10_Node000006_Node000010"><a xlink:title=" ">
<path fill="none" stroke="#63b8ff" d="M349.13,-54.99C375.22,-45.14 409.78,-32.1 434.73,-22.68"/>
<polygon fill="#63b8ff" stroke="#63b8ff" points="435.99,-25.94 444.11,-19.14 433.52,-19.4 435.99,-25.94"/>
</a>
</g>
</g>
</g>
</svg>
