<?xml version="1.0" encoding="UTF-8" standalone="no"?>
<!DOCTYPE svg PUBLIC "-//W3C//DTD SVG 1.1//EN"
 "http://www.w3.org/Graphics/SVG/1.1/DTD/svg11.dtd">
<!-- Generated by graphviz version 2.43.0 (0)
 -->
<!-- Title: /home/runner/work/amr&#45;wind/amr&#45;wind/amr&#45;wind/wind_energy/ABLFieldInit.cpp Pages: 1 -->
<svg width="1478pt" height="291pt"
 viewBox="0.00 0.00 1477.54 291.00" xmlns="http://www.w3.org/2000/svg" xmlns:xlink="http://www.w3.org/1999/xlink">
<g id="graph0" class="graph" transform="scale(1 1) rotate(0) translate(4 287)">
<title>/home/runner/work/amr&#45;wind/amr&#45;wind/amr&#45;wind/wind_energy/ABLFieldInit.cpp</title>
<!-- Node1 -->
<g id="Node000001" class="node">
<title>Node1</title>
<g id="a_Node000001"><a xlink:title=" ">
<polygon fill="#999999" stroke="#666666" points="744.54,-283 581.54,-283 581.54,-242 744.54,-242 744.54,-283"/>
<text text-anchor="start" x="589.54" y="-271" font-family="Helvetica,sans-Serif" font-size="10.00">/home/runner/work/amr</text>
<text text-anchor="start" x="589.54" y="-260" font-family="Helvetica,sans-Serif" font-size="10.00">&#45;wind/amr&#45;wind/amr&#45;wind</text>
<text text-anchor="middle" x="663.04" y="-249" font-family="Helvetica,sans-Serif" font-size="10.00">/wind_energy/ABLFieldInit.cpp</text>
</a>
</g>
</g>
<!-- Node2 -->
<g id="Node000002" class="node">
<title>Node2</title>
<g id="a_Node000002"><a xlink:title=" ">
<polygon fill="#e0e0e0" stroke="#999999" points="66.54,-134.5 19.54,-134.5 19.54,-115.5 66.54,-115.5 66.54,-134.5"/>
<text text-anchor="middle" x="43.04" y="-122.5" font-family="Helvetica,sans-Serif" font-size="10.00">cmath</text>
</a>
</g>
</g>
<!-- Node1&#45;&gt;Node2 -->
<g id="edge1_Node000001_Node000002" class="edge">
<title>Node1&#45;&gt;Node2</title>
<g id="a_edge1_Node000001_Node000002"><a xlink:title=" ">
<path fill="none" stroke="#63b8ff" d="M581.48,-259.76C451.05,-255.87 202.13,-243.62 123.04,-206 93.31,-191.86 68.22,-161.95 54.44,-142.98"/>
<polygon fill="#63b8ff" stroke="#63b8ff" points="57.21,-140.84 48.61,-134.66 51.48,-144.86 57.21,-140.84"/>
</a>
</g>
</g>
<!-- Node3 -->
<g id="Node000003" class="node">
<title>Node3</title>
<g id="a_Node000003"><a xlink:title=" ">
<polygon fill="#e0e0e0" stroke="#999999" points="1042.04,-19 998.04,-19 998.04,0 1042.04,0 1042.04,-19"/>
<text text-anchor="middle" x="1020.04" y="-7" font-family="Helvetica,sans-Serif" font-size="10.00">string</text>
</a>
</g>
</g>
<!-- Node1&#45;&gt;Node3 -->
<g id="edge2_Node000001_Node000003" class="edge">
<title>Node1&#45;&gt;Node3</title>
<g id="a_edge2_Node000001_Node000003"><a xlink:title=" ">
<path fill="none" stroke="#63b8ff" d="M744.74,-249.99C857.1,-232.32 1050.31,-194.73 1093.04,-140 1116.29,-110.21 1113.73,-87.84 1095.04,-55 1085.73,-38.66 1067.8,-27.7 1051.8,-20.74"/>
<polygon fill="#63b8ff" stroke="#63b8ff" points="1052.77,-17.36 1042.18,-16.92 1050.18,-23.87 1052.77,-17.36"/>
</a>
</g>
</g>
<!-- Node4 -->
<g id="Node000004" class="node">
<title>Node4</title>
<g id="a_Node000004"><a xlink:href="_a_b_l_field_init_8_h.html" target="_top" xlink:title=" ">
<polygon fill="white" stroke="#666666" points="727.04,-206 599.04,-206 599.04,-176 727.04,-176 727.04,-206"/>
<text text-anchor="start" x="607.04" y="-194" font-family="Helvetica,sans-Serif" font-size="10.00">amr&#45;wind/wind_energy</text>
<text text-anchor="middle" x="663.04" y="-183" font-family="Helvetica,sans-Serif" font-size="10.00">/ABLFieldInit.H</text>
</a>
</g>
</g>
<!-- Node1&#45;&gt;Node4 -->
<g id="edge3_Node000001_Node000004" class="edge">
<title>Node1&#45;&gt;Node4</title>
<g id="a_edge3_Node000001_Node000004"><a xlink:title=" ">
<path fill="none" stroke="#63b8ff" d="M663.04,-241.77C663.04,-233.85 663.04,-224.63 663.04,-216.3"/>
<polygon fill="#63b8ff" stroke="#63b8ff" points="666.54,-216.04 663.04,-206.04 659.54,-216.04 666.54,-216.04"/>
</a>
</g>
</g>
<!-- Node11 -->
<g id="Node000011" class="node">
<title>Node11</title>
<g id="a_Node000011"><a xlink:title=" ">
<polygon fill="#e0e0e0" stroke="#999999" points="219.54,-74 132.54,-74 132.54,-55 219.54,-55 219.54,-74"/>
<text text-anchor="middle" x="176.04" y="-62" font-family="Helvetica,sans-Serif" font-size="10.00">AMReX_Gpu.H</text>
</a>
</g>
</g>
<!-- Node1&#45;&gt;Node11 -->
<g id="edge37_Node000001_Node000011" class="edge">
<title>Node1&#45;&gt;Node11</title>
<g id="a_edge37_Node000001_Node000011"><a xlink:title=" ">
<path fill="none" stroke="#63b8ff" d="M581.3,-260.21C442.52,-256.96 167.38,-245.58 80.04,-206 31.94,-184.21 -22.11,-151.89 10.04,-110 23.78,-92.08 79.31,-79.8 122.4,-72.75"/>
<polygon fill="#63b8ff" stroke="#63b8ff" points="123.16,-76.17 132.5,-71.15 122.07,-69.25 123.16,-76.17"/>
</a>
</g>
</g>
<!-- Node21 -->
<g id="Node000021" class="node">
<title>Node21</title>
<g id="a_Node000021"><a xlink:href="nc__interface_8_h.html" target="_top" xlink:title=" ">
<polygon fill="white" stroke="#666666" points="1266.54,-140 1141.54,-140 1141.54,-110 1266.54,-110 1266.54,-140"/>
<text text-anchor="start" x="1149.54" y="-128" font-family="Helvetica,sans-Serif" font-size="10.00">amr&#45;wind/utilities</text>
<text text-anchor="middle" x="1204.04" y="-117" font-family="Helvetica,sans-Serif" font-size="10.00">/ncutils/nc_interface.H</text>
</a>
</g>
</g>
<!-- Node1&#45;&gt;Node21 -->
<g id="edge26_Node000001_Node000021" class="edge">
<title>Node1&#45;&gt;Node21</title>
<g id="a_edge26_Node000001_Node000021"><a xlink:title=" ">
<path fill="none" stroke="#63b8ff" d="M744.63,-258.31C859.39,-252.71 1061.76,-238.49 1127.04,-206 1153.26,-192.95 1175.48,-167.21 1189.21,-148.44"/>
<polygon fill="#63b8ff" stroke="#63b8ff" points="1192.17,-150.31 1195.08,-140.13 1186.45,-146.28 1192.17,-150.31"/>
</a>
</g>
</g>
<!-- Node25 -->
<g id="Node000025" class="node">
<title>Node25</title>
<g id="a_Node000025"><a xlink:title=" ">
<polygon fill="#e0e0e0" stroke="#999999" points="1332.54,-200.5 1179.54,-200.5 1179.54,-181.5 1332.54,-181.5 1332.54,-200.5"/>
<text text-anchor="middle" x="1256.04" y="-188.5" font-family="Helvetica,sans-Serif" font-size="10.00">AMReX_ParallelDescriptor.H</text>
</a>
</g>
</g>
<!-- Node1&#45;&gt;Node25 -->
<g id="edge32_Node000001_Node000025" class="edge">
<title>Node1&#45;&gt;Node25</title>
<g id="a_edge32_Node000001_Node000025"><a xlink:title=" ">
<path fill="none" stroke="#63b8ff" d="M744.9,-253.53C844.38,-243.59 1017.26,-225.53 1165.04,-206 1174.11,-204.8 1183.68,-203.44 1193.07,-202.04"/>
<polygon fill="#63b8ff" stroke="#63b8ff" points="1193.79,-205.47 1203.16,-200.52 1192.75,-198.55 1193.79,-205.47"/>
</a>
</g>
</g>
<!-- Node26 -->
<g id="Node000026" class="node">
<title>Node26</title>
<g id="a_Node000026"><a xlink:href="trig__ops_8_h.html" target="_top" xlink:title=" ">
<polygon fill="white" stroke="#666666" points="235.54,-206 132.54,-206 132.54,-176 235.54,-176 235.54,-206"/>
<text text-anchor="start" x="140.54" y="-194" font-family="Helvetica,sans-Serif" font-size="10.00">amr&#45;wind/utilities</text>
<text text-anchor="middle" x="184.04" y="-183" font-family="Helvetica,sans-Serif" font-size="10.00">/trig_ops.H</text>
</a>
</g>
</g>
<!-- Node1&#45;&gt;Node26 -->
<g id="edge33_Node000001_Node000026" class="edge">
<title>Node1&#45;&gt;Node26</title>
<g id="a_edge33_Node000001_Node000026"><a xlink:title=" ">
<path fill="none" stroke="#63b8ff" d="M581.51,-249.67C486.43,-235.88 331.39,-213.38 245.75,-200.95"/>
<polygon fill="#63b8ff" stroke="#63b8ff" points="246.06,-197.46 235.66,-199.49 245.05,-204.39 246.06,-197.46"/>
</a>
</g>
</g>
<!-- Node27 -->
<g id="Node000027" class="node">
<title>Node27</title>
<g id="a_Node000027"><a xlink:title=" ">
<polygon fill="#e0e0e0" stroke="#999999" points="1469.54,-200.5 1350.54,-200.5 1350.54,-181.5 1469.54,-181.5 1469.54,-200.5"/>
<text text-anchor="middle" x="1410.04" y="-188.5" font-family="Helvetica,sans-Serif" font-size="10.00">AMReX_ParmParse.H</text>
</a>
</g>
</g>
<!-- Node1&#45;&gt;Node27 -->
<g id="edge38_Node000001_Node000027" class="edge">
<title>Node1&#45;&gt;Node27</title>
<g id="a_edge38_Node000001_Node000027"><a xlink:title=" ">
<path fill="none" stroke="#63b8ff" d="M744.66,-258.04C872.52,-251.89 1127.63,-236.72 1342.04,-206 1348.77,-205.04 1355.84,-203.82 1362.77,-202.5"/>
<polygon fill="#63b8ff" stroke="#63b8ff" points="1363.64,-205.9 1372.77,-200.52 1362.28,-199.03 1363.64,-205.9"/>
</a>
</g>
</g>
<!-- Node28 -->
<g id="Node000028" class="node">
<title>Node28</title>
<g id="a_Node000028"><a xlink:href="linear__interpolation_8_h.html" target="_top" xlink:title=" ">
<polygon fill="white" stroke="#666666" points="439.54,-206 314.54,-206 314.54,-176 439.54,-176 439.54,-206"/>
<text text-anchor="start" x="322.54" y="-194" font-family="Helvetica,sans-Serif" font-size="10.00">amr&#45;wind/utilities</text>
<text text-anchor="middle" x="377.04" y="-183" font-family="Helvetica,sans-Serif" font-size="10.00">/linear_interpolation.H</text>
</a>
</g>
</g>
<!-- Node1&#45;&gt;Node28 -->
<g id="edge39_Node000001_Node000028" class="edge">
<title>Node1&#45;&gt;Node28</title>
<g id="a_edge39_Node000001_Node000028"><a xlink:title=" ">
<path fill="none" stroke="#63b8ff" d="M582.61,-241.96C539.11,-231.38 485.98,-218.48 444.64,-208.43"/>
<polygon fill="#63b8ff" stroke="#63b8ff" points="445.21,-204.96 434.66,-206 443.55,-211.77 445.21,-204.96"/>
</a>
</g>
</g>
<!-- Node5 -->
<g id="Node000005" class="node">
<title>Node5</title>
<g id="a_Node000005"><a xlink:href="_field_8_h.html" target="_top" xlink:title=" ">
<polygon fill="white" stroke="#666666" points="923.04,-134.5 799.04,-134.5 799.04,-115.5 923.04,-115.5 923.04,-134.5"/>
<text text-anchor="middle" x="861.04" y="-122.5" font-family="Helvetica,sans-Serif" font-size="10.00">amr&#45;wind/core/Field.H</text>
</a>
</g>
</g>
<!-- Node4&#45;&gt;Node5 -->
<g id="edge4_Node000004_Node000005" class="edge">
<title>Node4&#45;&gt;Node5</title>
<g id="a_edge4_Node000004_Node000005"><a xlink:title=" ">
<path fill="none" stroke="#63b8ff" d="M706.49,-175.95C741.98,-164.48 791.55,-148.46 824.89,-137.68"/>
<polygon fill="#63b8ff" stroke="#63b8ff" points="826.25,-140.92 834.69,-134.52 824.09,-134.26 826.25,-140.92"/>
</a>
</g>
</g>
<!-- Node4&#45;&gt;Node11 -->
<g id="edge25_Node000004_Node000011" class="edge">
<title>Node4&#45;&gt;Node11</title>
<g id="a_edge25_Node000004_Node000011"><a xlink:title=" ">
<path fill="none" stroke="#63b8ff" d="M598.96,-181.02C552.26,-173.28 487.98,-160.13 434.04,-140 407.95,-130.27 405.12,-119.75 379.04,-110 352.16,-99.96 280.33,-85.22 229.77,-75.49"/>
<polygon fill="#63b8ff" stroke="#63b8ff" points="230.12,-72 219.65,-73.56 228.81,-78.87 230.12,-72"/>
</a>
</g>
</g>
<!-- Node15 -->
<g id="Node000015" class="node">
<title>Node15</title>
<g id="a_Node000015"><a xlink:title=" ">
<polygon fill="#e0e0e0" stroke="#999999" points="862.04,-19 764.04,-19 764.04,0 862.04,0 862.04,-19"/>
<text text-anchor="middle" x="813.04" y="-7" font-family="Helvetica,sans-Serif" font-size="10.00">AMReX_Vector.H</text>
</a>
</g>
</g>
<!-- Node4&#45;&gt;Node15 -->
<g id="edge24_Node000004_Node000015" class="edge">
<title>Node4&#45;&gt;Node15</title>
<g id="a_edge24_Node000004_Node000015"><a xlink:title=" ">
<path fill="none" stroke="#63b8ff" d="M727.18,-187.24C798.33,-182.66 906.49,-170.73 932.04,-140 951.87,-116.14 908.13,-56.11 907.04,-55 892.43,-40.17 871.92,-29.67 853.78,-22.61"/>
<polygon fill="#63b8ff" stroke="#63b8ff" points="854.87,-19.28 844.28,-19.13 852.47,-25.86 854.87,-19.28"/>
</a>
</g>
</g>
<!-- Node16 -->
<g id="Node000016" class="node">
<title>Node16</title>
<g id="a_Node000016"><a xlink:title=" ">
<polygon fill="#e0e0e0" stroke="#999999" points="1084.04,-134.5 992.04,-134.5 992.04,-115.5 1084.04,-115.5 1084.04,-134.5"/>
<text text-anchor="middle" x="1038.04" y="-122.5" font-family="Helvetica,sans-Serif" font-size="10.00">AMReX_Array.H</text>
</a>
</g>
</g>
<!-- Node4&#45;&gt;Node16 -->
<g id="edge19_Node000004_Node000016" class="edge">
<title>Node4&#45;&gt;Node16</title>
<g id="a_edge19_Node000004_Node000016"><a xlink:title=" ">
<path fill="none" stroke="#63b8ff" d="M727.22,-181.19C791.05,-172.11 891.63,-156.91 978.04,-140 983.03,-139.02 988.23,-137.93 993.4,-136.79"/>
<polygon fill="#63b8ff" stroke="#63b8ff" points="994.24,-140.19 1003.23,-134.57 992.7,-133.36 994.24,-140.19"/>
</a>
</g>
</g>
<!-- Node17 -->
<g id="Node000017" class="node">
<title>Node17</title>
<g id="a_Node000017"><a xlink:title=" ">
<polygon fill="#e0e0e0" stroke="#999999" points="543.04,-134.5 443.04,-134.5 443.04,-115.5 543.04,-115.5 543.04,-134.5"/>
<text text-anchor="middle" x="493.04" y="-122.5" font-family="Helvetica,sans-Serif" font-size="10.00">AMReX_Array4.H</text>
</a>
</g>
</g>
<!-- Node4&#45;&gt;Node17 -->
<g id="edge20_Node000004_Node000017" class="edge">
<title>Node4&#45;&gt;Node17</title>
<g id="a_edge20_Node000004_Node000017"><a xlink:title=" ">
<path fill="none" stroke="#63b8ff" d="M625.73,-175.95C595.65,-164.63 553.8,-148.88 525.19,-138.1"/>
<polygon fill="#63b8ff" stroke="#63b8ff" points="526.25,-134.77 515.66,-134.52 523.79,-141.32 526.25,-134.77"/>
</a>
</g>
</g>
<!-- Node18 -->
<g id="Node000018" class="node">
<title>Node18</title>
<g id="a_Node000018"><a xlink:title=" ">
<polygon fill="#e0e0e0" stroke="#999999" points="647.04,-134.5 561.04,-134.5 561.04,-115.5 647.04,-115.5 647.04,-134.5"/>
<text text-anchor="middle" x="604.04" y="-122.5" font-family="Helvetica,sans-Serif" font-size="10.00">AMReX_Box.H</text>
</a>
</g>
</g>
<!-- Node4&#45;&gt;Node18 -->
<g id="edge21_Node000004_Node000018" class="edge">
<title>Node4&#45;&gt;Node18</title>
<g id="a_edge21_Node000004_Node000018"><a xlink:title=" ">
<path fill="none" stroke="#63b8ff" d="M649.94,-175.8C640.83,-165.92 628.67,-152.72 619.15,-142.39"/>
<polygon fill="#63b8ff" stroke="#63b8ff" points="621.54,-139.82 612.19,-134.84 616.39,-144.57 621.54,-139.82"/>
</a>
</g>
</g>
<!-- Node19 -->
<g id="Node000019" class="node">
<title>Node19</title>
<g id="a_Node000019"><a xlink:title=" ">
<polygon fill="#e0e0e0" stroke="#999999" points="780.54,-134.5 665.54,-134.5 665.54,-115.5 780.54,-115.5 780.54,-134.5"/>
<text text-anchor="middle" x="723.04" y="-122.5" font-family="Helvetica,sans-Serif" font-size="10.00">AMReX_Geometry.H</text>
</a>
</g>
</g>
<!-- Node4&#45;&gt;Node19 -->
<g id="edge22_Node000004_Node000019" class="edge">
<title>Node4&#45;&gt;Node19</title>
<g id="a_edge22_Node000004_Node000019"><a xlink:title=" ">
<path fill="none" stroke="#63b8ff" d="M676.35,-175.8C685.61,-165.92 697.99,-152.72 707.67,-142.39"/>
<polygon fill="#63b8ff" stroke="#63b8ff" points="710.46,-144.53 714.74,-134.84 705.35,-139.75 710.46,-144.53"/>
</a>
</g>
</g>
<!-- Node20 -->
<g id="Node000020" class="node">
<title>Node20</title>
<g id="a_Node000020"><a xlink:title=" ">
<polygon fill="#e0e0e0" stroke="#999999" points="349.04,-134.5 257.04,-134.5 257.04,-115.5 349.04,-115.5 349.04,-134.5"/>
<text text-anchor="middle" x="303.04" y="-122.5" font-family="Helvetica,sans-Serif" font-size="10.00">AMReX_REAL.H</text>
</a>
</g>
</g>
<!-- Node4&#45;&gt;Node20 -->
<g id="edge23_Node000004_Node000020" class="edge">
<title>Node4&#45;&gt;Node20</title>
<g id="a_edge23_Node000004_Node000020"><a xlink:title=" ">
<path fill="none" stroke="#63b8ff" d="M598.67,-178.56C530.52,-166.44 424.02,-147.51 359.17,-135.98"/>
<polygon fill="#63b8ff" stroke="#63b8ff" points="359.59,-132.5 349.13,-134.19 358.36,-139.39 359.59,-132.5"/>
</a>
</g>
</g>
<!-- Node5&#45;&gt;Node3 -->
<g id="edge5_Node000005_Node000003" class="edge">
<title>Node5&#45;&gt;Node3</title>
<g id="a_edge5_Node000005_Node000003"><a xlink:title=" ">
<path fill="none" stroke="#63b8ff" d="M872.99,-115.47C900.04,-96.16 966.2,-48.93 999.78,-24.96"/>
<polygon fill="#63b8ff" stroke="#63b8ff" points="1001.84,-27.79 1007.95,-19.13 997.77,-22.09 1001.84,-27.79"/>
</a>
</g>
</g>
<!-- Node6 -->
<g id="Node000006" class="node">
<title>Node6</title>
<g id="a_Node000006"><a xlink:title=" ">
<polygon fill="#e0e0e0" stroke="#999999" points="698.04,-74 640.04,-74 640.04,-55 698.04,-55 698.04,-74"/>
<text text-anchor="middle" x="669.04" y="-62" font-family="Helvetica,sans-Serif" font-size="10.00">memory</text>
</a>
</g>
</g>
<!-- Node5&#45;&gt;Node6 -->
<g id="edge6_Node000005_Node000006" class="edge">
<title>Node5&#45;&gt;Node6</title>
<g id="a_edge6_Node000005_Node000006"><a xlink:title=" ">
<path fill="none" stroke="#63b8ff" d="M833.12,-115.49C799.84,-105.36 744.09,-88.37 706.94,-77.05"/>
<polygon fill="#63b8ff" stroke="#63b8ff" points="707.57,-73.58 696.99,-74.02 705.53,-80.28 707.57,-73.58"/>
</a>
</g>
</g>
<!-- Node7 -->
<g id="Node000007" class="node">
<title>Node7</title>
<g id="a_Node000007"><a xlink:title=" ">
<polygon fill="#e0e0e0" stroke="#999999" points="1085.54,-74 992.54,-74 992.54,-55 1085.54,-55 1085.54,-74"/>
<text text-anchor="middle" x="1039.04" y="-62" font-family="Helvetica,sans-Serif" font-size="10.00">unordered_map</text>
</a>
</g>
</g>
<!-- Node5&#45;&gt;Node7 -->
<g id="edge7_Node000005_Node000007" class="edge">
<title>Node5&#45;&gt;Node7</title>
<g id="a_edge7_Node000005_Node000007"><a xlink:title=" ">
<path fill="none" stroke="#63b8ff" d="M886.92,-115.49C917.63,-105.4 969.01,-88.51 1003.45,-77.19"/>
<polygon fill="#63b8ff" stroke="#63b8ff" points="1004.71,-80.46 1013.12,-74.02 1002.53,-73.81 1004.71,-80.46"/>
</a>
</g>
</g>
<!-- Node8 -->
<g id="Node000008" class="node">
<title>Node8</title>
<g id="a_Node000008"><a xlink:title=" ">
<polygon fill="#e0e0e0" stroke="#999999" points="780.04,-74 716.04,-74 716.04,-55 780.04,-55 780.04,-74"/>
<text text-anchor="middle" x="748.04" y="-62" font-family="Helvetica,sans-Serif" font-size="10.00">algorithm</text>
</a>
</g>
</g>
<!-- Node5&#45;&gt;Node8 -->
<g id="edge8_Node000005_Node000008" class="edge">
<title>Node5&#45;&gt;Node8</title>
<g id="a_edge8_Node000005_Node000008"><a xlink:title=" ">
<path fill="none" stroke="#63b8ff" d="M844.36,-115.37C825.75,-105.73 795.41,-90.03 773.76,-78.81"/>
<polygon fill="#63b8ff" stroke="#63b8ff" points="775.27,-75.66 764.78,-74.17 772.05,-81.87 775.27,-75.66"/>
</a>
</g>
</g>
<!-- Node9 -->
<g id="Node000009" class="node">
<title>Node9</title>
<g id="a_Node000009"><a xlink:title=" ">
<polygon fill="#e0e0e0" stroke="#999999" points="372.54,-19 263.54,-19 263.54,0 372.54,0 372.54,-19"/>
<text text-anchor="middle" x="318.04" y="-7" font-family="Helvetica,sans-Serif" font-size="10.00">AMReX_MultiFab.H</text>
</a>
</g>
</g>
<!-- Node5&#45;&gt;Node9 -->
<g id="edge9_Node000005_Node000009" class="edge">
<title>Node5&#45;&gt;Node9</title>
<g id="a_edge9_Node000005_Node000009"><a xlink:title=" ">
<path fill="none" stroke="#63b8ff" d="M822.49,-115.48C812.01,-113.42 800.62,-111.4 790.04,-110 732.4,-102.36 307.71,-116.5 268.04,-74 253.09,-57.99 274.96,-37.89 294.31,-24.65"/>
<polygon fill="#63b8ff" stroke="#63b8ff" points="296.39,-27.47 302.88,-19.08 292.58,-21.6 296.39,-27.47"/>
</a>
</g>
</g>
<!-- Node10 -->
<g id="Node000010" class="node">
<title>Node10</title>
<g id="a_Node000010"><a xlink:title=" ">
<polygon fill="#e0e0e0" stroke="#999999" points="897.54,-74 798.54,-74 798.54,-55 897.54,-55 897.54,-74"/>
<text text-anchor="middle" x="848.04" y="-62" font-family="Helvetica,sans-Serif" font-size="10.00">AMReX_BCRec.H</text>
</a>
</g>
</g>
<!-- Node5&#45;&gt;Node10 -->
<g id="edge10_Node000005_Node000010" class="edge">
<title>Node5&#45;&gt;Node10</title>
<g id="a_edge10_Node000005_Node000010"><a xlink:title=" ">
<path fill="none" stroke="#63b8ff" d="M859.12,-115.37C857.29,-107.16 854.49,-94.54 852.16,-84.05"/>
<polygon fill="#63b8ff" stroke="#63b8ff" points="855.55,-83.17 849.96,-74.17 848.71,-84.69 855.55,-83.17"/>
</a>
</g>
</g>
<!-- Node5&#45;&gt;Node11 -->
<g id="edge11_Node000005_Node000011" class="edge">
<title>Node5&#45;&gt;Node11</title>
<g id="a_edge11_Node000005_Node000011"><a xlink:title=" ">
<path fill="none" stroke="#63b8ff" d="M822.49,-115.45C812.01,-113.39 800.63,-111.38 790.04,-110 544.49,-77.98 480.3,-99.97 234.04,-74 232.58,-73.85 231.11,-73.68 229.62,-73.51"/>
<polygon fill="#63b8ff" stroke="#63b8ff" points="230.05,-70.04 219.69,-72.28 229.19,-76.99 230.05,-70.04"/>
</a>
</g>
</g>
<!-- Node12 -->
<g id="Node000012" class="node">
<title>Node12</title>
<g id="a_Node000012"><a xlink:href="incflo__enums_8_h.html" target="_top" xlink:title=" ">
<polygon fill="white" stroke="#666666" points="417.54,-74 276.54,-74 276.54,-55 417.54,-55 417.54,-74"/>
<text text-anchor="middle" x="347.04" y="-62" font-family="Helvetica,sans-Serif" font-size="10.00">amr&#45;wind/incflo_enums.H</text>
</a>
</g>
</g>
<!-- Node5&#45;&gt;Node12 -->
<g id="edge12_Node000005_Node000012" class="edge">
<title>Node5&#45;&gt;Node12</title>
<g id="a_edge12_Node000005_Node000012"><a xlink:title=" ">
<path fill="none" stroke="#63b8ff" d="M821.35,-115.49C811.17,-113.49 800.23,-111.51 790.04,-110 787.81,-109.67 555.05,-86.34 427.86,-73.6"/>
<polygon fill="#63b8ff" stroke="#63b8ff" points="428.07,-70.1 417.77,-72.58 427.37,-77.06 428.07,-70.1"/>
</a>
</g>
</g>
<!-- Node13 -->
<g id="Node000013" class="node">
<title>Node13</title>
<g id="a_Node000013"><a xlink:href="_field_desc_types_8_h.html" target="_top" xlink:title=" ">
<polygon fill="white" stroke="#666666" points="585.04,-19 409.04,-19 409.04,0 585.04,0 585.04,-19"/>
<text text-anchor="middle" x="497.04" y="-7" font-family="Helvetica,sans-Serif" font-size="10.00">amr&#45;wind/core/FieldDescTypes.H</text>
</a>
</g>
</g>
<!-- Node5&#45;&gt;Node13 -->
<g id="edge13_Node000005_Node000013" class="edge">
<title>Node5&#45;&gt;Node13</title>
<g id="a_edge13_Node000005_Node000013"><a xlink:title=" ">
<path fill="none" stroke="#63b8ff" d="M820.96,-115.49C810.9,-113.52 800.09,-111.55 790.04,-110 718.22,-98.96 513.51,-128.14 465.04,-74 452.51,-60.01 466.17,-40.22 479.32,-26.47"/>
<polygon fill="#63b8ff" stroke="#63b8ff" points="482.1,-28.65 486.8,-19.15 477.2,-23.64 482.1,-28.65"/>
</a>
</g>
</g>
<!-- Node14 -->
<g id="Node000014" class="node">
<title>Node14</title>
<g id="a_Node000014"><a xlink:href="_view_field_8_h.html" target="_top" xlink:title=" ">
<polygon fill="white" stroke="#666666" points="622.04,-74 474.04,-74 474.04,-55 622.04,-55 622.04,-74"/>
<text text-anchor="middle" x="548.04" y="-62" font-family="Helvetica,sans-Serif" font-size="10.00">amr&#45;wind/core/ViewField.H</text>
</a>
</g>
</g>
<!-- Node5&#45;&gt;Node14 -->
<g id="edge14_Node000005_Node000014" class="edge">
<title>Node5&#45;&gt;Node14</title>
<g id="a_edge14_Node000005_Node000014"><a xlink:title=" ">
<path fill="none" stroke="#63b8ff" d="M818.25,-115.47C808.95,-113.64 799.17,-111.74 790.04,-110 726.96,-97.98 654.53,-84.74 605.47,-75.85"/>
<polygon fill="#63b8ff" stroke="#63b8ff" points="605.83,-72.36 595.37,-74.02 604.58,-79.24 605.83,-72.36"/>
</a>
</g>
</g>
<!-- Node14&#45;&gt;Node3 -->
<g id="edge15_Node000014_Node000003" class="edge">
<title>Node14&#45;&gt;Node3</title>
<g id="a_edge15_Node000014_Node000003"><a xlink:title=" ">
<path fill="none" stroke="#63b8ff" d="M622.05,-55.19C726.4,-43.47 912.41,-22.58 987.38,-14.17"/>
<polygon fill="#63b8ff" stroke="#63b8ff" points="988.07,-17.61 997.62,-13.02 987.29,-10.66 988.07,-17.61"/>
</a>
</g>
</g>
<!-- Node14&#45;&gt;Node9 -->
<g id="edge17_Node000014_Node000009" class="edge">
<title>Node14&#45;&gt;Node9</title>
<g id="a_edge17_Node000014_Node000009"><a xlink:title=" ">
<path fill="none" stroke="#63b8ff" d="M511.08,-54.98C471.46,-45.86 408.45,-31.33 365.26,-21.38"/>
<polygon fill="#63b8ff" stroke="#63b8ff" points="365.81,-17.92 355.28,-19.08 364.24,-24.74 365.81,-17.92"/>
</a>
</g>
</g>
<!-- Node14&#45;&gt;Node13 -->
<g id="edge16_Node000014_Node000013" class="edge">
<title>Node14&#45;&gt;Node13</title>
<g id="a_edge16_Node000014_Node000013"><a xlink:title=" ">
<path fill="none" stroke="#63b8ff" d="M539.61,-54.75C532.26,-47.11 521.4,-35.82 512.49,-26.56"/>
<polygon fill="#63b8ff" stroke="#63b8ff" points="514.76,-23.87 505.3,-19.09 509.71,-28.72 514.76,-23.87"/>
</a>
</g>
</g>
<!-- Node14&#45;&gt;Node15 -->
<g id="edge18_Node000014_Node000015" class="edge">
<title>Node14&#45;&gt;Node15</title>
<g id="a_edge18_Node000014_Node000015"><a xlink:title=" ">
<path fill="none" stroke="#63b8ff" d="M590.61,-54.98C636.74,-45.76 710.4,-31.03 760.19,-21.07"/>
<polygon fill="#63b8ff" stroke="#63b8ff" points="761.01,-24.48 770.13,-19.08 759.63,-17.61 761.01,-24.48"/>
</a>
</g>
</g>
<!-- Node21&#45;&gt;Node3 -->
<g id="edge27_Node000021_Node000003" class="edge">
<title>Node21&#45;&gt;Node3</title>
<g id="a_edge27_Node000021_Node000003"><a xlink:title=" ">
<path fill="none" stroke="#63b8ff" d="M1191.21,-109.72C1176.98,-94.55 1152.74,-70.62 1128.04,-55 1104.11,-39.86 1074.16,-28 1051.87,-20.34"/>
<polygon fill="#63b8ff" stroke="#63b8ff" points="1052.81,-16.97 1042.22,-17.13 1050.59,-23.61 1052.81,-16.97"/>
</a>
</g>
</g>
<!-- Node21&#45;&gt;Node7 -->
<g id="edge28_Node000021_Node000007" class="edge">
<title>Node21&#45;&gt;Node7</title>
<g id="a_edge28_Node000021_Node000007"><a xlink:title=" ">
<path fill="none" stroke="#63b8ff" d="M1164.51,-109.99C1136.62,-100.1 1099.62,-86.98 1073.04,-77.56"/>
<polygon fill="#63b8ff" stroke="#63b8ff" points="1074,-74.18 1063.4,-74.14 1071.66,-80.78 1074,-74.18"/>
</a>
</g>
</g>
<!-- Node22 -->
<g id="Node000022" class="node">
<title>Node22</title>
<g id="a_Node000022"><a xlink:title=" ">
<polygon fill="#e0e0e0" stroke="#999999" points="1227.54,-74 1180.54,-74 1180.54,-55 1227.54,-55 1227.54,-74"/>
<text text-anchor="middle" x="1204.04" y="-62" font-family="Helvetica,sans-Serif" font-size="10.00">vector</text>
</a>
</g>
</g>
<!-- Node21&#45;&gt;Node22 -->
<g id="edge29_Node000021_Node000022" class="edge">
<title>Node21&#45;&gt;Node22</title>
<g id="a_edge29_Node000021_Node000022"><a xlink:title=" ">
<path fill="none" stroke="#63b8ff" d="M1204.04,-109.84C1204.04,-102.21 1204.04,-92.7 1204.04,-84.45"/>
<polygon fill="#63b8ff" stroke="#63b8ff" points="1207.54,-84.27 1204.04,-74.27 1200.54,-84.27 1207.54,-84.27"/>
</a>
</g>
</g>
<!-- Node23 -->
<g id="Node000023" class="node">
<title>Node23</title>
<g id="a_Node000023"><a xlink:title=" ">
<polygon fill="#e0e0e0" stroke="#999999" points="1302.04,-74 1246.04,-74 1246.04,-55 1302.04,-55 1302.04,-74"/>
<text text-anchor="middle" x="1274.04" y="-62" font-family="Helvetica,sans-Serif" font-size="10.00">netcdf.h</text>
</a>
</g>
</g>
<!-- Node21&#45;&gt;Node23 -->
<g id="edge30_Node000021_Node000023" class="edge">
<title>Node21&#45;&gt;Node23</title>
<g id="a_edge30_Node000021_Node000023"><a xlink:title=" ">
<path fill="none" stroke="#63b8ff" d="M1220.98,-109.84C1231.45,-101.09 1244.89,-89.85 1255.63,-80.88"/>
<polygon fill="#63b8ff" stroke="#63b8ff" points="1258.12,-83.36 1263.55,-74.27 1253.63,-77.99 1258.12,-83.36"/>
</a>
</g>
</g>
<!-- Node24 -->
<g id="Node000024" class="node">
<title>Node24</title>
<g id="a_Node000024"><a xlink:title=" ">
<polygon fill="#e0e0e0" stroke="#999999" points="1397.54,-74 1320.54,-74 1320.54,-55 1397.54,-55 1397.54,-74"/>
<text text-anchor="middle" x="1359.04" y="-62" font-family="Helvetica,sans-Serif" font-size="10.00">netcdf_par.h</text>
</a>
</g>
</g>
<!-- Node21&#45;&gt;Node24 -->
<g id="edge31_Node000021_Node000024" class="edge">
<title>Node21&#45;&gt;Node24</title>
<g id="a_edge31_Node000021_Node000024"><a xlink:title=" ">
<path fill="none" stroke="#63b8ff" d="M1241.16,-109.99C1267.25,-100.14 1301.82,-87.1 1326.76,-77.68"/>
<polygon fill="#63b8ff" stroke="#63b8ff" points="1328.03,-80.94 1336.15,-74.14 1325.55,-74.4 1328.03,-80.94"/>
</a>
</g>
</g>
<!-- Node26&#45;&gt;Node2 -->
<g id="edge34_Node000026_Node000002" class="edge">
<title>Node26&#45;&gt;Node2</title>
<g id="a_edge34_Node000026_Node000002"><a xlink:title=" ">
<path fill="none" stroke="#63b8ff" d="M153.09,-175.95C128.58,-164.83 94.64,-149.42 70.96,-138.67"/>
<polygon fill="#63b8ff" stroke="#63b8ff" points="72.35,-135.46 61.8,-134.52 69.46,-141.84 72.35,-135.46"/>
</a>
</g>
</g>
<!-- Node26&#45;&gt;Node11 -->
<g id="edge36_Node000026_Node000011" class="edge">
<title>Node26&#45;&gt;Node11</title>
<g id="a_edge36_Node000026_Node000011"><a xlink:title=" ">
<path fill="none" stroke="#63b8ff" d="M152.34,-175.94C137.87,-167.72 122.17,-155.8 114.04,-140 107.93,-128.14 107.95,-121.86 114.04,-110 121,-96.44 134.23,-86.07 146.68,-78.78"/>
<polygon fill="#63b8ff" stroke="#63b8ff" points="148.38,-81.84 155.52,-74 145.05,-75.68 148.38,-81.84"/>
</a>
</g>
</g>
<!-- Node26&#45;&gt;Node20 -->
<g id="edge35_Node000026_Node000020" class="edge">
<title>Node26&#45;&gt;Node20</title>
<g id="a_edge35_Node000026_Node000020"><a xlink:title=" ">
<path fill="none" stroke="#63b8ff" d="M210.15,-175.95C230.38,-165.08 258.21,-150.11 278.13,-139.4"/>
<polygon fill="#63b8ff" stroke="#63b8ff" points="280.05,-142.34 287.2,-134.52 276.73,-136.17 280.05,-142.34"/>
</a>
</g>
</g>
<!-- Node28&#45;&gt;Node11 -->
<g id="edge40_Node000028_Node000011" class="edge">
<title>Node28&#45;&gt;Node11</title>
<g id="a_edge40_Node000028_Node000011"><a xlink:title=" ">
<path fill="none" stroke="#63b8ff" d="M377.83,-175.75C378,-157.9 375.44,-127.52 358.04,-110 348.87,-100.77 280.08,-85.7 229.77,-75.69"/>
<polygon fill="#63b8ff" stroke="#63b8ff" points="230.15,-72.2 219.66,-73.7 228.8,-79.07 230.15,-72.2"/>
</a>
</g>
</g>
<!-- Node29 -->
<g id="Node000029" class="node">
<title>Node29</title>
<g id="a_Node000029"><a xlink:title=" ">
<polygon fill="#e0e0e0" stroke="#999999" points="239.04,-134.5 123.04,-134.5 123.04,-115.5 239.04,-115.5 239.04,-134.5"/>
<text text-anchor="middle" x="181.04" y="-122.5" font-family="Helvetica,sans-Serif" font-size="10.00">AMReX_Extension.H</text>
</a>
</g>
</g>
<!-- Node28&#45;&gt;Node29 -->
<g id="edge41_Node000028_Node000029" class="edge">
<title>Node28&#45;&gt;Node29</title>
<g id="a_edge41_Node000028_Node000029"><a xlink:title=" ">
<path fill="none" stroke="#63b8ff" d="M334.02,-175.95C298.89,-164.48 249.82,-148.46 216.82,-137.68"/>
<polygon fill="#63b8ff" stroke="#63b8ff" points="217.71,-134.29 207.12,-134.52 215.54,-140.95 217.71,-134.29"/>
</a>
</g>
</g>
</g>
</svg>
