<?xml version="1.0" encoding="UTF-8" standalone="no"?>
<!DOCTYPE svg PUBLIC "-//W3C//DTD SVG 1.1//EN"
 "http://www.w3.org/Graphics/SVG/1.1/DTD/svg11.dtd">
<!-- Generated by graphviz version 2.43.0 (0)
 -->
<!-- Title: /home/runner/work/amr&#45;wind/amr&#45;wind/amr&#45;wind/wind_energy/ABLFieldInit.cpp Pages: 1 -->
<svg width="1663pt" height="302pt"
 viewBox="0.00 0.00 1662.50 302.00" xmlns="http://www.w3.org/2000/svg" xmlns:xlink="http://www.w3.org/1999/xlink">
<g id="graph0" class="graph" transform="scale(1 1) rotate(0) translate(4 298)">
<title>/home/runner/work/amr&#45;wind/amr&#45;wind/amr&#45;wind/wind_energy/ABLFieldInit.cpp</title>
<!-- Node1 -->
<g id="Node000001" class="node">
<title>Node1</title>
<g id="a_Node000001"><a xlink:title=" ">
<polygon fill="#999999" stroke="#666666" points="1040,-294 877,-294 877,-253 1040,-253 1040,-294"/>
<text text-anchor="start" x="885" y="-282" font-family="Helvetica,sans-Serif" font-size="10.00">/home/runner/work/amr</text>
<text text-anchor="start" x="885" y="-271" font-family="Helvetica,sans-Serif" font-size="10.00">&#45;wind/amr&#45;wind/amr&#45;wind</text>
<text text-anchor="middle" x="958.5" y="-260" font-family="Helvetica,sans-Serif" font-size="10.00">/wind_energy/ABLFieldInit.cpp</text>
</a>
</g>
</g>
<!-- Node2 -->
<g id="Node000002" class="node">
<title>Node2</title>
<g id="a_Node000002"><a xlink:title=" ">
<polygon fill="#e0e0e0" stroke="#999999" points="47,-145.5 0,-145.5 0,-126.5 47,-126.5 47,-145.5"/>
<text text-anchor="middle" x="23.5" y="-133.5" font-family="Helvetica,sans-Serif" font-size="10.00">cmath</text>
</a>
</g>
</g>
<!-- Node1&#45;&gt;Node2 -->
<g id="edge1_Node000001_Node000002" class="edge">
<title>Node1&#45;&gt;Node2</title>
<g id="a_edge1_Node000001_Node000002"><a xlink:title=" ">
<path fill="none" stroke="#63b8ff" d="M876.8,-270.59C654.97,-265 56.02,-247.18 26.5,-217 10.97,-201.13 13.66,-173.91 17.87,-155.69"/>
<polygon fill="#63b8ff" stroke="#63b8ff" points="21.28,-156.49 20.47,-145.92 14.51,-154.69 21.28,-156.49"/>
</a>
</g>
</g>
<!-- Node3 -->
<g id="Node000003" class="node">
<title>Node3</title>
<g id="a_Node000003"><a xlink:title=" ">
<polygon fill="#e0e0e0" stroke="#999999" points="1157.5,-19 1113.5,-19 1113.5,0 1157.5,0 1157.5,-19"/>
<text text-anchor="middle" x="1135.5" y="-7" font-family="Helvetica,sans-Serif" font-size="10.00">string</text>
</a>
</g>
</g>
<!-- Node1&#45;&gt;Node3 -->
<g id="edge2_Node000001_Node000003" class="edge">
<title>Node1&#45;&gt;Node3</title>
<g id="a_edge2_Node000001_Node000003"><a xlink:title=" ">
<path fill="none" stroke="#63b8ff" d="M989.98,-252.91C1021.67,-231.6 1069.72,-194.68 1097.5,-151 1122.17,-112.21 1130.97,-57.59 1133.99,-29.24"/>
<polygon fill="#63b8ff" stroke="#63b8ff" points="1137.49,-29.4 1134.94,-19.12 1130.52,-28.75 1137.49,-29.4"/>
</a>
</g>
</g>
<!-- Node4 -->
<g id="Node000004" class="node">
<title>Node4</title>
<g id="a_Node000004"><a xlink:href="_a_b_l_field_init_8_h.html" target="_top" xlink:title=" ">
<polygon fill="white" stroke="#666666" points="845.5,-217 717.5,-217 717.5,-187 845.5,-187 845.5,-217"/>
<text text-anchor="start" x="725.5" y="-205" font-family="Helvetica,sans-Serif" font-size="10.00">amr&#45;wind/wind_energy</text>
<text text-anchor="middle" x="781.5" y="-194" font-family="Helvetica,sans-Serif" font-size="10.00">/ABLFieldInit.H</text>
</a>
</g>
</g>
<!-- Node1&#45;&gt;Node4 -->
<g id="edge3_Node000001_Node000004" class="edge">
<title>Node1&#45;&gt;Node4</title>
<g id="a_edge3_Node000001_Node000004"><a xlink:title=" ">
<path fill="none" stroke="#63b8ff" d="M908.72,-252.96C883,-242.85 851.83,-230.62 826.79,-220.78"/>
<polygon fill="#63b8ff" stroke="#63b8ff" points="827.75,-217.4 817.16,-217 825.19,-223.92 827.75,-217.4"/>
</a>
</g>
</g>
<!-- Node11 -->
<g id="Node000011" class="node">
<title>Node11</title>
<g id="a_Node000011"><a xlink:title=" ">
<polygon fill="#e0e0e0" stroke="#999999" points="213,-79.5 126,-79.5 126,-60.5 213,-60.5 213,-79.5"/>
<text text-anchor="middle" x="169.5" y="-67.5" font-family="Helvetica,sans-Serif" font-size="10.00">AMReX_Gpu.H</text>
</a>
</g>
</g>
<!-- Node1&#45;&gt;Node11 -->
<g id="edge37_Node000001_Node000011" class="edge">
<title>Node1&#45;&gt;Node11</title>
<g id="a_edge37_Node000001_Node000011"><a xlink:title=" ">
<path fill="none" stroke="#63b8ff" d="M876.96,-271.98C689.36,-270.03 239.23,-260.78 187.5,-217 150.71,-185.86 158.38,-121.27 164.96,-89.49"/>
<polygon fill="#63b8ff" stroke="#63b8ff" points="168.37,-90.25 167.16,-79.72 161.54,-88.7 168.37,-90.25"/>
</a>
</g>
</g>
<!-- Node21 -->
<g id="Node000021" class="node">
<title>Node21</title>
<g id="a_Node000021"><a xlink:href="nc__interface_8_h.html" target="_top" xlink:title=" ">
<polygon fill="white" stroke="#666666" points="1289,-151 1164,-151 1164,-121 1289,-121 1289,-151"/>
<text text-anchor="start" x="1172" y="-139" font-family="Helvetica,sans-Serif" font-size="10.00">amr&#45;wind/utilities</text>
<text text-anchor="middle" x="1226.5" y="-128" font-family="Helvetica,sans-Serif" font-size="10.00">/ncutils/nc_interface.H</text>
</a>
</g>
</g>
<!-- Node1&#45;&gt;Node21 -->
<g id="edge26_Node000001_Node000021" class="edge">
<title>Node1&#45;&gt;Node21</title>
<g id="a_edge26_Node000001_Node000021"><a xlink:title=" ">
<path fill="none" stroke="#63b8ff" d="M1040.39,-258.56C1075.7,-250.13 1116.4,-237.01 1149.5,-217 1174.17,-202.09 1196.29,-177.3 1210.42,-159.27"/>
<polygon fill="#63b8ff" stroke="#63b8ff" points="1213.42,-161.1 1216.7,-151.03 1207.85,-156.86 1213.42,-161.1"/>
</a>
</g>
</g>
<!-- Node25 -->
<g id="Node000025" class="node">
<title>Node25</title>
<g id="a_Node000025"><a xlink:title=" ">
<polygon fill="#e0e0e0" stroke="#999999" points="1499,-211.5 1346,-211.5 1346,-192.5 1499,-192.5 1499,-211.5"/>
<text text-anchor="middle" x="1422.5" y="-199.5" font-family="Helvetica,sans-Serif" font-size="10.00">AMReX_ParallelDescriptor.H</text>
</a>
</g>
</g>
<!-- Node1&#45;&gt;Node25 -->
<g id="edge32_Node000001_Node000025" class="edge">
<title>Node1&#45;&gt;Node25</title>
<g id="a_edge32_Node000001_Node000025"><a xlink:title=" ">
<path fill="none" stroke="#63b8ff" d="M1040.01,-260.49C1115.59,-249.33 1231.16,-232.18 1331.5,-217 1339.79,-215.75 1348.51,-214.42 1357.13,-213.1"/>
<polygon fill="#63b8ff" stroke="#63b8ff" points="1357.81,-216.53 1367.17,-211.56 1356.75,-209.61 1357.81,-216.53"/>
</a>
</g>
</g>
<!-- Node26 -->
<g id="Node000026" class="node">
<title>Node26</title>
<g id="a_Node000026"><a xlink:href="trig__ops_8_h.html" target="_top" xlink:title=" ">
<polygon fill="white" stroke="#666666" points="139,-217 36,-217 36,-187 139,-187 139,-217"/>
<text text-anchor="start" x="44" y="-205" font-family="Helvetica,sans-Serif" font-size="10.00">amr&#45;wind/utilities</text>
<text text-anchor="middle" x="87.5" y="-194" font-family="Helvetica,sans-Serif" font-size="10.00">/trig_ops.H</text>
</a>
</g>
</g>
<!-- Node1&#45;&gt;Node26 -->
<g id="edge33_Node000001_Node000026" class="edge">
<title>Node1&#45;&gt;Node26</title>
<g id="a_edge33_Node000001_Node000026"><a xlink:title=" ">
<path fill="none" stroke="#63b8ff" d="M876.98,-270.65C731.19,-266.51 416.41,-253.76 153.5,-217 152.19,-216.82 150.88,-216.62 149.55,-216.42"/>
<polygon fill="#63b8ff" stroke="#63b8ff" points="149.7,-212.9 139.26,-214.7 148.54,-219.8 149.7,-212.9"/>
</a>
</g>
</g>
<!-- Node27 -->
<g id="Node000027" class="node">
<title>Node27</title>
<g id="a_Node000027"><a xlink:title=" ">
<polygon fill="#e0e0e0" stroke="#999999" points="1636,-211.5 1517,-211.5 1517,-192.5 1636,-192.5 1636,-211.5"/>
<text text-anchor="middle" x="1576.5" y="-199.5" font-family="Helvetica,sans-Serif" font-size="10.00">AMReX_ParmParse.H</text>
</a>
</g>
</g>
<!-- Node1&#45;&gt;Node27 -->
<g id="edge38_Node000001_Node000027" class="edge">
<title>Node1&#45;&gt;Node27</title>
<g id="a_edge38_Node000001_Node000027"><a xlink:title=" ">
<path fill="none" stroke="#63b8ff" d="M1040.37,-266.87C1148.11,-258.86 1343.19,-242.29 1508.5,-217 1514.91,-216.02 1521.63,-214.83 1528.25,-213.57"/>
<polygon fill="#63b8ff" stroke="#63b8ff" points="1529.37,-216.91 1538.5,-211.54 1528.01,-210.05 1529.37,-216.91"/>
</a>
</g>
</g>
<!-- Node28 -->
<g id="Node000028" class="node">
<title>Node28</title>
<g id="a_Node000028"><a xlink:href="linear__interpolation_8_h.html" target="_top" xlink:title=" ">
<polygon fill="white" stroke="#666666" points="321,-217 196,-217 196,-187 321,-187 321,-217"/>
<text text-anchor="start" x="204" y="-205" font-family="Helvetica,sans-Serif" font-size="10.00">amr&#45;wind/utilities</text>
<text text-anchor="middle" x="258.5" y="-194" font-family="Helvetica,sans-Serif" font-size="10.00">/linear_interpolation.H</text>
</a>
</g>
</g>
<!-- Node1&#45;&gt;Node28 -->
<g id="edge39_Node000001_Node000028" class="edge">
<title>Node1&#45;&gt;Node28</title>
<g id="a_edge39_Node000001_Node000028"><a xlink:title=" ">
<path fill="none" stroke="#63b8ff" d="M876.83,-264.39C739.05,-250.71 462.61,-223.26 331.15,-210.21"/>
<polygon fill="#63b8ff" stroke="#63b8ff" points="331.48,-206.73 321.18,-209.22 330.78,-213.69 331.48,-206.73"/>
</a>
</g>
</g>
<!-- Node30 -->
<g id="Node000030" class="node">
<title>Node30</title>
<g id="a_Node000030"><a xlink:href="io__utils_8_h.html" target="_top" xlink:title=" ">
<polygon fill="white" stroke="#666666" points="1540,-85 1437,-85 1437,-55 1540,-55 1540,-85"/>
<text text-anchor="start" x="1445" y="-73" font-family="Helvetica,sans-Serif" font-size="10.00">amr&#45;wind/utilities</text>
<text text-anchor="middle" x="1488.5" y="-62" font-family="Helvetica,sans-Serif" font-size="10.00">/io_utils.H</text>
</a>
</g>
</g>
<!-- Node1&#45;&gt;Node30 -->
<g id="edge42_Node000001_Node000030" class="edge">
<title>Node1&#45;&gt;Node30</title>
<g id="a_edge42_Node000001_Node000030"><a xlink:title=" ">
<path fill="none" stroke="#63b8ff" d="M1040.05,-256.17C1082.53,-246.65 1134.96,-233.3 1180.5,-217 1283.46,-180.14 1398.28,-120.41 1454.18,-90.04"/>
<polygon fill="#63b8ff" stroke="#63b8ff" points="1456.17,-92.94 1463.27,-85.07 1452.82,-86.79 1456.17,-92.94"/>
</a>
</g>
</g>
<!-- Node5 -->
<g id="Node000005" class="node">
<title>Node5</title>
<g id="a_Node000005"><a xlink:href="_field_8_h.html" target="_top" xlink:title=" ">
<polygon fill="white" stroke="#666666" points="603.5,-145.5 479.5,-145.5 479.5,-126.5 603.5,-126.5 603.5,-145.5"/>
<text text-anchor="middle" x="541.5" y="-133.5" font-family="Helvetica,sans-Serif" font-size="10.00">amr&#45;wind/core/Field.H</text>
</a>
</g>
</g>
<!-- Node4&#45;&gt;Node5 -->
<g id="edge4_Node000004_Node000005" class="edge">
<title>Node4&#45;&gt;Node5</title>
<g id="a_edge4_Node000004_Node000005"><a xlink:title=" ">
<path fill="none" stroke="#63b8ff" d="M728.83,-186.95C685.07,-175.29 623.65,-158.91 583.24,-148.13"/>
<polygon fill="#63b8ff" stroke="#63b8ff" points="584,-144.71 573.44,-145.52 582.2,-151.48 584,-144.71"/>
</a>
</g>
</g>
<!-- Node4&#45;&gt;Node11 -->
<g id="edge25_Node000004_Node000011" class="edge">
<title>Node4&#45;&gt;Node11</title>
<g id="a_edge25_Node000004_Node000011"><a xlink:title=" ">
<path fill="none" stroke="#63b8ff" d="M717.2,-200.04C652.39,-196.95 550.74,-186.24 470.5,-151 450.8,-142.35 452.08,-129.93 432.5,-121 423.01,-116.67 297.45,-93.82 223.31,-80.55"/>
<polygon fill="#63b8ff" stroke="#63b8ff" points="223.67,-77.06 213.21,-78.75 222.44,-83.95 223.67,-77.06"/>
</a>
</g>
</g>
<!-- Node15 -->
<g id="Node000015" class="node">
<title>Node15</title>
<g id="a_Node000015"><a xlink:title=" ">
<polygon fill="#e0e0e0" stroke="#999999" points="1034.5,-19 936.5,-19 936.5,0 1034.5,0 1034.5,-19"/>
<text text-anchor="middle" x="985.5" y="-7" font-family="Helvetica,sans-Serif" font-size="10.00">AMReX_Vector.H</text>
</a>
</g>
</g>
<!-- Node4&#45;&gt;Node15 -->
<g id="edge24_Node000004_Node000015" class="edge">
<title>Node4&#45;&gt;Node15</title>
<g id="a_edge24_Node000004_Node000015"><a xlink:title=" ">
<path fill="none" stroke="#63b8ff" d="M845.71,-199.53C923.93,-196.23 1049.29,-185.53 1078.5,-151 1122.4,-99.09 1015.31,-96.95 1005.5,-85 992.52,-69.19 987.91,-45.72 986.3,-29.37"/>
<polygon fill="#63b8ff" stroke="#63b8ff" points="989.79,-29.09 985.6,-19.36 982.81,-29.58 989.79,-29.09"/>
</a>
</g>
</g>
<!-- Node16 -->
<g id="Node000016" class="node">
<title>Node16</title>
<g id="a_Node000016"><a xlink:title=" ">
<polygon fill="#e0e0e0" stroke="#999999" points="713.5,-145.5 621.5,-145.5 621.5,-126.5 713.5,-126.5 713.5,-145.5"/>
<text text-anchor="middle" x="667.5" y="-133.5" font-family="Helvetica,sans-Serif" font-size="10.00">AMReX_Array.H</text>
</a>
</g>
</g>
<!-- Node4&#45;&gt;Node16 -->
<g id="edge19_Node000004_Node000016" class="edge">
<title>Node4&#45;&gt;Node16</title>
<g id="a_edge19_Node000004_Node000016"><a xlink:title=" ">
<path fill="none" stroke="#63b8ff" d="M756.48,-186.95C737.19,-176.13 710.68,-161.24 691.62,-150.54"/>
<polygon fill="#63b8ff" stroke="#63b8ff" points="693.1,-147.36 682.67,-145.52 689.68,-153.46 693.1,-147.36"/>
</a>
</g>
</g>
<!-- Node17 -->
<g id="Node000017" class="node">
<title>Node17</title>
<g id="a_Node000017"><a xlink:title=" ">
<polygon fill="#e0e0e0" stroke="#999999" points="831.5,-145.5 731.5,-145.5 731.5,-126.5 831.5,-126.5 831.5,-145.5"/>
<text text-anchor="middle" x="781.5" y="-133.5" font-family="Helvetica,sans-Serif" font-size="10.00">AMReX_Array4.H</text>
</a>
</g>
</g>
<!-- Node4&#45;&gt;Node17 -->
<g id="edge20_Node000004_Node000017" class="edge">
<title>Node4&#45;&gt;Node17</title>
<g id="a_edge20_Node000004_Node000017"><a xlink:title=" ">
<path fill="none" stroke="#63b8ff" d="M781.5,-186.8C781.5,-177.7 781.5,-165.79 781.5,-155.9"/>
<polygon fill="#63b8ff" stroke="#63b8ff" points="785,-155.84 781.5,-145.84 778,-155.84 785,-155.84"/>
</a>
</g>
</g>
<!-- Node18 -->
<g id="Node000018" class="node">
<title>Node18</title>
<g id="a_Node000018"><a xlink:title=" ">
<polygon fill="#e0e0e0" stroke="#999999" points="935.5,-145.5 849.5,-145.5 849.5,-126.5 935.5,-126.5 935.5,-145.5"/>
<text text-anchor="middle" x="892.5" y="-133.5" font-family="Helvetica,sans-Serif" font-size="10.00">AMReX_Box.H</text>
</a>
</g>
</g>
<!-- Node4&#45;&gt;Node18 -->
<g id="edge21_Node000004_Node000018" class="edge">
<title>Node4&#45;&gt;Node18</title>
<g id="a_edge21_Node000004_Node000018"><a xlink:title=" ">
<path fill="none" stroke="#63b8ff" d="M805.86,-186.95C824.64,-176.13 850.45,-161.24 869.01,-150.54"/>
<polygon fill="#63b8ff" stroke="#63b8ff" points="870.81,-153.54 877.73,-145.52 867.32,-147.48 870.81,-153.54"/>
</a>
</g>
</g>
<!-- Node19 -->
<g id="Node000019" class="node">
<title>Node19</title>
<g id="a_Node000019"><a xlink:title=" ">
<polygon fill="#e0e0e0" stroke="#999999" points="1069,-145.5 954,-145.5 954,-126.5 1069,-126.5 1069,-145.5"/>
<text text-anchor="middle" x="1011.5" y="-133.5" font-family="Helvetica,sans-Serif" font-size="10.00">AMReX_Geometry.H</text>
</a>
</g>
</g>
<!-- Node4&#45;&gt;Node19 -->
<g id="edge22_Node000004_Node000019" class="edge">
<title>Node4&#45;&gt;Node19</title>
<g id="a_edge22_Node000004_Node000019"><a xlink:title=" ">
<path fill="none" stroke="#63b8ff" d="M831.97,-186.95C873.73,-175.34 932.27,-159.05 971.01,-148.27"/>
<polygon fill="#63b8ff" stroke="#63b8ff" points="972.2,-151.57 980.89,-145.52 970.32,-144.83 972.2,-151.57"/>
</a>
</g>
</g>
<!-- Node20 -->
<g id="Node000020" class="node">
<title>Node20</title>
<g id="a_Node000020"><a xlink:title=" ">
<polygon fill="#e0e0e0" stroke="#999999" points="423.5,-145.5 331.5,-145.5 331.5,-126.5 423.5,-126.5 423.5,-145.5"/>
<text text-anchor="middle" x="377.5" y="-133.5" font-family="Helvetica,sans-Serif" font-size="10.00">AMReX_REAL.H</text>
</a>
</g>
</g>
<!-- Node4&#45;&gt;Node20 -->
<g id="edge23_Node000004_Node000020" class="edge">
<title>Node4&#45;&gt;Node20</title>
<g id="a_edge23_Node000004_Node000020"><a xlink:title=" ">
<path fill="none" stroke="#63b8ff" d="M717.2,-193.31C647.88,-184.64 534.46,-169.32 437.5,-151 432.44,-150.04 427.16,-148.95 421.93,-147.81"/>
<polygon fill="#63b8ff" stroke="#63b8ff" points="422.5,-144.35 411.98,-145.57 420.97,-151.18 422.5,-144.35"/>
</a>
</g>
</g>
<!-- Node5&#45;&gt;Node3 -->
<g id="edge5_Node000005_Node000003" class="edge">
<title>Node5&#45;&gt;Node3</title>
<g id="a_edge5_Node000005_Node000003"><a xlink:title=" ">
<path fill="none" stroke="#63b8ff" d="M581.95,-126.43C591.91,-124.49 602.57,-122.54 612.5,-121 752.18,-99.31 791.28,-118.94 928.5,-85 964.15,-76.18 971.01,-67.62 1005.5,-55 1038.73,-42.85 1077.09,-29.84 1103.48,-21.05"/>
<polygon fill="#63b8ff" stroke="#63b8ff" points="1104.93,-24.25 1113.32,-17.78 1102.73,-17.61 1104.93,-24.25"/>
</a>
</g>
</g>
<!-- Node6 -->
<g id="Node000006" class="node">
<title>Node6</title>
<g id="a_Node000006"><a xlink:title=" ">
<polygon fill="#e0e0e0" stroke="#999999" points="719.5,-79.5 661.5,-79.5 661.5,-60.5 719.5,-60.5 719.5,-79.5"/>
<text text-anchor="middle" x="690.5" y="-67.5" font-family="Helvetica,sans-Serif" font-size="10.00">memory</text>
</a>
</g>
</g>
<!-- Node5&#45;&gt;Node6 -->
<g id="edge6_Node000005_Node000006" class="edge">
<title>Node5&#45;&gt;Node6</title>
<g id="a_edge6_Node000005_Node000006"><a xlink:title=" ">
<path fill="none" stroke="#63b8ff" d="M561.59,-126.37C587.14,-115.39 631.46,-96.36 660.89,-83.72"/>
<polygon fill="#63b8ff" stroke="#63b8ff" points="662.44,-86.86 670.25,-79.7 659.68,-80.43 662.44,-86.86"/>
</a>
</g>
</g>
<!-- Node7 -->
<g id="Node000007" class="node">
<title>Node7</title>
<g id="a_Node000007"><a xlink:title=" ">
<polygon fill="#e0e0e0" stroke="#999999" points="1107,-79.5 1014,-79.5 1014,-60.5 1107,-60.5 1107,-79.5"/>
<text text-anchor="middle" x="1060.5" y="-67.5" font-family="Helvetica,sans-Serif" font-size="10.00">unordered_map</text>
</a>
</g>
</g>
<!-- Node5&#45;&gt;Node7 -->
<g id="edge7_Node000005_Node000007" class="edge">
<title>Node5&#45;&gt;Node7</title>
<g id="a_edge7_Node000005_Node000007"><a xlink:title=" ">
<path fill="none" stroke="#63b8ff" d="M581.56,-126.43C591.63,-124.46 602.44,-122.51 612.5,-121 766.71,-97.89 806.72,-103.92 961.5,-85 975.3,-83.31 990.15,-81.31 1004.04,-79.36"/>
<polygon fill="#63b8ff" stroke="#63b8ff" points="1004.55,-82.82 1013.96,-77.95 1003.57,-75.89 1004.55,-82.82"/>
</a>
</g>
</g>
<!-- Node8 -->
<g id="Node000008" class="node">
<title>Node8</title>
<g id="a_Node000008"><a xlink:title=" ">
<polygon fill="#e0e0e0" stroke="#999999" points="801.5,-79.5 737.5,-79.5 737.5,-60.5 801.5,-60.5 801.5,-79.5"/>
<text text-anchor="middle" x="769.5" y="-67.5" font-family="Helvetica,sans-Serif" font-size="10.00">algorithm</text>
</a>
</g>
</g>
<!-- Node5&#45;&gt;Node8 -->
<g id="edge8_Node000005_Node000008" class="edge">
<title>Node5&#45;&gt;Node8</title>
<g id="a_edge8_Node000005_Node000008"><a xlink:title=" ">
<path fill="none" stroke="#63b8ff" d="M576.16,-126.48C613.86,-117.04 675.77,-101.03 728.5,-85 730.81,-84.3 733.18,-83.55 735.56,-82.79"/>
<polygon fill="#63b8ff" stroke="#63b8ff" points="736.91,-86.03 745.31,-79.56 734.71,-79.38 736.91,-86.03"/>
</a>
</g>
</g>
<!-- Node9 -->
<g id="Node000009" class="node">
<title>Node9</title>
<g id="a_Node000009"><a xlink:title=" ">
<polygon fill="#e0e0e0" stroke="#999999" points="473,-19 364,-19 364,0 473,0 473,-19"/>
<text text-anchor="middle" x="418.5" y="-7" font-family="Helvetica,sans-Serif" font-size="10.00">AMReX_MultiFab.H</text>
</a>
</g>
</g>
<!-- Node5&#45;&gt;Node9 -->
<g id="edge9_Node000005_Node000009" class="edge">
<title>Node5&#45;&gt;Node9</title>
<g id="a_edge9_Node000005_Node000009"><a xlink:title=" ">
<path fill="none" stroke="#63b8ff" d="M528.5,-126.24C515.03,-116.84 493.7,-101.1 477.5,-85 459.3,-66.92 441.44,-43.32 430.23,-27.58"/>
<polygon fill="#63b8ff" stroke="#63b8ff" points="433.04,-25.49 424.44,-19.31 427.31,-29.51 433.04,-25.49"/>
</a>
</g>
</g>
<!-- Node10 -->
<g id="Node000010" class="node">
<title>Node10</title>
<g id="a_Node000010"><a xlink:title=" ">
<polygon fill="#e0e0e0" stroke="#999999" points="919,-79.5 820,-79.5 820,-60.5 919,-60.5 919,-79.5"/>
<text text-anchor="middle" x="869.5" y="-67.5" font-family="Helvetica,sans-Serif" font-size="10.00">AMReX_BCRec.H</text>
</a>
</g>
</g>
<!-- Node5&#45;&gt;Node10 -->
<g id="edge10_Node000005_Node000010" class="edge">
<title>Node5&#45;&gt;Node10</title>
<g id="a_edge10_Node000005_Node000010"><a xlink:title=" ">
<path fill="none" stroke="#63b8ff" d="M584.28,-126.46C593.58,-124.63 603.37,-122.73 612.5,-121 700.38,-104.35 722.96,-103.33 810.5,-85 815.21,-84.01 820.12,-82.93 825.01,-81.82"/>
<polygon fill="#63b8ff" stroke="#63b8ff" points="825.99,-85.19 834.94,-79.53 824.41,-78.37 825.99,-85.19"/>
</a>
</g>
</g>
<!-- Node5&#45;&gt;Node11 -->
<g id="edge11_Node000005_Node000011" class="edge">
<title>Node5&#45;&gt;Node11</title>
<g id="a_edge11_Node000005_Node000011"><a xlink:title=" ">
<path fill="none" stroke="#63b8ff" d="M495.71,-126.45C485.75,-124.62 475.28,-122.72 465.5,-121 370.52,-104.26 346.59,-101.12 251.5,-85 242.4,-83.46 232.74,-81.81 223.36,-80.21"/>
<polygon fill="#63b8ff" stroke="#63b8ff" points="223.78,-76.74 213.33,-78.5 222.6,-83.64 223.78,-76.74"/>
</a>
</g>
</g>
<!-- Node12 -->
<g id="Node000012" class="node">
<title>Node12</title>
<g id="a_Node000012"><a xlink:href="incflo__enums_8_h.html" target="_top" xlink:title=" ">
<polygon fill="white" stroke="#666666" points="401,-79.5 260,-79.5 260,-60.5 401,-60.5 401,-79.5"/>
<text text-anchor="middle" x="330.5" y="-67.5" font-family="Helvetica,sans-Serif" font-size="10.00">amr&#45;wind/incflo_enums.H</text>
</a>
</g>
</g>
<!-- Node5&#45;&gt;Node12 -->
<g id="edge12_Node000005_Node000012" class="edge">
<title>Node5&#45;&gt;Node12</title>
<g id="a_edge12_Node000005_Node000012"><a xlink:title=" ">
<path fill="none" stroke="#63b8ff" d="M513.04,-126.37C475.74,-115.05 410.17,-95.16 368.6,-82.56"/>
<polygon fill="#63b8ff" stroke="#63b8ff" points="369.43,-79.15 358.84,-79.6 367.4,-85.85 369.43,-79.15"/>
</a>
</g>
</g>
<!-- Node13 -->
<g id="Node000013" class="node">
<title>Node13</title>
<g id="a_Node000013"><a xlink:href="_field_desc_types_8_h.html" target="_top" xlink:title=" ">
<polygon fill="white" stroke="#666666" points="667.5,-19 491.5,-19 491.5,0 667.5,0 667.5,-19"/>
<text text-anchor="middle" x="579.5" y="-7" font-family="Helvetica,sans-Serif" font-size="10.00">amr&#45;wind/core/FieldDescTypes.H</text>
</a>
</g>
</g>
<!-- Node5&#45;&gt;Node13 -->
<g id="edge13_Node000005_Node000013" class="edge">
<title>Node5&#45;&gt;Node13</title>
<g id="a_edge13_Node000005_Node000013"><a xlink:title=" ">
<path fill="none" stroke="#63b8ff" d="M527.66,-126.28C506.39,-111.74 469.79,-81.52 486.5,-55 496.23,-39.56 512.97,-29.35 529.59,-22.67"/>
<polygon fill="#63b8ff" stroke="#63b8ff" points="531.11,-25.84 539.3,-19.13 528.71,-19.26 531.11,-25.84"/>
</a>
</g>
</g>
<!-- Node14 -->
<g id="Node000014" class="node">
<title>Node14</title>
<g id="a_Node000014"><a xlink:href="_view_field_8_h.html" target="_top" xlink:title=" ">
<polygon fill="white" stroke="#666666" points="643.5,-79.5 495.5,-79.5 495.5,-60.5 643.5,-60.5 643.5,-79.5"/>
<text text-anchor="middle" x="569.5" y="-67.5" font-family="Helvetica,sans-Serif" font-size="10.00">amr&#45;wind/core/ViewField.H</text>
</a>
</g>
</g>
<!-- Node5&#45;&gt;Node14 -->
<g id="edge14_Node000005_Node000014" class="edge">
<title>Node5&#45;&gt;Node14</title>
<g id="a_edge14_Node000005_Node000014"><a xlink:title=" ">
<path fill="none" stroke="#63b8ff" d="M545.28,-126.37C549.43,-116.88 556.22,-101.36 561.55,-89.16"/>
<polygon fill="#63b8ff" stroke="#63b8ff" points="564.8,-90.47 565.6,-79.91 558.39,-87.66 564.8,-90.47"/>
</a>
</g>
</g>
<!-- Node14&#45;&gt;Node3 -->
<g id="edge15_Node000014_Node000003" class="edge">
<title>Node14&#45;&gt;Node3</title>
<g id="a_edge15_Node000014_Node000003"><a xlink:title=" ">
<path fill="none" stroke="#63b8ff" d="M616.38,-60.46C628.14,-58.49 640.76,-56.53 652.5,-55 825.55,-32.47 869.72,-35.03 1043.5,-19 1063.21,-17.18 1085.29,-15.14 1102.88,-13.52"/>
<polygon fill="#63b8ff" stroke="#63b8ff" points="1103.56,-16.97 1113.19,-12.56 1102.91,-10 1103.56,-16.97"/>
</a>
</g>
</g>
<!-- Node14&#45;&gt;Node9 -->
<g id="edge17_Node000014_Node000009" class="edge">
<title>Node14&#45;&gt;Node9</title>
<g id="a_edge17_Node000014_Node000009"><a xlink:title=" ">
<path fill="none" stroke="#63b8ff" d="M547.54,-60.49C521.82,-50.53 479.02,-33.95 449.82,-22.63"/>
<polygon fill="#63b8ff" stroke="#63b8ff" points="451.07,-19.37 440.48,-19.02 448.54,-25.89 451.07,-19.37"/>
</a>
</g>
</g>
<!-- Node14&#45;&gt;Node13 -->
<g id="edge16_Node000014_Node000013" class="edge">
<title>Node14&#45;&gt;Node13</title>
<g id="a_edge16_Node000014_Node000013"><a xlink:title=" ">
<path fill="none" stroke="#63b8ff" d="M570.98,-60.37C572.38,-52.16 574.54,-39.54 576.33,-29.05"/>
<polygon fill="#63b8ff" stroke="#63b8ff" points="579.78,-29.61 578.02,-19.17 572.88,-28.43 579.78,-29.61"/>
</a>
</g>
</g>
<!-- Node14&#45;&gt;Node15 -->
<g id="edge18_Node000014_Node000015" class="edge">
<title>Node14&#45;&gt;Node15</title>
<g id="a_edge18_Node000014_Node000015"><a xlink:title=" ">
<path fill="none" stroke="#63b8ff" d="M618.61,-60.43C629.74,-58.57 641.52,-56.66 652.5,-55 748.03,-40.57 859.34,-26.18 926.03,-17.82"/>
<polygon fill="#63b8ff" stroke="#63b8ff" points="926.85,-21.25 936.34,-16.53 925.98,-14.3 926.85,-21.25"/>
</a>
</g>
</g>
<!-- Node21&#45;&gt;Node3 -->
<g id="edge27_Node000021_Node000003" class="edge">
<title>Node21&#45;&gt;Node3</title>
<g id="a_edge27_Node000021_Node000003"><a xlink:title=" ">
<path fill="none" stroke="#63b8ff" d="M1216.06,-120.72C1199.17,-97.61 1165.93,-52.13 1147.87,-27.43"/>
<polygon fill="#63b8ff" stroke="#63b8ff" points="1150.49,-25.08 1141.76,-19.07 1144.84,-29.21 1150.49,-25.08"/>
</a>
</g>
</g>
<!-- Node21&#45;&gt;Node7 -->
<g id="edge28_Node000021_Node000007" class="edge">
<title>Node21&#45;&gt;Node7</title>
<g id="a_edge28_Node000021_Node000007"><a xlink:title=" ">
<path fill="none" stroke="#63b8ff" d="M1190.07,-120.95C1160.83,-109.68 1120.19,-94.01 1092.26,-83.25"/>
<polygon fill="#63b8ff" stroke="#63b8ff" points="1093.18,-79.85 1082.59,-79.52 1090.66,-86.38 1093.18,-79.85"/>
</a>
</g>
</g>
<!-- Node22 -->
<g id="Node000022" class="node">
<title>Node22</title>
<g id="a_Node000022"><a xlink:title=" ">
<polygon fill="#e0e0e0" stroke="#999999" points="1249,-79.5 1202,-79.5 1202,-60.5 1249,-60.5 1249,-79.5"/>
<text text-anchor="middle" x="1225.5" y="-67.5" font-family="Helvetica,sans-Serif" font-size="10.00">vector</text>
</a>
</g>
</g>
<!-- Node21&#45;&gt;Node22 -->
<g id="edge29_Node000021_Node000022" class="edge">
<title>Node21&#45;&gt;Node22</title>
<g id="a_edge29_Node000021_Node000022"><a xlink:title=" ">
<path fill="none" stroke="#63b8ff" d="M1226.28,-120.8C1226.14,-111.7 1225.95,-99.79 1225.8,-89.9"/>
<polygon fill="#63b8ff" stroke="#63b8ff" points="1229.29,-89.79 1225.64,-79.84 1222.29,-89.9 1229.29,-89.79"/>
</a>
</g>
</g>
<!-- Node23 -->
<g id="Node000023" class="node">
<title>Node23</title>
<g id="a_Node000023"><a xlink:title=" ">
<polygon fill="#e0e0e0" stroke="#999999" points="1323.5,-79.5 1267.5,-79.5 1267.5,-60.5 1323.5,-60.5 1323.5,-79.5"/>
<text text-anchor="middle" x="1295.5" y="-67.5" font-family="Helvetica,sans-Serif" font-size="10.00">netcdf.h</text>
</a>
</g>
</g>
<!-- Node21&#45;&gt;Node23 -->
<g id="edge30_Node000021_Node000023" class="edge">
<title>Node21&#45;&gt;Node23</title>
<g id="a_edge30_Node000021_Node000023"><a xlink:title=" ">
<path fill="none" stroke="#63b8ff" d="M1241.81,-120.8C1252.68,-110.72 1267.26,-97.19 1278.49,-86.78"/>
<polygon fill="#63b8ff" stroke="#63b8ff" points="1281.01,-89.21 1285.96,-79.84 1276.25,-84.08 1281.01,-89.21"/>
</a>
</g>
</g>
<!-- Node24 -->
<g id="Node000024" class="node">
<title>Node24</title>
<g id="a_Node000024"><a xlink:title=" ">
<polygon fill="#e0e0e0" stroke="#999999" points="1419,-79.5 1342,-79.5 1342,-60.5 1419,-60.5 1419,-79.5"/>
<text text-anchor="middle" x="1380.5" y="-67.5" font-family="Helvetica,sans-Serif" font-size="10.00">netcdf_par.h</text>
</a>
</g>
</g>
<!-- Node21&#45;&gt;Node24 -->
<g id="edge31_Node000021_Node000024" class="edge">
<title>Node21&#45;&gt;Node24</title>
<g id="a_edge31_Node000021_Node000024"><a xlink:title=" ">
<path fill="none" stroke="#63b8ff" d="M1260.3,-120.95C1287.3,-109.73 1324.8,-94.15 1350.69,-83.39"/>
<polygon fill="#63b8ff" stroke="#63b8ff" points="1352.11,-86.59 1360.01,-79.52 1349.43,-80.12 1352.11,-86.59"/>
</a>
</g>
</g>
<!-- Node26&#45;&gt;Node2 -->
<g id="edge34_Node000026_Node000002" class="edge">
<title>Node26&#45;&gt;Node2</title>
<g id="a_edge34_Node000026_Node000002"><a xlink:title=" ">
<path fill="none" stroke="#63b8ff" d="M73.3,-186.8C63.32,-176.82 49.96,-163.46 39.59,-153.09"/>
<polygon fill="#63b8ff" stroke="#63b8ff" points="41.89,-150.44 32.34,-145.84 36.94,-155.39 41.89,-150.44"/>
</a>
</g>
</g>
<!-- Node26&#45;&gt;Node11 -->
<g id="edge36_Node000026_Node000011" class="edge">
<title>Node26&#45;&gt;Node11</title>
<g id="a_edge36_Node000026_Node000011"><a xlink:title=" ">
<path fill="none" stroke="#63b8ff" d="M90.77,-186.82C95.06,-170.1 103.72,-141.94 117.5,-121 126.19,-107.79 138.96,-95.45 149.66,-86.33"/>
<polygon fill="#63b8ff" stroke="#63b8ff" points="152.17,-88.8 157.69,-79.76 147.74,-83.39 152.17,-88.8"/>
</a>
</g>
</g>
<!-- Node26&#45;&gt;Node20 -->
<g id="edge35_Node000026_Node000020" class="edge">
<title>Node26&#45;&gt;Node20</title>
<g id="a_edge35_Node000026_Node000020"><a xlink:title=" ">
<path fill="none" stroke="#63b8ff" d="M139.44,-190.57C187.14,-180.83 259.74,-165.66 322.5,-151 326.6,-150.04 330.87,-149.01 335.13,-147.96"/>
<polygon fill="#63b8ff" stroke="#63b8ff" points="336.13,-151.32 344.98,-145.5 334.43,-144.53 336.13,-151.32"/>
</a>
</g>
</g>
<!-- Node28&#45;&gt;Node11 -->
<g id="edge40_Node000028_Node000011" class="edge">
<title>Node28&#45;&gt;Node11</title>
<g id="a_edge40_Node000028_Node000011"><a xlink:title=" ">
<path fill="none" stroke="#63b8ff" d="M229.75,-186.88C215.31,-178.38 198.75,-166.24 188.5,-151 176.21,-132.71 171.83,-107.39 170.29,-90.17"/>
<polygon fill="#63b8ff" stroke="#63b8ff" points="173.76,-89.48 169.62,-79.72 166.77,-89.93 173.76,-89.48"/>
</a>
</g>
</g>
<!-- Node29 -->
<g id="Node000029" class="node">
<title>Node29</title>
<g id="a_Node000029"><a xlink:title=" ">
<polygon fill="#e0e0e0" stroke="#999999" points="313.5,-145.5 197.5,-145.5 197.5,-126.5 313.5,-126.5 313.5,-145.5"/>
<text text-anchor="middle" x="255.5" y="-133.5" font-family="Helvetica,sans-Serif" font-size="10.00">AMReX_Extension.H</text>
</a>
</g>
</g>
<!-- Node28&#45;&gt;Node29 -->
<g id="edge41_Node000028_Node000029" class="edge">
<title>Node28&#45;&gt;Node29</title>
<g id="a_edge41_Node000028_Node000029"><a xlink:title=" ">
<path fill="none" stroke="#63b8ff" d="M257.83,-186.8C257.41,-177.7 256.85,-165.79 256.39,-155.9"/>
<polygon fill="#63b8ff" stroke="#63b8ff" points="259.88,-155.67 255.91,-145.84 252.89,-156 259.88,-155.67"/>
</a>
</g>
</g>
<!-- Node30&#45;&gt;Node3 -->
<g id="edge45_Node000030_Node000003" class="edge">
<title>Node30&#45;&gt;Node3</title>
<g id="a_edge45_Node000030_Node000003"><a xlink:title=" ">
<path fill="none" stroke="#63b8ff" d="M1436.84,-56.68C1434.03,-56.09 1431.23,-55.53 1428.5,-55 1334.24,-36.87 1221.76,-21.53 1167.67,-14.54"/>
<polygon fill="#63b8ff" stroke="#63b8ff" points="1168.02,-11.06 1157.65,-13.26 1167.13,-18 1168.02,-11.06"/>
</a>
</g>
</g>
<!-- Node30&#45;&gt;Node15 -->
<g id="edge48_Node000030_Node000015" class="edge">
<title>Node30&#45;&gt;Node15</title>
<g id="a_edge48_Node000030_Node000015"><a xlink:title=" ">
<path fill="none" stroke="#63b8ff" d="M1436.87,-56.51C1434.05,-55.96 1431.24,-55.46 1428.5,-55 1356.26,-42.99 1148.24,-24.38 1045.04,-15.52"/>
<polygon fill="#63b8ff" stroke="#63b8ff" points="1045.04,-12.01 1034.78,-14.64 1044.45,-18.98 1045.04,-12.01"/>
</a>
</g>
</g>
<!-- Node31 -->
<g id="Node000031" class="node">
<title>Node31</title>
<g id="a_Node000031"><a xlink:title=" ">
<polygon fill="#e0e0e0" stroke="#999999" points="1414.5,-19 1364.5,-19 1364.5,0 1414.5,0 1414.5,-19"/>
<text text-anchor="middle" x="1389.5" y="-7" font-family="Helvetica,sans-Serif" font-size="10.00">chrono</text>
</a>
</g>
</g>
<!-- Node30&#45;&gt;Node31 -->
<g id="edge43_Node000030_Node000031" class="edge">
<title>Node30&#45;&gt;Node31</title>
<g id="a_edge43_Node000030_Node000031"><a xlink:title=" ">
<path fill="none" stroke="#63b8ff" d="M1464.79,-54.99C1449.15,-45.75 1428.76,-33.7 1413.14,-24.47"/>
<polygon fill="#63b8ff" stroke="#63b8ff" points="1414.51,-21.21 1404.12,-19.14 1410.95,-27.24 1414.51,-21.21"/>
</a>
</g>
</g>
<!-- Node32 -->
<g id="Node000032" class="node">
<title>Node32</title>
<g id="a_Node000032"><a xlink:title=" ">
<polygon fill="#e0e0e0" stroke="#999999" points="1476.5,-19 1432.5,-19 1432.5,0 1476.5,0 1476.5,-19"/>
<text text-anchor="middle" x="1454.5" y="-7" font-family="Helvetica,sans-Serif" font-size="10.00">ctime</text>
</a>
</g>
</g>
<!-- Node30&#45;&gt;Node32 -->
<g id="edge44_Node000030_Node000032" class="edge">
<title>Node30&#45;&gt;Node32</title>
<g id="a_edge44_Node000030_Node000032"><a xlink:title=" ">
<path fill="none" stroke="#63b8ff" d="M1480.27,-54.84C1475.59,-46.78 1469.68,-36.62 1464.7,-28.06"/>
<polygon fill="#63b8ff" stroke="#63b8ff" points="1467.65,-26.15 1459.59,-19.27 1461.59,-29.67 1467.65,-26.15"/>
</a>
</g>
</g>
<!-- Node33 -->
<g id="Node000033" class="node">
<title>Node33</title>
<g id="a_Node000033"><a xlink:title=" ">
<polygon fill="#e0e0e0" stroke="#999999" points="1550.5,-19 1494.5,-19 1494.5,0 1550.5,0 1550.5,-19"/>
<text text-anchor="middle" x="1522.5" y="-7" font-family="Helvetica,sans-Serif" font-size="10.00">sstream</text>
</a>
</g>
</g>
<!-- Node30&#45;&gt;Node33 -->
<g id="edge46_Node000030_Node000033" class="edge">
<title>Node30&#45;&gt;Node33</title>
<g id="a_edge46_Node000030_Node000033"><a xlink:title=" ">
<path fill="none" stroke="#63b8ff" d="M1496.73,-54.84C1501.41,-46.78 1507.32,-36.62 1512.3,-28.06"/>
<polygon fill="#63b8ff" stroke="#63b8ff" points="1515.41,-29.67 1517.41,-19.27 1509.35,-26.15 1515.41,-29.67"/>
</a>
</g>
</g>
<!-- Node34 -->
<g id="Node000034" class="node">
<title>Node34</title>
<g id="a_Node000034"><a xlink:title=" ">
<polygon fill="#e0e0e0" stroke="#999999" points="1654.5,-19 1568.5,-19 1568.5,0 1654.5,0 1654.5,-19"/>
<text text-anchor="middle" x="1611.5" y="-7" font-family="Helvetica,sans-Serif" font-size="10.00">unordered_set</text>
</a>
</g>
</g>
<!-- Node30&#45;&gt;Node34 -->
<g id="edge47_Node000030_Node000034" class="edge">
<title>Node30&#45;&gt;Node34</title>
<g id="a_edge47_Node000030_Node000034"><a xlink:title=" ">
<path fill="none" stroke="#63b8ff" d="M1517.96,-54.99C1538.12,-45.4 1564.64,-32.79 1584.3,-23.44"/>
<polygon fill="#63b8ff" stroke="#63b8ff" points="1585.81,-26.6 1593.34,-19.14 1582.8,-20.27 1585.81,-26.6"/>
</a>
</g>
</g>
</g>
</svg>
