<?xml version="1.0" encoding="UTF-8" standalone="no"?>
<!DOCTYPE svg PUBLIC "-//W3C//DTD SVG 1.1//EN"
 "http://www.w3.org/Graphics/SVG/1.1/DTD/svg11.dtd">
<!-- Generated by graphviz version 2.43.0 (0)
 -->
<!-- Title: /home/runner/work/amr&#45;wind/amr&#45;wind/amr&#45;wind/wind_energy/actuator/ActuatorContainer.H Pages: 1 -->
<svg width="587pt" height="357pt"
 viewBox="0.00 0.00 586.50 357.00" xmlns="http://www.w3.org/2000/svg" xmlns:xlink="http://www.w3.org/1999/xlink">
<g id="graph0" class="graph" transform="scale(1 1) rotate(0) translate(4 353)">
<title>/home/runner/work/amr&#45;wind/amr&#45;wind/amr&#45;wind/wind_energy/actuator/ActuatorContainer.H</title>
<!-- Node1 -->
<g id="Node000001" class="node">
<title>Node1</title>
<g id="a_Node000001"><a xlink:title=" ">
<polygon fill="#999999" stroke="#666666" points="487,-349 317,-349 317,-297 487,-297 487,-349"/>
<text text-anchor="start" x="325" y="-337" font-family="Helvetica,sans-Serif" font-size="10.00">/home/runner/work/amr</text>
<text text-anchor="start" x="325" y="-326" font-family="Helvetica,sans-Serif" font-size="10.00">&#45;wind/amr&#45;wind/amr&#45;wind</text>
<text text-anchor="start" x="325" y="-315" font-family="Helvetica,sans-Serif" font-size="10.00">/wind_energy/actuator/Actuator</text>
<text text-anchor="middle" x="402" y="-304" font-family="Helvetica,sans-Serif" font-size="10.00">Container.H</text>
</a>
</g>
</g>
<!-- Node2 -->
<g id="Node000002" class="node">
<title>Node2</title>
<g id="a_Node000002"><a xlink:href="vector__space_8_h.html" target="_top" xlink:title=" ">
<polygon fill="white" stroke="#666666" points="394.5,-261 259.5,-261 259.5,-231 394.5,-231 394.5,-261"/>
<text text-anchor="start" x="267.5" y="-249" font-family="Helvetica,sans-Serif" font-size="10.00">amr&#45;wind/core/vs/vector</text>
<text text-anchor="middle" x="327" y="-238" font-family="Helvetica,sans-Serif" font-size="10.00">_space.H</text>
</a>
</g>
</g>
<!-- Node1&#45;&gt;Node2 -->
<g id="edge1_Node000001_Node000002" class="edge">
<title>Node1&#45;&gt;Node2</title>
<g id="a_edge1_Node000001_Node000002"><a xlink:title=" ">
<path fill="none" stroke="#63b8ff" d="M376.61,-296.61C367.54,-287.54 357.41,-277.41 348.68,-268.68"/>
<polygon fill="#63b8ff" stroke="#63b8ff" points="350.97,-266.02 341.43,-261.43 346.02,-270.97 350.97,-266.02"/>
</a>
</g>
</g>
<!-- Node14 -->
<g id="Node000014" class="node">
<title>Node14</title>
<g id="a_Node000014"><a xlink:title=" ">
<polygon fill="#e0e0e0" stroke="#999999" points="541.5,-255.5 412.5,-255.5 412.5,-236.5 541.5,-236.5 541.5,-255.5"/>
<text text-anchor="middle" x="477" y="-243.5" font-family="Helvetica,sans-Serif" font-size="10.00">AMReX_AmrParticles.H</text>
</a>
</g>
</g>
<!-- Node1&#45;&gt;Node14 -->
<g id="edge21_Node000001_Node000014" class="edge">
<title>Node1&#45;&gt;Node14</title>
<g id="a_edge21_Node000001_Node000014"><a xlink:title=" ">
<path fill="none" stroke="#63b8ff" d="M427.39,-296.61C438.52,-285.48 451.25,-272.75 461.03,-262.97"/>
<polygon fill="#63b8ff" stroke="#63b8ff" points="463.55,-265.4 468.15,-255.85 458.6,-260.45 463.55,-265.4"/>
</a>
</g>
</g>
<!-- Node3 -->
<g id="Node000003" class="node">
<title>Node3</title>
<g id="a_Node000003"><a xlink:href="vector_8_h.html" target="_top" xlink:title=" ">
<polygon fill="white" stroke="#666666" points="317.5,-140 172.5,-140 172.5,-121 317.5,-121 317.5,-140"/>
<text text-anchor="middle" x="245" y="-128" font-family="Helvetica,sans-Serif" font-size="10.00">amr&#45;wind/core/vs/vector.H</text>
</a>
</g>
</g>
<!-- Node2&#45;&gt;Node3 -->
<g id="edge2_Node000002_Node000003" class="edge">
<title>Node2&#45;&gt;Node3</title>
<g id="a_edge2_Node000002_Node000003"><a xlink:title=" ">
<path fill="none" stroke="#63b8ff" d="M316.61,-230.63C301.46,-209.65 273.35,-170.75 257.23,-148.42"/>
<polygon fill="#63b8ff" stroke="#63b8ff" points="260,-146.29 251.31,-140.23 254.33,-150.38 260,-146.29"/>
</a>
</g>
</g>
<!-- Node10 -->
<g id="Node000010" class="node">
<title>Node10</title>
<g id="a_Node000010"><a xlink:href="tensor_8_h.html" target="_top" xlink:title=" ">
<polygon fill="white" stroke="#666666" points="466.5,-195 321.5,-195 321.5,-176 466.5,-176 466.5,-195"/>
<text text-anchor="middle" x="394" y="-183" font-family="Helvetica,sans-Serif" font-size="10.00">amr&#45;wind/core/vs/tensor.H</text>
</a>
</g>
</g>
<!-- Node2&#45;&gt;Node10 -->
<g id="edge10_Node000002_Node000010" class="edge">
<title>Node2&#45;&gt;Node10</title>
<g id="a_edge10_Node000002_Node000010"><a xlink:title=" ">
<path fill="none" stroke="#63b8ff" d="M343.22,-230.84C353.24,-222.09 366.11,-210.85 376.38,-201.88"/>
<polygon fill="#63b8ff" stroke="#63b8ff" points="378.73,-204.48 383.96,-195.27 374.13,-199.21 378.73,-204.48"/>
</a>
</g>
</g>
<!-- Node4 -->
<g id="Node000004" class="node">
<title>Node4</title>
<g id="a_Node000004"><a xlink:title=" ">
<polygon fill="#e0e0e0" stroke="#999999" points="578.5,-19 491.5,-19 491.5,0 578.5,0 578.5,-19"/>
<text text-anchor="middle" x="535" y="-7" font-family="Helvetica,sans-Serif" font-size="10.00">AMReX_Gpu.H</text>
</a>
</g>
</g>
<!-- Node3&#45;&gt;Node4 -->
<g id="edge3_Node000003_Node000004" class="edge">
<title>Node3&#45;&gt;Node4</title>
<g id="a_edge3_Node000003_Node000004"><a xlink:title=" ">
<path fill="none" stroke="#63b8ff" d="M305.81,-120.96C372.79,-111.15 473.06,-95.11 488,-85 508.14,-71.38 521.4,-45.94 528.55,-28.62"/>
<polygon fill="#63b8ff" stroke="#63b8ff" points="531.9,-29.65 532.22,-19.06 525.36,-27.14 531.9,-29.65"/>
</a>
</g>
</g>
<!-- Node5 -->
<g id="Node000005" class="node">
<title>Node5</title>
<g id="a_Node000005"><a xlink:href="vstraits_8_h.html" target="_top" xlink:title=" ">
<polygon fill="white" stroke="#666666" points="152,-79.5 0,-79.5 0,-60.5 152,-60.5 152,-79.5"/>
<text text-anchor="middle" x="76" y="-67.5" font-family="Helvetica,sans-Serif" font-size="10.00">amr&#45;wind/core/vs/vstraits.H</text>
</a>
</g>
</g>
<!-- Node3&#45;&gt;Node5 -->
<g id="edge4_Node000003_Node000005" class="edge">
<title>Node3&#45;&gt;Node5</title>
<g id="a_edge4_Node000003_Node000005"><a xlink:title=" ">
<path fill="none" stroke="#63b8ff" d="M220.43,-120.99C191.39,-110.94 142.9,-94.16 110.2,-82.84"/>
<polygon fill="#63b8ff" stroke="#63b8ff" points="111.2,-79.48 100.6,-79.52 108.91,-86.1 111.2,-79.48"/>
</a>
</g>
</g>
<!-- Node7 -->
<g id="Node000007" class="node">
<title>Node7</title>
<g id="a_Node000007"><a xlink:href="vector_i_8_h.html" target="_top" xlink:title=" ">
<polygon fill="white" stroke="#666666" points="319.5,-79.5 170.5,-79.5 170.5,-60.5 319.5,-60.5 319.5,-79.5"/>
<text text-anchor="middle" x="245" y="-67.5" font-family="Helvetica,sans-Serif" font-size="10.00">amr&#45;wind/core/vs/vectorI.H</text>
</a>
</g>
</g>
<!-- Node3&#45;&gt;Node7 -->
<g id="edge6_Node000003_Node000007" class="edge">
<title>Node3&#45;&gt;Node7</title>
<g id="a_edge6_Node000003_Node000007"><a xlink:title=" ">
<path fill="none" stroke="#63b8ff" d="M240.04,-120.87C238.29,-112.75 237.82,-100.31 238.64,-89.89"/>
<polygon fill="#63b8ff" stroke="#63b8ff" points="242.15,-90.05 240.04,-79.67 235.22,-89.1 242.15,-90.05"/>
</a>
</g>
</g>
<!-- Node6 -->
<g id="Node000006" class="node">
<title>Node6</title>
<g id="a_Node000006"><a xlink:title=" ">
<polygon fill="#e0e0e0" stroke="#999999" points="98,-19 54,-19 54,0 98,0 98,-19"/>
<text text-anchor="middle" x="76" y="-7" font-family="Helvetica,sans-Serif" font-size="10.00">limits</text>
</a>
</g>
</g>
<!-- Node5&#45;&gt;Node6 -->
<g id="edge5_Node000005_Node000006" class="edge">
<title>Node5&#45;&gt;Node6</title>
<g id="a_edge5_Node000005_Node000006"><a xlink:title=" ">
<path fill="none" stroke="#63b8ff" d="M76,-60.37C76,-52.25 76,-39.81 76,-29.39"/>
<polygon fill="#63b8ff" stroke="#63b8ff" points="79.5,-29.17 76,-19.17 72.5,-29.17 79.5,-29.17"/>
</a>
</g>
</g>
<!-- Node7&#45;&gt;Node3 -->
<g id="edge9_Node000007_Node000003" class="edge">
<title>Node7&#45;&gt;Node3</title>
<g id="a_edge9_Node000007_Node000003"><a xlink:title=" ">
<path fill="none" stroke="#63b8ff" d="M249.96,-79.67C251.71,-87.8 252.18,-100.24 251.35,-110.66"/>
<polygon fill="#63b8ff" stroke="#63b8ff" points="247.85,-110.49 249.96,-120.87 254.78,-111.44 247.85,-110.49"/>
</a>
</g>
</g>
<!-- Node8 -->
<g id="Node000008" class="node">
<title>Node8</title>
<g id="a_Node000008"><a xlink:title=" ">
<polygon fill="#e0e0e0" stroke="#999999" points="273.5,-19 216.5,-19 216.5,0 273.5,0 273.5,-19"/>
<text text-anchor="middle" x="245" y="-7" font-family="Helvetica,sans-Serif" font-size="10.00">ostream</text>
</a>
</g>
</g>
<!-- Node7&#45;&gt;Node8 -->
<g id="edge7_Node000007_Node000008" class="edge">
<title>Node7&#45;&gt;Node8</title>
<g id="a_edge7_Node000007_Node000008"><a xlink:title=" ">
<path fill="none" stroke="#63b8ff" d="M245,-60.37C245,-52.25 245,-39.81 245,-29.39"/>
<polygon fill="#63b8ff" stroke="#63b8ff" points="248.5,-29.17 245,-19.17 241.5,-29.17 248.5,-29.17"/>
</a>
</g>
</g>
<!-- Node9 -->
<g id="Node000009" class="node">
<title>Node9</title>
<g id="a_Node000009"><a xlink:title=" ">
<polygon fill="#e0e0e0" stroke="#999999" points="362.5,-19 315.5,-19 315.5,0 362.5,0 362.5,-19"/>
<text text-anchor="middle" x="339" y="-7" font-family="Helvetica,sans-Serif" font-size="10.00">cmath</text>
</a>
</g>
</g>
<!-- Node7&#45;&gt;Node9 -->
<g id="edge8_Node000007_Node000009" class="edge">
<title>Node7&#45;&gt;Node9</title>
<g id="a_edge8_Node000007_Node000009"><a xlink:title=" ">
<path fill="none" stroke="#63b8ff" d="M258.87,-60.37C274,-50.95 298.46,-35.73 316.38,-24.58"/>
<polygon fill="#63b8ff" stroke="#63b8ff" points="318.43,-27.42 325.07,-19.17 314.73,-21.48 318.43,-27.42"/>
</a>
</g>
</g>
<!-- Node10&#45;&gt;Node3 -->
<g id="edge13_Node000010_Node000003" class="edge">
<title>Node10&#45;&gt;Node3</title>
<g id="a_edge13_Node000010_Node000003"><a xlink:title=" ">
<path fill="none" stroke="#63b8ff" d="M370.06,-175.98C345.44,-167.23 306.88,-153.51 279.08,-143.62"/>
<polygon fill="#63b8ff" stroke="#63b8ff" points="279.97,-140.22 269.38,-140.17 277.62,-146.82 279.97,-140.22"/>
</a>
</g>
</g>
<!-- Node10&#45;&gt;Node4 -->
<g id="edge11_Node000010_Node000004" class="edge">
<title>Node10&#45;&gt;Node4</title>
<g id="a_edge11_Node000010_Node000004"><a xlink:title=" ">
<path fill="none" stroke="#63b8ff" d="M430,-175.96C451.09,-169.3 476.88,-158.07 494,-140 523.38,-108.99 531.71,-57.04 534.07,-29.3"/>
<polygon fill="#63b8ff" stroke="#63b8ff" points="537.58,-29.23 534.76,-19.02 530.6,-28.77 537.58,-29.23"/>
</a>
</g>
</g>
<!-- Node10&#45;&gt;Node5 -->
<g id="edge12_Node000010_Node000005" class="edge">
<title>Node10&#45;&gt;Node5</title>
<g id="a_edge12_Node000010_Node000005"><a xlink:title=" ">
<path fill="none" stroke="#63b8ff" d="M321.29,-179.46C274.38,-174.08 213.01,-162.96 163,-140 134.69,-127 107.47,-102.93 91.23,-86.94"/>
<polygon fill="#63b8ff" stroke="#63b8ff" points="93.7,-84.46 84.18,-79.82 88.73,-89.39 93.7,-84.46"/>
</a>
</g>
</g>
<!-- Node11 -->
<g id="Node000011" class="node">
<title>Node11</title>
<g id="a_Node000011"><a xlink:href="tensor_i_8_h.html" target="_top" xlink:title=" ">
<polygon fill="white" stroke="#666666" points="484.5,-140 335.5,-140 335.5,-121 484.5,-121 484.5,-140"/>
<text text-anchor="middle" x="410" y="-128" font-family="Helvetica,sans-Serif" font-size="10.00">amr&#45;wind/core/vs/tensorI.H</text>
</a>
</g>
</g>
<!-- Node10&#45;&gt;Node11 -->
<g id="edge14_Node000010_Node000011" class="edge">
<title>Node10&#45;&gt;Node11</title>
<g id="a_edge14_Node000010_Node000011"><a xlink:title=" ">
<path fill="none" stroke="#63b8ff" d="M391.48,-175.75C392.1,-168.57 394.82,-158.18 398.22,-149.27"/>
<polygon fill="#63b8ff" stroke="#63b8ff" points="401.44,-150.65 402.28,-140.09 395.03,-147.82 401.44,-150.65"/>
</a>
</g>
</g>
<!-- Node11&#45;&gt;Node9 -->
<g id="edge15_Node000011_Node000009" class="edge">
<title>Node11&#45;&gt;Node9</title>
<g id="a_edge15_Node000011_Node000009"><a xlink:title=" ">
<path fill="none" stroke="#63b8ff" d="M399.54,-120.92C389.97,-112.59 375.96,-99.16 367,-85 355.95,-67.52 348.25,-45.01 343.76,-29.33"/>
<polygon fill="#63b8ff" stroke="#63b8ff" points="347.03,-28.04 341.05,-19.29 340.27,-29.86 347.03,-28.04"/>
</a>
</g>
</g>
<!-- Node11&#45;&gt;Node10 -->
<g id="edge16_Node000011_Node000010" class="edge">
<title>Node11&#45;&gt;Node10</title>
<g id="a_edge16_Node000011_Node000010"><a xlink:title=" ">
<path fill="none" stroke="#63b8ff" d="M412.54,-140.09C411.95,-147.22 409.25,-157.6 405.85,-166.53"/>
<polygon fill="#63b8ff" stroke="#63b8ff" points="402.62,-165.18 401.81,-175.75 409.03,-168 402.62,-165.18"/>
</a>
</g>
</g>
<!-- Node12 -->
<g id="Node000012" class="node">
<title>Node12</title>
<g id="a_Node000012"><a xlink:href="trig__ops_8_h.html" target="_top" xlink:title=" ">
<polygon fill="white" stroke="#666666" points="478.5,-85 375.5,-85 375.5,-55 478.5,-55 478.5,-85"/>
<text text-anchor="start" x="383.5" y="-73" font-family="Helvetica,sans-Serif" font-size="10.00">amr&#45;wind/utilities</text>
<text text-anchor="middle" x="427" y="-62" font-family="Helvetica,sans-Serif" font-size="10.00">/trig_ops.H</text>
</a>
</g>
</g>
<!-- Node11&#45;&gt;Node12 -->
<g id="edge17_Node000011_Node000012" class="edge">
<title>Node11&#45;&gt;Node12</title>
<g id="a_edge17_Node000011_Node000012"><a xlink:title=" ">
<path fill="none" stroke="#63b8ff" d="M412.51,-120.87C414.49,-114.03 417.37,-104.14 420.04,-94.97"/>
<polygon fill="#63b8ff" stroke="#63b8ff" points="423.47,-95.69 422.9,-85.11 416.75,-93.74 423.47,-95.69"/>
</a>
</g>
</g>
<!-- Node12&#45;&gt;Node4 -->
<g id="edge20_Node000012_Node000004" class="edge">
<title>Node12&#45;&gt;Node4</title>
<g id="a_edge20_Node000012_Node000004"><a xlink:title=" ">
<path fill="none" stroke="#63b8ff" d="M452.87,-54.99C470.24,-45.58 493.01,-33.24 510.17,-23.95"/>
<polygon fill="#63b8ff" stroke="#63b8ff" points="511.92,-26.98 519.05,-19.14 508.59,-20.82 511.92,-26.98"/>
</a>
</g>
</g>
<!-- Node12&#45;&gt;Node9 -->
<g id="edge18_Node000012_Node000009" class="edge">
<title>Node12&#45;&gt;Node9</title>
<g id="a_edge18_Node000012_Node000009"><a xlink:title=" ">
<path fill="none" stroke="#63b8ff" d="M405.7,-54.84C391.93,-45.68 374.07,-33.82 360.3,-24.66"/>
<polygon fill="#63b8ff" stroke="#63b8ff" points="362.19,-21.72 351.93,-19.09 358.32,-27.55 362.19,-21.72"/>
</a>
</g>
</g>
<!-- Node13 -->
<g id="Node000013" class="node">
<title>Node13</title>
<g id="a_Node000013"><a xlink:title=" ">
<polygon fill="#e0e0e0" stroke="#999999" points="473,-19 381,-19 381,0 473,0 473,-19"/>
<text text-anchor="middle" x="427" y="-7" font-family="Helvetica,sans-Serif" font-size="10.00">AMReX_REAL.H</text>
</a>
</g>
</g>
<!-- Node12&#45;&gt;Node13 -->
<g id="edge19_Node000012_Node000013" class="edge">
<title>Node12&#45;&gt;Node13</title>
<g id="a_edge19_Node000012_Node000013"><a xlink:title=" ">
<path fill="none" stroke="#63b8ff" d="M427,-54.84C427,-47.21 427,-37.7 427,-29.45"/>
<polygon fill="#63b8ff" stroke="#63b8ff" points="430.5,-29.27 427,-19.27 423.5,-29.27 430.5,-29.27"/>
</a>
</g>
</g>
</g>
</svg>
