<?xml version="1.0" encoding="UTF-8" standalone="no"?>
<!DOCTYPE svg PUBLIC "-//W3C//DTD SVG 1.1//EN"
 "http://www.w3.org/Graphics/SVG/1.1/DTD/svg11.dtd">
<!-- Generated by graphviz version 2.43.0 (0)
 -->
<!-- Title: /home/runner/work/amr&#45;wind/amr&#45;wind/amr&#45;wind/wind_energy/actuator/aero/AirfoilTable.cpp Pages: 1 -->
<!--zoomable 489 -->

<svg id="main" version="1.1" xmlns="http://www.w3.org/2000/svg" xmlns:xlink="http://www.w3.org/1999/xlink" xml:space="preserve" onload="init(evt)">

<style type="text/css"><![CDATA[
.node, .edge {opacity: 0.7;}
.node.selected, .edge.selected {opacity: 1;}
.edge:hover path { stroke: red; }
.edge:hover polygon { stroke: red; fill: red; }
]]></style>

<defs>
  <circle id="rim" cx="0" cy="0" r="7"/>
  <circle id="rim2" cx="0" cy="0" r="3.5"/>
  <g id="zoomPlus">
    <use xlink:href="#rim" fill="#404040"><set attributeName="fill" to="#808080" begin="zoomplus.mouseover" end="zoomplus.mouseout"/></use>
    <path d="M-4,0h8M0,-4v8" fill="none" stroke="white" stroke-width="1.5" pointer-events="none"/>
  </g>
  <g id="zoomMin">
    <use xlink:href="#rim" fill="#404040"><set attributeName="fill" to="#808080" begin="zoomminus.mouseover" end="zoomminus.mouseout"/></use>
    <path d="M-4,0h8" fill="none" stroke="white" stroke-width="1.5" pointer-events="none"/>
  </g>
  <g id="arrowUp" transform="translate(30 24)">
    <use xlink:href="#rim"/>
    <path pointer-events="none" fill="none" stroke="white" stroke-width="1.5" d="M0,-3.0v7 M-2.5,-0.5L0,-3.0L2.5,-0.5"/>
  </g>
  <g id="arrowRight" transform="rotate(90) translate(36 -43)">
    <use xlink:href="#rim"/>
    <path pointer-events="none" fill="none" stroke="white" stroke-width="1.5" d="M0,-3.0v7 M-2.5,-0.5L0,-3.0L2.5,-0.5"/>
  </g>
  <g id="arrowDown" transform="rotate(180) translate(-30 -48)">
    <use xlink:href="#rim"/>
    <path pointer-events="none" fill="none" stroke="white" stroke-width="1.5" d="M0,-3.0v7 M-2.5,-0.5L0,-3.0L2.5,-0.5"/>
  </g>
  <g id="arrowLeft" transform="rotate(270) translate(-36 17)">
    <use xlink:href="#rim"/>
    <path pointer-events="none" fill="none" stroke="white" stroke-width="1.5" d="M0,-3.0v7 M-2.5,-0.5L0,-3.0L2.5,-0.5"/>
  </g>
  <g id="resetDef">
    <use xlink:href="#rim2" fill="#404040"><set attributeName="fill" to="#808080" begin="reset.mouseover" end="reset.mouseout"/></use>
  </g>
</defs>
<script type="application/ecmascript">
var viewWidth = 1157;
var viewHeight = 489;
var sectionId = 'dynsection-0';
</script>
<script type="application/ecmascript" xlink:href="svg.min.js"/>
<svg id="graph" class="graph">
<g id="viewport">
<title>/home/runner/work/amr&#45;wind/amr&#45;wind/amr&#45;wind/wind_energy/actuator/aero/AirfoilTable.cpp</title>
<!-- Node1 -->
<g id="Node000001" class="node">
<title>Node1</title>
<g id="a_Node000001"><a xlink:title=" ">
<polygon fill="#999999" stroke="#666666" points="682.5,-481 532.5,-481 532.5,-429 682.5,-429 682.5,-481"/>
<text text-anchor="start" x="540.5" y="-469" font-family="Helvetica,sans-Serif" font-size="10.00">/home/runner/work/amr</text>
<text text-anchor="start" x="540.5" y="-458" font-family="Helvetica,sans-Serif" font-size="10.00">&#45;wind/amr&#45;wind/amr&#45;wind</text>
<text text-anchor="start" x="540.5" y="-447" font-family="Helvetica,sans-Serif" font-size="10.00">/wind_energy/actuator/aero</text>
<text text-anchor="middle" x="607.5" y="-436" font-family="Helvetica,sans-Serif" font-size="10.00">/AirfoilTable.cpp</text>
</a>
</g>
</g>
<!-- Node2 -->
<g id="Node000002" class="node">
<title>Node2</title>
<g id="a_Node000002"><a xlink:href="_airfoil_table_8_h.html" target="_top" xlink:title=" ">
<polygon fill="white" stroke="#666666" points="623,-393 470,-393 470,-363 623,-363 623,-393"/>
<text text-anchor="start" x="478" y="-381" font-family="Helvetica,sans-Serif" font-size="10.00">amr&#45;wind/wind_energy</text>
<text text-anchor="middle" x="546.5" y="-370" font-family="Helvetica,sans-Serif" font-size="10.00">/actuator/aero/AirfoilTable.H</text>
</a>
</g>
</g>
<!-- Node1&#45;&gt;Node2 -->
<g id="edge1_Node000001_Node000002" class="edge">
<title>Node1&#45;&gt;Node2</title>
<g id="a_edge1_Node000001_Node000002"><a xlink:title=" ">
<path fill="none" stroke="#63b8ff" d="M586.85,-428.61C579.62,-419.72 571.56,-409.82 564.56,-401.21"/>
<polygon fill="#63b8ff" stroke="#63b8ff" points="567.26,-398.98 558.23,-393.43 561.83,-403.39 567.26,-398.98"/>
</a>
</g>
</g>
<!-- Node27 -->
<g id="Node000027" class="node">
<title>Node27</title>
<g id="a_Node000027"><a xlink:href="linear__interpolation_8_h.html" target="_top" xlink:title=" ">
<polygon fill="white" stroke="#666666" points="125,-85 0,-85 0,-55 125,-55 125,-85"/>
<text text-anchor="start" x="8" y="-73" font-family="Helvetica,sans-Serif" font-size="10.00">amr&#45;wind/utilities</text>
<text text-anchor="middle" x="62.5" y="-62" font-family="Helvetica,sans-Serif" font-size="10.00">/linear_interpolation.H</text>
</a>
</g>
</g>
<!-- Node1&#45;&gt;Node27 -->
<g id="edge39_Node000001_Node000027" class="edge">
<title>Node1&#45;&gt;Node27</title>
<g id="a_edge39_Node000001_Node000027"><a xlink:title=" ">
<path fill="none" stroke="#63b8ff" d="M532.31,-449.24C388.47,-438.06 88.5,-403.86 88.5,-313 88.5,-313 88.5,-313 88.5,-184.5 88.5,-152.77 78.73,-117.28 71.16,-94.57"/>
<polygon fill="#63b8ff" stroke="#63b8ff" points="74.46,-93.4 67.89,-85.1 67.85,-95.69 74.46,-93.4"/>
</a>
</g>
</g>
<!-- Node29 -->
<g id="Node000029" class="node">
<title>Node29</title>
<g id="a_Node000029"><a xlink:title=" ">
<polygon fill="#e0e0e0" stroke="#999999" points="696,-387.5 641,-387.5 641,-368.5 696,-368.5 696,-387.5"/>
<text text-anchor="middle" x="668.5" y="-375.5" font-family="Helvetica,sans-Serif" font-size="10.00">fstream</text>
</a>
</g>
</g>
<!-- Node1&#45;&gt;Node29 -->
<g id="edge43_Node000001_Node000029" class="edge">
<title>Node1&#45;&gt;Node29</title>
<g id="a_edge43_Node000001_Node000029"><a xlink:title=" ">
<path fill="none" stroke="#63b8ff" d="M628.15,-428.61C636.94,-417.81 646.94,-405.5 654.79,-395.85"/>
<polygon fill="#63b8ff" stroke="#63b8ff" points="657.71,-397.82 661.3,-387.85 652.28,-393.4 657.71,-397.82"/>
</a>
</g>
</g>
<!-- Node30 -->
<g id="Node000030" class="node">
<title>Node30</title>
<g id="a_Node000030"><a xlink:title=" ">
<polygon fill="#e0e0e0" stroke="#999999" points="778.5,-387.5 714.5,-387.5 714.5,-368.5 778.5,-368.5 778.5,-387.5"/>
<text text-anchor="middle" x="746.5" y="-375.5" font-family="Helvetica,sans-Serif" font-size="10.00">algorithm</text>
</a>
</g>
</g>
<!-- Node1&#45;&gt;Node30 -->
<g id="edge44_Node000001_Node000030" class="edge">
<title>Node1&#45;&gt;Node30</title>
<g id="a_edge44_Node000001_Node000030"><a xlink:title=" ">
<path fill="none" stroke="#63b8ff" d="M654.17,-428.82C676.74,-416.64 702.92,-402.52 721.62,-392.42"/>
<polygon fill="#63b8ff" stroke="#63b8ff" points="723.53,-395.37 730.66,-387.54 720.2,-389.21 723.53,-395.37"/>
</a>
</g>
</g>
<!-- Node3 -->
<g id="Node000003" class="node">
<title>Node3</title>
<g id="a_Node000003"><a xlink:href="actuator__types_8_h.html" target="_top" xlink:title=" ">
<polygon fill="white" stroke="#666666" points="433.5,-327 287.5,-327 287.5,-297 433.5,-297 433.5,-327"/>
<text text-anchor="start" x="295.5" y="-315" font-family="Helvetica,sans-Serif" font-size="10.00">amr&#45;wind/wind_energy</text>
<text text-anchor="middle" x="360.5" y="-304" font-family="Helvetica,sans-Serif" font-size="10.00">/actuator/actuator_types.H</text>
</a>
</g>
</g>
<!-- Node2&#45;&gt;Node3 -->
<g id="edge2_Node000002_Node000003" class="edge">
<title>Node2&#45;&gt;Node3</title>
<g id="a_edge2_Node000002_Node000003"><a xlink:title=" ">
<path fill="none" stroke="#63b8ff" d="M505.68,-362.95C477.82,-353.37 440.72,-340.6 411,-330.37"/>
<polygon fill="#63b8ff" stroke="#63b8ff" points="411.82,-326.96 401.22,-327.01 409.54,-333.58 411.82,-326.96"/>
</a>
</g>
</g>
<!-- Node19 -->
<g id="Node000019" class="node">
<title>Node19</title>
<g id="a_Node000019"><a xlink:title=" ">
<polygon fill="#e0e0e0" stroke="#999999" points="630.5,-19 538.5,-19 538.5,0 630.5,0 630.5,-19"/>
<text text-anchor="middle" x="584.5" y="-7" font-family="Helvetica,sans-Serif" font-size="10.00">AMReX_REAL.H</text>
</a>
</g>
</g>
<!-- Node2&#45;&gt;Node19 -->
<g id="edge35_Node000002_Node000019" class="edge">
<title>Node2&#45;&gt;Node19</title>
<g id="a_edge35_Node000002_Node000019"><a xlink:title=" ">
<path fill="none" stroke="#63b8ff" d="M559.91,-362.76C568.14,-353.29 578.26,-340.21 584.5,-327 600.12,-293.96 603.5,-283.54 603.5,-247 603.5,-247 603.5,-247 603.5,-129.5 603.5,-93.54 594.94,-52.23 589.31,-28.96"/>
<polygon fill="#63b8ff" stroke="#63b8ff" points="592.66,-27.93 586.83,-19.09 585.87,-29.64 592.66,-27.93"/>
</a>
</g>
</g>
<!-- Node23 -->
<g id="Node000023" class="node">
<title>Node23</title>
<g id="a_Node000023"><a xlink:title=" ">
<polygon fill="#e0e0e0" stroke="#999999" points="499.5,-321.5 451.5,-321.5 451.5,-302.5 499.5,-302.5 499.5,-321.5"/>
<text text-anchor="middle" x="475.5" y="-309.5" font-family="Helvetica,sans-Serif" font-size="10.00">iosfwd</text>
</a>
</g>
</g>
<!-- Node2&#45;&gt;Node23 -->
<g id="edge33_Node000002_Node000023" class="edge">
<title>Node2&#45;&gt;Node23</title>
<g id="a_edge33_Node000002_Node000023"><a xlink:title=" ">
<path fill="none" stroke="#63b8ff" d="M530.74,-362.8C519.57,-352.72 504.56,-339.19 493.01,-328.78"/>
<polygon fill="#63b8ff" stroke="#63b8ff" points="495.08,-325.94 485.31,-321.84 490.4,-331.14 495.08,-325.94"/>
</a>
</g>
</g>
<!-- Node24 -->
<g id="Node000024" class="node">
<title>Node24</title>
<g id="a_Node000024"><a xlink:title=" ">
<polygon fill="#e0e0e0" stroke="#999999" points="575.5,-321.5 517.5,-321.5 517.5,-302.5 575.5,-302.5 575.5,-321.5"/>
<text text-anchor="middle" x="546.5" y="-309.5" font-family="Helvetica,sans-Serif" font-size="10.00">memory</text>
</a>
</g>
</g>
<!-- Node2&#45;&gt;Node24 -->
<g id="edge34_Node000002_Node000024" class="edge">
<title>Node2&#45;&gt;Node24</title>
<g id="a_edge34_Node000002_Node000024"><a xlink:title=" ">
<path fill="none" stroke="#63b8ff" d="M546.5,-362.8C546.5,-353.7 546.5,-341.79 546.5,-331.9"/>
<polygon fill="#63b8ff" stroke="#63b8ff" points="550,-331.84 546.5,-321.84 543,-331.84 550,-331.84"/>
</a>
</g>
</g>
<!-- Node25 -->
<g id="Node000025" class="node">
<title>Node25</title>
<g id="a_Node000025"><a xlink:href="_airfoil_table_i_8_h.html" target="_top" xlink:title=" ">
<polygon fill="white" stroke="#666666" points="787.5,-327 631.5,-327 631.5,-297 787.5,-297 787.5,-327"/>
<text text-anchor="start" x="639.5" y="-315" font-family="Helvetica,sans-Serif" font-size="10.00">amr&#45;wind/wind_energy</text>
<text text-anchor="middle" x="709.5" y="-304" font-family="Helvetica,sans-Serif" font-size="10.00">/actuator/aero/AirfoilTableI.H</text>
</a>
</g>
</g>
<!-- Node2&#45;&gt;Node25 -->
<g id="edge36_Node000002_Node000025" class="edge">
<title>Node2&#45;&gt;Node25</title>
<g id="a_edge36_Node000002_Node000025"><a xlink:title=" ">
<path fill="none" stroke="#63b8ff" d="M576.57,-362.95C599.53,-353.45 631.55,-340.82 658.46,-330.64"/>
<polygon fill="#63b8ff" stroke="#63b8ff" points="659.99,-333.81 668.12,-327.01 657.53,-327.26 659.99,-333.81"/>
</a>
</g>
</g>
<!-- Node4 -->
<g id="Node000004" class="node">
<title>Node4</title>
<g id="a_Node000004"><a xlink:href="_slice_8_h.html" target="_top" xlink:title=" ">
<polygon fill="white" stroke="#666666" points="259.5,-255.5 135.5,-255.5 135.5,-236.5 259.5,-236.5 259.5,-255.5"/>
<text text-anchor="middle" x="197.5" y="-243.5" font-family="Helvetica,sans-Serif" font-size="10.00">amr&#45;wind/core/Slice.H</text>
</a>
</g>
</g>
<!-- Node3&#45;&gt;Node4 -->
<g id="edge3_Node000003_Node000004" class="edge">
<title>Node3&#45;&gt;Node4</title>
<g id="a_edge3_Node000003_Node000004"><a xlink:title=" ">
<path fill="none" stroke="#63b8ff" d="M324.73,-296.95C296.02,-285.68 256.11,-270.01 228.69,-259.25"/>
<polygon fill="#63b8ff" stroke="#63b8ff" points="229.78,-255.91 219.19,-255.52 227.22,-262.43 229.78,-255.91"/>
</a>
</g>
</g>
<!-- Node7 -->
<g id="Node000007" class="node">
<title>Node7</title>
<g id="a_Node000007"><a xlink:title=" ">
<polygon fill="#e0e0e0" stroke="#999999" points="464,-19 377,-19 377,0 464,0 464,-19"/>
<text text-anchor="middle" x="420.5" y="-7" font-family="Helvetica,sans-Serif" font-size="10.00">AMReX_Gpu.H</text>
</a>
</g>
</g>
<!-- Node3&#45;&gt;Node7 -->
<g id="edge28_Node000003_Node000007" class="edge">
<title>Node3&#45;&gt;Node7</title>
<g id="a_edge28_Node000003_Node000007"><a xlink:title=" ">
<path fill="none" stroke="#63b8ff" d="M337.85,-296.83C326.13,-288.09 312.95,-275.75 306.5,-261 301.16,-248.78 301.15,-243.21 306.5,-231 315.96,-209.39 332.07,-214.39 345.5,-195 383.34,-140.37 406.64,-63.77 415.9,-28.99"/>
<polygon fill="#63b8ff" stroke="#63b8ff" points="419.3,-29.8 418.41,-19.24 412.52,-28.05 419.3,-29.8"/>
</a>
</g>
</g>
<!-- Node8 -->
<g id="Node000008" class="node">
<title>Node8</title>
<g id="a_Node000008"><a xlink:href="vector__space_8_h.html" target="_top" xlink:title=" ">
<polygon fill="white" stroke="#666666" points="789,-261 654,-261 654,-231 789,-231 789,-261"/>
<text text-anchor="start" x="662" y="-249" font-family="Helvetica,sans-Serif" font-size="10.00">amr&#45;wind/core/vs/vector</text>
<text text-anchor="middle" x="721.5" y="-238" font-family="Helvetica,sans-Serif" font-size="10.00">_space.H</text>
</a>
</g>
</g>
<!-- Node3&#45;&gt;Node8 -->
<g id="edge7_Node000003_Node000008" class="edge">
<title>Node3&#45;&gt;Node8</title>
<g id="a_edge7_Node000003_Node000008"><a xlink:title=" ">
<path fill="none" stroke="#63b8ff" d="M433.55,-298.05C494.54,-287.24 581.26,-271.86 643.57,-260.82"/>
<polygon fill="#63b8ff" stroke="#63b8ff" points="644.51,-264.2 653.74,-259.01 643.28,-257.31 644.51,-264.2"/>
</a>
</g>
</g>
<!-- Node3&#45;&gt;Node19 -->
<g id="edge32_Node000003_Node000019" class="edge">
<title>Node3&#45;&gt;Node19</title>
<g id="a_edge32_Node000003_Node000019"><a xlink:title=" ">
<path fill="none" stroke="#63b8ff" d="M424.85,-296.92C474.69,-285.48 536.69,-269.83 545.5,-261 569.72,-236.74 565.5,-220.78 565.5,-186.5 565.5,-186.5 565.5,-186.5 565.5,-129.5 565.5,-93.54 574.06,-52.23 579.69,-28.96"/>
<polygon fill="#63b8ff" stroke="#63b8ff" points="583.13,-29.64 582.17,-19.09 576.34,-27.93 583.13,-29.64"/>
</a>
</g>
</g>
<!-- Node20 -->
<g id="Node000020" class="node">
<title>Node20</title>
<g id="a_Node000020"><a xlink:title=" ">
<polygon fill="#e0e0e0" stroke="#999999" points="423.5,-255.5 315.5,-255.5 315.5,-236.5 423.5,-236.5 423.5,-255.5"/>
<text text-anchor="middle" x="369.5" y="-243.5" font-family="Helvetica,sans-Serif" font-size="10.00">AMReX_RealBox.H</text>
</a>
</g>
</g>
<!-- Node3&#45;&gt;Node20 -->
<g id="edge29_Node000003_Node000020" class="edge">
<title>Node3&#45;&gt;Node20</title>
<g id="a_edge29_Node000003_Node000020"><a xlink:title=" ">
<path fill="none" stroke="#63b8ff" d="M362.5,-296.8C363.78,-287.7 365.45,-275.79 366.84,-265.9"/>
<polygon fill="#63b8ff" stroke="#63b8ff" points="370.33,-266.23 368.26,-255.84 363.4,-265.26 370.33,-266.23"/>
</a>
</g>
</g>
<!-- Node21 -->
<g id="Node000021" class="node">
<title>Node21</title>
<g id="a_Node000021"><a xlink:title=" ">
<polygon fill="#e0e0e0" stroke="#999999" points="473.5,-255.5 441.5,-255.5 441.5,-236.5 473.5,-236.5 473.5,-255.5"/>
<text text-anchor="middle" x="457.5" y="-243.5" font-family="Helvetica,sans-Serif" font-size="10.00">set</text>
</a>
</g>
</g>
<!-- Node3&#45;&gt;Node21 -->
<g id="edge30_Node000003_Node000021" class="edge">
<title>Node3&#45;&gt;Node21</title>
<g id="a_edge30_Node000003_Node000021"><a xlink:title=" ">
<path fill="none" stroke="#63b8ff" d="M382.03,-296.8C397.98,-286.27 419.65,-271.97 435.68,-261.4"/>
<polygon fill="#63b8ff" stroke="#63b8ff" points="437.96,-264.09 444.38,-255.66 434.1,-258.24 437.96,-264.09"/>
</a>
</g>
</g>
<!-- Node22 -->
<g id="Node000022" class="node">
<title>Node22</title>
<g id="a_Node000022"><a xlink:title=" ">
<polygon fill="#e0e0e0" stroke="#999999" points="537,-255.5 492,-255.5 492,-236.5 537,-236.5 537,-255.5"/>
<text text-anchor="middle" x="514.5" y="-243.5" font-family="Helvetica,sans-Serif" font-size="10.00">utility</text>
</a>
</g>
</g>
<!-- Node3&#45;&gt;Node22 -->
<g id="edge31_Node000003_Node000022" class="edge">
<title>Node3&#45;&gt;Node22</title>
<g id="a_edge31_Node000003_Node000022"><a xlink:title=" ">
<path fill="none" stroke="#63b8ff" d="M395.3,-296.99C419.75,-287.08 453.2,-273.41 482.5,-261 483.66,-260.51 484.85,-260 486.04,-259.49"/>
<polygon fill="#63b8ff" stroke="#63b8ff" points="487.45,-262.69 495.24,-255.51 484.67,-256.27 487.45,-262.69"/>
</a>
</g>
</g>
<!-- Node5 -->
<g id="Node000005" class="node">
<title>Node5</title>
<g id="a_Node000005"><a xlink:title=" ">
<polygon fill="#e0e0e0" stroke="#999999" points="337,-195 284,-195 284,-176 337,-176 337,-195"/>
<text text-anchor="middle" x="310.5" y="-183" font-family="Helvetica,sans-Serif" font-size="10.00">iterator</text>
</a>
</g>
</g>
<!-- Node4&#45;&gt;Node5 -->
<g id="edge4_Node000004_Node000005" class="edge">
<title>Node4&#45;&gt;Node5</title>
<g id="a_edge4_Node000004_Node000005"><a xlink:title=" ">
<path fill="none" stroke="#63b8ff" d="M214.17,-236.37C232.78,-226.73 263.12,-211.03 284.78,-199.81"/>
<polygon fill="#63b8ff" stroke="#63b8ff" points="286.49,-202.87 293.76,-195.17 283.27,-196.66 286.49,-202.87"/>
</a>
</g>
</g>
<!-- Node6 -->
<g id="Node000006" class="node">
<title>Node6</title>
<g id="a_Node000006"><a xlink:title=" ">
<polygon fill="#e0e0e0" stroke="#999999" points="265.5,-195 167.5,-195 167.5,-176 265.5,-176 265.5,-195"/>
<text text-anchor="middle" x="216.5" y="-183" font-family="Helvetica,sans-Serif" font-size="10.00">AMReX_Vector.H</text>
</a>
</g>
</g>
<!-- Node4&#45;&gt;Node6 -->
<g id="edge5_Node000004_Node000006" class="edge">
<title>Node4&#45;&gt;Node6</title>
<g id="a_edge5_Node000004_Node000006"><a xlink:title=" ">
<path fill="none" stroke="#63b8ff" d="M200.3,-236.37C203,-228.07 207.15,-215.28 210.58,-204.72"/>
<polygon fill="#63b8ff" stroke="#63b8ff" points="213.92,-205.76 213.68,-195.17 207.27,-203.6 213.92,-205.76"/>
</a>
</g>
</g>
<!-- Node4&#45;&gt;Node7 -->
<g id="edge6_Node000004_Node000007" class="edge">
<title>Node4&#45;&gt;Node7</title>
<g id="a_edge6_Node000004_Node000007"><a xlink:title=" ">
<path fill="none" stroke="#63b8ff" d="M186.32,-236.32C170.95,-223.27 146.48,-197.81 158.5,-176 205.98,-89.86 319.26,-42.34 380.15,-22.22"/>
<polygon fill="#63b8ff" stroke="#63b8ff" points="381.37,-25.51 389.81,-19.11 379.22,-18.84 381.37,-25.51"/>
</a>
</g>
</g>
<!-- Node9 -->
<g id="Node000009" class="node">
<title>Node9</title>
<g id="a_Node000009"><a xlink:href="vector_8_h.html" target="_top" xlink:title=" ">
<polygon fill="white" stroke="#666666" points="1019,-140 874,-140 874,-121 1019,-121 1019,-140"/>
<text text-anchor="middle" x="946.5" y="-128" font-family="Helvetica,sans-Serif" font-size="10.00">amr&#45;wind/core/vs/vector.H</text>
</a>
</g>
</g>
<!-- Node8&#45;&gt;Node9 -->
<g id="edge8_Node000008_Node000009" class="edge">
<title>Node8&#45;&gt;Node9</title>
<g id="a_edge8_Node000008_Node000009"><a xlink:title=" ">
<path fill="none" stroke="#63b8ff" d="M751.67,-230.84C772.51,-220.97 800.8,-207.42 825.5,-195 859,-178.16 897.24,-157.92 921.62,-144.89"/>
<polygon fill="#63b8ff" stroke="#63b8ff" points="923.38,-147.91 930.54,-140.1 920.08,-141.74 923.38,-147.91"/>
</a>
</g>
</g>
<!-- Node15 -->
<g id="Node000015" class="node">
<title>Node15</title>
<g id="a_Node000015"><a xlink:href="tensor_8_h.html" target="_top" xlink:title=" ">
<polygon fill="white" stroke="#666666" points="816,-195 671,-195 671,-176 816,-176 816,-195"/>
<text text-anchor="middle" x="743.5" y="-183" font-family="Helvetica,sans-Serif" font-size="10.00">amr&#45;wind/core/vs/tensor.H</text>
</a>
</g>
</g>
<!-- Node8&#45;&gt;Node15 -->
<g id="edge16_Node000008_Node000015" class="edge">
<title>Node8&#45;&gt;Node15</title>
<g id="a_edge16_Node000008_Node000015"><a xlink:title=" ">
<path fill="none" stroke="#63b8ff" d="M726.83,-230.84C729.76,-223.04 733.43,-213.27 736.58,-204.89"/>
<polygon fill="#63b8ff" stroke="#63b8ff" points="739.96,-205.86 740.2,-195.27 733.41,-203.39 739.96,-205.86"/>
</a>
</g>
</g>
<!-- Node9&#45;&gt;Node7 -->
<g id="edge9_Node000009_Node000007" class="edge">
<title>Node9&#45;&gt;Node7</title>
<g id="a_edge9_Node000009_Node000007"><a xlink:title=" ">
<path fill="none" stroke="#63b8ff" d="M873.95,-121.2C815.8,-113.83 732.34,-101.64 660.5,-85 585.27,-67.57 499.33,-38.62 453.46,-22.42"/>
<polygon fill="#63b8ff" stroke="#63b8ff" points="454.62,-19.12 444.03,-19.07 452.28,-25.72 454.62,-19.12"/>
</a>
</g>
</g>
<!-- Node10 -->
<g id="Node000010" class="node">
<title>Node10</title>
<g id="a_Node000010"><a xlink:href="vstraits_8_h.html" target="_top" xlink:title=" ">
<polygon fill="white" stroke="#666666" points="981.5,-79.5 829.5,-79.5 829.5,-60.5 981.5,-60.5 981.5,-79.5"/>
<text text-anchor="middle" x="905.5" y="-67.5" font-family="Helvetica,sans-Serif" font-size="10.00">amr&#45;wind/core/vs/vstraits.H</text>
</a>
</g>
</g>
<!-- Node9&#45;&gt;Node10 -->
<g id="edge10_Node000009_Node000010" class="edge">
<title>Node9&#45;&gt;Node10</title>
<g id="a_edge10_Node000009_Node000010"><a xlink:title=" ">
<path fill="none" stroke="#63b8ff" d="M940.45,-120.87C934.39,-112.23 924.91,-98.7 917.36,-87.92"/>
<polygon fill="#63b8ff" stroke="#63b8ff" points="920.18,-85.85 911.57,-79.67 914.45,-89.87 920.18,-85.85"/>
</a>
</g>
</g>
<!-- Node12 -->
<g id="Node000012" class="node">
<title>Node12</title>
<g id="a_Node000012"><a xlink:href="vector_i_8_h.html" target="_top" xlink:title=" ">
<polygon fill="white" stroke="#666666" points="1149,-79.5 1000,-79.5 1000,-60.5 1149,-60.5 1149,-79.5"/>
<text text-anchor="middle" x="1074.5" y="-67.5" font-family="Helvetica,sans-Serif" font-size="10.00">amr&#45;wind/core/vs/vectorI.H</text>
</a>
</g>
</g>
<!-- Node9&#45;&gt;Node12 -->
<g id="edge12_Node000009_Node000012" class="edge">
<title>Node9&#45;&gt;Node12</title>
<g id="a_edge12_Node000009_Node000012"><a xlink:title=" ">
<path fill="none" stroke="#63b8ff" d="M960.43,-120.87C979.86,-111.02 1015.06,-94.82 1041.34,-83.57"/>
<polygon fill="#63b8ff" stroke="#63b8ff" points="1042.72,-86.78 1050.57,-79.67 1040,-80.34 1042.72,-86.78"/>
</a>
</g>
</g>
<!-- Node11 -->
<g id="Node000011" class="node">
<title>Node11</title>
<g id="a_Node000011"><a xlink:title=" ">
<polygon fill="#e0e0e0" stroke="#999999" points="927.5,-19 883.5,-19 883.5,0 927.5,0 927.5,-19"/>
<text text-anchor="middle" x="905.5" y="-7" font-family="Helvetica,sans-Serif" font-size="10.00">limits</text>
</a>
</g>
</g>
<!-- Node10&#45;&gt;Node11 -->
<g id="edge11_Node000010_Node000011" class="edge">
<title>Node10&#45;&gt;Node11</title>
<g id="a_edge11_Node000010_Node000011"><a xlink:title=" ">
<path fill="none" stroke="#63b8ff" d="M905.5,-60.37C905.5,-52.25 905.5,-39.81 905.5,-29.39"/>
<polygon fill="#63b8ff" stroke="#63b8ff" points="909,-29.17 905.5,-19.17 902,-29.17 909,-29.17"/>
</a>
</g>
</g>
<!-- Node12&#45;&gt;Node9 -->
<g id="edge15_Node000012_Node000009" class="edge">
<title>Node12&#45;&gt;Node9</title>
<g id="a_edge15_Node000012_Node000009"><a xlink:title=" ">
<path fill="none" stroke="#63b8ff" d="M1060.8,-79.52C1041.33,-89.4 1005.73,-105.78 979.31,-117.08"/>
<polygon fill="#63b8ff" stroke="#63b8ff" points="977.89,-113.88 970.04,-120.99 980.61,-120.33 977.89,-113.88"/>
</a>
</g>
</g>
<!-- Node13 -->
<g id="Node000013" class="node">
<title>Node13</title>
<g id="a_Node000013"><a xlink:title=" ">
<polygon fill="#e0e0e0" stroke="#999999" points="1103,-19 1046,-19 1046,0 1103,0 1103,-19"/>
<text text-anchor="middle" x="1074.5" y="-7" font-family="Helvetica,sans-Serif" font-size="10.00">ostream</text>
</a>
</g>
</g>
<!-- Node12&#45;&gt;Node13 -->
<g id="edge13_Node000012_Node000013" class="edge">
<title>Node12&#45;&gt;Node13</title>
<g id="a_edge13_Node000012_Node000013"><a xlink:title=" ">
<path fill="none" stroke="#63b8ff" d="M1074.5,-60.37C1074.5,-52.25 1074.5,-39.81 1074.5,-29.39"/>
<polygon fill="#63b8ff" stroke="#63b8ff" points="1078,-29.17 1074.5,-19.17 1071,-29.17 1078,-29.17"/>
</a>
</g>
</g>
<!-- Node14 -->
<g id="Node000014" class="node">
<title>Node14</title>
<g id="a_Node000014"><a xlink:title=" ">
<polygon fill="#e0e0e0" stroke="#999999" points="825,-19 778,-19 778,0 825,0 825,-19"/>
<text text-anchor="middle" x="801.5" y="-7" font-family="Helvetica,sans-Serif" font-size="10.00">cmath</text>
</a>
</g>
</g>
<!-- Node12&#45;&gt;Node14 -->
<g id="edge14_Node000012_Node000014" class="edge">
<title>Node12&#45;&gt;Node14</title>
<g id="a_edge14_Node000012_Node000014"><a xlink:title=" ">
<path fill="none" stroke="#63b8ff" d="M1034.8,-60.49C980.96,-48.96 885.71,-28.55 835.18,-17.72"/>
<polygon fill="#63b8ff" stroke="#63b8ff" points="835.61,-14.23 825.1,-15.56 834.15,-21.08 835.61,-14.23"/>
</a>
</g>
</g>
<!-- Node15&#45;&gt;Node7 -->
<g id="edge17_Node000015_Node000007" class="edge">
<title>Node15&#45;&gt;Node7</title>
<g id="a_edge17_Node000015_Node000007"><a xlink:title=" ">
<path fill="none" stroke="#63b8ff" d="M726.33,-175.97C692.45,-159.07 614.74,-119.95 550.5,-85 512.85,-64.52 469.81,-39.54 443.92,-24.34"/>
<polygon fill="#63b8ff" stroke="#63b8ff" points="445.59,-21.26 435.2,-19.21 442.04,-27.29 445.59,-21.26"/>
</a>
</g>
</g>
<!-- Node15&#45;&gt;Node9 -->
<g id="edge19_Node000015_Node000009" class="edge">
<title>Node15&#45;&gt;Node9</title>
<g id="a_edge19_Node000015_Node000009"><a xlink:title=" ">
<path fill="none" stroke="#63b8ff" d="M776.12,-175.98C810.79,-166.93 865.76,-152.58 903.85,-142.64"/>
<polygon fill="#63b8ff" stroke="#63b8ff" points="904.84,-145.99 913.63,-140.08 903.07,-139.22 904.84,-145.99"/>
</a>
</g>
</g>
<!-- Node15&#45;&gt;Node10 -->
<g id="edge18_Node000015_Node000010" class="edge">
<title>Node15&#45;&gt;Node10</title>
<g id="a_edge18_Node000015_Node000010"><a xlink:title=" ">
<path fill="none" stroke="#63b8ff" d="M762.33,-175.92C779.63,-167.69 805.66,-154.41 826.5,-140 849.97,-123.77 874.3,-101.56 889.65,-86.77"/>
<polygon fill="#63b8ff" stroke="#63b8ff" points="892.1,-89.27 896.81,-79.78 887.21,-84.26 892.1,-89.27"/>
</a>
</g>
</g>
<!-- Node16 -->
<g id="Node000016" class="node">
<title>Node16</title>
<g id="a_Node000016"><a xlink:href="tensor_i_8_h.html" target="_top" xlink:title=" ">
<polygon fill="white" stroke="#666666" points="818,-140 669,-140 669,-121 818,-121 818,-140"/>
<text text-anchor="middle" x="743.5" y="-128" font-family="Helvetica,sans-Serif" font-size="10.00">amr&#45;wind/core/vs/tensorI.H</text>
</a>
</g>
</g>
<!-- Node15&#45;&gt;Node16 -->
<g id="edge20_Node000015_Node000016" class="edge">
<title>Node15&#45;&gt;Node16</title>
<g id="a_edge20_Node000015_Node000016"><a xlink:title=" ">
<path fill="none" stroke="#63b8ff" d="M738.33,-175.75C736.84,-168.8 736.4,-158.85 737.02,-150.13"/>
<polygon fill="#63b8ff" stroke="#63b8ff" points="740.51,-150.47 738.37,-140.09 733.57,-149.53 740.51,-150.47"/>
</a>
</g>
</g>
<!-- Node16&#45;&gt;Node14 -->
<g id="edge21_Node000016_Node000014" class="edge">
<title>Node16&#45;&gt;Node14</title>
<g id="a_edge21_Node000016_Node000014"><a xlink:title=" ">
<path fill="none" stroke="#63b8ff" d="M753.29,-120.93C762.18,-112.6 775.03,-99.18 782.5,-85 791.81,-67.32 796.73,-44.85 799.21,-29.23"/>
<polygon fill="#63b8ff" stroke="#63b8ff" points="802.69,-29.63 800.61,-19.24 795.75,-28.65 802.69,-29.63"/>
</a>
</g>
</g>
<!-- Node16&#45;&gt;Node15 -->
<g id="edge22_Node000016_Node000015" class="edge">
<title>Node16&#45;&gt;Node15</title>
<g id="a_edge22_Node000016_Node000015"><a xlink:title=" ">
<path fill="none" stroke="#63b8ff" d="M748.63,-140.09C750.14,-146.99 750.59,-156.93 749.99,-165.66"/>
<polygon fill="#63b8ff" stroke="#63b8ff" points="746.5,-165.38 748.67,-175.75 753.44,-166.29 746.5,-165.38"/>
</a>
</g>
</g>
<!-- Node17 -->
<g id="Node000017" class="node">
<title>Node17</title>
<g id="a_Node000017"><a xlink:href="trig__ops_8_h.html" target="_top" xlink:title=" ">
<polygon fill="white" stroke="#666666" points="773,-85 670,-85 670,-55 773,-55 773,-85"/>
<text text-anchor="start" x="678" y="-73" font-family="Helvetica,sans-Serif" font-size="10.00">amr&#45;wind/utilities</text>
<text text-anchor="middle" x="721.5" y="-62" font-family="Helvetica,sans-Serif" font-size="10.00">/trig_ops.H</text>
</a>
</g>
</g>
<!-- Node16&#45;&gt;Node17 -->
<g id="edge23_Node000016_Node000017" class="edge">
<title>Node16&#45;&gt;Node17</title>
<g id="a_edge23_Node000016_Node000017"><a xlink:title=" ">
<path fill="none" stroke="#63b8ff" d="M740.25,-120.87C737.66,-113.96 733.88,-103.93 730.4,-94.67"/>
<polygon fill="#63b8ff" stroke="#63b8ff" points="733.6,-93.24 726.81,-85.11 727.05,-95.71 733.6,-93.24"/>
</a>
</g>
</g>
<!-- Node17&#45;&gt;Node7 -->
<g id="edge27_Node000017_Node000007" class="edge">
<title>Node17&#45;&gt;Node7</title>
<g id="a_edge27_Node000017_Node000007"><a xlink:title=" ">
<path fill="none" stroke="#63b8ff" d="M670,-57.96C665.1,-56.95 660.21,-55.95 655.5,-55 593.49,-42.55 522.07,-29.16 474.4,-20.36"/>
<polygon fill="#63b8ff" stroke="#63b8ff" points="474.77,-16.87 464.3,-18.5 473.5,-23.75 474.77,-16.87"/>
</a>
</g>
</g>
<!-- Node17&#45;&gt;Node14 -->
<g id="edge24_Node000017_Node000014" class="edge">
<title>Node17&#45;&gt;Node14</title>
<g id="a_edge24_Node000017_Node000014"><a xlink:title=" ">
<path fill="none" stroke="#63b8ff" d="M740.87,-54.84C753.07,-45.91 768.81,-34.41 781.19,-25.35"/>
<polygon fill="#63b8ff" stroke="#63b8ff" points="783.51,-27.99 789.51,-19.27 779.37,-22.34 783.51,-27.99"/>
</a>
</g>
</g>
<!-- Node18 -->
<g id="Node000018" class="node">
<title>Node18</title>
<g id="a_Node000018"><a xlink:title=" ">
<polygon fill="#e0e0e0" stroke="#999999" points="751,-19 692,-19 692,0 751,0 751,-19"/>
<text text-anchor="middle" x="721.5" y="-7" font-family="Helvetica,sans-Serif" font-size="10.00">numbers</text>
</a>
</g>
</g>
<!-- Node17&#45;&gt;Node18 -->
<g id="edge25_Node000017_Node000018" class="edge">
<title>Node17&#45;&gt;Node18</title>
<g id="a_edge25_Node000017_Node000018"><a xlink:title=" ">
<path fill="none" stroke="#63b8ff" d="M721.5,-54.84C721.5,-47.21 721.5,-37.7 721.5,-29.45"/>
<polygon fill="#63b8ff" stroke="#63b8ff" points="725,-29.27 721.5,-19.27 718,-29.27 725,-29.27"/>
</a>
</g>
</g>
<!-- Node17&#45;&gt;Node19 -->
<g id="edge26_Node000017_Node000019" class="edge">
<title>Node17&#45;&gt;Node19</title>
<g id="a_edge26_Node000017_Node000019"><a xlink:title=" ">
<path fill="none" stroke="#63b8ff" d="M688.69,-54.99C666.03,-45.31 636.15,-32.56 614.2,-23.18"/>
<polygon fill="#63b8ff" stroke="#63b8ff" points="615.3,-19.85 604.73,-19.14 612.55,-26.29 615.3,-19.85"/>
</a>
</g>
</g>
<!-- Node25&#45;&gt;Node2 -->
<g id="edge37_Node000025_Node000002" class="edge">
<title>Node25&#45;&gt;Node2</title>
<g id="a_edge37_Node000025_Node000002"><a xlink:title=" ">
<path fill="none" stroke="#63b8ff" d="M679.51,-327.01C656.57,-336.51 624.55,-349.14 597.63,-359.32"/>
<polygon fill="#63b8ff" stroke="#63b8ff" points="596.1,-356.16 587.97,-362.95 598.56,-362.71 596.1,-356.16"/>
</a>
</g>
</g>
<!-- Node26 -->
<g id="Node000026" class="node">
<title>Node26</title>
<g id="a_Node000026"><a xlink:title=" ">
<polygon fill="#e0e0e0" stroke="#999999" points="851.5,-255.5 807.5,-255.5 807.5,-236.5 851.5,-236.5 851.5,-255.5"/>
<text text-anchor="middle" x="829.5" y="-243.5" font-family="Helvetica,sans-Serif" font-size="10.00">string</text>
</a>
</g>
</g>
<!-- Node25&#45;&gt;Node26 -->
<g id="edge38_Node000025_Node000026" class="edge">
<title>Node25&#45;&gt;Node26</title>
<g id="a_edge38_Node000025_Node000026"><a xlink:title=" ">
<path fill="none" stroke="#63b8ff" d="M735.83,-296.95C756.32,-286.03 784.56,-270.97 804.66,-260.25"/>
<polygon fill="#63b8ff" stroke="#63b8ff" points="806.35,-263.31 813.53,-255.52 803.06,-257.14 806.35,-263.31"/>
</a>
</g>
</g>
<!-- Node27&#45;&gt;Node7 -->
<g id="edge40_Node000027_Node000007" class="edge">
<title>Node27&#45;&gt;Node7</title>
<g id="a_edge40_Node000027_Node000007"><a xlink:title=" ">
<path fill="none" stroke="#63b8ff" d="M125.09,-57.5C129.97,-56.64 134.81,-55.8 139.5,-55 218.35,-41.59 309.87,-27.34 366.49,-18.68"/>
<polygon fill="#63b8ff" stroke="#63b8ff" points="367.29,-22.1 376.64,-17.13 366.23,-15.18 367.29,-22.1"/>
</a>
</g>
</g>
<!-- Node27&#45;&gt;Node19 -->
<g id="edge41_Node000027_Node000019" class="edge">
<title>Node27&#45;&gt;Node19</title>
<g id="a_edge41_Node000027_Node000019"><a xlink:title=" ">
<path fill="none" stroke="#63b8ff" d="M125.21,-61.97C227.9,-50.46 430.3,-27.78 528.47,-16.78"/>
<polygon fill="#63b8ff" stroke="#63b8ff" points="528.95,-20.25 538.5,-15.66 528.17,-13.29 528.95,-20.25"/>
</a>
</g>
</g>
<!-- Node28 -->
<g id="Node000028" class="node">
<title>Node28</title>
<g id="a_Node000028"><a xlink:title=" ">
<polygon fill="#e0e0e0" stroke="#999999" points="120.5,-19 4.5,-19 4.5,0 120.5,0 120.5,-19"/>
<text text-anchor="middle" x="62.5" y="-7" font-family="Helvetica,sans-Serif" font-size="10.00">AMReX_Extension.H</text>
</a>
</g>
</g>
<!-- Node27&#45;&gt;Node28 -->
<g id="edge42_Node000027_Node000028" class="edge">
<title>Node27&#45;&gt;Node28</title>
<g id="a_edge42_Node000027_Node000028"><a xlink:title=" ">
<path fill="none" stroke="#63b8ff" d="M62.5,-54.84C62.5,-47.21 62.5,-37.7 62.5,-29.45"/>
<polygon fill="#63b8ff" stroke="#63b8ff" points="66,-29.27 62.5,-19.27 59,-29.27 66,-29.27"/>
</a>
</g>
</g>
</g>
</svg>

<g id="navigator" transform="translate(0 0)" fill="#404254">
  <rect fill="#f2f5e9" fill-opacity="0.5" stroke="#606060" stroke-width=".5" x="0" y="0" width="60" height="60"/>
  <use id="zoomplus" xlink:href="#zoomPlus" x="17" y="9" onmousedown="handleZoom(evt,'in')"/>
  <use id="zoomminus" xlink:href="#zoomMin" x="42" y="9" onmousedown="handleZoom(evt,'out')"/>
  <use id="reset" xlink:href="#resetDef" x="30" y="36" onmousedown="handleReset()"/>
   <use id="arrowup" xlink:href="#arrowUp" x="0" y="0" onmousedown="handlePan(0,-1)"/>
  <use id="arrowright" xlink:href="#arrowRight" x="0" y="0" onmousedown="handlePan(1,0)"/>
  <use id="arrowdown" xlink:href="#arrowDown" x="0" y="0" onmousedown="handlePan(0,1)"/>
  <use id="arrowleft" xlink:href="#arrowLeft" x="0" y="0" onmousedown="handlePan(-1,0)"/>
</g>
<svg viewBox="0 0 15 15" width="100%" height="30px" preserveAspectRatio="xMaxYMin meet">
 <g id="arrow_out" transform="scale(0.3 0.3)">
  <a xlink:href="_airfoil_table_8cpp__incl_org.svg" target="_base">
   <rect id="button" ry="5" rx="5" y="6" x="6" height="38" width="38"
        fill="#f2f5e9" fill-opacity="0.5" stroke="#606060" stroke-width="1.0"/>
   <path id="arrow"
     d="M 11.500037,31.436501 C 11.940474,20.09759 22.043105,11.32322 32.158766,21.979434 L 37.068811,17.246167 C 37.068811,17.246167 37.088388,32 37.088388,32 L 22.160133,31.978069 C 22.160133,31.978069 26.997745,27.140456 26.997745,27.140456 C 18.528582,18.264221 13.291696,25.230495 11.500037,31.436501 z"
     style="fill:#404040;"/>
  </a>
 </g>
</svg>

<style type='text/css'>
<![CDATA[
[data-mouse-over-selected='false'] { opacity: 0.7; }
[data-mouse-over-selected='true']  { opacity: 1.0; }
]]>
</style>
<script type="application/ecmascript"><![CDATA[
document.addEventListener('DOMContentLoaded', (event) => {
  highlightEdges();
  highlightAdjacentNodes();
});
]]></script>
</svg>
