<?xml version="1.0" encoding="UTF-8" standalone="no"?>
<!DOCTYPE svg PUBLIC "-//W3C//DTD SVG 1.1//EN"
 "http://www.w3.org/Graphics/SVG/1.1/DTD/svg11.dtd">
<!-- Generated by graphviz version 2.43.0 (0)
 -->
<!-- Title: /home/runner/work/amr&#45;wind/amr&#45;wind/amr&#45;wind/boundary_conditions/BCInterface.H Pages: 1 -->
<svg width="902pt" height="214pt"
 viewBox="0.00 0.00 902.21 214.00" xmlns="http://www.w3.org/2000/svg" xmlns:xlink="http://www.w3.org/1999/xlink">
<g id="graph0" class="graph" transform="scale(1 1) rotate(0) translate(4 210)">
<title>/home/runner/work/amr&#45;wind/amr&#45;wind/amr&#45;wind/boundary_conditions/BCInterface.H</title>
<!-- Node1 -->
<g id="Node000001" class="node">
<title>Node1</title>
<g id="a_Node000001"><a xlink:title=" ">
<polygon fill="#999999" stroke="#666666" points="819.21,-206 628.21,-206 628.21,-165 819.21,-165 819.21,-206"/>
<text text-anchor="start" x="636.21" y="-194" font-family="Helvetica,sans-Serif" font-size="10.00">/home/runner/work/amr</text>
<text text-anchor="start" x="636.21" y="-183" font-family="Helvetica,sans-Serif" font-size="10.00">&#45;wind/amr&#45;wind/amr&#45;wind</text>
<text text-anchor="middle" x="723.71" y="-172" font-family="Helvetica,sans-Serif" font-size="10.00">/boundary_conditions/BCInterface.H</text>
</a>
</g>
</g>
<!-- Node2 -->
<g id="Node000002" class="node">
<title>Node2</title>
<g id="a_Node000002"><a xlink:href="_field_8_h.html" target="_top" xlink:title=" ">
<polygon fill="white" stroke="#666666" points="510.71,-129 386.71,-129 386.71,-110 510.71,-110 510.71,-129"/>
<text text-anchor="middle" x="448.71" y="-117" font-family="Helvetica,sans-Serif" font-size="10.00">amr&#45;wind/core/Field.H</text>
</a>
</g>
</g>
<!-- Node1&#45;&gt;Node2 -->
<g id="edge1_Node000001_Node000002" class="edge">
<title>Node1&#45;&gt;Node2</title>
<g id="a_edge1_Node000001_Node000002"><a xlink:title=" ">
<path fill="none" stroke="#63b8ff" d="M639.71,-164.95C592.19,-153.89 534.58,-140.48 495.14,-131.3"/>
<polygon fill="#63b8ff" stroke="#63b8ff" points="495.8,-127.87 485.27,-129.01 494.21,-134.68 495.8,-127.87"/>
</a>
</g>
</g>
<!-- Node10 -->
<g id="Node000010" class="node">
<title>Node10</title>
<g id="a_Node000010"><a xlink:href="incflo__enums_8_h.html" target="_top" xlink:title=" ">
<polygon fill="white" stroke="#666666" points="894.21,-74 753.21,-74 753.21,-55 894.21,-55 894.21,-74"/>
<text text-anchor="middle" x="823.71" y="-62" font-family="Helvetica,sans-Serif" font-size="10.00">amr&#45;wind/incflo_enums.H</text>
</a>
</g>
</g>
<!-- Node1&#45;&gt;Node10 -->
<g id="edge16_Node000001_Node000010" class="edge">
<title>Node1&#45;&gt;Node10</title>
<g id="a_edge16_Node000001_Node000010"><a xlink:title=" ">
<path fill="none" stroke="#63b8ff" d="M708.32,-164.69C697.97,-148.78 688.14,-126.45 699.71,-110 710.97,-93.99 728.56,-83.71 746.99,-77.12"/>
<polygon fill="#63b8ff" stroke="#63b8ff" points="748.23,-80.4 756.68,-74 746.08,-73.74 748.23,-80.4"/>
</a>
</g>
</g>
<!-- Node14 -->
<g id="Node000014" class="node">
<title>Node14</title>
<g id="a_Node000014"><a xlink:title=" ">
<polygon fill="#e0e0e0" stroke="#999999" points="824.71,-129 708.71,-129 708.71,-110 824.71,-110 824.71,-129"/>
<text text-anchor="middle" x="766.71" y="-117" font-family="Helvetica,sans-Serif" font-size="10.00">AMReX_BC_TYPES.H</text>
</a>
</g>
</g>
<!-- Node1&#45;&gt;Node14 -->
<g id="edge17_Node000001_Node000014" class="edge">
<title>Node1&#45;&gt;Node14</title>
<g id="a_edge17_Node000001_Node000014"><a xlink:title=" ">
<path fill="none" stroke="#63b8ff" d="M736.84,-164.95C742.66,-156.3 749.44,-146.2 755.07,-137.82"/>
<polygon fill="#63b8ff" stroke="#63b8ff" points="758.15,-139.51 760.82,-129.26 752.34,-135.61 758.15,-139.51"/>
</a>
</g>
</g>
<!-- Node15 -->
<g id="Node000015" class="node">
<title>Node15</title>
<g id="a_Node000015"><a xlink:title=" ">
<polygon fill="#e0e0e0" stroke="#999999" points="888.21,-129 843.21,-129 843.21,-110 888.21,-110 888.21,-129"/>
<text text-anchor="middle" x="865.71" y="-117" font-family="Helvetica,sans-Serif" font-size="10.00">utility</text>
</a>
</g>
</g>
<!-- Node1&#45;&gt;Node15 -->
<g id="edge18_Node000001_Node000015" class="edge">
<title>Node1&#45;&gt;Node15</title>
<g id="a_edge18_Node000001_Node000015"><a xlink:title=" ">
<path fill="none" stroke="#63b8ff" d="M767.08,-164.95C789.93,-154.65 817.31,-142.31 837.41,-133.25"/>
<polygon fill="#63b8ff" stroke="#63b8ff" points="838.97,-136.39 846.65,-129.09 836.09,-130.01 838.97,-136.39"/>
</a>
</g>
</g>
<!-- Node3 -->
<g id="Node000003" class="node">
<title>Node3</title>
<g id="a_Node000003"><a xlink:title=" ">
<polygon fill="#e0e0e0" stroke="#999999" points="203.71,-19 159.71,-19 159.71,0 203.71,0 203.71,-19"/>
<text text-anchor="middle" x="181.71" y="-7" font-family="Helvetica,sans-Serif" font-size="10.00">string</text>
</a>
</g>
</g>
<!-- Node2&#45;&gt;Node3 -->
<g id="edge2_Node000002_Node000003" class="edge">
<title>Node2&#45;&gt;Node3</title>
<g id="a_edge2_Node000002_Node000003"><a xlink:title=" ">
<path fill="none" stroke="#63b8ff" d="M386.4,-116.73C271.02,-112.82 33.55,-101.48 8.71,-74 -32.99,-27.88 88.31,-15.19 149.17,-11.75"/>
<polygon fill="#63b8ff" stroke="#63b8ff" points="149.62,-15.23 159.43,-11.23 149.26,-8.24 149.62,-15.23"/>
</a>
</g>
</g>
<!-- Node4 -->
<g id="Node000004" class="node">
<title>Node4</title>
<g id="a_Node000004"><a xlink:title=" ">
<polygon fill="#e0e0e0" stroke="#999999" points="75.71,-74 17.71,-74 17.71,-55 75.71,-55 75.71,-74"/>
<text text-anchor="middle" x="46.71" y="-62" font-family="Helvetica,sans-Serif" font-size="10.00">memory</text>
</a>
</g>
</g>
<!-- Node2&#45;&gt;Node4 -->
<g id="edge3_Node000002_Node000004" class="edge">
<title>Node2&#45;&gt;Node4</title>
<g id="a_edge3_Node000002_Node000004"><a xlink:title=" ">
<path fill="none" stroke="#63b8ff" d="M386.61,-112.79C316.06,-105.88 197.32,-92.97 86.15,-74.1"/>
<polygon fill="#63b8ff" stroke="#63b8ff" points="86.56,-70.62 76.11,-72.38 85.37,-77.52 86.56,-70.62"/>
</a>
</g>
</g>
<!-- Node5 -->
<g id="Node000005" class="node">
<title>Node5</title>
<g id="a_Node000005"><a xlink:title=" ">
<polygon fill="#e0e0e0" stroke="#999999" points="187.21,-74 94.21,-74 94.21,-55 187.21,-55 187.21,-74"/>
<text text-anchor="middle" x="140.71" y="-62" font-family="Helvetica,sans-Serif" font-size="10.00">unordered_map</text>
</a>
</g>
</g>
<!-- Node2&#45;&gt;Node5 -->
<g id="edge4_Node000002_Node000005" class="edge">
<title>Node2&#45;&gt;Node5</title>
<g id="a_edge4_Node000002_Node000005"><a xlink:title=" ">
<path fill="none" stroke="#63b8ff" d="M399.22,-109.98C344.12,-100.5 255.22,-85.2 197.37,-75.25"/>
<polygon fill="#63b8ff" stroke="#63b8ff" points="197.75,-71.76 187.3,-73.52 196.56,-78.66 197.75,-71.76"/>
</a>
</g>
</g>
<!-- Node6 -->
<g id="Node000006" class="node">
<title>Node6</title>
<g id="a_Node000006"><a xlink:title=" ">
<polygon fill="#e0e0e0" stroke="#999999" points="269.71,-74 205.71,-74 205.71,-55 269.71,-55 269.71,-74"/>
<text text-anchor="middle" x="237.71" y="-62" font-family="Helvetica,sans-Serif" font-size="10.00">algorithm</text>
</a>
</g>
</g>
<!-- Node2&#45;&gt;Node6 -->
<g id="edge5_Node000002_Node000006" class="edge">
<title>Node2&#45;&gt;Node6</title>
<g id="a_edge5_Node000002_Node000006"><a xlink:title=" ">
<path fill="none" stroke="#63b8ff" d="M414.81,-109.98C378.05,-100.75 319.34,-86 279.69,-76.04"/>
<polygon fill="#63b8ff" stroke="#63b8ff" points="280.35,-72.6 269.8,-73.56 278.64,-79.39 280.35,-72.6"/>
</a>
</g>
</g>
<!-- Node7 -->
<g id="Node000007" class="node">
<title>Node7</title>
<g id="a_Node000007"><a xlink:title=" ">
<polygon fill="#e0e0e0" stroke="#999999" points="639.21,-19 530.21,-19 530.21,0 639.21,0 639.21,-19"/>
<text text-anchor="middle" x="584.71" y="-7" font-family="Helvetica,sans-Serif" font-size="10.00">AMReX_MultiFab.H</text>
</a>
</g>
</g>
<!-- Node2&#45;&gt;Node7 -->
<g id="edge6_Node000002_Node000007" class="edge">
<title>Node2&#45;&gt;Node7</title>
<g id="a_edge6_Node000002_Node000007"><a xlink:title=" ">
<path fill="none" stroke="#63b8ff" d="M510.8,-114.46C568.44,-109.27 648.19,-97.88 667.71,-74 685.37,-52.39 651.83,-33.82 622.25,-22.44"/>
<polygon fill="#63b8ff" stroke="#63b8ff" points="623.44,-19.15 612.85,-19 621.04,-25.72 623.44,-19.15"/>
</a>
</g>
</g>
<!-- Node8 -->
<g id="Node000008" class="node">
<title>Node8</title>
<g id="a_Node000008"><a xlink:title=" ">
<polygon fill="#e0e0e0" stroke="#999999" points="387.21,-74 288.21,-74 288.21,-55 387.21,-55 387.21,-74"/>
<text text-anchor="middle" x="337.71" y="-62" font-family="Helvetica,sans-Serif" font-size="10.00">AMReX_BCRec.H</text>
</a>
</g>
</g>
<!-- Node2&#45;&gt;Node8 -->
<g id="edge7_Node000002_Node000008" class="edge">
<title>Node2&#45;&gt;Node8</title>
<g id="a_edge7_Node000002_Node000008"><a xlink:title=" ">
<path fill="none" stroke="#63b8ff" d="M430.87,-109.98C413.1,-101.5 385.56,-88.35 365.03,-78.54"/>
<polygon fill="#63b8ff" stroke="#63b8ff" points="366.4,-75.32 355.87,-74.17 363.38,-81.64 366.4,-75.32"/>
</a>
</g>
</g>
<!-- Node9 -->
<g id="Node000009" class="node">
<title>Node9</title>
<g id="a_Node000009"><a xlink:title=" ">
<polygon fill="#e0e0e0" stroke="#999999" points="492.21,-74 405.21,-74 405.21,-55 492.21,-55 492.21,-74"/>
<text text-anchor="middle" x="448.71" y="-62" font-family="Helvetica,sans-Serif" font-size="10.00">AMReX_Gpu.H</text>
</a>
</g>
</g>
<!-- Node2&#45;&gt;Node9 -->
<g id="edge8_Node000002_Node000009" class="edge">
<title>Node2&#45;&gt;Node9</title>
<g id="a_edge8_Node000002_Node000009"><a xlink:title=" ">
<path fill="none" stroke="#63b8ff" d="M448.71,-109.75C448.71,-102.8 448.71,-92.85 448.71,-84.13"/>
<polygon fill="#63b8ff" stroke="#63b8ff" points="452.21,-84.09 448.71,-74.09 445.21,-84.09 452.21,-84.09"/>
</a>
</g>
</g>
<!-- Node2&#45;&gt;Node10 -->
<g id="edge9_Node000002_Node000010" class="edge">
<title>Node2&#45;&gt;Node10</title>
<g id="a_edge9_Node000002_Node000010"><a xlink:title=" ">
<path fill="none" stroke="#63b8ff" d="M508.96,-109.98C575.56,-100.57 682.72,-85.43 753.18,-75.47"/>
<polygon fill="#63b8ff" stroke="#63b8ff" points="753.89,-78.9 763.3,-74.04 752.91,-71.97 753.89,-78.9"/>
</a>
</g>
</g>
<!-- Node11 -->
<g id="Node000011" class="node">
<title>Node11</title>
<g id="a_Node000011"><a xlink:href="_field_desc_types_8_h.html" target="_top" xlink:title=" ">
<polygon fill="white" stroke="#666666" points="833.71,-19 657.71,-19 657.71,0 833.71,0 833.71,-19"/>
<text text-anchor="middle" x="745.71" y="-7" font-family="Helvetica,sans-Serif" font-size="10.00">amr&#45;wind/core/FieldDescTypes.H</text>
</a>
</g>
</g>
<!-- Node2&#45;&gt;Node11 -->
<g id="edge10_Node000002_Node000011" class="edge">
<title>Node2&#45;&gt;Node11</title>
<g id="a_edge10_Node000002_Node000011"><a xlink:title=" ">
<path fill="none" stroke="#63b8ff" d="M510.8,-117.07C560.51,-113.58 630.62,-103.26 684.71,-74 705.42,-62.8 723.29,-42.09 734.24,-27.37"/>
<polygon fill="#63b8ff" stroke="#63b8ff" points="737.17,-29.29 740.13,-19.11 731.47,-25.22 737.17,-29.29"/>
</a>
</g>
</g>
<!-- Node12 -->
<g id="Node000012" class="node">
<title>Node12</title>
<g id="a_Node000012"><a xlink:href="_view_field_8_h.html" target="_top" xlink:title=" ">
<polygon fill="white" stroke="#666666" points="658.71,-74 510.71,-74 510.71,-55 658.71,-55 658.71,-74"/>
<text text-anchor="middle" x="584.71" y="-62" font-family="Helvetica,sans-Serif" font-size="10.00">amr&#45;wind/core/ViewField.H</text>
</a>
</g>
</g>
<!-- Node2&#45;&gt;Node12 -->
<g id="edge11_Node000002_Node000012" class="edge">
<title>Node2&#45;&gt;Node12</title>
<g id="a_edge11_Node000002_Node000012"><a xlink:title=" ">
<path fill="none" stroke="#63b8ff" d="M470.56,-109.98C492.83,-101.3 527.61,-87.75 552.93,-77.88"/>
<polygon fill="#63b8ff" stroke="#63b8ff" points="554.41,-81.06 562.46,-74.17 551.87,-74.54 554.41,-81.06"/>
</a>
</g>
</g>
<!-- Node12&#45;&gt;Node3 -->
<g id="edge12_Node000012_Node000003" class="edge">
<title>Node12&#45;&gt;Node3</title>
<g id="a_edge12_Node000012_Node000003"><a xlink:title=" ">
<path fill="none" stroke="#63b8ff" d="M519.96,-54.98C432.7,-43.51 280.67,-23.51 214.28,-14.78"/>
<polygon fill="#63b8ff" stroke="#63b8ff" points="214.39,-11.27 204.02,-13.43 213.48,-18.21 214.39,-11.27"/>
</a>
</g>
</g>
<!-- Node12&#45;&gt;Node7 -->
<g id="edge14_Node000012_Node000007" class="edge">
<title>Node12&#45;&gt;Node7</title>
<g id="a_edge14_Node000012_Node000007"><a xlink:title=" ">
<path fill="none" stroke="#63b8ff" d="M584.71,-54.75C584.71,-47.8 584.71,-37.85 584.71,-29.13"/>
<polygon fill="#63b8ff" stroke="#63b8ff" points="588.21,-29.09 584.71,-19.09 581.21,-29.09 588.21,-29.09"/>
</a>
</g>
</g>
<!-- Node12&#45;&gt;Node11 -->
<g id="edge13_Node000012_Node000011" class="edge">
<title>Node12&#45;&gt;Node11</title>
<g id="a_edge13_Node000012_Node000011"><a xlink:title=" ">
<path fill="none" stroke="#63b8ff" d="M610.58,-54.98C637.49,-46.13 679.83,-32.19 709.94,-22.28"/>
<polygon fill="#63b8ff" stroke="#63b8ff" points="711.23,-25.53 719.64,-19.08 709.05,-18.88 711.23,-25.53"/>
</a>
</g>
</g>
<!-- Node13 -->
<g id="Node000013" class="node">
<title>Node13</title>
<g id="a_Node000013"><a xlink:title=" ">
<polygon fill="#e0e0e0" stroke="#999999" points="511.71,-19 413.71,-19 413.71,0 511.71,0 511.71,-19"/>
<text text-anchor="middle" x="462.71" y="-7" font-family="Helvetica,sans-Serif" font-size="10.00">AMReX_Vector.H</text>
</a>
</g>
</g>
<!-- Node12&#45;&gt;Node13 -->
<g id="edge15_Node000012_Node000013" class="edge">
<title>Node12&#45;&gt;Node13</title>
<g id="a_edge15_Node000012_Node000013"><a xlink:title=" ">
<path fill="none" stroke="#63b8ff" d="M565.11,-54.98C545.39,-46.42 514.76,-33.11 492.13,-23.28"/>
<polygon fill="#63b8ff" stroke="#63b8ff" points="493.23,-19.94 482.67,-19.17 490.44,-26.37 493.23,-19.94"/>
</a>
</g>
</g>
</g>
</svg>
