<?xml version="1.0" encoding="UTF-8" standalone="no"?>
<!DOCTYPE svg PUBLIC "-//W3C//DTD SVG 1.1//EN"
 "http://www.w3.org/Graphics/SVG/1.1/DTD/svg11.dtd">
<!-- Generated by graphviz version 2.43.0 (0)
 -->
<!-- Title: /home/runner/work/amr&#45;wind/amr&#45;wind/amr&#45;wind/physics/BoussinesqBubbleFieldInit.cpp Pages: 1 -->
<svg width="788pt" height="181pt"
 viewBox="0.00 0.00 787.50 181.00" xmlns="http://www.w3.org/2000/svg" xmlns:xlink="http://www.w3.org/1999/xlink">
<g id="graph0" class="graph" transform="scale(1 1) rotate(0) translate(4 177)">
<title>/home/runner/work/amr&#45;wind/amr&#45;wind/amr&#45;wind/physics/BoussinesqBubbleFieldInit.cpp</title>
<!-- Node1 -->
<g id="Node000001" class="node">
<title>Node1</title>
<g id="a_Node000001"><a xlink:title=" ">
<polygon fill="#999999" stroke="#666666" points="591,-173 419,-173 419,-121 591,-121 591,-173"/>
<text text-anchor="start" x="427" y="-161" font-family="Helvetica,sans-Serif" font-size="10.00">/home/runner/work/amr</text>
<text text-anchor="start" x="427" y="-150" font-family="Helvetica,sans-Serif" font-size="10.00">&#45;wind/amr&#45;wind/amr&#45;wind</text>
<text text-anchor="start" x="427" y="-139" font-family="Helvetica,sans-Serif" font-size="10.00">/physics/BoussinesqBubbleField</text>
<text text-anchor="middle" x="505" y="-128" font-family="Helvetica,sans-Serif" font-size="10.00">Init.cpp</text>
</a>
</g>
</g>
<!-- Node2 -->
<g id="Node000002" class="node">
<title>Node2</title>
<g id="a_Node000002"><a xlink:title=" ">
<polygon fill="#e0e0e0" stroke="#999999" points="352.5,-79.5 305.5,-79.5 305.5,-60.5 352.5,-60.5 352.5,-79.5"/>
<text text-anchor="middle" x="329" y="-67.5" font-family="Helvetica,sans-Serif" font-size="10.00">cmath</text>
</a>
</g>
</g>
<!-- Node1&#45;&gt;Node2 -->
<g id="edge1_Node000001_Node000002" class="edge">
<title>Node1&#45;&gt;Node2</title>
<g id="a_edge1_Node000001_Node000002"><a xlink:title=" ">
<path fill="none" stroke="#63b8ff" d="M445.38,-120.93C419.43,-109.97 388.68,-96.92 361,-85 360,-84.57 358.98,-84.13 357.95,-83.68"/>
<polygon fill="#63b8ff" stroke="#63b8ff" points="359.18,-80.4 348.62,-79.62 356.39,-86.82 359.18,-80.4"/>
</a>
</g>
</g>
<!-- Node3 -->
<g id="Node000003" class="node">
<title>Node3</title>
<g id="a_Node000003"><a xlink:href="_boussinesq_bubble_field_init_8_h.html" target="_top" xlink:title=" ">
<polygon fill="white" stroke="#666666" points="531.5,-85 370.5,-85 370.5,-55 531.5,-55 531.5,-85"/>
<text text-anchor="start" x="378.5" y="-73" font-family="Helvetica,sans-Serif" font-size="10.00">amr&#45;wind/physics/Boussinesq</text>
<text text-anchor="middle" x="451" y="-62" font-family="Helvetica,sans-Serif" font-size="10.00">BubbleFieldInit.H</text>
</a>
</g>
</g>
<!-- Node1&#45;&gt;Node3 -->
<g id="edge2_Node000001_Node000003" class="edge">
<title>Node1&#45;&gt;Node3</title>
<g id="a_edge2_Node000001_Node000003"><a xlink:title=" ">
<path fill="none" stroke="#63b8ff" d="M486.72,-120.61C480.45,-111.9 473.48,-102.22 467.37,-93.74"/>
<polygon fill="#63b8ff" stroke="#63b8ff" points="470.07,-91.5 461.39,-85.43 464.39,-95.59 470.07,-91.5"/>
</a>
</g>
</g>
<!-- Node10 -->
<g id="Node000010" class="node">
<title>Node10</title>
<g id="a_Node000010"><a xlink:title=" ">
<polygon fill="#e0e0e0" stroke="#999999" points="779.5,-19 692.5,-19 692.5,0 779.5,0 779.5,-19"/>
<text text-anchor="middle" x="736" y="-7" font-family="Helvetica,sans-Serif" font-size="10.00">AMReX_Gpu.H</text>
</a>
</g>
</g>
<!-- Node1&#45;&gt;Node10 -->
<g id="edge10_Node000001_Node000010" class="edge">
<title>Node1&#45;&gt;Node10</title>
<g id="a_edge10_Node000001_Node000010"><a xlink:title=" ">
<path fill="none" stroke="#63b8ff" d="M519.71,-120.77C532.97,-100.17 554.31,-71.82 580,-55 597.52,-43.53 647.33,-30.37 686,-21.35"/>
<polygon fill="#63b8ff" stroke="#63b8ff" points="687.1,-24.69 696.07,-19.04 685.54,-17.87 687.1,-24.69"/>
</a>
</g>
</g>
<!-- Node11 -->
<g id="Node000011" class="node">
<title>Node11</title>
<g id="a_Node000011"><a xlink:title=" ">
<polygon fill="#e0e0e0" stroke="#999999" points="707.5,-79.5 588.5,-79.5 588.5,-60.5 707.5,-60.5 707.5,-79.5"/>
<text text-anchor="middle" x="648" y="-67.5" font-family="Helvetica,sans-Serif" font-size="10.00">AMReX_ParmParse.H</text>
</a>
</g>
</g>
<!-- Node1&#45;&gt;Node11 -->
<g id="edge11_Node000001_Node000011" class="edge">
<title>Node1&#45;&gt;Node11</title>
<g id="a_edge11_Node000001_Node000011"><a xlink:title=" ">
<path fill="none" stroke="#63b8ff" d="M553.01,-120.82C576.34,-108.59 603.41,-94.39 622.67,-84.28"/>
<polygon fill="#63b8ff" stroke="#63b8ff" points="624.48,-87.29 631.71,-79.54 621.23,-81.09 624.48,-87.29"/>
</a>
</g>
</g>
<!-- Node4 -->
<g id="Node000004" class="node">
<title>Node4</title>
<g id="a_Node000004"><a xlink:title=" ">
<polygon fill="#e0e0e0" stroke="#999999" points="92,-19 0,-19 0,0 92,0 92,-19"/>
<text text-anchor="middle" x="46" y="-7" font-family="Helvetica,sans-Serif" font-size="10.00">AMReX_Array.H</text>
</a>
</g>
</g>
<!-- Node3&#45;&gt;Node4 -->
<g id="edge3_Node000003_Node000004" class="edge">
<title>Node3&#45;&gt;Node4</title>
<g id="a_edge3_Node000003_Node000004"><a xlink:title=" ">
<path fill="none" stroke="#63b8ff" d="M370.06,-56.34C367,-55.89 363.97,-55.44 361,-55 248.74,-38.5 218.08,-36.04 102.19,-19.15"/>
<polygon fill="#63b8ff" stroke="#63b8ff" points="102.61,-15.68 92.21,-17.69 101.59,-22.6 102.61,-15.68"/>
</a>
</g>
</g>
<!-- Node5 -->
<g id="Node000005" class="node">
<title>Node5</title>
<g id="a_Node000005"><a xlink:title=" ">
<polygon fill="#e0e0e0" stroke="#999999" points="210,-19 110,-19 110,0 210,0 210,-19"/>
<text text-anchor="middle" x="160" y="-7" font-family="Helvetica,sans-Serif" font-size="10.00">AMReX_Array4.H</text>
</a>
</g>
</g>
<!-- Node3&#45;&gt;Node5 -->
<g id="edge4_Node000003_Node000005" class="edge">
<title>Node3&#45;&gt;Node5</title>
<g id="a_edge4_Node000003_Node000005"><a xlink:title=" ">
<path fill="none" stroke="#63b8ff" d="M381.3,-54.99C329.45,-44.56 259.78,-30.56 212.56,-21.07"/>
<polygon fill="#63b8ff" stroke="#63b8ff" points="213.04,-17.59 202.55,-19.05 211.66,-24.46 213.04,-17.59"/>
</a>
</g>
</g>
<!-- Node6 -->
<g id="Node000006" class="node">
<title>Node6</title>
<g id="a_Node000006"><a xlink:title=" ">
<polygon fill="#e0e0e0" stroke="#999999" points="314,-19 228,-19 228,0 314,0 314,-19"/>
<text text-anchor="middle" x="271" y="-7" font-family="Helvetica,sans-Serif" font-size="10.00">AMReX_Box.H</text>
</a>
</g>
</g>
<!-- Node3&#45;&gt;Node6 -->
<g id="edge5_Node000003_Node000006" class="edge">
<title>Node3&#45;&gt;Node6</title>
<g id="a_edge5_Node000003_Node000006"><a xlink:title=" ">
<path fill="none" stroke="#63b8ff" d="M407.89,-54.99C377.09,-44.98 336.13,-31.67 307.07,-22.22"/>
<polygon fill="#63b8ff" stroke="#63b8ff" points="307.91,-18.82 297.32,-19.05 305.75,-25.47 307.91,-18.82"/>
</a>
</g>
</g>
<!-- Node7 -->
<g id="Node000007" class="node">
<title>Node7</title>
<g id="a_Node000007"><a xlink:title=" ">
<polygon fill="#e0e0e0" stroke="#999999" points="447.5,-19 332.5,-19 332.5,0 447.5,0 447.5,-19"/>
<text text-anchor="middle" x="390" y="-7" font-family="Helvetica,sans-Serif" font-size="10.00">AMReX_Geometry.H</text>
</a>
</g>
</g>
<!-- Node3&#45;&gt;Node7 -->
<g id="edge6_Node000003_Node000007" class="edge">
<title>Node3&#45;&gt;Node7</title>
<g id="a_edge6_Node000003_Node000007"><a xlink:title=" ">
<path fill="none" stroke="#63b8ff" d="M436.23,-54.84C427.29,-46.26 415.86,-35.3 406.6,-26.42"/>
<polygon fill="#63b8ff" stroke="#63b8ff" points="408.78,-23.66 399.14,-19.27 403.94,-28.71 408.78,-23.66"/>
</a>
</g>
</g>
<!-- Node8 -->
<g id="Node000008" class="node">
<title>Node8</title>
<g id="a_Node000008"><a xlink:title=" ">
<polygon fill="#e0e0e0" stroke="#999999" points="558,-19 466,-19 466,0 558,0 558,-19"/>
<text text-anchor="middle" x="512" y="-7" font-family="Helvetica,sans-Serif" font-size="10.00">AMReX_REAL.H</text>
</a>
</g>
</g>
<!-- Node3&#45;&gt;Node8 -->
<g id="edge7_Node000003_Node000008" class="edge">
<title>Node3&#45;&gt;Node8</title>
<g id="a_edge7_Node000003_Node000008"><a xlink:title=" ">
<path fill="none" stroke="#63b8ff" d="M465.77,-54.84C474.71,-46.26 486.14,-35.3 495.4,-26.42"/>
<polygon fill="#63b8ff" stroke="#63b8ff" points="498.06,-28.71 502.86,-19.27 493.22,-23.66 498.06,-28.71"/>
</a>
</g>
</g>
<!-- Node9 -->
<g id="Node000009" class="node">
<title>Node9</title>
<g id="a_Node000009"><a xlink:title=" ">
<polygon fill="#e0e0e0" stroke="#999999" points="674,-19 576,-19 576,0 674,0 674,-19"/>
<text text-anchor="middle" x="625" y="-7" font-family="Helvetica,sans-Serif" font-size="10.00">AMReX_Vector.H</text>
</a>
</g>
</g>
<!-- Node3&#45;&gt;Node9 -->
<g id="edge8_Node000003_Node000009" class="edge">
<title>Node3&#45;&gt;Node9</title>
<g id="a_edge8_Node000003_Node000009"><a xlink:title=" ">
<path fill="none" stroke="#63b8ff" d="M492.68,-54.99C522.32,-45.02 561.69,-31.78 589.77,-22.35"/>
<polygon fill="#63b8ff" stroke="#63b8ff" points="591.2,-25.56 599.56,-19.05 588.96,-18.92 591.2,-25.56"/>
</a>
</g>
</g>
<!-- Node3&#45;&gt;Node10 -->
<g id="edge9_Node000003_Node000010" class="edge">
<title>Node3&#45;&gt;Node10</title>
<g id="a_edge9_Node000003_Node000010"><a xlink:title=" ">
<path fill="none" stroke="#63b8ff" d="M519.26,-54.99C570.05,-44.56 638.28,-30.56 684.52,-21.07"/>
<polygon fill="#63b8ff" stroke="#63b8ff" points="685.24,-24.49 694.33,-19.05 683.83,-17.64 685.24,-24.49"/>
</a>
</g>
</g>
</g>
</svg>
