<?xml version="1.0" encoding="UTF-8" standalone="no"?>
<!DOCTYPE svg PUBLIC "-//W3C//DTD SVG 1.1//EN"
 "http://www.w3.org/Graphics/SVG/1.1/DTD/svg11.dtd">
<!-- Generated by graphviz version 2.43.0 (0)
 -->
<!-- Title: /home/runner/work/amr&#45;wind/amr&#45;wind/amr&#45;wind/physics/BoussinesqBubbleFieldInit.H Pages: 1 -->
<svg width="470pt" height="225pt"
 viewBox="0.00 0.00 469.50 225.00" xmlns="http://www.w3.org/2000/svg" xmlns:xlink="http://www.w3.org/1999/xlink">
<g id="graph0" class="graph" transform="scale(1 1) rotate(0) translate(4 221)">
<title>/home/runner/work/amr&#45;wind/amr&#45;wind/amr&#45;wind/physics/BoussinesqBubbleFieldInit.H</title>
<!-- Node1 -->
<g id="Node000001" class="node">
<title>Node1</title>
<g id="a_Node000001"><a xlink:title=" ">
<polygon fill="#999999" stroke="#666666" points="277.5,-217 105.5,-217 105.5,-165 277.5,-165 277.5,-217"/>
<text text-anchor="start" x="113.5" y="-205" font-family="Helvetica,sans-Serif" font-size="10.00">/home/runner/work/amr</text>
<text text-anchor="start" x="113.5" y="-194" font-family="Helvetica,sans-Serif" font-size="10.00">&#45;wind/amr&#45;wind/amr&#45;wind</text>
<text text-anchor="start" x="113.5" y="-183" font-family="Helvetica,sans-Serif" font-size="10.00">/physics/BoussinesqBubbleField</text>
<text text-anchor="middle" x="191.5" y="-172" font-family="Helvetica,sans-Serif" font-size="10.00">Init.H</text>
</a>
</g>
</g>
<!-- Node2 -->
<g id="Node000002" class="node">
<title>Node2</title>
<g id="a_Node000002"><a xlink:href="_boussinesq_bubble_8_h.html" target="_top" xlink:title=" ">
<polygon fill="white" stroke="#666666" points="271,-123.5 112,-123.5 112,-82.5 271,-82.5 271,-123.5"/>
<text text-anchor="start" x="120" y="-111.5" font-family="Helvetica,sans-Serif" font-size="10.00">/home/runner/work/amr</text>
<text text-anchor="start" x="120" y="-100.5" font-family="Helvetica,sans-Serif" font-size="10.00">&#45;wind/amr&#45;wind/amr&#45;wind</text>
<text text-anchor="middle" x="191.5" y="-89.5" font-family="Helvetica,sans-Serif" font-size="10.00">/physics/BoussinesqBubble.H</text>
</a>
</g>
</g>
<!-- Node1&#45;&gt;Node2 -->
<g id="edge1_Node000001_Node000002" class="edge">
<title>Node1&#45;&gt;Node2</title>
<g id="a_edge1_Node000001_Node000002"><a xlink:title=" ">
<path fill="none" stroke="#63b8ff" d="M191.5,-154.45C191.5,-143.94 191.5,-132.82 191.5,-123.7"/>
<polygon fill="#63b8ff" stroke="#63b8ff" points="188,-154.66 191.5,-164.66 195,-154.66 188,-154.66"/>
</a>
</g>
</g>
<!-- Node3 -->
<g id="Node000003" class="node">
<title>Node3</title>
<g id="a_Node000003"><a xlink:href="_boussinesq_bubble_8cpp.html" target="_top" xlink:title=" ">
<polygon fill="white" stroke="#666666" points="169,-41 0,-41 0,0 169,0 169,-41"/>
<text text-anchor="start" x="8" y="-29" font-family="Helvetica,sans-Serif" font-size="10.00">/home/runner/work/amr</text>
<text text-anchor="start" x="8" y="-18" font-family="Helvetica,sans-Serif" font-size="10.00">&#45;wind/amr&#45;wind/amr&#45;wind</text>
<text text-anchor="middle" x="84.5" y="-7" font-family="Helvetica,sans-Serif" font-size="10.00">/physics/BoussinesqBubble.cpp</text>
</a>
</g>
</g>
<!-- Node1&#45;&gt;Node3 -->
<g id="edge4_Node000001_Node000003" class="edge">
<title>Node1&#45;&gt;Node3</title>
<g id="a_edge4_Node000001_Node000003"><a xlink:title=" ">
<path fill="none" stroke="#63b8ff" d="M132.57,-158.92C121.41,-150.57 110.92,-140.59 103.5,-129 86.32,-102.19 83.51,-64.27 83.6,-41.37"/>
<polygon fill="#63b8ff" stroke="#63b8ff" points="130.59,-161.8 140.79,-164.7 134.63,-156.08 130.59,-161.8"/>
</a>
</g>
</g>
<!-- Node5 -->
<g id="Node000005" class="node">
<title>Node5</title>
<g id="a_Node000005"><a xlink:href="_boussinesq_bubble_field_init_8cpp.html" target="_top" xlink:title=" ">
<polygon fill="white" stroke="#666666" points="461.5,-129 289.5,-129 289.5,-77 461.5,-77 461.5,-129"/>
<text text-anchor="start" x="297.5" y="-117" font-family="Helvetica,sans-Serif" font-size="10.00">/home/runner/work/amr</text>
<text text-anchor="start" x="297.5" y="-106" font-family="Helvetica,sans-Serif" font-size="10.00">&#45;wind/amr&#45;wind/amr&#45;wind</text>
<text text-anchor="start" x="297.5" y="-95" font-family="Helvetica,sans-Serif" font-size="10.00">/physics/BoussinesqBubbleField</text>
<text text-anchor="middle" x="375.5" y="-84" font-family="Helvetica,sans-Serif" font-size="10.00">Init.cpp</text>
</a>
</g>
</g>
<!-- Node1&#45;&gt;Node5 -->
<g id="edge5_Node000001_Node000005" class="edge">
<title>Node1&#45;&gt;Node5</title>
<g id="a_edge5_Node000001_Node000005"><a xlink:title=" ">
<path fill="none" stroke="#63b8ff" d="M254.43,-160.59C276.31,-150.36 300.64,-138.99 321.72,-129.14"/>
<polygon fill="#63b8ff" stroke="#63b8ff" points="252.79,-157.49 245.22,-164.89 255.76,-163.83 252.79,-157.49"/>
</a>
</g>
</g>
<!-- Node2&#45;&gt;Node3 -->
<g id="edge2_Node000002_Node000003" class="edge">
<title>Node2&#45;&gt;Node3</title>
<g id="a_edge2_Node000002_Node000003"><a xlink:title=" ">
<path fill="none" stroke="#63b8ff" d="M157.24,-76.22C142.18,-64.9 124.78,-51.81 110.78,-41.27"/>
<polygon fill="#63b8ff" stroke="#63b8ff" points="155.23,-79.09 165.32,-82.31 159.44,-73.5 155.23,-79.09"/>
</a>
</g>
</g>
<!-- Node4 -->
<g id="Node000004" class="node">
<title>Node4</title>
<g id="a_Node000004"><a xlink:href="init_8cpp.html" target="_top" xlink:title=" ">
<polygon fill="white" stroke="#666666" points="330,-41 187,-41 187,0 330,0 330,-41"/>
<text text-anchor="start" x="195" y="-29" font-family="Helvetica,sans-Serif" font-size="10.00">/home/runner/work/amr</text>
<text text-anchor="start" x="195" y="-18" font-family="Helvetica,sans-Serif" font-size="10.00">&#45;wind/amr&#45;wind/amr&#45;wind</text>
<text text-anchor="middle" x="258.5" y="-7" font-family="Helvetica,sans-Serif" font-size="10.00">/setup/init.cpp</text>
</a>
</g>
</g>
<!-- Node2&#45;&gt;Node4 -->
<g id="edge3_Node000002_Node000004" class="edge">
<title>Node2&#45;&gt;Node4</title>
<g id="a_edge3_Node000002_Node000004"><a xlink:title=" ">
<path fill="none" stroke="#63b8ff" d="M214.71,-74.12C223.74,-63.26 233.88,-51.08 242.13,-41.17"/>
<polygon fill="#63b8ff" stroke="#63b8ff" points="211.77,-72.18 208.06,-82.1 217.15,-76.65 211.77,-72.18"/>
</a>
</g>
</g>
</g>
</svg>
