<?xml version="1.0" encoding="UTF-8" standalone="no"?>
<!DOCTYPE svg PUBLIC "-//W3C//DTD SVG 1.1//EN"
 "http://www.w3.org/Graphics/SVG/1.1/DTD/svg11.dtd">
<!-- Generated by graphviz version 2.43.0 (0)
 -->
<!-- Title: /home/runner/work/amr&#45;wind/amr&#45;wind/amr&#45;wind/immersed_boundary/bluff_body/Box.H Pages: 1 -->
<svg width="759pt" height="489pt"
 viewBox="0.00 0.00 759.34 489.00" xmlns="http://www.w3.org/2000/svg" xmlns:xlink="http://www.w3.org/1999/xlink">
<g id="graph0" class="graph" transform="scale(1 1) rotate(0) translate(4 485)">
<title>/home/runner/work/amr&#45;wind/amr&#45;wind/amr&#45;wind/immersed_boundary/bluff_body/Box.H</title>
<!-- Node1 -->
<g id="Node000001" class="node">
<title>Node1</title>
<g id="a_Node000001"><a xlink:title=" ">
<polygon fill="#999999" stroke="#666666" points="674.84,-481 529.84,-481 529.84,-429 674.84,-429 674.84,-481"/>
<text text-anchor="start" x="537.84" y="-469" font-family="Helvetica,sans-Serif" font-size="10.00">/home/runner/work/amr</text>
<text text-anchor="start" x="537.84" y="-458" font-family="Helvetica,sans-Serif" font-size="10.00">&#45;wind/amr&#45;wind/amr&#45;wind</text>
<text text-anchor="start" x="537.84" y="-447" font-family="Helvetica,sans-Serif" font-size="10.00">/immersed_boundary/bluff</text>
<text text-anchor="middle" x="602.34" y="-436" font-family="Helvetica,sans-Serif" font-size="10.00">_body/Box.H</text>
</a>
</g>
</g>
<!-- Node2 -->
<g id="Node000002" class="node">
<title>Node2</title>
<g id="a_Node000002"><a xlink:href="_bluff_body_8_h.html" target="_top" xlink:title=" ">
<polygon fill="white" stroke="#666666" points="685.84,-393 518.84,-393 518.84,-363 685.84,-363 685.84,-393"/>
<text text-anchor="start" x="526.84" y="-381" font-family="Helvetica,sans-Serif" font-size="10.00">amr&#45;wind/immersed_boundary</text>
<text text-anchor="middle" x="602.34" y="-370" font-family="Helvetica,sans-Serif" font-size="10.00">/bluff_body/BluffBody.H</text>
</a>
</g>
</g>
<!-- Node1&#45;&gt;Node2 -->
<g id="edge1_Node000001_Node000002" class="edge">
<title>Node1&#45;&gt;Node2</title>
<g id="a_edge1_Node000001_Node000002"><a xlink:title=" ">
<path fill="none" stroke="#63b8ff" d="M602.34,-428.61C602.34,-420.54 602.34,-411.64 602.34,-403.63"/>
<polygon fill="#63b8ff" stroke="#63b8ff" points="605.84,-403.43 602.34,-393.43 598.84,-403.43 605.84,-403.43"/>
</a>
</g>
</g>
<!-- Node3 -->
<g id="Node000003" class="node">
<title>Node3</title>
<g id="a_Node000003"><a xlink:href="_i_b_types_8_h.html" target="_top" xlink:title=" ">
<polygon fill="white" stroke="#666666" points="313.84,-327 146.84,-327 146.84,-297 313.84,-297 313.84,-327"/>
<text text-anchor="start" x="154.84" y="-315" font-family="Helvetica,sans-Serif" font-size="10.00">amr&#45;wind/immersed_boundary</text>
<text text-anchor="middle" x="230.34" y="-304" font-family="Helvetica,sans-Serif" font-size="10.00">/IBTypes.H</text>
</a>
</g>
</g>
<!-- Node2&#45;&gt;Node3 -->
<g id="edge2_Node000002_Node000003" class="edge">
<title>Node2&#45;&gt;Node3</title>
<g id="a_edge2_Node000002_Node000003"><a xlink:title=" ">
<path fill="none" stroke="#63b8ff" d="M520.7,-362.95C461.95,-352.85 382.65,-339.2 321.77,-328.73"/>
<polygon fill="#63b8ff" stroke="#63b8ff" points="322.23,-325.26 311.79,-327.01 321.05,-332.16 322.23,-325.26"/>
</a>
</g>
</g>
<!-- Node9 -->
<g id="Node000009" class="node">
<title>Node9</title>
<g id="a_Node000009"><a xlink:href="vector__space_8_h.html" target="_top" xlink:title=" ">
<polygon fill="white" stroke="#666666" points="504.84,-261 369.84,-261 369.84,-231 504.84,-231 504.84,-261"/>
<text text-anchor="start" x="377.84" y="-249" font-family="Helvetica,sans-Serif" font-size="10.00">amr&#45;wind/core/vs/vector</text>
<text text-anchor="middle" x="437.34" y="-238" font-family="Helvetica,sans-Serif" font-size="10.00">_space.H</text>
</a>
</g>
</g>
<!-- Node2&#45;&gt;Node9 -->
<g id="edge31_Node000002_Node000009" class="edge">
<title>Node2&#45;&gt;Node9</title>
<g id="a_edge31_Node000002_Node000009"><a xlink:title=" ">
<path fill="none" stroke="#63b8ff" d="M584.37,-362.84C555.11,-339.79 497.06,-294.05 463.31,-267.46"/>
<polygon fill="#63b8ff" stroke="#63b8ff" points="465.31,-264.58 455.29,-261.14 460.98,-270.08 465.31,-264.58"/>
</a>
</g>
</g>
<!-- Node20 -->
<g id="Node000020" class="node">
<title>Node20</title>
<g id="a_Node000020"><a xlink:title=" ">
<polygon fill="#e0e0e0" stroke="#999999" points="727.34,-19 635.34,-19 635.34,0 727.34,0 727.34,-19"/>
<text text-anchor="middle" x="681.34" y="-7" font-family="Helvetica,sans-Serif" font-size="10.00">AMReX_REAL.H</text>
</a>
</g>
</g>
<!-- Node2&#45;&gt;Node20 -->
<g id="edge33_Node000002_Node000020" class="edge">
<title>Node2&#45;&gt;Node20</title>
<g id="a_edge33_Node000002_Node000020"><a xlink:title=" ">
<path fill="none" stroke="#63b8ff" d="M617.92,-362.66C640.42,-340.31 679.34,-294.74 679.34,-247 679.34,-247 679.34,-247 679.34,-129.5 679.34,-94.15 680.23,-52.9 680.82,-29.42"/>
<polygon fill="#63b8ff" stroke="#63b8ff" points="684.33,-29.25 681.09,-19.16 677.33,-29.06 684.33,-29.25"/>
</a>
</g>
</g>
<!-- Node22 -->
<g id="Node000022" class="node">
<title>Node22</title>
<g id="a_Node000022"><a xlink:title=" ">
<polygon fill="#e0e0e0" stroke="#999999" points="751.34,-321.5 707.34,-321.5 707.34,-302.5 751.34,-302.5 751.34,-321.5"/>
<text text-anchor="middle" x="729.34" y="-309.5" font-family="Helvetica,sans-Serif" font-size="10.00">string</text>
</a>
</g>
</g>
<!-- Node2&#45;&gt;Node22 -->
<g id="edge32_Node000002_Node000022" class="edge">
<title>Node2&#45;&gt;Node22</title>
<g id="a_edge32_Node000002_Node000022"><a xlink:title=" ">
<path fill="none" stroke="#63b8ff" d="M630.21,-362.95C651.99,-351.98 682.04,-336.83 703.33,-326.11"/>
<polygon fill="#63b8ff" stroke="#63b8ff" points="705.08,-329.14 712.44,-321.52 701.93,-322.89 705.08,-329.14"/>
</a>
</g>
</g>
<!-- Node4 -->
<g id="Node000004" class="node">
<title>Node4</title>
<g id="a_Node000004"><a xlink:title=" ">
<polygon fill="#e0e0e0" stroke="#999999" points="200.84,-255.5 155.84,-255.5 155.84,-236.5 200.84,-236.5 200.84,-255.5"/>
<text text-anchor="middle" x="178.34" y="-243.5" font-family="Helvetica,sans-Serif" font-size="10.00">utility</text>
</a>
</g>
</g>
<!-- Node3&#45;&gt;Node4 -->
<g id="edge3_Node000003_Node000004" class="edge">
<title>Node3&#45;&gt;Node4</title>
<g id="a_edge3_Node000003_Node000004"><a xlink:title=" ">
<path fill="none" stroke="#63b8ff" d="M218.8,-296.8C210.85,-287.01 200.26,-273.98 191.91,-263.7"/>
<polygon fill="#63b8ff" stroke="#63b8ff" points="194.55,-261.4 185.52,-255.84 189.11,-265.81 194.55,-261.4"/>
</a>
</g>
</g>
<!-- Node5 -->
<g id="Node000005" class="node">
<title>Node5</title>
<g id="a_Node000005"><a xlink:href="_slice_8_h.html" target="_top" xlink:title=" ">
<polygon fill="white" stroke="#666666" points="343.34,-255.5 219.34,-255.5 219.34,-236.5 343.34,-236.5 343.34,-255.5"/>
<text text-anchor="middle" x="281.34" y="-243.5" font-family="Helvetica,sans-Serif" font-size="10.00">amr&#45;wind/core/Slice.H</text>
</a>
</g>
</g>
<!-- Node3&#45;&gt;Node5 -->
<g id="edge4_Node000003_Node000005" class="edge">
<title>Node3&#45;&gt;Node5</title>
<g id="a_edge4_Node000003_Node000005"><a xlink:title=" ">
<path fill="none" stroke="#63b8ff" d="M241.66,-296.8C249.45,-287.01 259.84,-273.98 268.03,-263.7"/>
<polygon fill="#63b8ff" stroke="#63b8ff" points="270.8,-265.85 274.29,-255.84 265.32,-261.48 270.8,-265.85"/>
</a>
</g>
</g>
<!-- Node8 -->
<g id="Node000008" class="node">
<title>Node8</title>
<g id="a_Node000008"><a xlink:title=" ">
<polygon fill="#e0e0e0" stroke="#999999" points="149.84,-19 62.84,-19 62.84,0 149.84,0 149.84,-19"/>
<text text-anchor="middle" x="106.34" y="-7" font-family="Helvetica,sans-Serif" font-size="10.00">AMReX_Gpu.H</text>
</a>
</g>
</g>
<!-- Node3&#45;&gt;Node8 -->
<g id="edge29_Node000003_Node000008" class="edge">
<title>Node3&#45;&gt;Node8</title>
<g id="a_edge29_Node000003_Node000008"><a xlink:title=" ">
<path fill="none" stroke="#63b8ff" d="M146.59,-300.03C96.21,-291.77 38.44,-278.81 20.34,-261 -4.02,-237.03 1.34,-220.67 1.34,-186.5 1.34,-186.5 1.34,-186.5 1.34,-129.5 1.34,-81.35 50.27,-43.49 81.32,-24.3"/>
<polygon fill="#63b8ff" stroke="#63b8ff" points="83.13,-27.3 89.93,-19.17 79.55,-21.28 83.13,-27.3"/>
</a>
</g>
</g>
<!-- Node3&#45;&gt;Node9 -->
<g id="edge8_Node000003_Node000009" class="edge">
<title>Node3&#45;&gt;Node9</title>
<g id="a_edge8_Node000003_Node000009"><a xlink:title=" ">
<path fill="none" stroke="#63b8ff" d="M275.77,-296.95C307.18,-287.24 349.14,-274.27 382.43,-263.98"/>
<polygon fill="#63b8ff" stroke="#63b8ff" points="383.5,-267.31 392.02,-261.01 381.43,-260.62 383.5,-267.31"/>
</a>
</g>
</g>
<!-- Node21 -->
<g id="Node000021" class="node">
<title>Node21</title>
<g id="a_Node000021"><a xlink:title=" ">
<polygon fill="#e0e0e0" stroke="#999999" points="137.34,-255.5 29.34,-255.5 29.34,-236.5 137.34,-236.5 137.34,-255.5"/>
<text text-anchor="middle" x="83.34" y="-243.5" font-family="Helvetica,sans-Serif" font-size="10.00">AMReX_RealBox.H</text>
</a>
</g>
</g>
<!-- Node3&#45;&gt;Node21 -->
<g id="edge30_Node000003_Node000021" class="edge">
<title>Node3&#45;&gt;Node21</title>
<g id="a_edge30_Node000003_Node000021"><a xlink:title=" ">
<path fill="none" stroke="#63b8ff" d="M198.08,-296.95C172.41,-285.78 136.83,-270.29 112.12,-259.53"/>
<polygon fill="#63b8ff" stroke="#63b8ff" points="113.47,-256.3 102.9,-255.52 110.67,-262.72 113.47,-256.3"/>
</a>
</g>
</g>
<!-- Node6 -->
<g id="Node000006" class="node">
<title>Node6</title>
<g id="a_Node000006"><a xlink:title=" ">
<polygon fill="#e0e0e0" stroke="#999999" points="198.84,-195 145.84,-195 145.84,-176 198.84,-176 198.84,-195"/>
<text text-anchor="middle" x="172.34" y="-183" font-family="Helvetica,sans-Serif" font-size="10.00">iterator</text>
</a>
</g>
</g>
<!-- Node5&#45;&gt;Node6 -->
<g id="edge5_Node000005_Node000006" class="edge">
<title>Node5&#45;&gt;Node6</title>
<g id="a_edge5_Node000005_Node000006"><a xlink:title=" ">
<path fill="none" stroke="#63b8ff" d="M265.26,-236.37C247.38,-226.78 218.3,-211.17 197.43,-199.97"/>
<polygon fill="#63b8ff" stroke="#63b8ff" points="198.95,-196.81 188.49,-195.17 195.64,-202.98 198.95,-196.81"/>
</a>
</g>
</g>
<!-- Node7 -->
<g id="Node000007" class="node">
<title>Node7</title>
<g id="a_Node000007"><a xlink:title=" ">
<polygon fill="#e0e0e0" stroke="#999999" points="315.34,-195 217.34,-195 217.34,-176 315.34,-176 315.34,-195"/>
<text text-anchor="middle" x="266.34" y="-183" font-family="Helvetica,sans-Serif" font-size="10.00">AMReX_Vector.H</text>
</a>
</g>
</g>
<!-- Node5&#45;&gt;Node7 -->
<g id="edge6_Node000005_Node000007" class="edge">
<title>Node5&#45;&gt;Node7</title>
<g id="a_edge6_Node000005_Node000007"><a xlink:title=" ">
<path fill="none" stroke="#63b8ff" d="M279.13,-236.37C277.02,-228.16 273.79,-215.54 271.1,-205.05"/>
<polygon fill="#63b8ff" stroke="#63b8ff" points="274.44,-203.98 268.56,-195.17 267.65,-205.72 274.44,-203.98"/>
</a>
</g>
</g>
<!-- Node5&#45;&gt;Node8 -->
<g id="edge7_Node000005_Node000008" class="edge">
<title>Node5&#45;&gt;Node8</title>
<g id="a_edge7_Node000005_Node000008"><a xlink:title=" ">
<path fill="none" stroke="#63b8ff" d="M243.52,-236.44C205.55,-227.1 150.69,-211.28 136.34,-195 94.71,-147.77 98.95,-66.16 103.44,-29.41"/>
<polygon fill="#63b8ff" stroke="#63b8ff" points="106.96,-29.54 104.85,-19.15 100.02,-28.58 106.96,-29.54"/>
</a>
</g>
</g>
<!-- Node10 -->
<g id="Node000010" class="node">
<title>Node10</title>
<g id="a_Node000010"><a xlink:href="vector_8_h.html" target="_top" xlink:title=" ">
<polygon fill="white" stroke="#666666" points="352.84,-140 207.84,-140 207.84,-121 352.84,-121 352.84,-140"/>
<text text-anchor="middle" x="280.34" y="-128" font-family="Helvetica,sans-Serif" font-size="10.00">amr&#45;wind/core/vs/vector.H</text>
</a>
</g>
</g>
<!-- Node9&#45;&gt;Node10 -->
<g id="edge9_Node000009_Node000010" class="edge">
<title>Node9&#45;&gt;Node10</title>
<g id="a_edge9_Node000009_Node000010"><a xlink:title=" ">
<path fill="none" stroke="#63b8ff" d="M415.4,-230.96C400.3,-221.15 379.87,-207.61 362.34,-195 340.26,-179.12 315.69,-159.88 299.26,-146.76"/>
<polygon fill="#63b8ff" stroke="#63b8ff" points="301.02,-143.69 291.03,-140.17 296.64,-149.16 301.02,-143.69"/>
</a>
</g>
</g>
<!-- Node16 -->
<g id="Node000016" class="node">
<title>Node16</title>
<g id="a_Node000016"><a xlink:href="tensor_8_h.html" target="_top" xlink:title=" ">
<polygon fill="white" stroke="#666666" points="516.84,-195 371.84,-195 371.84,-176 516.84,-176 516.84,-195"/>
<text text-anchor="middle" x="444.34" y="-183" font-family="Helvetica,sans-Serif" font-size="10.00">amr&#45;wind/core/vs/tensor.H</text>
</a>
</g>
</g>
<!-- Node9&#45;&gt;Node16 -->
<g id="edge17_Node000009_Node000016" class="edge">
<title>Node9&#45;&gt;Node16</title>
<g id="a_edge17_Node000009_Node000016"><a xlink:title=" ">
<path fill="none" stroke="#63b8ff" d="M439.03,-230.84C439.95,-223.21 441.08,-213.7 442.07,-205.45"/>
<polygon fill="#63b8ff" stroke="#63b8ff" points="445.58,-205.61 443.29,-195.27 438.63,-204.78 445.58,-205.61"/>
</a>
</g>
</g>
<!-- Node10&#45;&gt;Node8 -->
<g id="edge10_Node000010_Node000008" class="edge">
<title>Node10&#45;&gt;Node8</title>
<g id="a_edge10_Node000010_Node000008"><a xlink:title=" ">
<path fill="none" stroke="#63b8ff" d="M242.02,-120.96C217.51,-114.14 185.99,-102.73 162.34,-85 141.78,-69.58 125.17,-44.62 115.53,-27.89"/>
<polygon fill="#63b8ff" stroke="#63b8ff" points="118.59,-26.18 110.68,-19.12 112.46,-29.57 118.59,-26.18"/>
</a>
</g>
</g>
<!-- Node11 -->
<g id="Node000011" class="node">
<title>Node11</title>
<g id="a_Node000011"><a xlink:href="vstraits_8_h.html" target="_top" xlink:title=" ">
<polygon fill="white" stroke="#666666" points="491.34,-79.5 339.34,-79.5 339.34,-60.5 491.34,-60.5 491.34,-79.5"/>
<text text-anchor="middle" x="415.34" y="-67.5" font-family="Helvetica,sans-Serif" font-size="10.00">amr&#45;wind/core/vs/vstraits.H</text>
</a>
</g>
</g>
<!-- Node10&#45;&gt;Node11 -->
<g id="edge11_Node000010_Node000011" class="edge">
<title>Node10&#45;&gt;Node11</title>
<g id="a_edge11_Node000010_Node000011"><a xlink:title=" ">
<path fill="none" stroke="#63b8ff" d="M299.97,-120.99C322.66,-111.16 360.24,-94.88 386.31,-83.58"/>
<polygon fill="#63b8ff" stroke="#63b8ff" points="387.9,-86.7 395.68,-79.52 385.12,-80.28 387.9,-86.7"/>
</a>
</g>
</g>
<!-- Node13 -->
<g id="Node000013" class="node">
<title>Node13</title>
<g id="a_Node000013"><a xlink:href="vector_i_8_h.html" target="_top" xlink:title=" ">
<polygon fill="white" stroke="#666666" points="320.84,-79.5 171.84,-79.5 171.84,-60.5 320.84,-60.5 320.84,-79.5"/>
<text text-anchor="middle" x="246.34" y="-67.5" font-family="Helvetica,sans-Serif" font-size="10.00">amr&#45;wind/core/vs/vectorI.H</text>
</a>
</g>
</g>
<!-- Node10&#45;&gt;Node13 -->
<g id="edge13_Node000010_Node000013" class="edge">
<title>Node10&#45;&gt;Node13</title>
<g id="a_edge13_Node000010_Node000013"><a xlink:title=" ">
<path fill="none" stroke="#63b8ff" d="M270.37,-120.87C263.68,-112.49 255.7,-99.51 250.46,-88.89"/>
<polygon fill="#63b8ff" stroke="#63b8ff" points="253.64,-87.42 246.41,-79.67 247.23,-90.23 253.64,-87.42"/>
</a>
</g>
</g>
<!-- Node12 -->
<g id="Node000012" class="node">
<title>Node12</title>
<g id="a_Node000012"><a xlink:title=" ">
<polygon fill="#e0e0e0" stroke="#999999" points="437.34,-19 393.34,-19 393.34,0 437.34,0 437.34,-19"/>
<text text-anchor="middle" x="415.34" y="-7" font-family="Helvetica,sans-Serif" font-size="10.00">limits</text>
</a>
</g>
</g>
<!-- Node11&#45;&gt;Node12 -->
<g id="edge12_Node000011_Node000012" class="edge">
<title>Node11&#45;&gt;Node12</title>
<g id="a_edge12_Node000011_Node000012"><a xlink:title=" ">
<path fill="none" stroke="#63b8ff" d="M415.34,-60.37C415.34,-52.25 415.34,-39.81 415.34,-29.39"/>
<polygon fill="#63b8ff" stroke="#63b8ff" points="418.84,-29.17 415.34,-19.17 411.84,-29.17 418.84,-29.17"/>
</a>
</g>
</g>
<!-- Node13&#45;&gt;Node10 -->
<g id="edge16_Node000013_Node000010" class="edge">
<title>Node13&#45;&gt;Node10</title>
<g id="a_edge16_Node000013_Node000010"><a xlink:title=" ">
<path fill="none" stroke="#63b8ff" d="M256.34,-79.67C263.03,-88.06 271.01,-101.04 276.24,-111.65"/>
<polygon fill="#63b8ff" stroke="#63b8ff" points="273.06,-113.11 280.28,-120.87 279.47,-110.3 273.06,-113.11"/>
</a>
</g>
</g>
<!-- Node14 -->
<g id="Node000014" class="node">
<title>Node14</title>
<g id="a_Node000014"><a xlink:title=" ">
<polygon fill="#e0e0e0" stroke="#999999" points="274.84,-19 217.84,-19 217.84,0 274.84,0 274.84,-19"/>
<text text-anchor="middle" x="246.34" y="-7" font-family="Helvetica,sans-Serif" font-size="10.00">ostream</text>
</a>
</g>
</g>
<!-- Node13&#45;&gt;Node14 -->
<g id="edge14_Node000013_Node000014" class="edge">
<title>Node13&#45;&gt;Node14</title>
<g id="a_edge14_Node000013_Node000014"><a xlink:title=" ">
<path fill="none" stroke="#63b8ff" d="M246.34,-60.37C246.34,-52.25 246.34,-39.81 246.34,-29.39"/>
<polygon fill="#63b8ff" stroke="#63b8ff" points="249.84,-29.17 246.34,-19.17 242.84,-29.17 249.84,-29.17"/>
</a>
</g>
</g>
<!-- Node15 -->
<g id="Node000015" class="node">
<title>Node15</title>
<g id="a_Node000015"><a xlink:title=" ">
<polygon fill="#e0e0e0" stroke="#999999" points="539.84,-19 492.84,-19 492.84,0 539.84,0 539.84,-19"/>
<text text-anchor="middle" x="516.34" y="-7" font-family="Helvetica,sans-Serif" font-size="10.00">cmath</text>
</a>
</g>
</g>
<!-- Node13&#45;&gt;Node15 -->
<g id="edge15_Node000013_Node000015" class="edge">
<title>Node13&#45;&gt;Node15</title>
<g id="a_edge15_Node000013_Node000015"><a xlink:title=" ">
<path fill="none" stroke="#63b8ff" d="M285.6,-60.49C338.72,-48.99 432.57,-28.65 482.65,-17.8"/>
<polygon fill="#63b8ff" stroke="#63b8ff" points="483.61,-21.17 492.64,-15.64 482.12,-14.33 483.61,-21.17"/>
</a>
</g>
</g>
<!-- Node16&#45;&gt;Node8 -->
<g id="edge18_Node000016_Node000008" class="edge">
<title>Node16&#45;&gt;Node8</title>
<g id="a_edge18_Node000016_Node000008"><a xlink:title=" ">
<path fill="none" stroke="#63b8ff" d="M371.8,-180.88C321.24,-176.12 253.29,-165.17 198.34,-140 163,-123.81 152.32,-117.06 130.34,-85 118.71,-68.05 112.45,-45.11 109.26,-29.19"/>
<polygon fill="#63b8ff" stroke="#63b8ff" points="112.65,-28.25 107.46,-19.02 105.76,-29.48 112.65,-28.25"/>
</a>
</g>
</g>
<!-- Node16&#45;&gt;Node10 -->
<g id="edge20_Node000016_Node000010" class="edge">
<title>Node16&#45;&gt;Node10</title>
<g id="a_edge20_Node000016_Node000010"><a xlink:title=" ">
<path fill="none" stroke="#63b8ff" d="M417.99,-175.98C390.57,-167.13 347.45,-153.19 316.78,-143.28"/>
<polygon fill="#63b8ff" stroke="#63b8ff" points="317.49,-139.83 306.89,-140.08 315.33,-146.49 317.49,-139.83"/>
</a>
</g>
</g>
<!-- Node16&#45;&gt;Node11 -->
<g id="edge19_Node000016_Node000011" class="edge">
<title>Node16&#45;&gt;Node11</title>
<g id="a_edge19_Node000016_Node000011"><a xlink:title=" ">
<path fill="none" stroke="#63b8ff" d="M442.16,-175.97C437.5,-157.73 426.47,-114.57 420.1,-89.64"/>
<polygon fill="#63b8ff" stroke="#63b8ff" points="423.41,-88.45 417.54,-79.63 416.63,-90.19 423.41,-88.45"/>
</a>
</g>
</g>
<!-- Node17 -->
<g id="Node000017" class="node">
<title>Node17</title>
<g id="a_Node000017"><a xlink:href="tensor_i_8_h.html" target="_top" xlink:title=" ">
<polygon fill="white" stroke="#666666" points="592.84,-140 443.84,-140 443.84,-121 592.84,-121 592.84,-140"/>
<text text-anchor="middle" x="518.34" y="-128" font-family="Helvetica,sans-Serif" font-size="10.00">amr&#45;wind/core/vs/tensorI.H</text>
</a>
</g>
</g>
<!-- Node16&#45;&gt;Node17 -->
<g id="edge21_Node000016_Node000017" class="edge">
<title>Node16&#45;&gt;Node17</title>
<g id="a_edge21_Node000016_Node000017"><a xlink:title=" ">
<path fill="none" stroke="#63b8ff" d="M451.11,-175.98C460.69,-167.84 477.72,-155.41 492.37,-145.76"/>
<polygon fill="#63b8ff" stroke="#63b8ff" points="494.55,-148.51 501.08,-140.17 490.78,-142.62 494.55,-148.51"/>
</a>
</g>
</g>
<!-- Node17&#45;&gt;Node15 -->
<g id="edge22_Node000017_Node000015" class="edge">
<title>Node17&#45;&gt;Node15</title>
<g id="a_edge22_Node000017_Node000015"><a xlink:title=" ">
<path fill="none" stroke="#63b8ff" d="M518.19,-120.94C517.87,-101.91 517.1,-55.69 516.66,-29.47"/>
<polygon fill="#63b8ff" stroke="#63b8ff" points="520.15,-29.24 516.49,-19.3 513.16,-29.36 520.15,-29.24"/>
</a>
</g>
</g>
<!-- Node17&#45;&gt;Node16 -->
<g id="edge23_Node000017_Node000016" class="edge">
<title>Node17&#45;&gt;Node16</title>
<g id="a_edge23_Node000017_Node000016"><a xlink:title=" ">
<path fill="none" stroke="#63b8ff" d="M511.38,-140.17C501.72,-148.37 484.64,-160.81 470.03,-170.42"/>
<polygon fill="#63b8ff" stroke="#63b8ff" points="467.88,-167.65 461.34,-175.98 471.65,-173.54 467.88,-167.65"/>
</a>
</g>
</g>
<!-- Node18 -->
<g id="Node000018" class="node">
<title>Node18</title>
<g id="a_Node000018"><a xlink:href="trig__ops_8_h.html" target="_top" xlink:title=" ">
<polygon fill="white" stroke="#666666" points="650.84,-85 547.84,-85 547.84,-55 650.84,-55 650.84,-85"/>
<text text-anchor="start" x="555.84" y="-73" font-family="Helvetica,sans-Serif" font-size="10.00">amr&#45;wind/utilities</text>
<text text-anchor="middle" x="599.34" y="-62" font-family="Helvetica,sans-Serif" font-size="10.00">/trig_ops.H</text>
</a>
</g>
</g>
<!-- Node17&#45;&gt;Node18 -->
<g id="edge24_Node000017_Node000018" class="edge">
<title>Node17&#45;&gt;Node18</title>
<g id="a_edge24_Node000017_Node000018"><a xlink:title=" ">
<path fill="none" stroke="#63b8ff" d="M530.29,-120.87C541.08,-113.08 557.36,-101.32 571.41,-91.17"/>
<polygon fill="#63b8ff" stroke="#63b8ff" points="573.74,-93.81 579.8,-85.11 569.64,-88.13 573.74,-93.81"/>
</a>
</g>
</g>
<!-- Node18&#45;&gt;Node8 -->
<g id="edge28_Node000018_Node000008" class="edge">
<title>Node18&#45;&gt;Node8</title>
<g id="a_edge28_Node000018_Node000008"><a xlink:title=" ">
<path fill="none" stroke="#63b8ff" d="M547.74,-61.42C532.49,-59.26 515.75,-56.96 500.34,-55 379.03,-39.58 236.36,-24.13 160.38,-16.12"/>
<polygon fill="#63b8ff" stroke="#63b8ff" points="160.43,-12.6 150.11,-15.04 159.69,-19.57 160.43,-12.6"/>
</a>
</g>
</g>
<!-- Node18&#45;&gt;Node15 -->
<g id="edge25_Node000018_Node000015" class="edge">
<title>Node18&#45;&gt;Node15</title>
<g id="a_edge25_Node000018_Node000015"><a xlink:title=" ">
<path fill="none" stroke="#63b8ff" d="M579.25,-54.84C566.46,-45.83 549.94,-34.18 537.04,-25.09"/>
<polygon fill="#63b8ff" stroke="#63b8ff" points="538.97,-22.17 528.78,-19.27 534.93,-27.89 538.97,-22.17"/>
</a>
</g>
</g>
<!-- Node19 -->
<g id="Node000019" class="node">
<title>Node19</title>
<g id="a_Node000019"><a xlink:title=" ">
<polygon fill="#e0e0e0" stroke="#999999" points="616.84,-19 557.84,-19 557.84,0 616.84,0 616.84,-19"/>
<text text-anchor="middle" x="587.34" y="-7" font-family="Helvetica,sans-Serif" font-size="10.00">numbers</text>
</a>
</g>
</g>
<!-- Node18&#45;&gt;Node19 -->
<g id="edge26_Node000018_Node000019" class="edge">
<title>Node18&#45;&gt;Node19</title>
<g id="a_edge26_Node000018_Node000019"><a xlink:title=" ">
<path fill="none" stroke="#63b8ff" d="M596.43,-54.84C594.85,-47.13 592.87,-37.49 591.17,-29.17"/>
<polygon fill="#63b8ff" stroke="#63b8ff" points="594.57,-28.36 589.14,-19.27 587.72,-29.77 594.57,-28.36"/>
</a>
</g>
</g>
<!-- Node18&#45;&gt;Node20 -->
<g id="edge27_Node000018_Node000020" class="edge">
<title>Node18&#45;&gt;Node20</title>
<g id="a_edge27_Node000018_Node000020"><a xlink:title=" ">
<path fill="none" stroke="#63b8ff" d="M619.19,-54.84C631.82,-45.83 648.14,-34.18 660.89,-25.09"/>
<polygon fill="#63b8ff" stroke="#63b8ff" points="662.94,-27.92 669.05,-19.27 658.88,-22.22 662.94,-27.92"/>
</a>
</g>
</g>
</g>
</svg>
