<?xml version="1.0" encoding="UTF-8" standalone="no"?>
<!DOCTYPE svg PUBLIC "-//W3C//DTD SVG 1.1//EN"
 "http://www.w3.org/Graphics/SVG/1.1/DTD/svg11.dtd">
<!-- Generated by graphviz version 2.43.0 (0)
 -->
<!-- Title: /home/runner/work/amr&#45;wind/amr&#45;wind/amr&#45;wind/physics/multiphase/BreakingWaves.H Pages: 1 -->
<svg width="1140pt" height="214pt"
 viewBox="0.00 0.00 1140.00 214.00" xmlns="http://www.w3.org/2000/svg" xmlns:xlink="http://www.w3.org/1999/xlink">
<g id="graph0" class="graph" transform="scale(1 1) rotate(0) translate(4 210)">
<title>/home/runner/work/amr&#45;wind/amr&#45;wind/amr&#45;wind/physics/multiphase/BreakingWaves.H</title>
<!-- Node1 -->
<g id="Node000001" class="node">
<title>Node1</title>
<g id="a_Node000001"><a xlink:title=" ">
<polygon fill="#999999" stroke="#666666" points="716,-206 513,-206 513,-165 716,-165 716,-206"/>
<text text-anchor="start" x="521" y="-194" font-family="Helvetica,sans-Serif" font-size="10.00">/home/runner/work/amr</text>
<text text-anchor="start" x="521" y="-183" font-family="Helvetica,sans-Serif" font-size="10.00">&#45;wind/amr&#45;wind/amr&#45;wind</text>
<text text-anchor="middle" x="614.5" y="-172" font-family="Helvetica,sans-Serif" font-size="10.00">/physics/multiphase/BreakingWaves.H</text>
</a>
</g>
</g>
<!-- Node2 -->
<g id="Node000002" class="node">
<title>Node2</title>
<g id="a_Node000002"><a xlink:href="_physics_8_h.html" target="_top" xlink:title=" ">
<polygon fill="white" stroke="#666666" points="396,-129 259,-129 259,-110 396,-110 396,-129"/>
<text text-anchor="middle" x="327.5" y="-117" font-family="Helvetica,sans-Serif" font-size="10.00">amr&#45;wind/core/Physics.H</text>
</a>
</g>
</g>
<!-- Node1&#45;&gt;Node2 -->
<g id="edge1_Node000001_Node000002" class="edge">
<title>Node1&#45;&gt;Node2</title>
<g id="a_edge1_Node000001_Node000002"><a xlink:title=" ">
<path fill="none" stroke="#63b8ff" d="M526.83,-164.95C477.03,-153.85 416.61,-140.37 375.43,-131.19"/>
<polygon fill="#63b8ff" stroke="#63b8ff" points="376.18,-127.77 365.65,-129.01 374.65,-134.6 376.18,-127.77"/>
</a>
</g>
</g>
<!-- Node14 -->
<g id="Node000014" class="node">
<title>Node14</title>
<g id="a_Node000014"><a xlink:href="_sim_time_8_h.html" target="_top" xlink:title=" ">
<polygon fill="white" stroke="#666666" points="855.5,-129 711.5,-129 711.5,-110 855.5,-110 855.5,-129"/>
<text text-anchor="middle" x="783.5" y="-117" font-family="Helvetica,sans-Serif" font-size="10.00">amr&#45;wind/core/SimTime.H</text>
</a>
</g>
</g>
<!-- Node1&#45;&gt;Node14 -->
<g id="edge15_Node000001_Node000014" class="edge">
<title>Node1&#45;&gt;Node14</title>
<g id="a_edge15_Node000001_Node000014"><a xlink:title=" ">
<path fill="none" stroke="#63b8ff" d="M666.12,-164.95C693.94,-154.42 727.38,-141.75 751.44,-132.64"/>
<polygon fill="#63b8ff" stroke="#63b8ff" points="752.7,-135.91 760.81,-129.09 750.22,-129.36 752.7,-135.91"/>
</a>
</g>
</g>
<!-- Node15 -->
<g id="Node000015" class="node">
<title>Node15</title>
<g id="a_Node000015"><a xlink:title=" ">
<polygon fill="#e0e0e0" stroke="#999999" points="660.5,-74 568.5,-74 568.5,-55 660.5,-55 660.5,-74"/>
<text text-anchor="middle" x="614.5" y="-62" font-family="Helvetica,sans-Serif" font-size="10.00">AMReX_REAL.H</text>
</a>
</g>
</g>
<!-- Node1&#45;&gt;Node15 -->
<g id="edge22_Node000001_Node000015" class="edge">
<title>Node1&#45;&gt;Node15</title>
<g id="a_edge22_Node000001_Node000015"><a xlink:title=" ">
<path fill="none" stroke="#63b8ff" d="M614.5,-164.85C614.5,-142.48 614.5,-106.19 614.5,-84.21"/>
<polygon fill="#63b8ff" stroke="#63b8ff" points="618,-84.18 614.5,-74.18 611,-84.18 618,-84.18"/>
</a>
</g>
</g>
<!-- Node3 -->
<g id="Node000003" class="node">
<title>Node3</title>
<g id="a_Node000003"><a xlink:href="_factory_8_h.html" target="_top" xlink:title=" ">
<polygon fill="white" stroke="#666666" points="394.5,-74 260.5,-74 260.5,-55 394.5,-55 394.5,-74"/>
<text text-anchor="middle" x="327.5" y="-62" font-family="Helvetica,sans-Serif" font-size="10.00">amr&#45;wind/core/Factory.H</text>
</a>
</g>
</g>
<!-- Node2&#45;&gt;Node3 -->
<g id="edge2_Node000002_Node000003" class="edge">
<title>Node2&#45;&gt;Node3</title>
<g id="a_edge2_Node000002_Node000003"><a xlink:title=" ">
<path fill="none" stroke="#63b8ff" d="M327.5,-109.75C327.5,-102.8 327.5,-92.85 327.5,-84.13"/>
<polygon fill="#63b8ff" stroke="#63b8ff" points="331,-84.09 327.5,-74.09 324,-84.09 331,-84.09"/>
</a>
</g>
</g>
<!-- Node9 -->
<g id="Node000009" class="node">
<title>Node9</title>
<g id="a_Node000009"><a xlink:href="_coll_mgr_8_h.html" target="_top" xlink:title=" ">
<polygon fill="white" stroke="#666666" points="550,-74 413,-74 413,-55 550,-55 550,-74"/>
<text text-anchor="middle" x="481.5" y="-62" font-family="Helvetica,sans-Serif" font-size="10.00">amr&#45;wind/core/CollMgr.H</text>
</a>
</g>
</g>
<!-- Node2&#45;&gt;Node9 -->
<g id="edge8_Node000002_Node000009" class="edge">
<title>Node2&#45;&gt;Node9</title>
<g id="a_edge8_Node000002_Node000009"><a xlink:title=" ">
<path fill="none" stroke="#63b8ff" d="M352.24,-109.98C377.87,-101.16 418.13,-87.31 446.91,-77.41"/>
<polygon fill="#63b8ff" stroke="#63b8ff" points="448.25,-80.65 456.56,-74.08 445.97,-74.03 448.25,-80.65"/>
</a>
</g>
</g>
<!-- Node12 -->
<g id="Node000012" class="node">
<title>Node12</title>
<g id="a_Node000012"><a xlink:title=" ">
<polygon fill="#e0e0e0" stroke="#999999" points="109,-74 0,-74 0,-55 109,-55 109,-74"/>
<text text-anchor="middle" x="54.5" y="-62" font-family="Helvetica,sans-Serif" font-size="10.00">AMReX_MultiFab.H</text>
</a>
</g>
</g>
<!-- Node2&#45;&gt;Node12 -->
<g id="edge13_Node000002_Node000012" class="edge">
<title>Node2&#45;&gt;Node12</title>
<g id="a_edge13_Node000002_Node000012"><a xlink:title=" ">
<path fill="none" stroke="#63b8ff" d="M283.64,-109.98C236.02,-100.74 159.92,-85.97 108.62,-76.01"/>
<polygon fill="#63b8ff" stroke="#63b8ff" points="109.19,-72.55 98.71,-74.08 107.86,-79.42 109.19,-72.55"/>
</a>
</g>
</g>
<!-- Node13 -->
<g id="Node000013" class="node">
<title>Node13</title>
<g id="a_Node000013"><a xlink:title=" ">
<polygon fill="#e0e0e0" stroke="#999999" points="242,-74 127,-74 127,-55 242,-55 242,-74"/>
<text text-anchor="middle" x="184.5" y="-62" font-family="Helvetica,sans-Serif" font-size="10.00">AMReX_Geometry.H</text>
</a>
</g>
</g>
<!-- Node2&#45;&gt;Node13 -->
<g id="edge14_Node000002_Node000013" class="edge">
<title>Node2&#45;&gt;Node13</title>
<g id="a_edge14_Node000002_Node000013"><a xlink:title=" ">
<path fill="none" stroke="#63b8ff" d="M304.52,-109.98C281,-101.27 244.21,-87.63 217.56,-77.75"/>
<polygon fill="#63b8ff" stroke="#63b8ff" points="218.49,-74.36 207.89,-74.17 216.05,-80.93 218.49,-74.36"/>
</a>
</g>
</g>
<!-- Node4 -->
<g id="Node000004" class="node">
<title>Node4</title>
<g id="a_Node000004"><a xlink:title=" ">
<polygon fill="#e0e0e0" stroke="#999999" points="528.5,-19 470.5,-19 470.5,0 528.5,0 528.5,-19"/>
<text text-anchor="middle" x="499.5" y="-7" font-family="Helvetica,sans-Serif" font-size="10.00">memory</text>
</a>
</g>
</g>
<!-- Node3&#45;&gt;Node4 -->
<g id="edge3_Node000003_Node000004" class="edge">
<title>Node3&#45;&gt;Node4</title>
<g id="a_edge3_Node000003_Node000004"><a xlink:title=" ">
<path fill="none" stroke="#63b8ff" d="M355.13,-54.98C384.01,-46.09 429.51,-32.07 461.7,-22.15"/>
<polygon fill="#63b8ff" stroke="#63b8ff" points="463.12,-25.37 471.65,-19.08 461.06,-18.68 463.12,-25.37"/>
</a>
</g>
</g>
<!-- Node5 -->
<g id="Node000005" class="node">
<title>Node5</title>
<g id="a_Node000005"><a xlink:title=" ">
<polygon fill="#e0e0e0" stroke="#999999" points="452,-19 359,-19 359,0 452,0 452,-19"/>
<text text-anchor="middle" x="405.5" y="-7" font-family="Helvetica,sans-Serif" font-size="10.00">unordered_map</text>
</a>
</g>
</g>
<!-- Node3&#45;&gt;Node5 -->
<g id="edge4_Node000003_Node000005" class="edge">
<title>Node3&#45;&gt;Node5</title>
<g id="a_edge4_Node000003_Node000005"><a xlink:title=" ">
<path fill="none" stroke="#63b8ff" d="M340.03,-54.98C351.9,-46.92 369.96,-34.65 384.11,-25.03"/>
<polygon fill="#63b8ff" stroke="#63b8ff" points="386.44,-27.69 392.74,-19.17 382.5,-21.9 386.44,-27.69"/>
</a>
</g>
</g>
<!-- Node6 -->
<g id="Node000006" class="node">
<title>Node6</title>
<g id="a_Node000006"><a xlink:title=" ">
<polygon fill="#e0e0e0" stroke="#999999" points="152.5,-19 92.5,-19 92.5,0 152.5,0 152.5,-19"/>
<text text-anchor="middle" x="122.5" y="-7" font-family="Helvetica,sans-Serif" font-size="10.00">iostream</text>
</a>
</g>
</g>
<!-- Node3&#45;&gt;Node6 -->
<g id="edge5_Node000003_Node000006" class="edge">
<title>Node3&#45;&gt;Node6</title>
<g id="a_edge5_Node000003_Node000006"><a xlink:title=" ">
<path fill="none" stroke="#63b8ff" d="M294.56,-54.98C258.61,-45.69 201.05,-30.81 162.53,-20.85"/>
<polygon fill="#63b8ff" stroke="#63b8ff" points="163.24,-17.42 152.68,-18.3 161.49,-24.2 163.24,-17.42"/>
</a>
</g>
</g>
<!-- Node7 -->
<g id="Node000007" class="node">
<title>Node7</title>
<g id="a_Node000007"><a xlink:title=" ">
<polygon fill="#e0e0e0" stroke="#999999" points="260.5,-19 170.5,-19 170.5,0 260.5,0 260.5,-19"/>
<text text-anchor="middle" x="215.5" y="-7" font-family="Helvetica,sans-Serif" font-size="10.00">AMReX_Print.H</text>
</a>
</g>
</g>
<!-- Node3&#45;&gt;Node7 -->
<g id="edge6_Node000003_Node000007" class="edge">
<title>Node3&#45;&gt;Node7</title>
<g id="a_edge6_Node000003_Node000007"><a xlink:title=" ">
<path fill="none" stroke="#63b8ff" d="M309.51,-54.98C291.57,-46.5 263.78,-33.35 243.07,-23.54"/>
<polygon fill="#63b8ff" stroke="#63b8ff" points="244.36,-20.28 233.82,-19.17 241.36,-26.61 244.36,-20.28"/>
</a>
</g>
</g>
<!-- Node8 -->
<g id="Node000008" class="node">
<title>Node8</title>
<g id="a_Node000008"><a xlink:title=" ">
<polygon fill="#e0e0e0" stroke="#999999" points="340.5,-19 278.5,-19 278.5,0 340.5,0 340.5,-19"/>
<text text-anchor="middle" x="309.5" y="-7" font-family="Helvetica,sans-Serif" font-size="10.00">AMReX.H</text>
</a>
</g>
</g>
<!-- Node3&#45;&gt;Node8 -->
<g id="edge7_Node000003_Node000008" class="edge">
<title>Node3&#45;&gt;Node8</title>
<g id="a_edge7_Node000003_Node000008"><a xlink:title=" ">
<path fill="none" stroke="#63b8ff" d="M324.53,-54.75C322.14,-47.72 318.71,-37.62 315.73,-28.84"/>
<polygon fill="#63b8ff" stroke="#63b8ff" points="318.95,-27.43 312.42,-19.09 312.32,-29.68 318.95,-27.43"/>
</a>
</g>
</g>
<!-- Node9&#45;&gt;Node4 -->
<g id="edge10_Node000009_Node000004" class="edge">
<title>Node9&#45;&gt;Node4</title>
<g id="a_edge10_Node000009_Node000004"><a xlink:title=" ">
<path fill="none" stroke="#63b8ff" d="M484.47,-54.75C486.86,-47.72 490.29,-37.62 493.27,-28.84"/>
<polygon fill="#63b8ff" stroke="#63b8ff" points="496.68,-29.68 496.58,-19.09 490.05,-27.43 496.68,-29.68"/>
</a>
</g>
</g>
<!-- Node9&#45;&gt;Node5 -->
<g id="edge11_Node000009_Node000005" class="edge">
<title>Node9&#45;&gt;Node5</title>
<g id="a_edge11_Node000009_Node000005"><a xlink:title=" ">
<path fill="none" stroke="#63b8ff" d="M469.29,-54.98C457.72,-46.92 440.12,-34.65 426.34,-25.03"/>
<polygon fill="#63b8ff" stroke="#63b8ff" points="428.14,-22.02 417.93,-19.17 424.13,-27.76 428.14,-22.02"/>
</a>
</g>
</g>
<!-- Node10 -->
<g id="Node000010" class="node">
<title>Node10</title>
<g id="a_Node000010"><a xlink:title=" ">
<polygon fill="#e0e0e0" stroke="#999999" points="590.5,-19 546.5,-19 546.5,0 590.5,0 590.5,-19"/>
<text text-anchor="middle" x="568.5" y="-7" font-family="Helvetica,sans-Serif" font-size="10.00">string</text>
</a>
</g>
</g>
<!-- Node9&#45;&gt;Node10 -->
<g id="edge9_Node000009_Node000010" class="edge">
<title>Node9&#45;&gt;Node10</title>
<g id="a_edge9_Node000009_Node000010"><a xlink:title=" ">
<path fill="none" stroke="#63b8ff" d="M495.48,-54.98C508.97,-46.77 529.63,-34.18 545.54,-24.49"/>
<polygon fill="#63b8ff" stroke="#63b8ff" points="547.55,-27.36 554.27,-19.17 543.91,-21.38 547.55,-27.36"/>
</a>
</g>
</g>
<!-- Node11 -->
<g id="Node000011" class="node">
<title>Node11</title>
<g id="a_Node000011"><a xlink:title=" ">
<polygon fill="#e0e0e0" stroke="#999999" points="722.5,-19 624.5,-19 624.5,0 722.5,0 722.5,-19"/>
<text text-anchor="middle" x="673.5" y="-7" font-family="Helvetica,sans-Serif" font-size="10.00">AMReX_Vector.H</text>
</a>
</g>
</g>
<!-- Node9&#45;&gt;Node11 -->
<g id="edge12_Node000009_Node000011" class="edge">
<title>Node9&#45;&gt;Node11</title>
<g id="a_edge12_Node000009_Node000011"><a xlink:title=" ">
<path fill="none" stroke="#63b8ff" d="M512.35,-54.98C545,-45.97 596.7,-31.7 632.7,-21.76"/>
<polygon fill="#63b8ff" stroke="#63b8ff" points="633.7,-25.12 642.41,-19.08 631.84,-18.37 633.7,-25.12"/>
</a>
</g>
</g>
<!-- Node14&#45;&gt;Node11 -->
<g id="edge19_Node000014_Node000011" class="edge">
<title>Node14&#45;&gt;Node11</title>
<g id="a_edge19_Node000014_Node000011"><a xlink:title=" ">
<path fill="none" stroke="#63b8ff" d="M762.38,-109.97C745.83,-102.46 723.09,-90.19 707.5,-74 694.92,-60.93 685.68,-42.29 680.04,-28.59"/>
<polygon fill="#63b8ff" stroke="#63b8ff" points="683.29,-27.3 676.42,-19.24 676.77,-29.83 683.29,-27.3"/>
</a>
</g>
</g>
<!-- Node14&#45;&gt;Node15 -->
<g id="edge16_Node000014_Node000015" class="edge">
<title>Node14&#45;&gt;Node15</title>
<g id="a_edge16_Node000014_Node000015"><a xlink:title=" ">
<path fill="none" stroke="#63b8ff" d="M756.35,-109.98C727.97,-101.09 683.27,-87.07 651.64,-77.15"/>
<polygon fill="#63b8ff" stroke="#63b8ff" points="652.45,-73.73 641.87,-74.08 650.36,-80.41 652.45,-73.73"/>
</a>
</g>
</g>
<!-- Node16 -->
<g id="Node000016" class="node">
<title>Node16</title>
<g id="a_Node000016"><a xlink:title=" ">
<polygon fill="#e0e0e0" stroke="#999999" points="850.5,-74 716.5,-74 716.5,-55 850.5,-55 850.5,-74"/>
<text text-anchor="middle" x="783.5" y="-62" font-family="Helvetica,sans-Serif" font-size="10.00">AMReX_GpuQualifiers.H</text>
</a>
</g>
</g>
<!-- Node14&#45;&gt;Node16 -->
<g id="edge17_Node000014_Node000016" class="edge">
<title>Node14&#45;&gt;Node16</title>
<g id="a_edge17_Node000014_Node000016"><a xlink:title=" ">
<path fill="none" stroke="#63b8ff" d="M783.5,-109.75C783.5,-102.8 783.5,-92.85 783.5,-84.13"/>
<polygon fill="#63b8ff" stroke="#63b8ff" points="787,-84.09 783.5,-74.09 780,-84.09 787,-84.09"/>
</a>
</g>
</g>
<!-- Node17 -->
<g id="Node000017" class="node">
<title>Node17</title>
<g id="a_Node000017"><a xlink:title=" ">
<polygon fill="#e0e0e0" stroke="#999999" points="984.5,-74 868.5,-74 868.5,-55 984.5,-55 984.5,-74"/>
<text text-anchor="middle" x="926.5" y="-62" font-family="Helvetica,sans-Serif" font-size="10.00">AMReX_Extension.H</text>
</a>
</g>
</g>
<!-- Node14&#45;&gt;Node17 -->
<g id="edge18_Node000014_Node000017" class="edge">
<title>Node14&#45;&gt;Node17</title>
<g id="a_edge18_Node000014_Node000017"><a xlink:title=" ">
<path fill="none" stroke="#63b8ff" d="M806.48,-109.98C830,-101.27 866.79,-87.63 893.44,-77.75"/>
<polygon fill="#63b8ff" stroke="#63b8ff" points="894.95,-80.93 903.11,-74.17 892.51,-74.36 894.95,-80.93"/>
</a>
</g>
</g>
<!-- Node18 -->
<g id="Node000018" class="node">
<title>Node18</title>
<g id="a_Node000018"><a xlink:title=" ">
<polygon fill="#e0e0e0" stroke="#999999" points="1066.5,-74 1002.5,-74 1002.5,-55 1066.5,-55 1066.5,-74"/>
<text text-anchor="middle" x="1034.5" y="-62" font-family="Helvetica,sans-Serif" font-size="10.00">algorithm</text>
</a>
</g>
</g>
<!-- Node14&#45;&gt;Node18 -->
<g id="edge20_Node000014_Node000018" class="edge">
<title>Node14&#45;&gt;Node18</title>
<g id="a_edge20_Node000014_Node000018"><a xlink:title=" ">
<path fill="none" stroke="#63b8ff" d="M823.83,-109.98C870.05,-100.23 945.45,-84.3 992.4,-74.39"/>
<polygon fill="#63b8ff" stroke="#63b8ff" points="993.19,-77.8 1002.25,-72.31 991.74,-70.95 993.19,-77.8"/>
</a>
</g>
</g>
<!-- Node19 -->
<g id="Node000019" class="node">
<title>Node19</title>
<g id="a_Node000019"><a xlink:title=" ">
<polygon fill="#e0e0e0" stroke="#999999" points="1132,-74 1085,-74 1085,-55 1132,-55 1132,-74"/>
<text text-anchor="middle" x="1108.5" y="-62" font-family="Helvetica,sans-Serif" font-size="10.00">cmath</text>
</a>
</g>
</g>
<!-- Node14&#45;&gt;Node19 -->
<g id="edge21_Node000014_Node000019" class="edge">
<title>Node14&#45;&gt;Node19</title>
<g id="a_edge21_Node000014_Node000019"><a xlink:title=" ">
<path fill="none" stroke="#63b8ff" d="M852.58,-109.97C909.65,-102.47 992.95,-90.47 1074.8,-73.95"/>
<polygon fill="#63b8ff" stroke="#63b8ff" points="1075.68,-77.35 1084.77,-71.92 1074.28,-70.49 1075.68,-77.35"/>
</a>
</g>
</g>
</g>
</svg>
