<?xml version="1.0" encoding="UTF-8" standalone="no"?>
<!DOCTYPE svg PUBLIC "-//W3C//DTD SVG 1.1//EN"
 "http://www.w3.org/Graphics/SVG/1.1/DTD/svg11.dtd">
<!-- Generated by graphviz version 2.43.0 (0)
 -->
<!-- Title: /home/runner/work/amr&#45;wind/amr&#45;wind/amr&#45;wind/transport_models/ConstTransport.H Pages: 1 -->
<svg width="1630pt" height="280pt"
 viewBox="0.00 0.00 1629.50 280.00" xmlns="http://www.w3.org/2000/svg" xmlns:xlink="http://www.w3.org/1999/xlink">
<g id="graph0" class="graph" transform="scale(1 1) rotate(0) translate(4 276)">
<title>/home/runner/work/amr&#45;wind/amr&#45;wind/amr&#45;wind/transport_models/ConstTransport.H</title>
<!-- Node1 -->
<g id="Node000001" class="node">
<title>Node1</title>
<g id="a_Node000001"><a xlink:title=" ">
<polygon fill="#999999" stroke="#666666" points="998,-272 807,-272 807,-231 998,-231 998,-272"/>
<text text-anchor="start" x="815" y="-260" font-family="Helvetica,sans-Serif" font-size="10.00">/home/runner/work/amr</text>
<text text-anchor="start" x="815" y="-249" font-family="Helvetica,sans-Serif" font-size="10.00">&#45;wind/amr&#45;wind/amr&#45;wind</text>
<text text-anchor="middle" x="902.5" y="-238" font-family="Helvetica,sans-Serif" font-size="10.00">/transport_models/ConstTransport.H</text>
</a>
</g>
</g>
<!-- Node2 -->
<g id="Node000002" class="node">
<title>Node2</title>
<g id="a_Node000002"><a xlink:href="_turb_model_defs_8_h.html" target="_top" xlink:title=" ">
<polygon fill="white" stroke="#666666" points="981.5,-195 823.5,-195 823.5,-154 981.5,-154 981.5,-195"/>
<text text-anchor="start" x="831.5" y="-183" font-family="Helvetica,sans-Serif" font-size="10.00">/home/runner/work/amr</text>
<text text-anchor="start" x="831.5" y="-172" font-family="Helvetica,sans-Serif" font-size="10.00">&#45;wind/amr&#45;wind/amr&#45;wind</text>
<text text-anchor="middle" x="902.5" y="-161" font-family="Helvetica,sans-Serif" font-size="10.00">/turbulence/TurbModelDefs.H</text>
</a>
</g>
</g>
<!-- Node1&#45;&gt;Node2 -->
<g id="edge1_Node000001_Node000002" class="edge">
<title>Node1&#45;&gt;Node2</title>
<g id="a_edge1_Node000001_Node000002"><a xlink:title=" ">
<path fill="none" stroke="#63b8ff" d="M902.5,-220.69C902.5,-212.08 902.5,-202.9 902.5,-195.07"/>
<polygon fill="#63b8ff" stroke="#63b8ff" points="899,-220.79 902.5,-230.79 906,-220.79 899,-220.79"/>
</a>
</g>
</g>
<!-- Node3 -->
<g id="Node000003" class="node">
<title>Node3</title>
<g id="a_Node000003"><a xlink:href="_a_m_d_8cpp.html" target="_top" xlink:title=" ">
<polygon fill="white" stroke="#666666" points="143,-118 0,-118 0,-77 143,-77 143,-118"/>
<text text-anchor="start" x="8" y="-106" font-family="Helvetica,sans-Serif" font-size="10.00">/home/runner/work/amr</text>
<text text-anchor="start" x="8" y="-95" font-family="Helvetica,sans-Serif" font-size="10.00">&#45;wind/amr&#45;wind/amr&#45;wind</text>
<text text-anchor="middle" x="71.5" y="-84" font-family="Helvetica,sans-Serif" font-size="10.00">/turbulence/LES/AMD.cpp</text>
</a>
</g>
</g>
<!-- Node2&#45;&gt;Node3 -->
<g id="edge2_Node000002_Node000003" class="edge">
<title>Node2&#45;&gt;Node3</title>
<g id="a_edge2_Node000002_Node000003"><a xlink:title=" ">
<path fill="none" stroke="#63b8ff" d="M813.01,-171.66C671.68,-167.69 388.52,-155.38 151.5,-118 148.82,-117.58 146.09,-117.11 143.34,-116.61"/>
<polygon fill="#63b8ff" stroke="#63b8ff" points="813.26,-175.17 823.35,-171.95 813.45,-168.17 813.26,-175.17"/>
</a>
</g>
</g>
<!-- Node4 -->
<g id="Node000004" class="node">
<title>Node4</title>
<g id="a_Node000004"><a xlink:href="_a_m_d_no_therm_8cpp.html" target="_top" xlink:title=" ">
<polygon fill="white" stroke="#666666" points="344,-118 161,-118 161,-77 344,-77 344,-118"/>
<text text-anchor="start" x="169" y="-106" font-family="Helvetica,sans-Serif" font-size="10.00">/home/runner/work/amr</text>
<text text-anchor="start" x="169" y="-95" font-family="Helvetica,sans-Serif" font-size="10.00">&#45;wind/amr&#45;wind/amr&#45;wind</text>
<text text-anchor="middle" x="252.5" y="-84" font-family="Helvetica,sans-Serif" font-size="10.00">/turbulence/LES/AMDNoTherm.cpp</text>
</a>
</g>
</g>
<!-- Node2&#45;&gt;Node4 -->
<g id="edge3_Node000002_Node000004" class="edge">
<title>Node2&#45;&gt;Node4</title>
<g id="a_edge3_Node000002_Node000004"><a xlink:title=" ">
<path fill="none" stroke="#63b8ff" d="M812.84,-166.93C703.89,-158.37 514.65,-141.65 353.5,-118 350.41,-117.55 347.27,-117.06 344.1,-116.56"/>
<polygon fill="#63b8ff" stroke="#63b8ff" points="812.89,-170.44 823.13,-167.73 813.43,-163.46 812.89,-170.44"/>
</a>
</g>
</g>
<!-- Node5 -->
<g id="Node000005" class="node">
<title>Node5</title>
<g id="a_Node000005"><a xlink:href="_kosovic_8cpp.html" target="_top" xlink:title=" ">
<polygon fill="white" stroke="#666666" points="514.5,-118 362.5,-118 362.5,-77 514.5,-77 514.5,-118"/>
<text text-anchor="start" x="370.5" y="-106" font-family="Helvetica,sans-Serif" font-size="10.00">/home/runner/work/amr</text>
<text text-anchor="start" x="370.5" y="-95" font-family="Helvetica,sans-Serif" font-size="10.00">&#45;wind/amr&#45;wind/amr&#45;wind</text>
<text text-anchor="middle" x="438.5" y="-84" font-family="Helvetica,sans-Serif" font-size="10.00">/turbulence/LES/Kosovic.cpp</text>
</a>
</g>
</g>
<!-- Node2&#45;&gt;Node5 -->
<g id="edge4_Node000002_Node000005" class="edge">
<title>Node2&#45;&gt;Node5</title>
<g id="a_edge4_Node000002_Node000005"><a xlink:title=" ">
<path fill="none" stroke="#63b8ff" d="M813.29,-162.49C736.28,-152.49 622.18,-136.51 523.5,-118 520.67,-117.47 517.8,-116.91 514.9,-116.33"/>
<polygon fill="#63b8ff" stroke="#63b8ff" points="813.07,-165.99 823.44,-163.8 813.97,-159.05 813.07,-165.99"/>
</a>
</g>
</g>
<!-- Node6 -->
<g id="Node000006" class="node">
<title>Node6</title>
<g id="a_Node000006"><a xlink:href="_one_eq_ksgs_8cpp.html" target="_top" xlink:title=" ">
<polygon fill="white" stroke="#666666" points="702.5,-118 532.5,-118 532.5,-77 702.5,-77 702.5,-118"/>
<text text-anchor="start" x="540.5" y="-106" font-family="Helvetica,sans-Serif" font-size="10.00">/home/runner/work/amr</text>
<text text-anchor="start" x="540.5" y="-95" font-family="Helvetica,sans-Serif" font-size="10.00">&#45;wind/amr&#45;wind/amr&#45;wind</text>
<text text-anchor="middle" x="617.5" y="-84" font-family="Helvetica,sans-Serif" font-size="10.00">/turbulence/LES/OneEqKsgs.cpp</text>
</a>
</g>
</g>
<!-- Node2&#45;&gt;Node6 -->
<g id="edge5_Node000002_Node000006" class="edge">
<title>Node2&#45;&gt;Node6</title>
<g id="a_edge5_Node000002_Node000006"><a xlink:title=" ">
<path fill="none" stroke="#63b8ff" d="M818.58,-151.42C778.37,-140.84 730.63,-128.27 691.76,-118.04"/>
<polygon fill="#63b8ff" stroke="#63b8ff" points="817.8,-154.83 828.36,-153.99 819.58,-148.06 817.8,-154.83"/>
</a>
</g>
</g>
<!-- Node7 -->
<g id="Node000007" class="node">
<title>Node7</title>
<g id="a_Node000007"><a xlink:href="_smagorinsky_8cpp.html" target="_top" xlink:title=" ">
<polygon fill="white" stroke="#666666" points="896.5,-118 720.5,-118 720.5,-77 896.5,-77 896.5,-118"/>
<text text-anchor="start" x="728.5" y="-106" font-family="Helvetica,sans-Serif" font-size="10.00">/home/runner/work/amr</text>
<text text-anchor="start" x="728.5" y="-95" font-family="Helvetica,sans-Serif" font-size="10.00">&#45;wind/amr&#45;wind/amr&#45;wind</text>
<text text-anchor="middle" x="808.5" y="-84" font-family="Helvetica,sans-Serif" font-size="10.00">/turbulence/LES/Smagorinsky.cpp</text>
</a>
</g>
</g>
<!-- Node2&#45;&gt;Node7 -->
<g id="edge6_Node000002_Node000007" class="edge">
<title>Node2&#45;&gt;Node7</title>
<g id="a_edge6_Node000002_Node000007"><a xlink:title=" ">
<path fill="none" stroke="#63b8ff" d="M869.72,-147.35C857.67,-137.73 844.24,-127.01 833.03,-118.07"/>
<polygon fill="#63b8ff" stroke="#63b8ff" points="867.8,-150.29 877.8,-153.79 872.17,-144.82 867.8,-150.29"/>
</a>
</g>
</g>
<!-- Node8 -->
<g id="Node000008" class="node">
<title>Node8</title>
<g id="a_Node000008"><a xlink:href="_laminar_model_8cpp.html" target="_top" xlink:title=" ">
<polygon fill="white" stroke="#666666" points="1078.5,-118 914.5,-118 914.5,-77 1078.5,-77 1078.5,-118"/>
<text text-anchor="start" x="922.5" y="-106" font-family="Helvetica,sans-Serif" font-size="10.00">/home/runner/work/amr</text>
<text text-anchor="start" x="922.5" y="-95" font-family="Helvetica,sans-Serif" font-size="10.00">&#45;wind/amr&#45;wind/amr&#45;wind</text>
<text text-anchor="middle" x="996.5" y="-84" font-family="Helvetica,sans-Serif" font-size="10.00">/turbulence/LaminarModel.cpp</text>
</a>
</g>
</g>
<!-- Node2&#45;&gt;Node8 -->
<g id="edge7_Node000002_Node000008" class="edge">
<title>Node2&#45;&gt;Node8</title>
<g id="a_edge7_Node000002_Node000008"><a xlink:title=" ">
<path fill="none" stroke="#63b8ff" d="M935.28,-147.35C947.33,-137.73 960.76,-127.01 971.97,-118.07"/>
<polygon fill="#63b8ff" stroke="#63b8ff" points="932.83,-144.82 927.2,-153.79 937.2,-150.29 932.83,-144.82"/>
</a>
</g>
</g>
<!-- Node9 -->
<g id="Node000009" class="node">
<title>Node9</title>
<g id="a_Node000009"><a xlink:href="_k_l_axell_8cpp.html" target="_top" xlink:title=" ">
<polygon fill="white" stroke="#666666" points="1258,-118 1097,-118 1097,-77 1258,-77 1258,-118"/>
<text text-anchor="start" x="1105" y="-106" font-family="Helvetica,sans-Serif" font-size="10.00">/home/runner/work/amr</text>
<text text-anchor="start" x="1105" y="-95" font-family="Helvetica,sans-Serif" font-size="10.00">&#45;wind/amr&#45;wind/amr&#45;wind</text>
<text text-anchor="middle" x="1177.5" y="-84" font-family="Helvetica,sans-Serif" font-size="10.00">/turbulence/RANS/KLAxell.cpp</text>
</a>
</g>
</g>
<!-- Node2&#45;&gt;Node9 -->
<g id="edge8_Node000002_Node000009" class="edge">
<title>Node2&#45;&gt;Node9</title>
<g id="a_edge8_Node000002_Node000009"><a xlink:title=" ">
<path fill="none" stroke="#63b8ff" d="M983.72,-151.35C1022.47,-140.78 1068.42,-128.25 1105.85,-118.04"/>
<polygon fill="#63b8ff" stroke="#63b8ff" points="982.76,-147.98 974.04,-153.99 984.6,-154.74 982.76,-147.98"/>
</a>
</g>
</g>
<!-- Node10 -->
<g id="Node000010" class="node">
<title>Node10</title>
<g id="a_Node000010"><a xlink:href="_k_omega_s_s_t_8cpp.html" target="_top" xlink:title=" ">
<polygon fill="white" stroke="#666666" points="1385,-41 1202,-41 1202,0 1385,0 1385,-41"/>
<text text-anchor="start" x="1210" y="-29" font-family="Helvetica,sans-Serif" font-size="10.00">/home/runner/work/amr</text>
<text text-anchor="start" x="1210" y="-18" font-family="Helvetica,sans-Serif" font-size="10.00">&#45;wind/amr&#45;wind/amr&#45;wind</text>
<text text-anchor="middle" x="1293.5" y="-7" font-family="Helvetica,sans-Serif" font-size="10.00">/turbulence/RANS/KOmegaSST.cpp</text>
</a>
</g>
</g>
<!-- Node2&#45;&gt;Node10 -->
<g id="edge9_Node000002_Node000010" class="edge">
<title>Node2&#45;&gt;Node10</title>
<g id="a_edge9_Node000002_Node000010"><a xlink:title=" ">
<path fill="none" stroke="#63b8ff" d="M992.01,-170.74C1086.42,-165.98 1226.9,-153.06 1266.5,-118 1288.38,-98.63 1293.17,-63.12 1293.88,-41"/>
<polygon fill="#63b8ff" stroke="#63b8ff" points="991.7,-167.25 981.88,-171.23 992.04,-174.24 991.7,-167.25"/>
</a>
</g>
</g>
<!-- Node11 -->
<g id="Node000011" class="node">
<title>Node11</title>
<g id="a_Node000011"><a xlink:href="_k_omega_s_s_t_i_8_h.html" target="_top" xlink:title=" ">
<polygon fill="white" stroke="#666666" points="1491,-118 1314,-118 1314,-77 1491,-77 1491,-118"/>
<text text-anchor="start" x="1322" y="-106" font-family="Helvetica,sans-Serif" font-size="10.00">/home/runner/work/amr</text>
<text text-anchor="start" x="1322" y="-95" font-family="Helvetica,sans-Serif" font-size="10.00">&#45;wind/amr&#45;wind/amr&#45;wind</text>
<text text-anchor="middle" x="1402.5" y="-84" font-family="Helvetica,sans-Serif" font-size="10.00">/turbulence/RANS/KOmegaSSTI.H</text>
</a>
</g>
</g>
<!-- Node2&#45;&gt;Node11 -->
<g id="edge10_Node000002_Node000011" class="edge">
<title>Node2&#45;&gt;Node11</title>
<g id="a_edge10_Node000002_Node000011"><a xlink:title=" ">
<path fill="none" stroke="#63b8ff" d="M991.73,-162.36C1072.52,-151.97 1194.72,-135.48 1300.5,-118 1304.86,-117.28 1309.32,-116.52 1313.82,-115.73"/>
<polygon fill="#63b8ff" stroke="#63b8ff" points="991.06,-158.92 981.59,-163.66 991.95,-165.86 991.06,-158.92"/>
</a>
</g>
</g>
<!-- Node12 -->
<g id="Node000012" class="node">
<title>Node12</title>
<g id="a_Node000012"><a xlink:href="_k_omega_s_s_t_i_d_d_e_s_8cpp.html" target="_top" xlink:title=" ">
<polygon fill="white" stroke="#666666" points="1621.5,-41 1407.5,-41 1407.5,0 1621.5,0 1621.5,-41"/>
<text text-anchor="start" x="1415.5" y="-29" font-family="Helvetica,sans-Serif" font-size="10.00">/home/runner/work/amr</text>
<text text-anchor="start" x="1415.5" y="-18" font-family="Helvetica,sans-Serif" font-size="10.00">&#45;wind/amr&#45;wind/amr&#45;wind</text>
<text text-anchor="middle" x="1514.5" y="-7" font-family="Helvetica,sans-Serif" font-size="10.00">/turbulence/RANS/KOmegaSSTIDDES.cpp</text>
</a>
</g>
</g>
<!-- Node2&#45;&gt;Node12 -->
<g id="edge13_Node000002_Node000012" class="edge">
<title>Node2&#45;&gt;Node12</title>
<g id="a_edge13_Node000002_Node000012"><a xlink:title=" ">
<path fill="none" stroke="#63b8ff" d="M991.88,-171.15C1149.41,-166.16 1463.33,-152.02 1499.5,-118 1520.13,-98.6 1520.23,-63.45 1517.8,-41.35"/>
<polygon fill="#63b8ff" stroke="#63b8ff" points="991.62,-167.66 981.74,-171.47 991.84,-174.66 991.62,-167.66"/>
</a>
</g>
</g>
<!-- Node11&#45;&gt;Node10 -->
<g id="edge11_Node000011_Node000010" class="edge">
<title>Node11&#45;&gt;Node10</title>
<g id="a_edge11_Node000011_Node000010"><a xlink:title=" ">
<path fill="none" stroke="#63b8ff" d="M1365.57,-71.09C1351.37,-61.32 1335.39,-50.32 1322.09,-41.17"/>
<polygon fill="#63b8ff" stroke="#63b8ff" points="1363.92,-74.21 1374.15,-76.99 1367.89,-68.44 1363.92,-74.21"/>
</a>
</g>
</g>
<!-- Node11&#45;&gt;Node12 -->
<g id="edge12_Node000011_Node000012" class="edge">
<title>Node11&#45;&gt;Node12</title>
<g id="a_edge12_Node000011_Node000012"><a xlink:title=" ">
<path fill="none" stroke="#63b8ff" d="M1440.03,-71.37C1454.72,-61.53 1471.33,-50.41 1485.12,-41.17"/>
<polygon fill="#63b8ff" stroke="#63b8ff" points="1438,-68.52 1431.63,-76.99 1441.89,-74.33 1438,-68.52"/>
</a>
</g>
</g>
</g>
</svg>
