<?xml version="1.0" encoding="UTF-8" standalone="no"?>
<!DOCTYPE svg PUBLIC "-//W3C//DTD SVG 1.1//EN"
 "http://www.w3.org/Graphics/SVG/1.1/DTD/svg11.dtd">
<!-- Generated by graphviz version 2.43.0 (0)
 -->
<!-- Title: /home/runner/work/amr&#45;wind/amr&#45;wind/amr&#45;wind/immersed_boundary/bluff_body/Cylinder.H Pages: 1 -->
<!--zoomable 489 -->

<svg id="main" version="1.1" xmlns="http://www.w3.org/2000/svg" xmlns:xlink="http://www.w3.org/1999/xlink" xml:space="preserve" onload="init(evt)">

<style type="text/css"><![CDATA[
.node, .edge {opacity: 0.7;}
.node.selected, .edge.selected {opacity: 1;}
.edge:hover path { stroke: red; }
.edge:hover polygon { stroke: red; fill: red; }
]]></style>

<defs>
  <circle id="rim" cx="0" cy="0" r="7"/>
  <circle id="rim2" cx="0" cy="0" r="3.5"/>
  <g id="zoomPlus">
    <use xlink:href="#rim" fill="#404040"><set attributeName="fill" to="#808080" begin="zoomplus.mouseover" end="zoomplus.mouseout"/></use>
    <path d="M-4,0h8M0,-4v8" fill="none" stroke="white" stroke-width="1.5" pointer-events="none"/>
  </g>
  <g id="zoomMin">
    <use xlink:href="#rim" fill="#404040"><set attributeName="fill" to="#808080" begin="zoomminus.mouseover" end="zoomminus.mouseout"/></use>
    <path d="M-4,0h8" fill="none" stroke="white" stroke-width="1.5" pointer-events="none"/>
  </g>
  <g id="arrowUp" transform="translate(30 24)">
    <use xlink:href="#rim"/>
    <path pointer-events="none" fill="none" stroke="white" stroke-width="1.5" d="M0,-3.0v7 M-2.5,-0.5L0,-3.0L2.5,-0.5"/>
  </g>
  <g id="arrowRight" transform="rotate(90) translate(36 -43)">
    <use xlink:href="#rim"/>
    <path pointer-events="none" fill="none" stroke="white" stroke-width="1.5" d="M0,-3.0v7 M-2.5,-0.5L0,-3.0L2.5,-0.5"/>
  </g>
  <g id="arrowDown" transform="rotate(180) translate(-30 -48)">
    <use xlink:href="#rim"/>
    <path pointer-events="none" fill="none" stroke="white" stroke-width="1.5" d="M0,-3.0v7 M-2.5,-0.5L0,-3.0L2.5,-0.5"/>
  </g>
  <g id="arrowLeft" transform="rotate(270) translate(-36 17)">
    <use xlink:href="#rim"/>
    <path pointer-events="none" fill="none" stroke="white" stroke-width="1.5" d="M0,-3.0v7 M-2.5,-0.5L0,-3.0L2.5,-0.5"/>
  </g>
  <g id="resetDef">
    <use xlink:href="#rim2" fill="#404040"><set attributeName="fill" to="#808080" begin="reset.mouseover" end="reset.mouseout"/></use>
  </g>
</defs>
<script type="application/ecmascript">
var viewWidth = 891;
var viewHeight = 489;
var sectionId = 'dynsection-0';
</script>
<script type="application/ecmascript" xlink:href="svg.min.js"/>
<svg id="graph" class="graph">
<g id="viewport">
<title>/home/runner/work/amr&#45;wind/amr&#45;wind/amr&#45;wind/immersed_boundary/bluff_body/Cylinder.H</title>
<!-- Node1 -->
<g id="Node000001" class="node">
<title>Node1</title>
<g id="a_Node000001"><a xlink:title=" ">
<polygon fill="#999999" stroke="#666666" points="787.5,-481 642.5,-481 642.5,-429 787.5,-429 787.5,-481"/>
<text text-anchor="start" x="650.5" y="-469" font-family="Helvetica,sans-Serif" font-size="10.00">/home/runner/work/amr</text>
<text text-anchor="start" x="650.5" y="-458" font-family="Helvetica,sans-Serif" font-size="10.00">&#45;wind/amr&#45;wind/amr&#45;wind</text>
<text text-anchor="start" x="650.5" y="-447" font-family="Helvetica,sans-Serif" font-size="10.00">/immersed_boundary/bluff</text>
<text text-anchor="middle" x="715" y="-436" font-family="Helvetica,sans-Serif" font-size="10.00">_body/Cylinder.H</text>
</a>
</g>
</g>
<!-- Node2 -->
<g id="Node000002" class="node">
<title>Node2</title>
<g id="a_Node000002"><a xlink:href="_bluff_body_8_h.html" target="_top" xlink:title=" ">
<polygon fill="white" stroke="#666666" points="743.5,-393 576.5,-393 576.5,-363 743.5,-363 743.5,-393"/>
<text text-anchor="start" x="584.5" y="-381" font-family="Helvetica,sans-Serif" font-size="10.00">amr&#45;wind/immersed_boundary</text>
<text text-anchor="middle" x="660" y="-370" font-family="Helvetica,sans-Serif" font-size="10.00">/bluff_body/BluffBody.H</text>
</a>
</g>
</g>
<!-- Node1&#45;&gt;Node2 -->
<g id="edge1_Node000001_Node000002" class="edge">
<title>Node1&#45;&gt;Node2</title>
<g id="a_edge1_Node000001_Node000002"><a xlink:title=" ">
<path fill="none" stroke="#63b8ff" d="M696.38,-428.61C690,-419.9 682.9,-410.22 676.68,-401.74"/>
<polygon fill="#63b8ff" stroke="#63b8ff" points="679.32,-399.42 670.58,-393.43 673.67,-403.56 679.32,-399.42"/>
</a>
</g>
</g>
<!-- Node19 -->
<g id="Node000019" class="node">
<title>Node19</title>
<g id="a_Node000019"><a xlink:title=" ">
<polygon fill="#e0e0e0" stroke="#999999" points="883,-19 791,-19 791,0 883,0 883,-19"/>
<text text-anchor="middle" x="837" y="-7" font-family="Helvetica,sans-Serif" font-size="10.00">AMReX_REAL.H</text>
</a>
</g>
</g>
<!-- Node1&#45;&gt;Node19 -->
<g id="edge33_Node000001_Node000019" class="edge">
<title>Node1&#45;&gt;Node19</title>
<g id="a_edge33_Node000001_Node000019"><a xlink:title=" ">
<path fill="none" stroke="#63b8ff" d="M776.86,-428.92C821.88,-406.1 875,-367.61 875,-313 875,-313 875,-313 875,-129.5 875,-92.07 857.73,-51.03 846.48,-28.25"/>
<polygon fill="#63b8ff" stroke="#63b8ff" points="849.49,-26.46 841.81,-19.15 843.26,-29.65 849.49,-26.46"/>
</a>
</g>
</g>
<!-- Node3 -->
<g id="Node000003" class="node">
<title>Node3</title>
<g id="a_Node000003"><a xlink:href="_i_b_types_8_h.html" target="_top" xlink:title=" ">
<polygon fill="white" stroke="#666666" points="447.5,-327 280.5,-327 280.5,-297 447.5,-297 447.5,-327"/>
<text text-anchor="start" x="288.5" y="-315" font-family="Helvetica,sans-Serif" font-size="10.00">amr&#45;wind/immersed_boundary</text>
<text text-anchor="middle" x="364" y="-304" font-family="Helvetica,sans-Serif" font-size="10.00">/IBTypes.H</text>
</a>
</g>
</g>
<!-- Node2&#45;&gt;Node3 -->
<g id="edge2_Node000002_Node000003" class="edge">
<title>Node2&#45;&gt;Node3</title>
<g id="a_edge2_Node000002_Node000003"><a xlink:title=" ">
<path fill="none" stroke="#63b8ff" d="M595.04,-362.95C548.97,-352.99 487.02,-339.6 438.86,-329.19"/>
<polygon fill="#63b8ff" stroke="#63b8ff" points="439.32,-325.7 428.81,-327.01 437.84,-332.55 439.32,-325.7"/>
</a>
</g>
</g>
<!-- Node9 -->
<g id="Node000009" class="node">
<title>Node9</title>
<g id="a_Node000009"><a xlink:href="vector__space_8_h.html" target="_top" xlink:title=" ">
<polygon fill="white" stroke="#666666" points="595.5,-261 460.5,-261 460.5,-231 595.5,-231 595.5,-261"/>
<text text-anchor="start" x="468.5" y="-249" font-family="Helvetica,sans-Serif" font-size="10.00">amr&#45;wind/core/vs/vector</text>
<text text-anchor="middle" x="528" y="-238" font-family="Helvetica,sans-Serif" font-size="10.00">_space.H</text>
</a>
</g>
</g>
<!-- Node2&#45;&gt;Node9 -->
<g id="edge30_Node000002_Node000009" class="edge">
<title>Node2&#45;&gt;Node9</title>
<g id="a_edge30_Node000002_Node000009"><a xlink:title=" ">
<path fill="none" stroke="#63b8ff" d="M645.62,-362.84C622.51,-340.08 576.95,-295.21 549.82,-268.49"/>
<polygon fill="#63b8ff" stroke="#63b8ff" points="551.94,-265.67 542.36,-261.14 547.03,-270.65 551.94,-265.67"/>
</a>
</g>
</g>
<!-- Node2&#45;&gt;Node19 -->
<g id="edge32_Node000002_Node000019" class="edge">
<title>Node2&#45;&gt;Node19</title>
<g id="a_edge32_Node000002_Node000019"><a xlink:title=" ">
<path fill="none" stroke="#63b8ff" d="M712.15,-362.93C764.36,-345.29 837,-309.53 837,-247 837,-247 837,-247 837,-129.5 837,-94.15 837,-52.9 837,-29.42"/>
<polygon fill="#63b8ff" stroke="#63b8ff" points="840.5,-29.16 837,-19.16 833.5,-29.16 840.5,-29.16"/>
</a>
</g>
</g>
<!-- Node21 -->
<g id="Node000021" class="node">
<title>Node21</title>
<g id="a_Node000021"><a xlink:title=" ">
<polygon fill="#e0e0e0" stroke="#999999" points="682,-321.5 638,-321.5 638,-302.5 682,-302.5 682,-321.5"/>
<text text-anchor="middle" x="660" y="-309.5" font-family="Helvetica,sans-Serif" font-size="10.00">string</text>
</a>
</g>
</g>
<!-- Node2&#45;&gt;Node21 -->
<g id="edge31_Node000002_Node000021" class="edge">
<title>Node2&#45;&gt;Node21</title>
<g id="a_edge31_Node000002_Node000021"><a xlink:title=" ">
<path fill="none" stroke="#63b8ff" d="M660,-362.8C660,-353.7 660,-341.79 660,-331.9"/>
<polygon fill="#63b8ff" stroke="#63b8ff" points="663.5,-331.84 660,-321.84 656.5,-331.84 663.5,-331.84"/>
</a>
</g>
</g>
<!-- Node4 -->
<g id="Node000004" class="node">
<title>Node4</title>
<g id="a_Node000004"><a xlink:title=" ">
<polygon fill="#e0e0e0" stroke="#999999" points="433.5,-255.5 388.5,-255.5 388.5,-236.5 433.5,-236.5 433.5,-255.5"/>
<text text-anchor="middle" x="411" y="-243.5" font-family="Helvetica,sans-Serif" font-size="10.00">utility</text>
</a>
</g>
</g>
<!-- Node3&#45;&gt;Node4 -->
<g id="edge3_Node000003_Node000004" class="edge">
<title>Node3&#45;&gt;Node4</title>
<g id="a_edge3_Node000003_Node000004"><a xlink:title=" ">
<path fill="none" stroke="#63b8ff" d="M374.43,-296.8C381.54,-287.11 391,-274.24 398.51,-264.01"/>
<polygon fill="#63b8ff" stroke="#63b8ff" points="401.41,-265.98 404.5,-255.84 395.76,-261.83 401.41,-265.98"/>
</a>
</g>
</g>
<!-- Node5 -->
<g id="Node000005" class="node">
<title>Node5</title>
<g id="a_Node000005"><a xlink:href="_slice_8_h.html" target="_top" xlink:title=" ">
<polygon fill="white" stroke="#666666" points="222,-255.5 98,-255.5 98,-236.5 222,-236.5 222,-255.5"/>
<text text-anchor="middle" x="160" y="-243.5" font-family="Helvetica,sans-Serif" font-size="10.00">amr&#45;wind/core/Slice.H</text>
</a>
</g>
</g>
<!-- Node3&#45;&gt;Node5 -->
<g id="edge4_Node000003_Node000005" class="edge">
<title>Node3&#45;&gt;Node5</title>
<g id="a_edge4_Node000003_Node000005"><a xlink:title=" ">
<path fill="none" stroke="#63b8ff" d="M319.23,-296.95C282.51,-285.43 231.16,-269.32 196.8,-258.54"/>
<polygon fill="#63b8ff" stroke="#63b8ff" points="197.74,-255.17 187.15,-255.52 195.64,-261.85 197.74,-255.17"/>
</a>
</g>
</g>
<!-- Node8 -->
<g id="Node000008" class="node">
<title>Node8</title>
<g id="a_Node000008"><a xlink:title=" ">
<polygon fill="#e0e0e0" stroke="#999999" points="307.5,-19 220.5,-19 220.5,0 307.5,0 307.5,-19"/>
<text text-anchor="middle" x="264" y="-7" font-family="Helvetica,sans-Serif" font-size="10.00">AMReX_Gpu.H</text>
</a>
</g>
</g>
<!-- Node3&#45;&gt;Node8 -->
<g id="edge28_Node000003_Node000008" class="edge">
<title>Node3&#45;&gt;Node8</title>
<g id="a_edge28_Node000003_Node000008"><a xlink:title=" ">
<path fill="none" stroke="#63b8ff" d="M280.31,-306.96C223.99,-301.6 149.3,-289.27 89,-261 42.29,-239.1 0,-238.08 0,-186.5 0,-186.5 0,-186.5 0,-129.5 0,-38.08 133.19,-16.49 210.37,-11.66"/>
<polygon fill="#63b8ff" stroke="#63b8ff" points="210.61,-15.15 220.41,-11.1 210.23,-8.16 210.61,-15.15"/>
</a>
</g>
</g>
<!-- Node3&#45;&gt;Node9 -->
<g id="edge8_Node000003_Node000009" class="edge">
<title>Node3&#45;&gt;Node9</title>
<g id="a_edge8_Node000003_Node000009"><a xlink:title=" ">
<path fill="none" stroke="#63b8ff" d="M399.99,-296.95C424.24,-287.49 456.42,-274.93 482.45,-264.78"/>
<polygon fill="#63b8ff" stroke="#63b8ff" points="484.05,-267.91 492.09,-261.01 481.51,-261.39 484.05,-267.91"/>
</a>
</g>
</g>
<!-- Node20 -->
<g id="Node000020" class="node">
<title>Node20</title>
<g id="a_Node000020"><a xlink:title=" ">
<polygon fill="#e0e0e0" stroke="#999999" points="370,-255.5 262,-255.5 262,-236.5 370,-236.5 370,-255.5"/>
<text text-anchor="middle" x="316" y="-243.5" font-family="Helvetica,sans-Serif" font-size="10.00">AMReX_RealBox.H</text>
</a>
</g>
</g>
<!-- Node3&#45;&gt;Node20 -->
<g id="edge29_Node000003_Node000020" class="edge">
<title>Node3&#45;&gt;Node20</title>
<g id="a_edge29_Node000003_Node000020"><a xlink:title=" ">
<path fill="none" stroke="#63b8ff" d="M353.35,-296.8C346.08,-287.11 336.43,-274.24 328.76,-264.01"/>
<polygon fill="#63b8ff" stroke="#63b8ff" points="331.43,-261.74 322.63,-255.84 325.83,-265.94 331.43,-261.74"/>
</a>
</g>
</g>
<!-- Node6 -->
<g id="Node000006" class="node">
<title>Node6</title>
<g id="a_Node000006"><a xlink:title=" ">
<polygon fill="#e0e0e0" stroke="#999999" points="81.5,-195 28.5,-195 28.5,-176 81.5,-176 81.5,-195"/>
<text text-anchor="middle" x="55" y="-183" font-family="Helvetica,sans-Serif" font-size="10.00">iterator</text>
</a>
</g>
</g>
<!-- Node5&#45;&gt;Node6 -->
<g id="edge5_Node000005_Node000006" class="edge">
<title>Node5&#45;&gt;Node6</title>
<g id="a_edge5_Node000005_Node000006"><a xlink:title=" ">
<path fill="none" stroke="#63b8ff" d="M144.51,-236.37C127.37,-226.82 99.53,-211.31 79.44,-200.12"/>
<polygon fill="#63b8ff" stroke="#63b8ff" points="81,-196.98 70.56,-195.17 77.59,-203.09 81,-196.98"/>
</a>
</g>
</g>
<!-- Node7 -->
<g id="Node000007" class="node">
<title>Node7</title>
<g id="a_Node000007"><a xlink:title=" ">
<polygon fill="#e0e0e0" stroke="#999999" points="198,-195 100,-195 100,-176 198,-176 198,-195"/>
<text text-anchor="middle" x="149" y="-183" font-family="Helvetica,sans-Serif" font-size="10.00">AMReX_Vector.H</text>
</a>
</g>
</g>
<!-- Node5&#45;&gt;Node7 -->
<g id="edge6_Node000005_Node000007" class="edge">
<title>Node5&#45;&gt;Node7</title>
<g id="a_edge6_Node000005_Node000007"><a xlink:title=" ">
<path fill="none" stroke="#63b8ff" d="M158.38,-236.37C156.83,-228.16 154.46,-215.54 152.49,-205.05"/>
<polygon fill="#63b8ff" stroke="#63b8ff" points="155.92,-204.35 150.63,-195.17 149.04,-205.64 155.92,-204.35"/>
</a>
</g>
</g>
<!-- Node5&#45;&gt;Node8 -->
<g id="edge7_Node000005_Node000008" class="edge">
<title>Node5&#45;&gt;Node8</title>
<g id="a_edge7_Node000005_Node000008"><a xlink:title=" ">
<path fill="none" stroke="#63b8ff" d="M170.43,-236.47C181.05,-227.27 197.29,-211.68 207,-195 239.27,-139.55 255.15,-63.9 261.11,-29.24"/>
<polygon fill="#63b8ff" stroke="#63b8ff" points="264.6,-29.58 262.76,-19.14 257.69,-28.45 264.6,-29.58"/>
</a>
</g>
</g>
<!-- Node10 -->
<g id="Node000010" class="node">
<title>Node10</title>
<g id="a_Node000010"><a xlink:href="vector_8_h.html" target="_top" xlink:title=" ">
<polygon fill="white" stroke="#666666" points="487.5,-140 342.5,-140 342.5,-121 487.5,-121 487.5,-140"/>
<text text-anchor="middle" x="415" y="-128" font-family="Helvetica,sans-Serif" font-size="10.00">amr&#45;wind/core/vs/vector.H</text>
</a>
</g>
</g>
<!-- Node9&#45;&gt;Node10 -->
<g id="edge9_Node000009_Node000010" class="edge">
<title>Node9&#45;&gt;Node10</title>
<g id="a_edge9_Node000009_Node000010"><a xlink:title=" ">
<path fill="none" stroke="#63b8ff" d="M501.65,-230.96C486.51,-222.03 467.83,-209.45 454,-195 441.02,-181.45 430.23,-162.87 423.32,-149.31"/>
<polygon fill="#63b8ff" stroke="#63b8ff" points="426.34,-147.54 418.81,-140.09 420.05,-150.61 426.34,-147.54"/>
</a>
</g>
</g>
<!-- Node16 -->
<g id="Node000016" class="node">
<title>Node16</title>
<g id="a_Node000016"><a xlink:href="tensor_8_h.html" target="_top" xlink:title=" ">
<polygon fill="white" stroke="#666666" points="608.5,-195 463.5,-195 463.5,-176 608.5,-176 608.5,-195"/>
<text text-anchor="middle" x="536" y="-183" font-family="Helvetica,sans-Serif" font-size="10.00">amr&#45;wind/core/vs/tensor.H</text>
</a>
</g>
</g>
<!-- Node9&#45;&gt;Node16 -->
<g id="edge17_Node000009_Node000016" class="edge">
<title>Node9&#45;&gt;Node16</title>
<g id="a_edge17_Node000009_Node000016"><a xlink:title=" ">
<path fill="none" stroke="#63b8ff" d="M529.94,-230.84C530.98,-223.21 532.28,-213.7 533.41,-205.45"/>
<polygon fill="#63b8ff" stroke="#63b8ff" points="536.91,-205.65 534.8,-195.27 529.98,-204.7 536.91,-205.65"/>
</a>
</g>
</g>
<!-- Node10&#45;&gt;Node8 -->
<g id="edge10_Node000010_Node000008" class="edge">
<title>Node10&#45;&gt;Node8</title>
<g id="a_edge10_Node000010_Node000008"><a xlink:title=" ">
<path fill="none" stroke="#63b8ff" d="M388.05,-120.89C367.87,-113.55 340.36,-101.53 320,-85 300.26,-68.97 283.65,-44.54 273.77,-28.07"/>
<polygon fill="#63b8ff" stroke="#63b8ff" points="276.8,-26.32 268.76,-19.42 270.74,-29.82 276.8,-26.32"/>
</a>
</g>
</g>
<!-- Node11 -->
<g id="Node000011" class="node">
<title>Node11</title>
<g id="a_Node000011"><a xlink:href="vstraits_8_h.html" target="_top" xlink:title=" ">
<polygon fill="white" stroke="#666666" points="649,-79.5 497,-79.5 497,-60.5 649,-60.5 649,-79.5"/>
<text text-anchor="middle" x="573" y="-67.5" font-family="Helvetica,sans-Serif" font-size="10.00">amr&#45;wind/core/vs/vstraits.H</text>
</a>
</g>
</g>
<!-- Node10&#45;&gt;Node11 -->
<g id="edge11_Node000010_Node000011" class="edge">
<title>Node10&#45;&gt;Node11</title>
<g id="a_edge11_Node000010_Node000011"><a xlink:title=" ">
<path fill="none" stroke="#63b8ff" d="M437.97,-120.99C464.89,-111.03 509.67,-94.45 540.23,-83.13"/>
<polygon fill="#63b8ff" stroke="#63b8ff" points="541.84,-86.27 550,-79.52 539.4,-79.71 541.84,-86.27"/>
</a>
</g>
</g>
<!-- Node13 -->
<g id="Node000013" class="node">
<title>Node13</title>
<g id="a_Node000013"><a xlink:href="vector_i_8_h.html" target="_top" xlink:title=" ">
<polygon fill="white" stroke="#666666" points="478.5,-79.5 329.5,-79.5 329.5,-60.5 478.5,-60.5 478.5,-79.5"/>
<text text-anchor="middle" x="404" y="-67.5" font-family="Helvetica,sans-Serif" font-size="10.00">amr&#45;wind/core/vs/vectorI.H</text>
</a>
</g>
</g>
<!-- Node10&#45;&gt;Node13 -->
<g id="edge13_Node000010_Node000013" class="edge">
<title>Node10&#45;&gt;Node13</title>
<g id="a_edge13_Node000010_Node000013"><a xlink:title=" ">
<path fill="none" stroke="#63b8ff" d="M408.42,-120.87C405.14,-112.75 402.33,-100.31 401.19,-89.89"/>
<polygon fill="#63b8ff" stroke="#63b8ff" points="404.68,-89.47 400.67,-79.67 397.69,-89.83 404.68,-89.47"/>
</a>
</g>
</g>
<!-- Node12 -->
<g id="Node000012" class="node">
<title>Node12</title>
<g id="a_Node000012"><a xlink:title=" ">
<polygon fill="#e0e0e0" stroke="#999999" points="595,-19 551,-19 551,0 595,0 595,-19"/>
<text text-anchor="middle" x="573" y="-7" font-family="Helvetica,sans-Serif" font-size="10.00">limits</text>
</a>
</g>
</g>
<!-- Node11&#45;&gt;Node12 -->
<g id="edge12_Node000011_Node000012" class="edge">
<title>Node11&#45;&gt;Node12</title>
<g id="a_edge12_Node000011_Node000012"><a xlink:title=" ">
<path fill="none" stroke="#63b8ff" d="M573,-60.37C573,-52.25 573,-39.81 573,-29.39"/>
<polygon fill="#63b8ff" stroke="#63b8ff" points="576.5,-29.17 573,-19.17 569.5,-29.17 576.5,-29.17"/>
</a>
</g>
</g>
<!-- Node13&#45;&gt;Node10 -->
<g id="edge16_Node000013_Node000010" class="edge">
<title>Node13&#45;&gt;Node10</title>
<g id="a_edge16_Node000013_Node000010"><a xlink:title=" ">
<path fill="none" stroke="#63b8ff" d="M410.59,-79.67C413.87,-87.8 416.68,-100.24 417.81,-110.66"/>
<polygon fill="#63b8ff" stroke="#63b8ff" points="414.33,-111.06 418.33,-120.87 421.32,-110.7 414.33,-111.06"/>
</a>
</g>
</g>
<!-- Node14 -->
<g id="Node000014" class="node">
<title>Node14</title>
<g id="a_Node000014"><a xlink:title=" ">
<polygon fill="#e0e0e0" stroke="#999999" points="432.5,-19 375.5,-19 375.5,0 432.5,0 432.5,-19"/>
<text text-anchor="middle" x="404" y="-7" font-family="Helvetica,sans-Serif" font-size="10.00">ostream</text>
</a>
</g>
</g>
<!-- Node13&#45;&gt;Node14 -->
<g id="edge14_Node000013_Node000014" class="edge">
<title>Node13&#45;&gt;Node14</title>
<g id="a_edge14_Node000013_Node000014"><a xlink:title=" ">
<path fill="none" stroke="#63b8ff" d="M404,-60.37C404,-52.25 404,-39.81 404,-29.39"/>
<polygon fill="#63b8ff" stroke="#63b8ff" points="407.5,-29.17 404,-19.17 400.5,-29.17 407.5,-29.17"/>
</a>
</g>
</g>
<!-- Node15 -->
<g id="Node000015" class="node">
<title>Node15</title>
<g id="a_Node000015"><a xlink:title=" ">
<polygon fill="#e0e0e0" stroke="#999999" points="700.5,-19 653.5,-19 653.5,0 700.5,0 700.5,-19"/>
<text text-anchor="middle" x="677" y="-7" font-family="Helvetica,sans-Serif" font-size="10.00">cmath</text>
</a>
</g>
</g>
<!-- Node13&#45;&gt;Node15 -->
<g id="edge15_Node000013_Node000015" class="edge">
<title>Node13&#45;&gt;Node15</title>
<g id="a_edge15_Node000013_Node000015"><a xlink:title=" ">
<path fill="none" stroke="#63b8ff" d="M443.7,-60.49C497.54,-48.96 592.79,-28.55 643.32,-17.72"/>
<polygon fill="#63b8ff" stroke="#63b8ff" points="644.35,-21.08 653.4,-15.56 642.89,-14.23 644.35,-21.08"/>
</a>
</g>
</g>
<!-- Node16&#45;&gt;Node8 -->
<g id="edge18_Node000016_Node000008" class="edge">
<title>Node16&#45;&gt;Node8</title>
<g id="a_edge18_Node000016_Node000008"><a xlink:title=" ">
<path fill="none" stroke="#63b8ff" d="M463.44,-180.47C422.58,-175.41 372.07,-164.28 333,-140 292.9,-115.09 274.7,-58.38 267.7,-28.96"/>
<polygon fill="#63b8ff" stroke="#63b8ff" points="271.11,-28.17 265.55,-19.15 264.28,-29.67 271.11,-28.17"/>
</a>
</g>
</g>
<!-- Node16&#45;&gt;Node10 -->
<g id="edge20_Node000016_Node000010" class="edge">
<title>Node16&#45;&gt;Node10</title>
<g id="a_edge20_Node000016_Node000010"><a xlink:title=" ">
<path fill="none" stroke="#63b8ff" d="M516.56,-175.98C497.01,-167.42 466.62,-154.11 444.18,-144.28"/>
<polygon fill="#63b8ff" stroke="#63b8ff" points="445.36,-140.98 434.79,-140.17 442.55,-147.39 445.36,-140.98"/>
</a>
</g>
</g>
<!-- Node16&#45;&gt;Node11 -->
<g id="edge19_Node000016_Node000011" class="edge">
<title>Node16&#45;&gt;Node11</title>
<g id="a_edge19_Node000016_Node000011"><a xlink:title=" ">
<path fill="none" stroke="#63b8ff" d="M538.78,-175.97C544.75,-157.65 558.92,-114.18 567.03,-89.31"/>
<polygon fill="#63b8ff" stroke="#63b8ff" points="570.41,-90.22 570.19,-79.63 563.76,-88.05 570.41,-90.22"/>
</a>
</g>
</g>
<!-- Node17 -->
<g id="Node000017" class="node">
<title>Node17</title>
<g id="a_Node000017"><a xlink:href="tensor_i_8_h.html" target="_top" xlink:title=" ">
<polygon fill="white" stroke="#666666" points="740.5,-140 591.5,-140 591.5,-121 740.5,-121 740.5,-140"/>
<text text-anchor="middle" x="666" y="-128" font-family="Helvetica,sans-Serif" font-size="10.00">amr&#45;wind/core/vs/tensorI.H</text>
</a>
</g>
</g>
<!-- Node16&#45;&gt;Node17 -->
<g id="edge21_Node000016_Node000017" class="edge">
<title>Node16&#45;&gt;Node17</title>
<g id="a_edge21_Node000016_Node000017"><a xlink:title=" ">
<path fill="none" stroke="#63b8ff" d="M551.77,-175.98C571.23,-167.27 604.45,-153.63 630.15,-143.75"/>
<polygon fill="#63b8ff" stroke="#63b8ff" points="631.48,-146.99 639.58,-140.17 628.99,-140.45 631.48,-146.99"/>
</a>
</g>
</g>
<!-- Node17&#45;&gt;Node15 -->
<g id="edge22_Node000017_Node000015" class="edge">
<title>Node17&#45;&gt;Node15</title>
<g id="a_edge22_Node000017_Node000015"><a xlink:title=" ">
<path fill="none" stroke="#63b8ff" d="M666.79,-120.94C668.55,-101.91 672.82,-55.69 675.25,-29.47"/>
<polygon fill="#63b8ff" stroke="#63b8ff" points="678.75,-29.58 676.19,-19.3 671.78,-28.94 678.75,-29.58"/>
</a>
</g>
</g>
<!-- Node17&#45;&gt;Node16 -->
<g id="edge23_Node000017_Node000016" class="edge">
<title>Node17&#45;&gt;Node16</title>
<g id="a_edge23_Node000017_Node000016"><a xlink:title=" ">
<path fill="none" stroke="#63b8ff" d="M649.88,-140.17C630.26,-148.95 597.01,-162.59 571.4,-172.42"/>
<polygon fill="#63b8ff" stroke="#63b8ff" points="570.11,-169.17 562,-175.98 572.59,-175.71 570.11,-169.17"/>
</a>
</g>
</g>
<!-- Node18 -->
<g id="Node000018" class="node">
<title>Node18</title>
<g id="a_Node000018"><a xlink:href="trig__ops_8_h.html" target="_top" xlink:title=" ">
<polygon fill="white" stroke="#666666" points="808.5,-85 705.5,-85 705.5,-55 808.5,-55 808.5,-85"/>
<text text-anchor="start" x="713.5" y="-73" font-family="Helvetica,sans-Serif" font-size="10.00">amr&#45;wind/utilities</text>
<text text-anchor="middle" x="757" y="-62" font-family="Helvetica,sans-Serif" font-size="10.00">/trig_ops.H</text>
</a>
</g>
</g>
<!-- Node17&#45;&gt;Node18 -->
<g id="edge24_Node000017_Node000018" class="edge">
<title>Node17&#45;&gt;Node18</title>
<g id="a_edge24_Node000017_Node000018"><a xlink:title=" ">
<path fill="none" stroke="#63b8ff" d="M679.43,-120.87C691.77,-112.93 710.53,-100.87 726.51,-90.6"/>
<polygon fill="#63b8ff" stroke="#63b8ff" points="728.52,-93.47 735.04,-85.11 724.74,-87.58 728.52,-93.47"/>
</a>
</g>
</g>
<!-- Node18&#45;&gt;Node8 -->
<g id="edge27_Node000018_Node000008" class="edge">
<title>Node18&#45;&gt;Node8</title>
<g id="a_edge27_Node000018_Node000008"><a xlink:title=" ">
<path fill="none" stroke="#63b8ff" d="M705.4,-61.42C690.15,-59.26 673.41,-56.96 658,-55 536.69,-39.58 394.02,-24.13 318.04,-16.12"/>
<polygon fill="#63b8ff" stroke="#63b8ff" points="318.09,-12.6 307.78,-15.04 317.35,-19.57 318.09,-12.6"/>
</a>
</g>
</g>
<!-- Node18&#45;&gt;Node15 -->
<g id="edge25_Node000018_Node000015" class="edge">
<title>Node18&#45;&gt;Node15</title>
<g id="a_edge25_Node000018_Node000015"><a xlink:title=" ">
<path fill="none" stroke="#63b8ff" d="M737.63,-54.84C725.43,-45.91 709.69,-34.41 697.31,-25.35"/>
<polygon fill="#63b8ff" stroke="#63b8ff" points="699.13,-22.34 688.99,-19.27 694.99,-27.99 699.13,-22.34"/>
</a>
</g>
</g>
<!-- Node18&#45;&gt;Node19 -->
<g id="edge26_Node000018_Node000019" class="edge">
<title>Node18&#45;&gt;Node19</title>
<g id="a_edge26_Node000018_Node000019"><a xlink:title=" ">
<path fill="none" stroke="#63b8ff" d="M776.37,-54.84C788.57,-45.91 804.31,-34.41 816.69,-25.35"/>
<polygon fill="#63b8ff" stroke="#63b8ff" points="819.01,-27.99 825.01,-19.27 814.87,-22.34 819.01,-27.99"/>
</a>
</g>
</g>
</g>
</svg>

<g id="navigator" transform="translate(0 0)" fill="#404254">
  <rect fill="#f2f5e9" fill-opacity="0.5" stroke="#606060" stroke-width=".5" x="0" y="0" width="60" height="60"/>
  <use id="zoomplus" xlink:href="#zoomPlus" x="17" y="9" onmousedown="handleZoom(evt,'in')"/>
  <use id="zoomminus" xlink:href="#zoomMin" x="42" y="9" onmousedown="handleZoom(evt,'out')"/>
  <use id="reset" xlink:href="#resetDef" x="30" y="36" onmousedown="handleReset()"/>
   <use id="arrowup" xlink:href="#arrowUp" x="0" y="0" onmousedown="handlePan(0,-1)"/>
  <use id="arrowright" xlink:href="#arrowRight" x="0" y="0" onmousedown="handlePan(1,0)"/>
  <use id="arrowdown" xlink:href="#arrowDown" x="0" y="0" onmousedown="handlePan(0,1)"/>
  <use id="arrowleft" xlink:href="#arrowLeft" x="0" y="0" onmousedown="handlePan(-1,0)"/>
</g>
<svg viewBox="0 0 15 15" width="100%" height="30px" preserveAspectRatio="xMaxYMin meet">
 <g id="arrow_out" transform="scale(0.3 0.3)">
  <a xlink:href="_cylinder_8_h__incl_org.svg" target="_base">
   <rect id="button" ry="5" rx="5" y="6" x="6" height="38" width="38"
        fill="#f2f5e9" fill-opacity="0.5" stroke="#606060" stroke-width="1.0"/>
   <path id="arrow"
     d="M 11.500037,31.436501 C 11.940474,20.09759 22.043105,11.32322 32.158766,21.979434 L 37.068811,17.246167 C 37.068811,17.246167 37.088388,32 37.088388,32 L 22.160133,31.978069 C 22.160133,31.978069 26.997745,27.140456 26.997745,27.140456 C 18.528582,18.264221 13.291696,25.230495 11.500037,31.436501 z"
     style="fill:#404040;"/>
  </a>
 </g>
</svg>

<style type='text/css'>
<![CDATA[
[data-mouse-over-selected='false'] { opacity: 0.7; }
[data-mouse-over-selected='true']  { opacity: 1.0; }
]]>
</style>
<script type="application/ecmascript"><![CDATA[
document.addEventListener('DOMContentLoaded', (event) => {
  highlightEdges();
  highlightAdjacentNodes();
});
]]></script>
</svg>
