<?xml version="1.0" encoding="UTF-8" standalone="no"?>
<!DOCTYPE svg PUBLIC "-//W3C//DTD SVG 1.1//EN"
 "http://www.w3.org/Graphics/SVG/1.1/DTD/svg11.dtd">
<!-- Generated by graphviz version 2.43.0 (0)
 -->
<!-- Title: /home/runner/work/amr&#45;wind/amr&#45;wind/amr&#45;wind/utilities/sampling/DTUSpinnerSampler.H Pages: 1 -->
<svg width="1343pt" height="445pt"
 viewBox="0.00 0.00 1342.50 445.00" xmlns="http://www.w3.org/2000/svg" xmlns:xlink="http://www.w3.org/1999/xlink">
<g id="graph0" class="graph" transform="scale(1 1) rotate(0) translate(4 441)">
<title>/home/runner/work/amr&#45;wind/amr&#45;wind/amr&#45;wind/utilities/sampling/DTUSpinnerSampler.H</title>
<!-- Node1 -->
<g id="Node000001" class="node">
<title>Node1</title>
<g id="a_Node000001"><a xlink:title=" ">
<polygon fill="#999999" stroke="#666666" points="681.5,-437 516.5,-437 516.5,-385 681.5,-385 681.5,-437"/>
<text text-anchor="start" x="524.5" y="-425" font-family="Helvetica,sans-Serif" font-size="10.00">/home/runner/work/amr</text>
<text text-anchor="start" x="524.5" y="-414" font-family="Helvetica,sans-Serif" font-size="10.00">&#45;wind/amr&#45;wind/amr&#45;wind</text>
<text text-anchor="start" x="524.5" y="-403" font-family="Helvetica,sans-Serif" font-size="10.00">/utilities/sampling/DTUSpinner</text>
<text text-anchor="middle" x="599" y="-392" font-family="Helvetica,sans-Serif" font-size="10.00">Sampler.H</text>
</a>
</g>
</g>
<!-- Node2 -->
<g id="Node000002" class="node">
<title>Node2</title>
<g id="a_Node000002"><a xlink:href="_sampling_utils_8_h.html" target="_top" xlink:title=" ">
<polygon fill="white" stroke="#666666" points="790,-349 644,-349 644,-319 790,-319 790,-349"/>
<text text-anchor="start" x="652" y="-337" font-family="Helvetica,sans-Serif" font-size="10.00">amr&#45;wind/utilities</text>
<text text-anchor="middle" x="717" y="-326" font-family="Helvetica,sans-Serif" font-size="10.00">/sampling/SamplingUtils.H</text>
</a>
</g>
</g>
<!-- Node1&#45;&gt;Node2 -->
<g id="edge1_Node000001_Node000002" class="edge">
<title>Node1&#45;&gt;Node2</title>
<g id="a_edge1_Node000001_Node000002"><a xlink:title=" ">
<path fill="none" stroke="#63b8ff" d="M638.62,-384.82C654.15,-374.95 671.68,-363.8 686.23,-354.56"/>
<polygon fill="#63b8ff" stroke="#63b8ff" points="688.29,-357.39 694.85,-349.08 684.54,-351.49 688.29,-357.39"/>
</a>
</g>
</g>
<!-- Node5 -->
<g id="Node000005" class="node">
<title>Node5</title>
<g id="a_Node000005"><a xlink:href="vector__space_8_h.html" target="_top" xlink:title=" ">
<polygon fill="white" stroke="#666666" points="649.5,-283 514.5,-283 514.5,-253 649.5,-253 649.5,-283"/>
<text text-anchor="start" x="522.5" y="-271" font-family="Helvetica,sans-Serif" font-size="10.00">amr&#45;wind/core/vs/vector</text>
<text text-anchor="middle" x="582" y="-260" font-family="Helvetica,sans-Serif" font-size="10.00">_space.H</text>
</a>
</g>
</g>
<!-- Node1&#45;&gt;Node5 -->
<g id="edge44_Node000001_Node000005" class="edge">
<title>Node1&#45;&gt;Node5</title>
<g id="a_edge44_Node000001_Node000005"><a xlink:title=" ">
<path fill="none" stroke="#63b8ff" d="M595.96,-384.79C592.84,-358.87 588,-318.78 584.92,-293.22"/>
<polygon fill="#63b8ff" stroke="#63b8ff" points="588.39,-292.75 583.72,-283.24 581.44,-293.59 588.39,-292.75"/>
</a>
</g>
</g>
<!-- Node18 -->
<g id="Node000018" class="node">
<title>Node18</title>
<g id="a_Node000018"><a xlink:href="_lidar_sampler_8_h.html" target="_top" xlink:title=" ">
<polygon fill="white" stroke="#666666" points="571,-349 429,-349 429,-319 571,-319 571,-349"/>
<text text-anchor="start" x="437" y="-337" font-family="Helvetica,sans-Serif" font-size="10.00">amr&#45;wind/utilities</text>
<text text-anchor="middle" x="500" y="-326" font-family="Helvetica,sans-Serif" font-size="10.00">/sampling/LidarSampler.H</text>
</a>
</g>
</g>
<!-- Node1&#45;&gt;Node18 -->
<g id="edge27_Node000001_Node000018" class="edge">
<title>Node1&#45;&gt;Node18</title>
<g id="a_edge27_Node000001_Node000018"><a xlink:title=" ">
<path fill="none" stroke="#63b8ff" d="M565.76,-384.82C553.1,-375.23 538.85,-364.43 526.86,-355.35"/>
<polygon fill="#63b8ff" stroke="#63b8ff" points="528.67,-352.33 518.58,-349.08 524.44,-357.91 528.67,-352.33"/>
</a>
</g>
</g>
<!-- Node3 -->
<g id="Node000003" class="node">
<title>Node3</title>
<g id="a_Node000003"><a xlink:title=" ">
<polygon fill="#e0e0e0" stroke="#999999" points="733,-79.5 689,-79.5 689,-60.5 733,-60.5 733,-79.5"/>
<text text-anchor="middle" x="711" y="-67.5" font-family="Helvetica,sans-Serif" font-size="10.00">string</text>
</a>
</g>
</g>
<!-- Node2&#45;&gt;Node3 -->
<g id="edge2_Node000002_Node000003" class="edge">
<title>Node2&#45;&gt;Node3</title>
<g id="a_edge2_Node000002_Node000003"><a xlink:title=" ">
<path fill="none" stroke="#63b8ff" d="M741.58,-318.99C754.09,-310.38 768.08,-298.11 775,-283 780.55,-270.88 777.24,-266.14 775,-253 764.37,-190.71 734.64,-121.38 719.75,-89.22"/>
<polygon fill="#63b8ff" stroke="#63b8ff" points="722.74,-87.36 715.31,-79.8 716.4,-90.34 722.74,-87.36"/>
</a>
</g>
</g>
<!-- Node4 -->
<g id="Node000004" class="node">
<title>Node4</title>
<g id="a_Node000004"><a xlink:title=" ">
<polygon fill="#e0e0e0" stroke="#999999" points="766,-277.5 668,-277.5 668,-258.5 766,-258.5 766,-277.5"/>
<text text-anchor="middle" x="717" y="-265.5" font-family="Helvetica,sans-Serif" font-size="10.00">AMReX_Vector.H</text>
</a>
</g>
</g>
<!-- Node2&#45;&gt;Node4 -->
<g id="edge3_Node000002_Node000004" class="edge">
<title>Node2&#45;&gt;Node4</title>
<g id="a_edge3_Node000002_Node000004"><a xlink:title=" ">
<path fill="none" stroke="#63b8ff" d="M717,-318.8C717,-309.7 717,-297.79 717,-287.9"/>
<polygon fill="#63b8ff" stroke="#63b8ff" points="720.5,-287.84 717,-277.84 713.5,-287.84 720.5,-287.84"/>
</a>
</g>
</g>
<!-- Node2&#45;&gt;Node5 -->
<g id="edge4_Node000002_Node000005" class="edge">
<title>Node2&#45;&gt;Node5</title>
<g id="a_edge4_Node000002_Node000005"><a xlink:title=" ">
<path fill="none" stroke="#63b8ff" d="M687.37,-318.95C667.77,-309.66 641.86,-297.38 620.63,-287.32"/>
<polygon fill="#63b8ff" stroke="#63b8ff" points="622.09,-284.13 611.56,-283.01 619.09,-290.46 622.09,-284.13"/>
</a>
</g>
</g>
<!-- Node17 -->
<g id="Node000017" class="node">
<title>Node17</title>
<g id="a_Node000017"><a xlink:href="tensor__ops_8_h.html" target="_top" xlink:title=" ">
<polygon fill="white" stroke="#666666" points="1302.5,-217 1199.5,-217 1199.5,-187 1302.5,-187 1302.5,-217"/>
<text text-anchor="start" x="1207.5" y="-205" font-family="Helvetica,sans-Serif" font-size="10.00">amr&#45;wind/utilities</text>
<text text-anchor="middle" x="1251" y="-194" font-family="Helvetica,sans-Serif" font-size="10.00">/tensor_ops.H</text>
</a>
</g>
</g>
<!-- Node2&#45;&gt;Node17 -->
<g id="edge25_Node000002_Node000017" class="edge">
<title>Node2&#45;&gt;Node17</title>
<g id="a_edge25_Node000002_Node000017"><a xlink:title=" ">
<path fill="none" stroke="#63b8ff" d="M774.65,-318.96C876.02,-294.29 1085.28,-243.34 1189.39,-218"/>
<polygon fill="#63b8ff" stroke="#63b8ff" points="1190.24,-221.39 1199.13,-215.63 1188.58,-214.59 1190.24,-221.39"/>
</a>
</g>
</g>
<!-- Node6 -->
<g id="Node000006" class="node">
<title>Node6</title>
<g id="a_Node000006"><a xlink:href="vector_8_h.html" target="_top" xlink:title=" ">
<polygon fill="white" stroke="#666666" points="967.5,-145.5 822.5,-145.5 822.5,-126.5 967.5,-126.5 967.5,-145.5"/>
<text text-anchor="middle" x="895" y="-133.5" font-family="Helvetica,sans-Serif" font-size="10.00">amr&#45;wind/core/vs/vector.H</text>
</a>
</g>
</g>
<!-- Node5&#45;&gt;Node6 -->
<g id="edge5_Node000005_Node000006" class="edge">
<title>Node5&#45;&gt;Node6</title>
<g id="a_edge5_Node000005_Node000006"><a xlink:title=" ">
<path fill="none" stroke="#63b8ff" d="M615.79,-252.96C677.21,-227.46 806.19,-173.89 864.83,-149.53"/>
<polygon fill="#63b8ff" stroke="#63b8ff" points="866.38,-152.68 874.28,-145.61 863.7,-146.21 866.38,-152.68"/>
</a>
</g>
</g>
<!-- Node14 -->
<g id="Node000014" class="node">
<title>Node14</title>
<g id="a_Node000014"><a xlink:href="tensor_8_h.html" target="_top" xlink:title=" ">
<polygon fill="white" stroke="#666666" points="1083.5,-211.5 938.5,-211.5 938.5,-192.5 1083.5,-192.5 1083.5,-211.5"/>
<text text-anchor="middle" x="1011" y="-199.5" font-family="Helvetica,sans-Serif" font-size="10.00">amr&#45;wind/core/vs/tensor.H</text>
</a>
</g>
</g>
<!-- Node5&#45;&gt;Node14 -->
<g id="edge14_Node000005_Node000014" class="edge">
<title>Node5&#45;&gt;Node14</title>
<g id="a_edge14_Node000005_Node000014"><a xlink:title=" ">
<path fill="none" stroke="#63b8ff" d="M649.58,-254.56C652.76,-254.02 655.92,-253.5 659,-253 754.1,-237.61 864.08,-222.4 935.44,-212.87"/>
<polygon fill="#63b8ff" stroke="#63b8ff" points="936.23,-216.3 945.69,-211.51 935.31,-209.36 936.23,-216.3"/>
</a>
</g>
</g>
<!-- Node7 -->
<g id="Node000007" class="node">
<title>Node7</title>
<g id="a_Node000007"><a xlink:title=" ">
<polygon fill="#e0e0e0" stroke="#999999" points="1334.5,-19 1247.5,-19 1247.5,0 1334.5,0 1334.5,-19"/>
<text text-anchor="middle" x="1291" y="-7" font-family="Helvetica,sans-Serif" font-size="10.00">AMReX_Gpu.H</text>
</a>
</g>
</g>
<!-- Node6&#45;&gt;Node7 -->
<g id="edge6_Node000006_Node000007" class="edge">
<title>Node6&#45;&gt;Node7</title>
<g id="a_edge6_Node000006_Node000007"><a xlink:title=" ">
<path fill="none" stroke="#63b8ff" d="M963.28,-126.49C1060.23,-114.2 1227.38,-92.17 1239,-85 1260.54,-71.71 1275.51,-45.8 1283.68,-28.32"/>
<polygon fill="#63b8ff" stroke="#63b8ff" points="1286.89,-29.72 1287.71,-19.16 1280.48,-26.91 1286.89,-29.72"/>
</a>
</g>
</g>
<!-- Node8 -->
<g id="Node000008" class="node">
<title>Node8</title>
<g id="a_Node000008"><a xlink:href="vstraits_8_h.html" target="_top" xlink:title=" ">
<polygon fill="white" stroke="#666666" points="1070,-79.5 918,-79.5 918,-60.5 1070,-60.5 1070,-79.5"/>
<text text-anchor="middle" x="994" y="-67.5" font-family="Helvetica,sans-Serif" font-size="10.00">amr&#45;wind/core/vs/vstraits.H</text>
</a>
</g>
</g>
<!-- Node6&#45;&gt;Node8 -->
<g id="edge7_Node000006_Node000008" class="edge">
<title>Node6&#45;&gt;Node8</title>
<g id="a_edge7_Node000006_Node000008"><a xlink:title=" ">
<path fill="none" stroke="#63b8ff" d="M908.35,-126.37C924.66,-115.82 952.49,-97.84 971.99,-85.23"/>
<polygon fill="#63b8ff" stroke="#63b8ff" points="974.05,-88.07 980.54,-79.7 970.25,-82.19 974.05,-88.07"/>
</a>
</g>
</g>
<!-- Node11 -->
<g id="Node000011" class="node">
<title>Node11</title>
<g id="a_Node000011"><a xlink:href="vector_i_8_h.html" target="_top" xlink:title=" ">
<polygon fill="white" stroke="#666666" points="899.5,-79.5 750.5,-79.5 750.5,-60.5 899.5,-60.5 899.5,-79.5"/>
<text text-anchor="middle" x="825" y="-67.5" font-family="Helvetica,sans-Serif" font-size="10.00">amr&#45;wind/core/vs/vectorI.H</text>
</a>
</g>
</g>
<!-- Node6&#45;&gt;Node11 -->
<g id="edge10_Node000006_Node000011" class="edge">
<title>Node6&#45;&gt;Node11</title>
<g id="a_edge10_Node000006_Node000011"><a xlink:title=" ">
<path fill="none" stroke="#63b8ff" d="M880.77,-126.37C867.74,-116.4 849.18,-99.79 836.92,-87.36"/>
<polygon fill="#63b8ff" stroke="#63b8ff" points="839.3,-84.78 829.89,-79.91 834.2,-89.58 839.3,-84.78"/>
</a>
</g>
</g>
<!-- Node9 -->
<g id="Node000009" class="node">
<title>Node9</title>
<g id="a_Node000009"><a xlink:title=" ">
<polygon fill="#e0e0e0" stroke="#999999" points="1016,-19 972,-19 972,0 1016,0 1016,-19"/>
<text text-anchor="middle" x="994" y="-7" font-family="Helvetica,sans-Serif" font-size="10.00">limits</text>
</a>
</g>
</g>
<!-- Node8&#45;&gt;Node9 -->
<g id="edge8_Node000008_Node000009" class="edge">
<title>Node8&#45;&gt;Node9</title>
<g id="a_edge8_Node000008_Node000009"><a xlink:title=" ">
<path fill="none" stroke="#63b8ff" d="M994,-60.37C994,-52.25 994,-39.81 994,-29.39"/>
<polygon fill="#63b8ff" stroke="#63b8ff" points="997.5,-29.17 994,-19.17 990.5,-29.17 997.5,-29.17"/>
</a>
</g>
</g>
<!-- Node10 -->
<g id="Node000010" class="node">
<title>Node10</title>
<g id="a_Node000010"><a xlink:title=" ">
<polygon fill="#e0e0e0" stroke="#999999" points="1224,-19 1132,-19 1132,0 1224,0 1224,-19"/>
<text text-anchor="middle" x="1178" y="-7" font-family="Helvetica,sans-Serif" font-size="10.00">AMReX_REAL.H</text>
</a>
</g>
</g>
<!-- Node8&#45;&gt;Node10 -->
<g id="edge9_Node000008_Node000010" class="edge">
<title>Node8&#45;&gt;Node10</title>
<g id="a_edge9_Node000008_Node000010"><a xlink:title=" ">
<path fill="none" stroke="#63b8ff" d="M1020.76,-60.49C1052.64,-50.36 1106.07,-33.37 1141.68,-22.05"/>
<polygon fill="#63b8ff" stroke="#63b8ff" points="1142.74,-25.38 1151.21,-19.02 1140.62,-18.71 1142.74,-25.38"/>
</a>
</g>
</g>
<!-- Node11&#45;&gt;Node6 -->
<g id="edge13_Node000011_Node000006" class="edge">
<title>Node11&#45;&gt;Node6</title>
<g id="a_edge13_Node000011_Node000006"><a xlink:title=" ">
<path fill="none" stroke="#63b8ff" d="M839.32,-79.7C852.44,-89.75 871.14,-106.5 883.37,-118.93"/>
<polygon fill="#63b8ff" stroke="#63b8ff" points="880.95,-121.47 890.35,-126.37 886.06,-116.68 880.95,-121.47"/>
</a>
</g>
</g>
<!-- Node12 -->
<g id="Node000012" class="node">
<title>Node12</title>
<g id="a_Node000012"><a xlink:title=" ">
<polygon fill="#e0e0e0" stroke="#999999" points="853.5,-19 796.5,-19 796.5,0 853.5,0 853.5,-19"/>
<text text-anchor="middle" x="825" y="-7" font-family="Helvetica,sans-Serif" font-size="10.00">ostream</text>
</a>
</g>
</g>
<!-- Node11&#45;&gt;Node12 -->
<g id="edge11_Node000011_Node000012" class="edge">
<title>Node11&#45;&gt;Node12</title>
<g id="a_edge11_Node000011_Node000012"><a xlink:title=" ">
<path fill="none" stroke="#63b8ff" d="M825,-60.37C825,-52.25 825,-39.81 825,-29.39"/>
<polygon fill="#63b8ff" stroke="#63b8ff" points="828.5,-29.17 825,-19.17 821.5,-29.17 828.5,-29.17"/>
</a>
</g>
</g>
<!-- Node13 -->
<g id="Node000013" class="node">
<title>Node13</title>
<g id="a_Node000013"><a xlink:title=" ">
<polygon fill="#e0e0e0" stroke="#999999" points="1113.5,-19 1066.5,-19 1066.5,0 1113.5,0 1113.5,-19"/>
<text text-anchor="middle" x="1090" y="-7" font-family="Helvetica,sans-Serif" font-size="10.00">cmath</text>
</a>
</g>
</g>
<!-- Node11&#45;&gt;Node13 -->
<g id="edge12_Node000011_Node000013" class="edge">
<title>Node11&#45;&gt;Node13</title>
<g id="a_edge12_Node000011_Node000013"><a xlink:title=" ">
<path fill="none" stroke="#63b8ff" d="M863.53,-60.49C915.53,-49.01 1007.31,-28.75 1056.55,-17.88"/>
<polygon fill="#63b8ff" stroke="#63b8ff" points="1057.37,-21.29 1066.38,-15.71 1055.87,-14.45 1057.37,-21.29"/>
</a>
</g>
</g>
<!-- Node14&#45;&gt;Node6 -->
<g id="edge17_Node000014_Node000006" class="edge">
<title>Node14&#45;&gt;Node6</title>
<g id="a_edge17_Node000014_Node000006"><a xlink:title=" ">
<path fill="none" stroke="#63b8ff" d="M995.36,-192.37C975.9,-181.63 942.45,-163.18 919.56,-150.55"/>
<polygon fill="#63b8ff" stroke="#63b8ff" points="921.21,-147.47 910.77,-145.7 917.83,-153.59 921.21,-147.47"/>
</a>
</g>
</g>
<!-- Node14&#45;&gt;Node7 -->
<g id="edge15_Node000014_Node000007" class="edge">
<title>Node14&#45;&gt;Node7</title>
<g id="a_edge15_Node000014_Node000007"><a xlink:title=" ">
<path fill="none" stroke="#63b8ff" d="M1057.04,-192.46C1092.51,-184.74 1142.06,-171.41 1182,-151 1224.59,-129.24 1239.56,-124.17 1267,-85 1278.8,-68.16 1285.03,-45.21 1288.16,-29.25"/>
<polygon fill="#63b8ff" stroke="#63b8ff" points="1291.67,-29.5 1289.92,-19.05 1284.77,-28.31 1291.67,-29.5"/>
</a>
</g>
</g>
<!-- Node14&#45;&gt;Node8 -->
<g id="edge16_Node000014_Node000008" class="edge">
<title>Node14&#45;&gt;Node8</title>
<g id="a_edge16_Node000014_Node000008"><a xlink:title=" ">
<path fill="none" stroke="#63b8ff" d="M1009.88,-192.47C1007.17,-171.73 1000.18,-118.24 996.44,-89.66"/>
<polygon fill="#63b8ff" stroke="#63b8ff" points="999.91,-89.19 995.14,-79.73 992.97,-90.1 999.91,-89.19"/>
</a>
</g>
</g>
<!-- Node15 -->
<g id="Node000015" class="node">
<title>Node15</title>
<g id="a_Node000015"><a xlink:href="tensor_i_8_h.html" target="_top" xlink:title=" ">
<polygon fill="white" stroke="#666666" points="1172.5,-145.5 1023.5,-145.5 1023.5,-126.5 1172.5,-126.5 1172.5,-145.5"/>
<text text-anchor="middle" x="1098" y="-133.5" font-family="Helvetica,sans-Serif" font-size="10.00">amr&#45;wind/core/vs/tensorI.H</text>
</a>
</g>
</g>
<!-- Node14&#45;&gt;Node15 -->
<g id="edge18_Node000014_Node000015" class="edge">
<title>Node14&#45;&gt;Node15</title>
<g id="a_edge18_Node000014_Node000015"><a xlink:title=" ">
<path fill="none" stroke="#63b8ff" d="M1017.94,-192.37C1030.03,-181.82 1054.17,-163.84 1072.93,-151.23"/>
<polygon fill="#63b8ff" stroke="#63b8ff" points="1074.93,-154.11 1081.37,-145.7 1071.09,-148.25 1074.93,-154.11"/>
</a>
</g>
</g>
<!-- Node15&#45;&gt;Node13 -->
<g id="edge19_Node000015_Node000013" class="edge">
<title>Node15&#45;&gt;Node13</title>
<g id="a_edge19_Node000015_Node000013"><a xlink:title=" ">
<path fill="none" stroke="#63b8ff" d="M1097.45,-126.44C1096.17,-106.54 1092.97,-56.76 1091.21,-29.35"/>
<polygon fill="#63b8ff" stroke="#63b8ff" points="1094.69,-28.87 1090.55,-19.12 1087.7,-29.32 1094.69,-28.87"/>
</a>
</g>
</g>
<!-- Node15&#45;&gt;Node14 -->
<g id="edge20_Node000015_Node000014" class="edge">
<title>Node15&#45;&gt;Node14</title>
<g id="a_edge20_Node000015_Node000014"><a xlink:title=" ">
<path fill="none" stroke="#63b8ff" d="M1090.74,-145.91C1078.52,-156.52 1054.53,-174.38 1035.9,-186.88"/>
<polygon fill="#63b8ff" stroke="#63b8ff" points="1033.97,-183.96 1027.52,-192.37 1037.81,-189.82 1033.97,-183.96"/>
</a>
</g>
</g>
<!-- Node16 -->
<g id="Node000016" class="node">
<title>Node16</title>
<g id="a_Node000016"><a xlink:href="trig__ops_8_h.html" target="_top" xlink:title=" ">
<polygon fill="white" stroke="#666666" points="1229.5,-85 1126.5,-85 1126.5,-55 1229.5,-55 1229.5,-85"/>
<text text-anchor="start" x="1134.5" y="-73" font-family="Helvetica,sans-Serif" font-size="10.00">amr&#45;wind/utilities</text>
<text text-anchor="middle" x="1178" y="-62" font-family="Helvetica,sans-Serif" font-size="10.00">/trig_ops.H</text>
</a>
</g>
</g>
<!-- Node15&#45;&gt;Node16 -->
<g id="edge21_Node000015_Node000016" class="edge">
<title>Node15&#45;&gt;Node16</title>
<g id="a_edge21_Node000015_Node000016"><a xlink:title=" ">
<path fill="none" stroke="#63b8ff" d="M1108.79,-126.37C1119.94,-117.44 1137.77,-103.19 1152.53,-91.38"/>
<polygon fill="#63b8ff" stroke="#63b8ff" points="1154.73,-94.1 1160.36,-85.12 1150.36,-88.63 1154.73,-94.1"/>
</a>
</g>
</g>
<!-- Node16&#45;&gt;Node7 -->
<g id="edge24_Node000016_Node000007" class="edge">
<title>Node16&#45;&gt;Node7</title>
<g id="a_edge24_Node000016_Node000007"><a xlink:title=" ">
<path fill="none" stroke="#63b8ff" d="M1205.07,-54.99C1223.25,-45.58 1247.07,-33.24 1265.02,-23.95"/>
<polygon fill="#63b8ff" stroke="#63b8ff" points="1267.04,-26.84 1274.31,-19.14 1263.82,-20.63 1267.04,-26.84"/>
</a>
</g>
</g>
<!-- Node16&#45;&gt;Node10 -->
<g id="edge23_Node000016_Node000010" class="edge">
<title>Node16&#45;&gt;Node10</title>
<g id="a_edge23_Node000016_Node000010"><a xlink:title=" ">
<path fill="none" stroke="#63b8ff" d="M1178,-54.84C1178,-47.21 1178,-37.7 1178,-29.45"/>
<polygon fill="#63b8ff" stroke="#63b8ff" points="1181.5,-29.27 1178,-19.27 1174.5,-29.27 1181.5,-29.27"/>
</a>
</g>
</g>
<!-- Node16&#45;&gt;Node13 -->
<g id="edge22_Node000016_Node000013" class="edge">
<title>Node16&#45;&gt;Node13</title>
<g id="a_edge22_Node000016_Node000013"><a xlink:title=" ">
<path fill="none" stroke="#63b8ff" d="M1156.7,-54.84C1142.93,-45.68 1125.07,-33.82 1111.3,-24.66"/>
<polygon fill="#63b8ff" stroke="#63b8ff" points="1113.19,-21.72 1102.93,-19.09 1109.32,-27.55 1113.19,-21.72"/>
</a>
</g>
</g>
<!-- Node17&#45;&gt;Node7 -->
<g id="edge26_Node000017_Node000007" class="edge">
<title>Node17&#45;&gt;Node7</title>
<g id="a_edge26_Node000017_Node000007"><a xlink:title=" ">
<path fill="none" stroke="#63b8ff" d="M1276.3,-186.88C1288.94,-178.31 1303,-166.11 1310,-151 1327.94,-112.29 1318.55,-96.8 1310,-55 1308.11,-45.74 1304.21,-36.03 1300.43,-28.04"/>
<polygon fill="#63b8ff" stroke="#63b8ff" points="1303.51,-26.37 1295.88,-19.02 1297.26,-29.53 1303.51,-26.37"/>
</a>
</g>
</g>
<!-- Node18&#45;&gt;Node5 -->
<g id="edge43_Node000018_Node000005" class="edge">
<title>Node18&#45;&gt;Node5</title>
<g id="a_edge43_Node000018_Node000005"><a xlink:title=" ">
<path fill="none" stroke="#63b8ff" d="M518.2,-318.8C529.24,-310.18 543.51,-299.04 555.76,-289.48"/>
<polygon fill="#63b8ff" stroke="#63b8ff" points="558.12,-292.08 563.85,-283.16 553.82,-286.56 558.12,-292.08"/>
</a>
</g>
</g>
<!-- Node19 -->
<g id="Node000019" class="node">
<title>Node19</title>
<g id="a_Node000019"><a xlink:href="_line_sampler_8_h.html" target="_top" xlink:title=" ">
<polygon fill="white" stroke="#666666" points="459,-283 321,-283 321,-253 459,-253 459,-283"/>
<text text-anchor="start" x="329" y="-271" font-family="Helvetica,sans-Serif" font-size="10.00">amr&#45;wind/utilities</text>
<text text-anchor="middle" x="390" y="-260" font-family="Helvetica,sans-Serif" font-size="10.00">/sampling/LineSampler.H</text>
</a>
</g>
</g>
<!-- Node18&#45;&gt;Node19 -->
<g id="edge28_Node000018_Node000019" class="edge">
<title>Node18&#45;&gt;Node19</title>
<g id="a_edge28_Node000018_Node000019"><a xlink:title=" ">
<path fill="none" stroke="#63b8ff" d="M475.86,-318.95C460.39,-309.95 440.09,-298.14 423.12,-288.27"/>
<polygon fill="#63b8ff" stroke="#63b8ff" points="424.49,-285.02 414.08,-283.01 420.97,-291.07 424.49,-285.02"/>
</a>
</g>
</g>
<!-- Node20 -->
<g id="Node000020" class="node">
<title>Node20</title>
<g id="a_Node000020"><a xlink:href="_sampler_base_8_h.html" target="_top" xlink:title=" ">
<polygon fill="white" stroke="#666666" points="424.5,-217 281.5,-217 281.5,-187 424.5,-187 424.5,-217"/>
<text text-anchor="start" x="289.5" y="-205" font-family="Helvetica,sans-Serif" font-size="10.00">amr&#45;wind/utilities</text>
<text text-anchor="middle" x="353" y="-194" font-family="Helvetica,sans-Serif" font-size="10.00">/sampling/SamplerBase.H</text>
</a>
</g>
</g>
<!-- Node19&#45;&gt;Node20 -->
<g id="edge29_Node000019_Node000020" class="edge">
<title>Node19&#45;&gt;Node20</title>
<g id="a_edge29_Node000019_Node000020"><a xlink:title=" ">
<path fill="none" stroke="#63b8ff" d="M381.79,-252.8C377.24,-244.92 371.47,-234.95 366.29,-225.99"/>
<polygon fill="#63b8ff" stroke="#63b8ff" points="369.22,-224.07 361.19,-217.16 363.16,-227.57 369.22,-224.07"/>
</a>
</g>
</g>
<!-- Node21 -->
<g id="Node000021" class="node">
<title>Node21</title>
<g id="a_Node000021"><a xlink:title=" ">
<polygon fill="#e0e0e0" stroke="#999999" points="194,-145.5 84,-145.5 84,-126.5 194,-126.5 194,-145.5"/>
<text text-anchor="middle" x="139" y="-133.5" font-family="Helvetica,sans-Serif" font-size="10.00">AMReX_RealVect.H</text>
</a>
</g>
</g>
<!-- Node20&#45;&gt;Node21 -->
<g id="edge30_Node000020_Node000021" class="edge">
<title>Node20&#45;&gt;Node21</title>
<g id="a_edge30_Node000020_Node000021"><a xlink:title=" ">
<path fill="none" stroke="#63b8ff" d="M306.04,-186.95C267.35,-175.38 213.18,-159.18 177.14,-148.41"/>
<polygon fill="#63b8ff" stroke="#63b8ff" points="178.06,-145.03 167.48,-145.52 176.06,-151.74 178.06,-145.03"/>
</a>
</g>
</g>
<!-- Node22 -->
<g id="Node000022" class="node">
<title>Node22</title>
<g id="a_Node000022"><a xlink:href="_factory_8_h.html" target="_top" xlink:title=" ">
<polygon fill="white" stroke="#666666" points="346,-145.5 212,-145.5 212,-126.5 346,-126.5 346,-145.5"/>
<text text-anchor="middle" x="279" y="-133.5" font-family="Helvetica,sans-Serif" font-size="10.00">amr&#45;wind/core/Factory.H</text>
</a>
</g>
</g>
<!-- Node20&#45;&gt;Node22 -->
<g id="edge31_Node000020_Node000022" class="edge">
<title>Node20&#45;&gt;Node22</title>
<g id="a_edge31_Node000020_Node000022"><a xlink:title=" ">
<path fill="none" stroke="#63b8ff" d="M336.58,-186.8C324.81,-176.62 308.98,-162.93 296.9,-152.48"/>
<polygon fill="#63b8ff" stroke="#63b8ff" points="299.08,-149.74 289.23,-145.84 294.5,-155.03 299.08,-149.74"/>
</a>
</g>
</g>
<!-- Node28 -->
<g id="Node000028" class="node">
<title>Node28</title>
<g id="a_Node000028"><a xlink:href="nc__interface_8_h.html" target="_top" xlink:title=" ">
<polygon fill="white" stroke="#666666" points="574.5,-151 449.5,-151 449.5,-121 574.5,-121 574.5,-151"/>
<text text-anchor="start" x="457.5" y="-139" font-family="Helvetica,sans-Serif" font-size="10.00">amr&#45;wind/utilities</text>
<text text-anchor="middle" x="512" y="-128" font-family="Helvetica,sans-Serif" font-size="10.00">/ncutils/nc_interface.H</text>
</a>
</g>
</g>
<!-- Node20&#45;&gt;Node28 -->
<g id="edge37_Node000020_Node000028" class="edge">
<title>Node20&#45;&gt;Node28</title>
<g id="a_edge37_Node000020_Node000028"><a xlink:title=" ">
<path fill="none" stroke="#63b8ff" d="M387.89,-186.95C411.4,-177.49 442.6,-164.93 467.84,-154.78"/>
<polygon fill="#63b8ff" stroke="#63b8ff" points="469.22,-157.99 477.19,-151.01 466.6,-151.5 469.22,-157.99"/>
</a>
</g>
</g>
<!-- Node23 -->
<g id="Node000023" class="node">
<title>Node23</title>
<g id="a_Node000023"><a xlink:title=" ">
<polygon fill="#e0e0e0" stroke="#999999" points="138,-79.5 80,-79.5 80,-60.5 138,-60.5 138,-79.5"/>
<text text-anchor="middle" x="109" y="-67.5" font-family="Helvetica,sans-Serif" font-size="10.00">memory</text>
</a>
</g>
</g>
<!-- Node22&#45;&gt;Node23 -->
<g id="edge32_Node000022_Node000023" class="edge">
<title>Node22&#45;&gt;Node23</title>
<g id="a_edge32_Node000022_Node000023"><a xlink:title=" ">
<path fill="none" stroke="#63b8ff" d="M256.07,-126.37C226.46,-115.22 174.75,-95.75 141.2,-83.12"/>
<polygon fill="#63b8ff" stroke="#63b8ff" points="142.43,-79.84 131.83,-79.6 139.96,-86.4 142.43,-79.84"/>
</a>
</g>
</g>
<!-- Node24 -->
<g id="Node000024" class="node">
<title>Node24</title>
<g id="a_Node000024"><a xlink:title=" ">
<polygon fill="#e0e0e0" stroke="#999999" points="435.5,-79.5 342.5,-79.5 342.5,-60.5 435.5,-60.5 435.5,-79.5"/>
<text text-anchor="middle" x="389" y="-67.5" font-family="Helvetica,sans-Serif" font-size="10.00">unordered_map</text>
</a>
</g>
</g>
<!-- Node22&#45;&gt;Node24 -->
<g id="edge33_Node000022_Node000024" class="edge">
<title>Node22&#45;&gt;Node24</title>
<g id="a_edge33_Node000022_Node000024"><a xlink:title=" ">
<path fill="none" stroke="#63b8ff" d="M293.84,-126.37C312.12,-115.73 343.44,-97.51 365.13,-84.89"/>
<polygon fill="#63b8ff" stroke="#63b8ff" points="367.17,-87.75 374.05,-79.7 363.64,-81.7 367.17,-87.75"/>
</a>
</g>
</g>
<!-- Node25 -->
<g id="Node000025" class="node">
<title>Node25</title>
<g id="a_Node000025"><a xlink:title=" ">
<polygon fill="#e0e0e0" stroke="#999999" points="216,-79.5 156,-79.5 156,-60.5 216,-60.5 216,-79.5"/>
<text text-anchor="middle" x="186" y="-67.5" font-family="Helvetica,sans-Serif" font-size="10.00">iostream</text>
</a>
</g>
</g>
<!-- Node22&#45;&gt;Node25 -->
<g id="edge34_Node000022_Node000025" class="edge">
<title>Node22&#45;&gt;Node25</title>
<g id="a_edge34_Node000022_Node000025"><a xlink:title=" ">
<path fill="none" stroke="#63b8ff" d="M266.46,-126.37C251.2,-115.87 225.23,-98 206.93,-85.4"/>
<polygon fill="#63b8ff" stroke="#63b8ff" points="208.86,-82.48 198.64,-79.7 204.89,-88.25 208.86,-82.48"/>
</a>
</g>
</g>
<!-- Node26 -->
<g id="Node000026" class="node">
<title>Node26</title>
<g id="a_Node000026"><a xlink:title=" ">
<polygon fill="#e0e0e0" stroke="#999999" points="324,-79.5 234,-79.5 234,-60.5 324,-60.5 324,-79.5"/>
<text text-anchor="middle" x="279" y="-67.5" font-family="Helvetica,sans-Serif" font-size="10.00">AMReX_Print.H</text>
</a>
</g>
</g>
<!-- Node22&#45;&gt;Node26 -->
<g id="edge35_Node000022_Node000026" class="edge">
<title>Node22&#45;&gt;Node26</title>
<g id="a_edge35_Node000022_Node000026"><a xlink:title=" ">
<path fill="none" stroke="#63b8ff" d="M279,-126.37C279,-117.16 279,-102.29 279,-90.27"/>
<polygon fill="#63b8ff" stroke="#63b8ff" points="282.5,-89.91 279,-79.91 275.5,-89.91 282.5,-89.91"/>
</a>
</g>
</g>
<!-- Node27 -->
<g id="Node000027" class="node">
<title>Node27</title>
<g id="a_Node000027"><a xlink:title=" ">
<polygon fill="#e0e0e0" stroke="#999999" points="62,-79.5 0,-79.5 0,-60.5 62,-60.5 62,-79.5"/>
<text text-anchor="middle" x="31" y="-67.5" font-family="Helvetica,sans-Serif" font-size="10.00">AMReX.H</text>
</a>
</g>
</g>
<!-- Node22&#45;&gt;Node27 -->
<g id="edge36_Node000022_Node000027" class="edge">
<title>Node22&#45;&gt;Node27</title>
<g id="a_edge36_Node000022_Node000027"><a xlink:title=" ">
<path fill="none" stroke="#63b8ff" d="M238.03,-126.43C195.84,-117.31 128.36,-101.89 71,-85 68.59,-84.29 66.11,-83.52 63.63,-82.72"/>
<polygon fill="#63b8ff" stroke="#63b8ff" points="64.73,-79.4 54.14,-79.54 62.51,-86.04 64.73,-79.4"/>
</a>
</g>
</g>
<!-- Node28&#45;&gt;Node3 -->
<g id="edge38_Node000028_Node000003" class="edge">
<title>Node28&#45;&gt;Node3</title>
<g id="a_edge38_Node000028_Node000003"><a xlink:title=" ">
<path fill="none" stroke="#63b8ff" d="M564.81,-120.96C597.94,-111.72 641.35,-98.81 679,-85 680.39,-84.49 681.8,-83.95 683.22,-83.39"/>
<polygon fill="#63b8ff" stroke="#63b8ff" points="684.64,-86.59 692.54,-79.53 681.96,-80.13 684.64,-86.59"/>
</a>
</g>
</g>
<!-- Node28&#45;&gt;Node24 -->
<g id="edge39_Node000028_Node000024" class="edge">
<title>Node28&#45;&gt;Node24</title>
<g id="a_edge39_Node000028_Node000024"><a xlink:title=" ">
<path fill="none" stroke="#63b8ff" d="M485.01,-120.95C464.01,-110.03 435.07,-94.97 414.47,-84.25"/>
<polygon fill="#63b8ff" stroke="#63b8ff" points="415.86,-81.03 405.37,-79.52 412.62,-87.24 415.86,-81.03"/>
</a>
</g>
</g>
<!-- Node29 -->
<g id="Node000029" class="node">
<title>Node29</title>
<g id="a_Node000029"><a xlink:title=" ">
<polygon fill="#e0e0e0" stroke="#999999" points="500.5,-79.5 453.5,-79.5 453.5,-60.5 500.5,-60.5 500.5,-79.5"/>
<text text-anchor="middle" x="477" y="-67.5" font-family="Helvetica,sans-Serif" font-size="10.00">vector</text>
</a>
</g>
</g>
<!-- Node28&#45;&gt;Node29 -->
<g id="edge40_Node000028_Node000029" class="edge">
<title>Node28&#45;&gt;Node29</title>
<g id="a_edge40_Node000028_Node000029"><a xlink:title=" ">
<path fill="none" stroke="#63b8ff" d="M504.23,-120.8C499.04,-111.31 492.18,-98.76 486.64,-88.63"/>
<polygon fill="#63b8ff" stroke="#63b8ff" points="489.71,-86.94 481.84,-79.84 483.56,-90.3 489.71,-86.94"/>
</a>
</g>
</g>
<!-- Node30 -->
<g id="Node000030" class="node">
<title>Node30</title>
<g id="a_Node000030"><a xlink:title=" ">
<polygon fill="#e0e0e0" stroke="#999999" points="575,-79.5 519,-79.5 519,-60.5 575,-60.5 575,-79.5"/>
<text text-anchor="middle" x="547" y="-67.5" font-family="Helvetica,sans-Serif" font-size="10.00">netcdf.h</text>
</a>
</g>
</g>
<!-- Node28&#45;&gt;Node30 -->
<g id="edge41_Node000028_Node000030" class="edge">
<title>Node28&#45;&gt;Node30</title>
<g id="a_edge41_Node000028_Node000030"><a xlink:title=" ">
<path fill="none" stroke="#63b8ff" d="M519.77,-120.8C524.96,-111.31 531.82,-98.76 537.36,-88.63"/>
<polygon fill="#63b8ff" stroke="#63b8ff" points="540.44,-90.3 542.16,-79.84 534.29,-86.94 540.44,-90.3"/>
</a>
</g>
</g>
<!-- Node31 -->
<g id="Node000031" class="node">
<title>Node31</title>
<g id="a_Node000031"><a xlink:title=" ">
<polygon fill="#e0e0e0" stroke="#999999" points="670.5,-79.5 593.5,-79.5 593.5,-60.5 670.5,-60.5 670.5,-79.5"/>
<text text-anchor="middle" x="632" y="-67.5" font-family="Helvetica,sans-Serif" font-size="10.00">netcdf_par.h</text>
</a>
</g>
</g>
<!-- Node28&#45;&gt;Node31 -->
<g id="edge42_Node000028_Node000031" class="edge">
<title>Node28&#45;&gt;Node31</title>
<g id="a_edge42_Node000028_Node000031"><a xlink:title=" ">
<path fill="none" stroke="#63b8ff" d="M538.33,-120.95C558.82,-110.03 587.06,-94.97 607.16,-84.25"/>
<polygon fill="#63b8ff" stroke="#63b8ff" points="608.85,-87.31 616.03,-79.52 605.56,-81.14 608.85,-87.31"/>
</a>
</g>
</g>
</g>
</svg>
