<?xml version="1.0" encoding="UTF-8" standalone="no"?>
<!DOCTYPE svg PUBLIC "-//W3C//DTD SVG 1.1//EN"
 "http://www.w3.org/Graphics/SVG/1.1/DTD/svg11.dtd">
<!-- Generated by graphviz version 2.43.0 (0)
 -->
<!-- Title: /home/runner/work/amr&#45;wind/amr&#45;wind/amr&#45;wind/utilities/sampling/DTUSpinnerSampler.H Pages: 1 -->
<!--zoomable 434 -->

<svg id="main" version="1.1" xmlns="http://www.w3.org/2000/svg" xmlns:xlink="http://www.w3.org/1999/xlink" xml:space="preserve" onload="init(evt)">

<style type="text/css"><![CDATA[
.node, .edge {opacity: 0.7;}
.node.selected, .edge.selected {opacity: 1;}
.edge:hover path { stroke: red; }
.edge:hover polygon { stroke: red; fill: red; }
]]></style>

<defs>
  <circle id="rim" cx="0" cy="0" r="7"/>
  <circle id="rim2" cx="0" cy="0" r="3.5"/>
  <g id="zoomPlus">
    <use xlink:href="#rim" fill="#404040"><set attributeName="fill" to="#808080" begin="zoomplus.mouseover" end="zoomplus.mouseout"/></use>
    <path d="M-4,0h8M0,-4v8" fill="none" stroke="white" stroke-width="1.5" pointer-events="none"/>
  </g>
  <g id="zoomMin">
    <use xlink:href="#rim" fill="#404040"><set attributeName="fill" to="#808080" begin="zoomminus.mouseover" end="zoomminus.mouseout"/></use>
    <path d="M-4,0h8" fill="none" stroke="white" stroke-width="1.5" pointer-events="none"/>
  </g>
  <g id="arrowUp" transform="translate(30 24)">
    <use xlink:href="#rim"/>
    <path pointer-events="none" fill="none" stroke="white" stroke-width="1.5" d="M0,-3.0v7 M-2.5,-0.5L0,-3.0L2.5,-0.5"/>
  </g>
  <g id="arrowRight" transform="rotate(90) translate(36 -43)">
    <use xlink:href="#rim"/>
    <path pointer-events="none" fill="none" stroke="white" stroke-width="1.5" d="M0,-3.0v7 M-2.5,-0.5L0,-3.0L2.5,-0.5"/>
  </g>
  <g id="arrowDown" transform="rotate(180) translate(-30 -48)">
    <use xlink:href="#rim"/>
    <path pointer-events="none" fill="none" stroke="white" stroke-width="1.5" d="M0,-3.0v7 M-2.5,-0.5L0,-3.0L2.5,-0.5"/>
  </g>
  <g id="arrowLeft" transform="rotate(270) translate(-36 17)">
    <use xlink:href="#rim"/>
    <path pointer-events="none" fill="none" stroke="white" stroke-width="1.5" d="M0,-3.0v7 M-2.5,-0.5L0,-3.0L2.5,-0.5"/>
  </g>
  <g id="resetDef">
    <use xlink:href="#rim2" fill="#404040"><set attributeName="fill" to="#808080" begin="reset.mouseover" end="reset.mouseout"/></use>
  </g>
</defs>
<script type="application/ecmascript">
var viewWidth = 1786;
var viewHeight = 434;
var sectionId = 'dynsection-0';
</script>
<script type="application/ecmascript" xlink:href="svg.min.js"/>
<svg id="graph" class="graph">
<g id="viewport">
<title>/home/runner/work/amr&#45;wind/amr&#45;wind/amr&#45;wind/utilities/sampling/DTUSpinnerSampler.H</title>
<!-- Node1 -->
<g id="Node000001" class="node">
<title>Node1</title>
<g id="a_Node000001"><a xlink:title=" ">
<polygon fill="#999999" stroke="#666666" points="1113.5,-426 948.5,-426 948.5,-374 1113.5,-374 1113.5,-426"/>
<text text-anchor="start" x="956.5" y="-414" font-family="Helvetica,sans-Serif" font-size="10.00">/home/runner/work/amr</text>
<text text-anchor="start" x="956.5" y="-403" font-family="Helvetica,sans-Serif" font-size="10.00">&#45;wind/amr&#45;wind/amr&#45;wind</text>
<text text-anchor="start" x="956.5" y="-392" font-family="Helvetica,sans-Serif" font-size="10.00">/utilities/sampling/DTUSpinner</text>
<text text-anchor="middle" x="1031" y="-381" font-family="Helvetica,sans-Serif" font-size="10.00">Sampler.H</text>
</a>
</g>
</g>
<!-- Node2 -->
<g id="Node000002" class="node">
<title>Node2</title>
<g id="a_Node000002"><a xlink:href="_sampling_utils_8_h.html" target="_top" xlink:title=" ">
<polygon fill="white" stroke="#666666" points="1181,-338 1035,-338 1035,-308 1181,-308 1181,-338"/>
<text text-anchor="start" x="1043" y="-326" font-family="Helvetica,sans-Serif" font-size="10.00">amr&#45;wind/utilities</text>
<text text-anchor="middle" x="1108" y="-315" font-family="Helvetica,sans-Serif" font-size="10.00">/sampling/SamplingUtils.H</text>
</a>
</g>
</g>
<!-- Node1&#45;&gt;Node2 -->
<g id="edge1_Node000001_Node000002" class="edge">
<title>Node1&#45;&gt;Node2</title>
<g id="a_edge1_Node000001_Node000002"><a xlink:title=" ">
<path fill="none" stroke="#63b8ff" d="M1057.07,-373.61C1066.48,-364.45 1076.99,-354.2 1086.02,-345.41"/>
<polygon fill="#63b8ff" stroke="#63b8ff" points="1088.47,-347.91 1093.19,-338.43 1083.58,-342.9 1088.47,-347.91"/>
</a>
</g>
</g>
<!-- Node5 -->
<g id="Node000005" class="node">
<title>Node5</title>
<g id="a_Node000005"><a xlink:href="vector__space_8_h.html" target="_top" xlink:title=" ">
<polygon fill="white" stroke="#666666" points="1374.5,-272 1239.5,-272 1239.5,-242 1374.5,-242 1374.5,-272"/>
<text text-anchor="start" x="1247.5" y="-260" font-family="Helvetica,sans-Serif" font-size="10.00">amr&#45;wind/core/vs/vector</text>
<text text-anchor="middle" x="1307" y="-249" font-family="Helvetica,sans-Serif" font-size="10.00">_space.H</text>
</a>
</g>
</g>
<!-- Node1&#45;&gt;Node5 -->
<g id="edge51_Node000001_Node000005" class="edge">
<title>Node1&#45;&gt;Node5</title>
<g id="a_edge51_Node000001_Node000005"><a xlink:title=" ">
<path fill="none" stroke="#63b8ff" d="M1107,-373.95C1133.83,-364.04 1163.82,-351.73 1190,-338 1223.04,-320.67 1257.99,-295.8 1280.99,-278.41"/>
<polygon fill="#63b8ff" stroke="#63b8ff" points="1283.37,-280.99 1289.19,-272.14 1279.12,-275.43 1283.37,-280.99"/>
</a>
</g>
</g>
<!-- Node16 -->
<g id="Node000016" class="node">
<title>Node16</title>
<g id="a_Node000016"><a xlink:title=" ">
<polygon fill="#e0e0e0" stroke="#999999" points="1104,-19 1012,-19 1012,0 1104,0 1104,-19"/>
<text text-anchor="middle" x="1058" y="-7" font-family="Helvetica,sans-Serif" font-size="10.00">AMReX_REAL.H</text>
</a>
</g>
</g>
<!-- Node1&#45;&gt;Node16 -->
<g id="edge52_Node000001_Node000016" class="edge">
<title>Node1&#45;&gt;Node16</title>
<g id="a_edge52_Node000001_Node000016"><a xlink:title=" ">
<path fill="none" stroke="#63b8ff" d="M1016.27,-373.96C1001.52,-346.48 981,-300.6 981,-258 981,-258 981,-258 981,-135 981,-89.99 1017.86,-47.66 1040.57,-25.86"/>
<polygon fill="#63b8ff" stroke="#63b8ff" points="1042.98,-28.39 1047.93,-19.03 1038.22,-23.26 1042.98,-28.39"/>
</a>
</g>
</g>
<!-- Node18 -->
<g id="Node000018" class="node">
<title>Node18</title>
<g id="a_Node000018"><a xlink:href="_lidar_sampler_8_h.html" target="_top" xlink:title=" ">
<polygon fill="white" stroke="#666666" points="953,-338 811,-338 811,-308 953,-308 953,-338"/>
<text text-anchor="start" x="819" y="-326" font-family="Helvetica,sans-Serif" font-size="10.00">amr&#45;wind/utilities</text>
<text text-anchor="middle" x="882" y="-315" font-family="Helvetica,sans-Serif" font-size="10.00">/sampling/LidarSampler.H</text>
</a>
</g>
</g>
<!-- Node1&#45;&gt;Node18 -->
<g id="edge28_Node000001_Node000018" class="edge">
<title>Node1&#45;&gt;Node18</title>
<g id="a_edge28_Node000001_Node000018"><a xlink:title=" ">
<path fill="none" stroke="#63b8ff" d="M980.97,-373.82C960.72,-363.62 937.76,-352.06 919.05,-342.65"/>
<polygon fill="#63b8ff" stroke="#63b8ff" points="920.47,-339.45 909.97,-338.08 917.32,-345.7 920.47,-339.45"/>
</a>
</g>
</g>
<!-- Node3 -->
<g id="Node000003" class="node">
<title>Node3</title>
<g id="a_Node000003"><a xlink:title=" ">
<polygon fill="#e0e0e0" stroke="#999999" points="842,-19 798,-19 798,0 842,0 842,-19"/>
<text text-anchor="middle" x="820" y="-7" font-family="Helvetica,sans-Serif" font-size="10.00">string</text>
</a>
</g>
</g>
<!-- Node2&#45;&gt;Node3 -->
<g id="edge2_Node000002_Node000003" class="edge">
<title>Node2&#45;&gt;Node3</title>
<g id="a_edge2_Node000002_Node000003"><a xlink:title=" ">
<path fill="none" stroke="#63b8ff" d="M1088.69,-307.89C1062.51,-286.98 1019,-245.06 1019,-197.5 1019,-197.5 1019,-197.5 1019,-135 1019,-79.8 971,-83.95 924,-55 901.05,-40.86 872.81,-29.09 851.55,-21.21"/>
<polygon fill="#63b8ff" stroke="#63b8ff" points="852.62,-17.88 842.03,-17.77 850.24,-24.46 852.62,-17.88"/>
</a>
</g>
</g>
<!-- Node4 -->
<g id="Node000004" class="node">
<title>Node4</title>
<g id="a_Node000004"><a xlink:title=" ">
<polygon fill="#e0e0e0" stroke="#999999" points="1183,-266.5 1085,-266.5 1085,-247.5 1183,-247.5 1183,-266.5"/>
<text text-anchor="middle" x="1134" y="-254.5" font-family="Helvetica,sans-Serif" font-size="10.00">AMReX_Vector.H</text>
</a>
</g>
</g>
<!-- Node2&#45;&gt;Node4 -->
<g id="edge3_Node000002_Node000004" class="edge">
<title>Node2&#45;&gt;Node4</title>
<g id="a_edge3_Node000002_Node000004"><a xlink:title=" ">
<path fill="none" stroke="#63b8ff" d="M1113.77,-307.8C1117.55,-298.5 1122.51,-286.27 1126.58,-276.26"/>
<polygon fill="#63b8ff" stroke="#63b8ff" points="1129.89,-277.43 1130.41,-266.84 1123.4,-274.79 1129.89,-277.43"/>
</a>
</g>
</g>
<!-- Node2&#45;&gt;Node5 -->
<g id="edge4_Node000002_Node000005" class="edge">
<title>Node2&#45;&gt;Node5</title>
<g id="a_edge4_Node000002_Node000005"><a xlink:title=" ">
<path fill="none" stroke="#63b8ff" d="M1151.67,-307.95C1181.74,-298.28 1221.87,-285.38 1253.8,-275.11"/>
<polygon fill="#63b8ff" stroke="#63b8ff" points="1254.98,-278.41 1263.43,-272.01 1252.84,-271.74 1254.98,-278.41"/>
</a>
</g>
</g>
<!-- Node2&#45;&gt;Node16 -->
<g id="edge27_Node000002_Node000016" class="edge">
<title>Node2&#45;&gt;Node16</title>
<g id="a_edge27_Node000002_Node000016"><a xlink:title=" ">
<path fill="none" stroke="#63b8ff" d="M1097.18,-307.82C1090.26,-298.17 1081.58,-284.86 1076,-272 1062.39,-240.65 1057,-231.67 1057,-197.5 1057,-197.5 1057,-197.5 1057,-135 1057,-97.49 1057.46,-53.63 1057.76,-29.26"/>
<polygon fill="#63b8ff" stroke="#63b8ff" points="1061.26,-29.3 1057.88,-19.25 1054.26,-29.21 1061.26,-29.3"/>
</a>
</g>
</g>
<!-- Node17 -->
<g id="Node000017" class="node">
<title>Node17</title>
<g id="a_Node000017"><a xlink:href="tensor__ops_8_h.html" target="_top" xlink:title=" ">
<polygon fill="white" stroke="#666666" points="1204.5,-85 1101.5,-85 1101.5,-55 1204.5,-55 1204.5,-85"/>
<text text-anchor="start" x="1109.5" y="-73" font-family="Helvetica,sans-Serif" font-size="10.00">amr&#45;wind/utilities</text>
<text text-anchor="middle" x="1153" y="-62" font-family="Helvetica,sans-Serif" font-size="10.00">/tensor_ops.H</text>
</a>
</g>
</g>
<!-- Node2&#45;&gt;Node17 -->
<g id="edge24_Node000002_Node000017" class="edge">
<title>Node2&#45;&gt;Node17</title>
<g id="a_edge24_Node000002_Node000017"><a xlink:title=" ">
<path fill="none" stroke="#63b8ff" d="M1149.36,-307.81C1165.66,-299.95 1182.69,-288.38 1192,-272 1224.88,-214.17 1188.85,-133.48 1167.08,-94.25"/>
<polygon fill="#63b8ff" stroke="#63b8ff" points="1169.91,-92.15 1161.91,-85.21 1163.84,-95.63 1169.91,-92.15"/>
</a>
</g>
</g>
<!-- Node6 -->
<g id="Node000006" class="node">
<title>Node6</title>
<g id="a_Node000006"><a xlink:href="vector_8_h.html" target="_top" xlink:title=" ">
<polygon fill="white" stroke="#666666" points="1668.5,-145.5 1523.5,-145.5 1523.5,-126.5 1668.5,-126.5 1668.5,-145.5"/>
<text text-anchor="middle" x="1596" y="-133.5" font-family="Helvetica,sans-Serif" font-size="10.00">amr&#45;wind/core/vs/vector.H</text>
</a>
</g>
</g>
<!-- Node5&#45;&gt;Node6 -->
<g id="edge5_Node000005_Node000006" class="edge">
<title>Node5&#45;&gt;Node6</title>
<g id="a_edge5_Node000005_Node000006"><a xlink:title=" ">
<path fill="none" stroke="#63b8ff" d="M1351.59,-241.92C1380.27,-232.52 1418.19,-219.46 1451,-206 1493.64,-188.51 1541.67,-164.84 1570.36,-150.26"/>
<polygon fill="#63b8ff" stroke="#63b8ff" points="1571.99,-153.35 1579.31,-145.69 1568.81,-147.12 1571.99,-153.35"/>
</a>
</g>
</g>
<!-- Node13 -->
<g id="Node000013" class="node">
<title>Node13</title>
<g id="a_Node000013"><a xlink:href="tensor_8_h.html" target="_top" xlink:title=" ">
<polygon fill="white" stroke="#666666" points="1441.5,-206 1296.5,-206 1296.5,-187 1441.5,-187 1441.5,-206"/>
<text text-anchor="middle" x="1369" y="-194" font-family="Helvetica,sans-Serif" font-size="10.00">amr&#45;wind/core/vs/tensor.H</text>
</a>
</g>
</g>
<!-- Node5&#45;&gt;Node13 -->
<g id="edge13_Node000005_Node000013" class="edge">
<title>Node5&#45;&gt;Node13</title>
<g id="a_edge13_Node000005_Node000013"><a xlink:title=" ">
<path fill="none" stroke="#63b8ff" d="M1322.01,-241.84C1331.19,-233.17 1342.95,-222.08 1352.41,-213.15"/>
<polygon fill="#63b8ff" stroke="#63b8ff" points="1354.84,-215.67 1359.71,-206.27 1350.03,-210.58 1354.84,-215.67"/>
</a>
</g>
</g>
<!-- Node7 -->
<g id="Node000007" class="node">
<title>Node7</title>
<g id="a_Node000007"><a xlink:title=" ">
<polygon fill="#e0e0e0" stroke="#999999" points="1313.5,-19 1226.5,-19 1226.5,0 1313.5,0 1313.5,-19"/>
<text text-anchor="middle" x="1270" y="-7" font-family="Helvetica,sans-Serif" font-size="10.00">AMReX_Gpu.H</text>
</a>
</g>
</g>
<!-- Node6&#45;&gt;Node7 -->
<g id="edge6_Node000006_Node000007" class="edge">
<title>Node6&#45;&gt;Node7</title>
<g id="a_edge6_Node000006_Node000007"><a xlink:title=" ">
<path fill="none" stroke="#63b8ff" d="M1597.42,-126.29C1599.58,-109.79 1601.54,-73.94 1582,-55 1572.81,-46.1 1410.41,-26.44 1323.65,-16.5"/>
<polygon fill="#63b8ff" stroke="#63b8ff" points="1324.05,-13.02 1313.71,-15.37 1323.25,-19.98 1324.05,-13.02"/>
</a>
</g>
</g>
<!-- Node8 -->
<g id="Node000008" class="node">
<title>Node8</title>
<g id="a_Node000008"><a xlink:href="vstraits_8_h.html" target="_top" xlink:title=" ">
<polygon fill="white" stroke="#666666" points="1573,-79.5 1421,-79.5 1421,-60.5 1573,-60.5 1573,-79.5"/>
<text text-anchor="middle" x="1497" y="-67.5" font-family="Helvetica,sans-Serif" font-size="10.00">amr&#45;wind/core/vs/vstraits.H</text>
</a>
</g>
</g>
<!-- Node6&#45;&gt;Node8 -->
<g id="edge7_Node000006_Node000008" class="edge">
<title>Node6&#45;&gt;Node8</title>
<g id="a_edge7_Node000006_Node000008"><a xlink:title=" ">
<path fill="none" stroke="#63b8ff" d="M1582.65,-126.37C1566.34,-115.82 1538.51,-97.84 1519.01,-85.23"/>
<polygon fill="#63b8ff" stroke="#63b8ff" points="1520.75,-82.19 1510.46,-79.7 1516.95,-88.07 1520.75,-82.19"/>
</a>
</g>
</g>
<!-- Node10 -->
<g id="Node000010" class="node">
<title>Node10</title>
<g id="a_Node000010"><a xlink:href="vector_i_8_h.html" target="_top" xlink:title=" ">
<polygon fill="white" stroke="#666666" points="1777.5,-79.5 1628.5,-79.5 1628.5,-60.5 1777.5,-60.5 1777.5,-79.5"/>
<text text-anchor="middle" x="1703" y="-67.5" font-family="Helvetica,sans-Serif" font-size="10.00">amr&#45;wind/core/vs/vectorI.H</text>
</a>
</g>
</g>
<!-- Node6&#45;&gt;Node10 -->
<g id="edge9_Node000006_Node000010" class="edge">
<title>Node6&#45;&gt;Node10</title>
<g id="a_edge9_Node000006_Node000010"><a xlink:title=" ">
<path fill="none" stroke="#63b8ff" d="M1605.64,-126.37C1621.3,-115.63 1651.86,-97.18 1674.71,-84.55"/>
<polygon fill="#63b8ff" stroke="#63b8ff" points="1676.53,-87.54 1683.65,-79.7 1673.19,-81.39 1676.53,-87.54"/>
</a>
</g>
</g>
<!-- Node9 -->
<g id="Node000009" class="node">
<title>Node9</title>
<g id="a_Node000009"><a xlink:title=" ">
<polygon fill="#e0e0e0" stroke="#999999" points="1519,-19 1475,-19 1475,0 1519,0 1519,-19"/>
<text text-anchor="middle" x="1497" y="-7" font-family="Helvetica,sans-Serif" font-size="10.00">limits</text>
</a>
</g>
</g>
<!-- Node8&#45;&gt;Node9 -->
<g id="edge8_Node000008_Node000009" class="edge">
<title>Node8&#45;&gt;Node9</title>
<g id="a_edge8_Node000008_Node000009"><a xlink:title=" ">
<path fill="none" stroke="#63b8ff" d="M1497,-60.37C1497,-52.25 1497,-39.81 1497,-29.39"/>
<polygon fill="#63b8ff" stroke="#63b8ff" points="1500.5,-29.17 1497,-19.17 1493.5,-29.17 1500.5,-29.17"/>
</a>
</g>
</g>
<!-- Node10&#45;&gt;Node6 -->
<g id="edge12_Node000010_Node000006" class="edge">
<title>Node10&#45;&gt;Node6</title>
<g id="a_edge12_Node000010_Node000006"><a xlink:title=" ">
<path fill="none" stroke="#63b8ff" d="M1693.26,-79.7C1677.54,-90.47 1646.96,-108.92 1624.15,-121.53"/>
<polygon fill="#63b8ff" stroke="#63b8ff" points="1622.34,-118.52 1615.22,-126.37 1625.68,-124.68 1622.34,-118.52"/>
</a>
</g>
</g>
<!-- Node11 -->
<g id="Node000011" class="node">
<title>Node11</title>
<g id="a_Node000011"><a xlink:title=" ">
<polygon fill="#e0e0e0" stroke="#999999" points="1731.5,-19 1674.5,-19 1674.5,0 1731.5,0 1731.5,-19"/>
<text text-anchor="middle" x="1703" y="-7" font-family="Helvetica,sans-Serif" font-size="10.00">ostream</text>
</a>
</g>
</g>
<!-- Node10&#45;&gt;Node11 -->
<g id="edge10_Node000010_Node000011" class="edge">
<title>Node10&#45;&gt;Node11</title>
<g id="a_edge10_Node000010_Node000011"><a xlink:title=" ">
<path fill="none" stroke="#63b8ff" d="M1703,-60.37C1703,-52.25 1703,-39.81 1703,-29.39"/>
<polygon fill="#63b8ff" stroke="#63b8ff" points="1706.5,-29.17 1703,-19.17 1699.5,-29.17 1706.5,-29.17"/>
</a>
</g>
</g>
<!-- Node12 -->
<g id="Node000012" class="node">
<title>Node12</title>
<g id="a_Node000012"><a xlink:title=" ">
<polygon fill="#e0e0e0" stroke="#999999" points="1416.5,-19 1369.5,-19 1369.5,0 1416.5,0 1416.5,-19"/>
<text text-anchor="middle" x="1393" y="-7" font-family="Helvetica,sans-Serif" font-size="10.00">cmath</text>
</a>
</g>
</g>
<!-- Node10&#45;&gt;Node12 -->
<g id="edge11_Node000010_Node000012" class="edge">
<title>Node10&#45;&gt;Node12</title>
<g id="a_edge11_Node000010_Node000012"><a xlink:title=" ">
<path fill="none" stroke="#63b8ff" d="M1657.92,-60.49C1595.14,-48.64 1482.77,-27.44 1426.72,-16.86"/>
<polygon fill="#63b8ff" stroke="#63b8ff" points="1427.09,-13.37 1416.61,-14.96 1425.79,-20.25 1427.09,-13.37"/>
</a>
</g>
</g>
<!-- Node13&#45;&gt;Node6 -->
<g id="edge16_Node000013_Node000006" class="edge">
<title>Node13&#45;&gt;Node6</title>
<g id="a_edge16_Node000013_Node000006"><a xlink:title=" ">
<path fill="none" stroke="#63b8ff" d="M1402.01,-186.99C1441.94,-176.7 1509.24,-159.36 1553.14,-148.04"/>
<polygon fill="#63b8ff" stroke="#63b8ff" points="1554.14,-151.4 1562.95,-145.52 1552.4,-144.62 1554.14,-151.4"/>
</a>
</g>
</g>
<!-- Node13&#45;&gt;Node7 -->
<g id="edge14_Node000013_Node000007" class="edge">
<title>Node13&#45;&gt;Node7</title>
<g id="a_edge14_Node000013_Node000007"><a xlink:title=" ">
<path fill="none" stroke="#63b8ff" d="M1344.29,-186.94C1326.28,-179.69 1302.3,-167.77 1286,-151 1254.56,-118.65 1244.81,-99.37 1253,-55 1254.67,-45.95 1258.1,-36.36 1261.44,-28.41"/>
<polygon fill="#63b8ff" stroke="#63b8ff" points="1264.73,-29.65 1265.63,-19.09 1258.34,-26.78 1264.73,-29.65"/>
</a>
</g>
</g>
<!-- Node13&#45;&gt;Node8 -->
<g id="edge15_Node000013_Node000008" class="edge">
<title>Node13&#45;&gt;Node8</title>
<g id="a_edge15_Node000013_Node000008"><a xlink:title=" ">
<path fill="none" stroke="#63b8ff" d="M1393.44,-186.97C1411.6,-179.67 1436.06,-167.67 1453,-151 1470.87,-133.41 1483.45,-107.02 1490.46,-89.41"/>
<polygon fill="#63b8ff" stroke="#63b8ff" points="1493.85,-90.34 1494.1,-79.75 1487.3,-87.87 1493.85,-90.34"/>
</a>
</g>
</g>
<!-- Node14 -->
<g id="Node000014" class="node">
<title>Node14</title>
<g id="a_Node000014"><a xlink:href="tensor_i_8_h.html" target="_top" xlink:title=" ">
<polygon fill="white" stroke="#666666" points="1443.5,-145.5 1294.5,-145.5 1294.5,-126.5 1443.5,-126.5 1443.5,-145.5"/>
<text text-anchor="middle" x="1369" y="-133.5" font-family="Helvetica,sans-Serif" font-size="10.00">amr&#45;wind/core/vs/tensorI.H</text>
</a>
</g>
</g>
<!-- Node13&#45;&gt;Node14 -->
<g id="edge17_Node000013_Node000014" class="edge">
<title>Node13&#45;&gt;Node14</title>
<g id="a_edge17_Node000013_Node000014"><a xlink:title=" ">
<path fill="none" stroke="#63b8ff" d="M1364.04,-186.87C1362.29,-178.75 1361.82,-166.31 1362.64,-155.89"/>
<polygon fill="#63b8ff" stroke="#63b8ff" points="1366.15,-156.05 1364.04,-145.67 1359.22,-155.1 1366.15,-156.05"/>
</a>
</g>
</g>
<!-- Node14&#45;&gt;Node12 -->
<g id="edge18_Node000014_Node000012" class="edge">
<title>Node14&#45;&gt;Node12</title>
<g id="a_edge18_Node000014_Node000012"><a xlink:title=" ">
<path fill="none" stroke="#63b8ff" d="M1370.65,-126.44C1374.5,-106.45 1384.17,-56.32 1389.44,-28.98"/>
<polygon fill="#63b8ff" stroke="#63b8ff" points="1392.88,-29.6 1391.34,-19.12 1386.01,-28.27 1392.88,-29.6"/>
</a>
</g>
</g>
<!-- Node14&#45;&gt;Node13 -->
<g id="edge19_Node000014_Node000013" class="edge">
<title>Node14&#45;&gt;Node13</title>
<g id="a_edge19_Node000014_Node000013"><a xlink:title=" ">
<path fill="none" stroke="#63b8ff" d="M1373.96,-145.67C1375.71,-153.8 1376.18,-166.24 1375.35,-176.66"/>
<polygon fill="#63b8ff" stroke="#63b8ff" points="1371.85,-176.49 1373.96,-186.87 1378.78,-177.44 1371.85,-176.49"/>
</a>
</g>
</g>
<!-- Node15 -->
<g id="Node000015" class="node">
<title>Node15</title>
<g id="a_Node000015"><a xlink:href="trig__ops_8_h.html" target="_top" xlink:title=" ">
<polygon fill="white" stroke="#666666" points="1364.5,-85 1261.5,-85 1261.5,-55 1364.5,-55 1364.5,-85"/>
<text text-anchor="start" x="1269.5" y="-73" font-family="Helvetica,sans-Serif" font-size="10.00">amr&#45;wind/utilities</text>
<text text-anchor="middle" x="1313" y="-62" font-family="Helvetica,sans-Serif" font-size="10.00">/trig_ops.H</text>
</a>
</g>
</g>
<!-- Node14&#45;&gt;Node15 -->
<g id="edge20_Node000014_Node000015" class="edge">
<title>Node14&#45;&gt;Node15</title>
<g id="a_edge20_Node000014_Node000015"><a xlink:title=" ">
<path fill="none" stroke="#63b8ff" d="M1361.45,-126.37C1353.98,-117.83 1342.23,-104.41 1332.18,-92.92"/>
<polygon fill="#63b8ff" stroke="#63b8ff" points="1334.78,-90.58 1325.57,-85.36 1329.52,-95.19 1334.78,-90.58"/>
</a>
</g>
</g>
<!-- Node15&#45;&gt;Node7 -->
<g id="edge23_Node000015_Node000007" class="edge">
<title>Node15&#45;&gt;Node7</title>
<g id="a_edge23_Node000015_Node000007"><a xlink:title=" ">
<path fill="none" stroke="#63b8ff" d="M1302.59,-54.84C1296.54,-46.61 1288.88,-36.18 1282.5,-27.51"/>
<polygon fill="#63b8ff" stroke="#63b8ff" points="1285.19,-25.25 1276.44,-19.27 1279.55,-29.4 1285.19,-25.25"/>
</a>
</g>
</g>
<!-- Node15&#45;&gt;Node12 -->
<g id="edge21_Node000015_Node000012" class="edge">
<title>Node15&#45;&gt;Node12</title>
<g id="a_edge21_Node000015_Node000012"><a xlink:title=" ">
<path fill="none" stroke="#63b8ff" d="M1332.37,-54.84C1344.57,-45.91 1360.31,-34.41 1372.69,-25.35"/>
<polygon fill="#63b8ff" stroke="#63b8ff" points="1375.01,-27.99 1381.01,-19.27 1370.87,-22.34 1375.01,-27.99"/>
</a>
</g>
</g>
<!-- Node15&#45;&gt;Node16 -->
<g id="edge22_Node000015_Node000016" class="edge">
<title>Node15&#45;&gt;Node16</title>
<g id="a_edge22_Node000015_Node000016"><a xlink:title=" ">
<path fill="none" stroke="#63b8ff" d="M1261.4,-57.16C1215.63,-46.66 1149.34,-31.45 1105.01,-21.29"/>
<polygon fill="#63b8ff" stroke="#63b8ff" points="1105.6,-17.83 1095.07,-19.01 1104.04,-24.65 1105.6,-17.83"/>
</a>
</g>
</g>
<!-- Node17&#45;&gt;Node7 -->
<g id="edge25_Node000017_Node000007" class="edge">
<title>Node17&#45;&gt;Node7</title>
<g id="a_edge25_Node000017_Node000007"><a xlink:title=" ">
<path fill="none" stroke="#63b8ff" d="M1181.02,-54.99C1200.02,-45.49 1224.97,-33.02 1243.61,-23.69"/>
<polygon fill="#63b8ff" stroke="#63b8ff" points="1245.34,-26.74 1252.72,-19.14 1242.21,-20.48 1245.34,-26.74"/>
</a>
</g>
</g>
<!-- Node17&#45;&gt;Node16 -->
<g id="edge26_Node000017_Node000016" class="edge">
<title>Node17&#45;&gt;Node16</title>
<g id="a_edge26_Node000017_Node000016"><a xlink:title=" ">
<path fill="none" stroke="#63b8ff" d="M1130,-54.84C1115,-45.6 1095.5,-33.59 1080.57,-24.4"/>
<polygon fill="#63b8ff" stroke="#63b8ff" points="1082.31,-21.36 1071.96,-19.09 1078.64,-27.32 1082.31,-21.36"/>
</a>
</g>
</g>
<!-- Node18&#45;&gt;Node5 -->
<g id="edge50_Node000018_Node000005" class="edge">
<title>Node18&#45;&gt;Node5</title>
<g id="a_edge50_Node000018_Node000005"><a xlink:title=" ">
<path fill="none" stroke="#63b8ff" d="M953.14,-311.29C1029.46,-299.79 1150.32,-281.59 1229.14,-269.72"/>
<polygon fill="#63b8ff" stroke="#63b8ff" points="1230.13,-273.12 1239.5,-268.17 1229.09,-266.19 1230.13,-273.12"/>
</a>
</g>
</g>
<!-- Node19 -->
<g id="Node000019" class="node">
<title>Node19</title>
<g id="a_Node000019"><a xlink:href="_line_sampler_8_h.html" target="_top" xlink:title=" ">
<polygon fill="white" stroke="#666666" points="946,-272 808,-272 808,-242 946,-242 946,-272"/>
<text text-anchor="start" x="816" y="-260" font-family="Helvetica,sans-Serif" font-size="10.00">amr&#45;wind/utilities</text>
<text text-anchor="middle" x="877" y="-249" font-family="Helvetica,sans-Serif" font-size="10.00">/sampling/LineSampler.H</text>
</a>
</g>
</g>
<!-- Node18&#45;&gt;Node19 -->
<g id="edge29_Node000018_Node000019" class="edge">
<title>Node18&#45;&gt;Node19</title>
<g id="a_edge29_Node000018_Node000019"><a xlink:title=" ">
<path fill="none" stroke="#63b8ff" d="M880.89,-307.8C880.31,-300.34 879.58,-290.99 878.91,-282.41"/>
<polygon fill="#63b8ff" stroke="#63b8ff" points="882.37,-281.86 878.11,-272.16 875.4,-282.41 882.37,-281.86"/>
</a>
</g>
</g>
<!-- Node20 -->
<g id="Node000020" class="node">
<title>Node20</title>
<g id="a_Node000020"><a xlink:href="_sampler_base_8_h.html" target="_top" xlink:title=" ">
<polygon fill="white" stroke="#666666" points="869.5,-151 726.5,-151 726.5,-121 869.5,-121 869.5,-151"/>
<text text-anchor="start" x="734.5" y="-139" font-family="Helvetica,sans-Serif" font-size="10.00">amr&#45;wind/utilities</text>
<text text-anchor="middle" x="798" y="-128" font-family="Helvetica,sans-Serif" font-size="10.00">/sampling/SamplerBase.H</text>
</a>
</g>
</g>
<!-- Node19&#45;&gt;Node20 -->
<g id="edge30_Node000019_Node000020" class="edge">
<title>Node19&#45;&gt;Node20</title>
<g id="a_edge30_Node000019_Node000020"><a xlink:title=" ">
<path fill="none" stroke="#63b8ff" d="M867.63,-241.88C854.15,-221.57 829.14,-183.9 813.05,-159.67"/>
<polygon fill="#63b8ff" stroke="#63b8ff" points="815.81,-157.5 807.36,-151.1 809.98,-161.37 815.81,-157.5"/>
</a>
</g>
</g>
<!-- Node20&#45;&gt;Node16 -->
<g id="edge49_Node000020_Node000016" class="edge">
<title>Node20&#45;&gt;Node16</title>
<g id="a_edge49_Node000020_Node000016"><a xlink:title=" ">
<path fill="none" stroke="#63b8ff" d="M840.52,-120.91C865.48,-111.96 897.26,-99.38 924,-85 944.52,-73.96 946.92,-66.82 967,-55 987.17,-43.13 1010.96,-31.57 1029.16,-23.21"/>
<polygon fill="#63b8ff" stroke="#63b8ff" points="1030.71,-26.35 1038.37,-19.03 1027.82,-19.98 1030.71,-26.35"/>
</a>
</g>
</g>
<!-- Node21 -->
<g id="Node000021" class="node">
<title>Node21</title>
<g id="a_Node000021"><a xlink:title=" ">
<polygon fill="#e0e0e0" stroke="#999999" points="915,-79.5 805,-79.5 805,-60.5 915,-60.5 915,-79.5"/>
<text text-anchor="middle" x="860" y="-67.5" font-family="Helvetica,sans-Serif" font-size="10.00">AMReX_RealVect.H</text>
</a>
</g>
</g>
<!-- Node20&#45;&gt;Node21 -->
<g id="edge31_Node000020_Node000021" class="edge">
<title>Node20&#45;&gt;Node21</title>
<g id="a_edge31_Node000020_Node000021"><a xlink:title=" ">
<path fill="none" stroke="#63b8ff" d="M811.76,-120.8C821.43,-110.82 834.37,-97.46 844.42,-87.09"/>
<polygon fill="#63b8ff" stroke="#63b8ff" points="846.99,-89.46 851.43,-79.84 841.96,-84.59 846.99,-89.46"/>
</a>
</g>
</g>
<!-- Node22 -->
<g id="Node000022" class="node">
<title>Node22</title>
<g id="a_Node000022"><a xlink:href="_factory_8_h.html" target="_top" xlink:title=" ">
<polygon fill="white" stroke="#666666" points="323,-79.5 189,-79.5 189,-60.5 323,-60.5 323,-79.5"/>
<text text-anchor="middle" x="256" y="-67.5" font-family="Helvetica,sans-Serif" font-size="10.00">amr&#45;wind/core/Factory.H</text>
</a>
</g>
</g>
<!-- Node20&#45;&gt;Node22 -->
<g id="edge32_Node000020_Node000022" class="edge">
<title>Node20&#45;&gt;Node22</title>
<g id="a_edge32_Node000020_Node000022"><a xlink:title=" ">
<path fill="none" stroke="#63b8ff" d="M726.31,-126.53C624.4,-114.5 438.41,-92.54 333.44,-80.14"/>
<polygon fill="#63b8ff" stroke="#63b8ff" points="333.57,-76.64 323.23,-78.94 332.75,-83.59 333.57,-76.64"/>
</a>
</g>
</g>
<!-- Node28 -->
<g id="Node000028" class="node">
<title>Node28</title>
<g id="a_Node000028"><a xlink:href="nc__interface_8_h.html" target="_top" xlink:title=" ">
<polygon fill="white" stroke="#666666" points="665.5,-85 540.5,-85 540.5,-55 665.5,-55 665.5,-85"/>
<text text-anchor="start" x="548.5" y="-73" font-family="Helvetica,sans-Serif" font-size="10.00">amr&#45;wind/utilities</text>
<text text-anchor="middle" x="603" y="-62" font-family="Helvetica,sans-Serif" font-size="10.00">/ncutils/nc_interface.H</text>
</a>
</g>
</g>
<!-- Node20&#45;&gt;Node28 -->
<g id="edge38_Node000020_Node000028" class="edge">
<title>Node20&#45;&gt;Node28</title>
<g id="a_edge38_Node000020_Node000028"><a xlink:title=" ">
<path fill="none" stroke="#63b8ff" d="M755.21,-120.95C725.87,-111.33 686.76,-98.49 655.53,-88.24"/>
<polygon fill="#63b8ff" stroke="#63b8ff" points="656.29,-84.81 645.69,-85.01 654.1,-91.46 656.29,-84.81"/>
</a>
</g>
</g>
<!-- Node32 -->
<g id="Node000032" class="node">
<title>Node32</title>
<g id="a_Node000032"><a xlink:href="constants_8_h.html" target="_top" xlink:title=" ">
<polygon fill="white" stroke="#666666" points="786.5,-85 683.5,-85 683.5,-55 786.5,-55 786.5,-85"/>
<text text-anchor="start" x="691.5" y="-73" font-family="Helvetica,sans-Serif" font-size="10.00">amr&#45;wind/utilities</text>
<text text-anchor="middle" x="735" y="-62" font-family="Helvetica,sans-Serif" font-size="10.00">/constants.H</text>
</a>
</g>
</g>
<!-- Node20&#45;&gt;Node32 -->
<g id="edge45_Node000020_Node000032" class="edge">
<title>Node20&#45;&gt;Node32</title>
<g id="a_edge45_Node000020_Node000032"><a xlink:title=" ">
<path fill="none" stroke="#63b8ff" d="M784.02,-120.8C775.78,-112.43 765.2,-101.68 755.98,-92.31"/>
<polygon fill="#63b8ff" stroke="#63b8ff" points="758.45,-89.84 748.94,-85.16 753.46,-94.75 758.45,-89.84"/>
</a>
</g>
</g>
<!-- Node23 -->
<g id="Node000023" class="node">
<title>Node23</title>
<g id="a_Node000023"><a xlink:title=" ">
<polygon fill="#e0e0e0" stroke="#999999" points="246,-19 188,-19 188,0 246,0 246,-19"/>
<text text-anchor="middle" x="217" y="-7" font-family="Helvetica,sans-Serif" font-size="10.00">memory</text>
</a>
</g>
</g>
<!-- Node22&#45;&gt;Node23 -->
<g id="edge33_Node000022_Node000023" class="edge">
<title>Node22&#45;&gt;Node23</title>
<g id="a_edge33_Node000022_Node000023"><a xlink:title=" ">
<path fill="none" stroke="#63b8ff" d="M250.25,-60.37C244.54,-51.81 235.65,-38.47 228.49,-27.74"/>
<polygon fill="#63b8ff" stroke="#63b8ff" points="231.24,-25.55 222.78,-19.17 225.41,-29.43 231.24,-25.55"/>
</a>
</g>
</g>
<!-- Node24 -->
<g id="Node000024" class="node">
<title>Node24</title>
<g id="a_Node000024"><a xlink:title=" ">
<polygon fill="#e0e0e0" stroke="#999999" points="435.5,-19 342.5,-19 342.5,0 435.5,0 435.5,-19"/>
<text text-anchor="middle" x="389" y="-7" font-family="Helvetica,sans-Serif" font-size="10.00">unordered_map</text>
</a>
</g>
</g>
<!-- Node22&#45;&gt;Node24 -->
<g id="edge34_Node000022_Node000024" class="edge">
<title>Node22&#45;&gt;Node24</title>
<g id="a_edge34_Node000022_Node000024"><a xlink:title=" ">
<path fill="none" stroke="#63b8ff" d="M275.34,-60.49C297.7,-50.66 334.71,-34.38 360.4,-23.08"/>
<polygon fill="#63b8ff" stroke="#63b8ff" points="361.89,-26.25 369.64,-19.02 359.07,-19.84 361.89,-26.25"/>
</a>
</g>
</g>
<!-- Node25 -->
<g id="Node000025" class="node">
<title>Node25</title>
<g id="a_Node000025"><a xlink:title=" ">
<polygon fill="#e0e0e0" stroke="#999999" points="324,-19 264,-19 264,0 324,0 324,-19"/>
<text text-anchor="middle" x="294" y="-7" font-family="Helvetica,sans-Serif" font-size="10.00">iostream</text>
</a>
</g>
</g>
<!-- Node22&#45;&gt;Node25 -->
<g id="edge35_Node000022_Node000025" class="edge">
<title>Node22&#45;&gt;Node25</title>
<g id="a_edge35_Node000022_Node000025"><a xlink:title=" ">
<path fill="none" stroke="#63b8ff" d="M261.61,-60.37C267.16,-51.81 275.83,-38.47 282.8,-27.74"/>
<polygon fill="#63b8ff" stroke="#63b8ff" points="285.86,-29.46 288.37,-19.17 279.99,-25.65 285.86,-29.46"/>
</a>
</g>
</g>
<!-- Node26 -->
<g id="Node000026" class="node">
<title>Node26</title>
<g id="a_Node000026"><a xlink:title=" ">
<polygon fill="#e0e0e0" stroke="#999999" points="170,-19 80,-19 80,0 170,0 170,-19"/>
<text text-anchor="middle" x="125" y="-7" font-family="Helvetica,sans-Serif" font-size="10.00">AMReX_Print.H</text>
</a>
</g>
</g>
<!-- Node22&#45;&gt;Node26 -->
<g id="edge36_Node000022_Node000026" class="edge">
<title>Node22&#45;&gt;Node26</title>
<g id="a_edge36_Node000022_Node000026"><a xlink:title=" ">
<path fill="none" stroke="#63b8ff" d="M236.95,-60.49C215.03,-50.7 178.79,-34.52 153.5,-23.23"/>
<polygon fill="#63b8ff" stroke="#63b8ff" points="154.63,-19.9 144.07,-19.02 151.78,-26.29 154.63,-19.9"/>
</a>
</g>
</g>
<!-- Node27 -->
<g id="Node000027" class="node">
<title>Node27</title>
<g id="a_Node000027"><a xlink:title=" ">
<polygon fill="#e0e0e0" stroke="#999999" points="62,-19 0,-19 0,0 62,0 62,-19"/>
<text text-anchor="middle" x="31" y="-7" font-family="Helvetica,sans-Serif" font-size="10.00">AMReX.H</text>
</a>
</g>
</g>
<!-- Node22&#45;&gt;Node27 -->
<g id="edge37_Node000022_Node000027" class="edge">
<title>Node22&#45;&gt;Node27</title>
<g id="a_edge37_Node000022_Node000027"><a xlink:title=" ">
<path fill="none" stroke="#63b8ff" d="M223.28,-60.49C183.26,-50.09 115.46,-32.46 72,-21.16"/>
<polygon fill="#63b8ff" stroke="#63b8ff" points="72.86,-17.77 62.31,-18.64 71.1,-24.54 72.86,-17.77"/>
</a>
</g>
</g>
<!-- Node28&#45;&gt;Node3 -->
<g id="edge39_Node000028_Node000003" class="edge">
<title>Node28&#45;&gt;Node3</title>
<g id="a_edge39_Node000028_Node000003"><a xlink:title=" ">
<path fill="none" stroke="#63b8ff" d="M655.53,-54.95C690.54,-45.58 737.84,-32.87 788.21,-19.2"/>
<polygon fill="#63b8ff" stroke="#63b8ff" points="789.25,-22.55 797.99,-16.55 787.42,-15.79 789.25,-22.55"/>
</a>
</g>
</g>
<!-- Node28&#45;&gt;Node16 -->
<g id="edge44_Node000028_Node000016" class="edge">
<title>Node28&#45;&gt;Node16</title>
<g id="a_edge44_Node000028_Node000016"><a xlink:title=" ">
<path fill="none" stroke="#63b8ff" d="M665.67,-56.34C668.48,-55.87 671.27,-55.42 674,-55 816.14,-33.25 855.42,-38.01 1001.56,-19.13"/>
<polygon fill="#63b8ff" stroke="#63b8ff" points="1002.35,-22.56 1011.81,-17.79 1001.44,-15.62 1002.35,-22.56"/>
</a>
</g>
</g>
<!-- Node28&#45;&gt;Node24 -->
<g id="edge40_Node000028_Node000024" class="edge">
<title>Node28&#45;&gt;Node24</title>
<g id="a_edge40_Node000028_Node000024"><a xlink:title=" ">
<path fill="none" stroke="#63b8ff" d="M551.74,-54.99C514.49,-44.8 464.73,-31.2 430.08,-21.73"/>
<polygon fill="#63b8ff" stroke="#63b8ff" points="430.86,-18.31 420.29,-19.05 429.01,-25.07 430.86,-18.31"/>
</a>
</g>
</g>
<!-- Node29 -->
<g id="Node000029" class="node">
<title>Node29</title>
<g id="a_Node000029"><a xlink:title=" ">
<polygon fill="#e0e0e0" stroke="#999999" points="595.5,-19 548.5,-19 548.5,0 595.5,0 595.5,-19"/>
<text text-anchor="middle" x="572" y="-7" font-family="Helvetica,sans-Serif" font-size="10.00">vector</text>
</a>
</g>
</g>
<!-- Node28&#45;&gt;Node29 -->
<g id="edge41_Node000028_Node000029" class="edge">
<title>Node28&#45;&gt;Node29</title>
<g id="a_edge41_Node000028_Node000029"><a xlink:title=" ">
<path fill="none" stroke="#63b8ff" d="M595.5,-54.84C591.27,-46.87 585.96,-36.84 581.45,-28.33"/>
<polygon fill="#63b8ff" stroke="#63b8ff" points="584.42,-26.46 576.65,-19.27 578.23,-29.74 584.42,-26.46"/>
</a>
</g>
</g>
<!-- Node30 -->
<g id="Node000030" class="node">
<title>Node30</title>
<g id="a_Node000030"><a xlink:title=" ">
<polygon fill="#e0e0e0" stroke="#999999" points="670,-19 614,-19 614,0 670,0 670,-19"/>
<text text-anchor="middle" x="642" y="-7" font-family="Helvetica,sans-Serif" font-size="10.00">netcdf.h</text>
</a>
</g>
</g>
<!-- Node28&#45;&gt;Node30 -->
<g id="edge42_Node000028_Node000030" class="edge">
<title>Node28&#45;&gt;Node30</title>
<g id="a_edge42_Node000028_Node000030"><a xlink:title=" ">
<path fill="none" stroke="#63b8ff" d="M612.44,-54.84C617.87,-46.69 624.73,-36.4 630.48,-27.78"/>
<polygon fill="#63b8ff" stroke="#63b8ff" points="633.52,-29.53 636.16,-19.27 627.7,-25.65 633.52,-29.53"/>
</a>
</g>
</g>
<!-- Node31 -->
<g id="Node000031" class="node">
<title>Node31</title>
<g id="a_Node000031"><a xlink:title=" ">
<polygon fill="#e0e0e0" stroke="#999999" points="530.5,-19 453.5,-19 453.5,0 530.5,0 530.5,-19"/>
<text text-anchor="middle" x="492" y="-7" font-family="Helvetica,sans-Serif" font-size="10.00">netcdf_par.h</text>
</a>
</g>
</g>
<!-- Node28&#45;&gt;Node31 -->
<g id="edge43_Node000028_Node000031" class="edge">
<title>Node28&#45;&gt;Node31</title>
<g id="a_edge43_Node000028_Node000031"><a xlink:title=" ">
<path fill="none" stroke="#63b8ff" d="M576.41,-54.99C558.55,-45.58 535.16,-33.24 517.52,-23.95"/>
<polygon fill="#63b8ff" stroke="#63b8ff" points="518.87,-20.71 508.39,-19.14 515.61,-26.9 518.87,-20.71"/>
</a>
</g>
</g>
<!-- Node32&#45;&gt;Node16 -->
<g id="edge46_Node000032_Node000016" class="edge">
<title>Node32&#45;&gt;Node16</title>
<g id="a_edge46_Node000032_Node000016"><a xlink:title=" ">
<path fill="none" stroke="#63b8ff" d="M786.54,-56.95C789.74,-56.27 792.91,-55.62 796,-55 834.38,-47.34 936.98,-30.29 1001.81,-19.66"/>
<polygon fill="#63b8ff" stroke="#63b8ff" points="1002.57,-23.08 1011.87,-18.01 1001.44,-16.17 1002.57,-23.08"/>
</a>
</g>
</g>
<!-- Node33 -->
<g id="Node000033" class="node">
<title>Node33</title>
<g id="a_Node000033"><a xlink:title=" ">
<polygon fill="#e0e0e0" stroke="#999999" points="780,-19 688,-19 688,0 780,0 780,-19"/>
<text text-anchor="middle" x="734" y="-7" font-family="Helvetica,sans-Serif" font-size="10.00">AMReX_Math.H</text>
</a>
</g>
</g>
<!-- Node32&#45;&gt;Node33 -->
<g id="edge47_Node000032_Node000033" class="edge">
<title>Node32&#45;&gt;Node33</title>
<g id="a_edge47_Node000032_Node000033"><a xlink:title=" ">
<path fill="none" stroke="#63b8ff" d="M734.76,-54.84C734.63,-47.21 734.47,-37.7 734.32,-29.45"/>
<polygon fill="#63b8ff" stroke="#63b8ff" points="737.82,-29.2 734.15,-19.27 730.82,-29.32 737.82,-29.2"/>
</a>
</g>
</g>
<!-- Node34 -->
<g id="Node000034" class="node">
<title>Node34</title>
<g id="a_Node000034"><a xlink:title=" ">
<polygon fill="#e0e0e0" stroke="#999999" points="994,-19 860,-19 860,0 994,0 994,-19"/>
<text text-anchor="middle" x="927" y="-7" font-family="Helvetica,sans-Serif" font-size="10.00">AMReX_GpuQualifiers.H</text>
</a>
</g>
</g>
<!-- Node32&#45;&gt;Node34 -->
<g id="edge48_Node000032_Node000034" class="edge">
<title>Node32&#45;&gt;Node34</title>
<g id="a_edge48_Node000032_Node000034"><a xlink:title=" ">
<path fill="none" stroke="#63b8ff" d="M780.99,-54.99C814.12,-44.89 858.29,-31.44 889.34,-21.98"/>
<polygon fill="#63b8ff" stroke="#63b8ff" points="890.38,-25.32 898.93,-19.05 888.34,-18.62 890.38,-25.32"/>
</a>
</g>
</g>
</g>
</svg>

<g id="navigator" transform="translate(0 0)" fill="#404254">
  <rect fill="#f2f5e9" fill-opacity="0.5" stroke="#606060" stroke-width=".5" x="0" y="0" width="60" height="60"/>
  <use id="zoomplus" xlink:href="#zoomPlus" x="17" y="9" onmousedown="handleZoom(evt,'in')"/>
  <use id="zoomminus" xlink:href="#zoomMin" x="42" y="9" onmousedown="handleZoom(evt,'out')"/>
  <use id="reset" xlink:href="#resetDef" x="30" y="36" onmousedown="handleReset()"/>
   <use id="arrowup" xlink:href="#arrowUp" x="0" y="0" onmousedown="handlePan(0,-1)"/>
  <use id="arrowright" xlink:href="#arrowRight" x="0" y="0" onmousedown="handlePan(1,0)"/>
  <use id="arrowdown" xlink:href="#arrowDown" x="0" y="0" onmousedown="handlePan(0,1)"/>
  <use id="arrowleft" xlink:href="#arrowLeft" x="0" y="0" onmousedown="handlePan(-1,0)"/>
</g>
<svg viewBox="0 0 15 15" width="100%" height="30px" preserveAspectRatio="xMaxYMin meet">
 <g id="arrow_out" transform="scale(0.3 0.3)">
  <a xlink:href="_d_t_u_spinner_sampler_8_h__incl_org.svg" target="_base">
   <rect id="button" ry="5" rx="5" y="6" x="6" height="38" width="38"
        fill="#f2f5e9" fill-opacity="0.5" stroke="#606060" stroke-width="1.0"/>
   <path id="arrow"
     d="M 11.500037,31.436501 C 11.940474,20.09759 22.043105,11.32322 32.158766,21.979434 L 37.068811,17.246167 C 37.068811,17.246167 37.088388,32 37.088388,32 L 22.160133,31.978069 C 22.160133,31.978069 26.997745,27.140456 26.997745,27.140456 C 18.528582,18.264221 13.291696,25.230495 11.500037,31.436501 z"
     style="fill:#404040;"/>
  </a>
 </g>
</svg>

<style type='text/css'>
<![CDATA[
[data-mouse-over-selected='false'] { opacity: 0.7; }
[data-mouse-over-selected='true']  { opacity: 1.0; }
]]>
</style>
<script type="application/ecmascript"><![CDATA[
document.addEventListener('DOMContentLoaded', (event) => {
  highlightEdges();
  highlightAdjacentNodes();
});
]]></script>
</svg>
