<?xml version="1.0" encoding="UTF-8" standalone="no"?>
<!DOCTYPE svg PUBLIC "-//W3C//DTD SVG 1.1//EN"
 "http://www.w3.org/Graphics/SVG/1.1/DTD/svg11.dtd">
<!-- Generated by graphviz version 2.43.0 (0)
 -->
<!-- Title: /home/runner/work/amr&#45;wind/amr&#45;wind/amr&#45;wind/wind_energy/actuator/disk/Joukowsky.H Pages: 1 -->
<svg width="1087pt" height="555pt"
 viewBox="0.00 0.00 1086.50 555.00" xmlns="http://www.w3.org/2000/svg" xmlns:xlink="http://www.w3.org/1999/xlink">
<g id="graph0" class="graph" transform="scale(1 1) rotate(0) translate(4 551)">
<title>/home/runner/work/amr&#45;wind/amr&#45;wind/amr&#45;wind/wind_energy/actuator/disk/Joukowsky.H</title>
<!-- Node1 -->
<g id="Node000001" class="node">
<title>Node1</title>
<g id="a_Node000001"><a xlink:title=" ">
<polygon fill="#999999" stroke="#666666" points="842,-547 693,-547 693,-495 842,-495 842,-547"/>
<text text-anchor="start" x="701" y="-535" font-family="Helvetica,sans-Serif" font-size="10.00">/home/runner/work/amr</text>
<text text-anchor="start" x="701" y="-524" font-family="Helvetica,sans-Serif" font-size="10.00">&#45;wind/amr&#45;wind/amr&#45;wind</text>
<text text-anchor="start" x="701" y="-513" font-family="Helvetica,sans-Serif" font-size="10.00">/wind_energy/actuator/disk</text>
<text text-anchor="middle" x="767.5" y="-502" font-family="Helvetica,sans-Serif" font-size="10.00">/Joukowsky.H</text>
</a>
</g>
</g>
<!-- Node2 -->
<g id="Node000002" class="node">
<title>Node2</title>
<g id="a_Node000002"><a xlink:href="disk__types_8_h.html" target="_top" xlink:title=" ">
<polygon fill="white" stroke="#666666" points="881,-393 732,-393 732,-363 881,-363 881,-393"/>
<text text-anchor="start" x="740" y="-381" font-family="Helvetica,sans-Serif" font-size="10.00">amr&#45;wind/wind_energy</text>
<text text-anchor="middle" x="806.5" y="-370" font-family="Helvetica,sans-Serif" font-size="10.00">/actuator/disk/disk_types.H</text>
</a>
</g>
</g>
<!-- Node1&#45;&gt;Node2 -->
<g id="edge1_Node000001_Node000002" class="edge">
<title>Node1&#45;&gt;Node2</title>
<g id="a_edge1_Node000001_Node000002"><a xlink:title=" ">
<path fill="none" stroke="#63b8ff" d="M746.42,-494.96C733.4,-476.27 721.14,-450.38 732.5,-429 739.35,-416.11 751.17,-405.94 763.38,-398.23"/>
<polygon fill="#63b8ff" stroke="#63b8ff" points="765.39,-401.1 772.27,-393.05 761.87,-395.06 765.39,-401.1"/>
</a>
</g>
</g>
<!-- Node8 -->
<g id="Node000008" class="node">
<title>Node8</title>
<g id="a_Node000008"><a xlink:href="vector__space_8_h.html" target="_top" xlink:title=" ">
<polygon fill="white" stroke="#666666" points="554,-261 419,-261 419,-231 554,-231 554,-261"/>
<text text-anchor="start" x="427" y="-249" font-family="Helvetica,sans-Serif" font-size="10.00">amr&#45;wind/core/vs/vector</text>
<text text-anchor="middle" x="486.5" y="-238" font-family="Helvetica,sans-Serif" font-size="10.00">_space.H</text>
</a>
</g>
</g>
<!-- Node1&#45;&gt;Node8 -->
<g id="edge36_Node000001_Node000008" class="edge">
<title>Node1&#45;&gt;Node8</title>
<g id="a_edge36_Node000001_Node000008"><a xlink:title=" ">
<path fill="none" stroke="#63b8ff" d="M741.57,-494.81C686.64,-441.45 559.44,-317.87 508.34,-268.22"/>
<polygon fill="#63b8ff" stroke="#63b8ff" points="510.7,-265.63 501.09,-261.17 505.82,-270.65 510.7,-265.63"/>
</a>
</g>
</g>
<!-- Node18 -->
<g id="Node000018" class="node">
<title>Node18</title>
<g id="a_Node000018"><a xlink:title=" ">
<polygon fill="#e0e0e0" stroke="#999999" points="1067.5,-19 975.5,-19 975.5,0 1067.5,0 1067.5,-19"/>
<text text-anchor="middle" x="1021.5" y="-7" font-family="Helvetica,sans-Serif" font-size="10.00">AMReX_REAL.H</text>
</a>
</g>
</g>
<!-- Node1&#45;&gt;Node18 -->
<g id="edge37_Node000001_Node000018" class="edge">
<title>Node1&#45;&gt;Node18</title>
<g id="a_edge37_Node000001_Node000018"><a xlink:title=" ">
<path fill="none" stroke="#63b8ff" d="M842.39,-517.65C934.41,-510.3 1078.5,-482.3 1078.5,-379 1078.5,-379 1078.5,-379 1078.5,-129.5 1078.5,-89.64 1052.16,-48.98 1035.29,-27.03"/>
<polygon fill="#63b8ff" stroke="#63b8ff" points="1037.92,-24.71 1028.95,-19.07 1032.45,-29.07 1037.92,-24.71"/>
</a>
</g>
</g>
<!-- Node22 -->
<g id="Node000022" class="node">
<title>Node22</title>
<g id="a_Node000022"><a xlink:href="_actuator_disk_8_h.html" target="_top" xlink:title=" ">
<polygon fill="white" stroke="#666666" points="901.5,-459 741.5,-459 741.5,-429 901.5,-429 901.5,-459"/>
<text text-anchor="start" x="749.5" y="-447" font-family="Helvetica,sans-Serif" font-size="10.00">amr&#45;wind/wind_energy</text>
<text text-anchor="middle" x="821.5" y="-436" font-family="Helvetica,sans-Serif" font-size="10.00">/actuator/disk/ActuatorDisk.H</text>
</a>
</g>
</g>
<!-- Node1&#45;&gt;Node22 -->
<g id="edge32_Node000001_Node000022" class="edge">
<title>Node1&#45;&gt;Node22</title>
<g id="a_edge32_Node000001_Node000022"><a xlink:title=" ">
<path fill="none" stroke="#63b8ff" d="M785.78,-494.61C792.05,-485.9 799.02,-476.22 805.13,-467.74"/>
<polygon fill="#63b8ff" stroke="#63b8ff" points="808.11,-469.59 811.11,-459.43 802.43,-465.5 808.11,-469.59"/>
</a>
</g>
</g>
<!-- Node3 -->
<g id="Node000003" class="node">
<title>Node3</title>
<g id="a_Node000003"><a xlink:href="actuator__types_8_h.html" target="_top" xlink:title=" ">
<polygon fill="white" stroke="#666666" points="879.5,-327 733.5,-327 733.5,-297 879.5,-297 879.5,-327"/>
<text text-anchor="start" x="741.5" y="-315" font-family="Helvetica,sans-Serif" font-size="10.00">amr&#45;wind/wind_energy</text>
<text text-anchor="middle" x="806.5" y="-304" font-family="Helvetica,sans-Serif" font-size="10.00">/actuator/actuator_types.H</text>
</a>
</g>
</g>
<!-- Node2&#45;&gt;Node3 -->
<g id="edge2_Node000002_Node000003" class="edge">
<title>Node2&#45;&gt;Node3</title>
<g id="a_edge2_Node000002_Node000003"><a xlink:title=" ">
<path fill="none" stroke="#63b8ff" d="M806.5,-362.8C806.5,-355.34 806.5,-345.99 806.5,-337.41"/>
<polygon fill="#63b8ff" stroke="#63b8ff" points="810,-337.16 806.5,-327.16 803,-337.16 810,-337.16"/>
</a>
</g>
</g>
<!-- Node4 -->
<g id="Node000004" class="node">
<title>Node4</title>
<g id="a_Node000004"><a xlink:href="_slice_8_h.html" target="_top" xlink:title=" ">
<polygon fill="white" stroke="#666666" points="734.5,-255.5 610.5,-255.5 610.5,-236.5 734.5,-236.5 734.5,-255.5"/>
<text text-anchor="middle" x="672.5" y="-243.5" font-family="Helvetica,sans-Serif" font-size="10.00">amr&#45;wind/core/Slice.H</text>
</a>
</g>
</g>
<!-- Node3&#45;&gt;Node4 -->
<g id="edge3_Node000003_Node000004" class="edge">
<title>Node3&#45;&gt;Node4</title>
<g id="a_edge3_Node000003_Node000004"><a xlink:title=" ">
<path fill="none" stroke="#63b8ff" d="M777.09,-296.95C754.01,-285.93 722.12,-270.7 699.64,-259.96"/>
<polygon fill="#63b8ff" stroke="#63b8ff" points="700.87,-256.67 690.33,-255.52 697.85,-262.99 700.87,-256.67"/>
</a>
</g>
</g>
<!-- Node7 -->
<g id="Node000007" class="node">
<title>Node7</title>
<g id="a_Node000007"><a xlink:title=" ">
<polygon fill="#e0e0e0" stroke="#999999" points="588,-19 501,-19 501,0 588,0 588,-19"/>
<text text-anchor="middle" x="544.5" y="-7" font-family="Helvetica,sans-Serif" font-size="10.00">AMReX_Gpu.H</text>
</a>
</g>
</g>
<!-- Node3&#45;&gt;Node7 -->
<g id="edge27_Node000003_Node000007" class="edge">
<title>Node3&#45;&gt;Node7</title>
<g id="a_edge27_Node000003_Node000007"><a xlink:title=" ">
<path fill="none" stroke="#63b8ff" d="M733.35,-301.23C682.33,-292.96 620.18,-279.49 601.5,-261 577.21,-236.96 582.5,-220.67 582.5,-186.5 582.5,-186.5 582.5,-186.5 582.5,-129.5 582.5,-92.07 565.23,-51.03 553.98,-28.25"/>
<polygon fill="#63b8ff" stroke="#63b8ff" points="556.99,-26.46 549.31,-19.15 550.76,-29.65 556.99,-26.46"/>
</a>
</g>
</g>
<!-- Node3&#45;&gt;Node8 -->
<g id="edge7_Node000003_Node000008" class="edge">
<title>Node3&#45;&gt;Node8</title>
<g id="a_edge7_Node000003_Node000008"><a xlink:title=" ">
<path fill="none" stroke="#63b8ff" d="M736.27,-296.95C685.37,-286.77 616.55,-273.01 564.04,-262.51"/>
<polygon fill="#63b8ff" stroke="#63b8ff" points="564.59,-259.05 554.09,-260.52 563.21,-265.91 564.59,-259.05"/>
</a>
</g>
</g>
<!-- Node3&#45;&gt;Node18 -->
<g id="edge31_Node000003_Node000018" class="edge">
<title>Node3&#45;&gt;Node18</title>
<g id="a_edge31_Node000003_Node000018"><a xlink:title=" ">
<path fill="none" stroke="#63b8ff" d="M879.75,-307.03C915.51,-301.35 956.53,-288.67 983.5,-261 1007.35,-236.53 1002.5,-220.67 1002.5,-186.5 1002.5,-186.5 1002.5,-186.5 1002.5,-129.5 1002.5,-93.54 1011.06,-52.23 1016.69,-28.96"/>
<polygon fill="#63b8ff" stroke="#63b8ff" points="1020.13,-29.64 1019.17,-19.09 1013.34,-27.93 1020.13,-29.64"/>
</a>
</g>
</g>
<!-- Node19 -->
<g id="Node000019" class="node">
<title>Node19</title>
<g id="a_Node000019"><a xlink:title=" ">
<polygon fill="#e0e0e0" stroke="#999999" points="860.5,-255.5 752.5,-255.5 752.5,-236.5 860.5,-236.5 860.5,-255.5"/>
<text text-anchor="middle" x="806.5" y="-243.5" font-family="Helvetica,sans-Serif" font-size="10.00">AMReX_RealBox.H</text>
</a>
</g>
</g>
<!-- Node3&#45;&gt;Node19 -->
<g id="edge28_Node000003_Node000019" class="edge">
<title>Node3&#45;&gt;Node19</title>
<g id="a_edge28_Node000003_Node000019"><a xlink:title=" ">
<path fill="none" stroke="#63b8ff" d="M806.5,-296.8C806.5,-287.7 806.5,-275.79 806.5,-265.9"/>
<polygon fill="#63b8ff" stroke="#63b8ff" points="810,-265.84 806.5,-255.84 803,-265.84 810,-265.84"/>
</a>
</g>
</g>
<!-- Node20 -->
<g id="Node000020" class="node">
<title>Node20</title>
<g id="a_Node000020"><a xlink:title=" ">
<polygon fill="#e0e0e0" stroke="#999999" points="910.5,-255.5 878.5,-255.5 878.5,-236.5 910.5,-236.5 910.5,-255.5"/>
<text text-anchor="middle" x="894.5" y="-243.5" font-family="Helvetica,sans-Serif" font-size="10.00">set</text>
</a>
</g>
</g>
<!-- Node3&#45;&gt;Node20 -->
<g id="edge29_Node000003_Node000020" class="edge">
<title>Node3&#45;&gt;Node20</title>
<g id="a_edge29_Node000003_Node000020"><a xlink:title=" ">
<path fill="none" stroke="#63b8ff" d="M826.03,-296.8C840.37,-286.37 859.8,-272.24 874.29,-261.69"/>
<polygon fill="#63b8ff" stroke="#63b8ff" points="876.57,-264.37 882.59,-255.66 872.45,-258.71 876.57,-264.37"/>
</a>
</g>
</g>
<!-- Node21 -->
<g id="Node000021" class="node">
<title>Node21</title>
<g id="a_Node000021"><a xlink:title=" ">
<polygon fill="#e0e0e0" stroke="#999999" points="974,-255.5 929,-255.5 929,-236.5 974,-236.5 974,-255.5"/>
<text text-anchor="middle" x="951.5" y="-243.5" font-family="Helvetica,sans-Serif" font-size="10.00">utility</text>
</a>
</g>
</g>
<!-- Node3&#45;&gt;Node21 -->
<g id="edge30_Node000003_Node000021" class="edge">
<title>Node3&#45;&gt;Node21</title>
<g id="a_edge30_Node000003_Node000021"><a xlink:title=" ">
<path fill="none" stroke="#63b8ff" d="M838.32,-296.95C863.53,-285.83 898.43,-270.42 922.79,-259.67"/>
<polygon fill="#63b8ff" stroke="#63b8ff" points="924.47,-262.76 932.2,-255.52 921.64,-256.35 924.47,-262.76"/>
</a>
</g>
</g>
<!-- Node5 -->
<g id="Node000005" class="node">
<title>Node5</title>
<g id="a_Node000005"><a xlink:title=" ">
<polygon fill="#e0e0e0" stroke="#999999" points="702,-195 649,-195 649,-176 702,-176 702,-195"/>
<text text-anchor="middle" x="675.5" y="-183" font-family="Helvetica,sans-Serif" font-size="10.00">iterator</text>
</a>
</g>
</g>
<!-- Node4&#45;&gt;Node5 -->
<g id="edge4_Node000004_Node000005" class="edge">
<title>Node4&#45;&gt;Node5</title>
<g id="a_edge4_Node000004_Node000005"><a xlink:title=" ">
<path fill="none" stroke="#63b8ff" d="M672.94,-236.37C673.36,-228.25 674,-215.81 674.53,-205.39"/>
<polygon fill="#63b8ff" stroke="#63b8ff" points="678.04,-205.33 675.06,-195.17 671.05,-204.97 678.04,-205.33"/>
</a>
</g>
</g>
<!-- Node6 -->
<g id="Node000006" class="node">
<title>Node6</title>
<g id="a_Node000006"><a xlink:title=" ">
<polygon fill="#e0e0e0" stroke="#999999" points="818.5,-195 720.5,-195 720.5,-176 818.5,-176 818.5,-195"/>
<text text-anchor="middle" x="769.5" y="-183" font-family="Helvetica,sans-Serif" font-size="10.00">AMReX_Vector.H</text>
</a>
</g>
</g>
<!-- Node4&#45;&gt;Node6 -->
<g id="edge5_Node000004_Node000006" class="edge">
<title>Node4&#45;&gt;Node6</title>
<g id="a_edge5_Node000004_Node000006"><a xlink:title=" ">
<path fill="none" stroke="#63b8ff" d="M686.81,-236.37C702.5,-226.91 727.9,-211.59 746.41,-200.42"/>
<polygon fill="#63b8ff" stroke="#63b8ff" points="748.37,-203.33 755.13,-195.17 744.76,-197.33 748.37,-203.33"/>
</a>
</g>
</g>
<!-- Node4&#45;&gt;Node7 -->
<g id="edge6_Node000004_Node000007" class="edge">
<title>Node4&#45;&gt;Node7</title>
<g id="a_edge6_Node000004_Node000007"><a xlink:title=" ">
<path fill="none" stroke="#63b8ff" d="M665.84,-236.2C658.77,-226.53 647.65,-210.31 640.5,-195 612.9,-135.9 632.45,-109.42 596.5,-55 588.72,-43.23 576.97,-32.8 566.61,-25.01"/>
<polygon fill="#63b8ff" stroke="#63b8ff" points="568.52,-22.07 558.34,-19.1 564.45,-27.76 568.52,-22.07"/>
</a>
</g>
</g>
<!-- Node9 -->
<g id="Node000009" class="node">
<title>Node9</title>
<g id="a_Node000009"><a xlink:href="vector_8_h.html" target="_top" xlink:title=" ">
<polygon fill="white" stroke="#666666" points="251,-140 106,-140 106,-121 251,-121 251,-140"/>
<text text-anchor="middle" x="178.5" y="-128" font-family="Helvetica,sans-Serif" font-size="10.00">amr&#45;wind/core/vs/vector.H</text>
</a>
</g>
</g>
<!-- Node8&#45;&gt;Node9 -->
<g id="edge8_Node000008_Node000009" class="edge">
<title>Node8&#45;&gt;Node9</title>
<g id="a_edge8_Node000008_Node000009"><a xlink:title=" ">
<path fill="none" stroke="#63b8ff" d="M439.7,-230.99C408.77,-221.47 367.45,-208.24 331.5,-195 287.42,-178.77 237.31,-157.41 206.81,-144.06"/>
<polygon fill="#63b8ff" stroke="#63b8ff" points="208.19,-140.84 197.62,-140.03 205.37,-147.25 208.19,-140.84"/>
</a>
</g>
</g>
<!-- Node15 -->
<g id="Node000015" class="node">
<title>Node15</title>
<g id="a_Node000015"><a xlink:href="tensor_8_h.html" target="_top" xlink:title=" ">
<polygon fill="white" stroke="#666666" points="486,-195 341,-195 341,-176 486,-176 486,-195"/>
<text text-anchor="middle" x="413.5" y="-183" font-family="Helvetica,sans-Serif" font-size="10.00">amr&#45;wind/core/vs/tensor.H</text>
</a>
</g>
</g>
<!-- Node8&#45;&gt;Node15 -->
<g id="edge16_Node000008_Node000015" class="edge">
<title>Node8&#45;&gt;Node15</title>
<g id="a_edge16_Node000008_Node000015"><a xlink:title=" ">
<path fill="none" stroke="#63b8ff" d="M468.83,-230.84C457.8,-222 443.61,-210.63 432.37,-201.62"/>
<polygon fill="#63b8ff" stroke="#63b8ff" points="434.43,-198.79 424.44,-195.27 430.05,-204.25 434.43,-198.79"/>
</a>
</g>
</g>
<!-- Node9&#45;&gt;Node7 -->
<g id="edge9_Node000009_Node000007" class="edge">
<title>Node9&#45;&gt;Node7</title>
<g id="a_edge9_Node000009_Node000007"><a xlink:title=" ">
<path fill="none" stroke="#63b8ff" d="M177.6,-120.82C176.51,-105.12 176.73,-72.02 195.5,-55 216.98,-35.52 398.6,-20.46 490.98,-13.97"/>
<polygon fill="#63b8ff" stroke="#63b8ff" points="491.25,-17.46 500.98,-13.28 490.77,-10.48 491.25,-17.46"/>
</a>
</g>
</g>
<!-- Node10 -->
<g id="Node000010" class="node">
<title>Node10</title>
<g id="a_Node000010"><a xlink:href="vstraits_8_h.html" target="_top" xlink:title=" ">
<polygon fill="white" stroke="#666666" points="356.5,-79.5 204.5,-79.5 204.5,-60.5 356.5,-60.5 356.5,-79.5"/>
<text text-anchor="middle" x="280.5" y="-67.5" font-family="Helvetica,sans-Serif" font-size="10.00">amr&#45;wind/core/vs/vstraits.H</text>
</a>
</g>
</g>
<!-- Node9&#45;&gt;Node10 -->
<g id="edge10_Node000009_Node000010" class="edge">
<title>Node9&#45;&gt;Node10</title>
<g id="a_edge10_Node000009_Node000010"><a xlink:title=" ">
<path fill="none" stroke="#63b8ff" d="M193.55,-120.87C210.12,-111.36 237,-95.95 256.49,-84.77"/>
<polygon fill="#63b8ff" stroke="#63b8ff" points="258.45,-87.68 265.39,-79.67 254.97,-81.61 258.45,-87.68"/>
</a>
</g>
</g>
<!-- Node12 -->
<g id="Node000012" class="node">
<title>Node12</title>
<g id="a_Node000012"><a xlink:href="vector_i_8_h.html" target="_top" xlink:title=" ">
<polygon fill="white" stroke="#666666" points="149,-79.5 0,-79.5 0,-60.5 149,-60.5 149,-79.5"/>
<text text-anchor="middle" x="74.5" y="-67.5" font-family="Helvetica,sans-Serif" font-size="10.00">amr&#45;wind/core/vs/vectorI.H</text>
</a>
</g>
</g>
<!-- Node9&#45;&gt;Node12 -->
<g id="edge12_Node000009_Node000012" class="edge">
<title>Node9&#45;&gt;Node12</title>
<g id="a_edge12_Node000009_Node000012"><a xlink:title=" ">
<path fill="none" stroke="#63b8ff" d="M158.2,-120.87C139.42,-111.45 112.05,-96.23 93.66,-85.08"/>
<polygon fill="#63b8ff" stroke="#63b8ff" points="95.29,-81.97 84.95,-79.67 91.59,-87.92 95.29,-81.97"/>
</a>
</g>
</g>
<!-- Node11 -->
<g id="Node000011" class="node">
<title>Node11</title>
<g id="a_Node000011"><a xlink:title=" ">
<polygon fill="#e0e0e0" stroke="#999999" points="302.5,-19 258.5,-19 258.5,0 302.5,0 302.5,-19"/>
<text text-anchor="middle" x="280.5" y="-7" font-family="Helvetica,sans-Serif" font-size="10.00">limits</text>
</a>
</g>
</g>
<!-- Node10&#45;&gt;Node11 -->
<g id="edge11_Node000010_Node000011" class="edge">
<title>Node10&#45;&gt;Node11</title>
<g id="a_edge11_Node000010_Node000011"><a xlink:title=" ">
<path fill="none" stroke="#63b8ff" d="M280.5,-60.37C280.5,-52.25 280.5,-39.81 280.5,-29.39"/>
<polygon fill="#63b8ff" stroke="#63b8ff" points="284,-29.17 280.5,-19.17 277,-29.17 284,-29.17"/>
</a>
</g>
</g>
<!-- Node12&#45;&gt;Node9 -->
<g id="edge15_Node000012_Node000009" class="edge">
<title>Node12&#45;&gt;Node9</title>
<g id="a_edge15_Node000012_Node000009"><a xlink:title=" ">
<path fill="none" stroke="#63b8ff" d="M94.87,-79.67C113.67,-89.1 141.04,-104.32 159.41,-115.47"/>
<polygon fill="#63b8ff" stroke="#63b8ff" points="157.77,-118.56 168.11,-120.87 161.46,-112.62 157.77,-118.56"/>
</a>
</g>
</g>
<!-- Node13 -->
<g id="Node000013" class="node">
<title>Node13</title>
<g id="a_Node000013"><a xlink:title=" ">
<polygon fill="#e0e0e0" stroke="#999999" points="103,-19 46,-19 46,0 103,0 103,-19"/>
<text text-anchor="middle" x="74.5" y="-7" font-family="Helvetica,sans-Serif" font-size="10.00">ostream</text>
</a>
</g>
</g>
<!-- Node12&#45;&gt;Node13 -->
<g id="edge13_Node000012_Node000013" class="edge">
<title>Node12&#45;&gt;Node13</title>
<g id="a_edge13_Node000012_Node000013"><a xlink:title=" ">
<path fill="none" stroke="#63b8ff" d="M74.5,-60.37C74.5,-52.25 74.5,-39.81 74.5,-29.39"/>
<polygon fill="#63b8ff" stroke="#63b8ff" points="78,-29.17 74.5,-19.17 71,-29.17 78,-29.17"/>
</a>
</g>
</g>
<!-- Node14 -->
<g id="Node000014" class="node">
<title>Node14</title>
<g id="a_Node000014"><a xlink:title=" ">
<polygon fill="#e0e0e0" stroke="#999999" points="408,-19 361,-19 361,0 408,0 408,-19"/>
<text text-anchor="middle" x="384.5" y="-7" font-family="Helvetica,sans-Serif" font-size="10.00">cmath</text>
</a>
</g>
</g>
<!-- Node12&#45;&gt;Node14 -->
<g id="edge14_Node000012_Node000014" class="edge">
<title>Node12&#45;&gt;Node14</title>
<g id="a_edge14_Node000012_Node000014"><a xlink:title=" ">
<path fill="none" stroke="#63b8ff" d="M119.58,-60.49C182.36,-48.64 294.73,-27.44 350.78,-16.86"/>
<polygon fill="#63b8ff" stroke="#63b8ff" points="351.71,-20.25 360.89,-14.96 350.41,-13.37 351.71,-20.25"/>
</a>
</g>
</g>
<!-- Node15&#45;&gt;Node7 -->
<g id="edge17_Node000015_Node000007" class="edge">
<title>Node15&#45;&gt;Node7</title>
<g id="a_edge17_Node000015_Node000007"><a xlink:title=" ">
<path fill="none" stroke="#63b8ff" d="M438.18,-175.91C456.16,-168.63 480.14,-156.71 496.5,-140 526.88,-108.97 538.3,-57.02 542.38,-29.29"/>
<polygon fill="#63b8ff" stroke="#63b8ff" points="545.9,-29.39 543.71,-19.02 538.96,-28.49 545.9,-29.39"/>
</a>
</g>
</g>
<!-- Node15&#45;&gt;Node9 -->
<g id="edge19_Node000015_Node000009" class="edge">
<title>Node15&#45;&gt;Node9</title>
<g id="a_edge19_Node000015_Node000009"><a xlink:title=" ">
<path fill="none" stroke="#63b8ff" d="M375.74,-175.98C335.18,-166.84 270.61,-152.27 226.47,-142.32"/>
<polygon fill="#63b8ff" stroke="#63b8ff" points="227.08,-138.87 216.55,-140.08 225.54,-145.7 227.08,-138.87"/>
</a>
</g>
</g>
<!-- Node15&#45;&gt;Node10 -->
<g id="edge18_Node000015_Node000010" class="edge">
<title>Node15&#45;&gt;Node10</title>
<g id="a_edge18_Node000015_Node000010"><a xlink:title=" ">
<path fill="none" stroke="#63b8ff" d="M390.7,-175.87C372.73,-168.3 347.73,-156 329.5,-140 312.65,-125.21 298.48,-103.54 289.78,-88.45"/>
<polygon fill="#63b8ff" stroke="#63b8ff" points="292.79,-86.66 284.88,-79.61 286.67,-90.06 292.79,-86.66"/>
</a>
</g>
</g>
<!-- Node16 -->
<g id="Node000016" class="node">
<title>Node16</title>
<g id="a_Node000016"><a xlink:href="tensor_i_8_h.html" target="_top" xlink:title=" ">
<polygon fill="white" stroke="#666666" points="488,-140 339,-140 339,-121 488,-121 488,-140"/>
<text text-anchor="middle" x="413.5" y="-128" font-family="Helvetica,sans-Serif" font-size="10.00">amr&#45;wind/core/vs/tensorI.H</text>
</a>
</g>
</g>
<!-- Node15&#45;&gt;Node16 -->
<g id="edge20_Node000015_Node000016" class="edge">
<title>Node15&#45;&gt;Node16</title>
<g id="a_edge20_Node000015_Node000016"><a xlink:title=" ">
<path fill="none" stroke="#63b8ff" d="M408.33,-175.75C406.84,-168.8 406.4,-158.85 407.02,-150.13"/>
<polygon fill="#63b8ff" stroke="#63b8ff" points="410.51,-150.47 408.37,-140.09 403.57,-149.53 410.51,-150.47"/>
</a>
</g>
</g>
<!-- Node16&#45;&gt;Node14 -->
<g id="edge21_Node000016_Node000014" class="edge">
<title>Node16&#45;&gt;Node14</title>
<g id="a_edge21_Node000016_Node000014"><a xlink:title=" ">
<path fill="none" stroke="#63b8ff" d="M411.41,-120.94C406.76,-101.82 395.41,-55.27 389.04,-29.12"/>
<polygon fill="#63b8ff" stroke="#63b8ff" points="392.41,-28.19 386.64,-19.3 385.61,-29.85 392.41,-28.19"/>
</a>
</g>
</g>
<!-- Node16&#45;&gt;Node15 -->
<g id="edge22_Node000016_Node000015" class="edge">
<title>Node16&#45;&gt;Node15</title>
<g id="a_edge22_Node000016_Node000015"><a xlink:title=" ">
<path fill="none" stroke="#63b8ff" d="M418.63,-140.09C420.14,-146.99 420.59,-156.93 419.99,-165.66"/>
<polygon fill="#63b8ff" stroke="#63b8ff" points="416.5,-165.38 418.67,-175.75 423.44,-166.29 416.5,-165.38"/>
</a>
</g>
</g>
<!-- Node17 -->
<g id="Node000017" class="node">
<title>Node17</title>
<g id="a_Node000017"><a xlink:href="trig__ops_8_h.html" target="_top" xlink:title=" ">
<polygon fill="white" stroke="#666666" points="516,-85 413,-85 413,-55 516,-55 516,-85"/>
<text text-anchor="start" x="421" y="-73" font-family="Helvetica,sans-Serif" font-size="10.00">amr&#45;wind/utilities</text>
<text text-anchor="middle" x="464.5" y="-62" font-family="Helvetica,sans-Serif" font-size="10.00">/trig_ops.H</text>
</a>
</g>
</g>
<!-- Node16&#45;&gt;Node17 -->
<g id="edge23_Node000016_Node000017" class="edge">
<title>Node16&#45;&gt;Node17</title>
<g id="a_edge23_Node000016_Node000017"><a xlink:title=" ">
<path fill="none" stroke="#63b8ff" d="M421.03,-120.87C427.43,-113.52 436.92,-102.63 445.4,-92.91"/>
<polygon fill="#63b8ff" stroke="#63b8ff" points="448.26,-94.95 452.19,-85.11 442.99,-90.35 448.26,-94.95"/>
</a>
</g>
</g>
<!-- Node17&#45;&gt;Node7 -->
<g id="edge26_Node000017_Node000007" class="edge">
<title>Node17&#45;&gt;Node7</title>
<g id="a_edge26_Node000017_Node000007"><a xlink:title=" ">
<path fill="none" stroke="#63b8ff" d="M483.87,-54.84C496.07,-45.91 511.81,-34.41 524.19,-25.35"/>
<polygon fill="#63b8ff" stroke="#63b8ff" points="526.51,-27.99 532.51,-19.27 522.37,-22.34 526.51,-27.99"/>
</a>
</g>
</g>
<!-- Node17&#45;&gt;Node14 -->
<g id="edge24_Node000017_Node000014" class="edge">
<title>Node17&#45;&gt;Node14</title>
<g id="a_edge24_Node000017_Node000014"><a xlink:title=" ">
<path fill="none" stroke="#63b8ff" d="M445.13,-54.84C432.93,-45.91 417.19,-34.41 404.81,-25.35"/>
<polygon fill="#63b8ff" stroke="#63b8ff" points="406.63,-22.34 396.49,-19.27 402.49,-27.99 406.63,-22.34"/>
</a>
</g>
</g>
<!-- Node17&#45;&gt;Node18 -->
<g id="edge25_Node000017_Node000018" class="edge">
<title>Node17&#45;&gt;Node18</title>
<g id="a_edge25_Node000017_Node000018"><a xlink:title=" ">
<path fill="none" stroke="#63b8ff" d="M516.15,-63.58C620.79,-52.59 857.03,-27.77 965.33,-16.4"/>
<polygon fill="#63b8ff" stroke="#63b8ff" points="965.83,-19.87 975.41,-15.34 965.1,-12.9 965.83,-19.87"/>
</a>
</g>
</g>
<!-- Node22&#45;&gt;Node2 -->
<g id="edge33_Node000022_Node000002" class="edge">
<title>Node22&#45;&gt;Node2</title>
<g id="a_edge33_Node000022_Node000002"><a xlink:title=" ">
<path fill="none" stroke="#63b8ff" d="M818.17,-428.8C816.4,-421.26 814.18,-411.78 812.16,-403.13"/>
<polygon fill="#63b8ff" stroke="#63b8ff" points="815.51,-402.1 809.82,-393.16 808.69,-403.7 815.51,-402.1"/>
</a>
</g>
</g>
<!-- Node22&#45;&gt;Node8 -->
<g id="edge34_Node000022_Node000008" class="edge">
<title>Node22&#45;&gt;Node8</title>
<g id="a_edge34_Node000022_Node000008"><a xlink:title=" ">
<path fill="none" stroke="#63b8ff" d="M786.07,-428.81C766.57,-420.08 742.53,-407.74 723.5,-393 678.44,-358.11 686.11,-328.32 638.5,-297 616.17,-282.31 589.15,-271.6 564.12,-263.95"/>
<polygon fill="#63b8ff" stroke="#63b8ff" points="564.86,-260.52 554.28,-261.06 562.89,-267.23 564.86,-260.52"/>
</a>
</g>
</g>
<!-- Node22&#45;&gt;Node18 -->
<g id="edge35_Node000022_Node000018" class="edge">
<title>Node22&#45;&gt;Node18</title>
<g id="a_edge35_Node000022_Node000018"><a xlink:title=" ">
<path fill="none" stroke="#63b8ff" d="M901.8,-429.03C964.31,-413 1040.5,-379.76 1040.5,-313 1040.5,-313 1040.5,-313 1040.5,-129.5 1040.5,-93.54 1031.94,-52.23 1026.31,-28.96"/>
<polygon fill="#63b8ff" stroke="#63b8ff" points="1029.66,-27.93 1023.83,-19.09 1022.87,-29.64 1029.66,-27.93"/>
</a>
</g>
</g>
</g>
</svg>
