<?xml version="1.0" encoding="UTF-8" standalone="no"?>
<!DOCTYPE svg PUBLIC "-//W3C//DTD SVG 1.1//EN"
 "http://www.w3.org/Graphics/SVG/1.1/DTD/svg11.dtd">
<!-- Generated by graphviz version 2.43.0 (0)
 -->
<!-- Title: /home/runner/work/amr&#45;wind/amr&#45;wind/amr&#45;wind/utilities/sampling/LidarSampler.H Pages: 1 -->
<svg width="1297pt" height="368pt"
 viewBox="0.00 0.00 1296.69 368.00" xmlns="http://www.w3.org/2000/svg" xmlns:xlink="http://www.w3.org/1999/xlink">
<g id="graph0" class="graph" transform="scale(1 1) rotate(0) translate(4 364)">
<title>/home/runner/work/amr&#45;wind/amr&#45;wind/amr&#45;wind/utilities/sampling/LidarSampler.H</title>
<!-- Node1 -->
<g id="Node000001" class="node">
<title>Node1</title>
<g id="a_Node000001"><a xlink:title=" ">
<polygon fill="#999999" stroke="#666666" points="788,-360 606,-360 606,-319 788,-319 788,-360"/>
<text text-anchor="start" x="614" y="-348" font-family="Helvetica,sans-Serif" font-size="10.00">/home/runner/work/amr</text>
<text text-anchor="start" x="614" y="-337" font-family="Helvetica,sans-Serif" font-size="10.00">&#45;wind/amr&#45;wind/amr&#45;wind</text>
<text text-anchor="middle" x="697" y="-326" font-family="Helvetica,sans-Serif" font-size="10.00">/utilities/sampling/LidarSampler.H</text>
</a>
</g>
</g>
<!-- Node2 -->
<g id="Node000002" class="node">
<title>Node2</title>
<g id="a_Node000002"><a xlink:href="_line_sampler_8_h.html" target="_top" xlink:title=" ">
<polygon fill="white" stroke="#666666" points="689,-283 551,-283 551,-253 689,-253 689,-283"/>
<text text-anchor="start" x="559" y="-271" font-family="Helvetica,sans-Serif" font-size="10.00">amr&#45;wind/utilities</text>
<text text-anchor="middle" x="620" y="-260" font-family="Helvetica,sans-Serif" font-size="10.00">/sampling/LineSampler.H</text>
</a>
</g>
</g>
<!-- Node1&#45;&gt;Node2 -->
<g id="edge1_Node000001_Node000002" class="edge">
<title>Node1&#45;&gt;Node2</title>
<g id="a_edge1_Node000001_Node000002"><a xlink:title=" ">
<path fill="none" stroke="#63b8ff" d="M675.14,-318.77C665.18,-309.78 653.37,-299.12 643.25,-289.98"/>
<polygon fill="#63b8ff" stroke="#63b8ff" points="645.32,-287.14 635.55,-283.04 640.63,-292.34 645.32,-287.14"/>
</a>
</g>
</g>
<!-- Node15 -->
<g id="Node000015" class="node">
<title>Node15</title>
<g id="a_Node000015"><a xlink:href="vector__space_8_h.html" target="_top" xlink:title=" ">
<polygon fill="white" stroke="#666666" points="947.5,-283 812.5,-283 812.5,-253 947.5,-253 947.5,-283"/>
<text text-anchor="start" x="820.5" y="-271" font-family="Helvetica,sans-Serif" font-size="10.00">amr&#45;wind/core/vs/vector</text>
<text text-anchor="middle" x="880" y="-260" font-family="Helvetica,sans-Serif" font-size="10.00">_space.H</text>
</a>
</g>
</g>
<!-- Node1&#45;&gt;Node15 -->
<g id="edge15_Node000001_Node000015" class="edge">
<title>Node1&#45;&gt;Node15</title>
<g id="a_edge15_Node000001_Node000015"><a xlink:title=" ">
<path fill="none" stroke="#63b8ff" d="M748.46,-318.96C775.18,-308.81 807.57,-296.51 833.52,-286.65"/>
<polygon fill="#63b8ff" stroke="#63b8ff" points="835.02,-289.83 843.13,-283 832.54,-283.28 835.02,-289.83"/>
</a>
</g>
</g>
<!-- Node3 -->
<g id="Node000003" class="node">
<title>Node3</title>
<g id="a_Node000003"><a xlink:href="_sampler_base_8_h.html" target="_top" xlink:title=" ">
<polygon fill="white" stroke="#666666" points="586.5,-217 443.5,-217 443.5,-187 586.5,-187 586.5,-217"/>
<text text-anchor="start" x="451.5" y="-205" font-family="Helvetica,sans-Serif" font-size="10.00">amr&#45;wind/utilities</text>
<text text-anchor="middle" x="515" y="-194" font-family="Helvetica,sans-Serif" font-size="10.00">/sampling/SamplerBase.H</text>
</a>
</g>
</g>
<!-- Node2&#45;&gt;Node3 -->
<g id="edge2_Node000002_Node000003" class="edge">
<title>Node2&#45;&gt;Node3</title>
<g id="a_edge2_Node000002_Node000003"><a xlink:title=" ">
<path fill="none" stroke="#63b8ff" d="M596.96,-252.95C582.19,-243.95 562.81,-232.14 546.61,-222.27"/>
<polygon fill="#63b8ff" stroke="#63b8ff" points="548.35,-219.23 537.99,-217.01 544.71,-225.21 548.35,-219.23"/>
</a>
</g>
</g>
<!-- Node4 -->
<g id="Node000004" class="node">
<title>Node4</title>
<g id="a_Node000004"><a xlink:href="_factory_8_h.html" target="_top" xlink:title=" ">
<polygon fill="white" stroke="#666666" points="582,-145.5 448,-145.5 448,-126.5 582,-126.5 582,-145.5"/>
<text text-anchor="middle" x="515" y="-133.5" font-family="Helvetica,sans-Serif" font-size="10.00">amr&#45;wind/core/Factory.H</text>
</a>
</g>
</g>
<!-- Node3&#45;&gt;Node4 -->
<g id="edge3_Node000003_Node000004" class="edge">
<title>Node3&#45;&gt;Node4</title>
<g id="a_edge3_Node000003_Node000004"><a xlink:title=" ">
<path fill="none" stroke="#63b8ff" d="M515,-186.8C515,-177.7 515,-165.79 515,-155.9"/>
<polygon fill="#63b8ff" stroke="#63b8ff" points="518.5,-155.84 515,-145.84 511.5,-155.84 518.5,-155.84"/>
</a>
</g>
</g>
<!-- Node10 -->
<g id="Node000010" class="node">
<title>Node10</title>
<g id="a_Node000010"><a xlink:href="nc__interface_8_h.html" target="_top" xlink:title=" ">
<polygon fill="white" stroke="#666666" points="261.5,-151 136.5,-151 136.5,-121 261.5,-121 261.5,-151"/>
<text text-anchor="start" x="144.5" y="-139" font-family="Helvetica,sans-Serif" font-size="10.00">amr&#45;wind/utilities</text>
<text text-anchor="middle" x="199" y="-128" font-family="Helvetica,sans-Serif" font-size="10.00">/ncutils/nc_interface.H</text>
</a>
</g>
</g>
<!-- Node3&#45;&gt;Node10 -->
<g id="edge9_Node000003_Node000010" class="edge">
<title>Node3&#45;&gt;Node10</title>
<g id="a_edge9_Node000003_Node000010"><a xlink:title=" ">
<path fill="none" stroke="#63b8ff" d="M445.65,-186.95C394.11,-176.52 323.95,-162.31 271.64,-151.71"/>
<polygon fill="#63b8ff" stroke="#63b8ff" points="272.25,-148.26 261.75,-149.71 270.86,-155.12 272.25,-148.26"/>
</a>
</g>
</g>
<!-- Node5 -->
<g id="Node000005" class="node">
<title>Node5</title>
<g id="a_Node000005"><a xlink:title=" ">
<polygon fill="#e0e0e0" stroke="#999999" points="467,-79.5 409,-79.5 409,-60.5 467,-60.5 467,-79.5"/>
<text text-anchor="middle" x="438" y="-67.5" font-family="Helvetica,sans-Serif" font-size="10.00">memory</text>
</a>
</g>
</g>
<!-- Node4&#45;&gt;Node5 -->
<g id="edge4_Node000004_Node000005" class="edge">
<title>Node4&#45;&gt;Node5</title>
<g id="a_edge4_Node000004_Node000005"><a xlink:title=" ">
<path fill="none" stroke="#63b8ff" d="M504.62,-126.37C492.28,-116.12 471.49,-98.84 456.41,-86.31"/>
<polygon fill="#63b8ff" stroke="#63b8ff" points="458.64,-83.61 448.71,-79.91 454.17,-88.99 458.64,-83.61"/>
</a>
</g>
</g>
<!-- Node6 -->
<g id="Node000006" class="node">
<title>Node6</title>
<g id="a_Node000006"><a xlink:title=" ">
<polygon fill="#e0e0e0" stroke="#999999" points="390.5,-79.5 297.5,-79.5 297.5,-60.5 390.5,-60.5 390.5,-79.5"/>
<text text-anchor="middle" x="344" y="-67.5" font-family="Helvetica,sans-Serif" font-size="10.00">unordered_map</text>
</a>
</g>
</g>
<!-- Node4&#45;&gt;Node6 -->
<g id="edge5_Node000004_Node000006" class="edge">
<title>Node4&#45;&gt;Node6</title>
<g id="a_edge5_Node000004_Node000006"><a xlink:title=" ">
<path fill="none" stroke="#63b8ff" d="M491.94,-126.37C462.15,-115.22 410.13,-95.75 376.39,-83.12"/>
<polygon fill="#63b8ff" stroke="#63b8ff" points="377.56,-79.82 366.97,-79.6 375.11,-86.38 377.56,-79.82"/>
</a>
</g>
</g>
<!-- Node7 -->
<g id="Node000007" class="node">
<title>Node7</title>
<g id="a_Node000007"><a xlink:title=" ">
<polygon fill="#e0e0e0" stroke="#999999" points="545,-79.5 485,-79.5 485,-60.5 545,-60.5 545,-79.5"/>
<text text-anchor="middle" x="515" y="-67.5" font-family="Helvetica,sans-Serif" font-size="10.00">iostream</text>
</a>
</g>
</g>
<!-- Node4&#45;&gt;Node7 -->
<g id="edge6_Node000004_Node000007" class="edge">
<title>Node4&#45;&gt;Node7</title>
<g id="a_edge6_Node000004_Node000007"><a xlink:title=" ">
<path fill="none" stroke="#63b8ff" d="M515,-126.37C515,-117.16 515,-102.29 515,-90.27"/>
<polygon fill="#63b8ff" stroke="#63b8ff" points="518.5,-89.91 515,-79.91 511.5,-89.91 518.5,-89.91"/>
</a>
</g>
</g>
<!-- Node8 -->
<g id="Node000008" class="node">
<title>Node8</title>
<g id="a_Node000008"><a xlink:title=" ">
<polygon fill="#e0e0e0" stroke="#999999" points="653,-79.5 563,-79.5 563,-60.5 653,-60.5 653,-79.5"/>
<text text-anchor="middle" x="608" y="-67.5" font-family="Helvetica,sans-Serif" font-size="10.00">AMReX_Print.H</text>
</a>
</g>
</g>
<!-- Node4&#45;&gt;Node8 -->
<g id="edge7_Node000004_Node000008" class="edge">
<title>Node4&#45;&gt;Node8</title>
<g id="a_edge7_Node000004_Node000008"><a xlink:title=" ">
<path fill="none" stroke="#63b8ff" d="M527.54,-126.37C542.8,-115.87 568.77,-98 587.07,-85.4"/>
<polygon fill="#63b8ff" stroke="#63b8ff" points="589.11,-88.25 595.36,-79.7 585.14,-82.48 589.11,-88.25"/>
</a>
</g>
</g>
<!-- Node9 -->
<g id="Node000009" class="node">
<title>Node9</title>
<g id="a_Node000009"><a xlink:title=" ">
<polygon fill="#e0e0e0" stroke="#999999" points="733,-79.5 671,-79.5 671,-60.5 733,-60.5 733,-79.5"/>
<text text-anchor="middle" x="702" y="-67.5" font-family="Helvetica,sans-Serif" font-size="10.00">AMReX.H</text>
</a>
</g>
</g>
<!-- Node4&#45;&gt;Node9 -->
<g id="edge8_Node000004_Node000009" class="edge">
<title>Node4&#45;&gt;Node9</title>
<g id="a_edge8_Node000004_Node000009"><a xlink:title=" ">
<path fill="none" stroke="#63b8ff" d="M540.25,-126.49C569.56,-116.59 619.32,-99.73 662,-85 663.88,-84.35 665.8,-83.68 667.75,-83.01"/>
<polygon fill="#63b8ff" stroke="#63b8ff" points="669.18,-86.22 677.47,-79.62 666.88,-79.61 669.18,-86.22"/>
</a>
</g>
</g>
<!-- Node10&#45;&gt;Node6 -->
<g id="edge11_Node000010_Node000006" class="edge">
<title>Node10&#45;&gt;Node6</title>
<g id="a_edge11_Node000010_Node000006"><a xlink:title=" ">
<path fill="none" stroke="#63b8ff" d="M230.82,-120.95C256.03,-109.83 290.93,-94.42 315.29,-83.67"/>
<polygon fill="#63b8ff" stroke="#63b8ff" points="316.97,-86.76 324.7,-79.52 314.14,-80.35 316.97,-86.76"/>
</a>
</g>
</g>
<!-- Node11 -->
<g id="Node000011" class="node">
<title>Node11</title>
<g id="a_Node000011"><a xlink:title=" ">
<polygon fill="#e0e0e0" stroke="#999999" points="44,-79.5 0,-79.5 0,-60.5 44,-60.5 44,-79.5"/>
<text text-anchor="middle" x="22" y="-67.5" font-family="Helvetica,sans-Serif" font-size="10.00">string</text>
</a>
</g>
</g>
<!-- Node10&#45;&gt;Node11 -->
<g id="edge10_Node000010_Node000011" class="edge">
<title>Node10&#45;&gt;Node11</title>
<g id="a_edge10_Node000010_Node000011"><a xlink:title=" ">
<path fill="none" stroke="#63b8ff" d="M154.52,-120.97C125.39,-111.49 86.63,-98.32 53,-85 51.83,-84.54 50.63,-84.05 49.43,-83.55"/>
<polygon fill="#63b8ff" stroke="#63b8ff" points="50.8,-80.33 40.24,-79.58 48.03,-86.76 50.8,-80.33"/>
</a>
</g>
</g>
<!-- Node12 -->
<g id="Node000012" class="node">
<title>Node12</title>
<g id="a_Node000012"><a xlink:title=" ">
<polygon fill="#e0e0e0" stroke="#999999" points="109.5,-79.5 62.5,-79.5 62.5,-60.5 109.5,-60.5 109.5,-79.5"/>
<text text-anchor="middle" x="86" y="-67.5" font-family="Helvetica,sans-Serif" font-size="10.00">vector</text>
</a>
</g>
</g>
<!-- Node10&#45;&gt;Node12 -->
<g id="edge12_Node000010_Node000012" class="edge">
<title>Node10&#45;&gt;Node12</title>
<g id="a_edge12_Node000010_Node000012"><a xlink:title=" ">
<path fill="none" stroke="#63b8ff" d="M174.2,-120.95C155.08,-110.13 128.8,-95.24 109.91,-84.54"/>
<polygon fill="#63b8ff" stroke="#63b8ff" points="111.46,-81.4 101.04,-79.52 108.01,-87.49 111.46,-81.4"/>
</a>
</g>
</g>
<!-- Node13 -->
<g id="Node000013" class="node">
<title>Node13</title>
<g id="a_Node000013"><a xlink:title=" ">
<polygon fill="#e0e0e0" stroke="#999999" points="184,-79.5 128,-79.5 128,-60.5 184,-60.5 184,-79.5"/>
<text text-anchor="middle" x="156" y="-67.5" font-family="Helvetica,sans-Serif" font-size="10.00">netcdf.h</text>
</a>
</g>
</g>
<!-- Node10&#45;&gt;Node13 -->
<g id="edge13_Node000010_Node000013" class="edge">
<title>Node10&#45;&gt;Node13</title>
<g id="a_edge13_Node000010_Node000013"><a xlink:title=" ">
<path fill="none" stroke="#63b8ff" d="M189.46,-120.8C183.02,-111.21 174.48,-98.5 167.64,-88.32"/>
<polygon fill="#63b8ff" stroke="#63b8ff" points="170.42,-86.19 161.94,-79.84 164.61,-90.1 170.42,-86.19"/>
</a>
</g>
</g>
<!-- Node14 -->
<g id="Node000014" class="node">
<title>Node14</title>
<g id="a_Node000014"><a xlink:title=" ">
<polygon fill="#e0e0e0" stroke="#999999" points="279.5,-79.5 202.5,-79.5 202.5,-60.5 279.5,-60.5 279.5,-79.5"/>
<text text-anchor="middle" x="241" y="-67.5" font-family="Helvetica,sans-Serif" font-size="10.00">netcdf_par.h</text>
</a>
</g>
</g>
<!-- Node10&#45;&gt;Node14 -->
<g id="edge14_Node000010_Node000014" class="edge">
<title>Node10&#45;&gt;Node14</title>
<g id="a_edge14_Node000010_Node000014"><a xlink:title=" ">
<path fill="none" stroke="#63b8ff" d="M208.32,-120.8C214.61,-111.21 222.95,-98.5 229.63,-88.32"/>
<polygon fill="#63b8ff" stroke="#63b8ff" points="232.64,-90.13 235.2,-79.84 226.78,-86.28 232.64,-90.13"/>
</a>
</g>
</g>
<!-- Node16 -->
<g id="Node000016" class="node">
<title>Node16</title>
<g id="a_Node000016"><a xlink:href="vector_8_h.html" target="_top" xlink:title=" ">
<polygon fill="white" stroke="#666666" points="952.5,-145.5 807.5,-145.5 807.5,-126.5 952.5,-126.5 952.5,-145.5"/>
<text text-anchor="middle" x="880" y="-133.5" font-family="Helvetica,sans-Serif" font-size="10.00">amr&#45;wind/core/vs/vector.H</text>
</a>
</g>
</g>
<!-- Node15&#45;&gt;Node16 -->
<g id="edge16_Node000015_Node000016" class="edge">
<title>Node15&#45;&gt;Node16</title>
<g id="a_edge16_Node000015_Node000016"><a xlink:title=" ">
<path fill="none" stroke="#63b8ff" d="M880,-252.84C880,-229.34 880,-182.26 880,-155.93"/>
<polygon fill="#63b8ff" stroke="#63b8ff" points="883.5,-155.75 880,-145.75 876.5,-155.75 883.5,-155.75"/>
</a>
</g>
</g>
<!-- Node24 -->
<g id="Node000024" class="node">
<title>Node24</title>
<g id="a_Node000024"><a xlink:href="tensor_8_h.html" target="_top" xlink:title=" ">
<polygon fill="white" stroke="#666666" points="1117.5,-211.5 972.5,-211.5 972.5,-192.5 1117.5,-192.5 1117.5,-211.5"/>
<text text-anchor="middle" x="1045" y="-199.5" font-family="Helvetica,sans-Serif" font-size="10.00">amr&#45;wind/core/vs/tensor.H</text>
</a>
</g>
</g>
<!-- Node15&#45;&gt;Node24 -->
<g id="edge25_Node000015_Node000024" class="edge">
<title>Node15&#45;&gt;Node24</title>
<g id="a_edge25_Node000015_Node000024"><a xlink:title=" ">
<path fill="none" stroke="#63b8ff" d="M916.21,-252.95C945.27,-241.68 985.67,-226.01 1013.43,-215.25"/>
<polygon fill="#63b8ff" stroke="#63b8ff" points="1014.98,-218.4 1023.04,-211.52 1012.45,-211.87 1014.98,-218.4"/>
</a>
</g>
</g>
<!-- Node17 -->
<g id="Node000017" class="node">
<title>Node17</title>
<g id="a_Node000017"><a xlink:title=" ">
<polygon fill="#e0e0e0" stroke="#999999" points="1088.5,-19 1001.5,-19 1001.5,0 1088.5,0 1088.5,-19"/>
<text text-anchor="middle" x="1045" y="-7" font-family="Helvetica,sans-Serif" font-size="10.00">AMReX_Gpu.H</text>
</a>
</g>
</g>
<!-- Node16&#45;&gt;Node17 -->
<g id="edge17_Node000016_Node000017" class="edge">
<title>Node16&#45;&gt;Node17</title>
<g id="a_edge17_Node000016_Node000017"><a xlink:title=" ">
<path fill="none" stroke="#63b8ff" d="M891.16,-126.26C910.13,-111.45 949.91,-80.54 984,-55 997.38,-44.98 1012.56,-33.9 1024.43,-25.31"/>
<polygon fill="#63b8ff" stroke="#63b8ff" points="1026.72,-27.97 1032.78,-19.27 1022.63,-22.29 1026.72,-27.97"/>
</a>
</g>
</g>
<!-- Node18 -->
<g id="Node000018" class="node">
<title>Node18</title>
<g id="a_Node000018"><a xlink:href="vstraits_8_h.html" target="_top" xlink:title=" ">
<polygon fill="white" stroke="#666666" points="1267,-79.5 1115,-79.5 1115,-60.5 1267,-60.5 1267,-79.5"/>
<text text-anchor="middle" x="1191" y="-67.5" font-family="Helvetica,sans-Serif" font-size="10.00">amr&#45;wind/core/vs/vstraits.H</text>
</a>
</g>
</g>
<!-- Node16&#45;&gt;Node18 -->
<g id="edge18_Node000016_Node000018" class="edge">
<title>Node16&#45;&gt;Node18</title>
<g id="a_edge18_Node000016_Node000018"><a xlink:title=" ">
<path fill="none" stroke="#63b8ff" d="M921.62,-126.44C978.06,-114.82 1078.82,-94.09 1139.82,-81.53"/>
<polygon fill="#63b8ff" stroke="#63b8ff" points="1140.54,-84.96 1149.63,-79.51 1139.13,-78.1 1140.54,-84.96"/>
</a>
</g>
</g>
<!-- Node21 -->
<g id="Node000021" class="node">
<title>Node21</title>
<g id="a_Node000021"><a xlink:href="vector_i_8_h.html" target="_top" xlink:title=" ">
<polygon fill="white" stroke="#666666" points="899.5,-79.5 750.5,-79.5 750.5,-60.5 899.5,-60.5 899.5,-79.5"/>
<text text-anchor="middle" x="825" y="-67.5" font-family="Helvetica,sans-Serif" font-size="10.00">amr&#45;wind/core/vs/vectorI.H</text>
</a>
</g>
</g>
<!-- Node16&#45;&gt;Node21 -->
<g id="edge21_Node000016_Node000021" class="edge">
<title>Node16&#45;&gt;Node21</title>
<g id="a_edge21_Node000016_Node000021"><a xlink:title=" ">
<path fill="none" stroke="#63b8ff" d="M867.79,-126.37C857.31,-116.59 842.99,-100.42 833.62,-88.08"/>
<polygon fill="#63b8ff" stroke="#63b8ff" points="836.46,-86.02 827.81,-79.91 830.76,-90.08 836.46,-86.02"/>
</a>
</g>
</g>
<!-- Node19 -->
<g id="Node000019" class="node">
<title>Node19</title>
<g id="a_Node000019"><a xlink:title=" ">
<polygon fill="#e0e0e0" stroke="#999999" points="1261,-19 1217,-19 1217,0 1261,0 1261,-19"/>
<text text-anchor="middle" x="1239" y="-7" font-family="Helvetica,sans-Serif" font-size="10.00">limits</text>
</a>
</g>
</g>
<!-- Node18&#45;&gt;Node19 -->
<g id="edge19_Node000018_Node000019" class="edge">
<title>Node18&#45;&gt;Node19</title>
<g id="a_edge19_Node000018_Node000019"><a xlink:title=" ">
<path fill="none" stroke="#63b8ff" d="M1198.08,-60.37C1205.24,-51.64 1216.49,-37.93 1225.39,-27.09"/>
<polygon fill="#63b8ff" stroke="#63b8ff" points="1228.25,-29.12 1231.89,-19.17 1222.84,-24.68 1228.25,-29.12"/>
</a>
</g>
</g>
<!-- Node20 -->
<g id="Node000020" class="node">
<title>Node20</title>
<g id="a_Node000020"><a xlink:title=" ">
<polygon fill="#e0e0e0" stroke="#999999" points="1199,-19 1107,-19 1107,0 1199,0 1199,-19"/>
<text text-anchor="middle" x="1153" y="-7" font-family="Helvetica,sans-Serif" font-size="10.00">AMReX_REAL.H</text>
</a>
</g>
</g>
<!-- Node18&#45;&gt;Node20 -->
<g id="edge20_Node000018_Node000020" class="edge">
<title>Node18&#45;&gt;Node20</title>
<g id="a_edge20_Node000018_Node000020"><a xlink:title=" ">
<path fill="none" stroke="#63b8ff" d="M1185.39,-60.37C1179.84,-51.81 1171.17,-38.47 1164.2,-27.74"/>
<polygon fill="#63b8ff" stroke="#63b8ff" points="1167.01,-25.65 1158.63,-19.17 1161.14,-29.46 1167.01,-25.65"/>
</a>
</g>
</g>
<!-- Node21&#45;&gt;Node16 -->
<g id="edge24_Node000021_Node000016" class="edge">
<title>Node21&#45;&gt;Node16</title>
<g id="a_edge24_Node000021_Node000016"><a xlink:title=" ">
<path fill="none" stroke="#63b8ff" d="M837.5,-79.91C847.96,-89.7 862.09,-105.68 871.36,-117.91"/>
<polygon fill="#63b8ff" stroke="#63b8ff" points="868.73,-120.24 877.37,-126.37 874.43,-116.19 868.73,-120.24"/>
</a>
</g>
</g>
<!-- Node22 -->
<g id="Node000022" class="node">
<title>Node22</title>
<g id="a_Node000022"><a xlink:title=" ">
<polygon fill="#e0e0e0" stroke="#999999" points="853.5,-19 796.5,-19 796.5,0 853.5,0 853.5,-19"/>
<text text-anchor="middle" x="825" y="-7" font-family="Helvetica,sans-Serif" font-size="10.00">ostream</text>
</a>
</g>
</g>
<!-- Node21&#45;&gt;Node22 -->
<g id="edge22_Node000021_Node000022" class="edge">
<title>Node21&#45;&gt;Node22</title>
<g id="a_edge22_Node000021_Node000022"><a xlink:title=" ">
<path fill="none" stroke="#63b8ff" d="M825,-60.37C825,-52.25 825,-39.81 825,-29.39"/>
<polygon fill="#63b8ff" stroke="#63b8ff" points="828.5,-29.17 825,-19.17 821.5,-29.17 828.5,-29.17"/>
</a>
</g>
</g>
<!-- Node23 -->
<g id="Node000023" class="node">
<title>Node23</title>
<g id="a_Node000023"><a xlink:title=" ">
<polygon fill="#e0e0e0" stroke="#999999" points="983.5,-19 936.5,-19 936.5,0 983.5,0 983.5,-19"/>
<text text-anchor="middle" x="960" y="-7" font-family="Helvetica,sans-Serif" font-size="10.00">cmath</text>
</a>
</g>
</g>
<!-- Node21&#45;&gt;Node23 -->
<g id="edge23_Node000021_Node000023" class="edge">
<title>Node21&#45;&gt;Node23</title>
<g id="a_edge23_Node000021_Node000023"><a xlink:title=" ">
<path fill="none" stroke="#63b8ff" d="M844.63,-60.49C867.33,-50.66 904.9,-34.38 930.97,-23.08"/>
<polygon fill="#63b8ff" stroke="#63b8ff" points="932.56,-26.2 940.35,-19.02 929.78,-19.78 932.56,-26.2"/>
</a>
</g>
</g>
<!-- Node24&#45;&gt;Node16 -->
<g id="edge28_Node000024_Node000016" class="edge">
<title>Node24&#45;&gt;Node16</title>
<g id="a_edge28_Node000024_Node000016"><a xlink:title=" ">
<path fill="none" stroke="#63b8ff" d="M1022.75,-192.37C994.13,-181.27 944.24,-161.92 911.67,-149.28"/>
<polygon fill="#63b8ff" stroke="#63b8ff" points="912.75,-145.95 902.16,-145.6 910.22,-152.48 912.75,-145.95"/>
</a>
</g>
</g>
<!-- Node24&#45;&gt;Node17 -->
<g id="edge26_Node000024_Node000017" class="edge">
<title>Node24&#45;&gt;Node17</title>
<g id="a_edge26_Node000024_Node000017"><a xlink:title=" ">
<path fill="none" stroke="#63b8ff" d="M1087.19,-192.45C1168.77,-174.07 1335.13,-126.61 1276,-55 1273.15,-51.55 1165.94,-31.97 1098.6,-19.96"/>
<polygon fill="#63b8ff" stroke="#63b8ff" points="1099.02,-16.48 1088.56,-18.17 1097.79,-23.37 1099.02,-16.48"/>
</a>
</g>
</g>
<!-- Node24&#45;&gt;Node18 -->
<g id="edge27_Node000024_Node000018" class="edge">
<title>Node24&#45;&gt;Node18</title>
<g id="a_edge27_Node000024_Node000018"><a xlink:title=" ">
<path fill="none" stroke="#63b8ff" d="M1063.42,-192.36C1081.12,-183.51 1108.07,-168.59 1128,-151 1149.36,-132.15 1168.8,-105.33 1180.26,-88.04"/>
<polygon fill="#63b8ff" stroke="#63b8ff" points="1183.28,-89.83 1185.77,-79.53 1177.4,-86.02 1183.28,-89.83"/>
</a>
</g>
</g>
<!-- Node25 -->
<g id="Node000025" class="node">
<title>Node25</title>
<g id="a_Node000025"><a xlink:href="tensor_i_8_h.html" target="_top" xlink:title=" ">
<polygon fill="white" stroke="#666666" points="1119.5,-145.5 970.5,-145.5 970.5,-126.5 1119.5,-126.5 1119.5,-145.5"/>
<text text-anchor="middle" x="1045" y="-133.5" font-family="Helvetica,sans-Serif" font-size="10.00">amr&#45;wind/core/vs/tensorI.H</text>
</a>
</g>
</g>
<!-- Node24&#45;&gt;Node25 -->
<g id="edge29_Node000024_Node000025" class="edge">
<title>Node24&#45;&gt;Node25</title>
<g id="a_edge29_Node000024_Node000025"><a xlink:title=" ">
<path fill="none" stroke="#63b8ff" d="M1040.21,-192.37C1038.22,-183.07 1037.75,-167.98 1038.78,-155.9"/>
<polygon fill="#63b8ff" stroke="#63b8ff" points="1042.26,-156.29 1040.15,-145.91 1035.32,-155.34 1042.26,-156.29"/>
</a>
</g>
</g>
<!-- Node25&#45;&gt;Node23 -->
<g id="edge30_Node000025_Node000023" class="edge">
<title>Node25&#45;&gt;Node23</title>
<g id="a_edge30_Node000025_Node000023"><a xlink:title=" ">
<path fill="none" stroke="#63b8ff" d="M1030.38,-126.49C1016.56,-117.74 996.18,-102.88 984,-85 972.43,-68.01 966.15,-45.08 962.95,-29.17"/>
<polygon fill="#63b8ff" stroke="#63b8ff" points="966.34,-28.24 961.14,-19.01 959.45,-29.47 966.34,-28.24"/>
</a>
</g>
</g>
<!-- Node25&#45;&gt;Node24 -->
<g id="edge31_Node000025_Node000024" class="edge">
<title>Node25&#45;&gt;Node24</title>
<g id="a_edge31_Node000025_Node000024"><a xlink:title=" ">
<path fill="none" stroke="#63b8ff" d="M1049.85,-145.91C1051.8,-155.32 1052.25,-170.43 1051.19,-182.45"/>
<polygon fill="#63b8ff" stroke="#63b8ff" points="1047.72,-181.98 1049.79,-192.37 1054.65,-182.96 1047.72,-181.98"/>
</a>
</g>
</g>
<!-- Node26 -->
<g id="Node000026" class="node">
<title>Node26</title>
<g id="a_Node000026"><a xlink:href="trig__ops_8_h.html" target="_top" xlink:title=" ">
<polygon fill="white" stroke="#666666" points="1096.5,-85 993.5,-85 993.5,-55 1096.5,-55 1096.5,-85"/>
<text text-anchor="start" x="1001.5" y="-73" font-family="Helvetica,sans-Serif" font-size="10.00">amr&#45;wind/utilities</text>
<text text-anchor="middle" x="1045" y="-62" font-family="Helvetica,sans-Serif" font-size="10.00">/trig_ops.H</text>
</a>
</g>
</g>
<!-- Node25&#45;&gt;Node26 -->
<g id="edge32_Node000025_Node000026" class="edge">
<title>Node25&#45;&gt;Node26</title>
<g id="a_edge32_Node000025_Node000026"><a xlink:title=" ">
<path fill="none" stroke="#63b8ff" d="M1045,-126.37C1045,-118.49 1045,-106.45 1045,-95.6"/>
<polygon fill="#63b8ff" stroke="#63b8ff" points="1048.5,-95.36 1045,-85.36 1041.5,-95.36 1048.5,-95.36"/>
</a>
</g>
</g>
<!-- Node26&#45;&gt;Node17 -->
<g id="edge35_Node000026_Node000017" class="edge">
<title>Node26&#45;&gt;Node17</title>
<g id="a_edge35_Node000026_Node000017"><a xlink:title=" ">
<path fill="none" stroke="#63b8ff" d="M1045,-54.84C1045,-47.21 1045,-37.7 1045,-29.45"/>
<polygon fill="#63b8ff" stroke="#63b8ff" points="1048.5,-29.27 1045,-19.27 1041.5,-29.27 1048.5,-29.27"/>
</a>
</g>
</g>
<!-- Node26&#45;&gt;Node20 -->
<g id="edge34_Node000026_Node000020" class="edge">
<title>Node26&#45;&gt;Node20</title>
<g id="a_edge34_Node000026_Node000020"><a xlink:title=" ">
<path fill="none" stroke="#63b8ff" d="M1070.87,-54.99C1088.24,-45.58 1111.01,-33.24 1128.17,-23.95"/>
<polygon fill="#63b8ff" stroke="#63b8ff" points="1129.92,-26.98 1137.05,-19.14 1126.59,-20.82 1129.92,-26.98"/>
</a>
</g>
</g>
<!-- Node26&#45;&gt;Node23 -->
<g id="edge33_Node000026_Node000023" class="edge">
<title>Node26&#45;&gt;Node23</title>
<g id="a_edge33_Node000026_Node000023"><a xlink:title=" ">
<path fill="none" stroke="#63b8ff" d="M1024.42,-54.84C1011.33,-45.83 994.41,-34.18 981.2,-25.09"/>
<polygon fill="#63b8ff" stroke="#63b8ff" points="982.96,-22.05 972.74,-19.27 978.99,-27.82 982.96,-22.05"/>
</a>
</g>
</g>
</g>
</svg>
