<?xml version="1.0" encoding="UTF-8" standalone="no"?>
<!DOCTYPE svg PUBLIC "-//W3C//DTD SVG 1.1//EN"
 "http://www.w3.org/Graphics/SVG/1.1/DTD/svg11.dtd">
<!-- Generated by graphviz version 2.43.0 (0)
 -->
<!-- Title: /home/runner/work/amr&#45;wind/amr&#45;wind/amr&#45;wind/wind_energy/MOData.H Pages: 1 -->
<!--zoomable 478 -->

<svg id="main" version="1.1" xmlns="http://www.w3.org/2000/svg" xmlns:xlink="http://www.w3.org/1999/xlink" xml:space="preserve" onload="init(evt)">

<style type="text/css"><![CDATA[
.node, .edge {opacity: 0.7;}
.node.selected, .edge.selected {opacity: 1;}
.edge:hover path { stroke: red; }
.edge:hover polygon { stroke: red; fill: red; }
]]></style>

<defs>
  <circle id="rim" cx="0" cy="0" r="7"/>
  <circle id="rim2" cx="0" cy="0" r="3.5"/>
  <g id="zoomPlus">
    <use xlink:href="#rim" fill="#404040"><set attributeName="fill" to="#808080" begin="zoomplus.mouseover" end="zoomplus.mouseout"/></use>
    <path d="M-4,0h8M0,-4v8" fill="none" stroke="white" stroke-width="1.5" pointer-events="none"/>
  </g>
  <g id="zoomMin">
    <use xlink:href="#rim" fill="#404040"><set attributeName="fill" to="#808080" begin="zoomminus.mouseover" end="zoomminus.mouseout"/></use>
    <path d="M-4,0h8" fill="none" stroke="white" stroke-width="1.5" pointer-events="none"/>
  </g>
  <g id="arrowUp" transform="translate(30 24)">
    <use xlink:href="#rim"/>
    <path pointer-events="none" fill="none" stroke="white" stroke-width="1.5" d="M0,-3.0v7 M-2.5,-0.5L0,-3.0L2.5,-0.5"/>
  </g>
  <g id="arrowRight" transform="rotate(90) translate(36 -43)">
    <use xlink:href="#rim"/>
    <path pointer-events="none" fill="none" stroke="white" stroke-width="1.5" d="M0,-3.0v7 M-2.5,-0.5L0,-3.0L2.5,-0.5"/>
  </g>
  <g id="arrowDown" transform="rotate(180) translate(-30 -48)">
    <use xlink:href="#rim"/>
    <path pointer-events="none" fill="none" stroke="white" stroke-width="1.5" d="M0,-3.0v7 M-2.5,-0.5L0,-3.0L2.5,-0.5"/>
  </g>
  <g id="arrowLeft" transform="rotate(270) translate(-36 17)">
    <use xlink:href="#rim"/>
    <path pointer-events="none" fill="none" stroke="white" stroke-width="1.5" d="M0,-3.0v7 M-2.5,-0.5L0,-3.0L2.5,-0.5"/>
  </g>
  <g id="resetDef">
    <use xlink:href="#rim2" fill="#404040"><set attributeName="fill" to="#808080" begin="reset.mouseover" end="reset.mouseout"/></use>
  </g>
</defs>
<script type="application/ecmascript">
var viewWidth = 3454;
var viewHeight = 478;
var sectionId = 'dynsection-1';
</script>
<script type="application/ecmascript" xlink:href="svg.min.js"/>
<svg id="graph" class="graph">
<g id="viewport">
<title>/home/runner/work/amr&#45;wind/amr&#45;wind/amr&#45;wind/wind_energy/MOData.H</title>
<!-- Node1 -->
<g id="Node000001" class="node">
<title>Node1</title>
<g id="a_Node000001"><a xlink:title=" ">
<polygon fill="#999999" stroke="#666666" points="2886,-470 2743,-470 2743,-429 2886,-429 2886,-470"/>
<text text-anchor="start" x="2751" y="-458" font-family="Helvetica,sans-Serif" font-size="10.00">/home/runner/work/amr</text>
<text text-anchor="start" x="2751" y="-447" font-family="Helvetica,sans-Serif" font-size="10.00">&#45;wind/amr&#45;wind/amr&#45;wind</text>
<text text-anchor="middle" x="2814.5" y="-436" font-family="Helvetica,sans-Serif" font-size="10.00">/wind_energy/MOData.H</text>
</a>
</g>
</g>
<!-- Node2 -->
<g id="Node000002" class="node">
<title>Node2</title>
<g id="a_Node000002"><a xlink:href="_a_b_l_wall_function_8_h.html" target="_top" xlink:title=" ">
<polygon fill="white" stroke="#666666" points="2338.5,-393 2162.5,-393 2162.5,-352 2338.5,-352 2338.5,-393"/>
<text text-anchor="start" x="2170.5" y="-381" font-family="Helvetica,sans-Serif" font-size="10.00">/home/runner/work/amr</text>
<text text-anchor="start" x="2170.5" y="-370" font-family="Helvetica,sans-Serif" font-size="10.00">&#45;wind/amr&#45;wind/amr&#45;wind</text>
<text text-anchor="middle" x="2250.5" y="-359" font-family="Helvetica,sans-Serif" font-size="10.00">/wind_energy/ABLWallFunction.H</text>
</a>
</g>
</g>
<!-- Node1&#45;&gt;Node2 -->
<g id="edge1_Node000001_Node000002" class="edge">
<title>Node1&#45;&gt;Node2</title>
<g id="a_edge1_Node000001_Node000002"><a xlink:title=" ">
<path fill="none" stroke="#63b8ff" d="M2732.57,-437.6C2627.7,-423.66 2446.72,-399.59 2338.85,-385.25"/>
<polygon fill="#63b8ff" stroke="#63b8ff" points="2732.41,-441.11 2742.78,-438.96 2733.33,-434.18 2732.41,-441.11"/>
</a>
</g>
</g>
<!-- Node27 -->
<g id="Node000027" class="node">
<title>Node27</title>
<g id="a_Node000027"><a xlink:href="_m_o_data_8cpp.html" target="_top" xlink:title=" ">
<polygon fill="white" stroke="#666666" points="2887,-393 2742,-393 2742,-352 2887,-352 2887,-393"/>
<text text-anchor="start" x="2750" y="-381" font-family="Helvetica,sans-Serif" font-size="10.00">/home/runner/work/amr</text>
<text text-anchor="start" x="2750" y="-370" font-family="Helvetica,sans-Serif" font-size="10.00">&#45;wind/amr&#45;wind/amr&#45;wind</text>
<text text-anchor="middle" x="2814.5" y="-359" font-family="Helvetica,sans-Serif" font-size="10.00">/wind_energy/MOData.cpp</text>
</a>
</g>
</g>
<!-- Node1&#45;&gt;Node27 -->
<g id="edge30_Node000001_Node000027" class="edge">
<title>Node1&#45;&gt;Node27</title>
<g id="a_edge30_Node000001_Node000027"><a xlink:title=" ">
<path fill="none" stroke="#63b8ff" d="M2814.5,-418.69C2814.5,-410.08 2814.5,-400.9 2814.5,-393.07"/>
<polygon fill="#63b8ff" stroke="#63b8ff" points="2811,-418.79 2814.5,-428.79 2818,-418.79 2811,-418.79"/>
</a>
</g>
</g>
<!-- Node28 -->
<g id="Node000028" class="node">
<title>Node28</title>
<g id="a_Node000028"><a xlink:href="_shear_stress_8_h.html" target="_top" xlink:title=" ">
<polygon fill="white" stroke="#666666" points="3250,-393 3097,-393 3097,-352 3250,-352 3250,-393"/>
<text text-anchor="start" x="3105" y="-381" font-family="Helvetica,sans-Serif" font-size="10.00">/home/runner/work/amr</text>
<text text-anchor="start" x="3105" y="-370" font-family="Helvetica,sans-Serif" font-size="10.00">&#45;wind/amr&#45;wind/amr&#45;wind</text>
<text text-anchor="middle" x="3173.5" y="-359" font-family="Helvetica,sans-Serif" font-size="10.00">/wind_energy/ShearStress.H</text>
</a>
</g>
</g>
<!-- Node1&#45;&gt;Node28 -->
<g id="edge31_Node000001_Node000028" class="edge">
<title>Node1&#45;&gt;Node28</title>
<g id="a_edge31_Node000001_Node000028"><a xlink:title=" ">
<path fill="none" stroke="#63b8ff" d="M2896.14,-431.44C2956.4,-418.86 3037.84,-401.84 3096.87,-389.51"/>
<polygon fill="#63b8ff" stroke="#63b8ff" points="2895.36,-428.03 2886.29,-433.5 2896.79,-434.88 2895.36,-428.03"/>
</a>
</g>
</g>
<!-- Node3 -->
<g id="Node000003" class="node">
<title>Node3</title>
<g id="a_Node000003"><a xlink:href="_boussinesq_bubble_8cpp.html" target="_top" xlink:title=" ">
<polygon fill="white" stroke="#666666" points="2391,-310.5 2222,-310.5 2222,-269.5 2391,-269.5 2391,-310.5"/>
<text text-anchor="start" x="2230" y="-298.5" font-family="Helvetica,sans-Serif" font-size="10.00">/home/runner/work/amr</text>
<text text-anchor="start" x="2230" y="-287.5" font-family="Helvetica,sans-Serif" font-size="10.00">&#45;wind/amr&#45;wind/amr&#45;wind</text>
<text text-anchor="middle" x="2306.5" y="-276.5" font-family="Helvetica,sans-Serif" font-size="10.00">/physics/BoussinesqBubble.cpp</text>
</a>
</g>
</g>
<!-- Node2&#45;&gt;Node3 -->
<g id="edge2_Node000002_Node000003" class="edge">
<title>Node2&#45;&gt;Node3</title>
<g id="a_edge2_Node000002_Node000003"><a xlink:title=" ">
<path fill="none" stroke="#63b8ff" d="M2270.12,-343.3C2277.61,-332.52 2285.99,-320.48 2292.82,-310.67"/>
<polygon fill="#63b8ff" stroke="#63b8ff" points="2267.18,-341.39 2264.34,-351.6 2272.93,-345.39 2267.18,-341.39"/>
</a>
</g>
</g>
<!-- Node4 -->
<g id="Node000004" class="node">
<title>Node4</title>
<g id="a_Node000004"><a xlink:href="_a_b_l_8_h.html" target="_top" xlink:title=" ">
<polygon fill="white" stroke="#666666" points="2169,-222.5 2026,-222.5 2026,-181.5 2169,-181.5 2169,-222.5"/>
<text text-anchor="start" x="2034" y="-210.5" font-family="Helvetica,sans-Serif" font-size="10.00">/home/runner/work/amr</text>
<text text-anchor="start" x="2034" y="-199.5" font-family="Helvetica,sans-Serif" font-size="10.00">&#45;wind/amr&#45;wind/amr&#45;wind</text>
<text text-anchor="middle" x="2097.5" y="-188.5" font-family="Helvetica,sans-Serif" font-size="10.00">/wind_energy/ABL.H</text>
</a>
</g>
</g>
<!-- Node2&#45;&gt;Node4 -->
<g id="edge3_Node000002_Node000004" class="edge">
<title>Node2&#45;&gt;Node4</title>
<g id="a_edge3_Node000002_Node000004"><a xlink:title=" ">
<path fill="none" stroke="#63b8ff" d="M2231.49,-343.34C2211.48,-313.84 2181.98,-270.84 2175.5,-264 2160.84,-248.52 2142.08,-233.73 2126.64,-222.58"/>
<polygon fill="#63b8ff" stroke="#63b8ff" points="2228.6,-345.31 2237.11,-351.63 2234.4,-341.39 2228.6,-345.31"/>
</a>
</g>
</g>
<!-- Node23 -->
<g id="Node000023" class="node">
<title>Node23</title>
<g id="a_Node000023"><a xlink:href="_a_b_l_wall_function_8cpp.html" target="_top" xlink:title=" ">
<polygon fill="white" stroke="#666666" points="3446,-134.5 3261,-134.5 3261,-93.5 3446,-93.5 3446,-134.5"/>
<text text-anchor="start" x="3269" y="-122.5" font-family="Helvetica,sans-Serif" font-size="10.00">/home/runner/work/amr</text>
<text text-anchor="start" x="3269" y="-111.5" font-family="Helvetica,sans-Serif" font-size="10.00">&#45;wind/amr&#45;wind/amr&#45;wind</text>
<text text-anchor="middle" x="3353.5" y="-100.5" font-family="Helvetica,sans-Serif" font-size="10.00">/wind_energy/ABLWallFunction.cpp</text>
</a>
</g>
</g>
<!-- Node2&#45;&gt;Node23 -->
<g id="edge29_Node000002_Node000023" class="edge">
<title>Node2&#45;&gt;Node23</title>
<g id="a_edge29_Node000002_Node000023"><a xlink:title=" ">
<path fill="none" stroke="#63b8ff" d="M2346.96,-349.74C2525.75,-309.29 2920.61,-219.41 3252.5,-140 3259.88,-138.23 3267.55,-136.38 3275.23,-134.5"/>
<polygon fill="#63b8ff" stroke="#63b8ff" points="2346.04,-346.36 2337.06,-351.98 2347.58,-353.19 2346.04,-346.36"/>
</a>
</g>
</g>
<!-- Node24 -->
<g id="Node000024" class="node">
<title>Node24</title>
<g id="a_Node000024"><a xlink:href="_a_b_l_stats_8_h.html" target="_top" xlink:title=" ">
<polygon fill="white" stroke="#666666" points="2008,-222.5 1865,-222.5 1865,-181.5 2008,-181.5 2008,-222.5"/>
<text text-anchor="start" x="1873" y="-210.5" font-family="Helvetica,sans-Serif" font-size="10.00">/home/runner/work/amr</text>
<text text-anchor="start" x="1873" y="-199.5" font-family="Helvetica,sans-Serif" font-size="10.00">&#45;wind/amr&#45;wind/amr&#45;wind</text>
<text text-anchor="middle" x="1936.5" y="-188.5" font-family="Helvetica,sans-Serif" font-size="10.00">/wind_energy/ABLStats.H</text>
</a>
</g>
</g>
<!-- Node2&#45;&gt;Node24 -->
<g id="edge24_Node000002_Node000024" class="edge">
<title>Node2&#45;&gt;Node24</title>
<g id="a_edge24_Node000002_Node000024"><a xlink:title=" ">
<path fill="none" stroke="#63b8ff" d="M2152.04,-359.14C2090.47,-349.75 2018.3,-335.17 1993.5,-316 1963.08,-292.48 1947.61,-248.31 1940.87,-222.72"/>
<polygon fill="#63b8ff" stroke="#63b8ff" points="2151.81,-362.65 2162.22,-360.66 2152.84,-355.72 2151.81,-362.65"/>
</a>
</g>
</g>
<!-- Node26 -->
<g id="Node000026" class="node">
<title>Node26</title>
<g id="a_Node000026"><a xlink:href="_a_b_l_stats_base_8_h.html" target="_top" xlink:title=" ">
<polygon fill="white" stroke="#666666" points="2166,-310.5 2003,-310.5 2003,-269.5 2166,-269.5 2166,-310.5"/>
<text text-anchor="start" x="2011" y="-298.5" font-family="Helvetica,sans-Serif" font-size="10.00">/home/runner/work/amr</text>
<text text-anchor="start" x="2011" y="-287.5" font-family="Helvetica,sans-Serif" font-size="10.00">&#45;wind/amr&#45;wind/amr&#45;wind</text>
<text text-anchor="middle" x="2084.5" y="-276.5" font-family="Helvetica,sans-Serif" font-size="10.00">/wind_energy/ABLStatsBase.H</text>
</a>
</g>
</g>
<!-- Node2&#45;&gt;Node26 -->
<g id="edge26_Node000002_Node000026" class="edge">
<title>Node2&#45;&gt;Node26</title>
<g id="a_edge26_Node000002_Node000026"><a xlink:title=" ">
<path fill="none" stroke="#63b8ff" d="M2200.85,-347.42C2176.62,-335.67 2147.85,-321.72 2124.98,-310.63"/>
<polygon fill="#63b8ff" stroke="#63b8ff" points="2199.37,-350.59 2209.89,-351.81 2202.42,-344.29 2199.37,-350.59"/>
</a>
</g>
</g>
<!-- Node5 -->
<g id="Node000005" class="node">
<title>Node5</title>
<g id="a_Node000005"><a xlink:href="_c_f_d_sim_8cpp.html" target="_top" xlink:title=" ">
<polygon fill="white" stroke="#666666" points="3243,-134.5 3100,-134.5 3100,-93.5 3243,-93.5 3243,-134.5"/>
<text text-anchor="start" x="3108" y="-122.5" font-family="Helvetica,sans-Serif" font-size="10.00">/home/runner/work/amr</text>
<text text-anchor="start" x="3108" y="-111.5" font-family="Helvetica,sans-Serif" font-size="10.00">&#45;wind/amr&#45;wind/amr&#45;wind</text>
<text text-anchor="middle" x="3171.5" y="-100.5" font-family="Helvetica,sans-Serif" font-size="10.00">/CFDSim.cpp</text>
</a>
</g>
</g>
<!-- Node4&#45;&gt;Node5 -->
<g id="edge4_Node000004_Node000005" class="edge">
<title>Node4&#45;&gt;Node5</title>
<g id="a_edge4_Node000004_Node000005"><a xlink:title=" ">
<path fill="none" stroke="#63b8ff" d="M2179.18,-198.49C2384.14,-191.78 2916.3,-171.76 3090.5,-140 3098.17,-138.6 3106.14,-136.71 3113.95,-134.59"/>
<polygon fill="#63b8ff" stroke="#63b8ff" points="2178.96,-194.99 2169.08,-198.82 2179.19,-201.99 2178.96,-194.99"/>
</a>
</g>
</g>
<!-- Node6 -->
<g id="Node000006" class="node">
<title>Node6</title>
<g id="a_Node000006"><a xlink:href="icns__advection_8cpp.html" target="_top" xlink:title=" ">
<polygon fill="white" stroke="#666666" points="310,-140 167,-140 167,-88 310,-88 310,-140"/>
<text text-anchor="start" x="175" y="-128" font-family="Helvetica,sans-Serif" font-size="10.00">/home/runner/work/amr</text>
<text text-anchor="start" x="175" y="-117" font-family="Helvetica,sans-Serif" font-size="10.00">&#45;wind/amr&#45;wind/amr&#45;wind</text>
<text text-anchor="start" x="175" y="-106" font-family="Helvetica,sans-Serif" font-size="10.00">/equation_systems/icns</text>
<text text-anchor="middle" x="238.5" y="-95" font-family="Helvetica,sans-Serif" font-size="10.00">/icns_advection.cpp</text>
</a>
</g>
</g>
<!-- Node4&#45;&gt;Node6 -->
<g id="edge5_Node000004_Node000006" class="edge">
<title>Node4&#45;&gt;Node6</title>
<g id="a_edge5_Node000004_Node000006"><a xlink:title=" ">
<path fill="none" stroke="#63b8ff" d="M2031.61,-179.02C2026.53,-177.83 2021.46,-176.8 2016.5,-176 1643.92,-115.77 690.97,-200.89 318.5,-140 315.77,-139.55 313.01,-139.04 310.23,-138.46"/>
<polygon fill="#63b8ff" stroke="#63b8ff" points="2030.78,-182.42 2041.33,-181.47 2032.49,-175.63 2030.78,-182.42"/>
</a>
</g>
</g>
<!-- Node7 -->
<g id="Node000007" class="node">
<title>Node7</title>
<g id="a_Node000007"><a xlink:href="_a_b_l_forcing_8cpp.html" target="_top" xlink:title=" ">
<polygon fill="white" stroke="#666666" points="491,-140 328,-140 328,-88 491,-88 491,-140"/>
<text text-anchor="start" x="336" y="-128" font-family="Helvetica,sans-Serif" font-size="10.00">/home/runner/work/amr</text>
<text text-anchor="start" x="336" y="-117" font-family="Helvetica,sans-Serif" font-size="10.00">&#45;wind/amr&#45;wind/amr&#45;wind</text>
<text text-anchor="start" x="336" y="-106" font-family="Helvetica,sans-Serif" font-size="10.00">/equation_systems/icns</text>
<text text-anchor="middle" x="409.5" y="-95" font-family="Helvetica,sans-Serif" font-size="10.00">/source_terms/ABLForcing.cpp</text>
</a>
</g>
</g>
<!-- Node4&#45;&gt;Node7 -->
<g id="edge6_Node000004_Node000007" class="edge">
<title>Node4&#45;&gt;Node7</title>
<g id="a_edge6_Node000004_Node000007"><a xlink:title=" ">
<path fill="none" stroke="#63b8ff" d="M2031.6,-179.03C2026.53,-177.84 2021.46,-176.81 2016.5,-176 1683.9,-121.8 833.9,-189 500.5,-140 497.42,-139.55 494.3,-139.02 491.15,-138.44"/>
<polygon fill="#63b8ff" stroke="#63b8ff" points="2030.77,-182.43 2041.33,-181.49 2032.49,-175.65 2030.77,-182.43"/>
</a>
</g>
</g>
<!-- Node8 -->
<g id="Node000008" class="node">
<title>Node8</title>
<g id="a_Node000008"><a xlink:href="_a_b_l_mean_boussinesq_8cpp.html" target="_top" xlink:title=" ">
<polygon fill="white" stroke="#666666" points="719.5,-140 509.5,-140 509.5,-88 719.5,-88 719.5,-140"/>
<text text-anchor="start" x="517.5" y="-128" font-family="Helvetica,sans-Serif" font-size="10.00">/home/runner/work/amr</text>
<text text-anchor="start" x="517.5" y="-117" font-family="Helvetica,sans-Serif" font-size="10.00">&#45;wind/amr&#45;wind/amr&#45;wind</text>
<text text-anchor="start" x="517.5" y="-106" font-family="Helvetica,sans-Serif" font-size="10.00">/equation_systems/icns</text>
<text text-anchor="middle" x="614.5" y="-95" font-family="Helvetica,sans-Serif" font-size="10.00">/source_terms/ABLMeanBoussinesq.cpp</text>
</a>
</g>
</g>
<!-- Node4&#45;&gt;Node8 -->
<g id="edge7_Node000004_Node000008" class="edge">
<title>Node4&#45;&gt;Node8</title>
<g id="a_edge7_Node000004_Node000008"><a xlink:title=" ">
<path fill="none" stroke="#63b8ff" d="M2030.95,-178.9C2026.09,-177.77 2021.24,-176.78 2016.5,-176 1451.48,-82.7 1296.92,-209.64 728.5,-140 725.58,-139.64 722.63,-139.25 719.66,-138.81"/>
<polygon fill="#63b8ff" stroke="#63b8ff" points="2030.33,-182.36 2040.88,-181.4 2032.04,-175.57 2030.33,-182.36"/>
</a>
</g>
</g>
<!-- Node9 -->
<g id="Node000009" class="node">
<title>Node9</title>
<g id="a_Node000009"><a xlink:href="_a_b_l_meso_forcing_mom_8cpp.html" target="_top" xlink:title=" ">
<polygon fill="white" stroke="#666666" points="951.5,-140 737.5,-140 737.5,-88 951.5,-88 951.5,-140"/>
<text text-anchor="start" x="745.5" y="-128" font-family="Helvetica,sans-Serif" font-size="10.00">/home/runner/work/amr</text>
<text text-anchor="start" x="745.5" y="-117" font-family="Helvetica,sans-Serif" font-size="10.00">&#45;wind/amr&#45;wind/amr&#45;wind</text>
<text text-anchor="start" x="745.5" y="-106" font-family="Helvetica,sans-Serif" font-size="10.00">/equation_systems/icns</text>
<text text-anchor="middle" x="844.5" y="-95" font-family="Helvetica,sans-Serif" font-size="10.00">/source_terms/ABLMesoForcingMom.cpp</text>
</a>
</g>
</g>
<!-- Node4&#45;&gt;Node9 -->
<g id="edge8_Node000004_Node000009" class="edge">
<title>Node4&#45;&gt;Node9</title>
<g id="a_edge8_Node000004_Node000009"><a xlink:title=" ">
<path fill="none" stroke="#63b8ff" d="M2030.94,-178.94C2026.09,-177.8 2021.24,-176.8 2016.5,-176 1552.97,-98 1425.94,-198.16 959.5,-140 956.86,-139.67 954.2,-139.31 951.52,-138.92"/>
<polygon fill="#63b8ff" stroke="#63b8ff" points="2030.32,-182.39 2040.87,-181.45 2032.04,-175.6 2030.32,-182.39"/>
</a>
</g>
</g>
<!-- Node10 -->
<g id="Node000010" class="node">
<title>Node10</title>
<g id="a_Node000010"><a xlink:href="_drag_forcing_8cpp.html" target="_top" xlink:title=" ">
<polygon fill="white" stroke="#666666" points="1136,-140 969,-140 969,-88 1136,-88 1136,-140"/>
<text text-anchor="start" x="977" y="-128" font-family="Helvetica,sans-Serif" font-size="10.00">/home/runner/work/amr</text>
<text text-anchor="start" x="977" y="-117" font-family="Helvetica,sans-Serif" font-size="10.00">&#45;wind/amr&#45;wind/amr&#45;wind</text>
<text text-anchor="start" x="977" y="-106" font-family="Helvetica,sans-Serif" font-size="10.00">/equation_systems/icns</text>
<text text-anchor="middle" x="1052.5" y="-95" font-family="Helvetica,sans-Serif" font-size="10.00">/source_terms/DragForcing.cpp</text>
</a>
</g>
</g>
<!-- Node4&#45;&gt;Node10 -->
<g id="edge9_Node000004_Node000010" class="edge">
<title>Node4&#45;&gt;Node10</title>
<g id="a_edge9_Node000004_Node000010"><a xlink:title=" ">
<path fill="none" stroke="#63b8ff" d="M2030.67,-178.91C2025.91,-177.79 2021.15,-176.8 2016.5,-176 1634.67,-110.32 1528.48,-198.65 1145.5,-140 1142.44,-139.53 1139.34,-139 1136.22,-138.42"/>
<polygon fill="#63b8ff" stroke="#63b8ff" points="2029.87,-182.32 2040.42,-181.38 2031.59,-175.54 2029.87,-182.32"/>
</a>
</g>
</g>
<!-- Node11 -->
<g id="Node000011" class="node">
<title>Node11</title>
<g id="a_Node000011"><a xlink:href="_forest_forcing_8cpp.html" target="_top" xlink:title=" ">
<polygon fill="white" stroke="#666666" points="1328.5,-140 1154.5,-140 1154.5,-88 1328.5,-88 1328.5,-140"/>
<text text-anchor="start" x="1162.5" y="-128" font-family="Helvetica,sans-Serif" font-size="10.00">/home/runner/work/amr</text>
<text text-anchor="start" x="1162.5" y="-117" font-family="Helvetica,sans-Serif" font-size="10.00">&#45;wind/amr&#45;wind/amr&#45;wind</text>
<text text-anchor="start" x="1162.5" y="-106" font-family="Helvetica,sans-Serif" font-size="10.00">/equation_systems/icns</text>
<text text-anchor="middle" x="1241.5" y="-95" font-family="Helvetica,sans-Serif" font-size="10.00">/source_terms/ForestForcing.cpp</text>
</a>
</g>
</g>
<!-- Node4&#45;&gt;Node11 -->
<g id="edge10_Node000004_Node000011" class="edge">
<title>Node4&#45;&gt;Node11</title>
<g id="a_edge10_Node000004_Node000011"><a xlink:title=" ">
<path fill="none" stroke="#63b8ff" d="M2030.66,-178.98C2025.9,-177.84 2021.15,-176.83 2016.5,-176 1718.98,-123.04 1636.13,-186.31 1337.5,-140 1334.61,-139.55 1331.67,-139.05 1328.72,-138.51"/>
<polygon fill="#63b8ff" stroke="#63b8ff" points="2029.85,-182.38 2040.41,-181.47 2031.59,-175.6 2029.85,-182.38"/>
</a>
</g>
</g>
<!-- Node12 -->
<g id="Node000012" class="node">
<title>Node12</title>
<g id="a_Node000012"><a xlink:href="_hurricane_forcing_8cpp.html" target="_top" xlink:title=" ">
<polygon fill="white" stroke="#666666" points="1538,-140 1347,-140 1347,-88 1538,-88 1538,-140"/>
<text text-anchor="start" x="1355" y="-128" font-family="Helvetica,sans-Serif" font-size="10.00">/home/runner/work/amr</text>
<text text-anchor="start" x="1355" y="-117" font-family="Helvetica,sans-Serif" font-size="10.00">&#45;wind/amr&#45;wind/amr&#45;wind</text>
<text text-anchor="start" x="1355" y="-106" font-family="Helvetica,sans-Serif" font-size="10.00">/equation_systems/icns</text>
<text text-anchor="middle" x="1442.5" y="-95" font-family="Helvetica,sans-Serif" font-size="10.00">/source_terms/HurricaneForcing.cpp</text>
</a>
</g>
</g>
<!-- Node4&#45;&gt;Node12 -->
<g id="edge11_Node000004_Node000012" class="edge">
<title>Node4&#45;&gt;Node12</title>
<g id="a_edge11_Node000004_Node000012"><a xlink:title=" ">
<path fill="none" stroke="#63b8ff" d="M2029.75,-178.88C2025.29,-177.8 2020.85,-176.83 2016.5,-176 1810.69,-136.86 1753.45,-172.59 1546.5,-140 1543.75,-139.57 1540.96,-139.1 1538.15,-138.6"/>
<polygon fill="#63b8ff" stroke="#63b8ff" points="2028.93,-182.29 2039.49,-181.4 2030.68,-175.51 2028.93,-182.29"/>
</a>
</g>
</g>
<!-- Node13 -->
<g id="Node000013" class="node">
<title>Node13</title>
<g id="a_Node000013"><a xlink:href="_a_b_l_meso_forcing_temp_8cpp.html" target="_top" xlink:title=" ">
<polygon fill="white" stroke="#666666" points="1771,-140 1556,-140 1556,-88 1771,-88 1771,-140"/>
<text text-anchor="start" x="1564" y="-128" font-family="Helvetica,sans-Serif" font-size="10.00">/home/runner/work/amr</text>
<text text-anchor="start" x="1564" y="-117" font-family="Helvetica,sans-Serif" font-size="10.00">&#45;wind/amr&#45;wind/amr&#45;wind</text>
<text text-anchor="start" x="1564" y="-106" font-family="Helvetica,sans-Serif" font-size="10.00">/equation_systems/temperature</text>
<text text-anchor="middle" x="1663.5" y="-95" font-family="Helvetica,sans-Serif" font-size="10.00">/source_terms/ABLMesoForcingTemp.cpp</text>
</a>
</g>
</g>
<!-- Node4&#45;&gt;Node13 -->
<g id="edge12_Node000004_Node000013" class="edge">
<title>Node4&#45;&gt;Node13</title>
<g id="a_edge12_Node000004_Node000013"><a xlink:title=" ">
<path fill="none" stroke="#63b8ff" d="M2027.65,-178.73C2023.89,-177.76 2020.16,-176.84 2016.5,-176 1913.08,-152.29 1884.87,-159.09 1780.5,-140 1777.44,-139.44 1774.33,-138.86 1771.19,-138.26"/>
<polygon fill="#63b8ff" stroke="#63b8ff" points="2027.04,-182.2 2037.61,-181.43 2028.87,-175.44 2027.04,-182.2"/>
</a>
</g>
</g>
<!-- Node14 -->
<g id="Node000014" class="node">
<title>Node14</title>
<g id="a_Node000014"><a xlink:href="_hurricane_temp_forcing_8cpp.html" target="_top" xlink:title=" ">
<polygon fill="white" stroke="#666666" points="2007.5,-140 1789.5,-140 1789.5,-88 2007.5,-88 2007.5,-140"/>
<text text-anchor="start" x="1797.5" y="-128" font-family="Helvetica,sans-Serif" font-size="10.00">/home/runner/work/amr</text>
<text text-anchor="start" x="1797.5" y="-117" font-family="Helvetica,sans-Serif" font-size="10.00">&#45;wind/amr&#45;wind/amr&#45;wind</text>
<text text-anchor="start" x="1797.5" y="-106" font-family="Helvetica,sans-Serif" font-size="10.00">/equation_systems/temperature</text>
<text text-anchor="middle" x="1898.5" y="-95" font-family="Helvetica,sans-Serif" font-size="10.00">/source_terms/HurricaneTempForcing.cpp</text>
</a>
</g>
</g>
<!-- Node4&#45;&gt;Node14 -->
<g id="edge13_Node000004_Node000014" class="edge">
<title>Node4&#45;&gt;Node14</title>
<g id="a_edge13_Node000004_Node000014"><a xlink:title=" ">
<path fill="none" stroke="#63b8ff" d="M2043.12,-177.5C2016.33,-165.92 1984,-151.95 1956.71,-140.16"/>
<polygon fill="#63b8ff" stroke="#63b8ff" points="2041.78,-180.73 2052.34,-181.49 2044.55,-174.31 2041.78,-180.73"/>
</a>
</g>
</g>
<!-- Node15 -->
<g id="Node000015" class="node">
<title>Node15</title>
<g id="a_Node000015"><a xlink:href="helics_8cpp.html" target="_top" xlink:title=" ">
<polygon fill="white" stroke="#666666" points="2169,-134.5 2026,-134.5 2026,-93.5 2169,-93.5 2169,-134.5"/>
<text text-anchor="start" x="2034" y="-122.5" font-family="Helvetica,sans-Serif" font-size="10.00">/home/runner/work/amr</text>
<text text-anchor="start" x="2034" y="-111.5" font-family="Helvetica,sans-Serif" font-size="10.00">&#45;wind/amr&#45;wind/amr&#45;wind</text>
<text text-anchor="middle" x="2097.5" y="-100.5" font-family="Helvetica,sans-Serif" font-size="10.00">/helics.cpp</text>
</a>
</g>
</g>
<!-- Node4&#45;&gt;Node15 -->
<g id="edge14_Node000004_Node000015" class="edge">
<title>Node4&#45;&gt;Node15</title>
<g id="a_edge14_Node000004_Node000015"><a xlink:title=" ">
<path fill="none" stroke="#63b8ff" d="M2097.5,-171.36C2097.5,-159.26 2097.5,-145.58 2097.5,-134.74"/>
<polygon fill="#63b8ff" stroke="#63b8ff" points="2094,-171.49 2097.5,-181.49 2101,-171.49 2094,-171.49"/>
</a>
</g>
</g>
<!-- Node16 -->
<g id="Node000016" class="node">
<title>Node16</title>
<g id="a_Node000016"><a xlink:href="incflo_8cpp.html" target="_top" xlink:title=" ">
<polygon fill="white" stroke="#666666" points="2330,-134.5 2187,-134.5 2187,-93.5 2330,-93.5 2330,-134.5"/>
<text text-anchor="start" x="2195" y="-122.5" font-family="Helvetica,sans-Serif" font-size="10.00">/home/runner/work/amr</text>
<text text-anchor="start" x="2195" y="-111.5" font-family="Helvetica,sans-Serif" font-size="10.00">&#45;wind/amr&#45;wind/amr&#45;wind</text>
<text text-anchor="middle" x="2258.5" y="-100.5" font-family="Helvetica,sans-Serif" font-size="10.00">/incflo.cpp</text>
</a>
</g>
</g>
<!-- Node4&#45;&gt;Node16 -->
<g id="edge15_Node000004_Node000016" class="edge">
<title>Node4&#45;&gt;Node16</title>
<g id="a_edge15_Node000004_Node000016"><a xlink:title=" ">
<path fill="none" stroke="#63b8ff" d="M2142.95,-176.72C2167.89,-163.4 2198.42,-147.09 2221.83,-134.59"/>
<polygon fill="#63b8ff" stroke="#63b8ff" points="2141.2,-173.69 2134.03,-181.49 2144.5,-179.86 2141.2,-173.69"/>
</a>
</g>
</g>
<!-- Node17 -->
<g id="Node000017" class="node">
<title>Node17</title>
<g id="a_Node000017"><a xlink:href="_overset_ops_8cpp.html" target="_top" xlink:title=" ">
<polygon fill="white" stroke="#666666" points="2430,-46.5 2287,-46.5 2287,-5.5 2430,-5.5 2430,-46.5"/>
<text text-anchor="start" x="2295" y="-34.5" font-family="Helvetica,sans-Serif" font-size="10.00">/home/runner/work/amr</text>
<text text-anchor="start" x="2295" y="-23.5" font-family="Helvetica,sans-Serif" font-size="10.00">&#45;wind/amr&#45;wind/amr&#45;wind</text>
<text text-anchor="middle" x="2358.5" y="-12.5" font-family="Helvetica,sans-Serif" font-size="10.00">/overset/OversetOps.cpp</text>
</a>
</g>
</g>
<!-- Node4&#45;&gt;Node17 -->
<g id="edge16_Node000004_Node000017" class="edge">
<title>Node4&#45;&gt;Node17</title>
<g id="a_edge16_Node000004_Node000017"><a xlink:title=" ">
<path fill="none" stroke="#63b8ff" d="M2179.34,-190.08C2240.76,-180.17 2317.83,-163.49 2339.5,-140 2362.97,-114.56 2363.32,-71.5 2361.13,-46.52"/>
<polygon fill="#63b8ff" stroke="#63b8ff" points="2178.57,-186.66 2169.24,-191.67 2179.66,-193.57 2178.57,-186.66"/>
</a>
</g>
</g>
<!-- Node18 -->
<g id="Node000018" class="node">
<title>Node18</title>
<g id="a_Node000018"><a xlink:href="nodal__projection__ops_8_h.html" target="_top" xlink:title=" ">
<polygon fill="white" stroke="#666666" points="2571,-134.5 2386,-134.5 2386,-93.5 2571,-93.5 2571,-134.5"/>
<text text-anchor="start" x="2394" y="-122.5" font-family="Helvetica,sans-Serif" font-size="10.00">/home/runner/work/amr</text>
<text text-anchor="start" x="2394" y="-111.5" font-family="Helvetica,sans-Serif" font-size="10.00">&#45;wind/amr&#45;wind/amr&#45;wind</text>
<text text-anchor="middle" x="2478.5" y="-100.5" font-family="Helvetica,sans-Serif" font-size="10.00">/projection/nodal_projection_ops.H</text>
</a>
</g>
</g>
<!-- Node4&#45;&gt;Node18 -->
<g id="edge17_Node000004_Node000018" class="edge">
<title>Node4&#45;&gt;Node18</title>
<g id="a_edge17_Node000004_Node000018"><a xlink:title=" ">
<path fill="none" stroke="#63b8ff" d="M2179.07,-183.21C2233.82,-171.19 2307.54,-154.86 2372.5,-140 2380.15,-138.25 2388.1,-136.41 2396.06,-134.56"/>
<polygon fill="#63b8ff" stroke="#63b8ff" points="2178.09,-179.84 2169.07,-185.4 2179.59,-186.67 2178.09,-179.84"/>
</a>
</g>
</g>
<!-- Node20 -->
<g id="Node000020" class="node">
<title>Node20</title>
<g id="a_Node000020"><a xlink:href="init_8cpp.html" target="_top" xlink:title=" ">
<polygon fill="white" stroke="#666666" points="2732,-134.5 2589,-134.5 2589,-93.5 2732,-93.5 2732,-134.5"/>
<text text-anchor="start" x="2597" y="-122.5" font-family="Helvetica,sans-Serif" font-size="10.00">/home/runner/work/amr</text>
<text text-anchor="start" x="2597" y="-111.5" font-family="Helvetica,sans-Serif" font-size="10.00">&#45;wind/amr&#45;wind/amr&#45;wind</text>
<text text-anchor="middle" x="2660.5" y="-100.5" font-family="Helvetica,sans-Serif" font-size="10.00">/setup/init.cpp</text>
</a>
</g>
</g>
<!-- Node4&#45;&gt;Node20 -->
<g id="edge20_Node000004_Node000020" class="edge">
<title>Node4&#45;&gt;Node20</title>
<g id="a_edge20_Node000004_Node000020"><a xlink:title=" ">
<path fill="none" stroke="#63b8ff" d="M2179.37,-195.11C2276.05,-187.13 2441.31,-170.29 2580.5,-140 2587.61,-138.45 2594.99,-136.56 2602.27,-134.51"/>
<polygon fill="#63b8ff" stroke="#63b8ff" points="2179.05,-191.62 2169.37,-195.92 2179.62,-198.6 2179.05,-191.62"/>
</a>
</g>
</g>
<!-- Node21 -->
<g id="Node000021" class="node">
<title>Node21</title>
<g id="a_Node000021"><a xlink:href="_a_b_l_8cpp.html" target="_top" xlink:title=" ">
<polygon fill="white" stroke="#666666" points="2893,-134.5 2750,-134.5 2750,-93.5 2893,-93.5 2893,-134.5"/>
<text text-anchor="start" x="2758" y="-122.5" font-family="Helvetica,sans-Serif" font-size="10.00">/home/runner/work/amr</text>
<text text-anchor="start" x="2758" y="-111.5" font-family="Helvetica,sans-Serif" font-size="10.00">&#45;wind/amr&#45;wind/amr&#45;wind</text>
<text text-anchor="middle" x="2821.5" y="-100.5" font-family="Helvetica,sans-Serif" font-size="10.00">/wind_energy/ABL.cpp</text>
</a>
</g>
</g>
<!-- Node4&#45;&gt;Node21 -->
<g id="edge21_Node000004_Node000021" class="edge">
<title>Node4&#45;&gt;Node21</title>
<g id="a_edge21_Node000004_Node000021"><a xlink:title=" ">
<path fill="none" stroke="#63b8ff" d="M2179.3,-198.7C2302.39,-194.02 2542.05,-180.15 2741.5,-140 2748.78,-138.54 2756.33,-136.66 2763.76,-134.6"/>
<polygon fill="#63b8ff" stroke="#63b8ff" points="2179.07,-195.21 2169.2,-199.08 2179.33,-202.2 2179.07,-195.21"/>
</a>
</g>
</g>
<!-- Node22 -->
<g id="Node000022" class="node">
<title>Node22</title>
<g id="a_Node000022"><a xlink:href="_a_b_l_anelastic_8cpp.html" target="_top" xlink:title=" ">
<polygon fill="white" stroke="#666666" points="3081.5,-134.5 2911.5,-134.5 2911.5,-93.5 3081.5,-93.5 3081.5,-134.5"/>
<text text-anchor="start" x="2919.5" y="-122.5" font-family="Helvetica,sans-Serif" font-size="10.00">/home/runner/work/amr</text>
<text text-anchor="start" x="2919.5" y="-111.5" font-family="Helvetica,sans-Serif" font-size="10.00">&#45;wind/amr&#45;wind/amr&#45;wind</text>
<text text-anchor="middle" x="2996.5" y="-100.5" font-family="Helvetica,sans-Serif" font-size="10.00">/wind_energy/ABLAnelastic.cpp</text>
</a>
</g>
</g>
<!-- Node4&#45;&gt;Node22 -->
<g id="edge22_Node000004_Node000022" class="edge">
<title>Node4&#45;&gt;Node22</title>
<g id="a_edge22_Node000004_Node000022"><a xlink:title=" ">
<path fill="none" stroke="#63b8ff" d="M2179.34,-199.77C2325.51,-196.46 2640.7,-184.34 2902.5,-140 2911.16,-138.53 2920.18,-136.63 2929.05,-134.53"/>
<polygon fill="#63b8ff" stroke="#63b8ff" points="2179.03,-196.27 2169.11,-199.99 2179.18,-203.27 2179.03,-196.27"/>
</a>
</g>
</g>
<!-- Node4&#45;&gt;Node23 -->
<g id="edge23_Node000004_Node000023" class="edge">
<title>Node4&#45;&gt;Node23</title>
<g id="a_edge23_Node000004_Node000023"><a xlink:title=" ">
<path fill="none" stroke="#63b8ff" d="M2179.39,-197.58C2425.37,-187.17 3147.32,-155.65 3252.5,-140 3262.06,-138.58 3272.03,-136.66 3281.83,-134.51"/>
<polygon fill="#63b8ff" stroke="#63b8ff" points="2178.93,-194.09 2169.08,-198.01 2179.22,-201.09 2178.93,-194.09"/>
</a>
</g>
</g>
<!-- Node18&#45;&gt;Node17 -->
<g id="edge18_Node000018_Node000017" class="edge">
<title>Node18&#45;&gt;Node17</title>
<g id="a_edge18_Node000018_Node000017"><a xlink:title=" ">
<path fill="none" stroke="#63b8ff" d="M2442.69,-87.33C2424.54,-74.33 2402.86,-58.79 2386.04,-46.74"/>
<polygon fill="#63b8ff" stroke="#63b8ff" points="2441.1,-90.5 2451.27,-93.49 2445.18,-84.82 2441.1,-90.5"/>
</a>
</g>
</g>
<!-- Node19 -->
<g id="Node000019" class="node">
<title>Node19</title>
<g id="a_Node000019"><a xlink:href="incflo__apply__nodal__projection_8cpp.html" target="_top" xlink:title=" ">
<polygon fill="white" stroke="#666666" points="2591,-52 2448,-52 2448,0 2591,0 2591,-52"/>
<text text-anchor="start" x="2456" y="-40" font-family="Helvetica,sans-Serif" font-size="10.00">/home/runner/work/amr</text>
<text text-anchor="start" x="2456" y="-29" font-family="Helvetica,sans-Serif" font-size="10.00">&#45;wind/amr&#45;wind/amr&#45;wind</text>
<text text-anchor="start" x="2456" y="-18" font-family="Helvetica,sans-Serif" font-size="10.00">/projection/incflo_apply</text>
<text text-anchor="middle" x="2519.5" y="-7" font-family="Helvetica,sans-Serif" font-size="10.00">_nodal_projection.cpp</text>
</a>
</g>
</g>
<!-- Node18&#45;&gt;Node19 -->
<g id="edge19_Node000018_Node000019" class="edge">
<title>Node18&#45;&gt;Node19</title>
<g id="a_edge19_Node000018_Node000019"><a xlink:title=" ">
<path fill="none" stroke="#63b8ff" d="M2492.14,-84.4C2497.08,-74.02 2502.63,-62.39 2507.43,-52.32"/>
<polygon fill="#63b8ff" stroke="#63b8ff" points="2488.95,-82.95 2487.8,-93.49 2495.27,-85.96 2488.95,-82.95"/>
</a>
</g>
</g>
<!-- Node25 -->
<g id="Node000025" class="node">
<title>Node25</title>
<g id="a_Node000025"><a xlink:href="_a_b_l_stats_8cpp.html" target="_top" xlink:title=" ">
<polygon fill="white" stroke="#666666" points="149,-134.5 0,-134.5 0,-93.5 149,-93.5 149,-134.5"/>
<text text-anchor="start" x="8" y="-122.5" font-family="Helvetica,sans-Serif" font-size="10.00">/home/runner/work/amr</text>
<text text-anchor="start" x="8" y="-111.5" font-family="Helvetica,sans-Serif" font-size="10.00">&#45;wind/amr&#45;wind/amr&#45;wind</text>
<text text-anchor="middle" x="74.5" y="-100.5" font-family="Helvetica,sans-Serif" font-size="10.00">/wind_energy/ABLStats.cpp</text>
</a>
</g>
</g>
<!-- Node24&#45;&gt;Node25 -->
<g id="edge25_Node000024_Node000025" class="edge">
<title>Node24&#45;&gt;Node25</title>
<g id="a_edge25_Node000024_Node000025"><a xlink:title=" ">
<path fill="none" stroke="#63b8ff" d="M1854.68,-200.99C1551.25,-200.53 490.65,-194.93 157.5,-140 149.33,-138.65 140.84,-136.73 132.55,-134.54"/>
<polygon fill="#63b8ff" stroke="#63b8ff" points="1854.72,-204.49 1864.73,-201.01 1854.73,-197.49 1854.72,-204.49"/>
</a>
</g>
</g>
<!-- Node26&#45;&gt;Node4 -->
<g id="edge27_Node000026_Node000004" class="edge">
<title>Node26&#45;&gt;Node4</title>
<g id="a_edge27_Node000026_Node000004"><a xlink:title=" ">
<path fill="none" stroke="#63b8ff" d="M2088.98,-259.36C2090.81,-247.26 2092.88,-233.58 2094.52,-222.74"/>
<polygon fill="#63b8ff" stroke="#63b8ff" points="2085.48,-259.07 2087.45,-269.49 2092.41,-260.12 2085.48,-259.07"/>
</a>
</g>
</g>
<!-- Node26&#45;&gt;Node24 -->
<g id="edge28_Node000026_Node000024" class="edge">
<title>Node26&#45;&gt;Node24</title>
<g id="a_edge28_Node000026_Node000024"><a xlink:title=" ">
<path fill="none" stroke="#63b8ff" d="M2042.12,-264.37C2019.3,-251.11 1991.54,-234.98 1970.21,-222.59"/>
<polygon fill="#63b8ff" stroke="#63b8ff" points="2040.51,-267.49 2050.92,-269.49 2044.03,-261.43 2040.51,-267.49"/>
</a>
</g>
</g>
<!-- Node28&#45;&gt;Node23 -->
<g id="edge34_Node000028_Node000023" class="edge">
<title>Node28&#45;&gt;Node23</title>
<g id="a_edge34_Node000028_Node000023"><a xlink:title=" ">
<path fill="none" stroke="#63b8ff" d="M3169.44,-341.8C3165.46,-300.15 3164.61,-224.11 3202.5,-176 3213.78,-161.67 3252.04,-146.3 3287.21,-134.56"/>
<polygon fill="#63b8ff" stroke="#63b8ff" points="3165.98,-342.29 3170.53,-351.86 3172.94,-341.54 3165.98,-342.29"/>
</a>
</g>
</g>
<!-- Node29 -->
<g id="Node000029" class="node">
<title>Node29</title>
<g id="a_Node000029"><a xlink:href="_shear_stress_simple_8_h.html" target="_top" xlink:title=" ">
<polygon fill="white" stroke="#666666" points="3365,-316 3202,-316 3202,-264 3365,-264 3365,-316"/>
<text text-anchor="start" x="3210" y="-304" font-family="Helvetica,sans-Serif" font-size="10.00">/home/runner/work/amr</text>
<text text-anchor="start" x="3210" y="-293" font-family="Helvetica,sans-Serif" font-size="10.00">&#45;wind/amr&#45;wind/amr&#45;wind</text>
<text text-anchor="start" x="3210" y="-282" font-family="Helvetica,sans-Serif" font-size="10.00">/boundary_conditions/wall</text>
<text text-anchor="middle" x="3283.5" y="-271" font-family="Helvetica,sans-Serif" font-size="10.00">_models/ShearStressSimple.H</text>
</a>
</g>
</g>
<!-- Node28&#45;&gt;Node29 -->
<g id="edge32_Node000028_Node000029" class="edge">
<title>Node28&#45;&gt;Node29</title>
<g id="a_edge32_Node000028_Node000029"><a xlink:title=" ">
<path fill="none" stroke="#63b8ff" d="M3208.61,-345.81C3221.51,-336.36 3236.11,-325.68 3248.96,-316.28"/>
<polygon fill="#63b8ff" stroke="#63b8ff" points="3206.41,-343.08 3200.41,-351.81 3210.55,-348.73 3206.41,-343.08"/>
</a>
</g>
</g>
<!-- Node30 -->
<g id="Node000030" class="node">
<title>Node30</title>
<g id="a_Node000030"><a xlink:href="_wall_function_8cpp.html" target="_top" xlink:title=" ">
<polygon fill="white" stroke="#666666" points="3355.5,-228 3211.5,-228 3211.5,-176 3355.5,-176 3355.5,-228"/>
<text text-anchor="start" x="3219.5" y="-216" font-family="Helvetica,sans-Serif" font-size="10.00">/home/runner/work/amr</text>
<text text-anchor="start" x="3219.5" y="-205" font-family="Helvetica,sans-Serif" font-size="10.00">&#45;wind/amr&#45;wind/amr&#45;wind</text>
<text text-anchor="start" x="3219.5" y="-194" font-family="Helvetica,sans-Serif" font-size="10.00">/boundary_conditions/wall</text>
<text text-anchor="middle" x="3283.5" y="-183" font-family="Helvetica,sans-Serif" font-size="10.00">_models/WallFunction.cpp</text>
</a>
</g>
</g>
<!-- Node29&#45;&gt;Node30 -->
<g id="edge33_Node000029_Node000030" class="edge">
<title>Node29&#45;&gt;Node30</title>
<g id="a_edge33_Node000029_Node000030"><a xlink:title=" ">
<path fill="none" stroke="#63b8ff" d="M3283.5,-253.56C3283.5,-245.04 3283.5,-236.1 3283.5,-228.16"/>
<polygon fill="#63b8ff" stroke="#63b8ff" points="3280,-253.66 3283.5,-263.66 3287,-253.66 3280,-253.66"/>
</a>
</g>
</g>
</g>
</svg>

<g id="navigator" transform="translate(0 0)" fill="#404254">
  <rect fill="#f2f5e9" fill-opacity="0.5" stroke="#606060" stroke-width=".5" x="0" y="0" width="60" height="60"/>
  <use id="zoomplus" xlink:href="#zoomPlus" x="17" y="9" onmousedown="handleZoom(evt,'in')"/>
  <use id="zoomminus" xlink:href="#zoomMin" x="42" y="9" onmousedown="handleZoom(evt,'out')"/>
  <use id="reset" xlink:href="#resetDef" x="30" y="36" onmousedown="handleReset()"/>
   <use id="arrowup" xlink:href="#arrowUp" x="0" y="0" onmousedown="handlePan(0,-1)"/>
  <use id="arrowright" xlink:href="#arrowRight" x="0" y="0" onmousedown="handlePan(1,0)"/>
  <use id="arrowdown" xlink:href="#arrowDown" x="0" y="0" onmousedown="handlePan(0,1)"/>
  <use id="arrowleft" xlink:href="#arrowLeft" x="0" y="0" onmousedown="handlePan(-1,0)"/>
</g>
<svg viewBox="0 0 15 15" width="100%" height="30px" preserveAspectRatio="xMaxYMin meet">
 <g id="arrow_out" transform="scale(0.3 0.3)">
  <a xlink:href="_m_o_data_8_h__dep__incl_org.svg" target="_base">
   <rect id="button" ry="5" rx="5" y="6" x="6" height="38" width="38"
        fill="#f2f5e9" fill-opacity="0.5" stroke="#606060" stroke-width="1.0"/>
   <path id="arrow"
     d="M 11.500037,31.436501 C 11.940474,20.09759 22.043105,11.32322 32.158766,21.979434 L 37.068811,17.246167 C 37.068811,17.246167 37.088388,32 37.088388,32 L 22.160133,31.978069 C 22.160133,31.978069 26.997745,27.140456 26.997745,27.140456 C 18.528582,18.264221 13.291696,25.230495 11.500037,31.436501 z"
     style="fill:#404040;"/>
  </a>
 </g>
</svg>

<style type='text/css'>
<![CDATA[
[data-mouse-over-selected='false'] { opacity: 0.7; }
[data-mouse-over-selected='true']  { opacity: 1.0; }
]]>
</style>
<script type="application/ecmascript"><![CDATA[
document.addEventListener('DOMContentLoaded', (event) => {
  highlightEdges();
  highlightAdjacentNodes();
});
]]></script>
</svg>
