<?xml version="1.0" encoding="UTF-8" standalone="no"?>
<!DOCTYPE svg PUBLIC "-//W3C//DTD SVG 1.1//EN"
 "http://www.w3.org/Graphics/SVG/1.1/DTD/svg11.dtd">
<!-- Generated by graphviz version 2.43.0 (0)
 -->
<!-- Title: /home/runner/work/amr&#45;wind/amr&#45;wind/amr&#45;wind/wind_energy/MOData.H Pages: 1 -->
<!--zoomable 489 -->

<svg id="main" version="1.1" xmlns="http://www.w3.org/2000/svg" xmlns:xlink="http://www.w3.org/1999/xlink" xml:space="preserve" onload="init(evt)">

<style type="text/css"><![CDATA[
.node, .edge {opacity: 0.7;}
.node.selected, .edge.selected {opacity: 1;}
.edge:hover path { stroke: red; }
.edge:hover polygon { stroke: red; fill: red; }
]]></style>

<defs>
  <circle id="rim" cx="0" cy="0" r="7"/>
  <circle id="rim2" cx="0" cy="0" r="3.5"/>
  <g id="zoomPlus">
    <use xlink:href="#rim" fill="#404040"><set attributeName="fill" to="#808080" begin="zoomplus.mouseover" end="zoomplus.mouseout"/></use>
    <path d="M-4,0h8M0,-4v8" fill="none" stroke="white" stroke-width="1.5" pointer-events="none"/>
  </g>
  <g id="zoomMin">
    <use xlink:href="#rim" fill="#404040"><set attributeName="fill" to="#808080" begin="zoomminus.mouseover" end="zoomminus.mouseout"/></use>
    <path d="M-4,0h8" fill="none" stroke="white" stroke-width="1.5" pointer-events="none"/>
  </g>
  <g id="arrowUp" transform="translate(30 24)">
    <use xlink:href="#rim"/>
    <path pointer-events="none" fill="none" stroke="white" stroke-width="1.5" d="M0,-3.0v7 M-2.5,-0.5L0,-3.0L2.5,-0.5"/>
  </g>
  <g id="arrowRight" transform="rotate(90) translate(36 -43)">
    <use xlink:href="#rim"/>
    <path pointer-events="none" fill="none" stroke="white" stroke-width="1.5" d="M0,-3.0v7 M-2.5,-0.5L0,-3.0L2.5,-0.5"/>
  </g>
  <g id="arrowDown" transform="rotate(180) translate(-30 -48)">
    <use xlink:href="#rim"/>
    <path pointer-events="none" fill="none" stroke="white" stroke-width="1.5" d="M0,-3.0v7 M-2.5,-0.5L0,-3.0L2.5,-0.5"/>
  </g>
  <g id="arrowLeft" transform="rotate(270) translate(-36 17)">
    <use xlink:href="#rim"/>
    <path pointer-events="none" fill="none" stroke="white" stroke-width="1.5" d="M0,-3.0v7 M-2.5,-0.5L0,-3.0L2.5,-0.5"/>
  </g>
  <g id="resetDef">
    <use xlink:href="#rim2" fill="#404040"><set attributeName="fill" to="#808080" begin="reset.mouseover" end="reset.mouseout"/></use>
  </g>
</defs>
<script type="application/ecmascript">
var viewWidth = 3629;
var viewHeight = 489;
var sectionId = 'dynsection-1';
</script>
<script type="application/ecmascript" xlink:href="svg.min.js"/>
<svg id="graph" class="graph">
<g id="viewport">
<title>/home/runner/work/amr&#45;wind/amr&#45;wind/amr&#45;wind/wind_energy/MOData.H</title>
<!-- Node1 -->
<g id="Node000001" class="node">
<title>Node1</title>
<g id="a_Node000001"><a xlink:title=" ">
<polygon fill="#999999" stroke="#666666" points="2982,-481 2839,-481 2839,-440 2982,-440 2982,-481"/>
<text text-anchor="start" x="2847" y="-469" font-family="Helvetica,sans-Serif" font-size="10.00">/home/runner/work/amr</text>
<text text-anchor="start" x="2847" y="-458" font-family="Helvetica,sans-Serif" font-size="10.00">&#45;wind/amr&#45;wind/amr&#45;wind</text>
<text text-anchor="middle" x="2910.5" y="-447" font-family="Helvetica,sans-Serif" font-size="10.00">/wind_energy/MOData.H</text>
</a>
</g>
</g>
<!-- Node2 -->
<g id="Node000002" class="node">
<title>Node2</title>
<g id="a_Node000002"><a xlink:href="_drag_temp_forcing_8cpp.html" target="_top" xlink:title=" ">
<polygon fill="white" stroke="#666666" points="2566.5,-404 2372.5,-404 2372.5,-352 2566.5,-352 2566.5,-404"/>
<text text-anchor="start" x="2380.5" y="-392" font-family="Helvetica,sans-Serif" font-size="10.00">/home/runner/work/amr</text>
<text text-anchor="start" x="2380.5" y="-381" font-family="Helvetica,sans-Serif" font-size="10.00">&#45;wind/amr&#45;wind/amr&#45;wind</text>
<text text-anchor="start" x="2380.5" y="-370" font-family="Helvetica,sans-Serif" font-size="10.00">/equation_systems/temperature</text>
<text text-anchor="middle" x="2469.5" y="-359" font-family="Helvetica,sans-Serif" font-size="10.00">/source_terms/DragTempForcing.cpp</text>
</a>
</g>
</g>
<!-- Node1&#45;&gt;Node2 -->
<g id="edge1_Node000001_Node000002" class="edge">
<title>Node1&#45;&gt;Node2</title>
<g id="a_edge1_Node000001_Node000002"><a xlink:title=" ">
<path fill="none" stroke="#63b8ff" d="M2828.47,-447.49C2760.47,-437.16 2661.41,-421.23 2575.5,-404 2572.63,-403.42 2569.71,-402.83 2566.77,-402.21"/>
<polygon fill="#63b8ff" stroke="#63b8ff" points="2828.28,-451 2838.69,-449.04 2829.32,-444.08 2828.28,-451"/>
</a>
</g>
</g>
<!-- Node3 -->
<g id="Node000003" class="node">
<title>Node3</title>
<g id="a_Node000003"><a xlink:href="_krans_axell_8cpp.html" target="_top" xlink:title=" ">
<polygon fill="white" stroke="#666666" points="2746.5,-404 2584.5,-404 2584.5,-352 2746.5,-352 2746.5,-404"/>
<text text-anchor="start" x="2592.5" y="-392" font-family="Helvetica,sans-Serif" font-size="10.00">/home/runner/work/amr</text>
<text text-anchor="start" x="2592.5" y="-381" font-family="Helvetica,sans-Serif" font-size="10.00">&#45;wind/amr&#45;wind/amr&#45;wind</text>
<text text-anchor="start" x="2592.5" y="-370" font-family="Helvetica,sans-Serif" font-size="10.00">/equation_systems/tke/source</text>
<text text-anchor="middle" x="2665.5" y="-359" font-family="Helvetica,sans-Serif" font-size="10.00">_terms/KransAxell.cpp</text>
</a>
</g>
</g>
<!-- Node1&#45;&gt;Node3 -->
<g id="edge2_Node000001_Node000003" class="edge">
<title>Node1&#45;&gt;Node3</title>
<g id="a_edge2_Node000001_Node000003"><a xlink:title=" ">
<path fill="none" stroke="#63b8ff" d="M2841.03,-436.67C2810.04,-426.49 2773.44,-414.47 2741.7,-404.04"/>
<polygon fill="#63b8ff" stroke="#63b8ff" points="2840.29,-440.11 2850.88,-439.91 2842.47,-433.46 2840.29,-440.11"/>
</a>
</g>
</g>
<!-- Node4 -->
<g id="Node000004" class="node">
<title>Node4</title>
<g id="a_Node000004"><a xlink:href="_a_b_l_wall_function_8_h.html" target="_top" xlink:title=" ">
<polygon fill="white" stroke="#666666" points="2940.5,-398.5 2764.5,-398.5 2764.5,-357.5 2940.5,-357.5 2940.5,-398.5"/>
<text text-anchor="start" x="2772.5" y="-386.5" font-family="Helvetica,sans-Serif" font-size="10.00">/home/runner/work/amr</text>
<text text-anchor="start" x="2772.5" y="-375.5" font-family="Helvetica,sans-Serif" font-size="10.00">&#45;wind/amr&#45;wind/amr&#45;wind</text>
<text text-anchor="middle" x="2852.5" y="-364.5" font-family="Helvetica,sans-Serif" font-size="10.00">/wind_energy/ABLWallFunction.H</text>
</a>
</g>
</g>
<!-- Node1&#45;&gt;Node4 -->
<g id="edge3_Node000001_Node000004" class="edge">
<title>Node1&#45;&gt;Node4</title>
<g id="a_edge3_Node000001_Node000004"><a xlink:title=" ">
<path fill="none" stroke="#63b8ff" d="M2890.18,-431.3C2882.42,-420.52 2873.74,-408.48 2866.67,-398.67"/>
<polygon fill="#63b8ff" stroke="#63b8ff" points="2887.48,-433.53 2896.16,-439.6 2893.16,-429.44 2887.48,-433.53"/>
</a>
</g>
</g>
<!-- Node26 -->
<g id="Node000026" class="node">
<title>Node26</title>
<g id="a_Node000026"><a xlink:href="_a_b_l_wall_function_8cpp.html" target="_top" xlink:title=" ">
<polygon fill="white" stroke="#666666" points="3621,-134.5 3436,-134.5 3436,-93.5 3621,-93.5 3621,-134.5"/>
<text text-anchor="start" x="3444" y="-122.5" font-family="Helvetica,sans-Serif" font-size="10.00">/home/runner/work/amr</text>
<text text-anchor="start" x="3444" y="-111.5" font-family="Helvetica,sans-Serif" font-size="10.00">&#45;wind/amr&#45;wind/amr&#45;wind</text>
<text text-anchor="middle" x="3528.5" y="-100.5" font-family="Helvetica,sans-Serif" font-size="10.00">/wind_energy/ABLWallFunction.cpp</text>
</a>
</g>
</g>
<!-- Node1&#45;&gt;Node26 -->
<g id="edge33_Node000001_Node000026" class="edge">
<title>Node1&#45;&gt;Node26</title>
<g id="a_edge33_Node000001_Node000026"><a xlink:title=" ">
<path fill="none" stroke="#63b8ff" d="M2930.41,-431.31C2952.25,-400.49 2984.73,-355.05 2988.5,-352 3131.67,-235.96 3340.47,-165.93 3451.83,-134.58"/>
<polygon fill="#63b8ff" stroke="#63b8ff" points="2927.48,-429.38 2924.56,-439.57 2933.2,-433.43 2927.48,-429.38"/>
</a>
</g>
</g>
<!-- Node30 -->
<g id="Node000030" class="node">
<title>Node30</title>
<g id="a_Node000030"><a xlink:href="_m_o_data_8cpp.html" target="_top" xlink:title=" ">
<polygon fill="white" stroke="#666666" points="3142,-398.5 2997,-398.5 2997,-357.5 3142,-357.5 3142,-398.5"/>
<text text-anchor="start" x="3005" y="-386.5" font-family="Helvetica,sans-Serif" font-size="10.00">/home/runner/work/amr</text>
<text text-anchor="start" x="3005" y="-375.5" font-family="Helvetica,sans-Serif" font-size="10.00">&#45;wind/amr&#45;wind/amr&#45;wind</text>
<text text-anchor="middle" x="3069.5" y="-364.5" font-family="Helvetica,sans-Serif" font-size="10.00">/wind_energy/MOData.cpp</text>
</a>
</g>
</g>
<!-- Node1&#45;&gt;Node30 -->
<g id="edge34_Node000001_Node000030" class="edge">
<title>Node1&#45;&gt;Node30</title>
<g id="a_edge34_Node000001_Node000030"><a xlink:title=" ">
<path fill="none" stroke="#63b8ff" d="M2958.36,-435.27C2981.5,-423.55 3008.92,-409.67 3030.73,-398.63"/>
<polygon fill="#63b8ff" stroke="#63b8ff" points="2956.74,-432.17 2949.4,-439.81 2959.9,-438.41 2956.74,-432.17"/>
</a>
</g>
</g>
<!-- Node31 -->
<g id="Node000031" class="node">
<title>Node31</title>
<g id="a_Node000031"><a xlink:href="_shear_stress_8_h.html" target="_top" xlink:title=" ">
<polygon fill="white" stroke="#666666" points="3459,-398.5 3306,-398.5 3306,-357.5 3459,-357.5 3459,-398.5"/>
<text text-anchor="start" x="3314" y="-386.5" font-family="Helvetica,sans-Serif" font-size="10.00">/home/runner/work/amr</text>
<text text-anchor="start" x="3314" y="-375.5" font-family="Helvetica,sans-Serif" font-size="10.00">&#45;wind/amr&#45;wind/amr&#45;wind</text>
<text text-anchor="middle" x="3382.5" y="-364.5" font-family="Helvetica,sans-Serif" font-size="10.00">/wind_energy/ShearStress.H</text>
</a>
</g>
</g>
<!-- Node1&#45;&gt;Node31 -->
<g id="edge35_Node000001_Node000031" class="edge">
<title>Node1&#45;&gt;Node31</title>
<g id="a_edge35_Node000001_Node000031"><a xlink:title=" ">
<path fill="none" stroke="#63b8ff" d="M2992.15,-445.58C3080.3,-430.54 3219.65,-406.77 3305.82,-392.08"/>
<polygon fill="#63b8ff" stroke="#63b8ff" points="2991.46,-442.14 2982.19,-447.27 2992.63,-449.04 2991.46,-442.14"/>
</a>
</g>
</g>
<!-- Node5 -->
<g id="Node000005" class="node">
<title>Node5</title>
<g id="a_Node000005"><a xlink:href="_boussinesq_bubble_8cpp.html" target="_top" xlink:title=" ">
<polygon fill="white" stroke="#666666" points="2825,-310.5 2656,-310.5 2656,-269.5 2825,-269.5 2825,-310.5"/>
<text text-anchor="start" x="2664" y="-298.5" font-family="Helvetica,sans-Serif" font-size="10.00">/home/runner/work/amr</text>
<text text-anchor="start" x="2664" y="-287.5" font-family="Helvetica,sans-Serif" font-size="10.00">&#45;wind/amr&#45;wind/amr&#45;wind</text>
<text text-anchor="middle" x="2740.5" y="-276.5" font-family="Helvetica,sans-Serif" font-size="10.00">/physics/BoussinesqBubble.cpp</text>
</a>
</g>
</g>
<!-- Node4&#45;&gt;Node5 -->
<g id="edge4_Node000004_Node000005" class="edge">
<title>Node4&#45;&gt;Node5</title>
<g id="a_edge4_Node000004_Node000005"><a xlink:title=" ">
<path fill="none" stroke="#63b8ff" d="M2819.07,-351.33C2802.14,-338.33 2781.9,-322.79 2766.2,-310.74"/>
<polygon fill="#63b8ff" stroke="#63b8ff" points="2817.02,-354.17 2827.09,-357.49 2821.29,-348.62 2817.02,-354.17"/>
</a>
</g>
</g>
<!-- Node6 -->
<g id="Node000006" class="node">
<title>Node6</title>
<g id="a_Node000006"><a xlink:href="_a_b_l_8_h.html" target="_top" xlink:title=" ">
<polygon fill="white" stroke="#666666" points="2337,-222.5 2194,-222.5 2194,-181.5 2337,-181.5 2337,-222.5"/>
<text text-anchor="start" x="2202" y="-210.5" font-family="Helvetica,sans-Serif" font-size="10.00">/home/runner/work/amr</text>
<text text-anchor="start" x="2202" y="-199.5" font-family="Helvetica,sans-Serif" font-size="10.00">&#45;wind/amr&#45;wind/amr&#45;wind</text>
<text text-anchor="middle" x="2265.5" y="-188.5" font-family="Helvetica,sans-Serif" font-size="10.00">/wind_energy/ABL.H</text>
</a>
</g>
</g>
<!-- Node4&#45;&gt;Node6 -->
<g id="edge5_Node000004_Node000006" class="edge">
<title>Node4&#45;&gt;Node6</title>
<g id="a_edge5_Node000004_Node000006"><a xlink:title=" ">
<path fill="none" stroke="#63b8ff" d="M2856.77,-347.42C2858.68,-321.59 2856.65,-285.05 2834.5,-264 2799.07,-230.34 2482.01,-212.39 2337.14,-205.88"/>
<polygon fill="#63b8ff" stroke="#63b8ff" points="2853.29,-347.12 2855.8,-357.41 2860.25,-347.8 2853.29,-347.12"/>
</a>
</g>
</g>
<!-- Node4&#45;&gt;Node26 -->
<g id="edge32_Node000004_Node000026" class="edge">
<title>Node4&#45;&gt;Node26</title>
<g id="a_edge32_Node000004_Node000026"><a xlink:title=" ">
<path fill="none" stroke="#63b8ff" d="M2858.01,-347.5C2868.21,-302.03 2894.71,-215.91 2954.5,-176 3042.18,-117.48 3323.42,-156.72 3427.5,-140 3436.69,-138.52 3446.26,-136.63 3455.7,-134.55"/>
<polygon fill="#63b8ff" stroke="#63b8ff" points="2854.57,-346.84 2855.91,-357.35 2861.42,-348.29 2854.57,-346.84"/>
</a>
</g>
</g>
<!-- Node27 -->
<g id="Node000027" class="node">
<title>Node27</title>
<g id="a_Node000027"><a xlink:href="_a_b_l_stats_8_h.html" target="_top" xlink:title=" ">
<polygon fill="white" stroke="#666666" points="2176,-222.5 2033,-222.5 2033,-181.5 2176,-181.5 2176,-222.5"/>
<text text-anchor="start" x="2041" y="-210.5" font-family="Helvetica,sans-Serif" font-size="10.00">/home/runner/work/amr</text>
<text text-anchor="start" x="2041" y="-199.5" font-family="Helvetica,sans-Serif" font-size="10.00">&#45;wind/amr&#45;wind/amr&#45;wind</text>
<text text-anchor="middle" x="2104.5" y="-188.5" font-family="Helvetica,sans-Serif" font-size="10.00">/wind_energy/ABLStats.H</text>
</a>
</g>
</g>
<!-- Node4&#45;&gt;Node27 -->
<g id="edge27_Node000004_Node000027" class="edge">
<title>Node4&#45;&gt;Node27</title>
<g id="a_edge27_Node000004_Node000027"><a xlink:title=" ">
<path fill="none" stroke="#63b8ff" d="M2773.33,-355.29C2767.32,-354.04 2761.33,-352.92 2755.5,-352 2627.73,-331.77 2285.52,-382.4 2174.5,-316 2139.45,-295.03 2119.4,-249.04 2110.37,-222.65"/>
<polygon fill="#63b8ff" stroke="#63b8ff" points="2772.91,-358.78 2783.42,-357.49 2774.4,-351.94 2772.91,-358.78"/>
</a>
</g>
</g>
<!-- Node29 -->
<g id="Node000029" class="node">
<title>Node29</title>
<g id="a_Node000029"><a xlink:href="_a_b_l_stats_base_8_h.html" target="_top" xlink:title=" ">
<polygon fill="white" stroke="#666666" points="2347,-310.5 2184,-310.5 2184,-269.5 2347,-269.5 2347,-310.5"/>
<text text-anchor="start" x="2192" y="-298.5" font-family="Helvetica,sans-Serif" font-size="10.00">/home/runner/work/amr</text>
<text text-anchor="start" x="2192" y="-287.5" font-family="Helvetica,sans-Serif" font-size="10.00">&#45;wind/amr&#45;wind/amr&#45;wind</text>
<text text-anchor="middle" x="2265.5" y="-276.5" font-family="Helvetica,sans-Serif" font-size="10.00">/wind_energy/ABLStatsBase.H</text>
</a>
</g>
</g>
<!-- Node4&#45;&gt;Node29 -->
<g id="edge29_Node000004_Node000029" class="edge">
<title>Node4&#45;&gt;Node29</title>
<g id="a_edge29_Node000004_Node000029"><a xlink:title=" ">
<path fill="none" stroke="#63b8ff" d="M2770.93,-355.18C2765.73,-354.03 2760.55,-352.96 2755.5,-352 2612.97,-324.88 2444.72,-306.95 2347.07,-297.92"/>
<polygon fill="#63b8ff" stroke="#63b8ff" points="2770.43,-358.65 2780.96,-357.46 2771.98,-351.83 2770.43,-358.65"/>
</a>
</g>
</g>
<!-- Node7 -->
<g id="Node000007" class="node">
<title>Node7</title>
<g id="a_Node000007"><a xlink:href="_c_f_d_sim_8cpp.html" target="_top" xlink:title=" ">
<polygon fill="white" stroke="#666666" points="3257,-134.5 3114,-134.5 3114,-93.5 3257,-93.5 3257,-134.5"/>
<text text-anchor="start" x="3122" y="-122.5" font-family="Helvetica,sans-Serif" font-size="10.00">/home/runner/work/amr</text>
<text text-anchor="start" x="3122" y="-111.5" font-family="Helvetica,sans-Serif" font-size="10.00">&#45;wind/amr&#45;wind/amr&#45;wind</text>
<text text-anchor="middle" x="3185.5" y="-100.5" font-family="Helvetica,sans-Serif" font-size="10.00">/CFDSim.cpp</text>
</a>
</g>
</g>
<!-- Node6&#45;&gt;Node7 -->
<g id="edge6_Node000006_Node000007" class="edge">
<title>Node6&#45;&gt;Node7</title>
<g id="a_edge6_Node000006_Node000007"><a xlink:title=" ">
<path fill="none" stroke="#63b8ff" d="M2347.31,-201.17C2498.3,-200.15 2830.38,-191.57 3104.5,-140 3112.17,-138.56 3120.13,-136.64 3127.94,-134.51"/>
<polygon fill="#63b8ff" stroke="#63b8ff" points="2347.17,-197.68 2337.19,-201.23 2347.21,-204.67 2347.17,-197.68"/>
</a>
</g>
</g>
<!-- Node8 -->
<g id="Node000008" class="node">
<title>Node8</title>
<g id="a_Node000008"><a xlink:href="icns__advection_8cpp.html" target="_top" xlink:title=" ">
<polygon fill="white" stroke="#666666" points="3418,-140 3275,-140 3275,-88 3418,-88 3418,-140"/>
<text text-anchor="start" x="3283" y="-128" font-family="Helvetica,sans-Serif" font-size="10.00">/home/runner/work/amr</text>
<text text-anchor="start" x="3283" y="-117" font-family="Helvetica,sans-Serif" font-size="10.00">&#45;wind/amr&#45;wind/amr&#45;wind</text>
<text text-anchor="start" x="3283" y="-106" font-family="Helvetica,sans-Serif" font-size="10.00">/equation_systems/icns</text>
<text text-anchor="middle" x="3346.5" y="-95" font-family="Helvetica,sans-Serif" font-size="10.00">/icns_advection.cpp</text>
</a>
</g>
</g>
<!-- Node6&#45;&gt;Node8 -->
<g id="edge7_Node000006_Node000008" class="edge">
<title>Node6&#45;&gt;Node8</title>
<g id="a_edge7_Node000006_Node000008"><a xlink:title=" ">
<path fill="none" stroke="#63b8ff" d="M2347.47,-198.56C2553.83,-192.01 3090.85,-172.3 3266.5,-140 3269.22,-139.5 3271.98,-138.94 3274.75,-138.32"/>
<polygon fill="#63b8ff" stroke="#63b8ff" points="2347.19,-195.07 2337.3,-198.88 2347.41,-202.06 2347.19,-195.07"/>
</a>
</g>
</g>
<!-- Node9 -->
<g id="Node000009" class="node">
<title>Node9</title>
<g id="a_Node000009"><a xlink:href="_a_b_l_forcing_8cpp.html" target="_top" xlink:title=" ">
<polygon fill="white" stroke="#666666" points="330,-140 167,-140 167,-88 330,-88 330,-140"/>
<text text-anchor="start" x="175" y="-128" font-family="Helvetica,sans-Serif" font-size="10.00">/home/runner/work/amr</text>
<text text-anchor="start" x="175" y="-117" font-family="Helvetica,sans-Serif" font-size="10.00">&#45;wind/amr&#45;wind/amr&#45;wind</text>
<text text-anchor="start" x="175" y="-106" font-family="Helvetica,sans-Serif" font-size="10.00">/equation_systems/icns</text>
<text text-anchor="middle" x="248.5" y="-95" font-family="Helvetica,sans-Serif" font-size="10.00">/source_terms/ABLForcing.cpp</text>
</a>
</g>
</g>
<!-- Node6&#45;&gt;Node9 -->
<g id="edge8_Node000006_Node000009" class="edge">
<title>Node6&#45;&gt;Node9</title>
<g id="a_edge8_Node000006_Node000009"><a xlink:title=" ">
<path fill="none" stroke="#63b8ff" d="M2199.61,-179.01C2194.53,-177.83 2189.46,-176.8 2184.5,-176 1779.62,-110.89 745.34,-198.77 339.5,-140 336.42,-139.55 333.29,-139.04 330.15,-138.46"/>
<polygon fill="#63b8ff" stroke="#63b8ff" points="2198.78,-182.41 2209.33,-181.46 2200.49,-175.62 2198.78,-182.41"/>
</a>
</g>
</g>
<!-- Node10 -->
<g id="Node000010" class="node">
<title>Node10</title>
<g id="a_Node000010"><a xlink:href="_a_b_l_mean_boussinesq_8cpp.html" target="_top" xlink:title=" ">
<polygon fill="white" stroke="#666666" points="558.5,-140 348.5,-140 348.5,-88 558.5,-88 558.5,-140"/>
<text text-anchor="start" x="356.5" y="-128" font-family="Helvetica,sans-Serif" font-size="10.00">/home/runner/work/amr</text>
<text text-anchor="start" x="356.5" y="-117" font-family="Helvetica,sans-Serif" font-size="10.00">&#45;wind/amr&#45;wind/amr&#45;wind</text>
<text text-anchor="start" x="356.5" y="-106" font-family="Helvetica,sans-Serif" font-size="10.00">/equation_systems/icns</text>
<text text-anchor="middle" x="453.5" y="-95" font-family="Helvetica,sans-Serif" font-size="10.00">/source_terms/ABLMeanBoussinesq.cpp</text>
</a>
</g>
</g>
<!-- Node6&#45;&gt;Node10 -->
<g id="edge9_Node000006_Node000010" class="edge">
<title>Node6&#45;&gt;Node10</title>
<g id="a_edge9_Node000006_Node000010"><a xlink:title=" ">
<path fill="none" stroke="#63b8ff" d="M2199.61,-179.03C2194.53,-177.84 2189.46,-176.8 2184.5,-176 1829.72,-118.45 924.38,-182.7 567.5,-140 564.58,-139.65 561.63,-139.26 558.66,-138.84"/>
<polygon fill="#63b8ff" stroke="#63b8ff" points="2198.78,-182.43 2209.33,-181.48 2200.49,-175.64 2198.78,-182.43"/>
</a>
</g>
</g>
<!-- Node11 -->
<g id="Node000011" class="node">
<title>Node11</title>
<g id="a_Node000011"><a xlink:href="_a_b_l_meso_forcing_mom_8cpp.html" target="_top" xlink:title=" ">
<polygon fill="white" stroke="#666666" points="790.5,-140 576.5,-140 576.5,-88 790.5,-88 790.5,-140"/>
<text text-anchor="start" x="584.5" y="-128" font-family="Helvetica,sans-Serif" font-size="10.00">/home/runner/work/amr</text>
<text text-anchor="start" x="584.5" y="-117" font-family="Helvetica,sans-Serif" font-size="10.00">&#45;wind/amr&#45;wind/amr&#45;wind</text>
<text text-anchor="start" x="584.5" y="-106" font-family="Helvetica,sans-Serif" font-size="10.00">/equation_systems/icns</text>
<text text-anchor="middle" x="683.5" y="-95" font-family="Helvetica,sans-Serif" font-size="10.00">/source_terms/ABLMesoForcingMom.cpp</text>
</a>
</g>
</g>
<!-- Node6&#45;&gt;Node11 -->
<g id="edge10_Node000006_Node000011" class="edge">
<title>Node6&#45;&gt;Node11</title>
<g id="a_edge10_Node000006_Node000011"><a xlink:title=" ">
<path fill="none" stroke="#63b8ff" d="M2198.95,-178.89C2194.09,-177.76 2189.24,-176.78 2184.5,-176 1880.46,-126.1 1104.39,-176.89 798.5,-140 795.86,-139.68 793.2,-139.33 790.51,-138.95"/>
<polygon fill="#63b8ff" stroke="#63b8ff" points="2198.33,-182.35 2208.88,-181.39 2200.04,-175.56 2198.33,-182.35"/>
</a>
</g>
</g>
<!-- Node12 -->
<g id="Node000012" class="node">
<title>Node12</title>
<g id="a_Node000012"><a xlink:href="_drag_forcing_8cpp.html" target="_top" xlink:title=" ">
<polygon fill="white" stroke="#666666" points="975,-140 808,-140 808,-88 975,-88 975,-140"/>
<text text-anchor="start" x="816" y="-128" font-family="Helvetica,sans-Serif" font-size="10.00">/home/runner/work/amr</text>
<text text-anchor="start" x="816" y="-117" font-family="Helvetica,sans-Serif" font-size="10.00">&#45;wind/amr&#45;wind/amr&#45;wind</text>
<text text-anchor="start" x="816" y="-106" font-family="Helvetica,sans-Serif" font-size="10.00">/equation_systems/icns</text>
<text text-anchor="middle" x="891.5" y="-95" font-family="Helvetica,sans-Serif" font-size="10.00">/source_terms/DragForcing.cpp</text>
</a>
</g>
</g>
<!-- Node6&#45;&gt;Node12 -->
<g id="edge11_Node000006_Node000012" class="edge">
<title>Node6&#45;&gt;Node12</title>
<g id="a_edge11_Node000006_Node000012"><a xlink:title=" ">
<path fill="none" stroke="#63b8ff" d="M2198.94,-178.92C2194.09,-177.78 2189.24,-176.79 2184.5,-176 1658.15,-88.53 1512.37,-217.78 984.5,-140 981.44,-139.55 978.34,-139.03 975.21,-138.46"/>
<polygon fill="#63b8ff" stroke="#63b8ff" points="2198.32,-182.37 2208.88,-181.42 2200.04,-175.58 2198.32,-182.37"/>
</a>
</g>
</g>
<!-- Node13 -->
<g id="Node000013" class="node">
<title>Node13</title>
<g id="a_Node000013"><a xlink:href="_forest_forcing_8cpp.html" target="_top" xlink:title=" ">
<polygon fill="white" stroke="#666666" points="1167.5,-140 993.5,-140 993.5,-88 1167.5,-88 1167.5,-140"/>
<text text-anchor="start" x="1001.5" y="-128" font-family="Helvetica,sans-Serif" font-size="10.00">/home/runner/work/amr</text>
<text text-anchor="start" x="1001.5" y="-117" font-family="Helvetica,sans-Serif" font-size="10.00">&#45;wind/amr&#45;wind/amr&#45;wind</text>
<text text-anchor="start" x="1001.5" y="-106" font-family="Helvetica,sans-Serif" font-size="10.00">/equation_systems/icns</text>
<text text-anchor="middle" x="1080.5" y="-95" font-family="Helvetica,sans-Serif" font-size="10.00">/source_terms/ForestForcing.cpp</text>
</a>
</g>
</g>
<!-- Node6&#45;&gt;Node13 -->
<g id="edge12_Node000006_Node000013" class="edge">
<title>Node6&#45;&gt;Node13</title>
<g id="a_edge12_Node000006_Node000013"><a xlink:title=" ">
<path fill="none" stroke="#63b8ff" d="M2198.94,-178.95C2194.09,-177.81 2189.24,-176.8 2184.5,-176 1742.49,-101.25 1620.07,-204.88 1176.5,-140 1173.6,-139.58 1170.67,-139.1 1167.71,-138.58"/>
<polygon fill="#63b8ff" stroke="#63b8ff" points="2198.32,-182.4 2208.87,-181.46 2200.04,-175.61 2198.32,-182.4"/>
</a>
</g>
</g>
<!-- Node14 -->
<g id="Node000014" class="node">
<title>Node14</title>
<g id="a_Node000014"><a xlink:href="_hurricane_forcing_8cpp.html" target="_top" xlink:title=" ">
<polygon fill="white" stroke="#666666" points="1377,-140 1186,-140 1186,-88 1377,-88 1377,-140"/>
<text text-anchor="start" x="1194" y="-128" font-family="Helvetica,sans-Serif" font-size="10.00">/home/runner/work/amr</text>
<text text-anchor="start" x="1194" y="-117" font-family="Helvetica,sans-Serif" font-size="10.00">&#45;wind/amr&#45;wind/amr&#45;wind</text>
<text text-anchor="start" x="1194" y="-106" font-family="Helvetica,sans-Serif" font-size="10.00">/equation_systems/icns</text>
<text text-anchor="middle" x="1281.5" y="-95" font-family="Helvetica,sans-Serif" font-size="10.00">/source_terms/HurricaneForcing.cpp</text>
</a>
</g>
</g>
<!-- Node6&#45;&gt;Node14 -->
<g id="edge13_Node000006_Node000014" class="edge">
<title>Node6&#45;&gt;Node14</title>
<g id="a_edge13_Node000006_Node000014"><a xlink:title=" ">
<path fill="none" stroke="#63b8ff" d="M2198.67,-178.93C2193.9,-177.81 2189.15,-176.81 2184.5,-176 1834.29,-115.09 1737.47,-189.77 1385.5,-140 1382.74,-139.61 1379.95,-139.18 1377.14,-138.72"/>
<polygon fill="#63b8ff" stroke="#63b8ff" points="2197.86,-182.34 2208.42,-181.41 2199.59,-175.56 2197.86,-182.34"/>
</a>
</g>
</g>
<!-- Node15 -->
<g id="Node000015" class="node">
<title>Node15</title>
<g id="a_Node000015"><a xlink:href="_a_b_l_meso_forcing_temp_8cpp.html" target="_top" xlink:title=" ">
<polygon fill="white" stroke="#666666" points="1610,-140 1395,-140 1395,-88 1610,-88 1610,-140"/>
<text text-anchor="start" x="1403" y="-128" font-family="Helvetica,sans-Serif" font-size="10.00">/home/runner/work/amr</text>
<text text-anchor="start" x="1403" y="-117" font-family="Helvetica,sans-Serif" font-size="10.00">&#45;wind/amr&#45;wind/amr&#45;wind</text>
<text text-anchor="start" x="1403" y="-106" font-family="Helvetica,sans-Serif" font-size="10.00">/equation_systems/temperature</text>
<text text-anchor="middle" x="1502.5" y="-95" font-family="Helvetica,sans-Serif" font-size="10.00">/source_terms/ABLMesoForcingTemp.cpp</text>
</a>
</g>
</g>
<!-- Node6&#45;&gt;Node15 -->
<g id="edge14_Node000006_Node000015" class="edge">
<title>Node6&#45;&gt;Node15</title>
<g id="a_edge14_Node000006_Node000015"><a xlink:title=" ">
<path fill="none" stroke="#63b8ff" d="M2198.01,-178.88C2193.47,-177.79 2188.94,-176.81 2184.5,-176 1937.01,-130.58 1868.76,-174.38 1619.5,-140 1616.41,-139.57 1613.29,-139.11 1610.14,-138.62"/>
<polygon fill="#63b8ff" stroke="#63b8ff" points="2197.39,-182.34 2207.95,-181.43 2199.13,-175.55 2197.39,-182.34"/>
</a>
</g>
</g>
<!-- Node16 -->
<g id="Node000016" class="node">
<title>Node16</title>
<g id="a_Node000016"><a xlink:href="_hurricane_temp_forcing_8cpp.html" target="_top" xlink:title=" ">
<polygon fill="white" stroke="#666666" points="1846.5,-140 1628.5,-140 1628.5,-88 1846.5,-88 1846.5,-140"/>
<text text-anchor="start" x="1636.5" y="-128" font-family="Helvetica,sans-Serif" font-size="10.00">/home/runner/work/amr</text>
<text text-anchor="start" x="1636.5" y="-117" font-family="Helvetica,sans-Serif" font-size="10.00">&#45;wind/amr&#45;wind/amr&#45;wind</text>
<text text-anchor="start" x="1636.5" y="-106" font-family="Helvetica,sans-Serif" font-size="10.00">/equation_systems/temperature</text>
<text text-anchor="middle" x="1737.5" y="-95" font-family="Helvetica,sans-Serif" font-size="10.00">/source_terms/HurricaneTempForcing.cpp</text>
</a>
</g>
</g>
<!-- Node6&#45;&gt;Node16 -->
<g id="edge15_Node000006_Node000016" class="edge">
<title>Node6&#45;&gt;Node16</title>
<g id="a_edge15_Node000006_Node000016"><a xlink:title=" ">
<path fill="none" stroke="#63b8ff" d="M2196.85,-178.83C2192.69,-177.8 2188.55,-176.84 2184.5,-176 2040.46,-146.17 2000.74,-163.27 1855.5,-140 1852.61,-139.54 1849.67,-139.05 1846.72,-138.54"/>
<polygon fill="#63b8ff" stroke="#63b8ff" points="2196,-182.23 2206.56,-181.39 2197.78,-175.46 2196,-182.23"/>
</a>
</g>
</g>
<!-- Node17 -->
<g id="Node000017" class="node">
<title>Node17</title>
<g id="a_Node000017"><a xlink:href="helics_8cpp.html" target="_top" xlink:title=" ">
<polygon fill="white" stroke="#666666" points="2008,-134.5 1865,-134.5 1865,-93.5 2008,-93.5 2008,-134.5"/>
<text text-anchor="start" x="1873" y="-122.5" font-family="Helvetica,sans-Serif" font-size="10.00">/home/runner/work/amr</text>
<text text-anchor="start" x="1873" y="-111.5" font-family="Helvetica,sans-Serif" font-size="10.00">&#45;wind/amr&#45;wind/amr&#45;wind</text>
<text text-anchor="middle" x="1936.5" y="-100.5" font-family="Helvetica,sans-Serif" font-size="10.00">/helics.cpp</text>
</a>
</g>
</g>
<!-- Node6&#45;&gt;Node17 -->
<g id="edge16_Node000006_Node000017" class="edge">
<title>Node6&#45;&gt;Node17</title>
<g id="a_edge16_Node000006_Node000017"><a xlink:title=" ">
<path fill="none" stroke="#63b8ff" d="M2194.26,-178.63C2190.97,-177.72 2187.7,-176.84 2184.5,-176 2110.61,-156.72 2090.35,-159.41 2016.5,-140 2010.17,-138.34 2003.59,-136.48 1997.05,-134.56"/>
<polygon fill="#63b8ff" stroke="#63b8ff" points="2193.61,-182.09 2204.19,-181.45 2195.53,-175.35 2193.61,-182.09"/>
</a>
</g>
</g>
<!-- Node18 -->
<g id="Node000018" class="node">
<title>Node18</title>
<g id="a_Node000018"><a xlink:href="incflo_8cpp.html" target="_top" xlink:title=" ">
<polygon fill="white" stroke="#666666" points="2169,-134.5 2026,-134.5 2026,-93.5 2169,-93.5 2169,-134.5"/>
<text text-anchor="start" x="2034" y="-122.5" font-family="Helvetica,sans-Serif" font-size="10.00">/home/runner/work/amr</text>
<text text-anchor="start" x="2034" y="-111.5" font-family="Helvetica,sans-Serif" font-size="10.00">&#45;wind/amr&#45;wind/amr&#45;wind</text>
<text text-anchor="middle" x="2097.5" y="-100.5" font-family="Helvetica,sans-Serif" font-size="10.00">/incflo.cpp</text>
</a>
</g>
</g>
<!-- Node6&#45;&gt;Node18 -->
<g id="edge17_Node000006_Node000018" class="edge">
<title>Node6&#45;&gt;Node18</title>
<g id="a_edge17_Node000006_Node000018"><a xlink:title=" ">
<path fill="none" stroke="#63b8ff" d="M2218.42,-176.9C2192.32,-163.54 2160.3,-147.15 2135.76,-134.59"/>
<polygon fill="#63b8ff" stroke="#63b8ff" points="2216.88,-180.04 2227.38,-181.49 2220.07,-173.81 2216.88,-180.04"/>
</a>
</g>
</g>
<!-- Node19 -->
<g id="Node000019" class="node">
<title>Node19</title>
<g id="a_Node000019"><a xlink:href="_ocean_waves_boundary_8cpp.html" target="_top" xlink:title=" ">
<polygon fill="white" stroke="#666666" points="2344,-140 2187,-140 2187,-88 2344,-88 2344,-140"/>
<text text-anchor="start" x="2195" y="-128" font-family="Helvetica,sans-Serif" font-size="10.00">/home/runner/work/amr</text>
<text text-anchor="start" x="2195" y="-117" font-family="Helvetica,sans-Serif" font-size="10.00">&#45;wind/amr&#45;wind/amr&#45;wind</text>
<text text-anchor="start" x="2195" y="-106" font-family="Helvetica,sans-Serif" font-size="10.00">/ocean_waves/boundary_ops</text>
<text text-anchor="middle" x="2265.5" y="-95" font-family="Helvetica,sans-Serif" font-size="10.00">/OceanWavesBoundary.cpp</text>
</a>
</g>
</g>
<!-- Node6&#45;&gt;Node19 -->
<g id="edge18_Node000006_Node000019" class="edge">
<title>Node6&#45;&gt;Node19</title>
<g id="a_edge18_Node000006_Node000019"><a xlink:title=" ">
<path fill="none" stroke="#63b8ff" d="M2265.5,-171.44C2265.5,-161.31 2265.5,-150.08 2265.5,-140.32"/>
<polygon fill="#63b8ff" stroke="#63b8ff" points="2262,-171.49 2265.5,-181.49 2269,-171.49 2262,-171.49"/>
</a>
</g>
</g>
<!-- Node20 -->
<g id="Node000020" class="node">
<title>Node20</title>
<g id="a_Node000020"><a xlink:href="_overset_ops_8cpp.html" target="_top" xlink:title=" ">
<polygon fill="white" stroke="#666666" points="2444,-46.5 2301,-46.5 2301,-5.5 2444,-5.5 2444,-46.5"/>
<text text-anchor="start" x="2309" y="-34.5" font-family="Helvetica,sans-Serif" font-size="10.00">/home/runner/work/amr</text>
<text text-anchor="start" x="2309" y="-23.5" font-family="Helvetica,sans-Serif" font-size="10.00">&#45;wind/amr&#45;wind/amr&#45;wind</text>
<text text-anchor="middle" x="2372.5" y="-12.5" font-family="Helvetica,sans-Serif" font-size="10.00">/overset/OversetOps.cpp</text>
</a>
</g>
</g>
<!-- Node6&#45;&gt;Node20 -->
<g id="edge19_Node000006_Node000020" class="edge">
<title>Node6&#45;&gt;Node20</title>
<g id="a_edge19_Node000006_Node000020"><a xlink:title=" ">
<path fill="none" stroke="#63b8ff" d="M2315.94,-175.98C2330.16,-166.57 2344.26,-154.56 2353.5,-140 2371.73,-111.28 2374.08,-70.51 2373.64,-46.6"/>
<polygon fill="#63b8ff" stroke="#63b8ff" points="2313.74,-173.23 2307.12,-181.5 2317.45,-179.16 2313.74,-173.23"/>
</a>
</g>
</g>
<!-- Node21 -->
<g id="Node000021" class="node">
<title>Node21</title>
<g id="a_Node000021"><a xlink:href="nodal__projection__ops_8_h.html" target="_top" xlink:title=" ">
<polygon fill="white" stroke="#666666" points="2585,-134.5 2400,-134.5 2400,-93.5 2585,-93.5 2585,-134.5"/>
<text text-anchor="start" x="2408" y="-122.5" font-family="Helvetica,sans-Serif" font-size="10.00">/home/runner/work/amr</text>
<text text-anchor="start" x="2408" y="-111.5" font-family="Helvetica,sans-Serif" font-size="10.00">&#45;wind/amr&#45;wind/amr&#45;wind</text>
<text text-anchor="middle" x="2492.5" y="-100.5" font-family="Helvetica,sans-Serif" font-size="10.00">/projection/nodal_projection_ops.H</text>
</a>
</g>
</g>
<!-- Node6&#45;&gt;Node21 -->
<g id="edge20_Node000006_Node000021" class="edge">
<title>Node6&#45;&gt;Node21</title>
<g id="a_edge20_Node000006_Node000021"><a xlink:title=" ">
<path fill="none" stroke="#63b8ff" d="M2326.36,-177.94C2362.1,-164.4 2406.78,-147.48 2440.8,-134.59"/>
<polygon fill="#63b8ff" stroke="#63b8ff" points="2325.12,-174.67 2317.01,-181.49 2327.6,-181.22 2325.12,-174.67"/>
</a>
</g>
</g>
<!-- Node23 -->
<g id="Node000023" class="node">
<title>Node23</title>
<g id="a_Node000023"><a xlink:href="init_8cpp.html" target="_top" xlink:title=" ">
<polygon fill="white" stroke="#666666" points="2746,-134.5 2603,-134.5 2603,-93.5 2746,-93.5 2746,-134.5"/>
<text text-anchor="start" x="2611" y="-122.5" font-family="Helvetica,sans-Serif" font-size="10.00">/home/runner/work/amr</text>
<text text-anchor="start" x="2611" y="-111.5" font-family="Helvetica,sans-Serif" font-size="10.00">&#45;wind/amr&#45;wind/amr&#45;wind</text>
<text text-anchor="middle" x="2674.5" y="-100.5" font-family="Helvetica,sans-Serif" font-size="10.00">/setup/init.cpp</text>
</a>
</g>
</g>
<!-- Node6&#45;&gt;Node23 -->
<g id="edge23_Node000006_Node000023" class="edge">
<title>Node6&#45;&gt;Node23</title>
<g id="a_edge23_Node000006_Node000023"><a xlink:title=" ">
<path fill="none" stroke="#63b8ff" d="M2347.33,-188.62C2414.25,-177.83 2511.1,-160.68 2594.5,-140 2601,-138.39 2607.74,-136.55 2614.44,-134.62"/>
<polygon fill="#63b8ff" stroke="#63b8ff" points="2346.59,-185.19 2337.27,-190.23 2347.69,-192.11 2346.59,-185.19"/>
</a>
</g>
</g>
<!-- Node24 -->
<g id="Node000024" class="node">
<title>Node24</title>
<g id="a_Node000024"><a xlink:href="_a_b_l_8cpp.html" target="_top" xlink:title=" ">
<polygon fill="white" stroke="#666666" points="2907,-134.5 2764,-134.5 2764,-93.5 2907,-93.5 2907,-134.5"/>
<text text-anchor="start" x="2772" y="-122.5" font-family="Helvetica,sans-Serif" font-size="10.00">/home/runner/work/amr</text>
<text text-anchor="start" x="2772" y="-111.5" font-family="Helvetica,sans-Serif" font-size="10.00">&#45;wind/amr&#45;wind/amr&#45;wind</text>
<text text-anchor="middle" x="2835.5" y="-100.5" font-family="Helvetica,sans-Serif" font-size="10.00">/wind_energy/ABL.cpp</text>
</a>
</g>
</g>
<!-- Node6&#45;&gt;Node24 -->
<g id="edge24_Node000006_Node000024" class="edge">
<title>Node6&#45;&gt;Node24</title>
<g id="a_edge24_Node000006_Node000024"><a xlink:title=" ">
<path fill="none" stroke="#63b8ff" d="M2347.3,-195.32C2445.2,-187.49 2613.69,-170.73 2755.5,-140 2762.61,-138.46 2770,-136.57 2777.28,-134.52"/>
<polygon fill="#63b8ff" stroke="#63b8ff" points="2346.87,-191.84 2337.18,-196.12 2347.42,-198.82 2346.87,-191.84"/>
</a>
</g>
</g>
<!-- Node25 -->
<g id="Node000025" class="node">
<title>Node25</title>
<g id="a_Node000025"><a xlink:href="_a_b_l_anelastic_8cpp.html" target="_top" xlink:title=" ">
<polygon fill="white" stroke="#666666" points="3095.5,-134.5 2925.5,-134.5 2925.5,-93.5 3095.5,-93.5 3095.5,-134.5"/>
<text text-anchor="start" x="2933.5" y="-122.5" font-family="Helvetica,sans-Serif" font-size="10.00">/home/runner/work/amr</text>
<text text-anchor="start" x="2933.5" y="-111.5" font-family="Helvetica,sans-Serif" font-size="10.00">&#45;wind/amr&#45;wind/amr&#45;wind</text>
<text text-anchor="middle" x="3010.5" y="-100.5" font-family="Helvetica,sans-Serif" font-size="10.00">/wind_energy/ABLAnelastic.cpp</text>
</a>
</g>
</g>
<!-- Node6&#45;&gt;Node25 -->
<g id="edge25_Node000006_Node000025" class="edge">
<title>Node6&#45;&gt;Node25</title>
<g id="a_edge25_Node000006_Node000025"><a xlink:title=" ">
<path fill="none" stroke="#63b8ff" d="M2347.48,-197.7C2471.49,-191.72 2713.79,-176.19 2916.5,-140 2924.98,-138.49 2933.81,-136.58 2942.52,-134.51"/>
<polygon fill="#63b8ff" stroke="#63b8ff" points="2347.13,-194.21 2337.31,-198.18 2347.46,-201.2 2347.13,-194.21"/>
</a>
</g>
</g>
<!-- Node6&#45;&gt;Node26 -->
<g id="edge26_Node000006_Node000026" class="edge">
<title>Node6&#45;&gt;Node26</title>
<g id="a_edge26_Node000006_Node000026"><a xlink:title=" ">
<path fill="none" stroke="#63b8ff" d="M2347.45,-197.6C2594.51,-187.23 3321.62,-155.74 3427.5,-140 3437.06,-138.58 3447.03,-136.66 3456.83,-134.51"/>
<polygon fill="#63b8ff" stroke="#63b8ff" points="2346.95,-194.12 2337.1,-198.04 2347.24,-201.11 2346.95,-194.12"/>
</a>
</g>
</g>
<!-- Node21&#45;&gt;Node20 -->
<g id="edge21_Node000021_Node000020" class="edge">
<title>Node21&#45;&gt;Node20</title>
<g id="a_edge21_Node000021_Node000020"><a xlink:title=" ">
<path fill="none" stroke="#63b8ff" d="M2456.69,-87.33C2438.54,-74.33 2416.86,-58.79 2400.04,-46.74"/>
<polygon fill="#63b8ff" stroke="#63b8ff" points="2455.1,-90.5 2465.27,-93.49 2459.18,-84.82 2455.1,-90.5"/>
</a>
</g>
</g>
<!-- Node22 -->
<g id="Node000022" class="node">
<title>Node22</title>
<g id="a_Node000022"><a xlink:href="incflo__apply__nodal__projection_8cpp.html" target="_top" xlink:title=" ">
<polygon fill="white" stroke="#666666" points="2605,-52 2462,-52 2462,0 2605,0 2605,-52"/>
<text text-anchor="start" x="2470" y="-40" font-family="Helvetica,sans-Serif" font-size="10.00">/home/runner/work/amr</text>
<text text-anchor="start" x="2470" y="-29" font-family="Helvetica,sans-Serif" font-size="10.00">&#45;wind/amr&#45;wind/amr&#45;wind</text>
<text text-anchor="start" x="2470" y="-18" font-family="Helvetica,sans-Serif" font-size="10.00">/projection/incflo_apply</text>
<text text-anchor="middle" x="2533.5" y="-7" font-family="Helvetica,sans-Serif" font-size="10.00">_nodal_projection.cpp</text>
</a>
</g>
</g>
<!-- Node21&#45;&gt;Node22 -->
<g id="edge22_Node000021_Node000022" class="edge">
<title>Node21&#45;&gt;Node22</title>
<g id="a_edge22_Node000021_Node000022"><a xlink:title=" ">
<path fill="none" stroke="#63b8ff" d="M2506.14,-84.4C2511.08,-74.02 2516.63,-62.39 2521.43,-52.32"/>
<polygon fill="#63b8ff" stroke="#63b8ff" points="2502.95,-82.95 2501.8,-93.49 2509.27,-85.96 2502.95,-82.95"/>
</a>
</g>
</g>
<!-- Node28 -->
<g id="Node000028" class="node">
<title>Node28</title>
<g id="a_Node000028"><a xlink:href="_a_b_l_stats_8cpp.html" target="_top" xlink:title=" ">
<polygon fill="white" stroke="#666666" points="149,-134.5 0,-134.5 0,-93.5 149,-93.5 149,-134.5"/>
<text text-anchor="start" x="8" y="-122.5" font-family="Helvetica,sans-Serif" font-size="10.00">/home/runner/work/amr</text>
<text text-anchor="start" x="8" y="-111.5" font-family="Helvetica,sans-Serif" font-size="10.00">&#45;wind/amr&#45;wind/amr&#45;wind</text>
<text text-anchor="middle" x="74.5" y="-100.5" font-family="Helvetica,sans-Serif" font-size="10.00">/wind_energy/ABLStats.cpp</text>
</a>
</g>
</g>
<!-- Node27&#45;&gt;Node28 -->
<g id="edge28_Node000027_Node000028" class="edge">
<title>Node27&#45;&gt;Node28</title>
<g id="a_edge28_Node000027_Node000028"><a xlink:title=" ">
<path fill="none" stroke="#63b8ff" d="M2022.63,-201.28C1701.16,-201.92 525.03,-200.04 157.5,-140 149.33,-138.67 140.84,-136.75 132.55,-134.57"/>
<polygon fill="#63b8ff" stroke="#63b8ff" points="2022.8,-204.78 2032.8,-201.25 2022.79,-197.78 2022.8,-204.78"/>
</a>
</g>
</g>
<!-- Node29&#45;&gt;Node6 -->
<g id="edge30_Node000029_Node000006" class="edge">
<title>Node29&#45;&gt;Node6</title>
<g id="a_edge30_Node000029_Node000006"><a xlink:title=" ">
<path fill="none" stroke="#63b8ff" d="M2265.5,-259.36C2265.5,-247.26 2265.5,-233.58 2265.5,-222.74"/>
<polygon fill="#63b8ff" stroke="#63b8ff" points="2262,-259.49 2265.5,-269.49 2269,-259.49 2262,-259.49"/>
</a>
</g>
</g>
<!-- Node29&#45;&gt;Node27 -->
<g id="edge31_Node000029_Node000027" class="edge">
<title>Node29&#45;&gt;Node27</title>
<g id="a_edge31_Node000029_Node000027"><a xlink:title=" ">
<path fill="none" stroke="#63b8ff" d="M2220.05,-264.72C2195.11,-251.4 2164.58,-235.09 2141.17,-222.59"/>
<polygon fill="#63b8ff" stroke="#63b8ff" points="2218.5,-267.86 2228.97,-269.49 2221.8,-261.69 2218.5,-267.86"/>
</a>
</g>
</g>
<!-- Node31&#45;&gt;Node26 -->
<g id="edge38_Node000031_Node000026" class="edge">
<title>Node31&#45;&gt;Node26</title>
<g id="a_edge38_Node000031_Node000026"><a xlink:title=" ">
<path fill="none" stroke="#63b8ff" d="M3378.88,-347.31C3375.36,-305.18 3375.01,-227.46 3411.5,-176 3424.75,-157.31 3445.5,-143.92 3465.87,-134.53"/>
<polygon fill="#63b8ff" stroke="#63b8ff" points="3375.42,-347.84 3379.85,-357.46 3382.38,-347.17 3375.42,-347.84"/>
</a>
</g>
</g>
<!-- Node32 -->
<g id="Node000032" class="node">
<title>Node32</title>
<g id="a_Node000032"><a xlink:href="_shear_stress_simple_8_h.html" target="_top" xlink:title=" ">
<polygon fill="white" stroke="#666666" points="3574,-316 3411,-316 3411,-264 3574,-264 3574,-316"/>
<text text-anchor="start" x="3419" y="-304" font-family="Helvetica,sans-Serif" font-size="10.00">/home/runner/work/amr</text>
<text text-anchor="start" x="3419" y="-293" font-family="Helvetica,sans-Serif" font-size="10.00">&#45;wind/amr&#45;wind/amr&#45;wind</text>
<text text-anchor="start" x="3419" y="-282" font-family="Helvetica,sans-Serif" font-size="10.00">/boundary_conditions/wall</text>
<text text-anchor="middle" x="3492.5" y="-271" font-family="Helvetica,sans-Serif" font-size="10.00">_models/ShearStressSimple.H</text>
</a>
</g>
</g>
<!-- Node31&#45;&gt;Node32 -->
<g id="edge36_Node000031_Node000032" class="edge">
<title>Node31&#45;&gt;Node32</title>
<g id="a_edge36_Node000031_Node000032"><a xlink:title=" ">
<path fill="none" stroke="#63b8ff" d="M3415.48,-351.22C3429.6,-340.17 3446.05,-327.31 3460.12,-316.32"/>
<polygon fill="#63b8ff" stroke="#63b8ff" points="3413.18,-348.57 3407.46,-357.49 3417.49,-354.08 3413.18,-348.57"/>
</a>
</g>
</g>
<!-- Node33 -->
<g id="Node000033" class="node">
<title>Node33</title>
<g id="a_Node000033"><a xlink:href="_wall_function_8cpp.html" target="_top" xlink:title=" ">
<polygon fill="white" stroke="#666666" points="3564.5,-228 3420.5,-228 3420.5,-176 3564.5,-176 3564.5,-228"/>
<text text-anchor="start" x="3428.5" y="-216" font-family="Helvetica,sans-Serif" font-size="10.00">/home/runner/work/amr</text>
<text text-anchor="start" x="3428.5" y="-205" font-family="Helvetica,sans-Serif" font-size="10.00">&#45;wind/amr&#45;wind/amr&#45;wind</text>
<text text-anchor="start" x="3428.5" y="-194" font-family="Helvetica,sans-Serif" font-size="10.00">/boundary_conditions/wall</text>
<text text-anchor="middle" x="3492.5" y="-183" font-family="Helvetica,sans-Serif" font-size="10.00">_models/WallFunction.cpp</text>
</a>
</g>
</g>
<!-- Node32&#45;&gt;Node33 -->
<g id="edge37_Node000032_Node000033" class="edge">
<title>Node32&#45;&gt;Node33</title>
<g id="a_edge37_Node000032_Node000033"><a xlink:title=" ">
<path fill="none" stroke="#63b8ff" d="M3492.5,-253.56C3492.5,-245.04 3492.5,-236.1 3492.5,-228.16"/>
<polygon fill="#63b8ff" stroke="#63b8ff" points="3489,-253.66 3492.5,-263.66 3496,-253.66 3489,-253.66"/>
</a>
</g>
</g>
</g>
</svg>

<g id="navigator" transform="translate(0 0)" fill="#404254">
  <rect fill="#f2f5e9" fill-opacity="0.5" stroke="#606060" stroke-width=".5" x="0" y="0" width="60" height="60"/>
  <use id="zoomplus" xlink:href="#zoomPlus" x="17" y="9" onmousedown="handleZoom(evt,'in')"/>
  <use id="zoomminus" xlink:href="#zoomMin" x="42" y="9" onmousedown="handleZoom(evt,'out')"/>
  <use id="reset" xlink:href="#resetDef" x="30" y="36" onmousedown="handleReset()"/>
   <use id="arrowup" xlink:href="#arrowUp" x="0" y="0" onmousedown="handlePan(0,-1)"/>
  <use id="arrowright" xlink:href="#arrowRight" x="0" y="0" onmousedown="handlePan(1,0)"/>
  <use id="arrowdown" xlink:href="#arrowDown" x="0" y="0" onmousedown="handlePan(0,1)"/>
  <use id="arrowleft" xlink:href="#arrowLeft" x="0" y="0" onmousedown="handlePan(-1,0)"/>
</g>
<svg viewBox="0 0 15 15" width="100%" height="30px" preserveAspectRatio="xMaxYMin meet">
 <g id="arrow_out" transform="scale(0.3 0.3)">
  <a xlink:href="_m_o_data_8_h__dep__incl_org.svg" target="_base">
   <rect id="button" ry="5" rx="5" y="6" x="6" height="38" width="38"
        fill="#f2f5e9" fill-opacity="0.5" stroke="#606060" stroke-width="1.0"/>
   <path id="arrow"
     d="M 11.500037,31.436501 C 11.940474,20.09759 22.043105,11.32322 32.158766,21.979434 L 37.068811,17.246167 C 37.068811,17.246167 37.088388,32 37.088388,32 L 22.160133,31.978069 C 22.160133,31.978069 26.997745,27.140456 26.997745,27.140456 C 18.528582,18.264221 13.291696,25.230495 11.500037,31.436501 z"
     style="fill:#404040;"/>
  </a>
 </g>
</svg>

<style type='text/css'>
<![CDATA[
[data-mouse-over-selected='false'] { opacity: 0.7; }
[data-mouse-over-selected='true']  { opacity: 1.0; }
]]>
</style>
<script type="application/ecmascript"><![CDATA[
document.addEventListener('DOMContentLoaded', (event) => {
  highlightEdges();
  highlightAdjacentNodes();
});
]]></script>
</svg>
