<?xml version="1.0" encoding="UTF-8" standalone="no"?>
<!DOCTYPE svg PUBLIC "-//W3C//DTD SVG 1.1//EN"
 "http://www.w3.org/Graphics/SVG/1.1/DTD/svg11.dtd">
<!-- Generated by graphviz version 2.43.0 (0)
 -->
<!-- Title: /home/runner/work/amr&#45;wind/amr&#45;wind/amr&#45;wind/utilities/PostProcessing.H Pages: 1 -->
<svg width="2262pt" height="280pt"
 viewBox="0.00 0.00 2262.00 280.00" xmlns="http://www.w3.org/2000/svg" xmlns:xlink="http://www.w3.org/1999/xlink">
<g id="graph0" class="graph" transform="scale(1 1) rotate(0) translate(4 276)">
<title>/home/runner/work/amr&#45;wind/amr&#45;wind/amr&#45;wind/utilities/PostProcessing.H</title>
<!-- Node1 -->
<g id="Node000001" class="node">
<title>Node1</title>
<g id="a_Node000001"><a xlink:title=" ">
<polygon fill="#999999" stroke="#666666" points="1052,-272 909,-272 909,-231 1052,-231 1052,-272"/>
<text text-anchor="start" x="917" y="-260" font-family="Helvetica,sans-Serif" font-size="10.00">/home/runner/work/amr</text>
<text text-anchor="start" x="917" y="-249" font-family="Helvetica,sans-Serif" font-size="10.00">&#45;wind/amr&#45;wind/amr&#45;wind</text>
<text text-anchor="middle" x="980.5" y="-238" font-family="Helvetica,sans-Serif" font-size="10.00">/utilities/PostProcessing.H</text>
</a>
</g>
</g>
<!-- Node2 -->
<g id="Node000002" class="node">
<title>Node2</title>
<g id="a_Node000002"><a xlink:href="_c_f_d_sim_8cpp.html" target="_top" xlink:title=" ">
<polygon fill="white" stroke="#666666" points="143,-195 0,-195 0,-154 143,-154 143,-195"/>
<text text-anchor="start" x="8" y="-183" font-family="Helvetica,sans-Serif" font-size="10.00">/home/runner/work/amr</text>
<text text-anchor="start" x="8" y="-172" font-family="Helvetica,sans-Serif" font-size="10.00">&#45;wind/amr&#45;wind/amr&#45;wind</text>
<text text-anchor="middle" x="71.5" y="-161" font-family="Helvetica,sans-Serif" font-size="10.00">/CFDSim.cpp</text>
</a>
</g>
</g>
<!-- Node1&#45;&gt;Node2 -->
<g id="edge1_Node000001_Node000002" class="edge">
<title>Node1&#45;&gt;Node2</title>
<g id="a_edge1_Node000001_Node000002"><a xlink:title=" ">
<path fill="none" stroke="#63b8ff" d="M898.79,-249.68C749.52,-247.16 423.08,-236.87 151.5,-195 148.82,-194.59 146.09,-194.13 143.34,-193.63"/>
<polygon fill="#63b8ff" stroke="#63b8ff" points="898.74,-253.18 908.8,-249.84 898.86,-246.18 898.74,-253.18"/>
</a>
</g>
</g>
<!-- Node3 -->
<g id="Node000003" class="node">
<title>Node3</title>
<g id="a_Node000003"><a xlink:href="incflo_8cpp.html" target="_top" xlink:title=" ">
<polygon fill="white" stroke="#666666" points="304,-195 161,-195 161,-154 304,-154 304,-195"/>
<text text-anchor="start" x="169" y="-183" font-family="Helvetica,sans-Serif" font-size="10.00">/home/runner/work/amr</text>
<text text-anchor="start" x="169" y="-172" font-family="Helvetica,sans-Serif" font-size="10.00">&#45;wind/amr&#45;wind/amr&#45;wind</text>
<text text-anchor="middle" x="232.5" y="-161" font-family="Helvetica,sans-Serif" font-size="10.00">/incflo.cpp</text>
</a>
</g>
</g>
<!-- Node1&#45;&gt;Node3 -->
<g id="edge2_Node000001_Node000003" class="edge">
<title>Node1&#45;&gt;Node3</title>
<g id="a_edge2_Node000001_Node000003"><a xlink:title=" ">
<path fill="none" stroke="#63b8ff" d="M898.5,-247.81C772.01,-242.74 521.99,-229.02 312.5,-195 309.82,-194.56 307.1,-194.09 304.35,-193.57"/>
<polygon fill="#63b8ff" stroke="#63b8ff" points="898.74,-251.32 908.87,-248.22 899.02,-244.33 898.74,-251.32"/>
</a>
</g>
</g>
<!-- Node4 -->
<g id="Node000004" class="node">
<title>Node4</title>
<g id="a_Node000004"><a xlink:href="incflo__advance_8cpp.html" target="_top" xlink:title=" ">
<polygon fill="white" stroke="#666666" points="465,-195 322,-195 322,-154 465,-154 465,-195"/>
<text text-anchor="start" x="330" y="-183" font-family="Helvetica,sans-Serif" font-size="10.00">/home/runner/work/amr</text>
<text text-anchor="start" x="330" y="-172" font-family="Helvetica,sans-Serif" font-size="10.00">&#45;wind/amr&#45;wind/amr&#45;wind</text>
<text text-anchor="middle" x="393.5" y="-161" font-family="Helvetica,sans-Serif" font-size="10.00">/incflo_advance.cpp</text>
</a>
</g>
</g>
<!-- Node1&#45;&gt;Node4 -->
<g id="edge3_Node000001_Node000004" class="edge">
<title>Node1&#45;&gt;Node4</title>
<g id="a_edge3_Node000001_Node000004"><a xlink:title=" ">
<path fill="none" stroke="#63b8ff" d="M898.62,-244.83C798,-237.11 622.31,-221.17 473.5,-195 470.82,-194.53 468.11,-194.02 465.37,-193.48"/>
<polygon fill="#63b8ff" stroke="#63b8ff" points="898.48,-248.33 908.72,-245.6 899.01,-241.35 898.48,-248.33"/>
</a>
</g>
</g>
<!-- Node5 -->
<g id="Node000005" class="node">
<title>Node5</title>
<g id="a_Node000005"><a xlink:href="_post_processing_8cpp.html" target="_top" xlink:title=" ">
<polygon fill="white" stroke="#666666" points="420,-118 267,-118 267,-77 420,-77 420,-118"/>
<text text-anchor="start" x="275" y="-106" font-family="Helvetica,sans-Serif" font-size="10.00">/home/runner/work/amr</text>
<text text-anchor="start" x="275" y="-95" font-family="Helvetica,sans-Serif" font-size="10.00">&#45;wind/amr&#45;wind/amr&#45;wind</text>
<text text-anchor="middle" x="343.5" y="-84" font-family="Helvetica,sans-Serif" font-size="10.00">/utilities/PostProcessing.cpp</text>
</a>
</g>
</g>
<!-- Node1&#45;&gt;Node5 -->
<g id="edge4_Node000001_Node000005" class="edge">
<title>Node1&#45;&gt;Node5</title>
<g id="a_edge4_Node000001_Node000005"><a xlink:title=" ">
<path fill="none" stroke="#63b8ff" d="M898.5,-249.73C833.58,-245.94 742.51,-233.32 672.5,-195 650.71,-183.07 656.33,-165.87 634.5,-154 552.85,-109.59 519.6,-136.4 428.5,-118 425.83,-117.46 423.11,-116.9 420.37,-116.33"/>
<polygon fill="#63b8ff" stroke="#63b8ff" points="898.51,-253.24 908.68,-250.27 898.88,-246.25 898.51,-253.24"/>
</a>
</g>
</g>
<!-- Node6 -->
<g id="Node000006" class="node">
<title>Node6</title>
<g id="a_Node000006"><a xlink:href="ascent_8_h.html" target="_top" xlink:title=" ">
<polygon fill="white" stroke="#666666" points="626,-195 483,-195 483,-154 626,-154 626,-195"/>
<text text-anchor="start" x="491" y="-183" font-family="Helvetica,sans-Serif" font-size="10.00">/home/runner/work/amr</text>
<text text-anchor="start" x="491" y="-172" font-family="Helvetica,sans-Serif" font-size="10.00">&#45;wind/amr&#45;wind/amr&#45;wind</text>
<text text-anchor="middle" x="554.5" y="-161" font-family="Helvetica,sans-Serif" font-size="10.00">/utilities/ascent/ascent.H</text>
</a>
</g>
</g>
<!-- Node1&#45;&gt;Node6 -->
<g id="edge5_Node000001_Node000006" class="edge">
<title>Node1&#45;&gt;Node6</title>
<g id="a_edge5_Node000001_Node000006"><a xlink:title=" ">
<path fill="none" stroke="#63b8ff" d="M899.02,-238.63C829.99,-228.23 728.49,-212.14 640.5,-195 635.84,-194.09 631.05,-193.12 626.23,-192.11"/>
<polygon fill="#63b8ff" stroke="#63b8ff" points="898.56,-242.1 908.97,-240.12 899.6,-235.18 898.56,-242.1"/>
</a>
</g>
</g>
<!-- Node8 -->
<g id="Node000008" class="node">
<title>Node8</title>
<g id="a_Node000008"><a xlink:href="_time_averaging_8_h.html" target="_top" xlink:title=" ">
<polygon fill="white" stroke="#666666" points="877,-195 682,-195 682,-154 877,-154 877,-195"/>
<text text-anchor="start" x="690" y="-183" font-family="Helvetica,sans-Serif" font-size="10.00">/home/runner/work/amr</text>
<text text-anchor="start" x="690" y="-172" font-family="Helvetica,sans-Serif" font-size="10.00">&#45;wind/amr&#45;wind/amr&#45;wind</text>
<text text-anchor="middle" x="779.5" y="-161" font-family="Helvetica,sans-Serif" font-size="10.00">/utilities/averaging/TimeAveraging.H</text>
</a>
</g>
</g>
<!-- Node1&#45;&gt;Node8 -->
<g id="edge7_Node000001_Node000008" class="edge">
<title>Node1&#45;&gt;Node8</title>
<g id="a_edge7_Node000001_Node000008"><a xlink:title=" ">
<path fill="none" stroke="#63b8ff" d="M918.6,-227.4C890.83,-217.04 858.42,-204.95 831.87,-195.04"/>
<polygon fill="#63b8ff" stroke="#63b8ff" points="917.62,-230.77 928.21,-230.99 920.07,-224.22 917.62,-230.77"/>
</a>
</g>
</g>
<!-- Node14 -->
<g id="Node000014" class="node">
<title>Node14</title>
<g id="a_Node000014"><a xlink:href="_enstrophy_8_h.html" target="_top" xlink:title=" ">
<polygon fill="white" stroke="#666666" points="1063,-195 898,-195 898,-154 1063,-154 1063,-195"/>
<text text-anchor="start" x="906" y="-183" font-family="Helvetica,sans-Serif" font-size="10.00">/home/runner/work/amr</text>
<text text-anchor="start" x="906" y="-172" font-family="Helvetica,sans-Serif" font-size="10.00">&#45;wind/amr&#45;wind/amr&#45;wind</text>
<text text-anchor="middle" x="980.5" y="-161" font-family="Helvetica,sans-Serif" font-size="10.00">/utilities/sampling/Enstrophy.H</text>
</a>
</g>
</g>
<!-- Node1&#45;&gt;Node14 -->
<g id="edge15_Node000001_Node000014" class="edge">
<title>Node1&#45;&gt;Node14</title>
<g id="a_edge15_Node000001_Node000014"><a xlink:title=" ">
<path fill="none" stroke="#63b8ff" d="M980.5,-220.69C980.5,-212.08 980.5,-202.9 980.5,-195.07"/>
<polygon fill="#63b8ff" stroke="#63b8ff" points="977,-220.79 980.5,-230.79 984,-220.79 977,-220.79"/>
</a>
</g>
</g>
<!-- Node16 -->
<g id="Node000016" class="node">
<title>Node16</title>
<g id="a_Node000016"><a xlink:href="_field_norms_8_h.html" target="_top" xlink:title=" ">
<polygon fill="white" stroke="#666666" points="1259,-195 1086,-195 1086,-154 1259,-154 1259,-195"/>
<text text-anchor="start" x="1094" y="-183" font-family="Helvetica,sans-Serif" font-size="10.00">/home/runner/work/amr</text>
<text text-anchor="start" x="1094" y="-172" font-family="Helvetica,sans-Serif" font-size="10.00">&#45;wind/amr&#45;wind/amr&#45;wind</text>
<text text-anchor="middle" x="1172.5" y="-161" font-family="Helvetica,sans-Serif" font-size="10.00">/utilities/sampling/FieldNorms.H</text>
</a>
</g>
</g>
<!-- Node1&#45;&gt;Node16 -->
<g id="edge17_Node000001_Node000016" class="edge">
<title>Node1&#45;&gt;Node16</title>
<g id="a_edge17_Node000001_Node000016"><a xlink:title=" ">
<path fill="none" stroke="#63b8ff" d="M1039.97,-227.27C1066.43,-216.94 1097.23,-204.9 1122.47,-195.04"/>
<polygon fill="#63b8ff" stroke="#63b8ff" points="1038.49,-224.09 1030.44,-230.99 1041.03,-230.61 1038.49,-224.09"/>
</a>
</g>
</g>
<!-- Node18 -->
<g id="Node000018" class="node">
<title>Node18</title>
<g id="a_Node000018"><a xlink:href="_kinetic_energy_8_h.html" target="_top" xlink:title=" ">
<polygon fill="white" stroke="#666666" points="1469.5,-195 1285.5,-195 1285.5,-154 1469.5,-154 1469.5,-195"/>
<text text-anchor="start" x="1293.5" y="-183" font-family="Helvetica,sans-Serif" font-size="10.00">/home/runner/work/amr</text>
<text text-anchor="start" x="1293.5" y="-172" font-family="Helvetica,sans-Serif" font-size="10.00">&#45;wind/amr&#45;wind/amr&#45;wind</text>
<text text-anchor="middle" x="1377.5" y="-161" font-family="Helvetica,sans-Serif" font-size="10.00">/utilities/sampling/KineticEnergy.H</text>
</a>
</g>
</g>
<!-- Node1&#45;&gt;Node18 -->
<g id="edge19_Node000001_Node000018" class="edge">
<title>Node1&#45;&gt;Node18</title>
<g id="a_edge19_Node000001_Node000018"><a xlink:title=" ">
<path fill="none" stroke="#63b8ff" d="M1062.57,-235C1127.38,-222.75 1217.81,-205.67 1285.15,-192.95"/>
<polygon fill="#63b8ff" stroke="#63b8ff" points="1061.57,-231.62 1052.39,-236.92 1062.87,-238.5 1061.57,-231.62"/>
</a>
</g>
</g>
<!-- Node20 -->
<g id="Node000020" class="node">
<title>Node20</title>
<g id="a_Node000020"><a xlink:href="_sampling_8_h.html" target="_top" xlink:title=" ">
<polygon fill="white" stroke="#666666" points="1660.5,-195 1496.5,-195 1496.5,-154 1660.5,-154 1660.5,-195"/>
<text text-anchor="start" x="1504.5" y="-183" font-family="Helvetica,sans-Serif" font-size="10.00">/home/runner/work/amr</text>
<text text-anchor="start" x="1504.5" y="-172" font-family="Helvetica,sans-Serif" font-size="10.00">&#45;wind/amr&#45;wind/amr&#45;wind</text>
<text text-anchor="middle" x="1578.5" y="-161" font-family="Helvetica,sans-Serif" font-size="10.00">/utilities/sampling/Sampling.H</text>
</a>
</g>
</g>
<!-- Node1&#45;&gt;Node20 -->
<g id="edge21_Node000001_Node000020" class="edge">
<title>Node1&#45;&gt;Node20</title>
<g id="a_edge21_Node000001_Node000020"><a xlink:title=" ">
<path fill="none" stroke="#63b8ff" d="M1062.3,-243.45C1161.19,-234.45 1332.53,-217.33 1478.5,-195 1484.36,-194.1 1490.39,-193.11 1496.46,-192.06"/>
<polygon fill="#63b8ff" stroke="#63b8ff" points="1061.72,-239.99 1052.08,-244.37 1062.35,-246.96 1061.72,-239.99"/>
</a>
</g>
</g>
<!-- Node22 -->
<g id="Node000022" class="node">
<title>Node22</title>
<g id="a_Node000022"><a xlink:href="_wave_energy_8_h.html" target="_top" xlink:title=" ">
<polygon fill="white" stroke="#666666" points="1865,-195 1688,-195 1688,-154 1865,-154 1865,-195"/>
<text text-anchor="start" x="1696" y="-183" font-family="Helvetica,sans-Serif" font-size="10.00">/home/runner/work/amr</text>
<text text-anchor="start" x="1696" y="-172" font-family="Helvetica,sans-Serif" font-size="10.00">&#45;wind/amr&#45;wind/amr&#45;wind</text>
<text text-anchor="middle" x="1776.5" y="-161" font-family="Helvetica,sans-Serif" font-size="10.00">/utilities/sampling/WaveEnergy.H</text>
</a>
</g>
</g>
<!-- Node1&#45;&gt;Node22 -->
<g id="edge23_Node000001_Node000022" class="edge">
<title>Node1&#45;&gt;Node22</title>
<g id="a_edge23_Node000001_Node000022"><a xlink:title=" ">
<path fill="none" stroke="#63b8ff" d="M1062.38,-246.56C1191.74,-239.73 1451.12,-223.62 1669.5,-195 1675.49,-194.21 1681.66,-193.32 1687.86,-192.36"/>
<polygon fill="#63b8ff" stroke="#63b8ff" points="1061.97,-243.07 1052.16,-247.09 1062.33,-250.06 1061.97,-243.07"/>
</a>
</g>
</g>
<!-- Node24 -->
<g id="Node000024" class="node">
<title>Node24</title>
<g id="a_Node000024"><a xlink:href="_subvolume_8_h.html" target="_top" xlink:title=" ">
<polygon fill="white" stroke="#666666" points="2074.5,-195 1892.5,-195 1892.5,-154 2074.5,-154 2074.5,-195"/>
<text text-anchor="start" x="1900.5" y="-183" font-family="Helvetica,sans-Serif" font-size="10.00">/home/runner/work/amr</text>
<text text-anchor="start" x="1900.5" y="-172" font-family="Helvetica,sans-Serif" font-size="10.00">&#45;wind/amr&#45;wind/amr&#45;wind</text>
<text text-anchor="middle" x="1983.5" y="-161" font-family="Helvetica,sans-Serif" font-size="10.00">/utilities/subvolume/Subvolume.H</text>
</a>
</g>
</g>
<!-- Node1&#45;&gt;Node24 -->
<g id="edge25_Node000001_Node000024" class="edge">
<title>Node1&#45;&gt;Node24</title>
<g id="a_edge25_Node000001_Node000024"><a xlink:title=" ">
<path fill="none" stroke="#63b8ff" d="M1062.31,-248.52C1219.83,-244.01 1575.99,-230.5 1873.5,-195 1879.66,-194.26 1886,-193.41 1892.38,-192.47"/>
<polygon fill="#63b8ff" stroke="#63b8ff" points="1062.12,-245.02 1052.23,-248.8 1062.32,-252.02 1062.12,-245.02"/>
</a>
</g>
</g>
<!-- Node26 -->
<g id="Node000026" class="node">
<title>Node26</title>
<g id="a_Node000026"><a xlink:href="_a_b_l_stats_8_h.html" target="_top" xlink:title=" ">
<polygon fill="white" stroke="#666666" points="2248,-195 2105,-195 2105,-154 2248,-154 2248,-195"/>
<text text-anchor="start" x="2113" y="-183" font-family="Helvetica,sans-Serif" font-size="10.00">/home/runner/work/amr</text>
<text text-anchor="start" x="2113" y="-172" font-family="Helvetica,sans-Serif" font-size="10.00">&#45;wind/amr&#45;wind/amr&#45;wind</text>
<text text-anchor="middle" x="2176.5" y="-161" font-family="Helvetica,sans-Serif" font-size="10.00">/wind_energy/ABLStats.H</text>
</a>
</g>
</g>
<!-- Node1&#45;&gt;Node26 -->
<g id="edge27_Node000001_Node000026" class="edge">
<title>Node1&#45;&gt;Node26</title>
<g id="a_edge27_Node000001_Node000026"><a xlink:title=" ">
<path fill="none" stroke="#63b8ff" d="M1062.25,-250.75C1245.73,-250.34 1703.95,-244.03 2083.5,-195 2090.45,-194.1 2097.66,-192.96 2104.85,-191.69"/>
<polygon fill="#63b8ff" stroke="#63b8ff" points="1062.13,-247.25 1052.14,-250.76 1062.15,-254.25 1062.13,-247.25"/>
</a>
</g>
</g>
<!-- Node7 -->
<g id="Node000007" class="node">
<title>Node7</title>
<g id="a_Node000007"><a xlink:href="ascent_8cpp.html" target="_top" xlink:title=" ">
<polygon fill="white" stroke="#666666" points="249,-118 102,-118 102,-77 249,-77 249,-118"/>
<text text-anchor="start" x="110" y="-106" font-family="Helvetica,sans-Serif" font-size="10.00">/home/runner/work/amr</text>
<text text-anchor="start" x="110" y="-95" font-family="Helvetica,sans-Serif" font-size="10.00">&#45;wind/amr&#45;wind/amr&#45;wind</text>
<text text-anchor="middle" x="175.5" y="-84" font-family="Helvetica,sans-Serif" font-size="10.00">/utilities/ascent/ascent.cpp</text>
</a>
</g>
</g>
<!-- Node6&#45;&gt;Node7 -->
<g id="edge6_Node000006_Node000007" class="edge">
<title>Node6&#45;&gt;Node7</title>
<g id="a_edge6_Node000006_Node000007"><a xlink:title=" ">
<path fill="none" stroke="#63b8ff" d="M472.71,-153.92C376.43,-134.75 349.82,-136.65 257.5,-118 254.77,-117.45 252,-116.87 249.2,-116.28"/>
<polygon fill="#63b8ff" stroke="#63b8ff" points="472.08,-157.36 482.57,-155.9 473.46,-150.5 472.08,-157.36"/>
</a>
</g>
</g>
<!-- Node8&#45;&gt;Node5 -->
<g id="edge8_Node000008_Node000005" class="edge">
<title>Node8&#45;&gt;Node5</title>
<g id="a_edge8_Node000008_Node000005"><a xlink:title=" ">
<path fill="none" stroke="#63b8ff" d="M671.78,-154.54C670.68,-154.36 669.59,-154.18 668.5,-154 562.04,-136.67 534.48,-138.07 428.5,-118 425.82,-117.49 423.1,-116.96 420.36,-116.41"/>
<polygon fill="#63b8ff" stroke="#63b8ff" points="671.33,-158.01 681.77,-156.19 672.47,-151.1 671.33,-158.01"/>
</a>
</g>
</g>
<!-- Node9 -->
<g id="Node000009" class="node">
<title>Node9</title>
<g id="a_Node000009"><a xlink:href="_re_averaging_8_h.html" target="_top" xlink:title=" ">
<polygon fill="white" stroke="#666666" points="621,-118 438,-118 438,-77 621,-77 621,-118"/>
<text text-anchor="start" x="446" y="-106" font-family="Helvetica,sans-Serif" font-size="10.00">/home/runner/work/amr</text>
<text text-anchor="start" x="446" y="-95" font-family="Helvetica,sans-Serif" font-size="10.00">&#45;wind/amr&#45;wind/amr&#45;wind</text>
<text text-anchor="middle" x="529.5" y="-84" font-family="Helvetica,sans-Serif" font-size="10.00">/utilities/averaging/ReAveraging.H</text>
</a>
</g>
</g>
<!-- Node8&#45;&gt;Node9 -->
<g id="edge9_Node000008_Node000009" class="edge">
<title>Node8&#45;&gt;Node9</title>
<g id="a_edge9_Node000008_Node000009"><a xlink:title=" ">
<path fill="none" stroke="#63b8ff" d="M704.77,-151.08C669.73,-140.57 628.38,-128.16 594.64,-118.04"/>
<polygon fill="#63b8ff" stroke="#63b8ff" points="703.88,-154.47 714.47,-153.99 705.9,-147.76 703.88,-154.47"/>
</a>
</g>
</g>
<!-- Node11 -->
<g id="Node000011" class="node">
<title>Node11</title>
<g id="a_Node000011"><a xlink:href="_time_averaging_8cpp.html" target="_top" xlink:title=" ">
<polygon fill="white" stroke="#666666" points="703,-41 498,-41 498,0 703,0 703,-41"/>
<text text-anchor="start" x="506" y="-29" font-family="Helvetica,sans-Serif" font-size="10.00">/home/runner/work/amr</text>
<text text-anchor="start" x="506" y="-18" font-family="Helvetica,sans-Serif" font-size="10.00">&#45;wind/amr&#45;wind/amr&#45;wind</text>
<text text-anchor="middle" x="600.5" y="-7" font-family="Helvetica,sans-Serif" font-size="10.00">/utilities/averaging/TimeAveraging.cpp</text>
</a>
</g>
</g>
<!-- Node8&#45;&gt;Node11 -->
<g id="edge14_Node000008_Node000011" class="edge">
<title>Node8&#45;&gt;Node11</title>
<g id="a_edge14_Node000008_Node000011"><a xlink:title=" ">
<path fill="none" stroke="#63b8ff" d="M717.99,-149.43C700.89,-141.02 683.04,-130.51 668.5,-118 642.86,-95.95 622.02,-62.24 610.45,-41.05"/>
<polygon fill="#63b8ff" stroke="#63b8ff" points="716.85,-152.76 727.39,-153.88 719.85,-146.43 716.85,-152.76"/>
</a>
</g>
</g>
<!-- Node12 -->
<g id="Node000012" class="node">
<title>Node12</title>
<g id="a_Node000012"><a xlink:href="_reynolds_stress_8_h.html" target="_top" xlink:title=" ">
<polygon fill="white" stroke="#666666" points="875,-118 678,-118 678,-77 875,-77 875,-118"/>
<text text-anchor="start" x="686" y="-106" font-family="Helvetica,sans-Serif" font-size="10.00">/home/runner/work/amr</text>
<text text-anchor="start" x="686" y="-95" font-family="Helvetica,sans-Serif" font-size="10.00">&#45;wind/amr&#45;wind/amr&#45;wind</text>
<text text-anchor="middle" x="776.5" y="-84" font-family="Helvetica,sans-Serif" font-size="10.00">/utilities/averaging/ReynoldsStress.H</text>
</a>
</g>
</g>
<!-- Node8&#45;&gt;Node12 -->
<g id="edge12_Node000008_Node000012" class="edge">
<title>Node8&#45;&gt;Node12</title>
<g id="a_edge12_Node000008_Node000012"><a xlink:title=" ">
<path fill="none" stroke="#63b8ff" d="M778.31,-143.69C777.96,-135.08 777.6,-125.9 777.28,-118.07"/>
<polygon fill="#63b8ff" stroke="#63b8ff" points="774.81,-143.94 778.71,-153.79 781.81,-143.66 774.81,-143.94"/>
</a>
</g>
</g>
<!-- Node10 -->
<g id="Node000010" class="node">
<title>Node10</title>
<g id="a_Node000010"><a xlink:href="_re_averaging_8cpp.html" target="_top" xlink:title=" ">
<polygon fill="white" stroke="#666666" points="480,-41 287,-41 287,0 480,0 480,-41"/>
<text text-anchor="start" x="295" y="-29" font-family="Helvetica,sans-Serif" font-size="10.00">/home/runner/work/amr</text>
<text text-anchor="start" x="295" y="-18" font-family="Helvetica,sans-Serif" font-size="10.00">&#45;wind/amr&#45;wind/amr&#45;wind</text>
<text text-anchor="middle" x="383.5" y="-7" font-family="Helvetica,sans-Serif" font-size="10.00">/utilities/averaging/ReAveraging.cpp</text>
</a>
</g>
</g>
<!-- Node9&#45;&gt;Node10 -->
<g id="edge10_Node000009_Node000010" class="edge">
<title>Node9&#45;&gt;Node10</title>
<g id="a_edge10_Node000009_Node000010"><a xlink:title=" ">
<path fill="none" stroke="#63b8ff" d="M482.41,-72.31C462.73,-62.2 440.15,-50.6 421.54,-41.04"/>
<polygon fill="#63b8ff" stroke="#63b8ff" points="481.03,-75.53 491.52,-76.99 484.23,-69.31 481.03,-75.53"/>
</a>
</g>
</g>
<!-- Node9&#45;&gt;Node11 -->
<g id="edge11_Node000009_Node000011" class="edge">
<title>Node9&#45;&gt;Node11</title>
<g id="a_edge11_Node000009_Node000011"><a xlink:title=" ">
<path fill="none" stroke="#63b8ff" d="M555.05,-69.51C563.95,-60.11 573.75,-49.76 581.97,-41.07"/>
<polygon fill="#63b8ff" stroke="#63b8ff" points="552.49,-67.13 548.15,-76.79 557.57,-71.94 552.49,-67.13"/>
</a>
</g>
</g>
<!-- Node13 -->
<g id="Node000013" class="node">
<title>Node13</title>
<g id="a_Node000013"><a xlink:href="_reynolds_stress_8cpp.html" target="_top" xlink:title=" ">
<polygon fill="white" stroke="#666666" points="927.5,-41 721.5,-41 721.5,0 927.5,0 927.5,-41"/>
<text text-anchor="start" x="729.5" y="-29" font-family="Helvetica,sans-Serif" font-size="10.00">/home/runner/work/amr</text>
<text text-anchor="start" x="729.5" y="-18" font-family="Helvetica,sans-Serif" font-size="10.00">&#45;wind/amr&#45;wind/amr&#45;wind</text>
<text text-anchor="middle" x="824.5" y="-7" font-family="Helvetica,sans-Serif" font-size="10.00">/utilities/averaging/ReynoldsStress.cpp</text>
</a>
</g>
</g>
<!-- Node12&#45;&gt;Node13 -->
<g id="edge13_Node000012_Node000013" class="edge">
<title>Node12&#45;&gt;Node13</title>
<g id="a_edge13_Node000012_Node000013"><a xlink:title=" ">
<path fill="none" stroke="#63b8ff" d="M794.67,-68.11C800.44,-59.09 806.69,-49.33 811.97,-41.07"/>
<polygon fill="#63b8ff" stroke="#63b8ff" points="791.55,-66.49 789.11,-76.79 797.45,-70.26 791.55,-66.49"/>
</a>
</g>
</g>
<!-- Node15 -->
<g id="Node000015" class="node">
<title>Node15</title>
<g id="a_Node000015"><a xlink:href="_enstrophy_8cpp.html" target="_top" xlink:title=" ">
<polygon fill="white" stroke="#666666" points="1068,-118 893,-118 893,-77 1068,-77 1068,-118"/>
<text text-anchor="start" x="901" y="-106" font-family="Helvetica,sans-Serif" font-size="10.00">/home/runner/work/amr</text>
<text text-anchor="start" x="901" y="-95" font-family="Helvetica,sans-Serif" font-size="10.00">&#45;wind/amr&#45;wind/amr&#45;wind</text>
<text text-anchor="middle" x="980.5" y="-84" font-family="Helvetica,sans-Serif" font-size="10.00">/utilities/sampling/Enstrophy.cpp</text>
</a>
</g>
</g>
<!-- Node14&#45;&gt;Node15 -->
<g id="edge16_Node000014_Node000015" class="edge">
<title>Node14&#45;&gt;Node15</title>
<g id="a_edge16_Node000014_Node000015"><a xlink:title=" ">
<path fill="none" stroke="#63b8ff" d="M980.5,-143.69C980.5,-135.08 980.5,-125.9 980.5,-118.07"/>
<polygon fill="#63b8ff" stroke="#63b8ff" points="977,-143.79 980.5,-153.79 984,-143.79 977,-143.79"/>
</a>
</g>
</g>
<!-- Node17 -->
<g id="Node000017" class="node">
<title>Node17</title>
<g id="a_Node000017"><a xlink:href="_field_norms_8cpp.html" target="_top" xlink:title=" ">
<polygon fill="white" stroke="#666666" points="1269,-118 1086,-118 1086,-77 1269,-77 1269,-118"/>
<text text-anchor="start" x="1094" y="-106" font-family="Helvetica,sans-Serif" font-size="10.00">/home/runner/work/amr</text>
<text text-anchor="start" x="1094" y="-95" font-family="Helvetica,sans-Serif" font-size="10.00">&#45;wind/amr&#45;wind/amr&#45;wind</text>
<text text-anchor="middle" x="1177.5" y="-84" font-family="Helvetica,sans-Serif" font-size="10.00">/utilities/sampling/FieldNorms.cpp</text>
</a>
</g>
</g>
<!-- Node16&#45;&gt;Node17 -->
<g id="edge18_Node000016_Node000017" class="edge">
<title>Node16&#45;&gt;Node17</title>
<g id="a_edge18_Node000016_Node000017"><a xlink:title=" ">
<path fill="none" stroke="#63b8ff" d="M1174.49,-143.69C1175.06,-135.08 1175.67,-125.9 1176.2,-118.07"/>
<polygon fill="#63b8ff" stroke="#63b8ff" points="1170.99,-143.58 1173.81,-153.79 1177.97,-144.05 1170.99,-143.58"/>
</a>
</g>
</g>
<!-- Node19 -->
<g id="Node000019" class="node">
<title>Node19</title>
<g id="a_Node000019"><a xlink:href="_kinetic_energy_8cpp.html" target="_top" xlink:title=" ">
<polygon fill="white" stroke="#666666" points="1481.5,-118 1287.5,-118 1287.5,-77 1481.5,-77 1481.5,-118"/>
<text text-anchor="start" x="1295.5" y="-106" font-family="Helvetica,sans-Serif" font-size="10.00">/home/runner/work/amr</text>
<text text-anchor="start" x="1295.5" y="-95" font-family="Helvetica,sans-Serif" font-size="10.00">&#45;wind/amr&#45;wind/amr&#45;wind</text>
<text text-anchor="middle" x="1384.5" y="-84" font-family="Helvetica,sans-Serif" font-size="10.00">/utilities/sampling/KineticEnergy.cpp</text>
</a>
</g>
</g>
<!-- Node18&#45;&gt;Node19 -->
<g id="edge20_Node000018_Node000019" class="edge">
<title>Node18&#45;&gt;Node19</title>
<g id="a_edge20_Node000018_Node000019"><a xlink:title=" ">
<path fill="none" stroke="#63b8ff" d="M1380.28,-143.69C1381.09,-135.08 1381.94,-125.9 1382.67,-118.07"/>
<polygon fill="#63b8ff" stroke="#63b8ff" points="1376.78,-143.51 1379.34,-153.79 1383.75,-144.16 1376.78,-143.51"/>
</a>
</g>
</g>
<!-- Node21 -->
<g id="Node000021" class="node">
<title>Node21</title>
<g id="a_Node000021"><a xlink:href="_sampling_8cpp.html" target="_top" xlink:title=" ">
<polygon fill="white" stroke="#666666" points="1673,-118 1500,-118 1500,-77 1673,-77 1673,-118"/>
<text text-anchor="start" x="1508" y="-106" font-family="Helvetica,sans-Serif" font-size="10.00">/home/runner/work/amr</text>
<text text-anchor="start" x="1508" y="-95" font-family="Helvetica,sans-Serif" font-size="10.00">&#45;wind/amr&#45;wind/amr&#45;wind</text>
<text text-anchor="middle" x="1586.5" y="-84" font-family="Helvetica,sans-Serif" font-size="10.00">/utilities/sampling/Sampling.cpp</text>
</a>
</g>
</g>
<!-- Node20&#45;&gt;Node21 -->
<g id="edge22_Node000020_Node000021" class="edge">
<title>Node20&#45;&gt;Node21</title>
<g id="a_edge22_Node000020_Node000021"><a xlink:title=" ">
<path fill="none" stroke="#63b8ff" d="M1581.68,-143.69C1582.6,-135.08 1583.58,-125.9 1584.41,-118.07"/>
<polygon fill="#63b8ff" stroke="#63b8ff" points="1578.18,-143.48 1580.6,-153.79 1585.14,-144.22 1578.18,-143.48"/>
</a>
</g>
</g>
<!-- Node23 -->
<g id="Node000023" class="node">
<title>Node23</title>
<g id="a_Node000023"><a xlink:href="_wave_energy_8cpp.html" target="_top" xlink:title=" ">
<polygon fill="white" stroke="#666666" points="1878,-118 1691,-118 1691,-77 1878,-77 1878,-118"/>
<text text-anchor="start" x="1699" y="-106" font-family="Helvetica,sans-Serif" font-size="10.00">/home/runner/work/amr</text>
<text text-anchor="start" x="1699" y="-95" font-family="Helvetica,sans-Serif" font-size="10.00">&#45;wind/amr&#45;wind/amr&#45;wind</text>
<text text-anchor="middle" x="1784.5" y="-84" font-family="Helvetica,sans-Serif" font-size="10.00">/utilities/sampling/WaveEnergy.cpp</text>
</a>
</g>
</g>
<!-- Node22&#45;&gt;Node23 -->
<g id="edge24_Node000022_Node000023" class="edge">
<title>Node22&#45;&gt;Node23</title>
<g id="a_edge24_Node000022_Node000023"><a xlink:title=" ">
<path fill="none" stroke="#63b8ff" d="M1779.68,-143.69C1780.6,-135.08 1781.58,-125.9 1782.41,-118.07"/>
<polygon fill="#63b8ff" stroke="#63b8ff" points="1776.18,-143.48 1778.6,-153.79 1783.14,-144.22 1776.18,-143.48"/>
</a>
</g>
</g>
<!-- Node25 -->
<g id="Node000025" class="node">
<title>Node25</title>
<g id="a_Node000025"><a xlink:href="_subvolume_8cpp.html" target="_top" xlink:title=" ">
<polygon fill="white" stroke="#666666" points="2087,-118 1896,-118 1896,-77 2087,-77 2087,-118"/>
<text text-anchor="start" x="1904" y="-106" font-family="Helvetica,sans-Serif" font-size="10.00">/home/runner/work/amr</text>
<text text-anchor="start" x="1904" y="-95" font-family="Helvetica,sans-Serif" font-size="10.00">&#45;wind/amr&#45;wind/amr&#45;wind</text>
<text text-anchor="middle" x="1991.5" y="-84" font-family="Helvetica,sans-Serif" font-size="10.00">/utilities/subvolume/Subvolume.cpp</text>
</a>
</g>
</g>
<!-- Node24&#45;&gt;Node25 -->
<g id="edge26_Node000024_Node000025" class="edge">
<title>Node24&#45;&gt;Node25</title>
<g id="a_edge26_Node000024_Node000025"><a xlink:title=" ">
<path fill="none" stroke="#63b8ff" d="M1986.68,-143.69C1987.6,-135.08 1988.58,-125.9 1989.41,-118.07"/>
<polygon fill="#63b8ff" stroke="#63b8ff" points="1983.18,-143.48 1985.6,-153.79 1990.14,-144.22 1983.18,-143.48"/>
</a>
</g>
</g>
<!-- Node27 -->
<g id="Node000027" class="node">
<title>Node27</title>
<g id="a_Node000027"><a xlink:href="_a_b_l_stats_8cpp.html" target="_top" xlink:title=" ">
<polygon fill="white" stroke="#666666" points="2254,-118 2105,-118 2105,-77 2254,-77 2254,-118"/>
<text text-anchor="start" x="2113" y="-106" font-family="Helvetica,sans-Serif" font-size="10.00">/home/runner/work/amr</text>
<text text-anchor="start" x="2113" y="-95" font-family="Helvetica,sans-Serif" font-size="10.00">&#45;wind/amr&#45;wind/amr&#45;wind</text>
<text text-anchor="middle" x="2179.5" y="-84" font-family="Helvetica,sans-Serif" font-size="10.00">/wind_energy/ABLStats.cpp</text>
</a>
</g>
</g>
<!-- Node26&#45;&gt;Node27 -->
<g id="edge28_Node000026_Node000027" class="edge">
<title>Node26&#45;&gt;Node27</title>
<g id="a_edge28_Node000026_Node000027"><a xlink:title=" ">
<path fill="none" stroke="#63b8ff" d="M2177.69,-143.69C2178.04,-135.08 2178.4,-125.9 2178.72,-118.07"/>
<polygon fill="#63b8ff" stroke="#63b8ff" points="2174.19,-143.66 2177.29,-153.79 2181.19,-143.94 2174.19,-143.66"/>
</a>
</g>
</g>
</g>
</svg>
