<?xml version="1.0" encoding="UTF-8" standalone="no"?>
<!DOCTYPE svg PUBLIC "-//W3C//DTD SVG 1.1//EN"
 "http://www.w3.org/Graphics/SVG/1.1/DTD/svg11.dtd">
<!-- Generated by graphviz version 2.43.0 (0)
 -->
<!-- Title: /home/runner/work/amr&#45;wind/amr&#45;wind/amr&#45;wind/utilities/sampling/RadarSampler.H Pages: 1 -->
<svg width="1878pt" height="423pt"
 viewBox="0.00 0.00 1877.50 423.00" xmlns="http://www.w3.org/2000/svg" xmlns:xlink="http://www.w3.org/1999/xlink">
<g id="graph0" class="graph" transform="scale(1 1) rotate(0) translate(4 419)">
<title>/home/runner/work/amr&#45;wind/amr&#45;wind/amr&#45;wind/utilities/sampling/RadarSampler.H</title>
<!-- Node1 -->
<g id="Node000001" class="node">
<title>Node1</title>
<g id="a_Node000001"><a xlink:title=" ">
<polygon fill="#999999" stroke="#666666" points="1118,-415 932,-415 932,-374 1118,-374 1118,-415"/>
<text text-anchor="start" x="940" y="-403" font-family="Helvetica,sans-Serif" font-size="10.00">/home/runner/work/amr</text>
<text text-anchor="start" x="940" y="-392" font-family="Helvetica,sans-Serif" font-size="10.00">&#45;wind/amr&#45;wind/amr&#45;wind</text>
<text text-anchor="middle" x="1025" y="-381" font-family="Helvetica,sans-Serif" font-size="10.00">/utilities/sampling/RadarSampler.H</text>
</a>
</g>
</g>
<!-- Node2 -->
<g id="Node000002" class="node">
<title>Node2</title>
<g id="a_Node000002"><a xlink:href="_sampler_base_8_h.html" target="_top" xlink:title=" ">
<polygon fill="white" stroke="#666666" points="999.5,-272 856.5,-272 856.5,-242 999.5,-242 999.5,-272"/>
<text text-anchor="start" x="864.5" y="-260" font-family="Helvetica,sans-Serif" font-size="10.00">amr&#45;wind/utilities</text>
<text text-anchor="middle" x="928" y="-249" font-family="Helvetica,sans-Serif" font-size="10.00">/sampling/SamplerBase.H</text>
</a>
</g>
</g>
<!-- Node1&#45;&gt;Node2 -->
<g id="edge1_Node000001_Node000002" class="edge">
<title>Node1&#45;&gt;Node2</title>
<g id="a_edge1_Node000001_Node000002"><a xlink:title=" ">
<path fill="none" stroke="#63b8ff" d="M1024.81,-373.81C1023.72,-355.3 1019.67,-327.57 1006,-308 997.09,-295.25 983.79,-285 970.68,-277.18"/>
<polygon fill="#63b8ff" stroke="#63b8ff" points="972.13,-273.98 961.69,-272.15 968.71,-280.09 972.13,-273.98"/>
</a>
</g>
</g>
<!-- Node15 -->
<g id="Node000015" class="node">
<title>Node15</title>
<g id="a_Node000015"><a xlink:title=" ">
<polygon fill="#e0e0e0" stroke="#999999" points="1173,-19 1081,-19 1081,0 1173,0 1173,-19"/>
<text text-anchor="middle" x="1127" y="-7" font-family="Helvetica,sans-Serif" font-size="10.00">AMReX_REAL.H</text>
</a>
</g>
</g>
<!-- Node1&#45;&gt;Node15 -->
<g id="edge52_Node000001_Node000015" class="edge">
<title>Node1&#45;&gt;Node15</title>
<g id="a_edge52_Node000001_Node000015"><a xlink:title=" ">
<path fill="none" stroke="#63b8ff" d="M931.78,-390.88C679.1,-382.57 0,-351.51 0,-258 0,-258 0,-258 0,-129.5 0,-20.63 842.55,-11.06 1070.64,-10.47"/>
<polygon fill="#63b8ff" stroke="#63b8ff" points="1070.73,-13.97 1080.72,-10.44 1070.71,-6.97 1070.73,-13.97"/>
</a>
</g>
</g>
<!-- Node19 -->
<g id="Node000019" class="node">
<title>Node19</title>
<g id="a_Node000019"><a xlink:href="_sampling_utils_8_h.html" target="_top" xlink:title=" ">
<polygon fill="white" stroke="#666666" points="1261,-338 1115,-338 1115,-308 1261,-308 1261,-338"/>
<text text-anchor="start" x="1123" y="-326" font-family="Helvetica,sans-Serif" font-size="10.00">amr&#45;wind/utilities</text>
<text text-anchor="middle" x="1188" y="-315" font-family="Helvetica,sans-Serif" font-size="10.00">/sampling/SamplingUtils.H</text>
</a>
</g>
</g>
<!-- Node1&#45;&gt;Node19 -->
<g id="edge21_Node000001_Node000019" class="edge">
<title>Node1&#45;&gt;Node19</title>
<g id="a_edge21_Node000001_Node000019"><a xlink:title=" ">
<path fill="none" stroke="#63b8ff" d="M1070.84,-373.96C1094.32,-363.94 1122.72,-351.83 1145.68,-342.04"/>
<polygon fill="#63b8ff" stroke="#63b8ff" points="1147.33,-345.15 1155.16,-338 1144.58,-338.71 1147.33,-345.15"/>
</a>
</g>
</g>
<!-- Node21 -->
<g id="Node000021" class="node">
<title>Node21</title>
<g id="a_Node000021"><a xlink:href="vector__space_8_h.html" target="_top" xlink:title=" ">
<polygon fill="white" stroke="#666666" points="1492.5,-272 1357.5,-272 1357.5,-242 1492.5,-242 1492.5,-272"/>
<text text-anchor="start" x="1365.5" y="-260" font-family="Helvetica,sans-Serif" font-size="10.00">amr&#45;wind/core/vs/vector</text>
<text text-anchor="middle" x="1425" y="-249" font-family="Helvetica,sans-Serif" font-size="10.00">_space.H</text>
</a>
</g>
</g>
<!-- Node1&#45;&gt;Node21 -->
<g id="edge51_Node000001_Node000021" class="edge">
<title>Node1&#45;&gt;Node21</title>
<g id="a_edge51_Node000001_Node000021"><a xlink:title=" ">
<path fill="none" stroke="#63b8ff" d="M1118.21,-378.16C1164.64,-369.08 1221.14,-355.81 1270,-338 1314.61,-321.74 1362.71,-295.39 1393.3,-277.41"/>
<polygon fill="#63b8ff" stroke="#63b8ff" points="1395.4,-280.23 1402.21,-272.12 1391.82,-274.21 1395.4,-280.23"/>
</a>
</g>
</g>
<!-- Node34 -->
<g id="Node000034" class="node">
<title>Node34</title>
<g id="a_Node000034"><a xlink:href="_line_sampler_8_h.html" target="_top" xlink:title=" ">
<polygon fill="white" stroke="#666666" points="997,-338 859,-338 859,-308 997,-308 997,-338"/>
<text text-anchor="start" x="867" y="-326" font-family="Helvetica,sans-Serif" font-size="10.00">amr&#45;wind/utilities</text>
<text text-anchor="middle" x="928" y="-315" font-family="Helvetica,sans-Serif" font-size="10.00">/sampling/LineSampler.H</text>
</a>
</g>
</g>
<!-- Node1&#45;&gt;Node34 -->
<g id="edge49_Node000001_Node000034" class="edge">
<title>Node1&#45;&gt;Node34</title>
<g id="a_edge49_Node000001_Node000034"><a xlink:title=" ">
<path fill="none" stroke="#63b8ff" d="M997.72,-373.96C984.67,-364.6 969.06,-353.42 955.92,-344.01"/>
<polygon fill="#63b8ff" stroke="#63b8ff" points="957.86,-341.09 947.7,-338.11 953.79,-346.78 957.86,-341.09"/>
</a>
</g>
</g>
<!-- Node3 -->
<g id="Node000003" class="node">
<title>Node3</title>
<g id="a_Node000003"><a xlink:title=" ">
<polygon fill="#e0e0e0" stroke="#999999" points="1065,-200.5 955,-200.5 955,-181.5 1065,-181.5 1065,-200.5"/>
<text text-anchor="middle" x="1010" y="-188.5" font-family="Helvetica,sans-Serif" font-size="10.00">AMReX_RealVect.H</text>
</a>
</g>
</g>
<!-- Node2&#45;&gt;Node3 -->
<g id="edge2_Node000002_Node000003" class="edge">
<title>Node2&#45;&gt;Node3</title>
<g id="a_edge2_Node000002_Node000003"><a xlink:title=" ">
<path fill="none" stroke="#63b8ff" d="M946.2,-241.8C959.36,-231.53 977.11,-217.67 990.55,-207.18"/>
<polygon fill="#63b8ff" stroke="#63b8ff" points="992.94,-209.76 998.67,-200.84 988.63,-204.24 992.94,-209.76"/>
</a>
</g>
</g>
<!-- Node4 -->
<g id="Node000004" class="node">
<title>Node4</title>
<g id="a_Node000004"><a xlink:href="_factory_8_h.html" target="_top" xlink:title=" ">
<polygon fill="white" stroke="#666666" points="351,-200.5 217,-200.5 217,-181.5 351,-181.5 351,-200.5"/>
<text text-anchor="middle" x="284" y="-188.5" font-family="Helvetica,sans-Serif" font-size="10.00">amr&#45;wind/core/Factory.H</text>
</a>
</g>
</g>
<!-- Node2&#45;&gt;Node4 -->
<g id="edge3_Node000002_Node000004" class="edge">
<title>Node2&#45;&gt;Node4</title>
<g id="a_edge3_Node000002_Node000004"><a xlink:title=" ">
<path fill="none" stroke="#63b8ff" d="M856.31,-248.88C734.33,-236.75 487.44,-212.22 361.57,-199.71"/>
<polygon fill="#63b8ff" stroke="#63b8ff" points="361.55,-196.19 351.25,-198.68 360.85,-203.16 361.55,-196.19"/>
</a>
</g>
</g>
<!-- Node10 -->
<g id="Node000010" class="node">
<title>Node10</title>
<g id="a_Node000010"><a xlink:href="nc__interface_8_h.html" target="_top" xlink:title=" ">
<polygon fill="white" stroke="#666666" points="737.5,-206 612.5,-206 612.5,-176 737.5,-176 737.5,-206"/>
<text text-anchor="start" x="620.5" y="-194" font-family="Helvetica,sans-Serif" font-size="10.00">amr&#45;wind/utilities</text>
<text text-anchor="middle" x="675" y="-183" font-family="Helvetica,sans-Serif" font-size="10.00">/ncutils/nc_interface.H</text>
</a>
</g>
</g>
<!-- Node2&#45;&gt;Node10 -->
<g id="edge9_Node000002_Node000010" class="edge">
<title>Node2&#45;&gt;Node10</title>
<g id="a_edge9_Node000002_Node000010"><a xlink:title=" ">
<path fill="none" stroke="#63b8ff" d="M872.48,-241.95C833.51,-232.1 781.25,-218.88 740.28,-208.51"/>
<polygon fill="#63b8ff" stroke="#63b8ff" points="740.95,-205.07 730.39,-206.01 739.23,-211.86 740.95,-205.07"/>
</a>
</g>
</g>
<!-- Node2&#45;&gt;Node15 -->
<g id="edge20_Node000002_Node000015" class="edge">
<title>Node2&#45;&gt;Node15</title>
<g id="a_edge20_Node000002_Node000015"><a xlink:title=" ">
<path fill="none" stroke="#63b8ff" d="M999.74,-243.1C1025.4,-235.66 1053.12,-224.04 1074,-206 1126.56,-160.59 1129.56,-68.89 1128.2,-29.35"/>
<polygon fill="#63b8ff" stroke="#63b8ff" points="1131.69,-29.07 1127.71,-19.26 1124.69,-29.41 1131.69,-29.07"/>
</a>
</g>
</g>
<!-- Node16 -->
<g id="Node000016" class="node">
<title>Node16</title>
<g id="a_Node000016"><a xlink:href="constants_8_h.html" target="_top" xlink:title=" ">
<polygon fill="white" stroke="#666666" points="936.5,-206 833.5,-206 833.5,-176 936.5,-176 936.5,-206"/>
<text text-anchor="start" x="841.5" y="-194" font-family="Helvetica,sans-Serif" font-size="10.00">amr&#45;wind/utilities</text>
<text text-anchor="middle" x="885" y="-183" font-family="Helvetica,sans-Serif" font-size="10.00">/constants.H</text>
</a>
</g>
</g>
<!-- Node2&#45;&gt;Node16 -->
<g id="edge16_Node000002_Node000016" class="edge">
<title>Node2&#45;&gt;Node16</title>
<g id="a_edge16_Node000002_Node000016"><a xlink:title=" ">
<path fill="none" stroke="#63b8ff" d="M918.46,-241.8C913.11,-233.84 906.32,-223.74 900.26,-214.71"/>
<polygon fill="#63b8ff" stroke="#63b8ff" points="903,-212.51 894.52,-206.16 897.19,-216.42 903,-212.51"/>
</a>
</g>
</g>
<!-- Node5 -->
<g id="Node000005" class="node">
<title>Node5</title>
<g id="a_Node000005"><a xlink:title=" ">
<polygon fill="#e0e0e0" stroke="#999999" points="352,-140 294,-140 294,-121 352,-121 352,-140"/>
<text text-anchor="middle" x="323" y="-128" font-family="Helvetica,sans-Serif" font-size="10.00">memory</text>
</a>
</g>
</g>
<!-- Node4&#45;&gt;Node5 -->
<g id="edge4_Node000004_Node000005" class="edge">
<title>Node4&#45;&gt;Node5</title>
<g id="a_edge4_Node000004_Node000005"><a xlink:title=" ">
<path fill="none" stroke="#63b8ff" d="M289.75,-181.37C295.46,-172.81 304.35,-159.47 311.51,-148.74"/>
<polygon fill="#63b8ff" stroke="#63b8ff" points="314.59,-150.43 317.22,-140.17 308.76,-146.55 314.59,-150.43"/>
</a>
</g>
</g>
<!-- Node6 -->
<g id="Node000006" class="node">
<title>Node6</title>
<g id="a_Node000006"><a xlink:title=" ">
<polygon fill="#e0e0e0" stroke="#999999" points="463.5,-140 370.5,-140 370.5,-121 463.5,-121 463.5,-140"/>
<text text-anchor="middle" x="417" y="-128" font-family="Helvetica,sans-Serif" font-size="10.00">unordered_map</text>
</a>
</g>
</g>
<!-- Node4&#45;&gt;Node6 -->
<g id="edge5_Node000004_Node000006" class="edge">
<title>Node4&#45;&gt;Node6</title>
<g id="a_edge5_Node000004_Node000006"><a xlink:title=" ">
<path fill="none" stroke="#63b8ff" d="M303.34,-181.49C325.7,-171.66 362.71,-155.38 388.4,-144.08"/>
<polygon fill="#63b8ff" stroke="#63b8ff" points="389.89,-147.25 397.64,-140.02 387.07,-140.84 389.89,-147.25"/>
</a>
</g>
</g>
<!-- Node7 -->
<g id="Node000007" class="node">
<title>Node7</title>
<g id="a_Node000007"><a xlink:title=" ">
<polygon fill="#e0e0e0" stroke="#999999" points="88,-140 28,-140 28,-121 88,-121 88,-140"/>
<text text-anchor="middle" x="58" y="-128" font-family="Helvetica,sans-Serif" font-size="10.00">iostream</text>
</a>
</g>
</g>
<!-- Node4&#45;&gt;Node7 -->
<g id="edge6_Node000004_Node000007" class="edge">
<title>Node4&#45;&gt;Node7</title>
<g id="a_edge6_Node000004_Node000007"><a xlink:title=" ">
<path fill="none" stroke="#63b8ff" d="M251.14,-181.49C210.48,-170.97 141.3,-153.06 97.71,-141.78"/>
<polygon fill="#63b8ff" stroke="#63b8ff" points="98.57,-138.39 88.01,-139.27 96.82,-145.16 98.57,-138.39"/>
</a>
</g>
</g>
<!-- Node8 -->
<g id="Node000008" class="node">
<title>Node8</title>
<g id="a_Node000008"><a xlink:title=" ">
<polygon fill="#e0e0e0" stroke="#999999" points="196,-140 106,-140 106,-121 196,-121 196,-140"/>
<text text-anchor="middle" x="151" y="-128" font-family="Helvetica,sans-Serif" font-size="10.00">AMReX_Print.H</text>
</a>
</g>
</g>
<!-- Node4&#45;&gt;Node8 -->
<g id="edge7_Node000004_Node000008" class="edge">
<title>Node4&#45;&gt;Node8</title>
<g id="a_edge7_Node000004_Node000008"><a xlink:title=" ">
<path fill="none" stroke="#63b8ff" d="M264.66,-181.49C242.3,-171.66 205.29,-155.38 179.6,-144.08"/>
<polygon fill="#63b8ff" stroke="#63b8ff" points="180.93,-140.84 170.36,-140.02 178.11,-147.25 180.93,-140.84"/>
</a>
</g>
</g>
<!-- Node9 -->
<g id="Node000009" class="node">
<title>Node9</title>
<g id="a_Node000009"><a xlink:title=" ">
<polygon fill="#e0e0e0" stroke="#999999" points="276,-140 214,-140 214,-121 276,-121 276,-140"/>
<text text-anchor="middle" x="245" y="-128" font-family="Helvetica,sans-Serif" font-size="10.00">AMReX.H</text>
</a>
</g>
</g>
<!-- Node4&#45;&gt;Node9 -->
<g id="edge8_Node000004_Node000009" class="edge">
<title>Node4&#45;&gt;Node9</title>
<g id="a_edge8_Node000004_Node000009"><a xlink:title=" ">
<path fill="none" stroke="#63b8ff" d="M278.25,-181.37C272.54,-172.81 263.65,-159.47 256.49,-148.74"/>
<polygon fill="#63b8ff" stroke="#63b8ff" points="259.24,-146.55 250.78,-140.17 253.41,-150.43 259.24,-146.55"/>
</a>
</g>
</g>
<!-- Node10&#45;&gt;Node6 -->
<g id="edge11_Node000010_Node000006" class="edge">
<title>Node10&#45;&gt;Node6</title>
<g id="a_edge11_Node000010_Node000006"><a xlink:title=" ">
<path fill="none" stroke="#63b8ff" d="M613.2,-175.99C567.62,-165.65 506.5,-151.79 464.66,-142.31"/>
<polygon fill="#63b8ff" stroke="#63b8ff" points="465.25,-138.85 454.72,-140.05 463.7,-145.68 465.25,-138.85"/>
</a>
</g>
</g>
<!-- Node11 -->
<g id="Node000011" class="node">
<title>Node11</title>
<g id="a_Node000011"><a xlink:title=" ">
<polygon fill="#e0e0e0" stroke="#999999" points="837,-140 793,-140 793,-121 837,-121 837,-140"/>
<text text-anchor="middle" x="815" y="-128" font-family="Helvetica,sans-Serif" font-size="10.00">string</text>
</a>
</g>
</g>
<!-- Node10&#45;&gt;Node11 -->
<g id="edge10_Node000010_Node000011" class="edge">
<title>Node10&#45;&gt;Node11</title>
<g id="a_edge10_Node000010_Node000011"><a xlink:title=" ">
<path fill="none" stroke="#63b8ff" d="M708.53,-175.99C731.79,-166.27 762.49,-153.44 784.95,-144.06"/>
<polygon fill="#63b8ff" stroke="#63b8ff" points="786.45,-147.22 794.32,-140.14 783.75,-140.77 786.45,-147.22"/>
</a>
</g>
</g>
<!-- Node12 -->
<g id="Node000012" class="node">
<title>Node12</title>
<g id="a_Node000012"><a xlink:title=" ">
<polygon fill="#e0e0e0" stroke="#999999" points="698.5,-140 651.5,-140 651.5,-121 698.5,-121 698.5,-140"/>
<text text-anchor="middle" x="675" y="-128" font-family="Helvetica,sans-Serif" font-size="10.00">vector</text>
</a>
</g>
</g>
<!-- Node10&#45;&gt;Node12 -->
<g id="edge12_Node000010_Node000012" class="edge">
<title>Node10&#45;&gt;Node12</title>
<g id="a_edge12_Node000010_Node000012"><a xlink:title=" ">
<path fill="none" stroke="#63b8ff" d="M675,-175.84C675,-168.21 675,-158.7 675,-150.45"/>
<polygon fill="#63b8ff" stroke="#63b8ff" points="678.5,-150.27 675,-140.27 671.5,-150.27 678.5,-150.27"/>
</a>
</g>
</g>
<!-- Node13 -->
<g id="Node000013" class="node">
<title>Node13</title>
<g id="a_Node000013"><a xlink:title=" ">
<polygon fill="#e0e0e0" stroke="#999999" points="538,-140 482,-140 482,-121 538,-121 538,-140"/>
<text text-anchor="middle" x="510" y="-128" font-family="Helvetica,sans-Serif" font-size="10.00">netcdf.h</text>
</a>
</g>
</g>
<!-- Node10&#45;&gt;Node13 -->
<g id="edge13_Node000010_Node000013" class="edge">
<title>Node10&#45;&gt;Node13</title>
<g id="a_edge13_Node000010_Node000013"><a xlink:title=" ">
<path fill="none" stroke="#63b8ff" d="M635.48,-175.99C607.58,-166.1 570.59,-152.98 544,-143.56"/>
<polygon fill="#63b8ff" stroke="#63b8ff" points="544.96,-140.18 534.37,-140.14 542.62,-146.78 544.96,-140.18"/>
</a>
</g>
</g>
<!-- Node14 -->
<g id="Node000014" class="node">
<title>Node14</title>
<g id="a_Node000014"><a xlink:title=" ">
<polygon fill="#e0e0e0" stroke="#999999" points="633.5,-140 556.5,-140 556.5,-121 633.5,-121 633.5,-140"/>
<text text-anchor="middle" x="595" y="-128" font-family="Helvetica,sans-Serif" font-size="10.00">netcdf_par.h</text>
</a>
</g>
</g>
<!-- Node10&#45;&gt;Node14 -->
<g id="edge14_Node000010_Node000014" class="edge">
<title>Node10&#45;&gt;Node14</title>
<g id="a_edge14_Node000010_Node000014"><a xlink:title=" ">
<path fill="none" stroke="#63b8ff" d="M655.63,-175.84C643.43,-166.91 627.69,-155.41 615.31,-146.35"/>
<polygon fill="#63b8ff" stroke="#63b8ff" points="617.13,-143.34 606.99,-140.27 612.99,-148.99 617.13,-143.34"/>
</a>
</g>
</g>
<!-- Node10&#45;&gt;Node15 -->
<g id="edge15_Node000010_Node000015" class="edge">
<title>Node10&#45;&gt;Node15</title>
<g id="a_edge15_Node000010_Node000015"><a xlink:title=" ">
<path fill="none" stroke="#63b8ff" d="M685.28,-175.59C706.46,-147.12 758.05,-83.95 818,-55 861.41,-34.04 993.69,-20.72 1070.37,-14.55"/>
<polygon fill="#63b8ff" stroke="#63b8ff" points="1071.11,-18 1080.81,-13.72 1070.56,-11.02 1071.11,-18"/>
</a>
</g>
</g>
<!-- Node16&#45;&gt;Node15 -->
<g id="edge17_Node000016_Node000015" class="edge">
<title>Node16&#45;&gt;Node15</title>
<g id="a_edge17_Node000016_Node000015"><a xlink:title=" ">
<path fill="none" stroke="#63b8ff" d="M833.23,-176.01C799.97,-164.33 766.06,-145.63 784,-121 850.01,-30.38 991.68,-12.48 1070.74,-9.9"/>
<polygon fill="#63b8ff" stroke="#63b8ff" points="1071.09,-13.39 1081,-9.64 1070.91,-6.4 1071.09,-13.39"/>
</a>
</g>
</g>
<!-- Node17 -->
<g id="Node000017" class="node">
<title>Node17</title>
<g id="a_Node000017"><a xlink:title=" ">
<polygon fill="#e0e0e0" stroke="#999999" points="1099,-140 1007,-140 1007,-121 1099,-121 1099,-140"/>
<text text-anchor="middle" x="1053" y="-128" font-family="Helvetica,sans-Serif" font-size="10.00">AMReX_Math.H</text>
</a>
</g>
</g>
<!-- Node16&#45;&gt;Node17 -->
<g id="edge18_Node000016_Node000017" class="edge">
<title>Node16&#45;&gt;Node17</title>
<g id="a_edge18_Node000016_Node000017"><a xlink:title=" ">
<path fill="none" stroke="#63b8ff" d="M925.24,-175.99C953.77,-166.05 991.65,-152.86 1018.73,-143.43"/>
<polygon fill="#63b8ff" stroke="#63b8ff" points="1019.9,-146.73 1028.19,-140.14 1017.6,-140.12 1019.9,-146.73"/>
</a>
</g>
</g>
<!-- Node18 -->
<g id="Node000018" class="node">
<title>Node18</title>
<g id="a_Node000018"><a xlink:title=" ">
<polygon fill="#e0e0e0" stroke="#999999" points="989,-140 855,-140 855,-121 989,-121 989,-140"/>
<text text-anchor="middle" x="922" y="-128" font-family="Helvetica,sans-Serif" font-size="10.00">AMReX_GpuQualifiers.H</text>
</a>
</g>
</g>
<!-- Node16&#45;&gt;Node18 -->
<g id="edge19_Node000016_Node000018" class="edge">
<title>Node16&#45;&gt;Node18</title>
<g id="a_edge19_Node000016_Node000018"><a xlink:title=" ">
<path fill="none" stroke="#63b8ff" d="M893.96,-175.84C899.11,-167.69 905.62,-157.4 911.07,-148.78"/>
<polygon fill="#63b8ff" stroke="#63b8ff" points="914.07,-150.59 916.46,-140.27 908.15,-146.85 914.07,-150.59"/>
</a>
</g>
</g>
<!-- Node19&#45;&gt;Node11 -->
<g id="edge22_Node000019_Node000011" class="edge">
<title>Node19&#45;&gt;Node11</title>
<g id="a_edge22_Node000019_Node000011"><a xlink:title=" ">
<path fill="none" stroke="#63b8ff" d="M1178.98,-307.95C1157.33,-274.66 1102.13,-192.56 1074,-176 988.36,-125.57 948.79,-159.33 847.3,-139.97"/>
<polygon fill="#63b8ff" stroke="#63b8ff" points="847.78,-136.5 837.28,-137.93 846.38,-143.35 847.78,-136.5"/>
</a>
</g>
</g>
<!-- Node19&#45;&gt;Node15 -->
<g id="edge48_Node000019_Node000015" class="edge">
<title>Node19&#45;&gt;Node15</title>
<g id="a_edge48_Node000019_Node000015"><a xlink:title=" ">
<path fill="none" stroke="#63b8ff" d="M1186.19,-307.97C1180.9,-268.05 1164.34,-150.56 1141,-55 1138.89,-46.35 1136,-36.91 1133.4,-28.97"/>
<polygon fill="#63b8ff" stroke="#63b8ff" points="1136.65,-27.63 1130.13,-19.27 1130.01,-29.86 1136.65,-27.63"/>
</a>
</g>
</g>
<!-- Node20 -->
<g id="Node000020" class="node">
<title>Node20</title>
<g id="a_Node000020"><a xlink:title=" ">
<polygon fill="#e0e0e0" stroke="#999999" points="1333,-266.5 1235,-266.5 1235,-247.5 1333,-247.5 1333,-266.5"/>
<text text-anchor="middle" x="1284" y="-254.5" font-family="Helvetica,sans-Serif" font-size="10.00">AMReX_Vector.H</text>
</a>
</g>
</g>
<!-- Node19&#45;&gt;Node20 -->
<g id="edge23_Node000019_Node000020" class="edge">
<title>Node19&#45;&gt;Node20</title>
<g id="a_edge23_Node000019_Node000020"><a xlink:title=" ">
<path fill="none" stroke="#63b8ff" d="M1209.31,-307.8C1225.1,-297.27 1246.54,-282.97 1262.4,-272.4"/>
<polygon fill="#63b8ff" stroke="#63b8ff" points="1264.63,-275.12 1271.01,-266.66 1260.75,-269.29 1264.63,-275.12"/>
</a>
</g>
</g>
<!-- Node19&#45;&gt;Node21 -->
<g id="edge24_Node000019_Node000021" class="edge">
<title>Node19&#45;&gt;Node21</title>
<g id="a_edge24_Node000019_Node000021"><a xlink:title=" ">
<path fill="none" stroke="#63b8ff" d="M1240.01,-307.95C1276.28,-298.16 1324.85,-285.05 1363.11,-274.71"/>
<polygon fill="#63b8ff" stroke="#63b8ff" points="1364.37,-278 1373.11,-272.01 1362.54,-271.24 1364.37,-278"/>
</a>
</g>
</g>
<!-- Node33 -->
<g id="Node000033" class="node">
<title>Node33</title>
<g id="a_Node000033"><a xlink:href="tensor__ops_8_h.html" target="_top" xlink:title=" ">
<polygon fill="white" stroke="#666666" points="1296.5,-85 1193.5,-85 1193.5,-55 1296.5,-55 1296.5,-85"/>
<text text-anchor="start" x="1201.5" y="-73" font-family="Helvetica,sans-Serif" font-size="10.00">amr&#45;wind/utilities</text>
<text text-anchor="middle" x="1245" y="-62" font-family="Helvetica,sans-Serif" font-size="10.00">/tensor_ops.H</text>
</a>
</g>
</g>
<!-- Node19&#45;&gt;Node33 -->
<g id="edge45_Node000019_Node000033" class="edge">
<title>Node19&#45;&gt;Node33</title>
<g id="a_edge45_Node000019_Node000033"><a xlink:title=" ">
<path fill="none" stroke="#63b8ff" d="M1191.23,-307.79C1200.59,-266.54 1227.85,-146.5 1239.56,-94.96"/>
<polygon fill="#63b8ff" stroke="#63b8ff" points="1243.01,-95.58 1241.81,-85.06 1236.18,-94.03 1243.01,-95.58"/>
</a>
</g>
</g>
<!-- Node22 -->
<g id="Node000022" class="node">
<title>Node22</title>
<g id="a_Node000022"><a xlink:href="vector_8_h.html" target="_top" xlink:title=" ">
<polygon fill="white" stroke="#666666" points="1756.5,-140 1611.5,-140 1611.5,-121 1756.5,-121 1756.5,-140"/>
<text text-anchor="middle" x="1684" y="-128" font-family="Helvetica,sans-Serif" font-size="10.00">amr&#45;wind/core/vs/vector.H</text>
</a>
</g>
</g>
<!-- Node21&#45;&gt;Node22 -->
<g id="edge25_Node000021_Node000022" class="edge">
<title>Node21&#45;&gt;Node22</title>
<g id="a_edge25_Node000021_Node000022"><a xlink:title=" ">
<path fill="none" stroke="#63b8ff" d="M1454.21,-241.96C1504.81,-217.64 1608.06,-168.01 1657.05,-144.46"/>
<polygon fill="#63b8ff" stroke="#63b8ff" points="1658.59,-147.6 1666.09,-140.11 1655.56,-141.29 1658.59,-147.6"/>
</a>
</g>
</g>
<!-- Node29 -->
<g id="Node000029" class="node">
<title>Node29</title>
<g id="a_Node000029"><a xlink:href="tensor_8_h.html" target="_top" xlink:title=" ">
<polygon fill="white" stroke="#666666" points="1507.5,-200.5 1362.5,-200.5 1362.5,-181.5 1507.5,-181.5 1507.5,-200.5"/>
<text text-anchor="middle" x="1435" y="-188.5" font-family="Helvetica,sans-Serif" font-size="10.00">amr&#45;wind/core/vs/tensor.H</text>
</a>
</g>
</g>
<!-- Node21&#45;&gt;Node29 -->
<g id="edge33_Node000021_Node000029" class="edge">
<title>Node21&#45;&gt;Node29</title>
<g id="a_edge33_Node000021_Node000029"><a xlink:title=" ">
<path fill="none" stroke="#63b8ff" d="M1427.22,-241.8C1428.64,-232.7 1430.5,-220.79 1432.05,-210.9"/>
<polygon fill="#63b8ff" stroke="#63b8ff" points="1435.53,-211.26 1433.62,-200.84 1428.62,-210.18 1435.53,-211.26"/>
</a>
</g>
</g>
<!-- Node23 -->
<g id="Node000023" class="node">
<title>Node23</title>
<g id="a_Node000023"><a xlink:title=" ">
<polygon fill="#e0e0e0" stroke="#999999" points="1367.5,-19 1280.5,-19 1280.5,0 1367.5,0 1367.5,-19"/>
<text text-anchor="middle" x="1324" y="-7" font-family="Helvetica,sans-Serif" font-size="10.00">AMReX_Gpu.H</text>
</a>
</g>
</g>
<!-- Node22&#45;&gt;Node23 -->
<g id="edge26_Node000022_Node000023" class="edge">
<title>Node22&#45;&gt;Node23</title>
<g id="a_edge26_Node000022_Node000023"><a xlink:title=" ">
<path fill="none" stroke="#63b8ff" d="M1685.87,-120.67C1688.61,-105.02 1691.64,-72.42 1674,-55 1628.72,-10.3 1458.38,-26.67 1377.93,-18.85"/>
<polygon fill="#63b8ff" stroke="#63b8ff" points="1377.99,-15.33 1367.65,-17.64 1377.18,-22.28 1377.99,-15.33"/>
</a>
</g>
</g>
<!-- Node24 -->
<g id="Node000024" class="node">
<title>Node24</title>
<g id="a_Node000024"><a xlink:href="vstraits_8_h.html" target="_top" xlink:title=" ">
<polygon fill="white" stroke="#666666" points="1665,-79.5 1513,-79.5 1513,-60.5 1665,-60.5 1665,-79.5"/>
<text text-anchor="middle" x="1589" y="-67.5" font-family="Helvetica,sans-Serif" font-size="10.00">amr&#45;wind/core/vs/vstraits.H</text>
</a>
</g>
</g>
<!-- Node22&#45;&gt;Node24 -->
<g id="edge27_Node000022_Node000024" class="edge">
<title>Node22&#45;&gt;Node24</title>
<g id="a_edge27_Node000022_Node000024"><a xlink:title=" ">
<path fill="none" stroke="#63b8ff" d="M1669.98,-120.87C1654.69,-111.45 1629.97,-96.23 1611.86,-85.08"/>
<polygon fill="#63b8ff" stroke="#63b8ff" points="1613.43,-81.93 1603.08,-79.67 1609.75,-87.89 1613.43,-81.93"/>
</a>
</g>
</g>
<!-- Node26 -->
<g id="Node000026" class="node">
<title>Node26</title>
<g id="a_Node000026"><a xlink:href="vector_i_8_h.html" target="_top" xlink:title=" ">
<polygon fill="white" stroke="#666666" points="1869.5,-79.5 1720.5,-79.5 1720.5,-60.5 1869.5,-60.5 1869.5,-79.5"/>
<text text-anchor="middle" x="1795" y="-67.5" font-family="Helvetica,sans-Serif" font-size="10.00">amr&#45;wind/core/vs/vectorI.H</text>
</a>
</g>
</g>
<!-- Node22&#45;&gt;Node26 -->
<g id="edge29_Node000022_Node000026" class="edge">
<title>Node22&#45;&gt;Node26</title>
<g id="a_edge29_Node000022_Node000026"><a xlink:title=" ">
<path fill="none" stroke="#63b8ff" d="M1695.42,-120.87C1711.77,-111.15 1741.69,-95.24 1764.58,-84.01"/>
<polygon fill="#63b8ff" stroke="#63b8ff" points="1766.11,-87.17 1773.59,-79.67 1763.06,-80.86 1766.11,-87.17"/>
</a>
</g>
</g>
<!-- Node25 -->
<g id="Node000025" class="node">
<title>Node25</title>
<g id="a_Node000025"><a xlink:title=" ">
<polygon fill="#e0e0e0" stroke="#999999" points="1611,-19 1567,-19 1567,0 1611,0 1611,-19"/>
<text text-anchor="middle" x="1589" y="-7" font-family="Helvetica,sans-Serif" font-size="10.00">limits</text>
</a>
</g>
</g>
<!-- Node24&#45;&gt;Node25 -->
<g id="edge28_Node000024_Node000025" class="edge">
<title>Node24&#45;&gt;Node25</title>
<g id="a_edge28_Node000024_Node000025"><a xlink:title=" ">
<path fill="none" stroke="#63b8ff" d="M1589,-60.37C1589,-52.25 1589,-39.81 1589,-29.39"/>
<polygon fill="#63b8ff" stroke="#63b8ff" points="1592.5,-29.17 1589,-19.17 1585.5,-29.17 1592.5,-29.17"/>
</a>
</g>
</g>
<!-- Node26&#45;&gt;Node22 -->
<g id="edge32_Node000026_Node000022" class="edge">
<title>Node26&#45;&gt;Node22</title>
<g id="a_edge32_Node000026_Node000022"><a xlink:title=" ">
<path fill="none" stroke="#63b8ff" d="M1783.77,-79.52C1767.4,-89.27 1737.14,-105.35 1714.12,-116.63"/>
<polygon fill="#63b8ff" stroke="#63b8ff" points="1712.56,-113.5 1705.07,-120.99 1715.6,-119.81 1712.56,-113.5"/>
</a>
</g>
</g>
<!-- Node27 -->
<g id="Node000027" class="node">
<title>Node27</title>
<g id="a_Node000027"><a xlink:title=" ">
<polygon fill="#e0e0e0" stroke="#999999" points="1823.5,-19 1766.5,-19 1766.5,0 1823.5,0 1823.5,-19"/>
<text text-anchor="middle" x="1795" y="-7" font-family="Helvetica,sans-Serif" font-size="10.00">ostream</text>
</a>
</g>
</g>
<!-- Node26&#45;&gt;Node27 -->
<g id="edge30_Node000026_Node000027" class="edge">
<title>Node26&#45;&gt;Node27</title>
<g id="a_edge30_Node000026_Node000027"><a xlink:title=" ">
<path fill="none" stroke="#63b8ff" d="M1795,-60.37C1795,-52.25 1795,-39.81 1795,-29.39"/>
<polygon fill="#63b8ff" stroke="#63b8ff" points="1798.5,-29.17 1795,-19.17 1791.5,-29.17 1798.5,-29.17"/>
</a>
</g>
</g>
<!-- Node28 -->
<g id="Node000028" class="node">
<title>Node28</title>
<g id="a_Node000028"><a xlink:title=" ">
<polygon fill="#e0e0e0" stroke="#999999" points="1509.5,-19 1462.5,-19 1462.5,0 1509.5,0 1509.5,-19"/>
<text text-anchor="middle" x="1486" y="-7" font-family="Helvetica,sans-Serif" font-size="10.00">cmath</text>
</a>
</g>
</g>
<!-- Node26&#45;&gt;Node28 -->
<g id="edge31_Node000026_Node000028" class="edge">
<title>Node26&#45;&gt;Node28</title>
<g id="a_edge31_Node000026_Node000028"><a xlink:title=" ">
<path fill="none" stroke="#63b8ff" d="M1750.07,-60.49C1687.48,-48.64 1575.48,-27.44 1519.61,-16.86"/>
<polygon fill="#63b8ff" stroke="#63b8ff" points="1520.01,-13.38 1509.54,-14.96 1518.71,-20.26 1520.01,-13.38"/>
</a>
</g>
</g>
<!-- Node29&#45;&gt;Node22 -->
<g id="edge36_Node000029_Node000022" class="edge">
<title>Node29&#45;&gt;Node22</title>
<g id="a_edge36_Node000029_Node000022"><a xlink:title=" ">
<path fill="none" stroke="#63b8ff" d="M1471.21,-181.49C1515.28,-171.14 1589.77,-153.64 1637.9,-142.33"/>
<polygon fill="#63b8ff" stroke="#63b8ff" points="1638.82,-145.71 1647.75,-140.02 1637.21,-138.9 1638.82,-145.71"/>
</a>
</g>
</g>
<!-- Node29&#45;&gt;Node23 -->
<g id="edge34_Node000029_Node000023" class="edge">
<title>Node29&#45;&gt;Node23</title>
<g id="a_edge34_Node000029_Node000023"><a xlink:title=" ">
<path fill="none" stroke="#63b8ff" d="M1410.5,-181.47C1391.62,-173.62 1366.38,-160.12 1352,-140 1328,-106.44 1323.89,-56.33 1323.57,-29.34"/>
<polygon fill="#63b8ff" stroke="#63b8ff" points="1327.07,-29.32 1323.63,-19.3 1320.07,-29.29 1327.07,-29.32"/>
</a>
</g>
</g>
<!-- Node29&#45;&gt;Node24 -->
<g id="edge35_Node000029_Node000024" class="edge">
<title>Node29&#45;&gt;Node24</title>
<g id="a_edge35_Node000029_Node000024"><a xlink:title=" ">
<path fill="none" stroke="#63b8ff" d="M1452.18,-181.35C1469.73,-172.17 1497.37,-156.7 1519,-140 1539.77,-123.96 1560.85,-102.28 1574.37,-87.54"/>
<polygon fill="#63b8ff" stroke="#63b8ff" points="1577.3,-89.52 1581.4,-79.75 1572.1,-84.83 1577.3,-89.52"/>
</a>
</g>
</g>
<!-- Node30 -->
<g id="Node000030" class="node">
<title>Node30</title>
<g id="a_Node000030"><a xlink:href="tensor_i_8_h.html" target="_top" xlink:title=" ">
<polygon fill="white" stroke="#666666" points="1509.5,-140 1360.5,-140 1360.5,-121 1509.5,-121 1509.5,-140"/>
<text text-anchor="middle" x="1435" y="-128" font-family="Helvetica,sans-Serif" font-size="10.00">amr&#45;wind/core/vs/tensorI.H</text>
</a>
</g>
</g>
<!-- Node29&#45;&gt;Node30 -->
<g id="edge37_Node000029_Node000030" class="edge">
<title>Node29&#45;&gt;Node30</title>
<g id="a_edge37_Node000029_Node000030"><a xlink:title=" ">
<path fill="none" stroke="#63b8ff" d="M1430.04,-181.37C1428.29,-173.25 1427.82,-160.81 1428.64,-150.39"/>
<polygon fill="#63b8ff" stroke="#63b8ff" points="1432.15,-150.55 1430.04,-140.17 1425.22,-149.6 1432.15,-150.55"/>
</a>
</g>
</g>
<!-- Node30&#45;&gt;Node28 -->
<g id="edge38_Node000030_Node000028" class="edge">
<title>Node30&#45;&gt;Node28</title>
<g id="a_edge38_Node000030_Node000028"><a xlink:title=" ">
<path fill="none" stroke="#63b8ff" d="M1442.39,-120.86C1449.39,-112.28 1459.73,-98.49 1466,-85 1474.45,-66.83 1479.86,-44.44 1482.89,-28.97"/>
<polygon fill="#63b8ff" stroke="#63b8ff" points="1486.34,-29.56 1484.69,-19.1 1479.45,-28.31 1486.34,-29.56"/>
</a>
</g>
</g>
<!-- Node30&#45;&gt;Node29 -->
<g id="edge39_Node000030_Node000029" class="edge">
<title>Node30&#45;&gt;Node29</title>
<g id="a_edge39_Node000030_Node000029"><a xlink:title=" ">
<path fill="none" stroke="#63b8ff" d="M1439.96,-140.17C1441.71,-148.3 1442.18,-160.74 1441.35,-171.16"/>
<polygon fill="#63b8ff" stroke="#63b8ff" points="1437.85,-170.99 1439.96,-181.37 1444.78,-171.94 1437.85,-170.99"/>
</a>
</g>
</g>
<!-- Node31 -->
<g id="Node000031" class="node">
<title>Node31</title>
<g id="a_Node000031"><a xlink:href="trig__ops_8_h.html" target="_top" xlink:title=" ">
<polygon fill="white" stroke="#666666" points="1456.5,-85 1353.5,-85 1353.5,-55 1456.5,-55 1456.5,-85"/>
<text text-anchor="start" x="1361.5" y="-73" font-family="Helvetica,sans-Serif" font-size="10.00">amr&#45;wind/utilities</text>
<text text-anchor="middle" x="1405" y="-62" font-family="Helvetica,sans-Serif" font-size="10.00">/trig_ops.H</text>
</a>
</g>
</g>
<!-- Node30&#45;&gt;Node31 -->
<g id="edge40_Node000030_Node000031" class="edge">
<title>Node30&#45;&gt;Node31</title>
<g id="a_edge40_Node000030_Node000031"><a xlink:title=" ">
<path fill="none" stroke="#63b8ff" d="M1430.57,-120.87C1426.96,-113.81 1421.67,-103.5 1416.84,-94.08"/>
<polygon fill="#63b8ff" stroke="#63b8ff" points="1419.92,-92.42 1412.24,-85.11 1413.69,-95.61 1419.92,-92.42"/>
</a>
</g>
</g>
<!-- Node31&#45;&gt;Node15 -->
<g id="edge43_Node000031_Node000015" class="edge">
<title>Node31&#45;&gt;Node15</title>
<g id="a_edge43_Node000031_Node000015"><a xlink:title=" ">
<path fill="none" stroke="#63b8ff" d="M1353.36,-58.13C1303.12,-47.56 1227.27,-31.6 1177.44,-21.12"/>
<polygon fill="#63b8ff" stroke="#63b8ff" points="1178.04,-17.66 1167.53,-19.03 1176.6,-24.51 1178.04,-17.66"/>
</a>
</g>
</g>
<!-- Node31&#45;&gt;Node23 -->
<g id="edge44_Node000031_Node000023" class="edge">
<title>Node31&#45;&gt;Node23</title>
<g id="a_edge44_Node000031_Node000023"><a xlink:title=" ">
<path fill="none" stroke="#63b8ff" d="M1385.39,-54.84C1373.03,-45.91 1357.1,-34.41 1344.57,-25.35"/>
<polygon fill="#63b8ff" stroke="#63b8ff" points="1346.29,-22.28 1336.14,-19.27 1342.2,-27.96 1346.29,-22.28"/>
</a>
</g>
</g>
<!-- Node31&#45;&gt;Node28 -->
<g id="edge41_Node000031_Node000028" class="edge">
<title>Node31&#45;&gt;Node28</title>
<g id="a_edge41_Node000031_Node000028"><a xlink:title=" ">
<path fill="none" stroke="#63b8ff" d="M1424.61,-54.84C1436.97,-45.91 1452.9,-34.41 1465.43,-25.35"/>
<polygon fill="#63b8ff" stroke="#63b8ff" points="1467.8,-27.96 1473.86,-19.27 1463.71,-22.28 1467.8,-27.96"/>
</a>
</g>
</g>
<!-- Node32 -->
<g id="Node000032" class="node">
<title>Node32</title>
<g id="a_Node000032"><a xlink:title=" ">
<polygon fill="#e0e0e0" stroke="#999999" points="1444.5,-19 1385.5,-19 1385.5,0 1444.5,0 1444.5,-19"/>
<text text-anchor="middle" x="1415" y="-7" font-family="Helvetica,sans-Serif" font-size="10.00">numbers</text>
</a>
</g>
</g>
<!-- Node31&#45;&gt;Node32 -->
<g id="edge42_Node000031_Node000032" class="edge">
<title>Node31&#45;&gt;Node32</title>
<g id="a_edge42_Node000031_Node000032"><a xlink:title=" ">
<path fill="none" stroke="#63b8ff" d="M1407.42,-54.84C1408.74,-47.13 1410.39,-37.49 1411.81,-29.17"/>
<polygon fill="#63b8ff" stroke="#63b8ff" points="1415.27,-29.71 1413.5,-19.27 1408.37,-28.53 1415.27,-29.71"/>
</a>
</g>
</g>
<!-- Node33&#45;&gt;Node15 -->
<g id="edge47_Node000033_Node000015" class="edge">
<title>Node33&#45;&gt;Node15</title>
<g id="a_edge47_Node000033_Node000015"><a xlink:title=" ">
<path fill="none" stroke="#63b8ff" d="M1216.74,-54.99C1197.58,-45.49 1172.42,-33.02 1153.61,-23.69"/>
<polygon fill="#63b8ff" stroke="#63b8ff" points="1154.94,-20.45 1144.43,-19.14 1151.83,-26.72 1154.94,-20.45"/>
</a>
</g>
</g>
<!-- Node33&#45;&gt;Node23 -->
<g id="edge46_Node000033_Node000023" class="edge">
<title>Node33&#45;&gt;Node23</title>
<g id="a_edge46_Node000033_Node000023"><a xlink:title=" ">
<path fill="none" stroke="#63b8ff" d="M1264.12,-54.84C1276.18,-45.91 1291.71,-34.41 1303.94,-25.35"/>
<polygon fill="#63b8ff" stroke="#63b8ff" points="1306.21,-28.03 1312.16,-19.27 1302.04,-22.4 1306.21,-28.03"/>
</a>
</g>
</g>
<!-- Node34&#45;&gt;Node2 -->
<g id="edge50_Node000034_Node000002" class="edge">
<title>Node34&#45;&gt;Node2</title>
<g id="a_edge50_Node000034_Node000002"><a xlink:title=" ">
<path fill="none" stroke="#63b8ff" d="M928,-307.8C928,-300.34 928,-290.99 928,-282.41"/>
<polygon fill="#63b8ff" stroke="#63b8ff" points="931.5,-282.16 928,-272.16 924.5,-282.16 931.5,-282.16"/>
</a>
</g>
</g>
</g>
</svg>
