<?xml version="1.0" encoding="UTF-8" standalone="no"?>
<!DOCTYPE svg PUBLIC "-//W3C//DTD SVG 1.1//EN"
 "http://www.w3.org/Graphics/SVG/1.1/DTD/svg11.dtd">
<!-- Generated by graphviz version 2.43.0 (0)
 -->
<!-- Title: /home/runner/work/amr&#45;wind/amr&#45;wind/amr&#45;wind/physics/RayleighTaylor.H Pages: 1 -->
<svg width="1989pt" height="280pt"
 viewBox="0.00 0.00 1988.50 280.00" xmlns="http://www.w3.org/2000/svg" xmlns:xlink="http://www.w3.org/1999/xlink">
<g id="graph0" class="graph" transform="scale(1 1) rotate(0) translate(4 276)">
<title>/home/runner/work/amr&#45;wind/amr&#45;wind/amr&#45;wind/physics/RayleighTaylor.H</title>
<!-- Node1 -->
<g id="Node000001" class="node">
<title>Node1</title>
<g id="a_Node000001"><a xlink:title=" ">
<polygon fill="#999999" stroke="#666666" points="689.5,-272 546.5,-272 546.5,-231 689.5,-231 689.5,-272"/>
<text text-anchor="start" x="554.5" y="-260" font-family="Helvetica,sans-Serif" font-size="10.00">/home/runner/work/amr</text>
<text text-anchor="start" x="554.5" y="-249" font-family="Helvetica,sans-Serif" font-size="10.00">&#45;wind/amr&#45;wind/amr&#45;wind</text>
<text text-anchor="middle" x="618" y="-238" font-family="Helvetica,sans-Serif" font-size="10.00">/physics/RayleighTaylor.H</text>
</a>
</g>
</g>
<!-- Node2 -->
<g id="Node000002" class="node">
<title>Node2</title>
<g id="a_Node000002"><a xlink:title=" ">
<polygon fill="#e0e0e0" stroke="#999999" points="324,-74 266,-74 266,-55 324,-55 324,-74"/>
<text text-anchor="middle" x="295" y="-62" font-family="Helvetica,sans-Serif" font-size="10.00">memory</text>
</a>
</g>
</g>
<!-- Node1&#45;&gt;Node2 -->
<g id="edge1_Node000001_Node000002" class="edge">
<title>Node1&#45;&gt;Node2</title>
<g id="a_edge1_Node000001_Node000002"><a xlink:title=" ">
<path fill="none" stroke="#63b8ff" d="M546.27,-240.94C497.62,-232.77 432.65,-218.5 379,-195 331.24,-174.08 306.39,-175.09 282,-129 274.45,-114.73 279.44,-96.52 285.29,-83.26"/>
<polygon fill="#63b8ff" stroke="#63b8ff" points="288.46,-84.75 289.74,-74.23 282.18,-81.66 288.46,-84.75"/>
</a>
</g>
</g>
<!-- Node3 -->
<g id="Node000003" class="node">
<title>Node3</title>
<g id="a_Node000003"><a xlink:href="_physics_8_h.html" target="_top" xlink:title=" ">
<polygon fill="white" stroke="#666666" points="525.5,-189.5 388.5,-189.5 388.5,-170.5 525.5,-170.5 525.5,-189.5"/>
<text text-anchor="middle" x="457" y="-177.5" font-family="Helvetica,sans-Serif" font-size="10.00">amr&#45;wind/core/Physics.H</text>
</a>
</g>
</g>
<!-- Node1&#45;&gt;Node3 -->
<g id="edge2_Node000001_Node000003" class="edge">
<title>Node1&#45;&gt;Node3</title>
<g id="a_edge2_Node000001_Node000003"><a xlink:title=" ">
<path fill="none" stroke="#63b8ff" d="M572.72,-230.96C544.93,-218.96 510.16,-203.95 486.02,-193.53"/>
<polygon fill="#63b8ff" stroke="#63b8ff" points="487.27,-190.25 476.7,-189.5 484.49,-196.68 487.27,-190.25"/>
</a>
</g>
</g>
<!-- Node14 -->
<g id="Node000014" class="node">
<title>Node14</title>
<g id="a_Node000014"><a xlink:href="_rayleigh_taylor_field_init_8_h.html" target="_top" xlink:title=" ">
<polygon fill="white" stroke="#666666" points="907.5,-195 758.5,-195 758.5,-165 907.5,-165 907.5,-195"/>
<text text-anchor="start" x="766.5" y="-183" font-family="Helvetica,sans-Serif" font-size="10.00">amr&#45;wind/physics/Rayleigh</text>
<text text-anchor="middle" x="833" y="-172" font-family="Helvetica,sans-Serif" font-size="10.00">TaylorFieldInit.H</text>
</a>
</g>
</g>
<!-- Node1&#45;&gt;Node14 -->
<g id="edge16_Node000001_Node000014" class="edge">
<title>Node1&#45;&gt;Node14</title>
<g id="a_edge16_Node000001_Node000014"><a xlink:title=" ">
<path fill="none" stroke="#63b8ff" d="M678.46,-230.96C710.4,-220.63 749.24,-208.07 780,-198.13"/>
<polygon fill="#63b8ff" stroke="#63b8ff" points="781.24,-201.41 789.68,-195 779.09,-194.75 781.24,-201.41"/>
</a>
</g>
</g>
<!-- Node20 -->
<g id="Node000020" class="node">
<title>Node20</title>
<g id="a_Node000020"><a xlink:href="_field_8_h.html" target="_top" xlink:title=" ">
<polygon fill="white" stroke="#666666" points="1475,-189.5 1351,-189.5 1351,-170.5 1475,-170.5 1475,-189.5"/>
<text text-anchor="middle" x="1413" y="-177.5" font-family="Helvetica,sans-Serif" font-size="10.00">amr&#45;wind/core/Field.H</text>
</a>
</g>
</g>
<!-- Node1&#45;&gt;Node20 -->
<g id="edge24_Node000001_Node000020" class="edge">
<title>Node1&#45;&gt;Node20</title>
<g id="a_edge24_Node000001_Node000020"><a xlink:title=" ">
<path fill="none" stroke="#63b8ff" d="M689.6,-244.24C840.43,-231.06 1189.36,-200.55 1340.75,-187.32"/>
<polygon fill="#63b8ff" stroke="#63b8ff" points="1341.21,-190.79 1350.87,-186.43 1340.6,-183.82 1341.21,-190.79"/>
</a>
</g>
</g>
<!-- Node4 -->
<g id="Node000004" class="node">
<title>Node4</title>
<g id="a_Node000004"><a xlink:href="_factory_8_h.html" target="_top" xlink:title=" ">
<polygon fill="white" stroke="#666666" points="235,-129 101,-129 101,-110 235,-110 235,-129"/>
<text text-anchor="middle" x="168" y="-117" font-family="Helvetica,sans-Serif" font-size="10.00">amr&#45;wind/core/Factory.H</text>
</a>
</g>
</g>
<!-- Node3&#45;&gt;Node4 -->
<g id="edge3_Node000003_Node000004" class="edge">
<title>Node3&#45;&gt;Node4</title>
<g id="a_edge3_Node000003_Node000004"><a xlink:title=" ">
<path fill="none" stroke="#63b8ff" d="M414.98,-170.49C363.4,-160.05 275.92,-142.35 220.11,-131.05"/>
<polygon fill="#63b8ff" stroke="#63b8ff" points="220.57,-127.57 210.07,-129.02 219.18,-134.43 220.57,-127.57"/>
</a>
</g>
</g>
<!-- Node9 -->
<g id="Node000009" class="node">
<title>Node9</title>
<g id="a_Node000009"><a xlink:href="_coll_mgr_8_h.html" target="_top" xlink:title=" ">
<polygon fill="white" stroke="#666666" points="428.5,-129 291.5,-129 291.5,-110 428.5,-110 428.5,-129"/>
<text text-anchor="middle" x="360" y="-117" font-family="Helvetica,sans-Serif" font-size="10.00">amr&#45;wind/core/CollMgr.H</text>
</a>
</g>
</g>
<!-- Node3&#45;&gt;Node9 -->
<g id="edge9_Node000003_Node000009" class="edge">
<title>Node3&#45;&gt;Node9</title>
<g id="a_edge9_Node000003_Node000009"><a xlink:title=" ">
<path fill="none" stroke="#63b8ff" d="M442.69,-170.37C427,-160.91 401.6,-145.59 383.09,-134.42"/>
<polygon fill="#63b8ff" stroke="#63b8ff" points="384.74,-131.33 374.37,-129.17 381.13,-137.33 384.74,-131.33"/>
</a>
</g>
</g>
<!-- Node12 -->
<g id="Node000012" class="node">
<title>Node12</title>
<g id="a_Node000012"><a xlink:title=" ">
<polygon fill="#e0e0e0" stroke="#999999" points="1626.5,-74 1517.5,-74 1517.5,-55 1626.5,-55 1626.5,-74"/>
<text text-anchor="middle" x="1572" y="-62" font-family="Helvetica,sans-Serif" font-size="10.00">AMReX_MultiFab.H</text>
</a>
</g>
</g>
<!-- Node3&#45;&gt;Node12 -->
<g id="edge14_Node000003_Node000012" class="edge">
<title>Node3&#45;&gt;Node12</title>
<g id="a_edge14_Node000003_Node000012"><a xlink:title=" ">
<path fill="none" stroke="#63b8ff" d="M456.43,-170.05C456.01,-154.9 457.67,-124.48 476,-110 519.44,-75.69 1386.55,-78.53 1507.1,-73.69"/>
<polygon fill="#63b8ff" stroke="#63b8ff" points="1507.43,-77.18 1517.23,-73.13 1507.05,-70.19 1507.43,-77.18"/>
</a>
</g>
</g>
<!-- Node13 -->
<g id="Node000013" class="node">
<title>Node13</title>
<g id="a_Node000013"><a xlink:title=" ">
<polygon fill="#e0e0e0" stroke="#999999" points="600.5,-129 485.5,-129 485.5,-110 600.5,-110 600.5,-129"/>
<text text-anchor="middle" x="543" y="-117" font-family="Helvetica,sans-Serif" font-size="10.00">AMReX_Geometry.H</text>
</a>
</g>
</g>
<!-- Node3&#45;&gt;Node13 -->
<g id="edge15_Node000003_Node000013" class="edge">
<title>Node3&#45;&gt;Node13</title>
<g id="a_edge15_Node000003_Node000013"><a xlink:title=" ">
<path fill="none" stroke="#63b8ff" d="M469.69,-170.37C483.41,-161.04 505.5,-146.01 521.85,-134.88"/>
<polygon fill="#63b8ff" stroke="#63b8ff" points="523.96,-137.69 530.26,-129.17 520.02,-131.9 523.96,-137.69"/>
</a>
</g>
</g>
<!-- Node4&#45;&gt;Node2 -->
<g id="edge4_Node000004_Node000002" class="edge">
<title>Node4&#45;&gt;Node2</title>
<g id="a_edge4_Node000004_Node000002"><a xlink:title=" ">
<path fill="none" stroke="#63b8ff" d="M188.4,-109.98C209.02,-101.38 241.11,-87.99 264.69,-78.15"/>
<polygon fill="#63b8ff" stroke="#63b8ff" points="266.34,-81.25 274.22,-74.17 263.65,-74.79 266.34,-81.25"/>
</a>
</g>
</g>
<!-- Node5 -->
<g id="Node000005" class="node">
<title>Node5</title>
<g id="a_Node000005"><a xlink:title=" ">
<polygon fill="#e0e0e0" stroke="#999999" points="435.5,-74 342.5,-74 342.5,-55 435.5,-55 435.5,-74"/>
<text text-anchor="middle" x="389" y="-62" font-family="Helvetica,sans-Serif" font-size="10.00">unordered_map</text>
</a>
</g>
</g>
<!-- Node4&#45;&gt;Node5 -->
<g id="edge5_Node000004_Node000005" class="edge">
<title>Node4&#45;&gt;Node5</title>
<g id="a_edge5_Node000004_Node000005"><a xlink:title=" ">
<path fill="none" stroke="#63b8ff" d="M203.51,-109.98C241.49,-100.87 301.87,-86.4 343.36,-76.45"/>
<polygon fill="#63b8ff" stroke="#63b8ff" points="344.31,-79.82 353.21,-74.08 342.67,-73.01 344.31,-79.82"/>
</a>
</g>
</g>
<!-- Node6 -->
<g id="Node000006" class="node">
<title>Node6</title>
<g id="a_Node000006"><a xlink:title=" ">
<polygon fill="#e0e0e0" stroke="#999999" points="248,-74 188,-74 188,-55 248,-55 248,-74"/>
<text text-anchor="middle" x="218" y="-62" font-family="Helvetica,sans-Serif" font-size="10.00">iostream</text>
</a>
</g>
</g>
<!-- Node4&#45;&gt;Node6 -->
<g id="edge6_Node000004_Node000006" class="edge">
<title>Node4&#45;&gt;Node6</title>
<g id="a_edge6_Node000004_Node000006"><a xlink:title=" ">
<path fill="none" stroke="#63b8ff" d="M176.26,-109.75C183.46,-102.11 194.11,-90.82 202.85,-81.56"/>
<polygon fill="#63b8ff" stroke="#63b8ff" points="205.58,-83.76 209.9,-74.09 200.49,-78.96 205.58,-83.76"/>
</a>
</g>
</g>
<!-- Node7 -->
<g id="Node000007" class="node">
<title>Node7</title>
<g id="a_Node000007"><a xlink:title=" ">
<polygon fill="#e0e0e0" stroke="#999999" points="90,-74 0,-74 0,-55 90,-55 90,-74"/>
<text text-anchor="middle" x="45" y="-62" font-family="Helvetica,sans-Serif" font-size="10.00">AMReX_Print.H</text>
</a>
</g>
</g>
<!-- Node4&#45;&gt;Node7 -->
<g id="edge7_Node000004_Node000007" class="edge">
<title>Node4&#45;&gt;Node7</title>
<g id="a_edge7_Node000004_Node000007"><a xlink:title=" ">
<path fill="none" stroke="#63b8ff" d="M148.24,-109.98C128.27,-101.38 97.2,-87.99 74.35,-78.15"/>
<polygon fill="#63b8ff" stroke="#63b8ff" points="75.69,-74.91 65.12,-74.17 72.92,-81.34 75.69,-74.91"/>
</a>
</g>
</g>
<!-- Node8 -->
<g id="Node000008" class="node">
<title>Node8</title>
<g id="a_Node000008"><a xlink:title=" ">
<polygon fill="#e0e0e0" stroke="#999999" points="170,-74 108,-74 108,-55 170,-55 170,-74"/>
<text text-anchor="middle" x="139" y="-62" font-family="Helvetica,sans-Serif" font-size="10.00">AMReX.H</text>
</a>
</g>
</g>
<!-- Node4&#45;&gt;Node8 -->
<g id="edge8_Node000004_Node000008" class="edge">
<title>Node4&#45;&gt;Node8</title>
<g id="a_edge8_Node000004_Node000008"><a xlink:title=" ">
<path fill="none" stroke="#63b8ff" d="M163.21,-109.75C159.24,-102.49 153.47,-91.95 148.57,-82.98"/>
<polygon fill="#63b8ff" stroke="#63b8ff" points="151.57,-81.18 143.7,-74.09 145.43,-84.54 151.57,-81.18"/>
</a>
</g>
</g>
<!-- Node9&#45;&gt;Node2 -->
<g id="edge11_Node000009_Node000002" class="edge">
<title>Node9&#45;&gt;Node2</title>
<g id="a_edge11_Node000009_Node000002"><a xlink:title=" ">
<path fill="none" stroke="#63b8ff" d="M349.56,-109.98C339.85,-102.07 325.18,-90.11 313.5,-80.58"/>
<polygon fill="#63b8ff" stroke="#63b8ff" points="315.6,-77.78 305.63,-74.17 311.17,-83.2 315.6,-77.78"/>
</a>
</g>
</g>
<!-- Node9&#45;&gt;Node5 -->
<g id="edge12_Node000009_Node000005" class="edge">
<title>Node9&#45;&gt;Node5</title>
<g id="a_edge12_Node000009_Node000005"><a xlink:title=" ">
<path fill="none" stroke="#63b8ff" d="M364.79,-109.75C368.76,-102.49 374.53,-91.95 379.43,-82.98"/>
<polygon fill="#63b8ff" stroke="#63b8ff" points="382.57,-84.54 384.3,-74.09 376.43,-81.18 382.57,-84.54"/>
</a>
</g>
</g>
<!-- Node10 -->
<g id="Node000010" class="node">
<title>Node10</title>
<g id="a_Node000010"><a xlink:title=" ">
<polygon fill="#e0e0e0" stroke="#999999" points="1499,-74 1455,-74 1455,-55 1499,-55 1499,-74"/>
<text text-anchor="middle" x="1477" y="-62" font-family="Helvetica,sans-Serif" font-size="10.00">string</text>
</a>
</g>
</g>
<!-- Node9&#45;&gt;Node10 -->
<g id="edge10_Node000009_Node000010" class="edge">
<title>Node9&#45;&gt;Node10</title>
<g id="a_edge10_Node000009_Node000010"><a xlink:title=" ">
<path fill="none" stroke="#63b8ff" d="M428.82,-111.14C433.61,-110.72 438.38,-110.34 443,-110 836.97,-81.37 1316.83,-69.1 1444.52,-66.2"/>
<polygon fill="#63b8ff" stroke="#63b8ff" points="1444.86,-69.69 1454.78,-65.97 1444.7,-62.69 1444.86,-69.69"/>
</a>
</g>
</g>
<!-- Node11 -->
<g id="Node000011" class="node">
<title>Node11</title>
<g id="a_Node000011"><a xlink:title=" ">
<polygon fill="#e0e0e0" stroke="#999999" points="1120,-74 1022,-74 1022,-55 1120,-55 1120,-74"/>
<text text-anchor="middle" x="1071" y="-62" font-family="Helvetica,sans-Serif" font-size="10.00">AMReX_Vector.H</text>
</a>
</g>
</g>
<!-- Node9&#45;&gt;Node11 -->
<g id="edge13_Node000009_Node000011" class="edge">
<title>Node9&#45;&gt;Node11</title>
<g id="a_edge13_Node000009_Node000011"><a xlink:title=" ">
<path fill="none" stroke="#63b8ff" d="M428.83,-111.28C433.62,-110.83 438.38,-110.4 443,-110 651.82,-91.91 900.17,-75.95 1011.66,-69.08"/>
<polygon fill="#63b8ff" stroke="#63b8ff" points="1011.93,-72.57 1021.7,-68.47 1011.5,-65.59 1011.93,-72.57"/>
</a>
</g>
</g>
<!-- Node14&#45;&gt;Node11 -->
<g id="edge22_Node000014_Node000011" class="edge">
<title>Node14&#45;&gt;Node11</title>
<g id="a_edge22_Node000014_Node000011"><a xlink:title=" ">
<path fill="none" stroke="#63b8ff" d="M907.76,-170.05C962.67,-162.03 1031.18,-148.49 1052,-129 1064.2,-117.58 1068.67,-98.69 1070.26,-84.48"/>
<polygon fill="#63b8ff" stroke="#63b8ff" points="1073.76,-84.54 1071.01,-74.31 1066.78,-84.03 1073.76,-84.54"/>
</a>
</g>
</g>
<!-- Node14&#45;&gt;Node13 -->
<g id="edge20_Node000014_Node000013" class="edge">
<title>Node14&#45;&gt;Node13</title>
<g id="a_edge20_Node000014_Node000013"><a xlink:title=" ">
<path fill="none" stroke="#63b8ff" d="M763.54,-164.99C711.86,-154.56 642.44,-140.56 595.38,-131.07"/>
<polygon fill="#63b8ff" stroke="#63b8ff" points="595.9,-127.6 585.4,-129.05 594.51,-134.46 595.9,-127.6"/>
</a>
</g>
</g>
<!-- Node15 -->
<g id="Node000015" class="node">
<title>Node15</title>
<g id="a_Node000015"><a xlink:title=" ">
<polygon fill="#e0e0e0" stroke="#999999" points="1043,-129 951,-129 951,-110 1043,-110 1043,-129"/>
<text text-anchor="middle" x="997" y="-117" font-family="Helvetica,sans-Serif" font-size="10.00">AMReX_Array.H</text>
</a>
</g>
</g>
<!-- Node14&#45;&gt;Node15 -->
<g id="edge17_Node000014_Node000015" class="edge">
<title>Node14&#45;&gt;Node15</title>
<g id="a_edge17_Node000014_Node000015"><a xlink:title=" ">
<path fill="none" stroke="#63b8ff" d="M872.28,-164.99C900.01,-155.1 936.78,-141.98 963.2,-132.56"/>
<polygon fill="#63b8ff" stroke="#63b8ff" points="964.54,-135.8 972.78,-129.14 962.19,-129.2 964.54,-135.8"/>
</a>
</g>
</g>
<!-- Node16 -->
<g id="Node000016" class="node">
<title>Node16</title>
<g id="a_Node000016"><a xlink:title=" ">
<polygon fill="#e0e0e0" stroke="#999999" points="719,-129 619,-129 619,-110 719,-110 719,-129"/>
<text text-anchor="middle" x="669" y="-117" font-family="Helvetica,sans-Serif" font-size="10.00">AMReX_Array4.H</text>
</a>
</g>
</g>
<!-- Node14&#45;&gt;Node16 -->
<g id="edge18_Node000014_Node000016" class="edge">
<title>Node14&#45;&gt;Node16</title>
<g id="a_edge18_Node000014_Node000016"><a xlink:title=" ">
<path fill="none" stroke="#63b8ff" d="M793.72,-164.99C765.99,-155.1 729.22,-141.98 702.8,-132.56"/>
<polygon fill="#63b8ff" stroke="#63b8ff" points="703.81,-129.2 693.22,-129.14 701.46,-135.8 703.81,-129.2"/>
</a>
</g>
</g>
<!-- Node17 -->
<g id="Node000017" class="node">
<title>Node17</title>
<g id="a_Node000017"><a xlink:title=" ">
<polygon fill="#e0e0e0" stroke="#999999" points="823,-129 737,-129 737,-110 823,-110 823,-129"/>
<text text-anchor="middle" x="780" y="-117" font-family="Helvetica,sans-Serif" font-size="10.00">AMReX_Box.H</text>
</a>
</g>
</g>
<!-- Node14&#45;&gt;Node17 -->
<g id="edge19_Node000014_Node000017" class="edge">
<title>Node14&#45;&gt;Node17</title>
<g id="a_edge19_Node000014_Node000017"><a xlink:title=" ">
<path fill="none" stroke="#63b8ff" d="M820.17,-164.84C812.48,-156.35 802.67,-145.52 794.67,-136.69"/>
<polygon fill="#63b8ff" stroke="#63b8ff" points="797.25,-134.33 787.94,-129.27 792.06,-139.03 797.25,-134.33"/>
</a>
</g>
</g>
<!-- Node18 -->
<g id="Node000018" class="node">
<title>Node18</title>
<g id="a_Node000018"><a xlink:title=" ">
<polygon fill="#e0e0e0" stroke="#999999" points="933,-129 841,-129 841,-110 933,-110 933,-129"/>
<text text-anchor="middle" x="887" y="-117" font-family="Helvetica,sans-Serif" font-size="10.00">AMReX_REAL.H</text>
</a>
</g>
</g>
<!-- Node14&#45;&gt;Node18 -->
<g id="edge21_Node000014_Node000018" class="edge">
<title>Node14&#45;&gt;Node18</title>
<g id="a_edge21_Node000014_Node000018"><a xlink:title=" ">
<path fill="none" stroke="#63b8ff" d="M846.07,-164.84C853.91,-156.35 863.91,-145.52 872.06,-136.69"/>
<polygon fill="#63b8ff" stroke="#63b8ff" points="874.7,-138.99 878.91,-129.27 869.55,-134.24 874.7,-138.99"/>
</a>
</g>
</g>
<!-- Node19 -->
<g id="Node000019" class="node">
<title>Node19</title>
<g id="a_Node000019"><a xlink:title=" ">
<polygon fill="#e0e0e0" stroke="#999999" points="1186.5,-129 1099.5,-129 1099.5,-110 1186.5,-110 1186.5,-129"/>
<text text-anchor="middle" x="1143" y="-117" font-family="Helvetica,sans-Serif" font-size="10.00">AMReX_Gpu.H</text>
</a>
</g>
</g>
<!-- Node14&#45;&gt;Node19 -->
<g id="edge23_Node000014_Node000019" class="edge">
<title>Node14&#45;&gt;Node19</title>
<g id="a_edge23_Node000014_Node000019"><a xlink:title=" ">
<path fill="none" stroke="#63b8ff" d="M907.25,-164.99C963.39,-154.39 1039.14,-140.1 1089.45,-130.61"/>
<polygon fill="#63b8ff" stroke="#63b8ff" points="1090.29,-134.01 1099.47,-128.71 1089,-127.13 1090.29,-134.01"/>
</a>
</g>
</g>
<!-- Node20&#45;&gt;Node2 -->
<g id="edge26_Node000020_Node000002" class="edge">
<title>Node20&#45;&gt;Node2</title>
<g id="a_edge26_Node000020_Node000002"><a xlink:title=" ">
<path fill="none" stroke="#63b8ff" d="M1370.01,-170.44C1332.09,-162.17 1275.74,-148.07 1229,-129 1212.97,-122.46 1211.66,-114.71 1195,-110 1013.58,-58.68 539.18,-97.68 334.5,-73.87"/>
<polygon fill="#63b8ff" stroke="#63b8ff" points="334.72,-70.37 324.37,-72.61 333.86,-77.32 334.72,-70.37"/>
</a>
</g>
</g>
<!-- Node20&#45;&gt;Node5 -->
<g id="edge27_Node000020_Node000005" class="edge">
<title>Node20&#45;&gt;Node5</title>
<g id="a_edge27_Node000020_Node000005"><a xlink:title=" ">
<path fill="none" stroke="#63b8ff" d="M1387.05,-170.45C1358.6,-160.93 1311.7,-144.78 1272,-129 1252.58,-121.28 1249.32,-114.85 1229,-110 1079.76,-74.35 609.55,-67.24 445.85,-65.84"/>
<polygon fill="#63b8ff" stroke="#63b8ff" points="445.55,-62.34 435.52,-65.76 445.49,-69.34 445.55,-62.34"/>
</a>
</g>
</g>
<!-- Node20&#45;&gt;Node10 -->
<g id="edge25_Node000020_Node000010" class="edge">
<title>Node20&#45;&gt;Node10</title>
<g id="a_edge25_Node000020_Node000010"><a xlink:title=" ">
<path fill="none" stroke="#63b8ff" d="M1428.54,-170.34C1442.28,-161.78 1461.54,-147.31 1471,-129 1478.07,-115.3 1479.23,-97.72 1478.81,-84.54"/>
<polygon fill="#63b8ff" stroke="#63b8ff" points="1482.29,-84.04 1478.15,-74.28 1475.3,-84.49 1482.29,-84.04"/>
</a>
</g>
</g>
<!-- Node20&#45;&gt;Node12 -->
<g id="edge29_Node000020_Node000012" class="edge">
<title>Node20&#45;&gt;Node12</title>
<g id="a_edge29_Node000020_Node000012"><a xlink:title=" ">
<path fill="none" stroke="#63b8ff" d="M1475.11,-176.06C1544.68,-171.32 1650.99,-159.21 1676,-129 1696.1,-104.72 1657.58,-87.19 1621.86,-76.78"/>
<polygon fill="#63b8ff" stroke="#63b8ff" points="1622.48,-73.32 1611.91,-74.04 1620.62,-80.07 1622.48,-73.32"/>
</a>
</g>
</g>
<!-- Node20&#45;&gt;Node19 -->
<g id="edge31_Node000020_Node000019" class="edge">
<title>Node20&#45;&gt;Node19</title>
<g id="a_edge31_Node000020_Node000019"><a xlink:title=" ">
<path fill="none" stroke="#63b8ff" d="M1373.74,-170.49C1325.75,-160.1 1244.5,-142.49 1192.33,-131.19"/>
<polygon fill="#63b8ff" stroke="#63b8ff" points="1192.82,-127.71 1182.31,-129.02 1191.34,-134.55 1192.82,-127.71"/>
</a>
</g>
</g>
<!-- Node21 -->
<g id="Node000021" class="node">
<title>Node21</title>
<g id="a_Node000021"><a xlink:title=" ">
<polygon fill="#e0e0e0" stroke="#999999" points="1345,-129 1281,-129 1281,-110 1345,-110 1345,-129"/>
<text text-anchor="middle" x="1313" y="-117" font-family="Helvetica,sans-Serif" font-size="10.00">algorithm</text>
</a>
</g>
</g>
<!-- Node20&#45;&gt;Node21 -->
<g id="edge28_Node000020_Node000021" class="edge">
<title>Node20&#45;&gt;Node21</title>
<g id="a_edge28_Node000020_Node000021"><a xlink:title=" ">
<path fill="none" stroke="#63b8ff" d="M1398.24,-170.37C1382,-160.86 1355.65,-145.45 1336.54,-134.27"/>
<polygon fill="#63b8ff" stroke="#63b8ff" points="1338.21,-131.2 1327.82,-129.17 1334.68,-137.24 1338.21,-131.2"/>
</a>
</g>
</g>
<!-- Node22 -->
<g id="Node000022" class="node">
<title>Node22</title>
<g id="a_Node000022"><a xlink:title=" ">
<polygon fill="#e0e0e0" stroke="#999999" points="1462.5,-129 1363.5,-129 1363.5,-110 1462.5,-110 1462.5,-129"/>
<text text-anchor="middle" x="1413" y="-117" font-family="Helvetica,sans-Serif" font-size="10.00">AMReX_BCRec.H</text>
</a>
</g>
</g>
<!-- Node20&#45;&gt;Node22 -->
<g id="edge30_Node000020_Node000022" class="edge">
<title>Node20&#45;&gt;Node22</title>
<g id="a_edge30_Node000020_Node000022"><a xlink:title=" ">
<path fill="none" stroke="#63b8ff" d="M1413,-170.37C1413,-162.25 1413,-149.81 1413,-139.39"/>
<polygon fill="#63b8ff" stroke="#63b8ff" points="1416.5,-139.17 1413,-129.17 1409.5,-139.17 1416.5,-139.17"/>
</a>
</g>
</g>
<!-- Node23 -->
<g id="Node000023" class="node">
<title>Node23</title>
<g id="a_Node000023"><a xlink:href="incflo__enums_8_h.html" target="_top" xlink:title=" ">
<polygon fill="white" stroke="#666666" points="1980.5,-74 1839.5,-74 1839.5,-55 1980.5,-55 1980.5,-74"/>
<text text-anchor="middle" x="1910" y="-62" font-family="Helvetica,sans-Serif" font-size="10.00">amr&#45;wind/incflo_enums.H</text>
</a>
</g>
</g>
<!-- Node20&#45;&gt;Node23 -->
<g id="edge32_Node000020_Node000023" class="edge">
<title>Node20&#45;&gt;Node23</title>
<g id="a_edge32_Node000020_Node000023"><a xlink:title=" ">
<path fill="none" stroke="#63b8ff" d="M1475.29,-171.63C1537.14,-163.63 1634.4,-149.25 1717,-129 1774.87,-114.81 1840.39,-91.7 1878.28,-77.62"/>
<polygon fill="#63b8ff" stroke="#63b8ff" points="1879.61,-80.86 1887.75,-74.08 1877.15,-74.3 1879.61,-80.86"/>
</a>
</g>
</g>
<!-- Node25 -->
<g id="Node000025" class="node">
<title>Node25</title>
<g id="a_Node000025"><a xlink:href="_field_desc_types_8_h.html" target="_top" xlink:title=" ">
<polygon fill="white" stroke="#666666" points="1821,-74 1645,-74 1645,-55 1821,-55 1821,-74"/>
<text text-anchor="middle" x="1733" y="-62" font-family="Helvetica,sans-Serif" font-size="10.00">amr&#45;wind/core/FieldDescTypes.H</text>
</a>
</g>
</g>
<!-- Node20&#45;&gt;Node25 -->
<g id="edge34_Node000020_Node000025" class="edge">
<title>Node20&#45;&gt;Node25</title>
<g id="a_edge34_Node000020_Node000025"><a xlink:title=" ">
<path fill="none" stroke="#63b8ff" d="M1475.09,-173.77C1546.46,-166.76 1658.24,-152.41 1693,-129 1709.18,-118.11 1720.11,-98.25 1726.4,-83.63"/>
<polygon fill="#63b8ff" stroke="#63b8ff" points="1729.74,-84.7 1730.17,-74.11 1723.23,-82.12 1729.74,-84.7"/>
</a>
</g>
</g>
<!-- Node26 -->
<g id="Node000026" class="node">
<title>Node26</title>
<g id="a_Node000026"><a xlink:href="_view_field_8_h.html" target="_top" xlink:title=" ">
<polygon fill="white" stroke="#666666" points="1667,-129 1519,-129 1519,-110 1667,-110 1667,-129"/>
<text text-anchor="middle" x="1593" y="-117" font-family="Helvetica,sans-Serif" font-size="10.00">amr&#45;wind/core/ViewField.H</text>
</a>
</g>
</g>
<!-- Node20&#45;&gt;Node26 -->
<g id="edge36_Node000020_Node000026" class="edge">
<title>Node20&#45;&gt;Node26</title>
<g id="a_edge36_Node000020_Node000026"><a xlink:title=" ">
<path fill="none" stroke="#63b8ff" d="M1439.17,-170.49C1470.23,-160.4 1522.19,-143.51 1557.02,-132.19"/>
<polygon fill="#63b8ff" stroke="#63b8ff" points="1558.37,-135.44 1566.79,-129.02 1556.2,-128.78 1558.37,-135.44"/>
</a>
</g>
</g>
<!-- Node24 -->
<g id="Node000024" class="node">
<title>Node24</title>
<g id="a_Node000024"><a xlink:title=" ">
<polygon fill="#e0e0e0" stroke="#999999" points="1846,-19 1796,-19 1796,0 1846,0 1846,-19"/>
<text text-anchor="middle" x="1821" y="-7" font-family="Helvetica,sans-Serif" font-size="10.00">cstdint</text>
</a>
</g>
</g>
<!-- Node23&#45;&gt;Node24 -->
<g id="edge33_Node000023_Node000024" class="edge">
<title>Node23&#45;&gt;Node24</title>
<g id="a_edge33_Node000023_Node000024"><a xlink:title=" ">
<path fill="none" stroke="#63b8ff" d="M1895.7,-54.98C1881.9,-46.77 1860.76,-34.18 1844.49,-24.49"/>
<polygon fill="#63b8ff" stroke="#63b8ff" points="1845.94,-21.28 1835.56,-19.17 1842.36,-27.29 1845.94,-21.28"/>
</a>
</g>
</g>
<!-- Node25&#45;&gt;Node24 -->
<g id="edge35_Node000025_Node000024" class="edge">
<title>Node25&#45;&gt;Node24</title>
<g id="a_edge35_Node000025_Node000024"><a xlink:title=" ">
<path fill="none" stroke="#63b8ff" d="M1747.14,-54.98C1760.79,-46.77 1781.69,-34.18 1797.78,-24.49"/>
<polygon fill="#63b8ff" stroke="#63b8ff" points="1799.84,-27.33 1806.6,-19.17 1796.23,-21.33 1799.84,-27.33"/>
</a>
</g>
</g>
<!-- Node26&#45;&gt;Node10 -->
<g id="edge37_Node000026_Node000010" class="edge">
<title>Node26&#45;&gt;Node10</title>
<g id="a_edge37_Node000026_Node000010"><a xlink:title=" ">
<path fill="none" stroke="#63b8ff" d="M1574.36,-109.98C1555.7,-101.46 1526.75,-88.23 1505.26,-78.41"/>
<polygon fill="#63b8ff" stroke="#63b8ff" points="1506.53,-75.14 1495.98,-74.17 1503.62,-81.51 1506.53,-75.14"/>
</a>
</g>
</g>
<!-- Node26&#45;&gt;Node11 -->
<g id="edge40_Node000026_Node000011" class="edge">
<title>Node26&#45;&gt;Node11</title>
<g id="a_edge40_Node000026_Node000011"><a xlink:title=" ">
<path fill="none" stroke="#63b8ff" d="M1518.76,-110.96C1414.34,-100.36 1226.16,-81.25 1130.43,-71.53"/>
<polygon fill="#63b8ff" stroke="#63b8ff" points="1130.64,-68.04 1120.34,-70.51 1129.93,-75 1130.64,-68.04"/>
</a>
</g>
</g>
<!-- Node26&#45;&gt;Node12 -->
<g id="edge39_Node000026_Node000012" class="edge">
<title>Node26&#45;&gt;Node12</title>
<g id="a_edge39_Node000026_Node000012"><a xlink:title=" ">
<path fill="none" stroke="#63b8ff" d="M1589.53,-109.75C1586.72,-102.65 1582.66,-92.4 1579.15,-83.56"/>
<polygon fill="#63b8ff" stroke="#63b8ff" points="1582.34,-82.1 1575.4,-74.09 1575.83,-84.68 1582.34,-82.1"/>
</a>
</g>
</g>
<!-- Node26&#45;&gt;Node25 -->
<g id="edge38_Node000026_Node000025" class="edge">
<title>Node26&#45;&gt;Node25</title>
<g id="a_edge38_Node000026_Node000025"><a xlink:title=" ">
<path fill="none" stroke="#63b8ff" d="M1615.49,-109.98C1638.52,-101.27 1674.54,-87.63 1700.63,-77.75"/>
<polygon fill="#63b8ff" stroke="#63b8ff" points="1701.98,-80.98 1710.1,-74.17 1699.51,-74.44 1701.98,-80.98"/>
</a>
</g>
</g>
</g>
</svg>
