<?xml version="1.0" encoding="UTF-8" standalone="no"?>
<!DOCTYPE svg PUBLIC "-//W3C//DTD SVG 1.1//EN"
 "http://www.w3.org/Graphics/SVG/1.1/DTD/svg11.dtd">
<!-- Generated by graphviz version 2.43.0 (0)
 -->
<!-- Title: /home/runner/work/amr&#45;wind/amr&#45;wind/amr&#45;wind/utilities/averaging/ReAveraging.H Pages: 1 -->
<svg width="782pt" height="291pt"
 viewBox="0.00 0.00 782.00 291.00" xmlns="http://www.w3.org/2000/svg" xmlns:xlink="http://www.w3.org/1999/xlink">
<g id="graph0" class="graph" transform="scale(1 1) rotate(0) translate(4 287)">
<title>/home/runner/work/amr&#45;wind/amr&#45;wind/amr&#45;wind/utilities/averaging/ReAveraging.H</title>
<!-- Node1 -->
<g id="Node000001" class="node">
<title>Node1</title>
<g id="a_Node000001"><a xlink:title=" ">
<polygon fill="#999999" stroke="#666666" points="517.5,-283 334.5,-283 334.5,-242 517.5,-242 517.5,-283"/>
<text text-anchor="start" x="342.5" y="-271" font-family="Helvetica,sans-Serif" font-size="10.00">/home/runner/work/amr</text>
<text text-anchor="start" x="342.5" y="-260" font-family="Helvetica,sans-Serif" font-size="10.00">&#45;wind/amr&#45;wind/amr&#45;wind</text>
<text text-anchor="middle" x="426" y="-249" font-family="Helvetica,sans-Serif" font-size="10.00">/utilities/averaging/ReAveraging.H</text>
</a>
</g>
</g>
<!-- Node2 -->
<g id="Node000002" class="node">
<title>Node2</title>
<g id="a_Node000002"><a xlink:href="_time_averaging_8_h.html" target="_top" xlink:title=" ">
<polygon fill="white" stroke="#666666" points="503.5,-206 348.5,-206 348.5,-176 503.5,-176 503.5,-206"/>
<text text-anchor="start" x="356.5" y="-194" font-family="Helvetica,sans-Serif" font-size="10.00">amr&#45;wind/utilities</text>
<text text-anchor="middle" x="426" y="-183" font-family="Helvetica,sans-Serif" font-size="10.00">/averaging/TimeAveraging.H</text>
</a>
</g>
</g>
<!-- Node1&#45;&gt;Node2 -->
<g id="edge1_Node000001_Node000002" class="edge">
<title>Node1&#45;&gt;Node2</title>
<g id="a_edge1_Node000001_Node000002"><a xlink:title=" ">
<path fill="none" stroke="#63b8ff" d="M426,-241.77C426,-233.85 426,-224.63 426,-216.3"/>
<polygon fill="#63b8ff" stroke="#63b8ff" points="429.5,-216.04 426,-206.04 422.5,-216.04 429.5,-216.04"/>
</a>
</g>
</g>
<!-- Node3 -->
<g id="Node000003" class="node">
<title>Node3</title>
<g id="a_Node000003"><a xlink:href="_factory_8_h.html" target="_top" xlink:title=" ">
<polygon fill="white" stroke="#666666" points="329,-74 195,-74 195,-55 329,-55 329,-74"/>
<text text-anchor="middle" x="262" y="-62" font-family="Helvetica,sans-Serif" font-size="10.00">amr&#45;wind/core/Factory.H</text>
</a>
</g>
</g>
<!-- Node2&#45;&gt;Node3 -->
<g id="edge2_Node000002_Node000003" class="edge">
<title>Node2&#45;&gt;Node3</title>
<g id="a_edge2_Node000002_Node000003"><a xlink:title=" ">
<path fill="none" stroke="#63b8ff" d="M406.56,-175.91C392.9,-165.96 374.25,-152.28 358,-140 330.99,-119.6 300.14,-95.51 280.86,-80.37"/>
<polygon fill="#63b8ff" stroke="#63b8ff" points="282.89,-77.52 272.87,-74.08 278.57,-83.02 282.89,-77.52"/>
</a>
</g>
</g>
<!-- Node4 -->
<g id="Node000004" class="node">
<title>Node4</title>
<g id="a_Node000004"><a xlink:title=" ">
<polygon fill="#e0e0e0" stroke="#999999" points="58,-19 0,-19 0,0 58,0 58,-19"/>
<text text-anchor="middle" x="29" y="-7" font-family="Helvetica,sans-Serif" font-size="10.00">memory</text>
</a>
</g>
</g>
<!-- Node2&#45;&gt;Node4 -->
<g id="edge19_Node000002_Node000004" class="edge">
<title>Node2&#45;&gt;Node4</title>
<g id="a_edge19_Node000002_Node000004"><a xlink:title=" ">
<path fill="none" stroke="#63b8ff" d="M348.4,-180.55C296.21,-172.85 226.36,-159.95 167,-140 104.07,-118.85 69.83,-129.24 33,-74 24.29,-60.93 24.02,-42.79 25.5,-29.24"/>
<polygon fill="#63b8ff" stroke="#63b8ff" points="28.99,-29.57 27.01,-19.16 22.07,-28.53 28.99,-29.57"/>
</a>
</g>
</g>
<!-- Node9 -->
<g id="Node000009" class="node">
<title>Node9</title>
<g id="a_Node000009"><a xlink:href="_post_processing_8_h.html" target="_top" xlink:title=" ">
<polygon fill="white" stroke="#666666" points="280,-140 176,-140 176,-110 280,-110 280,-140"/>
<text text-anchor="start" x="184" y="-128" font-family="Helvetica,sans-Serif" font-size="10.00">amr&#45;wind/utilities</text>
<text text-anchor="middle" x="228" y="-117" font-family="Helvetica,sans-Serif" font-size="10.00">/PostProcessing.H</text>
</a>
</g>
</g>
<!-- Node2&#45;&gt;Node9 -->
<g id="edge8_Node000002_Node000009" class="edge">
<title>Node2&#45;&gt;Node9</title>
<g id="a_edge8_Node000002_Node000009"><a xlink:title=" ">
<path fill="none" stroke="#63b8ff" d="M382.55,-175.95C352.63,-166.28 312.71,-153.38 280.93,-143.11"/>
<polygon fill="#63b8ff" stroke="#63b8ff" points="281.94,-139.76 271.35,-140.01 279.79,-146.42 281.94,-139.76"/>
</a>
</g>
</g>
<!-- Node11 -->
<g id="Node000011" class="node">
<title>Node11</title>
<g id="a_Node000011"><a xlink:title=" ">
<polygon fill="#e0e0e0" stroke="#999999" points="439,-74 347,-74 347,-55 439,-55 439,-74"/>
<text text-anchor="middle" x="393" y="-62" font-family="Helvetica,sans-Serif" font-size="10.00">AMReX_REAL.H</text>
</a>
</g>
</g>
<!-- Node2&#45;&gt;Node11 -->
<g id="edge22_Node000002_Node000011" class="edge">
<title>Node2&#45;&gt;Node11</title>
<g id="a_edge22_Node000002_Node000011"><a xlink:title=" ">
<path fill="none" stroke="#63b8ff" d="M399.55,-175.86C386.57,-167.36 372.21,-155.22 365,-140 355.91,-120.79 367.85,-97.77 378.83,-82.45"/>
<polygon fill="#63b8ff" stroke="#63b8ff" points="381.69,-84.47 385.02,-74.41 376.15,-80.2 381.69,-84.47"/>
</a>
</g>
</g>
<!-- Node12 -->
<g id="Node000012" class="node">
<title>Node12</title>
<g id="a_Node000012"><a xlink:href="constants_8_h.html" target="_top" xlink:title=" ">
<polygon fill="white" stroke="#666666" points="477.5,-140 374.5,-140 374.5,-110 477.5,-110 477.5,-140"/>
<text text-anchor="start" x="382.5" y="-128" font-family="Helvetica,sans-Serif" font-size="10.00">amr&#45;wind/utilities</text>
<text text-anchor="middle" x="426" y="-117" font-family="Helvetica,sans-Serif" font-size="10.00">/constants.H</text>
</a>
</g>
</g>
<!-- Node2&#45;&gt;Node12 -->
<g id="edge13_Node000002_Node000012" class="edge">
<title>Node2&#45;&gt;Node12</title>
<g id="a_edge13_Node000002_Node000012"><a xlink:title=" ">
<path fill="none" stroke="#63b8ff" d="M426,-175.8C426,-168.34 426,-158.99 426,-150.41"/>
<polygon fill="#63b8ff" stroke="#63b8ff" points="429.5,-150.16 426,-140.16 422.5,-150.16 429.5,-150.16"/>
</a>
</g>
</g>
<!-- Node15 -->
<g id="Node000015" class="node">
<title>Node15</title>
<g id="a_Node000015"><a xlink:title=" ">
<polygon fill="#e0e0e0" stroke="#999999" points="594,-134.5 496,-134.5 496,-115.5 594,-115.5 594,-134.5"/>
<text text-anchor="middle" x="545" y="-122.5" font-family="Helvetica,sans-Serif" font-size="10.00">AMReX_Vector.H</text>
</a>
</g>
</g>
<!-- Node2&#45;&gt;Node15 -->
<g id="edge17_Node000002_Node000015" class="edge">
<title>Node2&#45;&gt;Node15</title>
<g id="a_edge17_Node000002_Node000015"><a xlink:title=" ">
<path fill="none" stroke="#63b8ff" d="M452.12,-175.95C472.34,-165.08 500.18,-150.11 520.09,-139.4"/>
<polygon fill="#63b8ff" stroke="#63b8ff" points="522.01,-142.34 529.16,-134.52 518.7,-136.17 522.01,-142.34"/>
</a>
</g>
</g>
<!-- Node16 -->
<g id="Node000016" class="node">
<title>Node16</title>
<g id="a_Node000016"><a xlink:title=" ">
<polygon fill="#e0e0e0" stroke="#999999" points="656,-134.5 612,-134.5 612,-115.5 656,-115.5 656,-134.5"/>
<text text-anchor="middle" x="634" y="-122.5" font-family="Helvetica,sans-Serif" font-size="10.00">limits</text>
</a>
</g>
</g>
<!-- Node2&#45;&gt;Node16 -->
<g id="edge18_Node000002_Node000016" class="edge">
<title>Node2&#45;&gt;Node16</title>
<g id="a_edge18_Node000002_Node000016"><a xlink:title=" ">
<path fill="none" stroke="#63b8ff" d="M484.08,-175.92C518.97,-166.9 564,-154.22 603,-140 604.22,-139.56 605.45,-139.09 606.7,-138.6"/>
<polygon fill="#63b8ff" stroke="#63b8ff" points="608.3,-141.72 616.16,-134.6 605.58,-135.27 608.3,-141.72"/>
</a>
</g>
</g>
<!-- Node17 -->
<g id="Node000017" class="node">
<title>Node17</title>
<g id="a_Node000017"><a xlink:title=" ">
<polygon fill="#e0e0e0" stroke="#999999" points="718,-134.5 674,-134.5 674,-115.5 718,-115.5 718,-134.5"/>
<text text-anchor="middle" x="696" y="-122.5" font-family="Helvetica,sans-Serif" font-size="10.00">string</text>
</a>
</g>
</g>
<!-- Node2&#45;&gt;Node17 -->
<g id="edge20_Node000002_Node000017" class="edge">
<title>Node2&#45;&gt;Node17</title>
<g id="a_edge20_Node000002_Node000017"><a xlink:title=" ">
<path fill="none" stroke="#63b8ff" d="M503.54,-178.19C550.86,-169.91 612.2,-157.22 665,-140 666.44,-139.53 667.9,-139.02 669.36,-138.47"/>
<polygon fill="#63b8ff" stroke="#63b8ff" points="670.98,-141.59 678.88,-134.53 668.31,-135.12 670.98,-141.59"/>
</a>
</g>
</g>
<!-- Node18 -->
<g id="Node000018" class="node">
<title>Node18</title>
<g id="a_Node000018"><a xlink:title=" ">
<polygon fill="#e0e0e0" stroke="#999999" points="774,-134.5 736,-134.5 736,-115.5 774,-115.5 774,-134.5"/>
<text text-anchor="middle" x="755" y="-122.5" font-family="Helvetica,sans-Serif" font-size="10.00">map</text>
</a>
</g>
</g>
<!-- Node2&#45;&gt;Node18 -->
<g id="edge21_Node000002_Node000018" class="edge">
<title>Node2&#45;&gt;Node18</title>
<g id="a_edge21_Node000002_Node000018"><a xlink:title=" ">
<path fill="none" stroke="#63b8ff" d="M503.59,-183.54C565.29,-176.89 653.19,-163.98 727,-140 728.22,-139.6 729.46,-139.16 730.69,-138.68"/>
<polygon fill="#63b8ff" stroke="#63b8ff" points="732.24,-141.83 739.95,-134.56 729.39,-135.43 732.24,-141.83"/>
</a>
</g>
</g>
<!-- Node3&#45;&gt;Node4 -->
<g id="edge3_Node000003_Node000004" class="edge">
<title>Node3&#45;&gt;Node4</title>
<g id="a_edge3_Node000003_Node000004"><a xlink:title=" ">
<path fill="none" stroke="#63b8ff" d="M224.56,-54.98C181.69,-45.23 111.77,-29.33 68.18,-19.41"/>
<polygon fill="#63b8ff" stroke="#63b8ff" points="68.76,-15.95 58.23,-17.15 67.2,-22.78 68.76,-15.95"/>
</a>
</g>
</g>
<!-- Node5 -->
<g id="Node000005" class="node">
<title>Node5</title>
<g id="a_Node000005"><a xlink:title=" ">
<polygon fill="#e0e0e0" stroke="#999999" points="380.5,-19 287.5,-19 287.5,0 380.5,0 380.5,-19"/>
<text text-anchor="middle" x="334" y="-7" font-family="Helvetica,sans-Serif" font-size="10.00">unordered_map</text>
</a>
</g>
</g>
<!-- Node3&#45;&gt;Node5 -->
<g id="edge4_Node000003_Node000005" class="edge">
<title>Node3&#45;&gt;Node5</title>
<g id="a_edge4_Node000003_Node000005"><a xlink:title=" ">
<path fill="none" stroke="#63b8ff" d="M273.57,-54.98C284.42,-47 300.88,-34.88 313.88,-25.31"/>
<polygon fill="#63b8ff" stroke="#63b8ff" points="316.24,-27.92 322.22,-19.17 312.09,-22.28 316.24,-27.92"/>
</a>
</g>
</g>
<!-- Node6 -->
<g id="Node000006" class="node">
<title>Node6</title>
<g id="a_Node000006"><a xlink:title=" ">
<polygon fill="#e0e0e0" stroke="#999999" points="459,-19 399,-19 399,0 459,0 459,-19"/>
<text text-anchor="middle" x="429" y="-7" font-family="Helvetica,sans-Serif" font-size="10.00">iostream</text>
</a>
</g>
</g>
<!-- Node3&#45;&gt;Node6 -->
<g id="edge5_Node000003_Node000006" class="edge">
<title>Node3&#45;&gt;Node6</title>
<g id="a_edge5_Node000003_Node000006"><a xlink:title=" ">
<path fill="none" stroke="#63b8ff" d="M288.83,-54.98C316.87,-46.09 361.05,-32.07 392.3,-22.15"/>
<polygon fill="#63b8ff" stroke="#63b8ff" points="393.49,-25.44 401.96,-19.08 391.37,-18.77 393.49,-25.44"/>
</a>
</g>
</g>
<!-- Node7 -->
<g id="Node000007" class="node">
<title>Node7</title>
<g id="a_Node000007"><a xlink:title=" ">
<polygon fill="#e0e0e0" stroke="#999999" points="189,-19 99,-19 99,0 189,0 189,-19"/>
<text text-anchor="middle" x="144" y="-7" font-family="Helvetica,sans-Serif" font-size="10.00">AMReX_Print.H</text>
</a>
</g>
</g>
<!-- Node3&#45;&gt;Node7 -->
<g id="edge6_Node000003_Node000007" class="edge">
<title>Node3&#45;&gt;Node7</title>
<g id="a_edge6_Node000003_Node000007"><a xlink:title=" ">
<path fill="none" stroke="#63b8ff" d="M243.04,-54.98C223.97,-46.42 194.34,-33.11 172.45,-23.28"/>
<polygon fill="#63b8ff" stroke="#63b8ff" points="173.86,-20.07 163.3,-19.17 170.99,-26.46 173.86,-20.07"/>
</a>
</g>
</g>
<!-- Node8 -->
<g id="Node000008" class="node">
<title>Node8</title>
<g id="a_Node000008"><a xlink:title=" ">
<polygon fill="#e0e0e0" stroke="#999999" points="269,-19 207,-19 207,0 269,0 269,-19"/>
<text text-anchor="middle" x="238" y="-7" font-family="Helvetica,sans-Serif" font-size="10.00">AMReX.H</text>
</a>
</g>
</g>
<!-- Node3&#45;&gt;Node8 -->
<g id="edge7_Node000003_Node000008" class="edge">
<title>Node3&#45;&gt;Node8</title>
<g id="a_edge7_Node000003_Node000008"><a xlink:title=" ">
<path fill="none" stroke="#63b8ff" d="M258.04,-54.75C254.79,-47.57 250.08,-37.18 246.05,-28.27"/>
<polygon fill="#63b8ff" stroke="#63b8ff" points="249.2,-26.75 241.89,-19.09 242.83,-29.64 249.2,-26.75"/>
</a>
</g>
</g>
<!-- Node9&#45;&gt;Node3 -->
<g id="edge10_Node000009_Node000003" class="edge">
<title>Node9&#45;&gt;Node3</title>
<g id="a_edge10_Node000009_Node000003"><a xlink:title=" ">
<path fill="none" stroke="#63b8ff" d="M236.23,-109.84C240.91,-101.78 246.82,-91.62 251.8,-83.06"/>
<polygon fill="#63b8ff" stroke="#63b8ff" points="254.91,-84.67 256.91,-74.27 248.85,-81.15 254.91,-84.67"/>
</a>
</g>
</g>
<!-- Node9&#45;&gt;Node4 -->
<g id="edge9_Node000009_Node000004" class="edge">
<title>Node9&#45;&gt;Node4</title>
<g id="a_edge9_Node000009_Node000004"><a xlink:title=" ">
<path fill="none" stroke="#63b8ff" d="M176,-122.64C135.97,-118.83 81.93,-107.26 48,-74 36.07,-62.3 31.56,-43.45 29.89,-29.32"/>
<polygon fill="#63b8ff" stroke="#63b8ff" points="33.37,-28.91 29.08,-19.23 26.39,-29.48 33.37,-28.91"/>
</a>
</g>
</g>
<!-- Node10 -->
<g id="Node000010" class="node">
<title>Node10</title>
<g id="a_Node000010"><a xlink:title=" ">
<polygon fill="#e0e0e0" stroke="#999999" points="176.5,-74 57.5,-74 57.5,-55 176.5,-55 176.5,-74"/>
<text text-anchor="middle" x="117" y="-62" font-family="Helvetica,sans-Serif" font-size="10.00">AMReX_ParmParse.H</text>
</a>
</g>
</g>
<!-- Node9&#45;&gt;Node10 -->
<g id="edge11_Node000009_Node000010" class="edge">
<title>Node9&#45;&gt;Node10</title>
<g id="a_edge11_Node000009_Node000010"><a xlink:title=" ">
<path fill="none" stroke="#63b8ff" d="M201.41,-109.99C183.55,-100.58 160.16,-88.24 142.52,-78.95"/>
<polygon fill="#63b8ff" stroke="#63b8ff" points="143.87,-75.71 133.39,-74.14 140.61,-81.9 143.87,-75.71"/>
</a>
</g>
</g>
<!-- Node9&#45;&gt;Node11 -->
<g id="edge12_Node000009_Node000011" class="edge">
<title>Node9&#45;&gt;Node11</title>
<g id="a_edge12_Node000009_Node000011"><a xlink:title=" ">
<path fill="none" stroke="#63b8ff" d="M267.52,-109.99C295.42,-100.1 332.41,-86.98 359,-77.56"/>
<polygon fill="#63b8ff" stroke="#63b8ff" points="360.38,-80.78 368.63,-74.14 358.04,-74.18 360.38,-80.78"/>
</a>
</g>
</g>
<!-- Node12&#45;&gt;Node11 -->
<g id="edge14_Node000012_Node000011" class="edge">
<title>Node12&#45;&gt;Node11</title>
<g id="a_edge14_Node000012_Node000011"><a xlink:title=" ">
<path fill="none" stroke="#63b8ff" d="M418.01,-109.84C413.47,-101.78 407.73,-91.62 402.9,-83.06"/>
<polygon fill="#63b8ff" stroke="#63b8ff" points="405.91,-81.26 397.94,-74.27 399.81,-84.7 405.91,-81.26"/>
</a>
</g>
</g>
<!-- Node13 -->
<g id="Node000013" class="node">
<title>Node13</title>
<g id="a_Node000013"><a xlink:title=" ">
<polygon fill="#e0e0e0" stroke="#999999" points="701,-74 609,-74 609,-55 701,-55 701,-74"/>
<text text-anchor="middle" x="655" y="-62" font-family="Helvetica,sans-Serif" font-size="10.00">AMReX_Math.H</text>
</a>
</g>
</g>
<!-- Node12&#45;&gt;Node13 -->
<g id="edge15_Node000012_Node000013" class="edge">
<title>Node12&#45;&gt;Node13</title>
<g id="a_edge15_Node000012_Node000013"><a xlink:title=" ">
<path fill="none" stroke="#63b8ff" d="M477.68,-110.8C518.12,-100.47 573.72,-86.26 611.81,-76.53"/>
<polygon fill="#63b8ff" stroke="#63b8ff" points="612.76,-79.9 621.58,-74.04 611.03,-73.12 612.76,-79.9"/>
</a>
</g>
</g>
<!-- Node14 -->
<g id="Node000014" class="node">
<title>Node14</title>
<g id="a_Node000014"><a xlink:title=" ">
<polygon fill="#e0e0e0" stroke="#999999" points="591,-74 457,-74 457,-55 591,-55 591,-74"/>
<text text-anchor="middle" x="524" y="-62" font-family="Helvetica,sans-Serif" font-size="10.00">AMReX_GpuQualifiers.H</text>
</a>
</g>
</g>
<!-- Node12&#45;&gt;Node14 -->
<g id="edge16_Node000012_Node000014" class="edge">
<title>Node12&#45;&gt;Node14</title>
<g id="a_edge16_Node000012_Node000014"><a xlink:title=" ">
<path fill="none" stroke="#63b8ff" d="M449.72,-109.84C465.2,-100.6 485.32,-88.59 500.71,-79.4"/>
<polygon fill="#63b8ff" stroke="#63b8ff" points="502.81,-82.23 509.6,-74.09 499.22,-76.21 502.81,-82.23"/>
</a>
</g>
</g>
</g>
</svg>
