<?xml version="1.0" encoding="UTF-8" standalone="no"?>
<!DOCTYPE svg PUBLIC "-//W3C//DTD SVG 1.1//EN"
 "http://www.w3.org/Graphics/SVG/1.1/DTD/svg11.dtd">
<!-- Generated by graphviz version 2.43.0 (0)
 -->
<!-- Title: /home/runner/work/amr&#45;wind/amr&#45;wind/amr&#45;wind/utilities/tagging/RefinementCriteria.H Pages: 1 -->
<svg width="2326pt" height="302pt"
 viewBox="0.00 0.00 2326.00 302.00" xmlns="http://www.w3.org/2000/svg" xmlns:xlink="http://www.w3.org/1999/xlink">
<g id="graph0" class="graph" transform="scale(1 1) rotate(0) translate(4 298)">
<title>/home/runner/work/amr&#45;wind/amr&#45;wind/amr&#45;wind/utilities/tagging/RefinementCriteria.H</title>
<!-- Node1 -->
<g id="Node000001" class="node">
<title>Node1</title>
<g id="a_Node000001"><a xlink:title=" ">
<polygon fill="#999999" stroke="#666666" points="1190.5,-294 988.5,-294 988.5,-253 1190.5,-253 1190.5,-294"/>
<text text-anchor="start" x="996.5" y="-282" font-family="Helvetica,sans-Serif" font-size="10.00">/home/runner/work/amr</text>
<text text-anchor="start" x="996.5" y="-271" font-family="Helvetica,sans-Serif" font-size="10.00">&#45;wind/amr&#45;wind/amr&#45;wind</text>
<text text-anchor="middle" x="1089.5" y="-260" font-family="Helvetica,sans-Serif" font-size="10.00">/utilities/tagging/RefinementCriteria.H</text>
</a>
</g>
</g>
<!-- Node2 -->
<g id="Node000002" class="node">
<title>Node2</title>
<g id="a_Node000002"><a xlink:href="incflo_8cpp.html" target="_top" xlink:title=" ">
<polygon fill="white" stroke="#666666" points="143,-211.5 0,-211.5 0,-170.5 143,-170.5 143,-211.5"/>
<text text-anchor="start" x="8" y="-199.5" font-family="Helvetica,sans-Serif" font-size="10.00">/home/runner/work/amr</text>
<text text-anchor="start" x="8" y="-188.5" font-family="Helvetica,sans-Serif" font-size="10.00">&#45;wind/amr&#45;wind/amr&#45;wind</text>
<text text-anchor="middle" x="71.5" y="-177.5" font-family="Helvetica,sans-Serif" font-size="10.00">/incflo.cpp</text>
</a>
</g>
</g>
<!-- Node1&#45;&gt;Node2 -->
<g id="edge1_Node000001_Node000002" class="edge">
<title>Node1&#45;&gt;Node2</title>
<g id="a_edge1_Node000001_Node000002"><a xlink:title=" ">
<path fill="none" stroke="#63b8ff" d="M978.27,-268.99C766.38,-261.79 312.19,-243.74 157.5,-217 149.38,-215.6 140.94,-213.7 132.65,-211.58"/>
<polygon fill="#63b8ff" stroke="#63b8ff" points="978.37,-272.5 988.48,-269.34 978.61,-265.5 978.37,-272.5"/>
</a>
</g>
</g>
<!-- Node3 -->
<g id="Node000003" class="node">
<title>Node3</title>
<g id="a_Node000003"><a xlink:href="init_8cpp.html" target="_top" xlink:title=" ">
<polygon fill="white" stroke="#666666" points="166,-123.5 23,-123.5 23,-82.5 166,-82.5 166,-123.5"/>
<text text-anchor="start" x="31" y="-111.5" font-family="Helvetica,sans-Serif" font-size="10.00">/home/runner/work/amr</text>
<text text-anchor="start" x="31" y="-100.5" font-family="Helvetica,sans-Serif" font-size="10.00">&#45;wind/amr&#45;wind/amr&#45;wind</text>
<text text-anchor="middle" x="94.5" y="-89.5" font-family="Helvetica,sans-Serif" font-size="10.00">/setup/init.cpp</text>
</a>
</g>
</g>
<!-- Node1&#45;&gt;Node3 -->
<g id="edge2_Node000001_Node000003" class="edge">
<title>Node1&#45;&gt;Node3</title>
<g id="a_edge2_Node000001_Node000003"><a xlink:title=" ">
<path fill="none" stroke="#63b8ff" d="M978.12,-270.82C752.74,-266.68 258.19,-253.5 190.5,-217 165.07,-203.29 170.06,-187.14 151.5,-165 139.49,-150.67 125.11,-135.29 113.8,-123.56"/>
<polygon fill="#63b8ff" stroke="#63b8ff" points="978.26,-274.32 988.32,-271.01 978.38,-267.33 978.26,-274.32"/>
</a>
</g>
</g>
<!-- Node4 -->
<g id="Node000004" class="node">
<title>Node4</title>
<g id="a_Node000004"><a xlink:href="_cart_box_refinement_8_h.html" target="_top" xlink:title=" ">
<polygon fill="white" stroke="#666666" points="405,-211.5 200,-211.5 200,-170.5 405,-170.5 405,-211.5"/>
<text text-anchor="start" x="208" y="-199.5" font-family="Helvetica,sans-Serif" font-size="10.00">/home/runner/work/amr</text>
<text text-anchor="start" x="208" y="-188.5" font-family="Helvetica,sans-Serif" font-size="10.00">&#45;wind/amr&#45;wind/amr&#45;wind</text>
<text text-anchor="middle" x="302.5" y="-177.5" font-family="Helvetica,sans-Serif" font-size="10.00">/utilities/tagging/CartBoxRefinement.H</text>
</a>
</g>
</g>
<!-- Node1&#45;&gt;Node4 -->
<g id="edge3_Node000001_Node000004" class="edge">
<title>Node1&#45;&gt;Node4</title>
<g id="a_edge3_Node000001_Node000004"><a xlink:title=" ">
<path fill="none" stroke="#63b8ff" d="M978.19,-267.72C844.66,-260.97 614.29,-246.07 418.5,-217 408.21,-215.47 397.46,-213.57 386.85,-211.51"/>
<polygon fill="#63b8ff" stroke="#63b8ff" points="978.26,-271.23 988.43,-268.23 978.61,-264.24 978.26,-271.23"/>
</a>
</g>
</g>
<!-- Node6 -->
<g id="Node000006" class="node">
<title>Node6</title>
<g id="a_Node000006"><a xlink:href="_curvature_refinement_8_h.html" target="_top" xlink:title=" ">
<polygon fill="white" stroke="#666666" points="641.5,-211.5 427.5,-211.5 427.5,-170.5 641.5,-170.5 641.5,-211.5"/>
<text text-anchor="start" x="435.5" y="-199.5" font-family="Helvetica,sans-Serif" font-size="10.00">/home/runner/work/amr</text>
<text text-anchor="start" x="435.5" y="-188.5" font-family="Helvetica,sans-Serif" font-size="10.00">&#45;wind/amr&#45;wind/amr&#45;wind</text>
<text text-anchor="middle" x="534.5" y="-177.5" font-family="Helvetica,sans-Serif" font-size="10.00">/utilities/tagging/CurvatureRefinement.H</text>
</a>
</g>
</g>
<!-- Node1&#45;&gt;Node6 -->
<g id="edge6_Node000001_Node000006" class="edge">
<title>Node1&#45;&gt;Node6</title>
<g id="a_edge6_Node000001_Node000006"><a xlink:title=" ">
<path fill="none" stroke="#63b8ff" d="M977.96,-258.43C895.65,-247.78 780.96,-232.41 680.5,-217 667.92,-215.07 654.74,-212.95 641.67,-210.79"/>
<polygon fill="#63b8ff" stroke="#63b8ff" points="977.72,-261.93 988.09,-259.73 978.62,-254.98 977.72,-261.93"/>
</a>
</g>
</g>
<!-- Node8 -->
<g id="Node000008" class="node">
<title>Node8</title>
<g id="a_Node000008"><a xlink:href="_field_refinement_8_h.html" target="_top" xlink:title=" ">
<polygon fill="white" stroke="#666666" points="879,-211.5 690,-211.5 690,-170.5 879,-170.5 879,-211.5"/>
<text text-anchor="start" x="698" y="-199.5" font-family="Helvetica,sans-Serif" font-size="10.00">/home/runner/work/amr</text>
<text text-anchor="start" x="698" y="-188.5" font-family="Helvetica,sans-Serif" font-size="10.00">&#45;wind/amr&#45;wind/amr&#45;wind</text>
<text text-anchor="middle" x="784.5" y="-177.5" font-family="Helvetica,sans-Serif" font-size="10.00">/utilities/tagging/FieldRefinement.H</text>
</a>
</g>
</g>
<!-- Node1&#45;&gt;Node8 -->
<g id="edge8_Node000001_Node000008" class="edge">
<title>Node1&#45;&gt;Node8</title>
<g id="a_edge8_Node000001_Node000008"><a xlink:title=" ">
<path fill="none" stroke="#63b8ff" d="M1005.33,-250.28C959.32,-238.14 902.84,-223.23 858.53,-211.54"/>
<polygon fill="#63b8ff" stroke="#63b8ff" points="1004.72,-253.74 1015.28,-252.91 1006.5,-246.97 1004.72,-253.74"/>
</a>
</g>
</g>
<!-- Node10 -->
<g id="Node000010" class="node">
<title>Node10</title>
<g id="a_Node000010"><a xlink:href="_geometry_refinement_8_h.html" target="_top" xlink:title=" ">
<polygon fill="white" stroke="#666666" points="1197,-211.5 982,-211.5 982,-170.5 1197,-170.5 1197,-211.5"/>
<text text-anchor="start" x="990" y="-199.5" font-family="Helvetica,sans-Serif" font-size="10.00">/home/runner/work/amr</text>
<text text-anchor="start" x="990" y="-188.5" font-family="Helvetica,sans-Serif" font-size="10.00">&#45;wind/amr&#45;wind/amr&#45;wind</text>
<text text-anchor="middle" x="1089.5" y="-177.5" font-family="Helvetica,sans-Serif" font-size="10.00">/utilities/tagging/GeometryRefinement.H</text>
</a>
</g>
</g>
<!-- Node1&#45;&gt;Node10 -->
<g id="edge10_Node000001_Node000010" class="edge">
<title>Node1&#45;&gt;Node10</title>
<g id="a_edge10_Node000001_Node000010"><a xlink:title=" ">
<path fill="none" stroke="#63b8ff" d="M1089.5,-242.37C1089.5,-232.1 1089.5,-220.9 1089.5,-211.67"/>
<polygon fill="#63b8ff" stroke="#63b8ff" points="1086,-242.6 1089.5,-252.6 1093,-242.6 1086,-242.6"/>
</a>
</g>
</g>
<!-- Node16 -->
<g id="Node000016" class="node">
<title>Node16</title>
<g id="a_Node000016"><a xlink:href="_gradient_mag_refinement_8_h.html" target="_top" xlink:title=" ">
<polygon fill="white" stroke="#666666" points="1377.5,-217 1215.5,-217 1215.5,-165 1377.5,-165 1377.5,-217"/>
<text text-anchor="start" x="1223.5" y="-205" font-family="Helvetica,sans-Serif" font-size="10.00">/home/runner/work/amr</text>
<text text-anchor="start" x="1223.5" y="-194" font-family="Helvetica,sans-Serif" font-size="10.00">&#45;wind/amr&#45;wind/amr&#45;wind</text>
<text text-anchor="start" x="1223.5" y="-183" font-family="Helvetica,sans-Serif" font-size="10.00">/utilities/tagging/GradientMag</text>
<text text-anchor="middle" x="1296.5" y="-172" font-family="Helvetica,sans-Serif" font-size="10.00">Refinement.H</text>
</a>
</g>
</g>
<!-- Node1&#45;&gt;Node16 -->
<g id="edge16_Node000001_Node000016" class="edge">
<title>Node1&#45;&gt;Node16</title>
<g id="a_edge16_Node000001_Node000016"><a xlink:title=" ">
<path fill="none" stroke="#63b8ff" d="M1149.22,-249.28C1175.18,-239.18 1205.65,-227.33 1232.12,-217.04"/>
<polygon fill="#63b8ff" stroke="#63b8ff" points="1147.92,-246.02 1139.87,-252.91 1150.46,-252.55 1147.92,-246.02"/>
</a>
</g>
</g>
<!-- Node18 -->
<g id="Node000018" class="node">
<title>Node18</title>
<g id="a_Node000018"><a xlink:href="_overset_refinement_8_h.html" target="_top" xlink:title=" ">
<polygon fill="white" stroke="#666666" points="1599.5,-211.5 1395.5,-211.5 1395.5,-170.5 1599.5,-170.5 1599.5,-211.5"/>
<text text-anchor="start" x="1403.5" y="-199.5" font-family="Helvetica,sans-Serif" font-size="10.00">/home/runner/work/amr</text>
<text text-anchor="start" x="1403.5" y="-188.5" font-family="Helvetica,sans-Serif" font-size="10.00">&#45;wind/amr&#45;wind/amr&#45;wind</text>
<text text-anchor="middle" x="1497.5" y="-177.5" font-family="Helvetica,sans-Serif" font-size="10.00">/utilities/tagging/OversetRefinement.H</text>
</a>
</g>
</g>
<!-- Node1&#45;&gt;Node18 -->
<g id="edge18_Node000001_Node000018" class="edge">
<title>Node1&#45;&gt;Node18</title>
<g id="a_edge18_Node000001_Node000018"><a xlink:title=" ">
<path fill="none" stroke="#63b8ff" d="M1200.64,-252.73C1256.5,-242.54 1325.19,-229.63 1386.5,-217 1394.82,-215.29 1403.48,-213.44 1412.12,-211.56"/>
<polygon fill="#63b8ff" stroke="#63b8ff" points="1199.93,-249.3 1190.72,-254.54 1201.18,-256.19 1199.93,-249.3"/>
</a>
</g>
</g>
<!-- Node20 -->
<g id="Node000020" class="node">
<title>Node20</title>
<g id="a_Node000020"><a xlink:href="_q_criterion_refinement_8_h.html" target="_top" xlink:title=" ">
<polygon fill="white" stroke="#666666" points="1833,-211.5 1618,-211.5 1618,-170.5 1833,-170.5 1833,-211.5"/>
<text text-anchor="start" x="1626" y="-199.5" font-family="Helvetica,sans-Serif" font-size="10.00">/home/runner/work/amr</text>
<text text-anchor="start" x="1626" y="-188.5" font-family="Helvetica,sans-Serif" font-size="10.00">&#45;wind/amr&#45;wind/amr&#45;wind</text>
<text text-anchor="middle" x="1725.5" y="-177.5" font-family="Helvetica,sans-Serif" font-size="10.00">/utilities/tagging/QCriterionRefinement.H</text>
</a>
</g>
</g>
<!-- Node1&#45;&gt;Node20 -->
<g id="edge20_Node000001_Node000020" class="edge">
<title>Node1&#45;&gt;Node20</title>
<g id="a_edge20_Node000001_Node000020"><a xlink:title=" ">
<path fill="none" stroke="#63b8ff" d="M1200.88,-263.96C1306.28,-255.09 1468.72,-239.35 1608.5,-217 1618.45,-215.41 1628.83,-213.52 1639.11,-211.51"/>
<polygon fill="#63b8ff" stroke="#63b8ff" points="1200.54,-260.48 1190.86,-264.8 1201.12,-267.45 1200.54,-260.48"/>
</a>
</g>
</g>
<!-- Node22 -->
<g id="Node000022" class="node">
<title>Node22</title>
<g id="a_Node000022"><a xlink:href="_refinement_criteria_8cpp.html" target="_top" xlink:title=" ">
<polygon fill="white" stroke="#666666" points="2063.5,-211.5 1851.5,-211.5 1851.5,-170.5 2063.5,-170.5 2063.5,-211.5"/>
<text text-anchor="start" x="1859.5" y="-199.5" font-family="Helvetica,sans-Serif" font-size="10.00">/home/runner/work/amr</text>
<text text-anchor="start" x="1859.5" y="-188.5" font-family="Helvetica,sans-Serif" font-size="10.00">&#45;wind/amr&#45;wind/amr&#45;wind</text>
<text text-anchor="middle" x="1957.5" y="-177.5" font-family="Helvetica,sans-Serif" font-size="10.00">/utilities/tagging/RefinementCriteria.cpp</text>
</a>
</g>
</g>
<!-- Node1&#45;&gt;Node22 -->
<g id="edge22_Node000001_Node000022" class="edge">
<title>Node1&#45;&gt;Node22</title>
<g id="a_edge22_Node000001_Node000022"><a xlink:title=" ">
<path fill="none" stroke="#63b8ff" d="M1201.19,-269.17C1348.68,-263.65 1616.2,-249.77 1842.5,-217 1852.81,-215.51 1863.58,-213.62 1874.21,-211.55"/>
<polygon fill="#63b8ff" stroke="#63b8ff" points="1200.64,-265.69 1190.78,-269.55 1200.9,-272.68 1200.64,-265.69"/>
</a>
</g>
</g>
<!-- Node23 -->
<g id="Node000023" class="node">
<title>Node23</title>
<g id="a_Node000023"><a xlink:href="_vorticity_mag_refinement_8_h.html" target="_top" xlink:title=" ">
<polygon fill="white" stroke="#666666" points="2293,-217 2132,-217 2132,-165 2293,-165 2293,-217"/>
<text text-anchor="start" x="2140" y="-205" font-family="Helvetica,sans-Serif" font-size="10.00">/home/runner/work/amr</text>
<text text-anchor="start" x="2140" y="-194" font-family="Helvetica,sans-Serif" font-size="10.00">&#45;wind/amr&#45;wind/amr&#45;wind</text>
<text text-anchor="start" x="2140" y="-183" font-family="Helvetica,sans-Serif" font-size="10.00">/utilities/tagging/VorticityMag</text>
<text text-anchor="middle" x="2212.5" y="-172" font-family="Helvetica,sans-Serif" font-size="10.00">Refinement.H</text>
</a>
</g>
</g>
<!-- Node1&#45;&gt;Node23 -->
<g id="edge23_Node000001_Node000023" class="edge">
<title>Node1&#45;&gt;Node23</title>
<g id="a_edge23_Node000001_Node000023"><a xlink:title=" ">
<path fill="none" stroke="#63b8ff" d="M1200.82,-270.57C1383.43,-266.43 1757.79,-253.85 2072.5,-217 2091.75,-214.75 2112.36,-211.52 2131.68,-208.14"/>
<polygon fill="#63b8ff" stroke="#63b8ff" points="1200.59,-267.08 1190.67,-270.8 1200.75,-274.07 1200.59,-267.08"/>
</a>
</g>
</g>
<!-- Node4&#45;&gt;Node3 -->
<g id="edge4_Node000004_Node000003" class="edge">
<title>Node4&#45;&gt;Node3</title>
<g id="a_edge4_Node000004_Node000003"><a xlink:title=" ">
<path fill="none" stroke="#63b8ff" d="M245.89,-166.6C213.29,-153.12 172.78,-136.37 141.87,-123.59"/>
<polygon fill="#63b8ff" stroke="#63b8ff" points="244.72,-169.9 255.3,-170.49 247.4,-163.43 244.72,-169.9"/>
</a>
</g>
</g>
<!-- Node5 -->
<g id="Node000005" class="node">
<title>Node5</title>
<g id="a_Node000005"><a xlink:href="_cart_box_refinement_8cpp.html" target="_top" xlink:title=" ">
<polygon fill="white" stroke="#666666" points="399,-123.5 184,-123.5 184,-82.5 399,-82.5 399,-123.5"/>
<text text-anchor="start" x="192" y="-111.5" font-family="Helvetica,sans-Serif" font-size="10.00">/home/runner/work/amr</text>
<text text-anchor="start" x="192" y="-100.5" font-family="Helvetica,sans-Serif" font-size="10.00">&#45;wind/amr&#45;wind/amr&#45;wind</text>
<text text-anchor="middle" x="291.5" y="-89.5" font-family="Helvetica,sans-Serif" font-size="10.00">/utilities/tagging/CartBoxRefinement.cpp</text>
</a>
</g>
</g>
<!-- Node4&#45;&gt;Node5 -->
<g id="edge5_Node000004_Node000005" class="edge">
<title>Node4&#45;&gt;Node5</title>
<g id="a_edge5_Node000004_Node000005"><a xlink:title=" ">
<path fill="none" stroke="#63b8ff" d="M298.71,-160.36C297.16,-148.26 295.41,-134.58 294.02,-123.74"/>
<polygon fill="#63b8ff" stroke="#63b8ff" points="295.26,-161.01 300,-170.49 302.21,-160.12 295.26,-161.01"/>
</a>
</g>
</g>
<!-- Node7 -->
<g id="Node000007" class="node">
<title>Node7</title>
<g id="a_Node000007"><a xlink:href="_curvature_refinement_8cpp.html" target="_top" xlink:title=" ">
<polygon fill="white" stroke="#666666" points="641.5,-123.5 417.5,-123.5 417.5,-82.5 641.5,-82.5 641.5,-123.5"/>
<text text-anchor="start" x="425.5" y="-111.5" font-family="Helvetica,sans-Serif" font-size="10.00">/home/runner/work/amr</text>
<text text-anchor="start" x="425.5" y="-100.5" font-family="Helvetica,sans-Serif" font-size="10.00">&#45;wind/amr&#45;wind/amr&#45;wind</text>
<text text-anchor="middle" x="529.5" y="-89.5" font-family="Helvetica,sans-Serif" font-size="10.00">/utilities/tagging/CurvatureRefinement.cpp</text>
</a>
</g>
</g>
<!-- Node6&#45;&gt;Node7 -->
<g id="edge7_Node000006_Node000007" class="edge">
<title>Node6&#45;&gt;Node7</title>
<g id="a_edge7_Node000006_Node000007"><a xlink:title=" ">
<path fill="none" stroke="#63b8ff" d="M532.78,-160.36C532.07,-148.26 531.28,-134.58 530.65,-123.74"/>
<polygon fill="#63b8ff" stroke="#63b8ff" points="529.29,-160.71 533.37,-170.49 536.28,-160.3 529.29,-160.71"/>
</a>
</g>
</g>
<!-- Node9 -->
<g id="Node000009" class="node">
<title>Node9</title>
<g id="a_Node000009"><a xlink:href="_field_refinement_8cpp.html" target="_top" xlink:title=" ">
<polygon fill="white" stroke="#666666" points="859,-123.5 660,-123.5 660,-82.5 859,-82.5 859,-123.5"/>
<text text-anchor="start" x="668" y="-111.5" font-family="Helvetica,sans-Serif" font-size="10.00">/home/runner/work/amr</text>
<text text-anchor="start" x="668" y="-100.5" font-family="Helvetica,sans-Serif" font-size="10.00">&#45;wind/amr&#45;wind/amr&#45;wind</text>
<text text-anchor="middle" x="759.5" y="-89.5" font-family="Helvetica,sans-Serif" font-size="10.00">/utilities/tagging/FieldRefinement.cpp</text>
</a>
</g>
</g>
<!-- Node8&#45;&gt;Node9 -->
<g id="edge9_Node000008_Node000009" class="edge">
<title>Node8&#45;&gt;Node9</title>
<g id="a_edge9_Node000008_Node000009"><a xlink:title=" ">
<path fill="none" stroke="#63b8ff" d="M775.99,-160.73C772.45,-148.53 768.42,-134.69 765.24,-123.74"/>
<polygon fill="#63b8ff" stroke="#63b8ff" points="772.67,-161.86 778.83,-170.49 779.4,-159.91 772.67,-161.86"/>
</a>
</g>
</g>
<!-- Node11 -->
<g id="Node000011" class="node">
<title>Node11</title>
<g id="a_Node000011"><a xlink:href="_box_refiner_8_h.html" target="_top" xlink:title=" ">
<polygon fill="white" stroke="#666666" points="1039.5,-123.5 877.5,-123.5 877.5,-82.5 1039.5,-82.5 1039.5,-123.5"/>
<text text-anchor="start" x="885.5" y="-111.5" font-family="Helvetica,sans-Serif" font-size="10.00">/home/runner/work/amr</text>
<text text-anchor="start" x="885.5" y="-100.5" font-family="Helvetica,sans-Serif" font-size="10.00">&#45;wind/amr&#45;wind/amr&#45;wind</text>
<text text-anchor="middle" x="958.5" y="-89.5" font-family="Helvetica,sans-Serif" font-size="10.00">/utilities/tagging/BoxRefiner.H</text>
</a>
</g>
</g>
<!-- Node10&#45;&gt;Node11 -->
<g id="edge11_Node000010_Node000011" class="edge">
<title>Node10&#45;&gt;Node11</title>
<g id="a_edge11_Node000010_Node000011"><a xlink:title=" ">
<path fill="none" stroke="#63b8ff" d="M1051.21,-164.86C1031.24,-151.75 1007.17,-135.95 988.56,-123.74"/>
<polygon fill="#63b8ff" stroke="#63b8ff" points="1049.49,-167.92 1059.77,-170.49 1053.34,-162.07 1049.49,-167.92"/>
</a>
</g>
</g>
<!-- Node13 -->
<g id="Node000013" class="node">
<title>Node13</title>
<g id="a_Node000013"><a xlink:href="_cylinder_refiner_8_h.html" target="_top" xlink:title=" ">
<polygon fill="white" stroke="#666666" points="1241.5,-123.5 1057.5,-123.5 1057.5,-82.5 1241.5,-82.5 1241.5,-123.5"/>
<text text-anchor="start" x="1065.5" y="-111.5" font-family="Helvetica,sans-Serif" font-size="10.00">/home/runner/work/amr</text>
<text text-anchor="start" x="1065.5" y="-100.5" font-family="Helvetica,sans-Serif" font-size="10.00">&#45;wind/amr&#45;wind/amr&#45;wind</text>
<text text-anchor="middle" x="1149.5" y="-89.5" font-family="Helvetica,sans-Serif" font-size="10.00">/utilities/tagging/CylinderRefiner.H</text>
</a>
</g>
</g>
<!-- Node10&#45;&gt;Node13 -->
<g id="edge13_Node000010_Node000013" class="edge">
<title>Node10&#45;&gt;Node13</title>
<g id="a_edge13_Node000010_Node000013"><a xlink:title=" ">
<path fill="none" stroke="#63b8ff" d="M1108.91,-162.18C1117.65,-149.64 1127.78,-135.13 1135.73,-123.74"/>
<polygon fill="#63b8ff" stroke="#63b8ff" points="1105.97,-160.28 1103.11,-170.49 1111.71,-164.29 1105.97,-160.28"/>
</a>
</g>
</g>
<!-- Node15 -->
<g id="Node000015" class="node">
<title>Node15</title>
<g id="a_Node000015"><a xlink:href="_geometry_refinement_8cpp.html" target="_top" xlink:title=" ">
<polygon fill="white" stroke="#666666" points="1483.5,-123.5 1259.5,-123.5 1259.5,-82.5 1483.5,-82.5 1483.5,-123.5"/>
<text text-anchor="start" x="1267.5" y="-111.5" font-family="Helvetica,sans-Serif" font-size="10.00">/home/runner/work/amr</text>
<text text-anchor="start" x="1267.5" y="-100.5" font-family="Helvetica,sans-Serif" font-size="10.00">&#45;wind/amr&#45;wind/amr&#45;wind</text>
<text text-anchor="middle" x="1371.5" y="-89.5" font-family="Helvetica,sans-Serif" font-size="10.00">/utilities/tagging/GeometryRefinement.cpp</text>
</a>
</g>
</g>
<!-- Node10&#45;&gt;Node15 -->
<g id="edge15_Node000010_Node000015" class="edge">
<title>Node10&#45;&gt;Node15</title>
<g id="a_edge15_Node000010_Node000015"><a xlink:title=" ">
<path fill="none" stroke="#63b8ff" d="M1163.13,-167.54C1207.85,-153.91 1264.38,-136.67 1307.28,-123.59"/>
<polygon fill="#63b8ff" stroke="#63b8ff" points="1162.03,-164.22 1153.49,-170.49 1164.08,-170.92 1162.03,-164.22"/>
</a>
</g>
</g>
<!-- Node12 -->
<g id="Node000012" class="node">
<title>Node12</title>
<g id="a_Node000012"><a xlink:href="_box_refiner_8cpp.html" target="_top" xlink:title=" ">
<polygon fill="white" stroke="#666666" points="1039.5,-41 867.5,-41 867.5,0 1039.5,0 1039.5,-41"/>
<text text-anchor="start" x="875.5" y="-29" font-family="Helvetica,sans-Serif" font-size="10.00">/home/runner/work/amr</text>
<text text-anchor="start" x="875.5" y="-18" font-family="Helvetica,sans-Serif" font-size="10.00">&#45;wind/amr&#45;wind/amr&#45;wind</text>
<text text-anchor="middle" x="953.5" y="-7" font-family="Helvetica,sans-Serif" font-size="10.00">/utilities/tagging/BoxRefiner.cpp</text>
</a>
</g>
</g>
<!-- Node11&#45;&gt;Node12 -->
<g id="edge12_Node000011_Node000012" class="edge">
<title>Node11&#45;&gt;Node12</title>
<g id="a_edge12_Node000011_Node000012"><a xlink:title=" ">
<path fill="none" stroke="#63b8ff" d="M956.63,-71.87C955.99,-61.6 955.29,-50.4 954.72,-41.17"/>
<polygon fill="#63b8ff" stroke="#63b8ff" points="953.15,-72.34 957.26,-82.1 960.14,-71.9 953.15,-72.34"/>
</a>
</g>
</g>
<!-- Node14 -->
<g id="Node000014" class="node">
<title>Node14</title>
<g id="a_Node000014"><a xlink:href="_cylinder_refiner_8cpp.html" target="_top" xlink:title=" ">
<polygon fill="white" stroke="#666666" points="1251.5,-41 1057.5,-41 1057.5,0 1251.5,0 1251.5,-41"/>
<text text-anchor="start" x="1065.5" y="-29" font-family="Helvetica,sans-Serif" font-size="10.00">/home/runner/work/amr</text>
<text text-anchor="start" x="1065.5" y="-18" font-family="Helvetica,sans-Serif" font-size="10.00">&#45;wind/amr&#45;wind/amr&#45;wind</text>
<text text-anchor="middle" x="1154.5" y="-7" font-family="Helvetica,sans-Serif" font-size="10.00">/utilities/tagging/CylinderRefiner.cpp</text>
</a>
</g>
</g>
<!-- Node13&#45;&gt;Node14 -->
<g id="edge14_Node000013_Node000014" class="edge">
<title>Node13&#45;&gt;Node14</title>
<g id="a_edge14_Node000013_Node000014"><a xlink:title=" ">
<path fill="none" stroke="#63b8ff" d="M1151.37,-71.87C1152.01,-61.6 1152.71,-50.4 1153.28,-41.17"/>
<polygon fill="#63b8ff" stroke="#63b8ff" points="1147.86,-71.9 1150.74,-82.1 1154.85,-72.34 1147.86,-71.9"/>
</a>
</g>
</g>
<!-- Node17 -->
<g id="Node000017" class="node">
<title>Node17</title>
<g id="a_Node000017"><a xlink:href="_gradient_mag_refinement_8cpp.html" target="_top" xlink:title=" ">
<polygon fill="white" stroke="#666666" points="1663.5,-129 1501.5,-129 1501.5,-77 1663.5,-77 1663.5,-129"/>
<text text-anchor="start" x="1509.5" y="-117" font-family="Helvetica,sans-Serif" font-size="10.00">/home/runner/work/amr</text>
<text text-anchor="start" x="1509.5" y="-106" font-family="Helvetica,sans-Serif" font-size="10.00">&#45;wind/amr&#45;wind/amr&#45;wind</text>
<text text-anchor="start" x="1509.5" y="-95" font-family="Helvetica,sans-Serif" font-size="10.00">/utilities/tagging/GradientMag</text>
<text text-anchor="middle" x="1582.5" y="-84" font-family="Helvetica,sans-Serif" font-size="10.00">Refinement.cpp</text>
</a>
</g>
</g>
<!-- Node16&#45;&gt;Node17 -->
<g id="edge17_Node000016_Node000017" class="edge">
<title>Node16&#45;&gt;Node17</title>
<g id="a_edge17_Node000016_Node000017"><a xlink:title=" ">
<path fill="none" stroke="#63b8ff" d="M1387.34,-162.68C1423.85,-151.71 1465.61,-139.15 1501.11,-128.48"/>
<polygon fill="#63b8ff" stroke="#63b8ff" points="1386.26,-159.35 1377.69,-165.59 1388.28,-166.06 1386.26,-159.35"/>
</a>
</g>
</g>
<!-- Node19 -->
<g id="Node000019" class="node">
<title>Node19</title>
<g id="a_Node000019"><a xlink:href="_overset_refinement_8cpp.html" target="_top" xlink:title=" ">
<polygon fill="white" stroke="#666666" points="1895.5,-123.5 1681.5,-123.5 1681.5,-82.5 1895.5,-82.5 1895.5,-123.5"/>
<text text-anchor="start" x="1689.5" y="-111.5" font-family="Helvetica,sans-Serif" font-size="10.00">/home/runner/work/amr</text>
<text text-anchor="start" x="1689.5" y="-100.5" font-family="Helvetica,sans-Serif" font-size="10.00">&#45;wind/amr&#45;wind/amr&#45;wind</text>
<text text-anchor="middle" x="1788.5" y="-89.5" font-family="Helvetica,sans-Serif" font-size="10.00">/utilities/tagging/OversetRefinement.cpp</text>
</a>
</g>
</g>
<!-- Node18&#45;&gt;Node19 -->
<g id="edge19_Node000018_Node000019" class="edge">
<title>Node18&#45;&gt;Node19</title>
<g id="a_edge19_Node000018_Node000019"><a xlink:title=" ">
<path fill="none" stroke="#63b8ff" d="M1573.21,-167.63C1619.48,-153.95 1678.1,-136.63 1722.48,-123.51"/>
<polygon fill="#63b8ff" stroke="#63b8ff" points="1572.13,-164.29 1563.53,-170.49 1574.11,-171.01 1572.13,-164.29"/>
</a>
</g>
</g>
<!-- Node21 -->
<g id="Node000021" class="node">
<title>Node21</title>
<g id="a_Node000021"><a xlink:href="_q_criterion_refinement_8cpp.html" target="_top" xlink:title=" ">
<polygon fill="white" stroke="#666666" points="2139,-123.5 1914,-123.5 1914,-82.5 2139,-82.5 2139,-123.5"/>
<text text-anchor="start" x="1922" y="-111.5" font-family="Helvetica,sans-Serif" font-size="10.00">/home/runner/work/amr</text>
<text text-anchor="start" x="1922" y="-100.5" font-family="Helvetica,sans-Serif" font-size="10.00">&#45;wind/amr&#45;wind/amr&#45;wind</text>
<text text-anchor="middle" x="2026.5" y="-89.5" font-family="Helvetica,sans-Serif" font-size="10.00">/utilities/tagging/QCriterionRefinement.cpp</text>
</a>
</g>
</g>
<!-- Node20&#45;&gt;Node21 -->
<g id="edge21_Node000020_Node000021" class="edge">
<title>Node20&#45;&gt;Node21</title>
<g id="a_edge21_Node000020_Node000021"><a xlink:title=" ">
<path fill="none" stroke="#63b8ff" d="M1803.51,-167.71C1851.42,-154.02 1912.21,-136.66 1958.21,-123.51"/>
<polygon fill="#63b8ff" stroke="#63b8ff" points="1802.46,-164.37 1793.8,-170.49 1804.38,-171.1 1802.46,-164.37"/>
</a>
</g>
</g>
<!-- Node24 -->
<g id="Node000024" class="node">
<title>Node24</title>
<g id="a_Node000024"><a xlink:href="_vorticity_mag_refinement_8cpp.html" target="_top" xlink:title=" ">
<polygon fill="white" stroke="#666666" points="2318,-129 2157,-129 2157,-77 2318,-77 2318,-129"/>
<text text-anchor="start" x="2165" y="-117" font-family="Helvetica,sans-Serif" font-size="10.00">/home/runner/work/amr</text>
<text text-anchor="start" x="2165" y="-106" font-family="Helvetica,sans-Serif" font-size="10.00">&#45;wind/amr&#45;wind/amr&#45;wind</text>
<text text-anchor="start" x="2165" y="-95" font-family="Helvetica,sans-Serif" font-size="10.00">/utilities/tagging/VorticityMag</text>
<text text-anchor="middle" x="2237.5" y="-84" font-family="Helvetica,sans-Serif" font-size="10.00">Refinement.cpp</text>
</a>
</g>
</g>
<!-- Node23&#45;&gt;Node24 -->
<g id="edge24_Node000023_Node000024" class="edge">
<title>Node23&#45;&gt;Node24</title>
<g id="a_edge24_Node000023_Node000024"><a xlink:title=" ">
<path fill="none" stroke="#63b8ff" d="M2222.72,-154.84C2225.22,-146.23 2227.85,-137.19 2230.19,-129.16"/>
<polygon fill="#63b8ff" stroke="#63b8ff" points="2219.3,-154.08 2219.87,-164.66 2226.02,-156.04 2219.3,-154.08"/>
</a>
</g>
</g>
</g>
</svg>
