<?xml version="1.0" encoding="UTF-8" standalone="no"?>
<!DOCTYPE svg PUBLIC "-//W3C//DTD SVG 1.1//EN"
 "http://www.w3.org/Graphics/SVG/1.1/DTD/svg11.dtd">
<!-- Generated by graphviz version 2.43.0 (0)
 -->
<!-- Title: /home/runner/work/amr&#45;wind/amr&#45;wind/amr&#45;wind/equation_systems/sdr/SDR.H Pages: 1 -->
<svg width="638pt" height="203pt"
 viewBox="0.00 0.00 638.00 203.00" xmlns="http://www.w3.org/2000/svg" xmlns:xlink="http://www.w3.org/1999/xlink">
<g id="graph0" class="graph" transform="scale(1 1) rotate(0) translate(4 199)">
<title>/home/runner/work/amr&#45;wind/amr&#45;wind/amr&#45;wind/equation_systems/sdr/SDR.H</title>
<!-- Node1 -->
<g id="Node000001" class="node">
<title>Node1</title>
<g id="a_Node000001"><a xlink:title=" ">
<polygon fill="#999999" stroke="#666666" points="375.5,-195 214.5,-195 214.5,-154 375.5,-154 375.5,-195"/>
<text text-anchor="start" x="222.5" y="-183" font-family="Helvetica,sans-Serif" font-size="10.00">/home/runner/work/amr</text>
<text text-anchor="start" x="222.5" y="-172" font-family="Helvetica,sans-Serif" font-size="10.00">&#45;wind/amr&#45;wind/amr&#45;wind</text>
<text text-anchor="middle" x="295" y="-161" font-family="Helvetica,sans-Serif" font-size="10.00">/equation_systems/sdr/SDR.H</text>
</a>
</g>
</g>
<!-- Node2 -->
<g id="Node000002" class="node">
<title>Node2</title>
<g id="a_Node000002"><a xlink:href="_s_d_r_8cpp.html" target="_top" xlink:title=" ">
<polygon fill="white" stroke="#666666" points="170,-41 0,-41 0,0 170,0 170,-41"/>
<text text-anchor="start" x="8" y="-29" font-family="Helvetica,sans-Serif" font-size="10.00">/home/runner/work/amr</text>
<text text-anchor="start" x="8" y="-18" font-family="Helvetica,sans-Serif" font-size="10.00">&#45;wind/amr&#45;wind/amr&#45;wind</text>
<text text-anchor="middle" x="85" y="-7" font-family="Helvetica,sans-Serif" font-size="10.00">/equation_systems/sdr/SDR.cpp</text>
</a>
</g>
</g>
<!-- Node1&#45;&gt;Node2 -->
<g id="edge1_Node000001_Node000002" class="edge">
<title>Node1&#45;&gt;Node2</title>
<g id="a_edge1_Node000001_Node000002"><a xlink:title=" ">
<path fill="none" stroke="#63b8ff" d="M204.59,-161.4C153.06,-152.44 95.69,-138.26 80,-118 63.05,-96.12 70.03,-62.35 77.13,-41.12"/>
<polygon fill="#63b8ff" stroke="#63b8ff" points="204.02,-164.85 214.47,-163.06 205.19,-157.95 204.02,-164.85"/>
</a>
</g>
</g>
<!-- Node3 -->
<g id="Node000003" class="node">
<title>Node3</title>
<g id="a_Node000003"><a xlink:href="sdr__ops_8_h.html" target="_top" xlink:title=" ">
<polygon fill="white" stroke="#666666" points="267,-118 89,-118 89,-77 267,-77 267,-118"/>
<text text-anchor="start" x="97" y="-106" font-family="Helvetica,sans-Serif" font-size="10.00">/home/runner/work/amr</text>
<text text-anchor="start" x="97" y="-95" font-family="Helvetica,sans-Serif" font-size="10.00">&#45;wind/amr&#45;wind/amr&#45;wind</text>
<text text-anchor="middle" x="178" y="-84" font-family="Helvetica,sans-Serif" font-size="10.00">/equation_systems/sdr/sdr_ops.H</text>
</a>
</g>
</g>
<!-- Node1&#45;&gt;Node3 -->
<g id="edge2_Node000001_Node000003" class="edge">
<title>Node1&#45;&gt;Node3</title>
<g id="a_edge2_Node000001_Node000003"><a xlink:title=" ">
<path fill="none" stroke="#63b8ff" d="M255.8,-148.37C240.45,-138.53 223.1,-127.41 208.69,-118.17"/>
<polygon fill="#63b8ff" stroke="#63b8ff" points="254.26,-151.54 264.57,-153.99 258.04,-145.65 254.26,-151.54"/>
</a>
</g>
</g>
<!-- Node4 -->
<g id="Node000004" class="node">
<title>Node4</title>
<g id="a_Node000004"><a xlink:href="_k_omega_s_s_t_8cpp.html" target="_top" xlink:title=" ">
<polygon fill="white" stroke="#666666" points="390.5,-41 207.5,-41 207.5,0 390.5,0 390.5,-41"/>
<text text-anchor="start" x="215.5" y="-29" font-family="Helvetica,sans-Serif" font-size="10.00">/home/runner/work/amr</text>
<text text-anchor="start" x="215.5" y="-18" font-family="Helvetica,sans-Serif" font-size="10.00">&#45;wind/amr&#45;wind/amr&#45;wind</text>
<text text-anchor="middle" x="299" y="-7" font-family="Helvetica,sans-Serif" font-size="10.00">/turbulence/RANS/KOmegaSST.cpp</text>
</a>
</g>
</g>
<!-- Node1&#45;&gt;Node4 -->
<g id="edge4_Node000001_Node000004" class="edge">
<title>Node1&#45;&gt;Node4</title>
<g id="a_edge4_Node000001_Node000004"><a xlink:title=" ">
<path fill="none" stroke="#63b8ff" d="M295.79,-143.58C296.58,-113.36 297.79,-67.53 298.47,-41.47"/>
<polygon fill="#63b8ff" stroke="#63b8ff" points="292.28,-143.85 295.51,-153.94 299.28,-144.04 292.28,-143.85"/>
</a>
</g>
</g>
<!-- Node5 -->
<g id="Node000005" class="node">
<title>Node5</title>
<g id="a_Node000005"><a xlink:href="_k_omega_s_s_t_i_8_h.html" target="_top" xlink:title=" ">
<polygon fill="white" stroke="#666666" points="499.5,-118 322.5,-118 322.5,-77 499.5,-77 499.5,-118"/>
<text text-anchor="start" x="330.5" y="-106" font-family="Helvetica,sans-Serif" font-size="10.00">/home/runner/work/amr</text>
<text text-anchor="start" x="330.5" y="-95" font-family="Helvetica,sans-Serif" font-size="10.00">&#45;wind/amr&#45;wind/amr&#45;wind</text>
<text text-anchor="middle" x="411" y="-84" font-family="Helvetica,sans-Serif" font-size="10.00">/turbulence/RANS/KOmegaSSTI.H</text>
</a>
</g>
</g>
<!-- Node1&#45;&gt;Node5 -->
<g id="edge5_Node000001_Node000005" class="edge">
<title>Node1&#45;&gt;Node5</title>
<g id="a_edge5_Node000001_Node000005"><a xlink:title=" ">
<path fill="none" stroke="#63b8ff" d="M333.87,-148.37C349.09,-138.53 366.29,-127.41 380.57,-118.17"/>
<polygon fill="#63b8ff" stroke="#63b8ff" points="331.67,-145.62 325.17,-153.99 335.47,-151.5 331.67,-145.62"/>
</a>
</g>
</g>
<!-- Node6 -->
<g id="Node000006" class="node">
<title>Node6</title>
<g id="a_Node000006"><a xlink:href="_k_omega_s_s_t_i_d_d_e_s_8cpp.html" target="_top" xlink:title=" ">
<polygon fill="white" stroke="#666666" points="630,-41 416,-41 416,0 630,0 630,-41"/>
<text text-anchor="start" x="424" y="-29" font-family="Helvetica,sans-Serif" font-size="10.00">/home/runner/work/amr</text>
<text text-anchor="start" x="424" y="-18" font-family="Helvetica,sans-Serif" font-size="10.00">&#45;wind/amr&#45;wind/amr&#45;wind</text>
<text text-anchor="middle" x="523" y="-7" font-family="Helvetica,sans-Serif" font-size="10.00">/turbulence/RANS/KOmegaSSTIDDES.cpp</text>
</a>
</g>
</g>
<!-- Node1&#45;&gt;Node6 -->
<g id="edge8_Node000001_Node000006" class="edge">
<title>Node1&#45;&gt;Node6</title>
<g id="a_edge8_Node000001_Node000006"><a xlink:title=" ">
<path fill="none" stroke="#63b8ff" d="M385.46,-160.06C435.62,-150.72 491.18,-136.6 508,-118 526.87,-97.12 527.58,-62.74 525.74,-41.15"/>
<polygon fill="#63b8ff" stroke="#63b8ff" points="384.73,-156.63 375.52,-161.86 385.98,-163.52 384.73,-156.63"/>
</a>
</g>
</g>
<!-- Node3&#45;&gt;Node2 -->
<g id="edge3_Node000003_Node000002" class="edge">
<title>Node3&#45;&gt;Node2</title>
<g id="a_edge3_Node000003_Node000002"><a xlink:title=" ">
<path fill="none" stroke="#63b8ff" d="M145.57,-70.35C133.65,-60.73 120.36,-50.01 109.27,-41.07"/>
<polygon fill="#63b8ff" stroke="#63b8ff" points="143.58,-73.24 153.57,-76.79 147.98,-67.79 143.58,-73.24"/>
</a>
</g>
</g>
<!-- Node5&#45;&gt;Node4 -->
<g id="edge6_Node000005_Node000004" class="edge">
<title>Node5&#45;&gt;Node4</title>
<g id="a_edge6_Node000005_Node000004"><a xlink:title=" ">
<path fill="none" stroke="#63b8ff" d="M373.47,-71.37C358.78,-61.53 342.17,-50.41 328.38,-41.17"/>
<polygon fill="#63b8ff" stroke="#63b8ff" points="371.61,-74.33 381.87,-76.99 375.5,-68.52 371.61,-74.33"/>
</a>
</g>
</g>
<!-- Node5&#45;&gt;Node6 -->
<g id="edge7_Node000005_Node000006" class="edge">
<title>Node5&#45;&gt;Node6</title>
<g id="a_edge7_Node000005_Node000006"><a xlink:title=" ">
<path fill="none" stroke="#63b8ff" d="M448.53,-71.37C463.22,-61.53 479.83,-50.41 493.62,-41.17"/>
<polygon fill="#63b8ff" stroke="#63b8ff" points="446.5,-68.52 440.13,-76.99 450.39,-74.33 446.5,-68.52"/>
</a>
</g>
</g>
</g>
</svg>
