<?xml version="1.0" encoding="UTF-8" standalone="no"?>
<!DOCTYPE svg PUBLIC "-//W3C//DTD SVG 1.1//EN"
 "http://www.w3.org/Graphics/SVG/1.1/DTD/svg11.dtd">
<!-- Generated by graphviz version 2.43.0 (0)
 -->
<!-- Title: /home/runner/work/amr&#45;wind/amr&#45;wind/amr&#45;wind/equation_systems/SourceTerm.H Pages: 1 -->
<svg width="980pt" height="313pt"
 viewBox="0.00 0.00 980.00 313.00" xmlns="http://www.w3.org/2000/svg" xmlns:xlink="http://www.w3.org/1999/xlink">
<g id="graph0" class="graph" transform="scale(1 1) rotate(0) translate(4 309)">
<title>/home/runner/work/amr&#45;wind/amr&#45;wind/amr&#45;wind/equation_systems/SourceTerm.H</title>
<!-- Node1 -->
<g id="Node000001" class="node">
<title>Node1</title>
<g id="a_Node000001"><a xlink:title=" ">
<polygon fill="#999999" stroke="#666666" points="385,-305 206,-305 206,-264 385,-264 385,-305"/>
<text text-anchor="start" x="214" y="-293" font-family="Helvetica,sans-Serif" font-size="10.00">/home/runner/work/amr</text>
<text text-anchor="start" x="214" y="-282" font-family="Helvetica,sans-Serif" font-size="10.00">&#45;wind/amr&#45;wind/amr&#45;wind</text>
<text text-anchor="middle" x="295.5" y="-271" font-family="Helvetica,sans-Serif" font-size="10.00">/equation_systems/SourceTerm.H</text>
</a>
</g>
</g>
<!-- Node2 -->
<g id="Node000002" class="node">
<title>Node2</title>
<g id="a_Node000002"><a xlink:href="levelset_8_h.html" target="_top" xlink:title=" ">
<polygon fill="white" stroke="#666666" points="203,-228 52,-228 52,-176 203,-176 203,-228"/>
<text text-anchor="start" x="60" y="-216" font-family="Helvetica,sans-Serif" font-size="10.00">/home/runner/work/amr</text>
<text text-anchor="start" x="60" y="-205" font-family="Helvetica,sans-Serif" font-size="10.00">&#45;wind/amr&#45;wind/amr&#45;wind</text>
<text text-anchor="start" x="60" y="-194" font-family="Helvetica,sans-Serif" font-size="10.00">/equation_systems/levelset</text>
<text text-anchor="middle" x="127.5" y="-183" font-family="Helvetica,sans-Serif" font-size="10.00">/levelset.H</text>
</a>
</g>
</g>
<!-- Node1&#45;&gt;Node2 -->
<g id="edge1_Node000001_Node000002" class="edge">
<title>Node1&#45;&gt;Node2</title>
<g id="a_edge1_Node000001_Node000002"><a xlink:title=" ">
<path fill="none" stroke="#63b8ff" d="M245.19,-259.39C224.59,-249.52 200.75,-238.1 179.94,-228.13"/>
<polygon fill="#63b8ff" stroke="#63b8ff" points="243.87,-262.64 254.4,-263.81 246.9,-256.33 243.87,-262.64"/>
</a>
</g>
</g>
<!-- Node5 -->
<g id="Node000005" class="node">
<title>Node5</title>
<g id="a_Node000005"><a xlink:href="passive__scalar_8_h.html" target="_top" xlink:title=" ">
<polygon fill="white" stroke="#666666" points="370,-228 221,-228 221,-176 370,-176 370,-228"/>
<text text-anchor="start" x="229" y="-216" font-family="Helvetica,sans-Serif" font-size="10.00">/home/runner/work/amr</text>
<text text-anchor="start" x="229" y="-205" font-family="Helvetica,sans-Serif" font-size="10.00">&#45;wind/amr&#45;wind/amr&#45;wind</text>
<text text-anchor="start" x="229" y="-194" font-family="Helvetica,sans-Serif" font-size="10.00">/equation_systems/passive</text>
<text text-anchor="middle" x="295.5" y="-183" font-family="Helvetica,sans-Serif" font-size="10.00">_scalar/passive_scalar.H</text>
</a>
</g>
</g>
<!-- Node1&#45;&gt;Node5 -->
<g id="edge5_Node000001_Node000005" class="edge">
<title>Node1&#45;&gt;Node5</title>
<g id="a_edge5_Node000001_Node000005"><a xlink:title=" ">
<path fill="none" stroke="#63b8ff" d="M295.5,-253.49C295.5,-245.15 295.5,-236.19 295.5,-228.16"/>
<polygon fill="#63b8ff" stroke="#63b8ff" points="292,-253.6 295.5,-263.6 299,-253.6 292,-253.6"/>
</a>
</g>
</g>
<!-- Node7 -->
<g id="Node000007" class="node">
<title>Node7</title>
<g id="a_Node000007"><a xlink:href="vof_8_h.html" target="_top" xlink:title=" ">
<polygon fill="white" stroke="#666666" points="576.5,-222.5 420.5,-222.5 420.5,-181.5 576.5,-181.5 576.5,-222.5"/>
<text text-anchor="start" x="428.5" y="-210.5" font-family="Helvetica,sans-Serif" font-size="10.00">/home/runner/work/amr</text>
<text text-anchor="start" x="428.5" y="-199.5" font-family="Helvetica,sans-Serif" font-size="10.00">&#45;wind/amr&#45;wind/amr&#45;wind</text>
<text text-anchor="middle" x="498.5" y="-188.5" font-family="Helvetica,sans-Serif" font-size="10.00">/equation_systems/vof/vof.H</text>
</a>
</g>
</g>
<!-- Node1&#45;&gt;Node7 -->
<g id="edge7_Node000001_Node000007" class="edge">
<title>Node1&#45;&gt;Node7</title>
<g id="a_edge7_Node000001_Node000007"><a xlink:title=" ">
<path fill="none" stroke="#63b8ff" d="M354.43,-260.13C384.5,-248.21 420.66,-233.87 449.23,-222.54"/>
<polygon fill="#63b8ff" stroke="#63b8ff" points="352.91,-256.97 344.9,-263.91 355.49,-263.48 352.91,-256.97"/>
</a>
</g>
</g>
<!-- Node3 -->
<g id="Node000003" class="node">
<title>Node3</title>
<g id="a_Node000003"><a xlink:href="levelset_8cpp.html" target="_top" xlink:title=" ">
<polygon fill="white" stroke="#666666" points="151,-52 0,-52 0,0 151,0 151,-52"/>
<text text-anchor="start" x="8" y="-40" font-family="Helvetica,sans-Serif" font-size="10.00">/home/runner/work/amr</text>
<text text-anchor="start" x="8" y="-29" font-family="Helvetica,sans-Serif" font-size="10.00">&#45;wind/amr&#45;wind/amr&#45;wind</text>
<text text-anchor="start" x="8" y="-18" font-family="Helvetica,sans-Serif" font-size="10.00">/equation_systems/levelset</text>
<text text-anchor="middle" x="75.5" y="-7" font-family="Helvetica,sans-Serif" font-size="10.00">/levelset.cpp</text>
</a>
</g>
</g>
<!-- Node2&#45;&gt;Node3 -->
<g id="edge2_Node000002_Node000003" class="edge">
<title>Node2&#45;&gt;Node3</title>
<g id="a_edge2_Node000002_Node000003"><a xlink:title=" ">
<path fill="none" stroke="#63b8ff" d="M68.37,-169.97C57.94,-161.69 48.51,-151.72 42.5,-140 27.94,-111.63 43.38,-75.88 57.66,-52.27"/>
<polygon fill="#63b8ff" stroke="#63b8ff" points="66.37,-172.85 76.49,-175.97 70.53,-167.21 66.37,-172.85"/>
</a>
</g>
</g>
<!-- Node4 -->
<g id="Node000004" class="node">
<title>Node4</title>
<g id="a_Node000004"><a xlink:href="levelset__ops_8_h.html" target="_top" xlink:title=" ">
<polygon fill="white" stroke="#666666" points="203,-140 52,-140 52,-88 203,-88 203,-140"/>
<text text-anchor="start" x="60" y="-128" font-family="Helvetica,sans-Serif" font-size="10.00">/home/runner/work/amr</text>
<text text-anchor="start" x="60" y="-117" font-family="Helvetica,sans-Serif" font-size="10.00">&#45;wind/amr&#45;wind/amr&#45;wind</text>
<text text-anchor="start" x="60" y="-106" font-family="Helvetica,sans-Serif" font-size="10.00">/equation_systems/levelset</text>
<text text-anchor="middle" x="127.5" y="-95" font-family="Helvetica,sans-Serif" font-size="10.00">/levelset_ops.H</text>
</a>
</g>
</g>
<!-- Node2&#45;&gt;Node4 -->
<g id="edge3_Node000002_Node000004" class="edge">
<title>Node2&#45;&gt;Node4</title>
<g id="a_edge3_Node000002_Node000004"><a xlink:title=" ">
<path fill="none" stroke="#63b8ff" d="M127.5,-165.56C127.5,-157.04 127.5,-148.1 127.5,-140.16"/>
<polygon fill="#63b8ff" stroke="#63b8ff" points="124,-165.66 127.5,-175.66 131,-165.66 124,-165.66"/>
</a>
</g>
</g>
<!-- Node4&#45;&gt;Node3 -->
<g id="edge4_Node000004_Node000003" class="edge">
<title>Node4&#45;&gt;Node3</title>
<g id="a_edge4_Node000004_Node000003"><a xlink:title=" ">
<path fill="none" stroke="#63b8ff" d="M106.92,-78.96C101.51,-70.02 95.78,-60.54 90.71,-52.16"/>
<polygon fill="#63b8ff" stroke="#63b8ff" points="104.01,-80.92 112.18,-87.66 110,-77.29 104.01,-80.92"/>
</a>
</g>
</g>
<!-- Node6 -->
<g id="Node000006" class="node">
<title>Node6</title>
<g id="a_Node000006"><a xlink:href="passive__scalar_8cpp.html" target="_top" xlink:title=" ">
<polygon fill="white" stroke="#666666" points="370,-140 221,-140 221,-88 370,-88 370,-140"/>
<text text-anchor="start" x="229" y="-128" font-family="Helvetica,sans-Serif" font-size="10.00">/home/runner/work/amr</text>
<text text-anchor="start" x="229" y="-117" font-family="Helvetica,sans-Serif" font-size="10.00">&#45;wind/amr&#45;wind/amr&#45;wind</text>
<text text-anchor="start" x="229" y="-106" font-family="Helvetica,sans-Serif" font-size="10.00">/equation_systems/passive</text>
<text text-anchor="middle" x="295.5" y="-95" font-family="Helvetica,sans-Serif" font-size="10.00">_scalar/passive_scalar.cpp</text>
</a>
</g>
</g>
<!-- Node5&#45;&gt;Node6 -->
<g id="edge6_Node000005_Node000006" class="edge">
<title>Node5&#45;&gt;Node6</title>
<g id="a_edge6_Node000005_Node000006"><a xlink:title=" ">
<path fill="none" stroke="#63b8ff" d="M295.5,-165.56C295.5,-157.04 295.5,-148.1 295.5,-140.16"/>
<polygon fill="#63b8ff" stroke="#63b8ff" points="292,-165.66 295.5,-175.66 299,-165.66 292,-165.66"/>
</a>
</g>
</g>
<!-- Node8 -->
<g id="Node000008" class="node">
<title>Node8</title>
<g id="a_Node000008"><a xlink:href="vof_8cpp.html" target="_top" xlink:title=" ">
<polygon fill="white" stroke="#666666" points="673.5,-46.5 507.5,-46.5 507.5,-5.5 673.5,-5.5 673.5,-46.5"/>
<text text-anchor="start" x="515.5" y="-34.5" font-family="Helvetica,sans-Serif" font-size="10.00">/home/runner/work/amr</text>
<text text-anchor="start" x="515.5" y="-23.5" font-family="Helvetica,sans-Serif" font-size="10.00">&#45;wind/amr&#45;wind/amr&#45;wind</text>
<text text-anchor="middle" x="590.5" y="-12.5" font-family="Helvetica,sans-Serif" font-size="10.00">/equation_systems/vof/vof.cpp</text>
</a>
</g>
</g>
<!-- Node7&#45;&gt;Node8 -->
<g id="edge8_Node000007_Node000008" class="edge">
<title>Node7&#45;&gt;Node8</title>
<g id="a_edge8_Node000007_Node000008"><a xlink:title=" ">
<path fill="none" stroke="#63b8ff" d="M449.28,-175.64C436.22,-166.32 423.75,-154.44 416.5,-140 406.12,-119.35 403.13,-106.85 416.5,-88 437.33,-58.62 473.46,-43.29 507.41,-35.32"/>
<polygon fill="#63b8ff" stroke="#63b8ff" points="447.63,-178.75 457.89,-181.4 451.52,-172.93 447.63,-178.75"/>
</a>
</g>
</g>
<!-- Node9 -->
<g id="Node000009" class="node">
<title>Node9</title>
<g id="a_Node000009"><a xlink:href="vof__advection_8_h.html" target="_top" xlink:title=" ">
<polygon fill="white" stroke="#666666" points="571.5,-140 425.5,-140 425.5,-88 571.5,-88 571.5,-140"/>
<text text-anchor="start" x="433.5" y="-128" font-family="Helvetica,sans-Serif" font-size="10.00">/home/runner/work/amr</text>
<text text-anchor="start" x="433.5" y="-117" font-family="Helvetica,sans-Serif" font-size="10.00">&#45;wind/amr&#45;wind/amr&#45;wind</text>
<text text-anchor="start" x="433.5" y="-106" font-family="Helvetica,sans-Serif" font-size="10.00">/equation_systems/vof/vof</text>
<text text-anchor="middle" x="498.5" y="-95" font-family="Helvetica,sans-Serif" font-size="10.00">_advection.H</text>
</a>
</g>
</g>
<!-- Node7&#45;&gt;Node9 -->
<g id="edge9_Node000007_Node000009" class="edge">
<title>Node7&#45;&gt;Node9</title>
<g id="a_edge9_Node000007_Node000009"><a xlink:title=" ">
<path fill="none" stroke="#63b8ff" d="M498.5,-171.44C498.5,-161.31 498.5,-150.08 498.5,-140.32"/>
<polygon fill="#63b8ff" stroke="#63b8ff" points="495,-171.49 498.5,-181.49 502,-171.49 495,-171.49"/>
</a>
</g>
</g>
<!-- Node10 -->
<g id="Node000010" class="node">
<title>Node10</title>
<g id="a_Node000010"><a xlink:href="vof__bcop_8_h.html" target="_top" xlink:title=" ">
<polygon fill="white" stroke="#666666" points="775,-134.5 590,-134.5 590,-93.5 775,-93.5 775,-134.5"/>
<text text-anchor="start" x="598" y="-122.5" font-family="Helvetica,sans-Serif" font-size="10.00">/home/runner/work/amr</text>
<text text-anchor="start" x="598" y="-111.5" font-family="Helvetica,sans-Serif" font-size="10.00">&#45;wind/amr&#45;wind/amr&#45;wind</text>
<text text-anchor="middle" x="682.5" y="-100.5" font-family="Helvetica,sans-Serif" font-size="10.00">/equation_systems/vof/vof_bcop.H</text>
</a>
</g>
</g>
<!-- Node7&#45;&gt;Node10 -->
<g id="edge11_Node000007_Node000010" class="edge">
<title>Node7&#45;&gt;Node10</title>
<g id="a_edge11_Node000007_Node000010"><a xlink:title=" ">
<path fill="none" stroke="#63b8ff" d="M549.32,-177.25C578.03,-163.83 613.49,-147.26 640.59,-134.59"/>
<polygon fill="#63b8ff" stroke="#63b8ff" points="547.83,-174.08 540.25,-181.49 550.79,-180.42 547.83,-174.08"/>
</a>
</g>
</g>
<!-- Node11 -->
<g id="Node000011" class="node">
<title>Node11</title>
<g id="a_Node000011"><a xlink:href="vof__ops_8_h.html" target="_top" xlink:title=" ">
<polygon fill="white" stroke="#666666" points="972,-134.5 793,-134.5 793,-93.5 972,-93.5 972,-134.5"/>
<text text-anchor="start" x="801" y="-122.5" font-family="Helvetica,sans-Serif" font-size="10.00">/home/runner/work/amr</text>
<text text-anchor="start" x="801" y="-111.5" font-family="Helvetica,sans-Serif" font-size="10.00">&#45;wind/amr&#45;wind/amr&#45;wind</text>
<text text-anchor="middle" x="882.5" y="-100.5" font-family="Helvetica,sans-Serif" font-size="10.00">/equation_systems/vof/vof_ops.H</text>
</a>
</g>
</g>
<!-- Node7&#45;&gt;Node11 -->
<g id="edge13_Node000007_Node000011" class="edge">
<title>Node7&#45;&gt;Node11</title>
<g id="a_edge13_Node000007_Node000011"><a xlink:title=" ">
<path fill="none" stroke="#63b8ff" d="M586.67,-183.14C643.32,-171.43 718.4,-155.47 784.5,-140 791.85,-138.28 799.5,-136.43 807.13,-134.55"/>
<polygon fill="#63b8ff" stroke="#63b8ff" points="585.76,-179.75 576.68,-185.2 587.18,-186.6 585.76,-179.75"/>
</a>
</g>
</g>
<!-- Node9&#45;&gt;Node8 -->
<g id="edge10_Node000009_Node000008" class="edge">
<title>Node9&#45;&gt;Node8</title>
<g id="a_edge10_Node000009_Node000008"><a xlink:title=" ">
<path fill="none" stroke="#63b8ff" d="M533.04,-80.72C545.27,-69.28 558.65,-56.77 569.42,-46.7"/>
<polygon fill="#63b8ff" stroke="#63b8ff" points="530.52,-78.28 525.61,-87.66 535.3,-83.39 530.52,-78.28"/>
</a>
</g>
</g>
<!-- Node10&#45;&gt;Node8 -->
<g id="edge12_Node000010_Node000008" class="edge">
<title>Node10&#45;&gt;Node8</title>
<g id="a_edge12_Node000010_Node000008"><a xlink:title=" ">
<path fill="none" stroke="#63b8ff" d="M654.28,-86.62C640.53,-73.77 624.27,-58.57 611.61,-46.74"/>
<polygon fill="#63b8ff" stroke="#63b8ff" points="651.93,-89.21 661.62,-93.49 656.71,-84.1 651.93,-89.21"/>
</a>
</g>
</g>
<!-- Node11&#45;&gt;Node8 -->
<g id="edge14_Node000011_Node000008" class="edge">
<title>Node11&#45;&gt;Node8</title>
<g id="a_edge14_Node000011_Node000008"><a xlink:title=" ">
<path fill="none" stroke="#63b8ff" d="M806.53,-90.63C760.1,-76.95 701.28,-59.63 656.75,-46.51"/>
<polygon fill="#63b8ff" stroke="#63b8ff" points="805.66,-94.02 816.24,-93.49 807.64,-87.3 805.66,-94.02"/>
</a>
</g>
</g>
</g>
</svg>
