<?xml version="1.0" encoding="UTF-8" standalone="no"?>
<!DOCTYPE svg PUBLIC "-//W3C//DTD SVG 1.1//EN"
 "http://www.w3.org/Graphics/SVG/1.1/DTD/svg11.dtd">
<!-- Generated by graphviz version 2.43.0 (0)
 -->
<!-- Title: /home/runner/work/amr&#45;wind/amr&#45;wind/amr&#45;wind/equation_systems/temperature/TemperatureSource.H Pages: 1 -->
<!--zoomable 236 -->

<svg id="main" version="1.1" xmlns="http://www.w3.org/2000/svg" xmlns:xlink="http://www.w3.org/1999/xlink" xml:space="preserve" onload="init(evt)">

<style type="text/css"><![CDATA[
.node, .edge {opacity: 0.7;}
.node.selected, .edge.selected {opacity: 1;}
.edge:hover path { stroke: red; }
.edge:hover polygon { stroke: red; fill: red; }
]]></style>

<defs>
  <circle id="rim" cx="0" cy="0" r="7"/>
  <circle id="rim2" cx="0" cy="0" r="3.5"/>
  <g id="zoomPlus">
    <use xlink:href="#rim" fill="#404040"><set attributeName="fill" to="#808080" begin="zoomplus.mouseover" end="zoomplus.mouseout"/></use>
    <path d="M-4,0h8M0,-4v8" fill="none" stroke="white" stroke-width="1.5" pointer-events="none"/>
  </g>
  <g id="zoomMin">
    <use xlink:href="#rim" fill="#404040"><set attributeName="fill" to="#808080" begin="zoomminus.mouseover" end="zoomminus.mouseout"/></use>
    <path d="M-4,0h8" fill="none" stroke="white" stroke-width="1.5" pointer-events="none"/>
  </g>
  <g id="arrowUp" transform="translate(30 24)">
    <use xlink:href="#rim"/>
    <path pointer-events="none" fill="none" stroke="white" stroke-width="1.5" d="M0,-3.0v7 M-2.5,-0.5L0,-3.0L2.5,-0.5"/>
  </g>
  <g id="arrowRight" transform="rotate(90) translate(36 -43)">
    <use xlink:href="#rim"/>
    <path pointer-events="none" fill="none" stroke="white" stroke-width="1.5" d="M0,-3.0v7 M-2.5,-0.5L0,-3.0L2.5,-0.5"/>
  </g>
  <g id="arrowDown" transform="rotate(180) translate(-30 -48)">
    <use xlink:href="#rim"/>
    <path pointer-events="none" fill="none" stroke="white" stroke-width="1.5" d="M0,-3.0v7 M-2.5,-0.5L0,-3.0L2.5,-0.5"/>
  </g>
  <g id="arrowLeft" transform="rotate(270) translate(-36 17)">
    <use xlink:href="#rim"/>
    <path pointer-events="none" fill="none" stroke="white" stroke-width="1.5" d="M0,-3.0v7 M-2.5,-0.5L0,-3.0L2.5,-0.5"/>
  </g>
  <g id="resetDef">
    <use xlink:href="#rim2" fill="#404040"><set attributeName="fill" to="#808080" begin="reset.mouseover" end="reset.mouseout"/></use>
  </g>
</defs>
<script type="application/ecmascript">
var viewWidth = 1383;
var viewHeight = 236;
var sectionId = 'dynsection-1';
</script>
<script type="application/ecmascript" xlink:href="svg.min.js"/>
<svg id="graph" class="graph">
<g id="viewport">
<title>/home/runner/work/amr&#45;wind/amr&#45;wind/amr&#45;wind/equation_systems/temperature/TemperatureSource.H</title>
<!-- Node1 -->
<g id="Node000001" class="node">
<title>Node1</title>
<g id="a_Node000001"><a xlink:title=" ">
<polygon fill="#999999" stroke="#666666" points="971,-228 798,-228 798,-176 971,-176 971,-228"/>
<text text-anchor="start" x="806" y="-216" font-family="Helvetica,sans-Serif" font-size="10.00">/home/runner/work/amr</text>
<text text-anchor="start" x="806" y="-205" font-family="Helvetica,sans-Serif" font-size="10.00">&#45;wind/amr&#45;wind/amr&#45;wind</text>
<text text-anchor="start" x="806" y="-194" font-family="Helvetica,sans-Serif" font-size="10.00">/equation_systems/temperature</text>
<text text-anchor="middle" x="884.5" y="-183" font-family="Helvetica,sans-Serif" font-size="10.00">/TemperatureSource.H</text>
</a>
</g>
</g>
<!-- Node2 -->
<g id="Node000002" class="node">
<title>Node2</title>
<g id="a_Node000002"><a xlink:href="_a_b_l_meso_forcing_temp_8_h.html" target="_top" xlink:title=" ">
<polygon fill="white" stroke="#666666" points="463.5,-140 257.5,-140 257.5,-88 463.5,-88 463.5,-140"/>
<text text-anchor="start" x="265.5" y="-128" font-family="Helvetica,sans-Serif" font-size="10.00">/home/runner/work/amr</text>
<text text-anchor="start" x="265.5" y="-117" font-family="Helvetica,sans-Serif" font-size="10.00">&#45;wind/amr&#45;wind/amr&#45;wind</text>
<text text-anchor="start" x="265.5" y="-106" font-family="Helvetica,sans-Serif" font-size="10.00">/equation_systems/temperature</text>
<text text-anchor="middle" x="360.5" y="-95" font-family="Helvetica,sans-Serif" font-size="10.00">/source_terms/ABLMesoForcingTemp.H</text>
</a>
</g>
</g>
<!-- Node1&#45;&gt;Node2 -->
<g id="edge1_Node000001_Node000002" class="edge">
<title>Node1&#45;&gt;Node2</title>
<g id="a_edge1_Node000001_Node000002"><a xlink:title=" ">
<path fill="none" stroke="#63b8ff" d="M787.83,-185.13C695.86,-170.04 557.93,-147.4 463.83,-131.96"/>
<polygon fill="#63b8ff" stroke="#63b8ff" points="787.54,-188.63 797.97,-186.8 788.67,-181.73 787.54,-188.63"/>
</a>
</g>
</g>
<!-- Node6 -->
<g id="Node000006" class="node">
<title>Node6</title>
<g id="a_Node000006"><a xlink:href="temperature_2source__terms_2_body_force_8_h.html" target="_top" xlink:title=" ">
<polygon fill="white" stroke="#666666" points="971,-140 798,-140 798,-88 971,-88 971,-140"/>
<text text-anchor="start" x="806" y="-128" font-family="Helvetica,sans-Serif" font-size="10.00">/home/runner/work/amr</text>
<text text-anchor="start" x="806" y="-117" font-family="Helvetica,sans-Serif" font-size="10.00">&#45;wind/amr&#45;wind/amr&#45;wind</text>
<text text-anchor="start" x="806" y="-106" font-family="Helvetica,sans-Serif" font-size="10.00">/equation_systems/temperature</text>
<text text-anchor="middle" x="884.5" y="-95" font-family="Helvetica,sans-Serif" font-size="10.00">/source_terms/BodyForce.H</text>
</a>
</g>
</g>
<!-- Node1&#45;&gt;Node6 -->
<g id="edge5_Node000001_Node000006" class="edge">
<title>Node1&#45;&gt;Node6</title>
<g id="a_edge5_Node000001_Node000006"><a xlink:title=" ">
<path fill="none" stroke="#63b8ff" d="M884.5,-165.56C884.5,-157.04 884.5,-148.1 884.5,-140.16"/>
<polygon fill="#63b8ff" stroke="#63b8ff" points="881,-165.66 884.5,-175.66 888,-165.66 881,-165.66"/>
</a>
</g>
</g>
<!-- Node8 -->
<g id="Node000008" class="node">
<title>Node8</title>
<g id="a_Node000008"><a xlink:href="_drag_temp_forcing_8_h.html" target="_top" xlink:title=" ">
<polygon fill="white" stroke="#666666" points="1175.5,-140 991.5,-140 991.5,-88 1175.5,-88 1175.5,-140"/>
<text text-anchor="start" x="999.5" y="-128" font-family="Helvetica,sans-Serif" font-size="10.00">/home/runner/work/amr</text>
<text text-anchor="start" x="999.5" y="-117" font-family="Helvetica,sans-Serif" font-size="10.00">&#45;wind/amr&#45;wind/amr&#45;wind</text>
<text text-anchor="start" x="999.5" y="-106" font-family="Helvetica,sans-Serif" font-size="10.00">/equation_systems/temperature</text>
<text text-anchor="middle" x="1083.5" y="-95" font-family="Helvetica,sans-Serif" font-size="10.00">/source_terms/DragTempForcing.H</text>
</a>
</g>
</g>
<!-- Node1&#45;&gt;Node8 -->
<g id="edge7_Node000001_Node000008" class="edge">
<title>Node1&#45;&gt;Node8</title>
<g id="a_edge7_Node000001_Node000008"><a xlink:title=" ">
<path fill="none" stroke="#63b8ff" d="M951.92,-171.86C975.76,-161.56 1002.34,-150.08 1025.33,-140.14"/>
<polygon fill="#63b8ff" stroke="#63b8ff" points="950.39,-168.71 942.59,-175.89 953.16,-175.14 950.39,-168.71"/>
</a>
</g>
</g>
<!-- Node10 -->
<g id="Node000010" class="node">
<title>Node10</title>
<g id="a_Node000010"><a xlink:href="_hurricane_temp_forcing_8_h.html" target="_top" xlink:title=" ">
<polygon fill="white" stroke="#666666" points="774.5,-140 566.5,-140 566.5,-88 774.5,-88 774.5,-140"/>
<text text-anchor="start" x="574.5" y="-128" font-family="Helvetica,sans-Serif" font-size="10.00">/home/runner/work/amr</text>
<text text-anchor="start" x="574.5" y="-117" font-family="Helvetica,sans-Serif" font-size="10.00">&#45;wind/amr&#45;wind/amr&#45;wind</text>
<text text-anchor="start" x="574.5" y="-106" font-family="Helvetica,sans-Serif" font-size="10.00">/equation_systems/temperature</text>
<text text-anchor="middle" x="670.5" y="-95" font-family="Helvetica,sans-Serif" font-size="10.00">/source_terms/HurricaneTempForcing.H</text>
</a>
</g>
</g>
<!-- Node1&#45;&gt;Node10 -->
<g id="edge9_Node000001_Node000010" class="edge">
<title>Node1&#45;&gt;Node10</title>
<g id="a_edge9_Node000001_Node000010"><a xlink:title=" ">
<path fill="none" stroke="#63b8ff" d="M812.67,-172.14C786.87,-161.77 758,-150.16 733.05,-140.14"/>
<polygon fill="#63b8ff" stroke="#63b8ff" points="811.44,-175.41 822.03,-175.89 814.05,-168.92 811.44,-175.41"/>
</a>
</g>
</g>
<!-- Node12 -->
<g id="Node000012" class="node">
<title>Node12</title>
<g id="a_Node000012"><a xlink:href="temperature_8_h.html" target="_top" xlink:title=" ">
<polygon fill="white" stroke="#666666" points="1371,-140 1198,-140 1198,-88 1371,-88 1371,-140"/>
<text text-anchor="start" x="1206" y="-128" font-family="Helvetica,sans-Serif" font-size="10.00">/home/runner/work/amr</text>
<text text-anchor="start" x="1206" y="-117" font-family="Helvetica,sans-Serif" font-size="10.00">&#45;wind/amr&#45;wind/amr&#45;wind</text>
<text text-anchor="start" x="1206" y="-106" font-family="Helvetica,sans-Serif" font-size="10.00">/equation_systems/temperature</text>
<text text-anchor="middle" x="1284.5" y="-95" font-family="Helvetica,sans-Serif" font-size="10.00">/temperature.H</text>
</a>
</g>
</g>
<!-- Node1&#45;&gt;Node12 -->
<g id="edge12_Node000001_Node000012" class="edge">
<title>Node1&#45;&gt;Node12</title>
<g id="a_edge12_Node000001_Node000012"><a xlink:title=" ">
<path fill="none" stroke="#63b8ff" d="M981.08,-182.49C1039.99,-170.92 1116.76,-155.35 1184.5,-140 1188.86,-139.01 1193.33,-137.98 1197.83,-136.92"/>
<polygon fill="#63b8ff" stroke="#63b8ff" points="980.18,-179.1 971.04,-184.46 981.52,-185.97 980.18,-179.1"/>
</a>
</g>
</g>
<!-- Node3 -->
<g id="Node000003" class="node">
<title>Node3</title>
<g id="a_Node000003"><a xlink:href="_a_b_l_meso_forcing_temp_8cpp.html" target="_top" xlink:title=" ">
<polygon fill="white" stroke="#666666" points="382,-52 167,-52 167,0 382,0 382,-52"/>
<text text-anchor="start" x="175" y="-40" font-family="Helvetica,sans-Serif" font-size="10.00">/home/runner/work/amr</text>
<text text-anchor="start" x="175" y="-29" font-family="Helvetica,sans-Serif" font-size="10.00">&#45;wind/amr&#45;wind/amr&#45;wind</text>
<text text-anchor="start" x="175" y="-18" font-family="Helvetica,sans-Serif" font-size="10.00">/equation_systems/temperature</text>
<text text-anchor="middle" x="274.5" y="-7" font-family="Helvetica,sans-Serif" font-size="10.00">/source_terms/ABLMesoForcingTemp.cpp</text>
</a>
</g>
</g>
<!-- Node2&#45;&gt;Node3 -->
<g id="edge2_Node000002_Node000003" class="edge">
<title>Node2&#45;&gt;Node3</title>
<g id="a_edge2_Node000002_Node000003"><a xlink:title=" ">
<path fill="none" stroke="#63b8ff" d="M327.85,-80.35C318.51,-71.01 308.48,-60.98 299.66,-52.16"/>
<polygon fill="#63b8ff" stroke="#63b8ff" points="325.62,-83.07 335.16,-87.66 330.57,-78.12 325.62,-83.07"/>
</a>
</g>
</g>
<!-- Node4 -->
<g id="Node000004" class="node">
<title>Node4</title>
<g id="a_Node000004"><a xlink:href="_a_b_l_8cpp.html" target="_top" xlink:title=" ">
<polygon fill="white" stroke="#666666" points="543,-46.5 400,-46.5 400,-5.5 543,-5.5 543,-46.5"/>
<text text-anchor="start" x="408" y="-34.5" font-family="Helvetica,sans-Serif" font-size="10.00">/home/runner/work/amr</text>
<text text-anchor="start" x="408" y="-23.5" font-family="Helvetica,sans-Serif" font-size="10.00">&#45;wind/amr&#45;wind/amr&#45;wind</text>
<text text-anchor="middle" x="471.5" y="-12.5" font-family="Helvetica,sans-Serif" font-size="10.00">/wind_energy/ABL.cpp</text>
</a>
</g>
</g>
<!-- Node2&#45;&gt;Node4 -->
<g id="edge3_Node000002_Node000004" class="edge">
<title>Node2&#45;&gt;Node4</title>
<g id="a_edge3_Node000002_Node000004"><a xlink:title=" ">
<path fill="none" stroke="#63b8ff" d="M401.11,-81.54C416.23,-69.82 432.95,-56.87 446.29,-46.53"/>
<polygon fill="#63b8ff" stroke="#63b8ff" points="398.67,-79 392.9,-87.89 402.95,-84.54 398.67,-79"/>
</a>
</g>
</g>
<!-- Node5 -->
<g id="Node000005" class="node">
<title>Node5</title>
<g id="a_Node000005"><a xlink:href="_a_b_l_stats_8cpp.html" target="_top" xlink:title=" ">
<polygon fill="white" stroke="#666666" points="149,-46.5 0,-46.5 0,-5.5 149,-5.5 149,-46.5"/>
<text text-anchor="start" x="8" y="-34.5" font-family="Helvetica,sans-Serif" font-size="10.00">/home/runner/work/amr</text>
<text text-anchor="start" x="8" y="-23.5" font-family="Helvetica,sans-Serif" font-size="10.00">&#45;wind/amr&#45;wind/amr&#45;wind</text>
<text text-anchor="middle" x="74.5" y="-12.5" font-family="Helvetica,sans-Serif" font-size="10.00">/wind_energy/ABLStats.cpp</text>
</a>
</g>
</g>
<!-- Node2&#45;&gt;Node5 -->
<g id="edge4_Node000002_Node000005" class="edge">
<title>Node2&#45;&gt;Node5</title>
<g id="a_edge4_Node000002_Node000005"><a xlink:title=" ">
<path fill="none" stroke="#63b8ff" d="M267.44,-85.05C232.91,-74.68 193.42,-62.81 157.5,-52 151.59,-50.22 145.45,-48.37 139.29,-46.52"/>
<polygon fill="#63b8ff" stroke="#63b8ff" points="266.45,-88.41 277.04,-87.93 268.47,-81.7 266.45,-88.41"/>
</a>
</g>
</g>
<!-- Node7 -->
<g id="Node000007" class="node">
<title>Node7</title>
<g id="a_Node000007"><a xlink:href="temperature_2source__terms_2_body_force_8cpp.html" target="_top" xlink:title=" ">
<polygon fill="white" stroke="#666666" points="971,-52 798,-52 798,0 971,0 971,-52"/>
<text text-anchor="start" x="806" y="-40" font-family="Helvetica,sans-Serif" font-size="10.00">/home/runner/work/amr</text>
<text text-anchor="start" x="806" y="-29" font-family="Helvetica,sans-Serif" font-size="10.00">&#45;wind/amr&#45;wind/amr&#45;wind</text>
<text text-anchor="start" x="806" y="-18" font-family="Helvetica,sans-Serif" font-size="10.00">/equation_systems/temperature</text>
<text text-anchor="middle" x="884.5" y="-7" font-family="Helvetica,sans-Serif" font-size="10.00">/source_terms/BodyForce.cpp</text>
</a>
</g>
</g>
<!-- Node6&#45;&gt;Node7 -->
<g id="edge6_Node000006_Node000007" class="edge">
<title>Node6&#45;&gt;Node7</title>
<g id="a_edge6_Node000006_Node000007"><a xlink:title=" ">
<path fill="none" stroke="#63b8ff" d="M884.5,-77.56C884.5,-69.04 884.5,-60.1 884.5,-52.16"/>
<polygon fill="#63b8ff" stroke="#63b8ff" points="881,-77.66 884.5,-87.66 888,-77.66 881,-77.66"/>
</a>
</g>
</g>
<!-- Node9 -->
<g id="Node000009" class="node">
<title>Node9</title>
<g id="a_Node000009"><a xlink:href="_drag_temp_forcing_8cpp.html" target="_top" xlink:title=" ">
<polygon fill="white" stroke="#666666" points="1183.5,-52 989.5,-52 989.5,0 1183.5,0 1183.5,-52"/>
<text text-anchor="start" x="997.5" y="-40" font-family="Helvetica,sans-Serif" font-size="10.00">/home/runner/work/amr</text>
<text text-anchor="start" x="997.5" y="-29" font-family="Helvetica,sans-Serif" font-size="10.00">&#45;wind/amr&#45;wind/amr&#45;wind</text>
<text text-anchor="start" x="997.5" y="-18" font-family="Helvetica,sans-Serif" font-size="10.00">/equation_systems/temperature</text>
<text text-anchor="middle" x="1086.5" y="-7" font-family="Helvetica,sans-Serif" font-size="10.00">/source_terms/DragTempForcing.cpp</text>
</a>
</g>
</g>
<!-- Node8&#45;&gt;Node9 -->
<g id="edge8_Node000008_Node000009" class="edge">
<title>Node8&#45;&gt;Node9</title>
<g id="a_edge8_Node000008_Node000009"><a xlink:title=" ">
<path fill="none" stroke="#63b8ff" d="M1084.74,-77.56C1085.03,-69.04 1085.35,-60.1 1085.62,-52.16"/>
<polygon fill="#63b8ff" stroke="#63b8ff" points="1081.23,-77.55 1084.38,-87.66 1088.23,-77.79 1081.23,-77.55"/>
</a>
</g>
</g>
<!-- Node10&#45;&gt;Node4 -->
<g id="edge11_Node000010_Node000004" class="edge">
<title>Node10&#45;&gt;Node4</title>
<g id="a_edge11_Node000010_Node000004"><a xlink:title=" ">
<path fill="none" stroke="#63b8ff" d="M602.93,-83.8C574.49,-71.51 542.17,-57.54 516.69,-46.53"/>
<polygon fill="#63b8ff" stroke="#63b8ff" points="601.84,-87.14 612.41,-87.89 604.61,-80.71 601.84,-87.14"/>
</a>
</g>
</g>
<!-- Node11 -->
<g id="Node000011" class="node">
<title>Node11</title>
<g id="a_Node000011"><a xlink:href="_hurricane_temp_forcing_8cpp.html" target="_top" xlink:title=" ">
<polygon fill="white" stroke="#666666" points="779.5,-52 561.5,-52 561.5,0 779.5,0 779.5,-52"/>
<text text-anchor="start" x="569.5" y="-40" font-family="Helvetica,sans-Serif" font-size="10.00">/home/runner/work/amr</text>
<text text-anchor="start" x="569.5" y="-29" font-family="Helvetica,sans-Serif" font-size="10.00">&#45;wind/amr&#45;wind/amr&#45;wind</text>
<text text-anchor="start" x="569.5" y="-18" font-family="Helvetica,sans-Serif" font-size="10.00">/equation_systems/temperature</text>
<text text-anchor="middle" x="670.5" y="-7" font-family="Helvetica,sans-Serif" font-size="10.00">/source_terms/HurricaneTempForcing.cpp</text>
</a>
</g>
</g>
<!-- Node10&#45;&gt;Node11 -->
<g id="edge10_Node000010_Node000011" class="edge">
<title>Node10&#45;&gt;Node11</title>
<g id="a_edge10_Node000010_Node000011"><a xlink:title=" ">
<path fill="none" stroke="#63b8ff" d="M670.5,-77.56C670.5,-69.04 670.5,-60.1 670.5,-52.16"/>
<polygon fill="#63b8ff" stroke="#63b8ff" points="667,-77.66 670.5,-87.66 674,-77.66 667,-77.66"/>
</a>
</g>
</g>
<!-- Node13 -->
<g id="Node000013" class="node">
<title>Node13</title>
<g id="a_Node000013"><a xlink:href="temperature_8cpp.html" target="_top" xlink:title=" ">
<polygon fill="white" stroke="#666666" points="1375,-52 1202,-52 1202,0 1375,0 1375,-52"/>
<text text-anchor="start" x="1210" y="-40" font-family="Helvetica,sans-Serif" font-size="10.00">/home/runner/work/amr</text>
<text text-anchor="start" x="1210" y="-29" font-family="Helvetica,sans-Serif" font-size="10.00">&#45;wind/amr&#45;wind/amr&#45;wind</text>
<text text-anchor="start" x="1210" y="-18" font-family="Helvetica,sans-Serif" font-size="10.00">/equation_systems/temperature</text>
<text text-anchor="middle" x="1288.5" y="-7" font-family="Helvetica,sans-Serif" font-size="10.00">/temperature.cpp</text>
</a>
</g>
</g>
<!-- Node12&#45;&gt;Node13 -->
<g id="edge13_Node000012_Node000013" class="edge">
<title>Node12&#45;&gt;Node13</title>
<g id="a_edge13_Node000012_Node000013"><a xlink:title=" ">
<path fill="none" stroke="#63b8ff" d="M1286.15,-77.56C1286.54,-69.04 1286.96,-60.1 1287.33,-52.16"/>
<polygon fill="#63b8ff" stroke="#63b8ff" points="1282.65,-77.51 1285.68,-87.66 1289.64,-77.84 1282.65,-77.51"/>
</a>
</g>
</g>
</g>
</svg>

<g id="navigator" transform="translate(0 0)" fill="#404254">
  <rect fill="#f2f5e9" fill-opacity="0.5" stroke="#606060" stroke-width=".5" x="0" y="0" width="60" height="60"/>
  <use id="zoomplus" xlink:href="#zoomPlus" x="17" y="9" onmousedown="handleZoom(evt,'in')"/>
  <use id="zoomminus" xlink:href="#zoomMin" x="42" y="9" onmousedown="handleZoom(evt,'out')"/>
  <use id="reset" xlink:href="#resetDef" x="30" y="36" onmousedown="handleReset()"/>
   <use id="arrowup" xlink:href="#arrowUp" x="0" y="0" onmousedown="handlePan(0,-1)"/>
  <use id="arrowright" xlink:href="#arrowRight" x="0" y="0" onmousedown="handlePan(1,0)"/>
  <use id="arrowdown" xlink:href="#arrowDown" x="0" y="0" onmousedown="handlePan(0,1)"/>
  <use id="arrowleft" xlink:href="#arrowLeft" x="0" y="0" onmousedown="handlePan(-1,0)"/>
</g>
<svg viewBox="0 0 15 15" width="100%" height="30px" preserveAspectRatio="xMaxYMin meet">
 <g id="arrow_out" transform="scale(0.3 0.3)">
  <a xlink:href="_temperature_source_8_h__dep__incl_org.svg" target="_base">
   <rect id="button" ry="5" rx="5" y="6" x="6" height="38" width="38"
        fill="#f2f5e9" fill-opacity="0.5" stroke="#606060" stroke-width="1.0"/>
   <path id="arrow"
     d="M 11.500037,31.436501 C 11.940474,20.09759 22.043105,11.32322 32.158766,21.979434 L 37.068811,17.246167 C 37.068811,17.246167 37.088388,32 37.088388,32 L 22.160133,31.978069 C 22.160133,31.978069 26.997745,27.140456 26.997745,27.140456 C 18.528582,18.264221 13.291696,25.230495 11.500037,31.436501 z"
     style="fill:#404040;"/>
  </a>
 </g>
</svg>

<style type='text/css'>
<![CDATA[
[data-mouse-over-selected='false'] { opacity: 0.7; }
[data-mouse-over-selected='true']  { opacity: 1.0; }
]]>
</style>
<script type="application/ecmascript"><![CDATA[
document.addEventListener('DOMContentLoaded', (event) => {
  highlightEdges();
  highlightAdjacentNodes();
});
]]></script>
</svg>
