<?xml version="1.0" encoding="UTF-8" standalone="no"?>
<!DOCTYPE svg PUBLIC "-//W3C//DTD SVG 1.1//EN"
 "http://www.w3.org/Graphics/SVG/1.1/DTD/svg11.dtd">
<!-- Generated by graphviz version 2.43.0 (0)
 -->
<!-- Title: /home/runner/work/amr&#45;wind/amr&#45;wind/amr&#45;wind/utilities/averaging/TimeAveraging.H Pages: 1 -->
<svg width="503pt" height="225pt"
 viewBox="0.00 0.00 503.00 225.00" xmlns="http://www.w3.org/2000/svg" xmlns:xlink="http://www.w3.org/1999/xlink">
<g id="graph0" class="graph" transform="scale(1 1) rotate(0) translate(4 221)">
<title>/home/runner/work/amr&#45;wind/amr&#45;wind/amr&#45;wind/utilities/averaging/TimeAveraging.H</title>
<!-- Node1 -->
<g id="Node000001" class="node">
<title>Node1</title>
<g id="a_Node000001"><a xlink:title=" ">
<polygon fill="#999999" stroke="#666666" points="363.5,-217 168.5,-217 168.5,-176 363.5,-176 363.5,-217"/>
<text text-anchor="start" x="176.5" y="-205" font-family="Helvetica,sans-Serif" font-size="10.00">/home/runner/work/amr</text>
<text text-anchor="start" x="176.5" y="-194" font-family="Helvetica,sans-Serif" font-size="10.00">&#45;wind/amr&#45;wind/amr&#45;wind</text>
<text text-anchor="middle" x="266" y="-183" font-family="Helvetica,sans-Serif" font-size="10.00">/utilities/averaging/TimeAveraging.H</text>
</a>
</g>
</g>
<!-- Node2 -->
<g id="Node000002" class="node">
<title>Node2</title>
<g id="a_Node000002"><a xlink:href="_factory_8_h.html" target="_top" xlink:title=" ">
<polygon fill="white" stroke="#666666" points="256,-74 122,-74 122,-55 256,-55 256,-74"/>
<text text-anchor="middle" x="189" y="-62" font-family="Helvetica,sans-Serif" font-size="10.00">amr&#45;wind/core/Factory.H</text>
</a>
</g>
</g>
<!-- Node1&#45;&gt;Node2 -->
<g id="edge1_Node000001_Node000002" class="edge">
<title>Node1&#45;&gt;Node2</title>
<g id="a_edge1_Node000001_Node000002"><a xlink:title=" ">
<path fill="none" stroke="#63b8ff" d="M239.66,-175.88C228.39,-166.23 216.01,-153.72 208,-140 197.93,-122.75 193.14,-100.2 190.9,-84.45"/>
<polygon fill="#63b8ff" stroke="#63b8ff" points="194.35,-83.86 189.68,-74.36 187.4,-84.7 194.35,-83.86"/>
</a>
</g>
</g>
<!-- Node3 -->
<g id="Node000003" class="node">
<title>Node3</title>
<g id="a_Node000003"><a xlink:title=" ">
<polygon fill="#e0e0e0" stroke="#999999" points="58,-19 0,-19 0,0 58,0 58,-19"/>
<text text-anchor="middle" x="29" y="-7" font-family="Helvetica,sans-Serif" font-size="10.00">memory</text>
</a>
</g>
</g>
<!-- Node1&#45;&gt;Node3 -->
<g id="edge12_Node000001_Node000003" class="edge">
<title>Node1&#45;&gt;Node3</title>
<g id="a_edge12_Node000001_Node000003"><a xlink:title=" ">
<path fill="none" stroke="#63b8ff" d="M168.37,-181.46C118.39,-172.22 64.6,-158.42 48,-140 20.32,-109.29 22.39,-56.83 25.9,-29.04"/>
<polygon fill="#63b8ff" stroke="#63b8ff" points="29.37,-29.48 27.36,-19.08 22.45,-28.46 29.37,-29.48"/>
</a>
</g>
</g>
<!-- Node8 -->
<g id="Node000008" class="node">
<title>Node8</title>
<g id="a_Node000008"><a xlink:href="_post_processing_8_h.html" target="_top" xlink:title=" ">
<polygon fill="white" stroke="#666666" points="161,-140 57,-140 57,-110 161,-110 161,-140"/>
<text text-anchor="start" x="65" y="-128" font-family="Helvetica,sans-Serif" font-size="10.00">amr&#45;wind/utilities</text>
<text text-anchor="middle" x="109" y="-117" font-family="Helvetica,sans-Serif" font-size="10.00">/PostProcessing.H</text>
</a>
</g>
</g>
<!-- Node1&#45;&gt;Node8 -->
<g id="edge7_Node000001_Node000008" class="edge">
<title>Node1&#45;&gt;Node8</title>
<g id="a_edge7_Node000001_Node000008"><a xlink:title=" ">
<path fill="none" stroke="#63b8ff" d="M221.85,-175.96C199.41,-166.02 172.31,-154.03 150.29,-144.28"/>
<polygon fill="#63b8ff" stroke="#63b8ff" points="151.44,-140.96 140.88,-140.11 148.61,-147.36 151.44,-140.96"/>
</a>
</g>
</g>
<!-- Node9 -->
<g id="Node000009" class="node">
<title>Node9</title>
<g id="a_Node000009"><a xlink:title=" ">
<polygon fill="#e0e0e0" stroke="#999999" points="315,-134.5 217,-134.5 217,-115.5 315,-115.5 315,-134.5"/>
<text text-anchor="middle" x="266" y="-122.5" font-family="Helvetica,sans-Serif" font-size="10.00">AMReX_Vector.H</text>
</a>
</g>
</g>
<!-- Node1&#45;&gt;Node9 -->
<g id="edge10_Node000001_Node000009" class="edge">
<title>Node1&#45;&gt;Node9</title>
<g id="a_edge10_Node000001_Node000009"><a xlink:title=" ">
<path fill="none" stroke="#63b8ff" d="M266,-175.77C266,-166.08 266,-154.46 266,-144.88"/>
<polygon fill="#63b8ff" stroke="#63b8ff" points="269.5,-144.82 266,-134.82 262.5,-144.82 269.5,-144.82"/>
</a>
</g>
</g>
<!-- Node10 -->
<g id="Node000010" class="node">
<title>Node10</title>
<g id="a_Node000010"><a xlink:title=" ">
<polygon fill="#e0e0e0" stroke="#999999" points="377,-134.5 333,-134.5 333,-115.5 377,-115.5 377,-134.5"/>
<text text-anchor="middle" x="355" y="-122.5" font-family="Helvetica,sans-Serif" font-size="10.00">limits</text>
</a>
</g>
</g>
<!-- Node1&#45;&gt;Node10 -->
<g id="edge11_Node000001_Node000010" class="edge">
<title>Node1&#45;&gt;Node10</title>
<g id="a_edge11_Node000001_Node000010"><a xlink:title=" ">
<path fill="none" stroke="#63b8ff" d="M291.27,-175.77C305.3,-164.81 322.48,-151.39 335.47,-141.25"/>
<polygon fill="#63b8ff" stroke="#63b8ff" points="337.98,-143.73 343.71,-134.82 333.67,-138.22 337.98,-143.73"/>
</a>
</g>
</g>
<!-- Node11 -->
<g id="Node000011" class="node">
<title>Node11</title>
<g id="a_Node000011"><a xlink:title=" ">
<polygon fill="#e0e0e0" stroke="#999999" points="439,-134.5 395,-134.5 395,-115.5 439,-115.5 439,-134.5"/>
<text text-anchor="middle" x="417" y="-122.5" font-family="Helvetica,sans-Serif" font-size="10.00">string</text>
</a>
</g>
</g>
<!-- Node1&#45;&gt;Node11 -->
<g id="edge13_Node000001_Node000011" class="edge">
<title>Node1&#45;&gt;Node11</title>
<g id="a_edge13_Node000001_Node000011"><a xlink:title=" ">
<path fill="none" stroke="#63b8ff" d="M308.46,-175.96C334.3,-164.06 366.56,-149.21 389.17,-138.81"/>
<polygon fill="#63b8ff" stroke="#63b8ff" points="390.9,-141.86 398.52,-134.5 387.98,-135.51 390.9,-141.86"/>
</a>
</g>
</g>
<!-- Node12 -->
<g id="Node000012" class="node">
<title>Node12</title>
<g id="a_Node000012"><a xlink:title=" ">
<polygon fill="#e0e0e0" stroke="#999999" points="495,-134.5 457,-134.5 457,-115.5 495,-115.5 495,-134.5"/>
<text text-anchor="middle" x="476" y="-122.5" font-family="Helvetica,sans-Serif" font-size="10.00">map</text>
</a>
</g>
</g>
<!-- Node1&#45;&gt;Node12 -->
<g id="edge14_Node000001_Node000012" class="edge">
<title>Node1&#45;&gt;Node12</title>
<g id="a_edge14_Node000001_Node000012"><a xlink:title=" ">
<path fill="none" stroke="#63b8ff" d="M340.03,-175.98C373.46,-166.38 413.18,-153.9 448,-140 448.86,-139.66 449.73,-139.3 450.61,-138.92"/>
<polygon fill="#63b8ff" stroke="#63b8ff" points="452.32,-141.99 459.92,-134.61 449.38,-135.64 452.32,-141.99"/>
</a>
</g>
</g>
<!-- Node2&#45;&gt;Node3 -->
<g id="edge2_Node000002_Node000003" class="edge">
<title>Node2&#45;&gt;Node3</title>
<g id="a_edge2_Node000002_Node000003"><a xlink:title=" ">
<path fill="none" stroke="#63b8ff" d="M163.29,-54.98C136.55,-46.13 94.47,-32.19 64.55,-22.28"/>
<polygon fill="#63b8ff" stroke="#63b8ff" points="65.5,-18.9 54.91,-19.08 63.3,-25.55 65.5,-18.9"/>
</a>
</g>
</g>
<!-- Node4 -->
<g id="Node000004" class="node">
<title>Node4</title>
<g id="a_Node000004"><a xlink:title=" ">
<polygon fill="#e0e0e0" stroke="#999999" points="169.5,-19 76.5,-19 76.5,0 169.5,0 169.5,-19"/>
<text text-anchor="middle" x="123" y="-7" font-family="Helvetica,sans-Serif" font-size="10.00">unordered_map</text>
</a>
</g>
</g>
<!-- Node2&#45;&gt;Node4 -->
<g id="edge3_Node000002_Node000004" class="edge">
<title>Node2&#45;&gt;Node4</title>
<g id="a_edge3_Node000002_Node000004"><a xlink:title=" ">
<path fill="none" stroke="#63b8ff" d="M178.4,-54.98C168.54,-47.07 153.65,-35.11 141.78,-25.58"/>
<polygon fill="#63b8ff" stroke="#63b8ff" points="143.79,-22.7 133.8,-19.17 139.4,-28.16 143.79,-22.7"/>
</a>
</g>
</g>
<!-- Node5 -->
<g id="Node000005" class="node">
<title>Node5</title>
<g id="a_Node000005"><a xlink:title=" ">
<polygon fill="#e0e0e0" stroke="#999999" points="248,-19 188,-19 188,0 248,0 248,-19"/>
<text text-anchor="middle" x="218" y="-7" font-family="Helvetica,sans-Serif" font-size="10.00">iostream</text>
</a>
</g>
</g>
<!-- Node2&#45;&gt;Node5 -->
<g id="edge4_Node000002_Node000005" class="edge">
<title>Node2&#45;&gt;Node5</title>
<g id="a_edge4_Node000002_Node000005"><a xlink:title=" ">
<path fill="none" stroke="#63b8ff" d="M193.79,-54.75C197.76,-47.49 203.53,-36.95 208.43,-27.98"/>
<polygon fill="#63b8ff" stroke="#63b8ff" points="211.57,-29.54 213.3,-19.09 205.43,-26.18 211.57,-29.54"/>
</a>
</g>
</g>
<!-- Node6 -->
<g id="Node000006" class="node">
<title>Node6</title>
<g id="a_Node000006"><a xlink:title=" ">
<polygon fill="#e0e0e0" stroke="#999999" points="356,-19 266,-19 266,0 356,0 356,-19"/>
<text text-anchor="middle" x="311" y="-7" font-family="Helvetica,sans-Serif" font-size="10.00">AMReX_Print.H</text>
</a>
</g>
</g>
<!-- Node2&#45;&gt;Node6 -->
<g id="edge5_Node000002_Node000006" class="edge">
<title>Node2&#45;&gt;Node6</title>
<g id="a_edge5_Node000002_Node000006"><a xlink:title=" ">
<path fill="none" stroke="#63b8ff" d="M208.6,-54.98C228.32,-46.42 258.95,-33.11 281.58,-23.28"/>
<polygon fill="#63b8ff" stroke="#63b8ff" points="283.26,-26.37 291.04,-19.17 280.48,-19.94 283.26,-26.37"/>
</a>
</g>
</g>
<!-- Node7 -->
<g id="Node000007" class="node">
<title>Node7</title>
<g id="a_Node000007"><a xlink:title=" ">
<polygon fill="#e0e0e0" stroke="#999999" points="436,-19 374,-19 374,0 436,0 436,-19"/>
<text text-anchor="middle" x="405" y="-7" font-family="Helvetica,sans-Serif" font-size="10.00">AMReX.H</text>
</a>
</g>
</g>
<!-- Node2&#45;&gt;Node7 -->
<g id="edge6_Node000002_Node000007" class="edge">
<title>Node2&#45;&gt;Node7</title>
<g id="a_edge6_Node000002_Node000007"><a xlink:title=" ">
<path fill="none" stroke="#63b8ff" d="M223.7,-54.98C261.96,-45.6 323.46,-30.51 364.04,-20.55"/>
<polygon fill="#63b8ff" stroke="#63b8ff" points="365.01,-23.92 373.89,-18.13 363.34,-17.12 365.01,-23.92"/>
</a>
</g>
</g>
<!-- Node8&#45;&gt;Node2 -->
<g id="edge9_Node000008_Node000002" class="edge">
<title>Node8&#45;&gt;Node2</title>
<g id="a_edge9_Node000008_Node000002"><a xlink:title=" ">
<path fill="none" stroke="#63b8ff" d="M128.37,-109.84C140.57,-100.91 156.31,-89.41 168.69,-80.35"/>
<polygon fill="#63b8ff" stroke="#63b8ff" points="171.01,-82.99 177.01,-74.27 166.87,-77.34 171.01,-82.99"/>
</a>
</g>
</g>
<!-- Node8&#45;&gt;Node3 -->
<g id="edge8_Node000008_Node000003" class="edge">
<title>Node8&#45;&gt;Node3</title>
<g id="a_edge8_Node000008_Node000003"><a xlink:title=" ">
<path fill="none" stroke="#63b8ff" d="M98.87,-109.63C84.09,-88.65 56.66,-49.75 40.93,-27.42"/>
<polygon fill="#63b8ff" stroke="#63b8ff" points="43.77,-25.39 35.15,-19.23 38.05,-29.42 43.77,-25.39"/>
</a>
</g>
</g>
</g>
</svg>
