<?xml version="1.0" encoding="UTF-8" standalone="no"?>
<!DOCTYPE svg PUBLIC "-//W3C//DTD SVG 1.1//EN"
 "http://www.w3.org/Graphics/SVG/1.1/DTD/svg11.dtd">
<!-- Generated by graphviz version 2.43.0 (0)
 -->
<!-- Title: /home/runner/work/amr&#45;wind/amr&#45;wind/amr&#45;wind/wind_energy/actuator/turbine/fast/TurbineFast.H Pages: 1 -->
<svg width="1536pt" height="588pt"
 viewBox="0.00 0.00 1535.50 588.00" xmlns="http://www.w3.org/2000/svg" xmlns:xlink="http://www.w3.org/1999/xlink">
<g id="graph0" class="graph" transform="scale(1 1) rotate(0) translate(4 584)">
<title>/home/runner/work/amr&#45;wind/amr&#45;wind/amr&#45;wind/wind_energy/actuator/turbine/fast/TurbineFast.H</title>
<!-- Node1 -->
<g id="Node000001" class="node">
<title>Node1</title>
<g id="a_Node000001"><a xlink:title=" ">
<polygon fill="#999999" stroke="#666666" points="500.5,-580 337.5,-580 337.5,-528 500.5,-528 500.5,-580"/>
<text text-anchor="start" x="345.5" y="-568" font-family="Helvetica,sans-Serif" font-size="10.00">/home/runner/work/amr</text>
<text text-anchor="start" x="345.5" y="-557" font-family="Helvetica,sans-Serif" font-size="10.00">&#45;wind/amr&#45;wind/amr&#45;wind</text>
<text text-anchor="start" x="345.5" y="-546" font-family="Helvetica,sans-Serif" font-size="10.00">/wind_energy/actuator/turbine</text>
<text text-anchor="middle" x="419" y="-535" font-family="Helvetica,sans-Serif" font-size="10.00">/fast/TurbineFast.H</text>
</a>
</g>
</g>
<!-- Node2 -->
<g id="Node000002" class="node">
<title>Node2</title>
<g id="a_Node000002"><a xlink:href="_turbine_external_8_h.html" target="_top" xlink:title=" ">
<polygon fill="white" stroke="#666666" points="440.5,-492 299.5,-492 299.5,-451 440.5,-451 440.5,-492"/>
<text text-anchor="start" x="307.5" y="-480" font-family="Helvetica,sans-Serif" font-size="10.00">amr&#45;wind/wind_energy</text>
<text text-anchor="start" x="307.5" y="-469" font-family="Helvetica,sans-Serif" font-size="10.00">/actuator/turbine/external</text>
<text text-anchor="middle" x="370" y="-458" font-family="Helvetica,sans-Serif" font-size="10.00">/TurbineExternal.H</text>
</a>
</g>
</g>
<!-- Node1&#45;&gt;Node2 -->
<g id="edge1_Node000001_Node000002" class="edge">
<title>Node1&#45;&gt;Node2</title>
<g id="a_edge1_Node000001_Node000002"><a xlink:title=" ">
<path fill="none" stroke="#63b8ff" d="M403.76,-527.97C398.55,-519.41 392.68,-509.76 387.32,-500.95"/>
<polygon fill="#63b8ff" stroke="#63b8ff" points="390.15,-498.87 381.96,-492.15 384.17,-502.51 390.15,-498.87"/>
</a>
</g>
</g>
<!-- Node36 -->
<g id="Node000036" class="node">
<title>Node36</title>
<g id="a_Node000036"><a xlink:href="fast__types_8_h.html" target="_top" xlink:title=" ">
<polygon fill="white" stroke="#666666" points="572,-415 444,-415 444,-374 572,-374 572,-415"/>
<text text-anchor="start" x="452" y="-403" font-family="Helvetica,sans-Serif" font-size="10.00">amr&#45;wind/wind_energy</text>
<text text-anchor="start" x="452" y="-392" font-family="Helvetica,sans-Serif" font-size="10.00">/actuator/turbine/fast</text>
<text text-anchor="middle" x="508" y="-381" font-family="Helvetica,sans-Serif" font-size="10.00">/fast_types.H</text>
</a>
</g>
</g>
<!-- Node1&#45;&gt;Node36 -->
<g id="edge51_Node000001_Node000036" class="edge">
<title>Node1&#45;&gt;Node36</title>
<g id="a_edge51_Node000001_Node000036"><a xlink:title=" ">
<path fill="none" stroke="#63b8ff" d="M433.3,-527.69C449.26,-499.45 475.04,-453.83 491.75,-424.25"/>
<polygon fill="#63b8ff" stroke="#63b8ff" points="494.96,-425.69 496.84,-415.26 488.87,-422.24 494.96,-425.69"/>
</a>
</g>
</g>
<!-- Node3 -->
<g id="Node000003" class="node">
<title>Node3</title>
<g id="a_Node000003"><a xlink:href="turbine__types_8_h.html" target="_top" xlink:title=" ">
<polygon fill="white" stroke="#666666" points="775.5,-415 640.5,-415 640.5,-374 775.5,-374 775.5,-415"/>
<text text-anchor="start" x="648.5" y="-403" font-family="Helvetica,sans-Serif" font-size="10.00">amr&#45;wind/wind_energy</text>
<text text-anchor="start" x="648.5" y="-392" font-family="Helvetica,sans-Serif" font-size="10.00">/actuator/turbine/turbine</text>
<text text-anchor="middle" x="708" y="-381" font-family="Helvetica,sans-Serif" font-size="10.00">_types.H</text>
</a>
</g>
</g>
<!-- Node2&#45;&gt;Node3 -->
<g id="edge2_Node000002_Node000003" class="edge">
<title>Node2&#45;&gt;Node3</title>
<g id="a_edge2_Node000002_Node000003"><a xlink:title=" ">
<path fill="none" stroke="#63b8ff" d="M440.86,-454.78C496.28,-442.48 573.25,-425.4 630.35,-412.73"/>
<polygon fill="#63b8ff" stroke="#63b8ff" points="631.4,-416.08 640.41,-410.5 629.89,-409.25 631.4,-416.08"/>
</a>
</g>
</g>
<!-- Node23 -->
<g id="Node000023" class="node">
<title>Node23</title>
<g id="a_Node000023"><a xlink:href="_ext_turb_iface_8_h.html" target="_top" xlink:title=" ">
<polygon fill="white" stroke="#666666" points="321.5,-415 180.5,-415 180.5,-374 321.5,-374 321.5,-415"/>
<text text-anchor="start" x="188.5" y="-403" font-family="Helvetica,sans-Serif" font-size="10.00">amr&#45;wind/wind_energy</text>
<text text-anchor="start" x="188.5" y="-392" font-family="Helvetica,sans-Serif" font-size="10.00">/actuator/turbine/external</text>
<text text-anchor="middle" x="251" y="-381" font-family="Helvetica,sans-Serif" font-size="10.00">/ExtTurbIface.H</text>
</a>
</g>
</g>
<!-- Node2&#45;&gt;Node23 -->
<g id="edge33_Node000002_Node000023" class="edge">
<title>Node2&#45;&gt;Node23</title>
<g id="a_edge33_Node000002_Node000023"><a xlink:title=" ">
<path fill="none" stroke="#63b8ff" d="M339.04,-450.99C324.29,-441.69 306.46,-430.45 290.71,-420.53"/>
<polygon fill="#63b8ff" stroke="#63b8ff" points="292.54,-417.54 282.21,-415.17 288.81,-423.47 292.54,-417.54"/>
</a>
</g>
</g>
<!-- Node24 -->
<g id="Node000024" class="node">
<title>Node24</title>
<g id="a_Node000024"><a xlink:href="_ext_solver_8_h.html" target="_top" xlink:title=" ">
<polygon fill="white" stroke="#666666" points="324,-327 178,-327 178,-308 324,-308 324,-327"/>
<text text-anchor="middle" x="251" y="-315" font-family="Helvetica,sans-Serif" font-size="10.00">amr&#45;wind/core/ExtSolver.H</text>
</a>
</g>
</g>
<!-- Node2&#45;&gt;Node24 -->
<g id="edge50_Node000002_Node000024" class="edge">
<title>Node2&#45;&gt;Node24</title>
<g id="a_edge50_Node000002_Node000024"><a xlink:title=" ">
<path fill="none" stroke="#63b8ff" d="M365.32,-450.68C359.65,-429.88 348.49,-397.07 330,-374 315.76,-356.23 294.39,-341.69 277.46,-331.96"/>
<polygon fill="#63b8ff" stroke="#63b8ff" points="279.04,-328.83 268.59,-327.06 275.65,-334.96 279.04,-328.83"/>
</a>
</g>
</g>
<!-- Node4 -->
<g id="Node000004" class="node">
<title>Node4</title>
<g id="a_Node000004"><a xlink:href="actuator__types_8_h.html" target="_top" xlink:title=" ">
<polygon fill="white" stroke="#666666" points="832,-332.5 686,-332.5 686,-302.5 832,-302.5 832,-332.5"/>
<text text-anchor="start" x="694" y="-320.5" font-family="Helvetica,sans-Serif" font-size="10.00">amr&#45;wind/wind_energy</text>
<text text-anchor="middle" x="759" y="-309.5" font-family="Helvetica,sans-Serif" font-size="10.00">/actuator/actuator_types.H</text>
</a>
</g>
</g>
<!-- Node3&#45;&gt;Node4 -->
<g id="edge3_Node000003_Node000004" class="edge">
<title>Node3&#45;&gt;Node4</title>
<g id="a_edge3_Node000003_Node000004"><a xlink:title=" ">
<path fill="none" stroke="#63b8ff" d="M721.4,-373.79C728.16,-363.86 736.39,-351.75 743.43,-341.4"/>
<polygon fill="#63b8ff" stroke="#63b8ff" points="746.51,-343.1 749.23,-332.86 740.72,-339.16 746.51,-343.1"/>
</a>
</g>
</g>
<!-- Node5 -->
<g id="Node000005" class="node">
<title>Node5</title>
<g id="a_Node000005"><a xlink:href="_slice_8_h.html" target="_top" xlink:title=" ">
<polygon fill="white" stroke="#666666" points="974,-255.5 850,-255.5 850,-236.5 974,-236.5 974,-255.5"/>
<text text-anchor="middle" x="912" y="-243.5" font-family="Helvetica,sans-Serif" font-size="10.00">amr&#45;wind/core/Slice.H</text>
</a>
</g>
</g>
<!-- Node4&#45;&gt;Node5 -->
<g id="edge4_Node000004_Node000005" class="edge">
<title>Node4&#45;&gt;Node5</title>
<g id="a_edge4_Node000004_Node000005"><a xlink:title=" ">
<path fill="none" stroke="#63b8ff" d="M789.96,-302.44C817.49,-289.93 857.39,-271.81 883.99,-259.72"/>
<polygon fill="#63b8ff" stroke="#63b8ff" points="885.48,-262.89 893.14,-255.57 882.59,-256.52 885.48,-262.89"/>
</a>
</g>
</g>
<!-- Node8 -->
<g id="Node000008" class="node">
<title>Node8</title>
<g id="a_Node000008"><a xlink:title=" ">
<polygon fill="#e0e0e0" stroke="#999999" points="1025.5,-19 938.5,-19 938.5,0 1025.5,0 1025.5,-19"/>
<text text-anchor="middle" x="982" y="-7" font-family="Helvetica,sans-Serif" font-size="10.00">AMReX_Gpu.H</text>
</a>
</g>
</g>
<!-- Node4&#45;&gt;Node8 -->
<g id="edge29_Node000004_Node000008" class="edge">
<title>Node4&#45;&gt;Node8</title>
<g id="a_edge29_Node000004_Node000008"><a xlink:title=" ">
<path fill="none" stroke="#63b8ff" d="M764.69,-302.34C773.64,-278.73 790,-229.66 790,-186.5 790,-186.5 790,-186.5 790,-129.5 790,-64.02 871.68,-33.33 928.49,-19.91"/>
<polygon fill="#63b8ff" stroke="#63b8ff" points="929.44,-23.28 938.43,-17.67 927.91,-16.45 929.44,-23.28"/>
</a>
</g>
</g>
<!-- Node9 -->
<g id="Node000009" class="node">
<title>Node9</title>
<g id="a_Node000009"><a xlink:href="vector__space_8_h.html" target="_top" xlink:title=" ">
<polygon fill="white" stroke="#666666" points="1183.5,-261 1048.5,-261 1048.5,-231 1183.5,-231 1183.5,-261"/>
<text text-anchor="start" x="1056.5" y="-249" font-family="Helvetica,sans-Serif" font-size="10.00">amr&#45;wind/core/vs/vector</text>
<text text-anchor="middle" x="1116" y="-238" font-family="Helvetica,sans-Serif" font-size="10.00">_space.H</text>
</a>
</g>
</g>
<!-- Node4&#45;&gt;Node9 -->
<g id="edge8_Node000004_Node000009" class="edge">
<title>Node4&#45;&gt;Node9</title>
<g id="a_edge8_Node000004_Node000009"><a xlink:title=" ">
<path fill="none" stroke="#63b8ff" d="M831.24,-302.44C891.36,-290.73 976.77,-274.11 1038.34,-262.12"/>
<polygon fill="#63b8ff" stroke="#63b8ff" points="1039.25,-265.51 1048.4,-260.16 1037.91,-258.64 1039.25,-265.51"/>
</a>
</g>
</g>
<!-- Node20 -->
<g id="Node000020" class="node">
<title>Node20</title>
<g id="a_Node000020"><a xlink:title=" ">
<polygon fill="#e0e0e0" stroke="#999999" points="648,-255.5 540,-255.5 540,-236.5 648,-236.5 648,-255.5"/>
<text text-anchor="middle" x="594" y="-243.5" font-family="Helvetica,sans-Serif" font-size="10.00">AMReX_RealBox.H</text>
</a>
</g>
</g>
<!-- Node4&#45;&gt;Node20 -->
<g id="edge30_Node000004_Node000020" class="edge">
<title>Node4&#45;&gt;Node20</title>
<g id="a_edge30_Node000004_Node000020"><a xlink:title=" ">
<path fill="none" stroke="#63b8ff" d="M725.61,-302.44C695.79,-289.88 652.51,-271.65 623.83,-259.57"/>
<polygon fill="#63b8ff" stroke="#63b8ff" points="624.92,-256.22 614.34,-255.57 622.2,-262.68 624.92,-256.22"/>
</a>
</g>
</g>
<!-- Node21 -->
<g id="Node000021" class="node">
<title>Node21</title>
<g id="a_Node000021"><a xlink:title=" ">
<polygon fill="#e0e0e0" stroke="#999999" points="698,-255.5 666,-255.5 666,-236.5 698,-236.5 698,-255.5"/>
<text text-anchor="middle" x="682" y="-243.5" font-family="Helvetica,sans-Serif" font-size="10.00">set</text>
</a>
</g>
</g>
<!-- Node4&#45;&gt;Node21 -->
<g id="edge31_Node000004_Node000021" class="edge">
<title>Node4&#45;&gt;Node21</title>
<g id="a_edge31_Node000004_Node000021"><a xlink:title=" ">
<path fill="none" stroke="#63b8ff" d="M743.42,-302.44C730.61,-290.87 712.48,-274.51 699.23,-262.56"/>
<polygon fill="#63b8ff" stroke="#63b8ff" points="701.48,-259.87 691.71,-255.77 696.79,-265.07 701.48,-259.87"/>
</a>
</g>
</g>
<!-- Node22 -->
<g id="Node000022" class="node">
<title>Node22</title>
<g id="a_Node000022"><a xlink:title=" ">
<polygon fill="#e0e0e0" stroke="#999999" points="761.5,-255.5 716.5,-255.5 716.5,-236.5 761.5,-236.5 761.5,-255.5"/>
<text text-anchor="middle" x="739" y="-243.5" font-family="Helvetica,sans-Serif" font-size="10.00">utility</text>
</a>
</g>
</g>
<!-- Node4&#45;&gt;Node22 -->
<g id="edge32_Node000004_Node000022" class="edge">
<title>Node4&#45;&gt;Node22</title>
<g id="a_edge32_Node000004_Node000022"><a xlink:title=" ">
<path fill="none" stroke="#63b8ff" d="M754.95,-302.44C751.91,-291.86 747.71,-277.25 744.38,-265.69"/>
<polygon fill="#63b8ff" stroke="#63b8ff" points="747.65,-264.41 741.52,-255.77 740.92,-266.34 747.65,-264.41"/>
</a>
</g>
</g>
<!-- Node6 -->
<g id="Node000006" class="node">
<title>Node6</title>
<g id="a_Node000006"><a xlink:title=" ">
<polygon fill="#e0e0e0" stroke="#999999" points="1025.5,-195 972.5,-195 972.5,-176 1025.5,-176 1025.5,-195"/>
<text text-anchor="middle" x="999" y="-183" font-family="Helvetica,sans-Serif" font-size="10.00">iterator</text>
</a>
</g>
</g>
<!-- Node5&#45;&gt;Node6 -->
<g id="edge5_Node000005_Node000006" class="edge">
<title>Node5&#45;&gt;Node6</title>
<g id="a_edge5_Node000005_Node000006"><a xlink:title=" ">
<path fill="none" stroke="#63b8ff" d="M924.84,-236.37C938.72,-227.04 961.07,-212.01 977.61,-200.88"/>
<polygon fill="#63b8ff" stroke="#63b8ff" points="979.76,-203.65 986.11,-195.17 975.86,-197.84 979.76,-203.65"/>
</a>
</g>
</g>
<!-- Node7 -->
<g id="Node000007" class="node">
<title>Node7</title>
<g id="a_Node000007"><a xlink:title=" ">
<polygon fill="#e0e0e0" stroke="#999999" points="916,-195 818,-195 818,-176 916,-176 916,-195"/>
<text text-anchor="middle" x="867" y="-183" font-family="Helvetica,sans-Serif" font-size="10.00">AMReX_Vector.H</text>
</a>
</g>
</g>
<!-- Node5&#45;&gt;Node7 -->
<g id="edge6_Node000005_Node000007" class="edge">
<title>Node5&#45;&gt;Node7</title>
<g id="a_edge6_Node000005_Node000007"><a xlink:title=" ">
<path fill="none" stroke="#63b8ff" d="M905.36,-236.37C898.71,-227.73 888.31,-214.2 880.01,-203.42"/>
<polygon fill="#63b8ff" stroke="#63b8ff" points="882.54,-200.96 873.67,-195.17 876.99,-205.23 882.54,-200.96"/>
</a>
</g>
</g>
<!-- Node5&#45;&gt;Node8 -->
<g id="edge7_Node000005_Node000008" class="edge">
<title>Node5&#45;&gt;Node8</title>
<g id="a_edge7_Node000005_Node000008"><a xlink:title=" ">
<path fill="none" stroke="#63b8ff" d="M914.57,-236.38C924.73,-202.34 962.19,-76.87 976.44,-29.12"/>
<polygon fill="#63b8ff" stroke="#63b8ff" points="979.82,-30.04 979.33,-19.45 973.11,-28.03 979.82,-30.04"/>
</a>
</g>
</g>
<!-- Node10 -->
<g id="Node000010" class="node">
<title>Node10</title>
<g id="a_Node000010"><a xlink:href="vector_8_h.html" target="_top" xlink:title=" ">
<polygon fill="white" stroke="#666666" points="1383.5,-140 1238.5,-140 1238.5,-121 1383.5,-121 1383.5,-140"/>
<text text-anchor="middle" x="1311" y="-128" font-family="Helvetica,sans-Serif" font-size="10.00">amr&#45;wind/core/vs/vector.H</text>
</a>
</g>
</g>
<!-- Node9&#45;&gt;Node10 -->
<g id="edge9_Node000009_Node000010" class="edge">
<title>Node9&#45;&gt;Node10</title>
<g id="a_edge9_Node000009_Node000010"><a xlink:title=" ">
<path fill="none" stroke="#63b8ff" d="M1140.3,-230.85C1177.95,-208.94 1249.91,-167.06 1287.23,-145.33"/>
<polygon fill="#63b8ff" stroke="#63b8ff" points="1289.05,-148.33 1295.93,-140.27 1285.53,-142.28 1289.05,-148.33"/>
</a>
</g>
</g>
<!-- Node17 -->
<g id="Node000017" class="node">
<title>Node17</title>
<g id="a_Node000017"><a xlink:href="tensor_8_h.html" target="_top" xlink:title=" ">
<polygon fill="white" stroke="#666666" points="1188.5,-195 1043.5,-195 1043.5,-176 1188.5,-176 1188.5,-195"/>
<text text-anchor="middle" x="1116" y="-183" font-family="Helvetica,sans-Serif" font-size="10.00">amr&#45;wind/core/vs/tensor.H</text>
</a>
</g>
</g>
<!-- Node9&#45;&gt;Node17 -->
<g id="edge18_Node000009_Node000017" class="edge">
<title>Node9&#45;&gt;Node17</title>
<g id="a_edge18_Node000009_Node000017"><a xlink:title=" ">
<path fill="none" stroke="#63b8ff" d="M1116,-230.84C1116,-223.21 1116,-213.7 1116,-205.45"/>
<polygon fill="#63b8ff" stroke="#63b8ff" points="1119.5,-205.27 1116,-195.27 1112.5,-205.27 1119.5,-205.27"/>
</a>
</g>
</g>
<!-- Node10&#45;&gt;Node8 -->
<g id="edge10_Node000010_Node000008" class="edge">
<title>Node10&#45;&gt;Node8</title>
<g id="a_edge10_Node000010_Node000008"><a xlink:title=" ">
<path fill="none" stroke="#63b8ff" d="M1238.47,-123.69C1169.57,-117.1 1071.78,-104.65 1039,-85 1016.58,-71.56 999.87,-45.69 990.52,-28.26"/>
<polygon fill="#63b8ff" stroke="#63b8ff" points="993.53,-26.46 985.88,-19.13 987.29,-29.63 993.53,-26.46"/>
</a>
</g>
</g>
<!-- Node11 -->
<g id="Node000011" class="node">
<title>Node11</title>
<g id="a_Node000011"><a xlink:href="vstraits_8_h.html" target="_top" xlink:title=" ">
<polygon fill="white" stroke="#666666" points="1360,-79.5 1208,-79.5 1208,-60.5 1360,-60.5 1360,-79.5"/>
<text text-anchor="middle" x="1284" y="-67.5" font-family="Helvetica,sans-Serif" font-size="10.00">amr&#45;wind/core/vs/vstraits.H</text>
</a>
</g>
</g>
<!-- Node10&#45;&gt;Node11 -->
<g id="edge11_Node000010_Node000011" class="edge">
<title>Node10&#45;&gt;Node11</title>
<g id="a_edge11_Node000010_Node000011"><a xlink:title=" ">
<path fill="none" stroke="#63b8ff" d="M1307.02,-120.87C1303.15,-112.49 1297.16,-99.51 1292.26,-88.89"/>
<polygon fill="#63b8ff" stroke="#63b8ff" points="1295.37,-87.28 1288,-79.67 1289.01,-90.21 1295.37,-87.28"/>
</a>
</g>
</g>
<!-- Node14 -->
<g id="Node000014" class="node">
<title>Node14</title>
<g id="a_Node000014"><a xlink:href="vector_i_8_h.html" target="_top" xlink:title=" ">
<polygon fill="white" stroke="#666666" points="1527.5,-79.5 1378.5,-79.5 1378.5,-60.5 1527.5,-60.5 1527.5,-79.5"/>
<text text-anchor="middle" x="1453" y="-67.5" font-family="Helvetica,sans-Serif" font-size="10.00">amr&#45;wind/core/vs/vectorI.H</text>
</a>
</g>
</g>
<!-- Node10&#45;&gt;Node14 -->
<g id="edge14_Node000010_Node000014" class="edge">
<title>Node10&#45;&gt;Node14</title>
<g id="a_edge14_Node000010_Node000014"><a xlink:title=" ">
<path fill="none" stroke="#63b8ff" d="M1326.72,-120.99C1348.73,-111.03 1388.75,-94.45 1417.95,-83.13"/>
<polygon fill="#63b8ff" stroke="#63b8ff" points="1419.31,-86.36 1427.4,-79.52 1416.81,-79.82 1419.31,-86.36"/>
</a>
</g>
</g>
<!-- Node12 -->
<g id="Node000012" class="node">
<title>Node12</title>
<g id="a_Node000012"><a xlink:title=" ">
<polygon fill="#e0e0e0" stroke="#999999" points="1306,-19 1262,-19 1262,0 1306,0 1306,-19"/>
<text text-anchor="middle" x="1284" y="-7" font-family="Helvetica,sans-Serif" font-size="10.00">limits</text>
</a>
</g>
</g>
<!-- Node11&#45;&gt;Node12 -->
<g id="edge12_Node000011_Node000012" class="edge">
<title>Node11&#45;&gt;Node12</title>
<g id="a_edge12_Node000011_Node000012"><a xlink:title=" ">
<path fill="none" stroke="#63b8ff" d="M1284,-60.37C1284,-52.25 1284,-39.81 1284,-29.39"/>
<polygon fill="#63b8ff" stroke="#63b8ff" points="1287.5,-29.17 1284,-19.17 1280.5,-29.17 1287.5,-29.17"/>
</a>
</g>
</g>
<!-- Node13 -->
<g id="Node000013" class="node">
<title>Node13</title>
<g id="a_Node000013"><a xlink:title=" ">
<polygon fill="#e0e0e0" stroke="#999999" points="1146,-19 1054,-19 1054,0 1146,0 1146,-19"/>
<text text-anchor="middle" x="1100" y="-7" font-family="Helvetica,sans-Serif" font-size="10.00">AMReX_REAL.H</text>
</a>
</g>
</g>
<!-- Node11&#45;&gt;Node13 -->
<g id="edge13_Node000011_Node000013" class="edge">
<title>Node11&#45;&gt;Node13</title>
<g id="a_edge13_Node000011_Node000013"><a xlink:title=" ">
<path fill="none" stroke="#63b8ff" d="M1257.24,-60.49C1225.36,-50.36 1171.93,-33.37 1136.32,-22.05"/>
<polygon fill="#63b8ff" stroke="#63b8ff" points="1137.38,-18.71 1126.79,-19.02 1135.26,-25.38 1137.38,-18.71"/>
</a>
</g>
</g>
<!-- Node14&#45;&gt;Node10 -->
<g id="edge17_Node000014_Node000010" class="edge">
<title>Node14&#45;&gt;Node10</title>
<g id="a_edge17_Node000014_Node000010"><a xlink:title=" ">
<path fill="none" stroke="#63b8ff" d="M1437.26,-79.52C1415.24,-89.49 1375.21,-106.07 1346.02,-117.38"/>
<polygon fill="#63b8ff" stroke="#63b8ff" points="1344.66,-114.15 1336.58,-120.99 1347.17,-120.69 1344.66,-114.15"/>
</a>
</g>
</g>
<!-- Node15 -->
<g id="Node000015" class="node">
<title>Node15</title>
<g id="a_Node000015"><a xlink:title=" ">
<polygon fill="#e0e0e0" stroke="#999999" points="1481.5,-19 1424.5,-19 1424.5,0 1481.5,0 1481.5,-19"/>
<text text-anchor="middle" x="1453" y="-7" font-family="Helvetica,sans-Serif" font-size="10.00">ostream</text>
</a>
</g>
</g>
<!-- Node14&#45;&gt;Node15 -->
<g id="edge15_Node000014_Node000015" class="edge">
<title>Node14&#45;&gt;Node15</title>
<g id="a_edge15_Node000014_Node000015"><a xlink:title=" ">
<path fill="none" stroke="#63b8ff" d="M1453,-60.37C1453,-52.25 1453,-39.81 1453,-29.39"/>
<polygon fill="#63b8ff" stroke="#63b8ff" points="1456.5,-29.17 1453,-19.17 1449.5,-29.17 1456.5,-29.17"/>
</a>
</g>
</g>
<!-- Node16 -->
<g id="Node000016" class="node">
<title>Node16</title>
<g id="a_Node000016"><a xlink:title=" ">
<polygon fill="#e0e0e0" stroke="#999999" points="1211.5,-19 1164.5,-19 1164.5,0 1211.5,0 1211.5,-19"/>
<text text-anchor="middle" x="1188" y="-7" font-family="Helvetica,sans-Serif" font-size="10.00">cmath</text>
</a>
</g>
</g>
<!-- Node14&#45;&gt;Node16 -->
<g id="edge16_Node000014_Node000016" class="edge">
<title>Node14&#45;&gt;Node16</title>
<g id="a_edge16_Node000014_Node000016"><a xlink:title=" ">
<path fill="none" stroke="#63b8ff" d="M1414.47,-60.49C1362.47,-49.01 1270.69,-28.75 1221.45,-17.88"/>
<polygon fill="#63b8ff" stroke="#63b8ff" points="1222.13,-14.45 1211.62,-15.71 1220.63,-21.29 1222.13,-14.45"/>
</a>
</g>
</g>
<!-- Node17&#45;&gt;Node8 -->
<g id="edge19_Node000017_Node000008" class="edge">
<title>Node17&#45;&gt;Node8</title>
<g id="a_edge19_Node000017_Node000008"><a xlink:title=" ">
<path fill="none" stroke="#63b8ff" d="M1084.53,-175.99C1064.76,-169.18 1040.05,-157.78 1024,-140 995.45,-108.38 986.28,-57.09 983.36,-29.5"/>
<polygon fill="#63b8ff" stroke="#63b8ff" points="986.82,-28.91 982.45,-19.26 979.84,-29.53 986.82,-28.91"/>
</a>
</g>
</g>
<!-- Node17&#45;&gt;Node10 -->
<g id="edge21_Node000017_Node000010" class="edge">
<title>Node17&#45;&gt;Node10</title>
<g id="a_edge21_Node000017_Node000010"><a xlink:title=" ">
<path fill="none" stroke="#63b8ff" d="M1147.33,-175.98C1180.49,-166.97 1233,-152.7 1269.56,-142.76"/>
<polygon fill="#63b8ff" stroke="#63b8ff" points="1270.69,-146.08 1279.42,-140.08 1268.86,-139.33 1270.69,-146.08"/>
</a>
</g>
</g>
<!-- Node17&#45;&gt;Node11 -->
<g id="edge20_Node000017_Node000011" class="edge">
<title>Node17&#45;&gt;Node11</title>
<g id="a_edge20_Node000017_Node000011"><a xlink:title=" ">
<path fill="none" stroke="#63b8ff" d="M1131.51,-175.92C1146.88,-167.27 1170.96,-153.33 1191,-140 1217.45,-122.41 1246.67,-100.25 1265.17,-85.86"/>
<polygon fill="#63b8ff" stroke="#63b8ff" points="1267.38,-88.58 1273.1,-79.66 1263.07,-83.07 1267.38,-88.58"/>
</a>
</g>
</g>
<!-- Node18 -->
<g id="Node000018" class="node">
<title>Node18</title>
<g id="a_Node000018"><a xlink:href="tensor_i_8_h.html" target="_top" xlink:title=" ">
<polygon fill="white" stroke="#666666" points="1182.5,-140 1033.5,-140 1033.5,-121 1182.5,-121 1182.5,-140"/>
<text text-anchor="middle" x="1108" y="-128" font-family="Helvetica,sans-Serif" font-size="10.00">amr&#45;wind/core/vs/tensorI.H</text>
</a>
</g>
</g>
<!-- Node17&#45;&gt;Node18 -->
<g id="edge22_Node000017_Node000018" class="edge">
<title>Node17&#45;&gt;Node18</title>
<g id="a_edge22_Node000017_Node000018"><a xlink:title=" ">
<path fill="none" stroke="#63b8ff" d="M1109.51,-175.75C1106.97,-168.8 1105.03,-158.85 1104.33,-150.13"/>
<polygon fill="#63b8ff" stroke="#63b8ff" points="1107.83,-150.03 1104.17,-140.09 1100.83,-150.15 1107.83,-150.03"/>
</a>
</g>
</g>
<!-- Node18&#45;&gt;Node16 -->
<g id="edge23_Node000018_Node000016" class="edge">
<title>Node18&#45;&gt;Node16</title>
<g id="a_edge23_Node000018_Node000016"><a xlink:title=" ">
<path fill="none" stroke="#63b8ff" d="M1121.64,-120.76C1133.25,-112.71 1149.64,-99.79 1160,-85 1171.98,-67.9 1179.58,-45.03 1183.79,-29.16"/>
<polygon fill="#63b8ff" stroke="#63b8ff" points="1187.19,-29.99 1186.17,-19.44 1180.39,-28.32 1187.19,-29.99"/>
</a>
</g>
</g>
<!-- Node18&#45;&gt;Node17 -->
<g id="edge24_Node000018_Node000017" class="edge">
<title>Node18&#45;&gt;Node17</title>
<g id="a_edge24_Node000018_Node000017"><a xlink:title=" ">
<path fill="none" stroke="#63b8ff" d="M1114.43,-140.09C1116.98,-146.99 1118.93,-156.93 1119.65,-165.66"/>
<polygon fill="#63b8ff" stroke="#63b8ff" points="1116.15,-165.82 1119.85,-175.75 1123.15,-165.68 1116.15,-165.82"/>
</a>
</g>
</g>
<!-- Node19 -->
<g id="Node000019" class="node">
<title>Node19</title>
<g id="a_Node000019"><a xlink:href="trig__ops_8_h.html" target="_top" xlink:title=" ">
<polygon fill="white" stroke="#666666" points="1151.5,-85 1048.5,-85 1048.5,-55 1151.5,-55 1151.5,-85"/>
<text text-anchor="start" x="1056.5" y="-73" font-family="Helvetica,sans-Serif" font-size="10.00">amr&#45;wind/utilities</text>
<text text-anchor="middle" x="1100" y="-62" font-family="Helvetica,sans-Serif" font-size="10.00">/trig_ops.H</text>
</a>
</g>
</g>
<!-- Node18&#45;&gt;Node19 -->
<g id="edge25_Node000018_Node000019" class="edge">
<title>Node18&#45;&gt;Node19</title>
<g id="a_edge25_Node000018_Node000019"><a xlink:title=" ">
<path fill="none" stroke="#63b8ff" d="M1106.82,-120.87C1105.89,-114.11 1104.56,-104.35 1103.32,-95.26"/>
<polygon fill="#63b8ff" stroke="#63b8ff" points="1106.75,-94.55 1101.93,-85.11 1099.82,-95.5 1106.75,-94.55"/>
</a>
</g>
</g>
<!-- Node19&#45;&gt;Node8 -->
<g id="edge28_Node000019_Node000008" class="edge">
<title>Node19&#45;&gt;Node8</title>
<g id="a_edge28_Node000019_Node000008"><a xlink:title=" ">
<path fill="none" stroke="#63b8ff" d="M1071.74,-54.99C1052.58,-45.49 1027.42,-33.02 1008.61,-23.69"/>
<polygon fill="#63b8ff" stroke="#63b8ff" points="1009.94,-20.45 999.43,-19.14 1006.83,-26.72 1009.94,-20.45"/>
</a>
</g>
</g>
<!-- Node19&#45;&gt;Node13 -->
<g id="edge27_Node000019_Node000013" class="edge">
<title>Node19&#45;&gt;Node13</title>
<g id="a_edge27_Node000019_Node000013"><a xlink:title=" ">
<path fill="none" stroke="#63b8ff" d="M1100,-54.84C1100,-47.21 1100,-37.7 1100,-29.45"/>
<polygon fill="#63b8ff" stroke="#63b8ff" points="1103.5,-29.27 1100,-19.27 1096.5,-29.27 1103.5,-29.27"/>
</a>
</g>
</g>
<!-- Node19&#45;&gt;Node16 -->
<g id="edge26_Node000019_Node000016" class="edge">
<title>Node19&#45;&gt;Node16</title>
<g id="a_edge26_Node000019_Node000016"><a xlink:title=" ">
<path fill="none" stroke="#63b8ff" d="M1121.3,-54.84C1135.07,-45.68 1152.93,-33.82 1166.7,-24.66"/>
<polygon fill="#63b8ff" stroke="#63b8ff" points="1168.68,-27.55 1175.07,-19.09 1164.81,-21.72 1168.68,-27.55"/>
</a>
</g>
</g>
<!-- Node23&#45;&gt;Node24 -->
<g id="edge34_Node000023_Node000024" class="edge">
<title>Node23&#45;&gt;Node24</title>
<g id="a_edge34_Node000023_Node000024"><a xlink:title=" ">
<path fill="none" stroke="#63b8ff" d="M251,-373.79C251,-362.59 251,-348.61 251,-337.52"/>
<polygon fill="#63b8ff" stroke="#63b8ff" points="254.5,-337.24 251,-327.24 247.5,-337.24 254.5,-337.24"/>
</a>
</g>
</g>
<!-- Node33 -->
<g id="Node000033" class="node">
<title>Node33</title>
<g id="a_Node000033"><a xlink:href="external__base__types_8_h.html" target="_top" xlink:title=" ">
<polygon fill="white" stroke="#666666" points="483.5,-338 342.5,-338 342.5,-297 483.5,-297 483.5,-338"/>
<text text-anchor="start" x="350.5" y="-326" font-family="Helvetica,sans-Serif" font-size="10.00">amr&#45;wind/wind_energy</text>
<text text-anchor="start" x="350.5" y="-315" font-family="Helvetica,sans-Serif" font-size="10.00">/actuator/turbine/external</text>
<text text-anchor="middle" x="413" y="-304" font-family="Helvetica,sans-Serif" font-size="10.00">/external_base_types.H</text>
</a>
</g>
</g>
<!-- Node23&#45;&gt;Node33 -->
<g id="edge46_Node000023_Node000033" class="edge">
<title>Node23&#45;&gt;Node33</title>
<g id="a_edge46_Node000023_Node000033"><a xlink:title=" ">
<path fill="none" stroke="#63b8ff" d="M293.14,-373.99C314.06,-364.31 339.51,-352.52 361.57,-342.31"/>
<polygon fill="#63b8ff" stroke="#63b8ff" points="363.18,-345.42 370.79,-338.04 360.24,-339.07 363.18,-345.42"/>
</a>
</g>
</g>
<!-- Node34 -->
<g id="Node000034" class="node">
<title>Node34</title>
<g id="a_Node000034"><a xlink:title=" ">
<polygon fill="#e0e0e0" stroke="#999999" points="94,-327 56,-327 56,-308 94,-308 94,-327"/>
<text text-anchor="middle" x="75" y="-315" font-family="Helvetica,sans-Serif" font-size="10.00">map</text>
</a>
</g>
</g>
<!-- Node23&#45;&gt;Node34 -->
<g id="edge48_Node000023_Node000034" class="edge">
<title>Node23&#45;&gt;Node34</title>
<g id="a_edge48_Node000023_Node000034"><a xlink:title=" ">
<path fill="none" stroke="#63b8ff" d="M188.3,-373.88C161.37,-364.48 129.97,-352.16 103,-338 100.15,-336.51 97.26,-334.77 94.46,-332.96"/>
<polygon fill="#63b8ff" stroke="#63b8ff" points="96.25,-329.95 86.04,-327.14 92.27,-335.7 96.25,-329.95"/>
</a>
</g>
</g>
<!-- Node35 -->
<g id="Node000035" class="node">
<title>Node35</title>
<g id="a_Node000035"><a xlink:title=" ">
<polygon fill="#e0e0e0" stroke="#999999" points="159.5,-327 112.5,-327 112.5,-308 159.5,-308 159.5,-327"/>
<text text-anchor="middle" x="136" y="-315" font-family="Helvetica,sans-Serif" font-size="10.00">vector</text>
</a>
</g>
</g>
<!-- Node23&#45;&gt;Node35 -->
<g id="edge49_Node000023_Node000035" class="edge">
<title>Node23&#45;&gt;Node35</title>
<g id="a_edge49_Node000023_Node000035"><a xlink:title=" ">
<path fill="none" stroke="#63b8ff" d="M221.09,-373.99C201.25,-361.05 175.68,-344.38 157.76,-332.69"/>
<polygon fill="#63b8ff" stroke="#63b8ff" points="159.46,-329.62 149.17,-327.09 155.63,-335.48 159.46,-329.62"/>
</a>
</g>
</g>
<!-- Node25 -->
<g id="Node000025" class="node">
<title>Node25</title>
<g id="a_Node000025"><a xlink:href="_factory_8_h.html" target="_top" xlink:title=" ">
<polygon fill="white" stroke="#666666" points="288,-255.5 154,-255.5 154,-236.5 288,-236.5 288,-255.5"/>
<text text-anchor="middle" x="221" y="-243.5" font-family="Helvetica,sans-Serif" font-size="10.00">amr&#45;wind/core/Factory.H</text>
</a>
</g>
</g>
<!-- Node24&#45;&gt;Node25 -->
<g id="edge35_Node000024_Node000025" class="edge">
<title>Node24&#45;&gt;Node25</title>
<g id="a_edge35_Node000024_Node000025"><a xlink:title=" ">
<path fill="none" stroke="#63b8ff" d="M247.32,-307.98C242.73,-297.35 234.77,-278.89 228.8,-265.06"/>
<polygon fill="#63b8ff" stroke="#63b8ff" points="231.89,-263.39 224.71,-255.59 225.46,-266.16 231.89,-263.39"/>
</a>
</g>
</g>
<!-- Node31 -->
<g id="Node000031" class="node">
<title>Node31</title>
<g id="a_Node000031"><a xlink:href="_coll_mgr_8_h.html" target="_top" xlink:title=" ">
<polygon fill="white" stroke="#666666" points="445.5,-255.5 308.5,-255.5 308.5,-236.5 445.5,-236.5 445.5,-255.5"/>
<text text-anchor="middle" x="377" y="-243.5" font-family="Helvetica,sans-Serif" font-size="10.00">amr&#45;wind/core/CollMgr.H</text>
</a>
</g>
</g>
<!-- Node24&#45;&gt;Node31 -->
<g id="edge41_Node000024_Node000031" class="edge">
<title>Node24&#45;&gt;Node31</title>
<g id="a_edge41_Node000024_Node000031"><a xlink:title=" ">
<path fill="none" stroke="#63b8ff" d="M266.45,-307.98C287.89,-296.15 326.91,-274.63 352.39,-260.58"/>
<polygon fill="#63b8ff" stroke="#63b8ff" points="354.36,-263.49 361.42,-255.59 350.98,-257.36 354.36,-263.49"/>
</a>
</g>
</g>
<!-- Node26 -->
<g id="Node000026" class="node">
<title>Node26</title>
<g id="a_Node000026"><a xlink:title=" ">
<polygon fill="#e0e0e0" stroke="#999999" points="324,-195 266,-195 266,-176 324,-176 324,-195"/>
<text text-anchor="middle" x="295" y="-183" font-family="Helvetica,sans-Serif" font-size="10.00">memory</text>
</a>
</g>
</g>
<!-- Node25&#45;&gt;Node26 -->
<g id="edge36_Node000025_Node000026" class="edge">
<title>Node25&#45;&gt;Node26</title>
<g id="a_edge36_Node000025_Node000026"><a xlink:title=" ">
<path fill="none" stroke="#63b8ff" d="M231.92,-236.37C243.51,-227.21 262.03,-212.56 276.02,-201.51"/>
<polygon fill="#63b8ff" stroke="#63b8ff" points="278.36,-204.11 284.04,-195.17 274.02,-198.62 278.36,-204.11"/>
</a>
</g>
</g>
<!-- Node27 -->
<g id="Node000027" class="node">
<title>Node27</title>
<g id="a_Node000027"><a xlink:title=" ">
<polygon fill="#e0e0e0" stroke="#999999" points="435.5,-195 342.5,-195 342.5,-176 435.5,-176 435.5,-195"/>
<text text-anchor="middle" x="389" y="-183" font-family="Helvetica,sans-Serif" font-size="10.00">unordered_map</text>
</a>
</g>
</g>
<!-- Node25&#45;&gt;Node27 -->
<g id="edge37_Node000025_Node000027" class="edge">
<title>Node25&#45;&gt;Node27</title>
<g id="a_edge37_Node000025_Node000027"><a xlink:title=" ">
<path fill="none" stroke="#63b8ff" d="M245.43,-236.49C274.29,-226.44 322.5,-209.66 355,-198.34"/>
<polygon fill="#63b8ff" stroke="#63b8ff" points="356.25,-201.61 364.54,-195.02 353.95,-195 356.25,-201.61"/>
</a>
</g>
</g>
<!-- Node28 -->
<g id="Node000028" class="node">
<title>Node28</title>
<g id="a_Node000028"><a xlink:title=" ">
<polygon fill="#e0e0e0" stroke="#999999" points="60,-195 0,-195 0,-176 60,-176 60,-195"/>
<text text-anchor="middle" x="30" y="-183" font-family="Helvetica,sans-Serif" font-size="10.00">iostream</text>
</a>
</g>
</g>
<!-- Node25&#45;&gt;Node28 -->
<g id="edge38_Node000025_Node000028" class="edge">
<title>Node25&#45;&gt;Node28</title>
<g id="a_edge38_Node000025_Node000028"><a xlink:title=" ">
<path fill="none" stroke="#63b8ff" d="M193.23,-236.49C160.13,-226.36 104.66,-209.37 67.71,-198.05"/>
<polygon fill="#63b8ff" stroke="#63b8ff" points="68.39,-194.6 57.81,-195.02 66.34,-201.29 68.39,-194.6"/>
</a>
</g>
</g>
<!-- Node29 -->
<g id="Node000029" class="node">
<title>Node29</title>
<g id="a_Node000029"><a xlink:title=" ">
<polygon fill="#e0e0e0" stroke="#999999" points="168,-195 78,-195 78,-176 168,-176 168,-195"/>
<text text-anchor="middle" x="123" y="-183" font-family="Helvetica,sans-Serif" font-size="10.00">AMReX_Print.H</text>
</a>
</g>
</g>
<!-- Node25&#45;&gt;Node29 -->
<g id="edge39_Node000025_Node000029" class="edge">
<title>Node25&#45;&gt;Node29</title>
<g id="a_edge39_Node000025_Node000029"><a xlink:title=" ">
<path fill="none" stroke="#63b8ff" d="M206.54,-236.37C190.69,-226.91 165.03,-211.59 146.32,-200.42"/>
<polygon fill="#63b8ff" stroke="#63b8ff" points="147.9,-197.29 137.52,-195.17 144.31,-203.3 147.9,-197.29"/>
</a>
</g>
</g>
<!-- Node30 -->
<g id="Node000030" class="node">
<title>Node30</title>
<g id="a_Node000030"><a xlink:title=" ">
<polygon fill="#e0e0e0" stroke="#999999" points="248,-195 186,-195 186,-176 248,-176 248,-195"/>
<text text-anchor="middle" x="217" y="-183" font-family="Helvetica,sans-Serif" font-size="10.00">AMReX.H</text>
</a>
</g>
</g>
<!-- Node25&#45;&gt;Node30 -->
<g id="edge40_Node000025_Node000030" class="edge">
<title>Node25&#45;&gt;Node30</title>
<g id="a_edge40_Node000025_Node000030"><a xlink:title=" ">
<path fill="none" stroke="#63b8ff" d="M220.41,-236.37C219.85,-228.25 219,-215.81 218.29,-205.39"/>
<polygon fill="#63b8ff" stroke="#63b8ff" points="221.77,-204.91 217.59,-195.17 214.78,-205.38 221.77,-204.91"/>
</a>
</g>
</g>
<!-- Node31&#45;&gt;Node7 -->
<g id="edge45_Node000031_Node000007" class="edge">
<title>Node31&#45;&gt;Node7</title>
<g id="a_edge45_Node000031_Node000007"><a xlink:title=" ">
<path fill="none" stroke="#63b8ff" d="M445.65,-236.8C542.15,-225.28 716.3,-204.49 807.55,-193.6"/>
<polygon fill="#63b8ff" stroke="#63b8ff" points="808.21,-197.04 817.73,-192.38 807.38,-190.09 808.21,-197.04"/>
</a>
</g>
</g>
<!-- Node31&#45;&gt;Node26 -->
<g id="edge43_Node000031_Node000026" class="edge">
<title>Node31&#45;&gt;Node26</title>
<g id="a_edge43_Node000031_Node000026"><a xlink:title=" ">
<path fill="none" stroke="#63b8ff" d="M364.9,-236.37C351.94,-227.12 331.14,-212.28 315.6,-201.19"/>
<polygon fill="#63b8ff" stroke="#63b8ff" points="317.32,-198.13 307.15,-195.17 313.26,-203.82 317.32,-198.13"/>
</a>
</g>
</g>
<!-- Node31&#45;&gt;Node27 -->
<g id="edge44_Node000031_Node000027" class="edge">
<title>Node31&#45;&gt;Node27</title>
<g id="a_edge44_Node000031_Node000027"><a xlink:title=" ">
<path fill="none" stroke="#63b8ff" d="M378.77,-236.37C380.45,-228.16 383.04,-215.54 385.19,-205.05"/>
<polygon fill="#63b8ff" stroke="#63b8ff" points="388.64,-205.67 387.22,-195.17 381.78,-204.26 388.64,-205.67"/>
</a>
</g>
</g>
<!-- Node32 -->
<g id="Node000032" class="node">
<title>Node32</title>
<g id="a_Node000032"><a xlink:title=" ">
<polygon fill="#e0e0e0" stroke="#999999" points="498,-195 454,-195 454,-176 498,-176 498,-195"/>
<text text-anchor="middle" x="476" y="-183" font-family="Helvetica,sans-Serif" font-size="10.00">string</text>
</a>
</g>
</g>
<!-- Node31&#45;&gt;Node32 -->
<g id="edge42_Node000031_Node000032" class="edge">
<title>Node31&#45;&gt;Node32</title>
<g id="a_edge42_Node000031_Node000032"><a xlink:title=" ">
<path fill="none" stroke="#63b8ff" d="M391.61,-236.37C407.69,-226.86 433.78,-211.45 452.7,-200.27"/>
<polygon fill="#63b8ff" stroke="#63b8ff" points="454.5,-203.27 461.33,-195.17 450.94,-197.24 454.5,-203.27"/>
</a>
</g>
</g>
<!-- Node33&#45;&gt;Node32 -->
<g id="edge47_Node000033_Node000032" class="edge">
<title>Node33&#45;&gt;Node32</title>
<g id="a_edge47_Node000033_Node000032"><a xlink:title=" ">
<path fill="none" stroke="#63b8ff" d="M430.2,-296.79C438.34,-286.65 447.65,-273.76 454,-261 462.99,-242.93 468.99,-220.52 472.42,-205.03"/>
<polygon fill="#63b8ff" stroke="#63b8ff" points="475.87,-205.63 474.47,-195.13 469.02,-204.21 475.87,-205.63"/>
</a>
</g>
</g>
<!-- Node36&#45;&gt;Node32 -->
<g id="edge54_Node000036_Node000032" class="edge">
<title>Node36&#45;&gt;Node32</title>
<g id="a_edge54_Node000036_Node000032"><a xlink:title=" ">
<path fill="none" stroke="#63b8ff" d="M504.93,-373.65C498.75,-333.68 484.89,-243.99 478.87,-205.09"/>
<polygon fill="#63b8ff" stroke="#63b8ff" points="482.32,-204.5 477.34,-195.15 475.41,-205.57 482.32,-204.5"/>
</a>
</g>
</g>
<!-- Node36&#45;&gt;Node33 -->
<g id="edge53_Node000036_Node000033" class="edge">
<title>Node36&#45;&gt;Node33</title>
<g id="a_edge53_Node000036_Node000033"><a xlink:title=" ">
<path fill="none" stroke="#63b8ff" d="M483.04,-373.79C471.69,-364.84 458.12,-354.12 445.95,-344.51"/>
<polygon fill="#63b8ff" stroke="#63b8ff" points="447.81,-341.52 437.79,-338.07 443.47,-347.02 447.81,-341.52"/>
</a>
</g>
</g>
<!-- Node37 -->
<g id="Node000037" class="node">
<title>Node37</title>
<g id="a_Node000037"><a xlink:href="fast__wrapper_8_h.html" target="_top" xlink:title=" ">
<polygon fill="white" stroke="#666666" points="668,-338 540,-338 540,-297 668,-297 668,-338"/>
<text text-anchor="start" x="548" y="-326" font-family="Helvetica,sans-Serif" font-size="10.00">amr&#45;wind/wind_energy</text>
<text text-anchor="start" x="548" y="-315" font-family="Helvetica,sans-Serif" font-size="10.00">/actuator/turbine/fast</text>
<text text-anchor="middle" x="604" y="-304" font-family="Helvetica,sans-Serif" font-size="10.00">/fast_wrapper.H</text>
</a>
</g>
</g>
<!-- Node36&#45;&gt;Node37 -->
<g id="edge52_Node000036_Node000037" class="edge">
<title>Node36&#45;&gt;Node37</title>
<g id="a_edge52_Node000036_Node000037"><a xlink:title=" ">
<path fill="none" stroke="#63b8ff" d="M532.97,-373.99C544.55,-364.95 558.46,-354.07 570.9,-344.36"/>
<polygon fill="#63b8ff" stroke="#63b8ff" points="573.09,-347.09 578.82,-338.17 568.78,-341.57 573.09,-347.09"/>
</a>
</g>
</g>
</g>
</svg>
