<?xml version="1.0" encoding="UTF-8" standalone="no"?>
<!DOCTYPE svg PUBLIC "-//W3C//DTD SVG 1.1//EN"
 "http://www.w3.org/Graphics/SVG/1.1/DTD/svg11.dtd">
<!-- Generated by graphviz version 2.43.0 (0)
 -->
<!-- Title: /home/runner/work/amr&#45;wind/amr&#45;wind/amr&#45;wind/ocean_waves/relaxation_zones/W2AWaves.H Pages: 1 -->
<svg width="894pt" height="500pt"
 viewBox="0.00 0.00 893.50 500.00" xmlns="http://www.w3.org/2000/svg" xmlns:xlink="http://www.w3.org/1999/xlink">
<g id="graph0" class="graph" transform="scale(1 1) rotate(0) translate(4 496)">
<title>/home/runner/work/amr&#45;wind/amr&#45;wind/amr&#45;wind/ocean_waves/relaxation_zones/W2AWaves.H</title>
<!-- Node1 -->
<g id="Node000001" class="node">
<title>Node1</title>
<g id="a_Node000001"><a xlink:title=" ">
<polygon fill="#999999" stroke="#666666" points="856.5,-492 713.5,-492 713.5,-440 856.5,-440 856.5,-492"/>
<text text-anchor="start" x="721.5" y="-480" font-family="Helvetica,sans-Serif" font-size="10.00">/home/runner/work/amr</text>
<text text-anchor="start" x="721.5" y="-469" font-family="Helvetica,sans-Serif" font-size="10.00">&#45;wind/amr&#45;wind/amr&#45;wind</text>
<text text-anchor="start" x="721.5" y="-458" font-family="Helvetica,sans-Serif" font-size="10.00">/ocean_waves/relaxation</text>
<text text-anchor="middle" x="785" y="-447" font-family="Helvetica,sans-Serif" font-size="10.00">_zones/W2AWaves.H</text>
</a>
</g>
</g>
<!-- Node2 -->
<g id="Node000002" class="node">
<title>Node2</title>
<g id="a_Node000002"><a xlink:href="_relaxation_zones_8_h.html" target="_top" xlink:title=" ">
<polygon fill="white" stroke="#666666" points="744,-404 586,-404 586,-363 744,-363 744,-404"/>
<text text-anchor="start" x="594" y="-392" font-family="Helvetica,sans-Serif" font-size="10.00">amr&#45;wind/ocean_waves</text>
<text text-anchor="start" x="594" y="-381" font-family="Helvetica,sans-Serif" font-size="10.00">/relaxation_zones/Relaxation</text>
<text text-anchor="middle" x="665" y="-370" font-family="Helvetica,sans-Serif" font-size="10.00">Zones.H</text>
</a>
</g>
</g>
<!-- Node1&#45;&gt;Node2 -->
<g id="edge1_Node000001_Node000002" class="edge">
<title>Node1&#45;&gt;Node2</title>
<g id="a_edge1_Node000001_Node000002"><a xlink:title=" ">
<path fill="none" stroke="#63b8ff" d="M747.69,-439.97C733.45,-430.42 717.2,-419.52 702.9,-409.93"/>
<polygon fill="#63b8ff" stroke="#63b8ff" points="704.54,-406.81 694.29,-404.15 700.64,-412.62 704.54,-406.81"/>
</a>
</g>
</g>
<!-- Node19 -->
<g id="Node000019" class="node">
<title>Node19</title>
<g id="a_Node000019"><a xlink:title=" ">
<polygon fill="#e0e0e0" stroke="#999999" points="808.5,-393 761.5,-393 761.5,-374 808.5,-374 808.5,-393"/>
<text text-anchor="middle" x="785" y="-381" font-family="Helvetica,sans-Serif" font-size="10.00">vector</text>
</a>
</g>
</g>
<!-- Node1&#45;&gt;Node19 -->
<g id="edge29_Node000001_Node000019" class="edge">
<title>Node1&#45;&gt;Node19</title>
<g id="a_edge29_Node000001_Node000019"><a xlink:title=" ">
<path fill="none" stroke="#63b8ff" d="M785,-439.97C785,-428.19 785,-414.36 785,-403.46"/>
<polygon fill="#63b8ff" stroke="#63b8ff" points="788.5,-403.37 785,-393.37 781.5,-403.37 788.5,-403.37"/>
</a>
</g>
</g>
<!-- Node20 -->
<g id="Node000020" class="node">
<title>Node20</title>
<g id="a_Node000020"><a xlink:title=" ">
<polygon fill="#e0e0e0" stroke="#999999" points="885.5,-393 826.5,-393 826.5,-374 885.5,-374 885.5,-393"/>
<text text-anchor="middle" x="856" y="-381" font-family="Helvetica,sans-Serif" font-size="10.00">complex</text>
</a>
</g>
</g>
<!-- Node1&#45;&gt;Node20 -->
<g id="edge30_Node000001_Node000020" class="edge">
<title>Node1&#45;&gt;Node20</title>
<g id="a_edge30_Node000001_Node000020"><a xlink:title=" ">
<path fill="none" stroke="#63b8ff" d="M807.08,-439.97C818.23,-427.32 831.47,-412.31 841.36,-401.1"/>
<polygon fill="#63b8ff" stroke="#63b8ff" points="844.19,-403.18 848.18,-393.37 838.94,-398.55 844.19,-403.18"/>
</a>
</g>
</g>
<!-- Node3 -->
<g id="Node000003" class="node">
<title>Node3</title>
<g id="a_Node000003"><a xlink:href="_ocean_waves_types_8_h.html" target="_top" xlink:title=" ">
<polygon fill="white" stroke="#666666" points="649,-327 517,-327 517,-297 649,-297 649,-327"/>
<text text-anchor="start" x="525" y="-315" font-family="Helvetica,sans-Serif" font-size="10.00">amr&#45;wind/ocean_waves</text>
<text text-anchor="middle" x="583" y="-304" font-family="Helvetica,sans-Serif" font-size="10.00">/OceanWavesTypes.H</text>
</a>
</g>
</g>
<!-- Node2&#45;&gt;Node3 -->
<g id="edge2_Node000002_Node000003" class="edge">
<title>Node2&#45;&gt;Node3</title>
<g id="a_edge2_Node000002_Node000003"><a xlink:title=" ">
<path fill="none" stroke="#63b8ff" d="M641.72,-362.77C631.01,-353.69 618.29,-342.91 607.44,-333.71"/>
<polygon fill="#63b8ff" stroke="#63b8ff" points="609.45,-330.83 599.56,-327.04 604.93,-336.17 609.45,-330.83"/>
</a>
</g>
</g>
<!-- Node5 -->
<g id="Node000005" class="node">
<title>Node5</title>
<g id="a_Node000005"><a xlink:href="vector__space_8_h.html" target="_top" xlink:title=" ">
<polygon fill="white" stroke="#666666" points="488.5,-261 353.5,-261 353.5,-231 488.5,-231 488.5,-261"/>
<text text-anchor="start" x="361.5" y="-249" font-family="Helvetica,sans-Serif" font-size="10.00">amr&#45;wind/core/vs/vector</text>
<text text-anchor="middle" x="421" y="-238" font-family="Helvetica,sans-Serif" font-size="10.00">_space.H</text>
</a>
</g>
</g>
<!-- Node2&#45;&gt;Node5 -->
<g id="edge26_Node000002_Node000005" class="edge">
<title>Node2&#45;&gt;Node5</title>
<g id="a_edge26_Node000002_Node000005"><a xlink:title=" ">
<path fill="none" stroke="#63b8ff" d="M590.34,-362.92C563.32,-354.1 533.27,-342.2 508,-327 481.62,-311.13 456.28,-286.39 439.82,-268.62"/>
<polygon fill="#63b8ff" stroke="#63b8ff" points="442.23,-266.06 432.91,-261 437.04,-270.76 442.23,-266.06"/>
</a>
</g>
</g>
<!-- Node16 -->
<g id="Node000016" class="node">
<title>Node16</title>
<g id="a_Node000016"><a xlink:title=" ">
<polygon fill="#e0e0e0" stroke="#999999" points="746,-19 654,-19 654,0 746,0 746,-19"/>
<text text-anchor="middle" x="700" y="-7" font-family="Helvetica,sans-Serif" font-size="10.00">AMReX_REAL.H</text>
</a>
</g>
</g>
<!-- Node2&#45;&gt;Node16 -->
<g id="edge28_Node000002_Node000016" class="edge">
<title>Node2&#45;&gt;Node16</title>
<g id="a_edge28_Node000002_Node000016"><a xlink:title=" ">
<path fill="none" stroke="#63b8ff" d="M686.54,-362.72C710.84,-338.16 747,-293.74 747,-247 747,-247 747,-247 747,-129.5 747,-91.02 725.47,-50.12 711.56,-27.7"/>
<polygon fill="#63b8ff" stroke="#63b8ff" points="714.5,-25.8 706.14,-19.28 708.61,-29.59 714.5,-25.8"/>
</a>
</g>
</g>
<!-- Node18 -->
<g id="Node000018" class="node">
<title>Node18</title>
<g id="a_Node000018"><a xlink:title=" ">
<polygon fill="#e0e0e0" stroke="#999999" points="819,-321.5 775,-321.5 775,-302.5 819,-302.5 819,-321.5"/>
<text text-anchor="middle" x="797" y="-309.5" font-family="Helvetica,sans-Serif" font-size="10.00">string</text>
</a>
</g>
</g>
<!-- Node2&#45;&gt;Node18 -->
<g id="edge27_Node000002_Node000018" class="edge">
<title>Node2&#45;&gt;Node18</title>
<g id="a_edge27_Node000002_Node000018"><a xlink:title=" ">
<path fill="none" stroke="#63b8ff" d="M702.12,-362.96C724.4,-351.22 752.15,-336.61 771.87,-326.23"/>
<polygon fill="#63b8ff" stroke="#63b8ff" points="773.63,-329.26 780.85,-321.5 770.37,-323.07 773.63,-329.26"/>
</a>
</g>
</g>
<!-- Node4 -->
<g id="Node000004" class="node">
<title>Node4</title>
<g id="a_Node000004"><a xlink:title=" ">
<polygon fill="#e0e0e0" stroke="#999999" points="554.5,-255.5 509.5,-255.5 509.5,-236.5 554.5,-236.5 554.5,-255.5"/>
<text text-anchor="middle" x="532" y="-243.5" font-family="Helvetica,sans-Serif" font-size="10.00">utility</text>
</a>
</g>
</g>
<!-- Node3&#45;&gt;Node4 -->
<g id="edge3_Node000003_Node000004" class="edge">
<title>Node3&#45;&gt;Node4</title>
<g id="a_edge3_Node000003_Node000004"><a xlink:title=" ">
<path fill="none" stroke="#63b8ff" d="M571.68,-296.8C563.89,-287.01 553.5,-273.98 545.31,-263.7"/>
<polygon fill="#63b8ff" stroke="#63b8ff" points="548.02,-261.48 539.05,-255.84 542.54,-265.85 548.02,-261.48"/>
</a>
</g>
</g>
<!-- Node3&#45;&gt;Node5 -->
<g id="edge4_Node000003_Node000005" class="edge">
<title>Node3&#45;&gt;Node5</title>
<g id="a_edge4_Node000003_Node000005"><a xlink:title=" ">
<path fill="none" stroke="#63b8ff" d="M547.45,-296.95C523.5,-287.49 491.71,-274.93 466,-264.78"/>
<polygon fill="#63b8ff" stroke="#63b8ff" points="467.06,-261.43 456.47,-261.01 464.48,-267.94 467.06,-261.43"/>
</a>
</g>
</g>
<!-- Node7 -->
<g id="Node000007" class="node">
<title>Node7</title>
<g id="a_Node000007"><a xlink:title=" ">
<polygon fill="#e0e0e0" stroke="#999999" points="548.5,-19 461.5,-19 461.5,0 548.5,0 548.5,-19"/>
<text text-anchor="middle" x="505" y="-7" font-family="Helvetica,sans-Serif" font-size="10.00">AMReX_Gpu.H</text>
</a>
</g>
</g>
<!-- Node3&#45;&gt;Node7 -->
<g id="edge24_Node000003_Node000007" class="edge">
<title>Node3&#45;&gt;Node7</title>
<g id="a_edge24_Node000003_Node000007"><a xlink:title=" ">
<path fill="none" stroke="#63b8ff" d="M583,-296.81C583,-273.7 583,-226.49 583,-186.5 583,-186.5 583,-186.5 583,-129.5 583,-86.38 546.73,-46.73 523.66,-25.87"/>
<polygon fill="#63b8ff" stroke="#63b8ff" points="525.68,-23 515.85,-19.07 521.09,-28.28 525.68,-23"/>
</a>
</g>
</g>
<!-- Node17 -->
<g id="Node000017" class="node">
<title>Node17</title>
<g id="a_Node000017"><a xlink:title=" ">
<polygon fill="#e0e0e0" stroke="#999999" points="719,-255.5 611,-255.5 611,-236.5 719,-236.5 719,-255.5"/>
<text text-anchor="middle" x="665" y="-243.5" font-family="Helvetica,sans-Serif" font-size="10.00">AMReX_RealBox.H</text>
</a>
</g>
</g>
<!-- Node3&#45;&gt;Node17 -->
<g id="edge25_Node000003_Node000017" class="edge">
<title>Node3&#45;&gt;Node17</title>
<g id="a_edge25_Node000003_Node000017"><a xlink:title=" ">
<path fill="none" stroke="#63b8ff" d="M601.2,-296.8C614.36,-286.53 632.11,-272.67 645.55,-262.18"/>
<polygon fill="#63b8ff" stroke="#63b8ff" points="647.94,-264.76 653.67,-255.84 643.63,-259.24 647.94,-264.76"/>
</a>
</g>
</g>
<!-- Node6 -->
<g id="Node000006" class="node">
<title>Node6</title>
<g id="a_Node000006"><a xlink:href="vector_8_h.html" target="_top" xlink:title=" ">
<polygon fill="white" stroke="#666666" points="319.5,-140 174.5,-140 174.5,-121 319.5,-121 319.5,-140"/>
<text text-anchor="middle" x="247" y="-128" font-family="Helvetica,sans-Serif" font-size="10.00">amr&#45;wind/core/vs/vector.H</text>
</a>
</g>
</g>
<!-- Node5&#45;&gt;Node6 -->
<g id="edge5_Node000005_Node000006" class="edge">
<title>Node5&#45;&gt;Node6</title>
<g id="a_edge5_Node000005_Node000006"><a xlink:title=" ">
<path fill="none" stroke="#63b8ff" d="M393.59,-230.79C375.71,-221.24 352.06,-208.05 332,-195 308.33,-179.6 282.53,-159.88 265.64,-146.53"/>
<polygon fill="#63b8ff" stroke="#63b8ff" points="267.68,-143.68 257.68,-140.19 263.32,-149.15 267.68,-143.68"/>
</a>
</g>
</g>
<!-- Node13 -->
<g id="Node000013" class="node">
<title>Node13</title>
<g id="a_Node000013"><a xlink:href="tensor_8_h.html" target="_top" xlink:title=" ">
<polygon fill="white" stroke="#666666" points="486.5,-195 341.5,-195 341.5,-176 486.5,-176 486.5,-195"/>
<text text-anchor="middle" x="414" y="-183" font-family="Helvetica,sans-Serif" font-size="10.00">amr&#45;wind/core/vs/tensor.H</text>
</a>
</g>
</g>
<!-- Node5&#45;&gt;Node13 -->
<g id="edge13_Node000005_Node000013" class="edge">
<title>Node5&#45;&gt;Node13</title>
<g id="a_edge13_Node000005_Node000013"><a xlink:title=" ">
<path fill="none" stroke="#63b8ff" d="M419.31,-230.84C418.39,-223.21 417.26,-213.7 416.27,-205.45"/>
<polygon fill="#63b8ff" stroke="#63b8ff" points="419.71,-204.78 415.05,-195.27 412.76,-205.61 419.71,-204.78"/>
</a>
</g>
</g>
<!-- Node6&#45;&gt;Node7 -->
<g id="edge6_Node000006_Node000007" class="edge">
<title>Node6&#45;&gt;Node7</title>
<g id="a_edge6_Node000006_Node000007"><a xlink:title=" ">
<path fill="none" stroke="#63b8ff" d="M264.82,-120.84C293.86,-106.79 353.24,-78.22 404,-55 428.11,-43.97 455.66,-31.87 475.89,-23.07"/>
<polygon fill="#63b8ff" stroke="#63b8ff" points="477.41,-26.23 485.19,-19.03 474.62,-19.8 477.41,-26.23"/>
</a>
</g>
</g>
<!-- Node8 -->
<g id="Node000008" class="node">
<title>Node8</title>
<g id="a_Node000008"><a xlink:href="vstraits_8_h.html" target="_top" xlink:title=" ">
<polygon fill="white" stroke="#666666" points="152,-79.5 0,-79.5 0,-60.5 152,-60.5 152,-79.5"/>
<text text-anchor="middle" x="76" y="-67.5" font-family="Helvetica,sans-Serif" font-size="10.00">amr&#45;wind/core/vs/vstraits.H</text>
</a>
</g>
</g>
<!-- Node6&#45;&gt;Node8 -->
<g id="edge7_Node000006_Node000008" class="edge">
<title>Node6&#45;&gt;Node8</title>
<g id="a_edge7_Node000006_Node000008"><a xlink:title=" ">
<path fill="none" stroke="#63b8ff" d="M222.14,-120.99C192.75,-110.94 143.69,-94.16 110.61,-82.84"/>
<polygon fill="#63b8ff" stroke="#63b8ff" points="111.49,-79.44 100.89,-79.52 109.22,-86.07 111.49,-79.44"/>
</a>
</g>
</g>
<!-- Node10 -->
<g id="Node000010" class="node">
<title>Node10</title>
<g id="a_Node000010"><a xlink:href="vector_i_8_h.html" target="_top" xlink:title=" ">
<polygon fill="white" stroke="#666666" points="319.5,-79.5 170.5,-79.5 170.5,-60.5 319.5,-60.5 319.5,-79.5"/>
<text text-anchor="middle" x="245" y="-67.5" font-family="Helvetica,sans-Serif" font-size="10.00">amr&#45;wind/core/vs/vectorI.H</text>
</a>
</g>
</g>
<!-- Node6&#45;&gt;Node10 -->
<g id="edge9_Node000006_Node000010" class="edge">
<title>Node6&#45;&gt;Node10</title>
<g id="a_edge9_Node000006_Node000010"><a xlink:title=" ">
<path fill="none" stroke="#63b8ff" d="M241.75,-120.87C239.72,-112.75 238.82,-100.31 239.29,-89.89"/>
<polygon fill="#63b8ff" stroke="#63b8ff" points="242.8,-89.97 240.33,-79.67 235.83,-89.26 242.8,-89.97"/>
</a>
</g>
</g>
<!-- Node9 -->
<g id="Node000009" class="node">
<title>Node9</title>
<g id="a_Node000009"><a xlink:title=" ">
<polygon fill="#e0e0e0" stroke="#999999" points="98,-19 54,-19 54,0 98,0 98,-19"/>
<text text-anchor="middle" x="76" y="-7" font-family="Helvetica,sans-Serif" font-size="10.00">limits</text>
</a>
</g>
</g>
<!-- Node8&#45;&gt;Node9 -->
<g id="edge8_Node000008_Node000009" class="edge">
<title>Node8&#45;&gt;Node9</title>
<g id="a_edge8_Node000008_Node000009"><a xlink:title=" ">
<path fill="none" stroke="#63b8ff" d="M76,-60.37C76,-52.25 76,-39.81 76,-29.39"/>
<polygon fill="#63b8ff" stroke="#63b8ff" points="79.5,-29.17 76,-19.17 72.5,-29.17 79.5,-29.17"/>
</a>
</g>
</g>
<!-- Node10&#45;&gt;Node6 -->
<g id="edge12_Node000010_Node000006" class="edge">
<title>Node10&#45;&gt;Node6</title>
<g id="a_edge12_Node000010_Node000006"><a xlink:title=" ">
<path fill="none" stroke="#63b8ff" d="M250.26,-79.67C252.29,-87.8 253.18,-100.24 252.71,-110.66"/>
<polygon fill="#63b8ff" stroke="#63b8ff" points="249.2,-110.56 251.66,-120.87 256.17,-111.28 249.2,-110.56"/>
</a>
</g>
</g>
<!-- Node11 -->
<g id="Node000011" class="node">
<title>Node11</title>
<g id="a_Node000011"><a xlink:title=" ">
<polygon fill="#e0e0e0" stroke="#999999" points="273.5,-19 216.5,-19 216.5,0 273.5,0 273.5,-19"/>
<text text-anchor="middle" x="245" y="-7" font-family="Helvetica,sans-Serif" font-size="10.00">ostream</text>
</a>
</g>
</g>
<!-- Node10&#45;&gt;Node11 -->
<g id="edge10_Node000010_Node000011" class="edge">
<title>Node10&#45;&gt;Node11</title>
<g id="a_edge10_Node000010_Node000011"><a xlink:title=" ">
<path fill="none" stroke="#63b8ff" d="M245,-60.37C245,-52.25 245,-39.81 245,-29.39"/>
<polygon fill="#63b8ff" stroke="#63b8ff" points="248.5,-29.17 245,-19.17 241.5,-29.17 248.5,-29.17"/>
</a>
</g>
</g>
<!-- Node12 -->
<g id="Node000012" class="node">
<title>Node12</title>
<g id="a_Node000012"><a xlink:title=" ">
<polygon fill="#e0e0e0" stroke="#999999" points="370.5,-19 323.5,-19 323.5,0 370.5,0 370.5,-19"/>
<text text-anchor="middle" x="347" y="-7" font-family="Helvetica,sans-Serif" font-size="10.00">cmath</text>
</a>
</g>
</g>
<!-- Node10&#45;&gt;Node12 -->
<g id="edge11_Node000010_Node000012" class="edge">
<title>Node10&#45;&gt;Node12</title>
<g id="a_edge11_Node000010_Node000012"><a xlink:title=" ">
<path fill="none" stroke="#63b8ff" d="M260.05,-60.37C276.62,-50.86 303.5,-35.45 322.99,-24.27"/>
<polygon fill="#63b8ff" stroke="#63b8ff" points="324.95,-27.18 331.89,-19.17 321.47,-21.11 324.95,-27.18"/>
</a>
</g>
</g>
<!-- Node13&#45;&gt;Node6 -->
<g id="edge16_Node000013_Node000006" class="edge">
<title>Node13&#45;&gt;Node6</title>
<g id="a_edge16_Node000013_Node000006"><a xlink:title=" ">
<path fill="none" stroke="#63b8ff" d="M387.17,-175.98C359.13,-167.09 314.95,-153.07 283.7,-143.15"/>
<polygon fill="#63b8ff" stroke="#63b8ff" points="284.63,-139.77 274.04,-140.08 282.51,-146.44 284.63,-139.77"/>
</a>
</g>
</g>
<!-- Node13&#45;&gt;Node7 -->
<g id="edge14_Node000013_Node000007" class="edge">
<title>Node13&#45;&gt;Node7</title>
<g id="a_edge14_Node000013_Node000007"><a xlink:title=" ">
<path fill="none" stroke="#63b8ff" d="M438.68,-175.91C456.66,-168.63 480.64,-156.71 497,-140 524.82,-111.58 533.34,-93.89 525,-55 523.03,-45.8 519,-36.2 515.07,-28.29"/>
<polygon fill="#63b8ff" stroke="#63b8ff" points="518.09,-26.51 510.32,-19.32 511.91,-29.79 518.09,-26.51"/>
</a>
</g>
</g>
<!-- Node13&#45;&gt;Node8 -->
<g id="edge15_Node000013_Node000008" class="edge">
<title>Node13&#45;&gt;Node8</title>
<g id="a_edge15_Node000013_Node000008"><a xlink:title=" ">
<path fill="none" stroke="#63b8ff" d="M341.29,-180.72C290.14,-175.89 221.08,-164.92 165,-140 136.13,-127.17 108.26,-103.05 91.61,-87.01"/>
<polygon fill="#63b8ff" stroke="#63b8ff" points="93.96,-84.41 84.39,-79.86 89.04,-89.38 93.96,-84.41"/>
</a>
</g>
</g>
<!-- Node14 -->
<g id="Node000014" class="node">
<title>Node14</title>
<g id="a_Node000014"><a xlink:href="tensor_i_8_h.html" target="_top" xlink:title=" ">
<polygon fill="white" stroke="#666666" points="488.5,-140 339.5,-140 339.5,-121 488.5,-121 488.5,-140"/>
<text text-anchor="middle" x="414" y="-128" font-family="Helvetica,sans-Serif" font-size="10.00">amr&#45;wind/core/vs/tensorI.H</text>
</a>
</g>
</g>
<!-- Node13&#45;&gt;Node14 -->
<g id="edge17_Node000013_Node000014" class="edge">
<title>Node13&#45;&gt;Node14</title>
<g id="a_edge17_Node000013_Node000014"><a xlink:title=" ">
<path fill="none" stroke="#63b8ff" d="M408.83,-175.75C407.34,-168.8 406.9,-158.85 407.52,-150.13"/>
<polygon fill="#63b8ff" stroke="#63b8ff" points="411.01,-150.47 408.87,-140.09 404.07,-149.53 411.01,-150.47"/>
</a>
</g>
</g>
<!-- Node14&#45;&gt;Node12 -->
<g id="edge18_Node000014_Node000012" class="edge">
<title>Node14&#45;&gt;Node12</title>
<g id="a_edge18_Node000014_Node000012"><a xlink:title=" ">
<path fill="none" stroke="#63b8ff" d="M409.18,-120.94C398.27,-101.57 371.5,-54.02 356.9,-28.08"/>
<polygon fill="#63b8ff" stroke="#63b8ff" points="359.91,-26.3 351.96,-19.3 353.81,-29.73 359.91,-26.3"/>
</a>
</g>
</g>
<!-- Node14&#45;&gt;Node13 -->
<g id="edge19_Node000014_Node000013" class="edge">
<title>Node14&#45;&gt;Node13</title>
<g id="a_edge19_Node000014_Node000013"><a xlink:title=" ">
<path fill="none" stroke="#63b8ff" d="M419.13,-140.09C420.64,-146.99 421.09,-156.93 420.49,-165.66"/>
<polygon fill="#63b8ff" stroke="#63b8ff" points="417,-165.38 419.17,-175.75 423.94,-166.29 417,-165.38"/>
</a>
</g>
</g>
<!-- Node15 -->
<g id="Node000015" class="node">
<title>Node15</title>
<g id="a_Node000015"><a xlink:href="trig__ops_8_h.html" target="_top" xlink:title=" ">
<polygon fill="white" stroke="#666666" points="516.5,-85 413.5,-85 413.5,-55 516.5,-55 516.5,-85"/>
<text text-anchor="start" x="421.5" y="-73" font-family="Helvetica,sans-Serif" font-size="10.00">amr&#45;wind/utilities</text>
<text text-anchor="middle" x="465" y="-62" font-family="Helvetica,sans-Serif" font-size="10.00">/trig_ops.H</text>
</a>
</g>
</g>
<!-- Node14&#45;&gt;Node15 -->
<g id="edge20_Node000014_Node000015" class="edge">
<title>Node14&#45;&gt;Node15</title>
<g id="a_edge20_Node000014_Node000015"><a xlink:title=" ">
<path fill="none" stroke="#63b8ff" d="M421.53,-120.87C427.93,-113.52 437.42,-102.63 445.9,-92.91"/>
<polygon fill="#63b8ff" stroke="#63b8ff" points="448.76,-94.95 452.69,-85.11 443.49,-90.35 448.76,-94.95"/>
</a>
</g>
</g>
<!-- Node15&#45;&gt;Node7 -->
<g id="edge23_Node000015_Node000007" class="edge">
<title>Node15&#45;&gt;Node7</title>
<g id="a_edge23_Node000015_Node000007"><a xlink:title=" ">
<path fill="none" stroke="#63b8ff" d="M474.68,-54.84C480.25,-46.69 487.29,-36.4 493.18,-27.78"/>
<polygon fill="#63b8ff" stroke="#63b8ff" points="496.25,-29.5 499.01,-19.27 490.47,-25.55 496.25,-29.5"/>
</a>
</g>
</g>
<!-- Node15&#45;&gt;Node12 -->
<g id="edge21_Node000015_Node000012" class="edge">
<title>Node15&#45;&gt;Node12</title>
<g id="a_edge21_Node000015_Node000012"><a xlink:title=" ">
<path fill="none" stroke="#63b8ff" d="M436.74,-54.99C417.58,-45.49 392.42,-33.02 373.61,-23.69"/>
<polygon fill="#63b8ff" stroke="#63b8ff" points="374.94,-20.45 364.43,-19.14 371.83,-26.72 374.94,-20.45"/>
</a>
</g>
</g>
<!-- Node15&#45;&gt;Node16 -->
<g id="edge22_Node000015_Node000016" class="edge">
<title>Node15&#45;&gt;Node16</title>
<g id="a_edge22_Node000015_Node000016"><a xlink:title=" ">
<path fill="none" stroke="#63b8ff" d="M516.57,-56.16C558.21,-45.8 616.18,-31.37 655.73,-21.52"/>
<polygon fill="#63b8ff" stroke="#63b8ff" points="656.76,-24.87 665.62,-19.06 655.07,-18.08 656.76,-24.87"/>
</a>
</g>
</g>
</g>
</svg>
