<?xml version="1.0" encoding="UTF-8" standalone="no"?>
<!DOCTYPE svg PUBLIC "-//W3C//DTD SVG 1.1//EN"
 "http://www.w3.org/Graphics/SVG/1.1/DTD/svg11.dtd">
<!-- Generated by graphviz version 2.43.0 (0)
 -->
<!-- Title: /home/runner/work/amr&#45;wind/amr&#45;wind/amr&#45;wind/wind_energy/actuator/actuator_opsI.H Pages: 1 -->
<svg width="1529pt" height="478pt"
 viewBox="0.00 0.00 1529.00 478.00" xmlns="http://www.w3.org/2000/svg" xmlns:xlink="http://www.w3.org/1999/xlink">
<g id="graph0" class="graph" transform="scale(1 1) rotate(0) translate(4 474)">
<title>/home/runner/work/amr&#45;wind/amr&#45;wind/amr&#45;wind/wind_energy/actuator/actuator_opsI.H</title>
<!-- Node1 -->
<g id="Node000001" class="node">
<title>Node1</title>
<g id="a_Node000001"><a xlink:title=" ">
<polygon fill="#999999" stroke="#666666" points="1044,-470 839,-470 839,-429 1044,-429 1044,-470"/>
<text text-anchor="start" x="847" y="-458" font-family="Helvetica,sans-Serif" font-size="10.00">/home/runner/work/amr</text>
<text text-anchor="start" x="847" y="-447" font-family="Helvetica,sans-Serif" font-size="10.00">&#45;wind/amr&#45;wind/amr&#45;wind</text>
<text text-anchor="middle" x="941.5" y="-436" font-family="Helvetica,sans-Serif" font-size="10.00">/wind_energy/actuator/actuator_opsI.H</text>
</a>
</g>
</g>
<!-- Node2 -->
<g id="Node000002" class="node">
<title>Node2</title>
<g id="a_Node000002"><a xlink:href="actuator__ops_8_h.html" target="_top" xlink:title=" ">
<polygon fill="white" stroke="#666666" points="1042.5,-393 840.5,-393 840.5,-352 1042.5,-352 1042.5,-393"/>
<text text-anchor="start" x="848.5" y="-381" font-family="Helvetica,sans-Serif" font-size="10.00">/home/runner/work/amr</text>
<text text-anchor="start" x="848.5" y="-370" font-family="Helvetica,sans-Serif" font-size="10.00">&#45;wind/amr&#45;wind/amr&#45;wind</text>
<text text-anchor="middle" x="941.5" y="-359" font-family="Helvetica,sans-Serif" font-size="10.00">/wind_energy/actuator/actuator_ops.H</text>
</a>
</g>
</g>
<!-- Node1&#45;&gt;Node2 -->
<g id="edge1_Node000001_Node000002" class="edge">
<title>Node1&#45;&gt;Node2</title>
<g id="a_edge1_Node000001_Node000002"><a xlink:title=" ">
<path fill="none" stroke="#63b8ff" d="M941.5,-418.69C941.5,-410.08 941.5,-400.9 941.5,-393.07"/>
<polygon fill="#63b8ff" stroke="#63b8ff" points="938,-418.79 941.5,-428.79 945,-418.79 938,-418.79"/>
</a>
</g>
</g>
<!-- Node3 -->
<g id="Node000003" class="node">
<title>Node3</title>
<g id="a_Node000003"><a xlink:href="_act_src_line_op_8_h.html" target="_top" xlink:title=" ">
<polygon fill="white" stroke="#666666" points="582,-310.5 379,-310.5 379,-269.5 582,-269.5 582,-310.5"/>
<text text-anchor="start" x="387" y="-298.5" font-family="Helvetica,sans-Serif" font-size="10.00">/home/runner/work/amr</text>
<text text-anchor="start" x="387" y="-287.5" font-family="Helvetica,sans-Serif" font-size="10.00">&#45;wind/amr&#45;wind/amr&#45;wind</text>
<text text-anchor="middle" x="480.5" y="-276.5" font-family="Helvetica,sans-Serif" font-size="10.00">/wind_energy/actuator/ActSrcLineOp.H</text>
</a>
</g>
</g>
<!-- Node2&#45;&gt;Node3 -->
<g id="edge2_Node000002_Node000003" class="edge">
<title>Node2&#45;&gt;Node3</title>
<g id="a_edge2_Node000002_Node000003"><a xlink:title=" ">
<path fill="none" stroke="#63b8ff" d="M830.22,-355.12C762.5,-344.78 674.33,-330.64 596.5,-316 587.49,-314.31 578.11,-312.44 568.75,-310.53"/>
<polygon fill="#63b8ff" stroke="#63b8ff" points="830.08,-358.64 840.49,-356.69 831.13,-351.72 830.08,-358.64"/>
</a>
</g>
</g>
<!-- Node4 -->
<g id="Node000004" class="node">
<title>Node4</title>
<g id="a_Node000004"><a xlink:href="_actuator_model_8_h.html" target="_top" xlink:title=" ">
<polygon fill="white" stroke="#666666" points="805.5,-228 635.5,-228 635.5,-176 805.5,-176 805.5,-228"/>
<text text-anchor="start" x="643.5" y="-216" font-family="Helvetica,sans-Serif" font-size="10.00">/home/runner/work/amr</text>
<text text-anchor="start" x="643.5" y="-205" font-family="Helvetica,sans-Serif" font-size="10.00">&#45;wind/amr&#45;wind/amr&#45;wind</text>
<text text-anchor="start" x="643.5" y="-194" font-family="Helvetica,sans-Serif" font-size="10.00">/wind_energy/actuator/Actuator</text>
<text text-anchor="middle" x="720.5" y="-183" font-family="Helvetica,sans-Serif" font-size="10.00">Model.H</text>
</a>
</g>
</g>
<!-- Node2&#45;&gt;Node4 -->
<g id="edge13_Node000002_Node000004" class="edge">
<title>Node2&#45;&gt;Node4</title>
<g id="a_edge13_Node000002_Node000004"><a xlink:title=" ">
<path fill="none" stroke="#63b8ff" d="M830.13,-366.43C751.23,-360.24 655.04,-346.48 629.5,-316 614.66,-298.28 618.62,-284.39 629.5,-264 637.38,-249.23 650.59,-237.41 664.55,-228.25"/>
<polygon fill="#63b8ff" stroke="#63b8ff" points="829.92,-369.93 840.16,-367.19 830.45,-362.95 829.92,-369.93"/>
</a>
</g>
</g>
<!-- Node14 -->
<g id="Node000014" class="node">
<title>Node14</title>
<g id="a_Node000014"><a xlink:href="_act_src_disk_op_8_h.html" target="_top" xlink:title=" ">
<polygon fill="white" stroke="#666666" points="787,-316 638,-316 638,-264 787,-264 787,-316"/>
<text text-anchor="start" x="646" y="-304" font-family="Helvetica,sans-Serif" font-size="10.00">/home/runner/work/amr</text>
<text text-anchor="start" x="646" y="-293" font-family="Helvetica,sans-Serif" font-size="10.00">&#45;wind/amr&#45;wind/amr&#45;wind</text>
<text text-anchor="start" x="646" y="-282" font-family="Helvetica,sans-Serif" font-size="10.00">/wind_energy/actuator/disk</text>
<text text-anchor="middle" x="712.5" y="-271" font-family="Helvetica,sans-Serif" font-size="10.00">/ActSrcDiskOp.H</text>
</a>
</g>
</g>
<!-- Node2&#45;&gt;Node14 -->
<g id="edge14_Node000002_Node000014" class="edge">
<title>Node2&#45;&gt;Node14</title>
<g id="a_edge14_Node000002_Node000014"><a xlink:title=" ">
<path fill="none" stroke="#63b8ff" d="M876.19,-348.54C847.3,-338.39 813.26,-326.42 783.73,-316.04"/>
<polygon fill="#63b8ff" stroke="#63b8ff" points="875.18,-351.9 885.77,-351.91 877.5,-345.29 875.18,-351.9"/>
</a>
</g>
</g>
<!-- Node15 -->
<g id="Node000015" class="node">
<title>Node15</title>
<g id="a_Node000015"><a xlink:href="disk__ops_8_h.html" target="_top" xlink:title=" ">
<polygon fill="white" stroke="#666666" points="361,-316 212,-316 212,-264 361,-264 361,-316"/>
<text text-anchor="start" x="220" y="-304" font-family="Helvetica,sans-Serif" font-size="10.00">/home/runner/work/amr</text>
<text text-anchor="start" x="220" y="-293" font-family="Helvetica,sans-Serif" font-size="10.00">&#45;wind/amr&#45;wind/amr&#45;wind</text>
<text text-anchor="start" x="220" y="-282" font-family="Helvetica,sans-Serif" font-size="10.00">/wind_energy/actuator/disk</text>
<text text-anchor="middle" x="286.5" y="-271" font-family="Helvetica,sans-Serif" font-size="10.00">/disk_ops.H</text>
</a>
</g>
</g>
<!-- Node2&#45;&gt;Node15 -->
<g id="edge16_Node000002_Node000015" class="edge">
<title>Node2&#45;&gt;Node15</title>
<g id="a_edge16_Node000002_Node000015"><a xlink:title=" ">
<path fill="none" stroke="#63b8ff" d="M830.1,-367.15C714.14,-361.12 527.71,-347.19 369.5,-316 366.84,-315.48 364.15,-314.9 361.44,-314.29"/>
<polygon fill="#63b8ff" stroke="#63b8ff" points="830.24,-370.66 840.41,-367.67 830.6,-363.67 830.24,-370.66"/>
</a>
</g>
</g>
<!-- Node21 -->
<g id="Node000021" class="node">
<title>Node21</title>
<g id="a_Node000021"><a xlink:href="_act_src_disk_op___turbine_8_h.html" target="_top" xlink:title=" ">
<polygon fill="white" stroke="#666666" points="968,-316 805,-316 805,-264 968,-264 968,-316"/>
<text text-anchor="start" x="813" y="-304" font-family="Helvetica,sans-Serif" font-size="10.00">/home/runner/work/amr</text>
<text text-anchor="start" x="813" y="-293" font-family="Helvetica,sans-Serif" font-size="10.00">&#45;wind/amr&#45;wind/amr&#45;wind</text>
<text text-anchor="start" x="813" y="-282" font-family="Helvetica,sans-Serif" font-size="10.00">/wind_energy/actuator/turbine</text>
<text text-anchor="middle" x="886.5" y="-271" font-family="Helvetica,sans-Serif" font-size="10.00">/ActSrcDiskOp_Turbine.H</text>
</a>
</g>
</g>
<!-- Node2&#45;&gt;Node21 -->
<g id="edge25_Node000002_Node000021" class="edge">
<title>Node2&#45;&gt;Node21</title>
<g id="a_edge25_Node000002_Node000021"><a xlink:title=" ">
<path fill="none" stroke="#63b8ff" d="M922.13,-343.15C916.12,-334.35 909.54,-324.72 903.69,-316.16"/>
<polygon fill="#63b8ff" stroke="#63b8ff" points="919.37,-345.32 927.9,-351.6 925.15,-341.37 919.37,-345.32"/>
</a>
</g>
</g>
<!-- Node22 -->
<g id="Node000022" class="node">
<title>Node22</title>
<g id="a_Node000022"><a xlink:href="turbine__external__ops_8_h.html" target="_top" xlink:title=" ">
<polygon fill="white" stroke="#666666" points="1176.5,-228 1000.5,-228 1000.5,-176 1176.5,-176 1176.5,-228"/>
<text text-anchor="start" x="1008.5" y="-216" font-family="Helvetica,sans-Serif" font-size="10.00">/home/runner/work/amr</text>
<text text-anchor="start" x="1008.5" y="-205" font-family="Helvetica,sans-Serif" font-size="10.00">&#45;wind/amr&#45;wind/amr&#45;wind</text>
<text text-anchor="start" x="1008.5" y="-194" font-family="Helvetica,sans-Serif" font-size="10.00">/wind_energy/actuator/turbine</text>
<text text-anchor="middle" x="1088.5" y="-183" font-family="Helvetica,sans-Serif" font-size="10.00">/external/turbine_external_ops.H</text>
</a>
</g>
</g>
<!-- Node2&#45;&gt;Node22 -->
<g id="edge27_Node000002_Node000022" class="edge">
<title>Node2&#45;&gt;Node22</title>
<g id="a_edge27_Node000002_Node000022"><a xlink:title=" ">
<path fill="none" stroke="#63b8ff" d="M967.94,-344.55C976.54,-335.59 986.05,-325.48 994.5,-316 1020.82,-286.48 1049.73,-251.28 1068.44,-228.1"/>
<polygon fill="#63b8ff" stroke="#63b8ff" points="965.4,-342.15 960.97,-351.77 970.44,-347.01 965.4,-342.15"/>
</a>
</g>
</g>
<!-- Node25 -->
<g id="Node000025" class="node">
<title>Node25</title>
<g id="a_Node000025"><a xlink:href="turbine__external__utils_8_h.html" target="_top" xlink:title=" ">
<polygon fill="white" stroke="#666666" points="1242.5,-316 1062.5,-316 1062.5,-264 1242.5,-264 1242.5,-316"/>
<text text-anchor="start" x="1070.5" y="-304" font-family="Helvetica,sans-Serif" font-size="10.00">/home/runner/work/amr</text>
<text text-anchor="start" x="1070.5" y="-293" font-family="Helvetica,sans-Serif" font-size="10.00">&#45;wind/amr&#45;wind/amr&#45;wind</text>
<text text-anchor="start" x="1070.5" y="-282" font-family="Helvetica,sans-Serif" font-size="10.00">/wind_energy/actuator/turbine</text>
<text text-anchor="middle" x="1152.5" y="-271" font-family="Helvetica,sans-Serif" font-size="10.00">/external/turbine_external_utils.H</text>
</a>
</g>
</g>
<!-- Node2&#45;&gt;Node25 -->
<g id="edge32_Node000002_Node000025" class="edge">
<title>Node2&#45;&gt;Node25</title>
<g id="a_edge32_Node000002_Node000025"><a xlink:title=" ">
<path fill="none" stroke="#63b8ff" d="M1002.37,-348.28C1028.84,-338.18 1059.89,-326.33 1086.87,-316.04"/>
<polygon fill="#63b8ff" stroke="#63b8ff" points="1000.94,-345.08 992.85,-351.91 1003.44,-351.62 1000.94,-345.08"/>
</a>
</g>
</g>
<!-- Node26 -->
<g id="Node000026" class="node">
<title>Node26</title>
<g id="a_Node000026"><a xlink:href="fixed__wing__ops_8_h.html" target="_top" xlink:title=" ">
<polygon fill="white" stroke="#666666" points="982.5,-228 830.5,-228 830.5,-176 982.5,-176 982.5,-228"/>
<text text-anchor="start" x="838.5" y="-216" font-family="Helvetica,sans-Serif" font-size="10.00">/home/runner/work/amr</text>
<text text-anchor="start" x="838.5" y="-205" font-family="Helvetica,sans-Serif" font-size="10.00">&#45;wind/amr&#45;wind/amr&#45;wind</text>
<text text-anchor="start" x="838.5" y="-194" font-family="Helvetica,sans-Serif" font-size="10.00">/wind_energy/actuator/wing</text>
<text text-anchor="middle" x="906.5" y="-183" font-family="Helvetica,sans-Serif" font-size="10.00">/fixed_wing_ops.H</text>
</a>
</g>
</g>
<!-- Node2&#45;&gt;Node26 -->
<g id="edge34_Node000002_Node000026" class="edge">
<title>Node2&#45;&gt;Node26</title>
<g id="a_edge34_Node000002_Node000026"><a xlink:title=" ">
<path fill="none" stroke="#63b8ff" d="M964.04,-343.57C969.53,-335.19 974.65,-325.64 977.5,-316 984.06,-293.84 987.14,-285 977.5,-264 970.99,-249.82 959.38,-237.7 947.41,-228.09"/>
<polygon fill="#63b8ff" stroke="#63b8ff" points="961.12,-341.63 958.25,-351.83 966.85,-345.65 961.12,-341.63"/>
</a>
</g>
</g>
<!-- Node27 -->
<g id="Node000027" class="node">
<title>Node27</title>
<g id="a_Node000027"><a xlink:href="flat__plate__ops_8_h.html" target="_top" xlink:title=" ">
<polygon fill="white" stroke="#666666" points="1516.5,-228 1364.5,-228 1364.5,-176 1516.5,-176 1516.5,-228"/>
<text text-anchor="start" x="1372.5" y="-216" font-family="Helvetica,sans-Serif" font-size="10.00">/home/runner/work/amr</text>
<text text-anchor="start" x="1372.5" y="-205" font-family="Helvetica,sans-Serif" font-size="10.00">&#45;wind/amr&#45;wind/amr&#45;wind</text>
<text text-anchor="start" x="1372.5" y="-194" font-family="Helvetica,sans-Serif" font-size="10.00">/wind_energy/actuator/wing</text>
<text text-anchor="middle" x="1440.5" y="-183" font-family="Helvetica,sans-Serif" font-size="10.00">/flat_plate_ops.H</text>
</a>
</g>
</g>
<!-- Node2&#45;&gt;Node27 -->
<g id="edge36_Node000002_Node000027" class="edge">
<title>Node2&#45;&gt;Node27</title>
<g id="a_edge36_Node000002_Node000027"><a xlink:title=" ">
<path fill="none" stroke="#63b8ff" d="M1053,-365.59C1186.43,-357.45 1395.27,-340.92 1421.5,-316 1445.01,-293.67 1446.29,-253.96 1444.11,-228.06"/>
<polygon fill="#63b8ff" stroke="#63b8ff" points="1052.5,-362.11 1042.73,-366.21 1052.92,-369.1 1052.5,-362.11"/>
</a>
</g>
</g>
<!-- Node28 -->
<g id="Node000028" class="node">
<title>Node28</title>
<g id="a_Node000028"><a xlink:href="wing__ops_8_h.html" target="_top" xlink:title=" ">
<polygon fill="white" stroke="#666666" points="1412.5,-316 1260.5,-316 1260.5,-264 1412.5,-264 1412.5,-316"/>
<text text-anchor="start" x="1268.5" y="-304" font-family="Helvetica,sans-Serif" font-size="10.00">/home/runner/work/amr</text>
<text text-anchor="start" x="1268.5" y="-293" font-family="Helvetica,sans-Serif" font-size="10.00">&#45;wind/amr&#45;wind/amr&#45;wind</text>
<text text-anchor="start" x="1268.5" y="-282" font-family="Helvetica,sans-Serif" font-size="10.00">/wind_energy/actuator/wing</text>
<text text-anchor="middle" x="1336.5" y="-271" font-family="Helvetica,sans-Serif" font-size="10.00">/wing_ops.H</text>
</a>
</g>
</g>
<!-- Node2&#45;&gt;Node28 -->
<g id="edge38_Node000002_Node000028" class="edge">
<title>Node2&#45;&gt;Node28</title>
<g id="a_edge38_Node000002_Node000028"><a xlink:title=" ">
<path fill="none" stroke="#63b8ff" d="M1052.73,-354.6C1112.06,-344.83 1186.1,-331.42 1251.5,-316 1254.34,-315.33 1257.24,-314.62 1260.15,-313.88"/>
<polygon fill="#63b8ff" stroke="#63b8ff" points="1051.9,-351.19 1042.59,-356.26 1053.03,-358.1 1051.9,-351.19"/>
</a>
</g>
</g>
<!-- Node3&#45;&gt;Node4 -->
<g id="edge3_Node000003_Node000004" class="edge">
<title>Node3&#45;&gt;Node4</title>
<g id="a_edge3_Node000003_Node000004"><a xlink:title=" ">
<path fill="none" stroke="#63b8ff" d="M544.4,-266.1C577.03,-254.41 616.81,-240.16 650.29,-228.16"/>
<polygon fill="#63b8ff" stroke="#63b8ff" points="543.19,-262.82 534.96,-269.49 545.55,-269.41 543.19,-262.82"/>
</a>
</g>
</g>
<!-- Node5 -->
<g id="Node000005" class="node">
<title>Node5</title>
<g id="a_Node000005"><a xlink:href="_actuator_8_h.html" target="_top" xlink:title=" ">
<polygon fill="white" stroke="#666666" points="731,-134.5 552,-134.5 552,-93.5 731,-93.5 731,-134.5"/>
<text text-anchor="start" x="560" y="-122.5" font-family="Helvetica,sans-Serif" font-size="10.00">/home/runner/work/amr</text>
<text text-anchor="start" x="560" y="-111.5" font-family="Helvetica,sans-Serif" font-size="10.00">&#45;wind/amr&#45;wind/amr&#45;wind</text>
<text text-anchor="middle" x="641.5" y="-100.5" font-family="Helvetica,sans-Serif" font-size="10.00">/wind_energy/actuator/Actuator.H</text>
</a>
</g>
</g>
<!-- Node4&#45;&gt;Node5 -->
<g id="edge4_Node000004_Node000005" class="edge">
<title>Node4&#45;&gt;Node5</title>
<g id="a_edge4_Node000004_Node000005"><a xlink:title=" ">
<path fill="none" stroke="#63b8ff" d="M690.25,-168.07C679.91,-156.81 668.67,-144.58 659.6,-134.7"/>
<polygon fill="#63b8ff" stroke="#63b8ff" points="687.88,-170.67 697.22,-175.66 693.04,-165.93 687.88,-170.67"/>
</a>
</g>
</g>
<!-- Node9 -->
<g id="Node000009" class="node">
<title>Node9</title>
<g id="a_Node000009"><a xlink:href="_actuator_disk_8cpp.html" target="_top" xlink:title=" ">
<polygon fill="white" stroke="#666666" points="367,-140 218,-140 218,-88 367,-88 367,-140"/>
<text text-anchor="start" x="226" y="-128" font-family="Helvetica,sans-Serif" font-size="10.00">/home/runner/work/amr</text>
<text text-anchor="start" x="226" y="-117" font-family="Helvetica,sans-Serif" font-size="10.00">&#45;wind/amr&#45;wind/amr&#45;wind</text>
<text text-anchor="start" x="226" y="-106" font-family="Helvetica,sans-Serif" font-size="10.00">/wind_energy/actuator/disk</text>
<text text-anchor="middle" x="292.5" y="-95" font-family="Helvetica,sans-Serif" font-size="10.00">/ActuatorDisk.cpp</text>
</a>
</g>
</g>
<!-- Node4&#45;&gt;Node9 -->
<g id="edge8_Node000004_Node000009" class="edge">
<title>Node4&#45;&gt;Node9</title>
<g id="a_edge8_Node000004_Node000009"><a xlink:title=" ">
<path fill="none" stroke="#63b8ff" d="M625.14,-187.23C555.53,-176.43 459.11,-159.91 375.5,-140 372.72,-139.34 369.89,-138.64 367.04,-137.9"/>
<polygon fill="#63b8ff" stroke="#63b8ff" points="624.8,-190.72 635.21,-188.78 625.86,-183.8 624.8,-190.72"/>
</a>
</g>
</g>
<!-- Node10 -->
<g id="Node000010" class="node">
<title>Node10</title>
<g id="a_Node000010"><a xlink:href="_turbine_fast_8cpp.html" target="_top" xlink:title=" ">
<polygon fill="white" stroke="#666666" points="1132,-52 969,-52 969,0 1132,0 1132,-52"/>
<text text-anchor="start" x="977" y="-40" font-family="Helvetica,sans-Serif" font-size="10.00">/home/runner/work/amr</text>
<text text-anchor="start" x="977" y="-29" font-family="Helvetica,sans-Serif" font-size="10.00">&#45;wind/amr&#45;wind/amr&#45;wind</text>
<text text-anchor="start" x="977" y="-18" font-family="Helvetica,sans-Serif" font-size="10.00">/wind_energy/actuator/turbine</text>
<text text-anchor="middle" x="1050.5" y="-7" font-family="Helvetica,sans-Serif" font-size="10.00">/fast/TurbineFast.cpp</text>
</a>
</g>
</g>
<!-- Node4&#45;&gt;Node10 -->
<g id="edge9_Node000004_Node000010" class="edge">
<title>Node4&#45;&gt;Node10</title>
<g id="a_edge9_Node000004_Node000010"><a xlink:title=" ">
<path fill="none" stroke="#63b8ff" d="M731.29,-166.13C740.95,-140.69 757.64,-107.39 783.5,-88 787.32,-85.13 891.62,-61.82 968.71,-44.86"/>
<polygon fill="#63b8ff" stroke="#63b8ff" points="727.9,-165.2 727.81,-175.79 734.49,-167.57 727.9,-165.2"/>
</a>
</g>
</g>
<!-- Node11 -->
<g id="Node000011" class="node">
<title>Node11</title>
<g id="a_Node000011"><a xlink:href="_turbine_kynema_8cpp.html" target="_top" xlink:title=" ">
<polygon fill="white" stroke="#666666" points="1414,-52 1251,-52 1251,0 1414,0 1414,-52"/>
<text text-anchor="start" x="1259" y="-40" font-family="Helvetica,sans-Serif" font-size="10.00">/home/runner/work/amr</text>
<text text-anchor="start" x="1259" y="-29" font-family="Helvetica,sans-Serif" font-size="10.00">&#45;wind/amr&#45;wind/amr&#45;wind</text>
<text text-anchor="start" x="1259" y="-18" font-family="Helvetica,sans-Serif" font-size="10.00">/wind_energy/actuator/turbine</text>
<text text-anchor="middle" x="1332.5" y="-7" font-family="Helvetica,sans-Serif" font-size="10.00">/kynema/TurbineKynema.cpp</text>
</a>
</g>
</g>
<!-- Node4&#45;&gt;Node11 -->
<g id="edge10_Node000004_Node000011" class="edge">
<title>Node4&#45;&gt;Node11</title>
<g id="a_edge10_Node000004_Node000011"><a xlink:title=" ">
<path fill="none" stroke="#63b8ff" d="M751.28,-168.53C759.63,-159.44 768.55,-149.46 776.5,-140 795.27,-117.68 791.09,-102.3 816.5,-88 879.82,-52.36 1069.36,-60.72 1141.5,-52 1177.36,-47.67 1216.95,-42.54 1250.75,-38.06"/>
<polygon fill="#63b8ff" stroke="#63b8ff" points="748.66,-166.2 744.44,-175.92 753.8,-170.96 748.66,-166.2"/>
</a>
</g>
</g>
<!-- Node12 -->
<g id="Node000012" class="node">
<title>Node12</title>
<g id="a_Node000012"><a xlink:href="_fixed_wing_8cpp.html" target="_top" xlink:title=" ">
<polygon fill="white" stroke="#666666" points="977.5,-140 825.5,-140 825.5,-88 977.5,-88 977.5,-140"/>
<text text-anchor="start" x="833.5" y="-128" font-family="Helvetica,sans-Serif" font-size="10.00">/home/runner/work/amr</text>
<text text-anchor="start" x="833.5" y="-117" font-family="Helvetica,sans-Serif" font-size="10.00">&#45;wind/amr&#45;wind/amr&#45;wind</text>
<text text-anchor="start" x="833.5" y="-106" font-family="Helvetica,sans-Serif" font-size="10.00">/wind_energy/actuator/wing</text>
<text text-anchor="middle" x="901.5" y="-95" font-family="Helvetica,sans-Serif" font-size="10.00">/FixedWing.cpp</text>
</a>
</g>
</g>
<!-- Node4&#45;&gt;Node12 -->
<g id="edge11_Node000004_Node000012" class="edge">
<title>Node4&#45;&gt;Node12</title>
<g id="a_edge11_Node000004_Node000012"><a xlink:title=" ">
<path fill="none" stroke="#63b8ff" d="M782.4,-171.59C803.93,-161.36 827.86,-149.99 848.6,-140.14"/>
<polygon fill="#63b8ff" stroke="#63b8ff" points="780.87,-168.44 773.34,-175.89 783.87,-174.76 780.87,-168.44"/>
</a>
</g>
</g>
<!-- Node13 -->
<g id="Node000013" class="node">
<title>Node13</title>
<g id="a_Node000013"><a xlink:href="_flat_plate_8cpp.html" target="_top" xlink:title=" ">
<polygon fill="white" stroke="#666666" points="1329.5,-140 1177.5,-140 1177.5,-88 1329.5,-88 1329.5,-140"/>
<text text-anchor="start" x="1185.5" y="-128" font-family="Helvetica,sans-Serif" font-size="10.00">/home/runner/work/amr</text>
<text text-anchor="start" x="1185.5" y="-117" font-family="Helvetica,sans-Serif" font-size="10.00">&#45;wind/amr&#45;wind/amr&#45;wind</text>
<text text-anchor="start" x="1185.5" y="-106" font-family="Helvetica,sans-Serif" font-size="10.00">/wind_energy/actuator/wing</text>
<text text-anchor="middle" x="1253.5" y="-95" font-family="Helvetica,sans-Serif" font-size="10.00">/FlatPlate.cpp</text>
</a>
</g>
</g>
<!-- Node4&#45;&gt;Node13 -->
<g id="edge12_Node000004_Node000013" class="edge">
<title>Node4&#45;&gt;Node13</title>
<g id="a_edge12_Node000004_Node000013"><a xlink:title=" ">
<path fill="none" stroke="#63b8ff" d="M815.65,-177.06C817.61,-176.69 819.56,-176.34 821.5,-176 974.24,-149.31 1016.38,-170 1168.5,-140 1171.37,-139.43 1174.28,-138.82 1177.21,-138.15"/>
<polygon fill="#63b8ff" stroke="#63b8ff" points="814.87,-173.65 805.73,-179.02 816.22,-180.52 814.87,-173.65"/>
</a>
</g>
</g>
<!-- Node6 -->
<g id="Node000006" class="node">
<title>Node6</title>
<g id="a_Node000006"><a xlink:href="_actuator_forcing_8cpp.html" target="_top" xlink:title=" ">
<polygon fill="white" stroke="#666666" points="529,-52 344,-52 344,0 529,0 529,-52"/>
<text text-anchor="start" x="352" y="-40" font-family="Helvetica,sans-Serif" font-size="10.00">/home/runner/work/amr</text>
<text text-anchor="start" x="352" y="-29" font-family="Helvetica,sans-Serif" font-size="10.00">&#45;wind/amr&#45;wind/amr&#45;wind</text>
<text text-anchor="start" x="352" y="-18" font-family="Helvetica,sans-Serif" font-size="10.00">/equation_systems/icns</text>
<text text-anchor="middle" x="436.5" y="-7" font-family="Helvetica,sans-Serif" font-size="10.00">/source_terms/ActuatorForcing.cpp</text>
</a>
</g>
</g>
<!-- Node5&#45;&gt;Node6 -->
<g id="edge5_Node000005_Node000006" class="edge">
<title>Node5&#45;&gt;Node6</title>
<g id="a_edge5_Node000005_Node000006"><a xlink:title=" ">
<path fill="none" stroke="#63b8ff" d="M585.48,-89.5C557.88,-77.92 524.58,-63.95 496.47,-52.16"/>
<polygon fill="#63b8ff" stroke="#63b8ff" points="584.41,-92.84 594.98,-93.49 587.11,-86.39 584.41,-92.84"/>
</a>
</g>
</g>
<!-- Node7 -->
<g id="Node000007" class="node">
<title>Node7</title>
<g id="a_Node000007"><a xlink:href="_actuator_8cpp.html" target="_top" xlink:title=" ">
<polygon fill="white" stroke="#666666" points="736,-46.5 547,-46.5 547,-5.5 736,-5.5 736,-46.5"/>
<text text-anchor="start" x="555" y="-34.5" font-family="Helvetica,sans-Serif" font-size="10.00">/home/runner/work/amr</text>
<text text-anchor="start" x="555" y="-23.5" font-family="Helvetica,sans-Serif" font-size="10.00">&#45;wind/amr&#45;wind/amr&#45;wind</text>
<text text-anchor="middle" x="641.5" y="-12.5" font-family="Helvetica,sans-Serif" font-size="10.00">/wind_energy/actuator/Actuator.cpp</text>
</a>
</g>
</g>
<!-- Node5&#45;&gt;Node7 -->
<g id="edge6_Node000005_Node000007" class="edge">
<title>Node5&#45;&gt;Node7</title>
<g id="a_edge6_Node000005_Node000007"><a xlink:title=" ">
<path fill="none" stroke="#63b8ff" d="M641.5,-83.36C641.5,-71.26 641.5,-57.58 641.5,-46.74"/>
<polygon fill="#63b8ff" stroke="#63b8ff" points="638,-83.49 641.5,-93.49 645,-83.49 638,-83.49"/>
</a>
</g>
</g>
<!-- Node8 -->
<g id="Node000008" class="node">
<title>Node8</title>
<g id="a_Node000008"><a xlink:href="_actuator_container_8cpp.html" target="_top" xlink:title=" ">
<polygon fill="white" stroke="#666666" points="924.5,-52 754.5,-52 754.5,0 924.5,0 924.5,-52"/>
<text text-anchor="start" x="762.5" y="-40" font-family="Helvetica,sans-Serif" font-size="10.00">/home/runner/work/amr</text>
<text text-anchor="start" x="762.5" y="-29" font-family="Helvetica,sans-Serif" font-size="10.00">&#45;wind/amr&#45;wind/amr&#45;wind</text>
<text text-anchor="start" x="762.5" y="-18" font-family="Helvetica,sans-Serif" font-size="10.00">/wind_energy/actuator/Actuator</text>
<text text-anchor="middle" x="839.5" y="-7" font-family="Helvetica,sans-Serif" font-size="10.00">Container.cpp</text>
</a>
</g>
</g>
<!-- Node5&#45;&gt;Node8 -->
<g id="edge7_Node000005_Node000008" class="edge">
<title>Node5&#45;&gt;Node8</title>
<g id="a_edge7_Node000005_Node000008"><a xlink:title=" ">
<path fill="none" stroke="#63b8ff" d="M695.61,-89.5C722.27,-77.92 754.43,-63.95 781.58,-52.16"/>
<polygon fill="#63b8ff" stroke="#63b8ff" points="694.21,-86.29 686.43,-93.49 697,-92.71 694.21,-86.29"/>
</a>
</g>
</g>
<!-- Node14&#45;&gt;Node4 -->
<g id="edge15_Node000014_Node000004" class="edge">
<title>Node14&#45;&gt;Node4</title>
<g id="a_edge15_Node000014_Node000004"><a xlink:title=" ">
<path fill="none" stroke="#63b8ff" d="M715.8,-253.56C716.59,-245.04 717.42,-236.1 718.16,-228.16"/>
<polygon fill="#63b8ff" stroke="#63b8ff" points="712.3,-253.38 714.86,-263.66 719.27,-254.03 712.3,-253.38"/>
</a>
</g>
</g>
<!-- Node16 -->
<g id="Node000016" class="node">
<title>Node16</title>
<g id="a_Node000016"><a xlink:href="_joukowsky__ops_8_h.html" target="_top" xlink:title=" ">
<polygon fill="white" stroke="#666666" points="367,-228 218,-228 218,-176 367,-176 367,-228"/>
<text text-anchor="start" x="226" y="-216" font-family="Helvetica,sans-Serif" font-size="10.00">/home/runner/work/amr</text>
<text text-anchor="start" x="226" y="-205" font-family="Helvetica,sans-Serif" font-size="10.00">&#45;wind/amr&#45;wind/amr&#45;wind</text>
<text text-anchor="start" x="226" y="-194" font-family="Helvetica,sans-Serif" font-size="10.00">/wind_energy/actuator/disk</text>
<text text-anchor="middle" x="292.5" y="-183" font-family="Helvetica,sans-Serif" font-size="10.00">/Joukowsky_ops.H</text>
</a>
</g>
</g>
<!-- Node15&#45;&gt;Node16 -->
<g id="edge17_Node000015_Node000016" class="edge">
<title>Node15&#45;&gt;Node16</title>
<g id="a_edge17_Node000015_Node000016"><a xlink:title=" ">
<path fill="none" stroke="#63b8ff" d="M288.97,-253.56C289.57,-245.04 290.19,-236.1 290.74,-228.16"/>
<polygon fill="#63b8ff" stroke="#63b8ff" points="285.47,-253.44 288.27,-263.66 292.46,-253.93 285.47,-253.44"/>
</a>
</g>
</g>
<!-- Node17 -->
<g id="Node000017" class="node">
<title>Node17</title>
<g id="a_Node000017"><a xlink:href="_joukowsky__ops_8cpp.html" target="_top" xlink:title=" ">
<polygon fill="white" stroke="#666666" points="149,-140 0,-140 0,-88 149,-88 149,-140"/>
<text text-anchor="start" x="8" y="-128" font-family="Helvetica,sans-Serif" font-size="10.00">/home/runner/work/amr</text>
<text text-anchor="start" x="8" y="-117" font-family="Helvetica,sans-Serif" font-size="10.00">&#45;wind/amr&#45;wind/amr&#45;wind</text>
<text text-anchor="start" x="8" y="-106" font-family="Helvetica,sans-Serif" font-size="10.00">/wind_energy/actuator/disk</text>
<text text-anchor="middle" x="74.5" y="-95" font-family="Helvetica,sans-Serif" font-size="10.00">/Joukowsky_ops.cpp</text>
</a>
</g>
</g>
<!-- Node15&#45;&gt;Node17 -->
<g id="edge20_Node000015_Node000017" class="edge">
<title>Node15&#45;&gt;Node17</title>
<g id="a_edge20_Node000015_Node000017"><a xlink:title=" ">
<path fill="none" stroke="#63b8ff" d="M202.03,-279.07C139.31,-269.76 61.36,-253.41 41.5,-228 21.49,-202.4 39.07,-165.01 55.26,-140.35"/>
<polygon fill="#63b8ff" stroke="#63b8ff" points="201.56,-282.54 211.95,-280.51 202.56,-275.61 201.56,-282.54"/>
</a>
</g>
</g>
<!-- Node18 -->
<g id="Node000018" class="node">
<title>Node18</title>
<g id="a_Node000018"><a xlink:href="disk__ops_8cpp.html" target="_top" xlink:title=" ">
<polygon fill="white" stroke="#666666" points="200,-228 51,-228 51,-176 200,-176 200,-228"/>
<text text-anchor="start" x="59" y="-216" font-family="Helvetica,sans-Serif" font-size="10.00">/home/runner/work/amr</text>
<text text-anchor="start" x="59" y="-205" font-family="Helvetica,sans-Serif" font-size="10.00">&#45;wind/amr&#45;wind/amr&#45;wind</text>
<text text-anchor="start" x="59" y="-194" font-family="Helvetica,sans-Serif" font-size="10.00">/wind_energy/actuator/disk</text>
<text text-anchor="middle" x="125.5" y="-183" font-family="Helvetica,sans-Serif" font-size="10.00">/disk_ops.cpp</text>
</a>
</g>
</g>
<!-- Node15&#45;&gt;Node18 -->
<g id="edge21_Node000015_Node000018" class="edge">
<title>Node15&#45;&gt;Node18</title>
<g id="a_edge21_Node000015_Node000018"><a xlink:title=" ">
<path fill="none" stroke="#63b8ff" d="M230.67,-259.18C211.72,-249.06 190.75,-237.86 172.56,-228.14"/>
<polygon fill="#63b8ff" stroke="#63b8ff" points="229.03,-262.27 239.5,-263.89 232.33,-256.1 229.03,-262.27"/>
</a>
</g>
</g>
<!-- Node19 -->
<g id="Node000019" class="node">
<title>Node19</title>
<g id="a_Node000019"><a xlink:href="uniform__ct__ops_8_h.html" target="_top" xlink:title=" ">
<polygon fill="white" stroke="#666666" points="534,-228 385,-228 385,-176 534,-176 534,-228"/>
<text text-anchor="start" x="393" y="-216" font-family="Helvetica,sans-Serif" font-size="10.00">/home/runner/work/amr</text>
<text text-anchor="start" x="393" y="-205" font-family="Helvetica,sans-Serif" font-size="10.00">&#45;wind/amr&#45;wind/amr&#45;wind</text>
<text text-anchor="start" x="393" y="-194" font-family="Helvetica,sans-Serif" font-size="10.00">/wind_energy/actuator/disk</text>
<text text-anchor="middle" x="459.5" y="-183" font-family="Helvetica,sans-Serif" font-size="10.00">/uniform_ct_ops.H</text>
</a>
</g>
</g>
<!-- Node15&#45;&gt;Node19 -->
<g id="edge22_Node000015_Node000019" class="edge">
<title>Node15&#45;&gt;Node19</title>
<g id="a_edge22_Node000015_Node000019"><a xlink:title=" ">
<path fill="none" stroke="#63b8ff" d="M346.22,-259.31C366.65,-249.16 389.29,-237.9 408.93,-228.14"/>
<polygon fill="#63b8ff" stroke="#63b8ff" points="344.4,-256.31 337,-263.89 347.52,-262.58 344.4,-256.31"/>
</a>
</g>
</g>
<!-- Node16&#45;&gt;Node9 -->
<g id="edge18_Node000016_Node000009" class="edge">
<title>Node16&#45;&gt;Node9</title>
<g id="a_edge18_Node000016_Node000009"><a xlink:title=" ">
<path fill="none" stroke="#63b8ff" d="M292.5,-165.56C292.5,-157.04 292.5,-148.1 292.5,-140.16"/>
<polygon fill="#63b8ff" stroke="#63b8ff" points="289,-165.66 292.5,-175.66 296,-165.66 289,-165.66"/>
</a>
</g>
</g>
<!-- Node16&#45;&gt;Node17 -->
<g id="edge19_Node000016_Node000017" class="edge">
<title>Node16&#45;&gt;Node17</title>
<g id="a_edge19_Node000016_Node000017"><a xlink:title=" ">
<path fill="none" stroke="#63b8ff" d="M219.33,-172.14C193.05,-161.77 163.64,-150.16 138.22,-140.14"/>
<polygon fill="#63b8ff" stroke="#63b8ff" points="218.27,-175.48 228.86,-175.89 220.84,-168.97 218.27,-175.48"/>
</a>
</g>
</g>
<!-- Node19&#45;&gt;Node9 -->
<g id="edge23_Node000019_Node000009" class="edge">
<title>Node19&#45;&gt;Node9</title>
<g id="a_edge23_Node000019_Node000009"><a xlink:title=" ">
<path fill="none" stroke="#63b8ff" d="M401.85,-171.31C382.13,-161.16 360.27,-149.9 341.31,-140.14"/>
<polygon fill="#63b8ff" stroke="#63b8ff" points="400.25,-174.43 410.75,-175.89 403.46,-168.2 400.25,-174.43"/>
</a>
</g>
</g>
<!-- Node20 -->
<g id="Node000020" class="node">
<title>Node20</title>
<g id="a_Node000020"><a xlink:href="uniform__ct__ops_8cpp.html" target="_top" xlink:title=" ">
<polygon fill="white" stroke="#666666" points="534,-140 385,-140 385,-88 534,-88 534,-140"/>
<text text-anchor="start" x="393" y="-128" font-family="Helvetica,sans-Serif" font-size="10.00">/home/runner/work/amr</text>
<text text-anchor="start" x="393" y="-117" font-family="Helvetica,sans-Serif" font-size="10.00">&#45;wind/amr&#45;wind/amr&#45;wind</text>
<text text-anchor="start" x="393" y="-106" font-family="Helvetica,sans-Serif" font-size="10.00">/wind_energy/actuator/disk</text>
<text text-anchor="middle" x="459.5" y="-95" font-family="Helvetica,sans-Serif" font-size="10.00">/uniform_ct_ops.cpp</text>
</a>
</g>
</g>
<!-- Node19&#45;&gt;Node20 -->
<g id="edge24_Node000019_Node000020" class="edge">
<title>Node19&#45;&gt;Node20</title>
<g id="a_edge24_Node000019_Node000020"><a xlink:title=" ">
<path fill="none" stroke="#63b8ff" d="M459.5,-165.56C459.5,-157.04 459.5,-148.1 459.5,-140.16"/>
<polygon fill="#63b8ff" stroke="#63b8ff" points="456,-165.66 459.5,-175.66 463,-165.66 456,-165.66"/>
</a>
</g>
</g>
<!-- Node21&#45;&gt;Node4 -->
<g id="edge26_Node000021_Node000004" class="edge">
<title>Node21&#45;&gt;Node4</title>
<g id="a_edge26_Node000021_Node000004"><a xlink:title=" ">
<path fill="none" stroke="#63b8ff" d="M828.93,-259.18C809.4,-249.06 787.78,-237.86 769.02,-228.14"/>
<polygon fill="#63b8ff" stroke="#63b8ff" points="827.55,-262.4 838.04,-263.89 830.77,-256.19 827.55,-262.4"/>
</a>
</g>
</g>
<!-- Node23 -->
<g id="Node000023" class="node">
<title>Node23</title>
<g id="a_Node000023"><a xlink:href="turbine__fast__ops_8_h.html" target="_top" xlink:title=" ">
<polygon fill="white" stroke="#666666" points="1159,-140 996,-140 996,-88 1159,-88 1159,-140"/>
<text text-anchor="start" x="1004" y="-128" font-family="Helvetica,sans-Serif" font-size="10.00">/home/runner/work/amr</text>
<text text-anchor="start" x="1004" y="-117" font-family="Helvetica,sans-Serif" font-size="10.00">&#45;wind/amr&#45;wind/amr&#45;wind</text>
<text text-anchor="start" x="1004" y="-106" font-family="Helvetica,sans-Serif" font-size="10.00">/wind_energy/actuator/turbine</text>
<text text-anchor="middle" x="1077.5" y="-95" font-family="Helvetica,sans-Serif" font-size="10.00">/fast/turbine_fast_ops.H</text>
</a>
</g>
</g>
<!-- Node22&#45;&gt;Node23 -->
<g id="edge28_Node000022_Node000023" class="edge">
<title>Node22&#45;&gt;Node23</title>
<g id="a_edge28_Node000022_Node000023"><a xlink:title=" ">
<path fill="none" stroke="#63b8ff" d="M1083.97,-165.56C1082.88,-157.04 1081.73,-148.1 1080.72,-140.16"/>
<polygon fill="#63b8ff" stroke="#63b8ff" points="1080.52,-166.19 1085.26,-175.66 1087.46,-165.3 1080.52,-166.19"/>
</a>
</g>
</g>
<!-- Node24 -->
<g id="Node000024" class="node">
<title>Node24</title>
<g id="a_Node000024"><a xlink:href="turbine__kynema__ops_8_h.html" target="_top" xlink:title=" ">
<polygon fill="white" stroke="#666666" points="1521,-140 1348,-140 1348,-88 1521,-88 1521,-140"/>
<text text-anchor="start" x="1356" y="-128" font-family="Helvetica,sans-Serif" font-size="10.00">/home/runner/work/amr</text>
<text text-anchor="start" x="1356" y="-117" font-family="Helvetica,sans-Serif" font-size="10.00">&#45;wind/amr&#45;wind/amr&#45;wind</text>
<text text-anchor="start" x="1356" y="-106" font-family="Helvetica,sans-Serif" font-size="10.00">/wind_energy/actuator/turbine</text>
<text text-anchor="middle" x="1434.5" y="-95" font-family="Helvetica,sans-Serif" font-size="10.00">/kynema/turbine_kynema_ops.H</text>
</a>
</g>
</g>
<!-- Node22&#45;&gt;Node24 -->
<g id="edge30_Node000022_Node000024" class="edge">
<title>Node22&#45;&gt;Node24</title>
<g id="a_edge30_Node000022_Node000024"><a xlink:title=" ">
<path fill="none" stroke="#63b8ff" d="M1186.51,-175.77C1254.99,-159.03 1273.74,-156.05 1338.5,-140 1341.59,-139.23 1344.74,-138.45 1347.92,-137.65"/>
<polygon fill="#63b8ff" stroke="#63b8ff" points="1185.38,-172.45 1176.51,-178.23 1187.05,-179.24 1185.38,-172.45"/>
</a>
</g>
</g>
<!-- Node23&#45;&gt;Node10 -->
<g id="edge29_Node000023_Node000010" class="edge">
<title>Node23&#45;&gt;Node10</title>
<g id="a_edge29_Node000023_Node000010"><a xlink:title=" ">
<path fill="none" stroke="#63b8ff" d="M1066.46,-77.84C1063.76,-69.23 1060.92,-60.19 1058.4,-52.16"/>
<polygon fill="#63b8ff" stroke="#63b8ff" points="1063.21,-79.17 1069.55,-87.66 1069.89,-77.07 1063.21,-79.17"/>
</a>
</g>
</g>
<!-- Node24&#45;&gt;Node11 -->
<g id="edge31_Node000024_Node000011" class="edge">
<title>Node24&#45;&gt;Node11</title>
<g id="a_edge31_Node000024_Node000011"><a xlink:title=" ">
<path fill="none" stroke="#63b8ff" d="M1397.03,-81.41C1385.65,-71.82 1373.31,-61.41 1362.49,-52.29"/>
<polygon fill="#63b8ff" stroke="#63b8ff" points="1394.82,-84.12 1404.72,-87.89 1399.33,-78.77 1394.82,-84.12"/>
</a>
</g>
</g>
<!-- Node25&#45;&gt;Node22 -->
<g id="edge33_Node000025_Node000022" class="edge">
<title>Node25&#45;&gt;Node22</title>
<g id="a_edge33_Node000025_Node000022"><a xlink:title=" ">
<path fill="none" stroke="#63b8ff" d="M1127.58,-255.52C1120.81,-246.42 1113.59,-236.71 1107.22,-228.16"/>
<polygon fill="#63b8ff" stroke="#63b8ff" points="1124.87,-257.73 1133.64,-263.66 1130.48,-253.55 1124.87,-257.73"/>
</a>
</g>
</g>
<!-- Node26&#45;&gt;Node12 -->
<g id="edge35_Node000026_Node000012" class="edge">
<title>Node26&#45;&gt;Node12</title>
<g id="a_edge35_Node000026_Node000012"><a xlink:title=" ">
<path fill="none" stroke="#63b8ff" d="M904.44,-165.56C903.94,-157.04 903.42,-148.1 902.96,-140.16"/>
<polygon fill="#63b8ff" stroke="#63b8ff" points="900.95,-165.88 905.03,-175.66 907.94,-165.48 900.95,-165.88"/>
</a>
</g>
</g>
<!-- Node27&#45;&gt;Node13 -->
<g id="edge37_Node000027_Node000013" class="edge">
<title>Node27&#45;&gt;Node13</title>
<g id="a_edge37_Node000027_Node000013"><a xlink:title=" ">
<path fill="none" stroke="#63b8ff" d="M1376.55,-171.59C1354.31,-161.36 1329.58,-149.99 1308.16,-140.14"/>
<polygon fill="#63b8ff" stroke="#63b8ff" points="1375.36,-174.9 1385.91,-175.89 1378.29,-168.54 1375.36,-174.9"/>
</a>
</g>
</g>
<!-- Node28&#45;&gt;Node26 -->
<g id="edge39_Node000028_Node000026" class="edge">
<title>Node28&#45;&gt;Node26</title>
<g id="a_edge39_Node000028_Node000026"><a xlink:title=" ">
<path fill="none" stroke="#63b8ff" d="M1250.31,-263.89C1135.64,-240.16 1102.43,-251.86 991.5,-228 988.64,-227.39 985.74,-226.72 982.82,-226.03"/>
<polygon fill="#63b8ff" stroke="#63b8ff" points="1249.67,-267.33 1260.18,-265.97 1251.12,-260.48 1249.67,-267.33"/>
</a>
</g>
</g>
<!-- Node28&#45;&gt;Node27 -->
<g id="edge40_Node000028_Node000027" class="edge">
<title>Node28&#45;&gt;Node27</title>
<g id="a_edge40_Node000028_Node000027"><a xlink:title=" ">
<path fill="none" stroke="#63b8ff" d="M1374.7,-257.41C1386.3,-247.82 1398.89,-237.41 1409.92,-228.29"/>
<polygon fill="#63b8ff" stroke="#63b8ff" points="1372.34,-254.82 1366.86,-263.89 1376.8,-260.22 1372.34,-254.82"/>
</a>
</g>
</g>
<!-- Node29 -->
<g id="Node000029" class="node">
<title>Node29</title>
<g id="a_Node000029"><a xlink:href="wing__ops_8cpp.html" target="_top" xlink:title=" ">
<polygon fill="white" stroke="#666666" points="1346.5,-228 1194.5,-228 1194.5,-176 1346.5,-176 1346.5,-228"/>
<text text-anchor="start" x="1202.5" y="-216" font-family="Helvetica,sans-Serif" font-size="10.00">/home/runner/work/amr</text>
<text text-anchor="start" x="1202.5" y="-205" font-family="Helvetica,sans-Serif" font-size="10.00">&#45;wind/amr&#45;wind/amr&#45;wind</text>
<text text-anchor="start" x="1202.5" y="-194" font-family="Helvetica,sans-Serif" font-size="10.00">/wind_energy/actuator/wing</text>
<text text-anchor="middle" x="1270.5" y="-183" font-family="Helvetica,sans-Serif" font-size="10.00">/wing_ops.cpp</text>
</a>
</g>
</g>
<!-- Node28&#45;&gt;Node29 -->
<g id="edge41_Node000028_Node000029" class="edge">
<title>Node28&#45;&gt;Node29</title>
<g id="a_edge41_Node000028_Node000029"><a xlink:title=" ">
<path fill="none" stroke="#63b8ff" d="M1310.81,-255.52C1303.82,-246.42 1296.37,-236.71 1289.81,-228.16"/>
<polygon fill="#63b8ff" stroke="#63b8ff" points="1308.19,-257.86 1317.05,-263.66 1313.74,-253.6 1308.19,-257.86"/>
</a>
</g>
</g>
</g>
</svg>
