<?xml version="1.0" encoding="UTF-8" standalone="no"?>
<!DOCTYPE svg PUBLIC "-//W3C//DTD SVG 1.1//EN"
 "http://www.w3.org/Graphics/SVG/1.1/DTD/svg11.dtd">
<!-- Generated by graphviz version 2.43.0 (0)
 -->
<!-- Title: amr_wind::turbulence::TurbModel&lt; Transport &gt; Pages: 1 -->
<svg width="1378pt" height="326pt"
 viewBox="0.00 0.00 1378.00 326.00" xmlns="http://www.w3.org/2000/svg" xmlns:xlink="http://www.w3.org/1999/xlink">
<g id="graph0" class="graph" transform="scale(1 1) rotate(0) translate(4 322)">
<title>amr_wind::turbulence::TurbModel&lt; Transport &gt;</title>
<!-- Node1 -->
<g id="Node000001" class="node">
<title>Node1</title>
<g id="a_Node000001"><a xlink:title=" ">
<polygon fill="#999999" stroke="#666666" points="758,-198 618,-198 618,-168 758,-168 758,-198"/>
<text text-anchor="start" x="626" y="-186" font-family="Helvetica,sans-Serif" font-size="10.00">amr_wind::turbulence</text>
<text text-anchor="middle" x="688" y="-175" font-family="Helvetica,sans-Serif" font-size="10.00">::TurbModel&lt; Transport &gt;</text>
</a>
</g>
</g>
<!-- Node5 -->
<g id="Node000005" class="node">
<title>Node5</title>
<g id="a_Node000005"><a xlink:href="classamr__wind_1_1turbulence_1_1_laminar.html" target="_top" xlink:title=" ">
<polygon fill="white" stroke="#666666" points="942,-222 812,-222 812,-192 942,-192 942,-222"/>
<text text-anchor="start" x="820" y="-210" font-family="Helvetica,sans-Serif" font-size="10.00">amr_wind::turbulence</text>
<text text-anchor="middle" x="877" y="-199" font-family="Helvetica,sans-Serif" font-size="10.00">::Laminar&lt; Transport &gt;</text>
</a>
</g>
</g>
<!-- Node1&#45;&gt;Node5 -->
<g id="edge4_Node000001_Node000005" class="edge">
<title>Node1&#45;&gt;Node5</title>
<g id="a_edge4_Node000001_Node000005"><a xlink:title=" ">
<path fill="none" stroke="#63b8ff" d="M768.1,-193.15C782.69,-195.02 797.75,-196.96 811.83,-198.76"/>
<polygon fill="#63b8ff" stroke="#63b8ff" points="768.46,-189.67 758.1,-191.87 767.57,-196.61 768.46,-189.67"/>
</a>
</g>
</g>
<!-- Node6 -->
<g id="Node000006" class="node">
<title>Node6</title>
<g id="a_Node000006"><a xlink:href="classamr__wind_1_1turbulence_1_1_turb_model_base.html" target="_top" xlink:title=" ">
<polygon fill="white" stroke="#666666" points="959,-174 795,-174 795,-144 959,-144 959,-174"/>
<text text-anchor="start" x="803" y="-162" font-family="Helvetica,sans-Serif" font-size="10.00">amr_wind::turbulence</text>
<text text-anchor="middle" x="877" y="-151" font-family="Helvetica,sans-Serif" font-size="10.00">::TurbModelBase&lt; Transport &gt;</text>
</a>
</g>
</g>
<!-- Node1&#45;&gt;Node6 -->
<g id="edge5_Node000001_Node000006" class="edge">
<title>Node1&#45;&gt;Node6</title>
<g id="a_edge5_Node000001_Node000006"><a xlink:title=" ">
<path fill="none" stroke="#63b8ff" d="M768.03,-172.86C776.9,-171.72 785.95,-170.56 794.85,-169.41"/>
<polygon fill="#63b8ff" stroke="#63b8ff" points="767.57,-169.39 758.1,-174.13 768.46,-176.33 767.57,-169.39"/>
</a>
</g>
</g>
<!-- Node2 -->
<g id="Node000002" class="node">
<title>Node2</title>
<g id="a_Node000002"><a xlink:href="classamr__wind_1_1turbulence_1_1_turbulence_model.html" target="_top" xlink:title=" ">
<polygon fill="white" stroke="#666666" points="581,-198 459,-198 459,-168 581,-168 581,-198"/>
<text text-anchor="start" x="467" y="-186" font-family="Helvetica,sans-Serif" font-size="10.00">amr_wind::turbulence</text>
<text text-anchor="middle" x="520" y="-175" font-family="Helvetica,sans-Serif" font-size="10.00">::TurbulenceModel</text>
</a>
</g>
</g>
<!-- Node2&#45;&gt;Node1 -->
<g id="edge1_Node000001_Node000002" class="edge">
<title>Node2&#45;&gt;Node1</title>
<g id="a_edge1_Node000001_Node000002"><a xlink:title=" ">
<path fill="none" stroke="#63b8ff" d="M591.55,-183C600.28,-183 609.21,-183 617.92,-183"/>
<polygon fill="#63b8ff" stroke="#63b8ff" points="591.4,-179.5 581.4,-183 591.4,-186.5 591.4,-179.5"/>
</a>
</g>
</g>
<!-- Node3 -->
<g id="Node000003" class="node">
<title>Node3</title>
<g id="a_Node000003"><a xlink:href="structamr__wind_1_1_factory.html" target="_top" xlink:title=" ">
<polygon fill="white" stroke="#666666" points="422,-198 253,-198 253,-168 422,-168 422,-198"/>
<text text-anchor="start" x="261" y="-186" font-family="Helvetica,sans-Serif" font-size="10.00">amr_wind::Factory&lt;</text>
<text text-anchor="middle" x="337.5" y="-175" font-family="Helvetica,sans-Serif" font-size="10.00"> TurbulenceModel, CFDSim &amp; &gt;</text>
</a>
</g>
</g>
<!-- Node3&#45;&gt;Node2 -->
<g id="edge2_Node000002_Node000003" class="edge">
<title>Node3&#45;&gt;Node2</title>
<g id="a_edge2_Node000002_Node000003"><a xlink:title=" ">
<path fill="none" stroke="#63b8ff" d="M432.3,-183C441.29,-183 450.24,-183 458.78,-183"/>
<polygon fill="#63b8ff" stroke="#63b8ff" points="432.15,-179.5 422.15,-183 432.15,-186.5 432.15,-179.5"/>
</a>
</g>
</g>
<!-- Node4 -->
<g id="Node000004" class="node">
<title>Node4</title>
<g id="a_Node000004"><a xlink:href="structamr__wind_1_1_factory.html" target="_top" xlink:title=" ">
<polygon fill="white" stroke="#666666" points="114,-198 0,-198 0,-168 114,-168 114,-198"/>
<text text-anchor="start" x="8" y="-186" font-family="Helvetica,sans-Serif" font-size="10.00">amr_wind::Factory&lt;</text>
<text text-anchor="middle" x="57" y="-175" font-family="Helvetica,sans-Serif" font-size="10.00"> Base, Args &gt;</text>
</a>
</g>
</g>
<!-- Node4&#45;&gt;Node3 -->
<g id="edge3_Node000003_Node000004" class="edge">
<title>Node4&#45;&gt;Node3</title>
<g id="a_edge3_Node000003_Node000004"><a xlink:title=" ">
<path fill="none" stroke="orange" stroke-dasharray="5,2" d="M124.09,-183C162.63,-183 211.61,-183 252.82,-183"/>
<polygon fill="orange" stroke="orange" points="124.02,-179.5 114.02,-183 124.02,-186.5 124.02,-179.5"/>
</a>
</g>
<text text-anchor="start" x="135.5" y="-204" font-family="Helvetica,sans-Serif" font-size="10.00" fill="grey">&lt; TurbulenceModel,</text>
<text text-anchor="start" x="135.5" y="-189" font-family="Helvetica,sans-Serif" font-size="10.00" fill="grey">   CFDSim &amp; &gt;</text>
</g>
<!-- Node7 -->
<g id="Node000007" class="node">
<title>Node7</title>
<g id="a_Node000007"><a xlink:href="classamr__wind_1_1turbulence_1_1_a_m_d.html" target="_top" xlink:title=" ">
<polygon fill="white" stroke="#666666" points="1136,-318 1014,-318 1014,-288 1136,-288 1136,-318"/>
<text text-anchor="start" x="1022" y="-306" font-family="Helvetica,sans-Serif" font-size="10.00">amr_wind::turbulence</text>
<text text-anchor="middle" x="1075" y="-295" font-family="Helvetica,sans-Serif" font-size="10.00">::AMD&lt; Transport &gt;</text>
</a>
</g>
</g>
<!-- Node6&#45;&gt;Node7 -->
<g id="edge6_Node000006_Node000007" class="edge">
<title>Node6&#45;&gt;Node7</title>
<g id="a_edge6_Node000006_Node000007"><a xlink:title=" ">
<path fill="none" stroke="#63b8ff" d="M955.44,-179.97C956.67,-180.93 957.85,-181.94 959,-183 992.6,-214.02 962.57,-247.81 996,-279 1001.18,-283.83 1007.31,-287.69 1013.83,-290.78"/>
<polygon fill="#63b8ff" stroke="#63b8ff" points="957.09,-176.86 946.83,-174.21 953.2,-182.68 957.09,-176.86"/>
</a>
</g>
</g>
<!-- Node8 -->
<g id="Node000008" class="node">
<title>Node8</title>
<g id="a_Node000008"><a xlink:href="classamr__wind_1_1turbulence_1_1_a_m_d_no_therm.html" target="_top" xlink:title=" ">
<polygon fill="white" stroke="#666666" points="1154,-270 996,-270 996,-240 1154,-240 1154,-270"/>
<text text-anchor="start" x="1004" y="-258" font-family="Helvetica,sans-Serif" font-size="10.00">amr_wind::turbulence</text>
<text text-anchor="middle" x="1075" y="-247" font-family="Helvetica,sans-Serif" font-size="10.00">::AMDNoTherm&lt; Transport &gt;</text>
</a>
</g>
</g>
<!-- Node6&#45;&gt;Node8 -->
<g id="edge7_Node000006_Node000008" class="edge">
<title>Node6&#45;&gt;Node8</title>
<g id="a_edge7_Node000006_Node000008"><a xlink:title=" ">
<path fill="none" stroke="#63b8ff" d="M951.98,-178.66C954.41,-180.02 956.75,-181.46 959,-183 981.21,-198.23 973.87,-215.65 996,-231 1000.89,-234.39 1006.27,-237.32 1011.86,-239.83"/>
<polygon fill="#63b8ff" stroke="#63b8ff" points="953.45,-175.48 942.94,-174.15 950.33,-181.75 953.45,-175.48"/>
</a>
</g>
</g>
<!-- Node9 -->
<g id="Node000009" class="node">
<title>Node9</title>
<g id="a_Node000009"><a xlink:href="classamr__wind_1_1turbulence_1_1_k_l_axell.html" target="_top" xlink:title=" ">
<polygon fill="white" stroke="#666666" points="1138.5,-222 1011.5,-222 1011.5,-192 1138.5,-192 1138.5,-222"/>
<text text-anchor="start" x="1019.5" y="-210" font-family="Helvetica,sans-Serif" font-size="10.00">amr_wind::turbulence</text>
<text text-anchor="middle" x="1075" y="-199" font-family="Helvetica,sans-Serif" font-size="10.00">::KLAxell&lt; Transport &gt;</text>
</a>
</g>
</g>
<!-- Node6&#45;&gt;Node9 -->
<g id="edge8_Node000006_Node000009" class="edge">
<title>Node6&#45;&gt;Node9</title>
<g id="a_edge8_Node000006_Node000009"><a xlink:title=" ">
<path fill="none" stroke="#63b8ff" d="M949.22,-176.44C970.04,-181.54 992.6,-187.07 1012.74,-192"/>
<polygon fill="#63b8ff" stroke="#63b8ff" points="950.02,-173.04 939.48,-174.06 948.36,-179.83 950.02,-173.04"/>
</a>
</g>
</g>
<!-- Node10 -->
<g id="Node000010" class="node">
<title>Node10</title>
<g id="a_Node000010"><a xlink:href="classamr__wind_1_1turbulence_1_1_k_omega_s_s_t.html" target="_top" xlink:title=" ">
<polygon fill="white" stroke="#666666" points="1149.5,-174 1000.5,-174 1000.5,-144 1149.5,-144 1149.5,-174"/>
<text text-anchor="start" x="1008.5" y="-162" font-family="Helvetica,sans-Serif" font-size="10.00">amr_wind::turbulence</text>
<text text-anchor="middle" x="1075" y="-151" font-family="Helvetica,sans-Serif" font-size="10.00">::KOmegaSST&lt; Transport &gt;</text>
</a>
</g>
</g>
<!-- Node6&#45;&gt;Node10 -->
<g id="edge9_Node000006_Node000010" class="edge">
<title>Node6&#45;&gt;Node10</title>
<g id="a_edge9_Node000006_Node000010"><a xlink:title=" ">
<path fill="none" stroke="#63b8ff" d="M969.15,-159C979.64,-159 990.24,-159 1000.45,-159"/>
<polygon fill="#63b8ff" stroke="#63b8ff" points="969.14,-155.5 959.14,-159 969.14,-162.5 969.14,-155.5"/>
</a>
</g>
</g>
<!-- Node12 -->
<g id="Node000012" class="node">
<title>Node12</title>
<g id="a_Node000012"><a xlink:href="classamr__wind_1_1turbulence_1_1_kosovic.html" target="_top" xlink:title=" ">
<polygon fill="white" stroke="#666666" points="1139,-126 1011,-126 1011,-96 1139,-96 1139,-126"/>
<text text-anchor="start" x="1019" y="-114" font-family="Helvetica,sans-Serif" font-size="10.00">amr_wind::turbulence</text>
<text text-anchor="middle" x="1075" y="-103" font-family="Helvetica,sans-Serif" font-size="10.00">::Kosovic&lt; Transport &gt;</text>
</a>
</g>
</g>
<!-- Node6&#45;&gt;Node12 -->
<g id="edge11_Node000006_Node000012" class="edge">
<title>Node6&#45;&gt;Node12</title>
<g id="a_edge11_Node000006_Node000012"><a xlink:title=" ">
<path fill="none" stroke="#63b8ff" d="M949.22,-141.56C970.04,-136.46 992.6,-130.93 1012.74,-126"/>
<polygon fill="#63b8ff" stroke="#63b8ff" points="948.36,-138.17 939.48,-143.94 950.02,-144.96 948.36,-138.17"/>
</a>
</g>
</g>
<!-- Node13 -->
<g id="Node000013" class="node">
<title>Node13</title>
<g id="a_Node000013"><a xlink:href="classamr__wind_1_1turbulence_1_1_one_eq_ksgs.html" target="_top" xlink:title=" ">
<polygon fill="white" stroke="#666666" points="1147.5,-78 1002.5,-78 1002.5,-48 1147.5,-48 1147.5,-78"/>
<text text-anchor="start" x="1010.5" y="-66" font-family="Helvetica,sans-Serif" font-size="10.00">amr_wind::turbulence</text>
<text text-anchor="middle" x="1075" y="-55" font-family="Helvetica,sans-Serif" font-size="10.00">::OneEqKsgs&lt; Transport &gt;</text>
</a>
</g>
</g>
<!-- Node6&#45;&gt;Node13 -->
<g id="edge12_Node000006_Node000013" class="edge">
<title>Node6&#45;&gt;Node13</title>
<g id="a_edge12_Node000006_Node000013"><a xlink:title=" ">
<path fill="none" stroke="#63b8ff" d="M907.64,-138.04C930.85,-122.36 964.37,-101.24 996,-87 1003.23,-83.74 1011.04,-80.76 1018.81,-78.09"/>
<polygon fill="#63b8ff" stroke="#63b8ff" points="905.56,-135.22 899.28,-143.76 909.51,-141 905.56,-135.22"/>
</a>
</g>
</g>
<!-- Node16 -->
<g id="Node000016" class="node">
<title>Node16</title>
<g id="a_Node000016"><a xlink:href="classamr__wind_1_1turbulence_1_1_smagorinsky.html" target="_top" xlink:title=" ">
<polygon fill="white" stroke="#666666" points="1151.5,-30 998.5,-30 998.5,0 1151.5,0 1151.5,-30"/>
<text text-anchor="start" x="1006.5" y="-18" font-family="Helvetica,sans-Serif" font-size="10.00">amr_wind::turbulence</text>
<text text-anchor="middle" x="1075" y="-7" font-family="Helvetica,sans-Serif" font-size="10.00">::Smagorinsky&lt; Transport &gt;</text>
</a>
</g>
</g>
<!-- Node6&#45;&gt;Node16 -->
<g id="edge15_Node000006_Node000016" class="edge">
<title>Node6&#45;&gt;Node16</title>
<g id="a_edge15_Node000006_Node000016"><a xlink:title=" ">
<path fill="none" stroke="#63b8ff" d="M895.1,-135.6C916.01,-108.59 953.87,-64.61 996,-39 1001.57,-35.61 1007.66,-32.67 1013.89,-30.12"/>
<polygon fill="#63b8ff" stroke="#63b8ff" points="892.19,-133.65 888.92,-143.73 897.76,-137.89 892.19,-133.65"/>
</a>
</g>
</g>
<!-- Node11 -->
<g id="Node000011" class="node">
<title>Node11</title>
<g id="a_Node000011"><a xlink:href="classamr__wind_1_1turbulence_1_1_k_omega_s_s_t_i_d_d_e_s.html" target="_top" xlink:title=" ">
<polygon fill="white" stroke="#666666" points="1370,-174 1191,-174 1191,-144 1370,-144 1370,-174"/>
<text text-anchor="start" x="1199" y="-162" font-family="Helvetica,sans-Serif" font-size="10.00">amr_wind::turbulence</text>
<text text-anchor="middle" x="1280.5" y="-151" font-family="Helvetica,sans-Serif" font-size="10.00">::KOmegaSSTIDDES&lt; Transport &gt;</text>
</a>
</g>
</g>
<!-- Node10&#45;&gt;Node11 -->
<g id="edge10_Node000010_Node000011" class="edge">
<title>Node10&#45;&gt;Node11</title>
<g id="a_edge10_Node000010_Node000011"><a xlink:title=" ">
<path fill="none" stroke="#63b8ff" d="M1159.85,-159C1170.04,-159 1180.49,-159 1190.75,-159"/>
<polygon fill="#63b8ff" stroke="#63b8ff" points="1159.76,-155.5 1149.76,-159 1159.76,-162.5 1159.76,-155.5"/>
</a>
</g>
</g>
<!-- Node14 -->
<g id="Node000014" class="node">
<title>Node14</title>
<g id="a_Node000014"><a xlink:href="classamr__wind_1_1turbulence_1_1_one_eq_ksgs_m84.html" target="_top" xlink:title=" ">
<polygon fill="white" stroke="#666666" points="1363.5,-102 1197.5,-102 1197.5,-72 1363.5,-72 1363.5,-102"/>
<text text-anchor="start" x="1205.5" y="-90" font-family="Helvetica,sans-Serif" font-size="10.00">amr_wind::turbulence</text>
<text text-anchor="middle" x="1280.5" y="-79" font-family="Helvetica,sans-Serif" font-size="10.00">::OneEqKsgsM84&lt; Transport &gt;</text>
</a>
</g>
</g>
<!-- Node13&#45;&gt;Node14 -->
<g id="edge13_Node000013_Node000014" class="edge">
<title>Node13&#45;&gt;Node14</title>
<g id="a_edge13_Node000013_Node000014"><a xlink:title=" ">
<path fill="none" stroke="#63b8ff" d="M1158.01,-72.67C1170.95,-74.2 1184.34,-75.78 1197.28,-77.3"/>
<polygon fill="#63b8ff" stroke="#63b8ff" points="1158.09,-69.16 1147.75,-71.46 1157.27,-76.11 1158.09,-69.16"/>
</a>
</g>
</g>
<!-- Node15 -->
<g id="Node000015" class="node">
<title>Node15</title>
<g id="a_Node000015"><a xlink:href="classamr__wind_1_1turbulence_1_1_one_eq_ksgs_s94.html" target="_top" xlink:title=" ">
<polygon fill="white" stroke="#666666" points="1362,-54 1199,-54 1199,-24 1362,-24 1362,-54"/>
<text text-anchor="start" x="1207" y="-42" font-family="Helvetica,sans-Serif" font-size="10.00">amr_wind::turbulence</text>
<text text-anchor="middle" x="1280.5" y="-31" font-family="Helvetica,sans-Serif" font-size="10.00">::OneEqKsgsS94&lt; Transport &gt;</text>
</a>
</g>
</g>
<!-- Node13&#45;&gt;Node15 -->
<g id="edge14_Node000013_Node000015" class="edge">
<title>Node13&#45;&gt;Node15</title>
<g id="a_edge14_Node000013_Node000015"><a xlink:title=" ">
<path fill="none" stroke="#63b8ff" d="M1157.91,-53.34C1171.35,-51.75 1185.27,-50.11 1198.69,-48.53"/>
<polygon fill="#63b8ff" stroke="#63b8ff" points="1157.27,-49.89 1147.75,-54.54 1158.09,-56.84 1157.27,-49.89"/>
</a>
</g>
</g>
</g>
</svg>
