<?xml version="1.0" encoding="UTF-8" standalone="no"?>
<!DOCTYPE svg PUBLIC "-//W3C//DTD SVG 1.1//EN"
 "http://www.w3.org/Graphics/SVG/1.1/DTD/svg11.dtd">
<!-- Generated by graphviz version 2.43.0 (0)
 -->
<!-- Title: amr_wind::pde::tke::KsgsM84Src Pages: 1 -->
<!--zoomable 566 -->

<svg id="main" version="1.1" xmlns="http://www.w3.org/2000/svg" xmlns:xlink="http://www.w3.org/1999/xlink" xml:space="preserve" onload="init(evt)">

<style type="text/css"><![CDATA[
.node, .edge {opacity: 0.7;}
.node.selected, .edge.selected {opacity: 1;}
.edge:hover path { stroke: red; }
.edge:hover polygon { stroke: red; fill: red; }
]]></style>

<defs>
  <circle id="rim" cx="0" cy="0" r="7"/>
  <circle id="rim2" cx="0" cy="0" r="3.5"/>
  <g id="zoomPlus">
    <use xlink:href="#rim" fill="#404040"><set attributeName="fill" to="#808080" begin="zoomplus.mouseover" end="zoomplus.mouseout"/></use>
    <path d="M-4,0h8M0,-4v8" fill="none" stroke="white" stroke-width="1.5" pointer-events="none"/>
  </g>
  <g id="zoomMin">
    <use xlink:href="#rim" fill="#404040"><set attributeName="fill" to="#808080" begin="zoomminus.mouseover" end="zoomminus.mouseout"/></use>
    <path d="M-4,0h8" fill="none" stroke="white" stroke-width="1.5" pointer-events="none"/>
  </g>
  <g id="arrowUp" transform="translate(30 24)">
    <use xlink:href="#rim"/>
    <path pointer-events="none" fill="none" stroke="white" stroke-width="1.5" d="M0,-3.0v7 M-2.5,-0.5L0,-3.0L2.5,-0.5"/>
  </g>
  <g id="arrowRight" transform="rotate(90) translate(36 -43)">
    <use xlink:href="#rim"/>
    <path pointer-events="none" fill="none" stroke="white" stroke-width="1.5" d="M0,-3.0v7 M-2.5,-0.5L0,-3.0L2.5,-0.5"/>
  </g>
  <g id="arrowDown" transform="rotate(180) translate(-30 -48)">
    <use xlink:href="#rim"/>
    <path pointer-events="none" fill="none" stroke="white" stroke-width="1.5" d="M0,-3.0v7 M-2.5,-0.5L0,-3.0L2.5,-0.5"/>
  </g>
  <g id="arrowLeft" transform="rotate(270) translate(-36 17)">
    <use xlink:href="#rim"/>
    <path pointer-events="none" fill="none" stroke="white" stroke-width="1.5" d="M0,-3.0v7 M-2.5,-0.5L0,-3.0L2.5,-0.5"/>
  </g>
  <g id="resetDef">
    <use xlink:href="#rim2" fill="#404040"><set attributeName="fill" to="#808080" begin="reset.mouseover" end="reset.mouseout"/></use>
  </g>
</defs>
<script type="application/ecmascript">
var viewWidth = 613;
var viewHeight = 566;
var sectionId = 'dynsection-1';
</script>
<script type="application/ecmascript" xlink:href="svg.min.js"/>
<svg id="graph" class="graph">
<g id="viewport">
<title>amr_wind::pde::tke::KsgsM84Src</title>
<!-- Node1 -->
<g id="Node000001" class="node">
<title>Node1</title>
<g id="a_Node000001"><a xlink:title=" ">
<polygon fill="#999999" stroke="#666666" points="378,-30 268,-30 268,0 378,0 378,-30"/>
<text text-anchor="start" x="276" y="-18" font-family="Helvetica,sans-Serif" font-size="10.00">amr_wind::pde::tke</text>
<text text-anchor="middle" x="323" y="-7" font-family="Helvetica,sans-Serif" font-size="10.00">::KsgsM84Src</text>
</a>
</g>
</g>
<!-- Node2 -->
<g id="Node000002" class="node">
<title>Node2</title>
<g id="a_Node000002"><a xlink:title=" ">
<polygon fill="white" stroke="#666666" points="380,-162 234,-162 234,-121 380,-121 380,-162"/>
<text text-anchor="start" x="242" y="-150" font-family="Helvetica,sans-Serif" font-size="10.00">amr_wind::Factory&lt;</text>
<text text-anchor="start" x="242" y="-139" font-family="Helvetica,sans-Serif" font-size="10.00"> TKESource, const CFDSim</text>
<text text-anchor="middle" x="307" y="-128" font-family="Helvetica,sans-Serif" font-size="10.00"> &amp; &gt;::Register</text>
</a>
</g>
</g>
<!-- Node2&#45;&gt;Node1 -->
<g id="edge1_Node000001_Node000002" class="edge">
<title>Node2&#45;&gt;Node1</title>
<g id="a_edge1_Node000001_Node000002"><a xlink:title=" ">
<path fill="none" stroke="#63b8ff" d="M310.85,-110.55C314.12,-85.09 318.67,-49.67 321.17,-30.21"/>
<polygon fill="#63b8ff" stroke="#63b8ff" points="307.34,-110.41 309.54,-120.77 314.28,-111.3 307.34,-110.41"/>
</a>
</g>
</g>
<!-- Node3 -->
<g id="Node000003" class="node">
<title>Node3</title>
<g id="a_Node000003"><a xlink:href="classamr__wind_1_1_field.html" target="_top" xlink:title=" ">
<polygon fill="white" stroke="#666666" points="492,-151 398,-151 398,-132 492,-132 492,-151"/>
<text text-anchor="middle" x="445" y="-139" font-family="Helvetica,sans-Serif" font-size="10.00">amr_wind::Field</text>
</a>
</g>
</g>
<!-- Node3&#45;&gt;Node1 -->
<g id="edge2_Node000001_Node000003" class="edge">
<title>Node3&#45;&gt;Node1</title>
<g id="a_edge2_Node000001_Node000003"><a xlink:title=" ">
<path fill="none" stroke="#9a32cd" stroke-dasharray="5,2" d="M429.36,-124.54C405.35,-100.04 359.78,-53.53 336.88,-30.16"/>
<polygon fill="#9a32cd" stroke="#9a32cd" points="427.12,-127.25 436.61,-131.94 432.12,-122.35 427.12,-127.25"/>
</a>
</g>
<text text-anchor="middle" x="441" y="-95" font-family="Helvetica,sans-Serif" font-size="10.00" fill="grey"> m_buoy_prod</text>
<text text-anchor="middle" x="441" y="-84" font-family="Helvetica,sans-Serif" font-size="10.00" fill="grey">m_dissip</text>
<text text-anchor="middle" x="441" y="-73" font-family="Helvetica,sans-Serif" font-size="10.00" fill="grey">m_shear_prod</text>
<text text-anchor="middle" x="441" y="-62" font-family="Helvetica,sans-Serif" font-size="10.00" fill="grey">m_tke</text>
<text text-anchor="middle" x="441" y="-51" font-family="Helvetica,sans-Serif" font-size="10.00" fill="grey">m_turb_lscale</text>
</g>
<!-- Node4 -->
<g id="Node000004" class="node">
<title>Node4</title>
<g id="a_Node000004"><a xlink:href="classamr__wind_1_1_field_repo.html" target="_top" xlink:title=" ">
<polygon fill="white" stroke="#666666" points="504.5,-233.5 385.5,-233.5 385.5,-214.5 504.5,-214.5 504.5,-233.5"/>
<text text-anchor="middle" x="445" y="-221.5" font-family="Helvetica,sans-Serif" font-size="10.00">amr_wind::FieldRepo</text>
</a>
</g>
</g>
<!-- Node4&#45;&gt;Node3 -->
<g id="edge3_Node000003_Node000004" class="edge">
<title>Node4&#45;&gt;Node3</title>
<g id="a_edge3_Node000003_Node000004"><a xlink:title=" ">
<path fill="none" stroke="#9a32cd" stroke-dasharray="5,2" d="M445,-204.17C445,-187.51 445,-163.93 445,-151.3"/>
<polygon fill="#9a32cd" stroke="#9a32cd" points="441.5,-204.39 445,-214.39 448.5,-204.39 441.5,-204.39"/>
</a>
</g>
<text text-anchor="middle" x="465" y="-183" font-family="Helvetica,sans-Serif" font-size="10.00" fill="grey"> m_repo</text>
</g>
<!-- Node5 -->
<g id="Node000005" class="node">
<title>Node5</title>
<g id="a_Node000005"><a xlink:title=" ">
<polygon fill="white" stroke="#666666" points="506,-327 384,-327 384,-297 506,-297 506,-327"/>
<text text-anchor="start" x="392" y="-315" font-family="Helvetica,sans-Serif" font-size="10.00">std::unordered_map</text>
<text text-anchor="middle" x="445" y="-304" font-family="Helvetica,sans-Serif" font-size="10.00">&lt; std::string, size_t &gt;</text>
</a>
</g>
</g>
<!-- Node5&#45;&gt;Node4 -->
<g id="edge4_Node000004_Node000005" class="edge">
<title>Node5&#45;&gt;Node4</title>
<g id="a_edge4_Node000004_Node000005"><a xlink:title=" ">
<path fill="none" stroke="#9a32cd" stroke-dasharray="5,2" d="M445,-286.59C445,-268.9 445,-246 445,-233.71"/>
<polygon fill="#9a32cd" stroke="#9a32cd" points="441.5,-286.8 445,-296.8 448.5,-286.8 441.5,-286.8"/>
</a>
</g>
<text text-anchor="middle" x="481.5" y="-271" font-family="Helvetica,sans-Serif" font-size="10.00" fill="grey"> m_fid_map</text>
<text text-anchor="middle" x="481.5" y="-260" font-family="Helvetica,sans-Serif" font-size="10.00" fill="grey">m_int_fid_map</text>
</g>
<!-- Node6 -->
<g id="Node000006" class="node">
<title>Node6</title>
<g id="a_Node000006"><a xlink:title=" ">
<polygon fill="white" stroke="#666666" points="585.5,-398.5 520.5,-398.5 520.5,-379.5 585.5,-379.5 585.5,-398.5"/>
<text text-anchor="middle" x="553" y="-386.5" font-family="Helvetica,sans-Serif" font-size="10.00">std::string</text>
</a>
</g>
</g>
<!-- Node6&#45;&gt;Node3 -->
<g id="edge10_Node000003_Node000006" class="edge">
<title>Node6&#45;&gt;Node3</title>
<g id="a_edge10_Node000003_Node000006"><a xlink:title=" ">
<path fill="none" stroke="#9a32cd" stroke-dasharray="5,2" d="M564.86,-370.67C568.79,-363 571.76,-353.74 570,-345 557.08,-280.75 546.93,-265.07 513,-209 498.13,-184.42 472.06,-162.53 456.88,-151.03"/>
<polygon fill="#9a32cd" stroke="#9a32cd" points="561.78,-369.01 559.67,-379.39 567.79,-372.59 561.78,-369.01"/>
</a>
</g>
<text text-anchor="middle" x="575" y="-265.5" font-family="Helvetica,sans-Serif" font-size="10.00" fill="grey"> m_name</text>
</g>
<!-- Node6&#45;&gt;Node5 -->
<g id="edge5_Node000005_Node000006" class="edge">
<title>Node6&#45;&gt;Node5</title>
<g id="a_edge5_Node000005_Node000006"><a xlink:title=" ">
<path fill="none" stroke="#9a32cd" stroke-dasharray="5,2" d="M547.16,-369.72C543.65,-361.23 538.39,-351.58 531,-345 522.43,-337.38 511.88,-331.51 501.14,-327.01"/>
<polygon fill="#9a32cd" stroke="#9a32cd" points="543.91,-371.02 550.61,-379.22 550.49,-368.63 543.91,-371.02"/>
</a>
</g>
<text text-anchor="middle" x="553" y="-348" font-family="Helvetica,sans-Serif" font-size="10.00" fill="grey"> keys</text>
</g>
<!-- Node12 -->
<g id="Node000012" class="node">
<title>Node12</title>
<g id="a_Node000012"><a xlink:href="structamr__wind_1_1_field_info.html" target="_top" xlink:title=" ">
<polygon fill="white" stroke="#666666" points="310.5,-321.5 197.5,-321.5 197.5,-302.5 310.5,-302.5 310.5,-321.5"/>
<text text-anchor="middle" x="254" y="-309.5" font-family="Helvetica,sans-Serif" font-size="10.00">amr_wind::FieldInfo</text>
</a>
</g>
</g>
<!-- Node6&#45;&gt;Node12 -->
<g id="edge13_Node000012_Node000006" class="edge">
<title>Node6&#45;&gt;Node12</title>
<g id="a_edge13_Node000012_Node000006"><a xlink:title=" ">
<path fill="none" stroke="#9a32cd" stroke-dasharray="5,2" d="M512.3,-376.44C494.95,-371.01 474.67,-363.96 457,-356 448.1,-351.99 447.17,-348.33 438,-345 396.86,-330.05 347.94,-321.97 310.89,-317.67"/>
<polygon fill="#9a32cd" stroke="#9a32cd" points="511.54,-379.87 522.13,-379.45 513.59,-373.18 511.54,-379.87"/>
</a>
</g>
<text text-anchor="middle" x="492" y="-348" font-family="Helvetica,sans-Serif" font-size="10.00" fill="grey"> m_basename</text>
</g>
<!-- Node7 -->
<g id="Node000007" class="node">
<title>Node7</title>
<g id="a_Node000007"><a xlink:title=" ">
<polygon fill="white" stroke="#666666" points="605,-492 501,-492 501,-462 605,-462 605,-492"/>
<text text-anchor="start" x="509" y="-480" font-family="Helvetica,sans-Serif" font-size="10.00">std::basic_string&lt;</text>
<text text-anchor="middle" x="553" y="-469" font-family="Helvetica,sans-Serif" font-size="10.00"> Char &gt;</text>
</a>
</g>
</g>
<!-- Node7&#45;&gt;Node6 -->
<g id="edge6_Node000006_Node000007" class="edge">
<title>Node7&#45;&gt;Node6</title>
<g id="a_edge6_Node000006_Node000007"><a xlink:title=" ">
<path fill="none" stroke="#63b8ff" d="M553,-451.59C553,-433.9 553,-411 553,-398.71"/>
<polygon fill="#63b8ff" stroke="#63b8ff" points="549.5,-451.8 553,-461.8 556.5,-451.8 549.5,-451.8"/>
</a>
</g>
</g>
<!-- Node8 -->
<g id="Node000008" class="node">
<title>Node8</title>
<g id="a_Node000008"><a xlink:title=" ">
<polygon fill="white" stroke="#666666" points="445,-404 331,-404 331,-374 445,-374 445,-404"/>
<text text-anchor="start" x="339" y="-392" font-family="Helvetica,sans-Serif" font-size="10.00">std::unordered_map</text>
<text text-anchor="middle" x="388" y="-381" font-family="Helvetica,sans-Serif" font-size="10.00">&lt; K, T &gt;</text>
</a>
</g>
</g>
<!-- Node8&#45;&gt;Node5 -->
<g id="edge7_Node000005_Node000008" class="edge">
<title>Node8&#45;&gt;Node5</title>
<g id="a_edge7_Node000005_Node000008"><a xlink:title=" ">
<path fill="none" stroke="orange" stroke-dasharray="5,2" d="M337.53,-368.99C327.51,-362.36 321.97,-354.23 329,-345 336.18,-335.57 359.8,-328.21 383.86,-322.94"/>
<polygon fill="orange" stroke="orange" points="335.94,-372.11 346.37,-373.98 339.38,-366.02 335.94,-372.11"/>
</a>
</g>
<text text-anchor="middle" x="383.5" y="-348" font-family="Helvetica,sans-Serif" font-size="10.00" fill="grey"> &lt; std::string, size_t &gt;</text>
</g>
<!-- Node9 -->
<g id="Node000009" class="node">
<title>Node9</title>
<g id="a_Node000009"><a xlink:title=" ">
<polygon fill="white" stroke="#666666" points="482.5,-486.5 453.5,-486.5 453.5,-467.5 482.5,-467.5 482.5,-486.5"/>
<text text-anchor="middle" x="468" y="-474.5" font-family="Helvetica,sans-Serif" font-size="10.00">K</text>
</a>
</g>
</g>
<!-- Node9&#45;&gt;Node8 -->
<g id="edge8_Node000008_Node000009" class="edge">
<title>Node9&#45;&gt;Node8</title>
<g id="a_edge8_Node000008_Node000009"><a xlink:title=" ">
<path fill="none" stroke="#9a32cd" stroke-dasharray="5,2" d="M453.03,-459.91C438.13,-443.89 415.46,-419.52 401.2,-404.2"/>
<polygon fill="#9a32cd" stroke="#9a32cd" points="450.66,-462.5 460.04,-467.44 455.79,-457.73 450.66,-462.5"/>
</a>
</g>
<text text-anchor="middle" x="451" y="-430.5" font-family="Helvetica,sans-Serif" font-size="10.00" fill="grey"> keys</text>
</g>
<!-- Node10 -->
<g id="Node000010" class="node">
<title>Node10</title>
<g id="a_Node000010"><a xlink:title=" ">
<polygon fill="white" stroke="#666666" points="305.5,-558 276.5,-558 276.5,-539 305.5,-539 305.5,-558"/>
<text text-anchor="middle" x="291" y="-546" font-family="Helvetica,sans-Serif" font-size="10.00">T</text>
</a>
</g>
</g>
<!-- Node10&#45;&gt;Node8 -->
<g id="edge9_Node000008_Node000010" class="edge">
<title>Node10&#45;&gt;Node8</title>
<g id="a_edge9_Node000008_Node000010"><a xlink:title=" ">
<path fill="none" stroke="#9a32cd" stroke-dasharray="5,2" d="M314.37,-533.72C329.19,-523.86 347.63,-509.29 359,-492 377.21,-464.31 384.15,-425.13 386.66,-404.31"/>
<polygon fill="#9a32cd" stroke="#9a32cd" points="312.27,-530.91 305.71,-539.24 316.03,-536.82 312.27,-530.91"/>
</a>
</g>
<text text-anchor="middle" x="398.5" y="-474.5" font-family="Helvetica,sans-Serif" font-size="10.00" fill="grey"> elements</text>
</g>
<!-- Node15 -->
<g id="Node000015" class="node">
<title>Node15</title>
<g id="a_Node000015"><a xlink:title=" ">
<polygon fill="white" stroke="#666666" points="350,-486.5 232,-486.5 232,-467.5 350,-467.5 350,-486.5"/>
<text text-anchor="middle" x="291" y="-474.5" font-family="Helvetica,sans-Serif" font-size="10.00">std::unique_ptr&lt; T &gt;</text>
</a>
</g>
</g>
<!-- Node10&#45;&gt;Node15 -->
<g id="edge17_Node000015_Node000010" class="edge">
<title>Node10&#45;&gt;Node15</title>
<g id="a_edge17_Node000015_Node000010"><a xlink:title=" ">
<path fill="none" stroke="#9a32cd" stroke-dasharray="5,2" d="M291,-528.71C291,-515 291,-497.05 291,-486.59"/>
<polygon fill="#9a32cd" stroke="#9a32cd" points="287.5,-528.98 291,-538.98 294.5,-528.98 287.5,-528.98"/>
</a>
</g>
<text text-anchor="middle" x="299.5" y="-513" font-family="Helvetica,sans-Serif" font-size="10.00" fill="grey"> ptr</text>
</g>
<!-- Node16 -->
<g id="Node000016" class="node">
<title>Node16</title>
<g id="a_Node000016"><a xlink:title=" ">
<polygon fill="white" stroke="#666666" points="118,-442.5 0,-442.5 0,-423.5 118,-423.5 118,-442.5"/>
<text text-anchor="middle" x="59" y="-430.5" font-family="Helvetica,sans-Serif" font-size="10.00">std::shared_ptr&lt; T &gt;</text>
</a>
</g>
</g>
<!-- Node10&#45;&gt;Node16 -->
<g id="edge19_Node000016_Node000010" class="edge">
<title>Node10&#45;&gt;Node16</title>
<g id="a_edge19_Node000016_Node000010"><a xlink:title=" ">
<path fill="none" stroke="#9a32cd" stroke-dasharray="5,2" d="M266.33,-544.57C214.74,-537.95 97.96,-520.15 71,-492 58.2,-478.63 57.47,-455.39 58.16,-442.77"/>
<polygon fill="#9a32cd" stroke="#9a32cd" points="265.94,-548.05 276.3,-545.82 266.81,-541.11 265.94,-548.05"/>
</a>
</g>
<text text-anchor="middle" x="142.5" y="-513" font-family="Helvetica,sans-Serif" font-size="10.00" fill="grey"> ptr</text>
</g>
<!-- Node11 -->
<g id="Node000011" class="node">
<title>Node11</title>
<g id="a_Node000011"><a xlink:title=" ">
<polygon fill="white" stroke="#666666" points="314,-239 194,-239 194,-209 314,-209 314,-239"/>
<text text-anchor="start" x="202" y="-227" font-family="Helvetica,sans-Serif" font-size="10.00">std::shared_ptr&lt; amr</text>
<text text-anchor="middle" x="254" y="-216" font-family="Helvetica,sans-Serif" font-size="10.00">_wind::FieldInfo &gt;</text>
</a>
</g>
</g>
<!-- Node11&#45;&gt;Node3 -->
<g id="edge11_Node000003_Node000011" class="edge">
<title>Node11&#45;&gt;Node3</title>
<g id="a_edge11_Node000003_Node000011"><a xlink:title=" ">
<path fill="none" stroke="#9a32cd" stroke-dasharray="5,2" d="M296.49,-205.09C336.39,-188.27 394.36,-163.84 424.72,-151.05"/>
<polygon fill="#9a32cd" stroke="#9a32cd" points="295.13,-201.87 287.27,-208.98 297.84,-208.32 295.13,-201.87"/>
</a>
</g>
<text text-anchor="middle" x="374.5" y="-183" font-family="Helvetica,sans-Serif" font-size="10.00" fill="grey"> m_info</text>
</g>
<!-- Node12&#45;&gt;Node11 -->
<g id="edge12_Node000011_Node000012" class="edge">
<title>Node12&#45;&gt;Node11</title>
<g id="a_edge12_Node000011_Node000012"><a xlink:title=" ">
<path fill="none" stroke="#9a32cd" stroke-dasharray="5,2" d="M254,-292.19C254,-276.23 254,-253.68 254,-239.2"/>
<polygon fill="#9a32cd" stroke="#9a32cd" points="250.5,-292.44 254,-302.44 257.5,-292.44 250.5,-292.44"/>
</a>
</g>
<text text-anchor="middle" x="262.5" y="-265.5" font-family="Helvetica,sans-Serif" font-size="10.00" fill="grey"> ptr</text>
</g>
<!-- Node13 -->
<g id="Node000013" class="node">
<title>Node13</title>
<g id="a_Node000013"><a xlink:title=" ">
<polygon fill="white" stroke="#666666" points="312.5,-404 143.5,-404 143.5,-374 312.5,-374 312.5,-404"/>
<text text-anchor="start" x="151.5" y="-392" font-family="Helvetica,sans-Serif" font-size="10.00">std::unique_ptr&lt; amr</text>
<text text-anchor="middle" x="228" y="-381" font-family="Helvetica,sans-Serif" font-size="10.00">_wind::FieldFillPatchOpsBase &gt;</text>
</a>
</g>
</g>
<!-- Node13&#45;&gt;Node12 -->
<g id="edge14_Node000012_Node000013" class="edge">
<title>Node13&#45;&gt;Node12</title>
<g id="a_edge14_Node000012_Node000013"><a xlink:title=" ">
<path fill="none" stroke="#9a32cd" stroke-dasharray="5,2" d="M227.4,-363.24C227.88,-357.14 228.94,-350.72 231,-345 234.16,-336.25 240.45,-327.76 245.66,-321.73"/>
<polygon fill="#9a32cd" stroke="#9a32cd" points="223.89,-363.55 227.06,-373.65 230.88,-363.77 223.89,-363.55"/>
</a>
</g>
<text text-anchor="middle" x="268.5" y="-348" font-family="Helvetica,sans-Serif" font-size="10.00" fill="grey"> m_fillpatch_op</text>
</g>
<!-- Node14 -->
<g id="Node000014" class="node">
<title>Node14</title>
<g id="a_Node000014"><a xlink:href="classamr__wind_1_1_field_fill_patch_ops_base.html" target="_top" xlink:title=" ">
<polygon fill="white" stroke="#666666" points="214,-492 80,-492 80,-462 214,-462 214,-492"/>
<text text-anchor="start" x="88" y="-480" font-family="Helvetica,sans-Serif" font-size="10.00">amr_wind::FieldFillPatch</text>
<text text-anchor="middle" x="147" y="-469" font-family="Helvetica,sans-Serif" font-size="10.00">OpsBase</text>
</a>
</g>
</g>
<!-- Node14&#45;&gt;Node13 -->
<g id="edge15_Node000013_Node000014" class="edge">
<title>Node14&#45;&gt;Node13</title>
<g id="a_edge15_Node000013_Node000014"><a xlink:title=" ">
<path fill="none" stroke="#9a32cd" stroke-dasharray="5,2" d="M167.61,-454.12C182.37,-438.45 201.82,-417.8 214.6,-404.22"/>
<polygon fill="#9a32cd" stroke="#9a32cd" points="164.68,-452.12 160.38,-461.8 169.78,-456.92 164.68,-452.12"/>
</a>
</g>
<text text-anchor="middle" x="206.5" y="-430.5" font-family="Helvetica,sans-Serif" font-size="10.00" fill="grey"> ptr</text>
</g>
<!-- Node15&#45;&gt;Node13 -->
<g id="edge16_Node000013_Node000015" class="edge">
<title>Node15&#45;&gt;Node13</title>
<g id="a_edge16_Node000013_Node000015"><a xlink:title=" ">
<path fill="none" stroke="orange" stroke-dasharray="5,2" d="M260.09,-462.61C252.14,-457.8 244.34,-451.64 239,-444 230.78,-432.24 228.41,-415.72 227.87,-404.06"/>
<polygon fill="orange" stroke="orange" points="258.54,-465.75 269,-467.46 261.89,-459.6 258.54,-465.75"/>
</a>
</g>
<text text-anchor="start" x="239" y="-436" font-family="Helvetica,sans-Serif" font-size="10.00" fill="grey"> &lt; amr_wind::FieldFillPatch</text>
<text text-anchor="middle" x="305.5" y="-425" font-family="Helvetica,sans-Serif" font-size="10.00" fill="grey">OpsBase &gt;</text>
</g>
<!-- Node16&#45;&gt;Node11 -->
<g id="edge18_Node000011_Node000016" class="edge">
<title>Node16&#45;&gt;Node11</title>
<g id="a_edge18_Node000011_Node000016"><a xlink:title=" ">
<path fill="none" stroke="orange" stroke-dasharray="5,2" d="M65.53,-413.76C72.78,-395.18 85.76,-366.16 103,-345 140.44,-299.05 198.29,-259.28 230.43,-239.1"/>
<polygon fill="orange" stroke="orange" points="62.26,-412.54 62.03,-423.13 68.81,-414.99 62.26,-412.54"/>
</a>
</g>
<text text-anchor="middle" x="164" y="-348" font-family="Helvetica,sans-Serif" font-size="10.00" fill="grey"> &lt; amr_wind::FieldInfo &gt;</text>
</g>
</g>
</svg>

<g id="navigator" transform="translate(0 0)" fill="#404254">
  <rect fill="#f2f5e9" fill-opacity="0.5" stroke="#606060" stroke-width=".5" x="0" y="0" width="60" height="60"/>
  <use id="zoomplus" xlink:href="#zoomPlus" x="17" y="9" onmousedown="handleZoom(evt,'in')"/>
  <use id="zoomminus" xlink:href="#zoomMin" x="42" y="9" onmousedown="handleZoom(evt,'out')"/>
  <use id="reset" xlink:href="#resetDef" x="30" y="36" onmousedown="handleReset()"/>
   <use id="arrowup" xlink:href="#arrowUp" x="0" y="0" onmousedown="handlePan(0,-1)"/>
  <use id="arrowright" xlink:href="#arrowRight" x="0" y="0" onmousedown="handlePan(1,0)"/>
  <use id="arrowdown" xlink:href="#arrowDown" x="0" y="0" onmousedown="handlePan(0,1)"/>
  <use id="arrowleft" xlink:href="#arrowLeft" x="0" y="0" onmousedown="handlePan(-1,0)"/>
</g>
<svg viewBox="0 0 15 15" width="100%" height="30px" preserveAspectRatio="xMaxYMin meet">
 <g id="arrow_out" transform="scale(0.3 0.3)">
  <a xlink:href="classamr__wind_1_1pde_1_1tke_1_1_ksgs_m84_src__coll__graph_org.svg" target="_base">
   <rect id="button" ry="5" rx="5" y="6" x="6" height="38" width="38"
        fill="#f2f5e9" fill-opacity="0.5" stroke="#606060" stroke-width="1.0"/>
   <path id="arrow"
     d="M 11.500037,31.436501 C 11.940474,20.09759 22.043105,11.32322 32.158766,21.979434 L 37.068811,17.246167 C 37.068811,17.246167 37.088388,32 37.088388,32 L 22.160133,31.978069 C 22.160133,31.978069 26.997745,27.140456 26.997745,27.140456 C 18.528582,18.264221 13.291696,25.230495 11.500037,31.436501 z"
     style="fill:#404040;"/>
  </a>
 </g>
</svg>

<style type='text/css'>
<![CDATA[
[data-mouse-over-selected='false'] { opacity: 0.7; }
[data-mouse-over-selected='true']  { opacity: 1.0; }
]]>
</style>
<script type="application/ecmascript"><![CDATA[
document.addEventListener('DOMContentLoaded', (event) => {
  highlightEdges();
  highlightAdjacentNodes();
});
]]></script>
</svg>
