<?xml version="1.0" encoding="UTF-8" standalone="no"?>
<!DOCTYPE svg PUBLIC "-//W3C//DTD SVG 1.1//EN"
 "http://www.w3.org/Graphics/SVG/1.1/DTD/svg11.dtd">
<!-- Generated by graphviz version 2.43.0 (0)
 -->
<!-- Title: ext_turb::ExtTurbIface&lt; SolverTurbine, SolverData &gt; Pages: 1 -->
<svg width="814pt" height="126pt"
 viewBox="0.00 0.00 814.00 126.00" xmlns="http://www.w3.org/2000/svg" xmlns:xlink="http://www.w3.org/1999/xlink">
<g id="graph0" class="graph" transform="scale(1 1) rotate(0) translate(4 122)">
<title>ext_turb::ExtTurbIface&lt; SolverTurbine, SolverData &gt;</title>
<!-- Node1 -->
<g id="Node000001" class="node">
<title>Node1</title>
<g id="a_Node000001"><a xlink:title=" ">
<polygon fill="#999999" stroke="#666666" points="806,-64.5 641,-64.5 641,-34.5 806,-34.5 806,-64.5"/>
<text text-anchor="start" x="649" y="-52.5" font-family="Helvetica,sans-Serif" font-size="10.00">ext_turb::ExtTurbIface</text>
<text text-anchor="middle" x="723.5" y="-41.5" font-family="Helvetica,sans-Serif" font-size="10.00">&lt; SolverTurbine, SolverData &gt;</text>
</a>
</g>
</g>
<!-- Node2 -->
<g id="Node000002" class="node">
<title>Node2</title>
<g id="a_Node000002"><a xlink:title=" ">
<polygon fill="white" stroke="#666666" points="500.5,-118 378.5,-118 378.5,-77 500.5,-77 500.5,-118"/>
<text text-anchor="start" x="386.5" y="-106" font-family="Helvetica,sans-Serif" font-size="10.00">amr_wind::Factory&lt;</text>
<text text-anchor="start" x="386.5" y="-95" font-family="Helvetica,sans-Serif" font-size="10.00"> ExtSolver, CFDSim &amp;</text>
<text text-anchor="middle" x="439.5" y="-84" font-family="Helvetica,sans-Serif" font-size="10.00"> &gt;::Register</text>
</a>
</g>
</g>
<!-- Node2&#45;&gt;Node1 -->
<g id="edge1_Node000001_Node000002" class="edge">
<title>Node2&#45;&gt;Node1</title>
<g id="a_edge1_Node000001_Node000002"><a xlink:title=" ">
<path fill="none" stroke="#63b8ff" d="M510.94,-88.1C544.89,-83.31 586.14,-77.11 623,-70.5 633.08,-68.69 643.7,-66.63 654.1,-64.51"/>
<polygon fill="#63b8ff" stroke="#63b8ff" points="510.07,-84.69 500.65,-89.54 511.04,-91.62 510.07,-84.69"/>
</a>
</g>
</g>
<!-- Node3 -->
<g id="Node000003" class="node">
<title>Node3</title>
<g id="a_Node000003"><a xlink:title=" ">
<polygon fill="white" stroke="#666666" points="496,-59 383,-59 383,-40 496,-40 496,-59"/>
<text text-anchor="middle" x="439.5" y="-47" font-family="Helvetica,sans-Serif" font-size="10.00">std::map&lt; int, int &gt;</text>
</a>
</g>
</g>
<!-- Node3&#45;&gt;Node1 -->
<g id="edge2_Node000001_Node000003" class="edge">
<title>Node3&#45;&gt;Node1</title>
<g id="a_edge2_Node000001_Node000003"><a xlink:title=" ">
<path fill="none" stroke="#9a32cd" stroke-dasharray="5,2" d="M506.43,-49.5C546.61,-49.5 598.26,-49.5 640.99,-49.5"/>
<polygon fill="#9a32cd" stroke="#9a32cd" points="506.21,-46 496.21,-49.5 506.21,-53 506.21,-46"/>
</a>
</g>
<text text-anchor="start" x="543.5" y="-55" font-family="Helvetica,sans-Serif" font-size="10.00" fill="grey">m_turbine_map</text>
</g>
<!-- Node4 -->
<g id="Node000004" class="node">
<title>Node4</title>
<g id="a_Node000004"><a xlink:title=" ">
<polygon fill="white" stroke="#666666" points="218,-59 117,-59 117,-40 218,-40 218,-59"/>
<text text-anchor="middle" x="167.5" y="-47" font-family="Helvetica,sans-Serif" font-size="10.00">std::map&lt; K, T &gt;</text>
</a>
</g>
</g>
<!-- Node4&#45;&gt;Node3 -->
<g id="edge3_Node000003_Node000004" class="edge">
<title>Node4&#45;&gt;Node3</title>
<g id="a_edge3_Node000003_Node000004"><a xlink:title=" ">
<path fill="none" stroke="orange" stroke-dasharray="5,2" d="M228.18,-49.5C274.3,-49.5 337.67,-49.5 382.77,-49.5"/>
<polygon fill="orange" stroke="orange" points="228.02,-46 218.02,-49.5 228.02,-53 228.02,-46"/>
</a>
</g>
<text text-anchor="start" x="260.5" y="-55" font-family="Helvetica,sans-Serif" font-size="10.00" fill="grey">&lt; int, int &gt;</text>
</g>
<!-- Node5 -->
<g id="Node000005" class="node">
<title>Node5</title>
<g id="a_Node000005"><a xlink:title=" ">
<polygon fill="white" stroke="#666666" points="29,-99 0,-99 0,-80 29,-80 29,-99"/>
<text text-anchor="middle" x="14.5" y="-87" font-family="Helvetica,sans-Serif" font-size="10.00">K</text>
</a>
</g>
</g>
<!-- Node5&#45;&gt;Node4 -->
<g id="edge4_Node000004_Node000005" class="edge">
<title>Node5&#45;&gt;Node4</title>
<g id="a_edge4_Node000004_Node000005"><a xlink:title=" ">
<path fill="none" stroke="#9a32cd" stroke-dasharray="5,2" d="M39.01,-83.27C63.46,-76.79 102.05,-66.57 130.37,-59.07"/>
<polygon fill="#9a32cd" stroke="#9a32cd" points="37.94,-79.94 29.17,-85.88 39.73,-86.7 37.94,-79.94"/>
</a>
</g>
<text text-anchor="start" x="62" y="-86" font-family="Helvetica,sans-Serif" font-size="10.00" fill="grey">keys</text>
</g>
<!-- Node6 -->
<g id="Node000006" class="node">
<title>Node6</title>
<g id="a_Node000006"><a xlink:title=" ">
<polygon fill="white" stroke="#666666" points="29,-39 0,-39 0,-20 29,-20 29,-39"/>
<text text-anchor="middle" x="14.5" y="-27" font-family="Helvetica,sans-Serif" font-size="10.00">T</text>
</a>
</g>
</g>
<!-- Node6&#45;&gt;Node4 -->
<g id="edge5_Node000004_Node000006" class="edge">
<title>Node6&#45;&gt;Node4</title>
<g id="a_edge5_Node000004_Node000006"><a xlink:title=" ">
<path fill="none" stroke="#9a32cd" stroke-dasharray="5,2" d="M39.3,-32.65C60.06,-35.4 90.85,-39.48 116.94,-42.94"/>
<polygon fill="#9a32cd" stroke="#9a32cd" points="39.54,-29.15 29.17,-31.31 38.62,-36.09 39.54,-29.15"/>
</a>
</g>
<text text-anchor="start" x="50" y="-45" font-family="Helvetica,sans-Serif" font-size="10.00" fill="grey">elements</text>
</g>
<!-- Node8 -->
<g id="Node000008" class="node">
<title>Node8</title>
<g id="a_Node000008"><a xlink:title=" ">
<polygon fill="white" stroke="#666666" points="216,-19 119,-19 119,0 216,0 216,-19"/>
<text text-anchor="middle" x="167.5" y="-7" font-family="Helvetica,sans-Serif" font-size="10.00">std::vector&lt; T &gt;</text>
</a>
</g>
</g>
<!-- Node6&#45;&gt;Node8 -->
<g id="edge8_Node000008_Node000006" class="edge">
<title>Node6&#45;&gt;Node8</title>
<g id="a_edge8_Node000008_Node000006"><a xlink:title=" ">
<path fill="none" stroke="#9a32cd" stroke-dasharray="5,2" d="M37.97,-15.77C40.92,-14.45 43.97,-13.3 47,-12.5 70.16,-6.34 96.75,-5.13 118.96,-5.65"/>
<polygon fill="#9a32cd" stroke="#9a32cd" points="36.3,-12.69 29.02,-20.39 39.51,-18.91 36.3,-12.69"/>
</a>
</g>
<text text-anchor="start" x="50" y="-18" font-family="Helvetica,sans-Serif" font-size="10.00" fill="grey">elements</text>
</g>
<!-- Node7 -->
<g id="Node000007" class="node">
<title>Node7</title>
<g id="a_Node000007"><a xlink:title=" ">
<polygon fill="white" stroke="#666666" points="522,-19 357,-19 357,0 522,0 522,-19"/>
<text text-anchor="middle" x="439.5" y="-7" font-family="Helvetica,sans-Serif" font-size="10.00">std::vector&lt; SolverTurbine * &gt;</text>
</a>
</g>
</g>
<!-- Node7&#45;&gt;Node1 -->
<g id="edge6_Node000001_Node000007" class="edge">
<title>Node7&#45;&gt;Node1</title>
<g id="a_edge6_Node000001_Node000007"><a xlink:title=" ">
<path fill="none" stroke="#9a32cd" stroke-dasharray="5,2" d="M532.2,-17.16C561.32,-20.1 593.58,-23.88 623,-28.5 633.73,-30.19 645.04,-32.27 656.04,-34.47"/>
<polygon fill="#9a32cd" stroke="#9a32cd" points="532.34,-13.66 522.05,-16.16 531.65,-20.62 532.34,-13.66"/>
</a>
</g>
<text text-anchor="start" x="543.5" y="-34" font-family="Helvetica,sans-Serif" font-size="10.00" fill="grey">m_turbine_data</text>
</g>
<!-- Node8&#45;&gt;Node7 -->
<g id="edge7_Node000007_Node000008" class="edge">
<title>Node8&#45;&gt;Node7</title>
<g id="a_edge7_Node000007_Node000008"><a xlink:title=" ">
<path fill="none" stroke="orange" stroke-dasharray="5,2" d="M226.54,-9.5C264.59,-9.5 314.88,-9.5 356.93,-9.5"/>
<polygon fill="orange" stroke="orange" points="226.15,-6 216.15,-9.5 226.15,-13 226.15,-6"/>
</a>
</g>
<text text-anchor="start" x="239.5" y="-15" font-family="Helvetica,sans-Serif" font-size="10.00" fill="grey">&lt; SolverTurbine * &gt;</text>
</g>
</g>
</svg>
