<?xml version="1.0" encoding="UTF-8" standalone="no"?>
<!DOCTYPE svg PUBLIC "-//W3C//DTD SVG 1.1//EN"
 "http://www.w3.org/Graphics/SVG/1.1/DTD/svg11.dtd">
<!-- Generated by graphviz version 2.43.0 (0)
 -->
<!-- Title: amr_wind::BoussinesqBubble Pages: 1 -->
<svg width="1614pt" height="345pt"
 viewBox="0.00 0.00 1614.00 344.50" xmlns="http://www.w3.org/2000/svg" xmlns:xlink="http://www.w3.org/1999/xlink">
<g id="graph0" class="graph" transform="scale(1 1) rotate(0) translate(4 340.5)">
<title>amr_wind::BoussinesqBubble</title>
<!-- Node1 -->
<g id="Node000001" class="node">
<title>Node1</title>
<g id="a_Node000001"><a xlink:title=" ">
<polygon fill="#999999" stroke="#666666" points="1606,-165.5 1446,-165.5 1446,-146.5 1606,-146.5 1606,-165.5"/>
<text text-anchor="middle" x="1526" y="-153.5" font-family="Helvetica,sans-Serif" font-size="10.00">amr_wind::BoussinesqBubble</text>
</a>
</g>
</g>
<!-- Node2 -->
<g id="Node000002" class="node">
<title>Node2</title>
<g id="a_Node000002"><a xlink:title=" ">
<polygon fill="white" stroke="#666666" points="1328,-233 1208,-233 1208,-203 1328,-203 1328,-233"/>
<text text-anchor="start" x="1216" y="-221" font-family="Helvetica,sans-Serif" font-size="10.00">Physics::Register&lt;</text>
<text text-anchor="middle" x="1268" y="-210" font-family="Helvetica,sans-Serif" font-size="10.00"> BoussinesqBubble &gt;</text>
</a>
</g>
</g>
<!-- Node2&#45;&gt;Node1 -->
<g id="edge1_Node000001_Node000002" class="edge">
<title>Node2&#45;&gt;Node1</title>
<g id="a_edge1_Node000001_Node000002"><a xlink:title=" ">
<path fill="none" stroke="#63b8ff" d="M1338.27,-217.47C1366.53,-215.83 1399.25,-212.07 1428,-204 1458.75,-195.37 1491.44,-177.03 1509.93,-165.69"/>
<polygon fill="#63b8ff" stroke="#63b8ff" points="1337.89,-213.99 1328.08,-217.99 1338.25,-220.98 1337.89,-213.99"/>
</a>
</g>
</g>
<!-- Node3 -->
<g id="Node000003" class="node">
<title>Node3</title>
<g id="a_Node000003"><a xlink:href="classamr__wind_1_1_field.html" target="_top" xlink:title=" ">
<polygon fill="white" stroke="#666666" points="1315,-175.5 1221,-175.5 1221,-156.5 1315,-156.5 1315,-175.5"/>
<text text-anchor="middle" x="1268" y="-163.5" font-family="Helvetica,sans-Serif" font-size="10.00">amr_wind::Field</text>
</a>
</g>
</g>
<!-- Node3&#45;&gt;Node1 -->
<g id="edge2_Node000001_Node000003" class="edge">
<title>Node3&#45;&gt;Node1</title>
<g id="a_edge2_Node000001_Node000003"><a xlink:title=" ">
<path fill="none" stroke="#9a32cd" stroke-dasharray="5,2" d="M1325.4,-158.68C1332.33,-158 1339.32,-157.41 1346,-157 1378.57,-155.01 1414.54,-154.49 1445.63,-154.56"/>
<polygon fill="#9a32cd" stroke="#9a32cd" points="1324.92,-155.21 1315.34,-159.74 1325.66,-162.17 1324.92,-155.21"/>
</a>
</g>
<text text-anchor="start" x="1349" y="-192.5" font-family="Helvetica,sans-Serif" font-size="10.00" fill="grey">m_density</text>
<text text-anchor="start" x="1349" y="-177.5" font-family="Helvetica,sans-Serif" font-size="10.00" fill="grey">m_temperature</text>
<text text-anchor="start" x="1349" y="-162.5" font-family="Helvetica,sans-Serif" font-size="10.00" fill="grey">m_velocity</text>
</g>
<!-- Node4 -->
<g id="Node000004" class="node">
<title>Node4</title>
<g id="a_Node000004"><a xlink:href="classamr__wind_1_1_field_repo.html" target="_top" xlink:title=" ">
<polygon fill="white" stroke="#666666" points="1128.5,-196.5 1009.5,-196.5 1009.5,-177.5 1128.5,-177.5 1128.5,-196.5"/>
<text text-anchor="middle" x="1069" y="-184.5" font-family="Helvetica,sans-Serif" font-size="10.00">amr_wind::FieldRepo</text>
</a>
</g>
</g>
<!-- Node4&#45;&gt;Node3 -->
<g id="edge3_Node000003_Node000004" class="edge">
<title>Node4&#45;&gt;Node3</title>
<g id="a_edge3_Node000003_Node000004"><a xlink:title=" ">
<path fill="none" stroke="#9a32cd" stroke-dasharray="5,2" d="M1138.8,-179.67C1165.95,-176.77 1196.42,-173.52 1220.84,-170.92"/>
<polygon fill="#9a32cd" stroke="#9a32cd" points="1138.15,-176.22 1128.57,-180.76 1138.89,-183.18 1138.15,-176.22"/>
</a>
</g>
<text text-anchor="start" x="1150.5" y="-184.5" font-family="Helvetica,sans-Serif" font-size="10.00" fill="grey">m_repo</text>
</g>
<!-- Node5 -->
<g id="Node000005" class="node">
<title>Node5</title>
<g id="a_Node000005"><a xlink:title=" ">
<polygon fill="white" stroke="#666666" points="894,-223 772,-223 772,-193 894,-193 894,-223"/>
<text text-anchor="start" x="780" y="-211" font-family="Helvetica,sans-Serif" font-size="10.00">std::unordered_map</text>
<text text-anchor="middle" x="833" y="-200" font-family="Helvetica,sans-Serif" font-size="10.00">&lt; std::string, size_t &gt;</text>
</a>
</g>
</g>
<!-- Node5&#45;&gt;Node4 -->
<g id="edge4_Node000004_Node000005" class="edge">
<title>Node5&#45;&gt;Node4</title>
<g id="a_edge4_Node000004_Node000005"><a xlink:title=" ">
<path fill="none" stroke="#9a32cd" stroke-dasharray="5,2" d="M904.39,-197.82C906.96,-197.53 909.5,-197.26 912,-197 944.13,-193.71 980.09,-191.32 1009.39,-189.7"/>
<polygon fill="#9a32cd" stroke="#9a32cd" points="903.93,-194.35 894.41,-199.02 904.76,-201.3 903.93,-194.35"/>
</a>
</g>
<text text-anchor="start" x="915.5" y="-218" font-family="Helvetica,sans-Serif" font-size="10.00" fill="grey">m_fid_map</text>
<text text-anchor="start" x="915.5" y="-203" font-family="Helvetica,sans-Serif" font-size="10.00" fill="grey">m_int_fid_map</text>
</g>
<!-- Node6 -->
<g id="Node000006" class="node">
<title>Node6</title>
<g id="a_Node000006"><a xlink:title=" ">
<polygon fill="white" stroke="#666666" points="559,-235.5 494,-235.5 494,-216.5 559,-216.5 559,-235.5"/>
<text text-anchor="middle" x="526.5" y="-223.5" font-family="Helvetica,sans-Serif" font-size="10.00">std::string</text>
</a>
</g>
</g>
<!-- Node6&#45;&gt;Node3 -->
<g id="edge10_Node000003_Node000006" class="edge">
<title>Node6&#45;&gt;Node3</title>
<g id="a_edge10_Node000003_Node000006"><a xlink:title=" ">
<path fill="none" stroke="#9a32cd" stroke-dasharray="5,2" d="M569.46,-231.58C587.72,-233.74 609.38,-235.94 629,-237 684.47,-240 698.45,-237.94 754,-237 948.45,-233.72 1003.11,-253.79 1190,-200 1211.06,-193.94 1233.88,-183.31 1249.16,-175.54"/>
<polygon fill="#9a32cd" stroke="#9a32cd" points="569.78,-228.09 559.43,-230.35 568.93,-235.04 569.78,-228.09"/>
</a>
</g>
<text text-anchor="start" x="930.5" y="-243.5" font-family="Helvetica,sans-Serif" font-size="10.00" fill="grey">m_name</text>
</g>
<!-- Node6&#45;&gt;Node5 -->
<g id="edge5_Node000005_Node000006" class="edge">
<title>Node6&#45;&gt;Node5</title>
<g id="a_edge5_Node000005_Node000006"><a xlink:title=" ">
<path fill="none" stroke="#9a32cd" stroke-dasharray="5,2" d="M569.51,-223.52C621.98,-220.42 712.1,-215.09 771.87,-211.55"/>
<polygon fill="#9a32cd" stroke="#9a32cd" points="569,-220.04 559.23,-224.12 569.41,-227.03 569,-220.04"/>
</a>
</g>
<text text-anchor="start" x="680.5" y="-224.5" font-family="Helvetica,sans-Serif" font-size="10.00" fill="grey">keys</text>
</g>
<!-- Node12 -->
<g id="Node000012" class="node">
<title>Node12</title>
<g id="a_Node000012"><a xlink:href="structamr__wind_1_1_field_info.html" target="_top" xlink:title=" ">
<polygon fill="white" stroke="#666666" points="889.5,-149.5 776.5,-149.5 776.5,-130.5 889.5,-130.5 889.5,-149.5"/>
<text text-anchor="middle" x="833" y="-137.5" font-family="Helvetica,sans-Serif" font-size="10.00">amr_wind::FieldInfo</text>
</a>
</g>
</g>
<!-- Node6&#45;&gt;Node12 -->
<g id="edge13_Node000012_Node000006" class="edge">
<title>Node6&#45;&gt;Node12</title>
<g id="a_edge13_Node000012_Node000006"><a xlink:title=" ">
<path fill="none" stroke="#9a32cd" stroke-dasharray="5,2" d="M562.8,-212.99C582.21,-206.05 606.79,-197.61 629,-191 684.03,-174.63 748.46,-159.04 789.72,-149.5"/>
<polygon fill="#9a32cd" stroke="#9a32cd" points="561.39,-209.78 553.17,-216.46 563.76,-216.37 561.39,-209.78"/>
</a>
</g>
<text text-anchor="start" x="658.5" y="-196.5" font-family="Helvetica,sans-Serif" font-size="10.00" fill="grey">m_basename</text>
</g>
<!-- Node7 -->
<g id="Node000007" class="node">
<title>Node7</title>
<g id="a_Node000007"><a xlink:title=" ">
<polygon fill="white" stroke="#666666" points="217,-246 113,-246 113,-216 217,-216 217,-246"/>
<text text-anchor="start" x="121" y="-234" font-family="Helvetica,sans-Serif" font-size="10.00">std::basic_string&lt;</text>
<text text-anchor="middle" x="165" y="-223" font-family="Helvetica,sans-Serif" font-size="10.00"> Char &gt;</text>
</a>
</g>
</g>
<!-- Node7&#45;&gt;Node6 -->
<g id="edge6_Node000006_Node000007" class="edge">
<title>Node7&#45;&gt;Node6</title>
<g id="a_edge6_Node000006_Node000007"><a xlink:title=" ">
<path fill="none" stroke="#63b8ff" d="M227.19,-230.15C304.32,-229.08 434.04,-227.27 493.72,-226.44"/>
<polygon fill="#63b8ff" stroke="#63b8ff" points="227.08,-226.65 217.13,-230.29 227.17,-233.65 227.08,-226.65"/>
</a>
</g>
</g>
<!-- Node8 -->
<g id="Node000008" class="node">
<title>Node8</title>
<g id="a_Node000008"><a xlink:title=" ">
<polygon fill="white" stroke="#666666" points="583.5,-299 469.5,-299 469.5,-269 583.5,-269 583.5,-299"/>
<text text-anchor="start" x="477.5" y="-287" font-family="Helvetica,sans-Serif" font-size="10.00">std::unordered_map</text>
<text text-anchor="middle" x="526.5" y="-276" font-family="Helvetica,sans-Serif" font-size="10.00">&lt; K, T &gt;</text>
</a>
</g>
</g>
<!-- Node8&#45;&gt;Node5 -->
<g id="edge7_Node000005_Node000008" class="edge">
<title>Node8&#45;&gt;Node5</title>
<g id="a_edge7_Node000005_Node000008"><a xlink:title=" ">
<path fill="none" stroke="orange" stroke-dasharray="5,2" d="M593.69,-274.68C639.3,-267.4 701.02,-255.85 754,-240 769.29,-235.43 785.69,-228.95 799.5,-223.01"/>
<polygon fill="orange" stroke="orange" points="592.96,-271.25 583.63,-276.26 594.05,-278.16 592.96,-271.25"/>
</a>
</g>
<text text-anchor="start" x="638.5" y="-273.5" font-family="Helvetica,sans-Serif" font-size="10.00" fill="grey">&lt; std::string, size_t &gt;</text>
</g>
<!-- Node9 -->
<g id="Node000009" class="node">
<title>Node9</title>
<g id="a_Node000009"><a xlink:title=" ">
<polygon fill="white" stroke="#666666" points="179.5,-336.5 150.5,-336.5 150.5,-317.5 179.5,-317.5 179.5,-336.5"/>
<text text-anchor="middle" x="165" y="-324.5" font-family="Helvetica,sans-Serif" font-size="10.00">K</text>
</a>
</g>
</g>
<!-- Node9&#45;&gt;Node8 -->
<g id="edge8_Node000008_Node000009" class="edge">
<title>Node9&#45;&gt;Node8</title>
<g id="a_edge8_Node000008_Node000009"><a xlink:title=" ">
<path fill="none" stroke="#9a32cd" stroke-dasharray="5,2" d="M189.73,-324.16C246.1,-317.42 389.34,-300.29 469.32,-290.72"/>
<polygon fill="#9a32cd" stroke="#9a32cd" points="189.17,-320.7 179.65,-325.37 190,-327.65 189.17,-320.7"/>
</a>
</g>
<text text-anchor="start" x="332.5" y="-319.5" font-family="Helvetica,sans-Serif" font-size="10.00" fill="grey">keys</text>
</g>
<!-- Node10 -->
<g id="Node000010" class="node">
<title>Node10</title>
<g id="a_Node000010"><a xlink:title=" ">
<polygon fill="white" stroke="#666666" points="29,-126.5 0,-126.5 0,-107.5 29,-107.5 29,-126.5"/>
<text text-anchor="middle" x="14.5" y="-114.5" font-family="Helvetica,sans-Serif" font-size="10.00">T</text>
</a>
</g>
</g>
<!-- Node10&#45;&gt;Node8 -->
<g id="edge9_Node000008_Node000010" class="edge">
<title>Node10&#45;&gt;Node8</title>
<g id="a_edge9_Node000008_Node000010"><a xlink:title=" ">
<path fill="none" stroke="#9a32cd" stroke-dasharray="5,2" d="M19.1,-136.96C25.88,-168.15 43.77,-227.69 85,-255 146.58,-295.79 365.15,-291.59 469.4,-287.03"/>
<polygon fill="#9a32cd" stroke="#9a32cd" points="22.47,-135.98 17.08,-126.86 15.61,-137.35 22.47,-135.98"/>
</a>
</g>
<text text-anchor="start" x="142" y="-292.5" font-family="Helvetica,sans-Serif" font-size="10.00" fill="grey">elements</text>
</g>
<!-- Node15 -->
<g id="Node000015" class="node">
<title>Node15</title>
<g id="a_Node000015"><a xlink:title=" ">
<polygon fill="white" stroke="#666666" points="224,-126.5 106,-126.5 106,-107.5 224,-107.5 224,-126.5"/>
<text text-anchor="middle" x="165" y="-114.5" font-family="Helvetica,sans-Serif" font-size="10.00">std::unique_ptr&lt; T &gt;</text>
</a>
</g>
</g>
<!-- Node10&#45;&gt;Node15 -->
<g id="edge17_Node000015_Node000010" class="edge">
<title>Node10&#45;&gt;Node15</title>
<g id="a_edge17_Node000015_Node000010"><a xlink:title=" ">
<path fill="none" stroke="#9a32cd" stroke-dasharray="5,2" d="M39.34,-117C57.3,-117 82.72,-117 105.92,-117"/>
<polygon fill="#9a32cd" stroke="#9a32cd" points="39.2,-113.5 29.2,-117 39.2,-120.5 39.2,-113.5"/>
</a>
</g>
<text text-anchor="start" x="50" y="-122.5" font-family="Helvetica,sans-Serif" font-size="10.00" fill="grey">ptr</text>
</g>
<!-- Node16 -->
<g id="Node000016" class="node">
<title>Node16</title>
<g id="a_Node000016"><a xlink:title=" ">
<polygon fill="white" stroke="#666666" points="402.5,-56.5 284.5,-56.5 284.5,-37.5 402.5,-37.5 402.5,-56.5"/>
<text text-anchor="middle" x="343.5" y="-44.5" font-family="Helvetica,sans-Serif" font-size="10.00">std::shared_ptr&lt; T &gt;</text>
</a>
</g>
</g>
<!-- Node10&#45;&gt;Node16 -->
<g id="edge19_Node000016_Node000010" class="edge">
<title>Node10&#45;&gt;Node16</title>
<g id="a_edge19_Node000016_Node000010"><a xlink:title=" ">
<path fill="none" stroke="#9a32cd" stroke-dasharray="5,2" d="M35.76,-101.72C39.37,-99.53 43.19,-97.51 47,-96 137.5,-60.21 166.98,-75.85 263,-60 269.9,-58.86 277.14,-57.67 284.32,-56.49"/>
<polygon fill="#9a32cd" stroke="#9a32cd" points="33.75,-98.85 27.39,-107.33 37.65,-104.67 33.75,-98.85"/>
</a>
</g>
<text text-anchor="start" x="50" y="-101.5" font-family="Helvetica,sans-Serif" font-size="10.00" fill="grey">ptr</text>
</g>
<!-- Node11 -->
<g id="Node000011" class="node">
<title>Node11</title>
<g id="a_Node000011"><a xlink:title=" ">
<polygon fill="white" stroke="#666666" points="1129,-155 1009,-155 1009,-125 1129,-125 1129,-155"/>
<text text-anchor="start" x="1017" y="-143" font-family="Helvetica,sans-Serif" font-size="10.00">std::shared_ptr&lt; amr</text>
<text text-anchor="middle" x="1069" y="-132" font-family="Helvetica,sans-Serif" font-size="10.00">_wind::FieldInfo &gt;</text>
</a>
</g>
</g>
<!-- Node11&#45;&gt;Node3 -->
<g id="edge11_Node000003_Node000011" class="edge">
<title>Node11&#45;&gt;Node3</title>
<g id="a_edge11_Node000003_Node000011"><a xlink:title=" ">
<path fill="none" stroke="#9a32cd" stroke-dasharray="5,2" d="M1139.43,-147.64C1156.02,-149.59 1173.65,-151.77 1190,-154 1199.92,-155.35 1210.54,-156.92 1220.62,-158.48"/>
<polygon fill="#9a32cd" stroke="#9a32cd" points="1139.6,-144.14 1129.26,-146.46 1138.79,-151.09 1139.6,-144.14"/>
</a>
</g>
<text text-anchor="start" x="1151.5" y="-159.5" font-family="Helvetica,sans-Serif" font-size="10.00" fill="grey">m_info</text>
</g>
<!-- Node12&#45;&gt;Node11 -->
<g id="edge12_Node000011_Node000012" class="edge">
<title>Node12&#45;&gt;Node11</title>
<g id="a_edge12_Node000011_Node000012"><a xlink:title=" ">
<path fill="none" stroke="#9a32cd" stroke-dasharray="5,2" d="M900.13,-140C934.38,-140 975.85,-140 1009,-140"/>
<polygon fill="#9a32cd" stroke="#9a32cd" points="899.75,-136.5 889.75,-140 899.75,-143.5 899.75,-136.5"/>
</a>
</g>
<text text-anchor="start" x="944.5" y="-145.5" font-family="Helvetica,sans-Serif" font-size="10.00" fill="grey">ptr</text>
</g>
<!-- Node13 -->
<g id="Node000013" class="node">
<title>Node13</title>
<g id="a_Node000013"><a xlink:title=" ">
<polygon fill="white" stroke="#666666" points="611,-156 442,-156 442,-126 611,-126 611,-156"/>
<text text-anchor="start" x="450" y="-144" font-family="Helvetica,sans-Serif" font-size="10.00">std::unique_ptr&lt; amr</text>
<text text-anchor="middle" x="526.5" y="-133" font-family="Helvetica,sans-Serif" font-size="10.00">_wind::FieldFillPatchOpsBase &gt;</text>
</a>
</g>
</g>
<!-- Node13&#45;&gt;Node12 -->
<g id="edge14_Node000012_Node000013" class="edge">
<title>Node13&#45;&gt;Node12</title>
<g id="a_edge14_Node000012_Node000013"><a xlink:title=" ">
<path fill="none" stroke="#9a32cd" stroke-dasharray="5,2" d="M621.27,-140.04C623.88,-140.03 626.46,-140.01 629,-140 678.87,-139.75 735.63,-139.78 776.43,-139.85"/>
<polygon fill="#9a32cd" stroke="#9a32cd" points="621.11,-136.54 611.14,-140.11 621.16,-143.54 621.11,-136.54"/>
</a>
</g>
<text text-anchor="start" x="655.5" y="-145.5" font-family="Helvetica,sans-Serif" font-size="10.00" fill="grey">m_fillpatch_op</text>
</g>
<!-- Node14 -->
<g id="Node000014" class="node">
<title>Node14</title>
<g id="a_Node000014"><a xlink:href="classamr__wind_1_1_field_fill_patch_ops_base.html" target="_top" xlink:title=" ">
<polygon fill="white" stroke="#666666" points="232,-198 98,-198 98,-168 232,-168 232,-198"/>
<text text-anchor="start" x="106" y="-186" font-family="Helvetica,sans-Serif" font-size="10.00">amr_wind::FieldFillPatch</text>
<text text-anchor="middle" x="165" y="-175" font-family="Helvetica,sans-Serif" font-size="10.00">OpsBase</text>
</a>
</g>
</g>
<!-- Node14&#45;&gt;Node13 -->
<g id="edge15_Node000013_Node000014" class="edge">
<title>Node14&#45;&gt;Node13</title>
<g id="a_edge15_Node000013_Node000014"><a xlink:title=" ">
<path fill="none" stroke="#9a32cd" stroke-dasharray="5,2" d="M242.21,-182.6C293.81,-181.34 363.36,-177.73 424,-168 441.46,-165.2 460.27,-160.64 476.88,-156.07"/>
<polygon fill="#9a32cd" stroke="#9a32cd" points="242.06,-179.1 232.14,-182.82 242.22,-186.1 242.06,-179.1"/>
</a>
</g>
<text text-anchor="start" x="336.5" y="-187.5" font-family="Helvetica,sans-Serif" font-size="10.00" fill="grey">ptr</text>
</g>
<!-- Node15&#45;&gt;Node13 -->
<g id="edge16_Node000013_Node000015" class="edge">
<title>Node15&#45;&gt;Node13</title>
<g id="a_edge16_Node000013_Node000015"><a xlink:title=" ">
<path fill="none" stroke="orange" stroke-dasharray="5,2" d="M234.49,-121.57C293.52,-125.51 378.91,-131.21 441.94,-135.42"/>
<polygon fill="orange" stroke="orange" points="234.37,-118.06 224.16,-120.88 233.9,-125.04 234.37,-118.06"/>
</a>
</g>
<text text-anchor="start" x="278.5" y="-155" font-family="Helvetica,sans-Serif" font-size="10.00" fill="grey">&lt; amr_wind::FieldFillPatch</text>
<text text-anchor="start" x="278.5" y="-140" font-family="Helvetica,sans-Serif" font-size="10.00" fill="grey">  OpsBase &gt;</text>
</g>
<!-- Node17 -->
<g id="Node000017" class="node">
<title>Node17</title>
<g id="a_Node000017"><a xlink:title=" ">
<polygon fill="white" stroke="#666666" points="608.5,-69.5 444.5,-69.5 444.5,-28.5 608.5,-28.5 608.5,-69.5"/>
<text text-anchor="start" x="452.5" y="-57.5" font-family="Helvetica,sans-Serif" font-size="10.00">std::unique_ptr&lt; amr</text>
<text text-anchor="start" x="452.5" y="-46.5" font-family="Helvetica,sans-Serif" font-size="10.00">_wind::BoussinesqBubbleField</text>
<text text-anchor="middle" x="526.5" y="-35.5" font-family="Helvetica,sans-Serif" font-size="10.00">Init &gt;</text>
</a>
</g>
</g>
<!-- Node15&#45;&gt;Node17 -->
<g id="edge22_Node000017_Node000015" class="edge">
<title>Node15&#45;&gt;Node17</title>
<g id="a_edge22_Node000017_Node000015"><a xlink:title=" ">
<path fill="none" stroke="orange" stroke-dasharray="5,2" d="M205.34,-104.39C222.86,-99.1 243.82,-93.21 263,-89 323.22,-75.78 392.17,-65.45 444.29,-58.61"/>
<polygon fill="orange" stroke="orange" points="204,-101.14 195.46,-107.42 206.05,-107.83 204,-101.14"/>
</a>
</g>
<text text-anchor="start" x="266.5" y="-110" font-family="Helvetica,sans-Serif" font-size="10.00" fill="grey">&lt; amr_wind::BoussinesqBubble</text>
<text text-anchor="start" x="266.5" y="-95" font-family="Helvetica,sans-Serif" font-size="10.00" fill="grey">  FieldInit &gt;</text>
</g>
<!-- Node16&#45;&gt;Node11 -->
<g id="edge18_Node000011_Node000016" class="edge">
<title>Node16&#45;&gt;Node11</title>
<g id="a_edge18_Node000011_Node000016"><a xlink:title=" ">
<path fill="none" stroke="orange" stroke-dasharray="5,2" d="M412.33,-55.06C416.37,-56.46 420.29,-58.1 424,-60 434.07,-65.16 431.76,-73.18 442,-78 533.28,-120.99 793.62,-110.75 894,-121 932.24,-124.91 975.18,-129.59 1008.83,-133.33"/>
<polygon fill="orange" stroke="orange" points="413.33,-51.7 402.75,-52.18 411.32,-58.41 413.33,-51.7"/>
</a>
</g>
<text text-anchor="start" x="632.5" y="-120.5" font-family="Helvetica,sans-Serif" font-size="10.00" fill="grey">&lt; amr_wind::FieldInfo &gt;</text>
</g>
<!-- Node17&#45;&gt;Node1 -->
<g id="edge20_Node000001_Node000017" class="edge">
<title>Node17&#45;&gt;Node1</title>
<g id="a_edge20_Node000001_Node000017"><a xlink:title=" ">
<path fill="none" stroke="#9a32cd" stroke-dasharray="5,2" d="M618.87,-51.74C679.35,-53.32 760.4,-55 832,-55 832,-55 832,-55 1269,-55 1368.14,-55 1474.75,-121.36 1511.59,-146.5"/>
<polygon fill="#9a32cd" stroke="#9a32cd" points="618.68,-48.23 608.59,-51.47 618.5,-55.23 618.68,-48.23"/>
</a>
</g>
<text text-anchor="start" x="1040" y="-60.5" font-family="Helvetica,sans-Serif" font-size="10.00" fill="grey">m_field_init</text>
</g>
<!-- Node18 -->
<g id="Node000018" class="node">
<title>Node18</title>
<g id="a_Node000018"><a xlink:href="classamr__wind_1_1_boussinesq_bubble_field_init.html" target="_top" xlink:title=" ">
<polygon fill="white" stroke="#666666" points="245,-30 85,-30 85,0 245,0 245,-30"/>
<text text-anchor="start" x="93" y="-18" font-family="Helvetica,sans-Serif" font-size="10.00">amr_wind::BoussinesqBubble</text>
<text text-anchor="middle" x="165" y="-7" font-family="Helvetica,sans-Serif" font-size="10.00">FieldInit</text>
</a>
</g>
</g>
<!-- Node18&#45;&gt;Node17 -->
<g id="edge21_Node000017_Node000018" class="edge">
<title>Node18&#45;&gt;Node17</title>
<g id="a_edge21_Node000017_Node000018"><a xlink:title=" ">
<path fill="none" stroke="#9a32cd" stroke-dasharray="5,2" d="M255.26,-5.16C305.26,-1.75 368.53,-0.96 424,-11 443.26,-14.49 463.62,-21.41 481.01,-28.41"/>
<polygon fill="#9a32cd" stroke="#9a32cd" points="254.84,-1.68 245.12,-5.9 255.35,-8.66 254.84,-1.68"/>
</a>
</g>
<text text-anchor="start" x="336.5" y="-16.5" font-family="Helvetica,sans-Serif" font-size="10.00" fill="grey">ptr</text>
</g>
</g>
</svg>
