<?xml version="1.0" encoding="UTF-8" standalone="no"?>
<!DOCTYPE svg PUBLIC "-//W3C//DTD SVG 1.1//EN"
 "http://www.w3.org/Graphics/SVG/1.1/DTD/svg11.dtd">
<!-- Generated by graphviz version 2.43.0 (0)
 -->
<!-- Title: amr_wind::PhysicsMgr Pages: 1 -->
<svg width="1245pt" height="116pt"
 viewBox="0.00 0.00 1245.00 115.50" xmlns="http://www.w3.org/2000/svg" xmlns:xlink="http://www.w3.org/1999/xlink">
<g id="graph0" class="graph" transform="scale(1 1) rotate(0) translate(4 111.5)">
<title>amr_wind::PhysicsMgr</title>
<!-- Node1 -->
<g id="Node000001" class="node">
<title>Node1</title>
<g id="a_Node000001"><a xlink:title=" ">
<polygon fill="#999999" stroke="#666666" points="1237,-80 1111,-80 1111,-61 1237,-61 1237,-80"/>
<text text-anchor="middle" x="1174" y="-68" font-family="Helvetica,sans-Serif" font-size="10.00">amr_wind::PhysicsMgr</text>
</a>
</g>
</g>
<!-- Node2 -->
<g id="Node000002" class="node">
<title>Node2</title>
<g id="a_Node000002"><a xlink:href="classamr__wind_1_1_coll_mgr.html" target="_top" xlink:title=" ">
<polygon fill="white" stroke="#666666" points="1074,-85.5 945,-85.5 945,-55.5 1074,-55.5 1074,-85.5"/>
<text text-anchor="start" x="953" y="-73.5" font-family="Helvetica,sans-Serif" font-size="10.00">amr_wind::CollMgr&lt;</text>
<text text-anchor="middle" x="1009.5" y="-62.5" font-family="Helvetica,sans-Serif" font-size="10.00"> PhysicsMgr, Physics &gt;</text>
</a>
</g>
</g>
<!-- Node2&#45;&gt;Node1 -->
<g id="edge1_Node000001_Node000002" class="edge">
<title>Node2&#45;&gt;Node1</title>
<g id="a_edge1_Node000001_Node000002"><a xlink:title=" ">
<path fill="none" stroke="#63b8ff" d="M1084.49,-70.5C1093.27,-70.5 1102.16,-70.5 1110.76,-70.5"/>
<polygon fill="#63b8ff" stroke="#63b8ff" points="1084.26,-67 1074.26,-70.5 1084.26,-74 1084.26,-67"/>
</a>
</g>
</g>
<!-- Node3 -->
<g id="Node000003" class="node">
<title>Node3</title>
<g id="a_Node000003"><a xlink:title=" ">
<polygon fill="white" stroke="#666666" points="553,-85.5 439,-85.5 439,-55.5 553,-55.5 553,-85.5"/>
<text text-anchor="start" x="447" y="-73.5" font-family="Helvetica,sans-Serif" font-size="10.00">std::unordered_map</text>
<text text-anchor="middle" x="496" y="-62.5" font-family="Helvetica,sans-Serif" font-size="10.00">&lt; std::string, int &gt;</text>
</a>
</g>
</g>
<!-- Node3&#45;&gt;Node2 -->
<g id="edge2_Node000002_Node000003" class="edge">
<title>Node3&#45;&gt;Node2</title>
<g id="a_edge2_Node000002_Node000003"><a xlink:title=" ">
<path fill="none" stroke="#9a32cd" stroke-dasharray="5,2" d="M563.25,-79.87C565.86,-80.1 568.45,-80.32 571,-80.5 728.82,-91.81 769.2,-94.06 927,-82.5 932.85,-82.07 938.91,-81.47 944.98,-80.77"/>
<polygon fill="#9a32cd" stroke="#9a32cd" points="563.39,-76.36 553.09,-78.83 562.68,-83.33 563.39,-76.36"/>
</a>
</g>
<text text-anchor="start" x="688.5" y="-95" font-family="Helvetica,sans-Serif" font-size="10.00" fill="grey">m_obj_map</text>
</g>
<!-- Node9 -->
<g id="Node000009" class="node">
<title>Node9</title>
<g id="a_Node000009"><a xlink:href="classamr__wind_1_1_coll_mgr.html" target="_top" xlink:title=" ">
<polygon fill="white" stroke="#666666" points="782,-62 653,-62 653,-21 782,-21 782,-62"/>
<text text-anchor="start" x="661" y="-50" font-family="Helvetica,sans-Serif" font-size="10.00">amr_wind::CollMgr&lt;</text>
<text text-anchor="start" x="661" y="-39" font-family="Helvetica,sans-Serif" font-size="10.00"> Collection, Type, allow</text>
<text text-anchor="middle" x="717.5" y="-28" font-family="Helvetica,sans-Serif" font-size="10.00">_duplicates &gt;</text>
</a>
</g>
</g>
<!-- Node3&#45;&gt;Node9 -->
<g id="edge9_Node000009_Node000003" class="edge">
<title>Node3&#45;&gt;Node9</title>
<g id="a_edge9_Node000009_Node000003"><a xlink:title=" ">
<path fill="none" stroke="#9a32cd" stroke-dasharray="5,2" d="M563.44,-61.72C591.75,-57.98 624.63,-53.64 652.64,-49.94"/>
<polygon fill="#9a32cd" stroke="#9a32cd" points="562.7,-58.29 553.24,-63.07 563.61,-65.23 562.7,-58.29"/>
</a>
</g>
<text text-anchor="start" x="574" y="-65" font-family="Helvetica,sans-Serif" font-size="10.00" fill="grey">m_obj_map</text>
</g>
<!-- Node4 -->
<g id="Node000004" class="node">
<title>Node4</title>
<g id="a_Node000004"><a xlink:title=" ">
<polygon fill="white" stroke="#666666" points="281.5,-102 216.5,-102 216.5,-83 281.5,-83 281.5,-102"/>
<text text-anchor="middle" x="249" y="-90" font-family="Helvetica,sans-Serif" font-size="10.00">std::string</text>
</a>
</g>
</g>
<!-- Node4&#45;&gt;Node3 -->
<g id="edge3_Node000003_Node000004" class="edge">
<title>Node4&#45;&gt;Node3</title>
<g id="a_edge3_Node000003_Node000004"><a xlink:title=" ">
<path fill="none" stroke="#9a32cd" stroke-dasharray="5,2" d="M291.6,-88.76C332.1,-85.13 393.96,-79.57 438.82,-75.54"/>
<polygon fill="#9a32cd" stroke="#9a32cd" points="291.17,-85.29 281.53,-89.67 291.8,-92.26 291.17,-85.29"/>
</a>
</g>
<text text-anchor="start" x="361.5" y="-90" font-family="Helvetica,sans-Serif" font-size="10.00" fill="grey">keys</text>
</g>
<!-- Node5 -->
<g id="Node000005" class="node">
<title>Node5</title>
<g id="a_Node000005"><a xlink:title=" ">
<polygon fill="white" stroke="#666666" points="104,-107.5 0,-107.5 0,-77.5 104,-77.5 104,-107.5"/>
<text text-anchor="start" x="8" y="-95.5" font-family="Helvetica,sans-Serif" font-size="10.00">std::basic_string&lt;</text>
<text text-anchor="middle" x="52" y="-84.5" font-family="Helvetica,sans-Serif" font-size="10.00"> Char &gt;</text>
</a>
</g>
</g>
<!-- Node5&#45;&gt;Node4 -->
<g id="edge4_Node000004_Node000005" class="edge">
<title>Node5&#45;&gt;Node4</title>
<g id="a_edge4_Node000004_Node000005"><a xlink:title=" ">
<path fill="none" stroke="#63b8ff" d="M114.49,-92.5C148.31,-92.5 188.85,-92.5 216.31,-92.5"/>
<polygon fill="#63b8ff" stroke="#63b8ff" points="114.23,-89 104.23,-92.5 114.23,-96 114.23,-89"/>
</a>
</g>
</g>
<!-- Node6 -->
<g id="Node000006" class="node">
<title>Node6</title>
<g id="a_Node000006"><a xlink:title=" ">
<polygon fill="white" stroke="#666666" points="306,-64.5 192,-64.5 192,-34.5 306,-34.5 306,-64.5"/>
<text text-anchor="start" x="200" y="-52.5" font-family="Helvetica,sans-Serif" font-size="10.00">std::unordered_map</text>
<text text-anchor="middle" x="249" y="-41.5" font-family="Helvetica,sans-Serif" font-size="10.00">&lt; K, T &gt;</text>
</a>
</g>
</g>
<!-- Node6&#45;&gt;Node3 -->
<g id="edge5_Node000003_Node000006" class="edge">
<title>Node6&#45;&gt;Node3</title>
<g id="a_edge5_Node000003_Node000006"><a xlink:title=" ">
<path fill="none" stroke="orange" stroke-dasharray="5,2" d="M316.14,-47.27C347.96,-47.06 386.59,-48.07 421,-52.5 426.77,-53.24 432.74,-54.26 438.68,-55.44"/>
<polygon fill="orange" stroke="orange" points="316.02,-43.77 306.06,-47.38 316.1,-50.77 316.02,-43.77"/>
</a>
</g>
<text text-anchor="start" x="327.5" y="-58" font-family="Helvetica,sans-Serif" font-size="10.00" fill="grey">&lt; std::string, int &gt;</text>
</g>
<!-- Node7 -->
<g id="Node000007" class="node">
<title>Node7</title>
<g id="a_Node000007"><a xlink:title=" ">
<polygon fill="white" stroke="#666666" points="66.5,-59 37.5,-59 37.5,-40 66.5,-40 66.5,-59"/>
<text text-anchor="middle" x="52" y="-47" font-family="Helvetica,sans-Serif" font-size="10.00">K</text>
</a>
</g>
</g>
<!-- Node7&#45;&gt;Node6 -->
<g id="edge6_Node000006_Node000007" class="edge">
<title>Node7&#45;&gt;Node6</title>
<g id="a_edge6_Node000006_Node000007"><a xlink:title=" ">
<path fill="none" stroke="#9a32cd" stroke-dasharray="5,2" d="M76.9,-49.5C105.3,-49.5 153.63,-49.5 191.69,-49.5"/>
<polygon fill="#9a32cd" stroke="#9a32cd" points="76.71,-46 66.71,-49.5 76.71,-53 76.71,-46"/>
</a>
</g>
<text text-anchor="start" x="137" y="-55" font-family="Helvetica,sans-Serif" font-size="10.00" fill="grey">keys</text>
</g>
<!-- Node8 -->
<g id="Node000008" class="node">
<title>Node8</title>
<g id="a_Node000008"><a xlink:title=" ">
<polygon fill="white" stroke="#666666" points="66.5,-19 37.5,-19 37.5,0 66.5,0 66.5,-19"/>
<text text-anchor="middle" x="52" y="-7" font-family="Helvetica,sans-Serif" font-size="10.00">T</text>
</a>
</g>
</g>
<!-- Node8&#45;&gt;Node6 -->
<g id="edge7_Node000006_Node000008" class="edge">
<title>Node8&#45;&gt;Node6</title>
<g id="a_edge7_Node000006_Node000008"><a xlink:title=" ">
<path fill="none" stroke="#9a32cd" stroke-dasharray="5,2" d="M76.67,-12.36C101.18,-15.52 140.5,-21.14 174,-28.5 181.83,-30.22 190.05,-32.28 198.05,-34.44"/>
<polygon fill="#9a32cd" stroke="#9a32cd" points="76.89,-8.86 66.53,-11.08 76.01,-15.8 76.89,-8.86"/>
</a>
</g>
<text text-anchor="start" x="125" y="-34" font-family="Helvetica,sans-Serif" font-size="10.00" fill="grey">elements</text>
</g>
<!-- Node9&#45;&gt;Node2 -->
<g id="edge8_Node000002_Node000009" class="edge">
<title>Node9&#45;&gt;Node2</title>
<g id="a_edge8_Node000002_Node000009"><a xlink:title=" ">
<path fill="none" stroke="orange" stroke-dasharray="5,2" d="M792.28,-48.88C839.36,-53.59 899.76,-59.63 944.76,-64.13"/>
<polygon fill="orange" stroke="orange" points="792.44,-45.38 782.14,-47.86 791.74,-52.34 792.44,-45.38"/>
</a>
</g>
<text text-anchor="start" x="803.5" y="-67" font-family="Helvetica,sans-Serif" font-size="10.00" fill="grey">&lt; PhysicsMgr, Physics &gt;</text>
</g>
</g>
</svg>
