<?xml version="1.0" encoding="UTF-8" standalone="no"?>
<!DOCTYPE svg PUBLIC "-//W3C//DTD SVG 1.1//EN"
 "http://www.w3.org/Graphics/SVG/1.1/DTD/svg11.dtd">
<!-- Generated by graphviz version 2.43.0 (0)
 -->
<!-- Title: amr_wind::ib::IBDataHolder&lt; IBTrait &gt; Pages: 1 -->
<svg width="416pt" height="134pt"
 viewBox="0.00 0.00 416.00 134.00" xmlns="http://www.w3.org/2000/svg" xmlns:xlink="http://www.w3.org/1999/xlink">
<g id="graph0" class="graph" transform="scale(1 1) rotate(0) translate(4 130)">
<title>amr_wind::ib::IBDataHolder&lt; IBTrait &gt;</title>
<!-- Node1 -->
<g id="Node000001" class="node">
<title>Node1</title>
<g id="a_Node000001"><a xlink:title=" ">
<polygon fill="#999999" stroke="#666666" points="151,-78 0,-78 0,-48 151,-48 151,-78"/>
<text text-anchor="start" x="8" y="-66" font-family="Helvetica,sans-Serif" font-size="10.00">amr_wind::ib::IBDataHolder</text>
<text text-anchor="middle" x="75.5" y="-55" font-family="Helvetica,sans-Serif" font-size="10.00">&lt; IBTrait &gt;</text>
</a>
</g>
</g>
<!-- Node2 -->
<g id="Node000002" class="node">
<title>Node2</title>
<g id="a_Node000002"><a xlink:href="classamr__wind_1_1ib_1_1_i_b_data_holder.html" target="_top" xlink:title=" ">
<polygon fill="white" stroke="#666666" points="408,-126 257,-126 257,-96 408,-96 408,-126"/>
<text text-anchor="start" x="265" y="-114" font-family="Helvetica,sans-Serif" font-size="10.00">amr_wind::ib::IBDataHolder</text>
<text text-anchor="middle" x="332.5" y="-103" font-family="Helvetica,sans-Serif" font-size="10.00">&lt; Box &gt;</text>
</a>
</g>
</g>
<!-- Node1&#45;&gt;Node2 -->
<g id="edge1_Node000001_Node000002" class="edge">
<title>Node1&#45;&gt;Node2</title>
<g id="a_edge1_Node000001_Node000002"><a xlink:title=" ">
<path fill="none" stroke="orange" stroke-dasharray="5,2" d="M150.27,-80.15C156.59,-81.5 162.9,-82.8 169,-84 197.62,-89.62 229.24,-95.05 256.91,-99.55"/>
<polygon fill="orange" stroke="orange" points="150.85,-76.7 140.34,-78.01 149.37,-83.54 150.85,-76.7"/>
</a>
</g>
<text text-anchor="start" x="183" y="-101.5" font-family="Helvetica,sans-Serif" font-size="10.00" fill="grey">&lt; Box &gt;</text>
</g>
<!-- Node3 -->
<g id="Node000003" class="node">
<title>Node3</title>
<g id="a_Node000003"><a xlink:href="classamr__wind_1_1ib_1_1_i_b_data_holder.html" target="_top" xlink:title=" ">
<polygon fill="white" stroke="#666666" points="408,-78 257,-78 257,-48 408,-48 408,-78"/>
<text text-anchor="start" x="265" y="-66" font-family="Helvetica,sans-Serif" font-size="10.00">amr_wind::ib::IBDataHolder</text>
<text text-anchor="middle" x="332.5" y="-55" font-family="Helvetica,sans-Serif" font-size="10.00">&lt; Cylinder &gt;</text>
</a>
</g>
</g>
<!-- Node1&#45;&gt;Node3 -->
<g id="edge2_Node000001_Node000003" class="edge">
<title>Node1&#45;&gt;Node3</title>
<g id="a_edge2_Node000001_Node000003"><a xlink:title=" ">
<path fill="none" stroke="orange" stroke-dasharray="5,2" d="M161.57,-63C192.36,-63 226.88,-63 256.72,-63"/>
<polygon fill="orange" stroke="orange" points="161.29,-59.5 151.29,-63 161.29,-66.5 161.29,-59.5"/>
</a>
</g>
<text text-anchor="start" x="172" y="-68.5" font-family="Helvetica,sans-Serif" font-size="10.00" fill="grey">&lt; Cylinder &gt;</text>
</g>
<!-- Node4 -->
<g id="Node000004" class="node">
<title>Node4</title>
<g id="a_Node000004"><a xlink:href="classamr__wind_1_1ib_1_1_i_b_data_holder.html" target="_top" xlink:title=" ">
<polygon fill="white" stroke="#666666" points="408,-30 257,-30 257,0 408,0 408,-30"/>
<text text-anchor="start" x="265" y="-18" font-family="Helvetica,sans-Serif" font-size="10.00">amr_wind::ib::IBDataHolder</text>
<text text-anchor="middle" x="332.5" y="-7" font-family="Helvetica,sans-Serif" font-size="10.00">&lt; Sphere &gt;</text>
</a>
</g>
</g>
<!-- Node1&#45;&gt;Node4 -->
<g id="edge3_Node000001_Node000004" class="edge">
<title>Node1&#45;&gt;Node4</title>
<g id="a_edge3_Node000001_Node000004"><a xlink:title=" ">
<path fill="none" stroke="orange" stroke-dasharray="5,2" d="M150.27,-45.85C156.59,-44.5 162.9,-43.2 169,-42 197.62,-36.38 229.24,-30.95 256.91,-26.45"/>
<polygon fill="orange" stroke="orange" points="149.37,-42.46 140.34,-47.99 150.85,-49.3 149.37,-42.46"/>
</a>
</g>
<text text-anchor="start" x="176" y="-47.5" font-family="Helvetica,sans-Serif" font-size="10.00" fill="grey">&lt; Sphere &gt;</text>
</g>
</g>
</svg>
