<?xml version="1.0" encoding="UTF-8" standalone="no"?>
<!DOCTYPE svg PUBLIC "-//W3C//DTD SVG 1.1//EN"
 "http://www.w3.org/Graphics/SVG/1.1/DTD/svg11.dtd">
<!-- Generated by graphviz version 2.43.0 (0)
 -->
<!-- Title: amr_wind::ABLMesoscaleForcing Pages: 1 -->
<svg width="251pt" height="171pt"
 viewBox="0.00 0.00 251.00 171.00" xmlns="http://www.w3.org/2000/svg" xmlns:xlink="http://www.w3.org/1999/xlink">
<g id="graph0" class="graph" transform="scale(1 1) rotate(0) translate(4 167)">
<title>amr_wind::ABLMesoscaleForcing</title>
<!-- Node1 -->
<g id="Node000001" class="node">
<title>Node1</title>
<g id="a_Node000001"><a xlink:title=" ">
<polygon fill="#999999" stroke="#666666" points="177,-19 1,-19 1,0 177,0 177,-19"/>
<text text-anchor="middle" x="89" y="-7" font-family="Helvetica,sans-Serif" font-size="10.00">amr_wind::ABLMesoscaleForcing</text>
</a>
</g>
</g>
<!-- Node2 -->
<g id="Node000002" class="node">
<title>Node2</title>
<g id="a_Node000002"><a xlink:href="classamr__wind_1_1_sim_time.html" target="_top" xlink:title=" ">
<polygon fill="white" stroke="#666666" points="114,-96 0,-96 0,-77 114,-77 114,-96"/>
<text text-anchor="middle" x="57" y="-84" font-family="Helvetica,sans-Serif" font-size="10.00">amr_wind::SimTime</text>
</a>
</g>
</g>
<!-- Node2&#45;&gt;Node1 -->
<g id="edge1_Node000001_Node000002" class="edge">
<title>Node2&#45;&gt;Node1</title>
<g id="a_edge1_Node000001_Node000002"><a xlink:title=" ">
<path fill="none" stroke="#9a32cd" stroke-dasharray="5,2" d="M64.72,-67.42C71.27,-52.06 80.38,-30.7 85.37,-19"/>
<polygon fill="#9a32cd" stroke="#9a32cd" points="61.38,-66.33 60.67,-76.9 67.81,-69.07 61.38,-66.33"/>
</a>
</g>
<text text-anchor="middle" x="97.5" y="-45.5" font-family="Helvetica,sans-Serif" font-size="10.00" fill="grey"> m_time</text>
</g>
<!-- Node3 -->
<g id="Node000003" class="node">
<title>Node3</title>
<g id="a_Node000003"><a xlink:title=" ">
<polygon fill="white" stroke="#666666" points="197.5,-96 132.5,-96 132.5,-77 197.5,-77 197.5,-96"/>
<text text-anchor="middle" x="165" y="-84" font-family="Helvetica,sans-Serif" font-size="10.00">std::string</text>
</a>
</g>
</g>
<!-- Node3&#45;&gt;Node1 -->
<g id="edge2_Node000001_Node000003" class="edge">
<title>Node3&#45;&gt;Node1</title>
<g id="a_edge2_Node000001_Node000003"><a xlink:title=" ">
<path fill="none" stroke="#9a32cd" stroke-dasharray="5,2" d="M151.27,-69.23C142.85,-59.55 131.68,-47.21 121,-37 114.43,-30.72 106.58,-24.2 100.29,-19.2"/>
<polygon fill="#9a32cd" stroke="#9a32cd" points="148.7,-71.61 157.87,-76.93 154.02,-67.06 148.7,-71.61"/>
</a>
</g>
<text text-anchor="middle" x="192.5" y="-51" font-family="Helvetica,sans-Serif" font-size="10.00" fill="grey"> m_forcing_scheme</text>
<text text-anchor="middle" x="192.5" y="-40" font-family="Helvetica,sans-Serif" font-size="10.00" fill="grey">m_forcing_transition</text>
</g>
<!-- Node4 -->
<g id="Node000004" class="node">
<title>Node4</title>
<g id="a_Node000004"><a xlink:title=" ">
<polygon fill="white" stroke="#666666" points="217,-163 113,-163 113,-133 217,-133 217,-163"/>
<text text-anchor="start" x="121" y="-151" font-family="Helvetica,sans-Serif" font-size="10.00">std::basic_string&lt;</text>
<text text-anchor="middle" x="165" y="-140" font-family="Helvetica,sans-Serif" font-size="10.00"> Char &gt;</text>
</a>
</g>
</g>
<!-- Node4&#45;&gt;Node3 -->
<g id="edge3_Node000003_Node000004" class="edge">
<title>Node4&#45;&gt;Node3</title>
<g id="a_edge3_Node000003_Node000004"><a xlink:title=" ">
<path fill="none" stroke="#63b8ff" d="M165,-122.79C165,-113.36 165,-103.15 165,-96.16"/>
<polygon fill="#63b8ff" stroke="#63b8ff" points="161.5,-122.9 165,-132.9 168.5,-122.9 161.5,-122.9"/>
</a>
</g>
</g>
</g>
</svg>
