<?xml version="1.0" encoding="UTF-8" standalone="no"?>
<!DOCTYPE svg PUBLIC "-//W3C//DTD SVG 1.1//EN"
 "http://www.w3.org/Graphics/SVG/1.1/DTD/svg11.dtd">
<!-- Generated by graphviz version 2.43.0 (0)
 -->
<!-- Title: amr_wind::RayleighTaylor Pages: 1 -->
<svg width="1549pt" height="345pt"
 viewBox="0.00 0.00 1549.00 344.50" xmlns="http://www.w3.org/2000/svg" xmlns:xlink="http://www.w3.org/1999/xlink">
<g id="graph0" class="graph" transform="scale(1 1) rotate(0) translate(4 340.5)">
<title>amr_wind::RayleighTaylor</title>
<!-- Node1 -->
<g id="Node000001" class="node">
<title>Node1</title>
<g id="a_Node000001"><a xlink:title=" ">
<polygon fill="#999999" stroke="#666666" points="1541,-178.5 1398,-178.5 1398,-159.5 1541,-159.5 1541,-178.5"/>
<text text-anchor="middle" x="1469.5" y="-166.5" font-family="Helvetica,sans-Serif" font-size="10.00">amr_wind::RayleighTaylor</text>
</a>
</g>
</g>
<!-- Node2 -->
<g id="Node000002" class="node">
<title>Node2</title>
<g id="a_Node000002"><a xlink:title=" ">
<polygon fill="white" stroke="#666666" points="1301,-237.5 1178,-237.5 1178,-196.5 1301,-196.5 1301,-237.5"/>
<text text-anchor="start" x="1186" y="-225.5" font-family="Helvetica,sans-Serif" font-size="10.00">amr_wind::Factory&lt;</text>
<text text-anchor="start" x="1186" y="-214.5" font-family="Helvetica,sans-Serif" font-size="10.00"> Physics, CFDSim &amp; &gt;</text>
<text text-anchor="middle" x="1239.5" y="-203.5" font-family="Helvetica,sans-Serif" font-size="10.00">::Register</text>
</a>
</g>
</g>
<!-- Node2&#45;&gt;Node1 -->
<g id="edge1_Node000001_Node000002" class="edge">
<title>Node2&#45;&gt;Node1</title>
<g id="a_edge1_Node000001_Node000002"><a xlink:title=" ">
<path fill="none" stroke="#63b8ff" d="M1311.2,-213.58C1333.43,-211.53 1357.92,-208.25 1380,-203 1404.18,-197.25 1430.63,-186.46 1448.25,-178.57"/>
<polygon fill="#63b8ff" stroke="#63b8ff" points="1310.83,-210.1 1301.17,-214.44 1311.43,-217.08 1310.83,-210.1"/>
</a>
</g>
</g>
<!-- Node3 -->
<g id="Node000003" class="node">
<title>Node3</title>
<g id="a_Node000003"><a xlink:href="classamr__wind_1_1_field.html" target="_top" xlink:title=" ">
<polygon fill="white" stroke="#666666" points="1286.5,-178.5 1192.5,-178.5 1192.5,-159.5 1286.5,-159.5 1286.5,-178.5"/>
<text text-anchor="middle" x="1239.5" y="-166.5" font-family="Helvetica,sans-Serif" font-size="10.00">amr_wind::Field</text>
</a>
</g>
</g>
<!-- Node3&#45;&gt;Node1 -->
<g id="edge2_Node000001_Node000003" class="edge">
<title>Node3&#45;&gt;Node1</title>
<g id="a_edge2_Node000001_Node000003"><a xlink:title=" ">
<path fill="none" stroke="#9a32cd" stroke-dasharray="5,2" d="M1296.68,-169C1327.19,-169 1365.21,-169 1397.72,-169"/>
<polygon fill="#9a32cd" stroke="#9a32cd" points="1296.64,-165.5 1286.64,-169 1296.64,-172.5 1296.64,-165.5"/>
</a>
</g>
<text text-anchor="start" x="1322.5" y="-190" font-family="Helvetica,sans-Serif" font-size="10.00" fill="grey">m_density</text>
<text text-anchor="start" x="1322.5" y="-175" font-family="Helvetica,sans-Serif" font-size="10.00" fill="grey">m_velocity</text>
</g>
<!-- Node4 -->
<g id="Node000004" class="node">
<title>Node4</title>
<g id="a_Node000004"><a xlink:href="classamr__wind_1_1_field_repo.html" target="_top" xlink:title=" ">
<polygon fill="white" stroke="#666666" points="1098.5,-199.5 979.5,-199.5 979.5,-180.5 1098.5,-180.5 1098.5,-199.5"/>
<text text-anchor="middle" x="1039" y="-187.5" font-family="Helvetica,sans-Serif" font-size="10.00">amr_wind::FieldRepo</text>
</a>
</g>
</g>
<!-- Node4&#45;&gt;Node3 -->
<g id="edge3_Node000003_Node000004" class="edge">
<title>Node4&#45;&gt;Node3</title>
<g id="a_edge3_Node000003_Node000004"><a xlink:title=" ">
<path fill="none" stroke="#9a32cd" stroke-dasharray="5,2" d="M1108.74,-182.73C1136.31,-179.81 1167.37,-176.53 1192.19,-173.9"/>
<polygon fill="#9a32cd" stroke="#9a32cd" points="1108.33,-179.25 1098.75,-183.78 1109.06,-186.21 1108.33,-179.25"/>
</a>
</g>
<text text-anchor="start" x="1120.5" y="-187.5" font-family="Helvetica,sans-Serif" font-size="10.00" fill="grey">m_repo</text>
</g>
<!-- Node5 -->
<g id="Node000005" class="node">
<title>Node5</title>
<g id="a_Node000005"><a xlink:title=" ">
<polygon fill="white" stroke="#666666" points="864,-223 742,-223 742,-193 864,-193 864,-223"/>
<text text-anchor="start" x="750" y="-211" font-family="Helvetica,sans-Serif" font-size="10.00">std::unordered_map</text>
<text text-anchor="middle" x="803" y="-200" font-family="Helvetica,sans-Serif" font-size="10.00">&lt; std::string, size_t &gt;</text>
</a>
</g>
</g>
<!-- Node5&#45;&gt;Node4 -->
<g id="edge4_Node000004_Node000005" class="edge">
<title>Node5&#45;&gt;Node4</title>
<g id="a_edge4_Node000004_Node000005"><a xlink:title=" ">
<path fill="none" stroke="#9a32cd" stroke-dasharray="5,2" d="M874.38,-197.76C876.95,-197.49 879.5,-197.23 882,-197 914.12,-194.02 950.09,-192.3 979.39,-191.31"/>
<polygon fill="#9a32cd" stroke="#9a32cd" points="873.94,-194.29 864.4,-198.9 874.73,-201.24 873.94,-194.29"/>
</a>
</g>
<text text-anchor="start" x="885.5" y="-218" font-family="Helvetica,sans-Serif" font-size="10.00" fill="grey">m_fid_map</text>
<text text-anchor="start" x="885.5" y="-203" font-family="Helvetica,sans-Serif" font-size="10.00" fill="grey">m_int_fid_map</text>
</g>
<!-- Node6 -->
<g id="Node000006" class="node">
<title>Node6</title>
<g id="a_Node000006"><a xlink:title=" ">
<polygon fill="white" stroke="#666666" points="527,-235.5 462,-235.5 462,-216.5 527,-216.5 527,-235.5"/>
<text text-anchor="middle" x="494.5" y="-223.5" font-family="Helvetica,sans-Serif" font-size="10.00">std::string</text>
</a>
</g>
</g>
<!-- Node6&#45;&gt;Node3 -->
<g id="edge10_Node000003_Node000006" class="edge">
<title>Node6&#45;&gt;Node3</title>
<g id="a_edge10_Node000003_Node000006"><a xlink:title=" ">
<path fill="none" stroke="#9a32cd" stroke-dasharray="5,2" d="M537.19,-231.45C556.03,-233.65 578.6,-235.92 599,-237 654.48,-239.94 668.45,-237.94 724,-237 918.34,-233.72 981.92,-280.89 1160,-203 1169.54,-198.83 1168.86,-192.99 1178,-188 1184.86,-184.26 1192.57,-181.13 1200.13,-178.56"/>
<polygon fill="#9a32cd" stroke="#9a32cd" points="537.49,-227.96 527.14,-230.24 536.65,-234.91 537.49,-227.96"/>
</a>
</g>
<text text-anchor="start" x="900.5" y="-253.5" font-family="Helvetica,sans-Serif" font-size="10.00" fill="grey">m_name</text>
</g>
<!-- Node6&#45;&gt;Node5 -->
<g id="edge5_Node000005_Node000006" class="edge">
<title>Node6&#45;&gt;Node5</title>
<g id="a_edge5_Node000005_Node000006"><a xlink:title=" ">
<path fill="none" stroke="#9a32cd" stroke-dasharray="5,2" d="M537.18,-223.55C590.03,-220.45 681.54,-215.07 741.93,-211.53"/>
<polygon fill="#9a32cd" stroke="#9a32cd" points="536.92,-220.06 527.15,-224.14 537.33,-227.05 536.92,-220.06"/>
</a>
</g>
<text text-anchor="start" x="650.5" y="-224.5" font-family="Helvetica,sans-Serif" font-size="10.00" fill="grey">keys</text>
</g>
<!-- Node12 -->
<g id="Node000012" class="node">
<title>Node12</title>
<g id="a_Node000012"><a xlink:href="structamr__wind_1_1_field_info.html" target="_top" xlink:title=" ">
<polygon fill="white" stroke="#666666" points="859.5,-149.5 746.5,-149.5 746.5,-130.5 859.5,-130.5 859.5,-149.5"/>
<text text-anchor="middle" x="803" y="-137.5" font-family="Helvetica,sans-Serif" font-size="10.00">amr_wind::FieldInfo</text>
</a>
</g>
</g>
<!-- Node6&#45;&gt;Node12 -->
<g id="edge13_Node000012_Node000006" class="edge">
<title>Node6&#45;&gt;Node12</title>
<g id="a_edge13_Node000012_Node000006"><a xlink:title=" ">
<path fill="none" stroke="#9a32cd" stroke-dasharray="5,2" d="M531.25,-213.12C551.08,-206.18 576.27,-197.69 599,-191 654.08,-174.8 718.5,-159.17 759.75,-149.58"/>
<polygon fill="#9a32cd" stroke="#9a32cd" points="529.96,-209.87 521.69,-216.5 532.28,-216.47 529.96,-209.87"/>
</a>
</g>
<text text-anchor="start" x="628.5" y="-196.5" font-family="Helvetica,sans-Serif" font-size="10.00" fill="grey">m_basename</text>
</g>
<!-- Node7 -->
<g id="Node000007" class="node">
<title>Node7</title>
<g id="a_Node000007"><a xlink:title=" ">
<polygon fill="white" stroke="#666666" points="208.5,-246 104.5,-246 104.5,-216 208.5,-216 208.5,-246"/>
<text text-anchor="start" x="112.5" y="-234" font-family="Helvetica,sans-Serif" font-size="10.00">std::basic_string&lt;</text>
<text text-anchor="middle" x="156.5" y="-223" font-family="Helvetica,sans-Serif" font-size="10.00"> Char &gt;</text>
</a>
</g>
</g>
<!-- Node7&#45;&gt;Node6 -->
<g id="edge6_Node000006_Node000007" class="edge">
<title>Node7&#45;&gt;Node6</title>
<g id="a_edge6_Node000006_Node000007"><a xlink:title=" ">
<path fill="none" stroke="#63b8ff" d="M218.76,-230.09C290.38,-229.02 406.16,-227.3 461.74,-226.47"/>
<polygon fill="#63b8ff" stroke="#63b8ff" points="218.48,-226.59 208.53,-230.24 218.58,-233.59 218.48,-226.59"/>
</a>
</g>
</g>
<!-- Node8 -->
<g id="Node000008" class="node">
<title>Node8</title>
<g id="a_Node000008"><a xlink:title=" ">
<polygon fill="white" stroke="#666666" points="551.5,-299 437.5,-299 437.5,-269 551.5,-269 551.5,-299"/>
<text text-anchor="start" x="445.5" y="-287" font-family="Helvetica,sans-Serif" font-size="10.00">std::unordered_map</text>
<text text-anchor="middle" x="494.5" y="-276" font-family="Helvetica,sans-Serif" font-size="10.00">&lt; K, T &gt;</text>
</a>
</g>
</g>
<!-- Node8&#45;&gt;Node5 -->
<g id="edge7_Node000005_Node000008" class="edge">
<title>Node8&#45;&gt;Node5</title>
<g id="a_edge7_Node000005_Node000008"><a xlink:title=" ">
<path fill="none" stroke="orange" stroke-dasharray="5,2" d="M561.81,-274.81C607.88,-267.56 670.37,-255.99 724,-240 739.29,-235.44 755.7,-228.96 769.5,-223.03"/>
<polygon fill="orange" stroke="orange" points="561,-271.39 551.65,-276.38 562.07,-278.31 561,-271.39"/>
</a>
</g>
<text text-anchor="start" x="608.5" y="-273.5" font-family="Helvetica,sans-Serif" font-size="10.00" fill="grey">&lt; std::string, size_t &gt;</text>
</g>
<!-- Node9 -->
<g id="Node000009" class="node">
<title>Node9</title>
<g id="a_Node000009"><a xlink:title=" ">
<polygon fill="white" stroke="#666666" points="171,-336.5 142,-336.5 142,-317.5 171,-317.5 171,-336.5"/>
<text text-anchor="middle" x="156.5" y="-324.5" font-family="Helvetica,sans-Serif" font-size="10.00">K</text>
</a>
</g>
</g>
<!-- Node9&#45;&gt;Node8 -->
<g id="edge8_Node000008_Node000009" class="edge">
<title>Node9&#45;&gt;Node8</title>
<g id="a_edge8_Node000008_Node000009"><a xlink:title=" ">
<path fill="none" stroke="#9a32cd" stroke-dasharray="5,2" d="M181.16,-323.97C234.01,-317.21 362.82,-300.72 437.48,-291.17"/>
<polygon fill="#9a32cd" stroke="#9a32cd" points="180.56,-320.52 171.09,-325.26 181.45,-327.46 180.56,-320.52"/>
</a>
</g>
<text text-anchor="start" x="307" y="-320.5" font-family="Helvetica,sans-Serif" font-size="10.00" fill="grey">keys</text>
</g>
<!-- Node10 -->
<g id="Node000010" class="node">
<title>Node10</title>
<g id="a_Node000010"><a xlink:title=" ">
<polygon fill="white" stroke="#666666" points="29,-126.5 0,-126.5 0,-107.5 29,-107.5 29,-126.5"/>
<text text-anchor="middle" x="14.5" y="-114.5" font-family="Helvetica,sans-Serif" font-size="10.00">T</text>
</a>
</g>
</g>
<!-- Node10&#45;&gt;Node8 -->
<g id="edge9_Node000008_Node000010" class="edge">
<title>Node10&#45;&gt;Node8</title>
<g id="a_edge9_Node000008_Node000010"><a xlink:title=" ">
<path fill="none" stroke="#9a32cd" stroke-dasharray="5,2" d="M19.11,-136.93C25.92,-168.09 43.84,-227.59 85,-255 141.22,-292.44 339.01,-290.28 437.25,-286.68"/>
<polygon fill="#9a32cd" stroke="#9a32cd" points="22.49,-135.96 17.08,-126.85 15.62,-137.34 22.49,-135.96"/>
</a>
</g>
<text text-anchor="start" x="133.5" y="-289.5" font-family="Helvetica,sans-Serif" font-size="10.00" fill="grey">elements</text>
</g>
<!-- Node15 -->
<g id="Node000015" class="node">
<title>Node15</title>
<g id="a_Node000015"><a xlink:title=" ">
<polygon fill="white" stroke="#666666" points="215.5,-126.5 97.5,-126.5 97.5,-107.5 215.5,-107.5 215.5,-126.5"/>
<text text-anchor="middle" x="156.5" y="-114.5" font-family="Helvetica,sans-Serif" font-size="10.00">std::unique_ptr&lt; T &gt;</text>
</a>
</g>
</g>
<!-- Node10&#45;&gt;Node15 -->
<g id="edge17_Node000015_Node000010" class="edge">
<title>Node10&#45;&gt;Node15</title>
<g id="a_edge17_Node000015_Node000010"><a xlink:title=" ">
<path fill="none" stroke="#9a32cd" stroke-dasharray="5,2" d="M39.23,-117C55.22,-117 77.05,-117 97.48,-117"/>
<polygon fill="#9a32cd" stroke="#9a32cd" points="39.18,-113.5 29.18,-117 39.18,-120.5 39.18,-113.5"/>
</a>
</g>
<text text-anchor="start" x="50" y="-122.5" font-family="Helvetica,sans-Serif" font-size="10.00" fill="grey">ptr</text>
</g>
<!-- Node16 -->
<g id="Node000016" class="node">
<title>Node16</title>
<g id="a_Node000016"><a xlink:title=" ">
<polygon fill="white" stroke="#666666" points="377,-56.5 259,-56.5 259,-37.5 377,-37.5 377,-56.5"/>
<text text-anchor="middle" x="318" y="-44.5" font-family="Helvetica,sans-Serif" font-size="10.00">std::shared_ptr&lt; T &gt;</text>
</a>
</g>
</g>
<!-- Node10&#45;&gt;Node16 -->
<g id="edge19_Node000016_Node000010" class="edge">
<title>Node10&#45;&gt;Node16</title>
<g id="a_edge19_Node000016_Node000010"><a xlink:title=" ">
<path fill="none" stroke="#9a32cd" stroke-dasharray="5,2" d="M35.78,-101.76C39.38,-99.57 43.2,-97.53 47,-96 116.58,-67.91 202.74,-55.83 258.74,-50.7"/>
<polygon fill="#9a32cd" stroke="#9a32cd" points="33.77,-98.9 27.41,-107.37 37.67,-104.71 33.77,-98.9"/>
</a>
</g>
<text text-anchor="start" x="50" y="-101.5" font-family="Helvetica,sans-Serif" font-size="10.00" fill="grey">ptr</text>
</g>
<!-- Node11 -->
<g id="Node000011" class="node">
<title>Node11</title>
<g id="a_Node000011"><a xlink:title=" ">
<polygon fill="white" stroke="#666666" points="1099,-155 979,-155 979,-125 1099,-125 1099,-155"/>
<text text-anchor="start" x="987" y="-143" font-family="Helvetica,sans-Serif" font-size="10.00">std::shared_ptr&lt; amr</text>
<text text-anchor="middle" x="1039" y="-132" font-family="Helvetica,sans-Serif" font-size="10.00">_wind::FieldInfo &gt;</text>
</a>
</g>
</g>
<!-- Node11&#45;&gt;Node3 -->
<g id="edge11_Node000003_Node000011" class="edge">
<title>Node11&#45;&gt;Node3</title>
<g id="a_edge11_Node000003_Node000011"><a xlink:title=" ">
<path fill="none" stroke="#9a32cd" stroke-dasharray="5,2" d="M1109.39,-149.7C1125.98,-152.05 1143.62,-154.59 1160,-157 1170.5,-158.55 1181.79,-160.25 1192.44,-161.87"/>
<polygon fill="#9a32cd" stroke="#9a32cd" points="1109.62,-146.2 1099.22,-148.26 1108.63,-153.13 1109.62,-146.2"/>
</a>
</g>
<text text-anchor="start" x="1121.5" y="-162.5" font-family="Helvetica,sans-Serif" font-size="10.00" fill="grey">m_info</text>
</g>
<!-- Node12&#45;&gt;Node11 -->
<g id="edge12_Node000011_Node000012" class="edge">
<title>Node12&#45;&gt;Node11</title>
<g id="a_edge12_Node000011_Node000012"><a xlink:title=" ">
<path fill="none" stroke="#9a32cd" stroke-dasharray="5,2" d="M870.13,-140C904.38,-140 945.85,-140 979,-140"/>
<polygon fill="#9a32cd" stroke="#9a32cd" points="869.75,-136.5 859.75,-140 869.75,-143.5 869.75,-136.5"/>
</a>
</g>
<text text-anchor="start" x="914.5" y="-145.5" font-family="Helvetica,sans-Serif" font-size="10.00" fill="grey">ptr</text>
</g>
<!-- Node13 -->
<g id="Node000013" class="node">
<title>Node13</title>
<g id="a_Node000013"><a xlink:title=" ">
<polygon fill="white" stroke="#666666" points="579,-156 410,-156 410,-126 579,-126 579,-156"/>
<text text-anchor="start" x="418" y="-144" font-family="Helvetica,sans-Serif" font-size="10.00">std::unique_ptr&lt; amr</text>
<text text-anchor="middle" x="494.5" y="-133" font-family="Helvetica,sans-Serif" font-size="10.00">_wind::FieldFillPatchOpsBase &gt;</text>
</a>
</g>
</g>
<!-- Node13&#45;&gt;Node12 -->
<g id="edge14_Node000012_Node000013" class="edge">
<title>Node13&#45;&gt;Node12</title>
<g id="a_edge14_Node000012_Node000013"><a xlink:title=" ">
<path fill="none" stroke="#9a32cd" stroke-dasharray="5,2" d="M589.15,-140.05C592.47,-140.03 595.77,-140.02 599,-140 648.87,-139.76 705.63,-139.78 746.43,-139.86"/>
<polygon fill="#9a32cd" stroke="#9a32cd" points="589.08,-136.55 579.1,-140.12 589.13,-143.55 589.08,-136.55"/>
</a>
</g>
<text text-anchor="start" x="625.5" y="-145.5" font-family="Helvetica,sans-Serif" font-size="10.00" fill="grey">m_fillpatch_op</text>
</g>
<!-- Node14 -->
<g id="Node000014" class="node">
<title>Node14</title>
<g id="a_Node000014"><a xlink:href="classamr__wind_1_1_field_fill_patch_ops_base.html" target="_top" xlink:title=" ">
<polygon fill="white" stroke="#666666" points="223.5,-198 89.5,-198 89.5,-168 223.5,-168 223.5,-198"/>
<text text-anchor="start" x="97.5" y="-186" font-family="Helvetica,sans-Serif" font-size="10.00">amr_wind::FieldFillPatch</text>
<text text-anchor="middle" x="156.5" y="-175" font-family="Helvetica,sans-Serif" font-size="10.00">OpsBase</text>
</a>
</g>
</g>
<!-- Node14&#45;&gt;Node13 -->
<g id="edge15_Node000013_Node000014" class="edge">
<title>Node14&#45;&gt;Node13</title>
<g id="a_edge15_Node000013_Node000014"><a xlink:title=" ">
<path fill="none" stroke="#9a32cd" stroke-dasharray="5,2" d="M233.62,-181.74C279.22,-180.09 338.21,-176.35 390,-168 407.69,-165.15 426.75,-160.61 443.64,-156.06"/>
<polygon fill="#9a32cd" stroke="#9a32cd" points="233.39,-178.25 223.52,-182.09 233.63,-185.25 233.39,-178.25"/>
</a>
</g>
<text text-anchor="start" x="311" y="-187.5" font-family="Helvetica,sans-Serif" font-size="10.00" fill="grey">ptr</text>
</g>
<!-- Node15&#45;&gt;Node13 -->
<g id="edge16_Node000013_Node000015" class="edge">
<title>Node15&#45;&gt;Node13</title>
<g id="a_edge16_Node000013_Node000015"><a xlink:title=" ">
<path fill="none" stroke="orange" stroke-dasharray="5,2" d="M225.67,-121.87C278.91,-125.67 353.15,-130.97 409.96,-135.03"/>
<polygon fill="orange" stroke="orange" points="225.87,-118.37 215.64,-121.15 225.37,-125.36 225.87,-118.37"/>
</a>
</g>
<text text-anchor="start" x="253" y="-155" font-family="Helvetica,sans-Serif" font-size="10.00" fill="grey">&lt; amr_wind::FieldFillPatch</text>
<text text-anchor="start" x="253" y="-140" font-family="Helvetica,sans-Serif" font-size="10.00" fill="grey">  OpsBase &gt;</text>
</g>
<!-- Node17 -->
<g id="Node000017" class="node">
<title>Node17</title>
<g id="a_Node000017"><a xlink:title=" ">
<polygon fill="white" stroke="#666666" points="581,-70 408,-70 408,-40 581,-40 581,-70"/>
<text text-anchor="start" x="416" y="-58" font-family="Helvetica,sans-Serif" font-size="10.00">std::unique_ptr&lt; amr</text>
<text text-anchor="middle" x="494.5" y="-47" font-family="Helvetica,sans-Serif" font-size="10.00">_wind::RayleighTaylorFieldInit &gt;</text>
</a>
</g>
</g>
<!-- Node15&#45;&gt;Node17 -->
<g id="edge22_Node000017_Node000015" class="edge">
<title>Node15&#45;&gt;Node17</title>
<g id="a_edge22_Node000017_Node000015"><a xlink:title=" ">
<path fill="none" stroke="orange" stroke-dasharray="5,2" d="M192.28,-103.96C208.42,-98.34 227.99,-92.12 246,-88 299.14,-75.86 359.8,-67.68 407.76,-62.51"/>
<polygon fill="orange" stroke="orange" points="190.96,-100.71 182.71,-107.36 193.31,-107.31 190.96,-100.71"/>
</a>
</g>
<text text-anchor="start" x="249" y="-109" font-family="Helvetica,sans-Serif" font-size="10.00" fill="grey">&lt; amr_wind::RayleighTaylor</text>
<text text-anchor="start" x="249" y="-94" font-family="Helvetica,sans-Serif" font-size="10.00" fill="grey">  FieldInit &gt;</text>
</g>
<!-- Node16&#45;&gt;Node11 -->
<g id="edge18_Node000011_Node000016" class="edge">
<title>Node16&#45;&gt;Node11</title>
<g id="a_edge18_Node000011_Node000016"><a xlink:title=" ">
<path fill="none" stroke="orange" stroke-dasharray="5,2" d="M386.96,-59.46C387.99,-59.96 389,-60.47 390,-61 399.98,-66.32 397.76,-74.2 408,-79 500.13,-122.22 762.75,-110.81 864,-121 902.25,-124.85 945.18,-129.53 978.83,-133.29"/>
<polygon fill="orange" stroke="orange" points="387.92,-56.08 377.34,-55.53 385.27,-62.56 387.92,-56.08"/>
</a>
</g>
<text text-anchor="start" x="602.5" y="-121.5" font-family="Helvetica,sans-Serif" font-size="10.00" fill="grey">&lt; amr_wind::FieldInfo &gt;</text>
</g>
<!-- Node17&#45;&gt;Node1 -->
<g id="edge20_Node000001_Node000017" class="edge">
<title>Node17&#45;&gt;Node1</title>
<g id="a_edge20_Node000001_Node000017"><a xlink:title=" ">
<path fill="none" stroke="#9a32cd" stroke-dasharray="5,2" d="M591.33,-56.42C651.77,-57.2 731.45,-58 802,-58 802,-58 802,-58 1240.5,-58 1332.51,-58 1426.25,-131.98 1457.57,-159.15"/>
<polygon fill="#9a32cd" stroke="#9a32cd" points="591.09,-52.92 581.04,-56.29 591,-59.92 591.09,-52.92"/>
</a>
</g>
<text text-anchor="start" x="1010" y="-63.5" font-family="Helvetica,sans-Serif" font-size="10.00" fill="grey">m_field_init</text>
</g>
<!-- Node18 -->
<g id="Node000018" class="node">
<title>Node18</title>
<g id="a_Node000018"><a xlink:href="classamr__wind_1_1_rayleigh_taylor_field_init.html" target="_top" xlink:title=" ">
<polygon fill="white" stroke="#666666" points="228,-30 85,-30 85,0 228,0 228,-30"/>
<text text-anchor="start" x="93" y="-18" font-family="Helvetica,sans-Serif" font-size="10.00">amr_wind::RayleighTaylor</text>
<text text-anchor="middle" x="156.5" y="-7" font-family="Helvetica,sans-Serif" font-size="10.00">FieldInit</text>
</a>
</g>
</g>
<!-- Node18&#45;&gt;Node17 -->
<g id="edge21_Node000017_Node000018" class="edge">
<title>Node18&#45;&gt;Node17</title>
<g id="a_edge21_Node000017_Node000018"><a xlink:title=" ">
<path fill="none" stroke="#9a32cd" stroke-dasharray="5,2" d="M238.19,-5.08C283.29,-1.65 340.26,-0.87 390,-11 417.17,-16.54 446.04,-29.47 466.37,-39.89"/>
<polygon fill="#9a32cd" stroke="#9a32cd" points="237.86,-1.59 228.17,-5.89 238.43,-8.57 237.86,-1.59"/>
</a>
</g>
<text text-anchor="start" x="311" y="-16.5" font-family="Helvetica,sans-Serif" font-size="10.00" fill="grey">ptr</text>
</g>
</g>
</svg>
