<?xml version="1.0" encoding="UTF-8" standalone="no"?>
<!DOCTYPE svg PUBLIC "-//W3C//DTD SVG 1.1//EN"
 "http://www.w3.org/Graphics/SVG/1.1/DTD/svg11.dtd">
<!-- Generated by graphviz version 2.43.0 (0)
 -->
<!-- Title: amr_wind::pde::icns::GravityForcing Pages: 1 -->
<svg width="617pt" height="581pt"
 viewBox="0.00 0.00 617.00 581.00" xmlns="http://www.w3.org/2000/svg" xmlns:xlink="http://www.w3.org/1999/xlink">
<g id="graph0" class="graph" transform="scale(1 1) rotate(0) translate(4 577)">
<title>amr_wind::pde::icns::GravityForcing</title>
<!-- Node1 -->
<g id="Node000001" class="node">
<title>Node1</title>
<g id="a_Node000001"><a xlink:title=" ">
<polygon fill="#999999" stroke="#666666" points="383,-30 269,-30 269,0 383,0 383,-30"/>
<text text-anchor="start" x="277" y="-18" font-family="Helvetica,sans-Serif" font-size="10.00">amr_wind::pde::icns</text>
<text text-anchor="middle" x="326" y="-7" font-family="Helvetica,sans-Serif" font-size="10.00">::GravityForcing</text>
</a>
</g>
</g>
<!-- Node2 -->
<g id="Node000002" class="node">
<title>Node2</title>
<g id="a_Node000002"><a xlink:title=" ">
<polygon fill="white" stroke="#666666" points="380.5,-139 239.5,-139 239.5,-98 380.5,-98 380.5,-139"/>
<text text-anchor="start" x="247.5" y="-127" font-family="Helvetica,sans-Serif" font-size="10.00">amr_wind::Factory&lt;</text>
<text text-anchor="start" x="247.5" y="-116" font-family="Helvetica,sans-Serif" font-size="10.00"> MomentumSource, const</text>
<text text-anchor="middle" x="310" y="-105" font-family="Helvetica,sans-Serif" font-size="10.00"> CFDSim &amp; &gt;::Register</text>
</a>
</g>
</g>
<!-- Node2&#45;&gt;Node1 -->
<g id="edge1_Node000001_Node000002" class="edge">
<title>Node2&#45;&gt;Node1</title>
<g id="a_edge1_Node000001_Node000002"><a xlink:title=" ">
<path fill="none" stroke="#63b8ff" d="M314.66,-87.97C317.65,-68.99 321.4,-45.18 323.75,-30.27"/>
<polygon fill="#63b8ff" stroke="#63b8ff" points="311.18,-87.51 313.08,-97.93 318.1,-88.6 311.18,-87.51"/>
</a>
</g>
</g>
<!-- Node3 -->
<g id="Node000003" class="node">
<title>Node3</title>
<g id="a_Node000003"><a xlink:href="classamr__wind_1_1_field.html" target="_top" xlink:title=" ">
<polygon fill="white" stroke="#666666" points="493,-128 399,-128 399,-109 493,-109 493,-128"/>
<text text-anchor="middle" x="446" y="-116" font-family="Helvetica,sans-Serif" font-size="10.00">amr_wind::Field</text>
</a>
</g>
</g>
<!-- Node3&#45;&gt;Node1 -->
<g id="edge2_Node000001_Node000003" class="edge">
<title>Node3&#45;&gt;Node1</title>
<g id="a_edge2_Node000001_Node000003"><a xlink:title=" ">
<path fill="none" stroke="#9a32cd" stroke-dasharray="5,2" d="M428.08,-102.34C404.97,-82.79 365.09,-49.06 342.63,-30.06"/>
<polygon fill="#9a32cd" stroke="#9a32cd" points="425.87,-105.06 435.77,-108.85 430.39,-99.72 425.87,-105.06"/>
</a>
</g>
<text text-anchor="start" x="404.5" y="-69" font-family="Helvetica,sans-Serif" font-size="10.00" fill="grey">m_rho</text>
<text text-anchor="start" x="404.5" y="-54" font-family="Helvetica,sans-Serif" font-size="10.00" fill="grey">m_rho0</text>
</g>
<!-- Node4 -->
<g id="Node000004" class="node">
<title>Node4</title>
<g id="a_Node000004"><a xlink:href="classamr__wind_1_1_field_repo.html" target="_top" xlink:title=" ">
<polygon fill="white" stroke="#666666" points="505.5,-216.5 386.5,-216.5 386.5,-197.5 505.5,-197.5 505.5,-216.5"/>
<text text-anchor="middle" x="446" y="-204.5" font-family="Helvetica,sans-Serif" font-size="10.00">amr_wind::FieldRepo</text>
</a>
</g>
</g>
<!-- Node4&#45;&gt;Node3 -->
<g id="edge3_Node000003_Node000004" class="edge">
<title>Node4&#45;&gt;Node3</title>
<g id="a_edge3_Node000003_Node000004"><a xlink:title=" ">
<path fill="none" stroke="#9a32cd" stroke-dasharray="5,2" d="M446,-187.3C446,-168.95 446,-141.78 446,-128.08"/>
<polygon fill="#9a32cd" stroke="#9a32cd" points="442.5,-187.39 446,-197.39 449.5,-187.39 442.5,-187.39"/>
</a>
</g>
<text text-anchor="start" x="449.5" y="-162.5" font-family="Helvetica,sans-Serif" font-size="10.00" fill="grey">m_repo</text>
</g>
<!-- Node5 -->
<g id="Node000005" class="node">
<title>Node5</title>
<g id="a_Node000005"><a xlink:title=" ">
<polygon fill="white" stroke="#666666" points="507,-320 385,-320 385,-290 507,-290 507,-320"/>
<text text-anchor="start" x="393" y="-308" font-family="Helvetica,sans-Serif" font-size="10.00">std::unordered_map</text>
<text text-anchor="middle" x="446" y="-297" font-family="Helvetica,sans-Serif" font-size="10.00">&lt; std::string, size_t &gt;</text>
</a>
</g>
</g>
<!-- Node5&#45;&gt;Node4 -->
<g id="edge4_Node000004_Node000005" class="edge">
<title>Node5&#45;&gt;Node4</title>
<g id="a_edge4_Node000004_Node000005"><a xlink:title=" ">
<path fill="none" stroke="#9a32cd" stroke-dasharray="5,2" d="M446,-279.58C446,-258.92 446,-230.52 446,-216.51"/>
<polygon fill="#9a32cd" stroke="#9a32cd" points="442.5,-279.83 446,-289.83 449.5,-279.83 442.5,-279.83"/>
</a>
</g>
<text text-anchor="start" x="449.5" y="-261" font-family="Helvetica,sans-Serif" font-size="10.00" fill="grey">m_fid_map</text>
<text text-anchor="start" x="449.5" y="-246" font-family="Helvetica,sans-Serif" font-size="10.00" fill="grey">m_int_fid_map</text>
</g>
<!-- Node6 -->
<g id="Node000006" class="node">
<title>Node6</title>
<g id="a_Node000006"><a xlink:title=" ">
<polygon fill="white" stroke="#666666" points="589.5,-397.5 524.5,-397.5 524.5,-378.5 589.5,-378.5 589.5,-397.5"/>
<text text-anchor="middle" x="557" y="-385.5" font-family="Helvetica,sans-Serif" font-size="10.00">std::string</text>
</a>
</g>
</g>
<!-- Node6&#45;&gt;Node3 -->
<g id="edge10_Node000003_Node000006" class="edge">
<title>Node6&#45;&gt;Node3</title>
<g id="a_edge10_Node000003_Node000006"><a xlink:title=" ">
<path fill="none" stroke="#9a32cd" stroke-dasharray="5,2" d="M571.94,-370.29C575.24,-365.65 578.26,-360.4 580,-355 582.32,-347.81 581.59,-345.39 580,-338 565,-268.39 547.04,-255.08 514,-192 505.58,-175.93 504.95,-170.65 493,-157 483.1,-145.69 469.47,-135.24 459.43,-128.26"/>
<polygon fill="#9a32cd" stroke="#9a32cd" points="569.03,-368.33 565.54,-378.34 574.51,-372.69 569.03,-368.33"/>
</a>
</g>
<text text-anchor="start" x="561.5" y="-253" font-family="Helvetica,sans-Serif" font-size="10.00" fill="grey">m_name</text>
</g>
<!-- Node6&#45;&gt;Node5 -->
<g id="edge5_Node000005_Node000006" class="edge">
<title>Node6&#45;&gt;Node5</title>
<g id="a_edge5_Node000005_Node000006"><a xlink:title=" ">
<path fill="none" stroke="#9a32cd" stroke-dasharray="5,2" d="M552.54,-368.5C549.23,-358.29 543.73,-346.09 535,-338 526.81,-330.41 516.69,-324.6 506.24,-320.15"/>
<polygon fill="#9a32cd" stroke="#9a32cd" points="549.18,-369.47 555.25,-378.16 555.92,-367.58 549.18,-369.47"/>
</a>
</g>
<text text-anchor="start" x="550.5" y="-343.5" font-family="Helvetica,sans-Serif" font-size="10.00" fill="grey">keys</text>
</g>
<!-- Node12 -->
<g id="Node000012" class="node">
<title>Node12</title>
<g id="a_Node000012"><a xlink:href="structamr__wind_1_1_field_info.html" target="_top" xlink:title=" ">
<polygon fill="white" stroke="#666666" points="307.5,-314.5 194.5,-314.5 194.5,-295.5 307.5,-295.5 307.5,-314.5"/>
<text text-anchor="middle" x="251" y="-302.5" font-family="Helvetica,sans-Serif" font-size="10.00">amr_wind::FieldInfo</text>
</a>
</g>
</g>
<!-- Node6&#45;&gt;Node12 -->
<g id="edge13_Node000012_Node000006" class="edge">
<title>Node6&#45;&gt;Node12</title>
<g id="a_edge13_Node000012_Node000006"><a xlink:title=" ">
<path fill="none" stroke="#9a32cd" stroke-dasharray="5,2" d="M514.61,-377.49C496.45,-372.38 475.45,-365.02 458,-355 448.17,-349.36 449.21,-342.92 439,-338 416.33,-327.07 354.31,-317.84 307.65,-312.14"/>
<polygon fill="#9a32cd" stroke="#9a32cd" points="513.81,-380.9 524.37,-380.11 515.62,-374.14 513.81,-380.9"/>
</a>
</g>
<text text-anchor="start" x="461.5" y="-343.5" font-family="Helvetica,sans-Serif" font-size="10.00" fill="grey">m_basename</text>
</g>
<!-- Node7 -->
<g id="Node000007" class="node">
<title>Node7</title>
<g id="a_Node000007"><a xlink:title=" ">
<polygon fill="white" stroke="#666666" points="609,-501 505,-501 505,-471 609,-471 609,-501"/>
<text text-anchor="start" x="513" y="-489" font-family="Helvetica,sans-Serif" font-size="10.00">std::basic_string&lt;</text>
<text text-anchor="middle" x="557" y="-478" font-family="Helvetica,sans-Serif" font-size="10.00"> Char &gt;</text>
</a>
</g>
</g>
<!-- Node7&#45;&gt;Node6 -->
<g id="edge6_Node000006_Node000007" class="edge">
<title>Node7&#45;&gt;Node6</title>
<g id="a_edge6_Node000006_Node000007"><a xlink:title=" ">
<path fill="none" stroke="#63b8ff" d="M557,-460.58C557,-439.92 557,-411.52 557,-397.51"/>
<polygon fill="#63b8ff" stroke="#63b8ff" points="553.5,-460.83 557,-470.83 560.5,-460.83 553.5,-460.83"/>
</a>
</g>
</g>
<!-- Node8 -->
<g id="Node000008" class="node">
<title>Node8</title>
<g id="a_Node000008"><a xlink:title=" ">
<polygon fill="white" stroke="#666666" points="443,-403 329,-403 329,-373 443,-373 443,-403"/>
<text text-anchor="start" x="337" y="-391" font-family="Helvetica,sans-Serif" font-size="10.00">std::unordered_map</text>
<text text-anchor="middle" x="386" y="-380" font-family="Helvetica,sans-Serif" font-size="10.00">&lt; K, T &gt;</text>
</a>
</g>
</g>
<!-- Node8&#45;&gt;Node5 -->
<g id="edge7_Node000005_Node000008" class="edge">
<title>Node8&#45;&gt;Node5</title>
<g id="a_edge7_Node000005_Node000008"><a xlink:title=" ">
<path fill="none" stroke="orange" stroke-dasharray="5,2" d="M340.06,-367.74C327.02,-359.49 318.43,-349.18 327,-338 334.55,-328.15 359.69,-320.66 384.93,-315.41"/>
<polygon fill="orange" stroke="orange" points="338.7,-370.99 349.13,-372.85 342.14,-364.89 338.7,-370.99"/>
</a>
</g>
<text text-anchor="start" x="330" y="-343.5" font-family="Helvetica,sans-Serif" font-size="10.00" fill="grey">&lt; std::string, size_t &gt;</text>
</g>
<!-- Node9 -->
<g id="Node000009" class="node">
<title>Node9</title>
<g id="a_Node000009"><a xlink:title=" ">
<polygon fill="white" stroke="#666666" points="485.5,-495.5 456.5,-495.5 456.5,-476.5 485.5,-476.5 485.5,-495.5"/>
<text text-anchor="middle" x="471" y="-483.5" font-family="Helvetica,sans-Serif" font-size="10.00">K</text>
</a>
</g>
</g>
<!-- Node9&#45;&gt;Node8 -->
<g id="edge8_Node000008_Node000009" class="edge">
<title>Node9&#45;&gt;Node8</title>
<g id="a_edge8_Node000008_Node000009"><a xlink:title=" ">
<path fill="none" stroke="#9a32cd" stroke-dasharray="5,2" d="M456.77,-468.92C440.49,-450.54 414.1,-420.74 398.56,-403.18"/>
<polygon fill="#9a32cd" stroke="#9a32cd" points="454.21,-471.31 463.46,-476.48 459.45,-466.67 454.21,-471.31"/>
</a>
</g>
<text text-anchor="start" x="445.5" y="-434" font-family="Helvetica,sans-Serif" font-size="10.00" fill="grey">keys</text>
</g>
<!-- Node10 -->
<g id="Node000010" class="node">
<title>Node10</title>
<g id="a_Node000010"><a xlink:title=" ">
<polygon fill="white" stroke="#666666" points="305.5,-573 276.5,-573 276.5,-554 305.5,-554 305.5,-573"/>
<text text-anchor="middle" x="291" y="-561" font-family="Helvetica,sans-Serif" font-size="10.00">T</text>
</a>
</g>
</g>
<!-- Node10&#45;&gt;Node8 -->
<g id="edge9_Node000008_Node000010" class="edge">
<title>Node10&#45;&gt;Node8</title>
<g id="a_edge9_Node000008_Node000010"><a xlink:title=" ">
<path fill="none" stroke="#9a32cd" stroke-dasharray="5,2" d="M312.65,-548.07C327.76,-536.91 347.25,-520.17 359,-501 378.24,-469.63 383.77,-425.49 385.36,-403.15"/>
<polygon fill="#9a32cd" stroke="#9a32cd" points="310.47,-545.32 304.35,-553.97 314.53,-551.02 310.47,-545.32"/>
</a>
</g>
<text text-anchor="start" x="376" y="-483" font-family="Helvetica,sans-Serif" font-size="10.00" fill="grey">elements</text>
</g>
<!-- Node15 -->
<g id="Node000015" class="node">
<title>Node15</title>
<g id="a_Node000015"><a xlink:title=" ">
<polygon fill="white" stroke="#666666" points="350,-495.5 232,-495.5 232,-476.5 350,-476.5 350,-495.5"/>
<text text-anchor="middle" x="291" y="-483.5" font-family="Helvetica,sans-Serif" font-size="10.00">std::unique_ptr&lt; T &gt;</text>
</a>
</g>
</g>
<!-- Node10&#45;&gt;Node15 -->
<g id="edge17_Node000015_Node000010" class="edge">
<title>Node10&#45;&gt;Node15</title>
<g id="a_edge17_Node000015_Node000010"><a xlink:title=" ">
<path fill="none" stroke="#9a32cd" stroke-dasharray="5,2" d="M291,-543.4C291,-528.01 291,-507.11 291,-495.56"/>
<polygon fill="#9a32cd" stroke="#9a32cd" points="287.5,-543.84 291,-553.84 294.5,-543.84 287.5,-543.84"/>
</a>
</g>
<text text-anchor="start" x="294" y="-524.5" font-family="Helvetica,sans-Serif" font-size="10.00" fill="grey">ptr</text>
</g>
<!-- Node16 -->
<g id="Node000016" class="node">
<title>Node16</title>
<g id="a_Node000016"><a xlink:title=" ">
<polygon fill="white" stroke="#666666" points="118,-446.5 0,-446.5 0,-427.5 118,-427.5 118,-446.5"/>
<text text-anchor="middle" x="59" y="-434.5" font-family="Helvetica,sans-Serif" font-size="10.00">std::shared_ptr&lt; T &gt;</text>
</a>
</g>
</g>
<!-- Node10&#45;&gt;Node16 -->
<g id="edge19_Node000016_Node000010" class="edge">
<title>Node10&#45;&gt;Node16</title>
<g id="a_edge19_Node000016_Node000010"><a xlink:title=" ">
<path fill="none" stroke="#9a32cd" stroke-dasharray="5,2" d="M266.07,-563.4C220.2,-563.61 122.44,-556.98 71,-501 57.14,-485.92 57,-459.97 58.02,-446.57"/>
<polygon fill="#9a32cd" stroke="#9a32cd" points="266.36,-566.9 276.3,-563.24 266.24,-559.9 266.36,-566.9"/>
</a>
</g>
<text text-anchor="start" x="120" y="-524.5" font-family="Helvetica,sans-Serif" font-size="10.00" fill="grey">ptr</text>
</g>
<!-- Node11 -->
<g id="Node000011" class="node">
<title>Node11</title>
<g id="a_Node000011"><a xlink:title=" ">
<polygon fill="white" stroke="#666666" points="311,-222 191,-222 191,-192 311,-192 311,-222"/>
<text text-anchor="start" x="199" y="-210" font-family="Helvetica,sans-Serif" font-size="10.00">std::shared_ptr&lt; amr</text>
<text text-anchor="middle" x="251" y="-199" font-family="Helvetica,sans-Serif" font-size="10.00">_wind::FieldInfo &gt;</text>
</a>
</g>
</g>
<!-- Node11&#45;&gt;Node3 -->
<g id="edge11_Node000003_Node000011" class="edge">
<title>Node11&#45;&gt;Node3</title>
<g id="a_edge11_Node000003_Node000011"><a xlink:title=" ">
<path fill="none" stroke="#9a32cd" stroke-dasharray="5,2" d="M292.03,-187.8C333.42,-169.44 395.52,-141.89 426.69,-128.06"/>
<polygon fill="#9a32cd" stroke="#9a32cd" points="290.49,-184.66 282.76,-191.91 293.32,-191.05 290.49,-184.66"/>
</a>
</g>
<text text-anchor="start" x="364" y="-162.5" font-family="Helvetica,sans-Serif" font-size="10.00" fill="grey">m_info</text>
</g>
<!-- Node12&#45;&gt;Node11 -->
<g id="edge12_Node000011_Node000012" class="edge">
<title>Node12&#45;&gt;Node11</title>
<g id="a_edge12_Node000011_Node000012"><a xlink:title=" ">
<path fill="none" stroke="#9a32cd" stroke-dasharray="5,2" d="M251,-285.37C251,-266.88 251,-238.94 251,-222.18"/>
<polygon fill="#9a32cd" stroke="#9a32cd" points="247.5,-285.48 251,-295.48 254.5,-285.48 247.5,-285.48"/>
</a>
</g>
<text text-anchor="start" x="254" y="-253" font-family="Helvetica,sans-Serif" font-size="10.00" fill="grey">ptr</text>
</g>
<!-- Node13 -->
<g id="Node000013" class="node">
<title>Node13</title>
<g id="a_Node000013"><a xlink:title=" ">
<polygon fill="white" stroke="#666666" points="309.5,-403 140.5,-403 140.5,-373 309.5,-373 309.5,-403"/>
<text text-anchor="start" x="148.5" y="-391" font-family="Helvetica,sans-Serif" font-size="10.00">std::unique_ptr&lt; amr</text>
<text text-anchor="middle" x="225" y="-380" font-family="Helvetica,sans-Serif" font-size="10.00">_wind::FieldFillPatchOpsBase &gt;</text>
</a>
</g>
</g>
<!-- Node13&#45;&gt;Node12 -->
<g id="edge14_Node000012_Node000013" class="edge">
<title>Node13&#45;&gt;Node12</title>
<g id="a_edge14_Node000012_Node000013"><a xlink:title=" ">
<path fill="none" stroke="#9a32cd" stroke-dasharray="5,2" d="M222.48,-362.86C222.41,-354.76 223.22,-345.8 226,-338 229.21,-328.97 236.07,-320.5 241.79,-314.55"/>
<polygon fill="#9a32cd" stroke="#9a32cd" points="218.98,-363.03 222.97,-372.85 225.97,-362.69 218.98,-363.03"/>
</a>
</g>
<text text-anchor="start" x="229" y="-343.5" font-family="Helvetica,sans-Serif" font-size="10.00" fill="grey">m_fillpatch_op</text>
</g>
<!-- Node14 -->
<g id="Node000014" class="node">
<title>Node14</title>
<g id="a_Node000014"><a xlink:href="classamr__wind_1_1_field_fill_patch_ops_base.html" target="_top" xlink:title=" ">
<polygon fill="white" stroke="#666666" points="214,-501 80,-501 80,-471 214,-471 214,-501"/>
<text text-anchor="start" x="88" y="-489" font-family="Helvetica,sans-Serif" font-size="10.00">amr_wind::FieldFillPatch</text>
<text text-anchor="middle" x="147" y="-478" font-family="Helvetica,sans-Serif" font-size="10.00">OpsBase</text>
</a>
</g>
</g>
<!-- Node14&#45;&gt;Node13 -->
<g id="edge15_Node000013_Node000014" class="edge">
<title>Node14&#45;&gt;Node13</title>
<g id="a_edge15_Node000013_Node000014"><a xlink:title=" ">
<path fill="none" stroke="#9a32cd" stroke-dasharray="5,2" d="M164.9,-462.97C179.82,-444.61 200.64,-418.99 213.44,-403.22"/>
<polygon fill="#9a32cd" stroke="#9a32cd" points="162.1,-460.87 158.51,-470.83 167.53,-465.28 162.1,-460.87"/>
</a>
</g>
<text text-anchor="start" x="201" y="-434" font-family="Helvetica,sans-Serif" font-size="10.00" fill="grey">ptr</text>
</g>
<!-- Node15&#45;&gt;Node13 -->
<g id="edge16_Node000013_Node000015" class="edge">
<title>Node15&#45;&gt;Node13</title>
<g id="a_edge16_Node000013_Node000015"><a xlink:title=" ">
<path fill="none" stroke="orange" stroke-dasharray="5,2" d="M257.81,-471.84C249.53,-467.07 241.46,-460.86 236,-453 225.77,-438.28 224.01,-417.15 224.14,-403.26"/>
<polygon fill="orange" stroke="orange" points="256.27,-474.99 266.77,-476.46 259.49,-468.77 256.27,-474.99"/>
</a>
</g>
<text text-anchor="start" x="239" y="-442" font-family="Helvetica,sans-Serif" font-size="10.00" fill="grey">&lt; amr_wind::FieldFillPatch</text>
<text text-anchor="start" x="239" y="-427" font-family="Helvetica,sans-Serif" font-size="10.00" fill="grey">  OpsBase &gt;</text>
</g>
<!-- Node16&#45;&gt;Node11 -->
<g id="edge18_Node000011_Node000016" class="edge">
<title>Node16&#45;&gt;Node11</title>
<g id="a_edge18_Node000011_Node000016"><a xlink:title=" ">
<path fill="none" stroke="orange" stroke-dasharray="5,2" d="M62.54,-417.37C67.16,-396.57 76.77,-362.59 94,-338 130.35,-286.12 192.62,-243.23 226.8,-222.13"/>
<polygon fill="orange" stroke="orange" points="59.05,-416.93 60.47,-427.43 65.91,-418.34 59.05,-416.93"/>
</a>
</g>
<text text-anchor="start" x="97.5" y="-343.5" font-family="Helvetica,sans-Serif" font-size="10.00" fill="grey">&lt; amr_wind::FieldInfo &gt;</text>
</g>
</g>
</svg>
