<?xml version="1.0" encoding="UTF-8" standalone="no"?>
<!DOCTYPE svg PUBLIC "-//W3C//DTD SVG 1.1//EN"
 "http://www.w3.org/Graphics/SVG/1.1/DTD/svg11.dtd">
<!-- Generated by graphviz version 2.43.0 (0)
 -->
<!-- Title: incflo::Evolve Pages: 1 -->
<svg width="275pt" height="583pt"
 viewBox="0.00 0.00 275.00 582.50" xmlns="http://www.w3.org/2000/svg" xmlns:xlink="http://www.w3.org/1999/xlink">
<g id="graph0" class="graph" transform="scale(1 1) rotate(0) translate(4 578.5)">
<title>incflo::Evolve</title>
<!-- Node1 -->
<g id="Node000001" class="node">
<title>Node1</title>
<g id="a_Node000001"><a xlink:title=" ">
<polygon fill="#999999" stroke="#666666" points="82,-312.5 0,-312.5 0,-293.5 82,-293.5 82,-312.5"/>
<text text-anchor="middle" x="41" y="-300.5" font-family="Helvetica,sans-Serif" font-size="10.00">incflo::Evolve</text>
</a>
</g>
</g>
<!-- Node2 -->
<g id="Node000002" class="node">
<title>Node2</title>
<g id="a_Node000002"><a xlink:href="classincflo.html#a24c9953c346c266e1e5be73f0ae34667" target="_top" xlink:title=" ">
<polygon fill="white" stroke="#666666" points="267,-574.5 118,-574.5 118,-555.5 267,-555.5 267,-574.5"/>
<text text-anchor="middle" x="192.5" y="-562.5" font-family="Helvetica,sans-Serif" font-size="10.00">incflo::ComputePrescribeDt</text>
</a>
</g>
</g>
<!-- Node1&#45;&gt;Node2 -->
<g id="edge1_Node000001_Node000002" class="edge">
<title>Node1&#45;&gt;Node2</title>
<g id="a_edge1_Node000001_Node000002"><a xlink:title=" ">
<path fill="none" stroke="#63b8ff" d="M41.87,-312.65C41.92,-349.2 47.2,-480.45 118,-547 119.11,-548.04 120.26,-549.02 121.46,-549.95"/>
<polygon fill="#63b8ff" stroke="#63b8ff" points="119.62,-552.93 129.94,-555.33 123.37,-547.02 119.62,-552.93"/>
</a>
</g>
</g>
<!-- Node3 -->
<g id="Node000003" class="node">
<title>Node3</title>
<g id="a_Node000003"><a xlink:href="classincflo.html#a519aedfea3e6c46ade3eb01eccbaca48" target="_top" xlink:title=" ">
<polygon fill="white" stroke="#666666" points="246,-537.5 139,-537.5 139,-518.5 246,-518.5 246,-537.5"/>
<text text-anchor="middle" x="192.5" y="-525.5" font-family="Helvetica,sans-Serif" font-size="10.00">incflo::do_advance</text>
</a>
</g>
</g>
<!-- Node1&#45;&gt;Node3 -->
<g id="edge2_Node000001_Node000003" class="edge">
<title>Node1&#45;&gt;Node3</title>
<g id="a_edge2_Node000001_Node000003"><a xlink:title=" ">
<path fill="none" stroke="#63b8ff" d="M42.55,-312.93C44.92,-346.09 57.21,-454.03 118,-509 121.45,-512.12 125.34,-514.74 129.49,-516.94"/>
<polygon fill="#63b8ff" stroke="#63b8ff" points="128.35,-520.26 138.91,-521.11 131.18,-513.86 128.35,-520.26"/>
</a>
</g>
</g>
<!-- Node4 -->
<g id="Node000004" class="node">
<title>Node4</title>
<g id="a_Node000004"><a xlink:href="classamr__wind_1_1_c_f_d_sim.html#afd5a79a98ac6931e65955e829c89811b" target="_top" xlink:title=" ">
<polygon fill="white" stroke="#666666" points="255,-500 130,-500 130,-470 255,-470 255,-500"/>
<text text-anchor="start" x="138" y="-488" font-family="Helvetica,sans-Serif" font-size="10.00">amr_wind::CFDSim::io</text>
<text text-anchor="middle" x="192.5" y="-477" font-family="Helvetica,sans-Serif" font-size="10.00">_manager</text>
</a>
</g>
</g>
<!-- Node1&#45;&gt;Node4 -->
<g id="edge3_Node000001_Node000004" class="edge">
<title>Node1&#45;&gt;Node4</title>
<g id="a_edge3_Node000001_Node000004"><a xlink:title=" ">
<path fill="none" stroke="#63b8ff" d="M43.9,-312.78C49.77,-340.3 70.13,-419.1 118,-461 119.35,-462.19 120.77,-463.31 122.23,-464.38"/>
<polygon fill="#63b8ff" stroke="#63b8ff" points="120.76,-467.59 131.09,-469.93 124.47,-461.66 120.76,-467.59"/>
</a>
</g>
</g>
<!-- Node5 -->
<g id="Node000005" class="node">
<title>Node5</title>
<g id="a_Node000005"><a xlink:href="classamr__wind_1_1_sim_time.html#a6876c4852c53ab6f86bba1cb09386339" target="_top" xlink:title=" ">
<polygon fill="white" stroke="#666666" points="252.5,-452 132.5,-452 132.5,-422 252.5,-422 252.5,-452"/>
<text text-anchor="start" x="140.5" y="-440" font-family="Helvetica,sans-Serif" font-size="10.00">amr_wind::SimTime::</text>
<text text-anchor="middle" x="192.5" y="-429" font-family="Helvetica,sans-Serif" font-size="10.00">new_timestep</text>
</a>
</g>
</g>
<!-- Node1&#45;&gt;Node5 -->
<g id="edge4_Node000001_Node000005" class="edge">
<title>Node1&#45;&gt;Node5</title>
<g id="a_edge4_Node000001_Node000005"><a xlink:title=" ">
<path fill="none" stroke="#63b8ff" d="M45.98,-312.5C55.33,-333.72 80.79,-385.24 118,-413 119.88,-414.4 121.84,-415.72 123.88,-416.97"/>
<polygon fill="#63b8ff" stroke="#63b8ff" points="122.67,-420.3 133.13,-421.97 126,-414.14 122.67,-420.3"/>
</a>
</g>
</g>
<!-- Node6 -->
<g id="Node000006" class="node">
<title>Node6</title>
<g id="a_Node000006"><a xlink:href="classincflo.html#a339cc34ea0a08de4eaff982226dab8bf" target="_top" xlink:title=" ">
<polygon fill="white" stroke="#666666" points="265.5,-403.5 119.5,-403.5 119.5,-384.5 265.5,-384.5 265.5,-403.5"/>
<text text-anchor="middle" x="192.5" y="-391.5" font-family="Helvetica,sans-Serif" font-size="10.00">incflo::post_advance_work</text>
</a>
</g>
</g>
<!-- Node1&#45;&gt;Node6 -->
<g id="edge5_Node000001_Node000006" class="edge">
<title>Node1&#45;&gt;Node6</title>
<g id="a_edge5_Node000001_Node000006"><a xlink:title=" ">
<path fill="none" stroke="#63b8ff" d="M49.31,-312.53C61.71,-328.04 88.42,-358.62 118,-375 122,-377.21 126.26,-379.18 130.65,-380.92"/>
<polygon fill="#63b8ff" stroke="#63b8ff" points="129.79,-384.33 140.39,-384.38 132.14,-377.73 129.79,-384.33"/>
</a>
</g>
</g>
<!-- Node7 -->
<g id="Node000007" class="node">
<title>Node7</title>
<g id="a_Node000007"><a xlink:href="classincflo.html#a171fd353adf62e83b0e65a20fd27e567" target="_top" xlink:title=" ">
<polygon fill="white" stroke="#666666" points="248,-366 137,-366 137,-336 248,-336 248,-366"/>
<text text-anchor="start" x="145" y="-354" font-family="Helvetica,sans-Serif" font-size="10.00">incflo::pre_advance</text>
<text text-anchor="middle" x="192.5" y="-343" font-family="Helvetica,sans-Serif" font-size="10.00">_stage1</text>
</a>
</g>
</g>
<!-- Node1&#45;&gt;Node7 -->
<g id="edge6_Node000001_Node000007" class="edge">
<title>Node1&#45;&gt;Node7</title>
<g id="a_edge6_Node000001_Node000007"><a xlink:title=" ">
<path fill="none" stroke="#63b8ff" d="M71.89,-312.6C89.92,-318.39 113.48,-325.95 134.91,-332.83"/>
<polygon fill="#63b8ff" stroke="#63b8ff" points="133.99,-336.21 144.59,-335.94 136.13,-329.55 133.99,-336.21"/>
</a>
</g>
</g>
<!-- Node8 -->
<g id="Node000008" class="node">
<title>Node8</title>
<g id="a_Node000008"><a xlink:href="classincflo.html#ae9108a8fa888740a724bd6c2384f5bae" target="_top" xlink:title=" ">
<polygon fill="white" stroke="#666666" points="248,-318 137,-318 137,-288 248,-288 248,-318"/>
<text text-anchor="start" x="145" y="-306" font-family="Helvetica,sans-Serif" font-size="10.00">incflo::pre_advance</text>
<text text-anchor="middle" x="192.5" y="-295" font-family="Helvetica,sans-Serif" font-size="10.00">_stage2</text>
</a>
</g>
</g>
<!-- Node1&#45;&gt;Node8 -->
<g id="edge7_Node000001_Node000008" class="edge">
<title>Node1&#45;&gt;Node8</title>
<g id="a_edge7_Node000001_Node000008"><a xlink:title=" ">
<path fill="none" stroke="#63b8ff" d="M82.06,-303C95.77,-303 111.47,-303 126.62,-303"/>
<polygon fill="#63b8ff" stroke="#63b8ff" points="126.99,-306.5 136.99,-303 126.99,-299.5 126.99,-306.5"/>
</a>
</g>
</g>
<!-- Node9 -->
<g id="Node000009" class="node">
<title>Node9</title>
<g id="a_Node000009"><a xlink:href="classincflo.html#ae09184db23dbf56c886e48000c7685d7" target="_top" xlink:title=" ">
<polygon fill="white" stroke="#666666" points="243,-270 142,-270 142,-240 243,-240 243,-270"/>
<text text-anchor="start" x="150" y="-258" font-family="Helvetica,sans-Serif" font-size="10.00">incflo::regrid_and</text>
<text text-anchor="middle" x="192.5" y="-247" font-family="Helvetica,sans-Serif" font-size="10.00">_update</text>
</a>
</g>
</g>
<!-- Node1&#45;&gt;Node9 -->
<g id="edge8_Node000001_Node000009" class="edge">
<title>Node1&#45;&gt;Node9</title>
<g id="a_edge8_Node000001_Node000009"><a xlink:title=" ">
<path fill="none" stroke="#63b8ff" d="M71.89,-293.4C89.92,-287.61 113.48,-280.05 134.91,-273.17"/>
<polygon fill="#63b8ff" stroke="#63b8ff" points="136.13,-276.45 144.59,-270.06 133.99,-269.79 136.13,-276.45"/>
</a>
</g>
</g>
<!-- Node10 -->
<g id="Node000010" class="node">
<title>Node10</title>
<g id="a_Node000010"><a xlink:href="classamr__wind_1_1_sim_time.html#a2e5adf26426dc2125954797919edd02b" target="_top" xlink:title=" ">
<polygon fill="white" stroke="#666666" points="252.5,-222 132.5,-222 132.5,-192 252.5,-192 252.5,-222"/>
<text text-anchor="start" x="140.5" y="-210" font-family="Helvetica,sans-Serif" font-size="10.00">amr_wind::SimTime::</text>
<text text-anchor="middle" x="192.5" y="-199" font-family="Helvetica,sans-Serif" font-size="10.00">time_index</text>
</a>
</g>
</g>
<!-- Node1&#45;&gt;Node10 -->
<g id="edge9_Node000001_Node000010" class="edge">
<title>Node1&#45;&gt;Node10</title>
<g id="a_edge9_Node000001_Node000010"><a xlink:title=" ">
<path fill="none" stroke="#63b8ff" d="M49.83,-293.18C62.57,-277.82 89.26,-248.11 118,-231 120.83,-229.32 123.78,-227.74 126.82,-226.26"/>
<polygon fill="#63b8ff" stroke="#63b8ff" points="128.43,-229.37 136.13,-222.1 125.57,-222.98 128.43,-229.37"/>
</a>
</g>
</g>
<!-- Node11 -->
<g id="Node000011" class="node">
<title>Node11</title>
<g id="a_Node000011"><a xlink:href="classamr__wind_1_1_i_o_manager.html#a2c73684b3d64672df3f4dd4db8a14bf1" target="_top" xlink:title="Write all necessary fields for restart.">
<polygon fill="white" stroke="#666666" points="255.5,-174 129.5,-174 129.5,-144 255.5,-144 255.5,-174"/>
<text text-anchor="start" x="137.5" y="-162" font-family="Helvetica,sans-Serif" font-size="10.00">amr_wind::IOManager</text>
<text text-anchor="middle" x="192.5" y="-151" font-family="Helvetica,sans-Serif" font-size="10.00">::write_checkpoint_file</text>
</a>
</g>
</g>
<!-- Node1&#45;&gt;Node11 -->
<g id="edge10_Node000001_Node000011" class="edge">
<title>Node1&#45;&gt;Node11</title>
<g id="a_edge10_Node000001_Node000011"><a xlink:title=" ">
<path fill="none" stroke="#63b8ff" d="M45.47,-293.32C54.09,-270.61 78.68,-213.58 118,-183 119.81,-181.59 121.7,-180.27 123.66,-179.02"/>
<polygon fill="#63b8ff" stroke="#63b8ff" points="125.59,-181.95 132.62,-174.02 122.18,-175.84 125.59,-181.95"/>
</a>
</g>
</g>
<!-- Node12 -->
<g id="Node000012" class="node">
<title>Node12</title>
<g id="a_Node000012"><a xlink:href="classamr__wind_1_1_sim_time.html#a9c9ae99a73e7c12ba0e6ff5641a128a9" target="_top" xlink:title=" ">
<polygon fill="white" stroke="#666666" points="254,-126 131,-126 131,-96 254,-96 254,-126"/>
<text text-anchor="start" x="139" y="-114" font-family="Helvetica,sans-Serif" font-size="10.00">amr_wind::SimTime::</text>
<text text-anchor="middle" x="192.5" y="-103" font-family="Helvetica,sans-Serif" font-size="10.00">write_last_checkpoint</text>
</a>
</g>
</g>
<!-- Node1&#45;&gt;Node12 -->
<g id="edge11_Node000001_Node000012" class="edge">
<title>Node1&#45;&gt;Node12</title>
<g id="a_edge11_Node000001_Node000012"><a xlink:title=" ">
<path fill="none" stroke="#63b8ff" d="M43.56,-293.43C48.69,-264.98 67.7,-180.08 118,-135 119.31,-133.83 120.67,-132.72 122.08,-131.66"/>
<polygon fill="#63b8ff" stroke="#63b8ff" points="124.12,-134.51 130.64,-126.16 120.33,-128.62 124.12,-134.51"/>
</a>
</g>
</g>
<!-- Node13 -->
<g id="Node000013" class="node">
<title>Node13</title>
<g id="a_Node000013"><a xlink:href="classamr__wind_1_1_sim_time.html#a581cd4d49991970dbb6b28410fb61426" target="_top" xlink:title=" ">
<polygon fill="white" stroke="#666666" points="252.5,-78 132.5,-78 132.5,-48 252.5,-48 252.5,-78"/>
<text text-anchor="start" x="140.5" y="-66" font-family="Helvetica,sans-Serif" font-size="10.00">amr_wind::SimTime::</text>
<text text-anchor="middle" x="192.5" y="-55" font-family="Helvetica,sans-Serif" font-size="10.00">write_last_plot_file</text>
</a>
</g>
</g>
<!-- Node1&#45;&gt;Node13 -->
<g id="edge12_Node000001_Node000013" class="edge">
<title>Node1&#45;&gt;Node13</title>
<g id="a_edge12_Node000001_Node000013"><a xlink:title=" ">
<path fill="none" stroke="#63b8ff" d="M42.49,-293.22C44.71,-259.53 56.6,-147.02 118,-87 119.85,-85.19 121.83,-83.52 123.93,-81.98"/>
<polygon fill="#63b8ff" stroke="#63b8ff" points="125.85,-84.9 132.46,-76.62 122.13,-78.98 125.85,-84.9"/>
</a>
</g>
</g>
<!-- Node14 -->
<g id="Node000014" class="node">
<title>Node14</title>
<g id="a_Node000014"><a xlink:href="classamr__wind_1_1_i_o_manager.html#a2751c61d7bc0b302032db0ebef39e57f" target="_top" xlink:title="Write all user&#45;requested fields to disk.">
<polygon fill="white" stroke="#666666" points="254.5,-30 130.5,-30 130.5,0 254.5,0 254.5,-30"/>
<text text-anchor="start" x="138.5" y="-18" font-family="Helvetica,sans-Serif" font-size="10.00">amr_wind::IOManager</text>
<text text-anchor="middle" x="192.5" y="-7" font-family="Helvetica,sans-Serif" font-size="10.00">::write_plot_file</text>
</a>
</g>
</g>
<!-- Node1&#45;&gt;Node14 -->
<g id="edge13_Node000001_Node000014" class="edge">
<title>Node1&#45;&gt;Node14</title>
<g id="a_edge13_Node000001_Node000014"><a xlink:title=" ">
<path fill="none" stroke="#63b8ff" d="M41.76,-293.28C41.38,-255.2 45.13,-114.49 118,-39 119.25,-37.71 120.57,-36.48 121.95,-35.32"/>
<polygon fill="#63b8ff" stroke="#63b8ff" points="124.25,-37.98 130.44,-29.38 120.24,-32.25 124.25,-37.98"/>
</a>
</g>
</g>
</g>
</svg>
