<?xml version="1.0" encoding="UTF-8" standalone="no"?>
<!DOCTYPE svg PUBLIC "-//W3C//DTD SVG 1.1//EN"
 "http://www.w3.org/Graphics/SVG/1.1/DTD/svg11.dtd">
<!-- Generated by graphviz version 2.43.0 (0)
 -->
<!-- Title: amr_wind::ThirdMomentAveraging Pages: 1 -->
<svg width="198pt" height="192pt"
 viewBox="0.00 0.00 197.50 192.00" xmlns="http://www.w3.org/2000/svg" xmlns:xlink="http://www.w3.org/1999/xlink">
<g id="graph0" class="graph" transform="scale(1 1) rotate(0) translate(4 188)">
<title>amr_wind::ThirdMomentAveraging</title>
<!-- Node1 -->
<g id="Node000001" class="node">
<title>Node1</title>
<g id="a_Node000001"><a xlink:title=" ">
<polygon fill="#999999" stroke="#666666" points="185,-19 0,-19 0,0 185,0 185,-19"/>
<text text-anchor="middle" x="92.5" y="-7" font-family="Helvetica,sans-Serif" font-size="10.00">amr_wind::ThirdMomentAveraging</text>
</a>
</g>
</g>
<!-- Node2 -->
<g id="Node000002" class="node">
<title>Node2</title>
<g id="a_Node000002"><a xlink:href="classamr__wind_1_1_f_plane_averaging.html" target="_top" xlink:title=" ">
<polygon fill="white" stroke="#666666" points="168.5,-118 16.5,-118 16.5,-88 168.5,-88 168.5,-118"/>
<text text-anchor="start" x="24.5" y="-106" font-family="Helvetica,sans-Serif" font-size="10.00">amr_wind::FPlaneAveraging</text>
<text text-anchor="middle" x="92.5" y="-95" font-family="Helvetica,sans-Serif" font-size="10.00">&lt; FType &gt;</text>
</a>
</g>
</g>
<!-- Node2&#45;&gt;Node1 -->
<g id="edge1_Node000001_Node000002" class="edge">
<title>Node2&#45;&gt;Node1</title>
<g id="a_edge1_Node000001_Node000002"><a xlink:title=" ">
<path fill="none" stroke="#9a32cd" stroke-dasharray="5,2" d="M92.5,-77.51C92.5,-58.22 92.5,-32.45 92.5,-19.19"/>
<polygon fill="#9a32cd" stroke="#9a32cd" points="89,-77.7 92.5,-87.7 96,-77.7 89,-77.7"/>
</a>
</g>
<text text-anchor="middle" x="141" y="-62" font-family="Helvetica,sans-Serif" font-size="10.00" fill="grey"> m_plane_average1</text>
<text text-anchor="middle" x="141" y="-51" font-family="Helvetica,sans-Serif" font-size="10.00" fill="grey">m_plane_average2</text>
<text text-anchor="middle" x="141" y="-40" font-family="Helvetica,sans-Serif" font-size="10.00" fill="grey">m_plane_average3</text>
</g>
<!-- Node3 -->
<g id="Node000003" class="node">
<title>Node3</title>
<g id="a_Node000003"><a xlink:href="classamr__wind_1_1_sim_time.html" target="_top" xlink:title=" ">
<polygon fill="white" stroke="#666666" points="149.5,-184 35.5,-184 35.5,-165 149.5,-165 149.5,-184"/>
<text text-anchor="middle" x="92.5" y="-172" font-family="Helvetica,sans-Serif" font-size="10.00">amr_wind::SimTime</text>
</a>
</g>
</g>
<!-- Node3&#45;&gt;Node2 -->
<g id="edge2_Node000002_Node000003" class="edge">
<title>Node3&#45;&gt;Node2</title>
<g id="a_edge2_Node000002_Node000003"><a xlink:title=" ">
<path fill="none" stroke="#9a32cd" stroke-dasharray="5,2" d="M92.5,-154.71C92.5,-143.19 92.5,-128.68 92.5,-118.14"/>
<polygon fill="#9a32cd" stroke="#9a32cd" points="89,-154.98 92.5,-164.98 96,-154.98 89,-154.98"/>
</a>
</g>
<text text-anchor="middle" x="113" y="-139" font-family="Helvetica,sans-Serif" font-size="10.00" fill="grey"> m_time</text>
</g>
</g>
</svg>
