<?xml version="1.0" encoding="UTF-8" standalone="no"?>
<!DOCTYPE svg PUBLIC "-//W3C//DTD SVG 1.1//EN"
 "http://www.w3.org/Graphics/SVG/1.1/DTD/svg11.dtd">
<!-- Generated by graphviz version 2.43.0 (0)
 -->
<!-- Title: amr_wind::turbulence::TurbModelBase&lt; Transport &gt; Pages: 1 -->
<svg width="1375pt" height="326pt"
 viewBox="0.00 0.00 1375.00 326.00" xmlns="http://www.w3.org/2000/svg" xmlns:xlink="http://www.w3.org/1999/xlink">
<g id="graph0" class="graph" transform="scale(1 1) rotate(0) translate(4 322)">
<title>amr_wind::turbulence::TurbModelBase&lt; Transport &gt;</title>
<!-- Node1 -->
<g id="Node000001" class="node">
<title>Node1</title>
<g id="a_Node000001"><a xlink:title=" ">
<polygon fill="#999999" stroke="#666666" points="956,-174 792,-174 792,-144 956,-144 956,-174"/>
<text text-anchor="start" x="800" y="-162" font-family="Helvetica,sans-Serif" font-size="10.00">amr_wind::turbulence</text>
<text text-anchor="middle" x="874" y="-151" font-family="Helvetica,sans-Serif" font-size="10.00">::TurbModelBase&lt; Transport &gt;</text>
</a>
</g>
</g>
<!-- Node6 -->
<g id="Node000006" class="node">
<title>Node6</title>
<g id="a_Node000006"><a xlink:href="classamr__wind_1_1turbulence_1_1_a_m_d.html" target="_top" xlink:title=" ">
<polygon fill="white" stroke="#666666" points="1133,-318 1011,-318 1011,-288 1133,-288 1133,-318"/>
<text text-anchor="start" x="1019" y="-306" font-family="Helvetica,sans-Serif" font-size="10.00">amr_wind::turbulence</text>
<text text-anchor="middle" x="1072" y="-295" font-family="Helvetica,sans-Serif" font-size="10.00">::AMD&lt; Transport &gt;</text>
</a>
</g>
</g>
<!-- Node1&#45;&gt;Node6 -->
<g id="edge5_Node000001_Node000006" class="edge">
<title>Node1&#45;&gt;Node6</title>
<g id="a_edge5_Node000001_Node000006"><a xlink:title=" ">
<path fill="none" stroke="#63b8ff" d="M892.1,-182.4C913.01,-209.41 950.87,-253.39 993,-279 998.57,-282.39 1004.66,-285.33 1010.89,-287.88"/>
<polygon fill="#63b8ff" stroke="#63b8ff" points="894.76,-180.11 885.92,-174.27 889.19,-184.35 894.76,-180.11"/>
</a>
</g>
</g>
<!-- Node7 -->
<g id="Node000007" class="node">
<title>Node7</title>
<g id="a_Node000007"><a xlink:href="classamr__wind_1_1turbulence_1_1_a_m_d_no_therm.html" target="_top" xlink:title=" ">
<polygon fill="white" stroke="#666666" points="1151,-270 993,-270 993,-240 1151,-240 1151,-270"/>
<text text-anchor="start" x="1001" y="-258" font-family="Helvetica,sans-Serif" font-size="10.00">amr_wind::turbulence</text>
<text text-anchor="middle" x="1072" y="-247" font-family="Helvetica,sans-Serif" font-size="10.00">::AMDNoTherm&lt; Transport &gt;</text>
</a>
</g>
</g>
<!-- Node1&#45;&gt;Node7 -->
<g id="edge6_Node000001_Node000007" class="edge">
<title>Node1&#45;&gt;Node7</title>
<g id="a_edge6_Node000001_Node000007"><a xlink:title=" ">
<path fill="none" stroke="#63b8ff" d="M904.64,-179.96C927.85,-195.64 961.37,-216.76 993,-231 1000.23,-234.26 1008.04,-237.24 1015.81,-239.91"/>
<polygon fill="#63b8ff" stroke="#63b8ff" points="906.51,-177 896.28,-174.24 902.56,-182.78 906.51,-177"/>
</a>
</g>
</g>
<!-- Node8 -->
<g id="Node000008" class="node">
<title>Node8</title>
<g id="a_Node000008"><a xlink:href="classamr__wind_1_1turbulence_1_1_k_l_axell.html" target="_top" xlink:title=" ">
<polygon fill="white" stroke="#666666" points="1135.5,-222 1008.5,-222 1008.5,-192 1135.5,-192 1135.5,-222"/>
<text text-anchor="start" x="1016.5" y="-210" font-family="Helvetica,sans-Serif" font-size="10.00">amr_wind::turbulence</text>
<text text-anchor="middle" x="1072" y="-199" font-family="Helvetica,sans-Serif" font-size="10.00">::KLAxell&lt; Transport &gt;</text>
</a>
</g>
</g>
<!-- Node1&#45;&gt;Node8 -->
<g id="edge7_Node000001_Node000008" class="edge">
<title>Node1&#45;&gt;Node8</title>
<g id="a_edge7_Node000001_Node000008"><a xlink:title=" ">
<path fill="none" stroke="#63b8ff" d="M946.22,-176.44C967.04,-181.54 989.6,-187.07 1009.74,-192"/>
<polygon fill="#63b8ff" stroke="#63b8ff" points="947.02,-173.04 936.48,-174.06 945.36,-179.83 947.02,-173.04"/>
</a>
</g>
</g>
<!-- Node9 -->
<g id="Node000009" class="node">
<title>Node9</title>
<g id="a_Node000009"><a xlink:href="classamr__wind_1_1turbulence_1_1_k_omega_s_s_t.html" target="_top" xlink:title=" ">
<polygon fill="white" stroke="#666666" points="1146.5,-174 997.5,-174 997.5,-144 1146.5,-144 1146.5,-174"/>
<text text-anchor="start" x="1005.5" y="-162" font-family="Helvetica,sans-Serif" font-size="10.00">amr_wind::turbulence</text>
<text text-anchor="middle" x="1072" y="-151" font-family="Helvetica,sans-Serif" font-size="10.00">::KOmegaSST&lt; Transport &gt;</text>
</a>
</g>
</g>
<!-- Node1&#45;&gt;Node9 -->
<g id="edge8_Node000001_Node000009" class="edge">
<title>Node1&#45;&gt;Node9</title>
<g id="a_edge8_Node000001_Node000009"><a xlink:title=" ">
<path fill="none" stroke="#63b8ff" d="M966.15,-159C976.64,-159 987.24,-159 997.45,-159"/>
<polygon fill="#63b8ff" stroke="#63b8ff" points="966.14,-155.5 956.14,-159 966.14,-162.5 966.14,-155.5"/>
</a>
</g>
</g>
<!-- Node11 -->
<g id="Node000011" class="node">
<title>Node11</title>
<g id="a_Node000011"><a xlink:href="classamr__wind_1_1turbulence_1_1_kosovic.html" target="_top" xlink:title=" ">
<polygon fill="white" stroke="#666666" points="1136,-126 1008,-126 1008,-96 1136,-96 1136,-126"/>
<text text-anchor="start" x="1016" y="-114" font-family="Helvetica,sans-Serif" font-size="10.00">amr_wind::turbulence</text>
<text text-anchor="middle" x="1072" y="-103" font-family="Helvetica,sans-Serif" font-size="10.00">::Kosovic&lt; Transport &gt;</text>
</a>
</g>
</g>
<!-- Node1&#45;&gt;Node11 -->
<g id="edge10_Node000001_Node000011" class="edge">
<title>Node1&#45;&gt;Node11</title>
<g id="a_edge10_Node000001_Node000011"><a xlink:title=" ">
<path fill="none" stroke="#63b8ff" d="M946.22,-141.56C967.04,-136.46 989.6,-130.93 1009.74,-126"/>
<polygon fill="#63b8ff" stroke="#63b8ff" points="945.36,-138.17 936.48,-143.94 947.02,-144.96 945.36,-138.17"/>
</a>
</g>
</g>
<!-- Node12 -->
<g id="Node000012" class="node">
<title>Node12</title>
<g id="a_Node000012"><a xlink:href="classamr__wind_1_1turbulence_1_1_one_eq_ksgs.html" target="_top" xlink:title=" ">
<polygon fill="white" stroke="#666666" points="1144.5,-78 999.5,-78 999.5,-48 1144.5,-48 1144.5,-78"/>
<text text-anchor="start" x="1007.5" y="-66" font-family="Helvetica,sans-Serif" font-size="10.00">amr_wind::turbulence</text>
<text text-anchor="middle" x="1072" y="-55" font-family="Helvetica,sans-Serif" font-size="10.00">::OneEqKsgs&lt; Transport &gt;</text>
</a>
</g>
</g>
<!-- Node1&#45;&gt;Node12 -->
<g id="edge11_Node000001_Node000012" class="edge">
<title>Node1&#45;&gt;Node12</title>
<g id="a_edge11_Node000001_Node000012"><a xlink:title=" ">
<path fill="none" stroke="#63b8ff" d="M904.64,-138.04C927.85,-122.36 961.37,-101.24 993,-87 1000.23,-83.74 1008.04,-80.76 1015.81,-78.09"/>
<polygon fill="#63b8ff" stroke="#63b8ff" points="902.56,-135.22 896.28,-143.76 906.51,-141 902.56,-135.22"/>
</a>
</g>
</g>
<!-- Node15 -->
<g id="Node000015" class="node">
<title>Node15</title>
<g id="a_Node000015"><a xlink:href="classamr__wind_1_1turbulence_1_1_smagorinsky.html" target="_top" xlink:title=" ">
<polygon fill="white" stroke="#666666" points="1148.5,-30 995.5,-30 995.5,0 1148.5,0 1148.5,-30"/>
<text text-anchor="start" x="1003.5" y="-18" font-family="Helvetica,sans-Serif" font-size="10.00">amr_wind::turbulence</text>
<text text-anchor="middle" x="1072" y="-7" font-family="Helvetica,sans-Serif" font-size="10.00">::Smagorinsky&lt; Transport &gt;</text>
</a>
</g>
</g>
<!-- Node1&#45;&gt;Node15 -->
<g id="edge14_Node000001_Node000015" class="edge">
<title>Node1&#45;&gt;Node15</title>
<g id="a_edge14_Node000001_Node000015"><a xlink:title=" ">
<path fill="none" stroke="#63b8ff" d="M892.1,-135.6C913.01,-108.59 950.87,-64.61 993,-39 998.57,-35.61 1004.66,-32.67 1010.89,-30.12"/>
<polygon fill="#63b8ff" stroke="#63b8ff" points="889.19,-133.65 885.92,-143.73 894.76,-137.89 889.19,-133.65"/>
</a>
</g>
</g>
<!-- Node2 -->
<g id="Node000002" class="node">
<title>Node2</title>
<g id="a_Node000002"><a xlink:href="classamr__wind_1_1turbulence_1_1_turb_model.html" target="_top" xlink:title=" ">
<polygon fill="white" stroke="#666666" points="755,-174 615,-174 615,-144 755,-144 755,-174"/>
<text text-anchor="start" x="623" y="-162" font-family="Helvetica,sans-Serif" font-size="10.00">amr_wind::turbulence</text>
<text text-anchor="middle" x="685" y="-151" font-family="Helvetica,sans-Serif" font-size="10.00">::TurbModel&lt; Transport &gt;</text>
</a>
</g>
</g>
<!-- Node2&#45;&gt;Node1 -->
<g id="edge1_Node000001_Node000002" class="edge">
<title>Node2&#45;&gt;Node1</title>
<g id="a_edge1_Node000001_Node000002"><a xlink:title=" ">
<path fill="none" stroke="#63b8ff" d="M765.31,-159C774.1,-159 783.05,-159 791.85,-159"/>
<polygon fill="#63b8ff" stroke="#63b8ff" points="765.1,-155.5 755.1,-159 765.1,-162.5 765.1,-155.5"/>
</a>
</g>
</g>
<!-- Node3 -->
<g id="Node000003" class="node">
<title>Node3</title>
<g id="a_Node000003"><a xlink:href="classamr__wind_1_1turbulence_1_1_turbulence_model.html" target="_top" xlink:title=" ">
<polygon fill="white" stroke="#666666" points="578,-174 456,-174 456,-144 578,-144 578,-174"/>
<text text-anchor="start" x="464" y="-162" font-family="Helvetica,sans-Serif" font-size="10.00">amr_wind::turbulence</text>
<text text-anchor="middle" x="517" y="-151" font-family="Helvetica,sans-Serif" font-size="10.00">::TurbulenceModel</text>
</a>
</g>
</g>
<!-- Node3&#45;&gt;Node2 -->
<g id="edge2_Node000002_Node000003" class="edge">
<title>Node3&#45;&gt;Node2</title>
<g id="a_edge2_Node000002_Node000003"><a xlink:title=" ">
<path fill="none" stroke="#63b8ff" d="M588.55,-159C597.28,-159 606.21,-159 614.92,-159"/>
<polygon fill="#63b8ff" stroke="#63b8ff" points="588.4,-155.5 578.4,-159 588.4,-162.5 588.4,-155.5"/>
</a>
</g>
</g>
<!-- Node4 -->
<g id="Node000004" class="node">
<title>Node4</title>
<g id="a_Node000004"><a xlink:href="structamr__wind_1_1_factory.html" target="_top" xlink:title=" ">
<polygon fill="white" stroke="#666666" points="419,-174 250,-174 250,-144 419,-144 419,-174"/>
<text text-anchor="start" x="258" y="-162" font-family="Helvetica,sans-Serif" font-size="10.00">amr_wind::Factory&lt;</text>
<text text-anchor="middle" x="334.5" y="-151" font-family="Helvetica,sans-Serif" font-size="10.00"> TurbulenceModel, CFDSim &amp; &gt;</text>
</a>
</g>
</g>
<!-- Node4&#45;&gt;Node3 -->
<g id="edge3_Node000003_Node000004" class="edge">
<title>Node4&#45;&gt;Node3</title>
<g id="a_edge3_Node000003_Node000004"><a xlink:title=" ">
<path fill="none" stroke="#63b8ff" d="M429.3,-159C438.29,-159 447.24,-159 455.78,-159"/>
<polygon fill="#63b8ff" stroke="#63b8ff" points="429.15,-155.5 419.15,-159 429.15,-162.5 429.15,-155.5"/>
</a>
</g>
</g>
<!-- Node5 -->
<g id="Node000005" class="node">
<title>Node5</title>
<g id="a_Node000005"><a xlink:href="structamr__wind_1_1_factory.html" target="_top" xlink:title=" ">
<polygon fill="white" stroke="#666666" points="114,-174 0,-174 0,-144 114,-144 114,-174"/>
<text text-anchor="start" x="8" y="-162" font-family="Helvetica,sans-Serif" font-size="10.00">amr_wind::Factory&lt;</text>
<text text-anchor="middle" x="57" y="-151" font-family="Helvetica,sans-Serif" font-size="10.00"> Base, Args &gt;</text>
</a>
</g>
</g>
<!-- Node5&#45;&gt;Node4 -->
<g id="edge4_Node000004_Node000005" class="edge">
<title>Node5&#45;&gt;Node4</title>
<g id="a_edge4_Node000004_Node000005"><a xlink:title=" ">
<path fill="none" stroke="orange" stroke-dasharray="5,2" d="M124.43,-159C162.09,-159 209.58,-159 249.77,-159"/>
<polygon fill="orange" stroke="orange" points="124.08,-155.5 114.08,-159 124.08,-162.5 124.08,-155.5"/>
</a>
</g>
<text text-anchor="start" x="132" y="-173" font-family="Helvetica,sans-Serif" font-size="10.00" fill="grey"> &lt; TurbulenceModel,</text>
<text text-anchor="middle" x="182" y="-162" font-family="Helvetica,sans-Serif" font-size="10.00" fill="grey"> CFDSim &amp; &gt;</text>
</g>
<!-- Node10 -->
<g id="Node000010" class="node">
<title>Node10</title>
<g id="a_Node000010"><a xlink:href="classamr__wind_1_1turbulence_1_1_k_omega_s_s_t_i_d_d_e_s.html" target="_top" xlink:title=" ">
<polygon fill="white" stroke="#666666" points="1367,-174 1188,-174 1188,-144 1367,-144 1367,-174"/>
<text text-anchor="start" x="1196" y="-162" font-family="Helvetica,sans-Serif" font-size="10.00">amr_wind::turbulence</text>
<text text-anchor="middle" x="1277.5" y="-151" font-family="Helvetica,sans-Serif" font-size="10.00">::KOmegaSSTIDDES&lt; Transport &gt;</text>
</a>
</g>
</g>
<!-- Node9&#45;&gt;Node10 -->
<g id="edge9_Node000009_Node000010" class="edge">
<title>Node9&#45;&gt;Node10</title>
<g id="a_edge9_Node000009_Node000010"><a xlink:title=" ">
<path fill="none" stroke="#63b8ff" d="M1156.85,-159C1167.04,-159 1177.49,-159 1187.75,-159"/>
<polygon fill="#63b8ff" stroke="#63b8ff" points="1156.76,-155.5 1146.76,-159 1156.76,-162.5 1156.76,-155.5"/>
</a>
</g>
</g>
<!-- Node13 -->
<g id="Node000013" class="node">
<title>Node13</title>
<g id="a_Node000013"><a xlink:href="classamr__wind_1_1turbulence_1_1_one_eq_ksgs_m84.html" target="_top" xlink:title=" ">
<polygon fill="white" stroke="#666666" points="1360.5,-102 1194.5,-102 1194.5,-72 1360.5,-72 1360.5,-102"/>
<text text-anchor="start" x="1202.5" y="-90" font-family="Helvetica,sans-Serif" font-size="10.00">amr_wind::turbulence</text>
<text text-anchor="middle" x="1277.5" y="-79" font-family="Helvetica,sans-Serif" font-size="10.00">::OneEqKsgsM84&lt; Transport &gt;</text>
</a>
</g>
</g>
<!-- Node12&#45;&gt;Node13 -->
<g id="edge12_Node000012_Node000013" class="edge">
<title>Node12&#45;&gt;Node13</title>
<g id="a_edge12_Node000012_Node000013"><a xlink:title=" ">
<path fill="none" stroke="#63b8ff" d="M1155.01,-72.67C1167.95,-74.2 1181.34,-75.78 1194.28,-77.3"/>
<polygon fill="#63b8ff" stroke="#63b8ff" points="1155.09,-69.16 1144.75,-71.46 1154.27,-76.11 1155.09,-69.16"/>
</a>
</g>
</g>
<!-- Node14 -->
<g id="Node000014" class="node">
<title>Node14</title>
<g id="a_Node000014"><a xlink:href="classamr__wind_1_1turbulence_1_1_one_eq_ksgs_s94.html" target="_top" xlink:title=" ">
<polygon fill="white" stroke="#666666" points="1359,-54 1196,-54 1196,-24 1359,-24 1359,-54"/>
<text text-anchor="start" x="1204" y="-42" font-family="Helvetica,sans-Serif" font-size="10.00">amr_wind::turbulence</text>
<text text-anchor="middle" x="1277.5" y="-31" font-family="Helvetica,sans-Serif" font-size="10.00">::OneEqKsgsS94&lt; Transport &gt;</text>
</a>
</g>
</g>
<!-- Node12&#45;&gt;Node14 -->
<g id="edge13_Node000012_Node000014" class="edge">
<title>Node12&#45;&gt;Node14</title>
<g id="a_edge13_Node000012_Node000014"><a xlink:title=" ">
<path fill="none" stroke="#63b8ff" d="M1154.91,-53.34C1168.35,-51.75 1182.27,-50.11 1195.69,-48.53"/>
<polygon fill="#63b8ff" stroke="#63b8ff" points="1154.27,-49.89 1144.75,-54.54 1155.09,-56.84 1154.27,-49.89"/>
</a>
</g>
</g>
</g>
</svg>
