<?xml version="1.0" encoding="UTF-8" standalone="no"?>
<!DOCTYPE svg PUBLIC "-//W3C//DTD SVG 1.1//EN"
 "http://www.w3.org/Graphics/SVG/1.1/DTD/svg11.dtd">
<!-- Generated by graphviz version 2.43.0 (0)
 -->
<!-- Title: amr_wind::FieldFillPatchOps&lt; BCOpCreator &gt; Pages: 1 -->
<svg width="1662pt" height="257pt"
 viewBox="0.00 0.00 1662.00 257.00" xmlns="http://www.w3.org/2000/svg" xmlns:xlink="http://www.w3.org/1999/xlink">
<g id="graph0" class="graph" transform="scale(1 1) rotate(0) translate(4 253)">
<title>amr_wind::FieldFillPatchOps&lt; BCOpCreator &gt;</title>
<!-- Node1 -->
<g id="Node000001" class="node">
<title>Node1</title>
<g id="a_Node000001"><a xlink:title=" ">
<polygon fill="#999999" stroke="#666666" points="1654,-150.5 1520,-150.5 1520,-120.5 1654,-120.5 1654,-150.5"/>
<text text-anchor="start" x="1528" y="-138.5" font-family="Helvetica,sans-Serif" font-size="10.00">amr_wind::FieldFillPatch</text>
<text text-anchor="middle" x="1587" y="-127.5" font-family="Helvetica,sans-Serif" font-size="10.00">Ops&lt; BCOpCreator &gt;</text>
</a>
</g>
</g>
<!-- Node2 -->
<g id="Node000002" class="node">
<title>Node2</title>
<g id="a_Node000002"><a xlink:href="classamr__wind_1_1_field_fill_patch_ops_base.html" target="_top" xlink:title=" ">
<polygon fill="white" stroke="#666666" points="216,-202.5 82,-202.5 82,-172.5 216,-172.5 216,-202.5"/>
<text text-anchor="start" x="90" y="-190.5" font-family="Helvetica,sans-Serif" font-size="10.00">amr_wind::FieldFillPatch</text>
<text text-anchor="middle" x="149" y="-179.5" font-family="Helvetica,sans-Serif" font-size="10.00">OpsBase</text>
</a>
</g>
</g>
<!-- Node2&#45;&gt;Node1 -->
<g id="edge1_Node000001_Node000002" class="edge">
<title>Node2&#45;&gt;Node1</title>
<g id="a_edge1_Node000001_Node000002"><a xlink:title=" ">
<path fill="none" stroke="#63b8ff" d="M226.22,-193.48C290.71,-198.03 385.6,-203.5 468.5,-203.5 468.5,-203.5 468.5,-203.5 1377,-203.5 1444.92,-203.5 1519.43,-170.62 1558.53,-150.59"/>
<polygon fill="#63b8ff" stroke="#63b8ff" points="226.36,-189.98 216.14,-192.76 225.86,-196.97 226.36,-189.98"/>
</a>
</g>
</g>
<!-- Node14 -->
<g id="Node000014" class="node">
<title>Node14</title>
<g id="a_Node000014"><a xlink:title=" ">
<polygon fill="white" stroke="#666666" points="554,-175.5 385,-175.5 385,-145.5 554,-145.5 554,-175.5"/>
<text text-anchor="start" x="393" y="-163.5" font-family="Helvetica,sans-Serif" font-size="10.00">std::unique_ptr&lt; amr</text>
<text text-anchor="middle" x="469.5" y="-152.5" font-family="Helvetica,sans-Serif" font-size="10.00">_wind::FieldFillPatchOpsBase &gt;</text>
</a>
</g>
</g>
<!-- Node2&#45;&gt;Node14 -->
<g id="edge16_Node000014_Node000002" class="edge">
<title>Node2&#45;&gt;Node14</title>
<g id="a_edge16_Node000014_Node000002"><a xlink:title=" ">
<path fill="none" stroke="#9a32cd" stroke-dasharray="5,2" d="M226.22,-179.23C228.85,-178.98 231.44,-178.73 234,-178.5 284.01,-173.9 340.1,-169.57 384.88,-166.3"/>
<polygon fill="#9a32cd" stroke="#9a32cd" points="225.62,-175.77 216.01,-180.24 226.31,-182.74 225.62,-175.77"/>
</a>
</g>
<text text-anchor="middle" x="300.5" y="-181.5" font-family="Helvetica,sans-Serif" font-size="10.00" fill="grey"> ptr</text>
</g>
<!-- Node3 -->
<g id="Node000003" class="node">
<title>Node3</title>
<g id="a_Node000003"><a xlink:href="classamr__wind_1_1_sim_time.html" target="_top" xlink:title=" ">
<polygon fill="white" stroke="#666666" points="1433,-77 1319,-77 1319,-58 1433,-58 1433,-77"/>
<text text-anchor="middle" x="1376" y="-65" font-family="Helvetica,sans-Serif" font-size="10.00">amr_wind::SimTime</text>
</a>
</g>
</g>
<!-- Node3&#45;&gt;Node1 -->
<g id="edge2_Node000001_Node000003" class="edge">
<title>Node3&#45;&gt;Node1</title>
<g id="a_edge2_Node000001_Node000003"><a xlink:title=" ">
<path fill="none" stroke="#9a32cd" stroke-dasharray="5,2" d="M1443.05,-74.26C1462.4,-77.4 1483.35,-81.94 1502,-88.5 1524.23,-96.32 1547.45,-109.78 1563.83,-120.3"/>
<polygon fill="#9a32cd" stroke="#9a32cd" points="1443.52,-70.79 1433.1,-72.75 1442.46,-77.72 1443.52,-70.79"/>
</a>
</g>
<text text-anchor="middle" x="1481.5" y="-91.5" font-family="Helvetica,sans-Serif" font-size="10.00" fill="grey"> m_time</text>
</g>
<!-- Node4 -->
<g id="Node000004" class="node">
<title>Node4</title>
<g id="a_Node000004"><a xlink:href="classamr__wind_1_1_field.html" target="_top" xlink:title=" ">
<polygon fill="white" stroke="#666666" points="1233,-123 1139,-123 1139,-104 1233,-104 1233,-123"/>
<text text-anchor="middle" x="1186" y="-111" font-family="Helvetica,sans-Serif" font-size="10.00">amr_wind::Field</text>
</a>
</g>
</g>
<!-- Node4&#45;&gt;Node1 -->
<g id="edge3_Node000001_Node000004" class="edge">
<title>Node4&#45;&gt;Node1</title>
<g id="a_edge3_Node000001_Node000004"><a xlink:title=" ">
<path fill="none" stroke="#9a32cd" stroke-dasharray="5,2" d="M1243.29,-114.58C1295.19,-115.79 1374.34,-118.18 1443,-122.5 1468.13,-124.08 1495.69,-126.44 1519.85,-128.71"/>
<polygon fill="#9a32cd" stroke="#9a32cd" points="1243.36,-111.08 1233.28,-114.35 1243.2,-118.08 1243.36,-111.08"/>
</a>
</g>
<text text-anchor="middle" x="1376" y="-125.5" font-family="Helvetica,sans-Serif" font-size="10.00" fill="grey"> m_field</text>
</g>
<!-- Node17 -->
<g id="Node000017" class="node">
<title>Node17</title>
<g id="a_Node000017"><a xlink:href="structamr__wind_1_1_b_c_op_creator.html" target="_top" xlink:title=" ">
<polygon fill="white" stroke="#666666" points="1443,-172.5 1309,-172.5 1309,-142.5 1443,-142.5 1443,-172.5"/>
<text text-anchor="start" x="1317" y="-160.5" font-family="Helvetica,sans-Serif" font-size="10.00">amr_wind::BCOpCreator</text>
<text text-anchor="middle" x="1376" y="-149.5" font-family="Helvetica,sans-Serif" font-size="10.00">&lt; InflowOp, WallOp &gt;</text>
</a>
</g>
</g>
<!-- Node4&#45;&gt;Node17 -->
<g id="edge22_Node000017_Node000004" class="edge">
<title>Node4&#45;&gt;Node17</title>
<g id="a_edge22_Node000017_Node000004"><a xlink:title=" ">
<path fill="none" stroke="#9a32cd" stroke-dasharray="5,2" d="M1237.78,-125.38C1260.2,-130.63 1286.83,-136.86 1310.63,-142.43"/>
<polygon fill="#9a32cd" stroke="#9a32cd" points="1238.33,-121.92 1227.79,-123.05 1236.73,-128.73 1238.33,-121.92"/>
</a>
</g>
<text text-anchor="middle" x="1271" y="-140.5" font-family="Helvetica,sans-Serif" font-size="10.00" fill="grey"> m_field</text>
</g>
<!-- Node5 -->
<g id="Node000005" class="node">
<title>Node5</title>
<g id="a_Node000005"><a xlink:href="classamr__wind_1_1_field_repo.html" target="_top" xlink:title=" ">
<polygon fill="white" stroke="#666666" points="1062.5,-74 943.5,-74 943.5,-55 1062.5,-55 1062.5,-74"/>
<text text-anchor="middle" x="1003" y="-62" font-family="Helvetica,sans-Serif" font-size="10.00">amr_wind::FieldRepo</text>
</a>
</g>
</g>
<!-- Node5&#45;&gt;Node4 -->
<g id="edge4_Node000004_Node000005" class="edge">
<title>Node5&#45;&gt;Node4</title>
<g id="a_edge4_Node000004_Node000005"><a xlink:title=" ">
<path fill="none" stroke="#9a32cd" stroke-dasharray="5,2" d="M1072.5,-69.9C1088.64,-72.26 1105.62,-75.64 1121,-80.5 1138.76,-86.11 1157.53,-96.37 1170.11,-103.96"/>
<polygon fill="#9a32cd" stroke="#9a32cd" points="1072.96,-66.43 1062.59,-68.56 1072.03,-73.37 1072.96,-66.43"/>
</a>
</g>
<text text-anchor="middle" x="1101" y="-83.5" font-family="Helvetica,sans-Serif" font-size="10.00" fill="grey"> m_repo</text>
</g>
<!-- Node6 -->
<g id="Node000006" class="node">
<title>Node6</title>
<g id="a_Node000006"><a xlink:title=" ">
<polygon fill="white" stroke="#666666" points="834,-75.5 712,-75.5 712,-45.5 834,-45.5 834,-75.5"/>
<text text-anchor="start" x="720" y="-63.5" font-family="Helvetica,sans-Serif" font-size="10.00">std::unordered_map</text>
<text text-anchor="middle" x="773" y="-52.5" font-family="Helvetica,sans-Serif" font-size="10.00">&lt; std::string, size_t &gt;</text>
</a>
</g>
</g>
<!-- Node6&#45;&gt;Node5 -->
<g id="edge5_Node000005_Node000006" class="edge">
<title>Node6&#45;&gt;Node5</title>
<g id="a_edge5_Node000005_Node000006"><a xlink:title=" ">
<path fill="none" stroke="#9a32cd" stroke-dasharray="5,2" d="M844.53,-60.5C869.9,-60.62 898.74,-60.9 925,-61.5 930.88,-61.63 937.02,-61.81 943.15,-62.01"/>
<polygon fill="#9a32cd" stroke="#9a32cd" points="844.27,-56.99 834.26,-60.45 844.24,-63.99 844.27,-56.99"/>
</a>
</g>
<text text-anchor="middle" x="888.5" y="-75.5" font-family="Helvetica,sans-Serif" font-size="10.00" fill="grey"> m_fid_map</text>
<text text-anchor="middle" x="888.5" y="-64.5" font-family="Helvetica,sans-Serif" font-size="10.00" fill="grey">m_int_fid_map</text>
</g>
<!-- Node7 -->
<g id="Node000007" class="node">
<title>Node7</title>
<g id="a_Node000007"><a xlink:title=" ">
<polygon fill="white" stroke="#666666" points="502,-112 437,-112 437,-93 502,-93 502,-112"/>
<text text-anchor="middle" x="469.5" y="-100" font-family="Helvetica,sans-Serif" font-size="10.00">std::string</text>
</a>
</g>
</g>
<!-- Node7&#45;&gt;Node4 -->
<g id="edge11_Node000004_Node000007" class="edge">
<title>Node7&#45;&gt;Node4</title>
<g id="a_edge11_Node000004_Node000007"><a xlink:title=" ">
<path fill="none" stroke="#9a32cd" stroke-dasharray="5,2" d="M512.43,-103.15C637.62,-105.07 1008.06,-110.78 1138.73,-112.79"/>
<polygon fill="#9a32cd" stroke="#9a32cd" points="512.18,-99.64 502.12,-102.99 512.07,-106.64 512.18,-99.64"/>
</a>
</g>
<text text-anchor="middle" x="888.5" y="-112.5" font-family="Helvetica,sans-Serif" font-size="10.00" fill="grey"> m_name</text>
</g>
<!-- Node7&#45;&gt;Node6 -->
<g id="edge6_Node000006_Node000007" class="edge">
<title>Node7&#45;&gt;Node6</title>
<g id="a_edge6_Node000006_Node000007"><a xlink:title=" ">
<path fill="none" stroke="#9a32cd" stroke-dasharray="5,2" d="M512.09,-92.37C530.38,-88.2 552.16,-83.63 572,-80.5 618.7,-73.13 672,-67.96 711.82,-64.72"/>
<polygon fill="#9a32cd" stroke="#9a32cd" points="511.28,-88.96 502.32,-94.63 512.86,-95.78 511.28,-88.96"/>
</a>
</g>
<text text-anchor="middle" x="633" y="-83.5" font-family="Helvetica,sans-Serif" font-size="10.00" fill="grey"> keys</text>
</g>
<!-- Node13 -->
<g id="Node000013" class="node">
<title>Node13</title>
<g id="a_Node000013"><a xlink:href="structamr__wind_1_1_field_info.html" target="_top" xlink:title=" ">
<polygon fill="white" stroke="#666666" points="829.5,-167 716.5,-167 716.5,-148 829.5,-148 829.5,-167"/>
<text text-anchor="middle" x="773" y="-155" font-family="Helvetica,sans-Serif" font-size="10.00">amr_wind::FieldInfo</text>
</a>
</g>
</g>
<!-- Node7&#45;&gt;Node13 -->
<g id="edge14_Node000013_Node000007" class="edge">
<title>Node7&#45;&gt;Node13</title>
<g id="a_edge14_Node000013_Node000007"><a xlink:title=" ">
<path fill="none" stroke="#9a32cd" stroke-dasharray="5,2" d="M512.15,-110.1C566.33,-119.98 661.01,-137.25 719.89,-147.99"/>
<polygon fill="#9a32cd" stroke="#9a32cd" points="512.66,-106.63 502.2,-108.28 511.41,-113.52 512.66,-106.63"/>
</a>
</g>
<text text-anchor="middle" x="633" y="-146.5" font-family="Helvetica,sans-Serif" font-size="10.00" fill="grey"> m_basename</text>
</g>
<!-- Node8 -->
<g id="Node000008" class="node">
<title>Node8</title>
<g id="a_Node000008"><a xlink:title=" ">
<polygon fill="white" stroke="#666666" points="201,-114.5 97,-114.5 97,-84.5 201,-84.5 201,-114.5"/>
<text text-anchor="start" x="105" y="-102.5" font-family="Helvetica,sans-Serif" font-size="10.00">std::basic_string&lt;</text>
<text text-anchor="middle" x="149" y="-91.5" font-family="Helvetica,sans-Serif" font-size="10.00"> Char &gt;</text>
</a>
</g>
</g>
<!-- Node8&#45;&gt;Node7 -->
<g id="edge7_Node000007_Node000008" class="edge">
<title>Node8&#45;&gt;Node7</title>
<g id="a_edge7_Node000007_Node000008"><a xlink:title=" ">
<path fill="none" stroke="#63b8ff" d="M211.24,-100.08C278.64,-100.71 384.37,-101.71 436.81,-102.2"/>
<polygon fill="#63b8ff" stroke="#63b8ff" points="211.21,-96.58 201.17,-99.98 211.14,-103.58 211.21,-96.58"/>
</a>
</g>
</g>
<!-- Node9 -->
<g id="Node000009" class="node">
<title>Node9</title>
<g id="a_Node000009"><a xlink:title=" ">
<polygon fill="white" stroke="#666666" points="526.5,-60.5 412.5,-60.5 412.5,-30.5 526.5,-30.5 526.5,-60.5"/>
<text text-anchor="start" x="420.5" y="-48.5" font-family="Helvetica,sans-Serif" font-size="10.00">std::unordered_map</text>
<text text-anchor="middle" x="469.5" y="-37.5" font-family="Helvetica,sans-Serif" font-size="10.00">&lt; K, T &gt;</text>
</a>
</g>
</g>
<!-- Node9&#45;&gt;Node6 -->
<g id="edge8_Node000006_Node000009" class="edge">
<title>Node9&#45;&gt;Node6</title>
<g id="a_edge8_Node000006_Node000009"><a xlink:title=" ">
<path fill="none" stroke="orange" stroke-dasharray="5,2" d="M536.78,-42.8C581.32,-41.72 641.3,-41.69 694,-46.5 699.75,-47.03 705.72,-47.76 711.67,-48.61"/>
<polygon fill="orange" stroke="orange" points="536.56,-39.3 526.66,-43.07 536.75,-46.3 536.56,-39.3"/>
</a>
</g>
<text text-anchor="middle" x="633" y="-49.5" font-family="Helvetica,sans-Serif" font-size="10.00" fill="grey"> &lt; std::string, size_t &gt;</text>
</g>
<!-- Node10 -->
<g id="Node000010" class="node">
<title>Node10</title>
<g id="a_Node000010"><a xlink:title=" ">
<polygon fill="white" stroke="#666666" points="163.5,-19 134.5,-19 134.5,0 163.5,0 163.5,-19"/>
<text text-anchor="middle" x="149" y="-7" font-family="Helvetica,sans-Serif" font-size="10.00">K</text>
</a>
</g>
</g>
<!-- Node10&#45;&gt;Node9 -->
<g id="edge9_Node000009_Node000010" class="edge">
<title>Node10&#45;&gt;Node9</title>
<g id="a_edge9_Node000009_Node000010"><a xlink:title=" ">
<path fill="none" stroke="#9a32cd" stroke-dasharray="5,2" d="M173.82,-11.41C213.81,-14.71 296.94,-21.94 367,-30.5 381.76,-32.3 397.7,-34.53 412.46,-36.7"/>
<polygon fill="#9a32cd" stroke="#9a32cd" points="173.99,-7.91 163.74,-10.59 173.42,-14.89 173.99,-7.91"/>
</a>
</g>
<text text-anchor="middle" x="300.5" y="-33.5" font-family="Helvetica,sans-Serif" font-size="10.00" fill="grey"> keys</text>
</g>
<!-- Node11 -->
<g id="Node000011" class="node">
<title>Node11</title>
<g id="a_Node000011"><a xlink:title=" ">
<polygon fill="white" stroke="#666666" points="29,-152 0,-152 0,-133 29,-133 29,-152"/>
<text text-anchor="middle" x="14.5" y="-140" font-family="Helvetica,sans-Serif" font-size="10.00">T</text>
</a>
</g>
</g>
<!-- Node11&#45;&gt;Node9 -->
<g id="edge10_Node000009_Node000011" class="edge">
<title>Node11&#45;&gt;Node9</title>
<g id="a_edge10_Node000009_Node000011"><a xlink:title=" ">
<path fill="none" stroke="#9a32cd" stroke-dasharray="5,2" d="M25.22,-124.04C36.21,-105.3 56.03,-77.27 82,-64.5 110.83,-50.33 312.29,-46.73 412.36,-45.81"/>
<polygon fill="#9a32cd" stroke="#9a32cd" points="22.11,-122.43 20.29,-132.87 28.22,-125.85 22.11,-122.43"/>
</a>
</g>
<text text-anchor="middle" x="149" y="-67.5" font-family="Helvetica,sans-Serif" font-size="10.00" fill="grey"> elements</text>
</g>
<!-- Node15 -->
<g id="Node000015" class="node">
<title>Node15</title>
<g id="a_Node000015"><a xlink:title=" ">
<polygon fill="white" stroke="#666666" points="208,-152 90,-152 90,-133 208,-133 208,-152"/>
<text text-anchor="middle" x="149" y="-140" font-family="Helvetica,sans-Serif" font-size="10.00">std::unique_ptr&lt; T &gt;</text>
</a>
</g>
</g>
<!-- Node11&#45;&gt;Node15 -->
<g id="edge18_Node000015_Node000011" class="edge">
<title>Node11&#45;&gt;Node15</title>
<g id="a_edge18_Node000015_Node000011"><a xlink:title=" ">
<path fill="none" stroke="#9a32cd" stroke-dasharray="5,2" d="M39.44,-142.5C53.53,-142.5 72.01,-142.5 89.72,-142.5"/>
<polygon fill="#9a32cd" stroke="#9a32cd" points="39.18,-139 29.18,-142.5 39.18,-146 39.18,-139"/>
</a>
</g>
<text text-anchor="middle" x="55.5" y="-145.5" font-family="Helvetica,sans-Serif" font-size="10.00" fill="grey"> ptr</text>
</g>
<!-- Node16 -->
<g id="Node000016" class="node">
<title>Node16</title>
<g id="a_Node000016"><a xlink:title=" ">
<polygon fill="white" stroke="#666666" points="359.5,-249 241.5,-249 241.5,-230 359.5,-230 359.5,-249"/>
<text text-anchor="middle" x="300.5" y="-237" font-family="Helvetica,sans-Serif" font-size="10.00">std::shared_ptr&lt; T &gt;</text>
</a>
</g>
</g>
<!-- Node11&#45;&gt;Node16 -->
<g id="edge20_Node000016_Node000011" class="edge">
<title>Node11&#45;&gt;Node16</title>
<g id="a_edge20_Node000016_Node000011"><a xlink:title=" ">
<path fill="none" stroke="#9a32cd" stroke-dasharray="5,2" d="M27.52,-160.68C39.32,-176.92 58.89,-199.88 82,-211.5 131.66,-236.47 195.42,-242.07 241.04,-242.27"/>
<polygon fill="#9a32cd" stroke="#9a32cd" points="30.08,-158.24 21.5,-152.04 24.34,-162.24 30.08,-158.24"/>
</a>
</g>
<text text-anchor="middle" x="55.5" y="-201.5" font-family="Helvetica,sans-Serif" font-size="10.00" fill="grey"> ptr</text>
</g>
<!-- Node12 -->
<g id="Node000012" class="node">
<title>Node12</title>
<g id="a_Node000012"><a xlink:title=" ">
<polygon fill="white" stroke="#666666" points="1063,-172.5 943,-172.5 943,-142.5 1063,-142.5 1063,-172.5"/>
<text text-anchor="start" x="951" y="-160.5" font-family="Helvetica,sans-Serif" font-size="10.00">std::shared_ptr&lt; amr</text>
<text text-anchor="middle" x="1003" y="-149.5" font-family="Helvetica,sans-Serif" font-size="10.00">_wind::FieldInfo &gt;</text>
</a>
</g>
</g>
<!-- Node12&#45;&gt;Node4 -->
<g id="edge12_Node000004_Node000012" class="edge">
<title>Node12&#45;&gt;Node4</title>
<g id="a_edge12_Node000004_Node000012"><a xlink:title=" ">
<path fill="none" stroke="#9a32cd" stroke-dasharray="5,2" d="M1073.28,-140.66C1097.87,-134.68 1124.68,-128.16 1145.87,-123.01"/>
<polygon fill="#9a32cd" stroke="#9a32cd" points="1072.16,-137.33 1063.27,-143.09 1073.81,-144.13 1072.16,-137.33"/>
</a>
</g>
<text text-anchor="middle" x="1101" y="-141.5" font-family="Helvetica,sans-Serif" font-size="10.00" fill="grey"> m_info</text>
</g>
<!-- Node13&#45;&gt;Node12 -->
<g id="edge13_Node000012_Node000013" class="edge">
<title>Node13&#45;&gt;Node12</title>
<g id="a_edge13_Node000012_Node000013"><a xlink:title=" ">
<path fill="none" stroke="#9a32cd" stroke-dasharray="5,2" d="M840.07,-157.5C872.54,-157.5 911.34,-157.5 942.82,-157.5"/>
<polygon fill="#9a32cd" stroke="#9a32cd" points="839.78,-154 829.78,-157.5 839.78,-161 839.78,-154"/>
</a>
</g>
<text text-anchor="middle" x="888.5" y="-160.5" font-family="Helvetica,sans-Serif" font-size="10.00" fill="grey"> ptr</text>
</g>
<!-- Node14&#45;&gt;Node13 -->
<g id="edge15_Node000013_Node000014" class="edge">
<title>Node14&#45;&gt;Node13</title>
<g id="a_edge15_Node000013_Node000014"><a xlink:title=" ">
<path fill="none" stroke="#9a32cd" stroke-dasharray="5,2" d="M564.25,-159.57C614.15,-159.07 673.81,-158.48 716.37,-158.05"/>
<polygon fill="#9a32cd" stroke="#9a32cd" points="564.05,-156.07 554.08,-159.67 564.12,-163.07 564.05,-156.07"/>
</a>
</g>
<text text-anchor="middle" x="633" y="-162.5" font-family="Helvetica,sans-Serif" font-size="10.00" fill="grey"> m_fillpatch_op</text>
</g>
<!-- Node15&#45;&gt;Node14 -->
<g id="edge17_Node000014_Node000015" class="edge">
<title>Node15&#45;&gt;Node14</title>
<g id="a_edge17_Node000014_Node000015"><a xlink:title=" ">
<path fill="none" stroke="orange" stroke-dasharray="5,2" d="M218.38,-134.56C223.66,-134.14 228.91,-133.77 234,-133.5 293.03,-130.35 308.39,-125.84 367,-133.5 385.35,-135.9 405.11,-140.64 422.27,-145.49"/>
<polygon fill="orange" stroke="orange" points="217.89,-131.09 208.23,-135.45 218.49,-138.06 217.89,-131.09"/>
</a>
</g>
<text text-anchor="start" x="234" y="-147.5" font-family="Helvetica,sans-Serif" font-size="10.00" fill="grey"> &lt; amr_wind::FieldFillPatch</text>
<text text-anchor="middle" x="300.5" y="-136.5" font-family="Helvetica,sans-Serif" font-size="10.00" fill="grey">OpsBase &gt;</text>
</g>
<!-- Node16&#45;&gt;Node12 -->
<g id="edge19_Node000012_Node000016" class="edge">
<title>Node16&#45;&gt;Node12</title>
<g id="a_edge19_Node000012_Node000016"><a xlink:title=" ">
<path fill="none" stroke="orange" stroke-dasharray="5,2" d="M369.82,-238.49C448.33,-236.68 580.9,-231.62 694,-217.5 781.3,-206.6 881.03,-185.57 942.77,-171.54"/>
<polygon fill="orange" stroke="orange" points="369.5,-235 359.58,-238.72 369.66,-242 369.5,-235"/>
</a>
</g>
<text text-anchor="middle" x="633" y="-231.5" font-family="Helvetica,sans-Serif" font-size="10.00" fill="grey"> &lt; amr_wind::FieldInfo &gt;</text>
</g>
<!-- Node17&#45;&gt;Node1 -->
<g id="edge21_Node000001_Node000017" class="edge">
<title>Node17&#45;&gt;Node1</title>
<g id="a_edge21_Node000001_Node000017"><a xlink:title=" ">
<path fill="none" stroke="#9a32cd" stroke-dasharray="5,2" d="M1453.35,-149.46C1475.18,-147.17 1498.78,-144.68 1519.94,-142.45"/>
<polygon fill="#9a32cd" stroke="#9a32cd" points="1452.71,-146.01 1443.13,-150.54 1453.44,-152.97 1452.71,-146.01"/>
</a>
</g>
<text text-anchor="middle" x="1481.5" y="-151.5" font-family="Helvetica,sans-Serif" font-size="10.00" fill="grey"> m_op</text>
</g>
</g>
</svg>
