<?xml version="1.0" encoding="UTF-8" standalone="no"?>
<!DOCTYPE svg PUBLIC "-//W3C//DTD SVG 1.1//EN"
 "http://www.w3.org/Graphics/SVG/1.1/DTD/svg11.dtd">
<!-- Generated by graphviz version 2.43.0 (0)
 -->
<!-- Title: amr_wind::pde::tke::KsgsM84Src Pages: 1 -->
<svg width="617pt" height="626pt"
 viewBox="0.00 0.00 617.00 626.00" xmlns="http://www.w3.org/2000/svg" xmlns:xlink="http://www.w3.org/1999/xlink">
<g id="graph0" class="graph" transform="scale(1 1) rotate(0) translate(4 622)">
<title>amr_wind::pde::tke::KsgsM84Src</title>
<!-- Node1 -->
<g id="Node000001" class="node">
<title>Node1</title>
<g id="a_Node000001"><a xlink:title=" ">
<polygon fill="#999999" stroke="#666666" points="379,-30 269,-30 269,0 379,0 379,-30"/>
<text text-anchor="start" x="277" y="-18" font-family="Helvetica,sans-Serif" font-size="10.00">amr_wind::pde::tke</text>
<text text-anchor="middle" x="324" y="-7" font-family="Helvetica,sans-Serif" font-size="10.00">::KsgsM84Src</text>
</a>
</g>
</g>
<!-- Node2 -->
<g id="Node000002" class="node">
<title>Node2</title>
<g id="a_Node000002"><a xlink:title=" ">
<polygon fill="white" stroke="#666666" points="381,-184 235,-184 235,-143 381,-143 381,-184"/>
<text text-anchor="start" x="243" y="-172" font-family="Helvetica,sans-Serif" font-size="10.00">amr_wind::Factory&lt;</text>
<text text-anchor="start" x="243" y="-161" font-family="Helvetica,sans-Serif" font-size="10.00"> TKESource, const CFDSim</text>
<text text-anchor="middle" x="308" y="-150" font-family="Helvetica,sans-Serif" font-size="10.00"> &amp; &gt;::Register</text>
</a>
</g>
</g>
<!-- Node2&#45;&gt;Node1 -->
<g id="edge1_Node000001_Node000002" class="edge">
<title>Node2&#45;&gt;Node1</title>
<g id="a_edge1_Node000001_Node000002"><a xlink:title=" ">
<path fill="none" stroke="#63b8ff" d="M311.28,-132.44C314.69,-101.21 319.88,-53.68 322.45,-30.18"/>
<polygon fill="#63b8ff" stroke="#63b8ff" points="307.76,-132.42 310.16,-142.74 314.72,-133.18 307.76,-132.42"/>
</a>
</g>
</g>
<!-- Node3 -->
<g id="Node000003" class="node">
<title>Node3</title>
<g id="a_Node000003"><a xlink:href="classamr__wind_1_1_field.html" target="_top" xlink:title=" ">
<polygon fill="white" stroke="#666666" points="493,-173 399,-173 399,-154 493,-154 493,-173"/>
<text text-anchor="middle" x="446" y="-161" font-family="Helvetica,sans-Serif" font-size="10.00">amr_wind::Field</text>
</a>
</g>
</g>
<!-- Node3&#45;&gt;Node1 -->
<g id="edge2_Node000001_Node000003" class="edge">
<title>Node3&#45;&gt;Node1</title>
<g id="a_edge2_Node000001_Node000003"><a xlink:title=" ">
<path fill="none" stroke="#9a32cd" stroke-dasharray="5,2" d="M432.1,-145.8C407.92,-116.77 358.55,-57.49 335.87,-30.26"/>
<polygon fill="#9a32cd" stroke="#9a32cd" points="429.64,-148.33 438.73,-153.77 435.02,-143.85 429.64,-148.33"/>
</a>
</g>
<text text-anchor="start" x="417" y="-113.5" font-family="Helvetica,sans-Serif" font-size="10.00" fill="grey">m_buoy_prod</text>
<text text-anchor="start" x="417" y="-98.5" font-family="Helvetica,sans-Serif" font-size="10.00" fill="grey">m_dissip</text>
<text text-anchor="start" x="417" y="-83.5" font-family="Helvetica,sans-Serif" font-size="10.00" fill="grey">m_shear_prod</text>
<text text-anchor="start" x="417" y="-68.5" font-family="Helvetica,sans-Serif" font-size="10.00" fill="grey">m_tke</text>
<text text-anchor="start" x="417" y="-53.5" font-family="Helvetica,sans-Serif" font-size="10.00" fill="grey">m_turb_lscale</text>
</g>
<!-- Node4 -->
<g id="Node000004" class="node">
<title>Node4</title>
<g id="a_Node000004"><a xlink:href="classamr__wind_1_1_field_repo.html" target="_top" xlink:title=" ">
<polygon fill="white" stroke="#666666" points="505.5,-261.5 386.5,-261.5 386.5,-242.5 505.5,-242.5 505.5,-261.5"/>
<text text-anchor="middle" x="446" y="-249.5" font-family="Helvetica,sans-Serif" font-size="10.00">amr_wind::FieldRepo</text>
</a>
</g>
</g>
<!-- Node4&#45;&gt;Node3 -->
<g id="edge3_Node000003_Node000004" class="edge">
<title>Node4&#45;&gt;Node3</title>
<g id="a_edge3_Node000003_Node000004"><a xlink:title=" ">
<path fill="none" stroke="#9a32cd" stroke-dasharray="5,2" d="M446,-232.3C446,-213.95 446,-186.78 446,-173.08"/>
<polygon fill="#9a32cd" stroke="#9a32cd" points="442.5,-232.39 446,-242.39 449.5,-232.39 442.5,-232.39"/>
</a>
</g>
<text text-anchor="start" x="449.5" y="-207.5" font-family="Helvetica,sans-Serif" font-size="10.00" fill="grey">m_repo</text>
</g>
<!-- Node5 -->
<g id="Node000005" class="node">
<title>Node5</title>
<g id="a_Node000005"><a xlink:title=" ">
<polygon fill="white" stroke="#666666" points="507,-365 385,-365 385,-335 507,-335 507,-365"/>
<text text-anchor="start" x="393" y="-353" font-family="Helvetica,sans-Serif" font-size="10.00">std::unordered_map</text>
<text text-anchor="middle" x="446" y="-342" font-family="Helvetica,sans-Serif" font-size="10.00">&lt; std::string, size_t &gt;</text>
</a>
</g>
</g>
<!-- Node5&#45;&gt;Node4 -->
<g id="edge4_Node000004_Node000005" class="edge">
<title>Node5&#45;&gt;Node4</title>
<g id="a_edge4_Node000004_Node000005"><a xlink:title=" ">
<path fill="none" stroke="#9a32cd" stroke-dasharray="5,2" d="M446,-324.58C446,-303.92 446,-275.52 446,-261.51"/>
<polygon fill="#9a32cd" stroke="#9a32cd" points="442.5,-324.83 446,-334.83 449.5,-324.83 442.5,-324.83"/>
</a>
</g>
<text text-anchor="start" x="449.5" y="-306" font-family="Helvetica,sans-Serif" font-size="10.00" fill="grey">m_fid_map</text>
<text text-anchor="start" x="449.5" y="-291" font-family="Helvetica,sans-Serif" font-size="10.00" fill="grey">m_int_fid_map</text>
</g>
<!-- Node6 -->
<g id="Node000006" class="node">
<title>Node6</title>
<g id="a_Node000006"><a xlink:title=" ">
<polygon fill="white" stroke="#666666" points="589.5,-442.5 524.5,-442.5 524.5,-423.5 589.5,-423.5 589.5,-442.5"/>
<text text-anchor="middle" x="557" y="-430.5" font-family="Helvetica,sans-Serif" font-size="10.00">std::string</text>
</a>
</g>
</g>
<!-- Node6&#45;&gt;Node3 -->
<g id="edge10_Node000003_Node000006" class="edge">
<title>Node6&#45;&gt;Node3</title>
<g id="a_edge10_Node000003_Node000006"><a xlink:title=" ">
<path fill="none" stroke="#9a32cd" stroke-dasharray="5,2" d="M571.94,-415.29C575.24,-410.65 578.26,-405.4 580,-400 582.32,-392.81 581.59,-390.39 580,-383 565,-313.39 547.04,-300.08 514,-237 505.58,-220.93 504.95,-215.65 493,-202 483.1,-190.69 469.47,-180.24 459.43,-173.26"/>
<polygon fill="#9a32cd" stroke="#9a32cd" points="569.03,-413.33 565.54,-423.34 574.51,-417.69 569.03,-413.33"/>
</a>
</g>
<text text-anchor="start" x="561.5" y="-298" font-family="Helvetica,sans-Serif" font-size="10.00" fill="grey">m_name</text>
</g>
<!-- Node6&#45;&gt;Node5 -->
<g id="edge5_Node000005_Node000006" class="edge">
<title>Node6&#45;&gt;Node5</title>
<g id="a_edge5_Node000005_Node000006"><a xlink:title=" ">
<path fill="none" stroke="#9a32cd" stroke-dasharray="5,2" d="M552.54,-413.5C549.23,-403.29 543.73,-391.09 535,-383 526.81,-375.41 516.69,-369.6 506.24,-365.15"/>
<polygon fill="#9a32cd" stroke="#9a32cd" points="549.18,-414.47 555.25,-423.16 555.92,-412.58 549.18,-414.47"/>
</a>
</g>
<text text-anchor="start" x="550.5" y="-388.5" font-family="Helvetica,sans-Serif" font-size="10.00" fill="grey">keys</text>
</g>
<!-- Node12 -->
<g id="Node000012" class="node">
<title>Node12</title>
<g id="a_Node000012"><a xlink:href="structamr__wind_1_1_field_info.html" target="_top" xlink:title=" ">
<polygon fill="white" stroke="#666666" points="307.5,-359.5 194.5,-359.5 194.5,-340.5 307.5,-340.5 307.5,-359.5"/>
<text text-anchor="middle" x="251" y="-347.5" font-family="Helvetica,sans-Serif" font-size="10.00">amr_wind::FieldInfo</text>
</a>
</g>
</g>
<!-- Node6&#45;&gt;Node12 -->
<g id="edge13_Node000012_Node000006" class="edge">
<title>Node6&#45;&gt;Node12</title>
<g id="a_edge13_Node000012_Node000006"><a xlink:title=" ">
<path fill="none" stroke="#9a32cd" stroke-dasharray="5,2" d="M514.61,-422.49C496.45,-417.38 475.45,-410.02 458,-400 448.17,-394.36 449.21,-387.92 439,-383 416.33,-372.07 354.31,-362.84 307.65,-357.14"/>
<polygon fill="#9a32cd" stroke="#9a32cd" points="513.81,-425.9 524.37,-425.11 515.62,-419.14 513.81,-425.9"/>
</a>
</g>
<text text-anchor="start" x="461.5" y="-388.5" font-family="Helvetica,sans-Serif" font-size="10.00" fill="grey">m_basename</text>
</g>
<!-- Node7 -->
<g id="Node000007" class="node">
<title>Node7</title>
<g id="a_Node000007"><a xlink:title=" ">
<polygon fill="white" stroke="#666666" points="609,-546 505,-546 505,-516 609,-516 609,-546"/>
<text text-anchor="start" x="513" y="-534" font-family="Helvetica,sans-Serif" font-size="10.00">std::basic_string&lt;</text>
<text text-anchor="middle" x="557" y="-523" font-family="Helvetica,sans-Serif" font-size="10.00"> Char &gt;</text>
</a>
</g>
</g>
<!-- Node7&#45;&gt;Node6 -->
<g id="edge6_Node000006_Node000007" class="edge">
<title>Node7&#45;&gt;Node6</title>
<g id="a_edge6_Node000006_Node000007"><a xlink:title=" ">
<path fill="none" stroke="#63b8ff" d="M557,-505.58C557,-484.92 557,-456.52 557,-442.51"/>
<polygon fill="#63b8ff" stroke="#63b8ff" points="553.5,-505.83 557,-515.83 560.5,-505.83 553.5,-505.83"/>
</a>
</g>
</g>
<!-- Node8 -->
<g id="Node000008" class="node">
<title>Node8</title>
<g id="a_Node000008"><a xlink:title=" ">
<polygon fill="white" stroke="#666666" points="443,-448 329,-448 329,-418 443,-418 443,-448"/>
<text text-anchor="start" x="337" y="-436" font-family="Helvetica,sans-Serif" font-size="10.00">std::unordered_map</text>
<text text-anchor="middle" x="386" y="-425" font-family="Helvetica,sans-Serif" font-size="10.00">&lt; K, T &gt;</text>
</a>
</g>
</g>
<!-- Node8&#45;&gt;Node5 -->
<g id="edge7_Node000005_Node000008" class="edge">
<title>Node8&#45;&gt;Node5</title>
<g id="a_edge7_Node000005_Node000008"><a xlink:title=" ">
<path fill="none" stroke="orange" stroke-dasharray="5,2" d="M340.06,-412.74C327.02,-404.49 318.43,-394.18 327,-383 334.55,-373.15 359.69,-365.66 384.93,-360.41"/>
<polygon fill="orange" stroke="orange" points="338.7,-415.99 349.13,-417.85 342.14,-409.89 338.7,-415.99"/>
</a>
</g>
<text text-anchor="start" x="330" y="-388.5" font-family="Helvetica,sans-Serif" font-size="10.00" fill="grey">&lt; std::string, size_t &gt;</text>
</g>
<!-- Node9 -->
<g id="Node000009" class="node">
<title>Node9</title>
<g id="a_Node000009"><a xlink:title=" ">
<polygon fill="white" stroke="#666666" points="485.5,-540.5 456.5,-540.5 456.5,-521.5 485.5,-521.5 485.5,-540.5"/>
<text text-anchor="middle" x="471" y="-528.5" font-family="Helvetica,sans-Serif" font-size="10.00">K</text>
</a>
</g>
</g>
<!-- Node9&#45;&gt;Node8 -->
<g id="edge8_Node000008_Node000009" class="edge">
<title>Node9&#45;&gt;Node8</title>
<g id="a_edge8_Node000008_Node000009"><a xlink:title=" ">
<path fill="none" stroke="#9a32cd" stroke-dasharray="5,2" d="M456.77,-513.92C440.49,-495.54 414.1,-465.74 398.56,-448.18"/>
<polygon fill="#9a32cd" stroke="#9a32cd" points="454.21,-516.31 463.46,-521.48 459.45,-511.67 454.21,-516.31"/>
</a>
</g>
<text text-anchor="start" x="445.5" y="-479" font-family="Helvetica,sans-Serif" font-size="10.00" fill="grey">keys</text>
</g>
<!-- Node10 -->
<g id="Node000010" class="node">
<title>Node10</title>
<g id="a_Node000010"><a xlink:title=" ">
<polygon fill="white" stroke="#666666" points="305.5,-618 276.5,-618 276.5,-599 305.5,-599 305.5,-618"/>
<text text-anchor="middle" x="291" y="-606" font-family="Helvetica,sans-Serif" font-size="10.00">T</text>
</a>
</g>
</g>
<!-- Node10&#45;&gt;Node8 -->
<g id="edge9_Node000008_Node000010" class="edge">
<title>Node10&#45;&gt;Node8</title>
<g id="a_edge9_Node000008_Node000010"><a xlink:title=" ">
<path fill="none" stroke="#9a32cd" stroke-dasharray="5,2" d="M312.65,-593.07C327.76,-581.91 347.25,-565.17 359,-546 378.24,-514.63 383.77,-470.49 385.36,-448.15"/>
<polygon fill="#9a32cd" stroke="#9a32cd" points="310.47,-590.32 304.35,-598.97 314.53,-596.02 310.47,-590.32"/>
</a>
</g>
<text text-anchor="start" x="376" y="-528" font-family="Helvetica,sans-Serif" font-size="10.00" fill="grey">elements</text>
</g>
<!-- Node15 -->
<g id="Node000015" class="node">
<title>Node15</title>
<g id="a_Node000015"><a xlink:title=" ">
<polygon fill="white" stroke="#666666" points="350,-540.5 232,-540.5 232,-521.5 350,-521.5 350,-540.5"/>
<text text-anchor="middle" x="291" y="-528.5" font-family="Helvetica,sans-Serif" font-size="10.00">std::unique_ptr&lt; T &gt;</text>
</a>
</g>
</g>
<!-- Node10&#45;&gt;Node15 -->
<g id="edge17_Node000015_Node000010" class="edge">
<title>Node10&#45;&gt;Node15</title>
<g id="a_edge17_Node000015_Node000010"><a xlink:title=" ">
<path fill="none" stroke="#9a32cd" stroke-dasharray="5,2" d="M291,-588.4C291,-573.01 291,-552.11 291,-540.56"/>
<polygon fill="#9a32cd" stroke="#9a32cd" points="287.5,-588.84 291,-598.84 294.5,-588.84 287.5,-588.84"/>
</a>
</g>
<text text-anchor="start" x="294" y="-569.5" font-family="Helvetica,sans-Serif" font-size="10.00" fill="grey">ptr</text>
</g>
<!-- Node16 -->
<g id="Node000016" class="node">
<title>Node16</title>
<g id="a_Node000016"><a xlink:title=" ">
<polygon fill="white" stroke="#666666" points="118,-491.5 0,-491.5 0,-472.5 118,-472.5 118,-491.5"/>
<text text-anchor="middle" x="59" y="-479.5" font-family="Helvetica,sans-Serif" font-size="10.00">std::shared_ptr&lt; T &gt;</text>
</a>
</g>
</g>
<!-- Node10&#45;&gt;Node16 -->
<g id="edge19_Node000016_Node000010" class="edge">
<title>Node10&#45;&gt;Node16</title>
<g id="a_edge19_Node000016_Node000010"><a xlink:title=" ">
<path fill="none" stroke="#9a32cd" stroke-dasharray="5,2" d="M266.07,-608.4C220.2,-608.61 122.44,-601.98 71,-546 57.14,-530.92 57,-504.97 58.02,-491.57"/>
<polygon fill="#9a32cd" stroke="#9a32cd" points="266.36,-611.9 276.3,-608.24 266.24,-604.9 266.36,-611.9"/>
</a>
</g>
<text text-anchor="start" x="120" y="-569.5" font-family="Helvetica,sans-Serif" font-size="10.00" fill="grey">ptr</text>
</g>
<!-- Node11 -->
<g id="Node000011" class="node">
<title>Node11</title>
<g id="a_Node000011"><a xlink:title=" ">
<polygon fill="white" stroke="#666666" points="311,-267 191,-267 191,-237 311,-237 311,-267"/>
<text text-anchor="start" x="199" y="-255" font-family="Helvetica,sans-Serif" font-size="10.00">std::shared_ptr&lt; amr</text>
<text text-anchor="middle" x="251" y="-244" font-family="Helvetica,sans-Serif" font-size="10.00">_wind::FieldInfo &gt;</text>
</a>
</g>
</g>
<!-- Node11&#45;&gt;Node3 -->
<g id="edge11_Node000003_Node000011" class="edge">
<title>Node11&#45;&gt;Node3</title>
<g id="a_edge11_Node000003_Node000011"><a xlink:title=" ">
<path fill="none" stroke="#9a32cd" stroke-dasharray="5,2" d="M292.03,-232.8C333.42,-214.44 395.52,-186.89 426.69,-173.06"/>
<polygon fill="#9a32cd" stroke="#9a32cd" points="290.49,-229.66 282.76,-236.91 293.32,-236.05 290.49,-229.66"/>
</a>
</g>
<text text-anchor="start" x="364" y="-207.5" font-family="Helvetica,sans-Serif" font-size="10.00" fill="grey">m_info</text>
</g>
<!-- Node12&#45;&gt;Node11 -->
<g id="edge12_Node000011_Node000012" class="edge">
<title>Node12&#45;&gt;Node11</title>
<g id="a_edge12_Node000011_Node000012"><a xlink:title=" ">
<path fill="none" stroke="#9a32cd" stroke-dasharray="5,2" d="M251,-330.37C251,-311.88 251,-283.94 251,-267.18"/>
<polygon fill="#9a32cd" stroke="#9a32cd" points="247.5,-330.48 251,-340.48 254.5,-330.48 247.5,-330.48"/>
</a>
</g>
<text text-anchor="start" x="254" y="-298" font-family="Helvetica,sans-Serif" font-size="10.00" fill="grey">ptr</text>
</g>
<!-- Node13 -->
<g id="Node000013" class="node">
<title>Node13</title>
<g id="a_Node000013"><a xlink:title=" ">
<polygon fill="white" stroke="#666666" points="309.5,-448 140.5,-448 140.5,-418 309.5,-418 309.5,-448"/>
<text text-anchor="start" x="148.5" y="-436" font-family="Helvetica,sans-Serif" font-size="10.00">std::unique_ptr&lt; amr</text>
<text text-anchor="middle" x="225" y="-425" font-family="Helvetica,sans-Serif" font-size="10.00">_wind::FieldFillPatchOpsBase &gt;</text>
</a>
</g>
</g>
<!-- Node13&#45;&gt;Node12 -->
<g id="edge14_Node000012_Node000013" class="edge">
<title>Node13&#45;&gt;Node12</title>
<g id="a_edge14_Node000012_Node000013"><a xlink:title=" ">
<path fill="none" stroke="#9a32cd" stroke-dasharray="5,2" d="M222.48,-407.86C222.41,-399.76 223.22,-390.8 226,-383 229.21,-373.97 236.07,-365.5 241.79,-359.55"/>
<polygon fill="#9a32cd" stroke="#9a32cd" points="218.98,-408.03 222.97,-417.85 225.97,-407.69 218.98,-408.03"/>
</a>
</g>
<text text-anchor="start" x="229" y="-388.5" font-family="Helvetica,sans-Serif" font-size="10.00" fill="grey">m_fillpatch_op</text>
</g>
<!-- Node14 -->
<g id="Node000014" class="node">
<title>Node14</title>
<g id="a_Node000014"><a xlink:href="classamr__wind_1_1_field_fill_patch_ops_base.html" target="_top" xlink:title=" ">
<polygon fill="white" stroke="#666666" points="214,-546 80,-546 80,-516 214,-516 214,-546"/>
<text text-anchor="start" x="88" y="-534" font-family="Helvetica,sans-Serif" font-size="10.00">amr_wind::FieldFillPatch</text>
<text text-anchor="middle" x="147" y="-523" font-family="Helvetica,sans-Serif" font-size="10.00">OpsBase</text>
</a>
</g>
</g>
<!-- Node14&#45;&gt;Node13 -->
<g id="edge15_Node000013_Node000014" class="edge">
<title>Node14&#45;&gt;Node13</title>
<g id="a_edge15_Node000013_Node000014"><a xlink:title=" ">
<path fill="none" stroke="#9a32cd" stroke-dasharray="5,2" d="M164.9,-507.97C179.82,-489.61 200.64,-463.99 213.44,-448.22"/>
<polygon fill="#9a32cd" stroke="#9a32cd" points="162.1,-505.87 158.51,-515.83 167.53,-510.28 162.1,-505.87"/>
</a>
</g>
<text text-anchor="start" x="201" y="-479" font-family="Helvetica,sans-Serif" font-size="10.00" fill="grey">ptr</text>
</g>
<!-- Node15&#45;&gt;Node13 -->
<g id="edge16_Node000013_Node000015" class="edge">
<title>Node15&#45;&gt;Node13</title>
<g id="a_edge16_Node000013_Node000015"><a xlink:title=" ">
<path fill="none" stroke="orange" stroke-dasharray="5,2" d="M257.81,-516.84C249.53,-512.07 241.46,-505.86 236,-498 225.77,-483.28 224.01,-462.15 224.14,-448.26"/>
<polygon fill="orange" stroke="orange" points="256.27,-519.99 266.77,-521.46 259.49,-513.77 256.27,-519.99"/>
</a>
</g>
<text text-anchor="start" x="239" y="-487" font-family="Helvetica,sans-Serif" font-size="10.00" fill="grey">&lt; amr_wind::FieldFillPatch</text>
<text text-anchor="start" x="239" y="-472" font-family="Helvetica,sans-Serif" font-size="10.00" fill="grey">  OpsBase &gt;</text>
</g>
<!-- Node16&#45;&gt;Node11 -->
<g id="edge18_Node000011_Node000016" class="edge">
<title>Node16&#45;&gt;Node11</title>
<g id="a_edge18_Node000011_Node000016"><a xlink:title=" ">
<path fill="none" stroke="orange" stroke-dasharray="5,2" d="M62.54,-462.37C67.16,-441.57 76.77,-407.59 94,-383 130.35,-331.12 192.62,-288.23 226.8,-267.13"/>
<polygon fill="orange" stroke="orange" points="59.05,-461.93 60.47,-472.43 65.91,-463.34 59.05,-461.93"/>
</a>
</g>
<text text-anchor="start" x="97.5" y="-388.5" font-family="Helvetica,sans-Serif" font-size="10.00" fill="grey">&lt; amr_wind::FieldInfo &gt;</text>
</g>
</g>
</svg>
