<?xml version="1.0" encoding="UTF-8" standalone="no"?>
<!DOCTYPE svg PUBLIC "-//W3C//DTD SVG 1.1//EN"
 "http://www.w3.org/Graphics/SVG/1.1/DTD/svg11.dtd">
<!-- Generated by graphviz version 2.43.0 (0)
 -->
<!-- Title: amr_wind::turbulence::OneEqKsgs&lt; Transport &gt; Pages: 1 -->
<svg width="1349pt" height="86pt"
 viewBox="0.00 0.00 1349.00 86.00" xmlns="http://www.w3.org/2000/svg" xmlns:xlink="http://www.w3.org/1999/xlink">
<g id="graph0" class="graph" transform="scale(1 1) rotate(0) translate(4 82)">
<title>amr_wind::turbulence::OneEqKsgs&lt; Transport &gt;</title>
<!-- Node1 -->
<g id="Node000001" class="node">
<title>Node1</title>
<g id="a_Node000001"><a xlink:title=" ">
<polygon fill="#999999" stroke="#666666" points="1138,-54 993,-54 993,-24 1138,-24 1138,-54"/>
<text text-anchor="start" x="1001" y="-42" font-family="Helvetica,sans-Serif" font-size="10.00">amr_wind::turbulence</text>
<text text-anchor="middle" x="1065.5" y="-31" font-family="Helvetica,sans-Serif" font-size="10.00">::OneEqKsgs&lt; Transport &gt;</text>
</a>
</g>
</g>
<!-- Node7 -->
<g id="Node000007" class="node">
<title>Node7</title>
<g id="a_Node000007"><a xlink:href="classamr__wind_1_1turbulence_1_1_one_eq_ksgs_m84.html" target="_top" xlink:title=" ">
<polygon fill="white" stroke="#666666" points="1341,-78 1175,-78 1175,-48 1341,-48 1341,-78"/>
<text text-anchor="start" x="1183" y="-66" font-family="Helvetica,sans-Serif" font-size="10.00">amr_wind::turbulence</text>
<text text-anchor="middle" x="1258" y="-55" font-family="Helvetica,sans-Serif" font-size="10.00">::OneEqKsgsM84&lt; Transport &gt;</text>
</a>
</g>
</g>
<!-- Node1&#45;&gt;Node7 -->
<g id="edge6_Node000001_Node000007" class="edge">
<title>Node1&#45;&gt;Node7</title>
<g id="a_edge6_Node000001_Node000007"><a xlink:title=" ">
<path fill="none" stroke="#63b8ff" d="M1148.41,-49.32C1157.14,-50.42 1166.03,-51.54 1174.76,-52.64"/>
<polygon fill="#63b8ff" stroke="#63b8ff" points="1148.61,-45.82 1138.25,-48.04 1147.73,-52.76 1148.61,-45.82"/>
</a>
</g>
</g>
<!-- Node8 -->
<g id="Node000008" class="node">
<title>Node8</title>
<g id="a_Node000008"><a xlink:href="classamr__wind_1_1turbulence_1_1_one_eq_ksgs_s94.html" target="_top" xlink:title=" ">
<polygon fill="white" stroke="#666666" points="1339.5,-30 1176.5,-30 1176.5,0 1339.5,0 1339.5,-30"/>
<text text-anchor="start" x="1184.5" y="-18" font-family="Helvetica,sans-Serif" font-size="10.00">amr_wind::turbulence</text>
<text text-anchor="middle" x="1258" y="-7" font-family="Helvetica,sans-Serif" font-size="10.00">::OneEqKsgsS94&lt; Transport &gt;</text>
</a>
</g>
</g>
<!-- Node1&#45;&gt;Node8 -->
<g id="edge7_Node000001_Node000008" class="edge">
<title>Node1&#45;&gt;Node8</title>
<g id="a_edge7_Node000001_Node000008"><a xlink:title=" ">
<path fill="none" stroke="#63b8ff" d="M1148.27,-28.7C1157.58,-27.52 1167.07,-26.33 1176.37,-25.16"/>
<polygon fill="#63b8ff" stroke="#63b8ff" points="1147.73,-25.24 1138.25,-29.96 1148.61,-32.18 1147.73,-25.24"/>
</a>
</g>
</g>
<!-- Node2 -->
<g id="Node000002" class="node">
<title>Node2</title>
<g id="a_Node000002"><a xlink:href="classamr__wind_1_1turbulence_1_1_turb_model_base.html" target="_top" xlink:title=" ">
<polygon fill="white" stroke="#666666" points="956,-54 792,-54 792,-24 956,-24 956,-54"/>
<text text-anchor="start" x="800" y="-42" font-family="Helvetica,sans-Serif" font-size="10.00">amr_wind::turbulence</text>
<text text-anchor="middle" x="874" y="-31" font-family="Helvetica,sans-Serif" font-size="10.00">::TurbModelBase&lt; Transport &gt;</text>
</a>
</g>
</g>
<!-- Node2&#45;&gt;Node1 -->
<g id="edge1_Node000001_Node000002" class="edge">
<title>Node2&#45;&gt;Node1</title>
<g id="a_edge1_Node000001_Node000002"><a xlink:title=" ">
<path fill="none" stroke="#63b8ff" d="M966.21,-39C975.12,-39 984.07,-39 992.74,-39"/>
<polygon fill="#63b8ff" stroke="#63b8ff" points="966.19,-35.5 956.19,-39 966.19,-42.5 966.19,-35.5"/>
</a>
</g>
</g>
<!-- Node3 -->
<g id="Node000003" class="node">
<title>Node3</title>
<g id="a_Node000003"><a xlink:href="classamr__wind_1_1turbulence_1_1_turb_model.html" target="_top" xlink:title=" ">
<polygon fill="white" stroke="#666666" points="755,-54 615,-54 615,-24 755,-24 755,-54"/>
<text text-anchor="start" x="623" y="-42" font-family="Helvetica,sans-Serif" font-size="10.00">amr_wind::turbulence</text>
<text text-anchor="middle" x="685" y="-31" font-family="Helvetica,sans-Serif" font-size="10.00">::TurbModel&lt; Transport &gt;</text>
</a>
</g>
</g>
<!-- Node3&#45;&gt;Node2 -->
<g id="edge2_Node000002_Node000003" class="edge">
<title>Node3&#45;&gt;Node2</title>
<g id="a_edge2_Node000002_Node000003"><a xlink:title=" ">
<path fill="none" stroke="#63b8ff" d="M765.31,-39C774.1,-39 783.05,-39 791.85,-39"/>
<polygon fill="#63b8ff" stroke="#63b8ff" points="765.1,-35.5 755.1,-39 765.1,-42.5 765.1,-35.5"/>
</a>
</g>
</g>
<!-- Node4 -->
<g id="Node000004" class="node">
<title>Node4</title>
<g id="a_Node000004"><a xlink:href="classamr__wind_1_1turbulence_1_1_turbulence_model.html" target="_top" xlink:title=" ">
<polygon fill="white" stroke="#666666" points="578,-54 456,-54 456,-24 578,-24 578,-54"/>
<text text-anchor="start" x="464" y="-42" font-family="Helvetica,sans-Serif" font-size="10.00">amr_wind::turbulence</text>
<text text-anchor="middle" x="517" y="-31" font-family="Helvetica,sans-Serif" font-size="10.00">::TurbulenceModel</text>
</a>
</g>
</g>
<!-- Node4&#45;&gt;Node3 -->
<g id="edge3_Node000003_Node000004" class="edge">
<title>Node4&#45;&gt;Node3</title>
<g id="a_edge3_Node000003_Node000004"><a xlink:title=" ">
<path fill="none" stroke="#63b8ff" d="M588.55,-39C597.28,-39 606.21,-39 614.92,-39"/>
<polygon fill="#63b8ff" stroke="#63b8ff" points="588.4,-35.5 578.4,-39 588.4,-42.5 588.4,-35.5"/>
</a>
</g>
</g>
<!-- Node5 -->
<g id="Node000005" class="node">
<title>Node5</title>
<g id="a_Node000005"><a xlink:href="structamr__wind_1_1_factory.html" target="_top" xlink:title=" ">
<polygon fill="white" stroke="#666666" points="419,-54 250,-54 250,-24 419,-24 419,-54"/>
<text text-anchor="start" x="258" y="-42" font-family="Helvetica,sans-Serif" font-size="10.00">amr_wind::Factory&lt;</text>
<text text-anchor="middle" x="334.5" y="-31" font-family="Helvetica,sans-Serif" font-size="10.00"> TurbulenceModel, CFDSim &amp; &gt;</text>
</a>
</g>
</g>
<!-- Node5&#45;&gt;Node4 -->
<g id="edge4_Node000004_Node000005" class="edge">
<title>Node5&#45;&gt;Node4</title>
<g id="a_edge4_Node000004_Node000005"><a xlink:title=" ">
<path fill="none" stroke="#63b8ff" d="M429.3,-39C438.29,-39 447.24,-39 455.78,-39"/>
<polygon fill="#63b8ff" stroke="#63b8ff" points="429.15,-35.5 419.15,-39 429.15,-42.5 429.15,-35.5"/>
</a>
</g>
</g>
<!-- Node6 -->
<g id="Node000006" class="node">
<title>Node6</title>
<g id="a_Node000006"><a xlink:href="structamr__wind_1_1_factory.html" target="_top" xlink:title=" ">
<polygon fill="white" stroke="#666666" points="114,-54 0,-54 0,-24 114,-24 114,-54"/>
<text text-anchor="start" x="8" y="-42" font-family="Helvetica,sans-Serif" font-size="10.00">amr_wind::Factory&lt;</text>
<text text-anchor="middle" x="57" y="-31" font-family="Helvetica,sans-Serif" font-size="10.00"> Base, Args &gt;</text>
</a>
</g>
</g>
<!-- Node6&#45;&gt;Node5 -->
<g id="edge5_Node000005_Node000006" class="edge">
<title>Node6&#45;&gt;Node5</title>
<g id="a_edge5_Node000005_Node000006"><a xlink:title=" ">
<path fill="none" stroke="orange" stroke-dasharray="5,2" d="M124.43,-39C162.09,-39 209.58,-39 249.77,-39"/>
<polygon fill="orange" stroke="orange" points="124.08,-35.5 114.08,-39 124.08,-42.5 124.08,-35.5"/>
</a>
</g>
<text text-anchor="start" x="132" y="-53" font-family="Helvetica,sans-Serif" font-size="10.00" fill="grey"> &lt; TurbulenceModel,</text>
<text text-anchor="middle" x="182" y="-42" font-family="Helvetica,sans-Serif" font-size="10.00" fill="grey"> CFDSim &amp; &gt;</text>
</g>
</g>
</svg>
