<?xml version="1.0" encoding="UTF-8" standalone="no"?>
<!DOCTYPE svg PUBLIC "-//W3C//DTD SVG 1.1//EN"
 "http://www.w3.org/Graphics/SVG/1.1/DTD/svg11.dtd">
<!-- Generated by graphviz version 2.43.0 (0)
 -->
<!-- Title: amr_wind::BCIface Pages: 1 -->
<svg width="470pt" height="212pt"
 viewBox="0.00 0.00 470.00 212.00" xmlns="http://www.w3.org/2000/svg" xmlns:xlink="http://www.w3.org/1999/xlink">
<g id="graph0" class="graph" transform="scale(1 1) rotate(0) translate(4 208)">
<title>amr_wind::BCIface</title>
<!-- Node1 -->
<g id="Node000001" class="node">
<title>Node1</title>
<g id="a_Node000001"><a xlink:title=" ">
<polygon fill="#999999" stroke="#666666" points="108,-111 0,-111 0,-92 108,-92 108,-111"/>
<text text-anchor="middle" x="54" y="-99" font-family="Helvetica,sans-Serif" font-size="10.00">amr_wind::BCIface</text>
</a>
</g>
</g>
<!-- Node2 -->
<g id="Node000002" class="node">
<title>Node2</title>
<g id="a_Node000002"><a xlink:href="classamr__wind_1_1_b_c_density_mod.html" target="_top" xlink:title=" ">
<polygon fill="white" stroke="#666666" points="293.5,-204 150.5,-204 150.5,-185 293.5,-185 293.5,-204"/>
<text text-anchor="middle" x="222" y="-192" font-family="Helvetica,sans-Serif" font-size="10.00">amr_wind::BCDensityMod</text>
</a>
</g>
</g>
<!-- Node1&#45;&gt;Node2 -->
<g id="edge1_Node000001_Node000002" class="edge">
<title>Node1&#45;&gt;Node2</title>
<g id="a_edge1_Node000001_Node000002"><a xlink:title=" ">
<path fill="none" stroke="#63b8ff" d="M70.75,-118.89C87.32,-136.11 114.98,-161.94 144,-176.5 150.75,-179.89 158.15,-182.65 165.62,-184.9"/>
<polygon fill="#63b8ff" stroke="#63b8ff" points="72.95,-116.11 63.55,-111.22 67.84,-120.9 72.95,-116.11"/>
</a>
</g>
</g>
<!-- Node3 -->
<g id="Node000003" class="node">
<title>Node3</title>
<g id="a_Node000003"><a xlink:href="classamr__wind_1_1_b_c_fill_patch_extrap.html" target="_top" xlink:title=" ">
<polygon fill="white" stroke="#666666" points="300,-167 144,-167 144,-148 300,-148 300,-167"/>
<text text-anchor="middle" x="222" y="-155" font-family="Helvetica,sans-Serif" font-size="10.00">amr_wind::BCFillPatchExtrap</text>
</a>
</g>
</g>
<!-- Node1&#45;&gt;Node3 -->
<g id="edge2_Node000001_Node000003" class="edge">
<title>Node1&#45;&gt;Node3</title>
<g id="a_edge2_Node000001_Node000003"><a xlink:title=" ">
<path fill="none" stroke="#63b8ff" d="M84.21,-115.5C101.35,-123.32 123.58,-132.81 144,-139.5 153.65,-142.66 164.16,-145.5 174.22,-147.94"/>
<polygon fill="#63b8ff" stroke="#63b8ff" points="85.31,-112.15 74.77,-111.12 82.37,-118.5 85.31,-112.15"/>
</a>
</g>
</g>
<!-- Node4 -->
<g id="Node000004" class="node">
<title>Node4</title>
<g id="a_Node000004"><a xlink:href="classamr__wind_1_1_b_c_scalar.html" target="_top" xlink:title=" ">
<polygon fill="white" stroke="#666666" points="279,-130 165,-130 165,-111 279,-111 279,-130"/>
<text text-anchor="middle" x="222" y="-118" font-family="Helvetica,sans-Serif" font-size="10.00">amr_wind::BCScalar</text>
</a>
</g>
</g>
<!-- Node1&#45;&gt;Node4 -->
<g id="edge3_Node000001_Node000004" class="edge">
<title>Node1&#45;&gt;Node4</title>
<g id="a_edge3_Node000001_Node000004"><a xlink:title=" ">
<path fill="none" stroke="#63b8ff" d="M118.77,-108.8C133.93,-110.53 150,-112.37 164.8,-114.07"/>
<polygon fill="#63b8ff" stroke="#63b8ff" points="118.77,-105.28 108.44,-107.62 117.97,-112.23 118.77,-105.28"/>
</a>
</g>
</g>
<!-- Node6 -->
<g id="Node000006" class="node">
<title>Node6</title>
<g id="a_Node000006"><a xlink:href="classamr__wind_1_1_b_c_src_term.html" target="_top" xlink:title=" ">
<polygon fill="white" stroke="#666666" points="283.5,-93 160.5,-93 160.5,-74 283.5,-74 283.5,-93"/>
<text text-anchor="middle" x="222" y="-81" font-family="Helvetica,sans-Serif" font-size="10.00">amr_wind::BCSrcTerm</text>
</a>
</g>
</g>
<!-- Node1&#45;&gt;Node6 -->
<g id="edge5_Node000001_Node000006" class="edge">
<title>Node1&#45;&gt;Node6</title>
<g id="a_edge5_Node000001_Node000006"><a xlink:title=" ">
<path fill="none" stroke="#63b8ff" d="M118.74,-94.59C132.44,-93.1 146.88,-91.54 160.46,-90.07"/>
<polygon fill="#63b8ff" stroke="#63b8ff" points="118,-91.15 108.44,-95.71 118.76,-98.11 118,-91.15"/>
</a>
</g>
</g>
<!-- Node7 -->
<g id="Node000007" class="node">
<title>Node7</title>
<g id="a_Node000007"><a xlink:href="classamr__wind_1_1_b_c_v_o_f.html" target="_top" xlink:title=" ">
<polygon fill="white" stroke="#666666" points="274,-56 170,-56 170,-37 274,-37 274,-56"/>
<text text-anchor="middle" x="222" y="-44" font-family="Helvetica,sans-Serif" font-size="10.00">amr_wind::BCVOF</text>
</a>
</g>
</g>
<!-- Node1&#45;&gt;Node7 -->
<g id="edge6_Node000001_Node000007" class="edge">
<title>Node1&#45;&gt;Node7</title>
<g id="a_edge6_Node000001_Node000007"><a xlink:title=" ">
<path fill="none" stroke="#63b8ff" d="M85.68,-87.83C102.65,-80.59 124.25,-71.9 144,-65.5 154.74,-62.02 166.5,-58.82 177.53,-56.08"/>
<polygon fill="#63b8ff" stroke="#63b8ff" points="84.05,-84.72 76.26,-91.9 86.83,-91.14 84.05,-84.72"/>
</a>
</g>
</g>
<!-- Node8 -->
<g id="Node000008" class="node">
<title>Node8</title>
<g id="a_Node000008"><a xlink:href="classamr__wind_1_1_b_c_velocity.html" target="_top" xlink:title=" ">
<polygon fill="white" stroke="#666666" points="283.5,-19 160.5,-19 160.5,0 283.5,0 283.5,-19"/>
<text text-anchor="middle" x="222" y="-7" font-family="Helvetica,sans-Serif" font-size="10.00">amr_wind::BCVelocity</text>
</a>
</g>
</g>
<!-- Node1&#45;&gt;Node8 -->
<g id="edge7_Node000001_Node000008" class="edge">
<title>Node1&#45;&gt;Node8</title>
<g id="a_edge7_Node000001_Node000008"><a xlink:title=" ">
<path fill="none" stroke="#63b8ff" d="M71.15,-84.4C87.85,-67.71 115.44,-42.81 144,-28.5 151.63,-24.68 160.08,-21.59 168.51,-19.11"/>
<polygon fill="#63b8ff" stroke="#63b8ff" points="68.35,-82.25 63.87,-91.85 73.36,-87.14 68.35,-82.25"/>
</a>
</g>
</g>
<!-- Node5 -->
<g id="Node000005" class="node">
<title>Node5</title>
<g id="a_Node000005"><a xlink:href="classamr__wind_1_1_b_c_pressure.html" target="_top" xlink:title=" ">
<polygon fill="white" stroke="#666666" points="462,-130 336,-130 336,-111 462,-111 462,-130"/>
<text text-anchor="middle" x="399" y="-118" font-family="Helvetica,sans-Serif" font-size="10.00">amr_wind::BCPressure</text>
</a>
</g>
</g>
<!-- Node4&#45;&gt;Node5 -->
<g id="edge4_Node000004_Node000005" class="edge">
<title>Node4&#45;&gt;Node5</title>
<g id="a_edge4_Node000004_Node000005"><a xlink:title=" ">
<path fill="none" stroke="#63b8ff" d="M289.64,-120.5C304.76,-120.5 320.77,-120.5 335.71,-120.5"/>
<polygon fill="#63b8ff" stroke="#63b8ff" points="289.33,-117 279.33,-120.5 289.33,-124 289.33,-117"/>
</a>
</g>
</g>
</g>
</svg>
