<?xml version="1.0" encoding="UTF-8" standalone="no"?>
<!DOCTYPE svg PUBLIC "-//W3C//DTD SVG 1.1//EN"
 "http://www.w3.org/Graphics/SVG/1.1/DTD/svg11.dtd">
<!-- Generated by graphviz version 2.43.0 (0)
 -->
<!-- Title: amr_wind::pde::TemperatureSource Pages: 1 -->
<svg width="201pt" height="214pt"
 viewBox="0.00 0.00 201.00 214.00" xmlns="http://www.w3.org/2000/svg" xmlns:xlink="http://www.w3.org/1999/xlink">
<g id="graph0" class="graph" transform="scale(1 1) rotate(0) translate(4 210)">
<title>amr_wind::pde::TemperatureSource</title>
<!-- Node1 -->
<g id="Node000001" class="node">
<title>Node1</title>
<g id="a_Node000001"><a xlink:title=" ">
<polygon fill="#999999" stroke="#666666" points="156,-30 0,-30 0,0 156,0 156,-30"/>
<text text-anchor="start" x="8" y="-18" font-family="Helvetica,sans-Serif" font-size="10.00">amr_wind::pde::Temperature</text>
<text text-anchor="middle" x="78" y="-7" font-family="Helvetica,sans-Serif" font-size="10.00">Source</text>
</a>
</g>
</g>
<!-- Node2 -->
<g id="Node000002" class="node">
<title>Node2</title>
<g id="a_Node000002"><a xlink:href="structamr__wind_1_1_factory.html" target="_top" xlink:title=" ">
<polygon fill="white" stroke="#666666" points="136.5,-108 19.5,-108 19.5,-67 136.5,-67 136.5,-108"/>
<text text-anchor="start" x="27.5" y="-96" font-family="Helvetica,sans-Serif" font-size="10.00">amr_wind::Factory&lt;</text>
<text text-anchor="start" x="27.5" y="-85" font-family="Helvetica,sans-Serif" font-size="10.00"> TemperatureSource,</text>
<text text-anchor="middle" x="78" y="-74" font-family="Helvetica,sans-Serif" font-size="10.00"> const CFDSim &amp; &gt;</text>
</a>
</g>
</g>
<!-- Node2&#45;&gt;Node1 -->
<g id="edge1_Node000001_Node000002" class="edge">
<title>Node2&#45;&gt;Node1</title>
<g id="a_edge1_Node000001_Node000002"><a xlink:title=" ">
<path fill="none" stroke="#63b8ff" d="M78,-56.58C78,-47.51 78,-37.95 78,-30.39"/>
<polygon fill="#63b8ff" stroke="#63b8ff" points="74.5,-56.86 78,-66.86 81.5,-56.86 74.5,-56.86"/>
</a>
</g>
</g>
<!-- Node3 -->
<g id="Node000003" class="node">
<title>Node3</title>
<g id="a_Node000003"><a xlink:href="structamr__wind_1_1_factory.html" target="_top" xlink:title=" ">
<polygon fill="white" stroke="#666666" points="135,-206 21,-206 21,-176 135,-176 135,-206"/>
<text text-anchor="start" x="29" y="-194" font-family="Helvetica,sans-Serif" font-size="10.00">amr_wind::Factory&lt;</text>
<text text-anchor="middle" x="78" y="-183" font-family="Helvetica,sans-Serif" font-size="10.00"> Base, Args &gt;</text>
</a>
</g>
</g>
<!-- Node3&#45;&gt;Node2 -->
<g id="edge2_Node000002_Node000003" class="edge">
<title>Node3&#45;&gt;Node2</title>
<g id="a_edge2_Node000002_Node000003"><a xlink:title=" ">
<path fill="none" stroke="orange" stroke-dasharray="5,2" d="M78,-165.78C78,-148.13 78,-124.52 78,-108.06"/>
<polygon fill="orange" stroke="orange" points="74.5,-165.89 78,-175.89 81.5,-165.89 74.5,-165.89"/>
</a>
</g>
<text text-anchor="start" x="81.5" y="-147" font-family="Helvetica,sans-Serif" font-size="10.00" fill="grey">&lt; TemperatureSource,</text>
<text text-anchor="start" x="81.5" y="-132" font-family="Helvetica,sans-Serif" font-size="10.00" fill="grey">   const CFDSim &amp; &gt;</text>
</g>
</g>
</svg>
