<?xml version="1.0" encoding="UTF-8" standalone="no"?>
<!DOCTYPE svg PUBLIC "-//W3C//DTD SVG 1.1//EN"
 "http://www.w3.org/Graphics/SVG/1.1/DTD/svg11.dtd">
<!-- Generated by graphviz version 2.43.0 (0)
 -->
<!-- Title: amr_wind::actuator::ActDataHolder&lt; ActTrait &gt; Pages: 1 -->
<svg width="536pt" height="257pt"
 viewBox="0.00 0.00 536.00 257.00" xmlns="http://www.w3.org/2000/svg" xmlns:xlink="http://www.w3.org/1999/xlink">
<g id="graph0" class="graph" transform="scale(1 1) rotate(0) translate(4 253)">
<title>amr_wind::actuator::ActDataHolder&lt; ActTrait &gt;</title>
<!-- Node1 -->
<g id="Node000001" class="node">
<title>Node1</title>
<g id="a_Node000001"><a xlink:title=" ">
<polygon fill="#999999" stroke="#666666" points="153,-137 0,-137 0,-107 153,-107 153,-137"/>
<text text-anchor="start" x="8" y="-125" font-family="Helvetica,sans-Serif" font-size="10.00">amr_wind::actuator</text>
<text text-anchor="middle" x="76.5" y="-114" font-family="Helvetica,sans-Serif" font-size="10.00">::ActDataHolder&lt; ActTrait &gt;</text>
</a>
</g>
</g>
<!-- Node2 -->
<g id="Node000002" class="node">
<title>Node2</title>
<g id="a_Node000002"><a xlink:href="classamr__wind_1_1actuator_1_1_act_data_holder.html" target="_top" xlink:title=" ">
<polygon fill="white" stroke="#666666" points="528,-244 361,-244 361,-214 528,-214 528,-244"/>
<text text-anchor="start" x="369" y="-232" font-family="Helvetica,sans-Serif" font-size="10.00">amr_wind::actuator</text>
<text text-anchor="middle" x="444.5" y="-221" font-family="Helvetica,sans-Serif" font-size="10.00">::ActDataHolder&lt; Joukowsky &gt;</text>
</a>
</g>
</g>
<!-- Node1&#45;&gt;Node2 -->
<g id="edge1_Node000001_Node000002" class="edge">
<title>Node1&#45;&gt;Node2</title>
<g id="a_edge1_Node000001_Node000002"><a xlink:title=" ">
<path fill="none" stroke="orange" stroke-dasharray="5,2" d="M97.12,-144.5C114.54,-162.81 141.7,-187.59 171,-200 231.13,-225.47 305.11,-231.96 360.81,-232.51"/>
<polygon fill="orange" stroke="orange" points="99.64,-142.07 90.28,-137.1 94.5,-146.82 99.64,-142.07"/>
</a>
</g>
<text text-anchor="start" x="220" y="-237.5" font-family="Helvetica,sans-Serif" font-size="10.00" fill="grey">&lt; Joukowsky &gt;</text>
</g>
<!-- Node3 -->
<g id="Node000003" class="node">
<title>Node3</title>
<g id="a_Node000003"><a xlink:href="classamr__wind_1_1actuator_1_1_act_data_holder.html" target="_top" xlink:title=" ">
<polygon fill="white" stroke="#666666" points="528,-196 361,-196 361,-166 528,-166 528,-196"/>
<text text-anchor="start" x="369" y="-184" font-family="Helvetica,sans-Serif" font-size="10.00">amr_wind::actuator</text>
<text text-anchor="middle" x="444.5" y="-173" font-family="Helvetica,sans-Serif" font-size="10.00">::ActDataHolder&lt; UniformCt &gt;</text>
</a>
</g>
</g>
<!-- Node1&#45;&gt;Node3 -->
<g id="edge2_Node000001_Node000003" class="edge">
<title>Node1&#45;&gt;Node3</title>
<g id="a_edge2_Node000001_Node000003"><a xlink:title=" ">
<path fill="none" stroke="orange" stroke-dasharray="5,2" d="M119.59,-141.12C135.4,-147.52 153.73,-154.03 171,-158 233.7,-172.41 306.37,-178.01 360.89,-180.09"/>
<polygon fill="orange" stroke="orange" points="120.68,-137.78 110.1,-137.17 117.99,-144.25 120.68,-137.78"/>
</a>
</g>
<text text-anchor="start" x="221" y="-184.5" font-family="Helvetica,sans-Serif" font-size="10.00" fill="grey">&lt; UniformCt &gt;</text>
</g>
<!-- Node4 -->
<g id="Node000004" class="node">
<title>Node4</title>
<g id="a_Node000004"><a xlink:href="classamr__wind_1_1actuator_1_1_act_data_holder.html" target="_top" xlink:title=" ">
<polygon fill="white" stroke="#666666" points="527,-148 362,-148 362,-96 527,-96 527,-148"/>
<text text-anchor="start" x="370" y="-136" font-family="Helvetica,sans-Serif" font-size="10.00">amr_wind::actuator</text>
<text text-anchor="start" x="370" y="-125" font-family="Helvetica,sans-Serif" font-size="10.00">::ActDataHolder&lt; TurbineFrom</text>
<text text-anchor="start" x="370" y="-114" font-family="Helvetica,sans-Serif" font-size="10.00">ExtSolver&lt; SolverTurbine,</text>
<text text-anchor="middle" x="444.5" y="-103" font-family="Helvetica,sans-Serif" font-size="10.00"> SolverData &gt; &gt;</text>
</a>
</g>
</g>
<!-- Node1&#45;&gt;Node4 -->
<g id="edge3_Node000001_Node000004" class="edge">
<title>Node1&#45;&gt;Node4</title>
<g id="a_edge3_Node000001_Node000004"><a xlink:title=" ">
<path fill="none" stroke="orange" stroke-dasharray="5,2" d="M163.53,-122C223.41,-122 302.78,-122 361.72,-122"/>
<polygon fill="orange" stroke="orange" points="163.34,-118.5 153.34,-122 163.34,-125.5 163.34,-118.5"/>
</a>
</g>
<text text-anchor="start" x="174" y="-143" font-family="Helvetica,sans-Serif" font-size="10.00" fill="grey">&lt; TurbineFromExtSolver</text>
<text text-anchor="start" x="174" y="-128" font-family="Helvetica,sans-Serif" font-size="10.00" fill="grey">  &lt; SolverTurbine, SolverData &gt; &gt;</text>
</g>
<!-- Node5 -->
<g id="Node000005" class="node">
<title>Node5</title>
<g id="a_Node000005"><a xlink:href="classamr__wind_1_1actuator_1_1_act_data_holder.html" target="_top" xlink:title=" ">
<polygon fill="white" stroke="#666666" points="528,-78 361,-78 361,-48 528,-48 528,-78"/>
<text text-anchor="start" x="369" y="-66" font-family="Helvetica,sans-Serif" font-size="10.00">amr_wind::actuator</text>
<text text-anchor="middle" x="444.5" y="-55" font-family="Helvetica,sans-Serif" font-size="10.00">::ActDataHolder&lt; FixedWing &gt;</text>
</a>
</g>
</g>
<!-- Node1&#45;&gt;Node5 -->
<g id="edge4_Node000001_Node000005" class="edge">
<title>Node1&#45;&gt;Node5</title>
<g id="a_edge4_Node000001_Node000005"><a xlink:title=" ">
<path fill="none" stroke="orange" stroke-dasharray="5,2" d="M151.06,-104.88C157.79,-103.5 164.51,-102.18 171,-101 234.45,-89.47 306.76,-79.53 360.94,-72.72"/>
<polygon fill="orange" stroke="orange" points="150.3,-101.47 141.23,-106.95 151.74,-108.32 150.3,-101.47"/>
</a>
</g>
<text text-anchor="start" x="221" y="-106.5" font-family="Helvetica,sans-Serif" font-size="10.00" fill="grey">&lt; FixedWing &gt;</text>
</g>
<!-- Node6 -->
<g id="Node000006" class="node">
<title>Node6</title>
<g id="a_Node000006"><a xlink:href="classamr__wind_1_1actuator_1_1_act_data_holder.html" target="_top" xlink:title=" ">
<polygon fill="white" stroke="#666666" points="524.5,-30 364.5,-30 364.5,0 524.5,0 524.5,-30"/>
<text text-anchor="start" x="372.5" y="-18" font-family="Helvetica,sans-Serif" font-size="10.00">amr_wind::actuator</text>
<text text-anchor="middle" x="444.5" y="-7" font-family="Helvetica,sans-Serif" font-size="10.00">::ActDataHolder&lt; FlatPlate &gt;</text>
</a>
</g>
</g>
<!-- Node1&#45;&gt;Node6 -->
<g id="edge5_Node000001_Node000006" class="edge">
<title>Node1&#45;&gt;Node6</title>
<g id="a_edge5_Node000001_Node000006"><a xlink:title=" ">
<path fill="none" stroke="orange" stroke-dasharray="5,2" d="M100.82,-100C118.63,-84.53 144.55,-64.73 171,-54 232.89,-28.89 308.41,-19.57 364.24,-16.29"/>
<polygon fill="orange" stroke="orange" points="98.37,-97.5 93.23,-106.76 103.02,-102.72 98.37,-97.5"/>
</a>
</g>
<text text-anchor="start" x="224" y="-59.5" font-family="Helvetica,sans-Serif" font-size="10.00" fill="grey">&lt; FlatPlate &gt;</text>
</g>
</g>
</svg>
