<?xml version="1.0" encoding="UTF-8" standalone="no"?>
<!DOCTYPE svg PUBLIC "-//W3C//DTD SVG 1.1//EN"
 "http://www.w3.org/Graphics/SVG/1.1/DTD/svg11.dtd">
<!-- Generated by graphviz version 2.43.0 (0)
 -->
<!-- Title: amr_wind::pde::DiffSolverIface&lt; LinOp &gt; Pages: 1 -->
<svg width="696pt" height="204pt"
 viewBox="0.00 0.00 696.00 204.00" xmlns="http://www.w3.org/2000/svg" xmlns:xlink="http://www.w3.org/1999/xlink">
<g id="graph0" class="graph" transform="scale(1 1) rotate(0) translate(4 200)">
<title>amr_wind::pde::DiffSolverIface&lt; LinOp &gt;</title>
<!-- Node1 -->
<g id="Node000001" class="node">
<title>Node1</title>
<g id="a_Node000001"><a xlink:title=" ">
<polygon fill="#999999" stroke="#666666" points="143,-100 0,-100 0,-70 143,-70 143,-100"/>
<text text-anchor="start" x="8" y="-88" font-family="Helvetica,sans-Serif" font-size="10.00">amr_wind::pde::DiffSolver</text>
<text text-anchor="middle" x="71.5" y="-77" font-family="Helvetica,sans-Serif" font-size="10.00">Iface&lt; LinOp &gt;</text>
</a>
</g>
</g>
<!-- Node2 -->
<g id="Node000002" class="node">
<title>Node2</title>
<g id="a_Node000002"><a xlink:href="classamr__wind_1_1pde_1_1_diff_solver_iface.html" target="_top" xlink:title=" ">
<polygon fill="white" stroke="#666666" points="455,-180 312,-180 312,-150 455,-150 455,-180"/>
<text text-anchor="start" x="320" y="-168" font-family="Helvetica,sans-Serif" font-size="10.00">amr_wind::pde::DiffSolver</text>
<text text-anchor="middle" x="383.5" y="-157" font-family="Helvetica,sans-Serif" font-size="10.00">Iface&lt; PDE::MLDiffOp &gt;</text>
</a>
</g>
</g>
<!-- Node1&#45;&gt;Node2 -->
<g id="edge1_Node000001_Node000002" class="edge">
<title>Node1&#45;&gt;Node2</title>
<g id="a_edge1_Node000001_Node000002"><a xlink:title=" ">
<path fill="none" stroke="orange" stroke-dasharray="5,2" d="M112.46,-104.36C127.42,-111.01 144.73,-118.03 161,-123 210.41,-138.09 267.76,-148.79 311.72,-155.61"/>
<polygon fill="orange" stroke="orange" points="113.56,-101.01 103.01,-100.06 110.66,-107.38 113.56,-101.01"/>
</a>
</g>
<text text-anchor="start" x="176.5" y="-155.5" font-family="Helvetica,sans-Serif" font-size="10.00" fill="grey">&lt; PDE::MLDiffOp &gt;</text>
</g>
<!-- Node4 -->
<g id="Node000004" class="node">
<title>Node4</title>
<g id="a_Node000004"><a xlink:href="classamr__wind_1_1pde_1_1_diff_solver_iface.html" target="_top" xlink:title=" ">
<polygon fill="white" stroke="#666666" points="455,-126 312,-126 312,-96 455,-96 455,-126"/>
<text text-anchor="start" x="320" y="-114" font-family="Helvetica,sans-Serif" font-size="10.00">amr_wind::pde::DiffSolver</text>
<text text-anchor="middle" x="383.5" y="-103" font-family="Helvetica,sans-Serif" font-size="10.00">Iface&lt; SDR::MLDiffOp &gt;</text>
</a>
</g>
</g>
<!-- Node1&#45;&gt;Node4 -->
<g id="edge3_Node000001_Node000004" class="edge">
<title>Node1&#45;&gt;Node4</title>
<g id="a_edge3_Node000001_Node000004"><a xlink:title=" ">
<path fill="none" stroke="orange" stroke-dasharray="5,2" d="M153.2,-91.77C202.36,-95.89 264.58,-101.11 311.8,-105.07"/>
<polygon fill="orange" stroke="orange" points="153.49,-88.28 143.23,-90.93 152.9,-95.26 153.49,-88.28"/>
</a>
</g>
<text text-anchor="start" x="176.5" y="-107.5" font-family="Helvetica,sans-Serif" font-size="10.00" fill="grey">&lt; SDR::MLDiffOp &gt;</text>
</g>
<!-- Node6 -->
<g id="Node000006" class="node">
<title>Node6</title>
<g id="a_Node000006"><a xlink:href="classamr__wind_1_1pde_1_1_diff_solver_iface.html" target="_top" xlink:title=" ">
<polygon fill="white" stroke="#666666" points="455,-78 312,-78 312,-48 455,-48 455,-78"/>
<text text-anchor="start" x="320" y="-66" font-family="Helvetica,sans-Serif" font-size="10.00">amr_wind::pde::DiffSolver</text>
<text text-anchor="middle" x="383.5" y="-55" font-family="Helvetica,sans-Serif" font-size="10.00">Iface&lt; TKE::MLDiffOp &gt;</text>
</a>
</g>
</g>
<!-- Node1&#45;&gt;Node6 -->
<g id="edge5_Node000001_Node000006" class="edge">
<title>Node1&#45;&gt;Node6</title>
<g id="a_edge5_Node000001_Node000006"><a xlink:title=" ">
<path fill="none" stroke="orange" stroke-dasharray="5,2" d="M153.38,-70.83C155.94,-70.53 158.49,-70.25 161,-70 211.15,-64.98 267.98,-63.27 311.51,-62.79"/>
<polygon fill="orange" stroke="orange" points="152.87,-67.37 143.39,-72.11 153.76,-74.31 152.87,-67.37"/>
</a>
</g>
<text text-anchor="start" x="177.5" y="-75.5" font-family="Helvetica,sans-Serif" font-size="10.00" fill="grey">&lt; TKE::MLDiffOp &gt;</text>
</g>
<!-- Node8 -->
<g id="Node000008" class="node">
<title>Node8</title>
<g id="a_Node000008"><a xlink:href="classamr__wind_1_1pde_1_1_diff_solver_iface.html" target="_top" xlink:title=" ">
<polygon fill="white" stroke="#666666" points="463,-30 304,-30 304,0 463,0 463,-30"/>
<text text-anchor="start" x="312" y="-18" font-family="Helvetica,sans-Serif" font-size="10.00">amr_wind::pde::DiffSolver</text>
<text text-anchor="middle" x="383.5" y="-7" font-family="Helvetica,sans-Serif" font-size="10.00">Iface&lt; amrex::MLTensorOp &gt;</text>
</a>
</g>
</g>
<!-- Node1&#45;&gt;Node8 -->
<g id="edge7_Node000001_Node000008" class="edge">
<title>Node1&#45;&gt;Node8</title>
<g id="a_edge7_Node000001_Node000008"><a xlink:title=" ">
<path fill="none" stroke="orange" stroke-dasharray="5,2" d="M106.87,-65C122.84,-56.59 142.37,-47.49 161,-42 207.26,-28.36 260.91,-21.6 303.83,-18.25"/>
<polygon fill="orange" stroke="orange" points="105.05,-62.01 97.92,-69.84 108.38,-68.17 105.05,-62.01"/>
</a>
</g>
<text text-anchor="start" x="164.5" y="-47.5" font-family="Helvetica,sans-Serif" font-size="10.00" fill="grey">&lt; amrex::MLTensorOp &gt;</text>
</g>
<!-- Node3 -->
<g id="Node000003" class="node">
<title>Node3</title>
<g id="a_Node000003"><a xlink:href="structamr__wind_1_1pde_1_1_diffusion_op_3_01_p_d_e_00_01_scheme_00_01std_1_1enable__if__t_3_01st927f6c10f00e60faa776b8287d8b9959.html" target="_top" xlink:title=" ">
<polygon fill="white" stroke="#666666" points="688,-196 500,-196 500,-144 688,-144 688,-196"/>
<text text-anchor="start" x="508" y="-184" font-family="Helvetica,sans-Serif" font-size="10.00">amr_wind::pde::Diffusion</text>
<text text-anchor="start" x="508" y="-173" font-family="Helvetica,sans-Serif" font-size="10.00">Op&lt; PDE, Scheme, std::</text>
<text text-anchor="start" x="508" y="-162" font-family="Helvetica,sans-Serif" font-size="10.00">enable_if_t&lt; std::is_base</text>
<text text-anchor="middle" x="594" y="-151" font-family="Helvetica,sans-Serif" font-size="10.00">_of_v&lt; ScalarTransport, PDE &gt; &gt; &gt;</text>
</a>
</g>
</g>
<!-- Node2&#45;&gt;Node3 -->
<g id="edge2_Node000002_Node000003" class="edge">
<title>Node2&#45;&gt;Node3</title>
<g id="a_edge2_Node000002_Node000003"><a xlink:title=" ">
<path fill="none" stroke="#63b8ff" d="M465.36,-166.94C476.69,-167.21 488.41,-167.49 499.94,-167.77"/>
<polygon fill="#63b8ff" stroke="#63b8ff" points="465.17,-163.43 455.09,-166.69 465,-170.43 465.17,-163.43"/>
</a>
</g>
</g>
<!-- Node5 -->
<g id="Node000005" class="node">
<title>Node5</title>
<g id="a_Node000005"><a xlink:href="structamr__wind_1_1pde_1_1_diffusion_op_3_01_s_d_r_00_01_scheme_01_4.html" target="_top" xlink:title=" ">
<polygon fill="white" stroke="#666666" points="663,-126 525,-126 525,-96 663,-96 663,-126"/>
<text text-anchor="start" x="533" y="-114" font-family="Helvetica,sans-Serif" font-size="10.00">amr_wind::pde::Diffusion</text>
<text text-anchor="middle" x="594" y="-103" font-family="Helvetica,sans-Serif" font-size="10.00">Op&lt; SDR, Scheme &gt;</text>
</a>
</g>
</g>
<!-- Node4&#45;&gt;Node5 -->
<g id="edge4_Node000004_Node000005" class="edge">
<title>Node4&#45;&gt;Node5</title>
<g id="a_edge4_Node000004_Node000005"><a xlink:title=" ">
<path fill="none" stroke="#63b8ff" d="M465.28,-111C485,-111 505.9,-111 524.95,-111"/>
<polygon fill="#63b8ff" stroke="#63b8ff" points="465.09,-107.5 455.09,-111 465.09,-114.5 465.09,-107.5"/>
</a>
</g>
</g>
<!-- Node7 -->
<g id="Node000007" class="node">
<title>Node7</title>
<g id="a_Node000007"><a xlink:href="structamr__wind_1_1pde_1_1_diffusion_op_3_01_t_k_e_00_01_scheme_01_4.html" target="_top" xlink:title=" ">
<polygon fill="white" stroke="#666666" points="663,-78 525,-78 525,-48 663,-48 663,-78"/>
<text text-anchor="start" x="533" y="-66" font-family="Helvetica,sans-Serif" font-size="10.00">amr_wind::pde::Diffusion</text>
<text text-anchor="middle" x="594" y="-55" font-family="Helvetica,sans-Serif" font-size="10.00">Op&lt; TKE, Scheme &gt;</text>
</a>
</g>
</g>
<!-- Node6&#45;&gt;Node7 -->
<g id="edge6_Node000006_Node000007" class="edge">
<title>Node6&#45;&gt;Node7</title>
<g id="a_edge6_Node000006_Node000007"><a xlink:title=" ">
<path fill="none" stroke="#63b8ff" d="M465.28,-63C485,-63 505.9,-63 524.95,-63"/>
<polygon fill="#63b8ff" stroke="#63b8ff" points="465.09,-59.5 455.09,-63 465.09,-66.5 465.09,-59.5"/>
</a>
</g>
</g>
<!-- Node9 -->
<g id="Node000009" class="node">
<title>Node9</title>
<g id="a_Node000009"><a xlink:href="classamr__wind_1_1pde_1_1_i_c_n_s_diff_tensor_op.html" target="_top" xlink:title=" ">
<polygon fill="white" stroke="#666666" points="684,-24.5 504,-24.5 504,-5.5 684,-5.5 684,-24.5"/>
<text text-anchor="middle" x="594" y="-12.5" font-family="Helvetica,sans-Serif" font-size="10.00">amr_wind::pde::ICNSDiffTensorOp</text>
</a>
</g>
</g>
<!-- Node8&#45;&gt;Node9 -->
<g id="edge8_Node000008_Node000009" class="edge">
<title>Node8&#45;&gt;Node9</title>
<g id="a_edge8_Node000008_Node000009"><a xlink:title=" ">
<path fill="none" stroke="#63b8ff" d="M473.08,-15C483.22,-15 493.55,-15 503.7,-15"/>
<polygon fill="#63b8ff" stroke="#63b8ff" points="473.03,-11.5 463.03,-15 473.03,-18.5 473.03,-11.5"/>
</a>
</g>
</g>
</g>
</svg>
