<?xml version="1.0" encoding="UTF-8" standalone="no"?>
<!DOCTYPE svg PUBLIC "-//W3C//DTD SVG 1.1//EN"
 "http://www.w3.org/Graphics/SVG/1.1/DTD/svg11.dtd">
<!-- Generated by graphviz version 2.43.0 (0)
 -->
<!-- Title: amr_wind::ABLFieldInit Pages: 1 -->
<svg width="161pt" height="196pt"
 viewBox="0.00 0.00 161.00 196.00" xmlns="http://www.w3.org/2000/svg" xmlns:xlink="http://www.w3.org/1999/xlink">
<g id="graph0" class="graph" transform="scale(1 1) rotate(0) translate(4 192)">
<title>amr_wind::ABLFieldInit</title>
<!-- Node1 -->
<g id="Node000001" class="node">
<title>Node1</title>
<g id="a_Node000001"><a xlink:title=" ">
<polygon fill="#999999" stroke="#666666" points="128,-19 0,-19 0,0 128,0 128,-19"/>
<text text-anchor="middle" x="64" y="-7" font-family="Helvetica,sans-Serif" font-size="10.00">amr_wind::ABLFieldInit</text>
</a>
</g>
</g>
<!-- Node2 -->
<g id="Node000002" class="node">
<title>Node2</title>
<g id="a_Node000002"><a xlink:title=" ">
<polygon fill="white" stroke="#666666" points="96.5,-121 31.5,-121 31.5,-102 96.5,-102 96.5,-121"/>
<text text-anchor="middle" x="64" y="-109" font-family="Helvetica,sans-Serif" font-size="10.00">std::string</text>
</a>
</g>
</g>
<!-- Node2&#45;&gt;Node1 -->
<g id="edge1_Node000001_Node000002" class="edge">
<title>Node2&#45;&gt;Node1</title>
<g id="a_edge1_Node000001_Node000002"><a xlink:title=" ">
<path fill="none" stroke="#9a32cd" stroke-dasharray="5,2" d="M64,-91.69C64,-69.92 64,-35 64,-19"/>
<polygon fill="#9a32cd" stroke="#9a32cd" points="60.5,-91.97 64,-101.97 67.5,-91.97 60.5,-91.97"/>
</a>
</g>
<text text-anchor="start" x="67.5" y="-72.5" font-family="Helvetica,sans-Serif" font-size="10.00" fill="grey">m_1d_rans</text>
<text text-anchor="start" x="67.5" y="-57.5" font-family="Helvetica,sans-Serif" font-size="10.00" fill="grey">m_terrain_file</text>
<text text-anchor="start" x="67.5" y="-42.5" font-family="Helvetica,sans-Serif" font-size="10.00" fill="grey">m_vel_timetable</text>
</g>
<!-- Node3 -->
<g id="Node000003" class="node">
<title>Node3</title>
<g id="a_Node000003"><a xlink:title=" ">
<polygon fill="white" stroke="#666666" points="116,-188 12,-188 12,-158 116,-158 116,-188"/>
<text text-anchor="start" x="20" y="-176" font-family="Helvetica,sans-Serif" font-size="10.00">std::basic_string&lt;</text>
<text text-anchor="middle" x="64" y="-165" font-family="Helvetica,sans-Serif" font-size="10.00"> Char &gt;</text>
</a>
</g>
</g>
<!-- Node3&#45;&gt;Node2 -->
<g id="edge2_Node000002_Node000003" class="edge">
<title>Node3&#45;&gt;Node2</title>
<g id="a_edge2_Node000002_Node000003"><a xlink:title=" ">
<path fill="none" stroke="#63b8ff" d="M64,-147.79C64,-138.36 64,-128.15 64,-121.16"/>
<polygon fill="#63b8ff" stroke="#63b8ff" points="60.5,-147.9 64,-157.9 67.5,-147.9 60.5,-147.9"/>
</a>
</g>
</g>
</g>
</svg>
