<?xml version="1.0" encoding="UTF-8" standalone="no"?>
<!DOCTYPE svg PUBLIC "-//W3C//DTD SVG 1.1//EN"
 "http://www.w3.org/Graphics/SVG/1.1/DTD/svg11.dtd">
<!-- Generated by graphviz version 2.43.0 (0)
 -->
<!-- Title: amr_wind::pde::temperature::BodyForce Pages: 1 -->
<svg width="566pt" height="137pt"
 viewBox="0.00 0.00 566.00 136.50" xmlns="http://www.w3.org/2000/svg" xmlns:xlink="http://www.w3.org/1999/xlink">
<g id="graph0" class="graph" transform="scale(1 1) rotate(0) translate(4 132.5)">
<title>amr_wind::pde::temperature::BodyForce</title>
<!-- Node1 -->
<g id="Node000001" class="node">
<title>Node1</title>
<g id="a_Node000001"><a xlink:title=" ">
<polygon fill="#999999" stroke="#666666" points="558,-75 403,-75 403,-45 558,-45 558,-75"/>
<text text-anchor="start" x="411" y="-63" font-family="Helvetica,sans-Serif" font-size="10.00">amr_wind::pde::temperature</text>
<text text-anchor="middle" x="480.5" y="-52" font-family="Helvetica,sans-Serif" font-size="10.00">::BodyForce</text>
</a>
</g>
</g>
<!-- Node2 -->
<g id="Node000002" class="node">
<title>Node2</title>
<g id="a_Node000002"><a xlink:title=" ">
<polygon fill="white" stroke="#666666" points="297,-128.5 141,-128.5 141,-87.5 297,-87.5 297,-128.5"/>
<text text-anchor="start" x="149" y="-116.5" font-family="Helvetica,sans-Serif" font-size="10.00">amr_wind::Factory&lt;</text>
<text text-anchor="start" x="149" y="-105.5" font-family="Helvetica,sans-Serif" font-size="10.00"> TemperatureSource,</text>
<text text-anchor="middle" x="219" y="-94.5" font-family="Helvetica,sans-Serif" font-size="10.00"> const CFDSim &amp; &gt;::Register</text>
</a>
</g>
</g>
<!-- Node2&#45;&gt;Node1 -->
<g id="edge1_Node000001_Node000002" class="edge">
<title>Node2&#45;&gt;Node1</title>
<g id="a_edge1_Node000001_Node000002"><a xlink:title=" ">
<path fill="none" stroke="#63b8ff" d="M307.07,-91.9C338.01,-86.17 372.61,-79.77 402.64,-74.22"/>
<polygon fill="#63b8ff" stroke="#63b8ff" points="306.35,-88.47 297.16,-93.73 307.63,-95.35 306.35,-88.47"/>
</a>
</g>
</g>
<!-- Node3 -->
<g id="Node000003" class="node">
<title>Node3</title>
<g id="a_Node000003"><a xlink:href="classamr__wind_1_1_sim_time.html" target="_top" xlink:title=" ">
<polygon fill="white" stroke="#666666" points="276,-69.5 162,-69.5 162,-50.5 276,-50.5 276,-69.5"/>
<text text-anchor="middle" x="219" y="-57.5" font-family="Helvetica,sans-Serif" font-size="10.00">amr_wind::SimTime</text>
</a>
</g>
</g>
<!-- Node3&#45;&gt;Node1 -->
<g id="edge2_Node000001_Node000003" class="edge">
<title>Node3&#45;&gt;Node1</title>
<g id="a_edge2_Node000001_Node000003"><a xlink:title=" ">
<path fill="none" stroke="#9a32cd" stroke-dasharray="5,2" d="M286.54,-60C321.98,-60 365.74,-60 402.63,-60"/>
<polygon fill="#9a32cd" stroke="#9a32cd" points="286.31,-56.5 276.31,-60 286.31,-63.5 286.31,-56.5"/>
</a>
</g>
<text text-anchor="middle" x="350" y="-63" font-family="Helvetica,sans-Serif" font-size="10.00" fill="grey"> m_time</text>
</g>
<!-- Node4 -->
<g id="Node000004" class="node">
<title>Node4</title>
<g id="a_Node000004"><a xlink:title=" ">
<polygon fill="white" stroke="#666666" points="251.5,-24.5 186.5,-24.5 186.5,-5.5 251.5,-5.5 251.5,-24.5"/>
<text text-anchor="middle" x="219" y="-12.5" font-family="Helvetica,sans-Serif" font-size="10.00">std::string</text>
</a>
</g>
</g>
<!-- Node4&#45;&gt;Node1 -->
<g id="edge3_Node000001_Node000004" class="edge">
<title>Node4&#45;&gt;Node1</title>
<g id="a_edge3_Node000001_Node000004"><a xlink:title=" ">
<path fill="none" stroke="#9a32cd" stroke-dasharray="5,2" d="M261.89,-18.03C295.4,-20.89 343.49,-25.95 385,-34 399.87,-36.88 415.82,-40.9 430.3,-44.92"/>
<polygon fill="#9a32cd" stroke="#9a32cd" points="261.8,-14.51 251.54,-17.18 261.22,-21.49 261.8,-14.51"/>
</a>
</g>
<text text-anchor="middle" x="350" y="-48" font-family="Helvetica,sans-Serif" font-size="10.00" fill="grey"> m_bforce_file</text>
<text text-anchor="middle" x="350" y="-37" font-family="Helvetica,sans-Serif" font-size="10.00" fill="grey">m_type</text>
</g>
<!-- Node5 -->
<g id="Node000005" class="node">
<title>Node5</title>
<g id="a_Node000005"><a xlink:title=" ">
<polygon fill="white" stroke="#666666" points="104,-30 0,-30 0,0 104,0 104,-30"/>
<text text-anchor="start" x="8" y="-18" font-family="Helvetica,sans-Serif" font-size="10.00">std::basic_string&lt;</text>
<text text-anchor="middle" x="52" y="-7" font-family="Helvetica,sans-Serif" font-size="10.00"> Char &gt;</text>
</a>
</g>
</g>
<!-- Node5&#45;&gt;Node4 -->
<g id="edge4_Node000004_Node000005" class="edge">
<title>Node5&#45;&gt;Node4</title>
<g id="a_edge4_Node000004_Node000005"><a xlink:title=" ">
<path fill="none" stroke="#63b8ff" d="M114.59,-15C139.04,-15 166.11,-15 186.42,-15"/>
<polygon fill="#63b8ff" stroke="#63b8ff" points="114.3,-11.5 104.3,-15 114.3,-18.5 114.3,-11.5"/>
</a>
</g>
</g>
</g>
</svg>
