<?xml version="1.0" encoding="UTF-8" standalone="no"?>
<!DOCTYPE svg PUBLIC "-//W3C//DTD SVG 1.1//EN"
 "http://www.w3.org/Graphics/SVG/1.1/DTD/svg11.dtd">
<!-- Generated by graphviz version 2.43.0 (0)
 -->
<!-- Title: exw_fast::FastIface Pages: 1 -->
<svg width="1069pt" height="310pt"
 viewBox="0.00 0.00 1069.00 309.50" xmlns="http://www.w3.org/2000/svg" xmlns:xlink="http://www.w3.org/1999/xlink">
<g id="graph0" class="graph" transform="scale(1 1) rotate(0) translate(4 305.5)">
<title>exw_fast::FastIface</title>
<!-- Node1 -->
<g id="Node000001" class="node">
<title>Node1</title>
<g id="a_Node000001"><a xlink:title=" ">
<polygon fill="#999999" stroke="#666666" points="1061,-178.5 951,-178.5 951,-159.5 1061,-159.5 1061,-178.5"/>
<text text-anchor="middle" x="1006" y="-166.5" font-family="Helvetica,sans-Serif" font-size="10.00">exw_fast::FastIface</text>
</a>
</g>
</g>
<!-- Node2 -->
<g id="Node000002" class="node">
<title>Node2</title>
<g id="a_Node000002"><a xlink:title=" ">
<polygon fill="white" stroke="#666666" points="834,-257.5 712,-257.5 712,-216.5 834,-216.5 834,-257.5"/>
<text text-anchor="start" x="720" y="-245.5" font-family="Helvetica,sans-Serif" font-size="10.00">amr_wind::Factory&lt;</text>
<text text-anchor="start" x="720" y="-234.5" font-family="Helvetica,sans-Serif" font-size="10.00"> ExtSolver, CFDSim &amp;</text>
<text text-anchor="middle" x="773" y="-223.5" font-family="Helvetica,sans-Serif" font-size="10.00"> &gt;::Register</text>
</a>
</g>
</g>
<!-- Node2&#45;&gt;Node1 -->
<g id="edge1_Node000001_Node000002" class="edge">
<title>Node2&#45;&gt;Node1</title>
<g id="a_edge1_Node000001_Node000002"><a xlink:title=" ">
<path fill="none" stroke="#63b8ff" d="M844.13,-220.63C871.98,-213.68 904.19,-205.09 933,-196 949.42,-190.82 967.58,-184 981.55,-178.52"/>
<polygon fill="#63b8ff" stroke="#63b8ff" points="842.94,-217.31 834.07,-223.11 844.62,-224.11 842.94,-217.31"/>
</a>
</g>
</g>
<!-- Node3 -->
<g id="Node000003" class="node">
<title>Node3</title>
<g id="a_Node000003"><a xlink:title=" ">
<polygon fill="white" stroke="#666666" points="829.5,-198.5 716.5,-198.5 716.5,-179.5 829.5,-179.5 829.5,-198.5"/>
<text text-anchor="middle" x="773" y="-186.5" font-family="Helvetica,sans-Serif" font-size="10.00">std::map&lt; int, int &gt;</text>
</a>
</g>
</g>
<!-- Node3&#45;&gt;Node1 -->
<g id="edge2_Node000001_Node000003" class="edge">
<title>Node3&#45;&gt;Node1</title>
<g id="a_edge2_Node000001_Node000003"><a xlink:title=" ">
<path fill="none" stroke="#9a32cd" stroke-dasharray="5,2" d="M839.77,-183.31C874.85,-180.27 917.48,-176.58 950.66,-173.71"/>
<polygon fill="#9a32cd" stroke="#9a32cd" points="839.29,-179.83 829.62,-184.18 839.89,-186.81 839.29,-179.83"/>
</a>
</g>
<text text-anchor="middle" x="893" y="-184" font-family="Helvetica,sans-Serif" font-size="10.00" fill="grey"> m_turbine_map</text>
</g>
<!-- Node4 -->
<g id="Node000004" class="node">
<title>Node4</title>
<g id="a_Node000004"><a xlink:title=" ">
<polygon fill="white" stroke="#666666" points="525.5,-267.5 424.5,-267.5 424.5,-248.5 525.5,-248.5 525.5,-267.5"/>
<text text-anchor="middle" x="475" y="-255.5" font-family="Helvetica,sans-Serif" font-size="10.00">std::map&lt; K, T &gt;</text>
</a>
</g>
</g>
<!-- Node4&#45;&gt;Node3 -->
<g id="edge3_Node000003_Node000004" class="edge">
<title>Node4&#45;&gt;Node3</title>
<g id="a_edge3_Node000003_Node000004"><a xlink:title=" ">
<path fill="none" stroke="orange" stroke-dasharray="5,2" d="M526.86,-246.15C584.64,-232.68 677.81,-210.96 731.1,-198.53"/>
<polygon fill="orange" stroke="orange" points="525.79,-242.8 516.85,-248.48 527.38,-249.62 525.79,-242.8"/>
</a>
</g>
<text text-anchor="middle" x="623.5" y="-242" font-family="Helvetica,sans-Serif" font-size="10.00" fill="grey"> &lt; int, int &gt;</text>
</g>
<!-- Node5 -->
<g id="Node000005" class="node">
<title>Node5</title>
<g id="a_Node000005"><a xlink:title=" ">
<polygon fill="white" stroke="#666666" points="235.5,-301.5 206.5,-301.5 206.5,-282.5 235.5,-282.5 235.5,-301.5"/>
<text text-anchor="middle" x="221" y="-289.5" font-family="Helvetica,sans-Serif" font-size="10.00">K</text>
</a>
</g>
</g>
<!-- Node5&#45;&gt;Node4 -->
<g id="edge4_Node000004_Node000005" class="edge">
<title>Node5&#45;&gt;Node4</title>
<g id="a_edge4_Node000004_Node000005"><a xlink:title=" ">
<path fill="none" stroke="#9a32cd" stroke-dasharray="5,2" d="M245.58,-288.82C286.25,-283.33 370.39,-271.98 424.41,-264.69"/>
<polygon fill="#9a32cd" stroke="#9a32cd" points="244.99,-285.37 235.55,-290.17 245.93,-292.3 244.99,-285.37"/>
</a>
</g>
<text text-anchor="middle" x="357.5" y="-281" font-family="Helvetica,sans-Serif" font-size="10.00" fill="grey"> keys</text>
</g>
<!-- Node6 -->
<g id="Node000006" class="node">
<title>Node6</title>
<g id="a_Node000006"><a xlink:title=" ">
<polygon fill="white" stroke="#666666" points="235.5,-252.5 206.5,-252.5 206.5,-233.5 235.5,-233.5 235.5,-252.5"/>
<text text-anchor="middle" x="221" y="-240.5" font-family="Helvetica,sans-Serif" font-size="10.00">T</text>
</a>
</g>
</g>
<!-- Node6&#45;&gt;Node4 -->
<g id="edge5_Node000004_Node000006" class="edge">
<title>Node6&#45;&gt;Node4</title>
<g id="a_edge5_Node000004_Node000006"><a xlink:title=" ">
<path fill="none" stroke="#9a32cd" stroke-dasharray="5,2" d="M245.58,-244.4C286.25,-246.82 370.39,-251.83 424.41,-255.05"/>
<polygon fill="#9a32cd" stroke="#9a32cd" points="245.74,-240.91 235.55,-243.81 245.32,-247.89 245.74,-240.91"/>
</a>
</g>
<text text-anchor="middle" x="357.5" y="-256" font-family="Helvetica,sans-Serif" font-size="10.00" fill="grey"> elements</text>
</g>
<!-- Node15 -->
<g id="Node000015" class="node">
<title>Node15</title>
<g id="a_Node000015"><a xlink:title=" ">
<polygon fill="white" stroke="#666666" points="523.5,-214.5 426.5,-214.5 426.5,-195.5 523.5,-195.5 523.5,-214.5"/>
<text text-anchor="middle" x="475" y="-202.5" font-family="Helvetica,sans-Serif" font-size="10.00">std::vector&lt; T &gt;</text>
</a>
</g>
</g>
<!-- Node6&#45;&gt;Node15 -->
<g id="edge15_Node000015_Node000006" class="edge">
<title>Node6&#45;&gt;Node15</title>
<g id="a_edge15_Node000015_Node000006"><a xlink:title=" ">
<path fill="none" stroke="#9a32cd" stroke-dasharray="5,2" d="M245.45,-239.46C286.58,-233.26 372.48,-220.31 426.47,-212.17"/>
<polygon fill="#9a32cd" stroke="#9a32cd" points="244.91,-236 235.55,-240.96 245.96,-242.93 244.91,-236"/>
</a>
</g>
<text text-anchor="middle" x="357.5" y="-230" font-family="Helvetica,sans-Serif" font-size="10.00" fill="grey"> elements</text>
</g>
<!-- Node7 -->
<g id="Node000007" class="node">
<title>Node7</title>
<g id="a_Node000007"><a xlink:title=" ">
<polygon fill="white" stroke="#666666" points="835,-161 711,-161 711,-131 835,-131 835,-161"/>
<text text-anchor="start" x="719" y="-149" font-family="Helvetica,sans-Serif" font-size="10.00">std::vector&lt; exw_fast</text>
<text text-anchor="middle" x="773" y="-138" font-family="Helvetica,sans-Serif" font-size="10.00">::FastTurbine * &gt;</text>
</a>
</g>
</g>
<!-- Node7&#45;&gt;Node1 -->
<g id="edge6_Node000001_Node000007" class="edge">
<title>Node7&#45;&gt;Node1</title>
<g id="a_edge6_Node000001_Node000007"><a xlink:title=" ">
<path fill="none" stroke="#9a32cd" stroke-dasharray="5,2" d="M845.49,-151.74C872.88,-154.08 904.41,-156.96 933,-160 938.76,-160.61 944.78,-161.3 950.77,-162.01"/>
<polygon fill="#9a32cd" stroke="#9a32cd" points="845.47,-148.22 835.21,-150.86 844.88,-155.2 845.47,-148.22"/>
</a>
</g>
<text text-anchor="middle" x="893" y="-163" font-family="Helvetica,sans-Serif" font-size="10.00" fill="grey"> m_turbine_data</text>
</g>
<!-- Node8 -->
<g id="Node000008" class="node">
<title>Node8</title>
<g id="a_Node000008"><a xlink:href="structexw__fast_1_1_fast_turbine.html" target="_top" xlink:title=" ">
<polygon fill="white" stroke="#666666" points="536,-134.5 414,-134.5 414,-115.5 536,-115.5 536,-134.5"/>
<text text-anchor="middle" x="475" y="-122.5" font-family="Helvetica,sans-Serif" font-size="10.00">exw_fast::FastTurbine</text>
</a>
</g>
</g>
<!-- Node8&#45;&gt;Node7 -->
<g id="edge7_Node000007_Node000008" class="edge">
<title>Node8&#45;&gt;Node7</title>
<g id="a_edge7_Node000007_Node000008"><a xlink:title=" ">
<path fill="none" stroke="#9a32cd" stroke-dasharray="5,2" d="M546.35,-129.99C596.4,-133.54 662.97,-138.26 710.81,-141.66"/>
<polygon fill="#9a32cd" stroke="#9a32cd" points="546.48,-126.49 536.26,-129.27 545.98,-133.47 546.48,-126.49"/>
</a>
</g>
<text text-anchor="middle" x="623.5" y="-143" font-family="Helvetica,sans-Serif" font-size="10.00" fill="grey"> elements</text>
</g>
<!-- Node9 -->
<g id="Node000009" class="node">
<title>Node9</title>
<g id="a_Node000009"><a xlink:title=" ">
<polygon fill="white" stroke="#666666" points="253.5,-24.5 188.5,-24.5 188.5,-5.5 253.5,-5.5 253.5,-24.5"/>
<text text-anchor="middle" x="221" y="-12.5" font-family="Helvetica,sans-Serif" font-size="10.00">std::string</text>
</a>
</g>
</g>
<!-- Node9&#45;&gt;Node1 -->
<g id="edge16_Node000001_Node000009" class="edge">
<title>Node9&#45;&gt;Node1</title>
<g id="a_edge16_Node000001_Node000009"><a xlink:title=" ">
<path fill="none" stroke="#9a32cd" stroke-dasharray="5,2" d="M263.99,-16.2C299.35,-17.61 351.17,-20.64 396,-27 620.11,-58.81 883.14,-133 973.03,-159.43"/>
<polygon fill="#9a32cd" stroke="#9a32cd" points="263.7,-12.69 253.58,-15.81 263.44,-19.68 263.7,-12.69"/>
</a>
</g>
<text text-anchor="middle" x="623.5" y="-88" font-family="Helvetica,sans-Serif" font-size="10.00" fill="grey"> m_output_dir</text>
</g>
<!-- Node9&#45;&gt;Node8 -->
<g id="edge8_Node000008_Node000009" class="edge">
<title>Node9&#45;&gt;Node8</title>
<g id="a_edge8_Node000008_Node000009"><a xlink:title=" ">
<path fill="none" stroke="#9a32cd" stroke-dasharray="5,2" d="M264.04,-19.43C300.56,-24.58 354.04,-35.32 396,-57 425.37,-72.17 452.81,-100.66 465.93,-115.49"/>
<polygon fill="#9a32cd" stroke="#9a32cd" points="264.12,-15.91 253.75,-18.06 263.2,-22.85 264.12,-15.91"/>
</a>
</g>
<text text-anchor="middle" x="357.5" y="-82" font-family="Helvetica,sans-Serif" font-size="10.00" fill="grey"> checkpoint_file</text>
<text text-anchor="middle" x="357.5" y="-71" font-family="Helvetica,sans-Serif" font-size="10.00" fill="grey">input_file</text>
<text text-anchor="middle" x="357.5" y="-60" font-family="Helvetica,sans-Serif" font-size="10.00" fill="grey">tlabel</text>
</g>
<!-- Node10 -->
<g id="Node000010" class="node">
<title>Node10</title>
<g id="a_Node000010"><a xlink:title=" ">
<polygon fill="white" stroke="#666666" points="104,-30 0,-30 0,0 104,0 104,-30"/>
<text text-anchor="start" x="8" y="-18" font-family="Helvetica,sans-Serif" font-size="10.00">std::basic_string&lt;</text>
<text text-anchor="middle" x="52" y="-7" font-family="Helvetica,sans-Serif" font-size="10.00"> Char &gt;</text>
</a>
</g>
</g>
<!-- Node10&#45;&gt;Node9 -->
<g id="edge9_Node000009_Node000010" class="edge">
<title>Node10&#45;&gt;Node9</title>
<g id="a_edge9_Node000009_Node000010"><a xlink:title=" ">
<path fill="none" stroke="#63b8ff" d="M114.2,-15C139.3,-15 167.3,-15 188.19,-15"/>
<polygon fill="#63b8ff" stroke="#63b8ff" points="114.01,-11.5 104.01,-15 114.01,-18.5 114.01,-11.5"/>
</a>
</g>
</g>
<!-- Node11 -->
<g id="Node000011" class="node">
<title>Node11</title>
<g id="a_Node000011"><a xlink:href="structexw__fast_1_1_op_f_m___input_type.html" target="_top" xlink:title=" ">
<polygon fill="white" stroke="#666666" points="295,-203.5 147,-203.5 147,-184.5 295,-184.5 295,-203.5"/>
<text text-anchor="middle" x="221" y="-191.5" font-family="Helvetica,sans-Serif" font-size="10.00">exw_fast::OpFM_InputType</text>
</a>
</g>
</g>
<!-- Node11&#45;&gt;Node8 -->
<g id="edge10_Node000008_Node000011" class="edge">
<title>Node11&#45;&gt;Node8</title>
<g id="a_edge10_Node000008_Node000011"><a xlink:title=" ">
<path fill="none" stroke="#9a32cd" stroke-dasharray="5,2" d="M292.86,-182.6C324.76,-176.64 362.65,-168.39 396,-158 416.5,-151.61 438.98,-141.78 454.52,-134.5"/>
<polygon fill="#9a32cd" stroke="#9a32cd" points="291.94,-179.21 282.73,-184.45 293.2,-186.09 291.94,-179.21"/>
</a>
</g>
<text text-anchor="middle" x="357.5" y="-180" font-family="Helvetica,sans-Serif" font-size="10.00" fill="grey"> to_cfd</text>
</g>
<!-- Node12 -->
<g id="Node000012" class="node">
<title>Node12</title>
<g id="a_Node000012"><a xlink:href="structexw__fast_1_1_op_f_m___output_type.html" target="_top" xlink:title=" ">
<polygon fill="white" stroke="#666666" points="299,-166.5 143,-166.5 143,-147.5 299,-147.5 299,-166.5"/>
<text text-anchor="middle" x="221" y="-154.5" font-family="Helvetica,sans-Serif" font-size="10.00">exw_fast::OpFM_OutputType</text>
</a>
</g>
</g>
<!-- Node12&#45;&gt;Node8 -->
<g id="edge11_Node000008_Node000012" class="edge">
<title>Node12&#45;&gt;Node8</title>
<g id="a_edge11_Node000008_Node000012"><a xlink:title=" ">
<path fill="none" stroke="#9a32cd" stroke-dasharray="5,2" d="M307.14,-146.19C342.13,-141.75 381.83,-136.7 413.73,-132.65"/>
<polygon fill="#9a32cd" stroke="#9a32cd" points="306.41,-142.75 296.93,-147.49 307.29,-149.7 306.41,-142.75"/>
</a>
</g>
<text text-anchor="middle" x="357.5" y="-146" font-family="Helvetica,sans-Serif" font-size="10.00" fill="grey"> from_cfd</text>
</g>
<!-- Node13 -->
<g id="Node000013" class="node">
<title>Node13</title>
<g id="a_Node000013"><a xlink:href="structexw__fast_1_1_s_c___d_x___input_type.html" target="_top" xlink:title=" ">
<polygon fill="white" stroke="#666666" points="297,-129.5 145,-129.5 145,-110.5 297,-110.5 297,-129.5"/>
<text text-anchor="middle" x="221" y="-117.5" font-family="Helvetica,sans-Serif" font-size="10.00">exw_fast::SC_DX_InputType</text>
</a>
</g>
</g>
<!-- Node13&#45;&gt;Node8 -->
<g id="edge12_Node000008_Node000013" class="edge">
<title>Node13&#45;&gt;Node8</title>
<g id="a_edge12_Node000008_Node000013"><a xlink:title=" ">
<path fill="none" stroke="#9a32cd" stroke-dasharray="5,2" d="M307.59,-121.33C335.75,-121.81 367.21,-122.38 396,-123 401.82,-123.12 407.89,-123.26 413.96,-123.41"/>
<polygon fill="#9a32cd" stroke="#9a32cd" points="307.43,-117.83 297.37,-121.16 307.31,-124.83 307.43,-117.83"/>
</a>
</g>
<text text-anchor="middle" x="357.5" y="-126" font-family="Helvetica,sans-Serif" font-size="10.00" fill="grey"> to_sc</text>
</g>
<!-- Node14 -->
<g id="Node000014" class="node">
<title>Node14</title>
<g id="a_Node000014"><a xlink:href="structexw__fast_1_1_s_c___d_x___output_type.html" target="_top" xlink:title=" ">
<polygon fill="white" stroke="#666666" points="301,-92.5 141,-92.5 141,-73.5 301,-73.5 301,-92.5"/>
<text text-anchor="middle" x="221" y="-80.5" font-family="Helvetica,sans-Serif" font-size="10.00">exw_fast::SC_DX_OutputType</text>
</a>
</g>
</g>
<!-- Node14&#45;&gt;Node8 -->
<g id="edge13_Node000008_Node000014" class="edge">
<title>Node14&#45;&gt;Node8</title>
<g id="a_edge13_Node000008_Node000014"><a xlink:title=" ">
<path fill="none" stroke="#9a32cd" stroke-dasharray="5,2" d="M311.05,-92.9C338.4,-96.44 368.53,-100.85 396,-106 409.97,-108.62 425.19,-112.17 438.45,-115.49"/>
<polygon fill="#9a32cd" stroke="#9a32cd" points="311.47,-89.42 301.11,-91.63 310.59,-96.37 311.47,-89.42"/>
</a>
</g>
<text text-anchor="middle" x="357.5" y="-109" font-family="Helvetica,sans-Serif" font-size="10.00" fill="grey"> from_sc</text>
</g>
<!-- Node15&#45;&gt;Node7 -->
<g id="edge14_Node000007_Node000015" class="edge">
<title>Node15&#45;&gt;Node7</title>
<g id="a_edge14_Node000007_Node000015"><a xlink:title=" ">
<path fill="none" stroke="orange" stroke-dasharray="5,2" d="M533.44,-193.55C584.48,-183.38 658.86,-168.55 710.96,-158.17"/>
<polygon fill="orange" stroke="orange" points="532.68,-190.13 523.56,-195.52 534.05,-197 532.68,-190.13"/>
</a>
</g>
<text text-anchor="middle" x="623.5" y="-192" font-family="Helvetica,sans-Serif" font-size="10.00" fill="grey"> &lt; exw_fast::FastTurbine * &gt;</text>
</g>
</g>
</svg>
