<?xml version="1.0" encoding="UTF-8" standalone="no"?>
<!DOCTYPE svg PUBLIC "-//W3C//DTD SVG 1.1//EN"
 "http://www.w3.org/Graphics/SVG/1.1/DTD/svg11.dtd">
<!-- Generated by graphviz version 2.43.0 (0)
 -->
<!-- Title: amr_wind::transport::ConstTransport Pages: 1 -->
<svg width="1531pt" height="185pt"
 viewBox="0.00 0.00 1531.00 184.50" xmlns="http://www.w3.org/2000/svg" xmlns:xlink="http://www.w3.org/1999/xlink">
<g id="graph0" class="graph" transform="scale(1 1) rotate(0) translate(4 180.5)">
<title>amr_wind::transport::ConstTransport</title>
<!-- Node1 -->
<g id="Node000001" class="node">
<title>Node1</title>
<g id="a_Node000001"><a xlink:title=" ">
<polygon fill="#999999" stroke="#666666" points="1523,-133.5 1408,-133.5 1408,-103.5 1523,-103.5 1523,-133.5"/>
<text text-anchor="start" x="1416" y="-121.5" font-family="Helvetica,sans-Serif" font-size="10.00">amr_wind::transport</text>
<text text-anchor="middle" x="1465.5" y="-110.5" font-family="Helvetica,sans-Serif" font-size="10.00">::ConstTransport</text>
</a>
</g>
</g>
<!-- Node2 -->
<g id="Node000002" class="node">
<title>Node2</title>
<g id="a_Node000002"><a xlink:title=" ">
<polygon fill="white" stroke="#666666" points="1311,-176.5 1173,-176.5 1173,-146.5 1311,-146.5 1311,-176.5"/>
<text text-anchor="start" x="1181" y="-164.5" font-family="Helvetica,sans-Serif" font-size="10.00">TransportModel::Register</text>
<text text-anchor="middle" x="1242" y="-153.5" font-family="Helvetica,sans-Serif" font-size="10.00">&lt; ConstTransport &gt;</text>
</a>
</g>
</g>
<!-- Node2&#45;&gt;Node1 -->
<g id="edge1_Node000001_Node000002" class="edge">
<title>Node2&#45;&gt;Node1</title>
<g id="a_edge1_Node000001_Node000002"><a xlink:title=" ">
<path fill="none" stroke="#63b8ff" d="M1321.24,-146.31C1349.85,-140.76 1381.64,-134.59 1407.99,-129.47"/>
<polygon fill="#63b8ff" stroke="#63b8ff" points="1320.41,-142.91 1311.26,-148.25 1321.75,-149.78 1320.41,-142.91"/>
</a>
</g>
</g>
<!-- Node3 -->
<g id="Node000003" class="node">
<title>Node3</title>
<g id="a_Node000003"><a xlink:href="classamr__wind_1_1_field_repo.html" target="_top" xlink:title=" ">
<polygon fill="white" stroke="#666666" points="947.5,-128 828.5,-128 828.5,-109 947.5,-109 947.5,-128"/>
<text text-anchor="middle" x="888" y="-116" font-family="Helvetica,sans-Serif" font-size="10.00">amr_wind::FieldRepo</text>
</a>
</g>
</g>
<!-- Node3&#45;&gt;Node1 -->
<g id="edge2_Node000001_Node000003" class="edge">
<title>Node3&#45;&gt;Node1</title>
<g id="a_edge2_Node000001_Node000003"><a xlink:title=" ">
<path fill="none" stroke="#9a32cd" stroke-dasharray="5,2" d="M957.7,-118.5C1072.56,-118.5 1301.43,-118.5 1407.77,-118.5"/>
<polygon fill="#9a32cd" stroke="#9a32cd" points="957.62,-115 947.62,-118.5 957.62,-122 957.62,-115"/>
</a>
</g>
<text text-anchor="middle" x="1135" y="-121.5" font-family="Helvetica,sans-Serif" font-size="10.00" fill="grey"> m_repo</text>
</g>
<!-- Node4 -->
<g id="Node000004" class="node">
<title>Node4</title>
<g id="a_Node000004"><a xlink:title=" ">
<polygon fill="white" stroke="#666666" points="570,-133.5 448,-133.5 448,-103.5 570,-103.5 570,-133.5"/>
<text text-anchor="start" x="456" y="-121.5" font-family="Helvetica,sans-Serif" font-size="10.00">std::unordered_map</text>
<text text-anchor="middle" x="509" y="-110.5" font-family="Helvetica,sans-Serif" font-size="10.00">&lt; std::string, size_t &gt;</text>
</a>
</g>
</g>
<!-- Node4&#45;&gt;Node3 -->
<g id="edge3_Node000003_Node000004" class="edge">
<title>Node4&#45;&gt;Node3</title>
<g id="a_edge3_Node000003_Node000004"><a xlink:title=" ">
<path fill="none" stroke="#9a32cd" stroke-dasharray="5,2" d="M580.42,-118.5C651.91,-118.5 761.34,-118.5 828.3,-118.5"/>
<polygon fill="#9a32cd" stroke="#9a32cd" points="580.15,-115 570.15,-118.5 580.15,-122 580.15,-115"/>
</a>
</g>
<text text-anchor="middle" x="624.5" y="-132.5" font-family="Helvetica,sans-Serif" font-size="10.00" fill="grey"> m_fid_map</text>
<text text-anchor="middle" x="624.5" y="-121.5" font-family="Helvetica,sans-Serif" font-size="10.00" fill="grey">m_int_fid_map</text>
</g>
<!-- Node5 -->
<g id="Node000005" class="node">
<title>Node5</title>
<g id="a_Node000005"><a xlink:title=" ">
<polygon fill="white" stroke="#666666" points="278.5,-123 213.5,-123 213.5,-104 278.5,-104 278.5,-123"/>
<text text-anchor="middle" x="246" y="-111" font-family="Helvetica,sans-Serif" font-size="10.00">std::string</text>
</a>
</g>
</g>
<!-- Node5&#45;&gt;Node4 -->
<g id="edge4_Node000004_Node000005" class="edge">
<title>Node5&#45;&gt;Node4</title>
<g id="a_edge4_Node000004_Node000005"><a xlink:title=" ">
<path fill="none" stroke="#9a32cd" stroke-dasharray="5,2" d="M288.85,-114.3C331.8,-115.12 399.06,-116.41 447.74,-117.35"/>
<polygon fill="#9a32cd" stroke="#9a32cd" points="288.81,-110.8 278.74,-114.11 288.67,-117.8 288.81,-110.8"/>
</a>
</g>
<text text-anchor="middle" x="375.5" y="-119.5" font-family="Helvetica,sans-Serif" font-size="10.00" fill="grey"> keys</text>
</g>
<!-- Node12 -->
<g id="Node000012" class="node">
<title>Node12</title>
<g id="a_Node000012"><a xlink:title=" ">
<polygon fill="white" stroke="#666666" points="566,-72.5 452,-72.5 452,-42.5 566,-42.5 566,-72.5"/>
<text text-anchor="start" x="460" y="-60.5" font-family="Helvetica,sans-Serif" font-size="10.00">std::unordered_map</text>
<text text-anchor="middle" x="509" y="-49.5" font-family="Helvetica,sans-Serif" font-size="10.00">&lt; std::string, int &gt;</text>
</a>
</g>
</g>
<!-- Node5&#45;&gt;Node12 -->
<g id="edge12_Node000012_Node000005" class="edge">
<title>Node5&#45;&gt;Node12</title>
<g id="a_edge12_Node000012_Node000005"><a xlink:title=" ">
<path fill="none" stroke="#9a32cd" stroke-dasharray="5,2" d="M288.78,-105.54C325.94,-98.34 381.71,-87.26 430,-76.5 437.07,-74.92 444.49,-73.2 451.82,-71.46"/>
<polygon fill="#9a32cd" stroke="#9a32cd" points="287.97,-102.13 278.82,-107.46 289.3,-109 287.97,-102.13"/>
</a>
</g>
<text text-anchor="middle" x="375.5" y="-101.5" font-family="Helvetica,sans-Serif" font-size="10.00" fill="grey"> keys</text>
</g>
<!-- Node6 -->
<g id="Node000006" class="node">
<title>Node6</title>
<g id="a_Node000006"><a xlink:title=" ">
<polygon fill="white" stroke="#666666" points="104,-128.5 0,-128.5 0,-98.5 104,-98.5 104,-128.5"/>
<text text-anchor="start" x="8" y="-116.5" font-family="Helvetica,sans-Serif" font-size="10.00">std::basic_string&lt;</text>
<text text-anchor="middle" x="52" y="-105.5" font-family="Helvetica,sans-Serif" font-size="10.00"> Char &gt;</text>
</a>
</g>
</g>
<!-- Node6&#45;&gt;Node5 -->
<g id="edge5_Node000005_Node000006" class="edge">
<title>Node6&#45;&gt;Node5</title>
<g id="a_edge5_Node000005_Node000006"><a xlink:title=" ">
<path fill="none" stroke="#63b8ff" d="M114.23,-113.5C147.25,-113.5 186.63,-113.5 213.48,-113.5"/>
<polygon fill="#63b8ff" stroke="#63b8ff" points="114.2,-110 104.2,-113.5 114.2,-117 114.2,-110"/>
</a>
</g>
</g>
<!-- Node7 -->
<g id="Node000007" class="node">
<title>Node7</title>
<g id="a_Node000007"><a xlink:title=" ">
<polygon fill="white" stroke="#666666" points="303,-57.5 189,-57.5 189,-27.5 303,-27.5 303,-57.5"/>
<text text-anchor="start" x="197" y="-45.5" font-family="Helvetica,sans-Serif" font-size="10.00">std::unordered_map</text>
<text text-anchor="middle" x="246" y="-34.5" font-family="Helvetica,sans-Serif" font-size="10.00">&lt; K, T &gt;</text>
</a>
</g>
</g>
<!-- Node7&#45;&gt;Node4 -->
<g id="edge6_Node000004_Node000007" class="edge">
<title>Node7&#45;&gt;Node4</title>
<g id="a_edge6_Node000004_Node000007"><a xlink:title=" ">
<path fill="none" stroke="orange" stroke-dasharray="5,2" d="M313.17,-45.53C356.93,-48.39 409.83,-53.76 430,-63.5 440.19,-68.42 439.12,-74.48 448,-81.5 458.08,-89.47 469.99,-97.13 480.52,-103.39"/>
<polygon fill="orange" stroke="orange" points="313.33,-42.03 303.13,-44.9 312.89,-49.02 313.33,-42.03"/>
</a>
</g>
<text text-anchor="middle" x="375.5" y="-66.5" font-family="Helvetica,sans-Serif" font-size="10.00" fill="grey"> &lt; std::string, size_t &gt;</text>
</g>
<!-- Node7&#45;&gt;Node12 -->
<g id="edge13_Node000012_Node000007" class="edge">
<title>Node7&#45;&gt;Node12</title>
<g id="a_edge13_Node000012_Node000007"><a xlink:title=" ">
<path fill="none" stroke="orange" stroke-dasharray="5,2" d="M313.46,-31.5C348.34,-27.49 391.68,-25.28 430,-31.5 443.67,-33.72 458.18,-37.99 470.93,-42.44"/>
<polygon fill="orange" stroke="orange" points="312.89,-28.04 303.39,-32.73 313.74,-34.99 312.89,-28.04"/>
</a>
</g>
<text text-anchor="middle" x="375.5" y="-34.5" font-family="Helvetica,sans-Serif" font-size="10.00" fill="grey"> &lt; std::string, int &gt;</text>
</g>
<!-- Node8 -->
<g id="Node000008" class="node">
<title>Node8</title>
<g id="a_Node000008"><a xlink:title=" ">
<polygon fill="white" stroke="#666666" points="66.5,-37 37.5,-37 37.5,-18 66.5,-18 66.5,-37"/>
<text text-anchor="middle" x="52" y="-25" font-family="Helvetica,sans-Serif" font-size="10.00">K</text>
</a>
</g>
</g>
<!-- Node8&#45;&gt;Node7 -->
<g id="edge7_Node000007_Node000008" class="edge">
<title>Node8&#45;&gt;Node7</title>
<g id="a_edge7_Node000007_Node000008"><a xlink:title=" ">
<path fill="none" stroke="#9a32cd" stroke-dasharray="5,2" d="M77.08,-27.52C100.96,-27.72 138.57,-28.55 171,-31.5 176.82,-32.03 182.88,-32.71 188.92,-33.48"/>
<polygon fill="#9a32cd" stroke="#9a32cd" points="76.86,-24.02 66.84,-27.46 76.82,-31.02 76.86,-24.02"/>
</a>
</g>
<text text-anchor="middle" x="146.5" y="-34.5" font-family="Helvetica,sans-Serif" font-size="10.00" fill="grey"> keys</text>
</g>
<!-- Node9 -->
<g id="Node000009" class="node">
<title>Node9</title>
<g id="a_Node000009"><a xlink:title=" ">
<polygon fill="white" stroke="#666666" points="66.5,-74 37.5,-74 37.5,-55 66.5,-55 66.5,-74"/>
<text text-anchor="middle" x="52" y="-62" font-family="Helvetica,sans-Serif" font-size="10.00">T</text>
</a>
</g>
</g>
<!-- Node9&#45;&gt;Node7 -->
<g id="edge8_Node000007_Node000009" class="edge">
<title>Node9&#45;&gt;Node7</title>
<g id="a_edge8_Node000007_Node000009"><a xlink:title=" ">
<path fill="none" stroke="#9a32cd" stroke-dasharray="5,2" d="M76.45,-61.81C104.19,-58.63 151.31,-53.23 188.69,-48.95"/>
<polygon fill="#9a32cd" stroke="#9a32cd" points="76.04,-58.34 66.5,-62.95 76.83,-65.29 76.04,-58.34"/>
</a>
</g>
<text text-anchor="middle" x="146.5" y="-59.5" font-family="Helvetica,sans-Serif" font-size="10.00" fill="grey"> elements</text>
</g>
<!-- Node10 -->
<g id="Node000010" class="node">
<title>Node10</title>
<g id="a_Node000010"><a xlink:href="classamr__wind_1_1_physics_mgr.html" target="_top" xlink:title=" ">
<polygon fill="white" stroke="#666666" points="1305,-89 1179,-89 1179,-70 1305,-70 1305,-89"/>
<text text-anchor="middle" x="1242" y="-77" font-family="Helvetica,sans-Serif" font-size="10.00">amr_wind::PhysicsMgr</text>
</a>
</g>
</g>
<!-- Node10&#45;&gt;Node1 -->
<g id="edge9_Node000001_Node000010" class="edge">
<title>Node10&#45;&gt;Node1</title>
<g id="a_edge9_Node000001_Node000010"><a xlink:title=" ">
<path fill="none" stroke="#9a32cd" stroke-dasharray="5,2" d="M1315.42,-83.09C1339.34,-85.15 1365.97,-88.4 1390,-93.5 1401.61,-95.97 1413.93,-99.64 1425.14,-103.42"/>
<polygon fill="#9a32cd" stroke="#9a32cd" points="1315.6,-79.59 1305.35,-82.28 1315.03,-86.57 1315.6,-79.59"/>
</a>
</g>
<text text-anchor="middle" x="1359.5" y="-96.5" font-family="Helvetica,sans-Serif" font-size="10.00" fill="grey"> m_phy_mgr</text>
</g>
<!-- Node11 -->
<g id="Node000011" class="node">
<title>Node11</title>
<g id="a_Node000011"><a xlink:href="classamr__wind_1_1_coll_mgr.html" target="_top" xlink:title=" ">
<polygon fill="white" stroke="#666666" points="1097,-90.5 968,-90.5 968,-60.5 1097,-60.5 1097,-90.5"/>
<text text-anchor="start" x="976" y="-78.5" font-family="Helvetica,sans-Serif" font-size="10.00">amr_wind::CollMgr&lt;</text>
<text text-anchor="middle" x="1032.5" y="-67.5" font-family="Helvetica,sans-Serif" font-size="10.00"> PhysicsMgr, Physics &gt;</text>
</a>
</g>
</g>
<!-- Node11&#45;&gt;Node10 -->
<g id="edge10_Node000010_Node000011" class="edge">
<title>Node11&#45;&gt;Node10</title>
<g id="a_edge10_Node000010_Node000011"><a xlink:title=" ">
<path fill="none" stroke="#63b8ff" d="M1107.39,-76.92C1130.79,-77.38 1156.4,-77.87 1178.88,-78.3"/>
<polygon fill="#63b8ff" stroke="#63b8ff" points="1107.23,-73.42 1097.17,-76.73 1107.1,-80.42 1107.23,-73.42"/>
</a>
</g>
</g>
<!-- Node12&#45;&gt;Node11 -->
<g id="edge11_Node000011_Node000012" class="edge">
<title>Node12&#45;&gt;Node11</title>
<g id="a_edge11_Node000011_Node000012"><a xlink:title=" ">
<path fill="none" stroke="#9a32cd" stroke-dasharray="5,2" d="M576.38,-59.79C677.37,-63.28 868.33,-69.87 967.74,-73.3"/>
<polygon fill="#9a32cd" stroke="#9a32cd" points="576.42,-56.29 566.31,-59.44 576.18,-63.29 576.42,-56.29"/>
</a>
</g>
<text text-anchor="middle" x="743.5" y="-71.5" font-family="Helvetica,sans-Serif" font-size="10.00" fill="grey"> m_obj_map</text>
</g>
<!-- Node13 -->
<g id="Node000013" class="node">
<title>Node13</title>
<g id="a_Node000013"><a xlink:href="classamr__wind_1_1_coll_mgr.html" target="_top" xlink:title=" ">
<polygon fill="white" stroke="#666666" points="808,-41 679,-41 679,0 808,0 808,-41"/>
<text text-anchor="start" x="687" y="-29" font-family="Helvetica,sans-Serif" font-size="10.00">amr_wind::CollMgr&lt;</text>
<text text-anchor="start" x="687" y="-18" font-family="Helvetica,sans-Serif" font-size="10.00"> Collection, Type, allow</text>
<text text-anchor="middle" x="743.5" y="-7" font-family="Helvetica,sans-Serif" font-size="10.00">_duplicates &gt;</text>
</a>
</g>
</g>
<!-- Node12&#45;&gt;Node13 -->
<g id="edge15_Node000013_Node000012" class="edge">
<title>Node12&#45;&gt;Node13</title>
<g id="a_edge15_Node000013_Node000012"><a xlink:title=" ">
<path fill="none" stroke="#9a32cd" stroke-dasharray="5,2" d="M576.5,-46.92C608.69,-41.8 647.15,-35.67 678.94,-30.61"/>
<polygon fill="#9a32cd" stroke="#9a32cd" points="575.61,-43.52 566.28,-48.54 576.71,-50.43 575.61,-43.52"/>
</a>
</g>
<text text-anchor="middle" x="624.5" y="-47.5" font-family="Helvetica,sans-Serif" font-size="10.00" fill="grey"> m_obj_map</text>
</g>
<!-- Node13&#45;&gt;Node11 -->
<g id="edge14_Node000011_Node000013" class="edge">
<title>Node13&#45;&gt;Node11</title>
<g id="a_edge14_Node000011_Node000013"><a xlink:title=" ">
<path fill="none" stroke="orange" stroke-dasharray="5,2" d="M818.31,-29.8C857.63,-35.3 906.68,-43.05 950,-52.5 960.34,-54.76 971.31,-57.56 981.74,-60.43"/>
<polygon fill="orange" stroke="orange" points="818.66,-26.31 808.28,-28.41 817.71,-33.25 818.66,-26.31"/>
</a>
</g>
<text text-anchor="middle" x="888" y="-55.5" font-family="Helvetica,sans-Serif" font-size="10.00" fill="grey"> &lt; PhysicsMgr, Physics &gt;</text>
</g>
</g>
</svg>
