<?xml version="1.0" encoding="UTF-8" standalone="no"?>
<!DOCTYPE svg PUBLIC "-//W3C//DTD SVG 1.1//EN"
 "http://www.w3.org/Graphics/SVG/1.1/DTD/svg11.dtd">
<!-- Generated by graphviz version 2.43.0 (0)
 -->
<!-- Title: /home/runner/work/amr&#45;wind/amr&#45;wind/amr&#45;wind/utilities/console_io.cpp Pages: 1 -->
<svg width="772pt" height="170pt"
 viewBox="0.00 0.00 771.50 170.00" xmlns="http://www.w3.org/2000/svg" xmlns:xlink="http://www.w3.org/1999/xlink">
<g id="graph0" class="graph" transform="scale(1 1) rotate(0) translate(4 166)">
<title>/home/runner/work/amr&#45;wind/amr&#45;wind/amr&#45;wind/utilities/console_io.cpp</title>
<!-- Node1 -->
<g id="Node000001" class="node">
<title>Node1</title>
<g id="a_Node000001"><a xlink:title=" ">
<polygon fill="#999999" stroke="#666666" points="467.5,-162 324.5,-162 324.5,-121 467.5,-121 467.5,-162"/>
<text text-anchor="start" x="332.5" y="-150" font-family="Helvetica,sans-Serif" font-size="10.00">/home/runner/work/amr</text>
<text text-anchor="start" x="332.5" y="-139" font-family="Helvetica,sans-Serif" font-size="10.00">&#45;wind/amr&#45;wind/amr&#45;wind</text>
<text text-anchor="middle" x="396" y="-128" font-family="Helvetica,sans-Serif" font-size="10.00">/utilities/console_io.cpp</text>
</a>
</g>
</g>
<!-- Node2 -->
<g id="Node000002" class="node">
<title>Node2</title>
<g id="a_Node000002"><a xlink:title=" ">
<polygon fill="#e0e0e0" stroke="#999999" points="50,-79.5 0,-79.5 0,-60.5 50,-60.5 50,-79.5"/>
<text text-anchor="middle" x="25" y="-67.5" font-family="Helvetica,sans-Serif" font-size="10.00">chrono</text>
</a>
</g>
</g>
<!-- Node1&#45;&gt;Node2 -->
<g id="edge1_Node000001_Node000002" class="edge">
<title>Node1&#45;&gt;Node2</title>
<g id="a_edge1_Node000001_Node000002"><a xlink:title=" ">
<path fill="none" stroke="#63b8ff" d="M324.29,-133.48C255.35,-125.61 148.69,-110.49 59,-85 57.11,-84.46 55.19,-83.85 53.26,-83.2"/>
<polygon fill="#63b8ff" stroke="#63b8ff" points="54.38,-79.88 43.79,-79.63 51.91,-86.43 54.38,-79.88"/>
</a>
</g>
</g>
<!-- Node3 -->
<g id="Node000003" class="node">
<title>Node3</title>
<g id="a_Node000003"><a xlink:title=" ">
<polygon fill="#e0e0e0" stroke="#999999" points="112,-79.5 68,-79.5 68,-60.5 112,-60.5 112,-79.5"/>
<text text-anchor="middle" x="90" y="-67.5" font-family="Helvetica,sans-Serif" font-size="10.00">ctime</text>
</a>
</g>
</g>
<!-- Node1&#45;&gt;Node3 -->
<g id="edge2_Node000001_Node000003" class="edge">
<title>Node1&#45;&gt;Node3</title>
<g id="a_edge2_Node000001_Node000003"><a xlink:title=" ">
<path fill="none" stroke="#63b8ff" d="M324.27,-130.25C268.37,-121.25 189.22,-106.25 122,-85 120.37,-84.48 118.71,-83.91 117.05,-83.3"/>
<polygon fill="#63b8ff" stroke="#63b8ff" points="118.27,-80.02 107.68,-79.53 115.65,-86.51 118.27,-80.02"/>
</a>
</g>
</g>
<!-- Node4 -->
<g id="Node000004" class="node">
<title>Node4</title>
<g id="a_Node000004"><a xlink:href="console__io_8_h.html" target="_top" xlink:title=" ">
<polygon fill="white" stroke="#666666" points="233.5,-85 130.5,-85 130.5,-55 233.5,-55 233.5,-85"/>
<text text-anchor="start" x="138.5" y="-73" font-family="Helvetica,sans-Serif" font-size="10.00">amr&#45;wind/utilities</text>
<text text-anchor="middle" x="182" y="-62" font-family="Helvetica,sans-Serif" font-size="10.00">/console_io.H</text>
</a>
</g>
</g>
<!-- Node1&#45;&gt;Node4 -->
<g id="edge3_Node000001_Node000004" class="edge">
<title>Node1&#45;&gt;Node4</title>
<g id="a_edge3_Node000001_Node000004"><a xlink:title=" ">
<path fill="none" stroke="#63b8ff" d="M335.82,-120.96C304.03,-110.63 265.37,-98.07 234.76,-88.13"/>
<polygon fill="#63b8ff" stroke="#63b8ff" points="235.71,-84.76 225.12,-85 233.55,-91.42 235.71,-84.76"/>
</a>
</g>
</g>
<!-- Node7 -->
<g id="Node000007" class="node">
<title>Node7</title>
<g id="a_Node000007"><a xlink:title=" ">
<polygon fill="#e0e0e0" stroke="#999999" points="412,-79.5 252,-79.5 252,-60.5 412,-60.5 412,-79.5"/>
<text text-anchor="middle" x="332" y="-67.5" font-family="Helvetica,sans-Serif" font-size="10.00">amr&#45;wind/AMRWindVersion.H</text>
</a>
</g>
</g>
<!-- Node1&#45;&gt;Node7 -->
<g id="edge6_Node000001_Node000007" class="edge">
<title>Node1&#45;&gt;Node7</title>
<g id="a_edge6_Node000001_Node000007"><a xlink:title=" ">
<path fill="none" stroke="#63b8ff" d="M377.83,-120.77C368.13,-110.24 356.33,-97.42 347.13,-87.43"/>
<polygon fill="#63b8ff" stroke="#63b8ff" points="349.47,-84.81 340.12,-79.82 344.32,-89.55 349.47,-84.81"/>
</a>
</g>
</g>
<!-- Node8 -->
<g id="Node000008" class="node">
<title>Node8</title>
<g id="a_Node000008"><a xlink:title=" ">
<polygon fill="#e0e0e0" stroke="#999999" points="492,-79.5 430,-79.5 430,-60.5 492,-60.5 492,-79.5"/>
<text text-anchor="middle" x="461" y="-67.5" font-family="Helvetica,sans-Serif" font-size="10.00">AMReX.H</text>
</a>
</g>
</g>
<!-- Node1&#45;&gt;Node8 -->
<g id="edge7_Node000001_Node000008" class="edge">
<title>Node1&#45;&gt;Node8</title>
<g id="a_edge7_Node000001_Node000008"><a xlink:title=" ">
<path fill="none" stroke="#63b8ff" d="M414.45,-120.77C424.4,-110.13 436.53,-97.16 445.91,-87.13"/>
<polygon fill="#63b8ff" stroke="#63b8ff" points="448.48,-89.51 452.75,-79.82 443.36,-84.73 448.48,-89.51"/>
</a>
</g>
</g>
<!-- Node9 -->
<g id="Node000009" class="node">
<title>Node9</title>
<g id="a_Node000009"><a xlink:title=" ">
<polygon fill="#e0e0e0" stroke="#999999" points="617.5,-79.5 510.5,-79.5 510.5,-60.5 617.5,-60.5 617.5,-79.5"/>
<text text-anchor="middle" x="564" y="-67.5" font-family="Helvetica,sans-Serif" font-size="10.00">AMReX_OpenMP.H</text>
</a>
</g>
</g>
<!-- Node1&#45;&gt;Node9 -->
<g id="edge8_Node000001_Node000009" class="edge">
<title>Node1&#45;&gt;Node9</title>
<g id="a_edge8_Node000001_Node000009"><a xlink:title=" ">
<path fill="none" stroke="#63b8ff" d="M443.24,-120.96C472.37,-108.9 508.85,-93.81 534.05,-83.39"/>
<polygon fill="#63b8ff" stroke="#63b8ff" points="535.54,-86.56 543.44,-79.5 532.87,-80.09 535.54,-86.56"/>
</a>
</g>
</g>
<!-- Node10 -->
<g id="Node000010" class="node">
<title>Node10</title>
<g id="a_Node000010"><a xlink:title=" ">
<polygon fill="#e0e0e0" stroke="#999999" points="692,-79.5 636,-79.5 636,-60.5 692,-60.5 692,-79.5"/>
<text text-anchor="middle" x="664" y="-67.5" font-family="Helvetica,sans-Serif" font-size="10.00">netcdf.h</text>
</a>
</g>
</g>
<!-- Node1&#45;&gt;Node10 -->
<g id="edge9_Node000001_Node000010" class="edge">
<title>Node1&#45;&gt;Node10</title>
<g id="a_edge9_Node000001_Node000010"><a xlink:title=" ">
<path fill="none" stroke="#63b8ff" d="M467.65,-125.73C513.59,-115.66 574.28,-101.24 627,-85 628.92,-84.41 630.88,-83.77 632.86,-83.1"/>
<polygon fill="#63b8ff" stroke="#63b8ff" points="634.4,-86.27 642.64,-79.61 632.04,-79.68 634.4,-86.27"/>
</a>
</g>
</g>
<!-- Node11 -->
<g id="Node000011" class="node">
<title>Node11</title>
<g id="a_Node000011"><a xlink:title=" ">
<polygon fill="#e0e0e0" stroke="#999999" points="763.5,-79.5 710.5,-79.5 710.5,-60.5 763.5,-60.5 763.5,-79.5"/>
<text text-anchor="middle" x="737" y="-67.5" font-family="Helvetica,sans-Serif" font-size="10.00">masa.h</text>
</a>
</g>
</g>
<!-- Node1&#45;&gt;Node11 -->
<g id="edge10_Node000001_Node000011" class="edge">
<title>Node1&#45;&gt;Node11</title>
<g id="a_edge10_Node000001_Node000011"><a xlink:title=" ">
<path fill="none" stroke="#63b8ff" d="M467.75,-131.39C530.12,-122.54 622.53,-107.18 701,-85 703.15,-84.39 705.35,-83.71 707.55,-82.97"/>
<polygon fill="#63b8ff" stroke="#63b8ff" points="708.83,-86.23 717.05,-79.54 706.45,-79.65 708.83,-86.23"/>
</a>
</g>
</g>
<!-- Node5 -->
<g id="Node000005" class="node">
<title>Node5</title>
<g id="a_Node000005"><a xlink:title=" ">
<polygon fill="#e0e0e0" stroke="#999999" points="163,-19 103,-19 103,0 163,0 163,-19"/>
<text text-anchor="middle" x="133" y="-7" font-family="Helvetica,sans-Serif" font-size="10.00">iostream</text>
</a>
</g>
</g>
<!-- Node4&#45;&gt;Node5 -->
<g id="edge4_Node000004_Node000005" class="edge">
<title>Node4&#45;&gt;Node5</title>
<g id="a_edge4_Node000004_Node000005"><a xlink:title=" ">
<path fill="none" stroke="#63b8ff" d="M170.14,-54.84C163.1,-46.43 154.14,-35.74 146.79,-26.96"/>
<polygon fill="#63b8ff" stroke="#63b8ff" points="149.45,-24.68 140.34,-19.27 144.08,-29.18 149.45,-24.68"/>
</a>
</g>
</g>
<!-- Node6 -->
<g id="Node000006" class="node">
<title>Node6</title>
<g id="a_Node000006"><a xlink:title=" ">
<polygon fill="#e0e0e0" stroke="#999999" points="279,-19 181,-19 181,0 279,0 279,-19"/>
<text text-anchor="middle" x="230" y="-7" font-family="Helvetica,sans-Serif" font-size="10.00">AMReX_MLMG.H</text>
</a>
</g>
</g>
<!-- Node4&#45;&gt;Node6 -->
<g id="edge5_Node000004_Node000006" class="edge">
<title>Node4&#45;&gt;Node6</title>
<g id="a_edge5_Node000004_Node000006"><a xlink:title=" ">
<path fill="none" stroke="#63b8ff" d="M193.62,-54.84C200.44,-46.52 209.11,-35.96 216.27,-27.23"/>
<polygon fill="#63b8ff" stroke="#63b8ff" points="219.17,-29.22 222.81,-19.27 213.76,-24.78 219.17,-29.22"/>
</a>
</g>
</g>
</g>
</svg>
