<?xml version="1.0" encoding="UTF-8" standalone="no"?>
<!DOCTYPE svg PUBLIC "-//W3C//DTD SVG 1.1//EN"
 "http://www.w3.org/Graphics/SVG/1.1/DTD/svg11.dtd">
<!-- Generated by graphviz version 2.43.0 (0)
 -->
<!-- Title: /home/runner/work/kynema&#45;sgf/kynema&#45;sgf/src/equation_systems/icns/source_terms Pages: 1 -->
<!--zoomable 117 -->

<svg id="main" version="1.1" xmlns="http://www.w3.org/2000/svg" xmlns:xlink="http://www.w3.org/1999/xlink" xml:space="preserve" onload="init(evt)">

<style type="text/css"><![CDATA[
.node, .edge {opacity: 0.7;}
.node.selected, .edge.selected {opacity: 1;}
.edge:hover path { stroke: red; }
.edge:hover polygon { stroke: red; fill: red; }
]]></style>

<defs>
  <circle id="rim" cx="0" cy="0" r="7"/>
  <circle id="rim2" cx="0" cy="0" r="3.5"/>
  <g id="zoomPlus">
    <use xlink:href="#rim" fill="#404040"><set attributeName="fill" to="#808080" begin="zoomplus.mouseover" end="zoomplus.mouseout"/></use>
    <path d="M-4,0h8M0,-4v8" fill="none" stroke="white" stroke-width="1.5" pointer-events="none"/>
  </g>
  <g id="zoomMin">
    <use xlink:href="#rim" fill="#404040"><set attributeName="fill" to="#808080" begin="zoomminus.mouseover" end="zoomminus.mouseout"/></use>
    <path d="M-4,0h8" fill="none" stroke="white" stroke-width="1.5" pointer-events="none"/>
  </g>
  <g id="arrowUp" transform="translate(30 24)">
    <use xlink:href="#rim"/>
    <path pointer-events="none" fill="none" stroke="white" stroke-width="1.5" d="M0,-3.0v7 M-2.5,-0.5L0,-3.0L2.5,-0.5"/>
  </g>
  <g id="arrowRight" transform="rotate(90) translate(36 -43)">
    <use xlink:href="#rim"/>
    <path pointer-events="none" fill="none" stroke="white" stroke-width="1.5" d="M0,-3.0v7 M-2.5,-0.5L0,-3.0L2.5,-0.5"/>
  </g>
  <g id="arrowDown" transform="rotate(180) translate(-30 -48)">
    <use xlink:href="#rim"/>
    <path pointer-events="none" fill="none" stroke="white" stroke-width="1.5" d="M0,-3.0v7 M-2.5,-0.5L0,-3.0L2.5,-0.5"/>
  </g>
  <g id="arrowLeft" transform="rotate(270) translate(-36 17)">
    <use xlink:href="#rim"/>
    <path pointer-events="none" fill="none" stroke="white" stroke-width="1.5" d="M0,-3.0v7 M-2.5,-0.5L0,-3.0L2.5,-0.5"/>
  </g>
  <g id="resetDef">
    <use xlink:href="#rim2" fill="#404040"><set attributeName="fill" to="#808080" begin="reset.mouseover" end="reset.mouseout"/></use>
  </g>
</defs>
<script type="application/ecmascript">
var viewWidth = 543;
var viewHeight = 117;
var sectionId = 'dynsection-0';
</script>
<script type="application/ecmascript" xlink:href="svg.min.js"/>
<svg id="graph" class="graph">
<g id="viewport">
<title>/home/runner/work/kynema&#45;sgf/kynema&#45;sgf/src/equation_systems/icns/source_terms</title>
<g id="clust1" class="cluster">
<title>clusterdir_6b3b25f1da48ef8ca65a8f7d03836280</title>
<g id="a_clust1"><a xlink:href="dir_6b3b25f1da48ef8ca65a8f7d03836280.html" target="_top" xlink:title="icns">
<polygon fill="#edf0f7" stroke="#7f7f7f" stroke-dasharray="5,2" points="273,-47 273,-101 373,-101 373,-47 273,-47"/>
<text text-anchor="middle" x="323" y="-89" font-family="Helvetica,sans-Serif" font-size="10.00">icns</text>
</a>
</g>
</g>
<!-- dir_281a8f2a1daeda6ff9d3c6f4bca9a040 -->
<g id="node1" class="node">
<title>dir_281a8f2a1daeda6ff9d3c6f4bca9a040</title>
<g id="a_node1"><a xlink:href="dir_281a8f2a1daeda6ff9d3c6f4bca9a040.html" target="_top" xlink:title="source_terms">
<polygon fill="#edf0f7" stroke="#404040" stroke-width="2" points="364.5,-74 281.5,-74 281.5,-55 364.5,-55 364.5,-74"/>
<text text-anchor="middle" x="323" y="-62" font-family="Helvetica,sans-Serif" font-size="10.00">source_terms</text>
</a>
</g>
</g>
<!-- dir_4c19a60307109eba79b0431678f4e7a6 -->
<g id="node2" class="node">
<title>dir_4c19a60307109eba79b0431678f4e7a6</title>
<g id="a_node2"><a xlink:href="dir_4c19a60307109eba79b0431678f4e7a6.html" target="_top" xlink:title="turbulence">
<polygon fill="#edf0f7" stroke="red" stroke-dasharray="5,2" points="68,-19 0,-19 0,0 68,0 68,-19"/>
<text text-anchor="middle" x="34" y="-7" font-family="Helvetica,sans-Serif" font-size="10.00">turbulence</text>
</a>
</g>
</g>
<!-- dir_281a8f2a1daeda6ff9d3c6f4bca9a040&#45;&gt;dir_4c19a60307109eba79b0431678f4e7a6 -->
<g id="edge1" class="edge">
<title>dir_281a8f2a1daeda6ff9d3c6f4bca9a040&#45;&gt;dir_4c19a60307109eba79b0431678f4e7a6</title>
<g id="a_edge1"><a xlink:href="dir_000043_000054.html" target="_top">
<path fill="none" stroke="#63b8ff" d="M281.18,-56.15C234.21,-47.84 155.44,-33.77 78.16,-19.2"/>
<polygon fill="#63b8ff" stroke="#63b8ff" points="78.73,-15.74 68.26,-17.32 77.43,-22.62 78.73,-15.74"/>
</a>
</g>
<g id="a_edge1&#45;headlabel"><a xlink:href="dir_000043_000054.html" target="_top" xlink:title="1">
<text text-anchor="middle" x="82.79" y="-11.12" font-family="Helvetica,sans-Serif" font-size="10.00" fill="#63b8ff">1</text>
</a>
</g>
</g>
<!-- dir_9444225f9785a77ce73e001f7b67e490 -->
<g id="node3" class="node">
<title>dir_9444225f9785a77ce73e001f7b67e490</title>
<g id="a_node3"><a xlink:href="dir_9444225f9785a77ce73e001f7b67e490.html" target="_top" xlink:title="transport_models">
<polygon fill="#edf0f7" stroke="#7f7f7f" points="188,-19 86,-19 86,0 188,0 188,-19"/>
<text text-anchor="middle" x="137" y="-7" font-family="Helvetica,sans-Serif" font-size="10.00">transport_models</text>
</a>
</g>
</g>
<!-- dir_281a8f2a1daeda6ff9d3c6f4bca9a040&#45;&gt;dir_9444225f9785a77ce73e001f7b67e490 -->
<g id="edge2" class="edge">
<title>dir_281a8f2a1daeda6ff9d3c6f4bca9a040&#45;&gt;dir_9444225f9785a77ce73e001f7b67e490</title>
<g id="a_edge2"><a xlink:href="dir_000043_000052.html" target="_top">
<path fill="none" stroke="#63b8ff" d="M293.12,-54.98C261.62,-46.01 211.83,-31.82 176.97,-21.89"/>
<polygon fill="#63b8ff" stroke="#63b8ff" points="177.69,-18.46 167.12,-19.08 175.78,-25.19 177.69,-18.46"/>
</a>
</g>
<g id="a_edge2&#45;headlabel"><a xlink:href="dir_000043_000052.html" target="_top" xlink:title="2">
<text text-anchor="middle" x="181.93" y="-14.21" font-family="Helvetica,sans-Serif" font-size="10.00" fill="#63b8ff">2</text>
</a>
</g>
</g>
<!-- dir_a80d9316c48aa709b9bc78e2b746db24 -->
<g id="node4" class="node">
<title>dir_a80d9316c48aa709b9bc78e2b746db24</title>
<g id="a_node4"><a xlink:href="dir_a80d9316c48aa709b9bc78e2b746db24.html" target="_top" xlink:title="wind_energy">
<polygon fill="#edf0f7" stroke="red" stroke-dasharray="5,2" points="285.5,-19 206.5,-19 206.5,0 285.5,0 285.5,-19"/>
<text text-anchor="middle" x="246" y="-7" font-family="Helvetica,sans-Serif" font-size="10.00">wind_energy</text>
</a>
</g>
</g>
<!-- dir_281a8f2a1daeda6ff9d3c6f4bca9a040&#45;&gt;dir_a80d9316c48aa709b9bc78e2b746db24 -->
<g id="edge3" class="edge">
<title>dir_281a8f2a1daeda6ff9d3c6f4bca9a040&#45;&gt;dir_a80d9316c48aa709b9bc78e2b746db24</title>
<g id="a_edge3"><a xlink:href="dir_000043_000061.html" target="_top">
<path fill="none" stroke="#63b8ff" d="M310.63,-54.98C298.91,-46.92 281.08,-34.65 267.11,-25.03"/>
<polygon fill="#63b8ff" stroke="#63b8ff" points="268.82,-21.96 258.6,-19.17 264.85,-27.72 268.82,-21.96"/>
</a>
</g>
<g id="a_edge3&#45;headlabel"><a xlink:href="dir_000043_000061.html" target="_top" xlink:title="9">
<text text-anchor="middle" x="273.39" y="-19.16" font-family="Helvetica,sans-Serif" font-size="10.00" fill="#63b8ff">9</text>
</a>
</g>
</g>
<!-- dir_b275fe914c86728e4bacb4b0e2726274 -->
<g id="node5" class="node">
<title>dir_b275fe914c86728e4bacb4b0e2726274</title>
<g id="a_node5"><a xlink:href="dir_b275fe914c86728e4bacb4b0e2726274.html" target="_top" xlink:title="core">
<polygon fill="#edf0f7" stroke="red" stroke-dasharray="5,2" points="342,-19 304,-19 304,0 342,0 342,-19"/>
<text text-anchor="middle" x="323" y="-7" font-family="Helvetica,sans-Serif" font-size="10.00">core</text>
</a>
</g>
</g>
<!-- dir_281a8f2a1daeda6ff9d3c6f4bca9a040&#45;&gt;dir_b275fe914c86728e4bacb4b0e2726274 -->
<g id="edge4" class="edge">
<title>dir_281a8f2a1daeda6ff9d3c6f4bca9a040&#45;&gt;dir_b275fe914c86728e4bacb4b0e2726274</title>
<g id="a_edge4"><a xlink:href="dir_000043_000007.html" target="_top">
<path fill="none" stroke="#63b8ff" d="M323,-54.75C323,-47.8 323,-37.85 323,-29.13"/>
<polygon fill="#63b8ff" stroke="#63b8ff" points="326.5,-29.09 323,-19.09 319.5,-29.09 326.5,-29.09"/>
</a>
</g>
<g id="a_edge4&#45;headlabel"><a xlink:href="dir_000043_000007.html" target="_top" xlink:title="27">
<text text-anchor="middle" x="329.34" y="-30.18" font-family="Helvetica,sans-Serif" font-size="10.00" fill="#63b8ff">27</text>
</a>
</g>
</g>
<!-- dir_d59b7dddc6cfeb8ed243c8310c362d19 -->
<g id="node6" class="node">
<title>dir_d59b7dddc6cfeb8ed243c8310c362d19</title>
<g id="a_node6"><a xlink:href="dir_d59b7dddc6cfeb8ed243c8310c362d19.html" target="_top" xlink:title="utilities">
<polygon fill="#edf0f7" stroke="red" stroke-dasharray="5,2" points="413.5,-19 360.5,-19 360.5,0 413.5,0 413.5,-19"/>
<text text-anchor="middle" x="387" y="-7" font-family="Helvetica,sans-Serif" font-size="10.00">utilities</text>
</a>
</g>
</g>
<!-- dir_281a8f2a1daeda6ff9d3c6f4bca9a040&#45;&gt;dir_d59b7dddc6cfeb8ed243c8310c362d19 -->
<g id="edge5" class="edge">
<title>dir_281a8f2a1daeda6ff9d3c6f4bca9a040&#45;&gt;dir_d59b7dddc6cfeb8ed243c8310c362d19</title>
<g id="a_edge5"><a xlink:href="dir_000043_000056.html" target="_top">
<path fill="none" stroke="#63b8ff" d="M333.28,-54.98C342.84,-47.07 357.28,-35.11 368.78,-25.58"/>
<polygon fill="#63b8ff" stroke="#63b8ff" points="371.06,-28.24 376.53,-19.17 366.6,-22.85 371.06,-28.24"/>
</a>
</g>
<g id="a_edge5&#45;headlabel"><a xlink:href="dir_000043_000056.html" target="_top" xlink:title="29">
<text text-anchor="middle" x="370.1" y="-30.22" font-family="Helvetica,sans-Serif" font-size="10.00" fill="#63b8ff">29</text>
</a>
</g>
</g>
<!-- dir_ddcea0517a7b80a55be019748a9389a4 -->
<g id="node7" class="node">
<title>dir_ddcea0517a7b80a55be019748a9389a4</title>
<g id="a_node7"><a xlink:href="dir_ddcea0517a7b80a55be019748a9389a4.html" target="_top" xlink:title="physics">
<polygon fill="#edf0f7" stroke="red" stroke-dasharray="5,2" points="484.5,-19 431.5,-19 431.5,0 484.5,0 484.5,-19"/>
<text text-anchor="middle" x="458" y="-7" font-family="Helvetica,sans-Serif" font-size="10.00">physics</text>
</a>
</g>
</g>
<!-- dir_281a8f2a1daeda6ff9d3c6f4bca9a040&#45;&gt;dir_ddcea0517a7b80a55be019748a9389a4 -->
<g id="edge6" class="edge">
<title>dir_281a8f2a1daeda6ff9d3c6f4bca9a040&#45;&gt;dir_ddcea0517a7b80a55be019748a9389a4</title>
<g id="a_edge6"><a xlink:href="dir_000043_000035.html" target="_top">
<path fill="none" stroke="#63b8ff" d="M344.69,-54.98C366.8,-46.3 401.32,-32.75 426.45,-22.88"/>
<polygon fill="#63b8ff" stroke="#63b8ff" points="427.89,-26.08 435.92,-19.17 425.33,-19.57 427.89,-26.08"/>
</a>
</g>
<g id="a_edge6&#45;headlabel"><a xlink:href="dir_000043_000035.html" target="_top" xlink:title="4">
<text text-anchor="middle" x="425.58" y="-27.54" font-family="Helvetica,sans-Serif" font-size="10.00" fill="#63b8ff">4</text>
</a>
</g>
</g>
<!-- dir_ee5d0d120b8f5263c662e34f596e7036 -->
<g id="node8" class="node">
<title>dir_ee5d0d120b8f5263c662e34f596e7036</title>
<g id="a_node8"><a xlink:href="dir_ee5d0d120b8f5263c662e34f596e7036.html" target="_top" xlink:title="vof">
<polygon fill="#edf0f7" stroke="#7f7f7f" points="535,-19 503,-19 503,0 535,0 535,-19"/>
<text text-anchor="middle" x="519" y="-7" font-family="Helvetica,sans-Serif" font-size="10.00">vof</text>
</a>
</g>
</g>
<!-- dir_281a8f2a1daeda6ff9d3c6f4bca9a040&#45;&gt;dir_ee5d0d120b8f5263c662e34f596e7036 -->
<g id="edge7" class="edge">
<title>dir_281a8f2a1daeda6ff9d3c6f4bca9a040&#45;&gt;dir_ee5d0d120b8f5263c662e34f596e7036</title>
<g id="a_edge7"><a xlink:href="dir_000043_000058.html" target="_top">
<path fill="none" stroke="#63b8ff" d="M358.91,-54.97C391.62,-47.01 441.45,-34.45 493.23,-19.07"/>
<polygon fill="#63b8ff" stroke="#63b8ff" points="494.34,-22.39 502.92,-16.16 492.33,-15.68 494.34,-22.39"/>
</a>
</g>
<g id="a_edge7&#45;headlabel"><a xlink:href="dir_000043_000058.html" target="_top" xlink:title="3">
<text text-anchor="middle" x="491.72" y="-23.64" font-family="Helvetica,sans-Serif" font-size="10.00" fill="#63b8ff">3</text>
</a>
</g>
</g>
</g>
</svg>

<g id="navigator" transform="translate(0 0)" fill="#404254">
  <rect fill="#f2f5e9" fill-opacity="0.5" stroke="#606060" stroke-width=".5" x="0" y="0" width="60" height="60"/>
  <use id="zoomplus" xlink:href="#zoomPlus" x="17" y="9" onmousedown="handleZoom(evt,'in')"/>
  <use id="zoomminus" xlink:href="#zoomMin" x="42" y="9" onmousedown="handleZoom(evt,'out')"/>
  <use id="reset" xlink:href="#resetDef" x="30" y="36" onmousedown="handleReset()"/>
   <use id="arrowup" xlink:href="#arrowUp" x="0" y="0" onmousedown="handlePan(0,-1)"/>
  <use id="arrowright" xlink:href="#arrowRight" x="0" y="0" onmousedown="handlePan(1,0)"/>
  <use id="arrowdown" xlink:href="#arrowDown" x="0" y="0" onmousedown="handlePan(0,1)"/>
  <use id="arrowleft" xlink:href="#arrowLeft" x="0" y="0" onmousedown="handlePan(-1,0)"/>
</g>
<svg viewBox="0 0 15 15" width="100%" height="30px" preserveAspectRatio="xMaxYMin meet">
 <g id="arrow_out" transform="scale(0.3 0.3)">
  <a xlink:href="dir_281a8f2a1daeda6ff9d3c6f4bca9a040_dep_org.svg" target="_base">
   <rect id="button" ry="5" rx="5" y="6" x="6" height="38" width="38"
        fill="#f2f5e9" fill-opacity="0.5" stroke="#606060" stroke-width="1.0"/>
   <path id="arrow"
     d="M 11.500037,31.436501 C 11.940474,20.09759 22.043105,11.32322 32.158766,21.979434 L 37.068811,17.246167 C 37.068811,17.246167 37.088388,32 37.088388,32 L 22.160133,31.978069 C 22.160133,31.978069 26.997745,27.140456 26.997745,27.140456 C 18.528582,18.264221 13.291696,25.230495 11.500037,31.436501 z"
     style="fill:#404040;"/>
  </a>
 </g>
</svg>

<style type='text/css'>
<![CDATA[
[data-mouse-over-selected='false'] { opacity: 0.7; }
[data-mouse-over-selected='true']  { opacity: 1.0; }
]]>
</style>
<script type="application/ecmascript"><![CDATA[
document.addEventListener('DOMContentLoaded', (event) => {
  highlightEdges();
  highlightAdjacentNodes();
});
]]></script>
</svg>
