<?xml version="1.0" encoding="UTF-8" standalone="no"?>
<!DOCTYPE svg PUBLIC "-//W3C//DTD SVG 1.1//EN"
 "http://www.w3.org/Graphics/SVG/1.1/DTD/svg11.dtd">
<!-- Generated by graphviz version 2.43.0 (0)
 -->
<!-- Title: /home/runner/work/amr&#45;wind/amr&#45;wind/amr&#45;wind/equation_systems/icns Pages: 1 -->
<!--zoomable 141 -->

<svg id="main" version="1.1" xmlns="http://www.w3.org/2000/svg" xmlns:xlink="http://www.w3.org/1999/xlink" xml:space="preserve" onload="init(evt)">

<style type="text/css"><![CDATA[
.node, .edge {opacity: 0.7;}
.node.selected, .edge.selected {opacity: 1;}
.edge:hover path { stroke: red; }
.edge:hover polygon { stroke: red; fill: red; }
]]></style>

<defs>
  <circle id="rim" cx="0" cy="0" r="7"/>
  <circle id="rim2" cx="0" cy="0" r="3.5"/>
  <g id="zoomPlus">
    <use xlink:href="#rim" fill="#404040"><set attributeName="fill" to="#808080" begin="zoomplus.mouseover" end="zoomplus.mouseout"/></use>
    <path d="M-4,0h8M0,-4v8" fill="none" stroke="white" stroke-width="1.5" pointer-events="none"/>
  </g>
  <g id="zoomMin">
    <use xlink:href="#rim" fill="#404040"><set attributeName="fill" to="#808080" begin="zoomminus.mouseover" end="zoomminus.mouseout"/></use>
    <path d="M-4,0h8" fill="none" stroke="white" stroke-width="1.5" pointer-events="none"/>
  </g>
  <g id="arrowUp" transform="translate(30 24)">
    <use xlink:href="#rim"/>
    <path pointer-events="none" fill="none" stroke="white" stroke-width="1.5" d="M0,-3.0v7 M-2.5,-0.5L0,-3.0L2.5,-0.5"/>
  </g>
  <g id="arrowRight" transform="rotate(90) translate(36 -43)">
    <use xlink:href="#rim"/>
    <path pointer-events="none" fill="none" stroke="white" stroke-width="1.5" d="M0,-3.0v7 M-2.5,-0.5L0,-3.0L2.5,-0.5"/>
  </g>
  <g id="arrowDown" transform="rotate(180) translate(-30 -48)">
    <use xlink:href="#rim"/>
    <path pointer-events="none" fill="none" stroke="white" stroke-width="1.5" d="M0,-3.0v7 M-2.5,-0.5L0,-3.0L2.5,-0.5"/>
  </g>
  <g id="arrowLeft" transform="rotate(270) translate(-36 17)">
    <use xlink:href="#rim"/>
    <path pointer-events="none" fill="none" stroke="white" stroke-width="1.5" d="M0,-3.0v7 M-2.5,-0.5L0,-3.0L2.5,-0.5"/>
  </g>
  <g id="resetDef">
    <use xlink:href="#rim2" fill="#404040"><set attributeName="fill" to="#808080" begin="reset.mouseover" end="reset.mouseout"/></use>
  </g>
</defs>
<script type="application/ecmascript">
var viewWidth = 766;
var viewHeight = 141;
var sectionId = 'dynsection-0';
</script>
<script type="application/ecmascript" xlink:href="svg.min.js"/>
<svg id="graph" class="graph">
<g id="viewport">
<title>/home/runner/work/amr&#45;wind/amr&#45;wind/amr&#45;wind/equation_systems/icns</title>
<g id="clust1" class="cluster">
<title>clusterdir_25ba3af7252fba93a50e7ef611ff43dd</title>
<g id="a_clust1"><a xlink:href="dir_25ba3af7252fba93a50e7ef611ff43dd.html" target="_top" xlink:title="equation_systems">
<polygon fill="#edf0f7" stroke="#7f7f7f" stroke-dasharray="5,2" points="8,-8 8,-125 178,-125 178,-8 8,-8"/>
<text text-anchor="middle" x="93" y="-113" font-family="Helvetica,sans-Serif" font-size="10.00">equation_systems</text>
</a>
</g>
</g>
<g id="clust2" class="cluster">
<title>clusterdir_dbb8931b96cba5208d070c0efd4d64a4</title>
<g id="a_clust2"><a xlink:href="dir_dbb8931b96cba5208d070c0efd4d64a4.html" target="_top">
<polygon fill="#edf0f7" stroke="#404040" stroke-width="2" points="16,-63 16,-98 170,-98 170,-63 16,-63"/>
</a>
</g>
</g>
<!-- dir_12791b19f0b305ea05c4a6bbc6348144 -->
<g id="node1" class="node">
<title>dir_12791b19f0b305ea05c4a6bbc6348144</title>
<g id="a_node1"><a xlink:href="dir_12791b19f0b305ea05c4a6bbc6348144.html" target="_top" xlink:title="vof">
<polygon fill="#a2b4d6" stroke="#404040" points="97,-35 65,-35 65,-16 97,-16 97,-35"/>
<text text-anchor="middle" x="81" y="-23" font-family="Helvetica,sans-Serif" font-size="10.00">vof</text>
</a>
</g>
</g>
<!-- dir_dbb8931b96cba5208d070c0efd4d64a4 -->
<g id="node2" class="node">
<title>dir_dbb8931b96cba5208d070c0efd4d64a4</title>
<text text-anchor="middle" x="42" y="-78" font-family="Helvetica,sans-Serif" font-size="10.00">icns</text>
</g>
<!-- dir_dbb8931b96cba5208d070c0efd4d64a4&#45;&gt;dir_12791b19f0b305ea05c4a6bbc6348144 -->
<g id="edge1" class="edge">
<title>dir_dbb8931b96cba5208d070c0efd4d64a4&#45;&gt;dir_12791b19f0b305ea05c4a6bbc6348144</title>
<g id="a_edge1"><a xlink:href="dir_000018_000049.html" target="_top">
<path fill="none" stroke="#63b8ff" d="M48.44,-70.75C53.89,-63.34 61.86,-52.5 68.56,-43.41"/>
<polygon fill="#63b8ff" stroke="#63b8ff" points="71.57,-45.22 74.68,-35.09 65.93,-41.07 71.57,-45.22"/>
</a>
</g>
<g id="a_edge1&#45;headlabel"><a xlink:href="dir_000018_000049.html" target="_top" xlink:title="3">
<text text-anchor="middle" x="71.73" y="-47.3" font-family="Helvetica,sans-Serif" font-size="10.00" fill="#63b8ff">3</text>
</a>
</g>
</g>
<!-- dir_36870694adceb415f28b3a8e8d793680 -->
<g id="node4" class="node">
<title>dir_36870694adceb415f28b3a8e8d793680</title>
<g id="a_node4"><a xlink:href="dir_36870694adceb415f28b3a8e8d793680.html" target="_top" xlink:title="overset">
<polygon fill="#edf0f7" stroke="#7f7f7f" points="375.5,-35 322.5,-35 322.5,-16 375.5,-16 375.5,-35"/>
<text text-anchor="middle" x="349" y="-23" font-family="Helvetica,sans-Serif" font-size="10.00">overset</text>
</a>
</g>
</g>
<!-- dir_dbb8931b96cba5208d070c0efd4d64a4&#45;&gt;dir_36870694adceb415f28b3a8e8d793680 -->
<g id="edge2" class="edge">
<title>dir_dbb8931b96cba5208d070c0efd4d64a4&#45;&gt;dir_36870694adceb415f28b3a8e8d793680</title>
<g id="a_edge2"><a xlink:href="dir_000018_000027.html" target="_top">
<path fill="none" stroke="#63b8ff" d="M53.54,-70.92C58.13,-67.93 63.6,-64.86 69,-63 169.19,-28.52 203.47,-52.31 312.28,-34.86"/>
<polygon fill="#63b8ff" stroke="#63b8ff" points="313.06,-38.28 322.34,-33.16 311.89,-31.37 313.06,-38.28"/>
</a>
</g>
<g id="a_edge2&#45;headlabel"><a xlink:href="dir_000018_000027.html" target="_top" xlink:title="1">
<text text-anchor="middle" x="309.98" y="-39.17" font-family="Helvetica,sans-Serif" font-size="10.00" fill="#63b8ff">1</text>
</a>
</g>
</g>
<!-- dir_b33158d99c61436f71711cd504567082 -->
<g id="node5" class="node">
<title>dir_b33158d99c61436f71711cd504567082</title>
<g id="a_node5"><a xlink:href="dir_b33158d99c61436f71711cd504567082.html" target="_top" xlink:title="wind_energy">
<polygon fill="#edf0f7" stroke="red" stroke-dasharray="5,2" points="600.5,-35 521.5,-35 521.5,-16 600.5,-16 600.5,-35"/>
<text text-anchor="middle" x="561" y="-23" font-family="Helvetica,sans-Serif" font-size="10.00">wind_energy</text>
</a>
</g>
</g>
<!-- dir_dbb8931b96cba5208d070c0efd4d64a4&#45;&gt;dir_b33158d99c61436f71711cd504567082 -->
<g id="edge3" class="edge">
<title>dir_dbb8931b96cba5208d070c0efd4d64a4&#45;&gt;dir_b33158d99c61436f71711cd504567082</title>
<g id="a_edge3"><a xlink:href="dir_000018_000052.html" target="_top">
<path fill="none" stroke="#63b8ff" d="M53.23,-70.95C57.86,-67.88 63.45,-64.75 69,-63 160.42,-34.14 399.75,-45.97 511.42,-34.96"/>
<polygon fill="#63b8ff" stroke="#63b8ff" points="511.94,-38.42 521.5,-33.86 511.18,-31.46 511.94,-38.42"/>
</a>
</g>
<g id="a_edge3&#45;headlabel"><a xlink:href="dir_000018_000052.html" target="_top" xlink:title="10">
<text text-anchor="middle" x="508.67" y="-39.13" font-family="Helvetica,sans-Serif" font-size="10.00" fill="#63b8ff">10</text>
</a>
</g>
</g>
<!-- dir_d2e4f22398959709992733f1617728ca -->
<g id="node6" class="node">
<title>dir_d2e4f22398959709992733f1617728ca</title>
<g id="a_node6"><a xlink:href="dir_d2e4f22398959709992733f1617728ca.html" target="_top" xlink:title="core">
<polygon fill="#edf0f7" stroke="red" stroke-dasharray="5,2" points="432,-35 394,-35 394,-16 432,-16 432,-35"/>
<text text-anchor="middle" x="413" y="-23" font-family="Helvetica,sans-Serif" font-size="10.00">core</text>
</a>
</g>
</g>
<!-- dir_dbb8931b96cba5208d070c0efd4d64a4&#45;&gt;dir_d2e4f22398959709992733f1617728ca -->
<g id="edge4" class="edge">
<title>dir_dbb8931b96cba5208d070c0efd4d64a4&#45;&gt;dir_d2e4f22398959709992733f1617728ca</title>
<g id="a_edge4"><a xlink:href="dir_000018_000009.html" target="_top">
<path fill="none" stroke="#63b8ff" d="M53.51,-70.85C58.1,-67.85 63.57,-64.79 69,-63 199.77,-19.89 244.49,-59.88 383.67,-34.8"/>
<polygon fill="#63b8ff" stroke="#63b8ff" points="384.67,-38.17 393.85,-32.88 383.38,-31.29 384.67,-38.17"/>
</a>
</g>
<g id="a_edge4&#45;headlabel"><a xlink:href="dir_000018_000009.html" target="_top" xlink:title="31">
<text text-anchor="middle" x="381.67" y="-39.13" font-family="Helvetica,sans-Serif" font-size="10.00" fill="#63b8ff">31</text>
</a>
</g>
</g>
<!-- dir_e9168f3bfea397a173489332f8554c97 -->
<g id="node7" class="node">
<title>dir_e9168f3bfea397a173489332f8554c97</title>
<g id="a_node7"><a xlink:href="dir_e9168f3bfea397a173489332f8554c97.html" target="_top" xlink:title="utilities">
<polygon fill="#edf0f7" stroke="red" stroke-dasharray="5,2" points="503.5,-35 450.5,-35 450.5,-16 503.5,-16 503.5,-35"/>
<text text-anchor="middle" x="477" y="-23" font-family="Helvetica,sans-Serif" font-size="10.00">utilities</text>
</a>
</g>
</g>
<!-- dir_dbb8931b96cba5208d070c0efd4d64a4&#45;&gt;dir_e9168f3bfea397a173489332f8554c97 -->
<g id="edge5" class="edge">
<title>dir_dbb8931b96cba5208d070c0efd4d64a4&#45;&gt;dir_e9168f3bfea397a173489332f8554c97</title>
<g id="a_edge5"><a xlink:href="dir_000018_000047.html" target="_top">
<path fill="none" stroke="#63b8ff" d="M53.24,-70.98C57.88,-67.92 63.46,-64.79 69,-63 223.72,-13.12 275.14,-58.5 440.35,-34.78"/>
<polygon fill="#63b8ff" stroke="#63b8ff" points="440.98,-38.23 450.36,-33.28 439.95,-31.3 440.98,-38.23"/>
</a>
</g>
<g id="a_edge5&#45;headlabel"><a xlink:href="dir_000018_000047.html" target="_top" xlink:title="25">
<text text-anchor="middle" x="437.85" y="-39.07" font-family="Helvetica,sans-Serif" font-size="10.00" fill="#63b8ff">25</text>
</a>
</g>
</g>
<!-- dir_e91b3eef7c0d8abdbe8ee43dc3688a49 -->
<g id="node8" class="node">
<title>dir_e91b3eef7c0d8abdbe8ee43dc3688a49</title>
<g id="a_node8"><a xlink:href="dir_e91b3eef7c0d8abdbe8ee43dc3688a49.html" target="_top" xlink:title="boundary_conditions">
<polygon fill="#edf0f7" stroke="red" stroke-dasharray="5,2" points="304,-35 186,-35 186,-16 304,-16 304,-35"/>
<text text-anchor="middle" x="245" y="-23" font-family="Helvetica,sans-Serif" font-size="10.00">boundary_conditions</text>
</a>
</g>
</g>
<!-- dir_dbb8931b96cba5208d070c0efd4d64a4&#45;&gt;dir_e91b3eef7c0d8abdbe8ee43dc3688a49 -->
<g id="edge6" class="edge">
<title>dir_dbb8931b96cba5208d070c0efd4d64a4&#45;&gt;dir_e91b3eef7c0d8abdbe8ee43dc3688a49</title>
<g id="a_edge6"><a xlink:href="dir_000018_000007.html" target="_top">
<path fill="none" stroke="#63b8ff" d="M54.17,-70.84C58.65,-67.98 63.89,-65.02 69,-63 89.69,-54.82 141.92,-44.43 184.14,-36.83"/>
<polygon fill="#63b8ff" stroke="#63b8ff" points="184.86,-40.26 194.09,-35.06 183.63,-33.37 184.86,-40.26"/>
</a>
</g>
<g id="a_edge6&#45;headlabel"><a xlink:href="dir_000018_000007.html" target="_top" xlink:title="1">
<text text-anchor="middle" x="181.81" y="-41.18" font-family="Helvetica,sans-Serif" font-size="10.00" fill="#63b8ff">1</text>
</a>
</g>
</g>
<!-- dir_4fe76208354ba539f52d35cb3808a7ba -->
<g id="node3" class="node">
<title>dir_4fe76208354ba539f52d35cb3808a7ba</title>
<g id="a_node3"><a xlink:href="dir_4fe76208354ba539f52d35cb3808a7ba.html" target="_top" xlink:title="source_terms">
<polygon fill="#a2b4d6" stroke="#404040" points="161.5,-90 78.5,-90 78.5,-71 161.5,-71 161.5,-90"/>
<text text-anchor="middle" x="120" y="-78" font-family="Helvetica,sans-Serif" font-size="10.00">source_terms</text>
</a>
</g>
</g>
<!-- dir_4fe76208354ba539f52d35cb3808a7ba&#45;&gt;dir_12791b19f0b305ea05c4a6bbc6348144 -->
<g id="edge7" class="edge">
<title>dir_4fe76208354ba539f52d35cb3808a7ba&#45;&gt;dir_12791b19f0b305ea05c4a6bbc6348144</title>
<g id="a_edge7"><a xlink:href="dir_000036_000049.html" target="_top">
<path fill="none" stroke="#63b8ff" d="M113.56,-70.75C108.11,-63.34 100.14,-52.5 93.44,-43.41"/>
<polygon fill="#63b8ff" stroke="#63b8ff" points="96.07,-41.07 87.32,-35.09 90.43,-45.22 96.07,-41.07"/>
</a>
</g>
<g id="a_edge7&#45;headlabel"><a xlink:href="dir_000036_000049.html" target="_top" xlink:title="2">
<text text-anchor="middle" x="100.48" y="-39.78" font-family="Helvetica,sans-Serif" font-size="10.00" fill="#63b8ff">2</text>
</a>
</g>
</g>
<!-- dir_4fe76208354ba539f52d35cb3808a7ba&#45;&gt;dir_b33158d99c61436f71711cd504567082 -->
<g id="edge9" class="edge">
<title>dir_4fe76208354ba539f52d35cb3808a7ba&#45;&gt;dir_b33158d99c61436f71711cd504567082</title>
<g id="a_edge9"><a xlink:href="dir_000036_000052.html" target="_top">
<path fill="none" stroke="#63b8ff" d="M161.7,-75.64C231.83,-68.97 378.05,-54.24 511.49,-35.14"/>
<polygon fill="#63b8ff" stroke="#63b8ff" points="512.08,-38.59 521.48,-33.7 511.08,-31.66 512.08,-38.59"/>
</a>
</g>
<g id="a_edge9&#45;headlabel"><a xlink:href="dir_000036_000052.html" target="_top" xlink:title="9">
<text text-anchor="middle" x="508.93" y="-39.42" font-family="Helvetica,sans-Serif" font-size="10.00" fill="#63b8ff">9</text>
</a>
</g>
</g>
<!-- dir_4fe76208354ba539f52d35cb3808a7ba&#45;&gt;dir_d2e4f22398959709992733f1617728ca -->
<g id="edge10" class="edge">
<title>dir_4fe76208354ba539f52d35cb3808a7ba&#45;&gt;dir_d2e4f22398959709992733f1617728ca</title>
<g id="a_edge10"><a xlink:href="dir_000036_000009.html" target="_top">
<path fill="none" stroke="#63b8ff" d="M161.64,-74.19C212.11,-67.39 299.88,-54.38 383.85,-35.01"/>
<polygon fill="#63b8ff" stroke="#63b8ff" points="384.87,-38.37 393.81,-32.68 383.27,-31.55 384.87,-38.37"/>
</a>
</g>
<g id="a_edge10&#45;headlabel"><a xlink:href="dir_000036_000009.html" target="_top" xlink:title="25">
<text text-anchor="middle" x="382.02" y="-39.45" font-family="Helvetica,sans-Serif" font-size="10.00" fill="#63b8ff">25</text>
</a>
</g>
</g>
<!-- dir_4fe76208354ba539f52d35cb3808a7ba&#45;&gt;dir_e9168f3bfea397a173489332f8554c97 -->
<g id="edge11" class="edge">
<title>dir_4fe76208354ba539f52d35cb3808a7ba&#45;&gt;dir_e9168f3bfea397a173489332f8554c97</title>
<g id="a_edge11"><a xlink:href="dir_000036_000047.html" target="_top">
<path fill="none" stroke="#63b8ff" d="M161.76,-74.98C221.34,-68.26 334.34,-54.48 440.41,-34.94"/>
<polygon fill="#63b8ff" stroke="#63b8ff" points="441.13,-38.37 450.32,-33.09 439.85,-31.48 441.13,-38.37"/>
</a>
</g>
<g id="a_edge11&#45;headlabel"><a xlink:href="dir_000036_000047.html" target="_top" xlink:title="22">
<text text-anchor="middle" x="438.12" y="-39.32" font-family="Helvetica,sans-Serif" font-size="10.00" fill="#63b8ff">22</text>
</a>
</g>
</g>
<!-- dir_f00f788038d28a6de62e2305131ce6f9 -->
<g id="node9" class="node">
<title>dir_f00f788038d28a6de62e2305131ce6f9</title>
<g id="a_node9"><a xlink:href="dir_f00f788038d28a6de62e2305131ce6f9.html" target="_top" xlink:title="physics">
<polygon fill="#edf0f7" stroke="red" stroke-dasharray="5,2" points="671.5,-35 618.5,-35 618.5,-16 671.5,-16 671.5,-35"/>
<text text-anchor="middle" x="645" y="-23" font-family="Helvetica,sans-Serif" font-size="10.00">physics</text>
</a>
</g>
</g>
<!-- dir_4fe76208354ba539f52d35cb3808a7ba&#45;&gt;dir_f00f788038d28a6de62e2305131ce6f9 -->
<g id="edge12" class="edge">
<title>dir_4fe76208354ba539f52d35cb3808a7ba&#45;&gt;dir_f00f788038d28a6de62e2305131ce6f9</title>
<g id="a_edge12"><a xlink:href="dir_000036_000029.html" target="_top">
<path fill="none" stroke="#63b8ff" d="M161.56,-77.8C244.75,-73.95 437.72,-62.77 608.42,-35.04"/>
<polygon fill="#63b8ff" stroke="#63b8ff" points="609.03,-38.49 618.33,-33.41 607.89,-31.58 609.03,-38.49"/>
</a>
</g>
<g id="a_edge12&#45;headlabel"><a xlink:href="dir_000036_000029.html" target="_top" xlink:title="3">
<text text-anchor="middle" x="605.95" y="-39.37" font-family="Helvetica,sans-Serif" font-size="10.00" fill="#63b8ff">3</text>
</a>
</g>
</g>
<!-- dir_5460936bc36635a4924df5fb6ccd4a9f -->
<g id="node10" class="node">
<title>dir_5460936bc36635a4924df5fb6ccd4a9f</title>
<g id="a_node10"><a xlink:href="dir_5460936bc36635a4924df5fb6ccd4a9f.html" target="_top" xlink:title="turbulence">
<polygon fill="#edf0f7" stroke="red" stroke-dasharray="5,2" points="758,-35 690,-35 690,-16 758,-16 758,-35"/>
<text text-anchor="middle" x="724" y="-23" font-family="Helvetica,sans-Serif" font-size="10.00">turbulence</text>
</a>
</g>
</g>
<!-- dir_4fe76208354ba539f52d35cb3808a7ba&#45;&gt;dir_5460936bc36635a4924df5fb6ccd4a9f -->
<g id="edge8" class="edge">
<title>dir_4fe76208354ba539f52d35cb3808a7ba&#45;&gt;dir_5460936bc36635a4924df5fb6ccd4a9f</title>
<g id="a_edge8"><a xlink:href="dir_000036_000045.html" target="_top">
<path fill="none" stroke="#63b8ff" d="M161.7,-77.85C253.52,-73.86 480.22,-62.05 679.71,-35.02"/>
<polygon fill="#63b8ff" stroke="#63b8ff" points="680.36,-38.46 689.79,-33.63 679.41,-31.52 680.36,-38.46"/>
</a>
</g>
<g id="a_edge8&#45;headlabel"><a xlink:href="dir_000036_000045.html" target="_top" xlink:title="1">
<text text-anchor="middle" x="677.19" y="-39.26" font-family="Helvetica,sans-Serif" font-size="10.00" fill="#63b8ff">1</text>
</a>
</g>
</g>
</g>
</svg>

<g id="navigator" transform="translate(0 0)" fill="#404254">
  <rect fill="#f2f5e9" fill-opacity="0.5" stroke="#606060" stroke-width=".5" x="0" y="0" width="60" height="60"/>
  <use id="zoomplus" xlink:href="#zoomPlus" x="17" y="9" onmousedown="handleZoom(evt,'in')"/>
  <use id="zoomminus" xlink:href="#zoomMin" x="42" y="9" onmousedown="handleZoom(evt,'out')"/>
  <use id="reset" xlink:href="#resetDef" x="30" y="36" onmousedown="handleReset()"/>
   <use id="arrowup" xlink:href="#arrowUp" x="0" y="0" onmousedown="handlePan(0,-1)"/>
  <use id="arrowright" xlink:href="#arrowRight" x="0" y="0" onmousedown="handlePan(1,0)"/>
  <use id="arrowdown" xlink:href="#arrowDown" x="0" y="0" onmousedown="handlePan(0,1)"/>
  <use id="arrowleft" xlink:href="#arrowLeft" x="0" y="0" onmousedown="handlePan(-1,0)"/>
</g>
<svg viewBox="0 0 15 15" width="100%" height="30px" preserveAspectRatio="xMaxYMin meet">
 <g id="arrow_out" transform="scale(0.3 0.3)">
  <a xlink:href="dir_dbb8931b96cba5208d070c0efd4d64a4_dep_org.svg" target="_base">
   <rect id="button" ry="5" rx="5" y="6" x="6" height="38" width="38"
        fill="#f2f5e9" fill-opacity="0.5" stroke="#606060" stroke-width="1.0"/>
   <path id="arrow"
     d="M 11.500037,31.436501 C 11.940474,20.09759 22.043105,11.32322 32.158766,21.979434 L 37.068811,17.246167 C 37.068811,17.246167 37.088388,32 37.088388,32 L 22.160133,31.978069 C 22.160133,31.978069 26.997745,27.140456 26.997745,27.140456 C 18.528582,18.264221 13.291696,25.230495 11.500037,31.436501 z"
     style="fill:#404040;"/>
  </a>
 </g>
</svg>

<style type='text/css'>
<![CDATA[
[data-mouse-over-selected='false'] { opacity: 0.7; }
[data-mouse-over-selected='true']  { opacity: 1.0; }
]]>
</style>
<script type="application/ecmascript"><![CDATA[
document.addEventListener('DOMContentLoaded', (event) => {
  highlightEdges();
  highlightAdjacentNodes();
});
]]></script>
</svg>
