<?xml version="1.0" encoding="UTF-8" standalone="no"?>
<!DOCTYPE svg PUBLIC "-//W3C//DTD SVG 1.1//EN"
 "http://www.w3.org/Graphics/SVG/1.1/DTD/svg11.dtd">
<!-- Generated by graphviz version 2.43.0 (0)
 -->
<!-- Title: /home/runner/work/kynema&#45;sgf/kynema&#45;sgf/src/physics/multiphase Pages: 1 -->
<!--zoomable 117 -->

<svg id="main" version="1.1" xmlns="http://www.w3.org/2000/svg" xmlns:xlink="http://www.w3.org/1999/xlink" xml:space="preserve" onload="init(evt)">

<style type="text/css"><![CDATA[
.node, .edge {opacity: 0.7;}
.node.selected, .edge.selected {opacity: 1;}
.edge:hover path { stroke: red; }
.edge:hover polygon { stroke: red; fill: red; }
]]></style>

<defs>
  <circle id="rim" cx="0" cy="0" r="7"/>
  <circle id="rim2" cx="0" cy="0" r="3.5"/>
  <g id="zoomPlus">
    <use xlink:href="#rim" fill="#404040"><set attributeName="fill" to="#808080" begin="zoomplus.mouseover" end="zoomplus.mouseout"/></use>
    <path d="M-4,0h8M0,-4v8" fill="none" stroke="white" stroke-width="1.5" pointer-events="none"/>
  </g>
  <g id="zoomMin">
    <use xlink:href="#rim" fill="#404040"><set attributeName="fill" to="#808080" begin="zoomminus.mouseover" end="zoomminus.mouseout"/></use>
    <path d="M-4,0h8" fill="none" stroke="white" stroke-width="1.5" pointer-events="none"/>
  </g>
  <g id="arrowUp" transform="translate(30 24)">
    <use xlink:href="#rim"/>
    <path pointer-events="none" fill="none" stroke="white" stroke-width="1.5" d="M0,-3.0v7 M-2.5,-0.5L0,-3.0L2.5,-0.5"/>
  </g>
  <g id="arrowRight" transform="rotate(90) translate(36 -43)">
    <use xlink:href="#rim"/>
    <path pointer-events="none" fill="none" stroke="white" stroke-width="1.5" d="M0,-3.0v7 M-2.5,-0.5L0,-3.0L2.5,-0.5"/>
  </g>
  <g id="arrowDown" transform="rotate(180) translate(-30 -48)">
    <use xlink:href="#rim"/>
    <path pointer-events="none" fill="none" stroke="white" stroke-width="1.5" d="M0,-3.0v7 M-2.5,-0.5L0,-3.0L2.5,-0.5"/>
  </g>
  <g id="arrowLeft" transform="rotate(270) translate(-36 17)">
    <use xlink:href="#rim"/>
    <path pointer-events="none" fill="none" stroke="white" stroke-width="1.5" d="M0,-3.0v7 M-2.5,-0.5L0,-3.0L2.5,-0.5"/>
  </g>
  <g id="resetDef">
    <use xlink:href="#rim2" fill="#404040"><set attributeName="fill" to="#808080" begin="reset.mouseover" end="reset.mouseout"/></use>
  </g>
</defs>
<script type="application/ecmascript">
var viewWidth = 534;
var viewHeight = 117;
var sectionId = 'dynsection-0';
</script>
<script type="application/ecmascript" xlink:href="svg.min.js"/>
<svg id="graph" class="graph">
<g id="viewport">
<title>/home/runner/work/kynema&#45;sgf/kynema&#45;sgf/src/physics/multiphase</title>
<g id="clust1" class="cluster">
<title>clusterdir_ddcea0517a7b80a55be019748a9389a4</title>
<g id="a_clust1"><a xlink:href="dir_ddcea0517a7b80a55be019748a9389a4.html" target="_top" xlink:title="physics">
<polygon fill="#edf0f7" stroke="#7f7f7f" stroke-dasharray="5,2" points="297,-47 297,-101 385,-101 385,-47 297,-47"/>
<text text-anchor="middle" x="341" y="-89" font-family="Helvetica,sans-Serif" font-size="10.00">physics</text>
</a>
</g>
</g>
<!-- dir_ea84defc78a3d6a93c5f3fc502908131 -->
<g id="node1" class="node">
<title>dir_ea84defc78a3d6a93c5f3fc502908131</title>
<g id="a_node1"><a xlink:href="dir_ea84defc78a3d6a93c5f3fc502908131.html" target="_top" xlink:title="multiphase">
<polygon fill="#edf0f7" stroke="#404040" stroke-width="2" points="376.5,-74 305.5,-74 305.5,-55 376.5,-55 376.5,-74"/>
<text text-anchor="middle" x="341" y="-62" font-family="Helvetica,sans-Serif" font-size="10.00">multiphase</text>
</a>
</g>
</g>
<!-- dir_0a302c6baedf52e9cfdc9fc1cbccbefa -->
<g id="node2" class="node">
<title>dir_0a302c6baedf52e9cfdc9fc1cbccbefa</title>
<g id="a_node2"><a xlink:href="dir_0a302c6baedf52e9cfdc9fc1cbccbefa.html" target="_top" xlink:title="equation_systems">
<polygon fill="#edf0f7" stroke="red" stroke-dasharray="5,2" points="106,-19 0,-19 0,0 106,0 106,-19"/>
<text text-anchor="middle" x="53" y="-7" font-family="Helvetica,sans-Serif" font-size="10.00">equation_systems</text>
</a>
</g>
</g>
<!-- dir_ea84defc78a3d6a93c5f3fc502908131&#45;&gt;dir_0a302c6baedf52e9cfdc9fc1cbccbefa -->
<g id="edge1" class="edge">
<title>dir_ea84defc78a3d6a93c5f3fc502908131&#45;&gt;dir_0a302c6baedf52e9cfdc9fc1cbccbefa</title>
<g id="a_edge1"><a xlink:href="dir_000029_000015.html" target="_top">
<path fill="none" stroke="#63b8ff" d="M305.4,-56.95C256.42,-47.93 167.72,-31.61 109.59,-20.91"/>
<polygon fill="#63b8ff" stroke="#63b8ff" points="109.94,-17.42 99.47,-19.05 108.67,-24.3 109.94,-17.42"/>
</a>
</g>
<g id="a_edge1&#45;headlabel"><a xlink:href="dir_000029_000015.html" target="_top" xlink:title="2">
<text text-anchor="middle" x="113.99" y="-12.78" font-family="Helvetica,sans-Serif" font-size="10.00" fill="#63b8ff">2</text>
</a>
</g>
</g>
<!-- dir_1e81ec2858f8c09f6adc44292f32a0c3 -->
<g id="node3" class="node">
<title>dir_1e81ec2858f8c09f6adc44292f32a0c3</title>
<g id="a_node3"><a xlink:href="dir_1e81ec2858f8c09f6adc44292f32a0c3.html" target="_top" xlink:title="boundary_conditions">
<polygon fill="#edf0f7" stroke="red" stroke-dasharray="5,2" points="242,-19 124,-19 124,0 242,0 242,-19"/>
<text text-anchor="middle" x="183" y="-7" font-family="Helvetica,sans-Serif" font-size="10.00">boundary_conditions</text>
</a>
</g>
</g>
<!-- dir_ea84defc78a3d6a93c5f3fc502908131&#45;&gt;dir_1e81ec2858f8c09f6adc44292f32a0c3 -->
<g id="edge2" class="edge">
<title>dir_ea84defc78a3d6a93c5f3fc502908131&#45;&gt;dir_1e81ec2858f8c09f6adc44292f32a0c3</title>
<g id="a_edge2"><a xlink:href="dir_000029_000005.html" target="_top">
<path fill="none" stroke="#63b8ff" d="M315.61,-54.98C289.2,-46.13 247.65,-32.19 218.11,-22.28"/>
<polygon fill="#63b8ff" stroke="#63b8ff" points="219.18,-18.94 208.58,-19.08 216.95,-25.58 219.18,-18.94"/>
</a>
</g>
<g id="a_edge2&#45;headlabel"><a xlink:href="dir_000029_000005.html" target="_top" xlink:title="1">
<text text-anchor="middle" x="223.49" y="-14.9" font-family="Helvetica,sans-Serif" font-size="10.00" fill="#63b8ff">1</text>
</a>
</g>
</g>
<!-- dir_214e3a3106c5c0cbb3fa0de46fdc9b5f -->
<g id="node4" class="node">
<title>dir_214e3a3106c5c0cbb3fa0de46fdc9b5f</title>
<g id="a_node4"><a xlink:href="dir_214e3a3106c5c0cbb3fa0de46fdc9b5f.html" target="_top" xlink:title="ocean_waves">
<polygon fill="#edf0f7" stroke="red" stroke-dasharray="5,2" points="343.5,-19 260.5,-19 260.5,0 343.5,0 343.5,-19"/>
<text text-anchor="middle" x="302" y="-7" font-family="Helvetica,sans-Serif" font-size="10.00">ocean_waves</text>
</a>
</g>
</g>
<!-- dir_ea84defc78a3d6a93c5f3fc502908131&#45;&gt;dir_214e3a3106c5c0cbb3fa0de46fdc9b5f -->
<g id="edge3" class="edge">
<title>dir_ea84defc78a3d6a93c5f3fc502908131&#45;&gt;dir_214e3a3106c5c0cbb3fa0de46fdc9b5f</title>
<g id="a_edge3"><a xlink:href="dir_000029_000031.html" target="_top">
<path fill="none" stroke="#63b8ff" d="M334.56,-54.75C329.11,-47.34 321.14,-36.5 314.44,-27.41"/>
<polygon fill="#63b8ff" stroke="#63b8ff" points="317.07,-25.07 308.32,-19.09 311.43,-29.22 317.07,-25.07"/>
</a>
</g>
<g id="a_edge3&#45;headlabel"><a xlink:href="dir_000029_000031.html" target="_top" xlink:title="1">
<text text-anchor="middle" x="321.48" y="-23.78" font-family="Helvetica,sans-Serif" font-size="10.00" fill="#63b8ff">1</text>
</a>
</g>
</g>
<!-- dir_7407723fafe4509a43b392903c8f7fbf -->
<g id="node5" class="node">
<title>dir_7407723fafe4509a43b392903c8f7fbf</title>
<g id="a_node5"><a xlink:href="dir_7407723fafe4509a43b392903c8f7fbf.html" target="_top" xlink:title="fvm">
<polygon fill="#edf0f7" stroke="#7f7f7f" points="398,-19 362,-19 362,0 398,0 398,-19"/>
<text text-anchor="middle" x="380" y="-7" font-family="Helvetica,sans-Serif" font-size="10.00">fvm</text>
</a>
</g>
</g>
<!-- dir_ea84defc78a3d6a93c5f3fc502908131&#45;&gt;dir_7407723fafe4509a43b392903c8f7fbf -->
<g id="edge4" class="edge">
<title>dir_ea84defc78a3d6a93c5f3fc502908131&#45;&gt;dir_7407723fafe4509a43b392903c8f7fbf</title>
<g id="a_edge4"><a xlink:href="dir_000029_000019.html" target="_top">
<path fill="none" stroke="#63b8ff" d="M347.44,-54.75C352.89,-47.34 360.86,-36.5 367.56,-27.41"/>
<polygon fill="#63b8ff" stroke="#63b8ff" points="370.57,-29.22 373.68,-19.09 364.93,-25.07 370.57,-29.22"/>
</a>
</g>
<g id="a_edge4&#45;headlabel"><a xlink:href="dir_000029_000019.html" target="_top" xlink:title="5">
<text text-anchor="middle" x="370.73" y="-31.3" font-family="Helvetica,sans-Serif" font-size="10.00" fill="#63b8ff">5</text>
</a>
</g>
</g>
<!-- dir_b275fe914c86728e4bacb4b0e2726274 -->
<g id="node6" class="node">
<title>dir_b275fe914c86728e4bacb4b0e2726274</title>
<g id="a_node6"><a xlink:href="dir_b275fe914c86728e4bacb4b0e2726274.html" target="_top" xlink:title="core">
<polygon fill="#edf0f7" stroke="red" stroke-dasharray="5,2" points="454,-19 416,-19 416,0 454,0 454,-19"/>
<text text-anchor="middle" x="435" y="-7" font-family="Helvetica,sans-Serif" font-size="10.00">core</text>
</a>
</g>
</g>
<!-- dir_ea84defc78a3d6a93c5f3fc502908131&#45;&gt;dir_b275fe914c86728e4bacb4b0e2726274 -->
<g id="edge5" class="edge">
<title>dir_ea84defc78a3d6a93c5f3fc502908131&#45;&gt;dir_b275fe914c86728e4bacb4b0e2726274</title>
<g id="a_edge5"><a xlink:href="dir_000029_000007.html" target="_top">
<path fill="none" stroke="#63b8ff" d="M356.1,-54.98C370.82,-46.69 393.42,-33.94 410.67,-24.22"/>
<polygon fill="#63b8ff" stroke="#63b8ff" points="412.63,-27.13 419.62,-19.17 409.19,-21.03 412.63,-27.13"/>
</a>
</g>
<g id="a_edge5&#45;headlabel"><a xlink:href="dir_000029_000007.html" target="_top" xlink:title="34">
<text text-anchor="middle" x="410.89" y="-28.87" font-family="Helvetica,sans-Serif" font-size="10.00" fill="#63b8ff">34</text>
</a>
</g>
</g>
<!-- dir_d59b7dddc6cfeb8ed243c8310c362d19 -->
<g id="node7" class="node">
<title>dir_d59b7dddc6cfeb8ed243c8310c362d19</title>
<g id="a_node7"><a xlink:href="dir_d59b7dddc6cfeb8ed243c8310c362d19.html" target="_top" xlink:title="utilities">
<polygon fill="#edf0f7" stroke="red" stroke-dasharray="5,2" points="525.5,-19 472.5,-19 472.5,0 525.5,0 525.5,-19"/>
<text text-anchor="middle" x="499" y="-7" font-family="Helvetica,sans-Serif" font-size="10.00">utilities</text>
</a>
</g>
</g>
<!-- dir_ea84defc78a3d6a93c5f3fc502908131&#45;&gt;dir_d59b7dddc6cfeb8ed243c8310c362d19 -->
<g id="edge6" class="edge">
<title>dir_ea84defc78a3d6a93c5f3fc502908131&#45;&gt;dir_d59b7dddc6cfeb8ed243c8310c362d19</title>
<g id="a_edge6"><a xlink:href="dir_000029_000056.html" target="_top">
<path fill="none" stroke="#63b8ff" d="M366.39,-54.98C392.8,-46.13 434.35,-32.19 463.89,-22.28"/>
<polygon fill="#63b8ff" stroke="#63b8ff" points="465.05,-25.58 473.42,-19.08 462.82,-18.94 465.05,-25.58"/>
</a>
</g>
<g id="a_edge6&#45;headlabel"><a xlink:href="dir_000029_000056.html" target="_top" xlink:title="8">
<text text-anchor="middle" x="462.54" y="-26.92" font-family="Helvetica,sans-Serif" font-size="10.00" fill="#63b8ff">8</text>
</a>
</g>
</g>
</g>
</svg>

<g id="navigator" transform="translate(0 0)" fill="#404254">
  <rect fill="#f2f5e9" fill-opacity="0.5" stroke="#606060" stroke-width=".5" x="0" y="0" width="60" height="60"/>
  <use id="zoomplus" xlink:href="#zoomPlus" x="17" y="9" onmousedown="handleZoom(evt,'in')"/>
  <use id="zoomminus" xlink:href="#zoomMin" x="42" y="9" onmousedown="handleZoom(evt,'out')"/>
  <use id="reset" xlink:href="#resetDef" x="30" y="36" onmousedown="handleReset()"/>
   <use id="arrowup" xlink:href="#arrowUp" x="0" y="0" onmousedown="handlePan(0,-1)"/>
  <use id="arrowright" xlink:href="#arrowRight" x="0" y="0" onmousedown="handlePan(1,0)"/>
  <use id="arrowdown" xlink:href="#arrowDown" x="0" y="0" onmousedown="handlePan(0,1)"/>
  <use id="arrowleft" xlink:href="#arrowLeft" x="0" y="0" onmousedown="handlePan(-1,0)"/>
</g>
<svg viewBox="0 0 15 15" width="100%" height="30px" preserveAspectRatio="xMaxYMin meet">
 <g id="arrow_out" transform="scale(0.3 0.3)">
  <a xlink:href="dir_ea84defc78a3d6a93c5f3fc502908131_dep_org.svg" target="_base">
   <rect id="button" ry="5" rx="5" y="6" x="6" height="38" width="38"
        fill="#f2f5e9" fill-opacity="0.5" stroke="#606060" stroke-width="1.0"/>
   <path id="arrow"
     d="M 11.500037,31.436501 C 11.940474,20.09759 22.043105,11.32322 32.158766,21.979434 L 37.068811,17.246167 C 37.068811,17.246167 37.088388,32 37.088388,32 L 22.160133,31.978069 C 22.160133,31.978069 26.997745,27.140456 26.997745,27.140456 C 18.528582,18.264221 13.291696,25.230495 11.500037,31.436501 z"
     style="fill:#404040;"/>
  </a>
 </g>
</svg>

<style type='text/css'>
<![CDATA[
[data-mouse-over-selected='false'] { opacity: 0.7; }
[data-mouse-over-selected='true']  { opacity: 1.0; }
]]>
</style>
<script type="application/ecmascript"><![CDATA[
document.addEventListener('DOMContentLoaded', (event) => {
  highlightEdges();
  highlightAdjacentNodes();
});
]]></script>
</svg>
