<?xml version="1.0" encoding="UTF-8" standalone="no"?>
<!DOCTYPE svg PUBLIC "-//W3C//DTD SVG 1.1//EN"
 "http://www.w3.org/Graphics/SVG/1.1/DTD/svg11.dtd">
<!-- Generated by graphviz version 2.43.0 (0)
 -->
<!-- Title: /home/runner/work/amr&#45;wind/amr&#45;wind/amr&#45;wind/equation_systems Pages: 1 -->
<!--zoomable 196 -->

<svg id="main" version="1.1" xmlns="http://www.w3.org/2000/svg" xmlns:xlink="http://www.w3.org/1999/xlink" xml:space="preserve" onload="init(evt)">

<style type="text/css"><![CDATA[
.node, .edge {opacity: 0.7;}
.node.selected, .edge.selected {opacity: 1;}
.edge:hover path { stroke: red; }
.edge:hover polygon { stroke: red; fill: red; }
]]></style>

<defs>
  <circle id="rim" cx="0" cy="0" r="7"/>
  <circle id="rim2" cx="0" cy="0" r="3.5"/>
  <g id="zoomPlus">
    <use xlink:href="#rim" fill="#404040"><set attributeName="fill" to="#808080" begin="zoomplus.mouseover" end="zoomplus.mouseout"/></use>
    <path d="M-4,0h8M0,-4v8" fill="none" stroke="white" stroke-width="1.5" pointer-events="none"/>
  </g>
  <g id="zoomMin">
    <use xlink:href="#rim" fill="#404040"><set attributeName="fill" to="#808080" begin="zoomminus.mouseover" end="zoomminus.mouseout"/></use>
    <path d="M-4,0h8" fill="none" stroke="white" stroke-width="1.5" pointer-events="none"/>
  </g>
  <g id="arrowUp" transform="translate(30 24)">
    <use xlink:href="#rim"/>
    <path pointer-events="none" fill="none" stroke="white" stroke-width="1.5" d="M0,-3.0v7 M-2.5,-0.5L0,-3.0L2.5,-0.5"/>
  </g>
  <g id="arrowRight" transform="rotate(90) translate(36 -43)">
    <use xlink:href="#rim"/>
    <path pointer-events="none" fill="none" stroke="white" stroke-width="1.5" d="M0,-3.0v7 M-2.5,-0.5L0,-3.0L2.5,-0.5"/>
  </g>
  <g id="arrowDown" transform="rotate(180) translate(-30 -48)">
    <use xlink:href="#rim"/>
    <path pointer-events="none" fill="none" stroke="white" stroke-width="1.5" d="M0,-3.0v7 M-2.5,-0.5L0,-3.0L2.5,-0.5"/>
  </g>
  <g id="arrowLeft" transform="rotate(270) translate(-36 17)">
    <use xlink:href="#rim"/>
    <path pointer-events="none" fill="none" stroke="white" stroke-width="1.5" d="M0,-3.0v7 M-2.5,-0.5L0,-3.0L2.5,-0.5"/>
  </g>
  <g id="resetDef">
    <use xlink:href="#rim2" fill="#404040"><set attributeName="fill" to="#808080" begin="reset.mouseover" end="reset.mouseout"/></use>
  </g>
</defs>
<script type="application/ecmascript">
var viewWidth = 1507;
var viewHeight = 196;
var sectionId = 'dynsection-0';
</script>
<script type="application/ecmascript" xlink:href="svg.min.js"/>
<svg id="graph" class="graph">
<g id="viewport">
<title>/home/runner/work/amr&#45;wind/amr&#45;wind/amr&#45;wind/equation_systems</title>
<g id="clust1" class="cluster">
<title>clusterdir_212148f97b8bb53ebaebb3bf8a8b5de4</title>
<g id="a_clust1"><a xlink:href="dir_212148f97b8bb53ebaebb3bf8a8b5de4.html" target="_top" xlink:title="amr&#45;wind">
<polygon fill="#edf0f7" stroke="#7f7f7f" stroke-dasharray="5,2" points="8,-8 8,-180 1491,-180 1491,-8 8,-8"/>
<text text-anchor="middle" x="749.5" y="-168" font-family="Helvetica,sans-Serif" font-size="10.00">amr&#45;wind</text>
</a>
</g>
</g>
<g id="clust2" class="cluster">
<title>clusterdir_25ba3af7252fba93a50e7ef611ff43dd</title>
<g id="a_clust2"><a xlink:href="dir_25ba3af7252fba93a50e7ef611ff43dd.html" target="_top">
<polygon fill="#edf0f7" stroke="#404040" stroke-width="2" points="668,-63 668,-153 1293,-153 1293,-63 668,-63"/>
</a>
</g>
</g>
<!-- dir_5460936bc36635a4924df5fb6ccd4a9f -->
<g id="node1" class="node">
<title>dir_5460936bc36635a4924df5fb6ccd4a9f</title>
<g id="a_node1"><a xlink:href="dir_5460936bc36635a4924df5fb6ccd4a9f.html" target="_top" xlink:title="turbulence">
<polygon fill="#a2b4d6" stroke="red" points="330,-90 262,-90 262,-71 330,-71 330,-90"/>
<text text-anchor="middle" x="296" y="-78" font-family="Helvetica,sans-Serif" font-size="10.00">turbulence</text>
</a>
</g>
</g>
<!-- dir_55e55284d9a49d838b251e95ccfd4801 -->
<g id="node2" class="node">
<title>dir_55e55284d9a49d838b251e95ccfd4801</title>
<g id="a_node2"><a xlink:href="dir_55e55284d9a49d838b251e95ccfd4801.html" target="_top" xlink:title="diffusion">
<polygon fill="#a2b4d6" stroke="#404040" points="223.5,-90 164.5,-90 164.5,-71 223.5,-71 223.5,-90"/>
<text text-anchor="middle" x="194" y="-78" font-family="Helvetica,sans-Serif" font-size="10.00">diffusion</text>
</a>
</g>
</g>
<!-- dir_a965e280aa7bcc6002db570e748ed06d -->
<g id="node3" class="node">
<title>dir_a965e280aa7bcc6002db570e748ed06d</title>
<g id="a_node3"><a xlink:href="dir_a965e280aa7bcc6002db570e748ed06d.html" target="_top" xlink:title="convection">
<polygon fill="#a2b4d6" stroke="#404040" points="106,-90 36,-90 36,-71 106,-71 106,-90"/>
<text text-anchor="middle" x="71" y="-78" font-family="Helvetica,sans-Serif" font-size="10.00">convection</text>
</a>
</g>
</g>
<!-- dir_d2e4f22398959709992733f1617728ca -->
<g id="node4" class="node">
<title>dir_d2e4f22398959709992733f1617728ca</title>
<g id="a_node4"><a xlink:href="dir_d2e4f22398959709992733f1617728ca.html" target="_top" xlink:title="core">
<polygon fill="#a2b4d6" stroke="red" points="368,-35 330,-35 330,-16 368,-16 368,-35"/>
<text text-anchor="middle" x="349" y="-23" font-family="Helvetica,sans-Serif" font-size="10.00">core</text>
</a>
</g>
</g>
<!-- dir_e9168f3bfea397a173489332f8554c97 -->
<g id="node5" class="node">
<title>dir_e9168f3bfea397a173489332f8554c97</title>
<g id="a_node5"><a xlink:href="dir_e9168f3bfea397a173489332f8554c97.html" target="_top" xlink:title="utilities">
<polygon fill="#a2b4d6" stroke="red" points="1071.5,-35 1018.5,-35 1018.5,-16 1071.5,-16 1071.5,-35"/>
<text text-anchor="middle" x="1045" y="-23" font-family="Helvetica,sans-Serif" font-size="10.00">utilities</text>
</a>
</g>
</g>
<!-- dir_e91b3eef7c0d8abdbe8ee43dc3688a49 -->
<g id="node6" class="node">
<title>dir_e91b3eef7c0d8abdbe8ee43dc3688a49</title>
<g id="a_node6"><a xlink:href="dir_e91b3eef7c0d8abdbe8ee43dc3688a49.html" target="_top" xlink:title="boundary_conditions">
<polygon fill="#a2b4d6" stroke="red" points="616,-35 498,-35 498,-16 616,-16 616,-35"/>
<text text-anchor="middle" x="557" y="-23" font-family="Helvetica,sans-Serif" font-size="10.00">boundary_conditions</text>
</a>
</g>
</g>
<!-- dir_b33158d99c61436f71711cd504567082 -->
<g id="node7" class="node">
<title>dir_b33158d99c61436f71711cd504567082</title>
<g id="a_node7"><a xlink:href="dir_b33158d99c61436f71711cd504567082.html" target="_top" xlink:title="wind_energy">
<polygon fill="#a2b4d6" stroke="red" points="446.5,-90 367.5,-90 367.5,-71 446.5,-71 446.5,-90"/>
<text text-anchor="middle" x="407" y="-78" font-family="Helvetica,sans-Serif" font-size="10.00">wind_energy</text>
</a>
</g>
</g>
<!-- dir_31ef573988df7bf0ed14bf48414c6fd1 -->
<g id="node8" class="node">
<title>dir_31ef573988df7bf0ed14bf48414c6fd1</title>
<g id="a_node8"><a xlink:href="dir_31ef573988df7bf0ed14bf48414c6fd1.html" target="_top" xlink:title="ocean_waves">
<polygon fill="#a2b4d6" stroke="red" points="659.5,-90 576.5,-90 576.5,-71 659.5,-71 659.5,-90"/>
<text text-anchor="middle" x="618" y="-78" font-family="Helvetica,sans-Serif" font-size="10.00">ocean_waves</text>
</a>
</g>
</g>
<!-- dir_36870694adceb415f28b3a8e8d793680 -->
<g id="node9" class="node">
<title>dir_36870694adceb415f28b3a8e8d793680</title>
<g id="a_node9"><a xlink:href="dir_36870694adceb415f28b3a8e8d793680.html" target="_top" xlink:title="overset">
<polygon fill="#a2b4d6" stroke="#404040" points="517.5,-90 464.5,-90 464.5,-71 517.5,-71 517.5,-90"/>
<text text-anchor="middle" x="491" y="-78" font-family="Helvetica,sans-Serif" font-size="10.00">overset</text>
</a>
</g>
</g>
<!-- dir_f00f788038d28a6de62e2305131ce6f9 -->
<g id="node10" class="node">
<title>dir_f00f788038d28a6de62e2305131ce6f9</title>
<g id="a_node10"><a xlink:href="dir_f00f788038d28a6de62e2305131ce6f9.html" target="_top" xlink:title="physics">
<polygon fill="#a2b4d6" stroke="red" points="1468.5,-35 1415.5,-35 1415.5,-16 1468.5,-16 1468.5,-35"/>
<text text-anchor="middle" x="1442" y="-23" font-family="Helvetica,sans-Serif" font-size="10.00">physics</text>
</a>
</g>
</g>
<!-- dir_8850def71d7022841cb32c1b32cdfc07 -->
<g id="node11" class="node">
<title>dir_8850def71d7022841cb32c1b32cdfc07</title>
<g id="a_node11"><a xlink:href="dir_8850def71d7022841cb32c1b32cdfc07.html" target="_top" xlink:title="transport_models">
<polygon fill="#a2b4d6" stroke="#404040" points="1403,-90 1301,-90 1301,-71 1403,-71 1403,-90"/>
<text text-anchor="middle" x="1352" y="-78" font-family="Helvetica,sans-Serif" font-size="10.00">transport_models</text>
</a>
</g>
</g>
<!-- dir_25ba3af7252fba93a50e7ef611ff43dd -->
<g id="node12" class="node">
<title>dir_25ba3af7252fba93a50e7ef611ff43dd</title>
<text text-anchor="middle" x="779" y="-133" font-family="Helvetica,sans-Serif" font-size="10.00">equation_systems</text>
</g>
<!-- dir_25ba3af7252fba93a50e7ef611ff43dd&#45;&gt;dir_5460936bc36635a4924df5fb6ccd4a9f -->
<g id="edge2" class="edge">
<title>dir_25ba3af7252fba93a50e7ef611ff43dd&#45;&gt;dir_5460936bc36635a4924df5fb6ccd4a9f</title>
<g id="a_edge2"><a xlink:href="dir_000017_000049.html" target="_top">
<path fill="none" stroke="#63b8ff" d="M725.92,-127.08C722.9,-126.7 719.91,-126.34 717,-126 551.58,-106.69 509.02,-112.54 344,-90 342.73,-89.83 341.44,-89.64 340.13,-89.45"/>
<polygon fill="#63b8ff" stroke="#63b8ff" points="340.46,-85.96 330.04,-87.87 339.37,-92.88 340.46,-85.96"/>
</a>
</g>
<g id="a_edge2&#45;headlabel"><a xlink:href="dir_000017_000049.html" target="_top" xlink:title="6">
<text text-anchor="middle" x="344.45" y="-81.21" font-family="Helvetica,sans-Serif" font-size="10.00" fill="#63b8ff">6</text>
</a>
</g>
</g>
<!-- dir_25ba3af7252fba93a50e7ef611ff43dd&#45;&gt;dir_55e55284d9a49d838b251e95ccfd4801 -->
<g id="edge3" class="edge">
<title>dir_25ba3af7252fba93a50e7ef611ff43dd&#45;&gt;dir_55e55284d9a49d838b251e95ccfd4801</title>
<g id="a_edge3"><a xlink:href="dir_000017_000012.html" target="_top">
<path fill="none" stroke="#63b8ff" d="M725.93,-127.01C722.91,-126.65 719.92,-126.31 717,-126 504.7,-103.49 449.61,-118.29 238,-90 236.7,-89.83 235.38,-89.64 234.05,-89.44"/>
<polygon fill="#63b8ff" stroke="#63b8ff" points="234.18,-85.91 223.75,-87.73 233.04,-92.82 234.18,-85.91"/>
</a>
</g>
<g id="a_edge3&#45;headlabel"><a xlink:href="dir_000017_000012.html" target="_top" xlink:title="1">
<text text-anchor="middle" x="238.19" y="-81.2" font-family="Helvetica,sans-Serif" font-size="10.00" fill="#63b8ff">1</text>
</a>
</g>
</g>
<!-- dir_25ba3af7252fba93a50e7ef611ff43dd&#45;&gt;dir_a965e280aa7bcc6002db570e748ed06d -->
<g id="edge4" class="edge">
<title>dir_25ba3af7252fba93a50e7ef611ff43dd&#45;&gt;dir_a965e280aa7bcc6002db570e748ed06d</title>
<g id="a_edge4"><a xlink:href="dir_000017_000009.html" target="_top">
<path fill="none" stroke="#63b8ff" d="M725.93,-126.95C722.91,-126.61 719.92,-126.29 717,-126 452.47,-99.93 384.03,-120.76 120,-90 118.75,-89.85 117.47,-89.7 116.19,-89.53"/>
<polygon fill="#63b8ff" stroke="#63b8ff" points="116.66,-86.06 106.26,-88.1 115.66,-92.99 116.66,-86.06"/>
</a>
</g>
<g id="a_edge4&#45;headlabel"><a xlink:href="dir_000017_000009.html" target="_top" xlink:title="2">
<text text-anchor="middle" x="120.62" y="-81.26" font-family="Helvetica,sans-Serif" font-size="10.00" fill="#63b8ff">2</text>
</a>
</g>
</g>
<!-- dir_25ba3af7252fba93a50e7ef611ff43dd&#45;&gt;dir_d2e4f22398959709992733f1617728ca -->
<g id="edge5" class="edge">
<title>dir_25ba3af7252fba93a50e7ef611ff43dd&#45;&gt;dir_d2e4f22398959709992733f1617728ca</title>
<g id="a_edge5"><a xlink:href="dir_000017_000010.html" target="_top">
<path fill="none" stroke="#63b8ff" d="M725.93,-126.96C722.91,-126.62 719.92,-126.29 717,-126 653.63,-119.67 188.59,-136.42 145,-90 93.42,-35.07 252.14,-27.33 319.89,-26.48"/>
<polygon fill="#63b8ff" stroke="#63b8ff" points="319.97,-29.98 329.94,-26.39 319.91,-22.98 319.97,-29.98"/>
</a>
</g>
<g id="a_edge5&#45;headlabel"><a xlink:href="dir_000017_000010.html" target="_top" xlink:title="81">
<text text-anchor="middle" x="316.4" y="-30.35" font-family="Helvetica,sans-Serif" font-size="10.00" fill="#63b8ff">81</text>
</a>
</g>
</g>
<!-- dir_25ba3af7252fba93a50e7ef611ff43dd&#45;&gt;dir_e9168f3bfea397a173489332f8554c97 -->
<g id="edge6" class="edge">
<title>dir_25ba3af7252fba93a50e7ef611ff43dd&#45;&gt;dir_e9168f3bfea397a173489332f8554c97</title>
<g id="a_edge6"><a xlink:href="dir_000017_000051.html" target="_top">
<path fill="none" stroke="#63b8ff" d="M800.32,-125.84C847.32,-106.76 960,-61.01 1014.48,-38.89"/>
<polygon fill="#63b8ff" stroke="#63b8ff" points="1016,-42.05 1023.95,-35.05 1013.37,-35.57 1016,-42.05"/>
</a>
</g>
<g id="a_edge6&#45;headlabel"><a xlink:href="dir_000017_000051.html" target="_top" xlink:title="54">
<text text-anchor="middle" x="1013.74" y="-43.53" font-family="Helvetica,sans-Serif" font-size="10.00" fill="#63b8ff">54</text>
</a>
</g>
</g>
<!-- dir_25ba3af7252fba93a50e7ef611ff43dd&#45;&gt;dir_e91b3eef7c0d8abdbe8ee43dc3688a49 -->
<g id="edge7" class="edge">
<title>dir_25ba3af7252fba93a50e7ef611ff43dd&#45;&gt;dir_e91b3eef7c0d8abdbe8ee43dc3688a49</title>
<g id="a_edge7"><a xlink:href="dir_000017_000007.html" target="_top">
<path fill="none" stroke="#63b8ff" d="M725.93,-126.97C722.91,-126.62 719.92,-126.29 717,-126 654.85,-119.75 198.73,-135.56 156,-90 147.79,-81.25 147.91,-71.86 156,-63 167.01,-50.94 375.72,-37.03 487.56,-30.4"/>
<polygon fill="#63b8ff" stroke="#63b8ff" points="487.96,-33.89 497.74,-29.81 487.55,-26.9 487.96,-33.89"/>
</a>
</g>
<g id="a_edge7&#45;headlabel"><a xlink:href="dir_000017_000007.html" target="_top" xlink:title="4">
<text text-anchor="middle" x="484.54" y="-34.43" font-family="Helvetica,sans-Serif" font-size="10.00" fill="#63b8ff">4</text>
</a>
</g>
</g>
<!-- dir_12791b19f0b305ea05c4a6bbc6348144 -->
<g id="node20" class="node">
<title>dir_12791b19f0b305ea05c4a6bbc6348144</title>
<g id="a_node20"><a xlink:href="dir_12791b19f0b305ea05c4a6bbc6348144.html" target="_top" xlink:title="vof">
<polygon fill="#a2b4d6" stroke="#404040" points="848,-90 816,-90 816,-71 848,-71 848,-90"/>
<text text-anchor="middle" x="832" y="-78" font-family="Helvetica,sans-Serif" font-size="10.00">vof</text>
</a>
</g>
</g>
<!-- dir_25ba3af7252fba93a50e7ef611ff43dd&#45;&gt;dir_12791b19f0b305ea05c4a6bbc6348144 -->
<g id="edge1" class="edge">
<title>dir_25ba3af7252fba93a50e7ef611ff43dd&#45;&gt;dir_12791b19f0b305ea05c4a6bbc6348144</title>
<g id="a_edge1"><a xlink:href="dir_000017_000053.html" target="_top">
<path fill="none" stroke="#63b8ff" d="M787.75,-125.75C795.47,-118.03 806.9,-106.6 816.22,-97.28"/>
<polygon fill="#63b8ff" stroke="#63b8ff" points="818.81,-99.64 823.41,-90.09 813.86,-94.69 818.81,-99.64"/>
</a>
</g>
<g id="a_edge1&#45;headlabel"><a xlink:href="dir_000017_000053.html" target="_top" xlink:title="4">
<text text-anchor="middle" x="818.28" y="-101.68" font-family="Helvetica,sans-Serif" font-size="10.00" fill="#63b8ff">4</text>
</a>
</g>
</g>
<!-- dir_debae907174ee60b0fe53df4945f42c5 -->
<g id="node13" class="node">
<title>dir_debae907174ee60b0fe53df4945f42c5</title>
<g id="a_node13"><a xlink:href="dir_debae907174ee60b0fe53df4945f42c5.html" target="_top" xlink:title="density">
<polygon fill="#a2b4d6" stroke="#404040" points="903.5,-145 850.5,-145 850.5,-126 903.5,-126 903.5,-145"/>
<text text-anchor="middle" x="877" y="-133" font-family="Helvetica,sans-Serif" font-size="10.00">density</text>
</a>
</g>
</g>
<!-- dir_debae907174ee60b0fe53df4945f42c5&#45;&gt;dir_d2e4f22398959709992733f1617728ca -->
<g id="edge8" class="edge">
<title>dir_debae907174ee60b0fe53df4945f42c5&#45;&gt;dir_d2e4f22398959709992733f1617728ca</title>
<g id="a_edge8"><a xlink:href="dir_000011_000010.html" target="_top">
<path fill="none" stroke="#63b8ff" d="M850.36,-127.68C847.22,-127.03 844.05,-126.45 841,-126 776.25,-116.44 297.85,-137.68 253,-90 244.78,-81.26 246.19,-72.88 253,-63 267.86,-41.46 297.23,-32.62 319.59,-29"/>
<polygon fill="#63b8ff" stroke="#63b8ff" points="320.16,-32.45 329.6,-27.64 319.22,-25.52 320.16,-32.45"/>
</a>
</g>
<g id="a_edge8&#45;headlabel"><a xlink:href="dir_000011_000010.html" target="_top" xlink:title="4">
<text text-anchor="middle" x="316.98" y="-33.25" font-family="Helvetica,sans-Serif" font-size="10.00" fill="#63b8ff">4</text>
</a>
</g>
</g>
<!-- dir_dbb8931b96cba5208d070c0efd4d64a4 -->
<g id="node14" class="node">
<title>dir_dbb8931b96cba5208d070c0efd4d64a4</title>
<g id="a_node14"><a xlink:href="dir_dbb8931b96cba5208d070c0efd4d64a4.html" target="_top" xlink:title="icns">
<polygon fill="#a2b4d6" stroke="#404040" points="1115,-145 1079,-145 1079,-126 1115,-126 1115,-145"/>
<text text-anchor="middle" x="1097" y="-133" font-family="Helvetica,sans-Serif" font-size="10.00">icns</text>
</a>
</g>
</g>
<!-- dir_dbb8931b96cba5208d070c0efd4d64a4&#45;&gt;dir_5460936bc36635a4924df5fb6ccd4a9f -->
<g id="edge18" class="edge">
<title>dir_dbb8931b96cba5208d070c0efd4d64a4&#45;&gt;dir_5460936bc36635a4924df5fb6ccd4a9f</title>
<g id="a_edge18"><a xlink:href="dir_000021_000049.html" target="_top">
<path fill="none" stroke="#63b8ff" d="M1078.86,-128.1C1075.93,-127.27 1072.9,-126.52 1070,-126 758.58,-70.04 674.06,-119.18 359,-90 353.02,-89.45 346.73,-88.74 340.53,-87.98"/>
<polygon fill="#63b8ff" stroke="#63b8ff" points="340.64,-84.46 330.27,-86.65 339.74,-91.41 340.64,-84.46"/>
</a>
</g>
<g id="a_edge18&#45;headlabel"><a xlink:href="dir_000021_000049.html" target="_top" xlink:title="1">
<text text-anchor="middle" x="344.57" y="-79.61" font-family="Helvetica,sans-Serif" font-size="10.00" fill="#63b8ff">1</text>
</a>
</g>
</g>
<!-- dir_dbb8931b96cba5208d070c0efd4d64a4&#45;&gt;dir_d2e4f22398959709992733f1617728ca -->
<g id="edge12" class="edge">
<title>dir_dbb8931b96cba5208d070c0efd4d64a4&#45;&gt;dir_d2e4f22398959709992733f1617728ca</title>
<g id="a_edge12"><a xlink:href="dir_000021_000010.html" target="_top">
<path fill="none" stroke="#63b8ff" d="M1078.85,-128.15C1075.92,-127.31 1072.9,-126.55 1070,-126 956.41,-104.49 654.76,-140.98 551,-90 536.59,-82.92 540.91,-71.02 527,-63 479.75,-35.74 415.11,-28.66 378.14,-26.93"/>
<polygon fill="#63b8ff" stroke="#63b8ff" points="378.16,-23.42 368.04,-26.56 377.91,-30.42 378.16,-23.42"/>
</a>
</g>
<g id="a_edge12&#45;headlabel"><a xlink:href="dir_000021_000010.html" target="_top" xlink:title="33">
<text text-anchor="middle" x="381.86" y="-18.22" font-family="Helvetica,sans-Serif" font-size="10.00" fill="#63b8ff">33</text>
</a>
</g>
</g>
<!-- dir_dbb8931b96cba5208d070c0efd4d64a4&#45;&gt;dir_e9168f3bfea397a173489332f8554c97 -->
<g id="edge13" class="edge">
<title>dir_dbb8931b96cba5208d070c0efd4d64a4&#45;&gt;dir_e9168f3bfea397a173489332f8554c97</title>
<g id="a_edge13"><a xlink:href="dir_000021_000051.html" target="_top">
<path fill="none" stroke="#63b8ff" d="M1115.26,-128.47C1118.48,-127.55 1121.82,-126.68 1125,-126 1252.73,-98.81 1499.65,-159.8 1412,-63 1390.11,-38.83 1170.65,-30.01 1081.93,-27.42"/>
<polygon fill="#63b8ff" stroke="#63b8ff" points="1081.87,-23.92 1071.78,-27.13 1081.68,-30.91 1081.87,-23.92"/>
</a>
</g>
<g id="a_edge13&#45;headlabel"><a xlink:href="dir_000021_000051.html" target="_top" xlink:title="31">
<text text-anchor="middle" x="1085.55" y="-18.68" font-family="Helvetica,sans-Serif" font-size="10.00" fill="#63b8ff">31</text>
</a>
</g>
</g>
<!-- dir_dbb8931b96cba5208d070c0efd4d64a4&#45;&gt;dir_e91b3eef7c0d8abdbe8ee43dc3688a49 -->
<g id="edge14" class="edge">
<title>dir_dbb8931b96cba5208d070c0efd4d64a4&#45;&gt;dir_e91b3eef7c0d8abdbe8ee43dc3688a49</title>
<g id="a_edge14"><a xlink:href="dir_000021_000007.html" target="_top">
<path fill="none" stroke="#63b8ff" d="M1078.85,-128.15C1075.92,-127.31 1072.9,-126.55 1070,-126 1015.07,-115.53 609.47,-127.52 568,-90 555.82,-78.98 553.99,-59.73 554.65,-45.3"/>
<polygon fill="#63b8ff" stroke="#63b8ff" points="558.16,-45.28 555.56,-35.02 551.19,-44.67 558.16,-45.28"/>
</a>
</g>
<g id="a_edge14&#45;headlabel"><a xlink:href="dir_000021_000007.html" target="_top" xlink:title="1">
<text text-anchor="middle" x="560.68" y="-46.61" font-family="Helvetica,sans-Serif" font-size="10.00" fill="#63b8ff">1</text>
</a>
</g>
</g>
<!-- dir_dbb8931b96cba5208d070c0efd4d64a4&#45;&gt;dir_b33158d99c61436f71711cd504567082 -->
<g id="edge11" class="edge">
<title>dir_dbb8931b96cba5208d070c0efd4d64a4&#45;&gt;dir_b33158d99c61436f71711cd504567082</title>
<g id="a_edge11"><a xlink:href="dir_000021_000056.html" target="_top">
<path fill="none" stroke="#63b8ff" d="M1078.85,-128.12C1075.92,-127.28 1072.9,-126.53 1070,-126 804.43,-77.19 729.37,-120.33 456.72,-89.91"/>
<polygon fill="#63b8ff" stroke="#63b8ff" points="456.86,-86.41 446.52,-88.75 456.06,-93.36 456.86,-86.41"/>
</a>
</g>
<g id="a_edge11&#45;headlabel"><a xlink:href="dir_000021_000056.html" target="_top" xlink:title="10">
<text text-anchor="middle" x="460.75" y="-81.49" font-family="Helvetica,sans-Serif" font-size="10.00" fill="#63b8ff">10</text>
</a>
</g>
</g>
<!-- dir_dbb8931b96cba5208d070c0efd4d64a4&#45;&gt;dir_31ef573988df7bf0ed14bf48414c6fd1 -->
<g id="edge9" class="edge">
<title>dir_dbb8931b96cba5208d070c0efd4d64a4&#45;&gt;dir_31ef573988df7bf0ed14bf48414c6fd1</title>
<g id="a_edge9"><a xlink:href="dir_000021_000030.html" target="_top">
<path fill="none" stroke="#63b8ff" d="M1078.84,-128.2C1075.91,-127.35 1072.89,-126.58 1070,-126 895.64,-91.25 845.35,-113.62 669.69,-90.72"/>
<polygon fill="#63b8ff" stroke="#63b8ff" points="669.97,-87.22 659.59,-89.37 669.04,-94.16 669.97,-87.22"/>
</a>
</g>
<g id="a_edge9&#45;headlabel"><a xlink:href="dir_000021_000030.html" target="_top" xlink:title="1">
<text text-anchor="middle" x="673.91" y="-82.38" font-family="Helvetica,sans-Serif" font-size="10.00" fill="#63b8ff">1</text>
</a>
</g>
</g>
<!-- dir_dbb8931b96cba5208d070c0efd4d64a4&#45;&gt;dir_36870694adceb415f28b3a8e8d793680 -->
<g id="edge10" class="edge">
<title>dir_dbb8931b96cba5208d070c0efd4d64a4&#45;&gt;dir_36870694adceb415f28b3a8e8d793680</title>
<g id="a_edge10"><a xlink:href="dir_000021_000031.html" target="_top">
<path fill="none" stroke="#63b8ff" d="M1078.85,-128.14C1075.92,-127.3 1072.9,-126.54 1070,-126 834.48,-81.71 769.45,-122.4 532,-90 530.7,-89.82 529.39,-89.63 528.06,-89.42"/>
<polygon fill="#63b8ff" stroke="#63b8ff" points="528.27,-85.9 517.81,-87.61 527.05,-92.8 528.27,-85.9"/>
</a>
</g>
<g id="a_edge10&#45;headlabel"><a xlink:href="dir_000021_000031.html" target="_top" xlink:title="1">
<text text-anchor="middle" x="532.31" y="-81.23" font-family="Helvetica,sans-Serif" font-size="10.00" fill="#63b8ff">1</text>
</a>
</g>
</g>
<!-- dir_dbb8931b96cba5208d070c0efd4d64a4&#45;&gt;dir_f00f788038d28a6de62e2305131ce6f9 -->
<g id="edge15" class="edge">
<title>dir_dbb8931b96cba5208d070c0efd4d64a4&#45;&gt;dir_f00f788038d28a6de62e2305131ce6f9</title>
<g id="a_edge15"><a xlink:href="dir_000021_000033.html" target="_top">
<path fill="none" stroke="#63b8ff" d="M1115.26,-128.46C1118.48,-127.53 1121.82,-126.67 1125,-126 1190.71,-112.19 1374.27,-133.99 1425,-90 1437.66,-79.03 1441.39,-59.76 1442.27,-45.32"/>
<polygon fill="#63b8ff" stroke="#63b8ff" points="1445.77,-45.1 1442.48,-35.03 1438.77,-44.95 1445.77,-45.1"/>
</a>
</g>
<g id="a_edge15&#45;headlabel"><a xlink:href="dir_000021_000033.html" target="_top" xlink:title="4">
<text text-anchor="middle" x="1448.54" y="-46.25" font-family="Helvetica,sans-Serif" font-size="10.00" fill="#63b8ff">4</text>
</a>
</g>
</g>
<!-- dir_dbb8931b96cba5208d070c0efd4d64a4&#45;&gt;dir_8850def71d7022841cb32c1b32cdfc07 -->
<g id="edge17" class="edge">
<title>dir_dbb8931b96cba5208d070c0efd4d64a4&#45;&gt;dir_8850def71d7022841cb32c1b32cdfc07</title>
<g id="a_edge17"><a xlink:href="dir_000021_000047.html" target="_top">
<path fill="none" stroke="#63b8ff" d="M1115.3,-128.65C1118.52,-127.71 1121.85,-126.79 1125,-126 1180.61,-112.15 1244.76,-99.91 1290.65,-91.79"/>
<polygon fill="#63b8ff" stroke="#63b8ff" points="1291.49,-95.2 1300.74,-90.02 1290.28,-88.3 1291.49,-95.2"/>
</a>
</g>
<g id="a_edge17&#45;headlabel"><a xlink:href="dir_000021_000047.html" target="_top" xlink:title="2">
<text text-anchor="middle" x="1288.44" y="-96.12" font-family="Helvetica,sans-Serif" font-size="10.00" fill="#63b8ff">2</text>
</a>
</g>
</g>
<!-- dir_dbb8931b96cba5208d070c0efd4d64a4&#45;&gt;dir_12791b19f0b305ea05c4a6bbc6348144 -->
<g id="edge16" class="edge">
<title>dir_dbb8931b96cba5208d070c0efd4d64a4&#45;&gt;dir_12791b19f0b305ea05c4a6bbc6348144</title>
<g id="a_edge16"><a xlink:href="dir_000021_000053.html" target="_top">
<path fill="none" stroke="#63b8ff" d="M1078.8,-128.39C1075.87,-127.52 1072.87,-126.68 1070,-126 977.75,-103.98 948.31,-116.47 857.87,-91.5"/>
<polygon fill="#63b8ff" stroke="#63b8ff" points="858.61,-88.07 848.04,-88.7 856.7,-94.8 858.61,-88.07"/>
</a>
</g>
<g id="a_edge16&#45;headlabel"><a xlink:href="dir_000021_000053.html" target="_top" xlink:title="3">
<text text-anchor="middle" x="862.84" y="-83.82" font-family="Helvetica,sans-Serif" font-size="10.00" fill="#63b8ff">3</text>
</a>
</g>
</g>
<!-- dir_23cb2692c7fb90fa53a3940ee5608351 -->
<g id="node15" class="node">
<title>dir_23cb2692c7fb90fa53a3940ee5608351</title>
<g id="a_node15"><a xlink:href="dir_23cb2692c7fb90fa53a3940ee5608351.html" target="_top" xlink:title="levelset">
<polygon fill="#a2b4d6" stroke="#404040" points="1285,-145 1229,-145 1229,-126 1285,-126 1285,-145"/>
<text text-anchor="middle" x="1257" y="-133" font-family="Helvetica,sans-Serif" font-size="10.00">levelset</text>
</a>
</g>
</g>
<!-- dir_23cb2692c7fb90fa53a3940ee5608351&#45;&gt;dir_f00f788038d28a6de62e2305131ce6f9 -->
<g id="edge19" class="edge">
<title>dir_23cb2692c7fb90fa53a3940ee5608351&#45;&gt;dir_f00f788038d28a6de62e2305131ce6f9</title>
<g id="a_edge19"><a xlink:href="dir_000025_000033.html" target="_top">
<path fill="none" stroke="#63b8ff" d="M1285.11,-131.45C1330.42,-125.91 1416.52,-112.63 1436,-90 1446.49,-77.81 1447.01,-59.03 1445.5,-45.04"/>
<polygon fill="#63b8ff" stroke="#63b8ff" points="1448.95,-44.45 1444,-35.08 1442.02,-45.49 1448.95,-44.45"/>
</a>
</g>
<g id="a_edge19&#45;headlabel"><a xlink:href="dir_000025_000033.html" target="_top" xlink:title="1">
<text text-anchor="middle" x="1452.29" y="-45.08" font-family="Helvetica,sans-Serif" font-size="10.00" fill="#63b8ff">1</text>
</a>
</g>
</g>
<!-- dir_c29e83733bb5f71ced1b88d3b6313f77 -->
<g id="node16" class="node">
<title>dir_c29e83733bb5f71ced1b88d3b6313f77</title>
<g id="a_node16"><a xlink:href="dir_c29e83733bb5f71ced1b88d3b6313f77.html" target="_top" xlink:title="passive_scalar">
<polygon fill="#a2b4d6" stroke="#404040" points="1010.5,-145 921.5,-145 921.5,-126 1010.5,-126 1010.5,-145"/>
<text text-anchor="middle" x="966" y="-133" font-family="Helvetica,sans-Serif" font-size="10.00">passive_scalar</text>
</a>
</g>
</g>
<!-- dir_ba17675b4e7620b2c09564a0494ae674 -->
<g id="node17" class="node">
<title>dir_ba17675b4e7620b2c09564a0494ae674</title>
<g id="a_node17"><a xlink:href="dir_ba17675b4e7620b2c09564a0494ae674.html" target="_top" xlink:title="sdr">
<polygon fill="#a2b4d6" stroke="#404040" points="708,-145 676,-145 676,-126 708,-126 708,-145"/>
<text text-anchor="middle" x="692" y="-133" font-family="Helvetica,sans-Serif" font-size="10.00">sdr</text>
</a>
</g>
</g>
<!-- dir_ba17675b4e7620b2c09564a0494ae674&#45;&gt;dir_5460936bc36635a4924df5fb6ccd4a9f -->
<g id="edge21" class="edge">
<title>dir_ba17675b4e7620b2c09564a0494ae674&#45;&gt;dir_5460936bc36635a4924df5fb6ccd4a9f</title>
<g id="a_edge21"><a xlink:href="dir_000038_000049.html" target="_top">
<path fill="none" stroke="#63b8ff" d="M675.65,-132.69C625.81,-127.12 471.35,-109.41 344,-90 342.73,-89.81 341.44,-89.61 340.14,-89.4"/>
<polygon fill="#63b8ff" stroke="#63b8ff" points="340.49,-85.91 330.06,-87.74 339.35,-92.82 340.49,-85.91"/>
</a>
</g>
<g id="a_edge21&#45;headlabel"><a xlink:href="dir_000038_000049.html" target="_top" xlink:title="1">
<text text-anchor="middle" x="344.5" y="-81.19" font-family="Helvetica,sans-Serif" font-size="10.00" fill="#63b8ff">1</text>
</a>
</g>
</g>
<!-- dir_ba17675b4e7620b2c09564a0494ae674&#45;&gt;dir_d2e4f22398959709992733f1617728ca -->
<g id="edge20" class="edge">
<title>dir_ba17675b4e7620b2c09564a0494ae674&#45;&gt;dir_d2e4f22398959709992733f1617728ca</title>
<g id="a_edge20"><a xlink:href="dir_000038_000010.html" target="_top">
<path fill="none" stroke="#63b8ff" d="M675.84,-134.7C578.47,-135.76 72.7,-138.86 27,-90 18.8,-81.24 19.01,-71.95 27,-63 46.33,-41.35 243.71,-30.89 319.55,-27.64"/>
<polygon fill="#63b8ff" stroke="#63b8ff" points="319.97,-31.13 329.82,-27.22 319.68,-24.13 319.97,-31.13"/>
</a>
</g>
<g id="a_edge20&#45;headlabel"><a xlink:href="dir_000038_000010.html" target="_top" xlink:title="6">
<text text-anchor="middle" x="316.5" y="-31.61" font-family="Helvetica,sans-Serif" font-size="10.00" fill="#63b8ff">6</text>
</a>
</g>
</g>
<!-- dir_febe03cc33b665122231bdd423ea5053 -->
<g id="node18" class="node">
<title>dir_febe03cc33b665122231bdd423ea5053</title>
<g id="a_node18"><a xlink:href="dir_febe03cc33b665122231bdd423ea5053.html" target="_top" xlink:title="temperature">
<polygon fill="#a2b4d6" stroke="#404040" points="1210.5,-145 1133.5,-145 1133.5,-126 1210.5,-126 1210.5,-145"/>
<text text-anchor="middle" x="1172" y="-133" font-family="Helvetica,sans-Serif" font-size="10.00">temperature</text>
</a>
</g>
</g>
<!-- dir_febe03cc33b665122231bdd423ea5053&#45;&gt;dir_d2e4f22398959709992733f1617728ca -->
<g id="edge24" class="edge">
<title>dir_febe03cc33b665122231bdd423ea5053&#45;&gt;dir_d2e4f22398959709992733f1617728ca</title>
<g id="a_edge24"><a xlink:href="dir_000045_000010.html" target="_top">
<path fill="none" stroke="#63b8ff" d="M1133.26,-127.43C1130.13,-126.92 1127.02,-126.44 1124,-126 983.68,-105.63 947.13,-111.63 807,-90 745.24,-80.47 730.76,-72.55 669,-63 562.32,-46.51 434.55,-34.13 378.17,-29.04"/>
<polygon fill="#63b8ff" stroke="#63b8ff" points="378.46,-25.55 368.19,-28.15 377.84,-32.53 378.46,-25.55"/>
</a>
</g>
<g id="a_edge24&#45;headlabel"><a xlink:href="dir_000045_000010.html" target="_top" xlink:title="14">
<text text-anchor="middle" x="382.29" y="-20.55" font-family="Helvetica,sans-Serif" font-size="10.00" fill="#63b8ff">14</text>
</a>
</g>
</g>
<!-- dir_febe03cc33b665122231bdd423ea5053&#45;&gt;dir_e9168f3bfea397a173489332f8554c97 -->
<g id="edge25" class="edge">
<title>dir_febe03cc33b665122231bdd423ea5053&#45;&gt;dir_e9168f3bfea397a173489332f8554c97</title>
<g id="a_edge25"><a xlink:href="dir_000045_000051.html" target="_top">
<path fill="none" stroke="#63b8ff" d="M1210.51,-127.68C1213.72,-127.11 1216.92,-126.54 1220,-126 1313.87,-109.45 1489.1,-133.55 1425,-63 1402.17,-37.87 1172.48,-29.59 1081.67,-27.28"/>
<polygon fill="#63b8ff" stroke="#63b8ff" points="1081.64,-23.78 1071.55,-27.03 1081.46,-30.78 1081.64,-23.78"/>
</a>
</g>
<g id="a_edge25&#45;headlabel"><a xlink:href="dir_000045_000051.html" target="_top" xlink:title="15">
<text text-anchor="middle" x="1085.3" y="-18.53" font-family="Helvetica,sans-Serif" font-size="10.00" fill="#63b8ff">15</text>
</a>
</g>
</g>
<!-- dir_febe03cc33b665122231bdd423ea5053&#45;&gt;dir_b33158d99c61436f71711cd504567082 -->
<g id="edge23" class="edge">
<title>dir_febe03cc33b665122231bdd423ea5053&#45;&gt;dir_b33158d99c61436f71711cd504567082</title>
<g id="a_edge23"><a xlink:href="dir_000045_000056.html" target="_top">
<path fill="none" stroke="#63b8ff" d="M1133.29,-127.23C1130.15,-126.77 1127.03,-126.35 1124,-126 831.95,-92.4 753.19,-122.77 456.71,-89.91"/>
<polygon fill="#63b8ff" stroke="#63b8ff" points="456.85,-86.41 446.52,-88.77 456.07,-93.36 456.85,-86.41"/>
</a>
</g>
<g id="a_edge23&#45;headlabel"><a xlink:href="dir_000045_000056.html" target="_top" xlink:title="5">
<text text-anchor="middle" x="460.74" y="-81.49" font-family="Helvetica,sans-Serif" font-size="10.00" fill="#63b8ff">5</text>
</a>
</g>
</g>
<!-- dir_febe03cc33b665122231bdd423ea5053&#45;&gt;dir_8850def71d7022841cb32c1b32cdfc07 -->
<g id="edge22" class="edge">
<title>dir_febe03cc33b665122231bdd423ea5053&#45;&gt;dir_8850def71d7022841cb32c1b32cdfc07</title>
<g id="a_edge22"><a xlink:href="dir_000045_000047.html" target="_top">
<path fill="none" stroke="#63b8ff" d="M1200.92,-125.98C1231.27,-117.05 1279.17,-102.94 1312.88,-93.02"/>
<polygon fill="#63b8ff" stroke="#63b8ff" points="1314.25,-96.26 1322.85,-90.08 1312.27,-89.55 1314.25,-96.26"/>
</a>
</g>
<g id="a_edge22&#45;headlabel"><a xlink:href="dir_000045_000047.html" target="_top" xlink:title="1">
<text text-anchor="middle" x="1311.6" y="-97.5" font-family="Helvetica,sans-Serif" font-size="10.00" fill="#63b8ff">1</text>
</a>
</g>
</g>
<!-- dir_0f40cd49204690f812aa76519ccf29dc -->
<g id="node19" class="node">
<title>dir_0f40cd49204690f812aa76519ccf29dc</title>
<g id="a_node19"><a xlink:href="dir_0f40cd49204690f812aa76519ccf29dc.html" target="_top" xlink:title="tke">
<polygon fill="#a2b4d6" stroke="#404040" points="1061,-145 1029,-145 1029,-126 1061,-126 1061,-145"/>
<text text-anchor="middle" x="1045" y="-133" font-family="Helvetica,sans-Serif" font-size="10.00">tke</text>
</a>
</g>
</g>
<!-- dir_0f40cd49204690f812aa76519ccf29dc&#45;&gt;dir_5460936bc36635a4924df5fb6ccd4a9f -->
<g id="edge26" class="edge">
<title>dir_0f40cd49204690f812aa76519ccf29dc&#45;&gt;dir_5460936bc36635a4924df5fb6ccd4a9f</title>
<g id="a_edge26"><a xlink:href="dir_000046_000049.html" target="_top">
<path fill="none" stroke="#63b8ff" d="M1028.77,-128.27C1025.88,-127.36 1022.88,-126.56 1020,-126 724.57,-69.04 642.91,-124.3 344,-90 342.72,-89.85 341.43,-89.69 340.12,-89.52"/>
<polygon fill="#63b8ff" stroke="#63b8ff" points="340.41,-86.03 330.01,-88.05 339.4,-92.96 340.41,-86.03"/>
</a>
</g>
<g id="a_edge26&#45;headlabel"><a xlink:href="dir_000046_000049.html" target="_top" xlink:title="3">
<text text-anchor="middle" x="344.38" y="-81.24" font-family="Helvetica,sans-Serif" font-size="10.00" fill="#63b8ff">3</text>
</a>
</g>
</g>
<!-- dir_0f40cd49204690f812aa76519ccf29dc&#45;&gt;dir_d2e4f22398959709992733f1617728ca -->
<g id="edge29" class="edge">
<title>dir_0f40cd49204690f812aa76519ccf29dc&#45;&gt;dir_d2e4f22398959709992733f1617728ca</title>
<g id="a_edge29"><a xlink:href="dir_000046_000010.html" target="_top">
<path fill="none" stroke="#63b8ff" d="M1028.77,-128.27C1025.88,-127.37 1022.88,-126.56 1020,-126 947.79,-112.03 413.59,-139.3 359,-90 346.84,-79.02 345.34,-59.76 346.27,-45.32"/>
<polygon fill="#63b8ff" stroke="#63b8ff" points="349.79,-45.34 347.38,-35.03 342.83,-44.59 349.79,-45.34"/>
</a>
</g>
<g id="a_edge29&#45;headlabel"><a xlink:href="dir_000046_000010.html" target="_top" xlink:title="6">
<text text-anchor="middle" x="352.22" y="-46.72" font-family="Helvetica,sans-Serif" font-size="10.00" fill="#63b8ff">6</text>
</a>
</g>
</g>
<!-- dir_0f40cd49204690f812aa76519ccf29dc&#45;&gt;dir_e9168f3bfea397a173489332f8554c97 -->
<g id="edge30" class="edge">
<title>dir_0f40cd49204690f812aa76519ccf29dc&#45;&gt;dir_e9168f3bfea397a173489332f8554c97</title>
<g id="a_edge30"><a xlink:href="dir_000046_000051.html" target="_top">
<path fill="none" stroke="#63b8ff" d="M1045,-125.66C1045,-108.17 1045,-68.8 1045,-45.27"/>
<polygon fill="#63b8ff" stroke="#63b8ff" points="1048.5,-45.16 1045,-35.16 1041.5,-45.16 1048.5,-45.16"/>
</a>
</g>
<g id="a_edge30&#45;headlabel"><a xlink:href="dir_000046_000051.html" target="_top" xlink:title="3">
<text text-anchor="middle" x="1051.34" y="-46.25" font-family="Helvetica,sans-Serif" font-size="10.00" fill="#63b8ff">3</text>
</a>
</g>
</g>
<!-- dir_0f40cd49204690f812aa76519ccf29dc&#45;&gt;dir_b33158d99c61436f71711cd504567082 -->
<g id="edge28" class="edge">
<title>dir_0f40cd49204690f812aa76519ccf29dc&#45;&gt;dir_b33158d99c61436f71711cd504567082</title>
<g id="a_edge28"><a xlink:href="dir_000046_000056.html" target="_top">
<path fill="none" stroke="#63b8ff" d="M1028.76,-128.29C1025.88,-127.39 1022.88,-126.57 1020,-126 776.87,-77.79 707.27,-118.41 456.67,-89.91"/>
<polygon fill="#63b8ff" stroke="#63b8ff" points="456.86,-86.41 446.53,-88.73 456.06,-93.37 456.86,-86.41"/>
</a>
</g>
<g id="a_edge28&#45;headlabel"><a xlink:href="dir_000046_000056.html" target="_top" xlink:title="1">
<text text-anchor="middle" x="460.76" y="-81.51" font-family="Helvetica,sans-Serif" font-size="10.00" fill="#63b8ff">1</text>
</a>
</g>
</g>
<!-- dir_0f40cd49204690f812aa76519ccf29dc&#45;&gt;dir_8850def71d7022841cb32c1b32cdfc07 -->
<g id="edge27" class="edge">
<title>dir_0f40cd49204690f812aa76519ccf29dc&#45;&gt;dir_8850def71d7022841cb32c1b32cdfc07</title>
<g id="a_edge27"><a xlink:href="dir_000046_000047.html" target="_top">
<path fill="none" stroke="#63b8ff" d="M1061.02,-128.6C1063.98,-127.64 1067.06,-126.73 1070,-126 1075.35,-124.68 1209.43,-103.71 1290.76,-91.03"/>
<polygon fill="#63b8ff" stroke="#63b8ff" points="1291.55,-94.45 1300.89,-89.45 1290.47,-87.53 1291.55,-94.45"/>
</a>
</g>
<g id="a_edge27&#45;headlabel"><a xlink:href="dir_000046_000047.html" target="_top" xlink:title="1">
<text text-anchor="middle" x="1288.43" y="-95.31" font-family="Helvetica,sans-Serif" font-size="10.00" fill="#63b8ff">1</text>
</a>
</g>
</g>
<!-- dir_12791b19f0b305ea05c4a6bbc6348144&#45;&gt;dir_d2e4f22398959709992733f1617728ca -->
<g id="edge31" class="edge">
<title>dir_12791b19f0b305ea05c4a6bbc6348144&#45;&gt;dir_d2e4f22398959709992733f1617728ca</title>
<g id="a_edge31"><a xlink:href="dir_000053_000010.html" target="_top">
<path fill="none" stroke="#63b8ff" d="M823.81,-70.81C820.45,-67.81 816.34,-64.75 812,-63 791.85,-54.85 477.05,-34.53 378.36,-28.33"/>
<polygon fill="#63b8ff" stroke="#63b8ff" points="378.4,-24.82 368.2,-27.69 377.96,-31.81 378.4,-24.82"/>
</a>
</g>
<g id="a_edge31&#45;headlabel"><a xlink:href="dir_000053_000010.html" target="_top" xlink:title="3">
<text text-anchor="middle" x="382.16" y="-19.71" font-family="Helvetica,sans-Serif" font-size="10.00" fill="#63b8ff">3</text>
</a>
</g>
</g>
<!-- dir_12791b19f0b305ea05c4a6bbc6348144&#45;&gt;dir_e9168f3bfea397a173489332f8554c97 -->
<g id="edge32" class="edge">
<title>dir_12791b19f0b305ea05c4a6bbc6348144&#45;&gt;dir_e9168f3bfea397a173489332f8554c97</title>
<g id="a_edge32"><a xlink:href="dir_000053_000051.html" target="_top">
<path fill="none" stroke="#63b8ff" d="M840.69,-70.71C843.98,-67.85 847.92,-64.91 852,-63 902.88,-39.15 968.22,-30.88 1008.33,-28.02"/>
<polygon fill="#63b8ff" stroke="#63b8ff" points="1008.69,-31.5 1018.44,-27.37 1008.24,-24.51 1008.69,-31.5"/>
</a>
</g>
<g id="a_edge32&#45;headlabel"><a xlink:href="dir_000053_000051.html" target="_top" xlink:title="1">
<text text-anchor="middle" x="1005.28" y="-32.06" font-family="Helvetica,sans-Serif" font-size="10.00" fill="#63b8ff">1</text>
</a>
</g>
</g>
<!-- dir_12791b19f0b305ea05c4a6bbc6348144&#45;&gt;dir_e91b3eef7c0d8abdbe8ee43dc3688a49 -->
<g id="edge33" class="edge">
<title>dir_12791b19f0b305ea05c4a6bbc6348144&#45;&gt;dir_e91b3eef7c0d8abdbe8ee43dc3688a49</title>
<g id="a_edge33"><a xlink:href="dir_000053_000007.html" target="_top">
<path fill="none" stroke="#63b8ff" d="M823.75,-70.96C820.39,-67.97 816.28,-64.89 812,-63 752.94,-36.91 679.39,-28.64 626.48,-26.39"/>
<polygon fill="#63b8ff" stroke="#63b8ff" points="626.3,-22.88 616.18,-26.01 626.05,-29.87 626.3,-22.88"/>
</a>
</g>
<g id="a_edge33&#45;headlabel"><a xlink:href="dir_000053_000007.html" target="_top" xlink:title="1">
<text text-anchor="middle" x="630" y="-17.67" font-family="Helvetica,sans-Serif" font-size="10.00" fill="#63b8ff">1</text>
</a>
</g>
</g>
<!-- dir_12791b19f0b305ea05c4a6bbc6348144&#45;&gt;dir_f00f788038d28a6de62e2305131ce6f9 -->
<g id="edge34" class="edge">
<title>dir_12791b19f0b305ea05c4a6bbc6348144&#45;&gt;dir_f00f788038d28a6de62e2305131ce6f9</title>
<g id="a_edge34"><a xlink:href="dir_000053_000033.html" target="_top">
<path fill="none" stroke="#63b8ff" d="M840.17,-70.77C843.53,-67.76 847.65,-64.72 852,-63 903.26,-42.78 1283.76,-30.8 1405,-27.46"/>
<polygon fill="#63b8ff" stroke="#63b8ff" points="1405.36,-30.95 1415.26,-27.18 1405.17,-23.96 1405.36,-30.95"/>
</a>
</g>
<g id="a_edge34&#45;headlabel"><a xlink:href="dir_000053_000033.html" target="_top" xlink:title="1">
<text text-anchor="middle" x="1401.84" y="-31.39" font-family="Helvetica,sans-Serif" font-size="10.00" fill="#63b8ff">1</text>
</a>
</g>
</g>
</g>
</svg>

<g id="navigator" transform="translate(0 0)" fill="#404254">
  <rect fill="#f2f5e9" fill-opacity="0.5" stroke="#606060" stroke-width=".5" x="0" y="0" width="60" height="60"/>
  <use id="zoomplus" xlink:href="#zoomPlus" x="17" y="9" onmousedown="handleZoom(evt,'in')"/>
  <use id="zoomminus" xlink:href="#zoomMin" x="42" y="9" onmousedown="handleZoom(evt,'out')"/>
  <use id="reset" xlink:href="#resetDef" x="30" y="36" onmousedown="handleReset()"/>
   <use id="arrowup" xlink:href="#arrowUp" x="0" y="0" onmousedown="handlePan(0,-1)"/>
  <use id="arrowright" xlink:href="#arrowRight" x="0" y="0" onmousedown="handlePan(1,0)"/>
  <use id="arrowdown" xlink:href="#arrowDown" x="0" y="0" onmousedown="handlePan(0,1)"/>
  <use id="arrowleft" xlink:href="#arrowLeft" x="0" y="0" onmousedown="handlePan(-1,0)"/>
</g>
<svg viewBox="0 0 15 15" width="100%" height="30px" preserveAspectRatio="xMaxYMin meet">
 <g id="arrow_out" transform="scale(0.3 0.3)">
  <a xlink:href="dir_25ba3af7252fba93a50e7ef611ff43dd_dep_org.svg" target="_base">
   <rect id="button" ry="5" rx="5" y="6" x="6" height="38" width="38"
        fill="#f2f5e9" fill-opacity="0.5" stroke="#606060" stroke-width="1.0"/>
   <path id="arrow"
     d="M 11.500037,31.436501 C 11.940474,20.09759 22.043105,11.32322 32.158766,21.979434 L 37.068811,17.246167 C 37.068811,17.246167 37.088388,32 37.088388,32 L 22.160133,31.978069 C 22.160133,31.978069 26.997745,27.140456 26.997745,27.140456 C 18.528582,18.264221 13.291696,25.230495 11.500037,31.436501 z"
     style="fill:#404040;"/>
  </a>
 </g>
</svg>

<style type='text/css'>
<![CDATA[
[data-mouse-over-selected='false'] { opacity: 0.7; }
[data-mouse-over-selected='true']  { opacity: 1.0; }
]]>
</style>
<script type="application/ecmascript"><![CDATA[
document.addEventListener('DOMContentLoaded', (event) => {
  highlightEdges();
  highlightAdjacentNodes();
});
]]></script>
</svg>
