<?xml version="1.0" encoding="UTF-8" standalone="no"?>
<!DOCTYPE svg PUBLIC "-//W3C//DTD SVG 1.1//EN"
 "http://www.w3.org/Graphics/SVG/1.1/DTD/svg11.dtd">
<!-- Generated by graphviz version 2.43.0 (0)
 -->
<!-- Title: /home/runner/work/amr&#45;wind/amr&#45;wind/amr&#45;wind/wind_energy/actuator/turbine/external/external_base_types.H Pages: 1 -->
<!--zoomable 588 -->

<svg id="main" version="1.1" xmlns="http://www.w3.org/2000/svg" xmlns:xlink="http://www.w3.org/1999/xlink" xml:space="preserve" onload="init(evt)">

<style type="text/css"><![CDATA[
.node, .edge {opacity: 0.7;}
.node.selected, .edge.selected {opacity: 1;}
.edge:hover path { stroke: red; }
.edge:hover polygon { stroke: red; fill: red; }
]]></style>

<defs>
  <circle id="rim" cx="0" cy="0" r="7"/>
  <circle id="rim2" cx="0" cy="0" r="3.5"/>
  <g id="zoomPlus">
    <use xlink:href="#rim" fill="#404040"><set attributeName="fill" to="#808080" begin="zoomplus.mouseover" end="zoomplus.mouseout"/></use>
    <path d="M-4,0h8M0,-4v8" fill="none" stroke="white" stroke-width="1.5" pointer-events="none"/>
  </g>
  <g id="zoomMin">
    <use xlink:href="#rim" fill="#404040"><set attributeName="fill" to="#808080" begin="zoomminus.mouseover" end="zoomminus.mouseout"/></use>
    <path d="M-4,0h8" fill="none" stroke="white" stroke-width="1.5" pointer-events="none"/>
  </g>
  <g id="arrowUp" transform="translate(30 24)">
    <use xlink:href="#rim"/>
    <path pointer-events="none" fill="none" stroke="white" stroke-width="1.5" d="M0,-3.0v7 M-2.5,-0.5L0,-3.0L2.5,-0.5"/>
  </g>
  <g id="arrowRight" transform="rotate(90) translate(36 -43)">
    <use xlink:href="#rim"/>
    <path pointer-events="none" fill="none" stroke="white" stroke-width="1.5" d="M0,-3.0v7 M-2.5,-0.5L0,-3.0L2.5,-0.5"/>
  </g>
  <g id="arrowDown" transform="rotate(180) translate(-30 -48)">
    <use xlink:href="#rim"/>
    <path pointer-events="none" fill="none" stroke="white" stroke-width="1.5" d="M0,-3.0v7 M-2.5,-0.5L0,-3.0L2.5,-0.5"/>
  </g>
  <g id="arrowLeft" transform="rotate(270) translate(-36 17)">
    <use xlink:href="#rim"/>
    <path pointer-events="none" fill="none" stroke="white" stroke-width="1.5" d="M0,-3.0v7 M-2.5,-0.5L0,-3.0L2.5,-0.5"/>
  </g>
  <g id="resetDef">
    <use xlink:href="#rim2" fill="#404040"><set attributeName="fill" to="#808080" begin="reset.mouseover" end="reset.mouseout"/></use>
  </g>
</defs>
<script type="application/ecmascript">
var viewWidth = 570;
var viewHeight = 588;
var sectionId = 'dynsection-1';
</script>
<script type="application/ecmascript" xlink:href="svg.min.js"/>
<svg id="graph" class="graph">
<g id="viewport">
<title>/home/runner/work/amr&#45;wind/amr&#45;wind/amr&#45;wind/wind_energy/actuator/turbine/external/external_base_types.H</title>
<!-- Node1 -->
<g id="Node000001" class="node">
<title>Node1</title>
<g id="a_Node000001"><a xlink:title=" ">
<polygon fill="#999999" stroke="#666666" points="369.7,-580 194.7,-580 194.7,-528 369.7,-528 369.7,-580"/>
<text text-anchor="start" x="202.7" y="-568" font-family="Helvetica,sans-Serif" font-size="10.00">/home/runner/work/amr</text>
<text text-anchor="start" x="202.7" y="-557" font-family="Helvetica,sans-Serif" font-size="10.00">&#45;wind/amr&#45;wind/amr&#45;wind</text>
<text text-anchor="start" x="202.7" y="-546" font-family="Helvetica,sans-Serif" font-size="10.00">/wind_energy/actuator/turbine</text>
<text text-anchor="middle" x="282.2" y="-535" font-family="Helvetica,sans-Serif" font-size="10.00">/external/external_base_types.H</text>
</a>
</g>
</g>
<!-- Node2 -->
<g id="Node000002" class="node">
<title>Node2</title>
<g id="a_Node000002"><a xlink:href="_ext_turb_iface_8_h.html" target="_top" xlink:title=" ">
<polygon fill="white" stroke="#666666" points="363.7,-492 200.7,-492 200.7,-440 363.7,-440 363.7,-492"/>
<text text-anchor="start" x="208.7" y="-480" font-family="Helvetica,sans-Serif" font-size="10.00">/home/runner/work/amr</text>
<text text-anchor="start" x="208.7" y="-469" font-family="Helvetica,sans-Serif" font-size="10.00">&#45;wind/amr&#45;wind/amr&#45;wind</text>
<text text-anchor="start" x="208.7" y="-458" font-family="Helvetica,sans-Serif" font-size="10.00">/wind_energy/actuator/turbine</text>
<text text-anchor="middle" x="282.2" y="-447" font-family="Helvetica,sans-Serif" font-size="10.00">/external/ExtTurbIface.H</text>
</a>
</g>
</g>
<!-- Node1&#45;&gt;Node2 -->
<g id="edge1_Node000001_Node000002" class="edge">
<title>Node1&#45;&gt;Node2</title>
<g id="a_edge1_Node000001_Node000002"><a xlink:title=" ">
<path fill="none" stroke="#63b8ff" d="M282.2,-517.56C282.2,-509.04 282.2,-500.1 282.2,-492.16"/>
<polygon fill="#63b8ff" stroke="#63b8ff" points="278.7,-517.66 282.2,-527.66 285.7,-517.66 278.7,-517.66"/>
</a>
</g>
</g>
<!-- Node14 -->
<g id="Node000014" class="node">
<title>Node14</title>
<g id="a_Node000014"><a xlink:href="fast__types_8_h.html" target="_top" xlink:title=" ">
<polygon fill="white" stroke="#666666" points="182.7,-492 19.7,-492 19.7,-440 182.7,-440 182.7,-492"/>
<text text-anchor="start" x="27.7" y="-480" font-family="Helvetica,sans-Serif" font-size="10.00">/home/runner/work/amr</text>
<text text-anchor="start" x="27.7" y="-469" font-family="Helvetica,sans-Serif" font-size="10.00">&#45;wind/amr&#45;wind/amr&#45;wind</text>
<text text-anchor="start" x="27.7" y="-458" font-family="Helvetica,sans-Serif" font-size="10.00">/wind_energy/actuator/turbine</text>
<text text-anchor="middle" x="101.2" y="-447" font-family="Helvetica,sans-Serif" font-size="10.00">/fast/fast_types.H</text>
</a>
</g>
</g>
<!-- Node1&#45;&gt;Node14 -->
<g id="edge17_Node000001_Node000014" class="edge">
<title>Node1&#45;&gt;Node14</title>
<g id="a_edge17_Node000001_Node000014"><a xlink:title=" ">
<path fill="none" stroke="#63b8ff" d="M220.3,-523.59C198.77,-513.36 174.84,-501.99 154.11,-492.14"/>
<polygon fill="#63b8ff" stroke="#63b8ff" points="218.83,-526.76 229.36,-527.89 221.83,-520.44 218.83,-526.76"/>
</a>
</g>
</g>
<!-- Node15 -->
<g id="Node000015" class="node">
<title>Node15</title>
<g id="a_Node000015"><a xlink:href="kynema__types_8_h.html" target="_top" xlink:title=" ">
<polygon fill="white" stroke="#666666" points="544.7,-492 381.7,-492 381.7,-440 544.7,-440 544.7,-492"/>
<text text-anchor="start" x="389.7" y="-480" font-family="Helvetica,sans-Serif" font-size="10.00">/home/runner/work/amr</text>
<text text-anchor="start" x="389.7" y="-469" font-family="Helvetica,sans-Serif" font-size="10.00">&#45;wind/amr&#45;wind/amr&#45;wind</text>
<text text-anchor="start" x="389.7" y="-458" font-family="Helvetica,sans-Serif" font-size="10.00">/wind_energy/actuator/turbine</text>
<text text-anchor="middle" x="463.2" y="-447" font-family="Helvetica,sans-Serif" font-size="10.00">/kynema/kynema_types.H</text>
</a>
</g>
</g>
<!-- Node1&#45;&gt;Node15 -->
<g id="edge20_Node000001_Node000015" class="edge">
<title>Node1&#45;&gt;Node15</title>
<g id="a_edge20_Node000001_Node000015"><a xlink:title=" ">
<path fill="none" stroke="#63b8ff" d="M344.11,-523.59C365.63,-513.36 389.57,-501.99 410.3,-492.14"/>
<polygon fill="#63b8ff" stroke="#63b8ff" points="342.57,-520.44 335.04,-527.89 345.58,-526.76 342.57,-520.44"/>
</a>
</g>
</g>
<!-- Node3 -->
<g id="Node000003" class="node">
<title>Node3</title>
<g id="a_Node000003"><a xlink:href="_turbine_external_8_h.html" target="_top" xlink:title=" ">
<polygon fill="white" stroke="#666666" points="363.7,-404 200.7,-404 200.7,-352 363.7,-352 363.7,-404"/>
<text text-anchor="start" x="208.7" y="-392" font-family="Helvetica,sans-Serif" font-size="10.00">/home/runner/work/amr</text>
<text text-anchor="start" x="208.7" y="-381" font-family="Helvetica,sans-Serif" font-size="10.00">&#45;wind/amr&#45;wind/amr&#45;wind</text>
<text text-anchor="start" x="208.7" y="-370" font-family="Helvetica,sans-Serif" font-size="10.00">/wind_energy/actuator/turbine</text>
<text text-anchor="middle" x="282.2" y="-359" font-family="Helvetica,sans-Serif" font-size="10.00">/external/TurbineExternal.H</text>
</a>
</g>
</g>
<!-- Node2&#45;&gt;Node3 -->
<g id="edge2_Node000002_Node000003" class="edge">
<title>Node2&#45;&gt;Node3</title>
<g id="a_edge2_Node000002_Node000003"><a xlink:title=" ">
<path fill="none" stroke="#63b8ff" d="M282.2,-429.56C282.2,-421.04 282.2,-412.1 282.2,-404.16"/>
<polygon fill="#63b8ff" stroke="#63b8ff" points="278.7,-429.66 282.2,-439.66 285.7,-429.66 278.7,-429.66"/>
</a>
</g>
</g>
<!-- Node12 -->
<g id="Node000012" class="node">
<title>Node12</title>
<g id="a_Node000012"><a xlink:href="_fast_iface_8cpp.html" target="_top" xlink:title=" ">
<polygon fill="white" stroke="#666666" points="182.7,-404 19.7,-404 19.7,-352 182.7,-352 182.7,-404"/>
<text text-anchor="start" x="27.7" y="-392" font-family="Helvetica,sans-Serif" font-size="10.00">/home/runner/work/amr</text>
<text text-anchor="start" x="27.7" y="-381" font-family="Helvetica,sans-Serif" font-size="10.00">&#45;wind/amr&#45;wind/amr&#45;wind</text>
<text text-anchor="start" x="27.7" y="-370" font-family="Helvetica,sans-Serif" font-size="10.00">/wind_energy/actuator/turbine</text>
<text text-anchor="middle" x="101.2" y="-359" font-family="Helvetica,sans-Serif" font-size="10.00">/fast/FastIface.cpp</text>
</a>
</g>
</g>
<!-- Node2&#45;&gt;Node12 -->
<g id="edge15_Node000002_Node000012" class="edge">
<title>Node2&#45;&gt;Node12</title>
<g id="a_edge15_Node000002_Node000012"><a xlink:title=" ">
<path fill="none" stroke="#63b8ff" d="M220.3,-435.59C198.77,-425.36 174.84,-413.99 154.11,-404.14"/>
<polygon fill="#63b8ff" stroke="#63b8ff" points="218.83,-438.76 229.36,-439.89 221.83,-432.44 218.83,-438.76"/>
</a>
</g>
</g>
<!-- Node13 -->
<g id="Node000013" class="node">
<title>Node13</title>
<g id="a_Node000013"><a xlink:href="_kynema_iface_8cpp.html" target="_top" xlink:title=" ">
<polygon fill="white" stroke="#666666" points="544.7,-404 381.7,-404 381.7,-352 544.7,-352 544.7,-404"/>
<text text-anchor="start" x="389.7" y="-392" font-family="Helvetica,sans-Serif" font-size="10.00">/home/runner/work/amr</text>
<text text-anchor="start" x="389.7" y="-381" font-family="Helvetica,sans-Serif" font-size="10.00">&#45;wind/amr&#45;wind/amr&#45;wind</text>
<text text-anchor="start" x="389.7" y="-370" font-family="Helvetica,sans-Serif" font-size="10.00">/wind_energy/actuator/turbine</text>
<text text-anchor="middle" x="463.2" y="-359" font-family="Helvetica,sans-Serif" font-size="10.00">/kynema/KynemaIface.cpp</text>
</a>
</g>
</g>
<!-- Node2&#45;&gt;Node13 -->
<g id="edge16_Node000002_Node000013" class="edge">
<title>Node2&#45;&gt;Node13</title>
<g id="a_edge16_Node000002_Node000013"><a xlink:title=" ">
<path fill="none" stroke="#63b8ff" d="M344.11,-435.59C365.63,-425.36 389.57,-413.99 410.3,-404.14"/>
<polygon fill="#63b8ff" stroke="#63b8ff" points="342.57,-432.44 335.04,-439.89 345.58,-438.76 342.57,-432.44"/>
</a>
</g>
</g>
<!-- Node4 -->
<g id="Node000004" class="node">
<title>Node4</title>
<g id="a_Node000004"><a xlink:href="turbine__external__utils_8_h.html" target="_top" xlink:title=" ">
<polygon fill="white" stroke="#666666" points="372.2,-316 192.2,-316 192.2,-264 372.2,-264 372.2,-316"/>
<text text-anchor="start" x="200.2" y="-304" font-family="Helvetica,sans-Serif" font-size="10.00">/home/runner/work/amr</text>
<text text-anchor="start" x="200.2" y="-293" font-family="Helvetica,sans-Serif" font-size="10.00">&#45;wind/amr&#45;wind/amr&#45;wind</text>
<text text-anchor="start" x="200.2" y="-282" font-family="Helvetica,sans-Serif" font-size="10.00">/wind_energy/actuator/turbine</text>
<text text-anchor="middle" x="282.2" y="-271" font-family="Helvetica,sans-Serif" font-size="10.00">/external/turbine_external_utils.H</text>
</a>
</g>
</g>
<!-- Node3&#45;&gt;Node4 -->
<g id="edge3_Node000003_Node000004" class="edge">
<title>Node3&#45;&gt;Node4</title>
<g id="a_edge3_Node000003_Node000004"><a xlink:title=" ">
<path fill="none" stroke="#63b8ff" d="M282.2,-341.56C282.2,-333.04 282.2,-324.1 282.2,-316.16"/>
<polygon fill="#63b8ff" stroke="#63b8ff" points="278.7,-341.66 282.2,-351.66 285.7,-341.66 278.7,-341.66"/>
</a>
</g>
</g>
<!-- Node10 -->
<g id="Node000010" class="node">
<title>Node10</title>
<g id="a_Node000010"><a xlink:href="_turbine_fast_8_h.html" target="_top" xlink:title=" ">
<polygon fill="white" stroke="#666666" points="170.7,-228 7.7,-228 7.7,-176 170.7,-176 170.7,-228"/>
<text text-anchor="start" x="15.7" y="-216" font-family="Helvetica,sans-Serif" font-size="10.00">/home/runner/work/amr</text>
<text text-anchor="start" x="15.7" y="-205" font-family="Helvetica,sans-Serif" font-size="10.00">&#45;wind/amr&#45;wind/amr&#45;wind</text>
<text text-anchor="start" x="15.7" y="-194" font-family="Helvetica,sans-Serif" font-size="10.00">/wind_energy/actuator/turbine</text>
<text text-anchor="middle" x="89.2" y="-183" font-family="Helvetica,sans-Serif" font-size="10.00">/fast/TurbineFast.H</text>
</a>
</g>
</g>
<!-- Node3&#45;&gt;Node10 -->
<g id="edge9_Node000003_Node000010" class="edge">
<title>Node3&#45;&gt;Node10</title>
<g id="a_edge9_Node000003_Node000010"><a xlink:title=" ">
<path fill="none" stroke="#63b8ff" d="M225.78,-346.59C211.24,-337.62 196.08,-327.17 183.2,-316 152.75,-289.58 124.08,-252.73 106.59,-228.38"/>
<polygon fill="#63b8ff" stroke="#63b8ff" points="224.34,-349.82 234.72,-351.98 227.96,-343.82 224.34,-349.82"/>
</a>
</g>
</g>
<!-- Node11 -->
<g id="Node000011" class="node">
<title>Node11</title>
<g id="a_Node000011"><a xlink:href="_turbine_kynema_8_h.html" target="_top" xlink:title=" ">
<polygon fill="white" stroke="#666666" points="561.7,-316 398.7,-316 398.7,-264 561.7,-264 561.7,-316"/>
<text text-anchor="start" x="406.7" y="-304" font-family="Helvetica,sans-Serif" font-size="10.00">/home/runner/work/amr</text>
<text text-anchor="start" x="406.7" y="-293" font-family="Helvetica,sans-Serif" font-size="10.00">&#45;wind/amr&#45;wind/amr&#45;wind</text>
<text text-anchor="start" x="406.7" y="-282" font-family="Helvetica,sans-Serif" font-size="10.00">/wind_energy/actuator/turbine</text>
<text text-anchor="middle" x="480.2" y="-271" font-family="Helvetica,sans-Serif" font-size="10.00">/kynema/TurbineKynema.H</text>
</a>
</g>
</g>
<!-- Node3&#45;&gt;Node11 -->
<g id="edge12_Node000003_Node000011" class="edge">
<title>Node3&#45;&gt;Node11</title>
<g id="a_edge12_Node000003_Node000011"><a xlink:title=" ">
<path fill="none" stroke="#63b8ff" d="M349.29,-347.86C373,-337.56 399.45,-326.08 422.33,-316.14"/>
<polygon fill="#63b8ff" stroke="#63b8ff" points="347.78,-344.7 340.01,-351.89 350.57,-351.12 347.78,-344.7"/>
</a>
</g>
</g>
<!-- Node5 -->
<g id="Node000005" class="node">
<title>Node5</title>
<g id="a_Node000005"><a xlink:href="turbine__external__ops_8_h.html" target="_top" xlink:title=" ">
<polygon fill="white" stroke="#666666" points="370.2,-228 194.2,-228 194.2,-176 370.2,-176 370.2,-228"/>
<text text-anchor="start" x="202.2" y="-216" font-family="Helvetica,sans-Serif" font-size="10.00">/home/runner/work/amr</text>
<text text-anchor="start" x="202.2" y="-205" font-family="Helvetica,sans-Serif" font-size="10.00">&#45;wind/amr&#45;wind/amr&#45;wind</text>
<text text-anchor="start" x="202.2" y="-194" font-family="Helvetica,sans-Serif" font-size="10.00">/wind_energy/actuator/turbine</text>
<text text-anchor="middle" x="282.2" y="-183" font-family="Helvetica,sans-Serif" font-size="10.00">/external/turbine_external_ops.H</text>
</a>
</g>
</g>
<!-- Node4&#45;&gt;Node5 -->
<g id="edge4_Node000004_Node000005" class="edge">
<title>Node4&#45;&gt;Node5</title>
<g id="a_edge4_Node000004_Node000005"><a xlink:title=" ">
<path fill="none" stroke="#63b8ff" d="M282.2,-253.56C282.2,-245.04 282.2,-236.1 282.2,-228.16"/>
<polygon fill="#63b8ff" stroke="#63b8ff" points="278.7,-253.66 282.2,-263.66 285.7,-253.66 278.7,-253.66"/>
</a>
</g>
</g>
<!-- Node6 -->
<g id="Node000006" class="node">
<title>Node6</title>
<g id="a_Node000006"><a xlink:href="turbine__fast__ops_8_h.html" target="_top" xlink:title=" ">
<polygon fill="white" stroke="#666666" points="264.7,-140 101.7,-140 101.7,-88 264.7,-88 264.7,-140"/>
<text text-anchor="start" x="109.7" y="-128" font-family="Helvetica,sans-Serif" font-size="10.00">/home/runner/work/amr</text>
<text text-anchor="start" x="109.7" y="-117" font-family="Helvetica,sans-Serif" font-size="10.00">&#45;wind/amr&#45;wind/amr&#45;wind</text>
<text text-anchor="start" x="109.7" y="-106" font-family="Helvetica,sans-Serif" font-size="10.00">/wind_energy/actuator/turbine</text>
<text text-anchor="middle" x="183.2" y="-95" font-family="Helvetica,sans-Serif" font-size="10.00">/fast/turbine_fast_ops.H</text>
</a>
</g>
</g>
<!-- Node5&#45;&gt;Node6 -->
<g id="edge5_Node000005_Node000006" class="edge">
<title>Node5&#45;&gt;Node6</title>
<g id="a_edge5_Node000005_Node000006"><a xlink:title=" ">
<path fill="none" stroke="#63b8ff" d="M245.52,-169.13C234.56,-159.62 222.71,-149.32 212.31,-140.29"/>
<polygon fill="#63b8ff" stroke="#63b8ff" points="243.46,-171.98 253.3,-175.89 248.05,-166.69 243.46,-171.98"/>
</a>
</g>
</g>
<!-- Node8 -->
<g id="Node000008" class="node">
<title>Node8</title>
<g id="a_Node000008"><a xlink:href="turbine__kynema__ops_8_h.html" target="_top" xlink:title=" ">
<polygon fill="white" stroke="#666666" points="455.7,-140 282.7,-140 282.7,-88 455.7,-88 455.7,-140"/>
<text text-anchor="start" x="290.7" y="-128" font-family="Helvetica,sans-Serif" font-size="10.00">/home/runner/work/amr</text>
<text text-anchor="start" x="290.7" y="-117" font-family="Helvetica,sans-Serif" font-size="10.00">&#45;wind/amr&#45;wind/amr&#45;wind</text>
<text text-anchor="start" x="290.7" y="-106" font-family="Helvetica,sans-Serif" font-size="10.00">/wind_energy/actuator/turbine</text>
<text text-anchor="middle" x="369.2" y="-95" font-family="Helvetica,sans-Serif" font-size="10.00">/kynema/turbine_kynema_ops.H</text>
</a>
</g>
</g>
<!-- Node5&#45;&gt;Node8 -->
<g id="edge7_Node000005_Node000008" class="edge">
<title>Node5&#45;&gt;Node8</title>
<g id="a_edge7_Node000005_Node000008"><a xlink:title=" ">
<path fill="none" stroke="#63b8ff" d="M314.95,-168.63C324.48,-159.21 334.74,-149.06 343.75,-140.16"/>
<polygon fill="#63b8ff" stroke="#63b8ff" points="312.49,-166.14 307.84,-175.66 317.41,-171.12 312.49,-166.14"/>
</a>
</g>
</g>
<!-- Node7 -->
<g id="Node000007" class="node">
<title>Node7</title>
<g id="a_Node000007"><a xlink:href="_turbine_fast_8cpp.html" target="_top" xlink:title=" ">
<polygon fill="white" stroke="#666666" points="209.7,-52 46.7,-52 46.7,0 209.7,0 209.7,-52"/>
<text text-anchor="start" x="54.7" y="-40" font-family="Helvetica,sans-Serif" font-size="10.00">/home/runner/work/amr</text>
<text text-anchor="start" x="54.7" y="-29" font-family="Helvetica,sans-Serif" font-size="10.00">&#45;wind/amr&#45;wind/amr&#45;wind</text>
<text text-anchor="start" x="54.7" y="-18" font-family="Helvetica,sans-Serif" font-size="10.00">/wind_energy/actuator/turbine</text>
<text text-anchor="middle" x="128.2" y="-7" font-family="Helvetica,sans-Serif" font-size="10.00">/fast/TurbineFast.cpp</text>
</a>
</g>
</g>
<!-- Node6&#45;&gt;Node7 -->
<g id="edge6_Node000006_Node000007" class="edge">
<title>Node6&#45;&gt;Node7</title>
<g id="a_edge6_Node000006_Node000007"><a xlink:title=" ">
<path fill="none" stroke="#63b8ff" d="M161.44,-78.96C155.72,-70.02 149.65,-60.54 144.29,-52.16"/>
<polygon fill="#63b8ff" stroke="#63b8ff" points="158.66,-81.12 167,-87.66 164.56,-77.35 158.66,-81.12"/>
</a>
</g>
</g>
<!-- Node9 -->
<g id="Node000009" class="node">
<title>Node9</title>
<g id="a_Node000009"><a xlink:href="_turbine_kynema_8cpp.html" target="_top" xlink:title=" ">
<polygon fill="white" stroke="#666666" points="507.7,-52 344.7,-52 344.7,0 507.7,0 507.7,-52"/>
<text text-anchor="start" x="352.7" y="-40" font-family="Helvetica,sans-Serif" font-size="10.00">/home/runner/work/amr</text>
<text text-anchor="start" x="352.7" y="-29" font-family="Helvetica,sans-Serif" font-size="10.00">&#45;wind/amr&#45;wind/amr&#45;wind</text>
<text text-anchor="start" x="352.7" y="-18" font-family="Helvetica,sans-Serif" font-size="10.00">/wind_energy/actuator/turbine</text>
<text text-anchor="middle" x="426.2" y="-7" font-family="Helvetica,sans-Serif" font-size="10.00">/kynema/TurbineKynema.cpp</text>
</a>
</g>
</g>
<!-- Node8&#45;&gt;Node9 -->
<g id="edge8_Node000008_Node000009" class="edge">
<title>Node8&#45;&gt;Node9</title>
<g id="a_edge8_Node000008_Node000009"><a xlink:title=" ">
<path fill="none" stroke="#63b8ff" d="M391.58,-79.24C397.56,-70.22 403.92,-60.63 409.53,-52.16"/>
<polygon fill="#63b8ff" stroke="#63b8ff" points="388.6,-77.39 386,-87.66 394.44,-81.26 388.6,-77.39"/>
</a>
</g>
</g>
<!-- Node10&#45;&gt;Node6 -->
<g id="edge11_Node000010_Node000006" class="edge">
<title>Node10&#45;&gt;Node6</title>
<g id="a_edge11_Node000010_Node000006"><a xlink:title=" ">
<path fill="none" stroke="#63b8ff" d="M124.04,-169.13C134.44,-159.62 145.69,-149.32 155.57,-140.29"/>
<polygon fill="#63b8ff" stroke="#63b8ff" points="121.66,-166.56 116.65,-175.89 126.39,-171.73 121.66,-166.56"/>
</a>
</g>
</g>
<!-- Node10&#45;&gt;Node7 -->
<g id="edge10_Node000010_Node000007" class="edge">
<title>Node10&#45;&gt;Node7</title>
<g id="a_edge10_Node000010_Node000007"><a xlink:title=" ">
<path fill="none" stroke="#63b8ff" d="M85.64,-165.59C84.46,-142.97 84.95,-113.24 92.2,-88 95.84,-75.35 102.72,-62.62 109.51,-52.09"/>
<polygon fill="#63b8ff" stroke="#63b8ff" points="82.16,-166.01 86.31,-175.76 89.15,-165.56 82.16,-166.01"/>
</a>
</g>
</g>
<!-- Node11&#45;&gt;Node8 -->
<g id="edge14_Node000011_Node000008" class="edge">
<title>Node11&#45;&gt;Node8</title>
<g id="a_edge14_Node000011_Node000008"><a xlink:title=" ">
<path fill="none" stroke="#63b8ff" d="M458.57,-255.09C437.03,-221.33 404.48,-170.3 385.18,-140.05"/>
<polygon fill="#63b8ff" stroke="#63b8ff" points="455.73,-257.15 464.06,-263.7 461.64,-253.39 455.73,-257.15"/>
</a>
</g>
</g>
<!-- Node11&#45;&gt;Node9 -->
<g id="edge13_Node000011_Node000009" class="edge">
<title>Node11&#45;&gt;Node9</title>
<g id="a_edge13_Node000011_Node000009"><a xlink:title=" ">
<path fill="none" stroke="#63b8ff" d="M482.7,-253.76C484.44,-212.81 483.78,-143.73 465.2,-88 460.99,-75.36 453.58,-62.73 446.34,-52.27"/>
<polygon fill="#63b8ff" stroke="#63b8ff" points="479.2,-253.63 482.2,-263.79 486.19,-253.98 479.2,-253.63"/>
</a>
</g>
</g>
<!-- Node14&#45;&gt;Node10 -->
<g id="edge19_Node000014_Node000010" class="edge">
<title>Node14&#45;&gt;Node10</title>
<g id="a_edge19_Node000014_Node000010"><a xlink:title=" ">
<path fill="none" stroke="#63b8ff" d="M36.88,-433.83C26.15,-425.67 16.48,-415.77 10.2,-404 -22.01,-343.63 31.86,-267.18 65.44,-228.26"/>
<polygon fill="#63b8ff" stroke="#63b8ff" points="35.06,-436.84 45.25,-439.75 39.1,-431.12 35.06,-436.84"/>
</a>
</g>
</g>
<!-- Node14&#45;&gt;Node12 -->
<g id="edge18_Node000014_Node000012" class="edge">
<title>Node14&#45;&gt;Node12</title>
<g id="a_edge18_Node000014_Node000012"><a xlink:title=" ">
<path fill="none" stroke="#63b8ff" d="M101.2,-429.56C101.2,-421.04 101.2,-412.1 101.2,-404.16"/>
<polygon fill="#63b8ff" stroke="#63b8ff" points="97.7,-429.66 101.2,-439.66 104.7,-429.66 97.7,-429.66"/>
</a>
</g>
</g>
<!-- Node15&#45;&gt;Node11 -->
<g id="edge22_Node000015_Node000011" class="edge">
<title>Node15&#45;&gt;Node11</title>
<g id="a_edge22_Node000015_Node000011"><a xlink:title=" ">
<path fill="none" stroke="#63b8ff" d="M527.53,-433.83C538.26,-425.67 547.93,-415.77 554.2,-404 565.08,-383.61 564.06,-372.9 554.2,-352 547.46,-337.69 535.53,-325.61 523.19,-316.06"/>
<polygon fill="#63b8ff" stroke="#63b8ff" points="525.31,-431.12 519.16,-439.75 529.35,-436.84 525.31,-431.12"/>
</a>
</g>
</g>
<!-- Node15&#45;&gt;Node13 -->
<g id="edge21_Node000015_Node000013" class="edge">
<title>Node15&#45;&gt;Node13</title>
<g id="a_edge21_Node000015_Node000013"><a xlink:title=" ">
<path fill="none" stroke="#63b8ff" d="M463.2,-429.56C463.2,-421.04 463.2,-412.1 463.2,-404.16"/>
<polygon fill="#63b8ff" stroke="#63b8ff" points="459.7,-429.66 463.2,-439.66 466.7,-429.66 459.7,-429.66"/>
</a>
</g>
</g>
</g>
</svg>

<g id="navigator" transform="translate(0 0)" fill="#404254">
  <rect fill="#f2f5e9" fill-opacity="0.5" stroke="#606060" stroke-width=".5" x="0" y="0" width="60" height="60"/>
  <use id="zoomplus" xlink:href="#zoomPlus" x="17" y="9" onmousedown="handleZoom(evt,'in')"/>
  <use id="zoomminus" xlink:href="#zoomMin" x="42" y="9" onmousedown="handleZoom(evt,'out')"/>
  <use id="reset" xlink:href="#resetDef" x="30" y="36" onmousedown="handleReset()"/>
   <use id="arrowup" xlink:href="#arrowUp" x="0" y="0" onmousedown="handlePan(0,-1)"/>
  <use id="arrowright" xlink:href="#arrowRight" x="0" y="0" onmousedown="handlePan(1,0)"/>
  <use id="arrowdown" xlink:href="#arrowDown" x="0" y="0" onmousedown="handlePan(0,1)"/>
  <use id="arrowleft" xlink:href="#arrowLeft" x="0" y="0" onmousedown="handlePan(-1,0)"/>
</g>
<svg viewBox="0 0 15 15" width="100%" height="30px" preserveAspectRatio="xMaxYMin meet">
 <g id="arrow_out" transform="scale(0.3 0.3)">
  <a xlink:href="external__base__types_8_h__dep__incl_org.svg" target="_base">
   <rect id="button" ry="5" rx="5" y="6" x="6" height="38" width="38"
        fill="#f2f5e9" fill-opacity="0.5" stroke="#606060" stroke-width="1.0"/>
   <path id="arrow"
     d="M 11.500037,31.436501 C 11.940474,20.09759 22.043105,11.32322 32.158766,21.979434 L 37.068811,17.246167 C 37.068811,17.246167 37.088388,32 37.088388,32 L 22.160133,31.978069 C 22.160133,31.978069 26.997745,27.140456 26.997745,27.140456 C 18.528582,18.264221 13.291696,25.230495 11.500037,31.436501 z"
     style="fill:#404040;"/>
  </a>
 </g>
</svg>

<style type='text/css'>
<![CDATA[
[data-mouse-over-selected='false'] { opacity: 0.7; }
[data-mouse-over-selected='true']  { opacity: 1.0; }
]]>
</style>
<script type="application/ecmascript"><![CDATA[
document.addEventListener('DOMContentLoaded', (event) => {
  highlightEdges();
  highlightAdjacentNodes();
});
]]></script>
</svg>
