<?xml version="1.0" encoding="UTF-8" standalone="no"?>
<!DOCTYPE svg PUBLIC "-//W3C//DTD SVG 1.1//EN"
 "http://www.w3.org/Graphics/SVG/1.1/DTD/svg11.dtd">
<!-- Generated by graphviz version 2.43.0 (0)
 -->
<!-- Title: /home/runner/work/amr&#45;wind/amr&#45;wind/amr&#45;wind/wind_energy/actuator/turbine/fast/fast_types.H Pages: 1 -->
<svg width="407pt" height="324pt"
 viewBox="0.00 0.00 407.00 324.00" xmlns="http://www.w3.org/2000/svg" xmlns:xlink="http://www.w3.org/1999/xlink">
<g id="graph0" class="graph" transform="scale(1 1) rotate(0) translate(4 320)">
<title>/home/runner/work/amr&#45;wind/amr&#45;wind/amr&#45;wind/wind_energy/actuator/turbine/fast/fast_types.H</title>
<!-- Node1 -->
<g id="Node000001" class="node">
<title>Node1</title>
<g id="a_Node000001"><a xlink:title=" ">
<polygon fill="#999999" stroke="#666666" points="253,-316 90,-316 90,-264 253,-264 253,-316"/>
<text text-anchor="start" x="98" y="-304" font-family="Helvetica,sans-Serif" font-size="10.00">/home/runner/work/amr</text>
<text text-anchor="start" x="98" y="-293" font-family="Helvetica,sans-Serif" font-size="10.00">&#45;wind/amr&#45;wind/amr&#45;wind</text>
<text text-anchor="start" x="98" y="-282" font-family="Helvetica,sans-Serif" font-size="10.00">/wind_energy/actuator/turbine</text>
<text text-anchor="middle" x="171.5" y="-271" font-family="Helvetica,sans-Serif" font-size="10.00">/fast/fast_types.H</text>
</a>
</g>
</g>
<!-- Node2 -->
<g id="Node000002" class="node">
<title>Node2</title>
<g id="a_Node000002"><a xlink:href="_fast_iface_8cpp.html" target="_top" xlink:title=" ">
<polygon fill="white" stroke="#666666" points="163,-228 0,-228 0,-176 163,-176 163,-228"/>
<text text-anchor="start" x="8" y="-216" font-family="Helvetica,sans-Serif" font-size="10.00">/home/runner/work/amr</text>
<text text-anchor="start" x="8" y="-205" font-family="Helvetica,sans-Serif" font-size="10.00">&#45;wind/amr&#45;wind/amr&#45;wind</text>
<text text-anchor="start" x="8" y="-194" font-family="Helvetica,sans-Serif" font-size="10.00">/wind_energy/actuator/turbine</text>
<text text-anchor="middle" x="81.5" y="-183" font-family="Helvetica,sans-Serif" font-size="10.00">/fast/FastIface.cpp</text>
</a>
</g>
</g>
<!-- Node1&#45;&gt;Node2 -->
<g id="edge1_Node000001_Node000002" class="edge">
<title>Node1&#45;&gt;Node2</title>
<g id="a_edge1_Node000001_Node000002"><a xlink:title=" ">
<path fill="none" stroke="#63b8ff" d="M137.63,-256.63C127.77,-247.21 117.15,-237.06 107.83,-228.16"/>
<polygon fill="#63b8ff" stroke="#63b8ff" points="135.34,-259.28 144.98,-263.66 140.17,-254.22 135.34,-259.28"/>
</a>
</g>
</g>
<!-- Node3 -->
<g id="Node000003" class="node">
<title>Node3</title>
<g id="a_Node000003"><a xlink:href="_turbine_fast_8_h.html" target="_top" xlink:title=" ">
<polygon fill="white" stroke="#666666" points="344,-228 181,-228 181,-176 344,-176 344,-228"/>
<text text-anchor="start" x="189" y="-216" font-family="Helvetica,sans-Serif" font-size="10.00">/home/runner/work/amr</text>
<text text-anchor="start" x="189" y="-205" font-family="Helvetica,sans-Serif" font-size="10.00">&#45;wind/amr&#45;wind/amr&#45;wind</text>
<text text-anchor="start" x="189" y="-194" font-family="Helvetica,sans-Serif" font-size="10.00">/wind_energy/actuator/turbine</text>
<text text-anchor="middle" x="262.5" y="-183" font-family="Helvetica,sans-Serif" font-size="10.00">/fast/TurbineFast.H</text>
</a>
</g>
</g>
<!-- Node1&#45;&gt;Node3 -->
<g id="edge2_Node000001_Node000003" class="edge">
<title>Node1&#45;&gt;Node3</title>
<g id="a_edge2_Node000001_Node000003"><a xlink:title=" ">
<path fill="none" stroke="#63b8ff" d="M205.75,-256.63C215.72,-247.21 226.46,-237.06 235.88,-228.16"/>
<polygon fill="#63b8ff" stroke="#63b8ff" points="203.17,-254.25 198.31,-263.66 207.98,-259.34 203.17,-254.25"/>
</a>
</g>
</g>
<!-- Node4 -->
<g id="Node000004" class="node">
<title>Node4</title>
<g id="a_Node000004"><a xlink:href="_turbine_fast_8cpp.html" target="_top" xlink:title=" ">
<polygon fill="white" stroke="#666666" points="344,-52 181,-52 181,0 344,0 344,-52"/>
<text text-anchor="start" x="189" y="-40" font-family="Helvetica,sans-Serif" font-size="10.00">/home/runner/work/amr</text>
<text text-anchor="start" x="189" y="-29" font-family="Helvetica,sans-Serif" font-size="10.00">&#45;wind/amr&#45;wind/amr&#45;wind</text>
<text text-anchor="start" x="189" y="-18" font-family="Helvetica,sans-Serif" font-size="10.00">/wind_energy/actuator/turbine</text>
<text text-anchor="middle" x="262.5" y="-7" font-family="Helvetica,sans-Serif" font-size="10.00">/fast/TurbineFast.cpp</text>
</a>
</g>
</g>
<!-- Node3&#45;&gt;Node4 -->
<g id="edge3_Node000003_Node000004" class="edge">
<title>Node3&#45;&gt;Node4</title>
<g id="a_edge3_Node000003_Node000004"><a xlink:title=" ">
<path fill="none" stroke="#63b8ff" d="M238.42,-167.42C233.51,-158.87 229.07,-149.42 226.5,-140 220.41,-117.71 220.41,-110.29 226.5,-88 229.97,-75.31 236.82,-62.57 243.63,-52.04"/>
<polygon fill="#63b8ff" stroke="#63b8ff" points="235.43,-169.25 243.63,-175.96 241.41,-165.6 235.43,-169.25"/>
</a>
</g>
</g>
<!-- Node5 -->
<g id="Node000005" class="node">
<title>Node5</title>
<g id="a_Node000005"><a xlink:href="turbine__fast__ops_8_h.html" target="_top" xlink:title=" ">
<polygon fill="white" stroke="#666666" points="399,-140 236,-140 236,-88 399,-88 399,-140"/>
<text text-anchor="start" x="244" y="-128" font-family="Helvetica,sans-Serif" font-size="10.00">/home/runner/work/amr</text>
<text text-anchor="start" x="244" y="-117" font-family="Helvetica,sans-Serif" font-size="10.00">&#45;wind/amr&#45;wind/amr&#45;wind</text>
<text text-anchor="start" x="244" y="-106" font-family="Helvetica,sans-Serif" font-size="10.00">/wind_energy/actuator/turbine</text>
<text text-anchor="middle" x="317.5" y="-95" font-family="Helvetica,sans-Serif" font-size="10.00">/fast/turbine_fast_ops.H</text>
</a>
</g>
</g>
<!-- Node3&#45;&gt;Node5 -->
<g id="edge4_Node000003_Node000005" class="edge">
<title>Node3&#45;&gt;Node5</title>
<g id="a_edge4_Node000003_Node000005"><a xlink:title=" ">
<path fill="none" stroke="#63b8ff" d="M284.27,-166.96C289.99,-158.02 296.05,-148.54 301.41,-140.16"/>
<polygon fill="#63b8ff" stroke="#63b8ff" points="281.14,-165.35 278.7,-175.66 287.04,-169.12 281.14,-165.35"/>
</a>
</g>
</g>
<!-- Node5&#45;&gt;Node4 -->
<g id="edge5_Node000005_Node000004" class="edge">
<title>Node5&#45;&gt;Node4</title>
<g id="a_edge5_Node000005_Node000004"><a xlink:title=" ">
<path fill="none" stroke="#63b8ff" d="M295.73,-78.96C290.01,-70.02 283.95,-60.54 278.59,-52.16"/>
<polygon fill="#63b8ff" stroke="#63b8ff" points="292.96,-81.12 301.3,-87.66 298.86,-77.35 292.96,-81.12"/>
</a>
</g>
</g>
</g>
</svg>
