<?xml version="1.0" encoding="UTF-8" standalone="no"?>
<!DOCTYPE svg PUBLIC "-//W3C//DTD SVG 1.1//EN"
 "http://www.w3.org/Graphics/SVG/1.1/DTD/svg11.dtd">
<!-- Generated by graphviz version 2.43.0 (0)
 -->
<!-- Title: /home/runner/work/amr&#45;wind/amr&#45;wind/amr&#45;wind/wind_energy/actuator/turbine/fast/fast_types.H Pages: 1 -->
<svg width="355pt" height="192pt"
 viewBox="0.00 0.00 355.00 192.00" xmlns="http://www.w3.org/2000/svg" xmlns:xlink="http://www.w3.org/1999/xlink">

<svg id="main" version="1.1" xmlns="http://www.w3.org/2000/svg" xmlns:xlink="http://www.w3.org/1999/xlink" xml:space="preserve">

<style type="text/css"><![CDATA[
.node, .edge {opacity: 0.7;}
.node.selected, .edge.selected {opacity: 1;}
.edge:hover path { stroke: red; }
.edge:hover polygon { stroke: red; fill: red; }
]]></style>
<script type="application/ecmascript" xlink:href="svg.min.js"/>
<svg id="graph" class="graph">
<g id="graph0" class="graph" transform="scale(1 1) rotate(0) translate(4 188)">
<title>/home/runner/work/amr&#45;wind/amr&#45;wind/amr&#45;wind/wind_energy/actuator/turbine/fast/fast_types.H</title>
<!-- Node1 -->
<g id="Node000001" class="node">
<title>Node1</title>
<g id="a_Node000001"><a xlink:title=" ">
<polygon fill="#999999" stroke="#666666" points="286.5,-184 123.5,-184 123.5,-132 286.5,-132 286.5,-184"/>
<text text-anchor="start" x="131.5" y="-172" font-family="Helvetica,sans-Serif" font-size="10.00">/home/runner/work/amr</text>
<text text-anchor="start" x="131.5" y="-161" font-family="Helvetica,sans-Serif" font-size="10.00">&#45;wind/amr&#45;wind/amr&#45;wind</text>
<text text-anchor="start" x="131.5" y="-150" font-family="Helvetica,sans-Serif" font-size="10.00">/wind_energy/actuator/turbine</text>
<text text-anchor="middle" x="205" y="-139" font-family="Helvetica,sans-Serif" font-size="10.00">/fast/fast_types.H</text>
</a>
</g>
</g>
<!-- Node2 -->
<g id="Node000002" class="node">
<title>Node2</title>
<g id="a_Node000002"><a xlink:href="fast__wrapper_8_h.html" target="_top" xlink:title=" ">
<polygon fill="white" stroke="#666666" points="128,-96 0,-96 0,-55 128,-55 128,-96"/>
<text text-anchor="start" x="8" y="-84" font-family="Helvetica,sans-Serif" font-size="10.00">amr&#45;wind/wind_energy</text>
<text text-anchor="start" x="8" y="-73" font-family="Helvetica,sans-Serif" font-size="10.00">/actuator/turbine/fast</text>
<text text-anchor="middle" x="64" y="-62" font-family="Helvetica,sans-Serif" font-size="10.00">/fast_wrapper.H</text>
</a>
</g>
</g>
<!-- Node1&#45;&gt;Node2 -->
<g id="edge1_Node000001_Node000002" class="edge">
<title>Node1&#45;&gt;Node2</title>
<g id="a_edge1_Node000001_Node000002"><a xlink:title=" ">
<path fill="none" stroke="#63b8ff" d="M161.16,-131.97C143.95,-122.14 124.25,-110.9 107.11,-101.11"/>
<polygon fill="#63b8ff" stroke="#63b8ff" points="108.83,-98.06 98.41,-96.15 105.36,-104.14 108.83,-98.06"/>
</a>
</g>
</g>
<!-- Node3 -->
<g id="Node000003" class="node">
<title>Node3</title>
<g id="a_Node000003"><a xlink:href="external__base__types_8_h.html" target="_top" xlink:title=" ">
<polygon fill="white" stroke="#666666" points="325.5,-96 184.5,-96 184.5,-55 325.5,-55 325.5,-96"/>
<text text-anchor="start" x="192.5" y="-84" font-family="Helvetica,sans-Serif" font-size="10.00">amr&#45;wind/wind_energy</text>
<text text-anchor="start" x="192.5" y="-73" font-family="Helvetica,sans-Serif" font-size="10.00">/actuator/turbine/external</text>
<text text-anchor="middle" x="255" y="-62" font-family="Helvetica,sans-Serif" font-size="10.00">/external_base_types.H</text>
</a>
</g>
</g>
<!-- Node1&#45;&gt;Node3 -->
<g id="edge2_Node000001_Node000003" class="edge">
<title>Node1&#45;&gt;Node3</title>
<g id="a_edge2_Node000001_Node000003"><a xlink:title=" ">
<path fill="none" stroke="#63b8ff" d="M220.55,-131.97C225.92,-123.32 231.98,-113.56 237.5,-104.67"/>
<polygon fill="#63b8ff" stroke="#63b8ff" points="240.49,-106.49 242.8,-96.15 234.55,-102.79 240.49,-106.49"/>
</a>
</g>
</g>
<!-- Node4 -->
<g id="Node000004" class="node">
<title>Node4</title>
<g id="a_Node000004"><a xlink:title=" ">
<polygon fill="#e0e0e0" stroke="#999999" points="231,-19 187,-19 187,0 231,0 231,-19"/>
<text text-anchor="middle" x="209" y="-7" font-family="Helvetica,sans-Serif" font-size="10.00">string</text>
</a>
</g>
</g>
<!-- Node1&#45;&gt;Node4 -->
<g id="edge5_Node000001_Node000004" class="edge">
<title>Node1&#45;&gt;Node4</title>
<g id="a_edge5_Node000001_Node000004"><a xlink:title=" ">
<path fill="none" stroke="#63b8ff" d="M188.81,-131.67C177.64,-110.93 166.25,-80.88 175,-55 178.56,-44.47 185.72,-34.48 192.55,-26.63"/>
<polygon fill="#63b8ff" stroke="#63b8ff" points="195.13,-29.01 199.39,-19.31 190.01,-24.23 195.13,-29.01"/>
</a>
</g>
</g>
<!-- Node5 -->
<g id="Node000005" class="node">
<title>Node5</title>
<g id="a_Node000005"><a xlink:title=" ">
<polygon fill="#e0e0e0" stroke="#999999" points="347,-19 255,-19 255,0 347,0 347,-19"/>
<text text-anchor="middle" x="301" y="-7" font-family="Helvetica,sans-Serif" font-size="10.00">AMReX_REAL.H</text>
</a>
</g>
</g>
<!-- Node1&#45;&gt;Node5 -->
<g id="edge6_Node000001_Node000005" class="edge">
<title>Node1&#45;&gt;Node5</title>
<g id="a_edge6_Node000001_Node000005"><a xlink:title=" ">
<path fill="none" stroke="#63b8ff" d="M286.65,-135.49C305.7,-126.47 323.7,-113.78 335,-96 344.77,-80.62 340.84,-72.26 335,-55 331.44,-44.47 324.28,-34.48 317.45,-26.63"/>
<polygon fill="#63b8ff" stroke="#63b8ff" points="319.99,-24.23 310.61,-19.31 314.87,-29.01 319.99,-24.23"/>
</a>
</g>
</g>
<!-- Node3&#45;&gt;Node4 -->
<g id="edge3_Node000003_Node000004" class="edge">
<title>Node3&#45;&gt;Node4</title>
<g id="a_edge3_Node000003_Node000004"><a xlink:title=" ">
<path fill="none" stroke="#63b8ff" d="M240.95,-54.95C234.66,-46.2 227.32,-35.99 221.26,-27.56"/>
<polygon fill="#63b8ff" stroke="#63b8ff" points="223.98,-25.34 215.3,-19.26 218.29,-29.42 223.98,-25.34"/>
</a>
</g>
</g>
<!-- Node3&#45;&gt;Node5 -->
<g id="edge4_Node000003_Node000005" class="edge">
<title>Node3&#45;&gt;Node5</title>
<g id="a_edge4_Node000003_Node000005"><a xlink:title=" ">
<path fill="none" stroke="#63b8ff" d="M269.05,-54.95C275.34,-46.2 282.68,-35.99 288.74,-27.56"/>
<polygon fill="#63b8ff" stroke="#63b8ff" points="291.71,-29.42 294.7,-19.26 286.02,-25.34 291.71,-29.42"/>
</a>
</g>
</g>
</g>
</svg>
</svg>

<style type='text/css'>
<![CDATA[
[data-mouse-over-selected='false'] { opacity: 0.7; }
[data-mouse-over-selected='true']  { opacity: 1.0; }
]]>
</style>
<script type="application/ecmascript"><![CDATA[
document.addEventListener('DOMContentLoaded', (event) => {
  highlightEdges();
  highlightAdjacentNodes();
});
]]></script>
</svg>
