<?xml version="1.0" encoding="UTF-8" standalone="no"?>
<!DOCTYPE svg PUBLIC "-//W3C//DTD SVG 1.1//EN"
 "http://www.w3.org/Graphics/SVG/1.1/DTD/svg11.dtd">
<!-- Generated by graphviz version 2.43.0 (0)
 -->
<!-- Title: /home/runner/work/amr&#45;wind/amr&#45;wind/amr&#45;wind/core/field_ops.H Pages: 1 -->
<svg width="979pt" height="214pt"
 viewBox="0.00 0.00 978.50 214.00" xmlns="http://www.w3.org/2000/svg" xmlns:xlink="http://www.w3.org/1999/xlink">
<g id="graph0" class="graph" transform="scale(1 1) rotate(0) translate(4 210)">
<title>/home/runner/work/amr&#45;wind/amr&#45;wind/amr&#45;wind/core/field_ops.H</title>
<!-- Node1 -->
<g id="Node000001" class="node">
<title>Node1</title>
<g id="a_Node000001"><a xlink:title=" ">
<polygon fill="#999999" stroke="#666666" points="281,-206 138,-206 138,-165 281,-165 281,-206"/>
<text text-anchor="start" x="146" y="-194" font-family="Helvetica,sans-Serif" font-size="10.00">/home/runner/work/amr</text>
<text text-anchor="start" x="146" y="-183" font-family="Helvetica,sans-Serif" font-size="10.00">&#45;wind/amr&#45;wind/amr&#45;wind</text>
<text text-anchor="middle" x="209.5" y="-172" font-family="Helvetica,sans-Serif" font-size="10.00">/core/field_ops.H</text>
</a>
</g>
</g>
<!-- Node2 -->
<g id="Node000002" class="node">
<title>Node2</title>
<g id="a_Node000002"><a xlink:href="_field_8_h.html" target="_top" xlink:title=" ">
<polygon fill="white" stroke="#666666" points="464.5,-129 340.5,-129 340.5,-110 464.5,-110 464.5,-129"/>
<text text-anchor="middle" x="402.5" y="-117" font-family="Helvetica,sans-Serif" font-size="10.00">amr&#45;wind/core/Field.H</text>
</a>
</g>
</g>
<!-- Node1&#45;&gt;Node2 -->
<g id="edge1_Node000001_Node000002" class="edge">
<title>Node1&#45;&gt;Node2</title>
<g id="a_edge1_Node000001_Node000002"><a xlink:title=" ">
<path fill="none" stroke="#63b8ff" d="M268.46,-164.95C300.74,-154.24 339.67,-141.34 367.23,-132.19"/>
<polygon fill="#63b8ff" stroke="#63b8ff" points="368.45,-135.48 376.84,-129.01 366.25,-128.83 368.45,-135.48"/>
</a>
</g>
</g>
<!-- Node7 -->
<g id="Node000007" class="node">
<title>Node7</title>
<g id="a_Node000007"><a xlink:title=" ">
<polygon fill="#e0e0e0" stroke="#999999" points="109,-19 0,-19 0,0 109,0 109,-19"/>
<text text-anchor="middle" x="54.5" y="-7" font-family="Helvetica,sans-Serif" font-size="10.00">AMReX_MultiFab.H</text>
</a>
</g>
</g>
<!-- Node1&#45;&gt;Node7 -->
<g id="edge16_Node000001_Node000007" class="edge">
<title>Node1&#45;&gt;Node7</title>
<g id="a_edge16_Node000001_Node000007"><a xlink:title=" ">
<path fill="none" stroke="#63b8ff" d="M163.77,-164.97C127.96,-146.99 80.5,-116.64 57.5,-74 50.21,-60.48 49.96,-42.88 51.25,-29.64"/>
<polygon fill="#63b8ff" stroke="#63b8ff" points="54.77,-29.72 52.64,-19.34 47.83,-28.78 54.77,-29.72"/>
</a>
</g>
</g>
<!-- Node3 -->
<g id="Node000003" class="node">
<title>Node3</title>
<g id="a_Node000003"><a xlink:title=" ">
<polygon fill="#e0e0e0" stroke="#999999" points="970.5,-19 926.5,-19 926.5,0 970.5,0 970.5,-19"/>
<text text-anchor="middle" x="948.5" y="-7" font-family="Helvetica,sans-Serif" font-size="10.00">string</text>
</a>
</g>
</g>
<!-- Node2&#45;&gt;Node3 -->
<g id="edge2_Node000002_Node000003" class="edge">
<title>Node2&#45;&gt;Node3</title>
<g id="a_edge2_Node000002_Node000003"><a xlink:title=" ">
<path fill="none" stroke="#63b8ff" d="M464.69,-116.07C591.34,-110.67 870.38,-96.39 907.5,-74 924.32,-63.86 935.49,-43.87 941.86,-29.01"/>
<polygon fill="#63b8ff" stroke="#63b8ff" points="945.27,-29.91 945.67,-19.32 938.75,-27.35 945.27,-29.91"/>
</a>
</g>
</g>
<!-- Node4 -->
<g id="Node000004" class="node">
<title>Node4</title>
<g id="a_Node000004"><a xlink:title=" ">
<polygon fill="#e0e0e0" stroke="#999999" points="140.5,-74 82.5,-74 82.5,-55 140.5,-55 140.5,-74"/>
<text text-anchor="middle" x="111.5" y="-62" font-family="Helvetica,sans-Serif" font-size="10.00">memory</text>
</a>
</g>
</g>
<!-- Node2&#45;&gt;Node4 -->
<g id="edge3_Node000002_Node000004" class="edge">
<title>Node2&#45;&gt;Node4</title>
<g id="a_edge3_Node000002_Node000004"><a xlink:title=" ">
<path fill="none" stroke="#63b8ff" d="M350.04,-110C300.98,-101.88 225.44,-88.97 150.59,-74.14"/>
<polygon fill="#63b8ff" stroke="#63b8ff" points="151.01,-70.66 140.52,-72.13 149.64,-77.52 151.01,-70.66"/>
</a>
</g>
</g>
<!-- Node5 -->
<g id="Node000005" class="node">
<title>Node5</title>
<g id="a_Node000005"><a xlink:title=" ">
<polygon fill="#e0e0e0" stroke="#999999" points="252,-74 159,-74 159,-55 252,-55 252,-74"/>
<text text-anchor="middle" x="205.5" y="-62" font-family="Helvetica,sans-Serif" font-size="10.00">unordered_map</text>
</a>
</g>
</g>
<!-- Node2&#45;&gt;Node5 -->
<g id="edge4_Node000002_Node000005" class="edge">
<title>Node2&#45;&gt;Node5</title>
<g id="a_edge4_Node000002_Node000005"><a xlink:title=" ">
<path fill="none" stroke="#63b8ff" d="M370.85,-109.98C337.34,-100.97 284.3,-86.7 247.36,-76.76"/>
<polygon fill="#63b8ff" stroke="#63b8ff" points="247.97,-73.3 237.4,-74.08 246.15,-80.06 247.97,-73.3"/>
</a>
</g>
</g>
<!-- Node6 -->
<g id="Node000006" class="node">
<title>Node6</title>
<g id="a_Node000006"><a xlink:title=" ">
<polygon fill="#e0e0e0" stroke="#999999" points="334.5,-74 270.5,-74 270.5,-55 334.5,-55 334.5,-74"/>
<text text-anchor="middle" x="302.5" y="-62" font-family="Helvetica,sans-Serif" font-size="10.00">algorithm</text>
</a>
</g>
</g>
<!-- Node2&#45;&gt;Node6 -->
<g id="edge5_Node000002_Node000006" class="edge">
<title>Node2&#45;&gt;Node6</title>
<g id="a_edge5_Node000002_Node000006"><a xlink:title=" ">
<path fill="none" stroke="#63b8ff" d="M386.43,-109.98C370.64,-101.61 346.28,-88.7 327.87,-78.95"/>
<polygon fill="#63b8ff" stroke="#63b8ff" points="329.33,-75.76 318.86,-74.17 326.06,-81.95 329.33,-75.76"/>
</a>
</g>
</g>
<!-- Node2&#45;&gt;Node7 -->
<g id="edge6_Node000002_Node000007" class="edge">
<title>Node2&#45;&gt;Node7</title>
<g id="a_edge6_Node000002_Node000007"><a xlink:title=" ">
<path fill="none" stroke="#63b8ff" d="M340.34,-117.91C256.32,-115.82 112.49,-107.33 73.5,-74 60.66,-63.03 56.3,-43.76 54.91,-29.32"/>
<polygon fill="#63b8ff" stroke="#63b8ff" points="58.39,-28.82 54.34,-19.03 51.4,-29.21 58.39,-28.82"/>
</a>
</g>
</g>
<!-- Node8 -->
<g id="Node000008" class="node">
<title>Node8</title>
<g id="a_Node000008"><a xlink:title=" ">
<polygon fill="#e0e0e0" stroke="#999999" points="452,-74 353,-74 353,-55 452,-55 452,-74"/>
<text text-anchor="middle" x="402.5" y="-62" font-family="Helvetica,sans-Serif" font-size="10.00">AMReX_BCRec.H</text>
</a>
</g>
</g>
<!-- Node2&#45;&gt;Node8 -->
<g id="edge7_Node000002_Node000008" class="edge">
<title>Node2&#45;&gt;Node8</title>
<g id="a_edge7_Node000002_Node000008"><a xlink:title=" ">
<path fill="none" stroke="#63b8ff" d="M402.5,-109.75C402.5,-102.8 402.5,-92.85 402.5,-84.13"/>
<polygon fill="#63b8ff" stroke="#63b8ff" points="406,-84.09 402.5,-74.09 399,-84.09 406,-84.09"/>
</a>
</g>
</g>
<!-- Node9 -->
<g id="Node000009" class="node">
<title>Node9</title>
<g id="a_Node000009"><a xlink:title=" ">
<polygon fill="#e0e0e0" stroke="#999999" points="557,-74 470,-74 470,-55 557,-55 557,-74"/>
<text text-anchor="middle" x="513.5" y="-62" font-family="Helvetica,sans-Serif" font-size="10.00">AMReX_Gpu.H</text>
</a>
</g>
</g>
<!-- Node2&#45;&gt;Node9 -->
<g id="edge8_Node000002_Node000009" class="edge">
<title>Node2&#45;&gt;Node9</title>
<g id="a_edge8_Node000002_Node000009"><a xlink:title=" ">
<path fill="none" stroke="#63b8ff" d="M420.33,-109.98C438.11,-101.5 465.65,-88.35 486.18,-78.54"/>
<polygon fill="#63b8ff" stroke="#63b8ff" points="487.83,-81.64 495.34,-74.17 484.81,-75.32 487.83,-81.64"/>
</a>
</g>
</g>
<!-- Node10 -->
<g id="Node000010" class="node">
<title>Node10</title>
<g id="a_Node000010"><a xlink:href="incflo__enums_8_h.html" target="_top" xlink:title=" ">
<polygon fill="white" stroke="#666666" points="716,-74 575,-74 575,-55 716,-55 716,-74"/>
<text text-anchor="middle" x="645.5" y="-62" font-family="Helvetica,sans-Serif" font-size="10.00">amr&#45;wind/incflo_enums.H</text>
</a>
</g>
</g>
<!-- Node2&#45;&gt;Node10 -->
<g id="edge9_Node000002_Node000010" class="edge">
<title>Node2&#45;&gt;Node10</title>
<g id="a_edge9_Node000002_Node000010"><a xlink:title=" ">
<path fill="none" stroke="#63b8ff" d="M441.54,-109.98C483.58,-100.82 550.54,-86.21 596.18,-76.26"/>
<polygon fill="#63b8ff" stroke="#63b8ff" points="597.13,-79.63 606.15,-74.08 595.64,-72.79 597.13,-79.63"/>
</a>
</g>
</g>
<!-- Node11 -->
<g id="Node000011" class="node">
<title>Node11</title>
<g id="a_Node000011"><a xlink:href="_field_desc_types_8_h.html" target="_top" xlink:title=" ">
<polygon fill="white" stroke="#666666" points="908.5,-19 732.5,-19 732.5,0 908.5,0 908.5,-19"/>
<text text-anchor="middle" x="820.5" y="-7" font-family="Helvetica,sans-Serif" font-size="10.00">amr&#45;wind/core/FieldDescTypes.H</text>
</a>
</g>
</g>
<!-- Node2&#45;&gt;Node11 -->
<g id="edge10_Node000002_Node000011" class="edge">
<title>Node2&#45;&gt;Node11</title>
<g id="a_edge10_Node000002_Node000011"><a xlink:title=" ">
<path fill="none" stroke="#63b8ff" d="M464.89,-117.42C590.27,-114.59 863.26,-104.92 891.5,-74 908.88,-54.97 878.78,-35.57 852.57,-23.31"/>
<polygon fill="#63b8ff" stroke="#63b8ff" points="853.75,-20 843.19,-19.13 850.9,-26.4 853.75,-20"/>
</a>
</g>
</g>
<!-- Node12 -->
<g id="Node000012" class="node">
<title>Node12</title>
<g id="a_Node000012"><a xlink:href="_view_field_8_h.html" target="_top" xlink:title=" ">
<polygon fill="white" stroke="#666666" points="882.5,-74 734.5,-74 734.5,-55 882.5,-55 882.5,-74"/>
<text text-anchor="middle" x="808.5" y="-62" font-family="Helvetica,sans-Serif" font-size="10.00">amr&#45;wind/core/ViewField.H</text>
</a>
</g>
</g>
<!-- Node2&#45;&gt;Node12 -->
<g id="edge11_Node000002_Node000012" class="edge">
<title>Node2&#45;&gt;Node12</title>
<g id="a_edge11_Node000002_Node000012"><a xlink:title=" ">
<path fill="none" stroke="#63b8ff" d="M464.6,-110.39C536.78,-100.97 655.84,-85.43 733.22,-75.33"/>
<polygon fill="#63b8ff" stroke="#63b8ff" points="733.91,-78.77 743.38,-74 733.01,-71.83 733.91,-78.77"/>
</a>
</g>
</g>
<!-- Node12&#45;&gt;Node3 -->
<g id="edge12_Node000012_Node000003" class="edge">
<title>Node12&#45;&gt;Node3</title>
<g id="a_edge12_Node000012_Node000003"><a xlink:title=" ">
<path fill="none" stroke="#63b8ff" d="M830.99,-54.98C854.16,-46.21 890.47,-32.47 916.6,-22.58"/>
<polygon fill="#63b8ff" stroke="#63b8ff" points="917.95,-25.81 926.06,-18.99 915.47,-19.26 917.95,-25.81"/>
</a>
</g>
</g>
<!-- Node12&#45;&gt;Node7 -->
<g id="edge14_Node000012_Node000007" class="edge">
<title>Node12&#45;&gt;Node7</title>
<g id="a_edge14_Node000012_Node000007"><a xlink:title=" ">
<path fill="none" stroke="#63b8ff" d="M734.3,-55.77C731.33,-55.5 728.39,-55.24 725.5,-55 503.37,-36.27 239.33,-20.72 119.46,-14.03"/>
<polygon fill="#63b8ff" stroke="#63b8ff" points="119.52,-10.53 109.35,-13.47 119.14,-17.52 119.52,-10.53"/>
</a>
</g>
</g>
<!-- Node12&#45;&gt;Node11 -->
<g id="edge13_Node000012_Node000011" class="edge">
<title>Node12&#45;&gt;Node11</title>
<g id="a_edge13_Node000012_Node000011"><a xlink:title=" ">
<path fill="none" stroke="#63b8ff" d="M810.48,-54.75C812.07,-47.72 814.36,-37.62 816.35,-28.84"/>
<polygon fill="#63b8ff" stroke="#63b8ff" points="819.76,-29.62 818.56,-19.09 812.93,-28.07 819.76,-29.62"/>
</a>
</g>
</g>
<!-- Node13 -->
<g id="Node000013" class="node">
<title>Node13</title>
<g id="a_Node000013"><a xlink:title=" ">
<polygon fill="#e0e0e0" stroke="#999999" points="714.5,-19 616.5,-19 616.5,0 714.5,0 714.5,-19"/>
<text text-anchor="middle" x="665.5" y="-7" font-family="Helvetica,sans-Serif" font-size="10.00">AMReX_Vector.H</text>
</a>
</g>
</g>
<!-- Node12&#45;&gt;Node13 -->
<g id="edge15_Node000012_Node000013" class="edge">
<title>Node12&#45;&gt;Node13</title>
<g id="a_edge15_Node000012_Node000013"><a xlink:title=" ">
<path fill="none" stroke="#63b8ff" d="M785.52,-54.98C762,-46.27 725.21,-32.63 698.56,-22.75"/>
<polygon fill="#63b8ff" stroke="#63b8ff" points="699.49,-19.36 688.89,-19.17 697.05,-25.93 699.49,-19.36"/>
</a>
</g>
</g>
</g>
</svg>
