<?xml version="1.0" encoding="UTF-8" standalone="no"?>
<!DOCTYPE svg PUBLIC "-//W3C//DTD SVG 1.1//EN"
 "http://www.w3.org/Graphics/SVG/1.1/DTD/svg11.dtd">
<!-- Generated by graphviz version 2.43.0 (0)
 -->
<!-- Title: ABL Pages: 1 -->
<!--zoomable 523 -->

<svg id="main" version="1.1" xmlns="http://www.w3.org/2000/svg" xmlns:xlink="http://www.w3.org/1999/xlink" xml:space="preserve" onload="init(evt)">

<style type="text/css"><![CDATA[
.node, .edge {opacity: 0.7;}
.node.selected, .edge.selected {opacity: 1;}
.edge:hover path { stroke: red; }
.edge:hover polygon { stroke: red; fill: red; }
]]></style>

<defs>
  <circle id="rim" cx="0" cy="0" r="7"/>
  <circle id="rim2" cx="0" cy="0" r="3.5"/>
  <g id="zoomPlus">
    <use xlink:href="#rim" fill="#404040"><set attributeName="fill" to="#808080" begin="zoomplus.mouseover" end="zoomplus.mouseout"/></use>
    <path d="M-4,0h8M0,-4v8" fill="none" stroke="white" stroke-width="1.5" pointer-events="none"/>
  </g>
  <g id="zoomMin">
    <use xlink:href="#rim" fill="#404040"><set attributeName="fill" to="#808080" begin="zoomminus.mouseover" end="zoomminus.mouseout"/></use>
    <path d="M-4,0h8" fill="none" stroke="white" stroke-width="1.5" pointer-events="none"/>
  </g>
  <g id="arrowUp" transform="translate(30 24)">
    <use xlink:href="#rim"/>
    <path pointer-events="none" fill="none" stroke="white" stroke-width="1.5" d="M0,-3.0v7 M-2.5,-0.5L0,-3.0L2.5,-0.5"/>
  </g>
  <g id="arrowRight" transform="rotate(90) translate(36 -43)">
    <use xlink:href="#rim"/>
    <path pointer-events="none" fill="none" stroke="white" stroke-width="1.5" d="M0,-3.0v7 M-2.5,-0.5L0,-3.0L2.5,-0.5"/>
  </g>
  <g id="arrowDown" transform="rotate(180) translate(-30 -48)">
    <use xlink:href="#rim"/>
    <path pointer-events="none" fill="none" stroke="white" stroke-width="1.5" d="M0,-3.0v7 M-2.5,-0.5L0,-3.0L2.5,-0.5"/>
  </g>
  <g id="arrowLeft" transform="rotate(270) translate(-36 17)">
    <use xlink:href="#rim"/>
    <path pointer-events="none" fill="none" stroke="white" stroke-width="1.5" d="M0,-3.0v7 M-2.5,-0.5L0,-3.0L2.5,-0.5"/>
  </g>
  <g id="resetDef">
    <use xlink:href="#rim2" fill="#404040"><set attributeName="fill" to="#808080" begin="reset.mouseover" end="reset.mouseout"/></use>
  </g>
</defs>
<script type="application/ecmascript">
var viewWidth = 549;
var viewHeight = 523;
var sectionId = 'dynsection-0';
</script>
<script type="application/ecmascript" xlink:href="svg.min.js"/>
<svg id="graph" class="graph">
<g id="viewport">
<title>ABL</title>
<!-- Node3 -->
<g id="Node000003" class="node">
<title>Node3</title>
<g id="a_Node000003"><a xlink:href="group__abl__istats.html" target="_top" xlink:title=" ">
<polygon fill="white" stroke="#666666" points="512.5,-506.39 429.5,-506.39 429.5,-487.39 512.5,-487.39 512.5,-506.39"/>
<text text-anchor="middle" x="471" y="-494.39" font-family="Helvetica,sans-Serif" font-size="10.00">ABL Statistics</text>
</a>
</g>
</g>
<!-- Node9 -->
<g id="Node000009" class="node">
<title>Node9</title>
<g id="a_Node000009"><a xlink:href="group__field__bc.html" target="_top" xlink:title=" ">
<polygon fill="white" stroke="#666666" points="529,-468.89 413,-468.89 413,-438.89 529,-438.89 529,-468.89"/>
<text text-anchor="start" x="421" y="-456.89" font-family="Helvetica,sans-Serif" font-size="10.00">Boundary conditions</text>
<text text-anchor="middle" x="471" y="-445.89" font-family="Helvetica,sans-Serif" font-size="10.00"> management</text>
</a>
</g>
</g>
<!-- Node5 -->
<g id="Node000005" class="node">
<title>Node5</title>
<g id="a_Node000005"><a xlink:href="group__icns__src.html" target="_top" xlink:title=" ">
<polygon fill="white" stroke="#666666" points="524.5,-310.39 417.5,-310.39 417.5,-291.39 524.5,-291.39 524.5,-310.39"/>
<text text-anchor="middle" x="471" y="-298.39" font-family="Helvetica,sans-Serif" font-size="10.00">ICNS Source terms</text>
</a>
</g>
</g>
<!-- Node4 -->
<g id="Node000004" class="node">
<title>Node4</title>
<g id="a_Node000004"><a xlink:href="group__shear__stress.html" target="_top" xlink:title=" ">
<polygon fill="white" stroke="#666666" points="541,-273.39 401,-273.39 401,-254.39 541,-254.39 541,-273.39"/>
<text text-anchor="middle" x="471" y="-261.39" font-family="Helvetica,sans-Serif" font-size="10.00">Shear Stress Wall Models</text>
</a>
</g>
</g>
<!-- Node8 -->
<g id="Node000008" class="node">
<title>Node8</title>
<g id="a_Node000008"><a xlink:href="group__statistics.html" target="_top" xlink:title=" ">
<polygon fill="white" stroke="#666666" points="514.5,-216.39 427.5,-216.39 427.5,-197.39 514.5,-197.39 514.5,-216.39"/>
<text text-anchor="middle" x="471" y="-204.39" font-family="Helvetica,sans-Serif" font-size="10.00">Field statistics</text>
</a>
</g>
</g>
<!-- Node6 -->
<g id="Node000006" class="node">
<title>Node6</title>
<g id="a_Node000006"><a xlink:href="group__tke__src.html" target="_top" xlink:title=" ">
<polygon fill="white" stroke="#666666" points="522.5,-149.39 419.5,-149.39 419.5,-130.39 522.5,-130.39 522.5,-149.39"/>
<text text-anchor="middle" x="471" y="-137.39" font-family="Helvetica,sans-Serif" font-size="10.00">TKE Source terms</text>
</a>
</g>
</g>
<!-- Node7 -->
<g id="Node000007" class="node">
<title>Node7</title>
<g id="a_Node000007"><a xlink:href="group__turb__model.html" target="_top" xlink:title=" ">
<polygon fill="white" stroke="#666666" points="525,-38.39 417,-38.39 417,-19.39 525,-19.39 525,-38.39"/>
<text text-anchor="middle" x="471" y="-26.39" font-family="Helvetica,sans-Serif" font-size="10.00">Turbulence models</text>
</a>
</g>
</g>
<!-- Node1 -->
<g id="Node000001" class="node">
<title>Node1</title>
<g id="a_Node000001"><a xlink:title=" ">
<polygon fill="#999999" stroke="#666666" points="199,-275.39 164,-275.39 164,-256.39 199,-256.39 199,-275.39"/>
<text text-anchor="middle" x="181.5" y="-263.39" font-family="Helvetica,sans-Serif" font-size="10.00">ABL</text>
</a>
</g>
</g>
<!-- Node1&#45;&gt;Node3 -->
<g id="edge2" class="edge">
<title>Node1&#45;&gt;Node3</title>
<path fill="none" stroke="black" d="M182.87,-285.64C184.19,-332.2 190.14,-446.78 217,-471.89 274.23,-525.39 373.73,-516.72 429.37,-506.37"/>
<polygon fill="black" stroke="black" points="186.37,-285.51 182.63,-275.6 179.37,-285.68 186.37,-285.51"/>
</g>
<!-- Node1&#45;&gt;Node9 -->
<g id="edge8" class="edge">
<title>Node1&#45;&gt;Node9</title>
<path fill="none" stroke="orange" stroke-dasharray="5,2" d="M183.05,-275.68C185.09,-308.07 193.34,-410.87 217,-431.89 244.98,-456.74 347.09,-458.31 412.72,-456.54"/>
<text text-anchor="middle" x="300" y="-459.89" font-family="Helvetica,sans-Serif" font-size="10.00">amr_wind::ABLVelWallFunc</text>
</g>
<!-- Node1&#45;&gt;Node5 -->
<g id="edge4" class="edge">
<title>Node1&#45;&gt;Node5</title>
<path fill="none" stroke="orange" stroke-dasharray="5,2" d="M199.15,-271.99C204.76,-273.83 211.09,-275.68 217,-276.89 285.3,-290.85 365.66,-296.72 417.18,-299.17"/>
<text text-anchor="start" x="244" y="-421.89" font-family="Helvetica,sans-Serif" font-size="10.00">amr_wind::pde::icns</text>
<text text-anchor="middle" x="300" y="-410.89" font-family="Helvetica,sans-Serif" font-size="10.00">::ABLForcing</text>
<text text-anchor="start" x="244" y="-399.89" font-family="Helvetica,sans-Serif" font-size="10.00">amr_wind::pde::icns</text>
<text text-anchor="middle" x="300" y="-388.89" font-family="Helvetica,sans-Serif" font-size="10.00">::ABLMeanBoussinesq</text>
<text text-anchor="start" x="244" y="-377.89" font-family="Helvetica,sans-Serif" font-size="10.00">amr_wind::pde::icns</text>
<text text-anchor="middle" x="300" y="-366.89" font-family="Helvetica,sans-Serif" font-size="10.00">::ABLMesoForcingMom</text>
<text text-anchor="start" x="244" y="-355.89" font-family="Helvetica,sans-Serif" font-size="10.00">amr_wind::pde::icns</text>
<text text-anchor="middle" x="300" y="-344.89" font-family="Helvetica,sans-Serif" font-size="10.00">::BoussinesqBuoyancy</text>
<text text-anchor="start" x="244" y="-333.89" font-family="Helvetica,sans-Serif" font-size="10.00">amr_wind::pde::icns</text>
<text text-anchor="middle" x="300" y="-322.89" font-family="Helvetica,sans-Serif" font-size="10.00">::CoriolisForcing</text>
<text text-anchor="start" x="244" y="-311.89" font-family="Helvetica,sans-Serif" font-size="10.00">amr_wind::pde::icns</text>
<text text-anchor="middle" x="300" y="-300.89" font-family="Helvetica,sans-Serif" font-size="10.00">::GeostrophicForcing</text>
</g>
<!-- Node1&#45;&gt;Node4 -->
<g id="edge3" class="edge">
<title>Node1&#45;&gt;Node4</title>
<path fill="none" stroke="black" d="M209.22,-265.7C252.5,-265.4 339.26,-264.8 400.81,-264.37"/>
<polygon fill="black" stroke="black" points="209.18,-262.2 199.2,-265.77 209.22,-269.2 209.18,-262.2"/>
</g>
<!-- Node1&#45;&gt;Node8 -->
<g id="edge7" class="edge">
<title>Node1&#45;&gt;Node8</title>
<path fill="none" stroke="orange" stroke-dasharray="5,2" d="M186.13,-256.29C191.11,-244.62 201.28,-225.44 217,-216.89 283.22,-180.85 374.26,-188.61 427.15,-197.66"/>
<text text-anchor="middle" x="300" y="-252.89" font-family="Helvetica,sans-Serif" font-size="10.00">amr_wind::FPlaneAveraging</text>
<text text-anchor="middle" x="300" y="-241.89" font-family="Helvetica,sans-Serif" font-size="10.00">amr_wind::VelPlaneAveraging</text>
<text text-anchor="middle" x="300" y="-230.89" font-family="Helvetica,sans-Serif" font-size="10.00">amr_wind::FPlaneAveragingFine</text>
<text text-anchor="middle" x="300" y="-219.89" font-family="Helvetica,sans-Serif" font-size="10.00">amr_wind::VelPlaneAveragingFine</text>
</g>
<!-- Node1&#45;&gt;Node6 -->
<g id="edge5" class="edge">
<title>Node1&#45;&gt;Node6</title>
<path fill="none" stroke="orange" stroke-dasharray="5,2" d="M183.75,-256.02C187.36,-229.35 198.7,-156.93 217,-142.89 247.53,-119.45 354.83,-126.7 419.48,-133.6"/>
<text text-anchor="start" x="253" y="-178.89" font-family="Helvetica,sans-Serif" font-size="10.00">amr_wind::pde::tke</text>
<text text-anchor="middle" x="300" y="-167.89" font-family="Helvetica,sans-Serif" font-size="10.00">::KsgsM84Src</text>
<text text-anchor="start" x="253" y="-156.89" font-family="Helvetica,sans-Serif" font-size="10.00">amr_wind::pde::tke</text>
<text text-anchor="middle" x="300" y="-145.89" font-family="Helvetica,sans-Serif" font-size="10.00">::KsgsS94Src</text>
</g>
<!-- Node1&#45;&gt;Node7 -->
<g id="edge6" class="edge">
<title>Node1&#45;&gt;Node7</title>
<path fill="none" stroke="orange" stroke-dasharray="5,2" d="M182.38,-256.32C182.09,-216.51 183.25,-64.67 217,-34.89 280.25,20.93 390.94,-3.6 442.33,-19.36"/>
<text text-anchor="start" x="247" y="-114.89" font-family="Helvetica,sans-Serif" font-size="10.00">amr_wind::pde::tke</text>
<text text-anchor="middle" x="300" y="-103.89" font-family="Helvetica,sans-Serif" font-size="10.00">::KsgsM84Src</text>
<text text-anchor="start" x="247" y="-92.89" font-family="Helvetica,sans-Serif" font-size="10.00">amr_wind::pde::tke</text>
<text text-anchor="middle" x="300" y="-81.89" font-family="Helvetica,sans-Serif" font-size="10.00">::KsgsS94Src</text>
<text text-anchor="start" x="247" y="-70.89" font-family="Helvetica,sans-Serif" font-size="10.00">amr_wind::turbulence</text>
<text text-anchor="middle" x="300" y="-59.89" font-family="Helvetica,sans-Serif" font-size="10.00">::OneEqKsgsM84</text>
<text text-anchor="start" x="247" y="-48.89" font-family="Helvetica,sans-Serif" font-size="10.00">amr_wind::turbulence</text>
<text text-anchor="middle" x="300" y="-37.89" font-family="Helvetica,sans-Serif" font-size="10.00">::OneEqKsgsS94</text>
</g>
<!-- Node2 -->
<g id="Node000002" class="node">
<title>Node2</title>
<g id="a_Node000002"><a xlink:href="group__wind.html" target="_top" xlink:title=" ">
<polygon fill="white" stroke="#666666" points="127,-275.39 0,-275.39 0,-256.39 127,-256.39 127,-275.39"/>
<text text-anchor="middle" x="63.5" y="-263.39" font-family="Helvetica,sans-Serif" font-size="10.00">Wind energy modeling</text>
</a>
</g>
</g>
<!-- Node2&#45;&gt;Node1 -->
<g id="edge1" class="edge">
<title>Node2&#45;&gt;Node1</title>
<path fill="none" stroke="black" d="M137.54,-265.89C147.25,-265.89 156.35,-265.89 163.66,-265.89"/>
<polygon fill="black" stroke="black" points="137.25,-262.39 127.25,-265.89 137.25,-269.39 137.25,-262.39"/>
</g>
</g>
</svg>

<g id="navigator" transform="translate(0 0)" fill="#404254">
  <rect fill="#f2f5e9" fill-opacity="0.5" stroke="#606060" stroke-width=".5" x="0" y="0" width="60" height="60"/>
  <use id="zoomplus" xlink:href="#zoomPlus" x="17" y="9" onmousedown="handleZoom(evt,'in')"/>
  <use id="zoomminus" xlink:href="#zoomMin" x="42" y="9" onmousedown="handleZoom(evt,'out')"/>
  <use id="reset" xlink:href="#resetDef" x="30" y="36" onmousedown="handleReset()"/>
   <use id="arrowup" xlink:href="#arrowUp" x="0" y="0" onmousedown="handlePan(0,-1)"/>
  <use id="arrowright" xlink:href="#arrowRight" x="0" y="0" onmousedown="handlePan(1,0)"/>
  <use id="arrowdown" xlink:href="#arrowDown" x="0" y="0" onmousedown="handlePan(0,1)"/>
  <use id="arrowleft" xlink:href="#arrowLeft" x="0" y="0" onmousedown="handlePan(-1,0)"/>
</g>
<svg viewBox="0 0 15 15" width="100%" height="30px" preserveAspectRatio="xMaxYMin meet">
 <g id="arrow_out" transform="scale(0.3 0.3)">
  <a xlink:href="group__we__abl_org.svg" target="_base">
   <rect id="button" ry="5" rx="5" y="6" x="6" height="38" width="38"
        fill="#f2f5e9" fill-opacity="0.5" stroke="#606060" stroke-width="1.0"/>
   <path id="arrow"
     d="M 11.500037,31.436501 C 11.940474,20.09759 22.043105,11.32322 32.158766,21.979434 L 37.068811,17.246167 C 37.068811,17.246167 37.088388,32 37.088388,32 L 22.160133,31.978069 C 22.160133,31.978069 26.997745,27.140456 26.997745,27.140456 C 18.528582,18.264221 13.291696,25.230495 11.500037,31.436501 z"
     style="fill:#404040;"/>
  </a>
 </g>
</svg>

<style type='text/css'>
<![CDATA[
[data-mouse-over-selected='false'] { opacity: 0.7; }
[data-mouse-over-selected='true']  { opacity: 1.0; }
]]>
</style>
<script type="application/ecmascript"><![CDATA[
document.addEventListener('DOMContentLoaded', (event) => {
  highlightEdges();
  highlightAdjacentNodes();
});
]]></script>
</svg>
