<?xml version="1.0" encoding="UTF-8" standalone="no"?>
<!DOCTYPE svg PUBLIC "-//W3C//DTD SVG 1.1//EN"
 "http://www.w3.org/Graphics/SVG/1.1/DTD/svg11.dtd">
<!-- Generated by graphviz version 2.43.0 (0)
 -->
<!-- Title: TKE Source terms Pages: 1 -->
<svg width="525pt" height="166pt"
 viewBox="0.00 0.00 525.00 165.50" xmlns="http://www.w3.org/2000/svg" xmlns:xlink="http://www.w3.org/1999/xlink">
<g id="graph0" class="graph" transform="scale(1 1) rotate(0) translate(4 161.5)">
<title>TKE Source terms</title>
<!-- Node2 -->
<g id="Node000002" class="node">
<title>Node2</title>
<g id="a_Node000002"><a xlink:href="group__tke__eqn.html" target="_top" xlink:title=" ">
<polygon fill="white" stroke="#666666" points="139,-68.5 0,-68.5 0,-38.5 139,-38.5 139,-68.5"/>
<text text-anchor="start" x="8" y="-56.5" font-family="Helvetica,sans-Serif" font-size="10.00">Turbulent Kinetic Energy</text>
<text text-anchor="middle" x="69.5" y="-45.5" font-family="Helvetica,sans-Serif" font-size="10.00"> (TKE) transport equation</text>
</a>
</g>
</g>
<!-- Node1 -->
<g id="Node000001" class="node">
<title>Node1</title>
<g id="a_Node000001"><a xlink:title=" ">
<polygon fill="#999999" stroke="#666666" points="279,-63 176,-63 176,-44 279,-44 279,-63"/>
<text text-anchor="middle" x="227.5" y="-51" font-family="Helvetica,sans-Serif" font-size="10.00">TKE Source terms</text>
</a>
</g>
</g>
<!-- Node2&#45;&gt;Node1 -->
<g id="edge1" class="edge">
<title>Node2&#45;&gt;Node1</title>
<path fill="none" stroke="black" d="M149.46,-53.5C158.41,-53.5 167.35,-53.5 175.79,-53.5"/>
<polygon fill="black" stroke="black" points="149.38,-50 139.38,-53.5 149.38,-57 149.38,-50"/>
</g>
<!-- Node3 -->
<g id="Node000003" class="node">
<title>Node3</title>
<g id="a_Node000003"><a xlink:href="group__turb__model.html" target="_top" xlink:title=" ">
<polygon fill="white" stroke="#666666" points="517,-108 409,-108 409,-89 517,-89 517,-108"/>
<text text-anchor="middle" x="463" y="-96" font-family="Helvetica,sans-Serif" font-size="10.00">Turbulence models</text>
</a>
</g>
</g>
<!-- Node1&#45;&gt;Node3 -->
<g id="edge2" class="edge">
<title>Node1&#45;&gt;Node3</title>
<path fill="none" stroke="orange" stroke-dasharray="5,2" d="M253.22,-63.08C266.1,-67.74 282.21,-73.07 297,-76.5 333.88,-85.07 376.22,-90.63 408.78,-94.01"/>
<text text-anchor="start" x="297" y="-149.5" font-family="Helvetica,sans-Serif" font-size="10.00">amr_wind::pde::tke</text>
<text text-anchor="middle" x="344" y="-138.5" font-family="Helvetica,sans-Serif" font-size="10.00">::KransAxell</text>
<text text-anchor="start" x="297" y="-127.5" font-family="Helvetica,sans-Serif" font-size="10.00">amr_wind::pde::tke</text>
<text text-anchor="middle" x="344" y="-116.5" font-family="Helvetica,sans-Serif" font-size="10.00">::KsgsM84Src</text>
<text text-anchor="start" x="297" y="-105.5" font-family="Helvetica,sans-Serif" font-size="10.00">amr_wind::pde::tke</text>
<text text-anchor="middle" x="344" y="-94.5" font-family="Helvetica,sans-Serif" font-size="10.00">::KsgsS94Src</text>
</g>
<!-- Node4 -->
<g id="Node000004" class="node">
<title>Node4</title>
<g id="a_Node000004"><a xlink:href="group__we__abl.html" target="_top" xlink:title=" ">
<polygon fill="white" stroke="#666666" points="480.5,-19 445.5,-19 445.5,0 480.5,0 480.5,-19"/>
<text text-anchor="middle" x="463" y="-7" font-family="Helvetica,sans-Serif" font-size="10.00">ABL</text>
</a>
</g>
</g>
<!-- Node1&#45;&gt;Node4 -->
<g id="edge3" class="edge">
<title>Node1&#45;&gt;Node4</title>
<path fill="none" stroke="orange" stroke-dasharray="5,2" d="M239.65,-43.71C252.46,-33.16 274.62,-17.02 297,-10.5 349.26,4.71 414.83,-2.1 445.17,-6.63"/>
<text text-anchor="start" x="297" y="-68.5" font-family="Helvetica,sans-Serif" font-size="10.00">amr_wind::pde::tke</text>
<text text-anchor="middle" x="344" y="-57.5" font-family="Helvetica,sans-Serif" font-size="10.00">::KransAxell</text>
<text text-anchor="start" x="297" y="-46.5" font-family="Helvetica,sans-Serif" font-size="10.00">amr_wind::pde::tke</text>
<text text-anchor="middle" x="344" y="-35.5" font-family="Helvetica,sans-Serif" font-size="10.00">::KsgsM84Src</text>
<text text-anchor="start" x="297" y="-24.5" font-family="Helvetica,sans-Serif" font-size="10.00">amr_wind::pde::tke</text>
<text text-anchor="middle" x="344" y="-13.5" font-family="Helvetica,sans-Serif" font-size="10.00">::KsgsS94Src</text>
</g>
</g>
</svg>
