<?xml version="1.0" encoding="UTF-8" standalone="no"?>
<!DOCTYPE svg PUBLIC "-//W3C//DTD SVG 1.1//EN"
 "http://www.w3.org/Graphics/SVG/1.1/DTD/svg11.dtd">
<!-- Generated by graphviz version 2.43.0 (0)
 -->
<!-- Title: Equation Systems Pages: 1 -->
<svg width="287pt" height="327pt"
 viewBox="0.00 0.00 287.00 327.00" xmlns="http://www.w3.org/2000/svg" xmlns:xlink="http://www.w3.org/1999/xlink">
<g id="graph0" class="graph" transform="scale(1 1) rotate(0) translate(4 323)">
<title>Equation Systems</title>
<!-- Node1 -->
<g id="Node000001" class="node">
<title>Node1</title>
<g id="a_Node000001"><a xlink:title=" ">
<polygon fill="#999999" stroke="#666666" points="104,-174.5 0,-174.5 0,-155.5 104,-155.5 104,-174.5"/>
<text text-anchor="middle" x="52" y="-162.5" font-family="Helvetica,sans-Serif" font-size="10.00">Equation Systems</text>
</a>
</g>
</g>
<!-- Node2 -->
<g id="Node000002" class="node">
<title>Node2</title>
<g id="a_Node000002"><a xlink:href="group__icns.html" target="_top" xlink:title=" ">
<polygon fill="white" stroke="#666666" points="272.5,-319 146.5,-319 146.5,-289 272.5,-289 272.5,-319"/>
<text text-anchor="start" x="154.5" y="-307" font-family="Helvetica,sans-Serif" font-size="10.00">Incompressible Navier</text>
<text text-anchor="middle" x="209.5" y="-296" font-family="Helvetica,sans-Serif" font-size="10.00">&#45;Stokes</text>
</a>
</g>
</g>
<!-- Node1&#45;&gt;Node2 -->
<g id="edge1" class="edge">
<title>Node1&#45;&gt;Node2</title>
<path fill="none" stroke="black" d="M62.41,-183.45C76.17,-208.68 104.11,-253.83 140,-280 144.68,-283.42 149.9,-286.38 155.3,-288.94"/>
<polygon fill="black" stroke="black" points="65.46,-181.74 57.69,-174.54 59.28,-185.01 65.46,-181.74"/>
</g>
<!-- Node3 -->
<g id="Node000003" class="node">
<title>Node3</title>
<g id="a_Node000003"><a xlink:href="group__levelset.html" target="_top" xlink:title=" ">
<polygon fill="white" stroke="#666666" points="262,-271 157,-271 157,-241 262,-241 262,-271"/>
<text text-anchor="start" x="165" y="-259" font-family="Helvetica,sans-Serif" font-size="10.00">Levelset transport</text>
<text text-anchor="middle" x="209.5" y="-248" font-family="Helvetica,sans-Serif" font-size="10.00"> equation</text>
</a>
</g>
</g>
<!-- Node1&#45;&gt;Node3 -->
<g id="edge2" class="edge">
<title>Node1&#45;&gt;Node3</title>
<path fill="none" stroke="black" d="M71.09,-181.73C87.9,-196.57 114.17,-218 140,-232 146.09,-235.3 152.73,-238.29 159.4,-240.95"/>
<polygon fill="black" stroke="black" points="72.99,-178.73 63.21,-174.65 68.31,-183.94 72.99,-178.73"/>
</g>
<!-- Node4 -->
<g id="Node000004" class="node">
<title>Node4</title>
<g id="a_Node000004"><a xlink:href="group__passive__eqn.html" target="_top" xlink:title=" ">
<polygon fill="white" stroke="#666666" points="276,-223 143,-223 143,-193 276,-193 276,-223"/>
<text text-anchor="start" x="151" y="-211" font-family="Helvetica,sans-Serif" font-size="10.00">Passive scalar transport</text>
<text text-anchor="middle" x="209.5" y="-200" font-family="Helvetica,sans-Serif" font-size="10.00"> equation</text>
</a>
</g>
</g>
<!-- Node1&#45;&gt;Node4 -->
<g id="edge3" class="edge">
<title>Node1&#45;&gt;Node4</title>
<path fill="none" stroke="black" d="M97.55,-177.32C115.22,-182.21 135.71,-187.87 154.23,-192.99"/>
<polygon fill="black" stroke="black" points="98.08,-173.84 87.51,-174.54 96.22,-180.58 98.08,-173.84"/>
</g>
<!-- Node5 -->
<g id="Node000005" class="node">
<title>Node5</title>
<g id="a_Node000005"><a xlink:href="group__pdeop.html" target="_top" xlink:title=" ">
<polygon fill="white" stroke="#666666" points="253,-174.5 166,-174.5 166,-155.5 253,-155.5 253,-174.5"/>
<text text-anchor="middle" x="209.5" y="-162.5" font-family="Helvetica,sans-Serif" font-size="10.00">PDE Operators</text>
</a>
</g>
</g>
<!-- Node1&#45;&gt;Node5 -->
<g id="edge4" class="edge">
<title>Node1&#45;&gt;Node5</title>
<path fill="none" stroke="black" d="M114.81,-165C131.89,-165 150.04,-165 165.77,-165"/>
<polygon fill="black" stroke="black" points="114.35,-161.5 104.35,-165 114.35,-168.5 114.35,-161.5"/>
</g>
<!-- Node6 -->
<g id="Node000006" class="node">
<title>Node6</title>
<g id="a_Node000006"><a xlink:href="group__sdr__eqn.html" target="_top" xlink:title=" ">
<polygon fill="white" stroke="#666666" points="269.5,-137.5 149.5,-137.5 149.5,-96.5 269.5,-96.5 269.5,-137.5"/>
<text text-anchor="start" x="157.5" y="-125.5" font-family="Helvetica,sans-Serif" font-size="10.00">Specific Dissipation</text>
<text text-anchor="start" x="157.5" y="-114.5" font-family="Helvetica,sans-Serif" font-size="10.00"> Rate (SDR) transport</text>
<text text-anchor="middle" x="209.5" y="-103.5" font-family="Helvetica,sans-Serif" font-size="10.00"> equation</text>
</a>
</g>
</g>
<!-- Node1&#45;&gt;Node6 -->
<g id="edge5" class="edge">
<title>Node1&#45;&gt;Node6</title>
<path fill="none" stroke="black" d="M93.73,-152.43C110.75,-147.17 130.86,-140.97 149.45,-135.23"/>
<polygon fill="black" stroke="black" points="92.62,-149.11 84.09,-155.4 94.68,-155.8 92.62,-149.11"/>
</g>
<!-- Node7 -->
<g id="Node000007" class="node">
<title>Node7</title>
<g id="a_Node000007"><a xlink:href="group__temp__eqn.html" target="_top" xlink:title=" ">
<polygon fill="white" stroke="#666666" points="272,-78 147,-78 147,-48 272,-48 272,-78"/>
<text text-anchor="start" x="155" y="-66" font-family="Helvetica,sans-Serif" font-size="10.00">Temperature transport</text>
<text text-anchor="middle" x="209.5" y="-55" font-family="Helvetica,sans-Serif" font-size="10.00"> equation</text>
</a>
</g>
</g>
<!-- Node1&#45;&gt;Node7 -->
<g id="edge6" class="edge">
<title>Node1&#45;&gt;Node7</title>
<path fill="none" stroke="black" d="M68.61,-147.83C84.98,-130.69 112.15,-104.59 140,-88 146.2,-84.31 153.03,-81.02 159.91,-78.14"/>
<polygon fill="black" stroke="black" points="65.77,-145.75 61.49,-155.44 70.88,-150.53 65.77,-145.75"/>
</g>
<!-- Node8 -->
<g id="Node000008" class="node">
<title>Node8</title>
<g id="a_Node000008"><a xlink:href="group__tke__eqn.html" target="_top" xlink:title=" ">
<polygon fill="white" stroke="#666666" points="279,-30 140,-30 140,0 279,0 279,-30"/>
<text text-anchor="start" x="148" y="-18" font-family="Helvetica,sans-Serif" font-size="10.00">Turbulent Kinetic Energy</text>
<text text-anchor="middle" x="209.5" y="-7" font-family="Helvetica,sans-Serif" font-size="10.00"> (TKE) transport equation</text>
</a>
</g>
</g>
<!-- Node1&#45;&gt;Node8 -->
<g id="edge7" class="edge">
<title>Node1&#45;&gt;Node8</title>
<path fill="none" stroke="black" d="M61.39,-145.95C74.4,-118.53 101.96,-68.02 140,-39 144.51,-35.56 149.55,-32.59 154.79,-30.03"/>
<polygon fill="black" stroke="black" points="58.12,-144.7 57.13,-155.24 64.48,-147.62 58.12,-144.7"/>
</g>
</g>
</svg>
