<?xml version="1.0" encoding="UTF-8" standalone="no"?>
<!DOCTYPE svg PUBLIC "-//W3C//DTD SVG 1.1//EN"
 "http://www.w3.org/Graphics/SVG/1.1/DTD/svg11.dtd">
<!-- Generated by graphviz version 2.43.0 (0)
 -->
<!-- Title: /home/runner/work/amr&#45;wind/amr&#45;wind/amr&#45;wind/equation_systems/icns/source_terms/BodyForce.H Pages: 1 -->
<svg width="2541pt" height="357pt"
 viewBox="0.00 0.00 2540.70 357.00" xmlns="http://www.w3.org/2000/svg" xmlns:xlink="http://www.w3.org/1999/xlink">
<g id="graph0" class="graph" transform="scale(1 1) rotate(0) translate(4 353)">
<title>/home/runner/work/amr&#45;wind/amr&#45;wind/amr&#45;wind/equation_systems/icns/source_terms/BodyForce.H</title>
<!-- Node1 -->
<g id="Node000001" class="node">
<title>Node1</title>
<g id="a_Node000001"><a xlink:title=" ">
<polygon fill="#999999" stroke="#666666" points="2273.2,-349 2123.2,-349 2123.2,-297 2273.2,-297 2273.2,-349"/>
<text text-anchor="start" x="2131.2" y="-337" font-family="Helvetica,sans-Serif" font-size="10.00">/home/runner/work/amr</text>
<text text-anchor="start" x="2131.2" y="-326" font-family="Helvetica,sans-Serif" font-size="10.00">&#45;wind/amr&#45;wind/amr&#45;wind</text>
<text text-anchor="start" x="2131.2" y="-315" font-family="Helvetica,sans-Serif" font-size="10.00">/equation_systems/icns</text>
<text text-anchor="middle" x="2198.2" y="-304" font-family="Helvetica,sans-Serif" font-size="10.00">/source_terms/BodyForce.H</text>
</a>
</g>
</g>
<!-- Node2 -->
<g id="Node000002" class="node">
<title>Node2</title>
<g id="a_Node000002"><a xlink:href="_momentum_source_8_h.html" target="_top" xlink:title=" ">
<polygon fill="white" stroke="#666666" points="453.7,-261 298.7,-261 298.7,-231 453.7,-231 453.7,-261"/>
<text text-anchor="start" x="306.7" y="-249" font-family="Helvetica,sans-Serif" font-size="10.00">amr&#45;wind/equation_systems</text>
<text text-anchor="middle" x="376.2" y="-238" font-family="Helvetica,sans-Serif" font-size="10.00">/icns/MomentumSource.H</text>
</a>
</g>
</g>
<!-- Node1&#45;&gt;Node2 -->
<g id="edge1_Node000001_Node000002" class="edge">
<title>Node1&#45;&gt;Node2</title>
<g id="a_edge1_Node000001_Node000002"><a xlink:title=" ">
<path fill="none" stroke="#63b8ff" d="M2123.09,-318.91C1831.76,-306.92 777.1,-263.5 464.26,-250.62"/>
<polygon fill="#63b8ff" stroke="#63b8ff" points="464.02,-247.11 453.89,-250.2 463.73,-254.11 464.02,-247.11"/>
</a>
</g>
</g>
<!-- Node21 -->
<g id="Node000021" class="node">
<title>Node21</title>
<g id="a_Node000021"><a xlink:title=" ">
<polygon fill="#e0e0e0" stroke="#999999" points="1272.2,-19 1174.2,-19 1174.2,0 1272.2,0 1272.2,-19"/>
<text text-anchor="middle" x="1223.2" y="-7" font-family="Helvetica,sans-Serif" font-size="10.00">AMReX_Vector.H</text>
</a>
</g>
</g>
<!-- Node1&#45;&gt;Node21 -->
<g id="edge66_Node000001_Node000021" class="edge">
<title>Node1&#45;&gt;Node21</title>
<g id="a_edge66_Node000001_Node000021"><a xlink:title=" ">
<path fill="none" stroke="#63b8ff" d="M2230.1,-296.88C2257.7,-272.09 2293.2,-231.46 2293.2,-186.5 2293.2,-186.5 2293.2,-186.5 2293.2,-124 2293.2,-88.33 2282.82,-73.31 2252.2,-55 2210.42,-30.01 1494.86,-15.33 1282.28,-11.51"/>
<polygon fill="#63b8ff" stroke="#63b8ff" points="1282.31,-8.01 1272.25,-11.33 1282.19,-15.01 1282.31,-8.01"/>
</a>
</g>
</g>
<!-- Node29 -->
<g id="Node000029" class="node">
<title>Node29</title>
<g id="a_Node000029"><a xlink:href="_sim_time_8_h.html" target="_top" xlink:title=" ">
<polygon fill="white" stroke="#666666" points="2175.2,-255.5 2031.2,-255.5 2031.2,-236.5 2175.2,-236.5 2175.2,-255.5"/>
<text text-anchor="middle" x="2103.2" y="-243.5" font-family="Helvetica,sans-Serif" font-size="10.00">amr&#45;wind/core/SimTime.H</text>
</a>
</g>
</g>
<!-- Node1&#45;&gt;Node29 -->
<g id="edge57_Node000001_Node000029" class="edge">
<title>Node1&#45;&gt;Node29</title>
<g id="a_edge57_Node000001_Node000029"><a xlink:title=" ">
<path fill="none" stroke="#63b8ff" d="M2166.3,-296.82C2151.59,-285.2 2134.62,-271.81 2121.99,-261.84"/>
<polygon fill="#63b8ff" stroke="#63b8ff" points="2124.04,-258.99 2114.02,-255.54 2119.7,-264.49 2124.04,-258.99"/>
</a>
</g>
</g>
<!-- Node30 -->
<g id="Node000030" class="node">
<title>Node30</title>
<g id="a_Node000030"><a xlink:title=" ">
<polygon fill="#e0e0e0" stroke="#999999" points="1837.2,-195 1745.2,-195 1745.2,-176 1837.2,-176 1837.2,-195"/>
<text text-anchor="middle" x="1791.2" y="-183" font-family="Helvetica,sans-Serif" font-size="10.00">AMReX_REAL.H</text>
</a>
</g>
</g>
<!-- Node1&#45;&gt;Node30 -->
<g id="edge65_Node000001_Node000030" class="edge">
<title>Node1&#45;&gt;Node30</title>
<g id="a_edge65_Node000001_Node000030"><a xlink:title=" ">
<path fill="none" stroke="#63b8ff" d="M2123.08,-296.99C2034.81,-267.6 1892.09,-220.09 1826.38,-198.21"/>
<polygon fill="#63b8ff" stroke="#63b8ff" points="1827.48,-194.89 1816.88,-195.05 1825.27,-201.53 1827.48,-194.89"/>
</a>
</g>
</g>
<!-- Node34 -->
<g id="Node000034" class="node">
<title>Node34</title>
<g id="a_Node000034"><a xlink:title=" ">
<polygon fill="#e0e0e0" stroke="#999999" points="2461.2,-255.5 2321.2,-255.5 2321.2,-236.5 2461.2,-236.5 2461.2,-255.5"/>
<text text-anchor="middle" x="2391.2" y="-243.5" font-family="Helvetica,sans-Serif" font-size="10.00">AMReX_GpuContainers.H</text>
</a>
</g>
</g>
<!-- Node1&#45;&gt;Node34 -->
<g id="edge64_Node000001_Node000034" class="edge">
<title>Node1&#45;&gt;Node34</title>
<g id="a_edge64_Node000001_Node000034"><a xlink:title=" ">
<path fill="none" stroke="#63b8ff" d="M2262.73,-296.92C2295.38,-284.23 2333.54,-269.41 2359.73,-259.23"/>
<polygon fill="#63b8ff" stroke="#63b8ff" points="2361.1,-262.45 2369.15,-255.57 2358.56,-255.93 2361.1,-262.45"/>
</a>
</g>
</g>
<!-- Node35 -->
<g id="Node000035" class="node">
<title>Node35</title>
<g id="a_Node000035"><a xlink:title=" ">
<polygon fill="#e0e0e0" stroke="#999999" points="2532.7,-255.5 2479.7,-255.5 2479.7,-236.5 2532.7,-236.5 2532.7,-255.5"/>
<text text-anchor="middle" x="2506.2" y="-243.5" font-family="Helvetica,sans-Serif" font-size="10.00">cstddef</text>
</a>
</g>
</g>
<!-- Node1&#45;&gt;Node35 -->
<g id="edge67_Node000001_Node000035" class="edge">
<title>Node1&#45;&gt;Node35</title>
<g id="a_edge67_Node000001_Node000035"><a xlink:title=" ">
<path fill="none" stroke="#63b8ff" d="M2273.45,-308.29C2328.5,-297.49 2404.69,-280.96 2470.2,-261 2472.12,-260.41 2474.09,-259.77 2476.07,-259.1"/>
<polygon fill="#63b8ff" stroke="#63b8ff" points="2477.63,-262.25 2485.83,-255.54 2475.23,-255.68 2477.63,-262.25"/>
</a>
</g>
</g>
<!-- Node3 -->
<g id="Node000003" class="node">
<title>Node3</title>
<g id="a_Node000003"><a xlink:href="_factory_8_h.html" target="_top" xlink:title=" ">
<polygon fill="white" stroke="#666666" points="1988.2,-134.5 1854.2,-134.5 1854.2,-115.5 1988.2,-115.5 1988.2,-134.5"/>
<text text-anchor="middle" x="1921.2" y="-122.5" font-family="Helvetica,sans-Serif" font-size="10.00">amr&#45;wind/core/Factory.H</text>
</a>
</g>
</g>
<!-- Node2&#45;&gt;Node3 -->
<g id="edge2_Node000002_Node000003" class="edge">
<title>Node2&#45;&gt;Node3</title>
<g id="a_edge2_Node000002_Node000003"><a xlink:title=" ">
<path fill="none" stroke="#63b8ff" d="M453.88,-239.02C718.06,-218.67 1580.02,-152.28 1843.8,-131.96"/>
<polygon fill="#63b8ff" stroke="#63b8ff" points="1844.34,-135.43 1854.04,-131.17 1843.81,-128.45 1844.34,-135.43"/>
</a>
</g>
</g>
<!-- Node9 -->
<g id="Node000009" class="node">
<title>Node9</title>
<g id="a_Node000009"><a xlink:href="_field_desc_types_8_h.html" target="_top" xlink:title=" ">
<polygon fill="white" stroke="#666666" points="609.2,-19 433.2,-19 433.2,0 609.2,0 609.2,-19"/>
<text text-anchor="middle" x="521.2" y="-7" font-family="Helvetica,sans-Serif" font-size="10.00">amr&#45;wind/core/FieldDescTypes.H</text>
</a>
</g>
</g>
<!-- Node2&#45;&gt;Node9 -->
<g id="edge8_Node000002_Node000009" class="edge">
<title>Node2&#45;&gt;Node9</title>
<g id="a_edge8_Node000002_Node000009"><a xlink:title=" ">
<path fill="none" stroke="#63b8ff" d="M346.5,-230.92C304.37,-208.77 234.6,-162.83 256.2,-110 282.19,-46.42 358.8,-22.61 423,-14.09"/>
<polygon fill="#63b8ff" stroke="#63b8ff" points="423.69,-17.53 433.19,-12.85 422.84,-10.58 423.69,-17.53"/>
</a>
</g>
</g>
<!-- Node10 -->
<g id="Node000010" class="node">
<title>Node10</title>
<g id="a_Node000010"><a xlink:href="_field_utils_8_h.html" target="_top" xlink:title=" ">
<polygon fill="white" stroke="#666666" points="159.2,-134.5 13.2,-134.5 13.2,-115.5 159.2,-115.5 159.2,-134.5"/>
<text text-anchor="middle" x="86.2" y="-122.5" font-family="Helvetica,sans-Serif" font-size="10.00">amr&#45;wind/core/FieldUtils.H</text>
</a>
</g>
</g>
<!-- Node2&#45;&gt;Node10 -->
<g id="edge9_Node000002_Node000010" class="edge">
<title>Node2&#45;&gt;Node10</title>
<g id="a_edge9_Node000002_Node000010"><a xlink:title=" ">
<path fill="none" stroke="#63b8ff" d="M326.94,-230.97C296.61,-221.82 257.17,-209.01 223.2,-195 182.64,-178.27 137.54,-154.49 110.54,-139.67"/>
<polygon fill="#63b8ff" stroke="#63b8ff" points="111.9,-136.42 101.46,-134.64 108.51,-142.55 111.9,-136.42"/>
</a>
</g>
</g>
<!-- Node11 -->
<g id="Node000011" class="node">
<title>Node11</title>
<g id="a_Node000011"><a xlink:title=" ">
<polygon fill="#e0e0e0" stroke="#999999" points="335.7,-19 226.7,-19 226.7,0 335.7,0 335.7,-19"/>
<text text-anchor="middle" x="281.2" y="-7" font-family="Helvetica,sans-Serif" font-size="10.00">AMReX_MultiFab.H</text>
</a>
</g>
</g>
<!-- Node2&#45;&gt;Node11 -->
<g id="edge56_Node000002_Node000011" class="edge">
<title>Node2&#45;&gt;Node11</title>
<g id="a_edge56_Node000002_Node000011"><a xlink:title=" ">
<path fill="none" stroke="#63b8ff" d="M298.45,-234.35C199.97,-219.06 38.86,-187.39 4.2,-140 -6.71,-125.09 7.09,-61.13 13.2,-55 40.98,-27.15 146.33,-16.7 216.38,-12.8"/>
<polygon fill="#63b8ff" stroke="#63b8ff" points="216.64,-16.29 226.44,-12.27 216.27,-9.3 216.64,-16.29"/>
</a>
</g>
</g>
<!-- Node13 -->
<g id="Node000013" class="node">
<title>Node13</title>
<g id="a_Node000013"><a xlink:href="_field_repo_8_h.html" target="_top" xlink:title=" ">
<polygon fill="white" stroke="#666666" points="630.7,-195 481.7,-195 481.7,-176 630.7,-176 630.7,-195"/>
<text text-anchor="middle" x="556.2" y="-183" font-family="Helvetica,sans-Serif" font-size="10.00">amr&#45;wind/core/FieldRepo.H</text>
</a>
</g>
</g>
<!-- Node2&#45;&gt;Node13 -->
<g id="edge13_Node000002_Node000013" class="edge">
<title>Node2&#45;&gt;Node13</title>
<g id="a_edge13_Node000002_Node000013"><a xlink:title=" ">
<path fill="none" stroke="#63b8ff" d="M419.31,-230.99C450.11,-220.98 491.07,-207.67 520.13,-198.22"/>
<polygon fill="#63b8ff" stroke="#63b8ff" points="521.45,-201.47 529.88,-195.05 519.29,-194.82 521.45,-201.47"/>
</a>
</g>
</g>
<!-- Node4 -->
<g id="Node000004" class="node">
<title>Node4</title>
<g id="a_Node000004"><a xlink:title=" ">
<polygon fill="#e0e0e0" stroke="#999999" points="1767.2,-74 1709.2,-74 1709.2,-55 1767.2,-55 1767.2,-74"/>
<text text-anchor="middle" x="1738.2" y="-62" font-family="Helvetica,sans-Serif" font-size="10.00">memory</text>
</a>
</g>
</g>
<!-- Node3&#45;&gt;Node4 -->
<g id="edge3_Node000003_Node000004" class="edge">
<title>Node3&#45;&gt;Node4</title>
<g id="a_edge3_Node000003_Node000004"><a xlink:title=" ">
<path fill="none" stroke="#63b8ff" d="M1894.59,-115.49C1863.01,-105.4 1810.19,-88.51 1774.78,-77.19"/>
<polygon fill="#63b8ff" stroke="#63b8ff" points="1775.43,-73.73 1764.84,-74.02 1773.3,-80.4 1775.43,-73.73"/>
</a>
</g>
</g>
<!-- Node5 -->
<g id="Node000005" class="node">
<title>Node5</title>
<g id="a_Node000005"><a xlink:title=" ">
<polygon fill="#e0e0e0" stroke="#999999" points="1878.7,-74 1785.7,-74 1785.7,-55 1878.7,-55 1878.7,-74"/>
<text text-anchor="middle" x="1832.2" y="-62" font-family="Helvetica,sans-Serif" font-size="10.00">unordered_map</text>
</a>
</g>
</g>
<!-- Node3&#45;&gt;Node5 -->
<g id="edge4_Node000003_Node000005" class="edge">
<title>Node3&#45;&gt;Node5</title>
<g id="a_edge4_Node000003_Node000005"><a xlink:title=" ">
<path fill="none" stroke="#63b8ff" d="M1908.07,-115.37C1893.87,-106.04 1871,-91.01 1854.08,-79.88"/>
<polygon fill="#63b8ff" stroke="#63b8ff" points="1855.67,-76.74 1845.39,-74.17 1851.82,-82.58 1855.67,-76.74"/>
</a>
</g>
</g>
<!-- Node6 -->
<g id="Node000006" class="node">
<title>Node6</title>
<g id="a_Node000006"><a xlink:title=" ">
<polygon fill="#e0e0e0" stroke="#999999" points="2119.2,-74 2059.2,-74 2059.2,-55 2119.2,-55 2119.2,-74"/>
<text text-anchor="middle" x="2089.2" y="-62" font-family="Helvetica,sans-Serif" font-size="10.00">iostream</text>
</a>
</g>
</g>
<!-- Node3&#45;&gt;Node6 -->
<g id="edge5_Node000003_Node000006" class="edge">
<title>Node3&#45;&gt;Node6</title>
<g id="a_edge5_Node000003_Node000006"><a xlink:title=" ">
<path fill="none" stroke="#63b8ff" d="M1945.63,-115.49C1974.49,-105.44 2022.7,-88.66 2055.2,-77.34"/>
<polygon fill="#63b8ff" stroke="#63b8ff" points="2056.45,-80.61 2064.74,-74.02 2054.15,-74 2056.45,-80.61"/>
</a>
</g>
</g>
<!-- Node7 -->
<g id="Node000007" class="node">
<title>Node7</title>
<g id="a_Node000007"><a xlink:title=" ">
<polygon fill="#e0e0e0" stroke="#999999" points="2227.2,-74 2137.2,-74 2137.2,-55 2227.2,-55 2227.2,-74"/>
<text text-anchor="middle" x="2182.2" y="-62" font-family="Helvetica,sans-Serif" font-size="10.00">AMReX_Print.H</text>
</a>
</g>
</g>
<!-- Node3&#45;&gt;Node7 -->
<g id="edge6_Node000003_Node000007" class="edge">
<title>Node3&#45;&gt;Node7</title>
<g id="a_edge6_Node000003_Node000007"><a xlink:title=" ">
<path fill="none" stroke="#63b8ff" d="M1959.15,-115.49C2005.45,-105.12 2083.75,-87.57 2134.19,-76.26"/>
<polygon fill="#63b8ff" stroke="#63b8ff" points="2135.21,-79.62 2144.2,-74.02 2133.68,-72.79 2135.21,-79.62"/>
</a>
</g>
</g>
<!-- Node8 -->
<g id="Node000008" class="node">
<title>Node8</title>
<g id="a_Node000008"><a xlink:title=" ">
<polygon fill="#e0e0e0" stroke="#999999" points="2041.2,-74 1979.2,-74 1979.2,-55 2041.2,-55 2041.2,-74"/>
<text text-anchor="middle" x="2010.2" y="-62" font-family="Helvetica,sans-Serif" font-size="10.00">AMReX.H</text>
</a>
</g>
</g>
<!-- Node3&#45;&gt;Node8 -->
<g id="edge7_Node000003_Node000008" class="edge">
<title>Node3&#45;&gt;Node8</title>
<g id="a_edge7_Node000003_Node000008"><a xlink:title=" ">
<path fill="none" stroke="#63b8ff" d="M1934.33,-115.37C1948.53,-106.04 1971.4,-91.01 1988.32,-79.88"/>
<polygon fill="#63b8ff" stroke="#63b8ff" points="1990.58,-82.58 1997.01,-74.17 1986.74,-76.74 1990.58,-82.58"/>
</a>
</g>
</g>
<!-- Node10&#45;&gt;Node9 -->
<g id="edge10_Node000010_Node000009" class="edge">
<title>Node10&#45;&gt;Node9</title>
<g id="a_edge10_Node000010_Node000009"><a xlink:title=" ">
<path fill="none" stroke="#63b8ff" d="M102.29,-115.34C130.31,-100.63 190.21,-70.85 244.2,-55 302.26,-37.96 369.21,-26.97 422.75,-20.18"/>
<polygon fill="#63b8ff" stroke="#63b8ff" points="423.43,-23.63 432.92,-18.92 422.57,-16.68 423.43,-23.63"/>
</a>
</g>
</g>
<!-- Node10&#45;&gt;Node11 -->
<g id="edge11_Node000010_Node000011" class="edge">
<title>Node10&#45;&gt;Node11</title>
<g id="a_edge11_Node000010_Node000011"><a xlink:title=" ">
<path fill="none" stroke="#63b8ff" d="M67.37,-115.35C42,-102.56 2.1,-77.64 21.2,-55 45.67,-25.99 147.44,-15.89 216.16,-12.38"/>
<polygon fill="#63b8ff" stroke="#63b8ff" points="216.64,-15.86 226.46,-11.88 216.31,-8.86 216.64,-15.86"/>
</a>
</g>
</g>
<!-- Node12 -->
<g id="Node000012" class="node">
<title>Node12</title>
<g id="a_Node000012"><a xlink:title=" ">
<polygon fill="#e0e0e0" stroke="#999999" points="154.2,-74 30.2,-74 30.2,-55 154.2,-55 154.2,-74"/>
<text text-anchor="middle" x="92.2" y="-62" font-family="Helvetica,sans-Serif" font-size="10.00">AMReX_Interpolater.H</text>
</a>
</g>
</g>
<!-- Node10&#45;&gt;Node12 -->
<g id="edge12_Node000010_Node000012" class="edge">
<title>Node10&#45;&gt;Node12</title>
<g id="a_edge12_Node000010_Node000012"><a xlink:title=" ">
<path fill="none" stroke="#63b8ff" d="M87.09,-115.37C87.92,-107.25 89.19,-94.81 90.26,-84.39"/>
<polygon fill="#63b8ff" stroke="#63b8ff" points="93.77,-84.47 91.31,-74.17 86.81,-83.76 93.77,-84.47"/>
</a>
</g>
</g>
<!-- Node13&#45;&gt;Node5 -->
<g id="edge15_Node000013_Node000005" class="edge">
<title>Node13&#45;&gt;Node5</title>
<g id="a_edge15_Node000013_Node000005"><a xlink:title=" ">
<path fill="none" stroke="#63b8ff" d="M630.81,-184.34C784.37,-183.23 1146.7,-176.58 1448.2,-140 1572.05,-124.97 1715.9,-93.15 1787.27,-76.37"/>
<polygon fill="#63b8ff" stroke="#63b8ff" points="1788.33,-79.72 1797.26,-74.01 1786.72,-72.9 1788.33,-79.72"/>
</a>
</g>
</g>
<!-- Node13&#45;&gt;Node9 -->
<g id="edge16_Node000013_Node000009" class="edge">
<title>Node13&#45;&gt;Node9</title>
<g id="a_edge16_Node000013_Node000009"><a xlink:title=" ">
<path fill="none" stroke="#63b8ff" d="M562.7,-175.58C572.18,-161.38 587.7,-132.93 578.2,-110 569.54,-89.09 554.07,-93.26 542.2,-74 533.63,-60.1 528.14,-42.31 524.93,-29.1"/>
<polygon fill="#63b8ff" stroke="#63b8ff" points="528.33,-28.27 522.75,-19.26 521.5,-29.78 528.33,-28.27"/>
</a>
</g>
</g>
<!-- Node13&#45;&gt;Node10 -->
<g id="edge17_Node000013_Node000010" class="edge">
<title>Node13&#45;&gt;Node10</title>
<g id="a_edge17_Node000013_Node000010"><a xlink:title=" ">
<path fill="none" stroke="#63b8ff" d="M481.58,-176.81C404.3,-168.62 280.12,-154.81 173.2,-140 164.61,-138.81 155.56,-137.46 146.68,-136.08"/>
<polygon fill="#63b8ff" stroke="#63b8ff" points="147.17,-132.62 136.75,-134.52 146.08,-139.53 147.17,-132.62"/>
</a>
</g>
</g>
<!-- Node13&#45;&gt;Node11 -->
<g id="edge54_Node000013_Node000011" class="edge">
<title>Node13&#45;&gt;Node11</title>
<g id="a_edge54_Node000013_Node000011"><a xlink:title=" ">
<path fill="none" stroke="#63b8ff" d="M481.62,-184.14C402.41,-181.98 284.75,-173.09 256.2,-140 228.76,-108.19 253.49,-55.46 269.71,-28.13"/>
<polygon fill="#63b8ff" stroke="#63b8ff" points="272.89,-29.65 275.19,-19.3 266.94,-25.96 272.89,-29.65"/>
</a>
</g>
</g>
<!-- Node14 -->
<g id="Node000014" class="node">
<title>Node14</title>
<g id="a_Node000014"><a xlink:title=" ">
<polygon fill="#e0e0e0" stroke="#999999" points="1111.2,-19 1067.2,-19 1067.2,0 1111.2,0 1111.2,-19"/>
<text text-anchor="middle" x="1089.2" y="-7" font-family="Helvetica,sans-Serif" font-size="10.00">string</text>
</a>
</g>
</g>
<!-- Node13&#45;&gt;Node14 -->
<g id="edge14_Node000013_Node000014" class="edge">
<title>Node13&#45;&gt;Node14</title>
<g id="a_edge14_Node000013_Node000014"><a xlink:title=" ">
<path fill="none" stroke="#63b8ff" d="M631.02,-182.55C715.64,-178.96 857.04,-168.8 975.2,-140 1053.54,-120.91 1098.72,-140.59 1144.2,-74 1156.75,-55.62 1134.79,-36.58 1115,-24.21"/>
<polygon fill="#63b8ff" stroke="#63b8ff" points="1116.59,-21.08 1106.2,-19.02 1113.04,-27.11 1116.59,-21.08"/>
</a>
</g>
</g>
<!-- Node15 -->
<g id="Node000015" class="node">
<title>Node15</title>
<g id="a_Node000015"><a xlink:href="_field_8_h.html" target="_top" xlink:title=" ">
<polygon fill="white" stroke="#666666" points="1439.2,-134.5 1315.2,-134.5 1315.2,-115.5 1439.2,-115.5 1439.2,-134.5"/>
<text text-anchor="middle" x="1377.2" y="-122.5" font-family="Helvetica,sans-Serif" font-size="10.00">amr&#45;wind/core/Field.H</text>
</a>
</g>
</g>
<!-- Node13&#45;&gt;Node15 -->
<g id="edge18_Node000013_Node000015" class="edge">
<title>Node13&#45;&gt;Node15</title>
<g id="a_edge18_Node000013_Node000015"><a xlink:title=" ">
<path fill="none" stroke="#63b8ff" d="M630.87,-181.72C761.66,-176.43 1040.61,-163.33 1275.2,-140 1286.62,-138.86 1298.72,-137.42 1310.45,-135.89"/>
<polygon fill="#63b8ff" stroke="#63b8ff" points="1311.19,-139.32 1320.64,-134.53 1310.26,-132.38 1311.19,-139.32"/>
</a>
</g>
</g>
<!-- Node22 -->
<g id="Node000022" class="node">
<title>Node22</title>
<g id="a_Node000022"><a xlink:href="_int_field_8_h.html" target="_top" xlink:title=" ">
<polygon fill="white" stroke="#666666" points="402.7,-134.5 265.7,-134.5 265.7,-115.5 402.7,-115.5 402.7,-134.5"/>
<text text-anchor="middle" x="334.2" y="-122.5" font-family="Helvetica,sans-Serif" font-size="10.00">amr&#45;wind/core/IntField.H</text>
</a>
</g>
</g>
<!-- Node13&#45;&gt;Node22 -->
<g id="edge33_Node000013_Node000022" class="edge">
<title>Node13&#45;&gt;Node22</title>
<g id="a_edge33_Node000013_Node000022"><a xlink:title=" ">
<path fill="none" stroke="#63b8ff" d="M523.92,-175.99C484.95,-165.73 419.32,-148.43 376.38,-137.12"/>
<polygon fill="#63b8ff" stroke="#63b8ff" points="377.08,-133.68 366.52,-134.52 375.3,-140.45 377.08,-133.68"/>
</a>
</g>
</g>
<!-- Node23 -->
<g id="Node000023" class="node">
<title>Node23</title>
<g id="a_Node000023"><a xlink:title=" ">
<polygon fill="#e0e0e0" stroke="#999999" points="474.2,-74 362.2,-74 362.2,-55 474.2,-55 474.2,-74"/>
<text text-anchor="middle" x="418.2" y="-62" font-family="Helvetica,sans-Serif" font-size="10.00">AMReX_iMultiFab.H</text>
</a>
</g>
</g>
<!-- Node13&#45;&gt;Node23 -->
<g id="edge55_Node000013_Node000023" class="edge">
<title>Node13&#45;&gt;Node23</title>
<g id="a_edge55_Node000013_Node000023"><a xlink:title=" ">
<path fill="none" stroke="#63b8ff" d="M517.57,-175.97C495.46,-169.37 468.55,-158.2 450.2,-140 434.77,-124.7 426.31,-100.76 422.03,-84.17"/>
<polygon fill="#63b8ff" stroke="#63b8ff" points="425.35,-83 419.7,-74.05 418.53,-84.58 425.35,-83"/>
</a>
</g>
</g>
<!-- Node24 -->
<g id="Node000024" class="node">
<title>Node24</title>
<g id="a_Node000024"><a xlink:href="_scratch_field_8_h.html" target="_top" xlink:title=" ">
<polygon fill="white" stroke="#666666" points="966.2,-134.5 806.2,-134.5 806.2,-115.5 966.2,-115.5 966.2,-134.5"/>
<text text-anchor="middle" x="886.2" y="-122.5" font-family="Helvetica,sans-Serif" font-size="10.00">amr&#45;wind/core/ScratchField.H</text>
</a>
</g>
</g>
<!-- Node13&#45;&gt;Node24 -->
<g id="edge37_Node000013_Node000024" class="edge">
<title>Node13&#45;&gt;Node24</title>
<g id="a_edge37_Node000013_Node000024"><a xlink:title=" ">
<path fill="none" stroke="#63b8ff" d="M604.18,-175.99C663.57,-165.47 764.63,-147.55 828.28,-136.27"/>
<polygon fill="#63b8ff" stroke="#63b8ff" points="828.92,-139.71 838.16,-134.52 827.7,-132.82 828.92,-139.71"/>
</a>
</g>
</g>
<!-- Node27 -->
<g id="Node000027" class="node">
<title>Node27</title>
<g id="a_Node000027"><a xlink:href="_int_scratch_field_8_h.html" target="_top" xlink:title=" ">
<polygon fill="white" stroke="#666666" points="764.7,-140 625.7,-140 625.7,-110 764.7,-110 764.7,-140"/>
<text text-anchor="start" x="633.7" y="-128" font-family="Helvetica,sans-Serif" font-size="10.00">amr&#45;wind/core/IntScratch</text>
<text text-anchor="middle" x="695.2" y="-117" font-family="Helvetica,sans-Serif" font-size="10.00">Field.H</text>
</a>
</g>
</g>
<!-- Node13&#45;&gt;Node27 -->
<g id="edge45_Node000013_Node000027" class="edge">
<title>Node13&#45;&gt;Node27</title>
<g id="a_edge45_Node000013_Node000027"><a xlink:title=" ">
<path fill="none" stroke="#63b8ff" d="M576.41,-175.99C596.24,-167.65 627.1,-154.66 652.39,-144.02"/>
<polygon fill="#63b8ff" stroke="#63b8ff" points="653.92,-147.17 661.78,-140.06 651.21,-140.72 653.92,-147.17"/>
</a>
</g>
</g>
<!-- Node28 -->
<g id="Node000028" class="node">
<title>Node28</title>
<g id="a_Node000028"><a xlink:title=" ">
<polygon fill="#e0e0e0" stroke="#999999" points="569.2,-134.5 459.2,-134.5 459.2,-115.5 569.2,-115.5 569.2,-134.5"/>
<text text-anchor="middle" x="514.2" y="-122.5" font-family="Helvetica,sans-Serif" font-size="10.00">AMReX_AmrCore.H</text>
</a>
</g>
</g>
<!-- Node13&#45;&gt;Node28 -->
<g id="edge53_Node000013_Node000028" class="edge">
<title>Node13&#45;&gt;Node28</title>
<g id="a_edge53_Node000013_Node000028"><a xlink:title=" ">
<path fill="none" stroke="#63b8ff" d="M550,-175.87C543.8,-167.23 534.09,-153.7 526.34,-142.92"/>
<polygon fill="#63b8ff" stroke="#63b8ff" points="529.1,-140.75 520.42,-134.67 523.41,-144.83 529.1,-140.75"/>
</a>
</g>
</g>
<!-- Node15&#45;&gt;Node4 -->
<g id="edge20_Node000015_Node000004" class="edge">
<title>Node15&#45;&gt;Node4</title>
<g id="a_edge20_Node000015_Node000004"><a xlink:title=" ">
<path fill="none" stroke="#63b8ff" d="M1439.33,-115.63C1502.36,-106.86 1602.92,-92.1 1699.28,-74.07"/>
<polygon fill="#63b8ff" stroke="#63b8ff" points="1700.02,-77.49 1709.2,-72.2 1698.72,-70.61 1700.02,-77.49"/>
</a>
</g>
</g>
<!-- Node15&#45;&gt;Node5 -->
<g id="edge21_Node000015_Node000005" class="edge">
<title>Node15&#45;&gt;Node5</title>
<g id="a_edge21_Node000015_Node000005"><a xlink:title=" ">
<path fill="none" stroke="#63b8ff" d="M1439.47,-116.7C1515.96,-107.63 1649.96,-91.36 1775.3,-74.09"/>
<polygon fill="#63b8ff" stroke="#63b8ff" points="1776.04,-77.52 1785.46,-72.69 1775.08,-70.59 1776.04,-77.52"/>
</a>
</g>
</g>
<!-- Node15&#45;&gt;Node9 -->
<g id="edge27_Node000015_Node000009" class="edge">
<title>Node15&#45;&gt;Node9</title>
<g id="a_edge27_Node000015_Node000009"><a xlink:title=" ">
<path fill="none" stroke="#63b8ff" d="M1352.48,-115.39C1308.15,-100.36 1211.96,-69.53 1128.2,-55 950.66,-24.2 740.31,-14.69 619.63,-11.77"/>
<polygon fill="#63b8ff" stroke="#63b8ff" points="619.39,-8.26 609.31,-11.53 619.23,-15.26 619.39,-8.26"/>
</a>
</g>
</g>
<!-- Node15&#45;&gt;Node11 -->
<g id="edge23_Node000015_Node000011" class="edge">
<title>Node15&#45;&gt;Node11</title>
<g id="a_edge23_Node000015_Node000011"><a xlink:title=" ">
<path fill="none" stroke="#63b8ff" d="M1315.1,-118.16C1233.76,-110.13 1086.82,-94.34 962.2,-74 920.99,-67.27 911.55,-60.81 870.2,-55 770.58,-41.01 477.73,-22.33 346.32,-14.36"/>
<polygon fill="#63b8ff" stroke="#63b8ff" points="346.2,-10.85 336.01,-13.74 345.78,-17.83 346.2,-10.85"/>
</a>
</g>
</g>
<!-- Node15&#45;&gt;Node14 -->
<g id="edge19_Node000015_Node000014" class="edge">
<title>Node15&#45;&gt;Node14</title>
<g id="a_edge19_Node000015_Node000014"><a xlink:title=" ">
<path fill="none" stroke="#63b8ff" d="M1367.22,-115.41C1349.75,-100.82 1311.99,-71.2 1275.2,-55 1223.81,-32.37 1159.16,-20.22 1121.18,-14.58"/>
<polygon fill="#63b8ff" stroke="#63b8ff" points="1121.61,-11.1 1111.21,-13.16 1120.62,-18.03 1121.61,-11.1"/>
</a>
</g>
</g>
<!-- Node16 -->
<g id="Node000016" class="node">
<title>Node16</title>
<g id="a_Node000016"><a xlink:title=" ">
<polygon fill="#e0e0e0" stroke="#999999" points="1961.2,-74 1897.2,-74 1897.2,-55 1961.2,-55 1961.2,-74"/>
<text text-anchor="middle" x="1929.2" y="-62" font-family="Helvetica,sans-Serif" font-size="10.00">algorithm</text>
</a>
</g>
</g>
<!-- Node15&#45;&gt;Node16 -->
<g id="edge22_Node000015_Node000016" class="edge">
<title>Node15&#45;&gt;Node16</title>
<g id="a_edge22_Node000015_Node000016"><a xlink:title=" ">
<path fill="none" stroke="#63b8ff" d="M1439.21,-120.08C1533.75,-113.63 1719.71,-99.08 1887.05,-74.02"/>
<polygon fill="#63b8ff" stroke="#63b8ff" points="1887.67,-77.47 1897.03,-72.51 1886.62,-70.54 1887.67,-77.47"/>
</a>
</g>
</g>
<!-- Node17 -->
<g id="Node000017" class="node">
<title>Node17</title>
<g id="a_Node000017"><a xlink:title=" ">
<polygon fill="#e0e0e0" stroke="#999999" points="1426.7,-74 1327.7,-74 1327.7,-55 1426.7,-55 1426.7,-74"/>
<text text-anchor="middle" x="1377.2" y="-62" font-family="Helvetica,sans-Serif" font-size="10.00">AMReX_BCRec.H</text>
</a>
</g>
</g>
<!-- Node15&#45;&gt;Node17 -->
<g id="edge24_Node000015_Node000017" class="edge">
<title>Node15&#45;&gt;Node17</title>
<g id="a_edge24_Node000015_Node000017"><a xlink:title=" ">
<path fill="none" stroke="#63b8ff" d="M1377.2,-115.37C1377.2,-107.25 1377.2,-94.81 1377.2,-84.39"/>
<polygon fill="#63b8ff" stroke="#63b8ff" points="1380.7,-84.17 1377.2,-74.17 1373.7,-84.17 1380.7,-84.17"/>
</a>
</g>
</g>
<!-- Node18 -->
<g id="Node000018" class="node">
<title>Node18</title>
<g id="a_Node000018"><a xlink:title=" ">
<polygon fill="#e0e0e0" stroke="#999999" points="1531.7,-74 1444.7,-74 1444.7,-55 1531.7,-55 1531.7,-74"/>
<text text-anchor="middle" x="1488.2" y="-62" font-family="Helvetica,sans-Serif" font-size="10.00">AMReX_Gpu.H</text>
</a>
</g>
</g>
<!-- Node15&#45;&gt;Node18 -->
<g id="edge25_Node000015_Node000018" class="edge">
<title>Node15&#45;&gt;Node18</title>
<g id="a_edge25_Node000015_Node000018"><a xlink:title=" ">
<path fill="none" stroke="#63b8ff" d="M1393.58,-115.37C1411.78,-105.78 1441.4,-90.17 1462.65,-78.97"/>
<polygon fill="#63b8ff" stroke="#63b8ff" points="1464.54,-81.93 1471.75,-74.17 1461.28,-75.73 1464.54,-81.93"/>
</a>
</g>
</g>
<!-- Node19 -->
<g id="Node000019" class="node">
<title>Node19</title>
<g id="a_Node000019"><a xlink:href="incflo__enums_8_h.html" target="_top" xlink:title=" ">
<polygon fill="white" stroke="#666666" points="1690.7,-74 1549.7,-74 1549.7,-55 1690.7,-55 1690.7,-74"/>
<text text-anchor="middle" x="1620.2" y="-62" font-family="Helvetica,sans-Serif" font-size="10.00">amr&#45;wind/incflo_enums.H</text>
</a>
</g>
</g>
<!-- Node15&#45;&gt;Node19 -->
<g id="edge26_Node000015_Node000019" class="edge">
<title>Node15&#45;&gt;Node19</title>
<g id="a_edge26_Node000015_Node000019"><a xlink:title=" ">
<path fill="none" stroke="#63b8ff" d="M1412.53,-115.49C1455.46,-105.16 1527.94,-87.71 1574.92,-76.4"/>
<polygon fill="#63b8ff" stroke="#63b8ff" points="1575.92,-79.76 1584.82,-74.02 1574.28,-72.95 1575.92,-79.76"/>
</a>
</g>
</g>
<!-- Node20 -->
<g id="Node000020" class="node">
<title>Node20</title>
<g id="a_Node000020"><a xlink:href="_view_field_8_h.html" target="_top" xlink:title=" ">
<polygon fill="white" stroke="#666666" points="1119.2,-74 971.2,-74 971.2,-55 1119.2,-55 1119.2,-74"/>
<text text-anchor="middle" x="1045.2" y="-62" font-family="Helvetica,sans-Serif" font-size="10.00">amr&#45;wind/core/ViewField.H</text>
</a>
</g>
</g>
<!-- Node15&#45;&gt;Node20 -->
<g id="edge28_Node000015_Node000020" class="edge">
<title>Node15&#45;&gt;Node20</title>
<g id="a_edge28_Node000015_Node000020"><a xlink:title=" ">
<path fill="none" stroke="#63b8ff" d="M1328.92,-115.49C1269.18,-104.97 1167.51,-87.05 1103.48,-75.77"/>
<polygon fill="#63b8ff" stroke="#63b8ff" points="1103.99,-72.31 1093.53,-74.02 1102.77,-79.2 1103.99,-72.31"/>
</a>
</g>
</g>
<!-- Node20&#45;&gt;Node9 -->
<g id="edge30_Node000020_Node000009" class="edge">
<title>Node20&#45;&gt;Node9</title>
<g id="a_edge30_Node000020_Node000009"><a xlink:title=" ">
<path fill="none" stroke="#63b8ff" d="M970.96,-55.99C877.65,-46.55 717.4,-30.34 615.51,-20.04"/>
<polygon fill="#63b8ff" stroke="#63b8ff" points="615.83,-16.55 605.53,-19.03 615.13,-23.52 615.83,-16.55"/>
</a>
</g>
</g>
<!-- Node20&#45;&gt;Node11 -->
<g id="edge31_Node000020_Node000011" class="edge">
<title>Node20&#45;&gt;Node11</title>
<g id="a_edge31_Node000020_Node000011"><a xlink:title=" ">
<path fill="none" stroke="#63b8ff" d="M970.8,-56.15C966.2,-55.75 961.64,-55.36 957.2,-55 839.64,-45.46 491.37,-23.55 346.04,-14.51"/>
<polygon fill="#63b8ff" stroke="#63b8ff" points="346.13,-11.01 335.93,-13.89 345.69,-18 346.13,-11.01"/>
</a>
</g>
</g>
<!-- Node20&#45;&gt;Node14 -->
<g id="edge29_Node000020_Node000014" class="edge">
<title>Node20&#45;&gt;Node14</title>
<g id="a_edge29_Node000020_Node000014"><a xlink:title=" ">
<path fill="none" stroke="#63b8ff" d="M1052.47,-54.75C1058.74,-47.18 1067.99,-36.05 1075.63,-26.84"/>
<polygon fill="#63b8ff" stroke="#63b8ff" points="1078.37,-29.02 1082.07,-19.09 1072.99,-24.55 1078.37,-29.02"/>
</a>
</g>
</g>
<!-- Node20&#45;&gt;Node21 -->
<g id="edge32_Node000020_Node000021" class="edge">
<title>Node20&#45;&gt;Node21</title>
<g id="a_edge32_Node000020_Node000021"><a xlink:title=" ">
<path fill="none" stroke="#63b8ff" d="M1073.8,-54.98C1103.81,-46.05 1151.18,-31.94 1184.52,-22.02"/>
<polygon fill="#63b8ff" stroke="#63b8ff" points="1185.79,-25.29 1194.38,-19.08 1183.79,-18.58 1185.79,-25.29"/>
</a>
</g>
</g>
<!-- Node22&#45;&gt;Node9 -->
<g id="edge35_Node000022_Node000009" class="edge">
<title>Node22&#45;&gt;Node9</title>
<g id="a_edge35_Node000022_Node000009"><a xlink:title=" ">
<path fill="none" stroke="#63b8ff" d="M328.44,-115.32C319.81,-101.12 305.97,-72.73 320.2,-55 333.75,-38.13 379.45,-27.26 423.86,-20.49"/>
<polygon fill="#63b8ff" stroke="#63b8ff" points="424.51,-23.93 433.9,-19.02 423.5,-17.01 424.51,-23.93"/>
</a>
</g>
</g>
<!-- Node22&#45;&gt;Node14 -->
<g id="edge34_Node000022_Node000014" class="edge">
<title>Node22&#45;&gt;Node14</title>
<g id="a_edge34_Node000022_Node000014"><a xlink:title=" ">
<path fill="none" stroke="#63b8ff" d="M333.67,-115.09C333.31,-100.03 335.05,-69.71 353.2,-55 380.88,-32.56 917.47,-15.48 1056.52,-11.42"/>
<polygon fill="#63b8ff" stroke="#63b8ff" points="1057.03,-14.91 1066.92,-11.12 1056.83,-7.91 1057.03,-14.91"/>
</a>
</g>
</g>
<!-- Node22&#45;&gt;Node23 -->
<g id="edge36_Node000022_Node000023" class="edge">
<title>Node22&#45;&gt;Node23</title>
<g id="a_edge36_Node000022_Node000023"><a xlink:title=" ">
<path fill="none" stroke="#63b8ff" d="M346.59,-115.37C359.99,-106.04 381.58,-91.01 397.55,-79.88"/>
<polygon fill="#63b8ff" stroke="#63b8ff" points="399.55,-82.75 405.75,-74.17 395.55,-77.01 399.55,-82.75"/>
</a>
</g>
</g>
<!-- Node24&#45;&gt;Node9 -->
<g id="edge40_Node000024_Node000009" class="edge">
<title>Node24&#45;&gt;Node9</title>
<g id="a_edge40_Node000024_Node000009"><a xlink:title=" ">
<path fill="none" stroke="#63b8ff" d="M888.62,-115.45C892.16,-100.91 896.76,-71.37 881.2,-55 863.37,-36.25 720.05,-23.23 619.72,-16.32"/>
<polygon fill="#63b8ff" stroke="#63b8ff" points="619.76,-12.81 609.54,-15.62 619.28,-19.79 619.76,-12.81"/>
</a>
</g>
</g>
<!-- Node24&#45;&gt;Node11 -->
<g id="edge42_Node000024_Node000011" class="edge">
<title>Node24&#45;&gt;Node11</title>
<g id="a_edge42_Node000024_Node000011"><a xlink:title=" ">
<path fill="none" stroke="#63b8ff" d="M884.28,-115.41C880.39,-100.27 870.04,-69.08 848.2,-55 837.75,-48.26 492.76,-24.58 346.11,-14.79"/>
<polygon fill="#63b8ff" stroke="#63b8ff" points="346.12,-11.28 335.91,-14.11 345.65,-18.26 346.12,-11.28"/>
</a>
</g>
</g>
<!-- Node24&#45;&gt;Node14 -->
<g id="edge38_Node000024_Node000014" class="edge">
<title>Node24&#45;&gt;Node14</title>
<g id="a_edge38_Node000024_Node000014"><a xlink:title=" ">
<path fill="none" stroke="#63b8ff" d="M966.49,-118.15C1028.82,-111.74 1107.95,-98.86 1128.2,-74 1140.61,-58.77 1124.57,-39.26 1109.47,-25.91"/>
<polygon fill="#63b8ff" stroke="#63b8ff" points="1111.29,-22.88 1101.36,-19.19 1106.83,-28.27 1111.29,-22.88"/>
</a>
</g>
</g>
<!-- Node24&#45;&gt;Node20 -->
<g id="edge41_Node000024_Node000020" class="edge">
<title>Node24&#45;&gt;Node20</title>
<g id="a_edge41_Node000024_Node000020"><a xlink:title=" ">
<path fill="none" stroke="#63b8ff" d="M909.32,-115.49C936.52,-105.49 981.87,-88.8 1012.62,-77.49"/>
<polygon fill="#63b8ff" stroke="#63b8ff" points="1013.88,-80.75 1022.05,-74.02 1011.46,-74.18 1013.88,-80.75"/>
</a>
</g>
</g>
<!-- Node24&#45;&gt;Node21 -->
<g id="edge43_Node000024_Node000021" class="edge">
<title>Node24&#45;&gt;Node21</title>
<g id="a_edge43_Node000024_Node000021"><a xlink:title=" ">
<path fill="none" stroke="#63b8ff" d="M966.31,-118.52C1018.87,-112.54 1088.01,-100.06 1144.2,-74 1169.25,-62.38 1193.28,-41.14 1208.12,-26.45"/>
<polygon fill="#63b8ff" stroke="#63b8ff" points="1210.87,-28.65 1215.37,-19.06 1205.87,-23.75 1210.87,-28.65"/>
</a>
</g>
</g>
<!-- Node25 -->
<g id="Node000025" class="node">
<title>Node25</title>
<g id="a_Node000025"><a xlink:title=" ">
<polygon fill="#e0e0e0" stroke="#999999" points="838.7,-74 793.7,-74 793.7,-55 838.7,-55 838.7,-74"/>
<text text-anchor="middle" x="816.2" y="-62" font-family="Helvetica,sans-Serif" font-size="10.00">utility</text>
</a>
</g>
</g>
<!-- Node24&#45;&gt;Node25 -->
<g id="edge39_Node000024_Node000025" class="edge">
<title>Node24&#45;&gt;Node25</title>
<g id="a_edge39_Node000024_Node000025"><a xlink:title=" ">
<path fill="none" stroke="#63b8ff" d="M875.87,-115.37C865.01,-106.3 847.71,-91.84 834.53,-80.82"/>
<polygon fill="#63b8ff" stroke="#63b8ff" points="836.49,-77.89 826.57,-74.17 832,-83.27 836.49,-77.89"/>
</a>
</g>
</g>
<!-- Node26 -->
<g id="Node000026" class="node">
<title>Node26</title>
<g id="a_Node000026"><a xlink:title=" ">
<polygon fill="#e0e0e0" stroke="#999999" points="775.7,-74 644.7,-74 644.7,-55 775.7,-55 775.7,-74"/>
<text text-anchor="middle" x="710.2" y="-62" font-family="Helvetica,sans-Serif" font-size="10.00">AMReX_PhysBCFunct.H</text>
</a>
</g>
</g>
<!-- Node24&#45;&gt;Node26 -->
<g id="edge44_Node000024_Node000026" class="edge">
<title>Node24&#45;&gt;Node26</title>
<g id="a_edge44_Node000024_Node000026"><a xlink:title=" ">
<path fill="none" stroke="#63b8ff" d="M860.61,-115.49C830.24,-105.4 779.44,-88.51 745.38,-77.19"/>
<polygon fill="#63b8ff" stroke="#63b8ff" points="746.42,-73.85 735.82,-74.02 744.21,-80.49 746.42,-73.85"/>
</a>
</g>
</g>
<!-- Node27&#45;&gt;Node9 -->
<g id="edge48_Node000027_Node000009" class="edge">
<title>Node27&#45;&gt;Node9</title>
<g id="a_edge48_Node000027_Node000009"><a xlink:title=" ">
<path fill="none" stroke="#63b8ff" d="M636.45,-109.99C612.33,-102.2 585.19,-90.63 564.2,-74 548.75,-61.76 536.79,-42.43 529.45,-28.32"/>
<polygon fill="#63b8ff" stroke="#63b8ff" points="532.49,-26.56 524.93,-19.13 526.2,-29.65 532.49,-26.56"/>
</a>
</g>
</g>
<!-- Node27&#45;&gt;Node14 -->
<g id="edge46_Node000027_Node000014" class="edge">
<title>Node27&#45;&gt;Node14</title>
<g id="a_edge46_Node000027_Node000014"><a xlink:title=" ">
<path fill="none" stroke="#63b8ff" d="M650.44,-109.89C617.53,-97.27 581.8,-77.35 602.2,-55 632.85,-21.43 953.07,-12.88 1056.9,-10.99"/>
<polygon fill="#63b8ff" stroke="#63b8ff" points="1057.15,-14.48 1067.09,-10.81 1057.03,-7.48 1057.15,-14.48"/>
</a>
</g>
</g>
<!-- Node27&#45;&gt;Node20 -->
<g id="edge49_Node000027_Node000020" class="edge">
<title>Node27&#45;&gt;Node20</title>
<g id="a_edge49_Node000027_Node000020"><a xlink:title=" ">
<path fill="none" stroke="#63b8ff" d="M764.77,-112.37C828.88,-101.66 923.09,-85.91 984.3,-75.68"/>
<polygon fill="#63b8ff" stroke="#63b8ff" points="984.91,-79.12 994.2,-74.02 983.76,-72.22 984.91,-79.12"/>
</a>
</g>
</g>
<!-- Node27&#45;&gt;Node21 -->
<g id="edge51_Node000027_Node000021" class="edge">
<title>Node27&#45;&gt;Node21</title>
<g id="a_edge51_Node000027_Node000021"><a xlink:title=" ">
<path fill="none" stroke="#63b8ff" d="M669.29,-109.96C646.38,-95.81 619.04,-73.48 636.2,-55 672.89,-15.48 1066.44,-23.22 1120.2,-19 1134.31,-17.89 1149.5,-16.66 1163.76,-15.49"/>
<polygon fill="#63b8ff" stroke="#63b8ff" points="1164.28,-18.96 1173.96,-14.65 1163.7,-11.98 1164.28,-18.96"/>
</a>
</g>
</g>
<!-- Node27&#45;&gt;Node23 -->
<g id="edge50_Node000027_Node000023" class="edge">
<title>Node27&#45;&gt;Node23</title>
<g id="a_edge50_Node000027_Node000023"><a xlink:title=" ">
<path fill="none" stroke="#63b8ff" d="M628.85,-109.99C579.6,-99.59 513.46,-85.62 468.52,-76.13"/>
<polygon fill="#63b8ff" stroke="#63b8ff" points="469.21,-72.7 458.7,-74.05 467.76,-79.54 469.21,-72.7"/>
</a>
</g>
</g>
<!-- Node27&#45;&gt;Node25 -->
<g id="edge47_Node000027_Node000025" class="edge">
<title>Node27&#45;&gt;Node25</title>
<g id="a_edge47_Node000027_Node000025"><a xlink:title=" ">
<path fill="none" stroke="#63b8ff" d="M724.18,-109.99C743.92,-100.45 769.87,-87.9 789.17,-78.57"/>
<polygon fill="#63b8ff" stroke="#63b8ff" points="790.85,-81.64 798.33,-74.14 787.8,-75.34 790.85,-81.64"/>
</a>
</g>
</g>
<!-- Node27&#45;&gt;Node26 -->
<g id="edge52_Node000027_Node000026" class="edge">
<title>Node27&#45;&gt;Node26</title>
<g id="a_edge52_Node000027_Node000026"><a xlink:title=" ">
<path fill="none" stroke="#63b8ff" d="M698.83,-109.84C700.81,-102.13 703.28,-92.49 705.41,-84.17"/>
<polygon fill="#63b8ff" stroke="#63b8ff" points="708.86,-84.82 707.95,-74.27 702.08,-83.08 708.86,-84.82"/>
</a>
</g>
</g>
<!-- Node29&#45;&gt;Node16 -->
<g id="edge62_Node000029_Node000016" class="edge">
<title>Node29&#45;&gt;Node16</title>
<g id="a_edge62_Node000029_Node000016"><a xlink:title=" ">
<path fill="none" stroke="#63b8ff" d="M2160.69,-236.48C2206.43,-227.09 2259.24,-208.77 2236.2,-176 2204.91,-131.48 2047.67,-91.55 1971.16,-74.39"/>
<polygon fill="#63b8ff" stroke="#63b8ff" points="1971.88,-70.97 1961.36,-72.22 1970.36,-77.8 1971.88,-70.97"/>
</a>
</g>
</g>
<!-- Node29&#45;&gt;Node21 -->
<g id="edge61_Node000029_Node000021" class="edge">
<title>Node29&#45;&gt;Node21</title>
<g id="a_edge61_Node000029_Node000021"><a xlink:title=" ">
<path fill="none" stroke="#63b8ff" d="M2050.51,-236.48C1989.09,-226.02 1894.61,-208.05 1884.2,-195 1878.94,-188.4 1879.13,-182.75 1884.2,-176 1896.43,-159.72 2223.97,-90.28 2236.2,-74 2241.27,-67.25 2242.04,-61.1 2236.2,-55 2203.1,-20.41 1494.53,-12.47 1282.57,-10.87"/>
<polygon fill="#63b8ff" stroke="#63b8ff" points="1282.29,-7.37 1272.27,-10.79 1282.24,-14.37 1282.29,-7.37"/>
</a>
</g>
</g>
<!-- Node29&#45;&gt;Node30 -->
<g id="edge58_Node000029_Node000030" class="edge">
<title>Node29&#45;&gt;Node30</title>
<g id="a_edge58_Node000029_Node000030"><a xlink:title=" ">
<path fill="none" stroke="#63b8ff" d="M2057.83,-236.49C2001.91,-226.01 1906.92,-208.2 1846.71,-196.91"/>
<polygon fill="#63b8ff" stroke="#63b8ff" points="1847.1,-193.42 1836.62,-195.02 1845.81,-200.3 1847.1,-193.42"/>
</a>
</g>
</g>
<!-- Node31 -->
<g id="Node000031" class="node">
<title>Node31</title>
<g id="a_Node000031"><a xlink:title=" ">
<polygon fill="#e0e0e0" stroke="#999999" points="2027.2,-195 1893.2,-195 1893.2,-176 2027.2,-176 2027.2,-195"/>
<text text-anchor="middle" x="1960.2" y="-183" font-family="Helvetica,sans-Serif" font-size="10.00">AMReX_GpuQualifiers.H</text>
</a>
</g>
</g>
<!-- Node29&#45;&gt;Node31 -->
<g id="edge59_Node000029_Node000031" class="edge">
<title>Node29&#45;&gt;Node31</title>
<g id="a_edge59_Node000029_Node000031"><a xlink:title=" ">
<path fill="none" stroke="#63b8ff" d="M2082.41,-236.49C2058.26,-226.62 2018.22,-210.23 1990.59,-198.93"/>
<polygon fill="#63b8ff" stroke="#63b8ff" points="1991.6,-195.56 1981.02,-195.02 1988.95,-202.04 1991.6,-195.56"/>
</a>
</g>
</g>
<!-- Node32 -->
<g id="Node000032" class="node">
<title>Node32</title>
<g id="a_Node000032"><a xlink:title=" ">
<polygon fill="#e0e0e0" stroke="#999999" points="2161.2,-195 2045.2,-195 2045.2,-176 2161.2,-176 2161.2,-195"/>
<text text-anchor="middle" x="2103.2" y="-183" font-family="Helvetica,sans-Serif" font-size="10.00">AMReX_Extension.H</text>
</a>
</g>
</g>
<!-- Node29&#45;&gt;Node32 -->
<g id="edge60_Node000029_Node000032" class="edge">
<title>Node29&#45;&gt;Node32</title>
<g id="a_edge60_Node000029_Node000032"><a xlink:title=" ">
<path fill="none" stroke="#63b8ff" d="M2103.2,-236.37C2103.2,-228.25 2103.2,-215.81 2103.2,-205.39"/>
<polygon fill="#63b8ff" stroke="#63b8ff" points="2106.7,-205.17 2103.2,-195.17 2099.7,-205.17 2106.7,-205.17"/>
</a>
</g>
</g>
<!-- Node33 -->
<g id="Node000033" class="node">
<title>Node33</title>
<g id="a_Node000033"><a xlink:title=" ">
<polygon fill="#e0e0e0" stroke="#999999" points="2226.7,-195 2179.7,-195 2179.7,-176 2226.7,-176 2226.7,-195"/>
<text text-anchor="middle" x="2203.2" y="-183" font-family="Helvetica,sans-Serif" font-size="10.00">cmath</text>
</a>
</g>
</g>
<!-- Node29&#45;&gt;Node33 -->
<g id="edge63_Node000029_Node000033" class="edge">
<title>Node29&#45;&gt;Node33</title>
<g id="a_edge63_Node000029_Node000033"><a xlink:title=" ">
<path fill="none" stroke="#63b8ff" d="M2117.96,-236.37C2134.2,-226.86 2160.55,-211.45 2179.66,-200.27"/>
<polygon fill="#63b8ff" stroke="#63b8ff" points="2181.52,-203.24 2188.38,-195.17 2177.99,-197.2 2181.52,-203.24"/>
</a>
</g>
</g>
</g>
</svg>
