<?xml version="1.0" encoding="UTF-8" standalone="no"?>
<!DOCTYPE svg PUBLIC "-//W3C//DTD SVG 1.1//EN"
 "http://www.w3.org/Graphics/SVG/1.1/DTD/svg11.dtd">
<!-- Generated by graphviz version 2.43.0 (0)
 -->
<!-- Title: Graphical Class Hierarchy Pages: 1 -->
<svg width="420pt" height="1190pt"
 viewBox="0.00 0.00 420.00 1190.00" xmlns="http://www.w3.org/2000/svg" xmlns:xlink="http://www.w3.org/1999/xlink">
<g id="graph0" class="graph" transform="scale(1 1) rotate(0) translate(4 1186)">
<title>Graphical Class Hierarchy</title>
<!-- Node0 -->
<g id="Node000000" class="node">
<title>Node0</title>
<g id="a_Node000000"><a xlink:href="classamr__wind_1_1_a_b_l_mesoscale_forcing.html" target="_top" xlink:title=" ">
<polygon fill="white" stroke="#666666" points="176,-288.5 0,-288.5 0,-269.5 176,-269.5 176,-288.5"/>
<text text-anchor="middle" x="88" y="-276.5" font-family="Helvetica,sans-Serif" font-size="10.00">amr_wind::ABLMesoscaleForcing</text>
</a>
</g>
</g>
<!-- Node1 -->
<g id="Node000001" class="node">
<title>Node1</title>
<g id="a_Node000001"><a xlink:href="classamr__wind_1_1pde_1_1icns_1_1_a_b_l_meso_forcing_mom.html" target="_top" xlink:title=" ">
<polygon fill="white" stroke="#666666" points="376,-318 248,-318 248,-288 376,-288 376,-318"/>
<text text-anchor="start" x="256" y="-306" font-family="Helvetica,sans-Serif" font-size="10.00">amr_wind::pde::icns</text>
<text text-anchor="middle" x="312" y="-295" font-family="Helvetica,sans-Serif" font-size="10.00">::ABLMesoForcingMom</text>
</a>
</g>
</g>
<!-- Node0&#45;&gt;Node1 -->
<g id="edge3_Node000000_Node000001" class="edge">
<title>Node0&#45;&gt;Node1</title>
<g id="a_edge3_Node000000_Node000001"><a xlink:title=" ">
<path fill="none" stroke="#63b8ff" d="M186.28,-289.52C207.14,-291.77 228.66,-294.1 247.82,-296.17"/>
<polygon fill="#63b8ff" stroke="#63b8ff" points="186.42,-286.01 176.1,-288.42 185.67,-292.97 186.42,-286.01"/>
</a>
</g>
</g>
<!-- Node21 -->
<g id="Node000021" class="node">
<title>Node21</title>
<g id="a_Node000021"><a xlink:href="classamr__wind_1_1pde_1_1temperature_1_1_a_b_l_meso_forcing_temp.html" target="_top" xlink:title=" ">
<polygon fill="white" stroke="#666666" points="389.5,-270 234.5,-270 234.5,-240 389.5,-240 389.5,-270"/>
<text text-anchor="start" x="242.5" y="-258" font-family="Helvetica,sans-Serif" font-size="10.00">amr_wind::pde::temperature</text>
<text text-anchor="middle" x="312" y="-247" font-family="Helvetica,sans-Serif" font-size="10.00">::ABLMesoForcingTemp</text>
</a>
</g>
</g>
<!-- Node0&#45;&gt;Node21 -->
<g id="edge4_Node000000_Node000021" class="edge">
<title>Node0&#45;&gt;Node21</title>
<g id="a_edge4_Node000000_Node000021"><a xlink:title=" ">
<path fill="none" stroke="#63b8ff" d="M186.08,-268.51C202.19,-266.76 218.71,-264.98 234.24,-263.3"/>
<polygon fill="#63b8ff" stroke="#63b8ff" points="185.67,-265.03 176.1,-269.58 186.42,-271.99 185.67,-265.03"/>
</a>
</g>
</g>
<!-- Node2 -->
<g id="Node000002" class="node">
<title>Node2</title>
<g id="a_Node000002"><a xlink:title=" ">
<polygon fill="#e0e0e0" stroke="#999999" points="158.5,-755.5 17.5,-755.5 17.5,-714.5 158.5,-714.5 158.5,-755.5"/>
<text text-anchor="start" x="25.5" y="-743.5" font-family="Helvetica,sans-Serif" font-size="10.00">amr_wind::Factory&lt;</text>
<text text-anchor="start" x="25.5" y="-732.5" font-family="Helvetica,sans-Serif" font-size="10.00"> MomentumSource, const</text>
<text text-anchor="middle" x="88" y="-721.5" font-family="Helvetica,sans-Serif" font-size="10.00"> CFDSim &amp; &gt;::Register</text>
</a>
</g>
</g>
<!-- Node2&#45;&gt;Node1 -->
<g id="edge7_Node000002_Node000001" class="edge">
<title>Node2&#45;&gt;Node1</title>
<g id="a_edge7_Node000002_Node000001"><a xlink:title=" ">
<path fill="none" stroke="#63b8ff" d="M88.6,-704.14C89.37,-628.17 102.41,-430.73 212,-327 221.89,-317.64 234.79,-311.74 247.99,-308.06"/>
<polygon fill="#63b8ff" stroke="#63b8ff" points="85.09,-704.43 88.56,-714.45 92.09,-704.46 85.09,-704.43"/>
</a>
</g>
</g>
<!-- Node3 -->
<g id="Node000003" class="node">
<title>Node3</title>
<g id="a_Node000003"><a xlink:href="classamr__wind_1_1pde_1_1icns_1_1_a_b_l_forcing.html" target="_top" xlink:title=" ">
<polygon fill="white" stroke="#666666" points="369,-1182 255,-1182 255,-1152 369,-1152 369,-1182"/>
<text text-anchor="start" x="263" y="-1170" font-family="Helvetica,sans-Serif" font-size="10.00">amr_wind::pde::icns</text>
<text text-anchor="middle" x="312" y="-1159" font-family="Helvetica,sans-Serif" font-size="10.00">::ABLForcing</text>
</a>
</g>
</g>
<!-- Node2&#45;&gt;Node3 -->
<g id="edge5_Node000002_Node000003" class="edge">
<title>Node2&#45;&gt;Node3</title>
<g id="a_edge5_Node000002_Node000003"><a xlink:title=" ">
<path fill="none" stroke="#63b8ff" d="M88.6,-765.86C89.37,-841.83 102.41,-1039.27 212,-1143 223.62,-1154 239.4,-1160.22 254.94,-1163.67"/>
<polygon fill="#63b8ff" stroke="#63b8ff" points="92.09,-765.54 88.56,-755.55 85.09,-765.57 92.09,-765.54"/>
</a>
</g>
</g>
<!-- Node4 -->
<g id="Node000004" class="node">
<title>Node4</title>
<g id="a_Node000004"><a xlink:href="classamr__wind_1_1pde_1_1icns_1_1_a_b_l_mean_boussinesq.html" target="_top" xlink:title=" ">
<polygon fill="white" stroke="#666666" points="374,-1134 250,-1134 250,-1104 374,-1104 374,-1134"/>
<text text-anchor="start" x="258" y="-1122" font-family="Helvetica,sans-Serif" font-size="10.00">amr_wind::pde::icns</text>
<text text-anchor="middle" x="312" y="-1111" font-family="Helvetica,sans-Serif" font-size="10.00">::ABLMeanBoussinesq</text>
</a>
</g>
</g>
<!-- Node2&#45;&gt;Node4 -->
<g id="edge6_Node000002_Node000004" class="edge">
<title>Node2&#45;&gt;Node4</title>
<g id="a_edge6_Node000002_Node000004"><a xlink:title=" ">
<path fill="none" stroke="#63b8ff" d="M90.06,-766.06C94.18,-835.83 114.29,-1005.83 212,-1095 222.45,-1104.54 236.04,-1110.46 249.78,-1114.09"/>
<polygon fill="#63b8ff" stroke="#63b8ff" points="93.54,-765.56 89.52,-755.75 86.55,-765.92 93.54,-765.56"/>
</a>
</g>
</g>
<!-- Node5 -->
<g id="Node000005" class="node">
<title>Node5</title>
<g id="a_Node000005"><a xlink:href="classamr__wind_1_1pde_1_1icns_1_1_actuator_forcing.html" target="_top" xlink:title=" ">
<polygon fill="white" stroke="#666666" points="369,-1086 255,-1086 255,-1056 369,-1056 369,-1086"/>
<text text-anchor="start" x="263" y="-1074" font-family="Helvetica,sans-Serif" font-size="10.00">amr_wind::pde::icns</text>
<text text-anchor="middle" x="312" y="-1063" font-family="Helvetica,sans-Serif" font-size="10.00">::ActuatorForcing</text>
</a>
</g>
</g>
<!-- Node2&#45;&gt;Node5 -->
<g id="edge8_Node000002_Node000005" class="edge">
<title>Node2&#45;&gt;Node5</title>
<g id="a_edge8_Node000002_Node000005"><a xlink:title=" ">
<path fill="none" stroke="#63b8ff" d="M91.9,-765.88C99.52,-828.76 125.88,-971.99 212,-1047 223.94,-1057.4 239.63,-1063.46 254.99,-1066.94"/>
<polygon fill="#63b8ff" stroke="#63b8ff" points="95.37,-765.35 90.76,-755.81 88.41,-766.14 95.37,-765.35"/>
</a>
</g>
</g>
<!-- Node6 -->
<g id="Node000006" class="node">
<title>Node6</title>
<g id="a_Node000006"><a xlink:href="classamr__wind_1_1pde_1_1icns_1_1_body_force.html" target="_top" xlink:title=" ">
<polygon fill="white" stroke="#666666" points="369,-1038 255,-1038 255,-1008 369,-1008 369,-1038"/>
<text text-anchor="start" x="263" y="-1026" font-family="Helvetica,sans-Serif" font-size="10.00">amr_wind::pde::icns</text>
<text text-anchor="middle" x="312" y="-1015" font-family="Helvetica,sans-Serif" font-size="10.00">::BodyForce</text>
</a>
</g>
</g>
<!-- Node2&#45;&gt;Node6 -->
<g id="edge9_Node000002_Node000006" class="edge">
<title>Node2&#45;&gt;Node6</title>
<g id="a_edge9_Node000002_Node000006"><a xlink:title=" ">
<path fill="none" stroke="#63b8ff" d="M94.28,-765.42C105.53,-820.75 137.22,-937.74 212,-999 224.11,-1008.92 239.68,-1014.85 254.86,-1018.36"/>
<polygon fill="#63b8ff" stroke="#63b8ff" points="97.7,-764.67 92.35,-755.53 90.83,-766.01 97.7,-764.67"/>
</a>
</g>
</g>
<!-- Node7 -->
<g id="Node000007" class="node">
<title>Node7</title>
<g id="a_Node000007"><a xlink:href="classamr__wind_1_1pde_1_1icns_1_1_boussinesq_buoyancy.html" target="_top" xlink:title=" ">
<polygon fill="white" stroke="#666666" points="375,-990 249,-990 249,-960 375,-960 375,-990"/>
<text text-anchor="start" x="257" y="-978" font-family="Helvetica,sans-Serif" font-size="10.00">amr_wind::pde::icns</text>
<text text-anchor="middle" x="312" y="-967" font-family="Helvetica,sans-Serif" font-size="10.00">::BoussinesqBuoyancy</text>
</a>
</g>
</g>
<!-- Node2&#45;&gt;Node7 -->
<g id="edge10_Node000002_Node000007" class="edge">
<title>Node2&#45;&gt;Node7</title>
<g id="a_edge10_Node000002_Node000007"><a xlink:title=" ">
<path fill="none" stroke="#63b8ff" d="M97.66,-765.31C112.78,-812.55 148.57,-903.23 212,-951 222.74,-959.09 235.82,-964.49 248.92,-968.08"/>
<polygon fill="#63b8ff" stroke="#63b8ff" points="100.97,-764.17 94.67,-755.65 94.29,-766.24 100.97,-764.17"/>
</a>
</g>
</g>
<!-- Node8 -->
<g id="Node000008" class="node">
<title>Node8</title>
<g id="a_Node000008"><a xlink:href="classamr__wind_1_1pde_1_1icns_1_1_burggraf_flow_forcing.html" target="_top" xlink:title=" ">
<polygon fill="white" stroke="#666666" points="373.5,-942 250.5,-942 250.5,-912 373.5,-912 373.5,-942"/>
<text text-anchor="start" x="258.5" y="-930" font-family="Helvetica,sans-Serif" font-size="10.00">amr_wind::pde::icns</text>
<text text-anchor="middle" x="312" y="-919" font-family="Helvetica,sans-Serif" font-size="10.00">::BurggrafFlowForcing</text>
</a>
</g>
</g>
<!-- Node2&#45;&gt;Node8 -->
<g id="edge11_Node000002_Node000008" class="edge">
<title>Node2&#45;&gt;Node8</title>
<g id="a_edge11_Node000002_Node000008"><a xlink:title=" ">
<path fill="none" stroke="#63b8ff" d="M102.59,-764.77C121.56,-802.85 159.61,-868.05 212,-903 223.4,-910.61 236.97,-915.81 250.36,-919.36"/>
<polygon fill="#63b8ff" stroke="#63b8ff" points="105.71,-763.17 98.19,-755.71 99.41,-766.23 105.71,-763.17"/>
</a>
</g>
</g>
<!-- Node9 -->
<g id="Node000009" class="node">
<title>Node9</title>
<g id="a_Node000009"><a xlink:href="classamr__wind_1_1pde_1_1icns_1_1_coriolis_forcing.html" target="_top" xlink:title=" ">
<polygon fill="white" stroke="#666666" points="369,-894 255,-894 255,-864 369,-864 369,-894"/>
<text text-anchor="start" x="263" y="-882" font-family="Helvetica,sans-Serif" font-size="10.00">amr_wind::pde::icns</text>
<text text-anchor="middle" x="312" y="-871" font-family="Helvetica,sans-Serif" font-size="10.00">::CoriolisForcing</text>
</a>
</g>
</g>
<!-- Node2&#45;&gt;Node9 -->
<g id="edge12_Node000002_Node000009" class="edge">
<title>Node2&#45;&gt;Node9</title>
<g id="a_edge12_Node000002_Node000009"><a xlink:title=" ">
<path fill="none" stroke="#63b8ff" d="M110.89,-763.95C133.29,-791.51 170.6,-832.09 212,-855 225.08,-862.24 240.31,-867.31 254.84,-870.86"/>
<polygon fill="#63b8ff" stroke="#63b8ff" points="113.4,-761.48 104.43,-755.85 107.93,-765.85 113.4,-761.48"/>
</a>
</g>
</g>
<!-- Node10 -->
<g id="Node000010" class="node">
<title>Node10</title>
<g id="a_Node000010"><a xlink:href="classamr__wind_1_1pde_1_1icns_1_1_density_buoyancy.html" target="_top" xlink:title=" ">
<polygon fill="white" stroke="#666666" points="369,-846 255,-846 255,-816 369,-816 369,-846"/>
<text text-anchor="start" x="263" y="-834" font-family="Helvetica,sans-Serif" font-size="10.00">amr_wind::pde::icns</text>
<text text-anchor="middle" x="312" y="-823" font-family="Helvetica,sans-Serif" font-size="10.00">::DensityBuoyancy</text>
</a>
</g>
</g>
<!-- Node2&#45;&gt;Node10 -->
<g id="edge13_Node000002_Node000010" class="edge">
<title>Node2&#45;&gt;Node10</title>
<g id="a_edge13_Node000002_Node000010"><a xlink:title=" ">
<path fill="none" stroke="#63b8ff" d="M127.19,-761.28C150.75,-776.48 182.09,-794.93 212,-807 225.53,-812.46 240.62,-816.9 254.86,-820.4"/>
<polygon fill="#63b8ff" stroke="#63b8ff" points="128.85,-758.18 118.56,-755.64 125.02,-764.04 128.85,-758.18"/>
</a>
</g>
</g>
<!-- Node11 -->
<g id="Node000011" class="node">
<title>Node11</title>
<g id="a_Node000011"><a xlink:href="classamr__wind_1_1pde_1_1icns_1_1_drag_forcing.html" target="_top" xlink:title=" ">
<polygon fill="white" stroke="#666666" points="369,-798 255,-798 255,-768 369,-768 369,-798"/>
<text text-anchor="start" x="263" y="-786" font-family="Helvetica,sans-Serif" font-size="10.00">amr_wind::pde::icns</text>
<text text-anchor="middle" x="312" y="-775" font-family="Helvetica,sans-Serif" font-size="10.00">::DragForcing</text>
</a>
</g>
</g>
<!-- Node2&#45;&gt;Node11 -->
<g id="edge14_Node000002_Node000011" class="edge">
<title>Node2&#45;&gt;Node11</title>
<g id="a_edge14_Node000002_Node000011"><a xlink:title=" ">
<path fill="none" stroke="#63b8ff" d="M168.6,-752.21C197.19,-758.39 228.8,-765.23 254.97,-770.88"/>
<polygon fill="#63b8ff" stroke="#63b8ff" points="169.15,-748.75 158.63,-750.06 167.67,-755.59 169.15,-748.75"/>
</a>
</g>
</g>
<!-- Node12 -->
<g id="Node000012" class="node">
<title>Node12</title>
<g id="a_Node000012"><a xlink:href="classamr__wind_1_1pde_1_1icns_1_1_forest_forcing.html" target="_top" xlink:title=" ">
<polygon fill="white" stroke="#666666" points="369,-750 255,-750 255,-720 369,-720 369,-750"/>
<text text-anchor="start" x="263" y="-738" font-family="Helvetica,sans-Serif" font-size="10.00">amr_wind::pde::icns</text>
<text text-anchor="middle" x="312" y="-727" font-family="Helvetica,sans-Serif" font-size="10.00">::ForestForcing</text>
</a>
</g>
</g>
<!-- Node2&#45;&gt;Node12 -->
<g id="edge15_Node000002_Node000012" class="edge">
<title>Node2&#45;&gt;Node12</title>
<g id="a_edge15_Node000002_Node000012"><a xlink:title=" ">
<path fill="none" stroke="#63b8ff" d="M168.98,-735C197.47,-735 228.92,-735 254.97,-735"/>
<polygon fill="#63b8ff" stroke="#63b8ff" points="168.63,-731.5 158.63,-735 168.63,-738.5 168.63,-731.5"/>
</a>
</g>
</g>
<!-- Node13 -->
<g id="Node000013" class="node">
<title>Node13</title>
<g id="a_Node000013"><a xlink:href="classamr__wind_1_1pde_1_1icns_1_1_geostrophic_forcing.html" target="_top" xlink:title=" ">
<polygon fill="white" stroke="#666666" points="370,-702 254,-702 254,-672 370,-672 370,-702"/>
<text text-anchor="start" x="262" y="-690" font-family="Helvetica,sans-Serif" font-size="10.00">amr_wind::pde::icns</text>
<text text-anchor="middle" x="312" y="-679" font-family="Helvetica,sans-Serif" font-size="10.00">::GeostrophicForcing</text>
</a>
</g>
</g>
<!-- Node2&#45;&gt;Node13 -->
<g id="edge16_Node000002_Node000013" class="edge">
<title>Node2&#45;&gt;Node13</title>
<g id="a_edge16_Node000002_Node000013"><a xlink:title=" ">
<path fill="none" stroke="#63b8ff" d="M168.48,-717.82C196.71,-711.71 227.9,-704.97 253.88,-699.35"/>
<polygon fill="#63b8ff" stroke="#63b8ff" points="167.67,-714.41 158.63,-719.94 169.15,-721.25 167.67,-714.41"/>
</a>
</g>
</g>
<!-- Node14 -->
<g id="Node000014" class="node">
<title>Node14</title>
<g id="a_Node000014"><a xlink:href="classamr__wind_1_1pde_1_1icns_1_1_gravity_forcing.html" target="_top" xlink:title=" ">
<polygon fill="white" stroke="#666666" points="369,-654 255,-654 255,-624 369,-624 369,-654"/>
<text text-anchor="start" x="263" y="-642" font-family="Helvetica,sans-Serif" font-size="10.00">amr_wind::pde::icns</text>
<text text-anchor="middle" x="312" y="-631" font-family="Helvetica,sans-Serif" font-size="10.00">::GravityForcing</text>
</a>
</g>
</g>
<!-- Node2&#45;&gt;Node14 -->
<g id="edge17_Node000002_Node000014" class="edge">
<title>Node2&#45;&gt;Node14</title>
<g id="a_edge17_Node000002_Node000014"><a xlink:title=" ">
<path fill="none" stroke="#63b8ff" d="M127.19,-708.72C150.75,-693.52 182.09,-675.07 212,-663 225.53,-657.54 240.62,-653.1 254.86,-649.6"/>
<polygon fill="#63b8ff" stroke="#63b8ff" points="125.02,-705.96 118.56,-714.36 128.85,-711.82 125.02,-705.96"/>
</a>
</g>
</g>
<!-- Node15 -->
<g id="Node000015" class="node">
<title>Node15</title>
<g id="a_Node000015"><a xlink:href="classamr__wind_1_1pde_1_1icns_1_1_hurricane_forcing.html" target="_top" xlink:title=" ">
<polygon fill="white" stroke="#666666" points="369,-606 255,-606 255,-576 369,-576 369,-606"/>
<text text-anchor="start" x="263" y="-594" font-family="Helvetica,sans-Serif" font-size="10.00">amr_wind::pde::icns</text>
<text text-anchor="middle" x="312" y="-583" font-family="Helvetica,sans-Serif" font-size="10.00">::HurricaneForcing</text>
</a>
</g>
</g>
<!-- Node2&#45;&gt;Node15 -->
<g id="edge18_Node000002_Node000015" class="edge">
<title>Node2&#45;&gt;Node15</title>
<g id="a_edge18_Node000002_Node000015"><a xlink:title=" ">
<path fill="none" stroke="#63b8ff" d="M110.89,-706.05C133.29,-678.49 170.6,-637.91 212,-615 225.08,-607.76 240.31,-602.69 254.84,-599.14"/>
<polygon fill="#63b8ff" stroke="#63b8ff" points="107.93,-704.15 104.43,-714.15 113.4,-708.52 107.93,-704.15"/>
</a>
</g>
</g>
<!-- Node16 -->
<g id="Node000016" class="node">
<title>Node16</title>
<g id="a_Node000016"><a xlink:href="classamr__wind_1_1pde_1_1icns_1_1_non_linear_s_g_s_term.html" target="_top" xlink:title=" ">
<polygon fill="white" stroke="#666666" points="370,-558 254,-558 254,-528 370,-528 370,-558"/>
<text text-anchor="start" x="262" y="-546" font-family="Helvetica,sans-Serif" font-size="10.00">amr_wind::pde::icns</text>
<text text-anchor="middle" x="312" y="-535" font-family="Helvetica,sans-Serif" font-size="10.00">::NonLinearSGSTerm</text>
</a>
</g>
</g>
<!-- Node2&#45;&gt;Node16 -->
<g id="edge19_Node000002_Node000016" class="edge">
<title>Node2&#45;&gt;Node16</title>
<g id="a_edge19_Node000002_Node000016"><a xlink:title=" ">
<path fill="none" stroke="#63b8ff" d="M102.59,-705.23C121.56,-667.15 159.61,-601.95 212,-567 224.43,-558.71 239.44,-553.27 253.98,-549.72"/>
<polygon fill="#63b8ff" stroke="#63b8ff" points="99.41,-703.77 98.19,-714.29 105.71,-706.83 99.41,-703.77"/>
</a>
</g>
</g>
<!-- Node17 -->
<g id="Node000017" class="node">
<title>Node17</title>
<g id="a_Node000017"><a xlink:href="classamr__wind_1_1pde_1_1icns_1_1_rayleigh_damping.html" target="_top" xlink:title=" ">
<polygon fill="white" stroke="#666666" points="369,-510 255,-510 255,-480 369,-480 369,-510"/>
<text text-anchor="start" x="263" y="-498" font-family="Helvetica,sans-Serif" font-size="10.00">amr_wind::pde::icns</text>
<text text-anchor="middle" x="312" y="-487" font-family="Helvetica,sans-Serif" font-size="10.00">::RayleighDamping</text>
</a>
</g>
</g>
<!-- Node2&#45;&gt;Node17 -->
<g id="edge20_Node000002_Node000017" class="edge">
<title>Node2&#45;&gt;Node17</title>
<g id="a_edge20_Node000002_Node000017"><a xlink:title=" ">
<path fill="none" stroke="#63b8ff" d="M97.66,-704.69C112.78,-657.45 148.57,-566.77 212,-519 224.36,-509.69 239.84,-503.94 254.86,-500.41"/>
<polygon fill="#63b8ff" stroke="#63b8ff" points="94.29,-703.76 94.67,-714.35 100.97,-705.83 94.29,-703.76"/>
</a>
</g>
</g>
<!-- Node18 -->
<g id="Node000018" class="node">
<title>Node18</title>
<g id="a_Node000018"><a xlink:href="classamr__wind_1_1pde_1_1icns_1_1_synth_turb_forcing.html" target="_top" xlink:title=" ">
<polygon fill="white" stroke="#666666" points="369,-462 255,-462 255,-432 369,-432 369,-462"/>
<text text-anchor="start" x="263" y="-450" font-family="Helvetica,sans-Serif" font-size="10.00">amr_wind::pde::icns</text>
<text text-anchor="middle" x="312" y="-439" font-family="Helvetica,sans-Serif" font-size="10.00">::SynthTurbForcing</text>
</a>
</g>
</g>
<!-- Node2&#45;&gt;Node18 -->
<g id="edge21_Node000002_Node000018" class="edge">
<title>Node2&#45;&gt;Node18</title>
<g id="a_edge21_Node000002_Node000018"><a xlink:title=" ">
<path fill="none" stroke="#63b8ff" d="M94.28,-704.58C105.53,-649.25 137.22,-532.26 212,-471 224.11,-461.08 239.68,-455.15 254.86,-451.64"/>
<polygon fill="#63b8ff" stroke="#63b8ff" points="90.83,-703.99 92.35,-714.47 97.7,-705.33 90.83,-703.99"/>
</a>
</g>
</g>
<!-- Node19 -->
<g id="Node000019" class="node">
<title>Node19</title>
<g id="a_Node000019"><a xlink:href="classamr__wind_1_1pde_1_1icns_1_1_velocity_free_atmosphere_forcing.html" target="_top" xlink:title=" ">
<polygon fill="white" stroke="#666666" points="400.5,-414 223.5,-414 223.5,-384 400.5,-384 400.5,-414"/>
<text text-anchor="start" x="231.5" y="-402" font-family="Helvetica,sans-Serif" font-size="10.00">amr_wind::pde::icns</text>
<text text-anchor="middle" x="312" y="-391" font-family="Helvetica,sans-Serif" font-size="10.00">::VelocityFreeAtmosphereForcing</text>
</a>
</g>
</g>
<!-- Node2&#45;&gt;Node19 -->
<g id="edge22_Node000002_Node000019" class="edge">
<title>Node2&#45;&gt;Node19</title>
<g id="a_edge22_Node000002_Node000019"><a xlink:title=" ">
<path fill="none" stroke="#63b8ff" d="M91.9,-704.12C99.52,-641.24 125.88,-498.01 212,-423 215.87,-419.63 220.13,-416.72 224.65,-414.2"/>
<polygon fill="#63b8ff" stroke="#63b8ff" points="88.41,-703.86 90.76,-714.19 95.37,-704.65 88.41,-703.86"/>
</a>
</g>
</g>
<!-- Node20 -->
<g id="Node000020" class="node">
<title>Node20</title>
<g id="a_Node000020"><a xlink:href="classamr__wind_1_1pde_1_1icns_1_1mms_1_1_m_m_s_forcing.html" target="_top" xlink:title=" ">
<polygon fill="white" stroke="#666666" points="369,-366 255,-366 255,-336 369,-336 369,-366"/>
<text text-anchor="start" x="263" y="-354" font-family="Helvetica,sans-Serif" font-size="10.00">amr_wind::pde::icns</text>
<text text-anchor="middle" x="312" y="-343" font-family="Helvetica,sans-Serif" font-size="10.00">::mms::MMSForcing</text>
</a>
</g>
</g>
<!-- Node2&#45;&gt;Node20 -->
<g id="edge23_Node000002_Node000020" class="edge">
<title>Node2&#45;&gt;Node20</title>
<g id="a_edge23_Node000002_Node000020"><a xlink:title=" ">
<path fill="none" stroke="#63b8ff" d="M90.06,-703.94C94.18,-634.17 114.29,-464.17 212,-375 223.76,-364.27 239.48,-358.12 254.94,-354.65"/>
<polygon fill="#63b8ff" stroke="#63b8ff" points="86.55,-704.08 89.52,-714.25 93.54,-704.44 86.55,-704.08"/>
</a>
</g>
</g>
<!-- Node22 -->
<g id="Node000022" class="node">
<title>Node22</title>
<g id="a_Node000022"><a xlink:title=" ">
<polygon fill="#e0e0e0" stroke="#999999" points="166,-155.5 10,-155.5 10,-114.5 166,-114.5 166,-155.5"/>
<text text-anchor="start" x="18" y="-143.5" font-family="Helvetica,sans-Serif" font-size="10.00">amr_wind::Factory&lt;</text>
<text text-anchor="start" x="18" y="-132.5" font-family="Helvetica,sans-Serif" font-size="10.00"> TemperatureSource,</text>
<text text-anchor="middle" x="88" y="-121.5" font-family="Helvetica,sans-Serif" font-size="10.00"> const CFDSim &amp; &gt;::Register</text>
</a>
</g>
</g>
<!-- Node22&#45;&gt;Node21 -->
<g id="edge24_Node000022_Node000021" class="edge">
<title>Node22&#45;&gt;Node21</title>
<g id="a_edge24_Node000022_Node000021"><a xlink:title=" ">
<path fill="none" stroke="#63b8ff" d="M117.24,-162.81C140.75,-184.45 176.07,-213.63 212,-231 219.09,-234.43 226.7,-237.38 234.44,-239.94"/>
<polygon fill="#63b8ff" stroke="#63b8ff" points="119.43,-160.07 109.74,-155.79 114.65,-165.18 119.43,-160.07"/>
</a>
</g>
</g>
<!-- Node23 -->
<g id="Node000023" class="node">
<title>Node23</title>
<g id="a_Node000023"><a xlink:href="classamr__wind_1_1pde_1_1temperature_1_1_body_force.html" target="_top" xlink:title=" ">
<polygon fill="white" stroke="#666666" points="389.5,-222 234.5,-222 234.5,-192 389.5,-192 389.5,-222"/>
<text text-anchor="start" x="242.5" y="-210" font-family="Helvetica,sans-Serif" font-size="10.00">amr_wind::pde::temperature</text>
<text text-anchor="middle" x="312" y="-199" font-family="Helvetica,sans-Serif" font-size="10.00">::BodyForce</text>
</a>
</g>
</g>
<!-- Node22&#45;&gt;Node23 -->
<g id="edge25_Node000022_Node000023" class="edge">
<title>Node22&#45;&gt;Node23</title>
<g id="a_edge25_Node000022_Node000023"><a xlink:title=" ">
<path fill="none" stroke="#63b8ff" d="M146.71,-159.37C167.13,-167.49 190.39,-176.2 212,-183 222.12,-186.19 232.94,-189.2 243.56,-191.94"/>
<polygon fill="#63b8ff" stroke="#63b8ff" points="147.83,-156.04 137.25,-155.56 145.22,-162.54 147.83,-156.04"/>
</a>
</g>
</g>
<!-- Node24 -->
<g id="Node000024" class="node">
<title>Node24</title>
<g id="a_Node000024"><a xlink:href="classamr__wind_1_1pde_1_1temperature_1_1_drag_temp_forcing.html" target="_top" xlink:title=" ">
<polygon fill="white" stroke="#666666" points="389.5,-174 234.5,-174 234.5,-144 389.5,-144 389.5,-174"/>
<text text-anchor="start" x="242.5" y="-162" font-family="Helvetica,sans-Serif" font-size="10.00">amr_wind::pde::temperature</text>
<text text-anchor="middle" x="312" y="-151" font-family="Helvetica,sans-Serif" font-size="10.00">::DragTempForcing</text>
</a>
</g>
</g>
<!-- Node22&#45;&gt;Node24 -->
<g id="edge26_Node000022_Node000024" class="edge">
<title>Node22&#45;&gt;Node24</title>
<g id="a_edge26_Node000022_Node000024"><a xlink:title=" ">
<path fill="none" stroke="#63b8ff" d="M176.01,-144.41C195.32,-146.49 215.64,-148.69 234.49,-150.73"/>
<polygon fill="#63b8ff" stroke="#63b8ff" points="176.34,-140.92 166.02,-143.33 175.59,-147.88 176.34,-140.92"/>
</a>
</g>
</g>
<!-- Node25 -->
<g id="Node000025" class="node">
<title>Node25</title>
<g id="a_Node000025"><a xlink:href="classamr__wind_1_1pde_1_1temperature_1_1_hurricane_temp_forcing.html" target="_top" xlink:title=" ">
<polygon fill="white" stroke="#666666" points="389.5,-126 234.5,-126 234.5,-96 389.5,-96 389.5,-126"/>
<text text-anchor="start" x="242.5" y="-114" font-family="Helvetica,sans-Serif" font-size="10.00">amr_wind::pde::temperature</text>
<text text-anchor="middle" x="312" y="-103" font-family="Helvetica,sans-Serif" font-size="10.00">::HurricaneTempForcing</text>
</a>
</g>
</g>
<!-- Node22&#45;&gt;Node25 -->
<g id="edge27_Node000022_Node000025" class="edge">
<title>Node22&#45;&gt;Node25</title>
<g id="a_edge27_Node000022_Node000025"><a xlink:title=" ">
<path fill="none" stroke="#63b8ff" d="M176.01,-125.59C195.32,-123.51 215.64,-121.31 234.49,-119.27"/>
<polygon fill="#63b8ff" stroke="#63b8ff" points="175.59,-122.12 166.02,-126.67 176.34,-129.08 175.59,-122.12"/>
</a>
</g>
</g>
<!-- Node26 -->
<g id="Node000026" class="node">
<title>Node26</title>
<g id="a_Node000026"><a xlink:href="classamr__wind_1_1pde_1_1temperature_1_1_perturbation_forcing.html" target="_top" xlink:title=" ">
<polygon fill="white" stroke="#666666" points="389.5,-78 234.5,-78 234.5,-48 389.5,-48 389.5,-78"/>
<text text-anchor="start" x="242.5" y="-66" font-family="Helvetica,sans-Serif" font-size="10.00">amr_wind::pde::temperature</text>
<text text-anchor="middle" x="312" y="-55" font-family="Helvetica,sans-Serif" font-size="10.00">::PerturbationForcing</text>
</a>
</g>
</g>
<!-- Node22&#45;&gt;Node26 -->
<g id="edge28_Node000022_Node000026" class="edge">
<title>Node22&#45;&gt;Node26</title>
<g id="a_edge28_Node000022_Node000026"><a xlink:title=" ">
<path fill="none" stroke="#63b8ff" d="M146.71,-110.63C167.13,-102.51 190.39,-93.8 212,-87 222.12,-83.81 232.94,-80.8 243.56,-78.06"/>
<polygon fill="#63b8ff" stroke="#63b8ff" points="145.22,-107.46 137.25,-114.44 147.83,-113.96 145.22,-107.46"/>
</a>
</g>
</g>
<!-- Node27 -->
<g id="Node000027" class="node">
<title>Node27</title>
<g id="a_Node000027"><a xlink:href="classamr__wind_1_1pde_1_1temperature_1_1_temperature_free_atmosphere_forcing.html" target="_top" xlink:title=" ">
<polygon fill="white" stroke="#666666" points="412,-30 212,-30 212,0 412,0 412,-30"/>
<text text-anchor="start" x="220" y="-18" font-family="Helvetica,sans-Serif" font-size="10.00">amr_wind::pde::temperature</text>
<text text-anchor="middle" x="312" y="-7" font-family="Helvetica,sans-Serif" font-size="10.00">::TemperatureFreeAtmosphereForcing</text>
</a>
</g>
</g>
<!-- Node22&#45;&gt;Node27 -->
<g id="edge29_Node000022_Node000027" class="edge">
<title>Node22&#45;&gt;Node27</title>
<g id="a_edge29_Node000022_Node000027"><a xlink:title=" ">
<path fill="none" stroke="#63b8ff" d="M117.24,-107.19C140.75,-85.55 176.07,-56.37 212,-39 219.09,-35.57 226.7,-32.62 234.44,-30.06"/>
<polygon fill="#63b8ff" stroke="#63b8ff" points="114.65,-104.82 109.74,-114.21 119.43,-109.93 114.65,-104.82"/>
</a>
</g>
</g>
</g>
</svg>
