<?xml version="1.0" encoding="UTF-8" standalone="no"?>
<!DOCTYPE svg PUBLIC "-//W3C//DTD SVG 1.1//EN"
 "http://www.w3.org/Graphics/SVG/1.1/DTD/svg11.dtd">
<!-- Generated by graphviz version 2.43.0 (0)
 -->
<!-- Title: Graphical Class Hierarchy Pages: 1 -->
<svg width="318pt" height="134pt"
 viewBox="0.00 0.00 318.00 134.00" xmlns="http://www.w3.org/2000/svg" xmlns:xlink="http://www.w3.org/1999/xlink">
<g id="graph0" class="graph" transform="scale(1 1) rotate(0) translate(4 130)">
<title>Graphical Class Hierarchy</title>
<!-- Node0 -->
<g id="Node000000" class="node">
<title>Node0</title>
<g id="a_Node000000"><a xlink:href="structamr__wind_1_1ocean__waves_1_1_relax_zones_base_data.html" target="_top" xlink:title=" ">
<polygon fill="white" stroke="#666666" points="137,-78 0,-78 0,-48 137,-48 137,-78"/>
<text text-anchor="start" x="8" y="-66" font-family="Helvetica,sans-Serif" font-size="10.00">amr_wind::ocean_waves</text>
<text text-anchor="middle" x="68.5" y="-55" font-family="Helvetica,sans-Serif" font-size="10.00">::RelaxZonesBaseData</text>
</a>
</g>
</g>
<!-- Node1 -->
<g id="Node000001" class="node">
<title>Node1</title>
<g id="a_Node000001"><a xlink:href="structamr__wind_1_1ocean__waves_1_1_linear_waves_data.html" target="_top" xlink:title=" ">
<polygon fill="white" stroke="#666666" points="310,-126 173,-126 173,-96 310,-96 310,-126"/>
<text text-anchor="start" x="181" y="-114" font-family="Helvetica,sans-Serif" font-size="10.00">amr_wind::ocean_waves</text>
<text text-anchor="middle" x="241.5" y="-103" font-family="Helvetica,sans-Serif" font-size="10.00">::LinearWavesData</text>
</a>
</g>
</g>
<!-- Node0&#45;&gt;Node1 -->
<g id="edge174_Node000000_Node000001" class="edge">
<title>Node0&#45;&gt;Node1</title>
<g id="a_edge174_Node000000_Node000001"><a xlink:title=" ">
<path fill="none" stroke="#63b8ff" d="M132.87,-80.79C150.69,-85.79 169.88,-91.18 187.05,-96"/>
<polygon fill="#63b8ff" stroke="#63b8ff" points="133.71,-77.39 123.14,-78.06 131.82,-84.13 133.71,-77.39"/>
</a>
</g>
</g>
<!-- Node2 -->
<g id="Node000002" class="node">
<title>Node2</title>
<g id="a_Node000002"><a xlink:href="structamr__wind_1_1ocean__waves_1_1_stokes_waves_data.html" target="_top" xlink:title=" ">
<polygon fill="white" stroke="#666666" points="310,-78 173,-78 173,-48 310,-48 310,-78"/>
<text text-anchor="start" x="181" y="-66" font-family="Helvetica,sans-Serif" font-size="10.00">amr_wind::ocean_waves</text>
<text text-anchor="middle" x="241.5" y="-55" font-family="Helvetica,sans-Serif" font-size="10.00">::StokesWavesData</text>
</a>
</g>
</g>
<!-- Node0&#45;&gt;Node2 -->
<g id="edge175_Node000000_Node000002" class="edge">
<title>Node0&#45;&gt;Node2</title>
<g id="a_edge175_Node000000_Node000002"><a xlink:title=" ">
<path fill="none" stroke="#63b8ff" d="M147.1,-63C155.69,-63 164.39,-63 172.85,-63"/>
<polygon fill="#63b8ff" stroke="#63b8ff" points="147.08,-59.5 137.08,-63 147.08,-66.5 147.08,-59.5"/>
</a>
</g>
</g>
<!-- Node3 -->
<g id="Node000003" class="node">
<title>Node3</title>
<g id="a_Node000003"><a xlink:href="structamr__wind_1_1ocean__waves_1_1_w2_a_waves_data.html" target="_top" xlink:title=" ">
<polygon fill="white" stroke="#666666" points="310,-30 173,-30 173,0 310,0 310,-30"/>
<text text-anchor="start" x="181" y="-18" font-family="Helvetica,sans-Serif" font-size="10.00">amr_wind::ocean_waves</text>
<text text-anchor="middle" x="241.5" y="-7" font-family="Helvetica,sans-Serif" font-size="10.00">::W2AWavesData</text>
</a>
</g>
</g>
<!-- Node0&#45;&gt;Node3 -->
<g id="edge176_Node000000_Node000003" class="edge">
<title>Node0&#45;&gt;Node3</title>
<g id="a_edge176_Node000000_Node000003"><a xlink:title=" ">
<path fill="none" stroke="#63b8ff" d="M132.87,-45.21C150.69,-40.21 169.88,-34.82 187.05,-30"/>
<polygon fill="#63b8ff" stroke="#63b8ff" points="131.82,-41.87 123.14,-47.94 133.71,-48.61 131.82,-41.87"/>
</a>
</g>
</g>
</g>
</svg>
