<?xml version="1.0" encoding="UTF-8" standalone="no"?>
<!DOCTYPE svg PUBLIC "-//W3C//DTD SVG 1.1//EN"
 "http://www.w3.org/Graphics/SVG/1.1/DTD/svg11.dtd">
<!-- Generated by graphviz version 2.43.0 (0)
 -->
<!-- Title: Graphical Class Hierarchy Pages: 1 -->
<svg width="340pt" height="905pt"
 viewBox="0.00 0.00 340.00 904.50" xmlns="http://www.w3.org/2000/svg" xmlns:xlink="http://www.w3.org/1999/xlink">
<g id="graph0" class="graph" transform="scale(1 1) rotate(0) translate(4 900.5)">
<title>Graphical Class Hierarchy</title>
<!-- Node0 -->
<g id="Node000000" class="node">
<title>Node0</title>
<g id="a_Node000000"><a xlink:title=" ">
<polygon fill="#e0e0e0" stroke="#999999" points="123,-515.5 0,-515.5 0,-474.5 123,-474.5 123,-515.5"/>
<text text-anchor="start" x="8" y="-503.5" font-family="Helvetica,sans-Serif" font-size="10.00">amr_wind::Factory&lt;</text>
<text text-anchor="start" x="8" y="-492.5" font-family="Helvetica,sans-Serif" font-size="10.00"> Physics, CFDSim &amp; &gt;</text>
<text text-anchor="middle" x="61.5" y="-481.5" font-family="Helvetica,sans-Serif" font-size="10.00">::Register</text>
</a>
</g>
</g>
<!-- Node1 -->
<g id="Node000001" class="node">
<title>Node1</title>
<g id="a_Node000001"><a xlink:href="classamr__wind_1_1_rain_drop.html" target="_top" xlink:title=" ">
<polygon fill="white" stroke="#666666" points="303.5,-896.5 187.5,-896.5 187.5,-877.5 303.5,-877.5 303.5,-896.5"/>
<text text-anchor="middle" x="245.5" y="-884.5" font-family="Helvetica,sans-Serif" font-size="10.00">amr_wind::RainDrop</text>
</a>
</g>
</g>
<!-- Node0&#45;&gt;Node1 -->
<g id="edge89_Node000000_Node000001" class="edge">
<title>Node0&#45;&gt;Node1</title>
<g id="a_edge89_Node000000_Node000001"><a xlink:title=" ">
<path fill="none" stroke="#63b8ff" d="M66.28,-525.92C76.79,-606.69 108.9,-821.11 159,-869 166.79,-876.44 176.83,-881.14 187.28,-884.05"/>
<polygon fill="#63b8ff" stroke="#63b8ff" points="69.74,-525.35 65,-515.87 62.79,-526.24 69.74,-525.35"/>
</a>
</g>
</g>
<!-- Node2 -->
<g id="Node000002" class="node">
<title>Node2</title>
<g id="a_Node000002"><a xlink:href="classamr__wind_1_1_rayleigh_taylor.html" target="_top" xlink:title=" ">
<polygon fill="white" stroke="#666666" points="317,-859.5 174,-859.5 174,-840.5 317,-840.5 317,-859.5"/>
<text text-anchor="middle" x="245.5" y="-847.5" font-family="Helvetica,sans-Serif" font-size="10.00">amr_wind::RayleighTaylor</text>
</a>
</g>
</g>
<!-- Node0&#45;&gt;Node2 -->
<g id="edge90_Node000000_Node000002" class="edge">
<title>Node0&#45;&gt;Node2</title>
<g id="a_edge90_Node000000_Node000002"><a xlink:title=" ">
<path fill="none" stroke="#63b8ff" d="M61.54,-525.96C61.27,-592.48 70.61,-749.7 159,-832 163.33,-836.03 168.32,-839.25 173.68,-841.82"/>
<polygon fill="#63b8ff" stroke="#63b8ff" points="65.04,-525.76 61.66,-515.72 58.04,-525.68 65.04,-525.76"/>
</a>
</g>
</g>
<!-- Node3 -->
<g id="Node000003" class="node">
<title>Node3</title>
<g id="a_Node000003"><a xlink:href="classamr__wind_1_1_scalar_advection.html" target="_top" xlink:title=" ">
<polygon fill="white" stroke="#666666" points="320,-822.5 171,-822.5 171,-803.5 320,-803.5 320,-822.5"/>
<text text-anchor="middle" x="245.5" y="-810.5" font-family="Helvetica,sans-Serif" font-size="10.00">amr_wind::ScalarAdvection</text>
</a>
</g>
</g>
<!-- Node0&#45;&gt;Node3 -->
<g id="edge91_Node000000_Node000003" class="edge">
<title>Node0&#45;&gt;Node3</title>
<g id="a_edge91_Node000000_Node000003"><a xlink:title=" ">
<path fill="none" stroke="#63b8ff" d="M62.83,-526C65.27,-587.17 79.83,-723.64 159,-795 162.72,-798.35 166.9,-801.14 171.36,-803.45"/>
<polygon fill="#63b8ff" stroke="#63b8ff" points="66.33,-525.71 62.52,-515.83 59.33,-525.93 66.33,-525.71"/>
</a>
</g>
</g>
<!-- Node4 -->
<g id="Node000004" class="node">
<title>Node4</title>
<g id="a_Node000004"><a xlink:href="classamr__wind_1_1_sloshing_tank.html" target="_top" xlink:title=" ">
<polygon fill="white" stroke="#666666" points="312.5,-785.5 178.5,-785.5 178.5,-766.5 312.5,-766.5 312.5,-785.5"/>
<text text-anchor="middle" x="245.5" y="-773.5" font-family="Helvetica,sans-Serif" font-size="10.00">amr_wind::SloshingTank</text>
</a>
</g>
</g>
<!-- Node0&#45;&gt;Node4 -->
<g id="edge92_Node000000_Node000004" class="edge">
<title>Node0&#45;&gt;Node4</title>
<g id="a_edge92_Node000000_Node000004"><a xlink:title=" ">
<path fill="none" stroke="#63b8ff" d="M64.47,-526.1C69.75,-581.57 89.01,-697.43 159,-758 164.62,-762.86 171.22,-766.52 178.22,-769.27"/>
<polygon fill="#63b8ff" stroke="#63b8ff" points="67.94,-525.51 63.6,-515.84 60.96,-526.11 67.94,-525.51"/>
</a>
</g>
</g>
<!-- Node5 -->
<g id="Node000005" class="node">
<title>Node5</title>
<g id="a_Node000005"><a xlink:href="classamr__wind_1_1_synthetic_turbulence.html" target="_top" xlink:title=" ">
<polygon fill="white" stroke="#666666" points="330,-748.5 161,-748.5 161,-729.5 330,-729.5 330,-748.5"/>
<text text-anchor="middle" x="245.5" y="-736.5" font-family="Helvetica,sans-Serif" font-size="10.00">amr_wind::SyntheticTurbulence</text>
</a>
</g>
</g>
<!-- Node0&#45;&gt;Node5 -->
<g id="edge93_Node000000_Node000005" class="edge">
<title>Node0&#45;&gt;Node5</title>
<g id="a_edge93_Node000000_Node000005"><a xlink:title=" ">
<path fill="none" stroke="#63b8ff" d="M66.52,-525.64C74.67,-574.79 97.87,-670.81 159,-721 163.1,-724.37 167.68,-727.15 172.53,-729.45"/>
<polygon fill="#63b8ff" stroke="#63b8ff" points="69.96,-524.95 64.96,-515.61 63.04,-526.03 69.96,-524.95"/>
</a>
</g>
</g>
<!-- Node6 -->
<g id="Node000006" class="node">
<title>Node6</title>
<g id="a_Node000006"><a xlink:href="classamr__wind_1_1_taylor_green_vortex.html" target="_top" xlink:title=" ">
<polygon fill="white" stroke="#666666" points="326,-711.5 165,-711.5 165,-692.5 326,-692.5 326,-711.5"/>
<text text-anchor="middle" x="245.5" y="-699.5" font-family="Helvetica,sans-Serif" font-size="10.00">amr_wind::TaylorGreenVortex</text>
</a>
</g>
</g>
<!-- Node0&#45;&gt;Node6 -->
<g id="edge94_Node000000_Node000006" class="edge">
<title>Node0&#45;&gt;Node6</title>
<g id="a_edge94_Node000000_Node000006"><a xlink:title=" ">
<path fill="none" stroke="#63b8ff" d="M69.27,-525.3C80.38,-567.69 106.69,-643.98 159,-684 163.34,-687.32 168.15,-690.06 173.21,-692.32"/>
<polygon fill="#63b8ff" stroke="#63b8ff" points="72.65,-524.4 66.82,-515.55 65.86,-526.1 72.65,-524.4"/>
</a>
</g>
</g>
<!-- Node7 -->
<g id="Node000007" class="node">
<title>Node7</title>
<g id="a_Node000007"><a xlink:href="classamr__wind_1_1_vortex_dipole.html" target="_top" xlink:title=" ">
<polygon fill="white" stroke="#666666" points="312.5,-674.5 178.5,-674.5 178.5,-655.5 312.5,-655.5 312.5,-674.5"/>
<text text-anchor="middle" x="245.5" y="-662.5" font-family="Helvetica,sans-Serif" font-size="10.00">amr_wind::VortexDipole</text>
</a>
</g>
</g>
<!-- Node0&#45;&gt;Node7 -->
<g id="edge95_Node000000_Node000007" class="edge">
<title>Node0&#45;&gt;Node7</title>
<g id="a_edge95_Node000000_Node000007"><a xlink:title=" ">
<path fill="none" stroke="#63b8ff" d="M73.36,-525.41C87.49,-560.41 115.63,-616.93 159,-647 164.86,-651.06 171.45,-654.24 178.3,-656.72"/>
<polygon fill="#63b8ff" stroke="#63b8ff" points="76.48,-523.76 69.58,-515.72 69.95,-526.3 76.48,-523.76"/>
</a>
</g>
</g>
<!-- Node8 -->
<g id="Node000008" class="node">
<title>Node8</title>
<g id="a_Node000008"><a xlink:href="classamr__wind_1_1_vortex_patch.html" target="_top" xlink:title=" ">
<polygon fill="white" stroke="#666666" points="309.5,-637.5 181.5,-637.5 181.5,-618.5 309.5,-618.5 309.5,-637.5"/>
<text text-anchor="middle" x="245.5" y="-625.5" font-family="Helvetica,sans-Serif" font-size="10.00">amr_wind::VortexPatch</text>
</a>
</g>
</g>
<!-- Node0&#45;&gt;Node8 -->
<g id="edge96_Node000000_Node000008" class="edge">
<title>Node0&#45;&gt;Node8</title>
<g id="a_edge96_Node000000_Node000008"><a xlink:title=" ">
<path fill="none" stroke="#63b8ff" d="M79.1,-524.2C95.8,-550.8 124.05,-589.05 159,-610 165.9,-614.13 173.6,-617.33 181.48,-619.79"/>
<polygon fill="#63b8ff" stroke="#63b8ff" points="82.09,-522.37 73.89,-515.66 76.11,-526.02 82.09,-522.37"/>
</a>
</g>
</g>
<!-- Node9 -->
<g id="Node000009" class="node">
<title>Node9</title>
<g id="a_Node000009"><a xlink:href="classamr__wind_1_1_vortex_patch_scalar_vel.html" target="_top" xlink:title=" ">
<polygon fill="white" stroke="#666666" points="332,-600.5 159,-600.5 159,-581.5 332,-581.5 332,-600.5"/>
<text text-anchor="middle" x="245.5" y="-588.5" font-family="Helvetica,sans-Serif" font-size="10.00">amr_wind::VortexPatchScalarVel</text>
</a>
</g>
</g>
<!-- Node0&#45;&gt;Node9 -->
<g id="edge97_Node000000_Node000009" class="edge">
<title>Node0&#45;&gt;Node9</title>
<g id="a_edge97_Node000000_Node000009"><a xlink:title=" ">
<path fill="none" stroke="#63b8ff" d="M89.65,-522.87C107.76,-539.86 132.95,-560.62 159,-573 166.12,-576.39 173.88,-579.14 181.72,-581.38"/>
<polygon fill="#63b8ff" stroke="#63b8ff" points="91.98,-520.25 82.34,-515.85 87.13,-525.3 91.98,-520.25"/>
</a>
</g>
</g>
<!-- Node10 -->
<g id="Node000010" class="node">
<title>Node10</title>
<g id="a_Node000010"><a xlink:href="classamr__wind_1_1_vortex_ring.html" target="_top" xlink:title=" ">
<polygon fill="white" stroke="#666666" points="307.5,-563.5 183.5,-563.5 183.5,-544.5 307.5,-544.5 307.5,-563.5"/>
<text text-anchor="middle" x="245.5" y="-551.5" font-family="Helvetica,sans-Serif" font-size="10.00">amr_wind::VortexRing</text>
</a>
</g>
</g>
<!-- Node0&#45;&gt;Node10 -->
<g id="edge98_Node000000_Node000010" class="edge">
<title>Node0&#45;&gt;Node10</title>
<g id="a_edge98_Node000000_Node000010"><a xlink:title=" ">
<path fill="none" stroke="#63b8ff" d="M115.46,-519.68C129.42,-525.58 144.61,-531.48 159,-536 169.27,-539.23 180.43,-542.05 191.18,-544.45"/>
<polygon fill="#63b8ff" stroke="#63b8ff" points="116.59,-516.36 106.02,-515.61 113.82,-522.79 116.59,-516.36"/>
</a>
</g>
</g>
<!-- Node11 -->
<g id="Node000011" class="node">
<title>Node11</title>
<g id="a_Node000011"><a xlink:href="classamr__wind_1_1_zalesak_disk.html" target="_top" xlink:title=" ">
<polygon fill="white" stroke="#666666" points="311,-526.5 180,-526.5 180,-507.5 311,-507.5 311,-526.5"/>
<text text-anchor="middle" x="245.5" y="-514.5" font-family="Helvetica,sans-Serif" font-size="10.00">amr_wind::ZalesakDisk</text>
</a>
</g>
</g>
<!-- Node0&#45;&gt;Node11 -->
<g id="edge99_Node000000_Node000011" class="edge">
<title>Node0&#45;&gt;Node11</title>
<g id="a_edge99_Node000000_Node000011"><a xlink:title=" ">
<path fill="none" stroke="#63b8ff" d="M133.07,-503.53C148.45,-505.39 164.65,-507.35 179.79,-509.18"/>
<polygon fill="#63b8ff" stroke="#63b8ff" points="133.45,-500.05 123.1,-502.33 132.61,-507 133.45,-500.05"/>
</a>
</g>
</g>
<!-- Node12 -->
<g id="Node000012" class="node">
<title>Node12</title>
<g id="a_Node000012"><a xlink:href="classamr__wind_1_1actuator_1_1_actuator.html" target="_top" xlink:title=" ">
<polygon fill="white" stroke="#666666" points="301,-489 190,-489 190,-459 301,-459 301,-489"/>
<text text-anchor="start" x="198" y="-477" font-family="Helvetica,sans-Serif" font-size="10.00">amr_wind::actuator</text>
<text text-anchor="middle" x="245.5" y="-466" font-family="Helvetica,sans-Serif" font-size="10.00">::Actuator</text>
</a>
</g>
</g>
<!-- Node0&#45;&gt;Node12 -->
<g id="edge100_Node000000_Node000012" class="edge">
<title>Node0&#45;&gt;Node12</title>
<g id="a_edge100_Node000000_Node000012"><a xlink:title=" ">
<path fill="none" stroke="#63b8ff" d="M133.14,-486.85C152.01,-484.67 172.12,-482.35 189.98,-480.29"/>
<polygon fill="#63b8ff" stroke="#63b8ff" points="132.64,-483.38 123.1,-488.01 133.44,-490.34 132.64,-483.38"/>
</a>
</g>
</g>
<!-- Node13 -->
<g id="Node000013" class="node">
<title>Node13</title>
<g id="a_Node000013"><a xlink:href="classamr__wind_1_1burggraf_1_1_burggraf_flow.html" target="_top" xlink:title=" ">
<polygon fill="white" stroke="#666666" points="301.5,-441 189.5,-441 189.5,-411 301.5,-411 301.5,-441"/>
<text text-anchor="start" x="197.5" y="-429" font-family="Helvetica,sans-Serif" font-size="10.00">amr_wind::burggraf</text>
<text text-anchor="middle" x="245.5" y="-418" font-family="Helvetica,sans-Serif" font-size="10.00">::BurggrafFlow</text>
</a>
</g>
</g>
<!-- Node0&#45;&gt;Node13 -->
<g id="edge101_Node000000_Node000013" class="edge">
<title>Node0&#45;&gt;Node13</title>
<g id="a_edge101_Node000000_Node000013"><a xlink:title=" ">
<path fill="none" stroke="#63b8ff" d="M111.8,-470.13C126.74,-463.1 143.35,-455.8 159,-450 168.69,-446.41 179.16,-443.05 189.34,-440.06"/>
<polygon fill="#63b8ff" stroke="#63b8ff" points="110.25,-466.99 102.73,-474.45 113.26,-473.31 110.25,-466.99"/>
</a>
</g>
</g>
<!-- Node14 -->
<g id="Node000014" class="node">
<title>Node14</title>
<g id="a_Node000014"><a xlink:href="classamr__wind_1_1channel__flow_1_1_channel_flow.html" target="_top" xlink:title=" ">
<polygon fill="white" stroke="#666666" points="312.5,-393 178.5,-393 178.5,-363 312.5,-363 312.5,-393"/>
<text text-anchor="start" x="186.5" y="-381" font-family="Helvetica,sans-Serif" font-size="10.00">amr_wind::channel_flow</text>
<text text-anchor="middle" x="245.5" y="-370" font-family="Helvetica,sans-Serif" font-size="10.00">::ChannelFlow</text>
</a>
</g>
</g>
<!-- Node0&#45;&gt;Node14 -->
<g id="edge102_Node000000_Node000014" class="edge">
<title>Node0&#45;&gt;Node14</title>
<g id="a_edge102_Node000000_Node000014"><a xlink:title=" ">
<path fill="none" stroke="#63b8ff" d="M85.43,-466.31C103.4,-445.63 130.13,-418.54 159,-402 165.02,-398.55 171.57,-395.57 178.27,-393.01"/>
<polygon fill="#63b8ff" stroke="#63b8ff" points="82.56,-464.28 78.75,-474.17 87.89,-468.82 82.56,-464.28"/>
</a>
</g>
</g>
<!-- Node15 -->
<g id="Node000015" class="node">
<title>Node15</title>
<g id="a_Node000015"><a xlink:href="classamr__wind_1_1ctv_1_1_convecting_taylor_vortex.html" target="_top" xlink:title=" ">
<polygon fill="white" stroke="#666666" points="318.5,-345 172.5,-345 172.5,-315 318.5,-315 318.5,-345"/>
<text text-anchor="start" x="180.5" y="-333" font-family="Helvetica,sans-Serif" font-size="10.00">amr_wind::ctv::Convecting</text>
<text text-anchor="middle" x="245.5" y="-322" font-family="Helvetica,sans-Serif" font-size="10.00">TaylorVortex</text>
</a>
</g>
</g>
<!-- Node0&#45;&gt;Node15 -->
<g id="edge103_Node000000_Node000015" class="edge">
<title>Node0&#45;&gt;Node15</title>
<g id="a_edge103_Node000000_Node000015"><a xlink:title=" ">
<path fill="none" stroke="#63b8ff" d="M75.35,-464.99C90.66,-432.81 119.24,-382.51 159,-354 163.76,-350.59 168.99,-347.66 174.45,-345.14"/>
<polygon fill="#63b8ff" stroke="#63b8ff" points="72.04,-463.81 71.03,-474.35 78.4,-466.74 72.04,-463.81"/>
</a>
</g>
</g>
<!-- Node16 -->
<g id="Node000016" class="node">
<title>Node16</title>
<g id="a_Node000016"><a xlink:href="classamr__wind_1_1forestdrag_1_1_forest_drag.html" target="_top" xlink:title=" ">
<polygon fill="white" stroke="#666666" points="306,-297 185,-297 185,-267 306,-267 306,-297"/>
<text text-anchor="start" x="193" y="-285" font-family="Helvetica,sans-Serif" font-size="10.00">amr_wind::forestdrag</text>
<text text-anchor="middle" x="245.5" y="-274" font-family="Helvetica,sans-Serif" font-size="10.00">::ForestDrag</text>
</a>
</g>
</g>
<!-- Node0&#45;&gt;Node16 -->
<g id="edge104_Node000000_Node000016" class="edge">
<title>Node0&#45;&gt;Node16</title>
<g id="a_edge104_Node000000_Node000016"><a xlink:title=" ">
<path fill="none" stroke="#63b8ff" d="M69.8,-464.57C81.45,-422.63 108.29,-347.53 159,-306 166.51,-299.85 175.51,-295.27 184.8,-291.86"/>
<polygon fill="#63b8ff" stroke="#63b8ff" points="66.35,-463.92 67.16,-474.48 73.12,-465.72 66.35,-463.92"/>
</a>
</g>
</g>
<!-- Node17 -->
<g id="Node000017" class="node">
<title>Node17</title>
<g id="a_Node000017"><a xlink:href="classamr__wind_1_1hybrid__rans__les__abl_1_1_hybrid_r_a_n_s_l_e_s_a_b_l.html" target="_top" xlink:title=" ">
<polygon fill="white" stroke="#666666" points="324.5,-249 166.5,-249 166.5,-219 324.5,-219 324.5,-249"/>
<text text-anchor="start" x="174.5" y="-237" font-family="Helvetica,sans-Serif" font-size="10.00">amr_wind::hybrid_rans</text>
<text text-anchor="middle" x="245.5" y="-226" font-family="Helvetica,sans-Serif" font-size="10.00">_les_abl::HybridRANSLESABL</text>
</a>
</g>
</g>
<!-- Node0&#45;&gt;Node17 -->
<g id="edge105_Node000000_Node000017" class="edge">
<title>Node0&#45;&gt;Node17</title>
<g id="a_edge105_Node000000_Node000017"><a xlink:title=" ">
<path fill="none" stroke="#63b8ff" d="M66.28,-464.46C74.17,-413.98 97.13,-313.25 159,-258 162.8,-254.61 167.03,-251.7 171.53,-249.19"/>
<polygon fill="#63b8ff" stroke="#63b8ff" points="62.81,-464.03 64.82,-474.43 69.73,-465.05 62.81,-464.03"/>
</a>
</g>
</g>
<!-- Node18 -->
<g id="Node000018" class="node">
<title>Node18</title>
<g id="a_Node000018"><a xlink:href="classamr__wind_1_1ib_1_1_i_b.html" target="_top" xlink:title=" ">
<polygon fill="white" stroke="#666666" points="293,-200.5 198,-200.5 198,-181.5 293,-181.5 293,-200.5"/>
<text text-anchor="middle" x="245.5" y="-188.5" font-family="Helvetica,sans-Serif" font-size="10.00">amr_wind::ib::IB</text>
</a>
</g>
</g>
<!-- Node0&#45;&gt;Node18 -->
<g id="edge106_Node000000_Node000018" class="edge">
<title>Node0&#45;&gt;Node18</title>
<g id="a_edge106_Node000000_Node000018"><a xlink:title=" ">
<path fill="none" stroke="#63b8ff" d="M63.5,-464.37C67.14,-405.74 83.79,-277.51 159,-210 169.64,-200.45 183.99,-195.35 197.9,-192.73"/>
<polygon fill="#63b8ff" stroke="#63b8ff" points="60,-464.3 62.96,-474.48 66.99,-464.68 60,-464.3"/>
</a>
</g>
</g>
<!-- Node19 -->
<g id="Node000019" class="node">
<title>Node19</title>
<g id="a_Node000019"><a xlink:href="classamr__wind_1_1mms_1_1_m_m_s.html" target="_top" xlink:title=" ">
<polygon fill="white" stroke="#666666" points="308,-163.5 183,-163.5 183,-144.5 308,-144.5 308,-163.5"/>
<text text-anchor="middle" x="245.5" y="-151.5" font-family="Helvetica,sans-Serif" font-size="10.00">amr_wind::mms::MMS</text>
</a>
</g>
</g>
<!-- Node0&#45;&gt;Node19 -->
<g id="edge107_Node000000_Node000019" class="edge">
<title>Node0&#45;&gt;Node19</title>
<g id="a_edge107_Node000000_Node000019"><a xlink:title=" ">
<path fill="none" stroke="#63b8ff" d="M62.1,-464.15C63.04,-399.92 74.77,-251.33 159,-173 165.68,-166.79 173.93,-162.44 182.64,-159.43"/>
<polygon fill="#63b8ff" stroke="#63b8ff" points="58.6,-464.39 62.03,-474.42 65.6,-464.44 58.6,-464.39"/>
</a>
</g>
</g>
<!-- Node20 -->
<g id="Node000020" class="node">
<title>Node20</title>
<g id="a_Node000020"><a xlink:href="classamr__wind_1_1ocean__waves_1_1_ocean_waves.html" target="_top" xlink:title=" ">
<polygon fill="white" stroke="#666666" points="314,-126 177,-126 177,-96 314,-96 314,-126"/>
<text text-anchor="start" x="185" y="-114" font-family="Helvetica,sans-Serif" font-size="10.00">amr_wind::ocean_waves</text>
<text text-anchor="middle" x="245.5" y="-103" font-family="Helvetica,sans-Serif" font-size="10.00">::OceanWaves</text>
</a>
</g>
</g>
<!-- Node0&#45;&gt;Node20 -->
<g id="edge108_Node000000_Node000020" class="edge">
<title>Node0&#45;&gt;Node20</title>
<g id="a_edge108_Node000000_Node000020"><a xlink:title=" ">
<path fill="none" stroke="#63b8ff" d="M66.9,-463.95C78.57,-385.72 112.66,-183.36 159,-136 164.08,-130.8 170.18,-126.67 176.75,-123.39"/>
<polygon fill="#63b8ff" stroke="#63b8ff" points="63.39,-463.74 65.4,-474.14 70.32,-464.76 63.39,-463.74"/>
</a>
</g>
</g>
<!-- Node21 -->
<g id="Node000021" class="node">
<title>Node21</title>
<g id="a_Node000021"><a xlink:href="classamr__wind_1_1terraindrag_1_1_terrain_drag.html" target="_top" xlink:title=" ">
<polygon fill="white" stroke="#666666" points="308,-78 183,-78 183,-48 308,-48 308,-78"/>
<text text-anchor="start" x="191" y="-66" font-family="Helvetica,sans-Serif" font-size="10.00">amr_wind::terraindrag</text>
<text text-anchor="middle" x="245.5" y="-55" font-family="Helvetica,sans-Serif" font-size="10.00">::TerrainDrag</text>
</a>
</g>
</g>
<!-- Node0&#45;&gt;Node21 -->
<g id="edge109_Node000000_Node000021" class="edge">
<title>Node0&#45;&gt;Node21</title>
<g id="a_edge109_Node000000_Node000021"><a xlink:title=" ">
<path fill="none" stroke="#63b8ff" d="M65.73,-464.41C75.33,-379.23 106.33,-141.9 159,-87 165.51,-80.21 173.77,-75.3 182.58,-71.75"/>
<polygon fill="#63b8ff" stroke="#63b8ff" points="62.24,-464.16 64.62,-474.48 69.2,-464.93 62.24,-464.16"/>
</a>
</g>
</g>
<!-- Node22 -->
<g id="Node000022" class="node">
<title>Node22</title>
<g id="a_Node000022"><a xlink:href="classamr__wind_1_1zds_1_1_zalesak_disk_scalar_vel.html" target="_top" xlink:title=" ">
<polygon fill="white" stroke="#666666" points="322.5,-30 168.5,-30 168.5,0 322.5,0 322.5,-30"/>
<text text-anchor="start" x="176.5" y="-18" font-family="Helvetica,sans-Serif" font-size="10.00">amr_wind::zds::ZalesakDisk</text>
<text text-anchor="middle" x="245.5" y="-7" font-family="Helvetica,sans-Serif" font-size="10.00">ScalarVel</text>
</a>
</g>
</g>
<!-- Node0&#45;&gt;Node22 -->
<g id="edge110_Node000000_Node000022" class="edge">
<title>Node0&#45;&gt;Node22</title>
<g id="a_edge110_Node000000_Node000022"><a xlink:title=" ">
<path fill="none" stroke="#63b8ff" d="M64.92,-464.27C72.76,-372.27 100.46,-101.48 159,-39 162.16,-35.62 165.76,-32.71 169.64,-30.2"/>
<polygon fill="#63b8ff" stroke="#63b8ff" points="61.42,-464.08 64.08,-474.34 68.4,-464.66 61.42,-464.08"/>
</a>
</g>
</g>
</g>
</svg>
