<?xml version="1.0" encoding="UTF-8" standalone="no"?>
<!DOCTYPE svg PUBLIC "-//W3C//DTD SVG 1.1//EN"
 "http://www.w3.org/Graphics/SVG/1.1/DTD/svg11.dtd">
<!-- Generated by graphviz version 2.43.0 (0)
 -->
<!-- Title: Graphical Class Hierarchy Pages: 1 -->
<svg width="351pt" height="175pt"
 viewBox="0.00 0.00 351.00 175.00" xmlns="http://www.w3.org/2000/svg" xmlns:xlink="http://www.w3.org/1999/xlink">
<g id="graph0" class="graph" transform="scale(1 1) rotate(0) translate(4 171)">
<title>Graphical Class Hierarchy</title>
<!-- Node0 -->
<g id="Node000000" class="node">
<title>Node0</title>
<g id="a_Node000000"><a xlink:href="classamr__wind_1_1_field_b_c_iface.html" target="_top" xlink:title=" ">
<polygon fill="white" stroke="#666666" points="131,-93 0,-93 0,-74 131,-74 131,-93"/>
<text text-anchor="middle" x="65.5" y="-81" font-family="Helvetica,sans-Serif" font-size="10.00">amr_wind::FieldBCIface</text>
</a>
</g>
</g>
<!-- Node1 -->
<g id="Node000001" class="node">
<title>Node1</title>
<g id="a_Node000001"><a xlink:href="classamr__wind_1_1_a_b_l_temp_wall_func.html" target="_top" xlink:title=" ">
<polygon fill="white" stroke="#666666" points="334,-167 176,-167 176,-148 334,-148 334,-167"/>
<text text-anchor="middle" x="255" y="-155" font-family="Helvetica,sans-Serif" font-size="10.00">amr_wind::ABLTempWallFunc</text>
</a>
</g>
</g>
<!-- Node0&#45;&gt;Node1 -->
<g id="edge150_Node000000_Node000001" class="edge">
<title>Node0&#45;&gt;Node1</title>
<g id="a_edge150_Node000000_Node000001"><a xlink:title=" ">
<path fill="none" stroke="#63b8ff" d="M89.06,-98.71C108.82,-111.37 138.72,-128.98 167,-139.5 175.96,-142.83 185.69,-145.61 195.28,-147.9"/>
<polygon fill="#63b8ff" stroke="#63b8ff" points="90.77,-95.64 80.48,-93.11 86.94,-101.51 90.77,-95.64"/>
</a>
</g>
</g>
<!-- Node2 -->
<g id="Node000002" class="node">
<title>Node2</title>
<g id="a_Node000002"><a xlink:href="classamr__wind_1_1_a_b_l_vel_wall_func.html" target="_top" xlink:title=" ">
<polygon fill="white" stroke="#666666" points="328.5,-130 181.5,-130 181.5,-111 328.5,-111 328.5,-130"/>
<text text-anchor="middle" x="255" y="-118" font-family="Helvetica,sans-Serif" font-size="10.00">amr_wind::ABLVelWallFunc</text>
</a>
</g>
</g>
<!-- Node0&#45;&gt;Node2 -->
<g id="edge151_Node000000_Node000002" class="edge">
<title>Node0&#45;&gt;Node2</title>
<g id="a_edge151_Node000000_Node000002"><a xlink:title=" ">
<path fill="none" stroke="#63b8ff" d="M124.86,-95.02C150.77,-100.13 180.91,-106.08 205.55,-110.94"/>
<polygon fill="#63b8ff" stroke="#63b8ff" points="125.27,-91.53 114.79,-93.03 123.92,-98.4 125.27,-91.53"/>
</a>
</g>
</g>
<!-- Node3 -->
<g id="Node000003" class="node">
<title>Node3</title>
<g id="a_Node000003"><a xlink:href="classamr__wind_1_1_fixed_gradient_b_c.html" target="_top" xlink:title=" ">
<polygon fill="white" stroke="#666666" points="331,-93 179,-93 179,-74 331,-74 331,-93"/>
<text text-anchor="middle" x="255" y="-81" font-family="Helvetica,sans-Serif" font-size="10.00">amr_wind::FixedGradientBC</text>
</a>
</g>
</g>
<!-- Node0&#45;&gt;Node3 -->
<g id="edge152_Node000000_Node000003" class="edge">
<title>Node0&#45;&gt;Node3</title>
<g id="a_edge152_Node000000_Node000003"><a xlink:title=" ">
<path fill="none" stroke="#63b8ff" d="M141.25,-83.5C153.58,-83.5 166.37,-83.5 178.71,-83.5"/>
<polygon fill="#63b8ff" stroke="#63b8ff" points="141.03,-80 131.03,-83.5 141.03,-87 141.03,-80"/>
</a>
</g>
</g>
<!-- Node4 -->
<g id="Node000004" class="node">
<title>Node4</title>
<g id="a_Node000004"><a xlink:href="classamr__wind_1_1_mass_inflow_outflow_b_c.html" target="_top" xlink:title=" ">
<polygon fill="white" stroke="#666666" points="343,-56 167,-56 167,-37 343,-37 343,-56"/>
<text text-anchor="middle" x="255" y="-44" font-family="Helvetica,sans-Serif" font-size="10.00">amr_wind::MassInflowOutflowBC</text>
</a>
</g>
</g>
<!-- Node0&#45;&gt;Node4 -->
<g id="edge153_Node000000_Node000004" class="edge">
<title>Node0&#45;&gt;Node4</title>
<g id="a_edge153_Node000000_Node000004"><a xlink:title=" ">
<path fill="none" stroke="#63b8ff" d="M124.86,-71.98C150.77,-66.87 180.91,-60.92 205.55,-56.06"/>
<polygon fill="#63b8ff" stroke="#63b8ff" points="123.92,-68.6 114.79,-73.97 125.27,-75.47 123.92,-68.6"/>
</a>
</g>
</g>
<!-- Node5 -->
<g id="Node000005" class="node">
<title>Node5</title>
<g id="a_Node000005"><a xlink:href="classamr__wind_1_1_vel_wall_func.html" target="_top" xlink:title=" ">
<polygon fill="white" stroke="#666666" points="319.5,-19 190.5,-19 190.5,0 319.5,0 319.5,-19"/>
<text text-anchor="middle" x="255" y="-7" font-family="Helvetica,sans-Serif" font-size="10.00">amr_wind::VelWallFunc</text>
</a>
</g>
</g>
<!-- Node0&#45;&gt;Node5 -->
<g id="edge154_Node000000_Node000005" class="edge">
<title>Node0&#45;&gt;Node5</title>
<g id="a_edge154_Node000000_Node000005"><a xlink:title=" ">
<path fill="none" stroke="#63b8ff" d="M89.47,-68.45C109.27,-56.09 139.02,-38.97 167,-28.5 177.14,-24.71 188.23,-21.57 199.01,-19.01"/>
<polygon fill="#63b8ff" stroke="#63b8ff" points="87.42,-65.6 80.85,-73.92 91.17,-71.51 87.42,-65.6"/>
</a>
</g>
</g>
</g>
</svg>
