<?xml version="1.0" encoding="UTF-8" standalone="no"?>
<!DOCTYPE svg PUBLIC "-//W3C//DTD SVG 1.1//EN"
 "http://www.w3.org/Graphics/SVG/1.1/DTD/svg11.dtd">
<!-- Generated by graphviz version 2.43.0 (0)
 -->
<!-- Title: /home/runner/work/amr&#45;wind/amr&#45;wind/amr&#45;wind/wind_energy/actuator/turbine/kynema/kynema_types.H Pages: 1 -->
<svg width="414pt" height="324pt"
 viewBox="0.00 0.00 414.00 324.00" xmlns="http://www.w3.org/2000/svg" xmlns:xlink="http://www.w3.org/1999/xlink">

<svg id="main" version="1.1" xmlns="http://www.w3.org/2000/svg" xmlns:xlink="http://www.w3.org/1999/xlink" xml:space="preserve">

<style type="text/css"><![CDATA[
.node, .edge {opacity: 0.7;}
.node.selected, .edge.selected {opacity: 1;}
.edge:hover path { stroke: red; }
.edge:hover polygon { stroke: red; fill: red; }
]]></style>
<script type="application/ecmascript" xlink:href="svg.min.js"/>
<svg id="graph" class="graph">
<g id="graph0" class="graph" transform="scale(1 1) rotate(0) translate(4 320)">
<title>/home/runner/work/amr&#45;wind/amr&#45;wind/amr&#45;wind/wind_energy/actuator/turbine/kynema/kynema_types.H</title>
<!-- Node1 -->
<g id="Node000001" class="node">
<title>Node1</title>
<g id="a_Node000001"><a xlink:title=" ">
<polygon fill="#999999" stroke="#666666" points="253,-316 90,-316 90,-264 253,-264 253,-316"/>
<text text-anchor="start" x="98" y="-304" font-family="Helvetica,sans-Serif" font-size="10.00">/home/runner/work/amr</text>
<text text-anchor="start" x="98" y="-293" font-family="Helvetica,sans-Serif" font-size="10.00">&#45;wind/amr&#45;wind/amr&#45;wind</text>
<text text-anchor="start" x="98" y="-282" font-family="Helvetica,sans-Serif" font-size="10.00">/wind_energy/actuator/turbine</text>
<text text-anchor="middle" x="171.5" y="-271" font-family="Helvetica,sans-Serif" font-size="10.00">/kynema/kynema_types.H</text>
</a>
</g>
</g>
<!-- Node2 -->
<g id="Node000002" class="node">
<title>Node2</title>
<g id="a_Node000002"><a xlink:href="_kynema_iface_8cpp.html" target="_top" xlink:title=" ">
<polygon fill="white" stroke="#666666" points="163,-228 0,-228 0,-176 163,-176 163,-228"/>
<text text-anchor="start" x="8" y="-216" font-family="Helvetica,sans-Serif" font-size="10.00">/home/runner/work/amr</text>
<text text-anchor="start" x="8" y="-205" font-family="Helvetica,sans-Serif" font-size="10.00">&#45;wind/amr&#45;wind/amr&#45;wind</text>
<text text-anchor="start" x="8" y="-194" font-family="Helvetica,sans-Serif" font-size="10.00">/wind_energy/actuator/turbine</text>
<text text-anchor="middle" x="81.5" y="-183" font-family="Helvetica,sans-Serif" font-size="10.00">/kynema/KynemaIface.cpp</text>
</a>
</g>
</g>
<!-- Node1&#45;&gt;Node2 -->
<g id="edge1_Node000001_Node000002" class="edge">
<title>Node1&#45;&gt;Node2</title>
<g id="a_edge1_Node000001_Node000002"><a xlink:title=" ">
<path fill="none" stroke="#63b8ff" d="M137.63,-256.63C127.77,-247.21 117.15,-237.06 107.83,-228.16"/>
<polygon fill="#63b8ff" stroke="#63b8ff" points="135.34,-259.28 144.98,-263.66 140.17,-254.22 135.34,-259.28"/>
</a>
</g>
</g>
<!-- Node3 -->
<g id="Node000003" class="node">
<title>Node3</title>
<g id="a_Node000003"><a xlink:href="_turbine_kynema_8_h.html" target="_top" xlink:title=" ">
<polygon fill="white" stroke="#666666" points="344,-228 181,-228 181,-176 344,-176 344,-228"/>
<text text-anchor="start" x="189" y="-216" font-family="Helvetica,sans-Serif" font-size="10.00">/home/runner/work/amr</text>
<text text-anchor="start" x="189" y="-205" font-family="Helvetica,sans-Serif" font-size="10.00">&#45;wind/amr&#45;wind/amr&#45;wind</text>
<text text-anchor="start" x="189" y="-194" font-family="Helvetica,sans-Serif" font-size="10.00">/wind_energy/actuator/turbine</text>
<text text-anchor="middle" x="262.5" y="-183" font-family="Helvetica,sans-Serif" font-size="10.00">/kynema/TurbineKynema.H</text>
</a>
</g>
</g>
<!-- Node1&#45;&gt;Node3 -->
<g id="edge2_Node000001_Node000003" class="edge">
<title>Node1&#45;&gt;Node3</title>
<g id="a_edge2_Node000001_Node000003"><a xlink:title=" ">
<path fill="none" stroke="#63b8ff" d="M205.75,-256.63C215.72,-247.21 226.46,-237.06 235.88,-228.16"/>
<polygon fill="#63b8ff" stroke="#63b8ff" points="203.17,-254.25 198.31,-263.66 207.98,-259.34 203.17,-254.25"/>
</a>
</g>
</g>
<!-- Node4 -->
<g id="Node000004" class="node">
<title>Node4</title>
<g id="a_Node000004"><a xlink:href="_turbine_kynema_8cpp.html" target="_top" xlink:title=" ">
<polygon fill="white" stroke="#666666" points="343,-52 180,-52 180,0 343,0 343,-52"/>
<text text-anchor="start" x="188" y="-40" font-family="Helvetica,sans-Serif" font-size="10.00">/home/runner/work/amr</text>
<text text-anchor="start" x="188" y="-29" font-family="Helvetica,sans-Serif" font-size="10.00">&#45;wind/amr&#45;wind/amr&#45;wind</text>
<text text-anchor="start" x="188" y="-18" font-family="Helvetica,sans-Serif" font-size="10.00">/wind_energy/actuator/turbine</text>
<text text-anchor="middle" x="261.5" y="-7" font-family="Helvetica,sans-Serif" font-size="10.00">/kynema/TurbineKynema.cpp</text>
</a>
</g>
</g>
<!-- Node3&#45;&gt;Node4 -->
<g id="edge3_Node000003_Node000004" class="edge">
<title>Node3&#45;&gt;Node4</title>
<g id="a_edge3_Node000003_Node000004"><a xlink:title=" ">
<path fill="none" stroke="#63b8ff" d="M236.28,-167.4C231.03,-158.91 226.27,-149.49 223.5,-140 217.01,-117.82 217.15,-110.22 223.5,-88 227.14,-75.28 234.28,-62.64 241.4,-52.19"/>
<polygon fill="#63b8ff" stroke="#63b8ff" points="233.45,-169.46 241.87,-175.89 239.29,-165.61 233.45,-169.46"/>
</a>
</g>
</g>
<!-- Node5 -->
<g id="Node000005" class="node">
<title>Node5</title>
<g id="a_Node000005"><a xlink:href="turbine__kynema__ops_8_h.html" target="_top" xlink:title=" ">
<polygon fill="white" stroke="#666666" points="406,-140 233,-140 233,-88 406,-88 406,-140"/>
<text text-anchor="start" x="241" y="-128" font-family="Helvetica,sans-Serif" font-size="10.00">/home/runner/work/amr</text>
<text text-anchor="start" x="241" y="-117" font-family="Helvetica,sans-Serif" font-size="10.00">&#45;wind/amr&#45;wind/amr&#45;wind</text>
<text text-anchor="start" x="241" y="-106" font-family="Helvetica,sans-Serif" font-size="10.00">/wind_energy/actuator/turbine</text>
<text text-anchor="middle" x="319.5" y="-95" font-family="Helvetica,sans-Serif" font-size="10.00">/kynema/turbine_kynema_ops.H</text>
</a>
</g>
</g>
<!-- Node3&#45;&gt;Node5 -->
<g id="edge4_Node000003_Node000005" class="edge">
<title>Node3&#45;&gt;Node5</title>
<g id="a_edge4_Node000003_Node000005"><a xlink:title=" ">
<path fill="none" stroke="#63b8ff" d="M284.87,-167.24C290.85,-158.22 297.21,-148.63 302.83,-140.16"/>
<polygon fill="#63b8ff" stroke="#63b8ff" points="281.9,-165.39 279.29,-175.66 287.74,-169.26 281.9,-165.39"/>
</a>
</g>
</g>
<!-- Node5&#45;&gt;Node4 -->
<g id="edge5_Node000005_Node000004" class="edge">
<title>Node5&#45;&gt;Node4</title>
<g id="a_edge5_Node000005_Node000004"><a xlink:title=" ">
<path fill="none" stroke="#63b8ff" d="M296.73,-79.24C290.65,-70.22 284.18,-60.63 278.47,-52.16"/>
<polygon fill="#63b8ff" stroke="#63b8ff" points="293.92,-81.33 302.41,-87.66 299.72,-77.41 293.92,-81.33"/>
</a>
</g>
</g>
</g>
</svg>
</svg>

<style type='text/css'>
<![CDATA[
[data-mouse-over-selected='false'] { opacity: 0.7; }
[data-mouse-over-selected='true']  { opacity: 1.0; }
]]>
</style>
<script type="application/ecmascript"><![CDATA[
document.addEventListener('DOMContentLoaded', (event) => {
  highlightEdges();
  highlightAdjacentNodes();
});
]]></script>
</svg>
