<?xml version="1.0" encoding="UTF-8" standalone="no"?>
<!DOCTYPE svg PUBLIC "-//W3C//DTD SVG 1.1//EN"
 "http://www.w3.org/Graphics/SVG/1.1/DTD/svg11.dtd">
<!-- Generated by graphviz version 2.43.0 (0)
 -->
<!-- Title: /home/runner/work/amr&#45;wind/amr&#45;wind/amr&#45;wind/boundary_conditions/scalar_bcs.H Pages: 1 -->
<svg width="2595pt" height="412pt"
 viewBox="0.00 0.00 2595.43 412.00" xmlns="http://www.w3.org/2000/svg" xmlns:xlink="http://www.w3.org/1999/xlink">
<g id="graph0" class="graph" transform="scale(1 1) rotate(0) translate(4 408)">
<title>/home/runner/work/amr&#45;wind/amr&#45;wind/amr&#45;wind/boundary_conditions/scalar_bcs.H</title>
<!-- Node1 -->
<g id="Node000001" class="node">
<title>Node1</title>
<g id="a_Node000001"><a xlink:title=" ">
<polygon fill="#999999" stroke="#666666" points="1876,-404 1691,-404 1691,-363 1876,-363 1876,-404"/>
<text text-anchor="start" x="1699" y="-392" font-family="Helvetica,sans-Serif" font-size="10.00">/home/runner/work/amr</text>
<text text-anchor="start" x="1699" y="-381" font-family="Helvetica,sans-Serif" font-size="10.00">&#45;wind/amr&#45;wind/amr&#45;wind</text>
<text text-anchor="middle" x="1783.5" y="-370" font-family="Helvetica,sans-Serif" font-size="10.00">/boundary_conditions/scalar_bcs.H</text>
</a>
</g>
</g>
<!-- Node2 -->
<g id="Node000002" class="node">
<title>Node2</title>
<g id="a_Node000002"><a xlink:href="_field_b_c_ops_8_h.html" target="_top" xlink:title=" ">
<polygon fill="white" stroke="#666666" points="1861.5,-255.5 1705.5,-255.5 1705.5,-236.5 1861.5,-236.5 1861.5,-255.5"/>
<text text-anchor="middle" x="1783.5" y="-243.5" font-family="Helvetica,sans-Serif" font-size="10.00">amr&#45;wind/core/FieldBCOps.H</text>
</a>
</g>
</g>
<!-- Node1&#45;&gt;Node2 -->
<g id="edge1_Node000001_Node000002" class="edge">
<title>Node1&#45;&gt;Node2</title>
<g id="a_edge1_Node000001_Node000002"><a xlink:title=" ">
<path fill="none" stroke="#63b8ff" d="M1783.5,-362.8C1783.5,-336.83 1783.5,-291.45 1783.5,-265.89"/>
<polygon fill="#63b8ff" stroke="#63b8ff" points="1787,-265.69 1783.5,-255.69 1780,-265.69 1787,-265.69"/>
</a>
</g>
</g>
<!-- Node19 -->
<g id="Node000019" class="node">
<title>Node19</title>
<g id="a_Node000019"><a xlink:href="_field_fill_patch_ops_8_h.html" target="_top" xlink:title=" ">
<polygon fill="white" stroke="#666666" points="1530.5,-327 1376.5,-327 1376.5,-297 1530.5,-297 1530.5,-327"/>
<text text-anchor="start" x="1384.5" y="-315" font-family="Helvetica,sans-Serif" font-size="10.00">amr&#45;wind/core/FieldFillPatch</text>
<text text-anchor="middle" x="1453.5" y="-304" font-family="Helvetica,sans-Serif" font-size="10.00">Ops.H</text>
</a>
</g>
</g>
<!-- Node1&#45;&gt;Node19 -->
<g id="edge24_Node000001_Node000019" class="edge">
<title>Node1&#45;&gt;Node19</title>
<g id="a_edge24_Node000001_Node000019"><a xlink:title=" ">
<path fill="none" stroke="#63b8ff" d="M1690.7,-362.96C1639.98,-352.27 1577.91,-339.2 1529.99,-329.11"/>
<polygon fill="#63b8ff" stroke="#63b8ff" points="1530.5,-325.64 1519.99,-327 1529.06,-332.49 1530.5,-325.64"/>
</a>
</g>
</g>
<!-- Node21 -->
<g id="Node000021" class="node">
<title>Node21</title>
<g id="a_Node000021"><a xlink:href="_sim_time_8_h.html" target="_top" xlink:title=" ">
<polygon fill="white" stroke="#666666" points="2122.5,-255.5 1978.5,-255.5 1978.5,-236.5 2122.5,-236.5 2122.5,-255.5"/>
<text text-anchor="middle" x="2050.5" y="-243.5" font-family="Helvetica,sans-Serif" font-size="10.00">amr&#45;wind/core/SimTime.H</text>
</a>
</g>
</g>
<!-- Node1&#45;&gt;Node21 -->
<g id="edge74_Node000001_Node000021" class="edge">
<title>Node1&#45;&gt;Node21</title>
<g id="a_edge74_Node000001_Node000021"><a xlink:title=" ">
<path fill="none" stroke="#63b8ff" d="M1822.04,-362.94C1877.3,-334.9 1977.56,-284.02 2024.7,-260.09"/>
<polygon fill="#63b8ff" stroke="#63b8ff" points="2026.32,-263.2 2033.65,-255.55 2023.15,-256.95 2026.32,-263.2"/>
</a>
</g>
</g>
<!-- Node30 -->
<g id="Node000030" class="node">
<title>Node30</title>
<g id="a_Node000030"><a xlink:href="_field_repo_8_h.html" target="_top" xlink:title=" ">
<polygon fill="white" stroke="#666666" points="880,-255.5 731,-255.5 731,-236.5 880,-236.5 880,-255.5"/>
<text text-anchor="middle" x="805.5" y="-243.5" font-family="Helvetica,sans-Serif" font-size="10.00">amr&#45;wind/core/FieldRepo.H</text>
</a>
</g>
</g>
<!-- Node1&#45;&gt;Node30 -->
<g id="edge45_Node000001_Node000030" class="edge">
<title>Node1&#45;&gt;Node30</title>
<g id="a_edge45_Node000001_Node000030"><a xlink:title=" ">
<path fill="none" stroke="#63b8ff" d="M1690.94,-370.39C1606.62,-359.3 1478.66,-342.33 1367.5,-327 1189.46,-302.45 979.88,-272.28 874.05,-256.96"/>
<polygon fill="#63b8ff" stroke="#63b8ff" points="874.53,-253.49 864.13,-255.52 873.53,-260.42 874.53,-253.49"/>
</a>
</g>
</g>
<!-- Node35 -->
<g id="Node000035" class="node">
<title>Node35</title>
<g id="a_Node000035"><a xlink:href="_custom_scalar_8_h.html" target="_top" xlink:title=" ">
<polygon fill="white" stroke="#666666" points="2517,-261 2390,-261 2390,-231 2517,-231 2517,-261"/>
<text text-anchor="start" x="2398" y="-249" font-family="Helvetica,sans-Serif" font-size="10.00">amr&#45;wind/physics/udfs</text>
<text text-anchor="middle" x="2453.5" y="-238" font-family="Helvetica,sans-Serif" font-size="10.00">/CustomScalar.H</text>
</a>
</g>
</g>
<!-- Node1&#45;&gt;Node35 -->
<g id="edge75_Node000001_Node000035" class="edge">
<title>Node1&#45;&gt;Node35</title>
<g id="a_edge75_Node000001_Node000035"><a xlink:title=" ">
<path fill="none" stroke="#63b8ff" d="M1876.31,-363.73C2010.67,-336.56 2256.7,-286.8 2379.58,-261.95"/>
<polygon fill="#63b8ff" stroke="#63b8ff" points="2380.54,-265.33 2389.65,-259.91 2379.15,-258.47 2380.54,-265.33"/>
</a>
</g>
</g>
<!-- Node3 -->
<g id="Node000003" class="node">
<title>Node3</title>
<g id="a_Node000003"><a xlink:href="_field_desc_types_8_h.html" target="_top" xlink:title=" ">
<polygon fill="white" stroke="#666666" points="862.5,-74 686.5,-74 686.5,-55 862.5,-55 862.5,-74"/>
<text text-anchor="middle" x="774.5" y="-62" font-family="Helvetica,sans-Serif" font-size="10.00">amr&#45;wind/core/FieldDescTypes.H</text>
</a>
</g>
</g>
<!-- Node2&#45;&gt;Node3 -->
<g id="edge2_Node000002_Node000003" class="edge">
<title>Node2&#45;&gt;Node3</title>
<g id="a_edge2_Node000002_Node000003"><a xlink:title=" ">
<path fill="none" stroke="#63b8ff" d="M1802.48,-236.36C1847.5,-214.78 1953.74,-156.89 1908.5,-110 1869.79,-69.87 961.19,-76.81 905.5,-74 894.87,-73.46 883.76,-72.84 872.69,-72.18"/>
<polygon fill="#63b8ff" stroke="#63b8ff" points="872.76,-68.68 862.56,-71.56 872.33,-75.67 872.76,-68.68"/>
</a>
</g>
</g>
<!-- Node5 -->
<g id="Node000005" class="node">
<title>Node5</title>
<g id="a_Node000005"><a xlink:href="_field_8_h.html" target="_top" xlink:title=" ">
<polygon fill="white" stroke="#666666" points="1550.5,-189.5 1426.5,-189.5 1426.5,-170.5 1550.5,-170.5 1550.5,-189.5"/>
<text text-anchor="middle" x="1488.5" y="-177.5" font-family="Helvetica,sans-Serif" font-size="10.00">amr&#45;wind/core/Field.H</text>
</a>
</g>
</g>
<!-- Node2&#45;&gt;Node5 -->
<g id="edge4_Node000002_Node000005" class="edge">
<title>Node2&#45;&gt;Node5</title>
<g id="a_edge4_Node000002_Node000005"><a xlink:title=" ">
<path fill="none" stroke="#63b8ff" d="M1744.02,-236.44C1690.7,-224.87 1595.7,-204.26 1537.76,-191.69"/>
<polygon fill="#63b8ff" stroke="#63b8ff" points="1538.26,-188.21 1527.75,-189.51 1536.78,-195.05 1538.26,-188.21"/>
</a>
</g>
</g>
<!-- Node12 -->
<g id="Node000012" class="node">
<title>Node12</title>
<g id="a_Node000012"><a xlink:title=" ">
<polygon fill="#e0e0e0" stroke="#999999" points="1899,-129 1812,-129 1812,-110 1899,-110 1899,-129"/>
<text text-anchor="middle" x="1855.5" y="-117" font-family="Helvetica,sans-Serif" font-size="10.00">AMReX_Gpu.H</text>
</a>
</g>
</g>
<!-- Node2&#45;&gt;Node12 -->
<g id="edge20_Node000002_Node000012" class="edge">
<title>Node2&#45;&gt;Node12</title>
<g id="a_edge20_Node000002_Node000012"><a xlink:title=" ">
<path fill="none" stroke="#63b8ff" d="M1794.8,-236.23C1805.89,-227.06 1822.55,-211.71 1832.5,-195 1842.87,-177.6 1848.98,-155.08 1852.26,-139.37"/>
<polygon fill="#63b8ff" stroke="#63b8ff" points="1855.74,-139.79 1854.17,-129.31 1848.87,-138.48 1855.74,-139.79"/>
</a>
</g>
</g>
<!-- Node16 -->
<g id="Node000016" class="node">
<title>Node16</title>
<g id="a_Node000016"><a xlink:title=" ">
<polygon fill="#e0e0e0" stroke="#999999" points="1823,-189.5 1706,-189.5 1706,-170.5 1823,-170.5 1823,-189.5"/>
<text text-anchor="middle" x="1764.5" y="-177.5" font-family="Helvetica,sans-Serif" font-size="10.00">AMReX_FArrayBox.H</text>
</a>
</g>
</g>
<!-- Node2&#45;&gt;Node16 -->
<g id="edge21_Node000002_Node000016" class="edge">
<title>Node2&#45;&gt;Node16</title>
<g id="a_edge21_Node000002_Node000016"><a xlink:title=" ">
<path fill="none" stroke="#63b8ff" d="M1780.94,-236.37C1778.15,-226.97 1773.61,-211.67 1770,-199.53"/>
<polygon fill="#63b8ff" stroke="#63b8ff" points="1773.35,-198.5 1767.14,-189.91 1766.63,-200.49 1773.35,-198.5"/>
</a>
</g>
</g>
<!-- Node17 -->
<g id="Node000017" class="node">
<title>Node17</title>
<g id="a_Node000017"><a xlink:title=" ">
<polygon fill="#e0e0e0" stroke="#999999" points="2109,-189.5 1994,-189.5 1994,-170.5 2109,-170.5 2109,-189.5"/>
<text text-anchor="middle" x="2051.5" y="-177.5" font-family="Helvetica,sans-Serif" font-size="10.00">AMReX_Geometry.H</text>
</a>
</g>
</g>
<!-- Node2&#45;&gt;Node17 -->
<g id="edge22_Node000002_Node000017" class="edge">
<title>Node2&#45;&gt;Node17</title>
<g id="a_edge22_Node000002_Node000017"><a xlink:title=" ">
<path fill="none" stroke="#63b8ff" d="M1819.37,-236.44C1867.6,-224.92 1953.4,-204.43 2006.09,-191.84"/>
<polygon fill="#63b8ff" stroke="#63b8ff" points="2006.93,-195.24 2015.85,-189.51 2005.31,-188.43 2006.93,-195.24"/>
</a>
</g>
</g>
<!-- Node18 -->
<g id="Node000018" class="node">
<title>Node18</title>
<g id="a_Node000018"><a xlink:title=" ">
<polygon fill="#e0e0e0" stroke="#999999" points="921,-129 790,-129 790,-110 921,-110 921,-129"/>
<text text-anchor="middle" x="855.5" y="-117" font-family="Helvetica,sans-Serif" font-size="10.00">AMReX_PhysBCFunct.H</text>
</a>
</g>
</g>
<!-- Node2&#45;&gt;Node18 -->
<g id="edge23_Node000002_Node000018" class="edge">
<title>Node2&#45;&gt;Node18</title>
<g id="a_edge23_Node000002_Node000018"><a xlink:title=" ">
<path fill="none" stroke="#63b8ff" d="M1705.5,-241.53C1540.21,-233.84 1165.32,-214.49 1110.5,-195 1088.54,-187.19 1088.89,-174.25 1067.5,-165 1024.29,-146.32 972.65,-135.27 931.15,-128.85"/>
<polygon fill="#63b8ff" stroke="#63b8ff" points="931.51,-125.37 921.1,-127.36 930.48,-132.29 931.51,-125.37"/>
</a>
</g>
</g>
<!-- Node4 -->
<g id="Node000004" class="node">
<title>Node4</title>
<g id="a_Node000004"><a xlink:title=" ">
<polygon fill="#e0e0e0" stroke="#999999" points="1049.5,-19 999.5,-19 999.5,0 1049.5,0 1049.5,-19"/>
<text text-anchor="middle" x="1024.5" y="-7" font-family="Helvetica,sans-Serif" font-size="10.00">cstdint</text>
</a>
</g>
</g>
<!-- Node3&#45;&gt;Node4 -->
<g id="edge3_Node000003_Node000004" class="edge">
<title>Node3&#45;&gt;Node4</title>
<g id="a_edge3_Node000003_Node000004"><a xlink:title=" ">
<path fill="none" stroke="#63b8ff" d="M814.67,-54.98C863.04,-44.73 943.52,-27.67 989.48,-17.93"/>
<polygon fill="#63b8ff" stroke="#63b8ff" points="990.22,-21.34 999.28,-15.85 988.77,-14.5 990.22,-21.34"/>
</a>
</g>
</g>
<!-- Node5&#45;&gt;Node3 -->
<g id="edge14_Node000005_Node000003" class="edge">
<title>Node5&#45;&gt;Node3</title>
<g id="a_edge14_Node000005_Node000003"><a xlink:title=" ">
<path fill="none" stroke="#63b8ff" d="M1550.59,-171.81C1607.2,-162.91 1677.38,-144.52 1644.5,-110 1616.15,-80.24 946.54,-76.33 905.5,-74 894.87,-73.4 883.76,-72.73 872.7,-72.04"/>
<polygon fill="#63b8ff" stroke="#63b8ff" points="872.77,-68.54 862.57,-71.41 872.33,-75.53 872.77,-68.54"/>
</a>
</g>
</g>
<!-- Node6 -->
<g id="Node000006" class="node">
<title>Node6</title>
<g id="a_Node000006"><a xlink:title=" ">
<polygon fill="#e0e0e0" stroke="#999999" points="402.5,-74 358.5,-74 358.5,-55 402.5,-55 402.5,-74"/>
<text text-anchor="middle" x="380.5" y="-62" font-family="Helvetica,sans-Serif" font-size="10.00">string</text>
</a>
</g>
</g>
<!-- Node5&#45;&gt;Node6 -->
<g id="edge5_Node000005_Node000006" class="edge">
<title>Node5&#45;&gt;Node6</title>
<g id="a_edge5_Node000005_Node000006"><a xlink:title=" ">
<path fill="none" stroke="#63b8ff" d="M1470.69,-170.44C1437.65,-155.04 1364.25,-123.05 1298.5,-110 1118.72,-74.3 657.38,-86.26 474.5,-74 453.86,-72.62 430.72,-70.53 412.57,-68.77"/>
<polygon fill="#63b8ff" stroke="#63b8ff" points="412.8,-65.28 402.51,-67.78 412.12,-72.24 412.8,-65.28"/>
</a>
</g>
</g>
<!-- Node7 -->
<g id="Node000007" class="node">
<title>Node7</title>
<g id="a_Node000007"><a xlink:title=" ">
<polygon fill="#e0e0e0" stroke="#999999" points="1517.5,-129 1459.5,-129 1459.5,-110 1517.5,-110 1517.5,-129"/>
<text text-anchor="middle" x="1488.5" y="-117" font-family="Helvetica,sans-Serif" font-size="10.00">memory</text>
</a>
</g>
</g>
<!-- Node5&#45;&gt;Node7 -->
<g id="edge6_Node000005_Node000007" class="edge">
<title>Node5&#45;&gt;Node7</title>
<g id="a_edge6_Node000005_Node000007"><a xlink:title=" ">
<path fill="none" stroke="#63b8ff" d="M1488.5,-170.37C1488.5,-162.25 1488.5,-149.81 1488.5,-139.39"/>
<polygon fill="#63b8ff" stroke="#63b8ff" points="1492,-139.17 1488.5,-129.17 1485,-139.17 1492,-139.17"/>
</a>
</g>
</g>
<!-- Node8 -->
<g id="Node000008" class="node">
<title>Node8</title>
<g id="a_Node000008"><a xlink:title=" ">
<polygon fill="#e0e0e0" stroke="#999999" points="1289,-129 1196,-129 1196,-110 1289,-110 1289,-129"/>
<text text-anchor="middle" x="1242.5" y="-117" font-family="Helvetica,sans-Serif" font-size="10.00">unordered_map</text>
</a>
</g>
</g>
<!-- Node5&#45;&gt;Node8 -->
<g id="edge7_Node000005_Node000008" class="edge">
<title>Node5&#45;&gt;Node8</title>
<g id="a_edge7_Node000005_Node000008"><a xlink:title=" ">
<path fill="none" stroke="#63b8ff" d="M1452.73,-170.49C1409.19,-160.14 1335.6,-142.64 1288.05,-131.33"/>
<polygon fill="#63b8ff" stroke="#63b8ff" points="1288.85,-127.93 1278.31,-129.02 1287.23,-134.74 1288.85,-127.93"/>
</a>
</g>
</g>
<!-- Node9 -->
<g id="Node000009" class="node">
<title>Node9</title>
<g id="a_Node000009"><a xlink:title=" ">
<polygon fill="#e0e0e0" stroke="#999999" points="1793.5,-129 1729.5,-129 1729.5,-110 1793.5,-110 1793.5,-129"/>
<text text-anchor="middle" x="1761.5" y="-117" font-family="Helvetica,sans-Serif" font-size="10.00">algorithm</text>
</a>
</g>
</g>
<!-- Node5&#45;&gt;Node9 -->
<g id="edge8_Node000005_Node000009" class="edge">
<title>Node5&#45;&gt;Node9</title>
<g id="a_edge8_Node000005_Node000009"><a xlink:title=" ">
<path fill="none" stroke="#63b8ff" d="M1528.2,-170.49C1579.22,-159.56 1667.41,-140.66 1719.51,-129.5"/>
<polygon fill="#63b8ff" stroke="#63b8ff" points="1720.39,-132.89 1729.43,-127.37 1718.92,-126.04 1720.39,-132.89"/>
</a>
</g>
</g>
<!-- Node10 -->
<g id="Node000010" class="node">
<title>Node10</title>
<g id="a_Node000010"><a xlink:title=" ">
<polygon fill="#e0e0e0" stroke="#999999" points="1023,-74 914,-74 914,-55 1023,-55 1023,-74"/>
<text text-anchor="middle" x="968.5" y="-62" font-family="Helvetica,sans-Serif" font-size="10.00">AMReX_MultiFab.H</text>
</a>
</g>
</g>
<!-- Node5&#45;&gt;Node10 -->
<g id="edge9_Node000005_Node000010" class="edge">
<title>Node5&#45;&gt;Node10</title>
<g id="a_edge9_Node000005_Node000010"><a xlink:title=" ">
<path fill="none" stroke="#63b8ff" d="M1474.23,-170.28C1445.12,-152.56 1380.67,-113.68 1369.5,-110 1255.29,-72.41 1113.95,-65.22 1033.21,-64.57"/>
<polygon fill="#63b8ff" stroke="#63b8ff" points="1033.2,-61.07 1023.19,-64.52 1033.17,-68.07 1033.2,-61.07"/>
</a>
</g>
</g>
<!-- Node11 -->
<g id="Node000011" class="node">
<title>Node11</title>
<g id="a_Node000011"><a xlink:title=" ">
<polygon fill="#e0e0e0" stroke="#999999" points="1635,-129 1536,-129 1536,-110 1635,-110 1635,-129"/>
<text text-anchor="middle" x="1585.5" y="-117" font-family="Helvetica,sans-Serif" font-size="10.00">AMReX_BCRec.H</text>
</a>
</g>
</g>
<!-- Node5&#45;&gt;Node11 -->
<g id="edge10_Node000005_Node000011" class="edge">
<title>Node5&#45;&gt;Node11</title>
<g id="a_edge10_Node000005_Node000011"><a xlink:title=" ">
<path fill="none" stroke="#63b8ff" d="M1502.81,-170.37C1518.5,-160.91 1543.9,-145.59 1562.41,-134.42"/>
<polygon fill="#63b8ff" stroke="#63b8ff" points="1564.37,-137.33 1571.13,-129.17 1560.76,-131.33 1564.37,-137.33"/>
</a>
</g>
</g>
<!-- Node5&#45;&gt;Node12 -->
<g id="edge11_Node000005_Node000012" class="edge">
<title>Node5&#45;&gt;Node12</title>
<g id="a_edge11_Node000005_Node000012"><a xlink:title=" ">
<path fill="none" stroke="#63b8ff" d="M1542.12,-170.48C1602.56,-160.87 1704.04,-144.73 1801.77,-129.11"/>
<polygon fill="#63b8ff" stroke="#63b8ff" points="1802.51,-132.54 1811.83,-127.51 1801.4,-125.63 1802.51,-132.54"/>
</a>
</g>
</g>
<!-- Node13 -->
<g id="Node000013" class="node">
<title>Node13</title>
<g id="a_Node000013"><a xlink:href="incflo__enums_8_h.html" target="_top" xlink:title=" ">
<polygon fill="white" stroke="#666666" points="1351,-74 1210,-74 1210,-55 1351,-55 1351,-74"/>
<text text-anchor="middle" x="1280.5" y="-62" font-family="Helvetica,sans-Serif" font-size="10.00">amr&#45;wind/incflo_enums.H</text>
</a>
</g>
</g>
<!-- Node5&#45;&gt;Node13 -->
<g id="edge12_Node000005_Node000013" class="edge">
<title>Node5&#45;&gt;Node13</title>
<g id="a_edge12_Node000005_Node000013"><a xlink:title=" ">
<path fill="none" stroke="#63b8ff" d="M1480.33,-170.18C1466.55,-155.78 1437.3,-127.11 1407.5,-110 1381.83,-95.26 1350.47,-84.21 1325.33,-76.81"/>
<polygon fill="#63b8ff" stroke="#63b8ff" points="1326.26,-73.43 1315.68,-74.06 1324.33,-80.17 1326.26,-73.43"/>
</a>
</g>
</g>
<!-- Node14 -->
<g id="Node000014" class="node">
<title>Node14</title>
<g id="a_Node000014"><a xlink:href="_view_field_8_h.html" target="_top" xlink:title=" ">
<polygon fill="white" stroke="#666666" points="657.5,-129 509.5,-129 509.5,-110 657.5,-110 657.5,-129"/>
<text text-anchor="middle" x="583.5" y="-117" font-family="Helvetica,sans-Serif" font-size="10.00">amr&#45;wind/core/ViewField.H</text>
</a>
</g>
</g>
<!-- Node5&#45;&gt;Node14 -->
<g id="edge15_Node000005_Node000014" class="edge">
<title>Node5&#45;&gt;Node14</title>
<g id="a_edge15_Node000005_Node000014"><a xlink:title=" ">
<path fill="none" stroke="#63b8ff" d="M1426.23,-174.91C1383.53,-172.11 1325.59,-168.32 1274.5,-165 1055.8,-150.8 798.14,-134.26 667.93,-125.91"/>
<polygon fill="#63b8ff" stroke="#63b8ff" points="667.84,-122.4 657.64,-125.25 667.39,-129.38 667.84,-122.4"/>
</a>
</g>
</g>
<!-- Node13&#45;&gt;Node4 -->
<g id="edge13_Node000013_Node000004" class="edge">
<title>Node13&#45;&gt;Node4</title>
<g id="a_edge13_Node000013_Node000004"><a xlink:title=" ">
<path fill="none" stroke="#63b8ff" d="M1239.37,-54.98C1189.57,-44.67 1106.55,-27.49 1059.62,-17.77"/>
<polygon fill="#63b8ff" stroke="#63b8ff" points="1060.12,-14.3 1049.62,-15.7 1058.7,-21.16 1060.12,-14.3"/>
</a>
</g>
</g>
<!-- Node14&#45;&gt;Node3 -->
<g id="edge17_Node000014_Node000003" class="edge">
<title>Node14&#45;&gt;Node3</title>
<g id="a_edge17_Node000014_Node000003"><a xlink:title=" ">
<path fill="none" stroke="#63b8ff" d="M614.19,-109.98C646.67,-100.97 698.1,-86.7 733.91,-76.76"/>
<polygon fill="#63b8ff" stroke="#63b8ff" points="734.87,-80.13 743.57,-74.08 733,-73.38 734.87,-80.13"/>
</a>
</g>
</g>
<!-- Node14&#45;&gt;Node6 -->
<g id="edge16_Node000014_Node000006" class="edge">
<title>Node14&#45;&gt;Node6</title>
<g id="a_edge16_Node000014_Node000006"><a xlink:title=" ">
<path fill="none" stroke="#63b8ff" d="M550.88,-109.98C512.88,-100.06 450.47,-83.77 412.66,-73.9"/>
<polygon fill="#63b8ff" stroke="#63b8ff" points="413.25,-70.43 402.69,-71.29 411.48,-77.21 413.25,-70.43"/>
</a>
</g>
</g>
<!-- Node14&#45;&gt;Node10 -->
<g id="edge18_Node000014_Node000010" class="edge">
<title>Node14&#45;&gt;Node10</title>
<g id="a_edge18_Node000014_Node000010"><a xlink:title=" ">
<path fill="none" stroke="#63b8ff" d="M645.36,-109.98C716.16,-100.24 831.62,-84.34 903.66,-74.43"/>
<polygon fill="#63b8ff" stroke="#63b8ff" points="904.53,-77.84 913.96,-73.01 903.58,-70.9 904.53,-77.84"/>
</a>
</g>
</g>
<!-- Node15 -->
<g id="Node000015" class="node">
<title>Node15</title>
<g id="a_Node000015"><a xlink:title=" ">
<polygon fill="#e0e0e0" stroke="#999999" points="581.5,-74 483.5,-74 483.5,-55 581.5,-55 581.5,-74"/>
<text text-anchor="middle" x="532.5" y="-62" font-family="Helvetica,sans-Serif" font-size="10.00">AMReX_Vector.H</text>
</a>
</g>
</g>
<!-- Node14&#45;&gt;Node15 -->
<g id="edge19_Node000014_Node000015" class="edge">
<title>Node14&#45;&gt;Node15</title>
<g id="a_edge19_Node000014_Node000015"><a xlink:title=" ">
<path fill="none" stroke="#63b8ff" d="M575.08,-109.75C567.73,-102.11 556.87,-90.82 547.96,-81.56"/>
<polygon fill="#63b8ff" stroke="#63b8ff" points="550.22,-78.87 540.76,-74.09 545.18,-83.72 550.22,-78.87"/>
</a>
</g>
</g>
<!-- Node19&#45;&gt;Node2 -->
<g id="edge39_Node000019_Node000002" class="edge">
<title>Node19&#45;&gt;Node2</title>
<g id="a_edge39_Node000019_Node000002"><a xlink:title=" ">
<path fill="none" stroke="#63b8ff" d="M1525.92,-296.95C1587.36,-285.04 1674.13,-268.21 1729.6,-257.45"/>
<polygon fill="#63b8ff" stroke="#63b8ff" points="1730.43,-260.86 1739.58,-255.52 1729.1,-253.99 1730.43,-260.86"/>
</a>
</g>
</g>
<!-- Node19&#45;&gt;Node3 -->
<g id="edge34_Node000019_Node000003" class="edge">
<title>Node19&#45;&gt;Node3</title>
<g id="a_edge34_Node000019_Node000003"><a xlink:title=" ">
<path fill="none" stroke="#63b8ff" d="M1488.82,-296.93C1564.92,-264.76 1732.07,-182.96 1662.5,-110 1633.44,-79.53 947.54,-76.36 905.5,-74 894.87,-73.4 883.76,-72.74 872.7,-72.06"/>
<polygon fill="#63b8ff" stroke="#63b8ff" points="872.77,-68.55 862.57,-71.42 872.33,-75.54 872.77,-68.55"/>
</a>
</g>
</g>
<!-- Node19&#45;&gt;Node5 -->
<g id="edge26_Node000019_Node000005" class="edge">
<title>Node19&#45;&gt;Node5</title>
<g id="a_edge26_Node000019_Node000005"><a xlink:title=" ">
<path fill="none" stroke="#63b8ff" d="M1463.14,-296.8C1469.19,-287.14 1476.57,-273.83 1480.5,-261 1486.69,-240.81 1488.36,-216.55 1488.69,-200.07"/>
<polygon fill="#63b8ff" stroke="#63b8ff" points="1492.19,-199.64 1488.73,-189.62 1485.19,-199.61 1492.19,-199.64"/>
</a>
</g>
</g>
<!-- Node19&#45;&gt;Node10 -->
<g id="edge41_Node000019_Node000010" class="edge">
<title>Node19&#45;&gt;Node10</title>
<g id="a_edge41_Node000019_Node000010"><a xlink:title=" ">
<path fill="none" stroke="#63b8ff" d="M1393.87,-296.93C1373.42,-289.38 1352.05,-277.99 1337.5,-261 1292.41,-208.36 1350.33,-156.02 1298.5,-110 1260.33,-76.11 1117.82,-67.8 1033.07,-65.91"/>
<polygon fill="#63b8ff" stroke="#63b8ff" points="1033.1,-62.41 1023.03,-65.71 1032.96,-69.41 1033.1,-62.41"/>
</a>
</g>
</g>
<!-- Node19&#45;&gt;Node18 -->
<g id="edge43_Node000019_Node000018" class="edge">
<title>Node19&#45;&gt;Node18</title>
<g id="a_edge43_Node000019_Node000018"><a xlink:title=" ">
<path fill="none" stroke="#63b8ff" d="M1389.82,-296.99C1349.82,-287.76 1297.32,-274.85 1251.5,-261 1168.34,-235.86 1141.97,-239.75 1067.5,-195 1050.51,-184.79 1051.98,-174.34 1034.5,-165 1002.76,-148.04 964.4,-137.4 931.34,-130.79"/>
<polygon fill="#63b8ff" stroke="#63b8ff" points="931.74,-127.3 921.26,-128.87 930.43,-134.18 931.74,-127.3"/>
</a>
</g>
</g>
<!-- Node20 -->
<g id="Node000020" class="node">
<title>Node20</title>
<g id="a_Node000020"><a xlink:title=" ">
<polygon fill="#e0e0e0" stroke="#999999" points="415,-129 370,-129 370,-110 415,-110 415,-129"/>
<text text-anchor="middle" x="392.5" y="-117" font-family="Helvetica,sans-Serif" font-size="10.00">utility</text>
</a>
</g>
</g>
<!-- Node19&#45;&gt;Node20 -->
<g id="edge25_Node000019_Node000020" class="edge">
<title>Node19&#45;&gt;Node20</title>
<g id="a_edge25_Node000019_Node000020"><a xlink:title=" ">
<path fill="none" stroke="#63b8ff" d="M1376.33,-308.27C1214.79,-302.14 845.8,-285.85 722.5,-261 633.63,-243.09 612.5,-231.45 529.5,-195 487.81,-176.69 441.77,-150.29 415.09,-134.33"/>
<polygon fill="#63b8ff" stroke="#63b8ff" points="416.87,-131.31 406.5,-129.14 413.26,-137.31 416.87,-131.31"/>
</a>
</g>
</g>
<!-- Node19&#45;&gt;Node21 -->
<g id="edge27_Node000019_Node000021" class="edge">
<title>Node19&#45;&gt;Node21</title>
<g id="a_edge27_Node000019_Node000021"><a xlink:title=" ">
<path fill="none" stroke="#63b8ff" d="M1530.63,-302.73C1643.38,-290.64 1852.34,-268.24 1968.04,-255.84"/>
<polygon fill="#63b8ff" stroke="#63b8ff" points="1968.68,-259.29 1978.25,-254.75 1967.94,-252.33 1968.68,-259.29"/>
</a>
</g>
</g>
<!-- Node22 -->
<g id="Node000022" class="node">
<title>Node22</title>
<g id="a_Node000022"><a xlink:title=" ">
<polygon fill="#e0e0e0" stroke="#999999" points="2570.5,-189.5 2478.5,-189.5 2478.5,-170.5 2570.5,-170.5 2570.5,-189.5"/>
<text text-anchor="middle" x="2524.5" y="-177.5" font-family="Helvetica,sans-Serif" font-size="10.00">AMReX_REAL.H</text>
</a>
</g>
</g>
<!-- Node19&#45;&gt;Node22 -->
<g id="edge42_Node000019_Node000022" class="edge">
<title>Node19&#45;&gt;Node22</title>
<g id="a_edge42_Node000019_Node000022"><a xlink:title=" ">
<path fill="none" stroke="#63b8ff" d="M1530.58,-308.31C1656.69,-303.24 1914.79,-290.04 2131.5,-261 2283.2,-240.67 2320.16,-228.56 2469.5,-195 2473.66,-194.06 2477.99,-193.04 2482.31,-192"/>
<polygon fill="#63b8ff" stroke="#63b8ff" points="2483.43,-195.33 2492.29,-189.52 2481.74,-188.53 2483.43,-195.33"/>
</a>
</g>
</g>
<!-- Node26 -->
<g id="Node000026" class="node">
<title>Node26</title>
<g id="a_Node000026"><a xlink:href="_field_utils_8_h.html" target="_top" xlink:title=" ">
<polygon fill="white" stroke="#666666" points="1265.5,-189.5 1119.5,-189.5 1119.5,-170.5 1265.5,-170.5 1265.5,-189.5"/>
<text text-anchor="middle" x="1192.5" y="-177.5" font-family="Helvetica,sans-Serif" font-size="10.00">amr&#45;wind/core/FieldUtils.H</text>
</a>
</g>
</g>
<!-- Node19&#45;&gt;Node26 -->
<g id="edge35_Node000019_Node000026" class="edge">
<title>Node19&#45;&gt;Node26</title>
<g id="a_edge35_Node000019_Node000026"><a xlink:title=" ">
<path fill="none" stroke="#63b8ff" d="M1398.44,-296.99C1369.36,-288.53 1333.55,-276.39 1303.5,-261 1267.82,-242.73 1230.95,-213.79 1209.96,-196.18"/>
<polygon fill="#63b8ff" stroke="#63b8ff" points="1212.12,-193.42 1202.23,-189.6 1207.58,-198.75 1212.12,-193.42"/>
</a>
</g>
</g>
<!-- Node28 -->
<g id="Node000028" class="node">
<title>Node28</title>
<g id="a_Node000028"><a xlink:title=" ">
<polygon fill="#e0e0e0" stroke="#999999" points="1025.5,-189.5 915.5,-189.5 915.5,-170.5 1025.5,-170.5 1025.5,-189.5"/>
<text text-anchor="middle" x="970.5" y="-177.5" font-family="Helvetica,sans-Serif" font-size="10.00">AMReX_AmrCore.H</text>
</a>
</g>
</g>
<!-- Node19&#45;&gt;Node28 -->
<g id="edge40_Node000019_Node000028" class="edge">
<title>Node19&#45;&gt;Node28</title>
<g id="a_edge40_Node000019_Node000028"><a xlink:title=" ">
<path fill="none" stroke="#63b8ff" d="M1376.15,-308.28C1272.81,-303.54 1096.12,-291.18 1039.5,-261 1012.62,-246.68 991.58,-217.27 980.11,-198.38"/>
<polygon fill="#63b8ff" stroke="#63b8ff" points="983.06,-196.49 975.01,-189.6 977.01,-200 983.06,-196.49"/>
</a>
</g>
</g>
<!-- Node29 -->
<g id="Node000029" class="node">
<title>Node29</title>
<g id="a_Node000029"><a xlink:title=" ">
<polygon fill="#e0e0e0" stroke="#999999" points="1471,-255.5 1346,-255.5 1346,-236.5 1471,-236.5 1471,-255.5"/>
<text text-anchor="middle" x="1408.5" y="-243.5" font-family="Helvetica,sans-Serif" font-size="10.00">AMReX_FillPatchUtil.H</text>
</a>
</g>
</g>
<!-- Node19&#45;&gt;Node29 -->
<g id="edge44_Node000019_Node000029" class="edge">
<title>Node19&#45;&gt;Node29</title>
<g id="a_edge44_Node000019_Node000029"><a xlink:title=" ">
<path fill="none" stroke="#63b8ff" d="M1443.51,-296.8C1436.77,-287.21 1427.84,-274.5 1420.68,-264.32"/>
<polygon fill="#63b8ff" stroke="#63b8ff" points="1423.33,-262.01 1414.72,-255.84 1417.61,-266.04 1423.33,-262.01"/>
</a>
</g>
</g>
<!-- Node21&#45;&gt;Node9 -->
<g id="edge32_Node000021_Node000009" class="edge">
<title>Node21&#45;&gt;Node9</title>
<g id="a_edge32_Node000021_Node000009"><a xlink:title=" ">
<path fill="none" stroke="#63b8ff" d="M2024.68,-236.49C1996.9,-227.12 1951.58,-211.23 1913.5,-195 1867.88,-175.56 1816.36,-149.38 1786.54,-133.79"/>
<polygon fill="#63b8ff" stroke="#63b8ff" points="1788.14,-130.68 1777.66,-129.12 1784.88,-136.87 1788.14,-130.68"/>
</a>
</g>
</g>
<!-- Node21&#45;&gt;Node15 -->
<g id="edge31_Node000021_Node000015" class="edge">
<title>Node21&#45;&gt;Node15</title>
<g id="a_edge31_Node000021_Node000015"><a xlink:title=" ">
<path fill="none" stroke="#63b8ff" d="M2038,-236.4C2024.51,-226.9 2002.66,-210.83 1985.5,-195 1948.04,-160.43 1954.79,-131.34 1908.5,-110 1846.37,-81.35 745.85,-77 677.5,-74 649.37,-72.76 618.18,-70.99 591.97,-69.38"/>
<polygon fill="#63b8ff" stroke="#63b8ff" points="592.01,-65.88 581.81,-68.75 591.57,-72.86 592.01,-65.88"/>
</a>
</g>
</g>
<!-- Node21&#45;&gt;Node22 -->
<g id="edge28_Node000021_Node000022" class="edge">
<title>Node21&#45;&gt;Node22</title>
<g id="a_edge28_Node000021_Node000022"><a xlink:title=" ">
<path fill="none" stroke="#63b8ff" d="M2122.85,-239.25C2206.71,-231.93 2348.86,-217.45 2469.5,-195 2474.22,-194.12 2479.13,-193.07 2483.99,-191.95"/>
<polygon fill="#63b8ff" stroke="#63b8ff" points="2484.93,-195.32 2493.82,-189.56 2483.28,-188.52 2484.93,-195.32"/>
</a>
</g>
</g>
<!-- Node23 -->
<g id="Node000023" class="node">
<title>Node23</title>
<g id="a_Node000023"><a xlink:title=" ">
<polygon fill="#e0e0e0" stroke="#999999" points="2326.5,-189.5 2192.5,-189.5 2192.5,-170.5 2326.5,-170.5 2326.5,-189.5"/>
<text text-anchor="middle" x="2259.5" y="-177.5" font-family="Helvetica,sans-Serif" font-size="10.00">AMReX_GpuQualifiers.H</text>
</a>
</g>
</g>
<!-- Node21&#45;&gt;Node23 -->
<g id="edge29_Node000021_Node000023" class="edge">
<title>Node21&#45;&gt;Node23</title>
<g id="a_edge29_Node000021_Node000023"><a xlink:title=" ">
<path fill="none" stroke="#63b8ff" d="M2078.69,-236.37C2115.64,-225.05 2180.59,-205.16 2221.76,-192.56"/>
<polygon fill="#63b8ff" stroke="#63b8ff" points="2222.89,-195.87 2231.43,-189.6 2220.84,-189.18 2222.89,-195.87"/>
</a>
</g>
</g>
<!-- Node24 -->
<g id="Node000024" class="node">
<title>Node24</title>
<g id="a_Node000024"><a xlink:title=" ">
<polygon fill="#e0e0e0" stroke="#999999" points="2460.5,-189.5 2344.5,-189.5 2344.5,-170.5 2460.5,-170.5 2460.5,-189.5"/>
<text text-anchor="middle" x="2402.5" y="-177.5" font-family="Helvetica,sans-Serif" font-size="10.00">AMReX_Extension.H</text>
</a>
</g>
</g>
<!-- Node21&#45;&gt;Node24 -->
<g id="edge30_Node000021_Node000024" class="edge">
<title>Node21&#45;&gt;Node24</title>
<g id="a_edge30_Node000021_Node000024"><a xlink:title=" ">
<path fill="none" stroke="#63b8ff" d="M2102.08,-236.47C2159.24,-226.89 2254.1,-210.64 2335.5,-195 2341.18,-193.91 2347.13,-192.73 2353.03,-191.53"/>
<polygon fill="#63b8ff" stroke="#63b8ff" points="2353.77,-194.95 2362.86,-189.5 2352.36,-188.09 2353.77,-194.95"/>
</a>
</g>
</g>
<!-- Node25 -->
<g id="Node000025" class="node">
<title>Node25</title>
<g id="a_Node000025"><a xlink:title=" ">
<polygon fill="#e0e0e0" stroke="#999999" points="2174,-189.5 2127,-189.5 2127,-170.5 2174,-170.5 2174,-189.5"/>
<text text-anchor="middle" x="2150.5" y="-177.5" font-family="Helvetica,sans-Serif" font-size="10.00">cmath</text>
</a>
</g>
</g>
<!-- Node21&#45;&gt;Node25 -->
<g id="edge33_Node000021_Node000025" class="edge">
<title>Node21&#45;&gt;Node25</title>
<g id="a_edge33_Node000021_Node000025"><a xlink:title=" ">
<path fill="none" stroke="#63b8ff" d="M2063.99,-236.37C2080.46,-225.82 2108.57,-207.84 2128.26,-195.23"/>
<polygon fill="#63b8ff" stroke="#63b8ff" points="2130.37,-198.04 2136.91,-189.7 2126.6,-192.14 2130.37,-198.04"/>
</a>
</g>
</g>
<!-- Node26&#45;&gt;Node3 -->
<g id="edge36_Node000026_Node000003" class="edge">
<title>Node26&#45;&gt;Node3</title>
<g id="a_edge36_Node000026_Node000003"><a xlink:title=" ">
<path fill="none" stroke="#63b8ff" d="M1189.79,-170.47C1184.52,-155.41 1171.36,-124.36 1148.5,-110 1125.56,-95.59 975.57,-81.19 872.65,-72.82"/>
<polygon fill="#63b8ff" stroke="#63b8ff" points="872.78,-69.32 862.53,-72.01 872.22,-76.3 872.78,-69.32"/>
</a>
</g>
</g>
<!-- Node26&#45;&gt;Node10 -->
<g id="edge37_Node000026_Node000010" class="edge">
<title>Node26&#45;&gt;Node10</title>
<g id="a_edge37_Node000026_Node000010"><a xlink:title=" ">
<path fill="none" stroke="#63b8ff" d="M1144.86,-170.42C1097.28,-161.11 1028.18,-145.38 1006.5,-129 991.32,-117.53 980.99,-98.09 974.98,-83.73"/>
<polygon fill="#63b8ff" stroke="#63b8ff" points="978.22,-82.43 971.35,-74.36 971.69,-84.95 978.22,-82.43"/>
</a>
</g>
</g>
<!-- Node27 -->
<g id="Node000027" class="node">
<title>Node27</title>
<g id="a_Node000027"><a xlink:title=" ">
<polygon fill="#e0e0e0" stroke="#999999" points="1139.5,-129 1015.5,-129 1015.5,-110 1139.5,-110 1139.5,-129"/>
<text text-anchor="middle" x="1077.5" y="-117" font-family="Helvetica,sans-Serif" font-size="10.00">AMReX_Interpolater.H</text>
</a>
</g>
</g>
<!-- Node26&#45;&gt;Node27 -->
<g id="edge38_Node000026_Node000027" class="edge">
<title>Node26&#45;&gt;Node27</title>
<g id="a_edge38_Node000026_Node000027"><a xlink:title=" ">
<path fill="none" stroke="#63b8ff" d="M1175.53,-170.37C1156.59,-160.73 1125.71,-145.03 1103.67,-133.81"/>
<polygon fill="#63b8ff" stroke="#63b8ff" points="1105.04,-130.58 1094.54,-129.17 1101.86,-136.82 1105.04,-130.58"/>
</a>
</g>
</g>
<!-- Node30&#45;&gt;Node3 -->
<g id="edge48_Node000030_Node000003" class="edge">
<title>Node30&#45;&gt;Node3</title>
<g id="a_edge48_Node000030_Node000003"><a xlink:title=" ">
<path fill="none" stroke="#63b8ff" d="M803.41,-236.32C798.85,-217.1 787.9,-169.42 781.5,-129 779.14,-114.07 777.31,-97.04 776.11,-84.38"/>
<polygon fill="#63b8ff" stroke="#63b8ff" points="779.57,-83.81 775.19,-74.16 772.6,-84.43 779.57,-83.81"/>
</a>
</g>
</g>
<!-- Node30&#45;&gt;Node5 -->
<g id="edge50_Node000030_Node000005" class="edge">
<title>Node30&#45;&gt;Node5</title>
<g id="a_edge50_Node000030_Node000005"><a xlink:title=" ">
<path fill="none" stroke="#63b8ff" d="M880.22,-238C1012.33,-225.62 1285.49,-200.02 1416,-187.79"/>
<polygon fill="#63b8ff" stroke="#63b8ff" points="1416.65,-191.25 1426.28,-186.83 1416,-184.28 1416.65,-191.25"/>
</a>
</g>
</g>
<!-- Node30&#45;&gt;Node6 -->
<g id="edge46_Node000030_Node000006" class="edge">
<title>Node30&#45;&gt;Node6</title>
<g id="a_edge46_Node000030_Node000006"><a xlink:title=" ">
<path fill="none" stroke="#63b8ff" d="M730.78,-243.01C594.77,-238.65 317.89,-226.02 287.5,-195 261.02,-167.97 262.01,-141.81 282.5,-110 296.98,-87.52 325.89,-76.27 348.57,-70.72"/>
<polygon fill="#63b8ff" stroke="#63b8ff" points="349.46,-74.1 358.48,-68.55 347.97,-67.27 349.46,-74.1"/>
</a>
</g>
</g>
<!-- Node30&#45;&gt;Node8 -->
<g id="edge47_Node000030_Node000008" class="edge">
<title>Node30&#45;&gt;Node8</title>
<g id="a_edge47_Node000030_Node000008"><a xlink:title=" ">
<path fill="none" stroke="#63b8ff" d="M815.7,-236.41C839.23,-216.67 896.1,-169.41 906.5,-165 931.61,-154.36 1096.6,-135.79 1185.67,-126.36"/>
<polygon fill="#63b8ff" stroke="#63b8ff" points="1186.31,-129.81 1195.88,-125.28 1185.57,-122.85 1186.31,-129.81"/>
</a>
</g>
</g>
<!-- Node30&#45;&gt;Node10 -->
<g id="edge72_Node000030_Node000010" class="edge">
<title>Node30&#45;&gt;Node10</title>
<g id="a_edge72_Node000030_Node000010"><a xlink:title=" ">
<path fill="none" stroke="#63b8ff" d="M810.05,-236.32C818.69,-220.48 838.83,-186.56 863.5,-165 888.95,-142.75 906.05,-152.34 930.5,-129 943.98,-116.13 954.38,-97.46 960.87,-83.7"/>
<polygon fill="#63b8ff" stroke="#63b8ff" points="964.18,-84.86 965.05,-74.3 957.78,-82.01 964.18,-84.86"/>
</a>
</g>
</g>
<!-- Node30&#45;&gt;Node26 -->
<g id="edge49_Node000030_Node000026" class="edge">
<title>Node30&#45;&gt;Node26</title>
<g id="a_edge49_Node000030_Node000026"><a xlink:title=" ">
<path fill="none" stroke="#63b8ff" d="M857.29,-236.44C928.25,-224.7 1055.5,-203.66 1131.15,-191.15"/>
<polygon fill="#63b8ff" stroke="#63b8ff" points="1131.72,-194.6 1141.02,-189.51 1130.58,-187.69 1131.72,-194.6"/>
</a>
</g>
</g>
<!-- Node30&#45;&gt;Node28 -->
<g id="edge71_Node000030_Node000028" class="edge">
<title>Node30&#45;&gt;Node28</title>
<g id="a_edge71_Node000030_Node000028"><a xlink:title=" ">
<path fill="none" stroke="#63b8ff" d="M827.75,-236.37C856.37,-225.27 906.26,-205.92 938.83,-193.28"/>
<polygon fill="#63b8ff" stroke="#63b8ff" points="940.28,-196.48 948.34,-189.6 937.75,-189.95 940.28,-196.48"/>
</a>
</g>
</g>
<!-- Node31 -->
<g id="Node000031" class="node">
<title>Node31</title>
<g id="a_Node000031"><a xlink:href="_int_field_8_h.html" target="_top" xlink:title=" ">
<polygon fill="white" stroke="#666666" points="137,-189.5 0,-189.5 0,-170.5 137,-170.5 137,-189.5"/>
<text text-anchor="middle" x="68.5" y="-177.5" font-family="Helvetica,sans-Serif" font-size="10.00">amr&#45;wind/core/IntField.H</text>
</a>
</g>
</g>
<!-- Node30&#45;&gt;Node31 -->
<g id="edge51_Node000030_Node000031" class="edge">
<title>Node30&#45;&gt;Node31</title>
<g id="a_edge51_Node000030_Node000031"><a xlink:title=" ">
<path fill="none" stroke="#63b8ff" d="M730.71,-240.65C611.4,-233.38 370.71,-217.31 167.5,-195 156.8,-193.83 145.47,-192.4 134.45,-190.91"/>
<polygon fill="#63b8ff" stroke="#63b8ff" points="134.83,-187.43 124.44,-189.53 133.87,-194.36 134.83,-187.43"/>
</a>
</g>
</g>
<!-- Node32 -->
<g id="Node000032" class="node">
<title>Node32</title>
<g id="a_Node000032"><a xlink:title=" ">
<polygon fill="#e0e0e0" stroke="#999999" points="199.5,-129 87.5,-129 87.5,-110 199.5,-110 199.5,-129"/>
<text text-anchor="middle" x="143.5" y="-117" font-family="Helvetica,sans-Serif" font-size="10.00">AMReX_iMultiFab.H</text>
</a>
</g>
</g>
<!-- Node30&#45;&gt;Node32 -->
<g id="edge73_Node000030_Node000032" class="edge">
<title>Node30&#45;&gt;Node32</title>
<g id="a_edge73_Node000030_Node000032"><a xlink:title=" ">
<path fill="none" stroke="#63b8ff" d="M730.79,-245.27C592.58,-244.71 302.88,-238.22 213.5,-195 187.62,-182.48 166.46,-155.97 154.41,-138.19"/>
<polygon fill="#63b8ff" stroke="#63b8ff" points="157.06,-135.85 148.69,-129.36 151.19,-139.65 157.06,-135.85"/>
</a>
</g>
</g>
<!-- Node33 -->
<g id="Node000033" class="node">
<title>Node33</title>
<g id="a_Node000033"><a xlink:href="_scratch_field_8_h.html" target="_top" xlink:title=" ">
<polygon fill="white" stroke="#666666" points="698.5,-189.5 538.5,-189.5 538.5,-170.5 698.5,-170.5 698.5,-189.5"/>
<text text-anchor="middle" x="618.5" y="-177.5" font-family="Helvetica,sans-Serif" font-size="10.00">amr&#45;wind/core/ScratchField.H</text>
</a>
</g>
</g>
<!-- Node30&#45;&gt;Node33 -->
<g id="edge55_Node000030_Node000033" class="edge">
<title>Node30&#45;&gt;Node33</title>
<g id="a_edge55_Node000030_Node000033"><a xlink:title=" ">
<path fill="none" stroke="#63b8ff" d="M780.28,-236.37C747.57,-225.17 690.33,-205.58 653.44,-192.96"/>
<polygon fill="#63b8ff" stroke="#63b8ff" points="654.21,-189.52 643.62,-189.6 651.95,-196.15 654.21,-189.52"/>
</a>
</g>
</g>
<!-- Node34 -->
<g id="Node000034" class="node">
<title>Node34</title>
<g id="a_Node000034"><a xlink:href="_int_scratch_field_8_h.html" target="_top" xlink:title=" ">
<polygon fill="white" stroke="#666666" points="436,-195 297,-195 297,-165 436,-165 436,-195"/>
<text text-anchor="start" x="305" y="-183" font-family="Helvetica,sans-Serif" font-size="10.00">amr&#45;wind/core/IntScratch</text>
<text text-anchor="middle" x="366.5" y="-172" font-family="Helvetica,sans-Serif" font-size="10.00">Field.H</text>
</a>
</g>
</g>
<!-- Node30&#45;&gt;Node34 -->
<g id="edge63_Node000030_Node000034" class="edge">
<title>Node30&#45;&gt;Node34</title>
<g id="a_edge63_Node000030_Node000034"><a xlink:title=" ">
<path fill="none" stroke="#63b8ff" d="M746.75,-236.44C669.33,-225.15 532.84,-205.25 446.17,-192.62"/>
<polygon fill="#63b8ff" stroke="#63b8ff" points="446.52,-189.13 436.12,-191.15 445.51,-196.06 446.52,-189.13"/>
</a>
</g>
</g>
<!-- Node31&#45;&gt;Node3 -->
<g id="edge53_Node000031_Node000003" class="edge">
<title>Node31&#45;&gt;Node3</title>
<g id="a_edge53_Node000031_Node000003"><a xlink:title=" ">
<path fill="none" stroke="#63b8ff" d="M66.7,-170.25C64.22,-155.41 61.78,-125.43 78.5,-110 89.33,-100 486.64,-79.45 676.02,-70.2"/>
<polygon fill="#63b8ff" stroke="#63b8ff" points="676.44,-73.68 686.26,-69.7 676.1,-66.69 676.44,-73.68"/>
</a>
</g>
</g>
<!-- Node31&#45;&gt;Node6 -->
<g id="edge52_Node000031_Node000006" class="edge">
<title>Node31&#45;&gt;Node6</title>
<g id="a_edge52_Node000031_Node000006"><a xlink:title=" ">
<path fill="none" stroke="#63b8ff" d="M60.81,-170.31C49.18,-156.09 30.02,-127.67 45.5,-110 65.29,-87.4 267.83,-72.48 348.04,-67.42"/>
<polygon fill="#63b8ff" stroke="#63b8ff" points="348.31,-70.91 358.08,-66.79 347.88,-63.92 348.31,-70.91"/>
</a>
</g>
</g>
<!-- Node31&#45;&gt;Node32 -->
<g id="edge54_Node000031_Node000032" class="edge">
<title>Node31&#45;&gt;Node32</title>
<g id="a_edge54_Node000031_Node000032"><a xlink:title=" ">
<path fill="none" stroke="#63b8ff" d="M79.57,-170.37C91.31,-161.21 110.09,-146.56 124.26,-135.51"/>
<polygon fill="#63b8ff" stroke="#63b8ff" points="126.66,-138.08 132.39,-129.17 122.35,-132.56 126.66,-138.08"/>
</a>
</g>
</g>
<!-- Node33&#45;&gt;Node3 -->
<g id="edge58_Node000033_Node000003" class="edge">
<title>Node33&#45;&gt;Node3</title>
<g id="a_edge58_Node000033_Node000003"><a xlink:title=" ">
<path fill="none" stroke="#63b8ff" d="M629.58,-170.33C646.58,-157.07 680.23,-131.1 709.5,-110 723.78,-99.7 740.14,-88.51 752.87,-79.92"/>
<polygon fill="#63b8ff" stroke="#63b8ff" points="755.07,-82.66 761.42,-74.18 751.17,-76.85 755.07,-82.66"/>
</a>
</g>
</g>
<!-- Node33&#45;&gt;Node6 -->
<g id="edge56_Node000033_Node000006" class="edge">
<title>Node33&#45;&gt;Node6</title>
<g id="a_edge56_Node000033_Node000006"><a xlink:title=" ">
<path fill="none" stroke="#63b8ff" d="M594.13,-170.34C568.64,-161.02 527.66,-145.34 493.5,-129 461.35,-113.62 425.73,-92.97 403.24,-79.45"/>
<polygon fill="#63b8ff" stroke="#63b8ff" points="404.82,-76.32 394.45,-74.13 401.19,-82.3 404.82,-76.32"/>
</a>
</g>
</g>
<!-- Node33&#45;&gt;Node10 -->
<g id="edge60_Node000033_Node000010" class="edge">
<title>Node33&#45;&gt;Node10</title>
<g id="a_edge60_Node000033_Node000010"><a xlink:title=" ">
<path fill="none" stroke="#63b8ff" d="M636.22,-170.34C665.75,-156.17 727.19,-127.82 781.5,-110 824.98,-95.74 875.52,-83.99 913.1,-76.15"/>
<polygon fill="#63b8ff" stroke="#63b8ff" points="914.24,-79.49 923.33,-74.04 912.83,-72.63 914.24,-79.49"/>
</a>
</g>
</g>
<!-- Node33&#45;&gt;Node14 -->
<g id="edge59_Node000033_Node000014" class="edge">
<title>Node33&#45;&gt;Node14</title>
<g id="a_edge59_Node000033_Node000014"><a xlink:title=" ">
<path fill="none" stroke="#63b8ff" d="M613.34,-170.37C608.27,-161.9 600.4,-148.74 594.01,-138.07"/>
<polygon fill="#63b8ff" stroke="#63b8ff" points="596.82,-135.95 588.69,-129.17 590.82,-139.55 596.82,-135.95"/>
</a>
</g>
</g>
<!-- Node33&#45;&gt;Node15 -->
<g id="edge61_Node000033_Node000015" class="edge">
<title>Node33&#45;&gt;Node15</title>
<g id="a_edge61_Node000033_Node000015"><a xlink:title=" ">
<path fill="none" stroke="#63b8ff" d="M566.15,-170.42C541.87,-163.53 515.18,-151.17 500.5,-129 490.34,-113.66 502.86,-94.65 515.09,-81.45"/>
<polygon fill="#63b8ff" stroke="#63b8ff" points="517.88,-83.62 522.47,-74.07 512.93,-78.67 517.88,-83.62"/>
</a>
</g>
</g>
<!-- Node33&#45;&gt;Node18 -->
<g id="edge62_Node000033_Node000018" class="edge">
<title>Node33&#45;&gt;Node18</title>
<g id="a_edge62_Node000033_Node000018"><a xlink:title=" ">
<path fill="none" stroke="#63b8ff" d="M652.96,-170.49C694.74,-160.18 765.22,-142.78 811.04,-131.47"/>
<polygon fill="#63b8ff" stroke="#63b8ff" points="812.13,-134.81 821,-129.02 810.45,-128.02 812.13,-134.81"/>
</a>
</g>
</g>
<!-- Node33&#45;&gt;Node20 -->
<g id="edge57_Node000033_Node000020" class="edge">
<title>Node33&#45;&gt;Node20</title>
<g id="a_edge57_Node000033_Node000020"><a xlink:title=" ">
<path fill="none" stroke="#63b8ff" d="M585.64,-170.49C542.66,-159.37 467.82,-140 425.02,-128.92"/>
<polygon fill="#63b8ff" stroke="#63b8ff" points="425.67,-125.47 415.12,-126.35 423.92,-132.25 425.67,-125.47"/>
</a>
</g>
</g>
<!-- Node34&#45;&gt;Node3 -->
<g id="edge66_Node000034_Node000003" class="edge">
<title>Node34&#45;&gt;Node3</title>
<g id="a_edge66_Node000034_Node000003"><a xlink:title=" ">
<path fill="none" stroke="#63b8ff" d="M359.85,-164.92C353.64,-149.45 347.16,-124.85 360.5,-110 381.22,-86.93 560.12,-74.8 675.87,-69.3"/>
<polygon fill="#63b8ff" stroke="#63b8ff" points="676.35,-72.78 686.18,-68.82 676.02,-65.79 676.35,-72.78"/>
</a>
</g>
</g>
<!-- Node34&#45;&gt;Node6 -->
<g id="edge64_Node000034_Node000006" class="edge">
<title>Node34&#45;&gt;Node6</title>
<g id="a_edge64_Node000034_Node000006"><a xlink:title=" ">
<path fill="none" stroke="#63b8ff" d="M330.23,-164.93C303.94,-152.47 275.29,-132.77 289.5,-110 302.38,-89.36 327.92,-78.03 348.67,-71.98"/>
<polygon fill="#63b8ff" stroke="#63b8ff" points="349.62,-75.35 358.4,-69.41 347.84,-68.58 349.62,-75.35"/>
</a>
</g>
</g>
<!-- Node34&#45;&gt;Node14 -->
<g id="edge67_Node000034_Node000014" class="edge">
<title>Node34&#45;&gt;Node14</title>
<g id="a_edge67_Node000034_Node000014"><a xlink:title=" ">
<path fill="none" stroke="#63b8ff" d="M418.48,-164.99C456.25,-154.8 506.71,-141.2 541.84,-131.73"/>
<polygon fill="#63b8ff" stroke="#63b8ff" points="543.03,-135.04 551.77,-129.05 541.2,-128.28 543.03,-135.04"/>
</a>
</g>
</g>
<!-- Node34&#45;&gt;Node15 -->
<g id="edge69_Node000034_Node000015" class="edge">
<title>Node34&#45;&gt;Node15</title>
<g id="a_edge69_Node000034_Node000015"><a xlink:title=" ">
<path fill="none" stroke="#63b8ff" d="M348.93,-164.94C332.84,-150.38 313.51,-127.35 327.5,-110 345.54,-87.63 419.25,-75.93 473.14,-70.24"/>
<polygon fill="#63b8ff" stroke="#63b8ff" points="473.69,-73.7 483.29,-69.22 472.99,-66.74 473.69,-73.7"/>
</a>
</g>
</g>
<!-- Node34&#45;&gt;Node18 -->
<g id="edge70_Node000034_Node000018" class="edge">
<title>Node34&#45;&gt;Node18</title>
<g id="a_edge70_Node000034_Node000018"><a xlink:title=" ">
<path fill="none" stroke="#63b8ff" d="M436.04,-170.68C526.99,-159.8 685.78,-140.8 779.71,-129.57"/>
<polygon fill="#63b8ff" stroke="#63b8ff" points="780.2,-133.03 789.72,-128.37 779.37,-126.08 780.2,-133.03"/>
</a>
</g>
</g>
<!-- Node34&#45;&gt;Node20 -->
<g id="edge65_Node000034_Node000020" class="edge">
<title>Node34&#45;&gt;Node20</title>
<g id="a_edge65_Node000034_Node000020"><a xlink:title=" ">
<path fill="none" stroke="#63b8ff" d="M372.79,-164.84C376.3,-156.95 380.7,-147.05 384.45,-138.61"/>
<polygon fill="#63b8ff" stroke="#63b8ff" points="387.74,-139.83 388.6,-129.27 381.34,-136.98 387.74,-139.83"/>
</a>
</g>
</g>
<!-- Node34&#45;&gt;Node32 -->
<g id="edge68_Node000034_Node000032" class="edge">
<title>Node34&#45;&gt;Node32</title>
<g id="a_edge68_Node000034_Node000032"><a xlink:title=" ">
<path fill="none" stroke="#63b8ff" d="M313.09,-164.99C274.1,-154.76 221.97,-141.09 185.85,-131.61"/>
<polygon fill="#63b8ff" stroke="#63b8ff" points="186.67,-128.21 176.11,-129.05 184.89,-134.98 186.67,-128.21"/>
</a>
</g>
</g>
<!-- Node35&#45;&gt;Node12 -->
<g id="edge77_Node000035_Node000012" class="edge">
<title>Node35&#45;&gt;Node12</title>
<g id="a_edge77_Node000035_Node000012"><a xlink:title=" ">
<path fill="none" stroke="#63b8ff" d="M2510.15,-231C2555.35,-217.26 2606.93,-194.16 2579.5,-165 2556.6,-140.65 2073.59,-126.08 1909.5,-121.82"/>
<polygon fill="#63b8ff" stroke="#63b8ff" points="1909.25,-118.31 1899.16,-121.55 1909.07,-125.31 1909.25,-118.31"/>
</a>
</g>
</g>
<!-- Node35&#45;&gt;Node17 -->
<g id="edge76_Node000035_Node000017" class="edge">
<title>Node35&#45;&gt;Node17</title>
<g id="a_edge76_Node000035_Node000017"><a xlink:title=" ">
<path fill="none" stroke="#63b8ff" d="M2389.72,-236.6C2322.19,-227.44 2212.56,-211.83 2118.5,-195 2112.65,-193.95 2106.54,-192.78 2100.48,-191.58"/>
<polygon fill="#63b8ff" stroke="#63b8ff" points="2100.89,-188.09 2090.4,-189.52 2099.5,-194.95 2100.89,-188.09"/>
</a>
</g>
</g>
<!-- Node35&#45;&gt;Node22 -->
<g id="edge78_Node000035_Node000022" class="edge">
<title>Node35&#45;&gt;Node22</title>
<g id="a_edge78_Node000035_Node000022"><a xlink:title=" ">
<path fill="none" stroke="#63b8ff" d="M2469.26,-230.8C2480.43,-220.72 2495.44,-207.19 2506.99,-196.78"/>
<polygon fill="#63b8ff" stroke="#63b8ff" points="2509.6,-199.14 2514.69,-189.84 2504.92,-193.94 2509.6,-199.14"/>
</a>
</g>
</g>
</g>
</svg>
