<?xml version="1.0" encoding="UTF-8" standalone="no"?>
<!DOCTYPE svg PUBLIC "-//W3C//DTD SVG 1.1//EN"
 "http://www.w3.org/Graphics/SVG/1.1/DTD/svg11.dtd">
<!-- Generated by graphviz version 2.43.0 (0)
 -->
<!-- Title: /home/runner/work/amr&#45;wind/amr&#45;wind/amr&#45;wind/equation_systems/vof/split_advection.H Pages: 1 -->
<svg width="587pt" height="247pt"
 viewBox="0.00 0.00 587.00 247.00" xmlns="http://www.w3.org/2000/svg" xmlns:xlink="http://www.w3.org/1999/xlink">
<g id="graph0" class="graph" transform="scale(1 1) rotate(0) translate(4 243)">
<title>/home/runner/work/amr&#45;wind/amr&#45;wind/amr&#45;wind/equation_systems/vof/split_advection.H</title>
<!-- Node1 -->
<g id="Node000001" class="node">
<title>Node1</title>
<g id="a_Node000001"><a xlink:title=" ">
<polygon fill="#999999" stroke="#666666" points="327.5,-239 175.5,-239 175.5,-187 327.5,-187 327.5,-239"/>
<text text-anchor="start" x="183.5" y="-227" font-family="Helvetica,sans-Serif" font-size="10.00">/home/runner/work/amr</text>
<text text-anchor="start" x="183.5" y="-216" font-family="Helvetica,sans-Serif" font-size="10.00">&#45;wind/amr&#45;wind/amr&#45;wind</text>
<text text-anchor="start" x="183.5" y="-205" font-family="Helvetica,sans-Serif" font-size="10.00">/equation_systems/vof/split</text>
<text text-anchor="middle" x="251.5" y="-194" font-family="Helvetica,sans-Serif" font-size="10.00">_advection.H</text>
</a>
</g>
</g>
<!-- Node2 -->
<g id="Node000002" class="node">
<title>Node2</title>
<g id="a_Node000002"><a xlink:title=" ">
<polygon fill="#e0e0e0" stroke="#999999" points="47,-79.5 0,-79.5 0,-60.5 47,-60.5 47,-79.5"/>
<text text-anchor="middle" x="23.5" y="-67.5" font-family="Helvetica,sans-Serif" font-size="10.00">cmath</text>
</a>
</g>
</g>
<!-- Node1&#45;&gt;Node2 -->
<g id="edge1_Node000001_Node000002" class="edge">
<title>Node1&#45;&gt;Node2</title>
<g id="a_edge1_Node000001_Node000002"><a xlink:title=" ">
<path fill="none" stroke="#63b8ff" d="M204.13,-186.94C184.52,-176.25 161.69,-163.41 141.5,-151 106.32,-129.38 66.87,-101.96 43.66,-85.48"/>
<polygon fill="#63b8ff" stroke="#63b8ff" points="45.5,-82.49 35.33,-79.54 41.44,-88.19 45.5,-82.49"/>
</a>
</g>
</g>
<!-- Node3 -->
<g id="Node000003" class="node">
<title>Node3</title>
<g id="a_Node000003"><a xlink:href="volume__fractions_8_h.html" target="_top" xlink:title=" ">
<polygon fill="white" stroke="#666666" points="329,-151 174,-151 174,-121 329,-121 329,-151"/>
<text text-anchor="start" x="182" y="-139" font-family="Helvetica,sans-Serif" font-size="10.00">amr&#45;wind/equation_systems</text>
<text text-anchor="middle" x="251.5" y="-128" font-family="Helvetica,sans-Serif" font-size="10.00">/vof/volume_fractions.H</text>
</a>
</g>
</g>
<!-- Node1&#45;&gt;Node3 -->
<g id="edge2_Node000001_Node000003" class="edge">
<title>Node1&#45;&gt;Node3</title>
<g id="a_edge2_Node000001_Node000003"><a xlink:title=" ">
<path fill="none" stroke="#63b8ff" d="M251.5,-186.61C251.5,-178.54 251.5,-169.64 251.5,-161.63"/>
<polygon fill="#63b8ff" stroke="#63b8ff" points="255,-161.43 251.5,-151.43 248,-161.43 255,-161.43"/>
</a>
</g>
</g>
<!-- Node4 -->
<g id="Node000004" class="node">
<title>Node4</title>
<g id="a_Node000004"><a xlink:title=" ">
<polygon fill="#e0e0e0" stroke="#999999" points="182,-79.5 65,-79.5 65,-60.5 182,-60.5 182,-79.5"/>
<text text-anchor="middle" x="123.5" y="-67.5" font-family="Helvetica,sans-Serif" font-size="10.00">AMReX_FArrayBox.H</text>
</a>
</g>
</g>
<!-- Node1&#45;&gt;Node4 -->
<g id="edge11_Node000001_Node000004" class="edge">
<title>Node1&#45;&gt;Node4</title>
<g id="a_edge11_Node000001_Node000004"><a xlink:title=" ">
<path fill="none" stroke="#63b8ff" d="M207,-186.85C192.22,-177.02 176.49,-164.77 164.5,-151 148.29,-132.38 136.46,-106.23 129.78,-88.96"/>
<polygon fill="#63b8ff" stroke="#63b8ff" points="133.04,-87.68 126.3,-79.51 126.47,-90.1 133.04,-87.68"/>
</a>
</g>
</g>
<!-- Node7 -->
<g id="Node000007" class="node">
<title>Node7</title>
<g id="a_Node000007"><a xlink:title=" ">
<polygon fill="#e0e0e0" stroke="#999999" points="428.5,-19 336.5,-19 336.5,0 428.5,0 428.5,-19"/>
<text text-anchor="middle" x="382.5" y="-7" font-family="Helvetica,sans-Serif" font-size="10.00">AMReX_REAL.H</text>
</a>
</g>
</g>
<!-- Node1&#45;&gt;Node7 -->
<g id="edge13_Node000001_Node000007" class="edge">
<title>Node1&#45;&gt;Node7</title>
<g id="a_edge13_Node000001_Node000007"><a xlink:title=" ">
<path fill="none" stroke="#63b8ff" d="M313.6,-187C355.54,-166.44 407.63,-132.86 432.5,-85 438.65,-73.17 437.96,-67.16 432.5,-55 427,-42.74 416.27,-32.48 406.15,-24.91"/>
<polygon fill="#63b8ff" stroke="#63b8ff" points="408.14,-22.03 397.93,-19.2 404.15,-27.78 408.14,-22.03"/>
</a>
</g>
</g>
<!-- Node10 -->
<g id="Node000010" class="node">
<title>Node10</title>
<g id="a_Node000010"><a xlink:title=" ">
<polygon fill="#e0e0e0" stroke="#999999" points="579,-145.5 480,-145.5 480,-126.5 579,-126.5 579,-145.5"/>
<text text-anchor="middle" x="529.5" y="-133.5" font-family="Helvetica,sans-Serif" font-size="10.00">AMReX_BCRec.H</text>
</a>
</g>
</g>
<!-- Node1&#45;&gt;Node10 -->
<g id="edge12_Node000001_Node000010" class="edge">
<title>Node1&#45;&gt;Node10</title>
<g id="a_edge12_Node000001_Node000010"><a xlink:title=" ">
<path fill="none" stroke="#63b8ff" d="M327.83,-191.41C379.51,-177.47 445.8,-159.58 487.98,-148.2"/>
<polygon fill="#63b8ff" stroke="#63b8ff" points="489.16,-151.51 497.9,-145.53 487.33,-144.75 489.16,-151.51"/>
</a>
</g>
</g>
<!-- Node3&#45;&gt;Node2 -->
<g id="edge5_Node000003_Node000002" class="edge">
<title>Node3&#45;&gt;Node2</title>
<g id="a_edge5_Node000003_Node000002"><a xlink:title=" ">
<path fill="none" stroke="#63b8ff" d="M185.38,-120.96C147.01,-112.11 98.01,-99.61 55.5,-85 54.07,-84.51 52.61,-83.98 51.14,-83.42"/>
<polygon fill="#63b8ff" stroke="#63b8ff" points="52.15,-80.05 41.57,-79.52 49.51,-86.54 52.15,-80.05"/>
</a>
</g>
</g>
<!-- Node3&#45;&gt;Node4 -->
<g id="edge3_Node000003_Node000004" class="edge">
<title>Node3&#45;&gt;Node4</title>
<g id="a_edge3_Node000003_Node000004"><a xlink:title=" ">
<path fill="none" stroke="#63b8ff" d="M223.41,-120.95C201.46,-109.98 171.17,-94.83 149.71,-84.11"/>
<polygon fill="#63b8ff" stroke="#63b8ff" points="151.04,-80.86 140.53,-79.52 147.91,-87.12 151.04,-80.86"/>
</a>
</g>
</g>
<!-- Node5 -->
<g id="Node000005" class="node">
<title>Node5</title>
<g id="a_Node000005"><a xlink:title=" ">
<polygon fill="#e0e0e0" stroke="#999999" points="423.5,-79.5 359.5,-79.5 359.5,-60.5 423.5,-60.5 423.5,-79.5"/>
<text text-anchor="middle" x="391.5" y="-67.5" font-family="Helvetica,sans-Serif" font-size="10.00">algorithm</text>
</a>
</g>
</g>
<!-- Node3&#45;&gt;Node5 -->
<g id="edge4_Node000003_Node000005" class="edge">
<title>Node3&#45;&gt;Node5</title>
<g id="a_edge4_Node000003_Node000005"><a xlink:title=" ">
<path fill="none" stroke="#63b8ff" d="M282.22,-120.95C306.45,-109.88 339.96,-94.56 363.46,-83.82"/>
<polygon fill="#63b8ff" stroke="#63b8ff" points="365.23,-86.86 372.87,-79.52 362.32,-80.49 365.23,-86.86"/>
</a>
</g>
</g>
<!-- Node6 -->
<g id="Node000006" class="node">
<title>Node6</title>
<g id="a_Node000006"><a xlink:href="constants_8_h.html" target="_top" xlink:title=" ">
<polygon fill="white" stroke="#666666" points="303,-85 200,-85 200,-55 303,-55 303,-85"/>
<text text-anchor="start" x="208" y="-73" font-family="Helvetica,sans-Serif" font-size="10.00">amr&#45;wind/utilities</text>
<text text-anchor="middle" x="251.5" y="-62" font-family="Helvetica,sans-Serif" font-size="10.00">/constants.H</text>
</a>
</g>
</g>
<!-- Node3&#45;&gt;Node6 -->
<g id="edge6_Node000003_Node000006" class="edge">
<title>Node3&#45;&gt;Node6</title>
<g id="a_edge6_Node000003_Node000006"><a xlink:title=" ">
<path fill="none" stroke="#63b8ff" d="M251.5,-120.8C251.5,-113.34 251.5,-103.99 251.5,-95.41"/>
<polygon fill="#63b8ff" stroke="#63b8ff" points="255,-95.16 251.5,-85.16 248,-95.16 255,-95.16"/>
</a>
</g>
</g>
<!-- Node3&#45;&gt;Node7 -->
<g id="edge10_Node000003_Node000007" class="edge">
<title>Node3&#45;&gt;Node7</title>
<g id="a_edge10_Node000003_Node000007"><a xlink:title=" ">
<path fill="none" stroke="#63b8ff" d="M269.9,-120.94C282.29,-111.23 298.79,-97.81 312.5,-85 332.85,-65.98 354.56,-42.28 368.31,-26.79"/>
<polygon fill="#63b8ff" stroke="#63b8ff" points="371.09,-28.93 375.07,-19.11 365.84,-24.3 371.09,-28.93"/>
</a>
</g>
</g>
<!-- Node6&#45;&gt;Node7 -->
<g id="edge7_Node000006_Node000007" class="edge">
<title>Node6&#45;&gt;Node7</title>
<g id="a_edge7_Node000006_Node000007"><a xlink:title=" ">
<path fill="none" stroke="#63b8ff" d="M282.88,-54.99C304.44,-45.36 332.85,-32.67 353.81,-23.31"/>
<polygon fill="#63b8ff" stroke="#63b8ff" points="355.45,-26.41 363.15,-19.14 352.6,-20.02 355.45,-26.41"/>
</a>
</g>
</g>
<!-- Node8 -->
<g id="Node000008" class="node">
<title>Node8</title>
<g id="a_Node000008"><a xlink:title=" ">
<polygon fill="#e0e0e0" stroke="#999999" points="166.5,-19 74.5,-19 74.5,0 166.5,0 166.5,-19"/>
<text text-anchor="middle" x="120.5" y="-7" font-family="Helvetica,sans-Serif" font-size="10.00">AMReX_Math.H</text>
</a>
</g>
</g>
<!-- Node6&#45;&gt;Node8 -->
<g id="edge8_Node000006_Node000008" class="edge">
<title>Node6&#45;&gt;Node8</title>
<g id="a_edge8_Node000006_Node000008"><a xlink:title=" ">
<path fill="none" stroke="#63b8ff" d="M220.12,-54.99C198.56,-45.36 170.15,-32.67 149.19,-23.31"/>
<polygon fill="#63b8ff" stroke="#63b8ff" points="150.4,-20.02 139.85,-19.14 147.55,-26.41 150.4,-20.02"/>
</a>
</g>
</g>
<!-- Node9 -->
<g id="Node000009" class="node">
<title>Node9</title>
<g id="a_Node000009"><a xlink:title=" ">
<polygon fill="#e0e0e0" stroke="#999999" points="318.5,-19 184.5,-19 184.5,0 318.5,0 318.5,-19"/>
<text text-anchor="middle" x="251.5" y="-7" font-family="Helvetica,sans-Serif" font-size="10.00">AMReX_GpuQualifiers.H</text>
</a>
</g>
</g>
<!-- Node6&#45;&gt;Node9 -->
<g id="edge9_Node000006_Node000009" class="edge">
<title>Node6&#45;&gt;Node9</title>
<g id="a_edge9_Node000006_Node000009"><a xlink:title=" ">
<path fill="none" stroke="#63b8ff" d="M251.5,-54.84C251.5,-47.21 251.5,-37.7 251.5,-29.45"/>
<polygon fill="#63b8ff" stroke="#63b8ff" points="255,-29.27 251.5,-19.27 248,-29.27 255,-29.27"/>
</a>
</g>
</g>
</g>
</svg>
