<?xml version="1.0" encoding="UTF-8" standalone="no"?>
<!DOCTYPE svg PUBLIC "-//W3C//DTD SVG 1.1//EN"
 "http://www.w3.org/Graphics/SVG/1.1/DTD/svg11.dtd">
<!-- Generated by graphviz version 2.43.0 (0)
 -->
<!-- Title: amr_wind::pde::BCOp&lt; VOF &gt; Pages: 1 -->
<!--zoomable 323 -->

<svg id="main" version="1.1" xmlns="http://www.w3.org/2000/svg" xmlns:xlink="http://www.w3.org/1999/xlink" xml:space="preserve" onload="init(evt)">

<style type="text/css"><![CDATA[
.node, .edge {opacity: 0.7;}
.node.selected, .edge.selected {opacity: 1;}
.edge:hover path { stroke: red; }
.edge:hover polygon { stroke: red; fill: red; }
]]></style>

<defs>
  <circle id="rim" cx="0" cy="0" r="7"/>
  <circle id="rim2" cx="0" cy="0" r="3.5"/>
  <g id="zoomPlus">
    <use xlink:href="#rim" fill="#404040"><set attributeName="fill" to="#808080" begin="zoomplus.mouseover" end="zoomplus.mouseout"/></use>
    <path d="M-4,0h8M0,-4v8" fill="none" stroke="white" stroke-width="1.5" pointer-events="none"/>
  </g>
  <g id="zoomMin">
    <use xlink:href="#rim" fill="#404040"><set attributeName="fill" to="#808080" begin="zoomminus.mouseover" end="zoomminus.mouseout"/></use>
    <path d="M-4,0h8" fill="none" stroke="white" stroke-width="1.5" pointer-events="none"/>
  </g>
  <g id="arrowUp" transform="translate(30 24)">
    <use xlink:href="#rim"/>
    <path pointer-events="none" fill="none" stroke="white" stroke-width="1.5" d="M0,-3.0v7 M-2.5,-0.5L0,-3.0L2.5,-0.5"/>
  </g>
  <g id="arrowRight" transform="rotate(90) translate(36 -43)">
    <use xlink:href="#rim"/>
    <path pointer-events="none" fill="none" stroke="white" stroke-width="1.5" d="M0,-3.0v7 M-2.5,-0.5L0,-3.0L2.5,-0.5"/>
  </g>
  <g id="arrowDown" transform="rotate(180) translate(-30 -48)">
    <use xlink:href="#rim"/>
    <path pointer-events="none" fill="none" stroke="white" stroke-width="1.5" d="M0,-3.0v7 M-2.5,-0.5L0,-3.0L2.5,-0.5"/>
  </g>
  <g id="arrowLeft" transform="rotate(270) translate(-36 17)">
    <use xlink:href="#rim"/>
    <path pointer-events="none" fill="none" stroke="white" stroke-width="1.5" d="M0,-3.0v7 M-2.5,-0.5L0,-3.0L2.5,-0.5"/>
  </g>
  <g id="resetDef">
    <use xlink:href="#rim2" fill="#404040"><set attributeName="fill" to="#808080" begin="reset.mouseover" end="reset.mouseout"/></use>
  </g>
</defs>
<script type="application/ecmascript">
var viewWidth = 1782;
var viewHeight = 323;
var sectionId = 'dynsection-1';
</script>
<script type="application/ecmascript" xlink:href="svg.min.js"/>
<svg id="graph" class="graph">
<g id="viewport">
<title>amr_wind::pde::BCOp&lt; VOF &gt;</title>
<!-- Node1 -->
<g id="Node000001" class="node">
<title>Node1</title>
<g id="a_Node000001"><a xlink:title=" ">
<polygon fill="#999999" stroke="#666666" points="1774,-73 1652,-73 1652,-43 1774,-43 1774,-73"/>
<text text-anchor="start" x="1660" y="-61" font-family="Helvetica,sans-Serif" font-size="10.00">amr_wind::pde::BCOp</text>
<text text-anchor="middle" x="1713" y="-50" font-family="Helvetica,sans-Serif" font-size="10.00">&lt; VOF &gt;</text>
</a>
</g>
</g>
<!-- Node2 -->
<g id="Node000002" class="node">
<title>Node2</title>
<g id="a_Node000002"><a xlink:href="structamr__wind_1_1pde_1_1_p_d_e_fields.html" target="_top" xlink:title=" ">
<polygon fill="white" stroke="#666666" points="1567,-166.5 1424,-166.5 1424,-147.5 1567,-147.5 1567,-166.5"/>
<text text-anchor="middle" x="1495.5" y="-154.5" font-family="Helvetica,sans-Serif" font-size="10.00">amr_wind::pde::PDEFields</text>
</a>
</g>
</g>
<!-- Node2&#45;&gt;Node1 -->
<g id="edge1_Node000001_Node000002" class="edge">
<title>Node2&#45;&gt;Node1</title>
<g id="a_edge1_Node000001_Node000002"><a xlink:title=" ">
<path fill="none" stroke="#9a32cd" stroke-dasharray="5,2" d="M1526.86,-143.05C1567.14,-124.55 1637.95,-92.02 1679.35,-73"/>
<polygon fill="#9a32cd" stroke="#9a32cd" points="1525.18,-139.97 1517.56,-147.33 1528.1,-146.33 1525.18,-139.97"/>
</a>
</g>
<text text-anchor="start" x="1588.5" y="-119.5" font-family="Helvetica,sans-Serif" font-size="10.00" fill="grey">m_fields</text>
</g>
<!-- Node3 -->
<g id="Node000003" class="node">
<title>Node3</title>
<g id="a_Node000003"><a xlink:href="classamr__wind_1_1_field_repo.html" target="_top" xlink:title=" ">
<polygon fill="white" stroke="#666666" points="1156.5,-247.5 1037.5,-247.5 1037.5,-228.5 1156.5,-228.5 1156.5,-247.5"/>
<text text-anchor="middle" x="1097" y="-235.5" font-family="Helvetica,sans-Serif" font-size="10.00">amr_wind::FieldRepo</text>
</a>
</g>
</g>
<!-- Node3&#45;&gt;Node2 -->
<g id="edge2_Node000002_Node000003" class="edge">
<title>Node3&#45;&gt;Node2</title>
<g id="a_edge2_Node000002_Node000003"><a xlink:title=" ">
<path fill="none" stroke="#9a32cd" stroke-dasharray="5,2" d="M1156.06,-249.14C1219.7,-258.72 1323.7,-266.55 1406,-235 1442.72,-220.92 1474.14,-184.09 1487.56,-166.55"/>
<polygon fill="#9a32cd" stroke="#9a32cd" points="1156.24,-245.62 1145.82,-247.53 1155.15,-252.54 1156.24,-245.62"/>
</a>
</g>
<text text-anchor="start" x="1272" y="-262.5" font-family="Helvetica,sans-Serif" font-size="10.00" fill="grey">repo</text>
</g>
<!-- Node10 -->
<g id="Node000010" class="node">
<title>Node10</title>
<g id="a_Node000010"><a xlink:href="classamr__wind_1_1_field.html" target="_top" xlink:title=" ">
<polygon fill="white" stroke="#666666" points="1330,-180.5 1236,-180.5 1236,-161.5 1330,-161.5 1330,-180.5"/>
<text text-anchor="middle" x="1283" y="-168.5" font-family="Helvetica,sans-Serif" font-size="10.00">amr_wind::Field</text>
</a>
</g>
</g>
<!-- Node3&#45;&gt;Node10 -->
<g id="edge10_Node000010_Node000003" class="edge">
<title>Node3&#45;&gt;Node10</title>
<g id="a_edge10_Node000010_Node000003"><a xlink:title=" ">
<path fill="none" stroke="#9a32cd" stroke-dasharray="5,2" d="M1134.88,-224.94C1158.64,-216.49 1190.18,-205.2 1218,-195 1230.81,-190.3 1245.03,-184.98 1256.8,-180.55"/>
<polygon fill="#9a32cd" stroke="#9a32cd" points="1133.46,-221.73 1125.21,-228.38 1135.8,-228.33 1133.46,-221.73"/>
</a>
</g>
<text text-anchor="start" x="1178.5" y="-215.5" font-family="Helvetica,sans-Serif" font-size="10.00" fill="grey">m_repo</text>
</g>
<!-- Node4 -->
<g id="Node000004" class="node">
<title>Node4</title>
<g id="a_Node000004"><a xlink:title=" ">
<polygon fill="white" stroke="#666666" points="887,-253 765,-253 765,-223 887,-223 887,-253"/>
<text text-anchor="start" x="773" y="-241" font-family="Helvetica,sans-Serif" font-size="10.00">std::unordered_map</text>
<text text-anchor="middle" x="826" y="-230" font-family="Helvetica,sans-Serif" font-size="10.00">&lt; std::string, size_t &gt;</text>
</a>
</g>
</g>
<!-- Node4&#45;&gt;Node3 -->
<g id="edge3_Node000003_Node000004" class="edge">
<title>Node4&#45;&gt;Node3</title>
<g id="a_edge3_Node000003_Node000004"><a xlink:title=" ">
<path fill="none" stroke="#9a32cd" stroke-dasharray="5,2" d="M897.25,-238C940.72,-238 995.9,-238 1037.08,-238"/>
<polygon fill="#9a32cd" stroke="#9a32cd" points="897.03,-234.5 887.03,-238 897.03,-241.5 897.03,-234.5"/>
</a>
</g>
<text text-anchor="start" x="926" y="-259" font-family="Helvetica,sans-Serif" font-size="10.00" fill="grey">m_fid_map</text>
<text text-anchor="start" x="926" y="-244" font-family="Helvetica,sans-Serif" font-size="10.00" fill="grey">m_int_fid_map</text>
</g>
<!-- Node5 -->
<g id="Node000005" class="node">
<title>Node5</title>
<g id="a_Node000005"><a xlink:title=" ">
<polygon fill="white" stroke="#666666" points="540,-202.5 475,-202.5 475,-183.5 540,-183.5 540,-202.5"/>
<text text-anchor="middle" x="507.5" y="-190.5" font-family="Helvetica,sans-Serif" font-size="10.00">std::string</text>
</a>
</g>
</g>
<!-- Node5&#45;&gt;Node4 -->
<g id="edge4_Node000004_Node000005" class="edge">
<title>Node5&#45;&gt;Node4</title>
<g id="a_edge4_Node000004_Node000005"><a xlink:title=" ">
<path fill="none" stroke="#9a32cd" stroke-dasharray="5,2" d="M550.21,-197.03C597.93,-201.89 678.35,-210.8 747,-222 752.73,-222.93 758.68,-223.99 764.62,-225.11"/>
<polygon fill="#9a32cd" stroke="#9a32cd" points="550.55,-193.55 540.25,-196.03 549.85,-200.51 550.55,-193.55"/>
</a>
</g>
<text text-anchor="start" x="667.5" y="-227.5" font-family="Helvetica,sans-Serif" font-size="10.00" fill="grey">keys</text>
</g>
<!-- Node5&#45;&gt;Node10 -->
<g id="edge11_Node000010_Node000005" class="edge">
<title>Node5&#45;&gt;Node10</title>
<g id="a_edge11_Node000010_Node000005"><a xlink:title=" ">
<path fill="none" stroke="#9a32cd" stroke-dasharray="5,2" d="M550.47,-191.81C683.82,-188.01 1097.18,-176.26 1236,-172.31"/>
<polygon fill="#9a32cd" stroke="#9a32cd" points="550.16,-188.31 540.26,-192.1 550.36,-195.31 550.16,-188.31"/>
</a>
</g>
<text text-anchor="start" x="941" y="-187.5" font-family="Helvetica,sans-Serif" font-size="10.00" fill="grey">m_name</text>
</g>
<!-- Node12 -->
<g id="Node000012" class="node">
<title>Node12</title>
<g id="a_Node000012"><a xlink:href="structamr__wind_1_1_field_info.html" target="_top" xlink:title=" ">
<polygon fill="white" stroke="#666666" points="882.5,-136.5 769.5,-136.5 769.5,-117.5 882.5,-117.5 882.5,-136.5"/>
<text text-anchor="middle" x="826" y="-124.5" font-family="Helvetica,sans-Serif" font-size="10.00">amr_wind::FieldInfo</text>
</a>
</g>
</g>
<!-- Node5&#45;&gt;Node12 -->
<g id="edge14_Node000012_Node000005" class="edge">
<title>Node5&#45;&gt;Node12</title>
<g id="a_edge14_Node000012_Node000005"><a xlink:title=" ">
<path fill="none" stroke="#9a32cd" stroke-dasharray="5,2" d="M537.38,-179.33C557.35,-170.45 584.75,-159.39 610,-153 663.03,-139.58 725.23,-133.01 769.05,-129.85"/>
<polygon fill="#9a32cd" stroke="#9a32cd" points="535.89,-176.17 528.22,-183.48 538.77,-182.54 535.89,-176.17"/>
</a>
</g>
<text text-anchor="start" x="645.5" y="-158.5" font-family="Helvetica,sans-Serif" font-size="10.00" fill="grey">m_basename</text>
</g>
<!-- Node6 -->
<g id="Node000006" class="node">
<title>Node6</title>
<g id="a_Node000006"><a xlink:title=" ">
<polygon fill="white" stroke="#666666" points="236,-216 132,-216 132,-186 236,-186 236,-216"/>
<text text-anchor="start" x="140" y="-204" font-family="Helvetica,sans-Serif" font-size="10.00">std::basic_string&lt;</text>
<text text-anchor="middle" x="184" y="-193" font-family="Helvetica,sans-Serif" font-size="10.00"> Char &gt;</text>
</a>
</g>
</g>
<!-- Node6&#45;&gt;Node5 -->
<g id="edge5_Node000005_Node000006" class="edge">
<title>Node6&#45;&gt;Node5</title>
<g id="a_edge5_Node000005_Node000006"><a xlink:title=" ">
<path fill="none" stroke="#63b8ff" d="M246.48,-199.47C314.65,-197.77 421.98,-195.1 474.88,-193.79"/>
<polygon fill="#63b8ff" stroke="#63b8ff" points="246.21,-195.98 236.3,-199.72 246.38,-202.97 246.21,-195.98"/>
</a>
</g>
</g>
<!-- Node7 -->
<g id="Node000007" class="node">
<title>Node7</title>
<g id="a_Node000007"><a xlink:title=" ">
<polygon fill="white" stroke="#666666" points="564.5,-272 450.5,-272 450.5,-242 564.5,-242 564.5,-272"/>
<text text-anchor="start" x="458.5" y="-260" font-family="Helvetica,sans-Serif" font-size="10.00">std::unordered_map</text>
<text text-anchor="middle" x="507.5" y="-249" font-family="Helvetica,sans-Serif" font-size="10.00">&lt; K, T &gt;</text>
</a>
</g>
</g>
<!-- Node7&#45;&gt;Node4 -->
<g id="edge6_Node000004_Node000007" class="edge">
<title>Node7&#45;&gt;Node4</title>
<g id="a_edge6_Node000004_Node000007"><a xlink:title=" ">
<path fill="none" stroke="orange" stroke-dasharray="5,2" d="M574.92,-253.01C631.05,-249.64 710.76,-244.86 765,-241.6"/>
<polygon fill="orange" stroke="orange" points="574.49,-249.53 564.72,-253.63 574.91,-256.52 574.49,-249.53"/>
</a>
</g>
<text text-anchor="start" x="625.5" y="-255.5" font-family="Helvetica,sans-Serif" font-size="10.00" fill="grey">&lt; std::string, size_t &gt;</text>
</g>
<!-- Node8 -->
<g id="Node000008" class="node">
<title>Node8</title>
<g id="a_Node000008"><a xlink:title=" ">
<polygon fill="white" stroke="#666666" points="198.5,-253.5 169.5,-253.5 169.5,-234.5 198.5,-234.5 198.5,-253.5"/>
<text text-anchor="middle" x="184" y="-241.5" font-family="Helvetica,sans-Serif" font-size="10.00">K</text>
</a>
</g>
</g>
<!-- Node8&#45;&gt;Node7 -->
<g id="edge7_Node000007_Node000008" class="edge">
<title>Node8&#45;&gt;Node7</title>
<g id="a_edge7_Node000007_Node000008"><a xlink:title=" ">
<path fill="none" stroke="#9a32cd" stroke-dasharray="5,2" d="M208.81,-244.96C259.5,-247.01 379.24,-251.85 450.45,-254.73"/>
<polygon fill="#9a32cd" stroke="#9a32cd" points="208.95,-241.47 198.81,-244.56 208.66,-248.46 208.95,-241.47"/>
</a>
</g>
<text text-anchor="start" x="326" y="-257.5" font-family="Helvetica,sans-Serif" font-size="10.00" fill="grey">keys</text>
</g>
<!-- Node9 -->
<g id="Node000009" class="node">
<title>Node9</title>
<g id="a_Node000009"><a xlink:title=" ">
<polygon fill="white" stroke="#666666" points="29,-123.5 0,-123.5 0,-104.5 29,-104.5 29,-123.5"/>
<text text-anchor="middle" x="14.5" y="-111.5" font-family="Helvetica,sans-Serif" font-size="10.00">T</text>
</a>
</g>
</g>
<!-- Node9&#45;&gt;Node7 -->
<g id="edge8_Node000007_Node000009" class="edge">
<title>Node9&#45;&gt;Node7</title>
<g id="a_edge8_Node000007_Node000009"><a xlink:title=" ">
<path fill="none" stroke="#9a32cd" stroke-dasharray="5,2" d="M22.07,-132.99C34.63,-166.07 65.51,-233.57 117,-263 226.36,-325.5 382.76,-293.88 459.87,-272.01"/>
<polygon fill="#9a32cd" stroke="#9a32cd" points="25.34,-131.74 18.63,-123.54 18.76,-134.14 25.34,-131.74"/>
</a>
</g>
<text text-anchor="start" x="161" y="-303.5" font-family="Helvetica,sans-Serif" font-size="10.00" fill="grey">elements</text>
</g>
<!-- Node15 -->
<g id="Node000015" class="node">
<title>Node15</title>
<g id="a_Node000015"><a xlink:title=" ">
<polygon fill="white" stroke="#666666" points="243,-166.5 125,-166.5 125,-147.5 243,-147.5 243,-166.5"/>
<text text-anchor="middle" x="184" y="-154.5" font-family="Helvetica,sans-Serif" font-size="10.00">std::unique_ptr&lt; T &gt;</text>
</a>
</g>
</g>
<!-- Node9&#45;&gt;Node15 -->
<g id="edge18_Node000015_Node000009" class="edge">
<title>Node9&#45;&gt;Node15</title>
<g id="a_edge18_Node000015_Node000009"><a xlink:title=" ">
<path fill="none" stroke="#9a32cd" stroke-dasharray="5,2" d="M39.21,-120.09C67,-127.22 113.37,-139.12 145.92,-147.48"/>
<polygon fill="#9a32cd" stroke="#9a32cd" points="39.76,-116.62 29.21,-117.52 38.02,-123.4 39.76,-116.62"/>
</a>
</g>
<text text-anchor="start" x="66" y="-140.5" font-family="Helvetica,sans-Serif" font-size="10.00" fill="grey">ptr</text>
</g>
<!-- Node16 -->
<g id="Node000016" class="node">
<title>Node16</title>
<g id="a_Node000016"><a xlink:title=" ">
<polygon fill="white" stroke="#666666" points="396,-80.5 278,-80.5 278,-61.5 396,-61.5 396,-80.5"/>
<text text-anchor="middle" x="337" y="-68.5" font-family="Helvetica,sans-Serif" font-size="10.00">std::shared_ptr&lt; T &gt;</text>
</a>
</g>
</g>
<!-- Node9&#45;&gt;Node16 -->
<g id="edge20_Node000016_Node000009" class="edge">
<title>Node9&#45;&gt;Node16</title>
<g id="a_edge20_Node000016_Node000009"><a xlink:title=" ">
<path fill="none" stroke="#9a32cd" stroke-dasharray="5,2" d="M38.72,-104.58C41.49,-103.63 44.29,-102.74 47,-102 77.45,-93.68 85.69,-94.03 117,-90 171.32,-83 233.55,-77.88 277.76,-74.73"/>
<polygon fill="#9a32cd" stroke="#9a32cd" points="37.26,-101.39 29.11,-108.15 39.7,-107.95 37.26,-101.39"/>
</a>
</g>
<text text-anchor="start" x="66" y="-107.5" font-family="Helvetica,sans-Serif" font-size="10.00" fill="grey">ptr</text>
</g>
<!-- Node19 -->
<g id="Node000019" class="node">
<title>Node19</title>
<g id="a_Node000019"><a xlink:title=" ">
<polygon fill="white" stroke="#666666" points="232.5,-40.5 135.5,-40.5 135.5,-21.5 232.5,-21.5 232.5,-40.5"/>
<text text-anchor="middle" x="184" y="-28.5" font-family="Helvetica,sans-Serif" font-size="10.00">std::vector&lt; T &gt;</text>
</a>
</g>
</g>
<!-- Node9&#45;&gt;Node19 -->
<g id="edge24_Node000019_Node000009" class="edge">
<title>Node9&#45;&gt;Node19</title>
<g id="a_edge24_Node000019_Node000009"><a xlink:title=" ">
<path fill="none" stroke="#9a32cd" stroke-dasharray="5,2" d="M16.98,-94.1C19.6,-74.63 26.88,-45.94 47,-32 76.89,-11.3 120.04,-15.14 149.67,-21.49"/>
<polygon fill="#9a32cd" stroke="#9a32cd" points="13.47,-94 15.91,-104.31 20.43,-94.73 13.47,-94"/>
</a>
</g>
<text text-anchor="start" x="50" y="-37.5" font-family="Helvetica,sans-Serif" font-size="10.00" fill="grey">elements</text>
</g>
<!-- Node10&#45;&gt;Node2 -->
<g id="edge9_Node000002_Node000010" class="edge">
<title>Node10&#45;&gt;Node2</title>
<g id="a_edge9_Node000002_Node000010"><a xlink:title=" ">
<path fill="none" stroke="#9a32cd" stroke-dasharray="5,2" d="M1334.97,-159.73C1339.36,-159.04 1343.75,-158.44 1348,-158 1372.67,-155.44 1399.79,-154.68 1423.93,-154.73"/>
<polygon fill="#9a32cd" stroke="#9a32cd" points="1334.04,-156.34 1324.79,-161.49 1335.24,-163.23 1334.04,-156.34"/>
</a>
</g>
<text text-anchor="start" x="1351" y="-223.5" font-family="Helvetica,sans-Serif" font-size="10.00" fill="grey">conv_term</text>
<text text-anchor="start" x="1351" y="-208.5" font-family="Helvetica,sans-Serif" font-size="10.00" fill="grey">diff_term</text>
<text text-anchor="start" x="1351" y="-193.5" font-family="Helvetica,sans-Serif" font-size="10.00" fill="grey">field</text>
<text text-anchor="start" x="1351" y="-178.5" font-family="Helvetica,sans-Serif" font-size="10.00" fill="grey">mueff</text>
<text text-anchor="start" x="1351" y="-163.5" font-family="Helvetica,sans-Serif" font-size="10.00" fill="grey">src_term</text>
</g>
<!-- Node11 -->
<g id="Node000011" class="node">
<title>Node11</title>
<g id="a_Node000011"><a xlink:title=" ">
<polygon fill="white" stroke="#666666" points="1157,-142 1037,-142 1037,-112 1157,-112 1157,-142"/>
<text text-anchor="start" x="1045" y="-130" font-family="Helvetica,sans-Serif" font-size="10.00">std::shared_ptr&lt; amr</text>
<text text-anchor="middle" x="1097" y="-119" font-family="Helvetica,sans-Serif" font-size="10.00">_wind::FieldInfo &gt;</text>
</a>
</g>
</g>
<!-- Node11&#45;&gt;Node10 -->
<g id="edge12_Node000010_Node000011" class="edge">
<title>Node11&#45;&gt;Node10</title>
<g id="a_edge12_Node000010_Node000011"><a xlink:title=" ">
<path fill="none" stroke="#9a32cd" stroke-dasharray="5,2" d="M1167.28,-141.26C1183.94,-144.89 1201.64,-148.93 1218,-153 1228.3,-155.56 1239.47,-158.61 1249.54,-161.46"/>
<polygon fill="#9a32cd" stroke="#9a32cd" points="1167.58,-137.74 1157.06,-139.05 1166.1,-144.59 1167.58,-137.74"/>
</a>
</g>
<text text-anchor="start" x="1179.5" y="-158.5" font-family="Helvetica,sans-Serif" font-size="10.00" fill="grey">m_info</text>
</g>
<!-- Node12&#45;&gt;Node11 -->
<g id="edge13_Node000011_Node000012" class="edge">
<title>Node12&#45;&gt;Node11</title>
<g id="a_edge13_Node000011_Node000012"><a xlink:title=" ">
<path fill="none" stroke="#9a32cd" stroke-dasharray="5,2" d="M892.75,-127C936.7,-127 994.03,-127 1036.6,-127"/>
<polygon fill="#9a32cd" stroke="#9a32cd" points="892.74,-123.5 882.74,-127 892.74,-130.5 892.74,-123.5"/>
</a>
</g>
<text text-anchor="start" x="955" y="-132.5" font-family="Helvetica,sans-Serif" font-size="10.00" fill="grey">ptr</text>
</g>
<!-- Node13 -->
<g id="Node000013" class="node">
<title>Node13</title>
<g id="a_Node000013"><a xlink:title=" ">
<polygon fill="white" stroke="#666666" points="592,-129 423,-129 423,-99 592,-99 592,-129"/>
<text text-anchor="start" x="431" y="-117" font-family="Helvetica,sans-Serif" font-size="10.00">std::unique_ptr&lt; amr</text>
<text text-anchor="middle" x="507.5" y="-106" font-family="Helvetica,sans-Serif" font-size="10.00">_wind::FieldFillPatchOpsBase &gt;</text>
</a>
</g>
</g>
<!-- Node13&#45;&gt;Node12 -->
<g id="edge15_Node000012_Node000013" class="edge">
<title>Node13&#45;&gt;Node12</title>
<g id="a_edge15_Node000012_Node000013"><a xlink:title=" ">
<path fill="none" stroke="#9a32cd" stroke-dasharray="5,2" d="M602.38,-109.59C646.37,-108.55 699.46,-108.77 747,-113 757.69,-113.95 769.11,-115.62 779.81,-117.49"/>
<polygon fill="#9a32cd" stroke="#9a32cd" points="602.18,-106.09 592.27,-109.85 602.36,-113.09 602.18,-106.09"/>
</a>
</g>
<text text-anchor="start" x="642.5" y="-118.5" font-family="Helvetica,sans-Serif" font-size="10.00" fill="grey">m_fillpatch_op</text>
</g>
<!-- Node14 -->
<g id="Node000014" class="node">
<title>Node14</title>
<g id="a_Node000014"><a xlink:href="classamr__wind_1_1_field_fill_patch_ops_base.html" target="_top" xlink:title=" ">
<polygon fill="white" stroke="#666666" points="251,-129 117,-129 117,-99 251,-99 251,-129"/>
<text text-anchor="start" x="125" y="-117" font-family="Helvetica,sans-Serif" font-size="10.00">amr_wind::FieldFillPatch</text>
<text text-anchor="middle" x="184" y="-106" font-family="Helvetica,sans-Serif" font-size="10.00">OpsBase</text>
</a>
</g>
</g>
<!-- Node14&#45;&gt;Node13 -->
<g id="edge16_Node000013_Node000014" class="edge">
<title>Node14&#45;&gt;Node13</title>
<g id="a_edge16_Node000013_Node000014"><a xlink:title=" ">
<path fill="none" stroke="#9a32cd" stroke-dasharray="5,2" d="M261.37,-114C309.97,-114 372.94,-114 422.88,-114"/>
<polygon fill="#9a32cd" stroke="#9a32cd" points="261.23,-110.5 251.23,-114 261.23,-117.5 261.23,-110.5"/>
</a>
</g>
<text text-anchor="start" x="330" y="-119.5" font-family="Helvetica,sans-Serif" font-size="10.00" fill="grey">ptr</text>
</g>
<!-- Node15&#45;&gt;Node13 -->
<g id="edge17_Node000013_Node000015" class="edge">
<title>Node15&#45;&gt;Node13</title>
<g id="a_edge17_Node000013_Node000015"><a xlink:title=" ">
<path fill="none" stroke="orange" stroke-dasharray="5,2" d="M253.21,-150.36C296.73,-145.84 354.29,-139.37 405,-132 411.29,-131.09 417.78,-130.08 424.31,-129.02"/>
<polygon fill="orange" stroke="orange" points="252.62,-146.9 243.03,-151.4 253.33,-153.86 252.62,-146.9"/>
</a>
</g>
<text text-anchor="start" x="272" y="-170" font-family="Helvetica,sans-Serif" font-size="10.00" fill="grey">&lt; amr_wind::FieldFillPatch</text>
<text text-anchor="start" x="272" y="-155" font-family="Helvetica,sans-Serif" font-size="10.00" fill="grey">  OpsBase &gt;</text>
</g>
<!-- Node16&#45;&gt;Node11 -->
<g id="edge19_Node000011_Node000016" class="edge">
<title>Node16&#45;&gt;Node11</title>
<g id="a_edge19_Node000011_Node000016"><a xlink:title=" ">
<path fill="none" stroke="orange" stroke-dasharray="5,2" d="M406.42,-72.66C487.71,-74.95 627.39,-79.87 747,-89 849.1,-96.8 967.49,-110.73 1036.83,-119.38"/>
<polygon fill="orange" stroke="orange" points="406.41,-69.16 396.32,-72.38 406.22,-76.16 406.41,-69.16"/>
</a>
</g>
<text text-anchor="start" x="619.5" y="-94.5" font-family="Helvetica,sans-Serif" font-size="10.00" fill="grey">&lt; amr_wind::FieldInfo &gt;</text>
</g>
<!-- Node17 -->
<g id="Node000017" class="node">
<title>Node17</title>
<g id="a_Node000017"><a xlink:href="classamr__wind_1_1_sim_time.html" target="_top" xlink:title=" ">
<polygon fill="white" stroke="#666666" points="1019,-48.5 905,-48.5 905,-29.5 1019,-29.5 1019,-48.5"/>
<text text-anchor="middle" x="962" y="-36.5" font-family="Helvetica,sans-Serif" font-size="10.00">amr_wind::SimTime</text>
</a>
</g>
</g>
<!-- Node17&#45;&gt;Node1 -->
<g id="edge21_Node000001_Node000017" class="edge">
<title>Node17&#45;&gt;Node1</title>
<g id="a_edge21_Node000001_Node000017"><a xlink:title=" ">
<path fill="none" stroke="#9a32cd" stroke-dasharray="5,2" d="M1029.21,-47.3C1075.67,-52.41 1139.28,-58 1195.5,-58 1195.5,-58 1195.5,-58 1496.5,-58 1548.88,-58 1608.42,-58 1651.62,-58"/>
<polygon fill="#9a32cd" stroke="#9a32cd" points="1029.6,-43.82 1019.27,-46.18 1028.82,-50.78 1029.6,-43.82"/>
</a>
</g>
<text text-anchor="start" x="1264" y="-63.5" font-family="Helvetica,sans-Serif" font-size="10.00" fill="grey">m_time</text>
</g>
<!-- Node18 -->
<g id="Node000018" class="node">
<title>Node18</title>
<g id="a_Node000018"><a xlink:title=" ">
<polygon fill="white" stroke="#666666" points="563.5,-40.5 451.5,-40.5 451.5,-21.5 563.5,-21.5 563.5,-40.5"/>
<text text-anchor="middle" x="507.5" y="-28.5" font-family="Helvetica,sans-Serif" font-size="10.00">std::vector&lt; bool &gt;</text>
</a>
</g>
</g>
<!-- Node18&#45;&gt;Node17 -->
<g id="edge22_Node000017_Node000018" class="edge">
<title>Node18&#45;&gt;Node17</title>
<g id="a_edge22_Node000017_Node000018"><a xlink:title=" ">
<path fill="none" stroke="#9a32cd" stroke-dasharray="5,2" d="M574.16,-30.77C622.07,-30.73 688.57,-30.92 747,-32 800.52,-32.99 861.54,-35.08 904.69,-36.72"/>
<polygon fill="#9a32cd" stroke="#9a32cd" points="573.92,-27.27 563.93,-30.79 573.93,-34.27 573.92,-27.27"/>
</a>
</g>
<text text-anchor="start" x="613.5" y="-37.5" font-family="Helvetica,sans-Serif" font-size="10.00" fill="grey">m_postprocess_enforce_dt</text>
</g>
<!-- Node19&#45;&gt;Node18 -->
<g id="edge23_Node000018_Node000019" class="edge">
<title>Node19&#45;&gt;Node18</title>
<g id="a_edge23_Node000018_Node000019"><a xlink:title=" ">
<path fill="none" stroke="orange" stroke-dasharray="5,2" d="M243.09,-31C302.27,-31 393.37,-31 451.44,-31"/>
<polygon fill="orange" stroke="orange" points="242.78,-27.5 232.78,-31 242.78,-34.5 242.78,-27.5"/>
</a>
</g>
<text text-anchor="start" x="315" y="-36.5" font-family="Helvetica,sans-Serif" font-size="10.00" fill="grey">&lt; bool &gt;</text>
</g>
<!-- Node20 -->
<g id="Node000020" class="node">
<title>Node20</title>
<g id="a_Node000020"><a xlink:href="structamr__wind_1_1pde_1_1_b_c_op.html" target="_top" xlink:title=" ">
<polygon fill="white" stroke="#666666" points="1556.5,-30 1434.5,-30 1434.5,0 1556.5,0 1556.5,-30"/>
<text text-anchor="start" x="1442.5" y="-18" font-family="Helvetica,sans-Serif" font-size="10.00">amr_wind::pde::BCOp</text>
<text text-anchor="middle" x="1495.5" y="-7" font-family="Helvetica,sans-Serif" font-size="10.00">&lt; PDE, typename &gt;</text>
</a>
</g>
</g>
<!-- Node20&#45;&gt;Node1 -->
<g id="edge25_Node000001_Node000020" class="edge">
<title>Node20&#45;&gt;Node1</title>
<g id="a_edge25_Node000001_Node000020"><a xlink:title=" ">
<path fill="none" stroke="orange" stroke-dasharray="5,2" d="M1566.82,-17.19C1588.57,-18.91 1612.46,-21.9 1634,-27 1649.6,-30.7 1666.19,-36.94 1680.05,-42.86"/>
<polygon fill="orange" stroke="orange" points="1566.89,-13.68 1556.66,-16.46 1566.39,-20.66 1566.89,-13.68"/>
</a>
</g>
<text text-anchor="start" x="1588.5" y="-32.5" font-family="Helvetica,sans-Serif" font-size="10.00" fill="grey">&lt; VOF &gt;</text>
</g>
</g>
</svg>

<g id="navigator" transform="translate(0 0)" fill="#404254">
  <rect fill="#f2f5e9" fill-opacity="0.5" stroke="#606060" stroke-width=".5" x="0" y="0" width="60" height="60"/>
  <use id="zoomplus" xlink:href="#zoomPlus" x="17" y="9" onmousedown="handleZoom(evt,'in')"/>
  <use id="zoomminus" xlink:href="#zoomMin" x="42" y="9" onmousedown="handleZoom(evt,'out')"/>
  <use id="reset" xlink:href="#resetDef" x="30" y="36" onmousedown="handleReset()"/>
   <use id="arrowup" xlink:href="#arrowUp" x="0" y="0" onmousedown="handlePan(0,-1)"/>
  <use id="arrowright" xlink:href="#arrowRight" x="0" y="0" onmousedown="handlePan(1,0)"/>
  <use id="arrowdown" xlink:href="#arrowDown" x="0" y="0" onmousedown="handlePan(0,1)"/>
  <use id="arrowleft" xlink:href="#arrowLeft" x="0" y="0" onmousedown="handlePan(-1,0)"/>
</g>
<svg viewBox="0 0 15 15" width="100%" height="30px" preserveAspectRatio="xMaxYMin meet">
 <g id="arrow_out" transform="scale(0.3 0.3)">
  <a xlink:href="structamr__wind_1_1pde_1_1_b_c_op_3_01_v_o_f_01_4__coll__graph_org.svg" target="_base">
   <rect id="button" ry="5" rx="5" y="6" x="6" height="38" width="38"
        fill="#f2f5e9" fill-opacity="0.5" stroke="#606060" stroke-width="1.0"/>
   <path id="arrow"
     d="M 11.500037,31.436501 C 11.940474,20.09759 22.043105,11.32322 32.158766,21.979434 L 37.068811,17.246167 C 37.068811,17.246167 37.088388,32 37.088388,32 L 22.160133,31.978069 C 22.160133,31.978069 26.997745,27.140456 26.997745,27.140456 C 18.528582,18.264221 13.291696,25.230495 11.500037,31.436501 z"
     style="fill:#404040;"/>
  </a>
 </g>
</svg>

<style type='text/css'>
<![CDATA[
[data-mouse-over-selected='false'] { opacity: 0.7; }
[data-mouse-over-selected='true']  { opacity: 1.0; }
]]>
</style>
<script type="application/ecmascript"><![CDATA[
document.addEventListener('DOMContentLoaded', (event) => {
  highlightEdges();
  highlightAdjacentNodes();
});
]]></script>
</svg>
