<?xml version="1.0" encoding="UTF-8" standalone="no"?>
<!DOCTYPE svg PUBLIC "-//W3C//DTD SVG 1.1//EN"
 "http://www.w3.org/Graphics/SVG/1.1/DTD/svg11.dtd">
<!-- Generated by graphviz version 2.43.0 (0)
 -->
<!-- Title: amr_wind::pde::SrcTermOp&lt; ICNS &gt; Pages: 1 -->
<svg width="320pt" height="204pt"
 viewBox="0.00 0.00 320.00 204.00" xmlns="http://www.w3.org/2000/svg" xmlns:xlink="http://www.w3.org/1999/xlink">
<g id="graph0" class="graph" transform="scale(1 1) rotate(0) translate(4 200)">
<title>amr_wind::pde::SrcTermOp&lt; ICNS &gt;</title>
<!-- Node1 -->
<g id="Node000001" class="node">
<title>Node1</title>
<g id="a_Node000001"><a xlink:title=" ">
<polygon fill="#999999" stroke="#666666" points="147,-30 0,-30 0,0 147,0 147,-30"/>
<text text-anchor="start" x="8" y="-18" font-family="Helvetica,sans-Serif" font-size="10.00">amr_wind::pde::SrcTermOp</text>
<text text-anchor="middle" x="73.5" y="-7" font-family="Helvetica,sans-Serif" font-size="10.00">&lt; ICNS &gt;</text>
</a>
</g>
</g>
<!-- Node2 -->
<g id="Node000002" class="node">
<title>Node2</title>
<g id="a_Node000002"><a xlink:href="structamr__wind_1_1pde_1_1_src_term_op_base.html" target="_top" xlink:title=" ">
<polygon fill="white" stroke="#666666" points="147,-113 0,-113 0,-83 147,-83 147,-113"/>
<text text-anchor="start" x="8" y="-101" font-family="Helvetica,sans-Serif" font-size="10.00">amr_wind::pde::SrcTermOp</text>
<text text-anchor="middle" x="73.5" y="-90" font-family="Helvetica,sans-Serif" font-size="10.00">Base&lt; ICNS &gt;</text>
</a>
</g>
</g>
<!-- Node2&#45;&gt;Node1 -->
<g id="edge1_Node000001_Node000002" class="edge">
<title>Node2&#45;&gt;Node1</title>
<g id="a_edge1_Node000001_Node000002"><a xlink:title=" ">
<path fill="none" stroke="#63b8ff" d="M67.25,-72.59C66.35,-58.75 66.67,-41.91 68.22,-30.22"/>
<polygon fill="#63b8ff" stroke="#63b8ff" points="63.8,-73.27 68.23,-82.89 70.76,-72.6 63.8,-73.27"/>
</a>
</g>
</g>
<!-- Node2&#45;&gt;Node1 -->
<g id="edge3_Node000001_Node000002" class="edge">
<title>Node2&#45;&gt;Node1</title>
<g id="a_edge3_Node000001_Node000002"><a xlink:title=" ">
<path fill="none" stroke="#63b8ff" d="M79.75,-72.59C80.65,-58.75 80.33,-41.91 78.78,-30.22"/>
<polygon fill="#63b8ff" stroke="#63b8ff" points="76.24,-72.6 78.77,-82.89 83.2,-73.27 76.24,-72.6"/>
</a>
</g>
</g>
<!-- Node3 -->
<g id="Node000003" class="node">
<title>Node3</title>
<g id="a_Node000003"><a xlink:href="structamr__wind_1_1pde_1_1_src_term_op_base.html" target="_top" xlink:title=" ">
<polygon fill="white" stroke="#666666" points="147,-196 0,-196 0,-166 147,-166 147,-196"/>
<text text-anchor="start" x="8" y="-184" font-family="Helvetica,sans-Serif" font-size="10.00">amr_wind::pde::SrcTermOp</text>
<text text-anchor="middle" x="73.5" y="-173" font-family="Helvetica,sans-Serif" font-size="10.00">Base&lt; PDE &gt;</text>
</a>
</g>
</g>
<!-- Node3&#45;&gt;Node2 -->
<g id="edge2_Node000002_Node000003" class="edge">
<title>Node3&#45;&gt;Node2</title>
<g id="a_edge2_Node000002_Node000003"><a xlink:title=" ">
<path fill="none" stroke="orange" stroke-dasharray="5,2" d="M73.5,-155.59C73.5,-141.75 73.5,-124.91 73.5,-113.22"/>
<polygon fill="orange" stroke="orange" points="70,-155.89 73.5,-165.89 77,-155.89 70,-155.89"/>
</a>
</g>
<text text-anchor="start" x="76.5" y="-136.5" font-family="Helvetica,sans-Serif" font-size="10.00" fill="grey">&lt; ICNS &gt;</text>
</g>
<!-- Node4 -->
<g id="Node000004" class="node">
<title>Node4</title>
<g id="a_Node000004"><a xlink:href="structamr__wind_1_1pde_1_1_src_term_op.html" target="_top" xlink:title=" ">
<polygon fill="white" stroke="#666666" points="312,-113 165,-113 165,-83 312,-83 312,-113"/>
<text text-anchor="start" x="173" y="-101" font-family="Helvetica,sans-Serif" font-size="10.00">amr_wind::pde::SrcTermOp</text>
<text text-anchor="middle" x="238.5" y="-90" font-family="Helvetica,sans-Serif" font-size="10.00">&lt; PDE &gt;</text>
</a>
</g>
</g>
<!-- Node4&#45;&gt;Node1 -->
<g id="edge4_Node000001_Node000004" class="edge">
<title>Node4&#45;&gt;Node1</title>
<g id="a_edge4_Node000001_Node000004"><a xlink:title=" ">
<path fill="none" stroke="orange" stroke-dasharray="5,2" d="M200.46,-78.33C170.51,-63.62 129.41,-43.45 102.19,-30.08"/>
<polygon fill="orange" stroke="orange" points="199.24,-81.63 209.76,-82.89 202.32,-75.34 199.24,-81.63"/>
</a>
</g>
<text text-anchor="start" x="174.5" y="-53.5" font-family="Helvetica,sans-Serif" font-size="10.00" fill="grey">&lt; ICNS &gt;</text>
</g>
<!-- Node5 -->
<g id="Node000005" class="node">
<title>Node5</title>
<g id="a_Node000005"><a xlink:href="structamr__wind_1_1pde_1_1_src_term_op_base.html" target="_top" xlink:title=" ">
<polygon fill="white" stroke="#666666" points="312,-196 165,-196 165,-166 312,-166 312,-196"/>
<text text-anchor="start" x="173" y="-184" font-family="Helvetica,sans-Serif" font-size="10.00">amr_wind::pde::SrcTermOp</text>
<text text-anchor="middle" x="238.5" y="-173" font-family="Helvetica,sans-Serif" font-size="10.00">Base&lt; PDE &gt;</text>
</a>
</g>
</g>
<!-- Node5&#45;&gt;Node4 -->
<g id="edge5_Node000004_Node000005" class="edge">
<title>Node5&#45;&gt;Node4</title>
<g id="a_edge5_Node000004_Node000005"><a xlink:title=" ">
<path fill="none" stroke="#63b8ff" d="M238.5,-155.59C238.5,-141.75 238.5,-124.91 238.5,-113.22"/>
<polygon fill="#63b8ff" stroke="#63b8ff" points="235,-155.89 238.5,-165.89 242,-155.89 235,-155.89"/>
</a>
</g>
</g>
</g>
</svg>
