<?xml version="1.0" encoding="UTF-8" standalone="no"?>
<!DOCTYPE svg PUBLIC "-//W3C//DTD SVG 1.1//EN"
 "http://www.w3.org/Graphics/SVG/1.1/DTD/svg11.dtd">
<!-- Generated by graphviz version 2.43.0 (0)
 -->
<!-- Title: kynema_sgf::actuator::ops::UpdateVelOp&lt; ActTrait, SrcTrait, typename &gt; Pages: 1 -->
<!--zoomable 467 -->

<svg id="main" version="1.1" xmlns="http://www.w3.org/2000/svg" xmlns:xlink="http://www.w3.org/1999/xlink" xml:space="preserve" onload="init(evt)">

<style type="text/css"><![CDATA[
.node, .edge {opacity: 0.7;}
.node.selected, .edge.selected {opacity: 1;}
.edge:hover path { stroke: red; }
.edge:hover polygon { stroke: red; fill: red; }
]]></style>

<defs>
  <circle id="rim" cx="0" cy="0" r="7"/>
  <circle id="rim2" cx="0" cy="0" r="3.5"/>
  <g id="zoomPlus">
    <use xlink:href="#rim" fill="#404040"><set attributeName="fill" to="#808080" begin="zoomplus.mouseover" end="zoomplus.mouseout"/></use>
    <path d="M-4,0h8M0,-4v8" fill="none" stroke="white" stroke-width="1.5" pointer-events="none"/>
  </g>
  <g id="zoomMin">
    <use xlink:href="#rim" fill="#404040"><set attributeName="fill" to="#808080" begin="zoomminus.mouseover" end="zoomminus.mouseout"/></use>
    <path d="M-4,0h8" fill="none" stroke="white" stroke-width="1.5" pointer-events="none"/>
  </g>
  <g id="arrowUp" transform="translate(30 24)">
    <use xlink:href="#rim"/>
    <path pointer-events="none" fill="none" stroke="white" stroke-width="1.5" d="M0,-3.0v7 M-2.5,-0.5L0,-3.0L2.5,-0.5"/>
  </g>
  <g id="arrowRight" transform="rotate(90) translate(36 -43)">
    <use xlink:href="#rim"/>
    <path pointer-events="none" fill="none" stroke="white" stroke-width="1.5" d="M0,-3.0v7 M-2.5,-0.5L0,-3.0L2.5,-0.5"/>
  </g>
  <g id="arrowDown" transform="rotate(180) translate(-30 -48)">
    <use xlink:href="#rim"/>
    <path pointer-events="none" fill="none" stroke="white" stroke-width="1.5" d="M0,-3.0v7 M-2.5,-0.5L0,-3.0L2.5,-0.5"/>
  </g>
  <g id="arrowLeft" transform="rotate(270) translate(-36 17)">
    <use xlink:href="#rim"/>
    <path pointer-events="none" fill="none" stroke="white" stroke-width="1.5" d="M0,-3.0v7 M-2.5,-0.5L0,-3.0L2.5,-0.5"/>
  </g>
  <g id="resetDef">
    <use xlink:href="#rim2" fill="#404040"><set attributeName="fill" to="#808080" begin="reset.mouseover" end="reset.mouseout"/></use>
  </g>
</defs>
<script type="application/ecmascript">
var viewWidth = 573;
var viewHeight = 467;
var sectionId = 'dynsection-0';
</script>
<script type="application/ecmascript" xlink:href="svg.min.js"/>
<svg id="graph" class="graph">
<g id="viewport">
<title>kynema_sgf::actuator::ops::UpdateVelOp&lt; ActTrait, SrcTrait, typename &gt;</title>
<!-- Node1 -->
<g id="Node000001" class="node">
<title>Node1</title>
<g id="a_Node000001"><a xlink:title=" ">
<polygon fill="#999999" stroke="#666666" points="161,-188 0,-188 0,-147 161,-147 161,-188"/>
<text text-anchor="start" x="8" y="-176" font-family="Helvetica,sans-Serif" font-size="10.00">kynema_sgf::actuator</text>
<text text-anchor="start" x="8" y="-165" font-family="Helvetica,sans-Serif" font-size="10.00">::ops::UpdateVelOp&lt; ActTrait,</text>
<text text-anchor="middle" x="80.5" y="-154" font-family="Helvetica,sans-Serif" font-size="10.00"> SrcTrait, typename &gt;</text>
</a>
</g>
</g>
<!-- Node2 -->
<g id="Node000002" class="node">
<title>Node2</title>
<g id="a_Node000002"><a xlink:href="structkynema__sgf_1_1actuator_1_1ops_1_1_update_vel_op_3_01_act_trait_00_01_act_src_disk_00_01st54cf347f23c55c4be0ee2e534844512b.html" target="_top" xlink:title=" ">
<polygon fill="white" stroke="#666666" points="550.5,-413 371.5,-413 371.5,-350 550.5,-350 550.5,-413"/>
<text text-anchor="start" x="379.5" y="-401" font-family="Helvetica,sans-Serif" font-size="10.00">kynema_sgf::actuator</text>
<text text-anchor="start" x="379.5" y="-390" font-family="Helvetica,sans-Serif" font-size="10.00">::ops::UpdateVelOp&lt; ActTrait,</text>
<text text-anchor="start" x="379.5" y="-379" font-family="Helvetica,sans-Serif" font-size="10.00"> ActSrcDisk, std::enable_if</text>
<text text-anchor="start" x="379.5" y="-368" font-family="Helvetica,sans-Serif" font-size="10.00">_t&lt; std::is_base_of_v&lt; DiskType,</text>
<text text-anchor="middle" x="461" y="-357" font-family="Helvetica,sans-Serif" font-size="10.00"> ActTrait &gt; &gt; &gt;</text>
</a>
</g>
</g>
<!-- Node1&#45;&gt;Node2 -->
<g id="edge1_Node000001_Node000002" class="edge">
<title>Node1&#45;&gt;Node2</title>
<g id="a_edge1_Node000001_Node000002"><a xlink:title=" ">
<path fill="none" stroke="orange" stroke-dasharray="5,2" d="M87.45,-198.1C97.72,-241.87 123.3,-321.19 179,-358.5 235.02,-396.03 312.11,-399.83 371.38,-395.33"/>
<polygon fill="orange" stroke="orange" points="90.85,-197.29 85.26,-188.3 84.02,-198.82 90.85,-197.29"/>
</a>
</g>
<text text-anchor="start" x="192" y="-447.5" font-family="Helvetica,sans-Serif" font-size="10.00" fill="grey">&lt; ActTrait, ActSrcDisk,</text>
<text text-anchor="start" x="192" y="-432.5" font-family="Helvetica,sans-Serif" font-size="10.00" fill="grey">   std::enable_if_t&lt; std</text>
<text text-anchor="start" x="192" y="-417.5" font-family="Helvetica,sans-Serif" font-size="10.00" fill="grey">  ::is_base_of_v&lt; DiskType,</text>
<text text-anchor="start" x="192" y="-402.5" font-family="Helvetica,sans-Serif" font-size="10.00" fill="grey">   ActTrait &gt; &gt; &gt;</text>
</g>
<!-- Node3 -->
<g id="Node000003" class="node">
<title>Node3</title>
<g id="a_Node000003"><a xlink:href="structkynema__sgf_1_1actuator_1_1ops_1_1_update_vel_op_3_01_act_trait_00_01_act_src_line_00_01ty76a6a9c232548d1be38754c8231be73e.html" target="_top" xlink:title=" ">
<polygon fill="white" stroke="#666666" points="565,-321 357,-321 357,-236 565,-236 565,-321"/>
<text text-anchor="start" x="365" y="-309" font-family="Helvetica,sans-Serif" font-size="10.00">kynema_sgf::actuator</text>
<text text-anchor="start" x="365" y="-298" font-family="Helvetica,sans-Serif" font-size="10.00">::ops::UpdateVelOp&lt; ActTrait,</text>
<text text-anchor="start" x="365" y="-287" font-family="Helvetica,sans-Serif" font-size="10.00"> ActSrcLine, typename std</text>
<text text-anchor="start" x="365" y="-276" font-family="Helvetica,sans-Serif" font-size="10.00">::enable_if_t&lt; std::is_base</text>
<text text-anchor="start" x="365" y="-265" font-family="Helvetica,sans-Serif" font-size="10.00">_of_v&lt; WingType, ActTrait &gt;</text>
<text text-anchor="start" x="365" y="-254" font-family="Helvetica,sans-Serif" font-size="10.00"> &amp;&amp;UseDefaultOp&lt; ActTrait, ActSrcLine</text>
<text text-anchor="middle" x="461" y="-243" font-family="Helvetica,sans-Serif" font-size="10.00"> &gt;::update_vel &gt; &gt;</text>
</a>
</g>
</g>
<!-- Node1&#45;&gt;Node3 -->
<g id="edge2_Node000001_Node000003" class="edge">
<title>Node1&#45;&gt;Node3</title>
<g id="a_edge2_Node000001_Node000003"><a xlink:title=" ">
<path fill="none" stroke="orange" stroke-dasharray="5,2" d="M120.11,-193.59C137.46,-204.27 158.6,-215.88 179,-223.5 236.05,-244.8 302.84,-258.31 356.99,-266.61"/>
<polygon fill="orange" stroke="orange" points="121.73,-190.48 111.4,-188.12 118,-196.4 121.73,-190.48"/>
</a>
</g>
<text text-anchor="start" x="182" y="-343.5" font-family="Helvetica,sans-Serif" font-size="10.00" fill="grey">&lt; ActTrait, ActSrcLine,</text>
<text text-anchor="start" x="182" y="-328.5" font-family="Helvetica,sans-Serif" font-size="10.00" fill="grey">   typename std::enable</text>
<text text-anchor="start" x="182" y="-313.5" font-family="Helvetica,sans-Serif" font-size="10.00" fill="grey">  _if_t&lt; std::is_base_of</text>
<text text-anchor="start" x="182" y="-298.5" font-family="Helvetica,sans-Serif" font-size="10.00" fill="grey">  _v&lt; WingType, ActTrait &gt;</text>
<text text-anchor="start" x="182" y="-283.5" font-family="Helvetica,sans-Serif" font-size="10.00" fill="grey">   &amp;&amp;UseDefaultOp&lt; ActTrait,</text>
<text text-anchor="start" x="182" y="-268.5" font-family="Helvetica,sans-Serif" font-size="10.00" fill="grey">   ActSrcLine &gt;::update_vel &gt; &gt;</text>
</g>
<!-- Node4 -->
<g id="Node000004" class="node">
<title>Node4</title>
<g id="a_Node000004"><a xlink:href="structkynema__sgf_1_1actuator_1_1ops_1_1_update_vel_op_3_01_actuator_sector_00_01_act_src_sector_01_4.html" target="_top" xlink:title=" ">
<polygon fill="white" stroke="#666666" points="542,-218 380,-218 380,-177 542,-177 542,-218"/>
<text text-anchor="start" x="388" y="-206" font-family="Helvetica,sans-Serif" font-size="10.00">kynema_sgf::actuator</text>
<text text-anchor="start" x="388" y="-195" font-family="Helvetica,sans-Serif" font-size="10.00">::ops::UpdateVelOp&lt; Actuator</text>
<text text-anchor="middle" x="461" y="-184" font-family="Helvetica,sans-Serif" font-size="10.00">Sector, ActSrcSector &gt;</text>
</a>
</g>
</g>
<!-- Node1&#45;&gt;Node4 -->
<g id="edge3_Node000001_Node000004" class="edge">
<title>Node1&#45;&gt;Node4</title>
<g id="a_edge3_Node000001_Node000004"><a xlink:title=" ">
<path fill="none" stroke="orange" stroke-dasharray="5,2" d="M171.23,-174.88C173.85,-175.09 176.44,-175.3 179,-175.5 246.68,-180.93 323.54,-186.93 379.75,-191.3"/>
<polygon fill="orange" stroke="orange" points="171.3,-171.37 161.05,-174.05 170.73,-178.35 171.3,-171.37"/>
</a>
</g>
<text text-anchor="start" x="199" y="-208.5" font-family="Helvetica,sans-Serif" font-size="10.00" fill="grey">&lt; ActuatorSector, ActSrc</text>
<text text-anchor="start" x="199" y="-193.5" font-family="Helvetica,sans-Serif" font-size="10.00" fill="grey">  Sector &gt;</text>
</g>
<!-- Node5 -->
<g id="Node000005" class="node">
<title>Node5</title>
<g id="a_Node000005"><a xlink:href="structkynema__sgf_1_1actuator_1_1ops_1_1_update_vel_op_3_01_drone_00_01_act_src_drone_01_4.html" target="_top" xlink:title=" ">
<polygon fill="white" stroke="#666666" points="537.5,-159 384.5,-159 384.5,-118 537.5,-118 537.5,-159"/>
<text text-anchor="start" x="392.5" y="-147" font-family="Helvetica,sans-Serif" font-size="10.00">kynema_sgf::actuator</text>
<text text-anchor="start" x="392.5" y="-136" font-family="Helvetica,sans-Serif" font-size="10.00">::ops::UpdateVelOp&lt; Drone,</text>
<text text-anchor="middle" x="461" y="-125" font-family="Helvetica,sans-Serif" font-size="10.00"> ActSrcDrone &gt;</text>
</a>
</g>
</g>
<!-- Node1&#45;&gt;Node5 -->
<g id="edge4_Node000001_Node000005" class="edge">
<title>Node1&#45;&gt;Node5</title>
<g id="a_edge4_Node000001_Node000005"><a xlink:title=" ">
<path fill="none" stroke="orange" stroke-dasharray="5,2" d="M171.23,-159.15C173.85,-158.92 176.44,-158.71 179,-158.5 248.46,-152.82 327.66,-147.27 384.23,-143.46"/>
<polygon fill="orange" stroke="orange" points="170.7,-155.68 161.04,-160.02 171.3,-162.65 170.7,-155.68"/>
</a>
</g>
<text text-anchor="start" x="200" y="-164" font-family="Helvetica,sans-Serif" font-size="10.00" fill="grey">&lt; Drone, ActSrcDrone &gt;</text>
</g>
<!-- Node6 -->
<g id="Node000006" class="node">
<title>Node6</title>
<g id="a_Node000006"><a xlink:href="structkynema__sgf_1_1actuator_1_1ops_1_1_update_vel_op_3_01_turbine_fast_00_01_src_trait_01_4.html" target="_top" xlink:title=" ">
<polygon fill="white" stroke="#666666" points="539,-100 383,-100 383,-59 539,-59 539,-100"/>
<text text-anchor="start" x="391" y="-88" font-family="Helvetica,sans-Serif" font-size="10.00">kynema_sgf::actuator</text>
<text text-anchor="start" x="391" y="-77" font-family="Helvetica,sans-Serif" font-size="10.00">::ops::UpdateVelOp&lt; Turbine</text>
<text text-anchor="middle" x="461" y="-66" font-family="Helvetica,sans-Serif" font-size="10.00">Fast, SrcTrait &gt;</text>
</a>
</g>
</g>
<!-- Node1&#45;&gt;Node6 -->
<g id="edge5_Node000001_Node000006" class="edge">
<title>Node1&#45;&gt;Node6</title>
<g id="a_edge5_Node000001_Node000006"><a xlink:title=" ">
<path fill="none" stroke="orange" stroke-dasharray="5,2" d="M132.77,-142.63C147.44,-136.29 163.62,-130 179,-125.5 246.49,-105.76 325.74,-93.76 382.84,-86.98"/>
<polygon fill="orange" stroke="orange" points="131.11,-139.54 123.38,-146.79 133.94,-145.94 131.11,-139.54"/>
</a>
</g>
<text text-anchor="start" x="199" y="-131" font-family="Helvetica,sans-Serif" font-size="10.00" fill="grey">&lt; TurbineFast, SrcTrait &gt;</text>
</g>
<!-- Node7 -->
<g id="Node000007" class="node">
<title>Node7</title>
<g id="a_Node000007"><a xlink:href="structkynema__sgf_1_1actuator_1_1ops_1_1_update_vel_op_3_01_turbine_kynema_f_m_b_00_01_src_trait_01_4.html" target="_top" xlink:title=" ">
<polygon fill="white" stroke="#666666" points="539,-41 383,-41 383,0 539,0 539,-41"/>
<text text-anchor="start" x="391" y="-29" font-family="Helvetica,sans-Serif" font-size="10.00">kynema_sgf::actuator</text>
<text text-anchor="start" x="391" y="-18" font-family="Helvetica,sans-Serif" font-size="10.00">::ops::UpdateVelOp&lt; Turbine</text>
<text text-anchor="middle" x="461" y="-7" font-family="Helvetica,sans-Serif" font-size="10.00">KynemaFMB, SrcTrait &gt;</text>
</a>
</g>
</g>
<!-- Node1&#45;&gt;Node7 -->
<g id="edge6_Node000001_Node000007" class="edge">
<title>Node1&#45;&gt;Node7</title>
<g id="a_edge6_Node000001_Node000007"><a xlink:title=" ">
<path fill="none" stroke="orange" stroke-dasharray="5,2" d="M98.74,-137.89C115.65,-111.8 143.95,-75.14 179,-56.5 241.97,-23.02 323.75,-15.91 382.84,-16.05"/>
<polygon fill="orange" stroke="orange" points="95.61,-136.3 93.25,-146.63 101.53,-140.03 95.61,-136.3"/>
</a>
</g>
<text text-anchor="start" x="203" y="-77.5" font-family="Helvetica,sans-Serif" font-size="10.00" fill="grey">&lt; TurbineKynemaFMB,</text>
<text text-anchor="start" x="203" y="-62.5" font-family="Helvetica,sans-Serif" font-size="10.00" fill="grey">   SrcTrait &gt;</text>
</g>
</g>
</svg>

<g id="navigator" transform="translate(0 0)" fill="#404254">
  <rect fill="#f2f5e9" fill-opacity="0.5" stroke="#606060" stroke-width=".5" x="0" y="0" width="60" height="60"/>
  <use id="zoomplus" xlink:href="#zoomPlus" x="17" y="9" onmousedown="handleZoom(evt,'in')"/>
  <use id="zoomminus" xlink:href="#zoomMin" x="42" y="9" onmousedown="handleZoom(evt,'out')"/>
  <use id="reset" xlink:href="#resetDef" x="30" y="36" onmousedown="handleReset()"/>
   <use id="arrowup" xlink:href="#arrowUp" x="0" y="0" onmousedown="handlePan(0,-1)"/>
  <use id="arrowright" xlink:href="#arrowRight" x="0" y="0" onmousedown="handlePan(1,0)"/>
  <use id="arrowdown" xlink:href="#arrowDown" x="0" y="0" onmousedown="handlePan(0,1)"/>
  <use id="arrowleft" xlink:href="#arrowLeft" x="0" y="0" onmousedown="handlePan(-1,0)"/>
</g>
<svg viewBox="0 0 15 15" width="100%" height="30px" preserveAspectRatio="xMaxYMin meet">
 <g id="arrow_out" transform="scale(0.3 0.3)">
  <a xlink:href="structkynema__sgf_1_1actuator_1_1ops_1_1_update_vel_op__inherit__graph_org.svg" target="_base">
   <rect id="button" ry="5" rx="5" y="6" x="6" height="38" width="38"
        fill="#f2f5e9" fill-opacity="0.5" stroke="#606060" stroke-width="1.0"/>
   <path id="arrow"
     d="M 11.500037,31.436501 C 11.940474,20.09759 22.043105,11.32322 32.158766,21.979434 L 37.068811,17.246167 C 37.068811,17.246167 37.088388,32 37.088388,32 L 22.160133,31.978069 C 22.160133,31.978069 26.997745,27.140456 26.997745,27.140456 C 18.528582,18.264221 13.291696,25.230495 11.500037,31.436501 z"
     style="fill:#404040;"/>
  </a>
 </g>
</svg>

<style type='text/css'>
<![CDATA[
[data-mouse-over-selected='false'] { opacity: 0.7; }
[data-mouse-over-selected='true']  { opacity: 1.0; }
]]>
</style>
<script type="application/ecmascript"><![CDATA[
document.addEventListener('DOMContentLoaded', (event) => {
  highlightEdges();
  highlightAdjacentNodes();
});
]]></script>
</svg>
