<?xml version="1.0" encoding="UTF-8" standalone="no"?>
<!DOCTYPE svg PUBLIC "-//W3C//DTD SVG 1.1//EN"
 "http://www.w3.org/Graphics/SVG/1.1/DTD/svg11.dtd">
<!-- Generated by graphviz version 2.43.0 (0)
 -->
<!-- Title: amr_wind::pde::TurbulenceOp&lt; Temperature &gt; Pages: 1 -->
<!--zoomable 246 -->

<svg id="main" version="1.1" xmlns="http://www.w3.org/2000/svg" xmlns:xlink="http://www.w3.org/1999/xlink" xml:space="preserve" onload="init(evt)">

<style type="text/css"><![CDATA[
.node, .edge {opacity: 0.7;}
.node.selected, .edge.selected {opacity: 1;}
.edge:hover path { stroke: red; }
.edge:hover polygon { stroke: red; fill: red; }
]]></style>

<defs>
  <circle id="rim" cx="0" cy="0" r="7"/>
  <circle id="rim2" cx="0" cy="0" r="3.5"/>
  <g id="zoomPlus">
    <use xlink:href="#rim" fill="#404040"><set attributeName="fill" to="#808080" begin="zoomplus.mouseover" end="zoomplus.mouseout"/></use>
    <path d="M-4,0h8M0,-4v8" fill="none" stroke="white" stroke-width="1.5" pointer-events="none"/>
  </g>
  <g id="zoomMin">
    <use xlink:href="#rim" fill="#404040"><set attributeName="fill" to="#808080" begin="zoomminus.mouseover" end="zoomminus.mouseout"/></use>
    <path d="M-4,0h8" fill="none" stroke="white" stroke-width="1.5" pointer-events="none"/>
  </g>
  <g id="arrowUp" transform="translate(30 24)">
    <use xlink:href="#rim"/>
    <path pointer-events="none" fill="none" stroke="white" stroke-width="1.5" d="M0,-3.0v7 M-2.5,-0.5L0,-3.0L2.5,-0.5"/>
  </g>
  <g id="arrowRight" transform="rotate(90) translate(36 -43)">
    <use xlink:href="#rim"/>
    <path pointer-events="none" fill="none" stroke="white" stroke-width="1.5" d="M0,-3.0v7 M-2.5,-0.5L0,-3.0L2.5,-0.5"/>
  </g>
  <g id="arrowDown" transform="rotate(180) translate(-30 -48)">
    <use xlink:href="#rim"/>
    <path pointer-events="none" fill="none" stroke="white" stroke-width="1.5" d="M0,-3.0v7 M-2.5,-0.5L0,-3.0L2.5,-0.5"/>
  </g>
  <g id="arrowLeft" transform="rotate(270) translate(-36 17)">
    <use xlink:href="#rim"/>
    <path pointer-events="none" fill="none" stroke="white" stroke-width="1.5" d="M0,-3.0v7 M-2.5,-0.5L0,-3.0L2.5,-0.5"/>
  </g>
  <g id="resetDef">
    <use xlink:href="#rim2" fill="#404040"><set attributeName="fill" to="#808080" begin="reset.mouseover" end="reset.mouseout"/></use>
  </g>
</defs>
<script type="application/ecmascript">
var viewWidth = 1846;
var viewHeight = 246;
var sectionId = 'dynsection-0';
</script>
<script type="application/ecmascript" xlink:href="svg.min.js"/>
<svg id="graph" class="graph">
<g id="viewport">
<title>amr_wind::pde::TurbulenceOp&lt; Temperature &gt;</title>
<!-- Node1 -->
<g id="Node000001" class="node">
<title>Node1</title>
<g id="a_Node000001"><a xlink:title=" ">
<polygon fill="#999999" stroke="#666666" points="1838,-147.57 1691,-147.57 1691,-117.57 1838,-117.57 1838,-147.57"/>
<text text-anchor="start" x="1699" y="-135.57" font-family="Helvetica,sans-Serif" font-size="10.00">amr_wind::pde::Turbulence</text>
<text text-anchor="middle" x="1764.5" y="-124.57" font-family="Helvetica,sans-Serif" font-size="10.00">Op&lt; Temperature &gt;</text>
</a>
</g>
</g>
<!-- Node2 -->
<g id="Node000002" class="node">
<title>Node2</title>
<g id="a_Node000002"><a xlink:href="classamr__wind_1_1turbulence_1_1_turbulence_model.html" target="_top" xlink:title=" ">
<polygon fill="white" stroke="#666666" points="1591.5,-182.57 1469.5,-182.57 1469.5,-152.57 1591.5,-152.57 1591.5,-182.57"/>
<text text-anchor="start" x="1477.5" y="-170.57" font-family="Helvetica,sans-Serif" font-size="10.00">amr_wind::turbulence</text>
<text text-anchor="middle" x="1530.5" y="-159.57" font-family="Helvetica,sans-Serif" font-size="10.00">::TurbulenceModel</text>
</a>
</g>
</g>
<!-- Node2&#45;&gt;Node1 -->
<g id="edge1_Node000001_Node000002" class="edge">
<title>Node2&#45;&gt;Node1</title>
<g id="a_edge1_Node000001_Node000002"><a xlink:title=" ">
<path fill="none" stroke="#9a32cd" stroke-dasharray="5,2" d="M1601.73,-156.97C1629.94,-152.72 1662.44,-147.82 1690.88,-143.52"/>
<polygon fill="#9a32cd" stroke="#9a32cd" points="1600.91,-153.56 1591.55,-158.51 1601.96,-160.48 1600.91,-153.56"/>
</a>
</g>
<text text-anchor="middle" x="1646.5" y="-155.57" font-family="Helvetica,sans-Serif" font-size="10.00" fill="grey"> m_tmodel</text>
</g>
<!-- Node3 -->
<g id="Node000003" class="node">
<title>Node3</title>
<g id="a_Node000003"><a xlink:href="structamr__wind_1_1_factory.html" target="_top" xlink:title=" ">
<polygon fill="white" stroke="#666666" points="1368,-211.57 1199,-211.57 1199,-181.57 1368,-181.57 1368,-211.57"/>
<text text-anchor="start" x="1207" y="-199.57" font-family="Helvetica,sans-Serif" font-size="10.00">amr_wind::Factory&lt;</text>
<text text-anchor="middle" x="1283.5" y="-188.57" font-family="Helvetica,sans-Serif" font-size="10.00"> TurbulenceModel, CFDSim &amp; &gt;</text>
</a>
</g>
</g>
<!-- Node3&#45;&gt;Node2 -->
<g id="edge2_Node000002_Node000003" class="edge">
<title>Node3&#45;&gt;Node2</title>
<g id="a_edge2_Node000002_Node000003"><a xlink:title=" ">
<path fill="none" stroke="#63b8ff" d="M1378.39,-185.46C1408.95,-181.84 1442.03,-177.92 1469.43,-174.68"/>
<polygon fill="#63b8ff" stroke="#63b8ff" points="1377.65,-182.02 1368.13,-186.67 1378.47,-188.97 1377.65,-182.02"/>
</a>
</g>
</g>
<!-- Node4 -->
<g id="Node000004" class="node">
<title>Node4</title>
<g id="a_Node000004"><a xlink:href="structamr__wind_1_1_factory.html" target="_top" xlink:title=" ">
<polygon fill="white" stroke="#666666" points="1060,-217.57 946,-217.57 946,-187.57 1060,-187.57 1060,-217.57"/>
<text text-anchor="start" x="954" y="-205.57" font-family="Helvetica,sans-Serif" font-size="10.00">amr_wind::Factory&lt;</text>
<text text-anchor="middle" x="1003" y="-194.57" font-family="Helvetica,sans-Serif" font-size="10.00"> Base, Args &gt;</text>
</a>
</g>
</g>
<!-- Node4&#45;&gt;Node3 -->
<g id="edge3_Node000003_Node000004" class="edge">
<title>Node4&#45;&gt;Node3</title>
<g id="a_edge3_Node000003_Node000004"><a xlink:title=" ">
<path fill="none" stroke="orange" stroke-dasharray="5,2" d="M1070.09,-201.15C1108.63,-200.32 1157.61,-199.26 1198.82,-198.37"/>
<polygon fill="orange" stroke="orange" points="1069.95,-197.65 1060.02,-201.36 1070.1,-204.65 1069.95,-197.65"/>
</a>
</g>
<text text-anchor="start" x="1081" y="-214.57" font-family="Helvetica,sans-Serif" font-size="10.00" fill="grey"> &lt; TurbulenceModel,</text>
<text text-anchor="middle" x="1131" y="-203.57" font-family="Helvetica,sans-Serif" font-size="10.00" fill="grey"> CFDSim &amp; &gt;</text>
</g>
<!-- Node5 -->
<g id="Node000005" class="node">
<title>Node5</title>
<g id="a_Node000005"><a xlink:href="structamr__wind_1_1pde_1_1_p_d_e_fields.html" target="_top" xlink:title=" ">
<polygon fill="white" stroke="#666666" points="1602,-121.07 1459,-121.07 1459,-102.07 1602,-102.07 1602,-121.07"/>
<text text-anchor="middle" x="1530.5" y="-109.07" font-family="Helvetica,sans-Serif" font-size="10.00">amr_wind::pde::PDEFields</text>
</a>
</g>
</g>
<!-- Node5&#45;&gt;Node1 -->
<g id="edge4_Node000001_Node000005" class="edge">
<title>Node5&#45;&gt;Node1</title>
<g id="a_edge4_Node000001_Node000005"><a xlink:title=" ">
<path fill="none" stroke="#9a32cd" stroke-dasharray="5,2" d="M1612.39,-114.12C1632.24,-115.14 1653.41,-116.58 1673,-118.57 1678.85,-119.17 1684.9,-119.88 1690.97,-120.67"/>
<polygon fill="#9a32cd" stroke="#9a32cd" points="1612.3,-110.61 1602.14,-113.62 1611.96,-117.6 1612.3,-110.61"/>
</a>
</g>
<text text-anchor="middle" x="1646.5" y="-121.57" font-family="Helvetica,sans-Serif" font-size="10.00" fill="grey"> m_fields</text>
</g>
<!-- Node6 -->
<g id="Node000006" class="node">
<title>Node6</title>
<g id="a_Node000006"><a xlink:href="classamr__wind_1_1_field_repo.html" target="_top" xlink:title=" ">
<polygon fill="white" stroke="#666666" points="1062.5,-69.07 943.5,-69.07 943.5,-50.07 1062.5,-50.07 1062.5,-69.07"/>
<text text-anchor="middle" x="1003" y="-57.07" font-family="Helvetica,sans-Serif" font-size="10.00">amr_wind::FieldRepo</text>
</a>
</g>
</g>
<!-- Node6&#45;&gt;Node5 -->
<g id="edge5_Node000005_Node000006" class="edge">
<title>Node6&#45;&gt;Node5</title>
<g id="a_edge5_Node000005_Node000006"><a xlink:title=" ">
<path fill="none" stroke="#9a32cd" stroke-dasharray="5,2" d="M1072.59,-61.11C1145.97,-63.41 1265.63,-69.03 1368,-82.57 1406.97,-87.72 1450.86,-95.75 1483.03,-102.05"/>
<polygon fill="#9a32cd" stroke="#9a32cd" points="1072.65,-57.61 1062.55,-60.81 1072.44,-64.61 1072.65,-57.61"/>
</a>
</g>
<text text-anchor="middle" x="1283.5" y="-85.57" font-family="Helvetica,sans-Serif" font-size="10.00" fill="grey"> repo</text>
</g>
<!-- Node13 -->
<g id="Node000013" class="node">
<title>Node13</title>
<g id="a_Node000013"><a xlink:href="classamr__wind_1_1_field.html" target="_top" xlink:title=" ">
<polygon fill="white" stroke="#666666" points="1330.5,-121.07 1236.5,-121.07 1236.5,-102.07 1330.5,-102.07 1330.5,-121.07"/>
<text text-anchor="middle" x="1283.5" y="-109.07" font-family="Helvetica,sans-Serif" font-size="10.00">amr_wind::Field</text>
</a>
</g>
</g>
<!-- Node6&#45;&gt;Node13 -->
<g id="edge13_Node000013_Node000006" class="edge">
<title>Node6&#45;&gt;Node13</title>
<g id="a_edge13_Node000013_Node000006"><a xlink:title=" ">
<path fill="none" stroke="#9a32cd" stroke-dasharray="5,2" d="M1072.79,-68.59C1105.67,-73.28 1145.5,-79.5 1181,-86.57 1203.07,-90.96 1227.57,-96.96 1246.98,-101.99"/>
<polygon fill="#9a32cd" stroke="#9a32cd" points="1073.22,-65.12 1062.83,-67.19 1072.24,-72.05 1073.22,-65.12"/>
</a>
</g>
<text text-anchor="middle" x="1131" y="-89.57" font-family="Helvetica,sans-Serif" font-size="10.00" fill="grey"> m_repo</text>
</g>
<!-- Node7 -->
<g id="Node000007" class="node">
<title>Node7</title>
<g id="a_Node000007"><a xlink:title=" ">
<polygon fill="white" stroke="#666666" points="834,-74.57 712,-74.57 712,-44.57 834,-44.57 834,-74.57"/>
<text text-anchor="start" x="720" y="-62.57" font-family="Helvetica,sans-Serif" font-size="10.00">std::unordered_map</text>
<text text-anchor="middle" x="773" y="-51.57" font-family="Helvetica,sans-Serif" font-size="10.00">&lt; std::string, size_t &gt;</text>
</a>
</g>
</g>
<!-- Node7&#45;&gt;Node6 -->
<g id="edge6_Node000006_Node000007" class="edge">
<title>Node7&#45;&gt;Node6</title>
<g id="a_edge6_Node000006_Node000007"><a xlink:title=" ">
<path fill="none" stroke="#9a32cd" stroke-dasharray="5,2" d="M844.32,-59.57C876.09,-59.57 913.2,-59.57 943.43,-59.57"/>
<polygon fill="#9a32cd" stroke="#9a32cd" points="844.2,-56.07 834.2,-59.57 844.2,-63.07 844.2,-56.07"/>
</a>
</g>
<text text-anchor="middle" x="888.5" y="-73.57" font-family="Helvetica,sans-Serif" font-size="10.00" fill="grey"> m_fid_map</text>
<text text-anchor="middle" x="888.5" y="-62.57" font-family="Helvetica,sans-Serif" font-size="10.00" fill="grey">m_int_fid_map</text>
</g>
<!-- Node8 -->
<g id="Node000008" class="node">
<title>Node8</title>
<g id="a_Node000008"><a xlink:title=" ">
<polygon fill="white" stroke="#666666" points="502,-121.07 437,-121.07 437,-102.07 502,-102.07 502,-121.07"/>
<text text-anchor="middle" x="469.5" y="-109.07" font-family="Helvetica,sans-Serif" font-size="10.00">std::string</text>
</a>
</g>
</g>
<!-- Node8&#45;&gt;Node7 -->
<g id="edge7_Node000007_Node000008" class="edge">
<title>Node8&#45;&gt;Node7</title>
<g id="a_edge7_Node000007_Node000008"><a xlink:title=" ">
<path fill="none" stroke="#9a32cd" stroke-dasharray="5,2" d="M512.07,-100.26C530.35,-95.57 552.14,-90.34 572,-86.57 618.64,-77.7 671.94,-70.66 711.78,-65.99"/>
<polygon fill="#9a32cd" stroke="#9a32cd" points="511.1,-96.9 502.31,-102.8 512.87,-103.67 511.1,-96.9"/>
</a>
</g>
<text text-anchor="middle" x="633" y="-89.57" font-family="Helvetica,sans-Serif" font-size="10.00" fill="grey"> keys</text>
</g>
<!-- Node8&#45;&gt;Node13 -->
<g id="edge14_Node000013_Node000008" class="edge">
<title>Node8&#45;&gt;Node13</title>
<g id="a_edge14_Node000013_Node000008"><a xlink:title=" ">
<path fill="none" stroke="#9a32cd" stroke-dasharray="5,2" d="M512.52,-111.57C650.93,-111.57 1091.91,-111.57 1236.27,-111.57"/>
<polygon fill="#9a32cd" stroke="#9a32cd" points="512.33,-108.07 502.33,-111.57 512.33,-115.07 512.33,-108.07"/>
</a>
</g>
<text text-anchor="middle" x="888.5" y="-114.57" font-family="Helvetica,sans-Serif" font-size="10.00" fill="grey"> m_name</text>
</g>
<!-- Node15 -->
<g id="Node000015" class="node">
<title>Node15</title>
<g id="a_Node000015"><a xlink:href="structamr__wind_1_1_field_info.html" target="_top" xlink:title=" ">
<polygon fill="white" stroke="#666666" points="829.5,-164.07 716.5,-164.07 716.5,-145.07 829.5,-145.07 829.5,-164.07"/>
<text text-anchor="middle" x="773" y="-152.07" font-family="Helvetica,sans-Serif" font-size="10.00">amr_wind::FieldInfo</text>
</a>
</g>
</g>
<!-- Node8&#45;&gt;Node15 -->
<g id="edge17_Node000015_Node000008" class="edge">
<title>Node8&#45;&gt;Node15</title>
<g id="a_edge17_Node000015_Node000008"><a xlink:title=" ">
<path fill="none" stroke="#9a32cd" stroke-dasharray="5,2" d="M512.28,-117.53C565.39,-125.1 657.25,-138.2 716.28,-146.62"/>
<polygon fill="#9a32cd" stroke="#9a32cd" points="512.59,-114.04 502.2,-116.09 511.6,-120.97 512.59,-114.04"/>
</a>
</g>
<text text-anchor="middle" x="633" y="-145.57" font-family="Helvetica,sans-Serif" font-size="10.00" fill="grey"> m_basename</text>
</g>
<!-- Node9 -->
<g id="Node000009" class="node">
<title>Node9</title>
<g id="a_Node000009"><a xlink:title=" ">
<polygon fill="white" stroke="#666666" points="201,-122.57 97,-122.57 97,-92.57 201,-92.57 201,-122.57"/>
<text text-anchor="start" x="105" y="-110.57" font-family="Helvetica,sans-Serif" font-size="10.00">std::basic_string&lt;</text>
<text text-anchor="middle" x="149" y="-99.57" font-family="Helvetica,sans-Serif" font-size="10.00"> Char &gt;</text>
</a>
</g>
</g>
<!-- Node9&#45;&gt;Node8 -->
<g id="edge8_Node000008_Node000009" class="edge">
<title>Node9&#45;&gt;Node8</title>
<g id="a_edge8_Node000008_Node000009"><a xlink:title=" ">
<path fill="none" stroke="#63b8ff" d="M211.24,-108.34C278.64,-109.19 384.37,-110.51 436.81,-111.17"/>
<polygon fill="#63b8ff" stroke="#63b8ff" points="211.22,-104.84 201.17,-108.21 211.13,-111.84 211.22,-104.84"/>
</a>
</g>
</g>
<!-- Node10 -->
<g id="Node000010" class="node">
<title>Node10</title>
<g id="a_Node000010"><a xlink:title=" ">
<polygon fill="white" stroke="#666666" points="526.5,-66.57 412.5,-66.57 412.5,-36.57 526.5,-36.57 526.5,-66.57"/>
<text text-anchor="start" x="420.5" y="-54.57" font-family="Helvetica,sans-Serif" font-size="10.00">std::unordered_map</text>
<text text-anchor="middle" x="469.5" y="-43.57" font-family="Helvetica,sans-Serif" font-size="10.00">&lt; K, T &gt;</text>
</a>
</g>
</g>
<!-- Node10&#45;&gt;Node7 -->
<g id="edge9_Node000007_Node000010" class="edge">
<title>Node10&#45;&gt;Node7</title>
<g id="a_edge9_Node000007_Node000010"><a xlink:title=" ">
<path fill="none" stroke="orange" stroke-dasharray="5,2" d="M536.67,-50.39C581.17,-49.96 641.14,-50.08 694,-52.57 699.84,-52.84 705.92,-53.22 711.99,-53.67"/>
<polygon fill="orange" stroke="orange" points="536.52,-46.89 526.56,-50.5 536.6,-53.89 536.52,-46.89"/>
</a>
</g>
<text text-anchor="middle" x="633" y="-55.57" font-family="Helvetica,sans-Serif" font-size="10.00" fill="grey"> &lt; std::string, size_t &gt;</text>
</g>
<!-- Node11 -->
<g id="Node000011" class="node">
<title>Node11</title>
<g id="a_Node000011"><a xlink:title=" ">
<polygon fill="white" stroke="#666666" points="163.5,-74.07 134.5,-74.07 134.5,-55.07 163.5,-55.07 163.5,-74.07"/>
<text text-anchor="middle" x="149" y="-62.07" font-family="Helvetica,sans-Serif" font-size="10.00">K</text>
</a>
</g>
</g>
<!-- Node11&#45;&gt;Node10 -->
<g id="edge10_Node000010_Node000011" class="edge">
<title>Node11&#45;&gt;Node10</title>
<g id="a_edge10_Node000010_Node000011"><a xlink:title=" ">
<path fill="none" stroke="#9a32cd" stroke-dasharray="5,2" d="M173.87,-63.6C224.1,-61.55 341.85,-56.74 412.34,-53.86"/>
<polygon fill="#9a32cd" stroke="#9a32cd" points="173.53,-60.11 163.69,-64.01 173.82,-67.1 173.53,-60.11"/>
</a>
</g>
<text text-anchor="middle" x="300.5" y="-64.57" font-family="Helvetica,sans-Serif" font-size="10.00" fill="grey"> keys</text>
</g>
<!-- Node12 -->
<g id="Node000012" class="node">
<title>Node12</title>
<g id="a_Node000012"><a xlink:title=" ">
<polygon fill="white" stroke="#666666" points="29,-160.07 0,-160.07 0,-141.07 29,-141.07 29,-160.07"/>
<text text-anchor="middle" x="14.5" y="-148.07" font-family="Helvetica,sans-Serif" font-size="10.00">T</text>
</a>
</g>
</g>
<!-- Node12&#45;&gt;Node10 -->
<g id="edge11_Node000010_Node000012" class="edge">
<title>Node12&#45;&gt;Node10</title>
<g id="a_edge11_Node000010_Node000012"><a xlink:title=" ">
<path fill="none" stroke="#9a32cd" stroke-dasharray="5,2" d="M20.25,-130.79C27.98,-103.5 46.16,-55.33 82,-34.57 193.15,29.83 353.94,-11.48 428.16,-36.5"/>
<polygon fill="#9a32cd" stroke="#9a32cd" points="16.79,-130.19 17.63,-140.75 23.56,-131.97 16.79,-130.19"/>
</a>
</g>
<text text-anchor="middle" x="149" y="-37.57" font-family="Helvetica,sans-Serif" font-size="10.00" fill="grey"> elements</text>
</g>
<!-- Node18 -->
<g id="Node000018" class="node">
<title>Node18</title>
<g id="a_Node000018"><a xlink:title=" ">
<polygon fill="white" stroke="#666666" points="208,-160.07 90,-160.07 90,-141.07 208,-141.07 208,-160.07"/>
<text text-anchor="middle" x="149" y="-148.07" font-family="Helvetica,sans-Serif" font-size="10.00">std::unique_ptr&lt; T &gt;</text>
</a>
</g>
</g>
<!-- Node12&#45;&gt;Node18 -->
<g id="edge21_Node000018_Node000012" class="edge">
<title>Node12&#45;&gt;Node18</title>
<g id="a_edge21_Node000018_Node000012"><a xlink:title=" ">
<path fill="none" stroke="#9a32cd" stroke-dasharray="5,2" d="M39.44,-150.57C53.53,-150.57 72.01,-150.57 89.72,-150.57"/>
<polygon fill="#9a32cd" stroke="#9a32cd" points="39.18,-147.07 29.18,-150.57 39.18,-154.07 39.18,-147.07"/>
</a>
</g>
<text text-anchor="middle" x="55.5" y="-153.57" font-family="Helvetica,sans-Serif" font-size="10.00" fill="grey"> ptr</text>
</g>
<!-- Node19 -->
<g id="Node000019" class="node">
<title>Node19</title>
<g id="a_Node000019"><a xlink:title=" ">
<polygon fill="white" stroke="#666666" points="359.5,-237.07 241.5,-237.07 241.5,-218.07 359.5,-218.07 359.5,-237.07"/>
<text text-anchor="middle" x="300.5" y="-225.07" font-family="Helvetica,sans-Serif" font-size="10.00">std::shared_ptr&lt; T &gt;</text>
</a>
</g>
</g>
<!-- Node12&#45;&gt;Node19 -->
<g id="edge23_Node000019_Node000012" class="edge">
<title>Node12&#45;&gt;Node19</title>
<g id="a_edge23_Node000019_Node000012"><a xlink:title=" ">
<path fill="none" stroke="#9a32cd" stroke-dasharray="5,2" d="M27.43,-168.67C39.18,-184.74 58.71,-207.24 82,-217.57 132.45,-239.95 196.1,-240.05 241.48,-236.01"/>
<polygon fill="#9a32cd" stroke="#9a32cd" points="30.04,-166.29 21.45,-160.09 24.3,-170.29 30.04,-166.29"/>
</a>
</g>
<text text-anchor="middle" x="55.5" y="-208.57" font-family="Helvetica,sans-Serif" font-size="10.00" fill="grey"> ptr</text>
</g>
<!-- Node13&#45;&gt;Node5 -->
<g id="edge12_Node000005_Node000013" class="edge">
<title>Node13&#45;&gt;Node5</title>
<g id="a_edge12_Node000005_Node000013"><a xlink:title=" ">
<path fill="none" stroke="#9a32cd" stroke-dasharray="5,2" d="M1340.63,-111.57C1375.66,-111.57 1421.06,-111.57 1458.56,-111.57"/>
<polygon fill="#9a32cd" stroke="#9a32cd" points="1340.58,-108.07 1330.58,-111.57 1340.58,-115.07 1340.58,-108.07"/>
</a>
</g>
<text text-anchor="middle" x="1413.5" y="-158.57" font-family="Helvetica,sans-Serif" font-size="10.00" fill="grey"> conv_term</text>
<text text-anchor="middle" x="1413.5" y="-147.57" font-family="Helvetica,sans-Serif" font-size="10.00" fill="grey">diff_term</text>
<text text-anchor="middle" x="1413.5" y="-136.57" font-family="Helvetica,sans-Serif" font-size="10.00" fill="grey">field</text>
<text text-anchor="middle" x="1413.5" y="-125.57" font-family="Helvetica,sans-Serif" font-size="10.00" fill="grey">mueff</text>
<text text-anchor="middle" x="1413.5" y="-114.57" font-family="Helvetica,sans-Serif" font-size="10.00" fill="grey">src_term</text>
</g>
<!-- Node14 -->
<g id="Node000014" class="node">
<title>Node14</title>
<g id="a_Node000014"><a xlink:title=" ">
<polygon fill="white" stroke="#666666" points="1063,-169.57 943,-169.57 943,-139.57 1063,-139.57 1063,-169.57"/>
<text text-anchor="start" x="951" y="-157.57" font-family="Helvetica,sans-Serif" font-size="10.00">std::shared_ptr&lt; amr</text>
<text text-anchor="middle" x="1003" y="-146.57" font-family="Helvetica,sans-Serif" font-size="10.00">_wind::FieldInfo &gt;</text>
</a>
</g>
</g>
<!-- Node14&#45;&gt;Node13 -->
<g id="edge15_Node000013_Node000014" class="edge">
<title>Node14&#45;&gt;Node13</title>
<g id="a_edge15_Node000013_Node000014"><a xlink:title=" ">
<path fill="none" stroke="#9a32cd" stroke-dasharray="5,2" d="M1073.01,-143.91C1123.96,-136.05 1191.89,-125.56 1236.39,-118.69"/>
<polygon fill="#9a32cd" stroke="#9a32cd" points="1072.41,-140.47 1063.06,-145.45 1073.48,-147.38 1072.41,-140.47"/>
</a>
</g>
<text text-anchor="middle" x="1131" y="-144.57" font-family="Helvetica,sans-Serif" font-size="10.00" fill="grey"> m_info</text>
</g>
<!-- Node15&#45;&gt;Node14 -->
<g id="edge16_Node000014_Node000015" class="edge">
<title>Node15&#45;&gt;Node14</title>
<g id="a_edge16_Node000014_Node000015"><a xlink:title=" ">
<path fill="none" stroke="#9a32cd" stroke-dasharray="5,2" d="M840.07,-154.57C872.54,-154.57 911.34,-154.57 942.82,-154.57"/>
<polygon fill="#9a32cd" stroke="#9a32cd" points="839.78,-151.07 829.78,-154.57 839.78,-158.07 839.78,-151.07"/>
</a>
</g>
<text text-anchor="middle" x="888.5" y="-157.57" font-family="Helvetica,sans-Serif" font-size="10.00" fill="grey"> ptr</text>
</g>
<!-- Node16 -->
<g id="Node000016" class="node">
<title>Node16</title>
<g id="a_Node000016"><a xlink:title=" ">
<polygon fill="white" stroke="#666666" points="554,-193.57 385,-193.57 385,-163.57 554,-163.57 554,-193.57"/>
<text text-anchor="start" x="393" y="-181.57" font-family="Helvetica,sans-Serif" font-size="10.00">std::unique_ptr&lt; amr</text>
<text text-anchor="middle" x="469.5" y="-170.57" font-family="Helvetica,sans-Serif" font-size="10.00">_wind::FieldFillPatchOpsBase &gt;</text>
</a>
</g>
</g>
<!-- Node16&#45;&gt;Node15 -->
<g id="edge18_Node000015_Node000016" class="edge">
<title>Node16&#45;&gt;Node15</title>
<g id="a_edge18_Node000015_Node000016"><a xlink:title=" ">
<path fill="none" stroke="#9a32cd" stroke-dasharray="5,2" d="M564.25,-171.11C614.15,-167.14 673.81,-162.39 716.37,-159"/>
<polygon fill="#9a32cd" stroke="#9a32cd" points="563.77,-167.63 554.08,-171.92 564.33,-174.61 563.77,-167.63"/>
</a>
</g>
<text text-anchor="middle" x="633" y="-172.57" font-family="Helvetica,sans-Serif" font-size="10.00" fill="grey"> m_fillpatch_op</text>
</g>
<!-- Node17 -->
<g id="Node000017" class="node">
<title>Node17</title>
<g id="a_Node000017"><a xlink:href="classamr__wind_1_1_field_fill_patch_ops_base.html" target="_top" xlink:title=" ">
<polygon fill="white" stroke="#666666" points="216,-208.57 82,-208.57 82,-178.57 216,-178.57 216,-208.57"/>
<text text-anchor="start" x="90" y="-196.57" font-family="Helvetica,sans-Serif" font-size="10.00">amr_wind::FieldFillPatch</text>
<text text-anchor="middle" x="149" y="-185.57" font-family="Helvetica,sans-Serif" font-size="10.00">OpsBase</text>
</a>
</g>
</g>
<!-- Node17&#45;&gt;Node16 -->
<g id="edge19_Node000016_Node000017" class="edge">
<title>Node17&#45;&gt;Node16</title>
<g id="a_edge19_Node000016_Node000017"><a xlink:title=" ">
<path fill="none" stroke="#9a32cd" stroke-dasharray="5,2" d="M226.66,-189.96C274.42,-187.71 335.87,-184.82 384.88,-182.51"/>
<polygon fill="#9a32cd" stroke="#9a32cd" points="226.2,-186.48 216.38,-190.44 226.53,-193.47 226.2,-186.48"/>
</a>
</g>
<text text-anchor="middle" x="300.5" y="-191.57" font-family="Helvetica,sans-Serif" font-size="10.00" fill="grey"> ptr</text>
</g>
<!-- Node18&#45;&gt;Node16 -->
<g id="edge20_Node000016_Node000018" class="edge">
<title>Node18&#45;&gt;Node16</title>
<g id="a_edge20_Node000016_Node000018"><a xlink:title=" ">
<path fill="none" stroke="orange" stroke-dasharray="5,2" d="M218.28,-149.22C261.13,-149.17 317.47,-150.57 367,-156.57 380.42,-158.2 394.7,-160.76 408.16,-163.57"/>
<polygon fill="orange" stroke="orange" points="218.23,-145.72 208.24,-149.26 218.25,-152.72 218.23,-145.72"/>
</a>
</g>
<text text-anchor="start" x="234" y="-170.57" font-family="Helvetica,sans-Serif" font-size="10.00" fill="grey"> &lt; amr_wind::FieldFillPatch</text>
<text text-anchor="middle" x="300.5" y="-159.57" font-family="Helvetica,sans-Serif" font-size="10.00" fill="grey">OpsBase &gt;</text>
</g>
<!-- Node19&#45;&gt;Node14 -->
<g id="edge22_Node000014_Node000019" class="edge">
<title>Node19&#45;&gt;Node14</title>
<g id="a_edge22_Node000014_Node000019"><a xlink:title=" ">
<path fill="none" stroke="orange" stroke-dasharray="5,2" d="M369.82,-223.45C484.81,-216.02 724.18,-198.4 925,-169.57 930.8,-168.74 936.82,-167.76 942.83,-166.71"/>
<polygon fill="orange" stroke="orange" points="369.51,-219.96 359.75,-224.1 369.95,-226.95 369.51,-219.96"/>
</a>
</g>
<text text-anchor="middle" x="633" y="-210.57" font-family="Helvetica,sans-Serif" font-size="10.00" fill="grey"> &lt; amr_wind::FieldInfo &gt;</text>
</g>
</g>
</svg>

<g id="navigator" transform="translate(0 0)" fill="#404254">
  <rect fill="#f2f5e9" fill-opacity="0.5" stroke="#606060" stroke-width=".5" x="0" y="0" width="60" height="60"/>
  <use id="zoomplus" xlink:href="#zoomPlus" x="17" y="9" onmousedown="handleZoom(evt,'in')"/>
  <use id="zoomminus" xlink:href="#zoomMin" x="42" y="9" onmousedown="handleZoom(evt,'out')"/>
  <use id="reset" xlink:href="#resetDef" x="30" y="36" onmousedown="handleReset()"/>
   <use id="arrowup" xlink:href="#arrowUp" x="0" y="0" onmousedown="handlePan(0,-1)"/>
  <use id="arrowright" xlink:href="#arrowRight" x="0" y="0" onmousedown="handlePan(1,0)"/>
  <use id="arrowdown" xlink:href="#arrowDown" x="0" y="0" onmousedown="handlePan(0,1)"/>
  <use id="arrowleft" xlink:href="#arrowLeft" x="0" y="0" onmousedown="handlePan(-1,0)"/>
</g>
<svg viewBox="0 0 15 15" width="100%" height="30px" preserveAspectRatio="xMaxYMin meet">
 <g id="arrow_out" transform="scale(0.3 0.3)">
  <a xlink:href="structamr__wind_1_1pde_1_1_turbulence_op_3_01_temperature_01_4__coll__graph_org.svg" target="_base">
   <rect id="button" ry="5" rx="5" y="6" x="6" height="38" width="38"
        fill="#f2f5e9" fill-opacity="0.5" stroke="#606060" stroke-width="1.0"/>
   <path id="arrow"
     d="M 11.500037,31.436501 C 11.940474,20.09759 22.043105,11.32322 32.158766,21.979434 L 37.068811,17.246167 C 37.068811,17.246167 37.088388,32 37.088388,32 L 22.160133,31.978069 C 22.160133,31.978069 26.997745,27.140456 26.997745,27.140456 C 18.528582,18.264221 13.291696,25.230495 11.500037,31.436501 z"
     style="fill:#404040;"/>
  </a>
 </g>
</svg>

<style type='text/css'>
<![CDATA[
[data-mouse-over-selected='false'] { opacity: 0.7; }
[data-mouse-over-selected='true']  { opacity: 1.0; }
]]>
</style>
<script type="application/ecmascript"><![CDATA[
document.addEventListener('DOMContentLoaded', (event) => {
  highlightEdges();
  highlightAdjacentNodes();
});
]]></script>
</svg>
