<?xml version="1.0" encoding="UTF-8" standalone="no"?>
<!DOCTYPE svg PUBLIC "-//W3C//DTD SVG 1.1//EN"
 "http://www.w3.org/Graphics/SVG/1.1/DTD/svg11.dtd">
<!-- Generated by graphviz version 2.43.0 (0)
 -->
<!-- Title: amr_wind::pde::DiffusionOp&lt; PDE, Scheme, std::enable_if_t&lt; std::is_base_of_v&lt; ScalarTransport, PDE &gt; &gt; &gt; Pages: 1 -->
<svg width="2500pt" height="359pt"
 viewBox="0.00 0.00 2500.00 359.00" xmlns="http://www.w3.org/2000/svg" xmlns:xlink="http://www.w3.org/1999/xlink">
<g id="graph0" class="graph" transform="scale(1 1) rotate(0) translate(4 355)">
<title>amr_wind::pde::DiffusionOp&lt; PDE, Scheme, std::enable_if_t&lt; std::is_base_of_v&lt; ScalarTransport, PDE &gt; &gt; &gt;</title>
<!-- Node1 -->
<g id="Node000001" class="node">
<title>Node1</title>
<g id="a_Node000001"><a xlink:title=" ">
<polygon fill="#999999" stroke="#666666" points="2492,-138 2304,-138 2304,-86 2492,-86 2492,-138"/>
<text text-anchor="start" x="2312" y="-126" font-family="Helvetica,sans-Serif" font-size="10.00">amr_wind::pde::Diffusion</text>
<text text-anchor="start" x="2312" y="-115" font-family="Helvetica,sans-Serif" font-size="10.00">Op&lt; PDE, Scheme, std::</text>
<text text-anchor="start" x="2312" y="-104" font-family="Helvetica,sans-Serif" font-size="10.00">enable_if_t&lt; std::is_base</text>
<text text-anchor="middle" x="2398" y="-93" font-family="Helvetica,sans-Serif" font-size="10.00">_of_v&lt; ScalarTransport, PDE &gt; &gt; &gt;</text>
</a>
</g>
</g>
<!-- Node2 -->
<g id="Node000002" class="node">
<title>Node2</title>
<g id="a_Node000002"><a xlink:href="classamr__wind_1_1pde_1_1_diff_solver_iface.html" target="_top" xlink:title=" ">
<polygon fill="white" stroke="#666666" points="2088,-166 1945,-166 1945,-136 2088,-136 2088,-166"/>
<text text-anchor="start" x="1953" y="-154" font-family="Helvetica,sans-Serif" font-size="10.00">amr_wind::pde::DiffSolver</text>
<text text-anchor="middle" x="2016.5" y="-143" font-family="Helvetica,sans-Serif" font-size="10.00">Iface&lt; PDE::MLDiffOp &gt;</text>
</a>
</g>
</g>
<!-- Node2&#45;&gt;Node1 -->
<g id="edge1_Node000001_Node000002" class="edge">
<title>Node2&#45;&gt;Node1</title>
<g id="a_edge1_Node000001_Node000002"><a xlink:title=" ">
<path fill="none" stroke="#63b8ff" d="M2098.3,-150.35C2151.78,-149.04 2223.33,-145.63 2286,-137 2291.87,-136.19 2297.89,-135.23 2303.94,-134.16"/>
<polygon fill="#63b8ff" stroke="#63b8ff" points="2098.11,-146.85 2088.19,-150.58 2098.27,-153.85 2098.11,-146.85"/>
</a>
</g>
</g>
<!-- Node3 -->
<g id="Node000003" class="node">
<title>Node3</title>
<g id="a_Node000003"><a xlink:href="structamr__wind_1_1pde_1_1_p_d_e_fields.html" target="_top" xlink:title=" ">
<polygon fill="white" stroke="#666666" points="1549,-241.5 1406,-241.5 1406,-222.5 1549,-222.5 1549,-241.5"/>
<text text-anchor="middle" x="1477.5" y="-229.5" font-family="Helvetica,sans-Serif" font-size="10.00">amr_wind::pde::PDEFields</text>
</a>
</g>
</g>
<!-- Node3&#45;&gt;Node2 -->
<g id="edge2_Node000002_Node000003" class="edge">
<title>Node3&#45;&gt;Node2</title>
<g id="a_edge2_Node000002_Node000003"><a xlink:title=" ">
<path fill="none" stroke="#9a32cd" stroke-dasharray="5,2" d="M1559.41,-225.79C1583.16,-223.66 1609.16,-221.04 1633,-218 1757.66,-202.1 1788.4,-194.72 1912,-172 1922.64,-170.04 1933.87,-167.87 1944.86,-165.69"/>
<polygon fill="#9a32cd" stroke="#9a32cd" points="1559.03,-222.31 1549.38,-226.67 1559.65,-229.28 1559.03,-222.31"/>
</a>
</g>
<text text-anchor="start" x="1692.5" y="-221.5" font-family="Helvetica,sans-Serif" font-size="10.00" fill="grey">m_pdefields</text>
</g>
<!-- Node20 -->
<g id="Node000020" class="node">
<title>Node20</title>
<g id="a_Node000020"><a xlink:href="classamr__wind_1_1pde_1_1_diff_solver_iface.html" target="_top" xlink:title=" ">
<polygon fill="white" stroke="#666666" points="1794,-166 1651,-166 1651,-136 1794,-136 1794,-166"/>
<text text-anchor="start" x="1659" y="-154" font-family="Helvetica,sans-Serif" font-size="10.00">amr_wind::pde::DiffSolver</text>
<text text-anchor="middle" x="1722.5" y="-143" font-family="Helvetica,sans-Serif" font-size="10.00">Iface&lt; LinOp &gt;</text>
</a>
</g>
</g>
<!-- Node3&#45;&gt;Node20 -->
<g id="edge28_Node000020_Node000003" class="edge">
<title>Node3&#45;&gt;Node20</title>
<g id="a_edge28_Node000020_Node000003"><a xlink:title=" ">
<path fill="none" stroke="#9a32cd" stroke-dasharray="5,2" d="M1514.69,-219.1C1530.69,-213.46 1549.75,-206.81 1567,-201 1602.8,-188.94 1643.45,-175.8 1674.07,-166.03"/>
<polygon fill="#9a32cd" stroke="#9a32cd" points="1513.43,-215.84 1505.16,-222.47 1515.76,-222.44 1513.43,-215.84"/>
</a>
</g>
<text text-anchor="start" x="1570" y="-206.5" font-family="Helvetica,sans-Serif" font-size="10.00" fill="grey">m_pdefields</text>
</g>
<!-- Node4 -->
<g id="Node000004" class="node">
<title>Node4</title>
<g id="a_Node000004"><a xlink:href="classamr__wind_1_1_field_repo.html" target="_top" xlink:title=" ">
<polygon fill="white" stroke="#666666" points="1138.5,-322.5 1019.5,-322.5 1019.5,-303.5 1138.5,-303.5 1138.5,-322.5"/>
<text text-anchor="middle" x="1079" y="-310.5" font-family="Helvetica,sans-Serif" font-size="10.00">amr_wind::FieldRepo</text>
</a>
</g>
</g>
<!-- Node4&#45;&gt;Node3 -->
<g id="edge3_Node000003_Node000004" class="edge">
<title>Node4&#45;&gt;Node3</title>
<g id="a_edge3_Node000003_Node000004"><a xlink:title=" ">
<path fill="none" stroke="#9a32cd" stroke-dasharray="5,2" d="M1138.06,-324.14C1201.7,-333.72 1305.7,-341.55 1388,-310 1424.72,-295.92 1456.14,-259.09 1469.56,-241.55"/>
<polygon fill="#9a32cd" stroke="#9a32cd" points="1138.24,-320.62 1127.82,-322.53 1137.15,-327.54 1138.24,-320.62"/>
</a>
</g>
<text text-anchor="start" x="1254" y="-337.5" font-family="Helvetica,sans-Serif" font-size="10.00" fill="grey">repo</text>
</g>
<!-- Node11 -->
<g id="Node000011" class="node">
<title>Node11</title>
<g id="a_Node000011"><a xlink:href="classamr__wind_1_1_field.html" target="_top" xlink:title=" ">
<polygon fill="white" stroke="#666666" points="1312,-254.5 1218,-254.5 1218,-235.5 1312,-235.5 1312,-254.5"/>
<text text-anchor="middle" x="1265" y="-242.5" font-family="Helvetica,sans-Serif" font-size="10.00">amr_wind::Field</text>
</a>
</g>
</g>
<!-- Node4&#45;&gt;Node11 -->
<g id="edge11_Node000011_Node000004" class="edge">
<title>Node4&#45;&gt;Node11</title>
<g id="a_edge11_Node000011_Node000004"><a xlink:title=" ">
<path fill="none" stroke="#9a32cd" stroke-dasharray="5,2" d="M1116.93,-300.07C1140.71,-291.67 1172.25,-280.39 1200,-270 1213.29,-265.02 1228.06,-259.27 1240.05,-254.54"/>
<polygon fill="#9a32cd" stroke="#9a32cd" points="1115.51,-296.86 1107.25,-303.48 1117.84,-303.46 1115.51,-296.86"/>
</a>
</g>
<text text-anchor="start" x="1160.5" y="-290.5" font-family="Helvetica,sans-Serif" font-size="10.00" fill="grey">m_repo</text>
</g>
<!-- Node5 -->
<g id="Node000005" class="node">
<title>Node5</title>
<g id="a_Node000005"><a xlink:title=" ">
<polygon fill="white" stroke="#666666" points="843,-328 721,-328 721,-298 843,-298 843,-328"/>
<text text-anchor="start" x="729" y="-316" font-family="Helvetica,sans-Serif" font-size="10.00">std::unordered_map</text>
<text text-anchor="middle" x="782" y="-305" font-family="Helvetica,sans-Serif" font-size="10.00">&lt; std::string, size_t &gt;</text>
</a>
</g>
</g>
<!-- Node5&#45;&gt;Node4 -->
<g id="edge4_Node000004_Node000005" class="edge">
<title>Node5&#45;&gt;Node4</title>
<g id="a_edge4_Node000004_Node000005"><a xlink:title=" ">
<path fill="none" stroke="#9a32cd" stroke-dasharray="5,2" d="M853.27,-313C903.92,-313 971.51,-313 1019.29,-313"/>
<polygon fill="#9a32cd" stroke="#9a32cd" points="853.05,-309.5 843.05,-313 853.05,-316.5 853.05,-309.5"/>
</a>
</g>
<text text-anchor="start" x="895" y="-334" font-family="Helvetica,sans-Serif" font-size="10.00" fill="grey">m_fid_map</text>
<text text-anchor="start" x="895" y="-319" font-family="Helvetica,sans-Serif" font-size="10.00" fill="grey">m_int_fid_map</text>
</g>
<!-- Node6 -->
<g id="Node000006" class="node">
<title>Node6</title>
<g id="a_Node000006"><a xlink:title=" ">
<polygon fill="white" stroke="#666666" points="508,-247.5 443,-247.5 443,-228.5 508,-228.5 508,-247.5"/>
<text text-anchor="middle" x="475.5" y="-235.5" font-family="Helvetica,sans-Serif" font-size="10.00">std::string</text>
</a>
</g>
</g>
<!-- Node6&#45;&gt;Node5 -->
<g id="edge5_Node000005_Node000006" class="edge">
<title>Node6&#45;&gt;Node5</title>
<g id="a_edge5_Node000005_Node000006"><a xlink:title=" ">
<path fill="none" stroke="#9a32cd" stroke-dasharray="5,2" d="M510.6,-251.12C530.12,-258.29 555.2,-266.91 578,-273 632.66,-287.59 647.51,-285.98 703,-297 708.83,-298.16 714.9,-299.38 720.97,-300.61"/>
<polygon fill="#9a32cd" stroke="#9a32cd" points="511.81,-247.84 501.22,-247.63 509.37,-254.4 511.81,-247.84"/>
</a>
</g>
<text text-anchor="start" x="629.5" y="-302.5" font-family="Helvetica,sans-Serif" font-size="10.00" fill="grey">keys</text>
</g>
<!-- Node6&#45;&gt;Node11 -->
<g id="edge12_Node000011_Node000006" class="edge">
<title>Node6&#45;&gt;Node11</title>
<g id="a_edge12_Node000011_Node000006"><a xlink:title=" ">
<path fill="none" stroke="#9a32cd" stroke-dasharray="5,2" d="M518.48,-243.07C536.73,-245.03 558.39,-247.04 578,-248 633.49,-250.73 647.44,-248.15 703,-248 894.14,-247.49 1121.91,-246 1217.82,-245.33"/>
<polygon fill="#9a32cd" stroke="#9a32cd" points="518.76,-239.58 508.44,-241.96 517.99,-246.54 518.76,-239.58"/>
</a>
</g>
<text text-anchor="start" x="910" y="-253.5" font-family="Helvetica,sans-Serif" font-size="10.00" fill="grey">m_name</text>
</g>
<!-- Node13 -->
<g id="Node000013" class="node">
<title>Node13</title>
<g id="a_Node000013"><a xlink:href="structamr__wind_1_1_field_info.html" target="_top" xlink:title=" ">
<polygon fill="white" stroke="#666666" points="838.5,-228.5 725.5,-228.5 725.5,-209.5 838.5,-209.5 838.5,-228.5"/>
<text text-anchor="middle" x="782" y="-216.5" font-family="Helvetica,sans-Serif" font-size="10.00">amr_wind::FieldInfo</text>
</a>
</g>
</g>
<!-- Node6&#45;&gt;Node13 -->
<g id="edge15_Node000013_Node000006" class="edge">
<title>Node6&#45;&gt;Node13</title>
<g id="a_edge15_Node000013_Node000006"><a xlink:title=" ">
<path fill="none" stroke="#9a32cd" stroke-dasharray="5,2" d="M518.12,-235.04C536.48,-233.75 558.31,-232.26 578,-231 627.85,-227.81 684.62,-224.48 725.42,-222.14"/>
<polygon fill="#9a32cd" stroke="#9a32cd" points="517.77,-231.55 508.04,-235.74 518.26,-238.54 517.77,-231.55"/>
</a>
</g>
<text text-anchor="start" x="607.5" y="-236.5" font-family="Helvetica,sans-Serif" font-size="10.00" fill="grey">m_basename</text>
</g>
<!-- Node18 -->
<g id="Node000018" class="node">
<title>Node18</title>
<g id="a_Node000018"><a xlink:href="structamr__wind_1_1_m_l_m_g_options.html" target="_top" xlink:title=" ">
<polygon fill="white" stroke="#666666" points="1547,-130.5 1408,-130.5 1408,-111.5 1547,-111.5 1547,-130.5"/>
<text text-anchor="middle" x="1477.5" y="-118.5" font-family="Helvetica,sans-Serif" font-size="10.00">amr_wind::MLMGOptions</text>
</a>
</g>
</g>
<!-- Node6&#45;&gt;Node18 -->
<g id="edge24_Node000018_Node000006" class="edge">
<title>Node6&#45;&gt;Node18</title>
<g id="a_edge24_Node000018_Node000006"><a xlink:title=" ">
<path fill="none" stroke="#9a32cd" stroke-dasharray="5,2" d="M518.08,-231.77C532.29,-228.22 547.69,-222.66 560,-214 571.2,-206.12 566.12,-195.8 578,-189 719.04,-108.3 1222.89,-113.8 1407.81,-118.74"/>
<polygon fill="#9a32cd" stroke="#9a32cd" points="517,-228.43 508.01,-234.02 518.53,-235.26 517,-228.43"/>
</a>
</g>
<text text-anchor="start" x="1023" y="-155.5" font-family="Helvetica,sans-Serif" font-size="10.00" fill="grey">m_bottom_solver_type</text>
<text text-anchor="start" x="1023" y="-140.5" font-family="Helvetica,sans-Serif" font-size="10.00" fill="grey">m_hypre_interface</text>
<text text-anchor="start" x="1023" y="-125.5" font-family="Helvetica,sans-Serif" font-size="10.00" fill="grey">m_hypre_namespace</text>
</g>
<!-- Node7 -->
<g id="Node000007" class="node">
<title>Node7</title>
<g id="a_Node000007"><a xlink:title=" ">
<polygon fill="white" stroke="#666666" points="204,-253 100,-253 100,-223 204,-223 204,-253"/>
<text text-anchor="start" x="108" y="-241" font-family="Helvetica,sans-Serif" font-size="10.00">std::basic_string&lt;</text>
<text text-anchor="middle" x="152" y="-230" font-family="Helvetica,sans-Serif" font-size="10.00"> Char &gt;</text>
</a>
</g>
</g>
<!-- Node7&#45;&gt;Node6 -->
<g id="edge6_Node000006_Node000007" class="edge">
<title>Node7&#45;&gt;Node6</title>
<g id="a_edge6_Node000006_Node000007"><a xlink:title=" ">
<path fill="none" stroke="#63b8ff" d="M214.48,-238C282.65,-238 389.98,-238 442.88,-238"/>
<polygon fill="#63b8ff" stroke="#63b8ff" points="214.3,-234.5 204.3,-238 214.3,-241.5 214.3,-234.5"/>
</a>
</g>
</g>
<!-- Node8 -->
<g id="Node000008" class="node">
<title>Node8</title>
<g id="a_Node000008"><a xlink:title=" ">
<polygon fill="white" stroke="#666666" points="532.5,-349 418.5,-349 418.5,-319 532.5,-319 532.5,-349"/>
<text text-anchor="start" x="426.5" y="-337" font-family="Helvetica,sans-Serif" font-size="10.00">std::unordered_map</text>
<text text-anchor="middle" x="475.5" y="-326" font-family="Helvetica,sans-Serif" font-size="10.00">&lt; K, T &gt;</text>
</a>
</g>
</g>
<!-- Node8&#45;&gt;Node5 -->
<g id="edge7_Node000005_Node000008" class="edge">
<title>Node8&#45;&gt;Node5</title>
<g id="a_edge7_Node000005_Node000008"><a xlink:title=" ">
<path fill="none" stroke="orange" stroke-dasharray="5,2" d="M542.69,-329.43C595.76,-325.78 669.59,-320.68 720.95,-317.14"/>
<polygon fill="orange" stroke="orange" points="542.44,-325.94 532.7,-330.12 542.92,-332.93 542.44,-325.94"/>
</a>
</g>
<text text-anchor="start" x="587.5" y="-331.5" font-family="Helvetica,sans-Serif" font-size="10.00" fill="grey">&lt; std::string, size_t &gt;</text>
</g>
<!-- Node9 -->
<g id="Node000009" class="node">
<title>Node9</title>
<g id="a_Node000009"><a xlink:title=" ">
<polygon fill="white" stroke="#666666" points="166.5,-343.5 137.5,-343.5 137.5,-324.5 166.5,-324.5 166.5,-343.5"/>
<text text-anchor="middle" x="152" y="-331.5" font-family="Helvetica,sans-Serif" font-size="10.00">K</text>
</a>
</g>
</g>
<!-- Node9&#45;&gt;Node8 -->
<g id="edge8_Node000008_Node000009" class="edge">
<title>Node9&#45;&gt;Node8</title>
<g id="a_edge8_Node000008_Node000009"><a xlink:title=" ">
<path fill="none" stroke="#9a32cd" stroke-dasharray="5,2" d="M177.13,-334C228,-334 347.39,-334 418.45,-334"/>
<polygon fill="#9a32cd" stroke="#9a32cd" points="176.81,-330.5 166.81,-334 176.81,-337.5 176.81,-330.5"/>
</a>
</g>
<text text-anchor="start" x="294" y="-339.5" font-family="Helvetica,sans-Serif" font-size="10.00" fill="grey">keys</text>
</g>
<!-- Node10 -->
<g id="Node000010" class="node">
<title>Node10</title>
<g id="a_Node000010"><a xlink:title=" ">
<polygon fill="white" stroke="#666666" points="29,-156.5 0,-156.5 0,-137.5 29,-137.5 29,-156.5"/>
<text text-anchor="middle" x="14.5" y="-144.5" font-family="Helvetica,sans-Serif" font-size="10.00">T</text>
</a>
</g>
</g>
<!-- Node10&#45;&gt;Node8 -->
<g id="edge9_Node000008_Node000010" class="edge">
<title>Node10&#45;&gt;Node8</title>
<g id="a_edge9_Node000008_Node000010"><a xlink:title=" ">
<path fill="none" stroke="#9a32cd" stroke-dasharray="5,2" d="M21.48,-166.15C30.69,-192.25 50.93,-238.44 85,-262 112.11,-280.75 317.13,-311.81 418.34,-326.21"/>
<polygon fill="#9a32cd" stroke="#9a32cd" points="24.79,-164.99 18.3,-156.61 18.15,-167.21 24.79,-164.99"/>
</a>
</g>
<text text-anchor="start" x="129" y="-298.5" font-family="Helvetica,sans-Serif" font-size="10.00" fill="grey">elements</text>
</g>
<!-- Node16 -->
<g id="Node000016" class="node">
<title>Node16</title>
<g id="a_Node000016"><a xlink:title=" ">
<polygon fill="white" stroke="#666666" points="211,-89.5 93,-89.5 93,-70.5 211,-70.5 211,-89.5"/>
<text text-anchor="middle" x="152" y="-77.5" font-family="Helvetica,sans-Serif" font-size="10.00">std::unique_ptr&lt; T &gt;</text>
</a>
</g>
</g>
<!-- Node10&#45;&gt;Node16 -->
<g id="edge19_Node000016_Node000010" class="edge">
<title>Node10&#45;&gt;Node16</title>
<g id="a_edge19_Node000016_Node000010"><a xlink:title=" ">
<path fill="none" stroke="#9a32cd" stroke-dasharray="5,2" d="M26.77,-128.45C32.07,-121.11 39,-113.21 47,-108 60.71,-99.07 77.2,-92.98 92.96,-88.82"/>
<polygon fill="#9a32cd" stroke="#9a32cd" points="23.58,-126.92 20.96,-137.19 29.41,-130.8 23.58,-126.92"/>
</a>
</g>
<text text-anchor="start" x="50" y="-113.5" font-family="Helvetica,sans-Serif" font-size="10.00" fill="grey">ptr</text>
</g>
<!-- Node17 -->
<g id="Node000017" class="node">
<title>Node17</title>
<g id="a_Node000017"><a xlink:title=" ">
<polygon fill="white" stroke="#666666" points="364,-160.5 246,-160.5 246,-141.5 364,-141.5 364,-160.5"/>
<text text-anchor="middle" x="305" y="-148.5" font-family="Helvetica,sans-Serif" font-size="10.00">std::shared_ptr&lt; T &gt;</text>
</a>
</g>
</g>
<!-- Node10&#45;&gt;Node17 -->
<g id="edge21_Node000017_Node000010" class="edge">
<title>Node10&#45;&gt;Node17</title>
<g id="a_edge21_Node000017_Node000010"><a xlink:title=" ">
<path fill="none" stroke="#9a32cd" stroke-dasharray="5,2" d="M39.22,-147.33C84.05,-147.95 182.39,-149.31 245.79,-150.19"/>
<polygon fill="#9a32cd" stroke="#9a32cd" points="39.08,-143.83 29.03,-147.19 38.98,-150.83 39.08,-143.83"/>
</a>
</g>
<text text-anchor="start" x="50" y="-153.5" font-family="Helvetica,sans-Serif" font-size="10.00" fill="grey">ptr</text>
</g>
<!-- Node11&#45;&gt;Node2 -->
<g id="edge22_Node000002_Node000011" class="edge">
<title>Node11&#45;&gt;Node2</title>
<g id="a_edge22_Node000002_Node000011"><a xlink:title=" ">
<path fill="none" stroke="#9a32cd" stroke-dasharray="5,2" d="M1276.91,-263.59C1287.91,-280.32 1306.59,-303.78 1330,-314 1353.63,-324.31 1362.34,-316.41 1388,-314 1625.67,-291.66 1689.63,-282.83 1912,-196 1935.91,-186.66 1962.45,-175.1 1982.67,-166.03"/>
<polygon fill="#9a32cd" stroke="#9a32cd" points="1279.6,-261.3 1271.34,-254.67 1273.67,-265.01 1279.6,-261.3"/>
</a>
</g>
<text text-anchor="start" x="1574" y="-299.5" font-family="Helvetica,sans-Serif" font-size="10.00" fill="grey">m_density</text>
</g>
<!-- Node11&#45;&gt;Node3 -->
<g id="edge10_Node000003_Node000011" class="edge">
<title>Node11&#45;&gt;Node3</title>
<g id="a_edge10_Node000003_Node000011"><a xlink:title=" ">
<path fill="none" stroke="#9a32cd" stroke-dasharray="5,2" d="M1321.31,-234C1324.24,-233.61 1327.15,-233.27 1330,-233 1354.68,-230.62 1381.82,-229.91 1405.95,-229.94"/>
<polygon fill="#9a32cd" stroke="#9a32cd" points="1320.69,-230.55 1311.31,-235.47 1321.71,-237.48 1320.69,-230.55"/>
</a>
</g>
<text text-anchor="start" x="1333" y="-298.5" font-family="Helvetica,sans-Serif" font-size="10.00" fill="grey">conv_term</text>
<text text-anchor="start" x="1333" y="-283.5" font-family="Helvetica,sans-Serif" font-size="10.00" fill="grey">diff_term</text>
<text text-anchor="start" x="1333" y="-268.5" font-family="Helvetica,sans-Serif" font-size="10.00" fill="grey">field</text>
<text text-anchor="start" x="1333" y="-253.5" font-family="Helvetica,sans-Serif" font-size="10.00" fill="grey">mueff</text>
<text text-anchor="start" x="1333" y="-238.5" font-family="Helvetica,sans-Serif" font-size="10.00" fill="grey">src_term</text>
</g>
<!-- Node11&#45;&gt;Node20 -->
<g id="edge29_Node000020_Node000011" class="edge">
<title>Node11&#45;&gt;Node20</title>
<g id="a_edge29_Node000020_Node000011"><a xlink:title=" ">
<path fill="none" stroke="#9a32cd" stroke-dasharray="5,2" d="M1298.17,-231.72C1326.2,-220.64 1368.18,-205.22 1406,-196 1488.92,-175.78 1586.45,-163.59 1650.89,-157.09"/>
<polygon fill="#9a32cd" stroke="#9a32cd" points="1296.85,-228.48 1288.87,-235.44 1299.45,-234.98 1296.85,-228.48"/>
</a>
</g>
<text text-anchor="start" x="1451.5" y="-201.5" font-family="Helvetica,sans-Serif" font-size="10.00" fill="grey">m_density</text>
</g>
<!-- Node12 -->
<g id="Node000012" class="node">
<title>Node12</title>
<g id="a_Node000012"><a xlink:title=" ">
<polygon fill="white" stroke="#666666" points="1139,-234 1019,-234 1019,-204 1139,-204 1139,-234"/>
<text text-anchor="start" x="1027" y="-222" font-family="Helvetica,sans-Serif" font-size="10.00">std::shared_ptr&lt; amr</text>
<text text-anchor="middle" x="1079" y="-211" font-family="Helvetica,sans-Serif" font-size="10.00">_wind::FieldInfo &gt;</text>
</a>
</g>
</g>
<!-- Node12&#45;&gt;Node11 -->
<g id="edge13_Node000011_Node000012" class="edge">
<title>Node12&#45;&gt;Node11</title>
<g id="a_edge13_Node000011_Node000012"><a xlink:title=" ">
<path fill="none" stroke="#9a32cd" stroke-dasharray="5,2" d="M1149.38,-222.01C1166.03,-223.34 1183.71,-225.25 1200,-228 1210.77,-229.82 1222.36,-232.63 1232.68,-235.44"/>
<polygon fill="#9a32cd" stroke="#9a32cd" points="1149.39,-218.5 1139.16,-221.26 1148.88,-225.49 1149.39,-218.5"/>
</a>
</g>
<text text-anchor="start" x="1161.5" y="-233.5" font-family="Helvetica,sans-Serif" font-size="10.00" fill="grey">m_info</text>
</g>
<!-- Node13&#45;&gt;Node12 -->
<g id="edge14_Node000012_Node000013" class="edge">
<title>Node13&#45;&gt;Node12</title>
<g id="a_edge14_Node000012_Node000013"><a xlink:title=" ">
<path fill="none" stroke="#9a32cd" stroke-dasharray="5,2" d="M849.08,-219C899.99,-219 969.76,-219 1018.85,-219"/>
<polygon fill="#9a32cd" stroke="#9a32cd" points="848.83,-215.5 838.83,-219 848.83,-222.5 848.83,-215.5"/>
</a>
</g>
<text text-anchor="start" x="924" y="-224.5" font-family="Helvetica,sans-Serif" font-size="10.00" fill="grey">ptr</text>
</g>
<!-- Node14 -->
<g id="Node000014" class="node">
<title>Node14</title>
<g id="a_Node000014"><a xlink:title=" ">
<polygon fill="white" stroke="#666666" points="560,-205 391,-205 391,-175 560,-175 560,-205"/>
<text text-anchor="start" x="399" y="-193" font-family="Helvetica,sans-Serif" font-size="10.00">std::unique_ptr&lt; amr</text>
<text text-anchor="middle" x="475.5" y="-182" font-family="Helvetica,sans-Serif" font-size="10.00">_wind::FieldFillPatchOpsBase &gt;</text>
</a>
</g>
</g>
<!-- Node14&#45;&gt;Node13 -->
<g id="edge16_Node000013_Node000014" class="edge">
<title>Node14&#45;&gt;Node13</title>
<g id="a_edge16_Node000013_Node000014"><a xlink:title=" ">
<path fill="none" stroke="#9a32cd" stroke-dasharray="5,2" d="M570.36,-192.34C611.23,-194.14 659.61,-197.34 703,-203 715.2,-204.59 728.34,-207.01 740.3,-209.49"/>
<polygon fill="#9a32cd" stroke="#9a32cd" points="570.28,-188.83 560.14,-191.91 569.98,-195.82 570.28,-188.83"/>
</a>
</g>
<text text-anchor="start" x="604.5" y="-208.5" font-family="Helvetica,sans-Serif" font-size="10.00" fill="grey">m_fillpatch_op</text>
</g>
<!-- Node15 -->
<g id="Node000015" class="node">
<title>Node15</title>
<g id="a_Node000015"><a xlink:href="classamr__wind_1_1_field_fill_patch_ops_base.html" target="_top" xlink:title=" ">
<polygon fill="white" stroke="#666666" points="219,-205 85,-205 85,-175 219,-175 219,-205"/>
<text text-anchor="start" x="93" y="-193" font-family="Helvetica,sans-Serif" font-size="10.00">amr_wind::FieldFillPatch</text>
<text text-anchor="middle" x="152" y="-182" font-family="Helvetica,sans-Serif" font-size="10.00">OpsBase</text>
</a>
</g>
</g>
<!-- Node15&#45;&gt;Node14 -->
<g id="edge17_Node000014_Node000015" class="edge">
<title>Node15&#45;&gt;Node14</title>
<g id="a_edge17_Node000014_Node000015"><a xlink:title=" ">
<path fill="none" stroke="#9a32cd" stroke-dasharray="5,2" d="M229.37,-190C277.97,-190 340.94,-190 390.88,-190"/>
<polygon fill="#9a32cd" stroke="#9a32cd" points="229.23,-186.5 219.23,-190 229.23,-193.5 229.23,-186.5"/>
</a>
</g>
<text text-anchor="start" x="298" y="-195.5" font-family="Helvetica,sans-Serif" font-size="10.00" fill="grey">ptr</text>
</g>
<!-- Node16&#45;&gt;Node14 -->
<g id="edge18_Node000014_Node000016" class="edge">
<title>Node16&#45;&gt;Node14</title>
<g id="a_edge18_Node000014_Node000016"><a xlink:title=" ">
<path fill="none" stroke="orange" stroke-dasharray="5,2" d="M221.51,-81.58C275.75,-83.69 346.63,-88.6 373,-100 411.48,-116.63 445.52,-153.65 462.69,-174.66"/>
<polygon fill="orange" stroke="orange" points="221.37,-78.08 211.25,-81.21 221.11,-85.07 221.37,-78.08"/>
</a>
</g>
<text text-anchor="start" x="240" y="-121" font-family="Helvetica,sans-Serif" font-size="10.00" fill="grey">&lt; amr_wind::FieldFillPatch</text>
<text text-anchor="start" x="240" y="-106" font-family="Helvetica,sans-Serif" font-size="10.00" fill="grey">  OpsBase &gt;</text>
</g>
<!-- Node19 -->
<g id="Node000019" class="node">
<title>Node19</title>
<g id="a_Node000019"><a xlink:title=" ">
<polygon fill="white" stroke="#666666" points="700.5,-30 580.5,-30 580.5,0 700.5,0 700.5,-30"/>
<text text-anchor="start" x="588.5" y="-18" font-family="Helvetica,sans-Serif" font-size="10.00">std::unique_ptr&lt; PDE</text>
<text text-anchor="middle" x="640.5" y="-7" font-family="Helvetica,sans-Serif" font-size="10.00">::MLDiffOp &gt;</text>
</a>
</g>
</g>
<!-- Node16&#45;&gt;Node19 -->
<g id="edge26_Node000019_Node000016" class="edge">
<title>Node16&#45;&gt;Node19</title>
<g id="a_edge26_Node000019_Node000016"><a xlink:title=" ">
<path fill="none" stroke="orange" stroke-dasharray="5,2" d="M177.26,-65.38C193.55,-56.36 215.82,-45.48 237,-40 355.95,-9.22 500.98,-8.89 580.42,-11.73"/>
<polygon fill="orange" stroke="orange" points="175.36,-62.44 168.41,-70.43 178.83,-68.52 175.36,-62.44"/>
</a>
</g>
<text text-anchor="start" x="258" y="-45.5" font-family="Helvetica,sans-Serif" font-size="10.00" fill="grey">&lt; PDE::MLDiffOp &gt;</text>
</g>
<!-- Node21 -->
<g id="Node000021" class="node">
<title>Node21</title>
<g id="a_Node000021"><a xlink:title=" ">
<polygon fill="white" stroke="#666666" points="1001,-84.5 861,-84.5 861,-65.5 1001,-65.5 1001,-84.5"/>
<text text-anchor="middle" x="931" y="-72.5" font-family="Helvetica,sans-Serif" font-size="10.00">std::unique_ptr&lt; LinOp &gt;</text>
</a>
</g>
</g>
<!-- Node16&#45;&gt;Node21 -->
<g id="edge32_Node000021_Node000016" class="edge">
<title>Node16&#45;&gt;Node21</title>
<g id="a_edge32_Node000021_Node000016"><a xlink:title=" ">
<path fill="none" stroke="orange" stroke-dasharray="5,2" d="M221.32,-79.56C368.33,-78.61 713.28,-76.39 860.94,-75.44"/>
<polygon fill="orange" stroke="orange" points="221.06,-76.06 211.08,-79.63 221.11,-83.06 221.06,-76.06"/>
</a>
</g>
<text text-anchor="start" x="450.5" y="-84.5" font-family="Helvetica,sans-Serif" font-size="10.00" fill="grey">&lt; LinOp &gt;</text>
</g>
<!-- Node17&#45;&gt;Node12 -->
<g id="edge20_Node000012_Node000017" class="edge">
<title>Node17&#45;&gt;Node12</title>
<g id="a_edge20_Node000012_Node000017"><a xlink:title=" ">
<path fill="none" stroke="orange" stroke-dasharray="5,2" d="M374.61,-153.13C453.84,-155.94 588.02,-161.77 703,-172 814.92,-181.96 944.91,-199.63 1018.71,-210.23"/>
<polygon fill="orange" stroke="orange" points="374.4,-149.62 364.28,-152.77 374.15,-156.62 374.4,-149.62"/>
</a>
</g>
<text text-anchor="start" x="581.5" y="-177.5" font-family="Helvetica,sans-Serif" font-size="10.00" fill="grey">&lt; amr_wind::FieldInfo &gt;</text>
</g>
<!-- Node18&#45;&gt;Node2 -->
<g id="edge23_Node000002_Node000018" class="edge">
<title>Node18&#45;&gt;Node2</title>
<g id="a_edge23_Node000002_Node000018"><a xlink:title=" ">
<path fill="none" stroke="#9a32cd" stroke-dasharray="5,2" d="M1557.47,-114.9C1586.82,-112.92 1620.41,-110.97 1651,-110 1714.52,-107.98 1730.71,-104.19 1794,-110 1847.55,-114.91 1907.47,-126.38 1951.48,-135.94"/>
<polygon fill="#9a32cd" stroke="#9a32cd" points="1557.02,-111.43 1547.28,-115.61 1557.5,-118.41 1557.02,-111.43"/>
</a>
</g>
<text text-anchor="start" x="1696.5" y="-115.5" font-family="Helvetica,sans-Serif" font-size="10.00" fill="grey">m_options</text>
</g>
<!-- Node18&#45;&gt;Node20 -->
<g id="edge30_Node000020_Node000018" class="edge">
<title>Node18&#45;&gt;Node20</title>
<g id="a_edge30_Node000020_Node000018"><a xlink:title=" ">
<path fill="none" stroke="#9a32cd" stroke-dasharray="5,2" d="M1557.32,-127.56C1581.63,-129.88 1608.46,-132.73 1633,-136 1638.72,-136.76 1644.63,-137.62 1650.56,-138.52"/>
<polygon fill="#9a32cd" stroke="#9a32cd" points="1557.35,-124.05 1547.07,-126.6 1556.7,-131.02 1557.35,-124.05"/>
</a>
</g>
<text text-anchor="start" x="1574" y="-141.5" font-family="Helvetica,sans-Serif" font-size="10.00" fill="grey">m_options</text>
</g>
<!-- Node19&#45;&gt;Node2 -->
<g id="edge25_Node000002_Node000019" class="edge">
<title>Node19&#45;&gt;Node2</title>
<g id="a_edge25_Node000002_Node000019"><a xlink:title=" ">
<path fill="none" stroke="#9a32cd" stroke-dasharray="5,2" d="M710.84,-13.5C769.28,-12.36 855.1,-11 930,-11 930,-11 930,-11 1723.5,-11 1780.7,-11 1931.48,-99.47 1990.91,-135.75"/>
<polygon fill="#9a32cd" stroke="#9a32cd" points="710.55,-10 700.62,-13.7 710.69,-17 710.55,-10"/>
</a>
</g>
<text text-anchor="start" x="1241" y="-32" font-family="Helvetica,sans-Serif" font-size="10.00" fill="grey">m_applier</text>
<text text-anchor="start" x="1241" y="-17" font-family="Helvetica,sans-Serif" font-size="10.00" fill="grey">m_solver</text>
</g>
<!-- Node20&#45;&gt;Node2 -->
<g id="edge27_Node000002_Node000020" class="edge">
<title>Node20&#45;&gt;Node2</title>
<g id="a_edge27_Node000002_Node000020"><a xlink:title=" ">
<path fill="none" stroke="orange" stroke-dasharray="5,2" d="M1804.3,-151C1848.43,-151 1902.55,-151 1944.96,-151"/>
<polygon fill="orange" stroke="orange" points="1804.19,-147.5 1794.19,-151 1804.19,-154.5 1804.19,-147.5"/>
</a>
</g>
<text text-anchor="start" x="1815" y="-156.5" font-family="Helvetica,sans-Serif" font-size="10.00" fill="grey">&lt; PDE::MLDiffOp &gt;</text>
</g>
<!-- Node21&#45;&gt;Node20 -->
<g id="edge31_Node000020_Node000021" class="edge">
<title>Node21&#45;&gt;Node20</title>
<g id="a_edge31_Node000020_Node000021"><a xlink:title=" ">
<path fill="none" stroke="#9a32cd" stroke-dasharray="5,2" d="M1011.47,-72.84C1129.52,-70.9 1357.81,-72.03 1549,-102 1587.24,-107.99 1595.96,-113.76 1633,-125 1641.07,-127.45 1642.94,-128.52 1651,-131 1656.35,-132.65 1661.94,-134.32 1667.54,-135.96"/>
<polygon fill="#9a32cd" stroke="#9a32cd" points="1011.37,-69.34 1001.44,-73.02 1011.5,-76.34 1011.37,-69.34"/>
</a>
</g>
<text text-anchor="start" x="1241" y="-100" font-family="Helvetica,sans-Serif" font-size="10.00" fill="grey">m_applier</text>
<text text-anchor="start" x="1241" y="-85" font-family="Helvetica,sans-Serif" font-size="10.00" fill="grey">m_solver</text>
</g>
<!-- Node22 -->
<g id="Node000022" class="node">
<title>Node22</title>
<g id="a_Node000022"><a xlink:href="structamr__wind_1_1pde_1_1_diffusion_op.html" target="_top" xlink:title=" ">
<polygon fill="white" stroke="#666666" points="2103,-89 1930,-89 1930,-59 2103,-59 2103,-89"/>
<text text-anchor="start" x="1938" y="-77" font-family="Helvetica,sans-Serif" font-size="10.00">amr_wind::pde::Diffusion</text>
<text text-anchor="middle" x="2016.5" y="-66" font-family="Helvetica,sans-Serif" font-size="10.00">Op&lt; PDE, Scheme, typename &gt;</text>
</a>
</g>
</g>
<!-- Node22&#45;&gt;Node1 -->
<g id="edge33_Node000001_Node000022" class="edge">
<title>Node22&#45;&gt;Node1</title>
<g id="a_edge33_Node000001_Node000022"><a xlink:title=" ">
<path fill="none" stroke="orange" stroke-dasharray="5,2" d="M2113.15,-67.03C2164.69,-65.11 2229.18,-65.67 2286,-75 2300.63,-77.4 2315.95,-81.44 2330.36,-85.99"/>
<polygon fill="orange" stroke="orange" points="2112.87,-63.54 2103.02,-67.45 2113.16,-70.53 2112.87,-63.54"/>
</a>
</g>
<text text-anchor="start" x="2124.5" y="-126" font-family="Helvetica,sans-Serif" font-size="10.00" fill="grey">&lt; PDE, Scheme, std</text>
<text text-anchor="start" x="2124.5" y="-111" font-family="Helvetica,sans-Serif" font-size="10.00" fill="grey">  ::enable_if_t&lt; std::</text>
<text text-anchor="start" x="2124.5" y="-96" font-family="Helvetica,sans-Serif" font-size="10.00" fill="grey">  is_base_of_v&lt; ScalarTransport,</text>
<text text-anchor="start" x="2124.5" y="-81" font-family="Helvetica,sans-Serif" font-size="10.00" fill="grey">   PDE &gt; &gt; &gt;</text>
</g>
</g>
</svg>
