<?xml version="1.0" encoding="UTF-8" standalone="no"?>
<!DOCTYPE svg PUBLIC "-//W3C//DTD SVG 1.1//EN"
 "http://www.w3.org/Graphics/SVG/1.1/DTD/svg11.dtd">
<!-- Generated by graphviz version 2.43.0 (0)
 -->
<!-- Title: amr_wind::actuator::ActuatorType Pages: 1 -->
<svg width="413pt" height="230pt"
 viewBox="0.00 0.00 413.00 230.00" xmlns="http://www.w3.org/2000/svg" xmlns:xlink="http://www.w3.org/1999/xlink">

<svg id="main" version="1.1" xmlns="http://www.w3.org/2000/svg" xmlns:xlink="http://www.w3.org/1999/xlink" xml:space="preserve">

<style type="text/css"><![CDATA[
.node, .edge {opacity: 0.7;}
.node.selected, .edge.selected {opacity: 1;}
.edge:hover path { stroke: red; }
.edge:hover polygon { stroke: red; fill: red; }
]]></style>
<script type="application/ecmascript" xlink:href="svg.min.js"/>
<svg id="graph" class="graph">
<g id="graph0" class="graph" transform="scale(1 1) rotate(0) translate(4 226)">
<title>amr_wind::actuator::ActuatorType</title>
<!-- Node1 -->
<g id="Node000001" class="node">
<title>Node1</title>
<g id="a_Node000001"><a xlink:title=" ">
<polygon fill="#999999" stroke="#666666" points="111,-126 0,-126 0,-96 111,-96 111,-126"/>
<text text-anchor="start" x="8" y="-114" font-family="Helvetica,sans-Serif" font-size="10.00">amr_wind::actuator</text>
<text text-anchor="middle" x="55.5" y="-103" font-family="Helvetica,sans-Serif" font-size="10.00">::ActuatorType</text>
</a>
</g>
</g>
<!-- Node2 -->
<g id="Node000002" class="node">
<title>Node2</title>
<g id="a_Node000002"><a xlink:href="structamr__wind_1_1actuator_1_1_disk_type.html" target="_top" xlink:title=" ">
<polygon fill="white" stroke="#666666" points="258,-174 147,-174 147,-144 258,-144 258,-174"/>
<text text-anchor="start" x="155" y="-162" font-family="Helvetica,sans-Serif" font-size="10.00">amr_wind::actuator</text>
<text text-anchor="middle" x="202.5" y="-151" font-family="Helvetica,sans-Serif" font-size="10.00">::DiskType</text>
</a>
</g>
</g>
<!-- Node1&#45;&gt;Node2 -->
<g id="edge1_Node000001_Node000002" class="edge">
<title>Node1&#45;&gt;Node2</title>
<g id="a_edge1_Node000001_Node000002"><a xlink:title=" ">
<path fill="none" stroke="#63b8ff" d="M111.5,-129.21C126.25,-134.09 142.02,-139.31 156.18,-144"/>
<polygon fill="#63b8ff" stroke="#63b8ff" points="112.57,-125.88 101.98,-126.06 110.37,-132.52 112.57,-125.88"/>
</a>
</g>
</g>
<!-- Node5 -->
<g id="Node000005" class="node">
<title>Node5</title>
<g id="a_Node000005"><a xlink:href="structamr__wind_1_1actuator_1_1_turbine_type.html" target="_top" xlink:title=" ">
<polygon fill="white" stroke="#666666" points="258,-126 147,-126 147,-96 258,-96 258,-126"/>
<text text-anchor="start" x="155" y="-114" font-family="Helvetica,sans-Serif" font-size="10.00">amr_wind::actuator</text>
<text text-anchor="middle" x="202.5" y="-103" font-family="Helvetica,sans-Serif" font-size="10.00">::TurbineType</text>
</a>
</g>
</g>
<!-- Node1&#45;&gt;Node5 -->
<g id="edge4_Node000001_Node000005" class="edge">
<title>Node1&#45;&gt;Node5</title>
<g id="a_edge4_Node000001_Node000005"><a xlink:title=" ">
<path fill="none" stroke="#63b8ff" d="M121.46,-111C129.86,-111 138.39,-111 146.6,-111"/>
<polygon fill="#63b8ff" stroke="#63b8ff" points="121.32,-107.5 111.32,-111 121.32,-114.5 121.32,-107.5"/>
</a>
</g>
</g>
<!-- Node7 -->
<g id="Node000007" class="node">
<title>Node7</title>
<g id="a_Node000007"><a xlink:href="structamr__wind_1_1actuator_1_1_wing_type.html" target="_top" xlink:title=" ">
<polygon fill="white" stroke="#666666" points="258,-78 147,-78 147,-48 258,-48 258,-78"/>
<text text-anchor="start" x="155" y="-66" font-family="Helvetica,sans-Serif" font-size="10.00">amr_wind::actuator</text>
<text text-anchor="middle" x="202.5" y="-55" font-family="Helvetica,sans-Serif" font-size="10.00">::WingType</text>
</a>
</g>
</g>
<!-- Node1&#45;&gt;Node7 -->
<g id="edge6_Node000001_Node000007" class="edge">
<title>Node1&#45;&gt;Node7</title>
<g id="a_edge6_Node000001_Node000007"><a xlink:title=" ">
<path fill="none" stroke="#63b8ff" d="M111.5,-92.79C126.25,-87.91 142.02,-82.69 156.18,-78"/>
<polygon fill="#63b8ff" stroke="#63b8ff" points="110.37,-89.48 101.98,-95.94 112.57,-96.12 110.37,-89.48"/>
</a>
</g>
</g>
<!-- Node3 -->
<g id="Node000003" class="node">
<title>Node3</title>
<g id="a_Node000003"><a xlink:href="structamr__wind_1_1actuator_1_1_joukowsky.html" target="_top" xlink:title=" ">
<polygon fill="white" stroke="#666666" points="405,-222 294,-222 294,-192 405,-192 405,-222"/>
<text text-anchor="start" x="302" y="-210" font-family="Helvetica,sans-Serif" font-size="10.00">amr_wind::actuator</text>
<text text-anchor="middle" x="349.5" y="-199" font-family="Helvetica,sans-Serif" font-size="10.00">::Joukowsky</text>
</a>
</g>
</g>
<!-- Node2&#45;&gt;Node3 -->
<g id="edge2_Node000002_Node000003" class="edge">
<title>Node2&#45;&gt;Node3</title>
<g id="a_edge2_Node000002_Node000003"><a xlink:title=" ">
<path fill="none" stroke="#63b8ff" d="M258.5,-177.21C273.25,-182.09 289.02,-187.31 303.18,-192"/>
<polygon fill="#63b8ff" stroke="#63b8ff" points="259.57,-173.88 248.98,-174.06 257.37,-180.52 259.57,-173.88"/>
</a>
</g>
</g>
<!-- Node4 -->
<g id="Node000004" class="node">
<title>Node4</title>
<g id="a_Node000004"><a xlink:href="structamr__wind_1_1actuator_1_1_uniform_ct.html" target="_top" xlink:title=" ">
<polygon fill="white" stroke="#666666" points="405,-174 294,-174 294,-144 405,-144 405,-174"/>
<text text-anchor="start" x="302" y="-162" font-family="Helvetica,sans-Serif" font-size="10.00">amr_wind::actuator</text>
<text text-anchor="middle" x="349.5" y="-151" font-family="Helvetica,sans-Serif" font-size="10.00">::UniformCt</text>
</a>
</g>
</g>
<!-- Node2&#45;&gt;Node4 -->
<g id="edge3_Node000002_Node000004" class="edge">
<title>Node2&#45;&gt;Node4</title>
<g id="a_edge3_Node000002_Node000004"><a xlink:title=" ">
<path fill="none" stroke="#63b8ff" d="M268.46,-159C276.86,-159 285.39,-159 293.6,-159"/>
<polygon fill="#63b8ff" stroke="#63b8ff" points="268.32,-155.5 258.32,-159 268.32,-162.5 268.32,-155.5"/>
</a>
</g>
</g>
<!-- Node6 -->
<g id="Node000006" class="node">
<title>Node6</title>
<g id="a_Node000006"><a xlink:href="structamr__wind_1_1actuator_1_1_turbine_fast.html" target="_top" xlink:title=" ">
<polygon fill="white" stroke="#666666" points="405,-126 294,-126 294,-96 405,-96 405,-126"/>
<text text-anchor="start" x="302" y="-114" font-family="Helvetica,sans-Serif" font-size="10.00">amr_wind::actuator</text>
<text text-anchor="middle" x="349.5" y="-103" font-family="Helvetica,sans-Serif" font-size="10.00">::TurbineFast</text>
</a>
</g>
</g>
<!-- Node5&#45;&gt;Node6 -->
<g id="edge5_Node000005_Node000006" class="edge">
<title>Node5&#45;&gt;Node6</title>
<g id="a_edge5_Node000005_Node000006"><a xlink:title=" ">
<path fill="none" stroke="#63b8ff" d="M268.46,-111C276.86,-111 285.39,-111 293.6,-111"/>
<polygon fill="#63b8ff" stroke="#63b8ff" points="268.32,-107.5 258.32,-111 268.32,-114.5 268.32,-107.5"/>
</a>
</g>
</g>
<!-- Node8 -->
<g id="Node000008" class="node">
<title>Node8</title>
<g id="a_Node000008"><a xlink:href="structamr__wind_1_1actuator_1_1_fixed_wing.html" target="_top" xlink:title=" ">
<polygon fill="white" stroke="#666666" points="405,-78 294,-78 294,-48 405,-48 405,-78"/>
<text text-anchor="start" x="302" y="-66" font-family="Helvetica,sans-Serif" font-size="10.00">amr_wind::actuator</text>
<text text-anchor="middle" x="349.5" y="-55" font-family="Helvetica,sans-Serif" font-size="10.00">::FixedWing</text>
</a>
</g>
</g>
<!-- Node7&#45;&gt;Node8 -->
<g id="edge7_Node000007_Node000008" class="edge">
<title>Node7&#45;&gt;Node8</title>
<g id="a_edge7_Node000007_Node000008"><a xlink:title=" ">
<path fill="none" stroke="#63b8ff" d="M268.46,-63C276.86,-63 285.39,-63 293.6,-63"/>
<polygon fill="#63b8ff" stroke="#63b8ff" points="268.32,-59.5 258.32,-63 268.32,-66.5 268.32,-59.5"/>
</a>
</g>
</g>
<!-- Node9 -->
<g id="Node000009" class="node">
<title>Node9</title>
<g id="a_Node000009"><a xlink:href="structamr__wind_1_1actuator_1_1_flat_plate.html" target="_top" xlink:title=" ">
<polygon fill="white" stroke="#666666" points="405,-30 294,-30 294,0 405,0 405,-30"/>
<text text-anchor="start" x="302" y="-18" font-family="Helvetica,sans-Serif" font-size="10.00">amr_wind::actuator</text>
<text text-anchor="middle" x="349.5" y="-7" font-family="Helvetica,sans-Serif" font-size="10.00">::FlatPlate</text>
</a>
</g>
</g>
<!-- Node7&#45;&gt;Node9 -->
<g id="edge8_Node000007_Node000009" class="edge">
<title>Node7&#45;&gt;Node9</title>
<g id="a_edge8_Node000007_Node000009"><a xlink:title=" ">
<path fill="none" stroke="#63b8ff" d="M258.5,-44.79C273.25,-39.91 289.02,-34.69 303.18,-30"/>
<polygon fill="#63b8ff" stroke="#63b8ff" points="257.37,-41.48 248.98,-47.94 259.57,-48.12 257.37,-41.48"/>
</a>
</g>
</g>
</g>
</svg>
</svg>

<style type='text/css'>
<![CDATA[
[data-mouse-over-selected='false'] { opacity: 0.7; }
[data-mouse-over-selected='true']  { opacity: 1.0; }
]]>
</style>
<script type="application/ecmascript"><![CDATA[
document.addEventListener('DOMContentLoaded', (event) => {
  highlightEdges();
  highlightAdjacentNodes();
});
]]></script>
</svg>
