<?xml version="1.0" encoding="UTF-8" standalone="no"?>
<!DOCTYPE svg PUBLIC "-//W3C//DTD SVG 1.1//EN"
 "http://www.w3.org/Graphics/SVG/1.1/DTD/svg11.dtd">
<!-- Generated by graphviz version 2.43.0 (0)
 -->
<!-- Title: amr_wind::pde::FieldRegOp&lt; PDE, Scheme &gt; Pages: 1 -->
<svg width="459pt" height="230pt"
 viewBox="0.00 0.00 459.00 230.00" xmlns="http://www.w3.org/2000/svg" xmlns:xlink="http://www.w3.org/1999/xlink">

<svg id="main" version="1.1" xmlns="http://www.w3.org/2000/svg" xmlns:xlink="http://www.w3.org/1999/xlink" xml:space="preserve">

<style type="text/css"><![CDATA[
.node, .edge {opacity: 0.7;}
.node.selected, .edge.selected {opacity: 1;}
.edge:hover path { stroke: red; }
.edge:hover polygon { stroke: red; fill: red; }
]]></style>
<script type="application/ecmascript" xlink:href="svg.min.js"/>
<svg id="graph" class="graph">
<g id="graph0" class="graph" transform="scale(1 1) rotate(0) translate(4 226)">
<title>amr_wind::pde::FieldRegOp&lt; PDE, Scheme &gt;</title>
<!-- Node1 -->
<g id="Node000001" class="node">
<title>Node1</title>
<g id="a_Node000001"><a xlink:title=" ">
<polygon fill="#999999" stroke="#666666" points="150,-126 0,-126 0,-96 150,-96 150,-126"/>
<text text-anchor="start" x="8" y="-114" font-family="Helvetica,sans-Serif" font-size="10.00">amr_wind::pde::FieldRegOp</text>
<text text-anchor="middle" x="75" y="-103" font-family="Helvetica,sans-Serif" font-size="10.00">&lt; PDE, Scheme &gt;</text>
</a>
</g>
</g>
<!-- Node2 -->
<g id="Node000002" class="node">
<title>Node2</title>
<g id="a_Node000002"><a xlink:href="structamr__wind_1_1pde_1_1_field_reg_op_3_01_i_c_n_s_00_01_scheme_01_4.html" target="_top" xlink:title=" ">
<polygon fill="white" stroke="#666666" points="451,-222 301,-222 301,-192 451,-192 451,-222"/>
<text text-anchor="start" x="309" y="-210" font-family="Helvetica,sans-Serif" font-size="10.00">amr_wind::pde::FieldRegOp</text>
<text text-anchor="middle" x="376" y="-199" font-family="Helvetica,sans-Serif" font-size="10.00">&lt; ICNS, Scheme &gt;</text>
</a>
</g>
</g>
<!-- Node1&#45;&gt;Node2 -->
<g id="edge1_Node000001_Node000002" class="edge">
<title>Node1&#45;&gt;Node2</title>
<g id="a_edge1_Node000001_Node000002"><a xlink:title=" ">
<path fill="none" stroke="orange" stroke-dasharray="5,2" d="M103.37,-132.17C120.92,-144.72 144.72,-159.92 168,-169 210.38,-185.54 260.5,-194.98 300.8,-200.31"/>
<polygon fill="orange" stroke="orange" points="105.41,-129.33 95.28,-126.25 101.28,-134.98 105.41,-129.33"/>
</a>
</g>
<text text-anchor="start" x="180.5" y="-202.5" font-family="Helvetica,sans-Serif" font-size="10.00" fill="grey">&lt; ICNS, Scheme &gt;</text>
</g>
<!-- Node3 -->
<g id="Node000003" class="node">
<title>Node3</title>
<g id="a_Node000003"><a xlink:href="structamr__wind_1_1pde_1_1_field_reg_op_3_01_levelset_00_01_scheme_01_4.html" target="_top" xlink:title=" ">
<polygon fill="white" stroke="#666666" points="451,-174 301,-174 301,-144 451,-144 451,-174"/>
<text text-anchor="start" x="309" y="-162" font-family="Helvetica,sans-Serif" font-size="10.00">amr_wind::pde::FieldRegOp</text>
<text text-anchor="middle" x="376" y="-151" font-family="Helvetica,sans-Serif" font-size="10.00">&lt; Levelset, Scheme &gt;</text>
</a>
</g>
</g>
<!-- Node1&#45;&gt;Node3 -->
<g id="edge2_Node000001_Node000003" class="edge">
<title>Node1&#45;&gt;Node3</title>
<g id="a_edge2_Node000001_Node000003"><a xlink:title=" ">
<path fill="none" stroke="orange" stroke-dasharray="5,2" d="M148.03,-128.12C154.76,-129.52 161.5,-130.84 168,-132 211.88,-139.85 261.38,-146.39 300.97,-151.07"/>
<polygon fill="orange" stroke="orange" points="148.7,-124.69 138.19,-126.04 147.25,-131.54 148.7,-124.69"/>
</a>
</g>
<text text-anchor="start" x="171.5" y="-153.5" font-family="Helvetica,sans-Serif" font-size="10.00" fill="grey">&lt; Levelset, Scheme &gt;</text>
</g>
<!-- Node4 -->
<g id="Node000004" class="node">
<title>Node4</title>
<g id="a_Node000004"><a xlink:href="structamr__wind_1_1pde_1_1_field_reg_op_3_01_s_d_r_00_01_scheme_01_4.html" target="_top" xlink:title=" ">
<polygon fill="white" stroke="#666666" points="451,-126 301,-126 301,-96 451,-96 451,-126"/>
<text text-anchor="start" x="309" y="-114" font-family="Helvetica,sans-Serif" font-size="10.00">amr_wind::pde::FieldRegOp</text>
<text text-anchor="middle" x="376" y="-103" font-family="Helvetica,sans-Serif" font-size="10.00">&lt; SDR, Scheme &gt;</text>
</a>
</g>
</g>
<!-- Node1&#45;&gt;Node4 -->
<g id="edge3_Node000001_Node000004" class="edge">
<title>Node1&#45;&gt;Node4</title>
<g id="a_edge3_Node000001_Node000004"><a xlink:title=" ">
<path fill="none" stroke="orange" stroke-dasharray="5,2" d="M160.44,-111C204.63,-111 258.25,-111 300.83,-111"/>
<polygon fill="orange" stroke="orange" points="160.29,-107.5 150.29,-111 160.29,-114.5 160.29,-107.5"/>
</a>
</g>
<text text-anchor="start" x="181.5" y="-116.5" font-family="Helvetica,sans-Serif" font-size="10.00" fill="grey">&lt; SDR, Scheme &gt;</text>
</g>
<!-- Node5 -->
<g id="Node000005" class="node">
<title>Node5</title>
<g id="a_Node000005"><a xlink:href="structamr__wind_1_1pde_1_1_field_reg_op_3_01_t_k_e_00_01_scheme_01_4.html" target="_top" xlink:title=" ">
<polygon fill="white" stroke="#666666" points="451,-78 301,-78 301,-48 451,-48 451,-78"/>
<text text-anchor="start" x="309" y="-66" font-family="Helvetica,sans-Serif" font-size="10.00">amr_wind::pde::FieldRegOp</text>
<text text-anchor="middle" x="376" y="-55" font-family="Helvetica,sans-Serif" font-size="10.00">&lt; TKE, Scheme &gt;</text>
</a>
</g>
</g>
<!-- Node1&#45;&gt;Node5 -->
<g id="edge4_Node000001_Node000005" class="edge">
<title>Node1&#45;&gt;Node5</title>
<g id="a_edge4_Node000001_Node000005"><a xlink:title=" ">
<path fill="none" stroke="orange" stroke-dasharray="5,2" d="M148.03,-93.88C154.76,-92.48 161.5,-91.16 168,-90 211.88,-82.15 261.38,-75.61 300.97,-70.93"/>
<polygon fill="orange" stroke="orange" points="147.25,-90.46 138.19,-95.96 148.7,-97.31 147.25,-90.46"/>
</a>
</g>
<text text-anchor="start" x="182.5" y="-95.5" font-family="Helvetica,sans-Serif" font-size="10.00" fill="grey">&lt; TKE, Scheme &gt;</text>
</g>
<!-- Node6 -->
<g id="Node000006" class="node">
<title>Node6</title>
<g id="a_Node000006"><a xlink:href="structamr__wind_1_1pde_1_1_field_reg_op_3_01_v_o_f_00_01_scheme_01_4.html" target="_top" xlink:title=" ">
<polygon fill="white" stroke="#666666" points="451,-30 301,-30 301,0 451,0 451,-30"/>
<text text-anchor="start" x="309" y="-18" font-family="Helvetica,sans-Serif" font-size="10.00">amr_wind::pde::FieldRegOp</text>
<text text-anchor="middle" x="376" y="-7" font-family="Helvetica,sans-Serif" font-size="10.00">&lt; VOF, Scheme &gt;</text>
</a>
</g>
</g>
<!-- Node1&#45;&gt;Node6 -->
<g id="edge5_Node000001_Node000006" class="edge">
<title>Node1&#45;&gt;Node6</title>
<g id="a_edge5_Node000001_Node000006"><a xlink:title=" ">
<path fill="none" stroke="orange" stroke-dasharray="5,2" d="M102.61,-89.91C120.21,-77.02 144.32,-61.28 168,-52 210.32,-35.41 260.43,-26.21 300.75,-21.13"/>
<polygon fill="orange" stroke="orange" points="100.43,-87.17 94.53,-95.97 104.63,-92.77 100.43,-87.17"/>
</a>
</g>
<text text-anchor="start" x="181.5" y="-57.5" font-family="Helvetica,sans-Serif" font-size="10.00" fill="grey">&lt; VOF, Scheme &gt;</text>
</g>
</g>
</svg>
</svg>

<style type='text/css'>
<![CDATA[
[data-mouse-over-selected='false'] { opacity: 0.7; }
[data-mouse-over-selected='true']  { opacity: 1.0; }
]]>
</style>
<script type="application/ecmascript"><![CDATA[
document.addEventListener('DOMContentLoaded', (event) => {
  highlightEdges();
  highlightAdjacentNodes();
});
]]></script>
</svg>
