<?xml version="1.0" encoding="UTF-8" standalone="no"?>
<!DOCTYPE svg PUBLIC "-//W3C//DTD SVG 1.1//EN"
 "http://www.w3.org/Graphics/SVG/1.1/DTD/svg11.dtd">
<!-- Generated by graphviz version 2.43.0 (0)
 -->
<!-- Title: exw_fast::FastTurbine Pages: 1 -->
<svg width="547pt" height="215pt"
 viewBox="0.00 0.00 547.00 214.50" xmlns="http://www.w3.org/2000/svg" xmlns:xlink="http://www.w3.org/1999/xlink">
<g id="graph0" class="graph" transform="scale(1 1) rotate(0) translate(4 210.5)">
<title>exw_fast::FastTurbine</title>
<!-- Node1 -->
<g id="Node000001" class="node">
<title>Node1</title>
<g id="a_Node000001"><a xlink:title=" ">
<polygon fill="#999999" stroke="#666666" points="539,-99 417,-99 417,-80 539,-80 539,-99"/>
<text text-anchor="middle" x="478" y="-87" font-family="Helvetica,sans-Serif" font-size="10.00">exw_fast::FastTurbine</text>
</a>
</g>
</g>
<!-- Node2 -->
<g id="Node000002" class="node">
<title>Node2</title>
<g id="a_Node000002"><a xlink:title=" ">
<polygon fill="white" stroke="#666666" points="253.5,-179 188.5,-179 188.5,-160 253.5,-160 253.5,-179"/>
<text text-anchor="middle" x="221" y="-167" font-family="Helvetica,sans-Serif" font-size="10.00">std::string</text>
</a>
</g>
</g>
<!-- Node2&#45;&gt;Node1 -->
<g id="edge1_Node000001_Node000002" class="edge">
<title>Node2&#45;&gt;Node1</title>
<g id="a_edge1_Node000001_Node000002"><a xlink:title=" ">
<path fill="none" stroke="#9a32cd" stroke-dasharray="5,2" d="M264.06,-167.52C300.76,-164.66 354.89,-157.65 399,-140.5 424.94,-130.42 451.23,-110.86 465.7,-99.11"/>
<polygon fill="#9a32cd" stroke="#9a32cd" points="263.46,-164.05 253.73,-168.25 263.95,-171.04 263.46,-164.05"/>
</a>
</g>
<text text-anchor="start" x="322" y="-195" font-family="Helvetica,sans-Serif" font-size="10.00" fill="grey">checkpoint_file</text>
<text text-anchor="start" x="322" y="-180" font-family="Helvetica,sans-Serif" font-size="10.00" fill="grey">input_file</text>
<text text-anchor="start" x="322" y="-165" font-family="Helvetica,sans-Serif" font-size="10.00" fill="grey">tlabel</text>
</g>
<!-- Node3 -->
<g id="Node000003" class="node">
<title>Node3</title>
<g id="a_Node000003"><a xlink:title=" ">
<polygon fill="white" stroke="#666666" points="104,-184.5 0,-184.5 0,-154.5 104,-154.5 104,-184.5"/>
<text text-anchor="start" x="8" y="-172.5" font-family="Helvetica,sans-Serif" font-size="10.00">std::basic_string&lt;</text>
<text text-anchor="middle" x="52" y="-161.5" font-family="Helvetica,sans-Serif" font-size="10.00"> Char &gt;</text>
</a>
</g>
</g>
<!-- Node3&#45;&gt;Node2 -->
<g id="edge2_Node000002_Node000003" class="edge">
<title>Node3&#45;&gt;Node2</title>
<g id="a_edge2_Node000002_Node000003"><a xlink:title=" ">
<path fill="none" stroke="#63b8ff" d="M114.2,-169.5C139.3,-169.5 167.3,-169.5 188.19,-169.5"/>
<polygon fill="#63b8ff" stroke="#63b8ff" points="114.01,-166 104.01,-169.5 114.01,-173 114.01,-166"/>
</a>
</g>
</g>
<!-- Node4 -->
<g id="Node000004" class="node">
<title>Node4</title>
<g id="a_Node000004"><a xlink:href="structexw__fast_1_1_op_f_m___input_type.html" target="_top" xlink:title=" ">
<polygon fill="white" stroke="#666666" points="295,-139 147,-139 147,-120 295,-120 295,-139"/>
<text text-anchor="middle" x="221" y="-127" font-family="Helvetica,sans-Serif" font-size="10.00">exw_fast::OpFM_InputType</text>
</a>
</g>
</g>
<!-- Node4&#45;&gt;Node1 -->
<g id="edge3_Node000001_Node000004" class="edge">
<title>Node4&#45;&gt;Node1</title>
<g id="a_edge3_Node000001_Node000004"><a xlink:title=" ">
<path fill="none" stroke="#9a32cd" stroke-dasharray="5,2" d="M305.34,-120.93C335.01,-117.41 368.59,-112.88 399,-107.5 412.14,-105.17 426.39,-102.06 439.08,-99.08"/>
<polygon fill="#9a32cd" stroke="#9a32cd" points="304.55,-117.5 295.02,-122.14 305.36,-124.46 304.55,-117.5"/>
</a>
</g>
<text text-anchor="start" x="344" y="-125" font-family="Helvetica,sans-Serif" font-size="10.00" fill="grey">to_cfd</text>
</g>
<!-- Node5 -->
<g id="Node000005" class="node">
<title>Node5</title>
<g id="a_Node000005"><a xlink:href="structexw__fast_1_1_op_f_m___output_type.html" target="_top" xlink:title=" ">
<polygon fill="white" stroke="#666666" points="299,-99 143,-99 143,-80 299,-80 299,-99"/>
<text text-anchor="middle" x="221" y="-87" font-family="Helvetica,sans-Serif" font-size="10.00">exw_fast::OpFM_OutputType</text>
</a>
</g>
</g>
<!-- Node5&#45;&gt;Node1 -->
<g id="edge4_Node000001_Node000005" class="edge">
<title>Node5&#45;&gt;Node1</title>
<g id="a_edge4_Node000001_Node000005"><a xlink:title=" ">
<path fill="none" stroke="#9a32cd" stroke-dasharray="5,2" d="M309.51,-89.5C344.82,-89.5 384.68,-89.5 416.66,-89.5"/>
<polygon fill="#9a32cd" stroke="#9a32cd" points="309.2,-86 299.2,-89.5 309.2,-93 309.2,-86"/>
</a>
</g>
<text text-anchor="start" x="337" y="-95" font-family="Helvetica,sans-Serif" font-size="10.00" fill="grey">from_cfd</text>
</g>
<!-- Node6 -->
<g id="Node000006" class="node">
<title>Node6</title>
<g id="a_Node000006"><a xlink:href="structexw__fast_1_1_s_c___d_x___input_type.html" target="_top" xlink:title=" ">
<polygon fill="white" stroke="#666666" points="297,-59 145,-59 145,-40 297,-40 297,-59"/>
<text text-anchor="middle" x="221" y="-47" font-family="Helvetica,sans-Serif" font-size="10.00">exw_fast::SC_DX_InputType</text>
</a>
</g>
</g>
<!-- Node6&#45;&gt;Node1 -->
<g id="edge5_Node000001_Node000006" class="edge">
<title>Node6&#45;&gt;Node1</title>
<g id="a_edge5_Node000001_Node000006"><a xlink:title=" ">
<path fill="none" stroke="#9a32cd" stroke-dasharray="5,2" d="M307.47,-55.96C336.65,-58.88 369.38,-62.96 399,-68.5 414.71,-71.44 431.9,-75.93 446.13,-80"/>
<polygon fill="#9a32cd" stroke="#9a32cd" points="307.6,-52.45 297.31,-54.97 306.92,-59.42 307.6,-52.45"/>
</a>
</g>
<text text-anchor="start" x="346" y="-74" font-family="Helvetica,sans-Serif" font-size="10.00" fill="grey">to_sc</text>
</g>
<!-- Node7 -->
<g id="Node000007" class="node">
<title>Node7</title>
<g id="a_Node000007"><a xlink:href="structexw__fast_1_1_s_c___d_x___output_type.html" target="_top" xlink:title=" ">
<polygon fill="white" stroke="#666666" points="301,-19 141,-19 141,0 301,0 301,-19"/>
<text text-anchor="middle" x="221" y="-7" font-family="Helvetica,sans-Serif" font-size="10.00">exw_fast::SC_DX_OutputType</text>
</a>
</g>
</g>
<!-- Node7&#45;&gt;Node1 -->
<g id="edge6_Node000001_Node000007" class="edge">
<title>Node7&#45;&gt;Node1</title>
<g id="a_edge6_Node000001_Node000007"><a xlink:title=" ">
<path fill="none" stroke="#9a32cd" stroke-dasharray="5,2" d="M311.11,-15.27C339.87,-19.17 371.43,-25.68 399,-36.5 425.52,-46.91 452.02,-67.65 466.28,-79.87"/>
<polygon fill="#9a32cd" stroke="#9a32cd" points="311.42,-11.78 301.06,-13.99 310.54,-18.72 311.42,-11.78"/>
</a>
</g>
<text text-anchor="start" x="339" y="-42" font-family="Helvetica,sans-Serif" font-size="10.00" fill="grey">from_sc</text>
</g>
</g>
</svg>
