<?xml version="1.0" encoding="UTF-8" standalone="no"?>
<!DOCTYPE svg PUBLIC "-//W3C//DTD SVG 1.1//EN"
 "http://www.w3.org/Graphics/SVG/1.1/DTD/svg11.dtd">
<!-- Generated by graphviz version 2.43.0 (0)
 -->
<!-- Title: amr_wind::pde::BCOp&lt; VOF &gt; Pages: 1 -->
<svg width="1678pt" height="261pt"
 viewBox="0.00 0.00 1678.00 260.50" xmlns="http://www.w3.org/2000/svg" xmlns:xlink="http://www.w3.org/1999/xlink">
<g id="graph0" class="graph" transform="scale(1 1) rotate(0) translate(4 256.5)">
<title>amr_wind::pde::BCOp&lt; VOF &gt;</title>
<!-- Node1 -->
<g id="Node000001" class="node">
<title>Node1</title>
<g id="a_Node000001"><a xlink:title=" ">
<polygon fill="#999999" stroke="#666666" points="1670,-48.5 1548,-48.5 1548,-18.5 1670,-18.5 1670,-48.5"/>
<text text-anchor="start" x="1556" y="-36.5" font-family="Helvetica,sans-Serif" font-size="10.00">amr_wind::pde::BCOp</text>
<text text-anchor="middle" x="1609" y="-25.5" font-family="Helvetica,sans-Serif" font-size="10.00">&lt; VOF &gt;</text>
</a>
</g>
</g>
<!-- Node2 -->
<g id="Node000002" class="node">
<title>Node2</title>
<g id="a_Node000002"><a xlink:href="structamr__wind_1_1pde_1_1_p_d_e_fields.html" target="_top" xlink:title=" ">
<polygon fill="white" stroke="#666666" points="1467,-63 1324,-63 1324,-44 1467,-44 1467,-63"/>
<text text-anchor="middle" x="1395.5" y="-51" font-family="Helvetica,sans-Serif" font-size="10.00">amr_wind::pde::PDEFields</text>
</a>
</g>
</g>
<!-- Node2&#45;&gt;Node1 -->
<g id="edge1_Node000001_Node000002" class="edge">
<title>Node2&#45;&gt;Node1</title>
<g id="a_edge1_Node000001_Node000002"><a xlink:title=" ">
<path fill="none" stroke="#9a32cd" stroke-dasharray="5,2" d="M1477.49,-45.84C1500.91,-43.63 1526.05,-41.25 1547.95,-39.18"/>
<polygon fill="#9a32cd" stroke="#9a32cd" points="1476.85,-42.39 1467.22,-46.81 1477.51,-49.36 1476.85,-42.39"/>
</a>
</g>
<text text-anchor="middle" x="1507.5" y="-48.5" font-family="Helvetica,sans-Serif" font-size="10.00" fill="grey"> m_fields</text>
</g>
<!-- Node3 -->
<g id="Node000003" class="node">
<title>Node3</title>
<g id="a_Node000003"><a xlink:href="classamr__wind_1_1_field_repo.html" target="_top" xlink:title=" ">
<polygon fill="white" stroke="#666666" points="1062.5,-52 943.5,-52 943.5,-33 1062.5,-33 1062.5,-52"/>
<text text-anchor="middle" x="1003" y="-40" font-family="Helvetica,sans-Serif" font-size="10.00">amr_wind::FieldRepo</text>
</a>
</g>
</g>
<!-- Node3&#45;&gt;Node2 -->
<g id="edge2_Node000002_Node000003" class="edge">
<title>Node3&#45;&gt;Node2</title>
<g id="a_edge2_Node000002_Node000003"><a xlink:title=" ">
<path fill="none" stroke="#9a32cd" stroke-dasharray="5,2" d="M1073.01,-44.44C1143.59,-46.43 1252.71,-49.51 1323.88,-51.51"/>
<polygon fill="#9a32cd" stroke="#9a32cd" points="1072.98,-40.94 1062.88,-44.16 1072.78,-47.94 1072.98,-40.94"/>
</a>
</g>
<text text-anchor="middle" x="1186" y="-52.5" font-family="Helvetica,sans-Serif" font-size="10.00" fill="grey"> repo</text>
</g>
<!-- Node10 -->
<g id="Node000010" class="node">
<title>Node10</title>
<g id="a_Node000010"><a xlink:href="classamr__wind_1_1_field.html" target="_top" xlink:title=" ">
<polygon fill="white" stroke="#666666" points="1233,-94 1139,-94 1139,-75 1233,-75 1233,-94"/>
<text text-anchor="middle" x="1186" y="-82" font-family="Helvetica,sans-Serif" font-size="10.00">amr_wind::Field</text>
</a>
</g>
</g>
<!-- Node3&#45;&gt;Node10 -->
<g id="edge10_Node000010_Node000003" class="edge">
<title>Node3&#45;&gt;Node10</title>
<g id="a_edge10_Node000010_Node000003"><a xlink:title=" ">
<path fill="none" stroke="#9a32cd" stroke-dasharray="5,2" d="M1055.19,-54.27C1075.66,-58.99 1099.45,-64.49 1121,-69.5 1128.56,-71.26 1136.62,-73.14 1144.38,-74.96"/>
<polygon fill="#9a32cd" stroke="#9a32cd" points="1055.96,-50.86 1045.43,-52.02 1054.39,-57.68 1055.96,-50.86"/>
</a>
</g>
<text text-anchor="middle" x="1101" y="-72.5" font-family="Helvetica,sans-Serif" font-size="10.00" fill="grey"> m_repo</text>
</g>
<!-- Node4 -->
<g id="Node000004" class="node">
<title>Node4</title>
<g id="a_Node000004"><a xlink:title=" ">
<polygon fill="white" stroke="#666666" points="834,-57.5 712,-57.5 712,-27.5 834,-27.5 834,-57.5"/>
<text text-anchor="start" x="720" y="-45.5" font-family="Helvetica,sans-Serif" font-size="10.00">std::unordered_map</text>
<text text-anchor="middle" x="773" y="-34.5" font-family="Helvetica,sans-Serif" font-size="10.00">&lt; std::string, size_t &gt;</text>
</a>
</g>
</g>
<!-- Node4&#45;&gt;Node3 -->
<g id="edge3_Node000003_Node000004" class="edge">
<title>Node4&#45;&gt;Node3</title>
<g id="a_edge3_Node000003_Node000004"><a xlink:title=" ">
<path fill="none" stroke="#9a32cd" stroke-dasharray="5,2" d="M844.32,-42.5C876.09,-42.5 913.2,-42.5 943.43,-42.5"/>
<polygon fill="#9a32cd" stroke="#9a32cd" points="844.2,-39 834.2,-42.5 844.2,-46 844.2,-39"/>
</a>
</g>
<text text-anchor="middle" x="888.5" y="-56.5" font-family="Helvetica,sans-Serif" font-size="10.00" fill="grey"> m_fid_map</text>
<text text-anchor="middle" x="888.5" y="-45.5" font-family="Helvetica,sans-Serif" font-size="10.00" fill="grey">m_int_fid_map</text>
</g>
<!-- Node5 -->
<g id="Node000005" class="node">
<title>Node5</title>
<g id="a_Node000005"><a xlink:title=" ">
<polygon fill="white" stroke="#666666" points="502,-107 437,-107 437,-88 502,-88 502,-107"/>
<text text-anchor="middle" x="469.5" y="-95" font-family="Helvetica,sans-Serif" font-size="10.00">std::string</text>
</a>
</g>
</g>
<!-- Node5&#45;&gt;Node4 -->
<g id="edge4_Node000004_Node000005" class="edge">
<title>Node5&#45;&gt;Node4</title>
<g id="a_edge4_Node000004_Node000005"><a xlink:title=" ">
<path fill="none" stroke="#9a32cd" stroke-dasharray="5,2" d="M510.49,-85.13C529.05,-79.73 551.51,-73.69 572,-69.5 618.51,-59.99 671.82,-52.98 711.7,-48.49"/>
<polygon fill="#9a32cd" stroke="#9a32cd" points="509.49,-81.77 500.89,-87.96 511.47,-88.49 509.49,-81.77"/>
</a>
</g>
<text text-anchor="middle" x="633" y="-72.5" font-family="Helvetica,sans-Serif" font-size="10.00" fill="grey"> keys</text>
</g>
<!-- Node5&#45;&gt;Node10 -->
<g id="edge11_Node000010_Node000005" class="edge">
<title>Node5&#45;&gt;Node10</title>
<g id="a_edge11_Node000010_Node000005"><a xlink:title=" ">
<path fill="none" stroke="#9a32cd" stroke-dasharray="5,2" d="M512.43,-96.74C637.62,-94.46 1008.06,-87.72 1138.73,-85.34"/>
<polygon fill="#9a32cd" stroke="#9a32cd" points="512.06,-93.24 502.12,-96.92 512.19,-100.24 512.06,-93.24"/>
</a>
</g>
<text text-anchor="middle" x="888.5" y="-94.5" font-family="Helvetica,sans-Serif" font-size="10.00" fill="grey"> m_name</text>
</g>
<!-- Node12 -->
<g id="Node000012" class="node">
<title>Node12</title>
<g id="a_Node000012"><a xlink:href="structamr__wind_1_1_field_info.html" target="_top" xlink:title=" ">
<polygon fill="white" stroke="#666666" points="829.5,-209 716.5,-209 716.5,-190 829.5,-190 829.5,-209"/>
<text text-anchor="middle" x="773" y="-197" font-family="Helvetica,sans-Serif" font-size="10.00">amr_wind::FieldInfo</text>
</a>
</g>
</g>
<!-- Node5&#45;&gt;Node12 -->
<g id="edge14_Node000012_Node000005" class="edge">
<title>Node5&#45;&gt;Node12</title>
<g id="a_edge14_Node000012_Node000005"><a xlink:title=" ">
<path fill="none" stroke="#9a32cd" stroke-dasharray="5,2" d="M512.61,-100.36C568.19,-104.64 662.67,-113.82 694,-128.5 725.01,-143.03 752.34,-174.22 764.81,-189.97"/>
<polygon fill="#9a32cd" stroke="#9a32cd" points="512.61,-96.85 502.37,-99.59 512.08,-103.83 512.61,-96.85"/>
</a>
</g>
<text text-anchor="middle" x="633" y="-131.5" font-family="Helvetica,sans-Serif" font-size="10.00" fill="grey"> m_basename</text>
</g>
<!-- Node6 -->
<g id="Node000006" class="node">
<title>Node6</title>
<g id="a_Node000006"><a xlink:title=" ">
<polygon fill="white" stroke="#666666" points="201,-114.5 97,-114.5 97,-84.5 201,-84.5 201,-114.5"/>
<text text-anchor="start" x="105" y="-102.5" font-family="Helvetica,sans-Serif" font-size="10.00">std::basic_string&lt;</text>
<text text-anchor="middle" x="149" y="-91.5" font-family="Helvetica,sans-Serif" font-size="10.00"> Char &gt;</text>
</a>
</g>
</g>
<!-- Node6&#45;&gt;Node5 -->
<g id="edge5_Node000005_Node000006" class="edge">
<title>Node6&#45;&gt;Node5</title>
<g id="a_edge5_Node000005_Node000006"><a xlink:title=" ">
<path fill="none" stroke="#63b8ff" d="M211.24,-99.12C278.64,-98.69 384.37,-98.03 436.81,-97.7"/>
<polygon fill="#63b8ff" stroke="#63b8ff" points="211.15,-95.62 201.17,-99.18 211.19,-102.62 211.15,-95.62"/>
</a>
</g>
</g>
<!-- Node7 -->
<g id="Node000007" class="node">
<title>Node7</title>
<g id="a_Node000007"><a xlink:title=" ">
<polygon fill="white" stroke="#666666" points="526.5,-49.5 412.5,-49.5 412.5,-19.5 526.5,-19.5 526.5,-49.5"/>
<text text-anchor="start" x="420.5" y="-37.5" font-family="Helvetica,sans-Serif" font-size="10.00">std::unordered_map</text>
<text text-anchor="middle" x="469.5" y="-26.5" font-family="Helvetica,sans-Serif" font-size="10.00">&lt; K, T &gt;</text>
</a>
</g>
</g>
<!-- Node7&#45;&gt;Node4 -->
<g id="edge6_Node000004_Node000007" class="edge">
<title>Node7&#45;&gt;Node4</title>
<g id="a_edge6_Node000004_Node000007"><a xlink:title=" ">
<path fill="none" stroke="orange" stroke-dasharray="5,2" d="M536.67,-33.32C581.17,-32.89 641.14,-33.01 694,-35.5 699.84,-35.77 705.92,-36.15 711.99,-36.6"/>
<polygon fill="orange" stroke="orange" points="536.52,-29.82 526.56,-33.43 536.6,-36.82 536.52,-29.82"/>
</a>
</g>
<text text-anchor="middle" x="633" y="-38.5" font-family="Helvetica,sans-Serif" font-size="10.00" fill="grey"> &lt; std::string, size_t &gt;</text>
</g>
<!-- Node8 -->
<g id="Node000008" class="node">
<title>Node8</title>
<g id="a_Node000008"><a xlink:title=" ">
<polygon fill="white" stroke="#666666" points="163.5,-19 134.5,-19 134.5,0 163.5,0 163.5,-19"/>
<text text-anchor="middle" x="149" y="-7" font-family="Helvetica,sans-Serif" font-size="10.00">K</text>
</a>
</g>
</g>
<!-- Node8&#45;&gt;Node7 -->
<g id="edge7_Node000007_Node000008" class="edge">
<title>Node8&#45;&gt;Node7</title>
<g id="a_edge7_Node000007_Node000008"><a xlink:title=" ">
<path fill="none" stroke="#9a32cd" stroke-dasharray="5,2" d="M173.87,-11.37C224.1,-15.32 341.85,-24.56 412.34,-30.09"/>
<polygon fill="#9a32cd" stroke="#9a32cd" points="173.93,-7.87 163.69,-10.57 173.38,-14.85 173.93,-7.87"/>
</a>
</g>
<text text-anchor="middle" x="300.5" y="-29.5" font-family="Helvetica,sans-Serif" font-size="10.00" fill="grey"> keys</text>
</g>
<!-- Node9 -->
<g id="Node000009" class="node">
<title>Node9</title>
<g id="a_Node000009"><a xlink:title=" ">
<polygon fill="white" stroke="#666666" points="29,-164 0,-164 0,-145 29,-145 29,-164"/>
<text text-anchor="middle" x="14.5" y="-152" font-family="Helvetica,sans-Serif" font-size="10.00">T</text>
</a>
</g>
</g>
<!-- Node9&#45;&gt;Node7 -->
<g id="edge8_Node000007_Node000009" class="edge">
<title>Node9&#45;&gt;Node7</title>
<g id="a_edge8_Node000007_Node000009"><a xlink:title=" ">
<path fill="none" stroke="#9a32cd" stroke-dasharray="5,2" d="M23.63,-135.35C33.83,-113.96 53.52,-80.28 82,-64.5 85.57,-62.52 305.69,-46.31 412.1,-38.58"/>
<polygon fill="#9a32cd" stroke="#9a32cd" points="20.32,-134.18 19.38,-144.73 26.69,-137.06 20.32,-134.18"/>
</a>
</g>
<text text-anchor="middle" x="149" y="-67.5" font-family="Helvetica,sans-Serif" font-size="10.00" fill="grey"> elements</text>
</g>
<!-- Node15 -->
<g id="Node000015" class="node">
<title>Node15</title>
<g id="a_Node000015"><a xlink:title=" ">
<polygon fill="white" stroke="#666666" points="208,-202 90,-202 90,-183 208,-183 208,-202"/>
<text text-anchor="middle" x="149" y="-190" font-family="Helvetica,sans-Serif" font-size="10.00">std::unique_ptr&lt; T &gt;</text>
</a>
</g>
</g>
<!-- Node9&#45;&gt;Node15 -->
<g id="edge18_Node000015_Node000009" class="edge">
<title>Node9&#45;&gt;Node15</title>
<g id="a_edge18_Node000015_Node000009"><a xlink:title=" ">
<path fill="none" stroke="#9a32cd" stroke-dasharray="5,2" d="M38.41,-165.27C41.27,-166.44 44.18,-167.55 47,-168.5 63.99,-174.24 83.03,-179.14 99.96,-182.99"/>
<polygon fill="#9a32cd" stroke="#9a32cd" points="39.65,-161.99 29.08,-161.2 36.85,-168.4 39.65,-161.99"/>
</a>
</g>
<text text-anchor="middle" x="55.5" y="-176.5" font-family="Helvetica,sans-Serif" font-size="10.00" fill="grey"> ptr</text>
</g>
<!-- Node16 -->
<g id="Node000016" class="node">
<title>Node16</title>
<g id="a_Node000016"><a xlink:title=" ">
<polygon fill="white" stroke="#666666" points="359.5,-165 241.5,-165 241.5,-146 359.5,-146 359.5,-165"/>
<text text-anchor="middle" x="300.5" y="-153" font-family="Helvetica,sans-Serif" font-size="10.00">std::shared_ptr&lt; T &gt;</text>
</a>
</g>
</g>
<!-- Node9&#45;&gt;Node16 -->
<g id="edge20_Node000016_Node000009" class="edge">
<title>Node9&#45;&gt;Node16</title>
<g id="a_edge20_Node000016_Node000009"><a xlink:title=" ">
<path fill="none" stroke="#9a32cd" stroke-dasharray="5,2" d="M39.45,-153.66C42,-153.59 44.55,-153.54 47,-153.5 54.55,-153.38 56.44,-153.47 64,-153.5 124.51,-153.76 193.77,-154.39 241.43,-154.87"/>
<polygon fill="#9a32cd" stroke="#9a32cd" points="39.19,-150.17 29.3,-153.97 39.4,-157.16 39.19,-150.17"/>
</a>
</g>
<text text-anchor="middle" x="55.5" y="-156.5" font-family="Helvetica,sans-Serif" font-size="10.00" fill="grey"> ptr</text>
</g>
<!-- Node10&#45;&gt;Node2 -->
<g id="edge9_Node000002_Node000010" class="edge">
<title>Node10&#45;&gt;Node2</title>
<g id="a_edge9_Node000002_Node000010"><a xlink:title=" ">
<path fill="none" stroke="#9a32cd" stroke-dasharray="5,2" d="M1243.14,-76.11C1270.24,-72.06 1302.86,-67.19 1330.87,-63.01"/>
<polygon fill="#9a32cd" stroke="#9a32cd" points="1242.42,-72.68 1233.05,-77.62 1243.46,-79.6 1242.42,-72.68"/>
</a>
</g>
<text text-anchor="middle" x="1278.5" y="-121.5" font-family="Helvetica,sans-Serif" font-size="10.00" fill="grey"> conv_term</text>
<text text-anchor="middle" x="1278.5" y="-110.5" font-family="Helvetica,sans-Serif" font-size="10.00" fill="grey">diff_term</text>
<text text-anchor="middle" x="1278.5" y="-99.5" font-family="Helvetica,sans-Serif" font-size="10.00" fill="grey">field</text>
<text text-anchor="middle" x="1278.5" y="-88.5" font-family="Helvetica,sans-Serif" font-size="10.00" fill="grey">mueff</text>
<text text-anchor="middle" x="1278.5" y="-77.5" font-family="Helvetica,sans-Serif" font-size="10.00" fill="grey">src_term</text>
</g>
<!-- Node11 -->
<g id="Node000011" class="node">
<title>Node11</title>
<g id="a_Node000011"><a xlink:title=" ">
<polygon fill="white" stroke="#666666" points="1063,-176.5 943,-176.5 943,-146.5 1063,-146.5 1063,-176.5"/>
<text text-anchor="start" x="951" y="-164.5" font-family="Helvetica,sans-Serif" font-size="10.00">std::shared_ptr&lt; amr</text>
<text text-anchor="middle" x="1003" y="-153.5" font-family="Helvetica,sans-Serif" font-size="10.00">_wind::FieldInfo &gt;</text>
</a>
</g>
</g>
<!-- Node11&#45;&gt;Node10 -->
<g id="edge12_Node000010_Node000011" class="edge">
<title>Node11&#45;&gt;Node10</title>
<g id="a_edge12_Node000010_Node000011"><a xlink:title=" ">
<path fill="none" stroke="#9a32cd" stroke-dasharray="5,2" d="M1048.68,-142.49C1084.85,-127.1 1134.29,-106.07 1162.61,-94.02"/>
<polygon fill="#9a32cd" stroke="#9a32cd" points="1047.16,-139.34 1039.33,-146.47 1049.9,-145.78 1047.16,-139.34"/>
</a>
</g>
<text text-anchor="middle" x="1101" y="-130.5" font-family="Helvetica,sans-Serif" font-size="10.00" fill="grey"> m_info</text>
</g>
<!-- Node12&#45;&gt;Node11 -->
<g id="edge13_Node000011_Node000012" class="edge">
<title>Node12&#45;&gt;Node11</title>
<g id="a_edge13_Node000011_Node000012"><a xlink:title=" ">
<path fill="none" stroke="#9a32cd" stroke-dasharray="5,2" d="M839.53,-188.7C866.06,-184.31 897,-179.18 925,-174.5 930.75,-173.54 936.74,-172.53 942.73,-171.53"/>
<polygon fill="#9a32cd" stroke="#9a32cd" points="838.88,-185.26 829.59,-190.34 840.02,-192.16 838.88,-185.26"/>
</a>
</g>
<text text-anchor="middle" x="888.5" y="-188.5" font-family="Helvetica,sans-Serif" font-size="10.00" fill="grey"> ptr</text>
</g>
<!-- Node13 -->
<g id="Node000013" class="node">
<title>Node13</title>
<g id="a_Node000013"><a xlink:title=" ">
<polygon fill="white" stroke="#666666" points="554,-219.5 385,-219.5 385,-189.5 554,-189.5 554,-219.5"/>
<text text-anchor="start" x="393" y="-207.5" font-family="Helvetica,sans-Serif" font-size="10.00">std::unique_ptr&lt; amr</text>
<text text-anchor="middle" x="469.5" y="-196.5" font-family="Helvetica,sans-Serif" font-size="10.00">_wind::FieldFillPatchOpsBase &gt;</text>
</a>
</g>
</g>
<!-- Node13&#45;&gt;Node12 -->
<g id="edge15_Node000012_Node000013" class="edge">
<title>Node13&#45;&gt;Node12</title>
<g id="a_edge15_Node000012_Node000013"><a xlink:title=" ">
<path fill="none" stroke="#9a32cd" stroke-dasharray="5,2" d="M564.25,-202.95C614.15,-202.12 673.81,-201.13 716.37,-200.42"/>
<polygon fill="#9a32cd" stroke="#9a32cd" points="564.02,-199.45 554.08,-203.11 564.14,-206.45 564.02,-199.45"/>
</a>
</g>
<text text-anchor="middle" x="633" y="-205.5" font-family="Helvetica,sans-Serif" font-size="10.00" fill="grey"> m_fillpatch_op</text>
</g>
<!-- Node14 -->
<g id="Node000014" class="node">
<title>Node14</title>
<g id="a_Node000014"><a xlink:href="classamr__wind_1_1_field_fill_patch_ops_base.html" target="_top" xlink:title=" ">
<polygon fill="white" stroke="#666666" points="216,-252.5 82,-252.5 82,-222.5 216,-222.5 216,-252.5"/>
<text text-anchor="start" x="90" y="-240.5" font-family="Helvetica,sans-Serif" font-size="10.00">amr_wind::FieldFillPatch</text>
<text text-anchor="middle" x="149" y="-229.5" font-family="Helvetica,sans-Serif" font-size="10.00">OpsBase</text>
</a>
</g>
</g>
<!-- Node14&#45;&gt;Node13 -->
<g id="edge16_Node000013_Node000014" class="edge">
<title>Node14&#45;&gt;Node13</title>
<g id="a_edge16_Node000013_Node000014"><a xlink:title=" ">
<path fill="none" stroke="#9a32cd" stroke-dasharray="5,2" d="M226.08,-229.92C267.71,-225.73 320.21,-220.41 367,-215.5 372.82,-214.89 378.82,-214.25 384.87,-213.61"/>
<polygon fill="#9a32cd" stroke="#9a32cd" points="225.61,-226.45 216.01,-230.93 226.31,-233.41 225.61,-226.45"/>
</a>
</g>
<text text-anchor="middle" x="300.5" y="-231.5" font-family="Helvetica,sans-Serif" font-size="10.00" fill="grey"> ptr</text>
</g>
<!-- Node15&#45;&gt;Node13 -->
<g id="edge17_Node000013_Node000015" class="edge">
<title>Node15&#45;&gt;Node13</title>
<g id="a_edge17_Node000013_Node000015"><a xlink:title=" ">
<path fill="none" stroke="orange" stroke-dasharray="5,2" d="M218.09,-191.01C260.88,-190.52 317.2,-190.69 367,-193.5 372.84,-193.83 378.86,-194.26 384.92,-194.75"/>
<polygon fill="orange" stroke="orange" points="218.03,-187.51 208.07,-191.14 218.12,-194.51 218.03,-187.51"/>
</a>
</g>
<text text-anchor="start" x="234" y="-207.5" font-family="Helvetica,sans-Serif" font-size="10.00" fill="grey"> &lt; amr_wind::FieldFillPatch</text>
<text text-anchor="middle" x="300.5" y="-196.5" font-family="Helvetica,sans-Serif" font-size="10.00" fill="grey">OpsBase &gt;</text>
</g>
<!-- Node16&#45;&gt;Node11 -->
<g id="edge19_Node000011_Node000016" class="edge">
<title>Node16&#45;&gt;Node11</title>
<g id="a_edge19_Node000011_Node000016"><a xlink:title=" ">
<path fill="none" stroke="orange" stroke-dasharray="5,2" d="M370.09,-156.09C507.28,-157.26 813.35,-159.88 942.59,-160.99"/>
<polygon fill="orange" stroke="orange" points="369.75,-152.58 359.72,-156 369.69,-159.58 369.75,-152.58"/>
</a>
</g>
<text text-anchor="middle" x="633" y="-161.5" font-family="Helvetica,sans-Serif" font-size="10.00" fill="grey"> &lt; amr_wind::FieldInfo &gt;</text>
</g>
<!-- Node17 -->
<g id="Node000017" class="node">
<title>Node17</title>
<g id="a_Node000017"><a xlink:href="classamr__wind_1_1_sim_time.html" target="_top" xlink:title=" ">
<polygon fill="white" stroke="#666666" points="1452.5,-26 1338.5,-26 1338.5,-7 1452.5,-7 1452.5,-26"/>
<text text-anchor="middle" x="1395.5" y="-14" font-family="Helvetica,sans-Serif" font-size="10.00">amr_wind::SimTime</text>
</a>
</g>
</g>
<!-- Node17&#45;&gt;Node1 -->
<g id="edge21_Node000001_Node000017" class="edge">
<title>Node17&#45;&gt;Node1</title>
<g id="a_edge21_Node000001_Node000017"><a xlink:title=" ">
<path fill="none" stroke="#9a32cd" stroke-dasharray="5,2" d="M1462.82,-15.21C1484.3,-15.4 1508.2,-16.26 1530,-18.5 1535.76,-19.09 1541.73,-19.89 1547.69,-20.82"/>
<polygon fill="#9a32cd" stroke="#9a32cd" points="1462.83,-11.71 1452.81,-15.16 1462.8,-18.71 1462.83,-11.71"/>
</a>
</g>
<text text-anchor="middle" x="1507.5" y="-21.5" font-family="Helvetica,sans-Serif" font-size="10.00" fill="grey"> m_time</text>
</g>
</g>
</svg>
