<?xml version="1.0" encoding="UTF-8" standalone="no"?>
<!DOCTYPE svg PUBLIC "-//W3C//DTD SVG 1.1//EN"
 "http://www.w3.org/Graphics/SVG/1.1/DTD/svg11.dtd">
<!-- Generated by graphviz version 2.43.0 (0)
 -->
<!-- Title: ext_turb::FastSolverData Pages: 1 -->
<svg width="145pt" height="166pt"
 viewBox="0.00 0.00 145.00 166.00" xmlns="http://www.w3.org/2000/svg" xmlns:xlink="http://www.w3.org/1999/xlink">
<g id="graph0" class="graph" transform="scale(1 1) rotate(0) translate(4 162)">
<title>ext_turb::FastSolverData</title>
<!-- Node1 -->
<g id="Node000001" class="node">
<title>Node1</title>
<g id="a_Node000001"><a xlink:title=" ">
<polygon fill="#999999" stroke="#666666" points="137,-19 0,-19 0,0 137,0 137,-19"/>
<text text-anchor="middle" x="68.5" y="-7" font-family="Helvetica,sans-Serif" font-size="10.00">ext_turb::FastSolverData</text>
</a>
</g>
</g>
<!-- Node2 -->
<g id="Node000002" class="node">
<title>Node2</title>
<g id="a_Node000002"><a xlink:title=" ">
<polygon fill="white" stroke="#666666" points="101,-91 36,-91 36,-72 101,-72 101,-91"/>
<text text-anchor="middle" x="68.5" y="-79" font-family="Helvetica,sans-Serif" font-size="10.00">std::string</text>
</a>
</g>
</g>
<!-- Node2&#45;&gt;Node1 -->
<g id="edge1_Node000001_Node000002" class="edge">
<title>Node2&#45;&gt;Node1</title>
<g id="a_edge1_Node000001_Node000002"><a xlink:title=" ">
<path fill="none" stroke="#9a32cd" stroke-dasharray="5,2" d="M68.5,-61.58C68.5,-47.76 68.5,-29.68 68.5,-19.15"/>
<polygon fill="#9a32cd" stroke="#9a32cd" points="65,-61.92 68.5,-71.92 72,-61.92 65,-61.92"/>
</a>
</g>
<text text-anchor="start" x="71.5" y="-42.5" font-family="Helvetica,sans-Serif" font-size="10.00" fill="grey">output_dir</text>
</g>
<!-- Node3 -->
<g id="Node000003" class="node">
<title>Node3</title>
<g id="a_Node000003"><a xlink:title=" ">
<polygon fill="white" stroke="#666666" points="120.5,-158 16.5,-158 16.5,-128 120.5,-128 120.5,-158"/>
<text text-anchor="start" x="24.5" y="-146" font-family="Helvetica,sans-Serif" font-size="10.00">std::basic_string&lt;</text>
<text text-anchor="middle" x="68.5" y="-135" font-family="Helvetica,sans-Serif" font-size="10.00"> Char &gt;</text>
</a>
</g>
</g>
<!-- Node3&#45;&gt;Node2 -->
<g id="edge2_Node000002_Node000003" class="edge">
<title>Node3&#45;&gt;Node2</title>
<g id="a_edge2_Node000002_Node000003"><a xlink:title=" ">
<path fill="none" stroke="#63b8ff" d="M68.5,-117.79C68.5,-108.36 68.5,-98.15 68.5,-91.16"/>
<polygon fill="#63b8ff" stroke="#63b8ff" points="65,-117.9 68.5,-127.9 72,-117.9 65,-117.9"/>
</a>
</g>
</g>
</g>
</svg>
