<?xml version="1.0" encoding="UTF-8" standalone="no"?>
<!DOCTYPE svg PUBLIC "-//W3C//DTD SVG 1.1//EN"
 "http://www.w3.org/Graphics/SVG/1.1/DTD/svg11.dtd">
<!-- Generated by graphviz version 2.43.0 (0)
 -->
<!-- Title: kynema_sgf::pde::AdvectionOp&lt; PDE, fvm::MOL, typename std::enable_if_t&lt; std::is_base_of_v&lt; ScalarTransport, PDE &gt; &gt; &gt; Pages: 1 -->
<!--zoomable 225 -->

<svg id="main" version="1.1" xmlns="http://www.w3.org/2000/svg" xmlns:xlink="http://www.w3.org/1999/xlink" xml:space="preserve" onload="init(evt)">

<style type="text/css"><![CDATA[
.node, .edge {opacity: 0.7;}
.node.selected, .edge.selected {opacity: 1;}
.edge:hover path { stroke: red; }
.edge:hover polygon { stroke: red; fill: red; }
]]></style>

<defs>
  <circle id="rim" cx="0" cy="0" r="7"/>
  <circle id="rim2" cx="0" cy="0" r="3.5"/>
  <g id="zoomPlus">
    <use xlink:href="#rim" fill="#404040"><set attributeName="fill" to="#808080" begin="zoomplus.mouseover" end="zoomplus.mouseout"/></use>
    <path d="M-4,0h8M0,-4v8" fill="none" stroke="white" stroke-width="1.5" pointer-events="none"/>
  </g>
  <g id="zoomMin">
    <use xlink:href="#rim" fill="#404040"><set attributeName="fill" to="#808080" begin="zoomminus.mouseover" end="zoomminus.mouseout"/></use>
    <path d="M-4,0h8" fill="none" stroke="white" stroke-width="1.5" pointer-events="none"/>
  </g>
  <g id="arrowUp" transform="translate(30 24)">
    <use xlink:href="#rim"/>
    <path pointer-events="none" fill="none" stroke="white" stroke-width="1.5" d="M0,-3.0v7 M-2.5,-0.5L0,-3.0L2.5,-0.5"/>
  </g>
  <g id="arrowRight" transform="rotate(90) translate(36 -43)">
    <use xlink:href="#rim"/>
    <path pointer-events="none" fill="none" stroke="white" stroke-width="1.5" d="M0,-3.0v7 M-2.5,-0.5L0,-3.0L2.5,-0.5"/>
  </g>
  <g id="arrowDown" transform="rotate(180) translate(-30 -48)">
    <use xlink:href="#rim"/>
    <path pointer-events="none" fill="none" stroke="white" stroke-width="1.5" d="M0,-3.0v7 M-2.5,-0.5L0,-3.0L2.5,-0.5"/>
  </g>
  <g id="arrowLeft" transform="rotate(270) translate(-36 17)">
    <use xlink:href="#rim"/>
    <path pointer-events="none" fill="none" stroke="white" stroke-width="1.5" d="M0,-3.0v7 M-2.5,-0.5L0,-3.0L2.5,-0.5"/>
  </g>
  <g id="resetDef">
    <use xlink:href="#rim2" fill="#404040"><set attributeName="fill" to="#808080" begin="reset.mouseover" end="reset.mouseout"/></use>
  </g>
</defs>
<script type="application/ecmascript">
var viewWidth = 1686;
var viewHeight = 225;
var sectionId = 'dynsection-1';
</script>
<script type="application/ecmascript" xlink:href="svg.min.js"/>
<svg id="graph" class="graph">
<g id="viewport">
<title>kynema_sgf::pde::AdvectionOp&lt; PDE, fvm::MOL, typename std::enable_if_t&lt; std::is_base_of_v&lt; ScalarTransport, PDE &gt; &gt; &gt;</title>
<!-- Node1 -->
<g id="Node000001" class="node">
<title>Node1</title>
<g id="a_Node000001"><a xlink:title=" ">
<polygon fill="#999999" stroke="#666666" points="1678,-131.5 1508,-131.5 1508,-68.5 1678,-68.5 1678,-131.5"/>
<text text-anchor="start" x="1516" y="-119.5" font-family="Helvetica,sans-Serif" font-size="10.00">kynema_sgf::pde::Advection</text>
<text text-anchor="start" x="1516" y="-108.5" font-family="Helvetica,sans-Serif" font-size="10.00">Op&lt; PDE, fvm::MOL, typename</text>
<text text-anchor="start" x="1516" y="-97.5" font-family="Helvetica,sans-Serif" font-size="10.00"> std::enable_if_t&lt; std::is</text>
<text text-anchor="start" x="1516" y="-86.5" font-family="Helvetica,sans-Serif" font-size="10.00">_base_of_v&lt; ScalarTransport,</text>
<text text-anchor="middle" x="1593" y="-75.5" font-family="Helvetica,sans-Serif" font-size="10.00"> PDE &gt; &gt; &gt;</text>
</a>
</g>
</g>
<!-- Node2 -->
<g id="Node000002" class="node">
<title>Node2</title>
<g id="a_Node000002"><a xlink:href="structkynema__sgf_1_1pde_1_1_p_d_e_fields.html" target="_top" xlink:title=" ">
<polygon fill="white" stroke="#666666" points="1291,-88.5 1138,-88.5 1138,-69.5 1291,-69.5 1291,-88.5"/>
<text text-anchor="middle" x="1214.5" y="-76.5" font-family="Helvetica,sans-Serif" font-size="10.00">kynema_sgf::pde::PDEFields</text>
</a>
</g>
</g>
<!-- Node2&#45;&gt;Node1 -->
<g id="edge1_Node000001_Node000002" class="edge">
<title>Node2&#45;&gt;Node1</title>
<g id="a_edge1_Node000001_Node000002"><a xlink:title=" ">
<path fill="none" stroke="#9a32cd" stroke-dasharray="5,2" d="M1301.37,-83.79C1363.26,-87.24 1446.37,-91.88 1507.86,-95.31"/>
<polygon fill="#9a32cd" stroke="#9a32cd" points="1301.42,-80.29 1291.24,-83.22 1301.03,-87.28 1301.42,-80.29"/>
</a>
</g>
<text text-anchor="start" x="1391.5" y="-99.5" font-family="Helvetica,sans-Serif" font-size="10.00" fill="grey">fields</text>
</g>
<!-- Node3 -->
<g id="Node000003" class="node">
<title>Node3</title>
<g id="a_Node000003"><a xlink:href="classkynema__sgf_1_1_field_repo.html" target="_top" xlink:title=" ">
<polygon fill="white" stroke="#666666" points="845.5,-55.5 716.5,-55.5 716.5,-36.5 845.5,-36.5 845.5,-55.5"/>
<text text-anchor="middle" x="781" y="-43.5" font-family="Helvetica,sans-Serif" font-size="10.00">kynema_sgf::FieldRepo</text>
</a>
</g>
</g>
<!-- Node3&#45;&gt;Node2 -->
<g id="edge2_Node000002_Node000003" class="edge">
<title>Node3&#45;&gt;Node2</title>
<g id="a_edge2_Node000002_Node000003"><a xlink:title=" ">
<path fill="none" stroke="#9a32cd" stroke-dasharray="5,2" d="M855.95,-49.64C922.48,-53.18 1022.88,-59.17 1110,-67 1119.01,-67.81 1128.45,-68.76 1137.8,-69.77"/>
<polygon fill="#9a32cd" stroke="#9a32cd" points="855.74,-46.13 845.57,-49.1 855.37,-53.12 855.74,-46.13"/>
</a>
</g>
<text text-anchor="start" x="971" y="-66.5" font-family="Helvetica,sans-Serif" font-size="10.00" fill="grey">repo</text>
</g>
<!-- Node10 -->
<g id="Node000010" class="node">
<title>Node10</title>
<g id="a_Node000010"><a xlink:href="classkynema__sgf_1_1_field.html" target="_top" xlink:title=" ">
<polygon fill="white" stroke="#666666" points="1034,-140.5 930,-140.5 930,-121.5 1034,-121.5 1034,-140.5"/>
<text text-anchor="middle" x="982" y="-128.5" font-family="Helvetica,sans-Serif" font-size="10.00">kynema_sgf::Field</text>
</a>
</g>
</g>
<!-- Node3&#45;&gt;Node10 -->
<g id="edge10_Node000010_Node000003" class="edge">
<title>Node3&#45;&gt;Node10</title>
<g id="a_edge10_Node000010_Node000003"><a xlink:title=" ">
<path fill="none" stroke="#9a32cd" stroke-dasharray="5,2" d="M813.85,-59.6C854.36,-76.91 923.29,-106.35 958.64,-121.45"/>
<polygon fill="#9a32cd" stroke="#9a32cd" points="815.01,-56.29 804.44,-55.59 812.26,-62.73 815.01,-56.29"/>
</a>
</g>
<text text-anchor="start" x="872.5" y="-107.5" font-family="Helvetica,sans-Serif" font-size="10.00" fill="grey">m_repo</text>
</g>
<!-- Node4 -->
<g id="Node000004" class="node">
<title>Node4</title>
<g id="a_Node000004"><a xlink:title=" ">
<polygon fill="white" stroke="#666666" points="589,-57 467,-57 467,-27 589,-27 589,-57"/>
<text text-anchor="start" x="475" y="-45" font-family="Helvetica,sans-Serif" font-size="10.00">std::unordered_map</text>
<text text-anchor="middle" x="528" y="-34" font-family="Helvetica,sans-Serif" font-size="10.00">&lt; std::string, size_t &gt;</text>
</a>
</g>
</g>
<!-- Node4&#45;&gt;Node3 -->
<g id="edge3_Node000003_Node000004" class="edge">
<title>Node4&#45;&gt;Node3</title>
<g id="a_edge3_Node000003_Node000004"><a xlink:title=" ">
<path fill="none" stroke="#9a32cd" stroke-dasharray="5,2" d="M599.27,-43.12C636.03,-43.71 680.7,-44.42 716.43,-44.99"/>
<polygon fill="#9a32cd" stroke="#9a32cd" points="599.18,-39.62 589.12,-42.96 599.06,-46.62 599.18,-39.62"/>
</a>
</g>
<text text-anchor="start" x="617.5" y="-66" font-family="Helvetica,sans-Serif" font-size="10.00" fill="grey">m_fid_map</text>
<text text-anchor="start" x="617.5" y="-51" font-family="Helvetica,sans-Serif" font-size="10.00" fill="grey">m_int_fid_map</text>
</g>
<!-- Node5 -->
<g id="Node000005" class="node">
<title>Node5</title>
<g id="a_Node000005"><a xlink:title=" ">
<polygon fill="white" stroke="#666666" points="281.5,-147.5 216.5,-147.5 216.5,-128.5 281.5,-128.5 281.5,-147.5"/>
<text text-anchor="middle" x="249" y="-135.5" font-family="Helvetica,sans-Serif" font-size="10.00">std::string</text>
</a>
</g>
</g>
<!-- Node5&#45;&gt;Node4 -->
<g id="edge4_Node000004_Node000005" class="edge">
<title>Node5&#45;&gt;Node4</title>
<g id="a_edge4_Node000004_Node000005"><a xlink:title=" ">
<path fill="none" stroke="#9a32cd" stroke-dasharray="5,2" d="M261.53,-119.94C274.35,-101.6 296.86,-74.09 324,-61 348.39,-49.24 416.14,-44.75 466.7,-43.04"/>
<polygon fill="#9a32cd" stroke="#9a32cd" points="258.56,-118.08 255.89,-128.34 264.37,-121.99 258.56,-118.08"/>
</a>
</g>
<text text-anchor="start" x="372" y="-66.5" font-family="Helvetica,sans-Serif" font-size="10.00" fill="grey">keys</text>
</g>
<!-- Node5&#45;&gt;Node10 -->
<g id="edge11_Node000010_Node000005" class="edge">
<title>Node5&#45;&gt;Node10</title>
<g id="a_edge11_Node000010_Node000005"><a xlink:title=" ">
<path fill="none" stroke="#9a32cd" stroke-dasharray="5,2" d="M286.26,-150.45C298.14,-153.94 311.5,-157.26 324,-159 375.94,-166.23 389.56,-159.26 442,-159 623.78,-158.11 669.29,-160.35 851,-155 878.13,-154.2 885.26,-156.65 912,-152 926.56,-149.47 942.35,-144.81 955.16,-140.52"/>
<polygon fill="#9a32cd" stroke="#9a32cd" points="287.27,-147.1 276.68,-147.5 285.21,-153.79 287.27,-147.1"/>
</a>
</g>
<text text-anchor="start" x="632.5" y="-163.5" font-family="Helvetica,sans-Serif" font-size="10.00" fill="grey">m_name</text>
</g>
<!-- Node12 -->
<g id="Node000012" class="node">
<title>Node12</title>
<g id="a_Node000012"><a xlink:href="structkynema__sgf_1_1_field_info.html" target="_top" xlink:title=" ">
<polygon fill="white" stroke="#666666" points="589.5,-147.5 466.5,-147.5 466.5,-128.5 589.5,-128.5 589.5,-147.5"/>
<text text-anchor="middle" x="528" y="-135.5" font-family="Helvetica,sans-Serif" font-size="10.00">kynema_sgf::FieldInfo</text>
</a>
</g>
</g>
<!-- Node5&#45;&gt;Node12 -->
<g id="edge14_Node000012_Node000005" class="edge">
<title>Node5&#45;&gt;Node12</title>
<g id="a_edge14_Node000012_Node000005"><a xlink:title=" ">
<path fill="none" stroke="#9a32cd" stroke-dasharray="5,2" d="M291.79,-138C338.18,-138 413.44,-138 466.32,-138"/>
<polygon fill="#9a32cd" stroke="#9a32cd" points="291.51,-134.5 281.51,-138 291.51,-141.5 291.51,-134.5"/>
</a>
</g>
<text text-anchor="start" x="350" y="-143.5" font-family="Helvetica,sans-Serif" font-size="10.00" fill="grey">m_basename</text>
</g>
<!-- Node6 -->
<g id="Node000006" class="node">
<title>Node6</title>
<g id="a_Node000006"><a xlink:title=" ">
<polygon fill="white" stroke="#666666" points="104,-153 0,-153 0,-123 104,-123 104,-153"/>
<text text-anchor="start" x="8" y="-141" font-family="Helvetica,sans-Serif" font-size="10.00">std::basic_string&lt;</text>
<text text-anchor="middle" x="52" y="-130" font-family="Helvetica,sans-Serif" font-size="10.00"> Char &gt;</text>
</a>
</g>
</g>
<!-- Node6&#45;&gt;Node5 -->
<g id="edge5_Node000005_Node000006" class="edge">
<title>Node6&#45;&gt;Node5</title>
<g id="a_edge5_Node000005_Node000006"><a xlink:title=" ">
<path fill="none" stroke="#63b8ff" d="M114.49,-138C148.31,-138 188.85,-138 216.31,-138"/>
<polygon fill="#63b8ff" stroke="#63b8ff" points="114.23,-134.5 104.23,-138 114.23,-141.5 114.23,-134.5"/>
</a>
</g>
</g>
<!-- Node7 -->
<g id="Node000007" class="node">
<title>Node7</title>
<g id="a_Node000007"><a xlink:title=" ">
<polygon fill="white" stroke="#666666" points="306,-40 192,-40 192,-10 306,-10 306,-40"/>
<text text-anchor="start" x="200" y="-28" font-family="Helvetica,sans-Serif" font-size="10.00">std::unordered_map</text>
<text text-anchor="middle" x="249" y="-17" font-family="Helvetica,sans-Serif" font-size="10.00">&lt; K, T &gt;</text>
</a>
</g>
</g>
<!-- Node7&#45;&gt;Node4 -->
<g id="edge6_Node000004_Node000007" class="edge">
<title>Node7&#45;&gt;Node4</title>
<g id="a_edge6_Node000004_Node000007"><a xlink:title=" ">
<path fill="none" stroke="orange" stroke-dasharray="5,2" d="M316.19,-22.4C353.26,-21.69 400.3,-22 442,-26 450.07,-26.77 458.52,-27.93 466.83,-29.28"/>
<polygon fill="orange" stroke="orange" points="315.92,-18.91 306,-22.63 316.08,-25.91 315.92,-18.91"/>
</a>
</g>
<text text-anchor="start" x="330" y="-31.5" font-family="Helvetica,sans-Serif" font-size="10.00" fill="grey">&lt; std::string, size_t &gt;</text>
</g>
<!-- Node8 -->
<g id="Node000008" class="node">
<title>Node8</title>
<g id="a_Node000008"><a xlink:title=" ">
<polygon fill="white" stroke="#666666" points="66.5,-26.5 37.5,-26.5 37.5,-7.5 66.5,-7.5 66.5,-26.5"/>
<text text-anchor="middle" x="52" y="-14.5" font-family="Helvetica,sans-Serif" font-size="10.00">K</text>
</a>
</g>
</g>
<!-- Node8&#45;&gt;Node7 -->
<g id="edge7_Node000007_Node000008" class="edge">
<title>Node8&#45;&gt;Node7</title>
<g id="a_edge7_Node000007_Node000008"><a xlink:title=" ">
<path fill="none" stroke="#9a32cd" stroke-dasharray="5,2" d="M76.93,-16.59C101.35,-16.32 140.34,-16.27 174,-18 179.8,-18.3 185.85,-18.71 191.88,-19.18"/>
<polygon fill="#9a32cd" stroke="#9a32cd" points="76.75,-13.09 66.8,-16.73 76.85,-20.09 76.75,-13.09"/>
</a>
</g>
<text text-anchor="start" x="137" y="-23.5" font-family="Helvetica,sans-Serif" font-size="10.00" fill="grey">keys</text>
</g>
<!-- Node9 -->
<g id="Node000009" class="node">
<title>Node9</title>
<g id="a_Node000009"><a xlink:title=" ">
<polygon fill="white" stroke="#666666" points="66.5,-85.5 37.5,-85.5 37.5,-66.5 66.5,-66.5 66.5,-85.5"/>
<text text-anchor="middle" x="52" y="-73.5" font-family="Helvetica,sans-Serif" font-size="10.00">T</text>
</a>
</g>
</g>
<!-- Node9&#45;&gt;Node7 -->
<g id="edge8_Node000007_Node000009" class="edge">
<title>Node9&#45;&gt;Node7</title>
<g id="a_edge8_Node000007_Node000009"><a xlink:title=" ">
<path fill="none" stroke="#9a32cd" stroke-dasharray="5,2" d="M76.52,-69.85C104.87,-62.43 153.46,-49.73 191.69,-39.73"/>
<polygon fill="#9a32cd" stroke="#9a32cd" points="75.5,-66.5 66.71,-72.41 77.27,-73.27 75.5,-66.5"/>
</a>
</g>
<text text-anchor="start" x="125" y="-62.5" font-family="Helvetica,sans-Serif" font-size="10.00" fill="grey">elements</text>
</g>
<!-- Node13 -->
<g id="Node000013" class="node">
<title>Node13</title>
<g id="a_Node000013"><a xlink:title=" ">
<polygon fill="white" stroke="#666666" points="442,-106.5 324,-106.5 324,-87.5 442,-87.5 442,-106.5"/>
<text text-anchor="middle" x="383" y="-94.5" font-family="Helvetica,sans-Serif" font-size="10.00">std::shared_ptr&lt; T &gt;</text>
</a>
</g>
</g>
<!-- Node9&#45;&gt;Node13 -->
<g id="edge16_Node000013_Node000009" class="edge">
<title>Node9&#45;&gt;Node13</title>
<g id="a_edge16_Node000013_Node000009"><a xlink:title=" ">
<path fill="none" stroke="#9a32cd" stroke-dasharray="5,2" d="M76.83,-77.52C128.17,-80.8 250.52,-88.61 323.75,-93.28"/>
<polygon fill="#9a32cd" stroke="#9a32cd" points="76.92,-74.02 66.72,-76.88 76.47,-81.01 76.92,-74.02"/>
</a>
</g>
<text text-anchor="start" x="141" y="-89.5" font-family="Helvetica,sans-Serif" font-size="10.00" fill="grey">ptr</text>
</g>
<!-- Node10&#45;&gt;Node1 -->
<g id="edge17_Node000001_Node000010" class="edge">
<title>Node10&#45;&gt;Node1</title>
<g id="a_edge17_Node000001_Node000010"><a xlink:title=" ">
<path fill="none" stroke="#9a32cd" stroke-dasharray="5,2" d="M1012.21,-144.67C1024.25,-149.6 1038.52,-154.54 1052,-157 1077.36,-161.62 1084.26,-158.42 1110,-157 1250.09,-149.28 1411.84,-127.49 1507.82,-113.2"/>
<polygon fill="#9a32cd" stroke="#9a32cd" points="1013.25,-141.31 1002.68,-140.59 1010.5,-147.75 1013.25,-141.31"/>
</a>
</g>
<text text-anchor="start" x="1196.5" y="-206" font-family="Helvetica,sans-Serif" font-size="10.00" fill="grey">density</text>
<text text-anchor="start" x="1196.5" y="-191" font-family="Helvetica,sans-Serif" font-size="10.00" fill="grey">u_mac</text>
<text text-anchor="start" x="1196.5" y="-176" font-family="Helvetica,sans-Serif" font-size="10.00" fill="grey">v_mac</text>
<text text-anchor="start" x="1196.5" y="-161" font-family="Helvetica,sans-Serif" font-size="10.00" fill="grey">w_mac</text>
</g>
<!-- Node10&#45;&gt;Node2 -->
<g id="edge9_Node000002_Node000010" class="edge">
<title>Node10&#45;&gt;Node2</title>
<g id="a_edge9_Node000002_Node000010"><a xlink:title=" ">
<path fill="none" stroke="#9a32cd" stroke-dasharray="5,2" d="M999.35,-114.17C1012.33,-102.08 1031.63,-86.78 1052,-80 1079.14,-70.97 1110.29,-68.97 1137.94,-69.84"/>
<polygon fill="#9a32cd" stroke="#9a32cd" points="996.87,-111.7 992.13,-121.17 1001.75,-116.72 996.87,-111.7"/>
</a>
</g>
<text text-anchor="start" x="1055" y="-145.5" font-family="Helvetica,sans-Serif" font-size="10.00" fill="grey">conv_term</text>
<text text-anchor="start" x="1055" y="-130.5" font-family="Helvetica,sans-Serif" font-size="10.00" fill="grey">diff_term</text>
<text text-anchor="start" x="1055" y="-115.5" font-family="Helvetica,sans-Serif" font-size="10.00" fill="grey">field</text>
<text text-anchor="start" x="1055" y="-100.5" font-family="Helvetica,sans-Serif" font-size="10.00" fill="grey">mueff</text>
<text text-anchor="start" x="1055" y="-85.5" font-family="Helvetica,sans-Serif" font-size="10.00" fill="grey">src_term</text>
</g>
<!-- Node11 -->
<g id="Node000011" class="node">
<title>Node11</title>
<g id="a_Node000011"><a xlink:title=" ">
<polygon fill="white" stroke="#666666" points="851,-146 711,-146 711,-116 851,-116 851,-146"/>
<text text-anchor="start" x="719" y="-134" font-family="Helvetica,sans-Serif" font-size="10.00">std::shared_ptr&lt; kynema</text>
<text text-anchor="middle" x="781" y="-123" font-family="Helvetica,sans-Serif" font-size="10.00">_sgf::FieldInfo &gt;</text>
</a>
</g>
</g>
<!-- Node11&#45;&gt;Node10 -->
<g id="edge12_Node000010_Node000011" class="edge">
<title>Node11&#45;&gt;Node10</title>
<g id="a_edge12_Node000010_Node000011"><a xlink:title=" ">
<path fill="none" stroke="#9a32cd" stroke-dasharray="5,2" d="M861.21,-131C884.36,-131 909.05,-131 929.97,-131"/>
<polygon fill="#9a32cd" stroke="#9a32cd" points="861.04,-127.5 851.04,-131 861.04,-134.5 861.04,-127.5"/>
</a>
</g>
<text text-anchor="start" x="873.5" y="-136.5" font-family="Helvetica,sans-Serif" font-size="10.00" fill="grey">m_info</text>
</g>
<!-- Node12&#45;&gt;Node11 -->
<g id="edge13_Node000011_Node000012" class="edge">
<title>Node12&#45;&gt;Node11</title>
<g id="a_edge13_Node000011_Node000012"><a xlink:title=" ">
<path fill="none" stroke="#9a32cd" stroke-dasharray="5,2" d="M599.85,-136.02C634.64,-135.05 676.39,-133.89 710.94,-132.93"/>
<polygon fill="#9a32cd" stroke="#9a32cd" points="599.66,-132.53 589.76,-136.31 599.85,-139.53 599.66,-132.53"/>
</a>
</g>
<text text-anchor="start" x="646.5" y="-141.5" font-family="Helvetica,sans-Serif" font-size="10.00" fill="grey">ptr</text>
</g>
<!-- Node13&#45;&gt;Node11 -->
<g id="edge15_Node000011_Node000013" class="edge">
<title>Node13&#45;&gt;Node11</title>
<g id="a_edge15_Node000011_Node000013"><a xlink:title=" ">
<path fill="none" stroke="orange" stroke-dasharray="5,2" d="M452.18,-96.31C493.81,-96.47 548.07,-97.68 596,-102 634.17,-105.44 676.42,-111.91 710.81,-117.87"/>
<polygon fill="orange" stroke="orange" points="452.16,-92.81 442.16,-96.3 452.15,-99.81 452.16,-92.81"/>
</a>
</g>
<text text-anchor="start" x="463" y="-107.5" font-family="Helvetica,sans-Serif" font-size="10.00" fill="grey">&lt; kynema_sgf::FieldInfo &gt;</text>
</g>
<!-- Node14 -->
<g id="Node000014" class="node">
<title>Node14</title>
<g id="a_Node000014"><a xlink:href="structkynema__sgf_1_1pde_1_1_advection_op.html" target="_top" xlink:title=" ">
<polygon fill="white" stroke="#666666" points="1301,-30 1128,-30 1128,0 1301,0 1301,-30"/>
<text text-anchor="start" x="1136" y="-18" font-family="Helvetica,sans-Serif" font-size="10.00">kynema_sgf::pde::Advection</text>
<text text-anchor="middle" x="1214.5" y="-7" font-family="Helvetica,sans-Serif" font-size="10.00">Op&lt; PDE, Scheme, typename &gt;</text>
</a>
</g>
</g>
<!-- Node14&#45;&gt;Node1 -->
<g id="edge18_Node000001_Node000014" class="edge">
<title>Node14&#45;&gt;Node1</title>
<g id="a_edge18_Node000001_Node000014"><a xlink:title=" ">
<path fill="none" stroke="orange" stroke-dasharray="5,2" d="M1311.43,-2.04C1365.4,1.66 1433.15,0.22 1490,-20 1517.78,-29.88 1543.84,-50.59 1562.66,-68.47"/>
<polygon fill="orange" stroke="orange" points="1310.88,1.43 1301.18,-2.82 1311.41,-5.55 1310.88,1.43"/>
</a>
</g>
<text text-anchor="start" x="1322.5" y="-71" font-family="Helvetica,sans-Serif" font-size="10.00" fill="grey">&lt; PDE, fvm::MOL, typename</text>
<text text-anchor="start" x="1322.5" y="-56" font-family="Helvetica,sans-Serif" font-size="10.00" fill="grey">   std::enable_if_t&lt; std</text>
<text text-anchor="start" x="1322.5" y="-41" font-family="Helvetica,sans-Serif" font-size="10.00" fill="grey">  ::is_base_of_v&lt; ScalarTransport,</text>
<text text-anchor="start" x="1322.5" y="-26" font-family="Helvetica,sans-Serif" font-size="10.00" fill="grey">   PDE &gt; &gt; &gt;</text>
</g>
</g>
</svg>

<g id="navigator" transform="translate(0 0)" fill="#404254">
  <rect fill="#f2f5e9" fill-opacity="0.5" stroke="#606060" stroke-width=".5" x="0" y="0" width="60" height="60"/>
  <use id="zoomplus" xlink:href="#zoomPlus" x="17" y="9" onmousedown="handleZoom(evt,'in')"/>
  <use id="zoomminus" xlink:href="#zoomMin" x="42" y="9" onmousedown="handleZoom(evt,'out')"/>
  <use id="reset" xlink:href="#resetDef" x="30" y="36" onmousedown="handleReset()"/>
   <use id="arrowup" xlink:href="#arrowUp" x="0" y="0" onmousedown="handlePan(0,-1)"/>
  <use id="arrowright" xlink:href="#arrowRight" x="0" y="0" onmousedown="handlePan(1,0)"/>
  <use id="arrowdown" xlink:href="#arrowDown" x="0" y="0" onmousedown="handlePan(0,1)"/>
  <use id="arrowleft" xlink:href="#arrowLeft" x="0" y="0" onmousedown="handlePan(-1,0)"/>
</g>
<svg viewBox="0 0 15 15" width="100%" height="30px" preserveAspectRatio="xMaxYMin meet">
 <g id="arrow_out" transform="scale(0.3 0.3)">
  <a xlink:href="structkynema__sgf_1_1pde_1_1_advection_op_3_01_p_d_e_00_01fvm_1_1_m_o_l_00_01typename_01std_1_1e4434018a83d6571b7e7d4959086cad06_org.svg" target="_base">
   <rect id="button" ry="5" rx="5" y="6" x="6" height="38" width="38"
        fill="#f2f5e9" fill-opacity="0.5" stroke="#606060" stroke-width="1.0"/>
   <path id="arrow"
     d="M 11.500037,31.436501 C 11.940474,20.09759 22.043105,11.32322 32.158766,21.979434 L 37.068811,17.246167 C 37.068811,17.246167 37.088388,32 37.088388,32 L 22.160133,31.978069 C 22.160133,31.978069 26.997745,27.140456 26.997745,27.140456 C 18.528582,18.264221 13.291696,25.230495 11.500037,31.436501 z"
     style="fill:#404040;"/>
  </a>
 </g>
</svg>

<style type='text/css'>
<![CDATA[
[data-mouse-over-selected='false'] { opacity: 0.7; }
[data-mouse-over-selected='true']  { opacity: 1.0; }
]]>
</style>
<script type="application/ecmascript"><![CDATA[
document.addEventListener('DOMContentLoaded', (event) => {
  highlightEdges();
  highlightAdjacentNodes();
});
]]></script>
</svg>
