<?xml version="1.0" encoding="UTF-8" standalone="no"?>
<!DOCTYPE svg PUBLIC "-//W3C//DTD SVG 1.1//EN"
 "http://www.w3.org/Graphics/SVG/1.1/DTD/svg11.dtd">
<!-- Generated by graphviz version 2.43.0 (0)
 -->
<!-- Title: amr_wind::pde::SrcTermOpBase&lt; PDE &gt; Pages: 1 -->
<svg width="320pt" height="204pt"
 viewBox="0.00 0.00 320.00 204.00" xmlns="http://www.w3.org/2000/svg" xmlns:xlink="http://www.w3.org/1999/xlink">

<svg id="main" version="1.1" xmlns="http://www.w3.org/2000/svg" xmlns:xlink="http://www.w3.org/1999/xlink" xml:space="preserve">

<style type="text/css"><![CDATA[
.node, .edge {opacity: 0.7;}
.node.selected, .edge.selected {opacity: 1;}
.edge:hover path { stroke: red; }
.edge:hover polygon { stroke: red; fill: red; }
]]></style>
<script type="application/ecmascript" xlink:href="svg.min.js"/>
<svg id="graph" class="graph">
<g id="graph0" class="graph" transform="scale(1 1) rotate(0) translate(4 200)">
<title>amr_wind::pde::SrcTermOpBase&lt; PDE &gt;</title>
<!-- Node1 -->
<g id="Node000001" class="node">
<title>Node1</title>
<g id="a_Node000001"><a xlink:title=" ">
<polygon fill="#999999" stroke="#666666" points="229,-196 82,-196 82,-166 229,-166 229,-196"/>
<text text-anchor="start" x="90" y="-184" font-family="Helvetica,sans-Serif" font-size="10.00">amr_wind::pde::SrcTermOp</text>
<text text-anchor="middle" x="155.5" y="-173" font-family="Helvetica,sans-Serif" font-size="10.00">Base&lt; PDE &gt;</text>
</a>
</g>
</g>
<!-- Node2 -->
<g id="Node000002" class="node">
<title>Node2</title>
<g id="a_Node000002"><a xlink:href="structamr__wind_1_1pde_1_1_src_term_op.html" target="_top" xlink:title=" ">
<polygon fill="white" stroke="#666666" points="147,-113 0,-113 0,-83 147,-83 147,-113"/>
<text text-anchor="start" x="8" y="-101" font-family="Helvetica,sans-Serif" font-size="10.00">amr_wind::pde::SrcTermOp</text>
<text text-anchor="middle" x="73.5" y="-90" font-family="Helvetica,sans-Serif" font-size="10.00">&lt; PDE &gt;</text>
</a>
</g>
</g>
<!-- Node1&#45;&gt;Node2 -->
<g id="edge1_Node000001_Node000002" class="edge">
<title>Node1&#45;&gt;Node2</title>
<g id="a_edge1_Node000001_Node000002"><a xlink:title=" ">
<path fill="none" stroke="#63b8ff" d="M134.05,-158.82C119.51,-144.45 100.67,-125.84 87.89,-113.22"/>
<polygon fill="#63b8ff" stroke="#63b8ff" points="131.64,-161.35 141.22,-165.89 136.56,-156.37 131.64,-161.35"/>
</a>
</g>
</g>
<!-- Node4 -->
<g id="Node000004" class="node">
<title>Node4</title>
<g id="a_Node000004"><a xlink:href="structamr__wind_1_1pde_1_1_src_term_op_base.html" target="_top" xlink:title=" ">
<polygon fill="white" stroke="#666666" points="312,-113 165,-113 165,-83 312,-83 312,-113"/>
<text text-anchor="start" x="173" y="-101" font-family="Helvetica,sans-Serif" font-size="10.00">amr_wind::pde::SrcTermOp</text>
<text text-anchor="middle" x="238.5" y="-90" font-family="Helvetica,sans-Serif" font-size="10.00">Base&lt; ICNS &gt;</text>
</a>
</g>
</g>
<!-- Node1&#45;&gt;Node4 -->
<g id="edge3_Node000001_Node000004" class="edge">
<title>Node1&#45;&gt;Node4</title>
<g id="a_edge3_Node000001_Node000004"><a xlink:title=" ">
<path fill="none" stroke="orange" stroke-dasharray="5,2" d="M177.21,-158.82C191.93,-144.45 211,-125.84 223.93,-113.22"/>
<polygon fill="orange" stroke="orange" points="174.67,-156.4 169.96,-165.89 179.56,-161.41 174.67,-156.4"/>
</a>
</g>
<text text-anchor="start" x="206.5" y="-136.5" font-family="Helvetica,sans-Serif" font-size="10.00" fill="grey">&lt; ICNS &gt;</text>
</g>
<!-- Node3 -->
<g id="Node000003" class="node">
<title>Node3</title>
<g id="a_Node000003"><a xlink:href="structamr__wind_1_1pde_1_1_src_term_op_3_01_i_c_n_s_01_4.html" target="_top" xlink:title=" ">
<polygon fill="white" stroke="#666666" points="312,-30 165,-30 165,0 312,0 312,-30"/>
<text text-anchor="start" x="173" y="-18" font-family="Helvetica,sans-Serif" font-size="10.00">amr_wind::pde::SrcTermOp</text>
<text text-anchor="middle" x="238.5" y="-7" font-family="Helvetica,sans-Serif" font-size="10.00">&lt; ICNS &gt;</text>
</a>
</g>
</g>
<!-- Node2&#45;&gt;Node3 -->
<g id="edge2_Node000002_Node000003" class="edge">
<title>Node2&#45;&gt;Node3</title>
<g id="a_edge2_Node000002_Node000003"><a xlink:title=" ">
<path fill="none" stroke="orange" stroke-dasharray="5,2" d="M111.54,-78.33C141.49,-63.62 182.59,-43.45 209.81,-30.08"/>
<polygon fill="orange" stroke="orange" points="109.68,-75.34 102.24,-82.89 112.76,-81.63 109.68,-75.34"/>
</a>
</g>
<text text-anchor="start" x="174.5" y="-53.5" font-family="Helvetica,sans-Serif" font-size="10.00" fill="grey">&lt; ICNS &gt;</text>
</g>
<!-- Node4&#45;&gt;Node3 -->
<g id="edge4_Node000004_Node000003" class="edge">
<title>Node4&#45;&gt;Node3</title>
<g id="a_edge4_Node000004_Node000003"><a xlink:title=" ">
<path fill="none" stroke="#63b8ff" d="M232.25,-72.59C231.35,-58.75 231.67,-41.91 233.22,-30.22"/>
<polygon fill="#63b8ff" stroke="#63b8ff" points="228.8,-73.27 233.23,-82.89 235.76,-72.6 228.8,-73.27"/>
</a>
</g>
</g>
<!-- Node4&#45;&gt;Node3 -->
<g id="edge5_Node000004_Node000003" class="edge">
<title>Node4&#45;&gt;Node3</title>
<g id="a_edge5_Node000004_Node000003"><a xlink:title=" ">
<path fill="none" stroke="#63b8ff" d="M244.75,-72.59C245.65,-58.75 245.33,-41.91 243.78,-30.22"/>
<polygon fill="#63b8ff" stroke="#63b8ff" points="241.24,-72.6 243.77,-82.89 248.2,-73.27 241.24,-72.6"/>
</a>
</g>
</g>
</g>
</svg>
</svg>

<style type='text/css'>
<![CDATA[
[data-mouse-over-selected='false'] { opacity: 0.7; }
[data-mouse-over-selected='true']  { opacity: 1.0; }
]]>
</style>
<script type="application/ecmascript"><![CDATA[
document.addEventListener('DOMContentLoaded', (event) => {
  highlightEdges();
  highlightAdjacentNodes();
});
]]></script>
</svg>
