<?xml version="1.0" encoding="UTF-8" standalone="no"?>
<!DOCTYPE svg PUBLIC "-//W3C//DTD SVG 1.1//EN"
 "http://www.w3.org/Graphics/SVG/1.1/DTD/svg11.dtd">
<!-- Generated by graphviz version 2.43.0 (0)
 -->
<!-- Title: /home/runner/work/amr&#45;wind/amr&#45;wind/amr&#45;wind/wind_energy/actuator/turbine/turbine_utils.cpp Pages: 1 -->
<!--zoomable 577 -->

<svg id="main" version="1.1" xmlns="http://www.w3.org/2000/svg" xmlns:xlink="http://www.w3.org/1999/xlink" xml:space="preserve" onload="init(evt)">

<style type="text/css"><![CDATA[
.node, .edge {opacity: 0.7;}
.node.selected, .edge.selected {opacity: 1;}
.edge:hover path { stroke: red; }
.edge:hover polygon { stroke: red; fill: red; }
]]></style>

<defs>
  <circle id="rim" cx="0" cy="0" r="7"/>
  <circle id="rim2" cx="0" cy="0" r="3.5"/>
  <g id="zoomPlus">
    <use xlink:href="#rim" fill="#404040"><set attributeName="fill" to="#808080" begin="zoomplus.mouseover" end="zoomplus.mouseout"/></use>
    <path d="M-4,0h8M0,-4v8" fill="none" stroke="white" stroke-width="1.5" pointer-events="none"/>
  </g>
  <g id="zoomMin">
    <use xlink:href="#rim" fill="#404040"><set attributeName="fill" to="#808080" begin="zoomminus.mouseover" end="zoomminus.mouseout"/></use>
    <path d="M-4,0h8" fill="none" stroke="white" stroke-width="1.5" pointer-events="none"/>
  </g>
  <g id="arrowUp" transform="translate(30 24)">
    <use xlink:href="#rim"/>
    <path pointer-events="none" fill="none" stroke="white" stroke-width="1.5" d="M0,-3.0v7 M-2.5,-0.5L0,-3.0L2.5,-0.5"/>
  </g>
  <g id="arrowRight" transform="rotate(90) translate(36 -43)">
    <use xlink:href="#rim"/>
    <path pointer-events="none" fill="none" stroke="white" stroke-width="1.5" d="M0,-3.0v7 M-2.5,-0.5L0,-3.0L2.5,-0.5"/>
  </g>
  <g id="arrowDown" transform="rotate(180) translate(-30 -48)">
    <use xlink:href="#rim"/>
    <path pointer-events="none" fill="none" stroke="white" stroke-width="1.5" d="M0,-3.0v7 M-2.5,-0.5L0,-3.0L2.5,-0.5"/>
  </g>
  <g id="arrowLeft" transform="rotate(270) translate(-36 17)">
    <use xlink:href="#rim"/>
    <path pointer-events="none" fill="none" stroke="white" stroke-width="1.5" d="M0,-3.0v7 M-2.5,-0.5L0,-3.0L2.5,-0.5"/>
  </g>
  <g id="resetDef">
    <use xlink:href="#rim2" fill="#404040"><set attributeName="fill" to="#808080" begin="reset.mouseover" end="reset.mouseout"/></use>
  </g>
</defs>
<script type="application/ecmascript">
var viewWidth = 1252;
var viewHeight = 577;
var sectionId = 'dynsection-0';
</script>
<script type="application/ecmascript" xlink:href="svg.min.js"/>
<svg id="graph" class="graph">
<g id="viewport">
<title>/home/runner/work/amr&#45;wind/amr&#45;wind/amr&#45;wind/wind_energy/actuator/turbine/turbine_utils.cpp</title>
<!-- Node1 -->
<g id="Node000001" class="node">
<title>Node1</title>
<g id="a_Node000001"><a xlink:title=" ">
<polygon fill="#999999" stroke="#666666" points="602,-569 439,-569 439,-517 602,-517 602,-569"/>
<text text-anchor="start" x="447" y="-557" font-family="Helvetica,sans-Serif" font-size="10.00">/home/runner/work/amr</text>
<text text-anchor="start" x="447" y="-546" font-family="Helvetica,sans-Serif" font-size="10.00">&#45;wind/amr&#45;wind/amr&#45;wind</text>
<text text-anchor="start" x="447" y="-535" font-family="Helvetica,sans-Serif" font-size="10.00">/wind_energy/actuator/turbine</text>
<text text-anchor="middle" x="520.5" y="-524" font-family="Helvetica,sans-Serif" font-size="10.00">/turbine_utils.cpp</text>
</a>
</g>
</g>
<!-- Node2 -->
<g id="Node000002" class="node">
<title>Node2</title>
<g id="a_Node000002"><a xlink:href="turbine__utils_8_h.html" target="_top" xlink:title=" ">
<polygon fill="white" stroke="#666666" points="489,-481 354,-481 354,-440 489,-440 489,-481"/>
<text text-anchor="start" x="362" y="-469" font-family="Helvetica,sans-Serif" font-size="10.00">amr&#45;wind/wind_energy</text>
<text text-anchor="start" x="362" y="-458" font-family="Helvetica,sans-Serif" font-size="10.00">/actuator/turbine/turbine</text>
<text text-anchor="middle" x="421.5" y="-447" font-family="Helvetica,sans-Serif" font-size="10.00">_utils.H</text>
</a>
</g>
</g>
<!-- Node1&#45;&gt;Node2 -->
<g id="edge1_Node000001_Node000002" class="edge">
<title>Node1&#45;&gt;Node2</title>
<g id="a_edge1_Node000001_Node000002"><a xlink:title=" ">
<path fill="none" stroke="#63b8ff" d="M489.72,-516.97C478.19,-507.6 465.07,-496.93 453.44,-487.47"/>
<polygon fill="#63b8ff" stroke="#63b8ff" points="455.63,-484.74 445.66,-481.15 451.21,-490.17 455.63,-484.74"/>
</a>
</g>
</g>
<!-- Node26 -->
<g id="Node000026" class="node">
<title>Node26</title>
<g id="a_Node000026"><a xlink:href="nc__interface_8_h.html" target="_top" xlink:title=" ">
<polygon fill="white" stroke="#666666" points="734,-475.5 609,-475.5 609,-445.5 734,-445.5 734,-475.5"/>
<text text-anchor="start" x="617" y="-463.5" font-family="Helvetica,sans-Serif" font-size="10.00">amr&#45;wind/utilities</text>
<text text-anchor="middle" x="671.5" y="-452.5" font-family="Helvetica,sans-Serif" font-size="10.00">/ncutils/nc_interface.H</text>
</a>
</g>
</g>
<!-- Node1&#45;&gt;Node26 -->
<g id="edge37_Node000001_Node000026" class="edge">
<title>Node1&#45;&gt;Node26</title>
<g id="a_edge37_Node000001_Node000026"><a xlink:title=" ">
<path fill="none" stroke="#63b8ff" d="M567.45,-516.97C589.52,-505.2 615.41,-491.4 635.85,-480.51"/>
<polygon fill="#63b8ff" stroke="#63b8ff" points="637.64,-483.52 644.82,-475.73 634.35,-477.34 637.64,-483.52"/>
</a>
</g>
</g>
<!-- Node32 -->
<g id="Node000032" class="node">
<title>Node32</title>
<g id="a_Node000032"><a xlink:href="io__utils_8_h.html" target="_top" xlink:title=" ">
<polygon fill="white" stroke="#666666" points="1096,-475.5 993,-475.5 993,-445.5 1096,-445.5 1096,-475.5"/>
<text text-anchor="start" x="1001" y="-463.5" font-family="Helvetica,sans-Serif" font-size="10.00">amr&#45;wind/utilities</text>
<text text-anchor="middle" x="1044.5" y="-452.5" font-family="Helvetica,sans-Serif" font-size="10.00">/io_utils.H</text>
</a>
</g>
</g>
<!-- Node1&#45;&gt;Node32 -->
<g id="edge43_Node000001_Node000032" class="edge">
<title>Node1&#45;&gt;Node32</title>
<g id="a_edge43_Node000001_Node000032"><a xlink:title=" ">
<path fill="none" stroke="#63b8ff" d="M602.09,-529.47C707.41,-513.29 888.36,-485.49 982.9,-470.96"/>
<polygon fill="#63b8ff" stroke="#63b8ff" points="983.53,-474.41 992.88,-469.43 982.47,-467.49 983.53,-474.41"/>
</a>
</g>
</g>
<!-- Node37 -->
<g id="Node000037" class="node">
<title>Node37</title>
<g id="a_Node000037"><a xlink:href="_f_l_l_c_8_h.html" target="_top" xlink:title=" ">
<polygon fill="white" stroke="#666666" points="335.5,-475.5 207.5,-475.5 207.5,-445.5 335.5,-445.5 335.5,-475.5"/>
<text text-anchor="start" x="215.5" y="-463.5" font-family="Helvetica,sans-Serif" font-size="10.00">amr&#45;wind/wind_energy</text>
<text text-anchor="middle" x="271.5" y="-452.5" font-family="Helvetica,sans-Serif" font-size="10.00">/actuator/FLLC.H</text>
</a>
</g>
</g>
<!-- Node1&#45;&gt;Node37 -->
<g id="edge50_Node000001_Node000037" class="edge">
<title>Node1&#45;&gt;Node37</title>
<g id="a_edge50_Node000001_Node000037"><a xlink:title=" ">
<path fill="none" stroke="#63b8ff" d="M443.08,-516.97C404.75,-504.58 359.43,-489.93 325,-478.8"/>
<polygon fill="#63b8ff" stroke="#63b8ff" points="325.73,-475.36 315.14,-475.61 323.58,-482.02 325.73,-475.36"/>
</a>
</g>
</g>
<!-- Node3 -->
<g id="Node000003" class="node">
<title>Node3</title>
<g id="a_Node000003"><a xlink:href="turbine__types_8_h.html" target="_top" xlink:title=" ">
<polygon fill="white" stroke="#666666" points="489,-404 354,-404 354,-363 489,-363 489,-404"/>
<text text-anchor="start" x="362" y="-392" font-family="Helvetica,sans-Serif" font-size="10.00">amr&#45;wind/wind_energy</text>
<text text-anchor="start" x="362" y="-381" font-family="Helvetica,sans-Serif" font-size="10.00">/actuator/turbine/turbine</text>
<text text-anchor="middle" x="421.5" y="-370" font-family="Helvetica,sans-Serif" font-size="10.00">_types.H</text>
</a>
</g>
</g>
<!-- Node2&#45;&gt;Node3 -->
<g id="edge2_Node000002_Node000003" class="edge">
<title>Node2&#45;&gt;Node3</title>
<g id="a_edge2_Node000002_Node000003"><a xlink:title=" ">
<path fill="none" stroke="#63b8ff" d="M421.5,-439.79C421.5,-431.96 421.5,-422.77 421.5,-414.16"/>
<polygon fill="#63b8ff" stroke="#63b8ff" points="425,-414.07 421.5,-404.07 418,-414.07 425,-414.07"/>
</a>
</g>
</g>
<!-- Node23 -->
<g id="Node000023" class="node">
<title>Node23</title>
<g id="a_Node000023"><a xlink:href="_act_parser_8_h.html" target="_top" xlink:title=" ">
<polygon fill="white" stroke="#666666" points="335.5,-398.5 207.5,-398.5 207.5,-368.5 335.5,-368.5 335.5,-398.5"/>
<text text-anchor="start" x="215.5" y="-386.5" font-family="Helvetica,sans-Serif" font-size="10.00">amr&#45;wind/wind_energy</text>
<text text-anchor="middle" x="271.5" y="-375.5" font-family="Helvetica,sans-Serif" font-size="10.00">/actuator/ActParser.H</text>
</a>
</g>
</g>
<!-- Node2&#45;&gt;Node23 -->
<g id="edge33_Node000002_Node000023" class="edge">
<title>Node2&#45;&gt;Node23</title>
<g id="a_edge33_Node000002_Node000023"><a xlink:title=" ">
<path fill="none" stroke="#63b8ff" d="M382.48,-439.99C359.85,-428.67 331.48,-414.49 309.09,-403.3"/>
<polygon fill="#63b8ff" stroke="#63b8ff" points="310.41,-400.04 299.9,-398.7 307.28,-406.3 310.41,-400.04"/>
</a>
</g>
</g>
<!-- Node4 -->
<g id="Node000004" class="node">
<title>Node4</title>
<g id="a_Node000004"><a xlink:href="actuator__types_8_h.html" target="_top" xlink:title=" ">
<polygon fill="white" stroke="#666666" points="518.5,-327 372.5,-327 372.5,-297 518.5,-297 518.5,-327"/>
<text text-anchor="start" x="380.5" y="-315" font-family="Helvetica,sans-Serif" font-size="10.00">amr&#45;wind/wind_energy</text>
<text text-anchor="middle" x="445.5" y="-304" font-family="Helvetica,sans-Serif" font-size="10.00">/actuator/actuator_types.H</text>
</a>
</g>
</g>
<!-- Node3&#45;&gt;Node4 -->
<g id="edge3_Node000003_Node000004" class="edge">
<title>Node3&#45;&gt;Node4</title>
<g id="a_edge3_Node000003_Node000004"><a xlink:title=" ">
<path fill="none" stroke="#63b8ff" d="M428.31,-362.77C431.11,-354.67 434.38,-345.22 437.3,-336.74"/>
<polygon fill="#63b8ff" stroke="#63b8ff" points="440.7,-337.63 440.65,-327.04 434.08,-335.35 440.7,-337.63"/>
</a>
</g>
</g>
<!-- Node5 -->
<g id="Node000005" class="node">
<title>Node5</title>
<g id="a_Node000005"><a xlink:href="_slice_8_h.html" target="_top" xlink:title=" ">
<polygon fill="white" stroke="#666666" points="745.5,-255.5 621.5,-255.5 621.5,-236.5 745.5,-236.5 745.5,-255.5"/>
<text text-anchor="middle" x="683.5" y="-243.5" font-family="Helvetica,sans-Serif" font-size="10.00">amr&#45;wind/core/Slice.H</text>
</a>
</g>
</g>
<!-- Node4&#45;&gt;Node5 -->
<g id="edge4_Node000004_Node000005" class="edge">
<title>Node4&#45;&gt;Node5</title>
<g id="a_edge4_Node000004_Node000005"><a xlink:title=" ">
<path fill="none" stroke="#63b8ff" d="M497.73,-296.95C541.12,-285.29 602.03,-268.91 642.11,-258.13"/>
<polygon fill="#63b8ff" stroke="#63b8ff" points="643.08,-261.49 651.83,-255.52 641.26,-254.73 643.08,-261.49"/>
</a>
</g>
</g>
<!-- Node8 -->
<g id="Node000008" class="node">
<title>Node8</title>
<g id="a_Node000008"><a xlink:title=" ">
<polygon fill="#e0e0e0" stroke="#999999" points="589,-19 502,-19 502,0 589,0 589,-19"/>
<text text-anchor="middle" x="545.5" y="-7" font-family="Helvetica,sans-Serif" font-size="10.00">AMReX_Gpu.H</text>
</a>
</g>
</g>
<!-- Node4&#45;&gt;Node8 -->
<g id="edge29_Node000004_Node000008" class="edge">
<title>Node4&#45;&gt;Node8</title>
<g id="a_edge29_Node000004_Node000008"><a xlink:title=" ">
<path fill="none" stroke="#63b8ff" d="M507.6,-296.95C528.3,-289.43 549.8,-278.06 564.5,-261 586.81,-235.12 583.5,-220.67 583.5,-186.5 583.5,-186.5 583.5,-186.5 583.5,-129.5 583.5,-92.07 566.23,-51.03 554.98,-28.25"/>
<polygon fill="#63b8ff" stroke="#63b8ff" points="557.99,-26.46 550.31,-19.15 551.76,-29.65 557.99,-26.46"/>
</a>
</g>
</g>
<!-- Node9 -->
<g id="Node000009" class="node">
<title>Node9</title>
<g id="a_Node000009"><a xlink:href="vector__space_8_h.html" target="_top" xlink:title=" ">
<polygon fill="white" stroke="#666666" points="315,-261 180,-261 180,-231 315,-231 315,-261"/>
<text text-anchor="start" x="188" y="-249" font-family="Helvetica,sans-Serif" font-size="10.00">amr&#45;wind/core/vs/vector</text>
<text text-anchor="middle" x="247.5" y="-238" font-family="Helvetica,sans-Serif" font-size="10.00">_space.H</text>
</a>
</g>
</g>
<!-- Node4&#45;&gt;Node9 -->
<g id="edge8_Node000004_Node000009" class="edge">
<title>Node4&#45;&gt;Node9</title>
<g id="a_edge8_Node000004_Node000009"><a xlink:title=" ">
<path fill="none" stroke="#63b8ff" d="M402.05,-296.95C372.13,-287.28 332.21,-274.38 300.43,-264.11"/>
<polygon fill="#63b8ff" stroke="#63b8ff" points="301.44,-260.76 290.85,-261.01 299.29,-267.42 301.44,-260.76"/>
</a>
</g>
</g>
<!-- Node20 -->
<g id="Node000020" class="node">
<title>Node20</title>
<g id="a_Node000020"><a xlink:title=" ">
<polygon fill="#e0e0e0" stroke="#999999" points="441.5,-255.5 333.5,-255.5 333.5,-236.5 441.5,-236.5 441.5,-255.5"/>
<text text-anchor="middle" x="387.5" y="-243.5" font-family="Helvetica,sans-Serif" font-size="10.00">AMReX_RealBox.H</text>
</a>
</g>
</g>
<!-- Node4&#45;&gt;Node20 -->
<g id="edge30_Node000004_Node000020" class="edge">
<title>Node4&#45;&gt;Node20</title>
<g id="a_edge30_Node000004_Node000020"><a xlink:title=" ">
<path fill="none" stroke="#63b8ff" d="M432.63,-296.8C423.67,-286.92 411.71,-273.72 402.36,-263.39"/>
<polygon fill="#63b8ff" stroke="#63b8ff" points="404.82,-260.9 395.52,-255.84 399.64,-265.6 404.82,-260.9"/>
</a>
</g>
</g>
<!-- Node21 -->
<g id="Node000021" class="node">
<title>Node21</title>
<g id="a_Node000021"><a xlink:title=" ">
<polygon fill="#e0e0e0" stroke="#999999" points="491.5,-255.5 459.5,-255.5 459.5,-236.5 491.5,-236.5 491.5,-255.5"/>
<text text-anchor="middle" x="475.5" y="-243.5" font-family="Helvetica,sans-Serif" font-size="10.00">set</text>
</a>
</g>
</g>
<!-- Node4&#45;&gt;Node21 -->
<g id="edge31_Node000004_Node000021" class="edge">
<title>Node4&#45;&gt;Node21</title>
<g id="a_edge31_Node000004_Node000021"><a xlink:title=" ">
<path fill="none" stroke="#63b8ff" d="M452.16,-296.8C456.56,-287.41 462.37,-275.02 467.09,-264.95"/>
<polygon fill="#63b8ff" stroke="#63b8ff" points="470.28,-266.38 471.35,-255.84 463.94,-263.41 470.28,-266.38"/>
</a>
</g>
</g>
<!-- Node22 -->
<g id="Node000022" class="node">
<title>Node22</title>
<g id="a_Node000022"><a xlink:title=" ">
<polygon fill="#e0e0e0" stroke="#999999" points="555,-255.5 510,-255.5 510,-236.5 555,-236.5 555,-255.5"/>
<text text-anchor="middle" x="532.5" y="-243.5" font-family="Helvetica,sans-Serif" font-size="10.00">utility</text>
</a>
</g>
</g>
<!-- Node4&#45;&gt;Node22 -->
<g id="edge32_Node000004_Node000022" class="edge">
<title>Node4&#45;&gt;Node22</title>
<g id="a_edge32_Node000004_Node000022"><a xlink:title=" ">
<path fill="none" stroke="#63b8ff" d="M464.81,-296.8C478.99,-286.37 498.19,-272.24 512.52,-261.69"/>
<polygon fill="#63b8ff" stroke="#63b8ff" points="514.75,-264.4 520.73,-255.66 510.6,-258.76 514.75,-264.4"/>
</a>
</g>
</g>
<!-- Node6 -->
<g id="Node000006" class="node">
<title>Node6</title>
<g id="a_Node000006"><a xlink:title=" ">
<polygon fill="#e0e0e0" stroke="#999999" points="665,-195 612,-195 612,-176 665,-176 665,-195"/>
<text text-anchor="middle" x="638.5" y="-183" font-family="Helvetica,sans-Serif" font-size="10.00">iterator</text>
</a>
</g>
</g>
<!-- Node5&#45;&gt;Node6 -->
<g id="edge5_Node000005_Node000006" class="edge">
<title>Node5&#45;&gt;Node6</title>
<g id="a_edge5_Node000005_Node000006"><a xlink:title=" ">
<path fill="none" stroke="#63b8ff" d="M676.86,-236.37C670.21,-227.73 659.81,-214.2 651.51,-203.42"/>
<polygon fill="#63b8ff" stroke="#63b8ff" points="654.04,-200.96 645.17,-195.17 648.49,-205.23 654.04,-200.96"/>
</a>
</g>
</g>
<!-- Node7 -->
<g id="Node000007" class="node">
<title>Node7</title>
<g id="a_Node000007"><a xlink:title=" ">
<polygon fill="#e0e0e0" stroke="#999999" points="970.5,-195 872.5,-195 872.5,-176 970.5,-176 970.5,-195"/>
<text text-anchor="middle" x="921.5" y="-183" font-family="Helvetica,sans-Serif" font-size="10.00">AMReX_Vector.H</text>
</a>
</g>
</g>
<!-- Node5&#45;&gt;Node7 -->
<g id="edge6_Node000005_Node000007" class="edge">
<title>Node5&#45;&gt;Node7</title>
<g id="a_edge6_Node000005_Node000007"><a xlink:title=" ">
<path fill="none" stroke="#63b8ff" d="M718.11,-236.49C760.06,-226.18 830.84,-208.78 876.86,-197.47"/>
<polygon fill="#63b8ff" stroke="#63b8ff" points="877.98,-200.8 886.85,-195.02 876.3,-194 877.98,-200.8"/>
</a>
</g>
</g>
<!-- Node5&#45;&gt;Node8 -->
<g id="edge7_Node000005_Node000008" class="edge">
<title>Node5&#45;&gt;Node8</title>
<g id="a_edge7_Node000005_Node000008"><a xlink:title=" ">
<path fill="none" stroke="#63b8ff" d="M683.56,-236.22C683.39,-222.82 682,-196.67 674.5,-176 652.75,-116.08 639.28,-103.14 597.5,-55 588.01,-44.06 575.77,-33.45 565.55,-25.34"/>
<polygon fill="#63b8ff" stroke="#63b8ff" points="567.6,-22.5 557.54,-19.16 563.32,-28.04 567.6,-22.5"/>
</a>
</g>
</g>
<!-- Node10 -->
<g id="Node000010" class="node">
<title>Node10</title>
<g id="a_Node000010"><a xlink:href="vector_8_h.html" target="_top" xlink:title=" ">
<polygon fill="white" stroke="#666666" points="257,-140 112,-140 112,-121 257,-121 257,-140"/>
<text text-anchor="middle" x="184.5" y="-128" font-family="Helvetica,sans-Serif" font-size="10.00">amr&#45;wind/core/vs/vector.H</text>
</a>
</g>
</g>
<!-- Node9&#45;&gt;Node10 -->
<g id="edge9_Node000009_Node000010" class="edge">
<title>Node9&#45;&gt;Node10</title>
<g id="a_edge9_Node000009_Node000010"><a xlink:title=" ">
<path fill="none" stroke="#63b8ff" d="M232.59,-230.89C223.39,-221.48 211.96,-208.41 204.5,-195 196.68,-180.94 191.45,-163.39 188.3,-150.31"/>
<polygon fill="#63b8ff" stroke="#63b8ff" points="191.64,-149.17 186.07,-140.16 184.8,-150.68 191.64,-149.17"/>
</a>
</g>
</g>
<!-- Node17 -->
<g id="Node000017" class="node">
<title>Node17</title>
<g id="a_Node000017"><a xlink:href="tensor_8_h.html" target="_top" xlink:title=" ">
<polygon fill="white" stroke="#666666" points="359,-195 214,-195 214,-176 359,-176 359,-195"/>
<text text-anchor="middle" x="286.5" y="-183" font-family="Helvetica,sans-Serif" font-size="10.00">amr&#45;wind/core/vs/tensor.H</text>
</a>
</g>
</g>
<!-- Node9&#45;&gt;Node17 -->
<g id="edge18_Node000009_Node000017" class="edge">
<title>Node9&#45;&gt;Node17</title>
<g id="a_edge18_Node000009_Node000017"><a xlink:title=" ">
<path fill="none" stroke="#63b8ff" d="M256.94,-230.84C262.37,-222.69 269.23,-212.4 274.98,-203.78"/>
<polygon fill="#63b8ff" stroke="#63b8ff" points="278.02,-205.53 280.66,-195.27 272.2,-201.65 278.02,-205.53"/>
</a>
</g>
</g>
<!-- Node10&#45;&gt;Node8 -->
<g id="edge10_Node000010_Node000008" class="edge">
<title>Node10&#45;&gt;Node8</title>
<g id="a_edge10_Node000010_Node000008"><a xlink:title=" ">
<path fill="none" stroke="#63b8ff" d="M257.02,-121.78C340.56,-112.44 468.9,-96.52 488.5,-85 511.03,-71.75 527.72,-45.83 537.03,-28.34"/>
<polygon fill="#63b8ff" stroke="#63b8ff" points="540.27,-29.67 541.65,-19.17 534.02,-26.52 540.27,-29.67"/>
</a>
</g>
</g>
<!-- Node11 -->
<g id="Node000011" class="node">
<title>Node11</title>
<g id="a_Node000011"><a xlink:href="vstraits_8_h.html" target="_top" xlink:title=" ">
<polygon fill="white" stroke="#666666" points="319.5,-79.5 167.5,-79.5 167.5,-60.5 319.5,-60.5 319.5,-79.5"/>
<text text-anchor="middle" x="243.5" y="-67.5" font-family="Helvetica,sans-Serif" font-size="10.00">amr&#45;wind/core/vs/vstraits.H</text>
</a>
</g>
</g>
<!-- Node10&#45;&gt;Node11 -->
<g id="edge11_Node000010_Node000011" class="edge">
<title>Node10&#45;&gt;Node11</title>
<g id="a_edge11_Node000010_Node000011"><a xlink:title=" ">
<path fill="none" stroke="#63b8ff" d="M193.21,-120.87C202.18,-111.97 216.38,-97.89 227.41,-86.95"/>
<polygon fill="#63b8ff" stroke="#63b8ff" points="230.12,-89.19 234.76,-79.67 225.19,-84.22 230.12,-89.19"/>
</a>
</g>
</g>
<!-- Node14 -->
<g id="Node000014" class="node">
<title>Node14</title>
<g id="a_Node000014"><a xlink:href="vector_i_8_h.html" target="_top" xlink:title=" ">
<polygon fill="white" stroke="#666666" points="149,-79.5 0,-79.5 0,-60.5 149,-60.5 149,-79.5"/>
<text text-anchor="middle" x="74.5" y="-67.5" font-family="Helvetica,sans-Serif" font-size="10.00">amr&#45;wind/core/vs/vectorI.H</text>
</a>
</g>
</g>
<!-- Node10&#45;&gt;Node14 -->
<g id="edge14_Node000010_Node000014" class="edge">
<title>Node10&#45;&gt;Node14</title>
<g id="a_edge14_Node000010_Node000014"><a xlink:title=" ">
<path fill="none" stroke="#63b8ff" d="M163.58,-120.99C143.57,-111.46 113.97,-95.88 94.33,-84.64"/>
<polygon fill="#63b8ff" stroke="#63b8ff" points="95.98,-81.55 85.58,-79.52 92.45,-87.59 95.98,-81.55"/>
</a>
</g>
</g>
<!-- Node12 -->
<g id="Node000012" class="node">
<title>Node12</title>
<g id="a_Node000012"><a xlink:title=" ">
<polygon fill="#e0e0e0" stroke="#999999" points="265.5,-19 221.5,-19 221.5,0 265.5,0 265.5,-19"/>
<text text-anchor="middle" x="243.5" y="-7" font-family="Helvetica,sans-Serif" font-size="10.00">limits</text>
</a>
</g>
</g>
<!-- Node11&#45;&gt;Node12 -->
<g id="edge12_Node000011_Node000012" class="edge">
<title>Node11&#45;&gt;Node12</title>
<g id="a_edge12_Node000011_Node000012"><a xlink:title=" ">
<path fill="none" stroke="#63b8ff" d="M243.5,-60.37C243.5,-52.25 243.5,-39.81 243.5,-29.39"/>
<polygon fill="#63b8ff" stroke="#63b8ff" points="247,-29.17 243.5,-19.17 240,-29.17 247,-29.17"/>
</a>
</g>
</g>
<!-- Node13 -->
<g id="Node000013" class="node">
<title>Node13</title>
<g id="a_Node000013"><a xlink:title=" ">
<polygon fill="#e0e0e0" stroke="#999999" points="473.5,-19 381.5,-19 381.5,0 473.5,0 473.5,-19"/>
<text text-anchor="middle" x="427.5" y="-7" font-family="Helvetica,sans-Serif" font-size="10.00">AMReX_REAL.H</text>
</a>
</g>
</g>
<!-- Node11&#45;&gt;Node13 -->
<g id="edge13_Node000011_Node000013" class="edge">
<title>Node11&#45;&gt;Node13</title>
<g id="a_edge13_Node000011_Node000013"><a xlink:title=" ">
<path fill="none" stroke="#63b8ff" d="M270.26,-60.49C302.14,-50.36 355.57,-33.37 391.18,-22.05"/>
<polygon fill="#63b8ff" stroke="#63b8ff" points="392.24,-25.38 400.71,-19.02 390.12,-18.71 392.24,-25.38"/>
</a>
</g>
</g>
<!-- Node14&#45;&gt;Node10 -->
<g id="edge17_Node000014_Node000010" class="edge">
<title>Node14&#45;&gt;Node10</title>
<g id="a_edge17_Node000014_Node000010"><a xlink:title=" ">
<path fill="none" stroke="#63b8ff" d="M95.76,-79.67C115.71,-89.19 144.99,-104.6 164.51,-115.77"/>
<polygon fill="#63b8ff" stroke="#63b8ff" points="162.83,-118.84 173.22,-120.87 166.36,-112.8 162.83,-118.84"/>
</a>
</g>
</g>
<!-- Node15 -->
<g id="Node000015" class="node">
<title>Node15</title>
<g id="a_Node000015"><a xlink:title=" ">
<polygon fill="#e0e0e0" stroke="#999999" points="103,-19 46,-19 46,0 103,0 103,-19"/>
<text text-anchor="middle" x="74.5" y="-7" font-family="Helvetica,sans-Serif" font-size="10.00">ostream</text>
</a>
</g>
</g>
<!-- Node14&#45;&gt;Node15 -->
<g id="edge15_Node000014_Node000015" class="edge">
<title>Node14&#45;&gt;Node15</title>
<g id="a_edge15_Node000014_Node000015"><a xlink:title=" ">
<path fill="none" stroke="#63b8ff" d="M74.5,-60.37C74.5,-52.25 74.5,-39.81 74.5,-29.39"/>
<polygon fill="#63b8ff" stroke="#63b8ff" points="78,-29.17 74.5,-19.17 71,-29.17 78,-29.17"/>
</a>
</g>
</g>
<!-- Node16 -->
<g id="Node000016" class="node">
<title>Node16</title>
<g id="a_Node000016"><a xlink:title=" ">
<polygon fill="#e0e0e0" stroke="#999999" points="363,-19 316,-19 316,0 363,0 363,-19"/>
<text text-anchor="middle" x="339.5" y="-7" font-family="Helvetica,sans-Serif" font-size="10.00">cmath</text>
</a>
</g>
</g>
<!-- Node14&#45;&gt;Node16 -->
<g id="edge16_Node000014_Node000016" class="edge">
<title>Node14&#45;&gt;Node16</title>
<g id="a_edge16_Node000014_Node000016"><a xlink:title=" ">
<path fill="none" stroke="#63b8ff" d="M113.03,-60.49C165.03,-49.01 256.81,-28.75 306.05,-17.88"/>
<polygon fill="#63b8ff" stroke="#63b8ff" points="306.87,-21.29 315.88,-15.71 305.37,-14.45 306.87,-21.29"/>
</a>
</g>
</g>
<!-- Node17&#45;&gt;Node8 -->
<g id="edge19_Node000017_Node000008" class="edge">
<title>Node17&#45;&gt;Node8</title>
<g id="a_edge19_Node000017_Node000008"><a xlink:title=" ">
<path fill="none" stroke="#63b8ff" d="M359.14,-177.86C395.06,-171.98 437.81,-160.89 471.5,-140 512.28,-114.71 532.8,-58.17 541.02,-28.88"/>
<polygon fill="#63b8ff" stroke="#63b8ff" points="544.43,-29.67 543.58,-19.11 537.66,-27.89 544.43,-29.67"/>
</a>
</g>
</g>
<!-- Node17&#45;&gt;Node10 -->
<g id="edge21_Node000017_Node000010" class="edge">
<title>Node17&#45;&gt;Node10</title>
<g id="a_edge21_Node000017_Node000010"><a xlink:title=" ">
<path fill="none" stroke="#63b8ff" d="M270.11,-175.98C253.93,-167.57 228.93,-154.59 210.12,-144.81"/>
<polygon fill="#63b8ff" stroke="#63b8ff" points="211.67,-141.68 201.19,-140.17 208.45,-147.89 211.67,-141.68"/>
</a>
</g>
</g>
<!-- Node17&#45;&gt;Node11 -->
<g id="edge20_Node000017_Node000011" class="edge">
<title>Node17&#45;&gt;Node11</title>
<g id="a_edge20_Node000017_Node000011"><a xlink:title=" ">
<path fill="none" stroke="#63b8ff" d="M283.9,-175.78C280.17,-163.46 272.92,-140.29 265.5,-121 261.35,-110.21 256.17,-98.36 251.87,-88.9"/>
<polygon fill="#63b8ff" stroke="#63b8ff" points="255.02,-87.36 247.65,-79.75 248.66,-90.29 255.02,-87.36"/>
</a>
</g>
</g>
<!-- Node18 -->
<g id="Node000018" class="node">
<title>Node18</title>
<g id="a_Node000018"><a xlink:href="tensor_i_8_h.html" target="_top" xlink:title=" ">
<polygon fill="white" stroke="#666666" points="462,-140 313,-140 313,-121 462,-121 462,-140"/>
<text text-anchor="middle" x="387.5" y="-128" font-family="Helvetica,sans-Serif" font-size="10.00">amr&#45;wind/core/vs/tensorI.H</text>
</a>
</g>
</g>
<!-- Node17&#45;&gt;Node18 -->
<g id="edge22_Node000017_Node000018" class="edge">
<title>Node17&#45;&gt;Node18</title>
<g id="a_edge22_Node000017_Node000018"><a xlink:title=" ">
<path fill="none" stroke="#63b8ff" d="M297.61,-175.98C311.91,-167.5 336.71,-154.35 356.73,-144.54"/>
<polygon fill="#63b8ff" stroke="#63b8ff" points="358.33,-147.66 365.83,-140.17 355.3,-141.35 358.33,-147.66"/>
</a>
</g>
</g>
<!-- Node18&#45;&gt;Node16 -->
<g id="edge23_Node000018_Node000016" class="edge">
<title>Node18&#45;&gt;Node16</title>
<g id="a_edge23_Node000018_Node000016"><a xlink:title=" ">
<path fill="none" stroke="#63b8ff" d="M383.35,-120.71C379.19,-111.78 372.66,-97.53 367.5,-85 359.7,-66.09 351.56,-44.13 346.08,-28.98"/>
<polygon fill="#63b8ff" stroke="#63b8ff" points="349.27,-27.52 342.6,-19.29 342.68,-29.88 349.27,-27.52"/>
</a>
</g>
</g>
<!-- Node18&#45;&gt;Node17 -->
<g id="edge24_Node000018_Node000017" class="edge">
<title>Node18&#45;&gt;Node17</title>
<g id="a_edge24_Node000018_Node000017"><a xlink:title=" ">
<path fill="none" stroke="#63b8ff" d="M376.13,-140.17C361.7,-148.71 336.87,-161.87 316.9,-171.63"/>
<polygon fill="#63b8ff" stroke="#63b8ff" points="315.34,-168.5 307.84,-175.98 318.37,-174.81 315.34,-168.5"/>
</a>
</g>
</g>
<!-- Node19 -->
<g id="Node000019" class="node">
<title>Node19</title>
<g id="a_Node000019"><a xlink:href="trig__ops_8_h.html" target="_top" xlink:title=" ">
<polygon fill="white" stroke="#666666" points="479,-85 376,-85 376,-55 479,-55 479,-85"/>
<text text-anchor="start" x="384" y="-73" font-family="Helvetica,sans-Serif" font-size="10.00">amr&#45;wind/utilities</text>
<text text-anchor="middle" x="427.5" y="-62" font-family="Helvetica,sans-Serif" font-size="10.00">/trig_ops.H</text>
</a>
</g>
</g>
<!-- Node18&#45;&gt;Node19 -->
<g id="edge25_Node000018_Node000019" class="edge">
<title>Node18&#45;&gt;Node19</title>
<g id="a_edge25_Node000018_Node000019"><a xlink:title=" ">
<path fill="none" stroke="#63b8ff" d="M393.4,-120.87C398.33,-113.67 405.57,-103.07 412.12,-93.49"/>
<polygon fill="#63b8ff" stroke="#63b8ff" points="415.09,-95.34 417.85,-85.11 409.32,-91.39 415.09,-95.34"/>
</a>
</g>
</g>
<!-- Node19&#45;&gt;Node8 -->
<g id="edge28_Node000019_Node000008" class="edge">
<title>Node19&#45;&gt;Node8</title>
<g id="a_edge28_Node000019_Node000008"><a xlink:title=" ">
<path fill="none" stroke="#63b8ff" d="M455.76,-54.99C474.92,-45.49 500.08,-33.02 518.89,-23.69"/>
<polygon fill="#63b8ff" stroke="#63b8ff" points="520.67,-26.72 528.07,-19.14 517.56,-20.45 520.67,-26.72"/>
</a>
</g>
</g>
<!-- Node19&#45;&gt;Node13 -->
<g id="edge27_Node000019_Node000013" class="edge">
<title>Node19&#45;&gt;Node13</title>
<g id="a_edge27_Node000019_Node000013"><a xlink:title=" ">
<path fill="none" stroke="#63b8ff" d="M427.5,-54.84C427.5,-47.21 427.5,-37.7 427.5,-29.45"/>
<polygon fill="#63b8ff" stroke="#63b8ff" points="431,-29.27 427.5,-19.27 424,-29.27 431,-29.27"/>
</a>
</g>
</g>
<!-- Node19&#45;&gt;Node16 -->
<g id="edge26_Node000019_Node000016" class="edge">
<title>Node19&#45;&gt;Node16</title>
<g id="a_edge26_Node000019_Node000016"><a xlink:title=" ">
<path fill="none" stroke="#63b8ff" d="M406.2,-54.84C392.43,-45.68 374.57,-33.82 360.8,-24.66"/>
<polygon fill="#63b8ff" stroke="#63b8ff" points="362.69,-21.72 352.43,-19.09 358.82,-27.55 362.69,-21.72"/>
</a>
</g>
</g>
<!-- Node24 -->
<g id="Node000024" class="node">
<title>Node24</title>
<g id="a_Node000024"><a xlink:href="_multi_parser_8_h.html" target="_top" xlink:title=" ">
<polygon fill="white" stroke="#666666" points="325,-321.5 170,-321.5 170,-302.5 325,-302.5 325,-321.5"/>
<text text-anchor="middle" x="247.5" y="-309.5" font-family="Helvetica,sans-Serif" font-size="10.00">amr&#45;wind/core/MultiParser.H</text>
</a>
</g>
</g>
<!-- Node23&#45;&gt;Node24 -->
<g id="edge34_Node000023_Node000024" class="edge">
<title>Node23&#45;&gt;Node24</title>
<g id="a_edge34_Node000023_Node000024"><a xlink:title=" ">
<path fill="none" stroke="#63b8ff" d="M266.64,-368.44C262.95,-357.75 257.84,-342.95 253.83,-331.33"/>
<polygon fill="#63b8ff" stroke="#63b8ff" points="257.1,-330.08 250.53,-321.77 250.48,-332.36 257.1,-330.08"/>
</a>
</g>
</g>
<!-- Node24&#45;&gt;Node9 -->
<g id="edge35_Node000024_Node000009" class="edge">
<title>Node24&#45;&gt;Node9</title>
<g id="a_edge35_Node000024_Node000009"><a xlink:title=" ">
<path fill="none" stroke="#63b8ff" d="M247.5,-302.37C247.5,-294.49 247.5,-282.45 247.5,-271.6"/>
<polygon fill="#63b8ff" stroke="#63b8ff" points="251,-271.36 247.5,-261.36 244,-271.36 251,-271.36"/>
</a>
</g>
</g>
<!-- Node25 -->
<g id="Node000025" class="node">
<title>Node25</title>
<g id="a_Node000025"><a xlink:title=" ">
<polygon fill="#e0e0e0" stroke="#999999" points="162,-255.5 43,-255.5 43,-236.5 162,-236.5 162,-255.5"/>
<text text-anchor="middle" x="102.5" y="-243.5" font-family="Helvetica,sans-Serif" font-size="10.00">AMReX_ParmParse.H</text>
</a>
</g>
</g>
<!-- Node24&#45;&gt;Node25 -->
<g id="edge36_Node000024_Node000025" class="edge">
<title>Node24&#45;&gt;Node25</title>
<g id="a_edge36_Node000024_Node000025"><a xlink:title=" ">
<path fill="none" stroke="#63b8ff" d="M227.94,-302.37C203.19,-291.44 160.33,-272.52 131.69,-259.88"/>
<polygon fill="#63b8ff" stroke="#63b8ff" points="132.77,-256.54 122.21,-255.7 129.94,-262.94 132.77,-256.54"/>
</a>
</g>
</g>
<!-- Node27 -->
<g id="Node000027" class="node">
<title>Node27</title>
<g id="a_Node000027"><a xlink:title=" ">
<polygon fill="#e0e0e0" stroke="#999999" points="897.5,-393 853.5,-393 853.5,-374 897.5,-374 897.5,-393"/>
<text text-anchor="middle" x="875.5" y="-381" font-family="Helvetica,sans-Serif" font-size="10.00">string</text>
</a>
</g>
</g>
<!-- Node26&#45;&gt;Node27 -->
<g id="edge38_Node000026_Node000027" class="edge">
<title>Node26&#45;&gt;Node27</title>
<g id="a_edge38_Node000026_Node000027"><a xlink:title=" ">
<path fill="none" stroke="#63b8ff" d="M727.38,-445.43C761.94,-435.79 806.76,-421.58 844.5,-404 847.99,-402.37 851.56,-400.43 854.99,-398.4"/>
<polygon fill="#63b8ff" stroke="#63b8ff" points="856.94,-401.31 863.53,-393.02 853.2,-395.39 856.94,-401.31"/>
</a>
</g>
</g>
<!-- Node28 -->
<g id="Node000028" class="node">
<title>Node28</title>
<g id="a_Node000028"><a xlink:title=" ">
<polygon fill="#e0e0e0" stroke="#999999" points="770,-393 677,-393 677,-374 770,-374 770,-393"/>
<text text-anchor="middle" x="723.5" y="-381" font-family="Helvetica,sans-Serif" font-size="10.00">unordered_map</text>
</a>
</g>
</g>
<!-- Node26&#45;&gt;Node28 -->
<g id="edge39_Node000026_Node000028" class="edge">
<title>Node26&#45;&gt;Node28</title>
<g id="a_edge39_Node000026_Node000028"><a xlink:title=" ">
<path fill="none" stroke="#63b8ff" d="M681.28,-445.39C689.89,-432.98 702.44,-414.88 711.62,-401.64"/>
<polygon fill="#63b8ff" stroke="#63b8ff" points="714.53,-403.59 717.35,-393.37 708.77,-399.6 714.53,-403.59"/>
</a>
</g>
</g>
<!-- Node29 -->
<g id="Node000029" class="node">
<title>Node29</title>
<g id="a_Node000029"><a xlink:title=" ">
<polygon fill="#e0e0e0" stroke="#999999" points="835,-393 788,-393 788,-374 835,-374 835,-393"/>
<text text-anchor="middle" x="811.5" y="-381" font-family="Helvetica,sans-Serif" font-size="10.00">vector</text>
</a>
</g>
</g>
<!-- Node26&#45;&gt;Node29 -->
<g id="edge40_Node000026_Node000029" class="edge">
<title>Node26&#45;&gt;Node29</title>
<g id="a_edge40_Node000026_Node000029"><a xlink:title=" ">
<path fill="none" stroke="#63b8ff" d="M700.22,-445.45C722.16,-434.55 753.02,-418.85 779.5,-404 782.66,-402.23 785.96,-400.3 789.19,-398.38"/>
<polygon fill="#63b8ff" stroke="#63b8ff" points="791.2,-401.25 797.93,-393.07 787.56,-395.27 791.2,-401.25"/>
</a>
</g>
</g>
<!-- Node30 -->
<g id="Node000030" class="node">
<title>Node30</title>
<g id="a_Node000030"><a xlink:title=" ">
<polygon fill="#e0e0e0" stroke="#999999" points="563.5,-393 507.5,-393 507.5,-374 563.5,-374 563.5,-393"/>
<text text-anchor="middle" x="535.5" y="-381" font-family="Helvetica,sans-Serif" font-size="10.00">netcdf.h</text>
</a>
</g>
</g>
<!-- Node26&#45;&gt;Node30 -->
<g id="edge41_Node000026_Node000030" class="edge">
<title>Node26&#45;&gt;Node30</title>
<g id="a_edge41_Node000026_Node000030"><a xlink:title=" ">
<path fill="none" stroke="#63b8ff" d="M645.92,-445.39C621.33,-431.83 584.42,-411.48 560.15,-398.09"/>
<polygon fill="#63b8ff" stroke="#63b8ff" points="561.65,-394.93 551.21,-393.16 558.27,-401.06 561.65,-394.93"/>
</a>
</g>
</g>
<!-- Node31 -->
<g id="Node000031" class="node">
<title>Node31</title>
<g id="a_Node000031"><a xlink:title=" ">
<polygon fill="#e0e0e0" stroke="#999999" points="659,-393 582,-393 582,-374 659,-374 659,-393"/>
<text text-anchor="middle" x="620.5" y="-381" font-family="Helvetica,sans-Serif" font-size="10.00">netcdf_par.h</text>
</a>
</g>
</g>
<!-- Node26&#45;&gt;Node31 -->
<g id="edge42_Node000026_Node000031" class="edge">
<title>Node26&#45;&gt;Node31</title>
<g id="a_edge42_Node000026_Node000031"><a xlink:title=" ">
<path fill="none" stroke="#63b8ff" d="M661.91,-445.39C653.55,-433.1 641.39,-415.22 632.41,-402.02"/>
<polygon fill="#63b8ff" stroke="#63b8ff" points="635.05,-399.68 626.53,-393.37 629.26,-403.61 635.05,-399.68"/>
</a>
</g>
</g>
<!-- Node32&#45;&gt;Node7 -->
<g id="edge49_Node000032_Node000007" class="edge">
<title>Node32&#45;&gt;Node7</title>
<g id="a_edge49_Node000032_Node000007"><a xlink:title=" ">
<path fill="none" stroke="#63b8ff" d="M1056.13,-445.47C1064.16,-434.83 1074.15,-419.44 1078.5,-404 1083.45,-386.46 1084.98,-380.03 1078.5,-363 1050.81,-290.21 977.8,-228.28 941.95,-201.16"/>
<polygon fill="#63b8ff" stroke="#63b8ff" points="943.81,-198.18 933.69,-195.03 939.64,-203.8 943.81,-198.18"/>
</a>
</g>
</g>
<!-- Node32&#45;&gt;Node27 -->
<g id="edge46_Node000032_Node000027" class="edge">
<title>Node32&#45;&gt;Node27</title>
<g id="a_edge46_Node000032_Node000027"><a xlink:title=" ">
<path fill="none" stroke="#63b8ff" d="M1004.1,-445.43C976.13,-435.17 938.36,-420.26 906.5,-404 903.29,-402.36 899.98,-400.49 896.77,-398.57"/>
<polygon fill="#63b8ff" stroke="#63b8ff" points="898.5,-395.53 888.17,-393.19 894.79,-401.46 898.5,-395.53"/>
</a>
</g>
</g>
<!-- Node33 -->
<g id="Node000033" class="node">
<title>Node33</title>
<g id="a_Node000033"><a xlink:title=" ">
<polygon fill="#e0e0e0" stroke="#999999" points="1069.5,-393 1019.5,-393 1019.5,-374 1069.5,-374 1069.5,-393"/>
<text text-anchor="middle" x="1044.5" y="-381" font-family="Helvetica,sans-Serif" font-size="10.00">chrono</text>
</a>
</g>
</g>
<!-- Node32&#45;&gt;Node33 -->
<g id="edge44_Node000032_Node000033" class="edge">
<title>Node32&#45;&gt;Node33</title>
<g id="a_edge44_Node000032_Node000033"><a xlink:title=" ">
<path fill="none" stroke="#63b8ff" d="M1044.5,-445.39C1044.5,-433.58 1044.5,-416.6 1044.5,-403.58"/>
<polygon fill="#63b8ff" stroke="#63b8ff" points="1048,-403.37 1044.5,-393.37 1041,-403.37 1048,-403.37"/>
</a>
</g>
</g>
<!-- Node34 -->
<g id="Node000034" class="node">
<title>Node34</title>
<g id="a_Node000034"><a xlink:title=" ">
<polygon fill="#e0e0e0" stroke="#999999" points="1169.5,-393 1125.5,-393 1125.5,-374 1169.5,-374 1169.5,-393"/>
<text text-anchor="middle" x="1147.5" y="-381" font-family="Helvetica,sans-Serif" font-size="10.00">ctime</text>
</a>
</g>
</g>
<!-- Node32&#45;&gt;Node34 -->
<g id="edge45_Node000032_Node000034" class="edge">
<title>Node32&#45;&gt;Node34</title>
<g id="a_edge45_Node000032_Node000034"><a xlink:title=" ">
<path fill="none" stroke="#63b8ff" d="M1063.87,-445.39C1082,-432.19 1108.97,-412.55 1127.35,-399.17"/>
<polygon fill="#63b8ff" stroke="#63b8ff" points="1129.58,-401.88 1135.6,-393.16 1125.46,-396.22 1129.58,-401.88"/>
</a>
</g>
</g>
<!-- Node35 -->
<g id="Node000035" class="node">
<title>Node35</title>
<g id="a_Node000035"><a xlink:title=" ">
<polygon fill="#e0e0e0" stroke="#999999" points="1243.5,-393 1187.5,-393 1187.5,-374 1243.5,-374 1243.5,-393"/>
<text text-anchor="middle" x="1215.5" y="-381" font-family="Helvetica,sans-Serif" font-size="10.00">sstream</text>
</a>
</g>
</g>
<!-- Node32&#45;&gt;Node35 -->
<g id="edge47_Node000032_Node000035" class="edge">
<title>Node32&#45;&gt;Node35</title>
<g id="a_edge47_Node000032_Node000035"><a xlink:title=" ">
<path fill="none" stroke="#63b8ff" d="M1081.01,-445.44C1108.18,-434.72 1146.02,-419.25 1178.5,-404 1182.49,-402.13 1186.67,-400.04 1190.73,-397.96"/>
<polygon fill="#63b8ff" stroke="#63b8ff" points="1192.6,-400.93 1199.82,-393.18 1189.34,-394.73 1192.6,-400.93"/>
</a>
</g>
</g>
<!-- Node36 -->
<g id="Node000036" class="node">
<title>Node36</title>
<g id="a_Node000036"><a xlink:title=" ">
<polygon fill="#e0e0e0" stroke="#999999" points="1001.5,-393 915.5,-393 915.5,-374 1001.5,-374 1001.5,-393"/>
<text text-anchor="middle" x="958.5" y="-381" font-family="Helvetica,sans-Serif" font-size="10.00">unordered_set</text>
</a>
</g>
</g>
<!-- Node32&#45;&gt;Node36 -->
<g id="edge48_Node000032_Node000036" class="edge">
<title>Node32&#45;&gt;Node36</title>
<g id="a_edge48_Node000032_Node000036"><a xlink:title=" ">
<path fill="none" stroke="#63b8ff" d="M1028.32,-445.39C1013.54,-432.5 991.73,-413.48 976.42,-400.13"/>
<polygon fill="#63b8ff" stroke="#63b8ff" points="978.51,-397.31 968.68,-393.37 973.91,-402.59 978.51,-397.31"/>
</a>
</g>
</g>
<!-- Node37&#45;&gt;Node4 -->
<g id="edge51_Node000037_Node000004" class="edge">
<title>Node37&#45;&gt;Node4</title>
<g id="a_edge51_Node000037_Node000004"><a xlink:title=" ">
<path fill="none" stroke="#63b8ff" d="M241.79,-445.44C225.8,-436.13 207.55,-422.26 198.5,-404 190.4,-387.67 186.96,-377.11 198.5,-363 209.05,-350.09 294.61,-334.83 362.1,-324.59"/>
<polygon fill="#63b8ff" stroke="#63b8ff" points="362.97,-328 372.34,-323.06 361.94,-321.08 362.97,-328"/>
</a>
</g>
</g>
<!-- Node37&#45;&gt;Node23 -->
<g id="edge52_Node000037_Node000023" class="edge">
<title>Node37&#45;&gt;Node23</title>
<g id="a_edge52_Node000037_Node000023"><a xlink:title=" ">
<path fill="none" stroke="#63b8ff" d="M271.5,-445.39C271.5,-435.13 271.5,-420.97 271.5,-408.88"/>
<polygon fill="#63b8ff" stroke="#63b8ff" points="275,-408.54 271.5,-398.54 268,-408.54 275,-408.54"/>
</a>
</g>
</g>
</g>
</svg>

<g id="navigator" transform="translate(0 0)" fill="#404254">
  <rect fill="#f2f5e9" fill-opacity="0.5" stroke="#606060" stroke-width=".5" x="0" y="0" width="60" height="60"/>
  <use id="zoomplus" xlink:href="#zoomPlus" x="17" y="9" onmousedown="handleZoom(evt,'in')"/>
  <use id="zoomminus" xlink:href="#zoomMin" x="42" y="9" onmousedown="handleZoom(evt,'out')"/>
  <use id="reset" xlink:href="#resetDef" x="30" y="36" onmousedown="handleReset()"/>
   <use id="arrowup" xlink:href="#arrowUp" x="0" y="0" onmousedown="handlePan(0,-1)"/>
  <use id="arrowright" xlink:href="#arrowRight" x="0" y="0" onmousedown="handlePan(1,0)"/>
  <use id="arrowdown" xlink:href="#arrowDown" x="0" y="0" onmousedown="handlePan(0,1)"/>
  <use id="arrowleft" xlink:href="#arrowLeft" x="0" y="0" onmousedown="handlePan(-1,0)"/>
</g>
<svg viewBox="0 0 15 15" width="100%" height="30px" preserveAspectRatio="xMaxYMin meet">
 <g id="arrow_out" transform="scale(0.3 0.3)">
  <a xlink:href="turbine__utils_8cpp__incl_org.svg" target="_base">
   <rect id="button" ry="5" rx="5" y="6" x="6" height="38" width="38"
        fill="#f2f5e9" fill-opacity="0.5" stroke="#606060" stroke-width="1.0"/>
   <path id="arrow"
     d="M 11.500037,31.436501 C 11.940474,20.09759 22.043105,11.32322 32.158766,21.979434 L 37.068811,17.246167 C 37.068811,17.246167 37.088388,32 37.088388,32 L 22.160133,31.978069 C 22.160133,31.978069 26.997745,27.140456 26.997745,27.140456 C 18.528582,18.264221 13.291696,25.230495 11.500037,31.436501 z"
     style="fill:#404040;"/>
  </a>
 </g>
</svg>

<style type='text/css'>
<![CDATA[
[data-mouse-over-selected='false'] { opacity: 0.7; }
[data-mouse-over-selected='true']  { opacity: 1.0; }
]]>
</style>
<script type="application/ecmascript"><![CDATA[
document.addEventListener('DOMContentLoaded', (event) => {
  highlightEdges();
  highlightAdjacentNodes();
});
]]></script>
</svg>
