<?xml version="1.0" encoding="UTF-8" standalone="no"?>
<!DOCTYPE svg PUBLIC "-//W3C//DTD SVG 1.1//EN"
 "http://www.w3.org/Graphics/SVG/1.1/DTD/svg11.dtd">
<!-- Generated by graphviz version 2.43.0 (0)
 -->
<!-- Title: /home/runner/work/amr&#45;wind/amr&#45;wind/amr&#45;wind/equation_systems/vof/vof_momentum_flux.H Pages: 1 -->
<svg width="522pt" height="247pt"
 viewBox="0.00 0.00 522.00 247.00" xmlns="http://www.w3.org/2000/svg" xmlns:xlink="http://www.w3.org/1999/xlink">
<g id="graph0" class="graph" transform="scale(1 1) rotate(0) translate(4 243)">
<title>/home/runner/work/amr&#45;wind/amr&#45;wind/amr&#45;wind/equation_systems/vof/vof_momentum_flux.H</title>
<!-- Node1 -->
<g id="Node000001" class="node">
<title>Node1</title>
<g id="a_Node000001"><a xlink:title=" ">
<polygon fill="#999999" stroke="#666666" points="146,-239 0,-239 0,-187 146,-187 146,-239"/>
<text text-anchor="start" x="8" y="-227" font-family="Helvetica,sans-Serif" font-size="10.00">/home/runner/work/amr</text>
<text text-anchor="start" x="8" y="-216" font-family="Helvetica,sans-Serif" font-size="10.00">&#45;wind/amr&#45;wind/amr&#45;wind</text>
<text text-anchor="start" x="8" y="-205" font-family="Helvetica,sans-Serif" font-size="10.00">/equation_systems/vof/vof</text>
<text text-anchor="middle" x="73" y="-194" font-family="Helvetica,sans-Serif" font-size="10.00">_momentum_flux.H</text>
</a>
</g>
</g>
<!-- Node2 -->
<g id="Node000002" class="node">
<title>Node2</title>
<g id="a_Node000002"><a xlink:href="volume__fractions_8_h.html" target="_top" xlink:title=" ">
<polygon fill="white" stroke="#666666" points="226.5,-151 71.5,-151 71.5,-121 226.5,-121 226.5,-151"/>
<text text-anchor="start" x="79.5" y="-139" font-family="Helvetica,sans-Serif" font-size="10.00">amr&#45;wind/equation_systems</text>
<text text-anchor="middle" x="149" y="-128" font-family="Helvetica,sans-Serif" font-size="10.00">/vof/volume_fractions.H</text>
</a>
</g>
</g>
<!-- Node1&#45;&gt;Node2 -->
<g id="edge1_Node000001_Node000002" class="edge">
<title>Node1&#45;&gt;Node2</title>
<g id="a_edge1_Node000001_Node000002"><a xlink:title=" ">
<path fill="none" stroke="#63b8ff" d="M98.73,-186.61C107.92,-177.54 118.19,-167.41 127.03,-158.68"/>
<polygon fill="#63b8ff" stroke="#63b8ff" points="129.72,-160.94 134.38,-151.43 124.8,-155.96 129.72,-160.94"/>
</a>
</g>
</g>
<!-- Node6 -->
<g id="Node000006" class="node">
<title>Node6</title>
<g id="a_Node000006"><a xlink:title=" ">
<polygon fill="#e0e0e0" stroke="#999999" points="252,-19 160,-19 160,0 252,0 252,-19"/>
<text text-anchor="middle" x="206" y="-7" font-family="Helvetica,sans-Serif" font-size="10.00">AMReX_REAL.H</text>
</a>
</g>
</g>
<!-- Node1&#45;&gt;Node6 -->
<g id="edge9_Node000001_Node000006" class="edge">
<title>Node1&#45;&gt;Node6</title>
<g id="a_edge9_Node000001_Node000006"><a xlink:title=" ">
<path fill="none" stroke="#63b8ff" d="M50.02,-186.74C22.69,-153.53 -15.53,-94.76 16,-55 32.49,-34.2 99.99,-22.19 149.86,-16"/>
<polygon fill="#63b8ff" stroke="#63b8ff" points="150.38,-19.47 159.9,-14.81 149.55,-12.52 150.38,-19.47"/>
</a>
</g>
</g>
<!-- Node3 -->
<g id="Node000003" class="node">
<title>Node3</title>
<g id="a_Node000003"><a xlink:title=" ">
<polygon fill="#e0e0e0" stroke="#999999" points="207.5,-79.5 90.5,-79.5 90.5,-60.5 207.5,-60.5 207.5,-79.5"/>
<text text-anchor="middle" x="149" y="-67.5" font-family="Helvetica,sans-Serif" font-size="10.00">AMReX_FArrayBox.H</text>
</a>
</g>
</g>
<!-- Node2&#45;&gt;Node3 -->
<g id="edge2_Node000002_Node000003" class="edge">
<title>Node2&#45;&gt;Node3</title>
<g id="a_edge2_Node000002_Node000003"><a xlink:title=" ">
<path fill="none" stroke="#63b8ff" d="M149,-120.8C149,-111.7 149,-99.79 149,-89.9"/>
<polygon fill="#63b8ff" stroke="#63b8ff" points="152.5,-89.84 149,-79.84 145.5,-89.84 152.5,-89.84"/>
</a>
</g>
</g>
<!-- Node4 -->
<g id="Node000004" class="node">
<title>Node4</title>
<g id="a_Node000004"><a xlink:title=" ">
<polygon fill="#e0e0e0" stroke="#999999" points="72.5,-79.5 25.5,-79.5 25.5,-60.5 72.5,-60.5 72.5,-79.5"/>
<text text-anchor="middle" x="49" y="-67.5" font-family="Helvetica,sans-Serif" font-size="10.00">cmath</text>
</a>
</g>
</g>
<!-- Node2&#45;&gt;Node4 -->
<g id="edge3_Node000002_Node000004" class="edge">
<title>Node2&#45;&gt;Node4</title>
<g id="a_edge3_Node000002_Node000004"><a xlink:title=" ">
<path fill="none" stroke="#63b8ff" d="M126.81,-120.8C110.2,-110.17 87.6,-95.7 71.03,-85.1"/>
<polygon fill="#63b8ff" stroke="#63b8ff" points="72.84,-82.1 62.53,-79.66 69.06,-88 72.84,-82.1"/>
</a>
</g>
</g>
<!-- Node5 -->
<g id="Node000005" class="node">
<title>Node5</title>
<g id="a_Node000005"><a xlink:href="constants_8_h.html" target="_top" xlink:title=" ">
<polygon fill="white" stroke="#666666" points="367.5,-85 264.5,-85 264.5,-55 367.5,-55 367.5,-85"/>
<text text-anchor="start" x="272.5" y="-73" font-family="Helvetica,sans-Serif" font-size="10.00">amr&#45;wind/utilities</text>
<text text-anchor="middle" x="316" y="-62" font-family="Helvetica,sans-Serif" font-size="10.00">/constants.H</text>
</a>
</g>
</g>
<!-- Node2&#45;&gt;Node5 -->
<g id="edge4_Node000002_Node000005" class="edge">
<title>Node2&#45;&gt;Node5</title>
<g id="a_edge4_Node000002_Node000005"><a xlink:title=" ">
<path fill="none" stroke="#63b8ff" d="M185.65,-120.95C210.45,-111.45 243.4,-98.82 269.96,-88.64"/>
<polygon fill="#63b8ff" stroke="#63b8ff" points="271.35,-91.86 279.44,-85.01 268.85,-85.32 271.35,-91.86"/>
</a>
</g>
</g>
<!-- Node2&#45;&gt;Node6 -->
<g id="edge8_Node000002_Node000006" class="edge">
<title>Node2&#45;&gt;Node6</title>
<g id="a_edge8_Node000002_Node000006"><a xlink:title=" ">
<path fill="none" stroke="#63b8ff" d="M179.03,-120.84C192.98,-112.53 208.19,-100.57 216,-85 224.84,-67.37 219.76,-44.59 214.11,-28.89"/>
<polygon fill="#63b8ff" stroke="#63b8ff" points="217.24,-27.28 210.27,-19.3 210.74,-29.88 217.24,-27.28"/>
</a>
</g>
</g>
<!-- Node5&#45;&gt;Node6 -->
<g id="edge5_Node000005_Node000006" class="edge">
<title>Node5&#45;&gt;Node6</title>
<g id="a_edge5_Node000005_Node000006"><a xlink:title=" ">
<path fill="none" stroke="#63b8ff" d="M289.65,-54.99C271.95,-45.58 248.77,-33.24 231.29,-23.95"/>
<polygon fill="#63b8ff" stroke="#63b8ff" points="232.72,-20.74 222.24,-19.14 229.43,-26.92 232.72,-20.74"/>
</a>
</g>
</g>
<!-- Node7 -->
<g id="Node000007" class="node">
<title>Node7</title>
<g id="a_Node000007"><a xlink:title=" ">
<polygon fill="#e0e0e0" stroke="#999999" points="362,-19 270,-19 270,0 362,0 362,-19"/>
<text text-anchor="middle" x="316" y="-7" font-family="Helvetica,sans-Serif" font-size="10.00">AMReX_Math.H</text>
</a>
</g>
</g>
<!-- Node5&#45;&gt;Node7 -->
<g id="edge6_Node000005_Node000007" class="edge">
<title>Node5&#45;&gt;Node7</title>
<g id="a_edge6_Node000005_Node000007"><a xlink:title=" ">
<path fill="none" stroke="#63b8ff" d="M316,-54.84C316,-47.21 316,-37.7 316,-29.45"/>
<polygon fill="#63b8ff" stroke="#63b8ff" points="319.5,-29.27 316,-19.27 312.5,-29.27 319.5,-29.27"/>
</a>
</g>
</g>
<!-- Node8 -->
<g id="Node000008" class="node">
<title>Node8</title>
<g id="a_Node000008"><a xlink:title=" ">
<polygon fill="#e0e0e0" stroke="#999999" points="514,-19 380,-19 380,0 514,0 514,-19"/>
<text text-anchor="middle" x="447" y="-7" font-family="Helvetica,sans-Serif" font-size="10.00">AMReX_GpuQualifiers.H</text>
</a>
</g>
</g>
<!-- Node5&#45;&gt;Node8 -->
<g id="edge7_Node000005_Node000008" class="edge">
<title>Node5&#45;&gt;Node8</title>
<g id="a_edge7_Node000005_Node000008"><a xlink:title=" ">
<path fill="none" stroke="#63b8ff" d="M347.38,-54.99C368.94,-45.36 397.35,-32.67 418.31,-23.31"/>
<polygon fill="#63b8ff" stroke="#63b8ff" points="419.95,-26.41 427.65,-19.14 417.1,-20.02 419.95,-26.41"/>
</a>
</g>
</g>
</g>
</svg>
