<?xml version="1.0" encoding="UTF-8" standalone="no"?>
<!DOCTYPE svg PUBLIC "-//W3C//DTD SVG 1.1//EN"
 "http://www.w3.org/Graphics/SVG/1.1/DTD/svg11.dtd">
<!-- Generated by graphviz version 2.43.0 (0)
 -->
<!-- Title: /home/runner/work/amr&#45;wind/amr&#45;wind/amr&#45;wind/equation_systems/vof/vof_hybridsolver_ops.H Pages: 1 -->
<svg width="174pt" height="225pt"
 viewBox="0.00 0.00 174.00 225.00" xmlns="http://www.w3.org/2000/svg" xmlns:xlink="http://www.w3.org/1999/xlink">
<g id="graph0" class="graph" transform="scale(1 1) rotate(0) translate(4 221)">
<title>/home/runner/work/amr&#45;wind/amr&#45;wind/amr&#45;wind/equation_systems/vof/vof_hybridsolver_ops.H</title>
<!-- Node1 -->
<g id="Node000001" class="node">
<title>Node1</title>
<g id="a_Node000001"><a xlink:title=" ">
<polygon fill="#999999" stroke="#666666" points="156,-217 10,-217 10,-165 156,-165 156,-217"/>
<text text-anchor="start" x="18" y="-205" font-family="Helvetica,sans-Serif" font-size="10.00">/home/runner/work/amr</text>
<text text-anchor="start" x="18" y="-194" font-family="Helvetica,sans-Serif" font-size="10.00">&#45;wind/amr&#45;wind/amr&#45;wind</text>
<text text-anchor="start" x="18" y="-183" font-family="Helvetica,sans-Serif" font-size="10.00">/equation_systems/vof/vof</text>
<text text-anchor="middle" x="83" y="-172" font-family="Helvetica,sans-Serif" font-size="10.00">_hybridsolver_ops.H</text>
</a>
</g>
</g>
<!-- Node2 -->
<g id="Node000002" class="node">
<title>Node2</title>
<g id="a_Node000002"><a xlink:href="vof__advection_8_h.html" target="_top" xlink:title=" ">
<polygon fill="white" stroke="#666666" points="156,-129 10,-129 10,-77 156,-77 156,-129"/>
<text text-anchor="start" x="18" y="-117" font-family="Helvetica,sans-Serif" font-size="10.00">/home/runner/work/amr</text>
<text text-anchor="start" x="18" y="-106" font-family="Helvetica,sans-Serif" font-size="10.00">&#45;wind/amr&#45;wind/amr&#45;wind</text>
<text text-anchor="start" x="18" y="-95" font-family="Helvetica,sans-Serif" font-size="10.00">/equation_systems/vof/vof</text>
<text text-anchor="middle" x="83" y="-84" font-family="Helvetica,sans-Serif" font-size="10.00">_advection.H</text>
</a>
</g>
</g>
<!-- Node1&#45;&gt;Node2 -->
<g id="edge1_Node000001_Node000002" class="edge">
<title>Node1&#45;&gt;Node2</title>
<g id="a_edge1_Node000001_Node000002"><a xlink:title=" ">
<path fill="none" stroke="#63b8ff" d="M83,-154.56C83,-146.04 83,-137.1 83,-129.16"/>
<polygon fill="#63b8ff" stroke="#63b8ff" points="79.5,-154.66 83,-164.66 86.5,-154.66 79.5,-154.66"/>
</a>
</g>
</g>
<!-- Node3 -->
<g id="Node000003" class="node">
<title>Node3</title>
<g id="a_Node000003"><a xlink:href="vof_8cpp.html" target="_top" xlink:title=" ">
<polygon fill="white" stroke="#666666" points="166,-41 0,-41 0,0 166,0 166,-41"/>
<text text-anchor="start" x="8" y="-29" font-family="Helvetica,sans-Serif" font-size="10.00">/home/runner/work/amr</text>
<text text-anchor="start" x="8" y="-18" font-family="Helvetica,sans-Serif" font-size="10.00">&#45;wind/amr&#45;wind/amr&#45;wind</text>
<text text-anchor="middle" x="83" y="-7" font-family="Helvetica,sans-Serif" font-size="10.00">/equation_systems/vof/vof.cpp</text>
</a>
</g>
</g>
<!-- Node2&#45;&gt;Node3 -->
<g id="edge2_Node000002_Node000003" class="edge">
<title>Node2&#45;&gt;Node3</title>
<g id="a_edge2_Node000002_Node000003"><a xlink:title=" ">
<path fill="none" stroke="#63b8ff" d="M83,-66.87C83,-58.05 83,-48.9 83,-41.15"/>
<polygon fill="#63b8ff" stroke="#63b8ff" points="79.5,-66.97 83,-76.97 86.5,-66.97 79.5,-66.97"/>
</a>
</g>
</g>
</g>
</svg>
